G04 #@! TF.GenerationSoftware,KiCad,Pcbnew,(5.1.0)-1*
G04 #@! TF.CreationDate,2019-04-19T11:20:35+10:00*
G04 #@! TF.ProjectId,VNA,564e412e-6b69-4636-9164-5f7063625858,rev?*
G04 #@! TF.SameCoordinates,Original*
G04 #@! TF.FileFunction,Profile,NP*
%FSLAX46Y46*%
G04 Gerber Fmt 4.6, Leading zero omitted, Abs format (unit mm)*
G04 Created by KiCad (PCBNEW (5.1.0)-1) date 2019-04-19 11:20:35*
%MOMM*%
%LPD*%
G04 APERTURE LIST*
%ADD10C,0.050000*%
G04 APERTURE END LIST*
D10*
X190200000Y-74400000D02*
X190200000Y-63800000D01*
X190200000Y-107400000D02*
X190200000Y-82200000D01*
X190200000Y-125800000D02*
X190200000Y-115200000D01*
X90200000Y-125800000D02*
X90200000Y-63800000D01*
X90200000Y-63800000D02*
G75*
G02X92200000Y-61800000I2000000J0D01*
G01*
X92200000Y-127800000D02*
G75*
G02X90200000Y-125800000I0J2000000D01*
G01*
X188200000Y-127800000D02*
X92200000Y-127800000D01*
X190200000Y-125800000D02*
G75*
G02X188200000Y-127800000I-2000000J0D01*
G01*
X188200000Y-61800000D02*
G75*
G02X190200000Y-63800000I0J-2000000D01*
G01*
X92200000Y-61800000D02*
X188200000Y-61800000D01*
X188400000Y-114700000D02*
X189700000Y-114700000D01*
X189700000Y-114700000D02*
G75*
G02X190200000Y-115200000I0J-500000D01*
G01*
X188400000Y-107900000D02*
X189700000Y-107900000D01*
X188400000Y-107900000D02*
X188400000Y-114700000D01*
X190200000Y-107400000D02*
G75*
G02X189700000Y-107900000I-500000J0D01*
G01*
X188400000Y-81700000D02*
X189700000Y-81700000D01*
X189700000Y-81700000D02*
G75*
G02X190200000Y-82200000I0J-500000D01*
G01*
X188400000Y-74900000D02*
X189700000Y-74900000D01*
X188400000Y-74900000D02*
X188400000Y-81700000D01*
X190200000Y-74400000D02*
G75*
G02X189700000Y-74900000I-500000J0D01*
G01*
M02*
