<?xml version="1.0" standalone="no"?>
 <!DOCTYPE svg PUBLIC "-//W3C//DTD SVG 1.1//EN" 
 "http://www.w3.org/Graphics/SVG/1.1/DTD/svg11.dtd"> 
<svg xmlns="http://www.w3.org/2000/svg" version="1.1" 
    width="7.13994cm" height="2.56794cm" viewBox="0 0 28110 10110 ">
<title>SVG Picture created as RearPanel-brd.svg date 2019/04/15 15:41:43 </title>
  <desc>Picture generated by PCBNEW </desc>
<g style="fill:#000000; fill-opacity:1;stroke:#000000; stroke-opacity:1;
stroke-linecap:round; stroke-linejoin:round; "
 transform="translate(0 0) scale(1 1)">
</g>
<g style="fill:#000000; fill-opacity:0.0; 
stroke:#000000; stroke-width:-0.000393701; stroke-opacity:1; 
stroke-linecap:round; stroke-linejoin:round;">
</g>
<g style="fill:#840000; fill-opacity:0.0; 
stroke:#840000; stroke-width:-0.000393701; stroke-opacity:1; 
stroke-linecap:round; stroke-linejoin:round;">
</g>
<g style="fill:#840000; fill-opacity:1.0; 
stroke:#840000; stroke-width:3.93701; stroke-opacity:1; 
stroke-linecap:round; stroke-linejoin:round;">
<path style="fill:#840000; fill-opacity:1.0; 
stroke:#840000; stroke-width:3.93701; stroke-opacity:1; 
stroke-linecap:round; stroke-linejoin:round;fill-rule:evenodd;"
d="M 4882,3030
4912,3188
5131,3279
5263,3189
5300,3164
5333,3142
5361,3123
5383,3110
5396,3101
5400,3100
5406,3104
5420,3117
5440,3136
5464,3159
5491,3186
5520,3214
5547,3243
5573,3270
5595,3293
5612,3312
5623,3325
5625,3329
5622,3336
5612,3353
5596,3378
5576,3408
5553,3442
5540,3462
5515,3498
5494,3530
5476,3557
5463,3578
5455,3590
5454,3592
5457,3600
5463,3616
5473,3641
5486,3670
5499,3702
5513,3733
5525,3763
5536,3788
5544,3806
5549,3814
5549,3815
5556,3816
5573,3820
5600,3825
5635,3832
5675,3840
5698,3844
5741,3852
5780,3860
5812,3867
5837,3872
5851,3876
5854,3878
5857,3886
5859,3906
5861,3934
5862,3968
5863,4007
5863,4047
5862,4087
5861,4123
5860,4155
5858,4179
5855,4194
5854,4197
5844,4201
5825,4206
5797,4212
5765,4219
5753,4221
5699,4231
5655,4239
5622,4245
5597,4251
5580,4255
5568,4258
5561,4261
5557,4265
5556,4265
5550,4275
5541,4294
5530,4321
5517,4352
5504,4385
5492,4418
5481,4449
5472,4475
5466,4493
5465,4503
5465,4503
5470,4511
5481,4527
5498,4551
5518,4581
5541,4614
5547,4624
5571,4659
5591,4690
5608,4717
5620,4737
5625,4748
5625,4750
5621,4757
5608,4772
5589,4793
5565,4818
5538,4845
5510,4873
5481,4901
5454,4926
5431,4948
5412,4964
5400,4973
5397,4975
5389,4971
5373,4962
5352,4948
5335,4936
5305,4916
5270,4892
5234,4867
5215,4854
5151,4811
5096,4840
5072,4853
5051,4863
5036,4869
5033,4869
5028,4864
5020,4847
5008,4821
4992,4788
4975,4748
4956,4704
4936,4657
4915,4609
4895,4560
4875,4513
4858,4469
4842,4429
4829,4396
4820,4370
4814,4353
4813,4348
4820,4340
4835,4328
4855,4315
4856,4313
4907,4273
4949,4225
4980,4172
5000,4115
5009,4056
5007,3997
4994,3938
4968,3881
4960,3869
4921,3819
4875,3779
4823,3749
4767,3729
4709,3720
4650,3721
4592,3733
4537,3756
4486,3791
4470,3805
4429,3849
4400,3895
4380,3947
4369,3999
4366,4056
4375,4114
4395,4171
4426,4223
4466,4271
4514,4310
4520,4314
4540,4328
4555,4340
4562,4347
4562,4348
4561,4356
4555,4374
4544,4402
4531,4436
4515,4477
4497,4522
4477,4569
4457,4618
4436,4667
4416,4713
4397,4757
4380,4795
4365,4827
4354,4851
4346,4866
4343,4869
4333,4866
4315,4858
4292,4847
4279,4840
4225,4811
4160,4854
4127,4877
4091,4901
4057,4925
4040,4936
4017,4952
3996,4965
3982,4973
3978,4975
3971,4970
3957,4958
3936,4939
3909,4914
3879,4886
3860,4868
3827,4835
3798,4806
3775,4781
3759,4763
3751,4751
3750,4749
3754,4740
3764,4723
3779,4698
3799,4667
3822,4633
3828,4624
3852,4590
3873,4559
3890,4533
3903,4514
3910,4504
3911,4503
3910,4495
3904,4477
3896,4452
3885,4421
3873,4388
3860,4355
3847,4324
3835,4297
3826,4277
3820,4266
3819,4265
3815,4262
3809,4259
3798,4255
3782,4251
3759,4247
3728,4240
3686,4233
3634,4223
3622,4221
3589,4214
3559,4208
3537,4202
3524,4198
3522,4197
3519,4188
3517,4169
3515,4141
3514,4106
3513,4068
3513,4027
3513,3988
3514,3951
3516,3919
3518,3895
3520,3881
3522,3878
3530,3875
3550,3870
3579,3863
3614,3856
3655,3848
3678,3844
3720,3836
3757,3829
3789,3823
3812,3818
3825,3815
3827,3815
3830,3808
3838,3791
3849,3767
3861,3738
3875,3706
3888,3674
3901,3645
3911,3620
3918,3601
3921,3592
3921,3592
3918,3585
3908,3569
3892,3545
3872,3515
3849,3481
3836,3461
3811,3426
3790,3393
3772,3365
3759,3344
3751,3332
3750,3329
3755,3322
3767,3308
3786,3288
3809,3263
3835,3236
3863,3207
3891,3179
3918,3153
3941,3130
3960,3113
3972,3102
3976,3100
3983,3103
3999,3113
4022,3129
4052,3148
4087,3172
4113,3189
4245,3279
4354,3233
4464,3188
4494,3030
4524,2873
4852,2873
4882,3030
Z" /> 
<path style="fill:#840000; fill-opacity:1.0; 
stroke:#840000; stroke-width:3.93701; stroke-opacity:1; 
stroke-linecap:round; stroke-linejoin:round;fill-rule:evenodd;"
d="M 5626,5211
5649,5218
5663,5227
5668,5234
5667,5242
5658,5255
5651,5264
5636,5280
5625,5287
5616,5287
5588,5280
5567,5280
5550,5288
5545,5293
5527,5310
5527,5527
5454,5527
5454,5211
5490,5211
5512,5212
5523,5215
5527,5221
5527,5222
5528,5228
5535,5227
5545,5222
5565,5214
5581,5209
5601,5208
5626,5211
Z" /> 
<path style="fill:#840000; fill-opacity:1.0; 
stroke:#840000; stroke-width:3.93701; stroke-opacity:1; 
stroke-linecap:round; stroke-linejoin:round;fill-rule:evenodd;"
d="M 4290,5217
4306,5225
4322,5236
4334,5249
4343,5266
4349,5288
4353,5317
4355,5356
4355,5405
4355,5410
4356,5527
4283,5527
4283,5420
4283,5380
4283,5351
4282,5331
4280,5317
4277,5308
4272,5301
4266,5295
4243,5280
4219,5277
4196,5287
4188,5293
4182,5300
4177,5307
4174,5316
4173,5330
4172,5351
4171,5382
4171,5418
4171,5527
4099,5527
4099,5211
4135,5211
4157,5212
4168,5215
4171,5221
4171,5222
4173,5227
4180,5227
4193,5220
4223,5211
4257,5210
4290,5217
Z" /> 
<path style="fill:#840000; fill-opacity:1.0; 
stroke:#840000; stroke-width:3.93701; stroke-opacity:1; 
stroke-linecap:round; stroke-linejoin:round;fill-rule:evenodd;"
d="M 6086,5210
6102,5214
6135,5229
6162,5252
6182,5280
6184,5286
6188,5302
6190,5326
6191,5350
6191,5396
6096,5396
6056,5396
6029,5397
6011,5399
6002,5404
6000,5411
6003,5422
6010,5434
6027,5455
6051,5466
6081,5465
6114,5454
6143,5440
6168,5459
6192,5478
6169,5499
6139,5519
6102,5530
6062,5534
6023,5528
6017,5526
5983,5508
5958,5482
5940,5446
5931,5400
5931,5399
5930,5348
5933,5330
6000,5330
6006,5333
6023,5335
6048,5336
6063,5336
6092,5336
6110,5336
6120,5334
6123,5330
6122,5324
6122,5322
6110,5300
6091,5282
6075,5274
6053,5275
6031,5284
6013,5301
6002,5320
6000,5330
5933,5330
5939,5304
5955,5267
5979,5238
6010,5218
6045,5208
6086,5210
Z" /> 
<path style="fill:#840000; fill-opacity:1.0; 
stroke:#840000; stroke-width:3.93701; stroke-opacity:1; 
stroke-linecap:round; stroke-linejoin:round;fill-rule:evenodd;"
d="M 5845,5214
5883,5230
5895,5238
5910,5250
5920,5260
5921,5263
5917,5270
5905,5282
5895,5290
5868,5311
5848,5293
5831,5282
5816,5278
5798,5279
5769,5286
5749,5301
5737,5325
5732,5359
5732,5359
5732,5398
5740,5426
5754,5445
5764,5452
5790,5460
5819,5460
5843,5452
5849,5448
5864,5438
5875,5437
5887,5444
5901,5457
5922,5479
5898,5499
5862,5521
5820,5532
5777,5532
5748,5524
5715,5506
5688,5478
5676,5458
5666,5430
5661,5393
5661,5354
5666,5317
5676,5285
5677,5282
5700,5250
5730,5227
5766,5213
5805,5209
5845,5214
Z" /> 
<path style="fill:#840000; fill-opacity:1.0; 
stroke:#840000; stroke-width:3.93701; stroke-opacity:1; 
stroke-linecap:round; stroke-linejoin:round;fill-rule:evenodd;"
d="M 5204,5314
5205,5362
5207,5399
5212,5425
5219,5443
5230,5454
5245,5460
5263,5461
5283,5460
5298,5454
5308,5443
5316,5424
5320,5397
5322,5360
5323,5314
5323,5211
5395,5211
5395,5527
5359,5527
5337,5526
5326,5523
5323,5517
5321,5512
5313,5513
5298,5521
5263,5532
5227,5531
5191,5519
5174,5509
5162,5498
5152,5485
5146,5467
5142,5443
5139,5411
5139,5368
5138,5335
5138,5211
5204,5211
5204,5314
Z" /> 
<path style="fill:#840000; fill-opacity:1.0; 
stroke:#840000; stroke-width:3.93701; stroke-opacity:1; 
stroke-linecap:round; stroke-linejoin:round;fill-rule:evenodd;"
d="M 5004,5215
5037,5233
5063,5262
5076,5285
5081,5306
5084,5335
5086,5369
5085,5403
5083,5433
5079,5449
5069,5470
5050,5493
5028,5514
5005,5527
5005,5527
4977,5533
4945,5533
4914,5528
4902,5523
4871,5506
4849,5483
4834,5453
4826,5413
4824,5392
4825,5366
4895,5366
4897,5404
4904,5433
4915,5452
4923,5457
4943,5461
4966,5460
4987,5454
4992,5451
5006,5434
5015,5408
5019,5376
5017,5342
5013,5322
5001,5298
4981,5283
4958,5278
4933,5283
4914,5296
4904,5307
4899,5318
4896,5333
4895,5355
4895,5366
4825,5366
4825,5337
4834,5291
4851,5255
4878,5230
4912,5214
4920,5212
4965,5208
5004,5215
Z" /> 
<path style="fill:#840000; fill-opacity:1.0; 
stroke:#840000; stroke-width:3.93701; stroke-opacity:1; 
stroke-linecap:round; stroke-linejoin:round;fill-rule:evenodd;"
d="M 4692,5210
4717,5215
4743,5225
4745,5226
4765,5237
4779,5246
4783,5252
4779,5262
4769,5277
4764,5283
4746,5304
4722,5290
4699,5281
4673,5276
4647,5275
4628,5280
4623,5283
4614,5297
4613,5312
4620,5324
4624,5327
4636,5330
4656,5333
4682,5336
4687,5337
4728,5344
4758,5356
4778,5374
4789,5400
4792,5431
4787,5466
4772,5494
4746,5514
4709,5527
4668,5532
4635,5532
4608,5527
4589,5521
4566,5510
4544,5497
4537,5492
4517,5475
4564,5427
4591,5445
4619,5459
4648,5466
4675,5466
4699,5461
4716,5449
4721,5440
4721,5424
4707,5412
4681,5404
4653,5400
4609,5393
4576,5380
4555,5359
4543,5331
4542,5299
4549,5264
4567,5238
4595,5221
4633,5211
4661,5209
4692,5210
Z" /> 
<path style="fill:#840000; fill-opacity:1.0; 
stroke:#840000; stroke-width:3.93701; stroke-opacity:1; 
stroke-linecap:round; stroke-linejoin:round;fill-rule:evenodd;"
d="M 3975,5219
3981,5222
4004,5239
4025,5263
4041,5289
4046,5302
4050,5324
4053,5350
4053,5361
4053,5396
3854,5396
3858,5414
3869,5435
3887,5454
3909,5466
3922,5468
3941,5465
3963,5458
3971,5454
3999,5440
4023,5458
4037,5471
4044,5481
4044,5484
4038,5491
4024,5502
4010,5511
3975,5526
3936,5533
3897,5531
3865,5522
3833,5501
3810,5475
3796,5440
3790,5396
3789,5376
3791,5330
3792,5329
3858,5329
3859,5333
3867,5335
3882,5336
3908,5336
3918,5336
3948,5336
3967,5335
3977,5332
3980,5328
3981,5327
3976,5316
3966,5301
3962,5296
3945,5281
3928,5275
3919,5275
3894,5281
3873,5297
3859,5321
3859,5322
3858,5329
3792,5329
3799,5294
3813,5265
3830,5244
3861,5222
3898,5210
3937,5209
3975,5219
Z" /> 
<path style="fill:#840000; fill-opacity:1.0; 
stroke:#840000; stroke-width:3.93701; stroke-opacity:1; 
stroke-linecap:round; stroke-linejoin:round;fill-rule:evenodd;"
d="M 3357,5215
3391,5230
3417,5256
3435,5291
3445,5337
3445,5344
3446,5395
3439,5439
3425,5475
3417,5487
3391,5511
3357,5527
3319,5533
3281,5530
3251,5520
3226,5502
3206,5480
3205,5479
3197,5465
3192,5451
3188,5433
3186,5408
3186,5387
3185,5369
3251,5369
3252,5387
3254,5412
3258,5428
3265,5439
3272,5446
3297,5460
3323,5462
3347,5452
3359,5440
3368,5429
3373,5419
3375,5405
3375,5384
3374,5364
3373,5337
3371,5319
3366,5307
3359,5298
3354,5293
3330,5280
3305,5279
3283,5287
3265,5304
3254,5331
3251,5369
3185,5369
3185,5346
3186,5316
3190,5293
3197,5275
3208,5259
3212,5254
3237,5230
3264,5216
3298,5210
3314,5210
3357,5215
Z" /> 
<path style="fill:#840000; fill-opacity:1.0; 
stroke:#840000; stroke-width:3.93701; stroke-opacity:1; 
stroke-linecap:round; stroke-linejoin:round;fill-rule:evenodd;"
d="M 5748,5707
5779,5715
5806,5732
5819,5744
5839,5774
5851,5809
5856,5851
5856,5855
5856,5889
5657,5889
5661,5907
5669,5924
5682,5941
5685,5943
5709,5958
5736,5961
5768,5951
5773,5948
5790,5940
5801,5936
5803,5935
5809,5939
5822,5949
5829,5955
5842,5967
5847,5976
5843,5983
5842,5985
5831,5994
5812,6005
5800,6012
5763,6023
5723,6027
5685,6022
5675,6019
5642,6002
5617,5975
5601,5938
5593,5891
5593,5866
5595,5830
5658,5830
5664,5833
5681,5835
5705,5836
5721,5836
5750,5836
5768,5835
5778,5833
5782,5829
5783,5823
5778,5806
5763,5788
5745,5775
5726,5769
5701,5774
5679,5788
5663,5809
5658,5830
5595,5830
5596,5814
5608,5773
5627,5741
5654,5720
5689,5708
5708,5706
5748,5707
Z" /> 
<path style="fill:#840000; fill-opacity:1.0; 
stroke:#840000; stroke-width:3.93701; stroke-opacity:1; 
stroke-linecap:round; stroke-linejoin:round;fill-rule:evenodd;"
d="M 5540,5705
5565,5710
5580,5717
5595,5729
5573,5757
5560,5773
5551,5781
5542,5782
5529,5778
5523,5776
5498,5773
5475,5780
5458,5796
5455,5801
5452,5815
5450,5839
5448,5874
5448,5916
5448,5922
5448,6027
5375,6027
5375,5705
5412,5705
5432,5705
5443,5708
5447,5713
5448,5719
5448,5732
5465,5719
5485,5709
5512,5705
5540,5705
Z" /> 
<path style="fill:#840000; fill-opacity:1.0; 
stroke:#840000; stroke-width:3.93701; stroke-opacity:1; 
stroke-linecap:round; stroke-linejoin:round;fill-rule:evenodd;"
d="M 5228,5707
5256,5714
5264,5717
5279,5727
5291,5737
5300,5751
5306,5769
5310,5794
5313,5827
5314,5871
5315,5901
5317,6027
5280,6027
5258,6026
5247,6023
5244,6018
5242,6012
5235,6013
5226,6018
5202,6025
5171,6027
5139,6024
5110,6016
5108,6014
5082,5996
5064,5971
5056,5941
5057,5930
5122,5930
5127,5944
5144,5955
5172,5960
5186,5961
5210,5959
5227,5952
5231,5948
5241,5929
5244,5912
5244,5889
5212,5889
5174,5891
5148,5897
5132,5907
5128,5912
5122,5930
5057,5930
5058,5909
5070,5879
5086,5859
5096,5850
5106,5845
5118,5841
5137,5839
5164,5838
5175,5838
5244,5835
5244,5814
5241,5793
5231,5779
5212,5771
5211,5771
5184,5768
5157,5772
5137,5782
5129,5788
5120,5787
5107,5779
5099,5774
5084,5763
5074,5754
5073,5752
5079,5739
5098,5724
5106,5719
5129,5710
5160,5705
5194,5704
5228,5707
Z" /> 
<path style="fill:#840000; fill-opacity:1.0; 
stroke:#840000; stroke-width:3.93701; stroke-opacity:1; 
stroke-linecap:round; stroke-linejoin:round;fill-rule:evenodd;"
d="M 4832,5706
4858,5708
4892,5810
4926,5912
4937,5876
4943,5854
4951,5823
4961,5790
4965,5772
4983,5705
5058,5705
5036,5776
5025,5810
5012,5852
4998,5896
4985,5935
4957,6024
4896,6028
4880,5973
4869,5939
4858,5902
4848,5869
4848,5868
4841,5845
4834,5830
4830,5824
4829,5825
4826,5834
4820,5853
4811,5880
4802,5912
4796,5930
4768,6027
4707,6027
4659,5874
4645,5831
4633,5792
4622,5759
4614,5734
4609,5717
4607,5713
4608,5708
4618,5706
4639,5706
4642,5706
4680,5708
4705,5800
4715,5834
4723,5863
4729,5886
4733,5900
4734,5902
4737,5900
4744,5886
4753,5864
4763,5835
4772,5808
4806,5704
4832,5706
Z" /> 
<path style="fill:#840000; fill-opacity:1.0; 
stroke:#840000; stroke-width:3.93701; stroke-opacity:1; 
stroke-linecap:round; stroke-linejoin:round;fill-rule:evenodd;"
d="M 4579,6027
4543,6027
4522,6027
4511,6024
4507,6019
4507,6015
4506,6007
4502,6006
4491,6010
4482,6015
4450,6025
4414,6026
4385,6018
4358,6000
4337,5972
4326,5940
4326,5938
4324,5919
4323,5891
4323,5869
4395,5869
4397,5898
4401,5921
4406,5934
4425,5952
4448,5959
4472,5953
4492,5938
4500,5927
4504,5915
4506,5897
4507,5869
4506,5842
4504,5818
4500,5802
4499,5801
4485,5784
4465,5775
4442,5773
4421,5780
4405,5794
4403,5797
4398,5815
4396,5840
4395,5869
4323,5869
4323,5859
4324,5841
4327,5799
4334,5767
4345,5743
4361,5725
4377,5715
4400,5708
4428,5705
4456,5707
4481,5714
4494,5721
4507,5733
4507,5580
4579,5580
4579,6027
Z" /> 
<path style="fill:#840000; fill-opacity:1.0; 
stroke:#840000; stroke-width:3.93701; stroke-opacity:1; 
stroke-linecap:round; stroke-linejoin:round;fill-rule:evenodd;"
d="M 4165,5706
4175,5709
4178,5715
4178,5718
4179,5726
4182,5727
4193,5722
4199,5718
4219,5710
4243,5706
4268,5705
4291,5708
4310,5714
4322,5723
4325,5734
4323,5736
4315,5748
4301,5763
4299,5765
4286,5776
4274,5780
4259,5777
4253,5776
4233,5772
4219,5773
4208,5780
4197,5788
4190,5799
4184,5813
4181,5834
4179,5863
4178,5902
4178,5926
4178,6027
4112,6027
4112,5705
4145,5705
4165,5706
Z" /> 
<path style="fill:#840000; fill-opacity:1.0; 
stroke:#840000; stroke-width:3.93701; stroke-opacity:1; 
stroke-linecap:round; stroke-linejoin:round;fill-rule:evenodd;"
d="M 3960,5707
3991,5716
4015,5731
4031,5750
4037,5759
4040,5767
4043,5779
4045,5794
4046,5817
4046,5847
4046,5889
4046,5900
4046,6027
4015,6027
3995,6026
3980,6022
3976,6020
3966,6016
3955,6020
3938,6025
3913,6027
3886,6026
3860,6022
3846,6018
3817,6000
3799,5974
3791,5940
3791,5940
3792,5925
3856,5925
3861,5942
3870,5951
3888,5958
3912,5961
3937,5960
3956,5954
3962,5951
3972,5934
3974,5914
3974,5889
3938,5889
3903,5892
3877,5899
3861,5911
3856,5925
3792,5925
3793,5903
3805,5873
3828,5851
3831,5849
3845,5843
3862,5839
3885,5837
3913,5837
3974,5836
3974,5811
3971,5791
3965,5778
3964,5777
3949,5771
3927,5769
3903,5770
3881,5775
3868,5781
3861,5786
3854,5787
3844,5783
3829,5772
3806,5755
3804,5753
3805,5747
3814,5737
3827,5726
3842,5716
3847,5714
3864,5709
3890,5706
3918,5705
3920,5705
3960,5707
Z" /> 
<path style="fill:#840000; fill-opacity:1.0; 
stroke:#840000; stroke-width:3.93701; stroke-opacity:1; 
stroke-linecap:round; stroke-linejoin:round;fill-rule:evenodd;"
d="M 3686,5217
3700,5224
3717,5236
3729,5249
3738,5265
3743,5287
3746,5317
3747,5357
3747,5374
3747,5411
3746,5438
3745,5457
3742,5469
3738,5479
3733,5485
3706,5512
3674,5529
3639,5534
3604,5527
3593,5522
3566,5508
3566,5725
3586,5715
3611,5707
3643,5705
3674,5709
3698,5717
3717,5733
3734,5755
3735,5758
3741,5768
3745,5779
3747,5793
3749,5811
3750,5835
3750,5869
3750,5907
3750,6027
3678,6027
3678,5805
3658,5788
3637,5774
3617,5772
3597,5778
3586,5784
3578,5793
3572,5807
3569,5826
3566,5855
3565,5893
3564,5919
3563,6024
3528,6026
3494,6028
3494,5375
3566,5375
3568,5411
3574,5436
3586,5452
3604,5460
3622,5461
3643,5460
3656,5453
3665,5443
3672,5433
3676,5422
3677,5407
3677,5383
3677,5364
3676,5334
3673,5315
3670,5303
3664,5295
3659,5290
3637,5279
3611,5278
3596,5281
3581,5294
3571,5319
3567,5355
3566,5375
3494,5375
3494,5211
3530,5211
3552,5212
3563,5215
3566,5221
3566,5222
3568,5227
3574,5227
3588,5220
3618,5210
3653,5209
3686,5217
Z" /> 
<path style="fill:#840000; fill-opacity:1.0; 
stroke:#840000; stroke-width:3.93701; stroke-opacity:1; 
stroke-linecap:round; stroke-linejoin:round;fill-rule:evenodd;"
d="M 3975,1926
3975,2032
3975,2121
3975,2193
3976,2250
3978,2295
3979,2328
3982,2351
3984,2366
3988,2376
3989,2378
4000,2393
4004,2404
4000,2412
3985,2417
3959,2420
3917,2422
3860,2422
3815,2422
3755,2422
3704,2421
3663,2420
3635,2419
3625,2417
3625,2417
3629,2406
3639,2383
3645,2372
3650,2362
3654,2350
3657,2335
3660,2314
3661,2286
3663,2250
3664,2201
3664,2139
3664,2062
3665,1968
3665,1942
3664,1841
3664,1758
3663,1691
3662,1638
3661,1597
3659,1567
3656,1546
3653,1531
3649,1522
3634,1492
3975,1492
3975,1926
Z" /> 
<path style="fill:#840000; fill-opacity:1.0; 
stroke:#840000; stroke-width:3.93701; stroke-opacity:1; 
stroke-linecap:round; stroke-linejoin:round;fill-rule:evenodd;"
d="M 3880,797
3926,823
3963,864
3980,898
3992,952
3989,1006
3970,1054
3965,1062
3929,1096
3883,1120
3830,1132
3778,1130
3732,1115
3724,1110
3691,1079
3664,1036
3648,990
3645,962
3652,919
3672,874
3700,835
3722,816
3774,792
3828,786
3880,797
Z" /> 
<path style="fill:#840000; fill-opacity:1.0; 
stroke:#840000; stroke-width:3.93701; stroke-opacity:1; 
stroke-linecap:round; stroke-linejoin:round;fill-rule:evenodd;"
d="M 3351,1152
3566,1152
3488,1232
3358,1375
3274,1482
3243,1523
3205,1571
3166,1619
3129,1664
3097,1700
3087,1711
3055,1746
3083,1782
3136,1856
3171,1911
3192,1943
3216,1975
3219,1977
3246,2010
3277,2050
3310,2093
3340,2135
3365,2170
3379,2193
3393,2214
3416,2244
3444,2280
3473,2316
3500,2347
3515,2363
3524,2373
3541,2391
3544,2395
3568,2422
3125,2422
3125,2392
3118,2361
3099,2320
3071,2270
3033,2216
2999,2171
2971,2135
2945,2099
2927,2070
2924,2066
2908,2040
2895,2021
2891,2017
2878,2002
2862,1980
2847,1961
2835,1952
2834,1952
2831,1962
2828,1990
2826,2035
2825,2095
2825,2148
2825,2219
2826,2272
2828,2311
2831,2340
2835,2360
2841,2375
2841,2375
2855,2399
2867,2414
2868,2415
2862,2417
2839,2419
2801,2420
2751,2422
2693,2422
2672,2422
2465,2422
2477,2395
2488,2372
2496,2358
2498,2346
2499,2317
2501,2271
2502,2210
2503,2137
2504,2053
2504,1960
2504,1860
2505,1793
2505,1673
2504,1572
2504,1487
2504,1417
2503,1361
2502,1316
2501,1282
2499,1256
2497,1236
2494,1222
2490,1211
2486,1201
2485,1197
2472,1173
2465,1158
2465,1155
2474,1154
2501,1154
2541,1153
2593,1153
2652,1152
2666,1152
2734,1153
2784,1153
2820,1154
2843,1156
2855,1159
2860,1163
2860,1168
2859,1170
2846,1205
2837,1240
2830,1279
2827,1326
2825,1386
2825,1441
2825,1606
2855,1577
2873,1558
2884,1543
2885,1540
2890,1530
2906,1509
2928,1481
2952,1452
2975,1424
2994,1403
3005,1392
3014,1382
3029,1360
3040,1342
3062,1308
3087,1274
3096,1263
3114,1236
3124,1212
3125,1206
3125,1189
3127,1176
3134,1166
3147,1160
3170,1156
3205,1153
3253,1153
3319,1152
3351,1152
Z" /> 
<g >
</g>
<g >
</g>
<g >
</g>
<g >
</g>
<g >
</g>
<g >
</g>
</g>
<g style="fill:#FFFFFF; fill-opacity:1.0; 
stroke:#FFFFFF; stroke-width:3.93701; stroke-opacity:1; 
stroke-linecap:round; stroke-linejoin:round;">
</g>
<g style="fill:#000000; fill-opacity:1.0; 
stroke:#000000; stroke-width:3.93701; stroke-opacity:1; 
stroke-linecap:round; stroke-linejoin:round;">
</g>
<g style="fill:#840084; fill-opacity:1.0; 
stroke:#840084; stroke-width:3.93701; stroke-opacity:1; 
stroke-linecap:round; stroke-linejoin:round;">
<path style="fill:#840084; fill-opacity:1.0; 
stroke:#840084; stroke-width:3.93701; stroke-opacity:1; 
stroke-linecap:round; stroke-linejoin:round;fill-rule:evenodd;"
d="M 4882,3030
4912,3188
5131,3279
5263,3189
5300,3164
5333,3142
5361,3123
5383,3110
5396,3101
5400,3100
5406,3104
5420,3117
5440,3136
5464,3159
5491,3186
5520,3214
5547,3243
5573,3270
5595,3293
5612,3312
5623,3325
5625,3329
5622,3336
5612,3353
5596,3378
5576,3408
5553,3442
5540,3462
5515,3498
5494,3530
5476,3557
5463,3578
5455,3590
5454,3592
5457,3600
5463,3616
5473,3641
5486,3670
5499,3702
5513,3733
5525,3763
5536,3788
5544,3806
5549,3814
5549,3815
5556,3816
5573,3820
5600,3825
5635,3832
5675,3840
5698,3844
5741,3852
5780,3860
5812,3867
5837,3872
5851,3876
5854,3878
5857,3886
5859,3906
5861,3934
5862,3968
5863,4007
5863,4047
5862,4087
5861,4123
5860,4155
5858,4179
5855,4194
5854,4197
5844,4201
5825,4206
5797,4212
5765,4219
5753,4221
5699,4231
5655,4239
5622,4245
5597,4251
5580,4255
5568,4258
5561,4261
5557,4265
5556,4265
5550,4275
5541,4294
5530,4321
5517,4352
5504,4385
5492,4418
5481,4449
5472,4475
5466,4493
5465,4503
5465,4503
5470,4511
5481,4527
5498,4551
5518,4581
5541,4614
5547,4624
5571,4659
5591,4690
5608,4717
5620,4737
5625,4748
5625,4750
5621,4757
5608,4772
5589,4793
5565,4818
5538,4845
5510,4873
5481,4901
5454,4926
5431,4948
5412,4964
5400,4973
5397,4975
5389,4971
5373,4962
5352,4948
5335,4936
5305,4916
5270,4892
5234,4867
5215,4854
5151,4811
5096,4840
5072,4853
5051,4863
5036,4869
5033,4869
5028,4864
5020,4847
5008,4821
4992,4788
4975,4748
4956,4704
4936,4657
4915,4609
4895,4560
4875,4513
4858,4469
4842,4429
4829,4396
4820,4370
4814,4353
4813,4348
4820,4340
4835,4328
4855,4315
4856,4313
4907,4273
4949,4225
4980,4172
5000,4115
5009,4056
5007,3997
4994,3938
4968,3881
4960,3869
4921,3819
4875,3779
4823,3749
4767,3729
4709,3720
4650,3721
4592,3733
4537,3756
4486,3791
4470,3805
4429,3849
4400,3895
4380,3947
4369,3999
4366,4056
4375,4114
4395,4171
4426,4223
4466,4271
4514,4310
4520,4314
4540,4328
4555,4340
4562,4347
4562,4348
4561,4356
4555,4374
4544,4402
4531,4436
4515,4477
4497,4522
4477,4569
4457,4618
4436,4667
4416,4713
4397,4757
4380,4795
4365,4827
4354,4851
4346,4866
4343,4869
4333,4866
4315,4858
4292,4847
4279,4840
4225,4811
4160,4854
4127,4877
4091,4901
4057,4925
4040,4936
4017,4952
3996,4965
3982,4973
3978,4975
3971,4970
3957,4958
3936,4939
3909,4914
3879,4886
3860,4868
3827,4835
3798,4806
3775,4781
3759,4763
3751,4751
3750,4749
3754,4740
3764,4723
3779,4698
3799,4667
3822,4633
3828,4624
3852,4590
3873,4559
3890,4533
3903,4514
3910,4504
3911,4503
3910,4495
3904,4477
3896,4452
3885,4421
3873,4388
3860,4355
3847,4324
3835,4297
3826,4277
3820,4266
3819,4265
3815,4262
3809,4259
3798,4255
3782,4251
3759,4247
3728,4240
3686,4233
3634,4223
3622,4221
3589,4214
3559,4208
3537,4202
3524,4198
3522,4197
3519,4188
3517,4169
3515,4141
3514,4106
3513,4068
3513,4027
3513,3988
3514,3951
3516,3919
3518,3895
3520,3881
3522,3878
3530,3875
3550,3870
3579,3863
3614,3856
3655,3848
3678,3844
3720,3836
3757,3829
3789,3823
3812,3818
3825,3815
3827,3815
3830,3808
3838,3791
3849,3767
3861,3738
3875,3706
3888,3674
3901,3645
3911,3620
3918,3601
3921,3592
3921,3592
3918,3585
3908,3569
3892,3545
3872,3515
3849,3481
3836,3461
3811,3426
3790,3393
3772,3365
3759,3344
3751,3332
3750,3329
3755,3322
3767,3308
3786,3288
3809,3263
3835,3236
3863,3207
3891,3179
3918,3153
3941,3130
3960,3113
3972,3102
3976,3100
3983,3103
3999,3113
4022,3129
4052,3148
4087,3172
4113,3189
4245,3279
4354,3233
4464,3188
4494,3030
4524,2873
4852,2873
4882,3030
Z" /> 
<path style="fill:#840084; fill-opacity:1.0; 
stroke:#840084; stroke-width:3.93701; stroke-opacity:1; 
stroke-linecap:round; stroke-linejoin:round;fill-rule:evenodd;"
d="M 3975,5219
3981,5222
4004,5239
4025,5263
4041,5289
4046,5302
4050,5324
4053,5350
4053,5361
4053,5396
3854,5396
3858,5414
3869,5435
3887,5454
3909,5466
3922,5468
3941,5465
3963,5458
3971,5454
3999,5440
4023,5458
4037,5471
4044,5481
4044,5484
4038,5491
4024,5502
4010,5511
3975,5526
3936,5533
3897,5531
3865,5522
3833,5501
3810,5475
3796,5440
3790,5396
3789,5376
3791,5330
3792,5329
3858,5329
3859,5333
3867,5335
3882,5336
3908,5336
3918,5336
3948,5336
3967,5335
3977,5332
3980,5328
3981,5327
3976,5316
3966,5301
3962,5296
3945,5281
3928,5275
3919,5275
3894,5281
3873,5297
3859,5321
3859,5322
3858,5329
3792,5329
3799,5294
3813,5265
3830,5244
3861,5222
3898,5210
3937,5209
3975,5219
Z" /> 
<path style="fill:#840084; fill-opacity:1.0; 
stroke:#840084; stroke-width:3.93701; stroke-opacity:1; 
stroke-linecap:round; stroke-linejoin:round;fill-rule:evenodd;"
d="M 3960,5707
3991,5716
4015,5731
4031,5750
4037,5759
4040,5767
4043,5779
4045,5794
4046,5817
4046,5847
4046,5889
4046,5900
4046,6027
4015,6027
3995,6026
3980,6022
3976,6020
3966,6016
3955,6020
3938,6025
3913,6027
3886,6026
3860,6022
3846,6018
3817,6000
3799,5974
3791,5940
3791,5940
3792,5925
3856,5925
3861,5942
3870,5951
3888,5958
3912,5961
3937,5960
3956,5954
3962,5951
3972,5934
3974,5914
3974,5889
3938,5889
3903,5892
3877,5899
3861,5911
3856,5925
3792,5925
3793,5903
3805,5873
3828,5851
3831,5849
3845,5843
3862,5839
3885,5837
3913,5837
3974,5836
3974,5811
3971,5791
3965,5778
3964,5777
3949,5771
3927,5769
3903,5770
3881,5775
3868,5781
3861,5786
3854,5787
3844,5783
3829,5772
3806,5755
3804,5753
3805,5747
3814,5737
3827,5726
3842,5716
3847,5714
3864,5709
3890,5706
3918,5705
3920,5705
3960,5707
Z" /> 
<path style="fill:#840084; fill-opacity:1.0; 
stroke:#840084; stroke-width:3.93701; stroke-opacity:1; 
stroke-linecap:round; stroke-linejoin:round;fill-rule:evenodd;"
d="M 4165,5706
4175,5709
4178,5715
4178,5718
4179,5726
4182,5727
4193,5722
4199,5718
4219,5710
4243,5706
4268,5705
4291,5708
4310,5714
4322,5723
4325,5734
4323,5736
4315,5748
4301,5763
4299,5765
4286,5776
4274,5780
4259,5777
4253,5776
4233,5772
4219,5773
4208,5780
4197,5788
4190,5799
4184,5813
4181,5834
4179,5863
4178,5902
4178,5926
4178,6027
4112,6027
4112,5705
4145,5705
4165,5706
Z" /> 
<path style="fill:#840084; fill-opacity:1.0; 
stroke:#840084; stroke-width:3.93701; stroke-opacity:1; 
stroke-linecap:round; stroke-linejoin:round;fill-rule:evenodd;"
d="M 6086,5210
6102,5214
6135,5229
6162,5252
6182,5280
6184,5286
6188,5302
6190,5326
6191,5350
6191,5396
6096,5396
6056,5396
6029,5397
6011,5399
6002,5404
6000,5411
6003,5422
6010,5434
6027,5455
6051,5466
6081,5465
6114,5454
6143,5440
6168,5459
6192,5478
6169,5499
6139,5519
6102,5530
6062,5534
6023,5528
6017,5526
5983,5508
5958,5482
5940,5446
5931,5400
5931,5399
5930,5348
5933,5330
6000,5330
6006,5333
6023,5335
6048,5336
6063,5336
6092,5336
6110,5336
6120,5334
6123,5330
6122,5324
6122,5322
6110,5300
6091,5282
6075,5274
6053,5275
6031,5284
6013,5301
6002,5320
6000,5330
5933,5330
5939,5304
5955,5267
5979,5238
6010,5218
6045,5208
6086,5210
Z" /> 
<path style="fill:#840084; fill-opacity:1.0; 
stroke:#840084; stroke-width:3.93701; stroke-opacity:1; 
stroke-linecap:round; stroke-linejoin:round;fill-rule:evenodd;"
d="M 5626,5211
5649,5218
5663,5227
5668,5234
5667,5242
5658,5255
5651,5264
5636,5280
5625,5287
5616,5287
5588,5280
5567,5280
5550,5288
5545,5293
5527,5310
5527,5527
5454,5527
5454,5211
5490,5211
5512,5212
5523,5215
5527,5221
5527,5222
5528,5228
5535,5227
5545,5222
5565,5214
5581,5209
5601,5208
5626,5211
Z" /> 
<path style="fill:#840084; fill-opacity:1.0; 
stroke:#840084; stroke-width:3.93701; stroke-opacity:1; 
stroke-linecap:round; stroke-linejoin:round;fill-rule:evenodd;"
d="M 5204,5314
5205,5362
5207,5399
5212,5425
5219,5443
5230,5454
5245,5460
5263,5461
5283,5460
5298,5454
5308,5443
5316,5424
5320,5397
5322,5360
5323,5314
5323,5211
5395,5211
5395,5527
5359,5527
5337,5526
5326,5523
5323,5517
5321,5512
5313,5513
5298,5521
5263,5532
5227,5531
5191,5519
5174,5509
5162,5498
5152,5485
5146,5467
5142,5443
5139,5411
5139,5368
5138,5335
5138,5211
5204,5211
5204,5314
Z" /> 
<path style="fill:#840084; fill-opacity:1.0; 
stroke:#840084; stroke-width:3.93701; stroke-opacity:1; 
stroke-linecap:round; stroke-linejoin:round;fill-rule:evenodd;"
d="M 3357,5215
3391,5230
3417,5256
3435,5291
3445,5337
3445,5344
3446,5395
3439,5439
3425,5475
3417,5487
3391,5511
3357,5527
3319,5533
3281,5530
3251,5520
3226,5502
3206,5480
3205,5479
3197,5465
3192,5451
3188,5433
3186,5408
3186,5387
3185,5369
3251,5369
3252,5387
3254,5412
3258,5428
3265,5439
3272,5446
3297,5460
3323,5462
3347,5452
3359,5440
3368,5429
3373,5419
3375,5405
3375,5384
3374,5364
3373,5337
3371,5319
3366,5307
3359,5298
3354,5293
3330,5280
3305,5279
3283,5287
3265,5304
3254,5331
3251,5369
3185,5369
3185,5346
3186,5316
3190,5293
3197,5275
3208,5259
3212,5254
3237,5230
3264,5216
3298,5210
3314,5210
3357,5215
Z" /> 
<path style="fill:#840084; fill-opacity:1.0; 
stroke:#840084; stroke-width:3.93701; stroke-opacity:1; 
stroke-linecap:round; stroke-linejoin:round;fill-rule:evenodd;"
d="M 5004,5215
5037,5233
5063,5262
5076,5285
5081,5306
5084,5335
5086,5369
5085,5403
5083,5433
5079,5449
5069,5470
5050,5493
5028,5514
5005,5527
5005,5527
4977,5533
4945,5533
4914,5528
4902,5523
4871,5506
4849,5483
4834,5453
4826,5413
4824,5392
4825,5366
4895,5366
4897,5404
4904,5433
4915,5452
4923,5457
4943,5461
4966,5460
4987,5454
4992,5451
5006,5434
5015,5408
5019,5376
5017,5342
5013,5322
5001,5298
4981,5283
4958,5278
4933,5283
4914,5296
4904,5307
4899,5318
4896,5333
4895,5355
4895,5366
4825,5366
4825,5337
4834,5291
4851,5255
4878,5230
4912,5214
4920,5212
4965,5208
5004,5215
Z" /> 
<path style="fill:#840084; fill-opacity:1.0; 
stroke:#840084; stroke-width:3.93701; stroke-opacity:1; 
stroke-linecap:round; stroke-linejoin:round;fill-rule:evenodd;"
d="M 5228,5707
5256,5714
5264,5717
5279,5727
5291,5737
5300,5751
5306,5769
5310,5794
5313,5827
5314,5871
5315,5901
5317,6027
5280,6027
5258,6026
5247,6023
5244,6018
5242,6012
5235,6013
5226,6018
5202,6025
5171,6027
5139,6024
5110,6016
5108,6014
5082,5996
5064,5971
5056,5941
5057,5930
5122,5930
5127,5944
5144,5955
5172,5960
5186,5961
5210,5959
5227,5952
5231,5948
5241,5929
5244,5912
5244,5889
5212,5889
5174,5891
5148,5897
5132,5907
5128,5912
5122,5930
5057,5930
5058,5909
5070,5879
5086,5859
5096,5850
5106,5845
5118,5841
5137,5839
5164,5838
5175,5838
5244,5835
5244,5814
5241,5793
5231,5779
5212,5771
5211,5771
5184,5768
5157,5772
5137,5782
5129,5788
5120,5787
5107,5779
5099,5774
5084,5763
5074,5754
5073,5752
5079,5739
5098,5724
5106,5719
5129,5710
5160,5705
5194,5704
5228,5707
Z" /> 
<path style="fill:#840084; fill-opacity:1.0; 
stroke:#840084; stroke-width:3.93701; stroke-opacity:1; 
stroke-linecap:round; stroke-linejoin:round;fill-rule:evenodd;"
d="M 5540,5705
5565,5710
5580,5717
5595,5729
5573,5757
5560,5773
5551,5781
5542,5782
5529,5778
5523,5776
5498,5773
5475,5780
5458,5796
5455,5801
5452,5815
5450,5839
5448,5874
5448,5916
5448,5922
5448,6027
5375,6027
5375,5705
5412,5705
5432,5705
5443,5708
5447,5713
5448,5719
5448,5732
5465,5719
5485,5709
5512,5705
5540,5705
Z" /> 
<path style="fill:#840084; fill-opacity:1.0; 
stroke:#840084; stroke-width:3.93701; stroke-opacity:1; 
stroke-linecap:round; stroke-linejoin:round;fill-rule:evenodd;"
d="M 3686,5217
3700,5224
3717,5236
3729,5249
3738,5265
3743,5287
3746,5317
3747,5357
3747,5374
3747,5411
3746,5438
3745,5457
3742,5469
3738,5479
3733,5485
3706,5512
3674,5529
3639,5534
3604,5527
3593,5522
3566,5508
3566,5725
3586,5715
3611,5707
3643,5705
3674,5709
3698,5717
3717,5733
3734,5755
3735,5758
3741,5768
3745,5779
3747,5793
3749,5811
3750,5835
3750,5869
3750,5907
3750,6027
3678,6027
3678,5805
3658,5788
3637,5774
3617,5772
3597,5778
3586,5784
3578,5793
3572,5807
3569,5826
3566,5855
3565,5893
3564,5919
3563,6024
3528,6026
3494,6028
3494,5375
3566,5375
3568,5411
3574,5436
3586,5452
3604,5460
3622,5461
3643,5460
3656,5453
3665,5443
3672,5433
3676,5422
3677,5407
3677,5383
3677,5364
3676,5334
3673,5315
3670,5303
3664,5295
3659,5290
3637,5279
3611,5278
3596,5281
3581,5294
3571,5319
3567,5355
3566,5375
3494,5375
3494,5211
3530,5211
3552,5212
3563,5215
3566,5221
3566,5222
3568,5227
3574,5227
3588,5220
3618,5210
3653,5209
3686,5217
Z" /> 
<path style="fill:#840084; fill-opacity:1.0; 
stroke:#840084; stroke-width:3.93701; stroke-opacity:1; 
stroke-linecap:round; stroke-linejoin:round;fill-rule:evenodd;"
d="M 4579,6027
4543,6027
4522,6027
4511,6024
4507,6019
4507,6015
4506,6007
4502,6006
4491,6010
4482,6015
4450,6025
4414,6026
4385,6018
4358,6000
4337,5972
4326,5940
4326,5938
4324,5919
4323,5891
4323,5869
4395,5869
4397,5898
4401,5921
4406,5934
4425,5952
4448,5959
4472,5953
4492,5938
4500,5927
4504,5915
4506,5897
4507,5869
4506,5842
4504,5818
4500,5802
4499,5801
4485,5784
4465,5775
4442,5773
4421,5780
4405,5794
4403,5797
4398,5815
4396,5840
4395,5869
4323,5869
4323,5859
4324,5841
4327,5799
4334,5767
4345,5743
4361,5725
4377,5715
4400,5708
4428,5705
4456,5707
4481,5714
4494,5721
4507,5733
4507,5580
4579,5580
4579,6027
Z" /> 
<path style="fill:#840084; fill-opacity:1.0; 
stroke:#840084; stroke-width:3.93701; stroke-opacity:1; 
stroke-linecap:round; stroke-linejoin:round;fill-rule:evenodd;"
d="M 4290,5217
4306,5225
4322,5236
4334,5249
4343,5266
4349,5288
4353,5317
4355,5356
4355,5405
4355,5410
4356,5527
4283,5527
4283,5420
4283,5380
4283,5351
4282,5331
4280,5317
4277,5308
4272,5301
4266,5295
4243,5280
4219,5277
4196,5287
4188,5293
4182,5300
4177,5307
4174,5316
4173,5330
4172,5351
4171,5382
4171,5418
4171,5527
4099,5527
4099,5211
4135,5211
4157,5212
4168,5215
4171,5221
4171,5222
4173,5227
4180,5227
4193,5220
4223,5211
4257,5210
4290,5217
Z" /> 
<path style="fill:#840084; fill-opacity:1.0; 
stroke:#840084; stroke-width:3.93701; stroke-opacity:1; 
stroke-linecap:round; stroke-linejoin:round;fill-rule:evenodd;"
d="M 5748,5707
5779,5715
5806,5732
5819,5744
5839,5774
5851,5809
5856,5851
5856,5855
5856,5889
5657,5889
5661,5907
5669,5924
5682,5941
5685,5943
5709,5958
5736,5961
5768,5951
5773,5948
5790,5940
5801,5936
5803,5935
5809,5939
5822,5949
5829,5955
5842,5967
5847,5976
5843,5983
5842,5985
5831,5994
5812,6005
5800,6012
5763,6023
5723,6027
5685,6022
5675,6019
5642,6002
5617,5975
5601,5938
5593,5891
5593,5866
5595,5830
5658,5830
5664,5833
5681,5835
5705,5836
5721,5836
5750,5836
5768,5835
5778,5833
5782,5829
5783,5823
5778,5806
5763,5788
5745,5775
5726,5769
5701,5774
5679,5788
5663,5809
5658,5830
5595,5830
5596,5814
5608,5773
5627,5741
5654,5720
5689,5708
5708,5706
5748,5707
Z" /> 
<path style="fill:#840084; fill-opacity:1.0; 
stroke:#840084; stroke-width:3.93701; stroke-opacity:1; 
stroke-linecap:round; stroke-linejoin:round;fill-rule:evenodd;"
d="M 5845,5214
5883,5230
5895,5238
5910,5250
5920,5260
5921,5263
5917,5270
5905,5282
5895,5290
5868,5311
5848,5293
5831,5282
5816,5278
5798,5279
5769,5286
5749,5301
5737,5325
5732,5359
5732,5359
5732,5398
5740,5426
5754,5445
5764,5452
5790,5460
5819,5460
5843,5452
5849,5448
5864,5438
5875,5437
5887,5444
5901,5457
5922,5479
5898,5499
5862,5521
5820,5532
5777,5532
5748,5524
5715,5506
5688,5478
5676,5458
5666,5430
5661,5393
5661,5354
5666,5317
5676,5285
5677,5282
5700,5250
5730,5227
5766,5213
5805,5209
5845,5214
Z" /> 
<path style="fill:#840084; fill-opacity:1.0; 
stroke:#840084; stroke-width:3.93701; stroke-opacity:1; 
stroke-linecap:round; stroke-linejoin:round;fill-rule:evenodd;"
d="M 4832,5706
4858,5708
4892,5810
4926,5912
4937,5876
4943,5854
4951,5823
4961,5790
4965,5772
4983,5705
5058,5705
5036,5776
5025,5810
5012,5852
4998,5896
4985,5935
4957,6024
4896,6028
4880,5973
4869,5939
4858,5902
4848,5869
4848,5868
4841,5845
4834,5830
4830,5824
4829,5825
4826,5834
4820,5853
4811,5880
4802,5912
4796,5930
4768,6027
4707,6027
4659,5874
4645,5831
4633,5792
4622,5759
4614,5734
4609,5717
4607,5713
4608,5708
4618,5706
4639,5706
4642,5706
4680,5708
4705,5800
4715,5834
4723,5863
4729,5886
4733,5900
4734,5902
4737,5900
4744,5886
4753,5864
4763,5835
4772,5808
4806,5704
4832,5706
Z" /> 
<path style="fill:#840084; fill-opacity:1.0; 
stroke:#840084; stroke-width:3.93701; stroke-opacity:1; 
stroke-linecap:round; stroke-linejoin:round;fill-rule:evenodd;"
d="M 4692,5210
4717,5215
4743,5225
4745,5226
4765,5237
4779,5246
4783,5252
4779,5262
4769,5277
4764,5283
4746,5304
4722,5290
4699,5281
4673,5276
4647,5275
4628,5280
4623,5283
4614,5297
4613,5312
4620,5324
4624,5327
4636,5330
4656,5333
4682,5336
4687,5337
4728,5344
4758,5356
4778,5374
4789,5400
4792,5431
4787,5466
4772,5494
4746,5514
4709,5527
4668,5532
4635,5532
4608,5527
4589,5521
4566,5510
4544,5497
4537,5492
4517,5475
4564,5427
4591,5445
4619,5459
4648,5466
4675,5466
4699,5461
4716,5449
4721,5440
4721,5424
4707,5412
4681,5404
4653,5400
4609,5393
4576,5380
4555,5359
4543,5331
4542,5299
4549,5264
4567,5238
4595,5221
4633,5211
4661,5209
4692,5210
Z" /> 
<path style="fill:#840084; fill-opacity:1.0; 
stroke:#840084; stroke-width:3.93701; stroke-opacity:1; 
stroke-linecap:round; stroke-linejoin:round;fill-rule:evenodd;"
d="M 3880,797
3926,823
3963,864
3980,898
3992,952
3989,1006
3970,1054
3965,1062
3929,1096
3883,1120
3830,1132
3778,1130
3732,1115
3724,1110
3691,1079
3664,1036
3648,990
3645,962
3652,919
3672,874
3700,835
3722,816
3774,792
3828,786
3880,797
Z" /> 
<path style="fill:#840084; fill-opacity:1.0; 
stroke:#840084; stroke-width:3.93701; stroke-opacity:1; 
stroke-linecap:round; stroke-linejoin:round;fill-rule:evenodd;"
d="M 3975,1926
3975,2032
3975,2121
3975,2193
3976,2250
3978,2295
3979,2328
3982,2351
3984,2366
3988,2376
3989,2378
4000,2393
4004,2404
4000,2412
3985,2417
3959,2420
3917,2422
3860,2422
3815,2422
3755,2422
3704,2421
3663,2420
3635,2419
3625,2417
3625,2417
3629,2406
3639,2383
3645,2372
3650,2362
3654,2350
3657,2335
3660,2314
3661,2286
3663,2250
3664,2201
3664,2139
3664,2062
3665,1968
3665,1942
3664,1841
3664,1758
3663,1691
3662,1638
3661,1597
3659,1567
3656,1546
3653,1531
3649,1522
3634,1492
3975,1492
3975,1926
Z" /> 
<path style="fill:#840084; fill-opacity:1.0; 
stroke:#840084; stroke-width:3.93701; stroke-opacity:1; 
stroke-linecap:round; stroke-linejoin:round;fill-rule:evenodd;"
d="M 3351,1152
3566,1152
3488,1232
3358,1375
3274,1482
3243,1523
3205,1571
3166,1619
3129,1664
3097,1700
3087,1711
3055,1746
3083,1782
3136,1856
3171,1911
3192,1943
3216,1975
3219,1977
3246,2010
3277,2050
3310,2093
3340,2135
3365,2170
3379,2193
3393,2214
3416,2244
3444,2280
3473,2316
3500,2347
3515,2363
3524,2373
3541,2391
3544,2395
3568,2422
3125,2422
3125,2392
3118,2361
3099,2320
3071,2270
3033,2216
2999,2171
2971,2135
2945,2099
2927,2070
2924,2066
2908,2040
2895,2021
2891,2017
2878,2002
2862,1980
2847,1961
2835,1952
2834,1952
2831,1962
2828,1990
2826,2035
2825,2095
2825,2148
2825,2219
2826,2272
2828,2311
2831,2340
2835,2360
2841,2375
2841,2375
2855,2399
2867,2414
2868,2415
2862,2417
2839,2419
2801,2420
2751,2422
2693,2422
2672,2422
2465,2422
2477,2395
2488,2372
2496,2358
2498,2346
2499,2317
2501,2271
2502,2210
2503,2137
2504,2053
2504,1960
2504,1860
2505,1793
2505,1673
2504,1572
2504,1487
2504,1417
2503,1361
2502,1316
2501,1282
2499,1256
2497,1236
2494,1222
2490,1211
2486,1201
2485,1197
2472,1173
2465,1158
2465,1155
2474,1154
2501,1154
2541,1153
2593,1153
2652,1152
2666,1152
2734,1153
2784,1153
2820,1154
2843,1156
2855,1159
2860,1163
2860,1168
2859,1170
2846,1205
2837,1240
2830,1279
2827,1326
2825,1386
2825,1441
2825,1606
2855,1577
2873,1558
2884,1543
2885,1540
2890,1530
2906,1509
2928,1481
2952,1452
2975,1424
2994,1403
3005,1392
3014,1382
3029,1360
3040,1342
3062,1308
3087,1274
3096,1263
3114,1236
3124,1212
3125,1206
3125,1189
3127,1176
3134,1166
3147,1160
3170,1156
3205,1153
3253,1153
3319,1152
3351,1152
Z" /> 
</g>
<g style="fill:#000000; fill-opacity:1.0; 
stroke:#000000; stroke-width:3.93701; stroke-opacity:1; 
stroke-linecap:round; stroke-linejoin:round;">
</g>
<g style="fill:#008484; fill-opacity:1.0; 
stroke:#008484; stroke-width:3.93701; stroke-opacity:1; 
stroke-linecap:round; stroke-linejoin:round;">
</g>
<g style="fill:#008484; fill-opacity:0.0; 
stroke:#008484; stroke-width:3.93701; stroke-opacity:1; 
stroke-linecap:round; stroke-linejoin:round;">
</g>
<g style="fill:#008484; fill-opacity:0.0; 
stroke:#008484; stroke-width:78.7402; stroke-opacity:1; 
stroke-linecap:round; stroke-linejoin:round;">
<path d="M4808 7235
L4808 7657
L4780 7741
L4724 7798
L4640 7826
L4583 7826
" />
<path d="M5174 7826
L5118 7798
L5089 7769
L5061 7713
L5061 7544
L5089 7488
L5118 7460
L5174 7432
L5258 7432
L5314 7460
L5343 7488
L5371 7544
L5371 7713
L5343 7769
L5314 7798
L5258 7826
L5174 7826
" />
<path d="M5624 7826
L5624 7235
" />
<path d="M5877 7826
L5877 7516
L5849 7460
L5793 7432
L5708 7432
L5652 7460
L5624 7488
" />
<path d="M6158 7432
L6158 7826
" />
<path d="M6158 7488
L6186 7460
L6242 7432
L6327 7432
L6383 7460
L6411 7516
L6411 7826
" />
<path d="M6664 7798
L6721 7826
L6833 7826
L6889 7798
L6917 7741
L6917 7713
L6889 7657
L6833 7629
L6749 7629
L6692 7601
L6664 7544
L6664 7516
L6692 7460
L6749 7432
L6833 7432
L6889 7460
" />
<path d="M7255 7826
L7199 7798
L7170 7769
L7142 7713
L7142 7544
L7170 7488
L7199 7460
L7255 7432
L7339 7432
L7395 7460
L7424 7488
L7452 7544
L7452 7713
L7424 7769
L7395 7798
L7339 7826
L7255 7826
" />
<path d="M7705 7432
L7705 7826
" />
<path d="M7705 7488
L7733 7460
L7789 7432
L7874 7432
L7930 7460
L7958 7516
L7958 7826
" />
</g>
<g style="fill:#008484; fill-opacity:0.0; 
stroke:#008484; stroke-width:59.0551; stroke-opacity:1; 
stroke-linecap:round; stroke-linejoin:round;">
<path d="M13877 4687
L13962 4715
L14102 4715
L14159 4687
L14187 4659
L14215 4603
L14215 4547
L14187 4491
L14159 4462
L14102 4434
L13990 4406
L13934 4378
L13906 4350
L13877 4294
L13877 4237
L13906 4181
L13934 4153
L13990 4125
L14131 4125
L14215 4153
" />
<path d="M14384 4322
L14609 4322
" />
<path d="M14468 4125
L14468 4631
L14496 4687
L14552 4715
L14609 4715
" />
<path d="M15059 4715
L15059 4406
L15030 4350
L14974 4322
L14862 4322
L14805 4350
" />
<path d="M15059 4687
L15002 4715
L14862 4715
L14805 4687
L14777 4631
L14777 4575
L14805 4519
L14862 4491
L15002 4491
L15059 4462
" />
<path d="M15255 4322
L15480 4322
" />
<path d="M15340 4125
L15340 4631
L15368 4687
L15424 4715
L15480 4715
" />
<path d="M15930 4322
L15930 4715
" />
<path d="M15677 4322
L15677 4631
L15705 4687
L15762 4715
L15846 4715
L15902 4687
L15930 4659
" />
<path d="M16183 4687
L16240 4715
L16352 4715
L16408 4687
L16437 4631
L16437 4603
L16408 4547
L16352 4519
L16268 4519
L16212 4491
L16183 4434
L16183 4406
L16212 4350
L16268 4322
L16352 4322
L16408 4350
" />
</g>
<g style="fill:#008484; fill-opacity:0.0; 
stroke:#008484; stroke-width:78.7402; stroke-opacity:1; 
stroke-linecap:round; stroke-linejoin:round;">
<path d="M10541 4175
L10541 4812
L10579 4887
L10616 4925
L10691 4962
L10841 4962
L10916 4925
L10954 4887
L10991 4812
L10991 4175
" />
<path d="M11329 4925
L11441 4962
L11629 4962
L11704 4925
L11741 4887
L11779 4812
L11779 4737
L11741 4662
L11704 4625
L11629 4587
L11479 4550
L11404 4512
L11366 4475
L11329 4400
L11329 4325
L11366 4250
L11404 4212
L11479 4175
L11666 4175
L11779 4212
" />
<path d="M12379 4550
L12491 4587
L12529 4625
L12566 4700
L12566 4812
L12529 4887
L12491 4925
L12416 4962
L12116 4962
L12116 4175
L12379 4175
L12454 4212
L12491 4250
L12529 4325
L12529 4400
L12491 4475
L12454 4512
L12379 4550
L12116 4550
" />
<path d="M18914 3368
L19176 3368
" />
<path d="M19289 3781
L18914 3781
L18914 2994
L19289 2994
" />
<path d="M20076 3706
L20039 3743
L19926 3781
L19851 3781
L19739 3743
L19664 3668
L19626 3593
L19589 3443
L19589 3331
L19626 3181
L19664 3106
L19739 3031
L19851 2994
L19926 2994
L20039 3031
L20076 3068
" />
<path d="M20751 3781
L20751 3368
L20714 3293
L20639 3256
L20489 3256
L20414 3293
" />
<path d="M20751 3743
L20676 3781
L20489 3781
L20414 3743
L20376 3668
L20376 3593
L20414 3518
L20489 3481
L20676 3481
L20751 3443
" />
<path d="M21239 3781
L21164 3743
L21126 3668
L21126 2994
" />
<path d="M17553 7167
L17178 7167
L17140 7542
L17178 7504
L17253 7467
L17440 7467
L17515 7504
L17553 7542
L17590 7617
L17590 7804
L17553 7879
L17515 7917
L17440 7954
L17253 7954
L17178 7917
L17140 7879
" />
<path d="M17815 7167
L18078 7954
L18340 7167
" />
<path d="M19090 7579
L19053 7542
L18978 7504
L18903 7504
L18828 7542
L18790 7579
L18753 7654
L18753 7729
L18790 7804
L18828 7842
L18903 7879
L18978 7879
L19053 7842
L19090 7804
" />
<path d="M19090 7504
L19090 7804
L19128 7842
L19165 7842
L19240 7804
L19278 7729
L19278 7542
L19203 7429
L19090 7354
L18940 7317
L18790 7354
L18678 7429
L18603 7542
L18565 7692
L18603 7842
L18678 7954
L18790 8029
L18940 8067
L19090 8029
L19203 7954
" />
<path d="M20028 7954
L19578 7954
" />
<path d="M19803 7954
L19803 7167
L19728 7279
L19653 7354
L19578 7392
" />
<path d="M20515 7167
L20590 7167
L20665 7204
L20703 7242
L20740 7317
L20778 7467
L20778 7654
L20740 7804
L20703 7879
L20665 7917
L20590 7954
L20515 7954
L20440 7917
L20403 7879
L20365 7804
L20328 7654
L20328 7467
L20365 7317
L20403 7242
L20440 7204
L20515 7167
" />
<path d="M21265 7167
L21340 7167
L21415 7204
L21452 7242
L21490 7317
L21527 7467
L21527 7654
L21490 7804
L21452 7879
L21415 7917
L21340 7954
L21265 7954
L21190 7917
L21152 7879
L21115 7804
L21077 7654
L21077 7467
L21115 7317
L21152 7242
L21190 7204
L21265 7167
" />
<path d="M21865 7954
L21865 7429
" />
<path d="M21865 7504
L21902 7467
L21977 7429
L22090 7429
L22165 7467
L22202 7542
L22202 7954
" />
<path d="M22202 7542
L22240 7467
L22315 7429
L22427 7429
L22502 7467
L22540 7542
L22540 7954
" />
<path d="M22877 7729
L23252 7729
" />
<path d="M22802 7954
L23065 7167
L23327 7954
" />
</g>
<g style="fill:#008484; fill-opacity:1.0; 
stroke:#008484; stroke-width:3.93701; stroke-opacity:1; 
stroke-linecap:round; stroke-linejoin:round;">
<path style="fill:#008484; fill-opacity:1.0; 
stroke:#008484; stroke-width:3.93701; stroke-opacity:1; 
stroke-linecap:round; stroke-linejoin:round;fill-rule:evenodd;"
d="M 6987,1715
6987,1845
6988,1956
6989,2051
6989,2130
6990,2194
6991,2247
6993,2288
6994,2321
6996,2345
6999,2362
7001,2375
7005,2384
7007,2390
7025,2422
6705,2422
6705,2392
6703,2371
6700,2362
6700,2362
6690,2368
6669,2380
6659,2387
6606,2414
6544,2432
6477,2442
6414,2441
6375,2433
6302,2401
6237,2353
6184,2293
6160,2253
6133,2191
6116,2125
6107,2051
6105,1978
6105,1972
6420,1972
6422,2042
6427,2094
6437,2133
6453,2162
6475,2184
6487,2193
6529,2208
6579,2207
6632,2190
6641,2185
6680,2165
6682,1949
6685,1733
6659,1716
6634,1705
6598,1697
6575,1694
6541,1693
6517,1697
6498,1708
6487,1717
6461,1746
6441,1783
6429,1832
6422,1895
6420,1972
6105,1972
6111,1861
6130,1759
6161,1671
6204,1599
6258,1542
6324,1501
6401,1476
6416,1473
6462,1470
6512,1473
6562,1480
6606,1492
6641,1506
6659,1522
6668,1532
6674,1530
6679,1515
6682,1485
6684,1439
6684,1375
6685,1340
6684,1271
6684,1219
6682,1181
6679,1154
6675,1133
6669,1117
6666,1110
6647,1072
6984,1072
6987,1715
Z" /> 
<path style="fill:#008484; fill-opacity:1.0; 
stroke:#008484; stroke-width:3.93701; stroke-opacity:1; 
stroke-linecap:round; stroke-linejoin:round;fill-rule:evenodd;"
d="M 5719,1477
5788,1493
5835,1510
5872,1532
5904,1561
5925,1583
5942,1603
5956,1624
5967,1649
5975,1679
5981,1717
5986,1764
5989,1824
5991,1899
5993,1990
5994,2038
5995,2129
5997,2203
5999,2260
6001,2305
6003,2337
6006,2361
6009,2377
6014,2389
6017,2395
6035,2422
5716,2422
5710,2362
5670,2389
5609,2420
5538,2438
5463,2442
5391,2432
5378,2428
5304,2396
5245,2349
5201,2291
5172,2221
5161,2141
5160,2132
5161,2121
5447,2121
5449,2156
5453,2168
5478,2200
5515,2221
5560,2231
5607,2226
5621,2222
5656,2205
5678,2185
5690,2155
5694,2112
5695,2091
5695,2012
5629,2012
5565,2018
5510,2035
5473,2059
5456,2085
5447,2121
5161,2121
5161,2087
5167,2053
5178,2020
5188,2000
5229,1939
5286,1889
5358,1852
5446,1827
5548,1814
5603,1813
5697,1812
5692,1772
5678,1727
5649,1696
5607,1679
5552,1676
5484,1687
5415,1708
5381,1719
5356,1725
5343,1725
5343,1725
5336,1712
5324,1686
5310,1652
5294,1614
5280,1579
5270,1550
5265,1534
5265,1532
5273,1525
5290,1522
5311,1520
5345,1513
5387,1504
5418,1496
5522,1476
5624,1470
5719,1477
Z" /> 
<path style="fill:#008484; fill-opacity:1.0; 
stroke:#008484; stroke-width:3.93701; stroke-opacity:1; 
stroke-linecap:round; stroke-linejoin:round;fill-rule:evenodd;"
d="M 4899,1144
4915,1148
4943,1157
4981,1171
5023,1188
5065,1207
5102,1224
5130,1238
5142,1247
5138,1256
5125,1277
5106,1308
5083,1343
5059,1379
5036,1413
5016,1440
5004,1456
4993,1455
4972,1443
4955,1430
4898,1394
4833,1376
4770,1375
4703,1391
4646,1424
4600,1473
4565,1538
4541,1619
4528,1715
4527,1822
4536,1920
4553,2001
4581,2067
4620,2120
4670,2162
4682,2169
4712,2185
4740,2194
4775,2197
4800,2197
4862,2191
4917,2172
4970,2138
4990,2121
5011,2104
5025,2094
5028,2094
5037,2107
5052,2132
5072,2165
5095,2203
5117,2242
5137,2277
5153,2305
5162,2322
5163,2326
5153,2331
5130,2343
5100,2359
5098,2360
5034,2392
4978,2414
4922,2427
4859,2435
4800,2438
4724,2439
4664,2435
4628,2429
4537,2395
4453,2345
4378,2278
4314,2198
4262,2105
4225,2002
4223,1995
4209,1922
4201,1838
4201,1750
4207,1665
4220,1590
4223,1578
4263,1470
4319,1373
4391,1289
4476,1218
4485,1212
4554,1176
4636,1150
4725,1135
4814,1133
4899,1144
Z" /> 
<path style="fill:#008484; fill-opacity:1.0; 
stroke:#008484; stroke-width:3.93701; stroke-opacity:1; 
stroke-linecap:round; stroke-linejoin:round;fill-rule:evenodd;"
d="M 4075,922
4083,925
4091,931
4097,942
4102,960
4106,985
4109,1018
4111,1061
4113,1116
4114,1182
4114,1262
4115,1358
4115,1469
4115,1597
4115,1744
4115,1767
4115,1915
4114,2044
4114,2156
4114,2251
4113,2332
4113,2399
4112,2453
4111,2497
4109,2531
4108,2556
4106,2574
4104,2586
4101,2593
4099,2597
4094,2599
4087,2602
4074,2604
4055,2606
4029,2607
3994,2609
3949,2610
3893,2611
3825,2611
3744,2612
3647,2612
3534,2612
3405,2612
3256,2612
3235,2612
3083,2612
2951,2612
2836,2612
2738,2612
2654,2611
2584,2611
2527,2610
2481,2609
2445,2608
2417,2606
2398,2604
2384,2602
2375,2600
2371,2597
2370,2597
2367,2592
2365,2584
2363,2571
2361,2552
2359,2525
2358,2490
2357,2445
2356,2388
2356,2319
2355,2236
2355,2138
2355,2023
2355,1891
2355,1767
2355,1620
2355,1491
2355,1379
2355,1283
2356,1203
2356,1155
2465,1155
2469,1165
2479,1186
2485,1197
2489,1206
2492,1217
2496,1229
2498,1246
2500,1270
2501,1300
2503,1340
2503,1391
2504,1455
2504,1533
2504,1627
2505,1739
2505,1793
2504,1896
2504,1994
2503,2084
2502,2164
2501,2233
2500,2289
2499,2329
2497,2353
2496,2358
2487,2374
2477,2395
2465,2422
2672,2422
2733,2422
2786,2421
2828,2419
2857,2418
2869,2415
2868,2415
2857,2401
2843,2378
2841,2375
2835,2361
2831,2341
2828,2313
2826,2274
2825,2221
2825,2152
2825,2148
2825,2078
2826,2022
2829,1981
2832,1958
2834,1952
2846,1960
2861,1979
2862,1980
2878,2002
2891,2017
2903,2032
2919,2057
2924,2066
2941,2092
2965,2127
2993,2164
2999,2171
3041,2227
3077,2281
3104,2329
3120,2369
3125,2392
3125,2422
3568,2422
3563,2417
3625,2417
3634,2419
3660,2420
3701,2421
3752,2422
3811,2422
3815,2422
3884,2422
3936,2421
3971,2419
3993,2416
4003,2412
4004,2410
3998,2393
3989,2378
3986,2371
3983,2358
3980,2338
3978,2309
3977,2270
3976,2218
3975,2152
3975,2070
3975,1971
3975,1926
3975,1492
3634,1492
3649,1522
3653,1532
3656,1547
3659,1569
3661,1600
3662,1641
3663,1694
3664,1762
3664,1847
3665,1942
3664,2041
3664,2123
3664,2188
3663,2239
3662,2279
3660,2308
3658,2330
3655,2346
3651,2359
3646,2370
3645,2372
3632,2397
3625,2414
3625,2417
3563,2417
3544,2395
3526,2376
3515,2363
3515,2363
3492,2338
3464,2304
3434,2268
3407,2233
3387,2205
3379,2193
3363,2167
3338,2132
3307,2090
3274,2046
3243,2006
3219,1977
3195,1947
3172,1914
3171,1911
3121,1833
3083,1782
3055,1746
3087,1711
3115,1680
3151,1638
3190,1590
3228,1542
3262,1498
3274,1482
3394,1333
3488,1232
3566,1152
3351,1152
3278,1152
3223,1153
3183,1155
3155,1158
3138,1163
3129,1171
3125,1183
3125,1198
3125,1206
3118,1227
3103,1253
3096,1263
3073,1293
3048,1329
3040,1342
3023,1369
3009,1387
3005,1392
2993,1404
2974,1426
2950,1454
2926,1484
2905,1511
2890,1531
2885,1540
2878,1552
2861,1571
2855,1577
2825,1606
2825,1441
2825,1369
2827,1313
2832,1268
2839,1230
2849,1196
2859,1170
2861,1164
2857,1160
2847,1156
2826,1154
2794,1153
2747,1153
2684,1152
2666,1152
2605,1153
2551,1153
2508,1154
2478,1154
2465,1155
2465,1155
2356,1155
2356,1136
2357,1081
2358,1038
2360,1004
2361,979
2363,961
2365,949
2368,942
2370,938
2375,935
2384,932
2398,930
2419,928
2448,926
2487,925
2537,924
2599,923
2676,923
2768,923
2877,922
3004,922
3645,922
3645,960
3652,1006
3673,1053
3703,1092
3724,1110
3768,1128
3820,1132
3873,1123
3921,1102
3960,1069
3966,1061
3984,1021
3993,976
3997,922
4040,922
4053,922
4065,921
4075,922
Z" /> 
</g>
<g style="fill:#008484; fill-opacity:0.0; 
stroke:#008484; stroke-width:3.93701; stroke-opacity:1; 
stroke-linecap:round; stroke-linejoin:round;">
</g>
<g style="fill:#008484; fill-opacity:0.0; 
stroke:#008484; stroke-width:78.7402; stroke-opacity:1; 
stroke-linecap:round; stroke-linejoin:round;">
<path d="M2387 9125
L2387 9603
L2359 9659
L2331 9687
L2275 9715
L2190 9715
L2134 9687
" />
<path d="M2387 9491
L2331 9519
L2218 9519
L2162 9491
L2134 9462
L2106 9406
L2106 9237
L2134 9181
L2162 9153
L2218 9125
L2331 9125
L2387 9153
" />
<path d="M2668 9519
L2668 9125
" />
<path d="M2668 8928
L2640 8956
L2668 8984
L2696 8956
L2668 8928
L2668 8984
" />
<path d="M2865 9125
L3090 9125
" />
<path d="M2949 8928
L2949 9434
L2978 9491
L3034 9519
L3090 9519
" />
<path d="M3287 9519
L3287 8928
" />
<path d="M3540 9519
L3540 9209
L3512 9153
L3456 9125
L3371 9125
L3315 9153
L3287 9181
" />
<path d="M4074 9125
L4074 9519
" />
<path d="M3821 9125
L3821 9434
L3849 9491
L3906 9519
L3990 9519
L4046 9491
L4074 9462
" />
<path d="M4356 9519
L4356 8928
" />
<path d="M4356 9153
L4412 9125
L4524 9125
L4580 9153
L4609 9181
L4637 9237
L4637 9406
L4609 9462
L4580 9491
L4524 9519
L4412 9519
L4356 9491
" />
<path d="M4890 9462
L4918 9491
L4890 9519
L4862 9491
L4890 9462
L4890 9519
" />
<path d="M5424 9491
L5368 9519
L5255 9519
L5199 9491
L5171 9462
L5143 9406
L5143 9237
L5171 9181
L5199 9153
L5255 9125
L5368 9125
L5424 9153
" />
<path d="M5762 9519
L5705 9491
L5677 9462
L5649 9406
L5649 9237
L5677 9181
L5705 9153
L5762 9125
L5846 9125
L5902 9153
L5930 9181
L5958 9237
L5958 9406
L5930 9462
L5902 9491
L5846 9519
L5762 9519
" />
<path d="M6212 9519
L6212 9125
" />
<path d="M6212 9181
L6240 9153
L6296 9125
L6380 9125
L6437 9153
L6465 9209
L6465 9519
" />
<path d="M6465 9209
L6493 9153
L6549 9125
L6633 9125
L6690 9153
L6718 9209
L6718 9519
" />
<path d="M7421 8900
L6915 9659
" />
<path d="M7618 9125
L7618 9631
L7589 9687
L7533 9715
L7505 9715
" />
<path d="M7618 8928
L7589 8956
L7618 8984
L7646 8956
L7618 8928
L7618 8984
" />
<path d="M7983 9519
L7927 9491
L7899 9462
L7871 9406
L7871 9237
L7899 9181
L7927 9153
L7983 9125
L8068 9125
L8124 9153
L8152 9181
L8180 9237
L8180 9406
L8152 9462
L8124 9491
L8068 9519
L7983 9519
" />
<path d="M8405 9491
L8461 9519
L8574 9519
L8630 9491
L8658 9434
L8658 9406
L8630 9350
L8574 9322
L8489 9322
L8433 9294
L8405 9237
L8405 9209
L8433 9153
L8489 9125
L8574 9125
L8630 9153
" />
<path d="M8911 9519
L8911 8928
" />
<path d="M9164 9519
L9164 9209
L9136 9153
L9080 9125
L8996 9125
L8939 9153
L8911 9181
" />
<path d="M9699 9519
L9699 9209
L9670 9153
L9614 9125
L9502 9125
L9446 9153
" />
<path d="M9699 9491
L9642 9519
L9502 9519
L9446 9491
L9417 9434
L9417 9378
L9446 9322
L9502 9294
L9642 9294
L9699 9266
" />
<path d="M9980 9125
L9980 9631
L9952 9687
L9895 9715
L9867 9715
" />
<path d="M9980 8928
L9952 8956
L9980 8984
L10008 8956
L9980 8928
L9980 8984
" />
<path d="M10345 9519
L10289 9491
L10261 9462
L10233 9406
L10233 9237
L10261 9181
L10289 9153
L10345 9125
L10430 9125
L10486 9153
L10514 9181
L10542 9237
L10542 9406
L10514 9462
L10486 9491
L10430 9519
L10345 9519
" />
<path d="M10795 9519
L10795 8928
" />
<path d="M11048 9519
L11048 9209
L11020 9153
L10964 9125
L10880 9125
L10823 9153
L10795 9181
" />
<path d="M11330 9125
L11330 9519
" />
<path d="M11330 9181
L11358 9153
L11414 9125
L11498 9125
L11555 9153
L11583 9209
L11583 9519
" />
<path d="M11836 9491
L11892 9519
L12005 9519
L12061 9491
L12089 9434
L12089 9406
L12061 9350
L12005 9322
L11920 9322
L11864 9294
L11836 9237
L11836 9209
L11864 9153
L11920 9125
L12005 9125
L12061 9153
" />
<path d="M12426 9519
L12370 9491
L12342 9462
L12314 9406
L12314 9237
L12342 9181
L12370 9153
L12426 9125
L12511 9125
L12567 9153
L12595 9181
L12623 9237
L12623 9406
L12595 9462
L12567 9491
L12511 9519
L12426 9519
" />
<path d="M12876 9125
L12876 9519
" />
<path d="M12876 9181
L12904 9153
L12961 9125
L13045 9125
L13101 9153
L13129 9209
L13129 9519
" />
<path d="M13832 8900
L13326 9659
" />
<path d="M13973 9125
L14114 9519
L14254 9125
" />
<path d="M14479 9125
L14479 9519
" />
<path d="M14479 9181
L14507 9153
L14564 9125
L14648 9125
L14704 9153
L14732 9209
L14732 9519
" />
<path d="M15267 9519
L15267 9209
L15239 9153
L15182 9125
L15070 9125
L15014 9153
" />
<path d="M15267 9491
L15210 9519
L15070 9519
L15014 9491
L14985 9434
L14985 9378
L15014 9322
L15070 9294
L15210 9294
L15267 9266
" />
<path d="M2449 8219
L2449 8726
L2421 8782
L2365 8810
L2336 8810
" />
<path d="M2449 8023
L2421 8051
L2449 8079
L2477 8051
L2449 8023
L2449 8079
" />
<path d="M2814 8613
L2758 8585
L2730 8557
L2702 8501
L2702 8332
L2730 8276
L2758 8248
L2814 8219
L2899 8219
L2955 8248
L2983 8276
L3011 8332
L3011 8501
L2983 8557
L2955 8585
L2899 8613
L2814 8613
" />
<path d="M3236 8585
L3293 8613
L3405 8613
L3461 8585
L3489 8529
L3489 8501
L3461 8444
L3405 8416
L3321 8416
L3264 8388
L3236 8332
L3236 8304
L3264 8248
L3321 8219
L3405 8219
L3461 8248
" />
<path d="M3742 8613
L3742 8023
" />
<path d="M3996 8613
L3996 8304
L3967 8248
L3911 8219
L3827 8219
L3771 8248
L3742 8276
" />
<path d="M4530 8613
L4530 8304
L4502 8248
L4446 8219
L4333 8219
L4277 8248
" />
<path d="M4530 8585
L4474 8613
L4333 8613
L4277 8585
L4249 8529
L4249 8473
L4277 8416
L4333 8388
L4474 8388
L4530 8360
" />
<path d="M4811 8219
L4811 8726
L4783 8782
L4727 8810
L4699 8810
" />
<path d="M4811 8023
L4783 8051
L4811 8079
L4839 8051
L4811 8023
L4811 8079
" />
<path d="M5177 8613
L5120 8585
L5092 8557
L5064 8501
L5064 8332
L5092 8276
L5120 8248
L5177 8219
L5261 8219
L5317 8248
L5345 8276
L5374 8332
L5374 8501
L5345 8557
L5317 8585
L5261 8613
L5177 8613
" />
<path d="M5627 8613
L5627 8023
" />
<path d="M5880 8613
L5880 8304
L5852 8248
L5795 8219
L5711 8219
L5655 8248
L5627 8276
" />
<path d="M6161 8219
L6161 8613
" />
<path d="M6161 8276
L6189 8248
L6245 8219
L6330 8219
L6386 8248
L6414 8304
L6414 8613
" />
<path d="M6667 8585
L6723 8613
L6836 8613
L6892 8585
L6920 8529
L6920 8501
L6892 8444
L6836 8416
L6751 8416
L6695 8388
L6667 8332
L6667 8304
L6695 8248
L6751 8219
L6836 8219
L6892 8248
" />
<path d="M7258 8613
L7201 8585
L7173 8557
L7145 8501
L7145 8332
L7173 8276
L7201 8248
L7258 8219
L7342 8219
L7398 8248
L7426 8276
L7455 8332
L7455 8501
L7426 8557
L7398 8585
L7342 8613
L7258 8613
" />
<path d="M7708 8219
L7708 8613
" />
<path d="M7708 8276
L7736 8248
L7792 8219
L7876 8219
L7933 8248
L7961 8304
L7961 8613
" />
<path d="M8242 8557
L8270 8585
L8242 8613
L8214 8585
L8242 8557
L8242 8613
" />
<path d="M8776 8585
L8720 8613
L8607 8613
L8551 8585
L8523 8557
L8495 8501
L8495 8332
L8523 8276
L8551 8248
L8607 8219
L8720 8219
L8776 8248
" />
<path d="M9114 8613
L9057 8585
L9029 8557
L9001 8501
L9001 8332
L9029 8276
L9057 8248
L9114 8219
L9198 8219
L9254 8248
L9282 8276
L9311 8332
L9311 8501
L9282 8557
L9254 8585
L9198 8613
L9114 8613
" />
<path d="M9564 8613
L9564 8219
" />
<path d="M9564 8276
L9592 8248
L9648 8219
L9732 8219
L9789 8248
L9817 8304
L9817 8613
" />
<path d="M9817 8304
L9845 8248
L9901 8219
L9985 8219
L10042 8248
L10070 8304
L10070 8613
" />
<path d="M2421 7235
L2421 7657
L2393 7741
L2336 7798
L2252 7826
L2196 7826
" />
<path d="M2786 7826
L2730 7798
L2702 7769
L2674 7713
L2674 7544
L2702 7488
L2730 7460
L2786 7432
L2871 7432
L2927 7460
L2955 7488
L2983 7544
L2983 7713
L2955 7769
L2927 7798
L2871 7826
L2786 7826
" />
<path d="M3208 7798
L3264 7826
L3377 7826
L3433 7798
L3461 7741
L3461 7713
L3433 7657
L3377 7629
L3293 7629
L3236 7601
L3208 7544
L3208 7516
L3236 7460
L3293 7432
L3377 7432
L3433 7460
" />
<path d="M3714 7826
L3714 7235
" />
<path d="M3967 7826
L3967 7516
L3939 7460
L3883 7432
L3799 7432
L3742 7460
L3714 7488
" />
<g >
</g>
</g>
<g style="fill:#000000; fill-opacity:0.0; 
stroke:#000000; stroke-width:78.7402; stroke-opacity:1; 
stroke-linecap:round; stroke-linejoin:round;">
</g>
<g style="fill:#C2C200; fill-opacity:0.0; 
stroke:#C2C200; stroke-width:78.7402; stroke-opacity:1; 
stroke-linecap:round; stroke-linejoin:round;">
<path d="M17324 4560
L17324 6340
" />
<path d="M10159 8012
L12915 8012
" />
<circle cx="1259.84" cy="1417.32" r="551.181" /> 
<path d="M17331 4430
L17331 4522
" />
<path d="M22994.2 4560.95 A118.111 118.111 0.0 0 0 22987.7 4522.36 " />
<path d="M10159.5 5256.81 A787.402 787.402 0.0 0 0 9372.12 6044.22 " />
<path d="M12915 5256
L10159 5256
" />
<path d="M9372.12 7225.32 A787.401 787.401 0.0 0 0 10159.5 8012.72 " />
<path d="M26102.4 10078.7 A1968.5 1968.5 0.0 0 0 28070.9 8110.24 " />
<path d="M13702 7225
L13702 6044
" />
<path d="M12915.4 8012.72 A787.402 787.402 0.0 0 0 13702.8 7225.32 " />
<path d="M13702.8 6044.22 A787.402 787.402 0.0 0 0 12915.4 5256.81 " />
<path d="M2007 10078
L26102 10078
" />
<circle cx="26850.4" cy="8700.79" r="551.181" /> 
<path d="M22994 6340
L22994 4560
" />
<path d="M17725 6860
L22593 6860
" />
<path d="M17331 6379
L17331 6466
" />
<path d="M22987.7 4430.47 A393.701 393.701 0.0 0 0 22594 4036.76 " />
<path d="M22594 6860.16 A393.701 393.701 0.0 0 0 22987.7 6466.46 " />
<circle cx="1259.84" cy="8700.79" r="551.181" /> 
<circle cx="15126.6" cy="5604.26" r="688.976" /> 
<path d="M22987 6466
L22987 6379
" />
<path d="M39 2007
L39 8110
" />
<path d="M17725.1 4036.76 A393.701 393.701 0.0 0 0 17331.4 4430.47 " />
<path d="M22987 4522
L22987 4430
" />
<path d="M2007.87 39.3705 A1968.5 1968.5 0.0 0 0 39.3705 2007.87 " />
<path d="M39.3705 8110.24 A1968.5 1968.5 0.0 0 0 2007.87 10078.7 " />
<path d="M22593 4036
L17725 4036
" />
<circle cx="26850.4" cy="1417.32" r="551.181" /> 
<path d="M17331.4 6466.46 A393.701 393.701 0.0 0 0 17725.1 6860.16 " />
<path d="M22987.7 6379.06 A118.11 118.11 0.0 0 0 22994.2 6340.48 " />
<path d="M17331.4 4522.36 A118.11 118.11 0.0 0 0 17324.9 4560.95 " />
<path d="M9372 6044
L9372 7225
" />
<path d="M17324.9 6340.48 A118.11 118.11 0.0 0 0 17331.4 6379.06 " />
<path d="M28070 8110
L28070 2007
" />
<path d="M26102 39
L2007 39
" />
<path d="M28070.9 2007.87 A1968.5 1968.5 0.0 0 0 26102.4 39.3705 " />
<g >
</g>
<g >
</g>
<g >
</g>
<g >
</g>
</g> 
</svg>
