G04 #@! TF.GenerationSoftware,KiCad,Pcbnew,(5.0.2)-1*
G04 #@! TF.CreationDate,2019-01-19T12:25:22+11:00*
G04 #@! TF.ProjectId,MAX2870_Dev_Rev_0,4d415832-3837-4305-9f44-65765f526576,rev?*
G04 #@! TF.SameCoordinates,Original*
G04 #@! TF.FileFunction,Paste,Top*
G04 #@! TF.FilePolarity,Positive*
%FSLAX46Y46*%
G04 Gerber Fmt 4.6, Leading zero omitted, Abs format (unit mm)*
G04 Created by KiCad (PCBNEW (5.0.2)-1) date 19/01/2019 12:25:22*
%MOMM*%
%LPD*%
G01*
G04 APERTURE LIST*
%ADD10C,0.100000*%
%ADD11C,0.590000*%
%ADD12R,0.850000X1.000000*%
%ADD13R,0.630000X0.840000*%
%ADD14R,1.035000X1.035000*%
%ADD15R,0.700000X0.250000*%
%ADD16R,0.250000X0.700000*%
%ADD17C,0.975000*%
%ADD18C,1.350000*%
%ADD19R,2.000000X3.800000*%
%ADD20R,2.000000X1.500000*%
%ADD21R,1.060000X0.650000*%
%ADD22R,0.650000X0.400000*%
G04 APERTURE END LIST*
D10*
G04 #@! TO.C,C13*
G36*
X84671958Y-93405710D02*
X84686276Y-93407834D01*
X84700317Y-93411351D01*
X84713946Y-93416228D01*
X84727031Y-93422417D01*
X84739447Y-93429858D01*
X84751073Y-93438481D01*
X84761798Y-93448202D01*
X84771519Y-93458927D01*
X84780142Y-93470553D01*
X84787583Y-93482969D01*
X84793772Y-93496054D01*
X84798649Y-93509683D01*
X84802166Y-93523724D01*
X84804290Y-93538042D01*
X84805000Y-93552500D01*
X84805000Y-93897500D01*
X84804290Y-93911958D01*
X84802166Y-93926276D01*
X84798649Y-93940317D01*
X84793772Y-93953946D01*
X84787583Y-93967031D01*
X84780142Y-93979447D01*
X84771519Y-93991073D01*
X84761798Y-94001798D01*
X84751073Y-94011519D01*
X84739447Y-94020142D01*
X84727031Y-94027583D01*
X84713946Y-94033772D01*
X84700317Y-94038649D01*
X84686276Y-94042166D01*
X84671958Y-94044290D01*
X84657500Y-94045000D01*
X84362500Y-94045000D01*
X84348042Y-94044290D01*
X84333724Y-94042166D01*
X84319683Y-94038649D01*
X84306054Y-94033772D01*
X84292969Y-94027583D01*
X84280553Y-94020142D01*
X84268927Y-94011519D01*
X84258202Y-94001798D01*
X84248481Y-93991073D01*
X84239858Y-93979447D01*
X84232417Y-93967031D01*
X84226228Y-93953946D01*
X84221351Y-93940317D01*
X84217834Y-93926276D01*
X84215710Y-93911958D01*
X84215000Y-93897500D01*
X84215000Y-93552500D01*
X84215710Y-93538042D01*
X84217834Y-93523724D01*
X84221351Y-93509683D01*
X84226228Y-93496054D01*
X84232417Y-93482969D01*
X84239858Y-93470553D01*
X84248481Y-93458927D01*
X84258202Y-93448202D01*
X84268927Y-93438481D01*
X84280553Y-93429858D01*
X84292969Y-93422417D01*
X84306054Y-93416228D01*
X84319683Y-93411351D01*
X84333724Y-93407834D01*
X84348042Y-93405710D01*
X84362500Y-93405000D01*
X84657500Y-93405000D01*
X84671958Y-93405710D01*
X84671958Y-93405710D01*
G37*
D11*
X84510000Y-93725000D03*
D10*
G36*
X83701958Y-93405710D02*
X83716276Y-93407834D01*
X83730317Y-93411351D01*
X83743946Y-93416228D01*
X83757031Y-93422417D01*
X83769447Y-93429858D01*
X83781073Y-93438481D01*
X83791798Y-93448202D01*
X83801519Y-93458927D01*
X83810142Y-93470553D01*
X83817583Y-93482969D01*
X83823772Y-93496054D01*
X83828649Y-93509683D01*
X83832166Y-93523724D01*
X83834290Y-93538042D01*
X83835000Y-93552500D01*
X83835000Y-93897500D01*
X83834290Y-93911958D01*
X83832166Y-93926276D01*
X83828649Y-93940317D01*
X83823772Y-93953946D01*
X83817583Y-93967031D01*
X83810142Y-93979447D01*
X83801519Y-93991073D01*
X83791798Y-94001798D01*
X83781073Y-94011519D01*
X83769447Y-94020142D01*
X83757031Y-94027583D01*
X83743946Y-94033772D01*
X83730317Y-94038649D01*
X83716276Y-94042166D01*
X83701958Y-94044290D01*
X83687500Y-94045000D01*
X83392500Y-94045000D01*
X83378042Y-94044290D01*
X83363724Y-94042166D01*
X83349683Y-94038649D01*
X83336054Y-94033772D01*
X83322969Y-94027583D01*
X83310553Y-94020142D01*
X83298927Y-94011519D01*
X83288202Y-94001798D01*
X83278481Y-93991073D01*
X83269858Y-93979447D01*
X83262417Y-93967031D01*
X83256228Y-93953946D01*
X83251351Y-93940317D01*
X83247834Y-93926276D01*
X83245710Y-93911958D01*
X83245000Y-93897500D01*
X83245000Y-93552500D01*
X83245710Y-93538042D01*
X83247834Y-93523724D01*
X83251351Y-93509683D01*
X83256228Y-93496054D01*
X83262417Y-93482969D01*
X83269858Y-93470553D01*
X83278481Y-93458927D01*
X83288202Y-93448202D01*
X83298927Y-93438481D01*
X83310553Y-93429858D01*
X83322969Y-93422417D01*
X83336054Y-93416228D01*
X83349683Y-93411351D01*
X83363724Y-93407834D01*
X83378042Y-93405710D01*
X83392500Y-93405000D01*
X83687500Y-93405000D01*
X83701958Y-93405710D01*
X83701958Y-93405710D01*
G37*
D11*
X83540000Y-93725000D03*
G04 #@! TD*
D12*
G04 #@! TO.C,FB1*
X92000000Y-93190000D03*
X90400000Y-93190000D03*
G04 #@! TD*
G04 #@! TO.C,FB2*
X92820000Y-84270000D03*
X91220000Y-84270000D03*
G04 #@! TD*
D13*
G04 #@! TO.C,XO1*
X72500000Y-89065000D03*
X72500000Y-90455000D03*
X74580000Y-89065000D03*
X74580000Y-90455000D03*
G04 #@! TD*
D10*
G04 #@! TO.C,C16*
G36*
X89761958Y-90665710D02*
X89776276Y-90667834D01*
X89790317Y-90671351D01*
X89803946Y-90676228D01*
X89817031Y-90682417D01*
X89829447Y-90689858D01*
X89841073Y-90698481D01*
X89851798Y-90708202D01*
X89861519Y-90718927D01*
X89870142Y-90730553D01*
X89877583Y-90742969D01*
X89883772Y-90756054D01*
X89888649Y-90769683D01*
X89892166Y-90783724D01*
X89894290Y-90798042D01*
X89895000Y-90812500D01*
X89895000Y-91107500D01*
X89894290Y-91121958D01*
X89892166Y-91136276D01*
X89888649Y-91150317D01*
X89883772Y-91163946D01*
X89877583Y-91177031D01*
X89870142Y-91189447D01*
X89861519Y-91201073D01*
X89851798Y-91211798D01*
X89841073Y-91221519D01*
X89829447Y-91230142D01*
X89817031Y-91237583D01*
X89803946Y-91243772D01*
X89790317Y-91248649D01*
X89776276Y-91252166D01*
X89761958Y-91254290D01*
X89747500Y-91255000D01*
X89402500Y-91255000D01*
X89388042Y-91254290D01*
X89373724Y-91252166D01*
X89359683Y-91248649D01*
X89346054Y-91243772D01*
X89332969Y-91237583D01*
X89320553Y-91230142D01*
X89308927Y-91221519D01*
X89298202Y-91211798D01*
X89288481Y-91201073D01*
X89279858Y-91189447D01*
X89272417Y-91177031D01*
X89266228Y-91163946D01*
X89261351Y-91150317D01*
X89257834Y-91136276D01*
X89255710Y-91121958D01*
X89255000Y-91107500D01*
X89255000Y-90812500D01*
X89255710Y-90798042D01*
X89257834Y-90783724D01*
X89261351Y-90769683D01*
X89266228Y-90756054D01*
X89272417Y-90742969D01*
X89279858Y-90730553D01*
X89288481Y-90718927D01*
X89298202Y-90708202D01*
X89308927Y-90698481D01*
X89320553Y-90689858D01*
X89332969Y-90682417D01*
X89346054Y-90676228D01*
X89359683Y-90671351D01*
X89373724Y-90667834D01*
X89388042Y-90665710D01*
X89402500Y-90665000D01*
X89747500Y-90665000D01*
X89761958Y-90665710D01*
X89761958Y-90665710D01*
G37*
D11*
X89575000Y-90960000D03*
D10*
G36*
X89761958Y-89695710D02*
X89776276Y-89697834D01*
X89790317Y-89701351D01*
X89803946Y-89706228D01*
X89817031Y-89712417D01*
X89829447Y-89719858D01*
X89841073Y-89728481D01*
X89851798Y-89738202D01*
X89861519Y-89748927D01*
X89870142Y-89760553D01*
X89877583Y-89772969D01*
X89883772Y-89786054D01*
X89888649Y-89799683D01*
X89892166Y-89813724D01*
X89894290Y-89828042D01*
X89895000Y-89842500D01*
X89895000Y-90137500D01*
X89894290Y-90151958D01*
X89892166Y-90166276D01*
X89888649Y-90180317D01*
X89883772Y-90193946D01*
X89877583Y-90207031D01*
X89870142Y-90219447D01*
X89861519Y-90231073D01*
X89851798Y-90241798D01*
X89841073Y-90251519D01*
X89829447Y-90260142D01*
X89817031Y-90267583D01*
X89803946Y-90273772D01*
X89790317Y-90278649D01*
X89776276Y-90282166D01*
X89761958Y-90284290D01*
X89747500Y-90285000D01*
X89402500Y-90285000D01*
X89388042Y-90284290D01*
X89373724Y-90282166D01*
X89359683Y-90278649D01*
X89346054Y-90273772D01*
X89332969Y-90267583D01*
X89320553Y-90260142D01*
X89308927Y-90251519D01*
X89298202Y-90241798D01*
X89288481Y-90231073D01*
X89279858Y-90219447D01*
X89272417Y-90207031D01*
X89266228Y-90193946D01*
X89261351Y-90180317D01*
X89257834Y-90166276D01*
X89255710Y-90151958D01*
X89255000Y-90137500D01*
X89255000Y-89842500D01*
X89255710Y-89828042D01*
X89257834Y-89813724D01*
X89261351Y-89799683D01*
X89266228Y-89786054D01*
X89272417Y-89772969D01*
X89279858Y-89760553D01*
X89288481Y-89748927D01*
X89298202Y-89738202D01*
X89308927Y-89728481D01*
X89320553Y-89719858D01*
X89332969Y-89712417D01*
X89346054Y-89706228D01*
X89359683Y-89701351D01*
X89373724Y-89697834D01*
X89388042Y-89695710D01*
X89402500Y-89695000D01*
X89747500Y-89695000D01*
X89761958Y-89695710D01*
X89761958Y-89695710D01*
G37*
D11*
X89575000Y-89990000D03*
G04 #@! TD*
D14*
G04 #@! TO.C,U3*
X83975000Y-89600000D03*
X85700000Y-89600000D03*
X83975000Y-87875000D03*
X85700000Y-87875000D03*
D15*
X82437500Y-90487500D03*
X82437500Y-89987500D03*
X82437500Y-89487500D03*
X82437500Y-88987500D03*
X82437500Y-88487500D03*
X82437500Y-87987500D03*
X82437500Y-87487500D03*
X82437500Y-86987500D03*
D16*
X83087500Y-86337500D03*
X83587500Y-86337500D03*
X84087500Y-86337500D03*
X84587500Y-86337500D03*
X85087500Y-86337500D03*
X85587500Y-86337500D03*
X86087500Y-86337500D03*
X86587500Y-86337500D03*
D15*
X87237500Y-86987500D03*
X87237500Y-87487500D03*
X87237500Y-87987500D03*
X87237500Y-88487500D03*
X87237500Y-88987500D03*
X87237500Y-89487500D03*
X87237500Y-89987500D03*
X87237500Y-90487500D03*
D16*
X86587500Y-91137500D03*
X86087500Y-91137500D03*
X85587500Y-91137500D03*
X85087500Y-91137500D03*
X84587500Y-91137500D03*
X84087500Y-91137500D03*
X83587500Y-91137500D03*
X83087500Y-91137500D03*
G04 #@! TD*
D10*
G04 #@! TO.C,C1*
G36*
X67550142Y-104701174D02*
X67573803Y-104704684D01*
X67597007Y-104710496D01*
X67619529Y-104718554D01*
X67641153Y-104728782D01*
X67661670Y-104741079D01*
X67680883Y-104755329D01*
X67698607Y-104771393D01*
X67714671Y-104789117D01*
X67728921Y-104808330D01*
X67741218Y-104828847D01*
X67751446Y-104850471D01*
X67759504Y-104872993D01*
X67765316Y-104896197D01*
X67768826Y-104919858D01*
X67770000Y-104943750D01*
X67770000Y-105431250D01*
X67768826Y-105455142D01*
X67765316Y-105478803D01*
X67759504Y-105502007D01*
X67751446Y-105524529D01*
X67741218Y-105546153D01*
X67728921Y-105566670D01*
X67714671Y-105585883D01*
X67698607Y-105603607D01*
X67680883Y-105619671D01*
X67661670Y-105633921D01*
X67641153Y-105646218D01*
X67619529Y-105656446D01*
X67597007Y-105664504D01*
X67573803Y-105670316D01*
X67550142Y-105673826D01*
X67526250Y-105675000D01*
X66613750Y-105675000D01*
X66589858Y-105673826D01*
X66566197Y-105670316D01*
X66542993Y-105664504D01*
X66520471Y-105656446D01*
X66498847Y-105646218D01*
X66478330Y-105633921D01*
X66459117Y-105619671D01*
X66441393Y-105603607D01*
X66425329Y-105585883D01*
X66411079Y-105566670D01*
X66398782Y-105546153D01*
X66388554Y-105524529D01*
X66380496Y-105502007D01*
X66374684Y-105478803D01*
X66371174Y-105455142D01*
X66370000Y-105431250D01*
X66370000Y-104943750D01*
X66371174Y-104919858D01*
X66374684Y-104896197D01*
X66380496Y-104872993D01*
X66388554Y-104850471D01*
X66398782Y-104828847D01*
X66411079Y-104808330D01*
X66425329Y-104789117D01*
X66441393Y-104771393D01*
X66459117Y-104755329D01*
X66478330Y-104741079D01*
X66498847Y-104728782D01*
X66520471Y-104718554D01*
X66542993Y-104710496D01*
X66566197Y-104704684D01*
X66589858Y-104701174D01*
X66613750Y-104700000D01*
X67526250Y-104700000D01*
X67550142Y-104701174D01*
X67550142Y-104701174D01*
G37*
D17*
X67070000Y-105187500D03*
D10*
G36*
X67550142Y-102826174D02*
X67573803Y-102829684D01*
X67597007Y-102835496D01*
X67619529Y-102843554D01*
X67641153Y-102853782D01*
X67661670Y-102866079D01*
X67680883Y-102880329D01*
X67698607Y-102896393D01*
X67714671Y-102914117D01*
X67728921Y-102933330D01*
X67741218Y-102953847D01*
X67751446Y-102975471D01*
X67759504Y-102997993D01*
X67765316Y-103021197D01*
X67768826Y-103044858D01*
X67770000Y-103068750D01*
X67770000Y-103556250D01*
X67768826Y-103580142D01*
X67765316Y-103603803D01*
X67759504Y-103627007D01*
X67751446Y-103649529D01*
X67741218Y-103671153D01*
X67728921Y-103691670D01*
X67714671Y-103710883D01*
X67698607Y-103728607D01*
X67680883Y-103744671D01*
X67661670Y-103758921D01*
X67641153Y-103771218D01*
X67619529Y-103781446D01*
X67597007Y-103789504D01*
X67573803Y-103795316D01*
X67550142Y-103798826D01*
X67526250Y-103800000D01*
X66613750Y-103800000D01*
X66589858Y-103798826D01*
X66566197Y-103795316D01*
X66542993Y-103789504D01*
X66520471Y-103781446D01*
X66498847Y-103771218D01*
X66478330Y-103758921D01*
X66459117Y-103744671D01*
X66441393Y-103728607D01*
X66425329Y-103710883D01*
X66411079Y-103691670D01*
X66398782Y-103671153D01*
X66388554Y-103649529D01*
X66380496Y-103627007D01*
X66374684Y-103603803D01*
X66371174Y-103580142D01*
X66370000Y-103556250D01*
X66370000Y-103068750D01*
X66371174Y-103044858D01*
X66374684Y-103021197D01*
X66380496Y-102997993D01*
X66388554Y-102975471D01*
X66398782Y-102953847D01*
X66411079Y-102933330D01*
X66425329Y-102914117D01*
X66441393Y-102896393D01*
X66459117Y-102880329D01*
X66478330Y-102866079D01*
X66498847Y-102853782D01*
X66520471Y-102843554D01*
X66542993Y-102835496D01*
X66566197Y-102829684D01*
X66589858Y-102826174D01*
X66613750Y-102825000D01*
X67526250Y-102825000D01*
X67550142Y-102826174D01*
X67550142Y-102826174D01*
G37*
D17*
X67070000Y-103312500D03*
G04 #@! TD*
D10*
G04 #@! TO.C,C2*
G36*
X76234505Y-97136204D02*
X76258773Y-97139804D01*
X76282572Y-97145765D01*
X76305671Y-97154030D01*
X76327850Y-97164520D01*
X76348893Y-97177132D01*
X76368599Y-97191747D01*
X76386777Y-97208223D01*
X76403253Y-97226401D01*
X76417868Y-97246107D01*
X76430480Y-97267150D01*
X76440970Y-97289329D01*
X76449235Y-97312428D01*
X76455196Y-97336227D01*
X76458796Y-97360495D01*
X76460000Y-97384999D01*
X76460000Y-98235001D01*
X76458796Y-98259505D01*
X76455196Y-98283773D01*
X76449235Y-98307572D01*
X76440970Y-98330671D01*
X76430480Y-98352850D01*
X76417868Y-98373893D01*
X76403253Y-98393599D01*
X76386777Y-98411777D01*
X76368599Y-98428253D01*
X76348893Y-98442868D01*
X76327850Y-98455480D01*
X76305671Y-98465970D01*
X76282572Y-98474235D01*
X76258773Y-98480196D01*
X76234505Y-98483796D01*
X76210001Y-98485000D01*
X75309999Y-98485000D01*
X75285495Y-98483796D01*
X75261227Y-98480196D01*
X75237428Y-98474235D01*
X75214329Y-98465970D01*
X75192150Y-98455480D01*
X75171107Y-98442868D01*
X75151401Y-98428253D01*
X75133223Y-98411777D01*
X75116747Y-98393599D01*
X75102132Y-98373893D01*
X75089520Y-98352850D01*
X75079030Y-98330671D01*
X75070765Y-98307572D01*
X75064804Y-98283773D01*
X75061204Y-98259505D01*
X75060000Y-98235001D01*
X75060000Y-97384999D01*
X75061204Y-97360495D01*
X75064804Y-97336227D01*
X75070765Y-97312428D01*
X75079030Y-97289329D01*
X75089520Y-97267150D01*
X75102132Y-97246107D01*
X75116747Y-97226401D01*
X75133223Y-97208223D01*
X75151401Y-97191747D01*
X75171107Y-97177132D01*
X75192150Y-97164520D01*
X75214329Y-97154030D01*
X75237428Y-97145765D01*
X75261227Y-97139804D01*
X75285495Y-97136204D01*
X75309999Y-97135000D01*
X76210001Y-97135000D01*
X76234505Y-97136204D01*
X76234505Y-97136204D01*
G37*
D18*
X75760000Y-97810000D03*
D10*
G36*
X73534505Y-97136204D02*
X73558773Y-97139804D01*
X73582572Y-97145765D01*
X73605671Y-97154030D01*
X73627850Y-97164520D01*
X73648893Y-97177132D01*
X73668599Y-97191747D01*
X73686777Y-97208223D01*
X73703253Y-97226401D01*
X73717868Y-97246107D01*
X73730480Y-97267150D01*
X73740970Y-97289329D01*
X73749235Y-97312428D01*
X73755196Y-97336227D01*
X73758796Y-97360495D01*
X73760000Y-97384999D01*
X73760000Y-98235001D01*
X73758796Y-98259505D01*
X73755196Y-98283773D01*
X73749235Y-98307572D01*
X73740970Y-98330671D01*
X73730480Y-98352850D01*
X73717868Y-98373893D01*
X73703253Y-98393599D01*
X73686777Y-98411777D01*
X73668599Y-98428253D01*
X73648893Y-98442868D01*
X73627850Y-98455480D01*
X73605671Y-98465970D01*
X73582572Y-98474235D01*
X73558773Y-98480196D01*
X73534505Y-98483796D01*
X73510001Y-98485000D01*
X72609999Y-98485000D01*
X72585495Y-98483796D01*
X72561227Y-98480196D01*
X72537428Y-98474235D01*
X72514329Y-98465970D01*
X72492150Y-98455480D01*
X72471107Y-98442868D01*
X72451401Y-98428253D01*
X72433223Y-98411777D01*
X72416747Y-98393599D01*
X72402132Y-98373893D01*
X72389520Y-98352850D01*
X72379030Y-98330671D01*
X72370765Y-98307572D01*
X72364804Y-98283773D01*
X72361204Y-98259505D01*
X72360000Y-98235001D01*
X72360000Y-97384999D01*
X72361204Y-97360495D01*
X72364804Y-97336227D01*
X72370765Y-97312428D01*
X72379030Y-97289329D01*
X72389520Y-97267150D01*
X72402132Y-97246107D01*
X72416747Y-97226401D01*
X72433223Y-97208223D01*
X72451401Y-97191747D01*
X72471107Y-97177132D01*
X72492150Y-97164520D01*
X72514329Y-97154030D01*
X72537428Y-97145765D01*
X72561227Y-97139804D01*
X72585495Y-97136204D01*
X72609999Y-97135000D01*
X73510001Y-97135000D01*
X73534505Y-97136204D01*
X73534505Y-97136204D01*
G37*
D18*
X73060000Y-97810000D03*
G04 #@! TD*
D10*
G04 #@! TO.C,C3*
G36*
X70956958Y-88850710D02*
X70971276Y-88852834D01*
X70985317Y-88856351D01*
X70998946Y-88861228D01*
X71012031Y-88867417D01*
X71024447Y-88874858D01*
X71036073Y-88883481D01*
X71046798Y-88893202D01*
X71056519Y-88903927D01*
X71065142Y-88915553D01*
X71072583Y-88927969D01*
X71078772Y-88941054D01*
X71083649Y-88954683D01*
X71087166Y-88968724D01*
X71089290Y-88983042D01*
X71090000Y-88997500D01*
X71090000Y-89292500D01*
X71089290Y-89306958D01*
X71087166Y-89321276D01*
X71083649Y-89335317D01*
X71078772Y-89348946D01*
X71072583Y-89362031D01*
X71065142Y-89374447D01*
X71056519Y-89386073D01*
X71046798Y-89396798D01*
X71036073Y-89406519D01*
X71024447Y-89415142D01*
X71012031Y-89422583D01*
X70998946Y-89428772D01*
X70985317Y-89433649D01*
X70971276Y-89437166D01*
X70956958Y-89439290D01*
X70942500Y-89440000D01*
X70597500Y-89440000D01*
X70583042Y-89439290D01*
X70568724Y-89437166D01*
X70554683Y-89433649D01*
X70541054Y-89428772D01*
X70527969Y-89422583D01*
X70515553Y-89415142D01*
X70503927Y-89406519D01*
X70493202Y-89396798D01*
X70483481Y-89386073D01*
X70474858Y-89374447D01*
X70467417Y-89362031D01*
X70461228Y-89348946D01*
X70456351Y-89335317D01*
X70452834Y-89321276D01*
X70450710Y-89306958D01*
X70450000Y-89292500D01*
X70450000Y-88997500D01*
X70450710Y-88983042D01*
X70452834Y-88968724D01*
X70456351Y-88954683D01*
X70461228Y-88941054D01*
X70467417Y-88927969D01*
X70474858Y-88915553D01*
X70483481Y-88903927D01*
X70493202Y-88893202D01*
X70503927Y-88883481D01*
X70515553Y-88874858D01*
X70527969Y-88867417D01*
X70541054Y-88861228D01*
X70554683Y-88856351D01*
X70568724Y-88852834D01*
X70583042Y-88850710D01*
X70597500Y-88850000D01*
X70942500Y-88850000D01*
X70956958Y-88850710D01*
X70956958Y-88850710D01*
G37*
D11*
X70770000Y-89145000D03*
D10*
G36*
X70956958Y-89820710D02*
X70971276Y-89822834D01*
X70985317Y-89826351D01*
X70998946Y-89831228D01*
X71012031Y-89837417D01*
X71024447Y-89844858D01*
X71036073Y-89853481D01*
X71046798Y-89863202D01*
X71056519Y-89873927D01*
X71065142Y-89885553D01*
X71072583Y-89897969D01*
X71078772Y-89911054D01*
X71083649Y-89924683D01*
X71087166Y-89938724D01*
X71089290Y-89953042D01*
X71090000Y-89967500D01*
X71090000Y-90262500D01*
X71089290Y-90276958D01*
X71087166Y-90291276D01*
X71083649Y-90305317D01*
X71078772Y-90318946D01*
X71072583Y-90332031D01*
X71065142Y-90344447D01*
X71056519Y-90356073D01*
X71046798Y-90366798D01*
X71036073Y-90376519D01*
X71024447Y-90385142D01*
X71012031Y-90392583D01*
X70998946Y-90398772D01*
X70985317Y-90403649D01*
X70971276Y-90407166D01*
X70956958Y-90409290D01*
X70942500Y-90410000D01*
X70597500Y-90410000D01*
X70583042Y-90409290D01*
X70568724Y-90407166D01*
X70554683Y-90403649D01*
X70541054Y-90398772D01*
X70527969Y-90392583D01*
X70515553Y-90385142D01*
X70503927Y-90376519D01*
X70493202Y-90366798D01*
X70483481Y-90356073D01*
X70474858Y-90344447D01*
X70467417Y-90332031D01*
X70461228Y-90318946D01*
X70456351Y-90305317D01*
X70452834Y-90291276D01*
X70450710Y-90276958D01*
X70450000Y-90262500D01*
X70450000Y-89967500D01*
X70450710Y-89953042D01*
X70452834Y-89938724D01*
X70456351Y-89924683D01*
X70461228Y-89911054D01*
X70467417Y-89897969D01*
X70474858Y-89885553D01*
X70483481Y-89873927D01*
X70493202Y-89863202D01*
X70503927Y-89853481D01*
X70515553Y-89844858D01*
X70527969Y-89837417D01*
X70541054Y-89831228D01*
X70554683Y-89826351D01*
X70568724Y-89822834D01*
X70583042Y-89820710D01*
X70597500Y-89820000D01*
X70942500Y-89820000D01*
X70956958Y-89820710D01*
X70956958Y-89820710D01*
G37*
D11*
X70770000Y-90115000D03*
G04 #@! TD*
D10*
G04 #@! TO.C,C4*
G36*
X77426958Y-88710710D02*
X77441276Y-88712834D01*
X77455317Y-88716351D01*
X77468946Y-88721228D01*
X77482031Y-88727417D01*
X77494447Y-88734858D01*
X77506073Y-88743481D01*
X77516798Y-88753202D01*
X77526519Y-88763927D01*
X77535142Y-88775553D01*
X77542583Y-88787969D01*
X77548772Y-88801054D01*
X77553649Y-88814683D01*
X77557166Y-88828724D01*
X77559290Y-88843042D01*
X77560000Y-88857500D01*
X77560000Y-89202500D01*
X77559290Y-89216958D01*
X77557166Y-89231276D01*
X77553649Y-89245317D01*
X77548772Y-89258946D01*
X77542583Y-89272031D01*
X77535142Y-89284447D01*
X77526519Y-89296073D01*
X77516798Y-89306798D01*
X77506073Y-89316519D01*
X77494447Y-89325142D01*
X77482031Y-89332583D01*
X77468946Y-89338772D01*
X77455317Y-89343649D01*
X77441276Y-89347166D01*
X77426958Y-89349290D01*
X77412500Y-89350000D01*
X77117500Y-89350000D01*
X77103042Y-89349290D01*
X77088724Y-89347166D01*
X77074683Y-89343649D01*
X77061054Y-89338772D01*
X77047969Y-89332583D01*
X77035553Y-89325142D01*
X77023927Y-89316519D01*
X77013202Y-89306798D01*
X77003481Y-89296073D01*
X76994858Y-89284447D01*
X76987417Y-89272031D01*
X76981228Y-89258946D01*
X76976351Y-89245317D01*
X76972834Y-89231276D01*
X76970710Y-89216958D01*
X76970000Y-89202500D01*
X76970000Y-88857500D01*
X76970710Y-88843042D01*
X76972834Y-88828724D01*
X76976351Y-88814683D01*
X76981228Y-88801054D01*
X76987417Y-88787969D01*
X76994858Y-88775553D01*
X77003481Y-88763927D01*
X77013202Y-88753202D01*
X77023927Y-88743481D01*
X77035553Y-88734858D01*
X77047969Y-88727417D01*
X77061054Y-88721228D01*
X77074683Y-88716351D01*
X77088724Y-88712834D01*
X77103042Y-88710710D01*
X77117500Y-88710000D01*
X77412500Y-88710000D01*
X77426958Y-88710710D01*
X77426958Y-88710710D01*
G37*
D11*
X77265000Y-89030000D03*
D10*
G36*
X76456958Y-88710710D02*
X76471276Y-88712834D01*
X76485317Y-88716351D01*
X76498946Y-88721228D01*
X76512031Y-88727417D01*
X76524447Y-88734858D01*
X76536073Y-88743481D01*
X76546798Y-88753202D01*
X76556519Y-88763927D01*
X76565142Y-88775553D01*
X76572583Y-88787969D01*
X76578772Y-88801054D01*
X76583649Y-88814683D01*
X76587166Y-88828724D01*
X76589290Y-88843042D01*
X76590000Y-88857500D01*
X76590000Y-89202500D01*
X76589290Y-89216958D01*
X76587166Y-89231276D01*
X76583649Y-89245317D01*
X76578772Y-89258946D01*
X76572583Y-89272031D01*
X76565142Y-89284447D01*
X76556519Y-89296073D01*
X76546798Y-89306798D01*
X76536073Y-89316519D01*
X76524447Y-89325142D01*
X76512031Y-89332583D01*
X76498946Y-89338772D01*
X76485317Y-89343649D01*
X76471276Y-89347166D01*
X76456958Y-89349290D01*
X76442500Y-89350000D01*
X76147500Y-89350000D01*
X76133042Y-89349290D01*
X76118724Y-89347166D01*
X76104683Y-89343649D01*
X76091054Y-89338772D01*
X76077969Y-89332583D01*
X76065553Y-89325142D01*
X76053927Y-89316519D01*
X76043202Y-89306798D01*
X76033481Y-89296073D01*
X76024858Y-89284447D01*
X76017417Y-89272031D01*
X76011228Y-89258946D01*
X76006351Y-89245317D01*
X76002834Y-89231276D01*
X76000710Y-89216958D01*
X76000000Y-89202500D01*
X76000000Y-88857500D01*
X76000710Y-88843042D01*
X76002834Y-88828724D01*
X76006351Y-88814683D01*
X76011228Y-88801054D01*
X76017417Y-88787969D01*
X76024858Y-88775553D01*
X76033481Y-88763927D01*
X76043202Y-88753202D01*
X76053927Y-88743481D01*
X76065553Y-88734858D01*
X76077969Y-88727417D01*
X76091054Y-88721228D01*
X76104683Y-88716351D01*
X76118724Y-88712834D01*
X76133042Y-88710710D01*
X76147500Y-88710000D01*
X76442500Y-88710000D01*
X76456958Y-88710710D01*
X76456958Y-88710710D01*
G37*
D11*
X76295000Y-89030000D03*
G04 #@! TD*
D10*
G04 #@! TO.C,C5*
G36*
X86806958Y-81450710D02*
X86821276Y-81452834D01*
X86835317Y-81456351D01*
X86848946Y-81461228D01*
X86862031Y-81467417D01*
X86874447Y-81474858D01*
X86886073Y-81483481D01*
X86896798Y-81493202D01*
X86906519Y-81503927D01*
X86915142Y-81515553D01*
X86922583Y-81527969D01*
X86928772Y-81541054D01*
X86933649Y-81554683D01*
X86937166Y-81568724D01*
X86939290Y-81583042D01*
X86940000Y-81597500D01*
X86940000Y-81942500D01*
X86939290Y-81956958D01*
X86937166Y-81971276D01*
X86933649Y-81985317D01*
X86928772Y-81998946D01*
X86922583Y-82012031D01*
X86915142Y-82024447D01*
X86906519Y-82036073D01*
X86896798Y-82046798D01*
X86886073Y-82056519D01*
X86874447Y-82065142D01*
X86862031Y-82072583D01*
X86848946Y-82078772D01*
X86835317Y-82083649D01*
X86821276Y-82087166D01*
X86806958Y-82089290D01*
X86792500Y-82090000D01*
X86497500Y-82090000D01*
X86483042Y-82089290D01*
X86468724Y-82087166D01*
X86454683Y-82083649D01*
X86441054Y-82078772D01*
X86427969Y-82072583D01*
X86415553Y-82065142D01*
X86403927Y-82056519D01*
X86393202Y-82046798D01*
X86383481Y-82036073D01*
X86374858Y-82024447D01*
X86367417Y-82012031D01*
X86361228Y-81998946D01*
X86356351Y-81985317D01*
X86352834Y-81971276D01*
X86350710Y-81956958D01*
X86350000Y-81942500D01*
X86350000Y-81597500D01*
X86350710Y-81583042D01*
X86352834Y-81568724D01*
X86356351Y-81554683D01*
X86361228Y-81541054D01*
X86367417Y-81527969D01*
X86374858Y-81515553D01*
X86383481Y-81503927D01*
X86393202Y-81493202D01*
X86403927Y-81483481D01*
X86415553Y-81474858D01*
X86427969Y-81467417D01*
X86441054Y-81461228D01*
X86454683Y-81456351D01*
X86468724Y-81452834D01*
X86483042Y-81450710D01*
X86497500Y-81450000D01*
X86792500Y-81450000D01*
X86806958Y-81450710D01*
X86806958Y-81450710D01*
G37*
D11*
X86645000Y-81770000D03*
D10*
G36*
X87776958Y-81450710D02*
X87791276Y-81452834D01*
X87805317Y-81456351D01*
X87818946Y-81461228D01*
X87832031Y-81467417D01*
X87844447Y-81474858D01*
X87856073Y-81483481D01*
X87866798Y-81493202D01*
X87876519Y-81503927D01*
X87885142Y-81515553D01*
X87892583Y-81527969D01*
X87898772Y-81541054D01*
X87903649Y-81554683D01*
X87907166Y-81568724D01*
X87909290Y-81583042D01*
X87910000Y-81597500D01*
X87910000Y-81942500D01*
X87909290Y-81956958D01*
X87907166Y-81971276D01*
X87903649Y-81985317D01*
X87898772Y-81998946D01*
X87892583Y-82012031D01*
X87885142Y-82024447D01*
X87876519Y-82036073D01*
X87866798Y-82046798D01*
X87856073Y-82056519D01*
X87844447Y-82065142D01*
X87832031Y-82072583D01*
X87818946Y-82078772D01*
X87805317Y-82083649D01*
X87791276Y-82087166D01*
X87776958Y-82089290D01*
X87762500Y-82090000D01*
X87467500Y-82090000D01*
X87453042Y-82089290D01*
X87438724Y-82087166D01*
X87424683Y-82083649D01*
X87411054Y-82078772D01*
X87397969Y-82072583D01*
X87385553Y-82065142D01*
X87373927Y-82056519D01*
X87363202Y-82046798D01*
X87353481Y-82036073D01*
X87344858Y-82024447D01*
X87337417Y-82012031D01*
X87331228Y-81998946D01*
X87326351Y-81985317D01*
X87322834Y-81971276D01*
X87320710Y-81956958D01*
X87320000Y-81942500D01*
X87320000Y-81597500D01*
X87320710Y-81583042D01*
X87322834Y-81568724D01*
X87326351Y-81554683D01*
X87331228Y-81541054D01*
X87337417Y-81527969D01*
X87344858Y-81515553D01*
X87353481Y-81503927D01*
X87363202Y-81493202D01*
X87373927Y-81483481D01*
X87385553Y-81474858D01*
X87397969Y-81467417D01*
X87411054Y-81461228D01*
X87424683Y-81456351D01*
X87438724Y-81452834D01*
X87453042Y-81450710D01*
X87467500Y-81450000D01*
X87762500Y-81450000D01*
X87776958Y-81450710D01*
X87776958Y-81450710D01*
G37*
D11*
X87615000Y-81770000D03*
G04 #@! TD*
D10*
G04 #@! TO.C,C6*
G36*
X83526958Y-83550710D02*
X83541276Y-83552834D01*
X83555317Y-83556351D01*
X83568946Y-83561228D01*
X83582031Y-83567417D01*
X83594447Y-83574858D01*
X83606073Y-83583481D01*
X83616798Y-83593202D01*
X83626519Y-83603927D01*
X83635142Y-83615553D01*
X83642583Y-83627969D01*
X83648772Y-83641054D01*
X83653649Y-83654683D01*
X83657166Y-83668724D01*
X83659290Y-83683042D01*
X83660000Y-83697500D01*
X83660000Y-83992500D01*
X83659290Y-84006958D01*
X83657166Y-84021276D01*
X83653649Y-84035317D01*
X83648772Y-84048946D01*
X83642583Y-84062031D01*
X83635142Y-84074447D01*
X83626519Y-84086073D01*
X83616798Y-84096798D01*
X83606073Y-84106519D01*
X83594447Y-84115142D01*
X83582031Y-84122583D01*
X83568946Y-84128772D01*
X83555317Y-84133649D01*
X83541276Y-84137166D01*
X83526958Y-84139290D01*
X83512500Y-84140000D01*
X83167500Y-84140000D01*
X83153042Y-84139290D01*
X83138724Y-84137166D01*
X83124683Y-84133649D01*
X83111054Y-84128772D01*
X83097969Y-84122583D01*
X83085553Y-84115142D01*
X83073927Y-84106519D01*
X83063202Y-84096798D01*
X83053481Y-84086073D01*
X83044858Y-84074447D01*
X83037417Y-84062031D01*
X83031228Y-84048946D01*
X83026351Y-84035317D01*
X83022834Y-84021276D01*
X83020710Y-84006958D01*
X83020000Y-83992500D01*
X83020000Y-83697500D01*
X83020710Y-83683042D01*
X83022834Y-83668724D01*
X83026351Y-83654683D01*
X83031228Y-83641054D01*
X83037417Y-83627969D01*
X83044858Y-83615553D01*
X83053481Y-83603927D01*
X83063202Y-83593202D01*
X83073927Y-83583481D01*
X83085553Y-83574858D01*
X83097969Y-83567417D01*
X83111054Y-83561228D01*
X83124683Y-83556351D01*
X83138724Y-83552834D01*
X83153042Y-83550710D01*
X83167500Y-83550000D01*
X83512500Y-83550000D01*
X83526958Y-83550710D01*
X83526958Y-83550710D01*
G37*
D11*
X83340000Y-83845000D03*
D10*
G36*
X83526958Y-84520710D02*
X83541276Y-84522834D01*
X83555317Y-84526351D01*
X83568946Y-84531228D01*
X83582031Y-84537417D01*
X83594447Y-84544858D01*
X83606073Y-84553481D01*
X83616798Y-84563202D01*
X83626519Y-84573927D01*
X83635142Y-84585553D01*
X83642583Y-84597969D01*
X83648772Y-84611054D01*
X83653649Y-84624683D01*
X83657166Y-84638724D01*
X83659290Y-84653042D01*
X83660000Y-84667500D01*
X83660000Y-84962500D01*
X83659290Y-84976958D01*
X83657166Y-84991276D01*
X83653649Y-85005317D01*
X83648772Y-85018946D01*
X83642583Y-85032031D01*
X83635142Y-85044447D01*
X83626519Y-85056073D01*
X83616798Y-85066798D01*
X83606073Y-85076519D01*
X83594447Y-85085142D01*
X83582031Y-85092583D01*
X83568946Y-85098772D01*
X83555317Y-85103649D01*
X83541276Y-85107166D01*
X83526958Y-85109290D01*
X83512500Y-85110000D01*
X83167500Y-85110000D01*
X83153042Y-85109290D01*
X83138724Y-85107166D01*
X83124683Y-85103649D01*
X83111054Y-85098772D01*
X83097969Y-85092583D01*
X83085553Y-85085142D01*
X83073927Y-85076519D01*
X83063202Y-85066798D01*
X83053481Y-85056073D01*
X83044858Y-85044447D01*
X83037417Y-85032031D01*
X83031228Y-85018946D01*
X83026351Y-85005317D01*
X83022834Y-84991276D01*
X83020710Y-84976958D01*
X83020000Y-84962500D01*
X83020000Y-84667500D01*
X83020710Y-84653042D01*
X83022834Y-84638724D01*
X83026351Y-84624683D01*
X83031228Y-84611054D01*
X83037417Y-84597969D01*
X83044858Y-84585553D01*
X83053481Y-84573927D01*
X83063202Y-84563202D01*
X83073927Y-84553481D01*
X83085553Y-84544858D01*
X83097969Y-84537417D01*
X83111054Y-84531228D01*
X83124683Y-84526351D01*
X83138724Y-84522834D01*
X83153042Y-84520710D01*
X83167500Y-84520000D01*
X83512500Y-84520000D01*
X83526958Y-84520710D01*
X83526958Y-84520710D01*
G37*
D11*
X83340000Y-84815000D03*
G04 #@! TD*
D10*
G04 #@! TO.C,C7*
G36*
X61596958Y-78690710D02*
X61611276Y-78692834D01*
X61625317Y-78696351D01*
X61638946Y-78701228D01*
X61652031Y-78707417D01*
X61664447Y-78714858D01*
X61676073Y-78723481D01*
X61686798Y-78733202D01*
X61696519Y-78743927D01*
X61705142Y-78755553D01*
X61712583Y-78767969D01*
X61718772Y-78781054D01*
X61723649Y-78794683D01*
X61727166Y-78808724D01*
X61729290Y-78823042D01*
X61730000Y-78837500D01*
X61730000Y-79182500D01*
X61729290Y-79196958D01*
X61727166Y-79211276D01*
X61723649Y-79225317D01*
X61718772Y-79238946D01*
X61712583Y-79252031D01*
X61705142Y-79264447D01*
X61696519Y-79276073D01*
X61686798Y-79286798D01*
X61676073Y-79296519D01*
X61664447Y-79305142D01*
X61652031Y-79312583D01*
X61638946Y-79318772D01*
X61625317Y-79323649D01*
X61611276Y-79327166D01*
X61596958Y-79329290D01*
X61582500Y-79330000D01*
X61287500Y-79330000D01*
X61273042Y-79329290D01*
X61258724Y-79327166D01*
X61244683Y-79323649D01*
X61231054Y-79318772D01*
X61217969Y-79312583D01*
X61205553Y-79305142D01*
X61193927Y-79296519D01*
X61183202Y-79286798D01*
X61173481Y-79276073D01*
X61164858Y-79264447D01*
X61157417Y-79252031D01*
X61151228Y-79238946D01*
X61146351Y-79225317D01*
X61142834Y-79211276D01*
X61140710Y-79196958D01*
X61140000Y-79182500D01*
X61140000Y-78837500D01*
X61140710Y-78823042D01*
X61142834Y-78808724D01*
X61146351Y-78794683D01*
X61151228Y-78781054D01*
X61157417Y-78767969D01*
X61164858Y-78755553D01*
X61173481Y-78743927D01*
X61183202Y-78733202D01*
X61193927Y-78723481D01*
X61205553Y-78714858D01*
X61217969Y-78707417D01*
X61231054Y-78701228D01*
X61244683Y-78696351D01*
X61258724Y-78692834D01*
X61273042Y-78690710D01*
X61287500Y-78690000D01*
X61582500Y-78690000D01*
X61596958Y-78690710D01*
X61596958Y-78690710D01*
G37*
D11*
X61435000Y-79010000D03*
D10*
G36*
X62566958Y-78690710D02*
X62581276Y-78692834D01*
X62595317Y-78696351D01*
X62608946Y-78701228D01*
X62622031Y-78707417D01*
X62634447Y-78714858D01*
X62646073Y-78723481D01*
X62656798Y-78733202D01*
X62666519Y-78743927D01*
X62675142Y-78755553D01*
X62682583Y-78767969D01*
X62688772Y-78781054D01*
X62693649Y-78794683D01*
X62697166Y-78808724D01*
X62699290Y-78823042D01*
X62700000Y-78837500D01*
X62700000Y-79182500D01*
X62699290Y-79196958D01*
X62697166Y-79211276D01*
X62693649Y-79225317D01*
X62688772Y-79238946D01*
X62682583Y-79252031D01*
X62675142Y-79264447D01*
X62666519Y-79276073D01*
X62656798Y-79286798D01*
X62646073Y-79296519D01*
X62634447Y-79305142D01*
X62622031Y-79312583D01*
X62608946Y-79318772D01*
X62595317Y-79323649D01*
X62581276Y-79327166D01*
X62566958Y-79329290D01*
X62552500Y-79330000D01*
X62257500Y-79330000D01*
X62243042Y-79329290D01*
X62228724Y-79327166D01*
X62214683Y-79323649D01*
X62201054Y-79318772D01*
X62187969Y-79312583D01*
X62175553Y-79305142D01*
X62163927Y-79296519D01*
X62153202Y-79286798D01*
X62143481Y-79276073D01*
X62134858Y-79264447D01*
X62127417Y-79252031D01*
X62121228Y-79238946D01*
X62116351Y-79225317D01*
X62112834Y-79211276D01*
X62110710Y-79196958D01*
X62110000Y-79182500D01*
X62110000Y-78837500D01*
X62110710Y-78823042D01*
X62112834Y-78808724D01*
X62116351Y-78794683D01*
X62121228Y-78781054D01*
X62127417Y-78767969D01*
X62134858Y-78755553D01*
X62143481Y-78743927D01*
X62153202Y-78733202D01*
X62163927Y-78723481D01*
X62175553Y-78714858D01*
X62187969Y-78707417D01*
X62201054Y-78701228D01*
X62214683Y-78696351D01*
X62228724Y-78692834D01*
X62243042Y-78690710D01*
X62257500Y-78690000D01*
X62552500Y-78690000D01*
X62566958Y-78690710D01*
X62566958Y-78690710D01*
G37*
D11*
X62405000Y-79010000D03*
G04 #@! TD*
D10*
G04 #@! TO.C,C8*
G36*
X82446958Y-84520710D02*
X82461276Y-84522834D01*
X82475317Y-84526351D01*
X82488946Y-84531228D01*
X82502031Y-84537417D01*
X82514447Y-84544858D01*
X82526073Y-84553481D01*
X82536798Y-84563202D01*
X82546519Y-84573927D01*
X82555142Y-84585553D01*
X82562583Y-84597969D01*
X82568772Y-84611054D01*
X82573649Y-84624683D01*
X82577166Y-84638724D01*
X82579290Y-84653042D01*
X82580000Y-84667500D01*
X82580000Y-84962500D01*
X82579290Y-84976958D01*
X82577166Y-84991276D01*
X82573649Y-85005317D01*
X82568772Y-85018946D01*
X82562583Y-85032031D01*
X82555142Y-85044447D01*
X82546519Y-85056073D01*
X82536798Y-85066798D01*
X82526073Y-85076519D01*
X82514447Y-85085142D01*
X82502031Y-85092583D01*
X82488946Y-85098772D01*
X82475317Y-85103649D01*
X82461276Y-85107166D01*
X82446958Y-85109290D01*
X82432500Y-85110000D01*
X82087500Y-85110000D01*
X82073042Y-85109290D01*
X82058724Y-85107166D01*
X82044683Y-85103649D01*
X82031054Y-85098772D01*
X82017969Y-85092583D01*
X82005553Y-85085142D01*
X81993927Y-85076519D01*
X81983202Y-85066798D01*
X81973481Y-85056073D01*
X81964858Y-85044447D01*
X81957417Y-85032031D01*
X81951228Y-85018946D01*
X81946351Y-85005317D01*
X81942834Y-84991276D01*
X81940710Y-84976958D01*
X81940000Y-84962500D01*
X81940000Y-84667500D01*
X81940710Y-84653042D01*
X81942834Y-84638724D01*
X81946351Y-84624683D01*
X81951228Y-84611054D01*
X81957417Y-84597969D01*
X81964858Y-84585553D01*
X81973481Y-84573927D01*
X81983202Y-84563202D01*
X81993927Y-84553481D01*
X82005553Y-84544858D01*
X82017969Y-84537417D01*
X82031054Y-84531228D01*
X82044683Y-84526351D01*
X82058724Y-84522834D01*
X82073042Y-84520710D01*
X82087500Y-84520000D01*
X82432500Y-84520000D01*
X82446958Y-84520710D01*
X82446958Y-84520710D01*
G37*
D11*
X82260000Y-84815000D03*
D10*
G36*
X82446958Y-83550710D02*
X82461276Y-83552834D01*
X82475317Y-83556351D01*
X82488946Y-83561228D01*
X82502031Y-83567417D01*
X82514447Y-83574858D01*
X82526073Y-83583481D01*
X82536798Y-83593202D01*
X82546519Y-83603927D01*
X82555142Y-83615553D01*
X82562583Y-83627969D01*
X82568772Y-83641054D01*
X82573649Y-83654683D01*
X82577166Y-83668724D01*
X82579290Y-83683042D01*
X82580000Y-83697500D01*
X82580000Y-83992500D01*
X82579290Y-84006958D01*
X82577166Y-84021276D01*
X82573649Y-84035317D01*
X82568772Y-84048946D01*
X82562583Y-84062031D01*
X82555142Y-84074447D01*
X82546519Y-84086073D01*
X82536798Y-84096798D01*
X82526073Y-84106519D01*
X82514447Y-84115142D01*
X82502031Y-84122583D01*
X82488946Y-84128772D01*
X82475317Y-84133649D01*
X82461276Y-84137166D01*
X82446958Y-84139290D01*
X82432500Y-84140000D01*
X82087500Y-84140000D01*
X82073042Y-84139290D01*
X82058724Y-84137166D01*
X82044683Y-84133649D01*
X82031054Y-84128772D01*
X82017969Y-84122583D01*
X82005553Y-84115142D01*
X81993927Y-84106519D01*
X81983202Y-84096798D01*
X81973481Y-84086073D01*
X81964858Y-84074447D01*
X81957417Y-84062031D01*
X81951228Y-84048946D01*
X81946351Y-84035317D01*
X81942834Y-84021276D01*
X81940710Y-84006958D01*
X81940000Y-83992500D01*
X81940000Y-83697500D01*
X81940710Y-83683042D01*
X81942834Y-83668724D01*
X81946351Y-83654683D01*
X81951228Y-83641054D01*
X81957417Y-83627969D01*
X81964858Y-83615553D01*
X81973481Y-83603927D01*
X81983202Y-83593202D01*
X81993927Y-83583481D01*
X82005553Y-83574858D01*
X82017969Y-83567417D01*
X82031054Y-83561228D01*
X82044683Y-83556351D01*
X82058724Y-83552834D01*
X82073042Y-83550710D01*
X82087500Y-83550000D01*
X82432500Y-83550000D01*
X82446958Y-83550710D01*
X82446958Y-83550710D01*
G37*
D11*
X82260000Y-83845000D03*
G04 #@! TD*
D10*
G04 #@! TO.C,C9*
G36*
X79646958Y-87880710D02*
X79661276Y-87882834D01*
X79675317Y-87886351D01*
X79688946Y-87891228D01*
X79702031Y-87897417D01*
X79714447Y-87904858D01*
X79726073Y-87913481D01*
X79736798Y-87923202D01*
X79746519Y-87933927D01*
X79755142Y-87945553D01*
X79762583Y-87957969D01*
X79768772Y-87971054D01*
X79773649Y-87984683D01*
X79777166Y-87998724D01*
X79779290Y-88013042D01*
X79780000Y-88027500D01*
X79780000Y-88322500D01*
X79779290Y-88336958D01*
X79777166Y-88351276D01*
X79773649Y-88365317D01*
X79768772Y-88378946D01*
X79762583Y-88392031D01*
X79755142Y-88404447D01*
X79746519Y-88416073D01*
X79736798Y-88426798D01*
X79726073Y-88436519D01*
X79714447Y-88445142D01*
X79702031Y-88452583D01*
X79688946Y-88458772D01*
X79675317Y-88463649D01*
X79661276Y-88467166D01*
X79646958Y-88469290D01*
X79632500Y-88470000D01*
X79287500Y-88470000D01*
X79273042Y-88469290D01*
X79258724Y-88467166D01*
X79244683Y-88463649D01*
X79231054Y-88458772D01*
X79217969Y-88452583D01*
X79205553Y-88445142D01*
X79193927Y-88436519D01*
X79183202Y-88426798D01*
X79173481Y-88416073D01*
X79164858Y-88404447D01*
X79157417Y-88392031D01*
X79151228Y-88378946D01*
X79146351Y-88365317D01*
X79142834Y-88351276D01*
X79140710Y-88336958D01*
X79140000Y-88322500D01*
X79140000Y-88027500D01*
X79140710Y-88013042D01*
X79142834Y-87998724D01*
X79146351Y-87984683D01*
X79151228Y-87971054D01*
X79157417Y-87957969D01*
X79164858Y-87945553D01*
X79173481Y-87933927D01*
X79183202Y-87923202D01*
X79193927Y-87913481D01*
X79205553Y-87904858D01*
X79217969Y-87897417D01*
X79231054Y-87891228D01*
X79244683Y-87886351D01*
X79258724Y-87882834D01*
X79273042Y-87880710D01*
X79287500Y-87880000D01*
X79632500Y-87880000D01*
X79646958Y-87880710D01*
X79646958Y-87880710D01*
G37*
D11*
X79460000Y-88175000D03*
D10*
G36*
X79646958Y-86910710D02*
X79661276Y-86912834D01*
X79675317Y-86916351D01*
X79688946Y-86921228D01*
X79702031Y-86927417D01*
X79714447Y-86934858D01*
X79726073Y-86943481D01*
X79736798Y-86953202D01*
X79746519Y-86963927D01*
X79755142Y-86975553D01*
X79762583Y-86987969D01*
X79768772Y-87001054D01*
X79773649Y-87014683D01*
X79777166Y-87028724D01*
X79779290Y-87043042D01*
X79780000Y-87057500D01*
X79780000Y-87352500D01*
X79779290Y-87366958D01*
X79777166Y-87381276D01*
X79773649Y-87395317D01*
X79768772Y-87408946D01*
X79762583Y-87422031D01*
X79755142Y-87434447D01*
X79746519Y-87446073D01*
X79736798Y-87456798D01*
X79726073Y-87466519D01*
X79714447Y-87475142D01*
X79702031Y-87482583D01*
X79688946Y-87488772D01*
X79675317Y-87493649D01*
X79661276Y-87497166D01*
X79646958Y-87499290D01*
X79632500Y-87500000D01*
X79287500Y-87500000D01*
X79273042Y-87499290D01*
X79258724Y-87497166D01*
X79244683Y-87493649D01*
X79231054Y-87488772D01*
X79217969Y-87482583D01*
X79205553Y-87475142D01*
X79193927Y-87466519D01*
X79183202Y-87456798D01*
X79173481Y-87446073D01*
X79164858Y-87434447D01*
X79157417Y-87422031D01*
X79151228Y-87408946D01*
X79146351Y-87395317D01*
X79142834Y-87381276D01*
X79140710Y-87366958D01*
X79140000Y-87352500D01*
X79140000Y-87057500D01*
X79140710Y-87043042D01*
X79142834Y-87028724D01*
X79146351Y-87014683D01*
X79151228Y-87001054D01*
X79157417Y-86987969D01*
X79164858Y-86975553D01*
X79173481Y-86963927D01*
X79183202Y-86953202D01*
X79193927Y-86943481D01*
X79205553Y-86934858D01*
X79217969Y-86927417D01*
X79231054Y-86921228D01*
X79244683Y-86916351D01*
X79258724Y-86912834D01*
X79273042Y-86910710D01*
X79287500Y-86910000D01*
X79632500Y-86910000D01*
X79646958Y-86910710D01*
X79646958Y-86910710D01*
G37*
D11*
X79460000Y-87205000D03*
G04 #@! TD*
D10*
G04 #@! TO.C,C10*
G36*
X80736958Y-87870710D02*
X80751276Y-87872834D01*
X80765317Y-87876351D01*
X80778946Y-87881228D01*
X80792031Y-87887417D01*
X80804447Y-87894858D01*
X80816073Y-87903481D01*
X80826798Y-87913202D01*
X80836519Y-87923927D01*
X80845142Y-87935553D01*
X80852583Y-87947969D01*
X80858772Y-87961054D01*
X80863649Y-87974683D01*
X80867166Y-87988724D01*
X80869290Y-88003042D01*
X80870000Y-88017500D01*
X80870000Y-88312500D01*
X80869290Y-88326958D01*
X80867166Y-88341276D01*
X80863649Y-88355317D01*
X80858772Y-88368946D01*
X80852583Y-88382031D01*
X80845142Y-88394447D01*
X80836519Y-88406073D01*
X80826798Y-88416798D01*
X80816073Y-88426519D01*
X80804447Y-88435142D01*
X80792031Y-88442583D01*
X80778946Y-88448772D01*
X80765317Y-88453649D01*
X80751276Y-88457166D01*
X80736958Y-88459290D01*
X80722500Y-88460000D01*
X80377500Y-88460000D01*
X80363042Y-88459290D01*
X80348724Y-88457166D01*
X80334683Y-88453649D01*
X80321054Y-88448772D01*
X80307969Y-88442583D01*
X80295553Y-88435142D01*
X80283927Y-88426519D01*
X80273202Y-88416798D01*
X80263481Y-88406073D01*
X80254858Y-88394447D01*
X80247417Y-88382031D01*
X80241228Y-88368946D01*
X80236351Y-88355317D01*
X80232834Y-88341276D01*
X80230710Y-88326958D01*
X80230000Y-88312500D01*
X80230000Y-88017500D01*
X80230710Y-88003042D01*
X80232834Y-87988724D01*
X80236351Y-87974683D01*
X80241228Y-87961054D01*
X80247417Y-87947969D01*
X80254858Y-87935553D01*
X80263481Y-87923927D01*
X80273202Y-87913202D01*
X80283927Y-87903481D01*
X80295553Y-87894858D01*
X80307969Y-87887417D01*
X80321054Y-87881228D01*
X80334683Y-87876351D01*
X80348724Y-87872834D01*
X80363042Y-87870710D01*
X80377500Y-87870000D01*
X80722500Y-87870000D01*
X80736958Y-87870710D01*
X80736958Y-87870710D01*
G37*
D11*
X80550000Y-88165000D03*
D10*
G36*
X80736958Y-86900710D02*
X80751276Y-86902834D01*
X80765317Y-86906351D01*
X80778946Y-86911228D01*
X80792031Y-86917417D01*
X80804447Y-86924858D01*
X80816073Y-86933481D01*
X80826798Y-86943202D01*
X80836519Y-86953927D01*
X80845142Y-86965553D01*
X80852583Y-86977969D01*
X80858772Y-86991054D01*
X80863649Y-87004683D01*
X80867166Y-87018724D01*
X80869290Y-87033042D01*
X80870000Y-87047500D01*
X80870000Y-87342500D01*
X80869290Y-87356958D01*
X80867166Y-87371276D01*
X80863649Y-87385317D01*
X80858772Y-87398946D01*
X80852583Y-87412031D01*
X80845142Y-87424447D01*
X80836519Y-87436073D01*
X80826798Y-87446798D01*
X80816073Y-87456519D01*
X80804447Y-87465142D01*
X80792031Y-87472583D01*
X80778946Y-87478772D01*
X80765317Y-87483649D01*
X80751276Y-87487166D01*
X80736958Y-87489290D01*
X80722500Y-87490000D01*
X80377500Y-87490000D01*
X80363042Y-87489290D01*
X80348724Y-87487166D01*
X80334683Y-87483649D01*
X80321054Y-87478772D01*
X80307969Y-87472583D01*
X80295553Y-87465142D01*
X80283927Y-87456519D01*
X80273202Y-87446798D01*
X80263481Y-87436073D01*
X80254858Y-87424447D01*
X80247417Y-87412031D01*
X80241228Y-87398946D01*
X80236351Y-87385317D01*
X80232834Y-87371276D01*
X80230710Y-87356958D01*
X80230000Y-87342500D01*
X80230000Y-87047500D01*
X80230710Y-87033042D01*
X80232834Y-87018724D01*
X80236351Y-87004683D01*
X80241228Y-86991054D01*
X80247417Y-86977969D01*
X80254858Y-86965553D01*
X80263481Y-86953927D01*
X80273202Y-86943202D01*
X80283927Y-86933481D01*
X80295553Y-86924858D01*
X80307969Y-86917417D01*
X80321054Y-86911228D01*
X80334683Y-86906351D01*
X80348724Y-86902834D01*
X80363042Y-86900710D01*
X80377500Y-86900000D01*
X80722500Y-86900000D01*
X80736958Y-86900710D01*
X80736958Y-86900710D01*
G37*
D11*
X80550000Y-87195000D03*
G04 #@! TD*
D10*
G04 #@! TO.C,C11*
G36*
X79776958Y-90230710D02*
X79791276Y-90232834D01*
X79805317Y-90236351D01*
X79818946Y-90241228D01*
X79832031Y-90247417D01*
X79844447Y-90254858D01*
X79856073Y-90263481D01*
X79866798Y-90273202D01*
X79876519Y-90283927D01*
X79885142Y-90295553D01*
X79892583Y-90307969D01*
X79898772Y-90321054D01*
X79903649Y-90334683D01*
X79907166Y-90348724D01*
X79909290Y-90363042D01*
X79910000Y-90377500D01*
X79910000Y-90672500D01*
X79909290Y-90686958D01*
X79907166Y-90701276D01*
X79903649Y-90715317D01*
X79898772Y-90728946D01*
X79892583Y-90742031D01*
X79885142Y-90754447D01*
X79876519Y-90766073D01*
X79866798Y-90776798D01*
X79856073Y-90786519D01*
X79844447Y-90795142D01*
X79832031Y-90802583D01*
X79818946Y-90808772D01*
X79805317Y-90813649D01*
X79791276Y-90817166D01*
X79776958Y-90819290D01*
X79762500Y-90820000D01*
X79417500Y-90820000D01*
X79403042Y-90819290D01*
X79388724Y-90817166D01*
X79374683Y-90813649D01*
X79361054Y-90808772D01*
X79347969Y-90802583D01*
X79335553Y-90795142D01*
X79323927Y-90786519D01*
X79313202Y-90776798D01*
X79303481Y-90766073D01*
X79294858Y-90754447D01*
X79287417Y-90742031D01*
X79281228Y-90728946D01*
X79276351Y-90715317D01*
X79272834Y-90701276D01*
X79270710Y-90686958D01*
X79270000Y-90672500D01*
X79270000Y-90377500D01*
X79270710Y-90363042D01*
X79272834Y-90348724D01*
X79276351Y-90334683D01*
X79281228Y-90321054D01*
X79287417Y-90307969D01*
X79294858Y-90295553D01*
X79303481Y-90283927D01*
X79313202Y-90273202D01*
X79323927Y-90263481D01*
X79335553Y-90254858D01*
X79347969Y-90247417D01*
X79361054Y-90241228D01*
X79374683Y-90236351D01*
X79388724Y-90232834D01*
X79403042Y-90230710D01*
X79417500Y-90230000D01*
X79762500Y-90230000D01*
X79776958Y-90230710D01*
X79776958Y-90230710D01*
G37*
D11*
X79590000Y-90525000D03*
D10*
G36*
X79776958Y-91200710D02*
X79791276Y-91202834D01*
X79805317Y-91206351D01*
X79818946Y-91211228D01*
X79832031Y-91217417D01*
X79844447Y-91224858D01*
X79856073Y-91233481D01*
X79866798Y-91243202D01*
X79876519Y-91253927D01*
X79885142Y-91265553D01*
X79892583Y-91277969D01*
X79898772Y-91291054D01*
X79903649Y-91304683D01*
X79907166Y-91318724D01*
X79909290Y-91333042D01*
X79910000Y-91347500D01*
X79910000Y-91642500D01*
X79909290Y-91656958D01*
X79907166Y-91671276D01*
X79903649Y-91685317D01*
X79898772Y-91698946D01*
X79892583Y-91712031D01*
X79885142Y-91724447D01*
X79876519Y-91736073D01*
X79866798Y-91746798D01*
X79856073Y-91756519D01*
X79844447Y-91765142D01*
X79832031Y-91772583D01*
X79818946Y-91778772D01*
X79805317Y-91783649D01*
X79791276Y-91787166D01*
X79776958Y-91789290D01*
X79762500Y-91790000D01*
X79417500Y-91790000D01*
X79403042Y-91789290D01*
X79388724Y-91787166D01*
X79374683Y-91783649D01*
X79361054Y-91778772D01*
X79347969Y-91772583D01*
X79335553Y-91765142D01*
X79323927Y-91756519D01*
X79313202Y-91746798D01*
X79303481Y-91736073D01*
X79294858Y-91724447D01*
X79287417Y-91712031D01*
X79281228Y-91698946D01*
X79276351Y-91685317D01*
X79272834Y-91671276D01*
X79270710Y-91656958D01*
X79270000Y-91642500D01*
X79270000Y-91347500D01*
X79270710Y-91333042D01*
X79272834Y-91318724D01*
X79276351Y-91304683D01*
X79281228Y-91291054D01*
X79287417Y-91277969D01*
X79294858Y-91265553D01*
X79303481Y-91253927D01*
X79313202Y-91243202D01*
X79323927Y-91233481D01*
X79335553Y-91224858D01*
X79347969Y-91217417D01*
X79361054Y-91211228D01*
X79374683Y-91206351D01*
X79388724Y-91202834D01*
X79403042Y-91200710D01*
X79417500Y-91200000D01*
X79762500Y-91200000D01*
X79776958Y-91200710D01*
X79776958Y-91200710D01*
G37*
D11*
X79590000Y-91495000D03*
G04 #@! TD*
D10*
G04 #@! TO.C,C12*
G36*
X80866958Y-91220710D02*
X80881276Y-91222834D01*
X80895317Y-91226351D01*
X80908946Y-91231228D01*
X80922031Y-91237417D01*
X80934447Y-91244858D01*
X80946073Y-91253481D01*
X80956798Y-91263202D01*
X80966519Y-91273927D01*
X80975142Y-91285553D01*
X80982583Y-91297969D01*
X80988772Y-91311054D01*
X80993649Y-91324683D01*
X80997166Y-91338724D01*
X80999290Y-91353042D01*
X81000000Y-91367500D01*
X81000000Y-91662500D01*
X80999290Y-91676958D01*
X80997166Y-91691276D01*
X80993649Y-91705317D01*
X80988772Y-91718946D01*
X80982583Y-91732031D01*
X80975142Y-91744447D01*
X80966519Y-91756073D01*
X80956798Y-91766798D01*
X80946073Y-91776519D01*
X80934447Y-91785142D01*
X80922031Y-91792583D01*
X80908946Y-91798772D01*
X80895317Y-91803649D01*
X80881276Y-91807166D01*
X80866958Y-91809290D01*
X80852500Y-91810000D01*
X80507500Y-91810000D01*
X80493042Y-91809290D01*
X80478724Y-91807166D01*
X80464683Y-91803649D01*
X80451054Y-91798772D01*
X80437969Y-91792583D01*
X80425553Y-91785142D01*
X80413927Y-91776519D01*
X80403202Y-91766798D01*
X80393481Y-91756073D01*
X80384858Y-91744447D01*
X80377417Y-91732031D01*
X80371228Y-91718946D01*
X80366351Y-91705317D01*
X80362834Y-91691276D01*
X80360710Y-91676958D01*
X80360000Y-91662500D01*
X80360000Y-91367500D01*
X80360710Y-91353042D01*
X80362834Y-91338724D01*
X80366351Y-91324683D01*
X80371228Y-91311054D01*
X80377417Y-91297969D01*
X80384858Y-91285553D01*
X80393481Y-91273927D01*
X80403202Y-91263202D01*
X80413927Y-91253481D01*
X80425553Y-91244858D01*
X80437969Y-91237417D01*
X80451054Y-91231228D01*
X80464683Y-91226351D01*
X80478724Y-91222834D01*
X80493042Y-91220710D01*
X80507500Y-91220000D01*
X80852500Y-91220000D01*
X80866958Y-91220710D01*
X80866958Y-91220710D01*
G37*
D11*
X80680000Y-91515000D03*
D10*
G36*
X80866958Y-90250710D02*
X80881276Y-90252834D01*
X80895317Y-90256351D01*
X80908946Y-90261228D01*
X80922031Y-90267417D01*
X80934447Y-90274858D01*
X80946073Y-90283481D01*
X80956798Y-90293202D01*
X80966519Y-90303927D01*
X80975142Y-90315553D01*
X80982583Y-90327969D01*
X80988772Y-90341054D01*
X80993649Y-90354683D01*
X80997166Y-90368724D01*
X80999290Y-90383042D01*
X81000000Y-90397500D01*
X81000000Y-90692500D01*
X80999290Y-90706958D01*
X80997166Y-90721276D01*
X80993649Y-90735317D01*
X80988772Y-90748946D01*
X80982583Y-90762031D01*
X80975142Y-90774447D01*
X80966519Y-90786073D01*
X80956798Y-90796798D01*
X80946073Y-90806519D01*
X80934447Y-90815142D01*
X80922031Y-90822583D01*
X80908946Y-90828772D01*
X80895317Y-90833649D01*
X80881276Y-90837166D01*
X80866958Y-90839290D01*
X80852500Y-90840000D01*
X80507500Y-90840000D01*
X80493042Y-90839290D01*
X80478724Y-90837166D01*
X80464683Y-90833649D01*
X80451054Y-90828772D01*
X80437969Y-90822583D01*
X80425553Y-90815142D01*
X80413927Y-90806519D01*
X80403202Y-90796798D01*
X80393481Y-90786073D01*
X80384858Y-90774447D01*
X80377417Y-90762031D01*
X80371228Y-90748946D01*
X80366351Y-90735317D01*
X80362834Y-90721276D01*
X80360710Y-90706958D01*
X80360000Y-90692500D01*
X80360000Y-90397500D01*
X80360710Y-90383042D01*
X80362834Y-90368724D01*
X80366351Y-90354683D01*
X80371228Y-90341054D01*
X80377417Y-90327969D01*
X80384858Y-90315553D01*
X80393481Y-90303927D01*
X80403202Y-90293202D01*
X80413927Y-90283481D01*
X80425553Y-90274858D01*
X80437969Y-90267417D01*
X80451054Y-90261228D01*
X80464683Y-90256351D01*
X80478724Y-90252834D01*
X80493042Y-90250710D01*
X80507500Y-90250000D01*
X80852500Y-90250000D01*
X80866958Y-90250710D01*
X80866958Y-90250710D01*
G37*
D11*
X80680000Y-90545000D03*
G04 #@! TD*
D10*
G04 #@! TO.C,C14*
G36*
X83701958Y-92355710D02*
X83716276Y-92357834D01*
X83730317Y-92361351D01*
X83743946Y-92366228D01*
X83757031Y-92372417D01*
X83769447Y-92379858D01*
X83781073Y-92388481D01*
X83791798Y-92398202D01*
X83801519Y-92408927D01*
X83810142Y-92420553D01*
X83817583Y-92432969D01*
X83823772Y-92446054D01*
X83828649Y-92459683D01*
X83832166Y-92473724D01*
X83834290Y-92488042D01*
X83835000Y-92502500D01*
X83835000Y-92847500D01*
X83834290Y-92861958D01*
X83832166Y-92876276D01*
X83828649Y-92890317D01*
X83823772Y-92903946D01*
X83817583Y-92917031D01*
X83810142Y-92929447D01*
X83801519Y-92941073D01*
X83791798Y-92951798D01*
X83781073Y-92961519D01*
X83769447Y-92970142D01*
X83757031Y-92977583D01*
X83743946Y-92983772D01*
X83730317Y-92988649D01*
X83716276Y-92992166D01*
X83701958Y-92994290D01*
X83687500Y-92995000D01*
X83392500Y-92995000D01*
X83378042Y-92994290D01*
X83363724Y-92992166D01*
X83349683Y-92988649D01*
X83336054Y-92983772D01*
X83322969Y-92977583D01*
X83310553Y-92970142D01*
X83298927Y-92961519D01*
X83288202Y-92951798D01*
X83278481Y-92941073D01*
X83269858Y-92929447D01*
X83262417Y-92917031D01*
X83256228Y-92903946D01*
X83251351Y-92890317D01*
X83247834Y-92876276D01*
X83245710Y-92861958D01*
X83245000Y-92847500D01*
X83245000Y-92502500D01*
X83245710Y-92488042D01*
X83247834Y-92473724D01*
X83251351Y-92459683D01*
X83256228Y-92446054D01*
X83262417Y-92432969D01*
X83269858Y-92420553D01*
X83278481Y-92408927D01*
X83288202Y-92398202D01*
X83298927Y-92388481D01*
X83310553Y-92379858D01*
X83322969Y-92372417D01*
X83336054Y-92366228D01*
X83349683Y-92361351D01*
X83363724Y-92357834D01*
X83378042Y-92355710D01*
X83392500Y-92355000D01*
X83687500Y-92355000D01*
X83701958Y-92355710D01*
X83701958Y-92355710D01*
G37*
D11*
X83540000Y-92675000D03*
D10*
G36*
X84671958Y-92355710D02*
X84686276Y-92357834D01*
X84700317Y-92361351D01*
X84713946Y-92366228D01*
X84727031Y-92372417D01*
X84739447Y-92379858D01*
X84751073Y-92388481D01*
X84761798Y-92398202D01*
X84771519Y-92408927D01*
X84780142Y-92420553D01*
X84787583Y-92432969D01*
X84793772Y-92446054D01*
X84798649Y-92459683D01*
X84802166Y-92473724D01*
X84804290Y-92488042D01*
X84805000Y-92502500D01*
X84805000Y-92847500D01*
X84804290Y-92861958D01*
X84802166Y-92876276D01*
X84798649Y-92890317D01*
X84793772Y-92903946D01*
X84787583Y-92917031D01*
X84780142Y-92929447D01*
X84771519Y-92941073D01*
X84761798Y-92951798D01*
X84751073Y-92961519D01*
X84739447Y-92970142D01*
X84727031Y-92977583D01*
X84713946Y-92983772D01*
X84700317Y-92988649D01*
X84686276Y-92992166D01*
X84671958Y-92994290D01*
X84657500Y-92995000D01*
X84362500Y-92995000D01*
X84348042Y-92994290D01*
X84333724Y-92992166D01*
X84319683Y-92988649D01*
X84306054Y-92983772D01*
X84292969Y-92977583D01*
X84280553Y-92970142D01*
X84268927Y-92961519D01*
X84258202Y-92951798D01*
X84248481Y-92941073D01*
X84239858Y-92929447D01*
X84232417Y-92917031D01*
X84226228Y-92903946D01*
X84221351Y-92890317D01*
X84217834Y-92876276D01*
X84215710Y-92861958D01*
X84215000Y-92847500D01*
X84215000Y-92502500D01*
X84215710Y-92488042D01*
X84217834Y-92473724D01*
X84221351Y-92459683D01*
X84226228Y-92446054D01*
X84232417Y-92432969D01*
X84239858Y-92420553D01*
X84248481Y-92408927D01*
X84258202Y-92398202D01*
X84268927Y-92388481D01*
X84280553Y-92379858D01*
X84292969Y-92372417D01*
X84306054Y-92366228D01*
X84319683Y-92361351D01*
X84333724Y-92357834D01*
X84348042Y-92355710D01*
X84362500Y-92355000D01*
X84657500Y-92355000D01*
X84671958Y-92355710D01*
X84671958Y-92355710D01*
G37*
D11*
X84510000Y-92675000D03*
G04 #@! TD*
D10*
G04 #@! TO.C,C15*
G36*
X67786958Y-76790710D02*
X67801276Y-76792834D01*
X67815317Y-76796351D01*
X67828946Y-76801228D01*
X67842031Y-76807417D01*
X67854447Y-76814858D01*
X67866073Y-76823481D01*
X67876798Y-76833202D01*
X67886519Y-76843927D01*
X67895142Y-76855553D01*
X67902583Y-76867969D01*
X67908772Y-76881054D01*
X67913649Y-76894683D01*
X67917166Y-76908724D01*
X67919290Y-76923042D01*
X67920000Y-76937500D01*
X67920000Y-77232500D01*
X67919290Y-77246958D01*
X67917166Y-77261276D01*
X67913649Y-77275317D01*
X67908772Y-77288946D01*
X67902583Y-77302031D01*
X67895142Y-77314447D01*
X67886519Y-77326073D01*
X67876798Y-77336798D01*
X67866073Y-77346519D01*
X67854447Y-77355142D01*
X67842031Y-77362583D01*
X67828946Y-77368772D01*
X67815317Y-77373649D01*
X67801276Y-77377166D01*
X67786958Y-77379290D01*
X67772500Y-77380000D01*
X67427500Y-77380000D01*
X67413042Y-77379290D01*
X67398724Y-77377166D01*
X67384683Y-77373649D01*
X67371054Y-77368772D01*
X67357969Y-77362583D01*
X67345553Y-77355142D01*
X67333927Y-77346519D01*
X67323202Y-77336798D01*
X67313481Y-77326073D01*
X67304858Y-77314447D01*
X67297417Y-77302031D01*
X67291228Y-77288946D01*
X67286351Y-77275317D01*
X67282834Y-77261276D01*
X67280710Y-77246958D01*
X67280000Y-77232500D01*
X67280000Y-76937500D01*
X67280710Y-76923042D01*
X67282834Y-76908724D01*
X67286351Y-76894683D01*
X67291228Y-76881054D01*
X67297417Y-76867969D01*
X67304858Y-76855553D01*
X67313481Y-76843927D01*
X67323202Y-76833202D01*
X67333927Y-76823481D01*
X67345553Y-76814858D01*
X67357969Y-76807417D01*
X67371054Y-76801228D01*
X67384683Y-76796351D01*
X67398724Y-76792834D01*
X67413042Y-76790710D01*
X67427500Y-76790000D01*
X67772500Y-76790000D01*
X67786958Y-76790710D01*
X67786958Y-76790710D01*
G37*
D11*
X67600000Y-77085000D03*
D10*
G36*
X67786958Y-77760710D02*
X67801276Y-77762834D01*
X67815317Y-77766351D01*
X67828946Y-77771228D01*
X67842031Y-77777417D01*
X67854447Y-77784858D01*
X67866073Y-77793481D01*
X67876798Y-77803202D01*
X67886519Y-77813927D01*
X67895142Y-77825553D01*
X67902583Y-77837969D01*
X67908772Y-77851054D01*
X67913649Y-77864683D01*
X67917166Y-77878724D01*
X67919290Y-77893042D01*
X67920000Y-77907500D01*
X67920000Y-78202500D01*
X67919290Y-78216958D01*
X67917166Y-78231276D01*
X67913649Y-78245317D01*
X67908772Y-78258946D01*
X67902583Y-78272031D01*
X67895142Y-78284447D01*
X67886519Y-78296073D01*
X67876798Y-78306798D01*
X67866073Y-78316519D01*
X67854447Y-78325142D01*
X67842031Y-78332583D01*
X67828946Y-78338772D01*
X67815317Y-78343649D01*
X67801276Y-78347166D01*
X67786958Y-78349290D01*
X67772500Y-78350000D01*
X67427500Y-78350000D01*
X67413042Y-78349290D01*
X67398724Y-78347166D01*
X67384683Y-78343649D01*
X67371054Y-78338772D01*
X67357969Y-78332583D01*
X67345553Y-78325142D01*
X67333927Y-78316519D01*
X67323202Y-78306798D01*
X67313481Y-78296073D01*
X67304858Y-78284447D01*
X67297417Y-78272031D01*
X67291228Y-78258946D01*
X67286351Y-78245317D01*
X67282834Y-78231276D01*
X67280710Y-78216958D01*
X67280000Y-78202500D01*
X67280000Y-77907500D01*
X67280710Y-77893042D01*
X67282834Y-77878724D01*
X67286351Y-77864683D01*
X67291228Y-77851054D01*
X67297417Y-77837969D01*
X67304858Y-77825553D01*
X67313481Y-77813927D01*
X67323202Y-77803202D01*
X67333927Y-77793481D01*
X67345553Y-77784858D01*
X67357969Y-77777417D01*
X67371054Y-77771228D01*
X67384683Y-77766351D01*
X67398724Y-77762834D01*
X67413042Y-77760710D01*
X67427500Y-77760000D01*
X67772500Y-77760000D01*
X67786958Y-77760710D01*
X67786958Y-77760710D01*
G37*
D11*
X67600000Y-78055000D03*
G04 #@! TD*
D10*
G04 #@! TO.C,C17*
G36*
X88686958Y-89695710D02*
X88701276Y-89697834D01*
X88715317Y-89701351D01*
X88728946Y-89706228D01*
X88742031Y-89712417D01*
X88754447Y-89719858D01*
X88766073Y-89728481D01*
X88776798Y-89738202D01*
X88786519Y-89748927D01*
X88795142Y-89760553D01*
X88802583Y-89772969D01*
X88808772Y-89786054D01*
X88813649Y-89799683D01*
X88817166Y-89813724D01*
X88819290Y-89828042D01*
X88820000Y-89842500D01*
X88820000Y-90137500D01*
X88819290Y-90151958D01*
X88817166Y-90166276D01*
X88813649Y-90180317D01*
X88808772Y-90193946D01*
X88802583Y-90207031D01*
X88795142Y-90219447D01*
X88786519Y-90231073D01*
X88776798Y-90241798D01*
X88766073Y-90251519D01*
X88754447Y-90260142D01*
X88742031Y-90267583D01*
X88728946Y-90273772D01*
X88715317Y-90278649D01*
X88701276Y-90282166D01*
X88686958Y-90284290D01*
X88672500Y-90285000D01*
X88327500Y-90285000D01*
X88313042Y-90284290D01*
X88298724Y-90282166D01*
X88284683Y-90278649D01*
X88271054Y-90273772D01*
X88257969Y-90267583D01*
X88245553Y-90260142D01*
X88233927Y-90251519D01*
X88223202Y-90241798D01*
X88213481Y-90231073D01*
X88204858Y-90219447D01*
X88197417Y-90207031D01*
X88191228Y-90193946D01*
X88186351Y-90180317D01*
X88182834Y-90166276D01*
X88180710Y-90151958D01*
X88180000Y-90137500D01*
X88180000Y-89842500D01*
X88180710Y-89828042D01*
X88182834Y-89813724D01*
X88186351Y-89799683D01*
X88191228Y-89786054D01*
X88197417Y-89772969D01*
X88204858Y-89760553D01*
X88213481Y-89748927D01*
X88223202Y-89738202D01*
X88233927Y-89728481D01*
X88245553Y-89719858D01*
X88257969Y-89712417D01*
X88271054Y-89706228D01*
X88284683Y-89701351D01*
X88298724Y-89697834D01*
X88313042Y-89695710D01*
X88327500Y-89695000D01*
X88672500Y-89695000D01*
X88686958Y-89695710D01*
X88686958Y-89695710D01*
G37*
D11*
X88500000Y-89990000D03*
D10*
G36*
X88686958Y-90665710D02*
X88701276Y-90667834D01*
X88715317Y-90671351D01*
X88728946Y-90676228D01*
X88742031Y-90682417D01*
X88754447Y-90689858D01*
X88766073Y-90698481D01*
X88776798Y-90708202D01*
X88786519Y-90718927D01*
X88795142Y-90730553D01*
X88802583Y-90742969D01*
X88808772Y-90756054D01*
X88813649Y-90769683D01*
X88817166Y-90783724D01*
X88819290Y-90798042D01*
X88820000Y-90812500D01*
X88820000Y-91107500D01*
X88819290Y-91121958D01*
X88817166Y-91136276D01*
X88813649Y-91150317D01*
X88808772Y-91163946D01*
X88802583Y-91177031D01*
X88795142Y-91189447D01*
X88786519Y-91201073D01*
X88776798Y-91211798D01*
X88766073Y-91221519D01*
X88754447Y-91230142D01*
X88742031Y-91237583D01*
X88728946Y-91243772D01*
X88715317Y-91248649D01*
X88701276Y-91252166D01*
X88686958Y-91254290D01*
X88672500Y-91255000D01*
X88327500Y-91255000D01*
X88313042Y-91254290D01*
X88298724Y-91252166D01*
X88284683Y-91248649D01*
X88271054Y-91243772D01*
X88257969Y-91237583D01*
X88245553Y-91230142D01*
X88233927Y-91221519D01*
X88223202Y-91211798D01*
X88213481Y-91201073D01*
X88204858Y-91189447D01*
X88197417Y-91177031D01*
X88191228Y-91163946D01*
X88186351Y-91150317D01*
X88182834Y-91136276D01*
X88180710Y-91121958D01*
X88180000Y-91107500D01*
X88180000Y-90812500D01*
X88180710Y-90798042D01*
X88182834Y-90783724D01*
X88186351Y-90769683D01*
X88191228Y-90756054D01*
X88197417Y-90742969D01*
X88204858Y-90730553D01*
X88213481Y-90718927D01*
X88223202Y-90708202D01*
X88233927Y-90698481D01*
X88245553Y-90689858D01*
X88257969Y-90682417D01*
X88271054Y-90676228D01*
X88284683Y-90671351D01*
X88298724Y-90667834D01*
X88313042Y-90665710D01*
X88327500Y-90665000D01*
X88672500Y-90665000D01*
X88686958Y-90665710D01*
X88686958Y-90665710D01*
G37*
D11*
X88500000Y-90960000D03*
G04 #@! TD*
D10*
G04 #@! TO.C,C18*
G36*
X87846958Y-82950710D02*
X87861276Y-82952834D01*
X87875317Y-82956351D01*
X87888946Y-82961228D01*
X87902031Y-82967417D01*
X87914447Y-82974858D01*
X87926073Y-82983481D01*
X87936798Y-82993202D01*
X87946519Y-83003927D01*
X87955142Y-83015553D01*
X87962583Y-83027969D01*
X87968772Y-83041054D01*
X87973649Y-83054683D01*
X87977166Y-83068724D01*
X87979290Y-83083042D01*
X87980000Y-83097500D01*
X87980000Y-83392500D01*
X87979290Y-83406958D01*
X87977166Y-83421276D01*
X87973649Y-83435317D01*
X87968772Y-83448946D01*
X87962583Y-83462031D01*
X87955142Y-83474447D01*
X87946519Y-83486073D01*
X87936798Y-83496798D01*
X87926073Y-83506519D01*
X87914447Y-83515142D01*
X87902031Y-83522583D01*
X87888946Y-83528772D01*
X87875317Y-83533649D01*
X87861276Y-83537166D01*
X87846958Y-83539290D01*
X87832500Y-83540000D01*
X87487500Y-83540000D01*
X87473042Y-83539290D01*
X87458724Y-83537166D01*
X87444683Y-83533649D01*
X87431054Y-83528772D01*
X87417969Y-83522583D01*
X87405553Y-83515142D01*
X87393927Y-83506519D01*
X87383202Y-83496798D01*
X87373481Y-83486073D01*
X87364858Y-83474447D01*
X87357417Y-83462031D01*
X87351228Y-83448946D01*
X87346351Y-83435317D01*
X87342834Y-83421276D01*
X87340710Y-83406958D01*
X87340000Y-83392500D01*
X87340000Y-83097500D01*
X87340710Y-83083042D01*
X87342834Y-83068724D01*
X87346351Y-83054683D01*
X87351228Y-83041054D01*
X87357417Y-83027969D01*
X87364858Y-83015553D01*
X87373481Y-83003927D01*
X87383202Y-82993202D01*
X87393927Y-82983481D01*
X87405553Y-82974858D01*
X87417969Y-82967417D01*
X87431054Y-82961228D01*
X87444683Y-82956351D01*
X87458724Y-82952834D01*
X87473042Y-82950710D01*
X87487500Y-82950000D01*
X87832500Y-82950000D01*
X87846958Y-82950710D01*
X87846958Y-82950710D01*
G37*
D11*
X87660000Y-83245000D03*
D10*
G36*
X87846958Y-83920710D02*
X87861276Y-83922834D01*
X87875317Y-83926351D01*
X87888946Y-83931228D01*
X87902031Y-83937417D01*
X87914447Y-83944858D01*
X87926073Y-83953481D01*
X87936798Y-83963202D01*
X87946519Y-83973927D01*
X87955142Y-83985553D01*
X87962583Y-83997969D01*
X87968772Y-84011054D01*
X87973649Y-84024683D01*
X87977166Y-84038724D01*
X87979290Y-84053042D01*
X87980000Y-84067500D01*
X87980000Y-84362500D01*
X87979290Y-84376958D01*
X87977166Y-84391276D01*
X87973649Y-84405317D01*
X87968772Y-84418946D01*
X87962583Y-84432031D01*
X87955142Y-84444447D01*
X87946519Y-84456073D01*
X87936798Y-84466798D01*
X87926073Y-84476519D01*
X87914447Y-84485142D01*
X87902031Y-84492583D01*
X87888946Y-84498772D01*
X87875317Y-84503649D01*
X87861276Y-84507166D01*
X87846958Y-84509290D01*
X87832500Y-84510000D01*
X87487500Y-84510000D01*
X87473042Y-84509290D01*
X87458724Y-84507166D01*
X87444683Y-84503649D01*
X87431054Y-84498772D01*
X87417969Y-84492583D01*
X87405553Y-84485142D01*
X87393927Y-84476519D01*
X87383202Y-84466798D01*
X87373481Y-84456073D01*
X87364858Y-84444447D01*
X87357417Y-84432031D01*
X87351228Y-84418946D01*
X87346351Y-84405317D01*
X87342834Y-84391276D01*
X87340710Y-84376958D01*
X87340000Y-84362500D01*
X87340000Y-84067500D01*
X87340710Y-84053042D01*
X87342834Y-84038724D01*
X87346351Y-84024683D01*
X87351228Y-84011054D01*
X87357417Y-83997969D01*
X87364858Y-83985553D01*
X87373481Y-83973927D01*
X87383202Y-83963202D01*
X87393927Y-83953481D01*
X87405553Y-83944858D01*
X87417969Y-83937417D01*
X87431054Y-83931228D01*
X87444683Y-83926351D01*
X87458724Y-83922834D01*
X87473042Y-83920710D01*
X87487500Y-83920000D01*
X87832500Y-83920000D01*
X87846958Y-83920710D01*
X87846958Y-83920710D01*
G37*
D11*
X87660000Y-84215000D03*
G04 #@! TD*
D10*
G04 #@! TO.C,C19*
G36*
X86766958Y-82950710D02*
X86781276Y-82952834D01*
X86795317Y-82956351D01*
X86808946Y-82961228D01*
X86822031Y-82967417D01*
X86834447Y-82974858D01*
X86846073Y-82983481D01*
X86856798Y-82993202D01*
X86866519Y-83003927D01*
X86875142Y-83015553D01*
X86882583Y-83027969D01*
X86888772Y-83041054D01*
X86893649Y-83054683D01*
X86897166Y-83068724D01*
X86899290Y-83083042D01*
X86900000Y-83097500D01*
X86900000Y-83392500D01*
X86899290Y-83406958D01*
X86897166Y-83421276D01*
X86893649Y-83435317D01*
X86888772Y-83448946D01*
X86882583Y-83462031D01*
X86875142Y-83474447D01*
X86866519Y-83486073D01*
X86856798Y-83496798D01*
X86846073Y-83506519D01*
X86834447Y-83515142D01*
X86822031Y-83522583D01*
X86808946Y-83528772D01*
X86795317Y-83533649D01*
X86781276Y-83537166D01*
X86766958Y-83539290D01*
X86752500Y-83540000D01*
X86407500Y-83540000D01*
X86393042Y-83539290D01*
X86378724Y-83537166D01*
X86364683Y-83533649D01*
X86351054Y-83528772D01*
X86337969Y-83522583D01*
X86325553Y-83515142D01*
X86313927Y-83506519D01*
X86303202Y-83496798D01*
X86293481Y-83486073D01*
X86284858Y-83474447D01*
X86277417Y-83462031D01*
X86271228Y-83448946D01*
X86266351Y-83435317D01*
X86262834Y-83421276D01*
X86260710Y-83406958D01*
X86260000Y-83392500D01*
X86260000Y-83097500D01*
X86260710Y-83083042D01*
X86262834Y-83068724D01*
X86266351Y-83054683D01*
X86271228Y-83041054D01*
X86277417Y-83027969D01*
X86284858Y-83015553D01*
X86293481Y-83003927D01*
X86303202Y-82993202D01*
X86313927Y-82983481D01*
X86325553Y-82974858D01*
X86337969Y-82967417D01*
X86351054Y-82961228D01*
X86364683Y-82956351D01*
X86378724Y-82952834D01*
X86393042Y-82950710D01*
X86407500Y-82950000D01*
X86752500Y-82950000D01*
X86766958Y-82950710D01*
X86766958Y-82950710D01*
G37*
D11*
X86580000Y-83245000D03*
D10*
G36*
X86766958Y-83920710D02*
X86781276Y-83922834D01*
X86795317Y-83926351D01*
X86808946Y-83931228D01*
X86822031Y-83937417D01*
X86834447Y-83944858D01*
X86846073Y-83953481D01*
X86856798Y-83963202D01*
X86866519Y-83973927D01*
X86875142Y-83985553D01*
X86882583Y-83997969D01*
X86888772Y-84011054D01*
X86893649Y-84024683D01*
X86897166Y-84038724D01*
X86899290Y-84053042D01*
X86900000Y-84067500D01*
X86900000Y-84362500D01*
X86899290Y-84376958D01*
X86897166Y-84391276D01*
X86893649Y-84405317D01*
X86888772Y-84418946D01*
X86882583Y-84432031D01*
X86875142Y-84444447D01*
X86866519Y-84456073D01*
X86856798Y-84466798D01*
X86846073Y-84476519D01*
X86834447Y-84485142D01*
X86822031Y-84492583D01*
X86808946Y-84498772D01*
X86795317Y-84503649D01*
X86781276Y-84507166D01*
X86766958Y-84509290D01*
X86752500Y-84510000D01*
X86407500Y-84510000D01*
X86393042Y-84509290D01*
X86378724Y-84507166D01*
X86364683Y-84503649D01*
X86351054Y-84498772D01*
X86337969Y-84492583D01*
X86325553Y-84485142D01*
X86313927Y-84476519D01*
X86303202Y-84466798D01*
X86293481Y-84456073D01*
X86284858Y-84444447D01*
X86277417Y-84432031D01*
X86271228Y-84418946D01*
X86266351Y-84405317D01*
X86262834Y-84391276D01*
X86260710Y-84376958D01*
X86260000Y-84362500D01*
X86260000Y-84067500D01*
X86260710Y-84053042D01*
X86262834Y-84038724D01*
X86266351Y-84024683D01*
X86271228Y-84011054D01*
X86277417Y-83997969D01*
X86284858Y-83985553D01*
X86293481Y-83973927D01*
X86303202Y-83963202D01*
X86313927Y-83953481D01*
X86325553Y-83944858D01*
X86337969Y-83937417D01*
X86351054Y-83931228D01*
X86364683Y-83926351D01*
X86378724Y-83922834D01*
X86393042Y-83920710D01*
X86407500Y-83920000D01*
X86752500Y-83920000D01*
X86766958Y-83920710D01*
X86766958Y-83920710D01*
G37*
D11*
X86580000Y-84215000D03*
G04 #@! TD*
D10*
G04 #@! TO.C,C20*
G36*
X74166958Y-83300710D02*
X74181276Y-83302834D01*
X74195317Y-83306351D01*
X74208946Y-83311228D01*
X74222031Y-83317417D01*
X74234447Y-83324858D01*
X74246073Y-83333481D01*
X74256798Y-83343202D01*
X74266519Y-83353927D01*
X74275142Y-83365553D01*
X74282583Y-83377969D01*
X74288772Y-83391054D01*
X74293649Y-83404683D01*
X74297166Y-83418724D01*
X74299290Y-83433042D01*
X74300000Y-83447500D01*
X74300000Y-83742500D01*
X74299290Y-83756958D01*
X74297166Y-83771276D01*
X74293649Y-83785317D01*
X74288772Y-83798946D01*
X74282583Y-83812031D01*
X74275142Y-83824447D01*
X74266519Y-83836073D01*
X74256798Y-83846798D01*
X74246073Y-83856519D01*
X74234447Y-83865142D01*
X74222031Y-83872583D01*
X74208946Y-83878772D01*
X74195317Y-83883649D01*
X74181276Y-83887166D01*
X74166958Y-83889290D01*
X74152500Y-83890000D01*
X73807500Y-83890000D01*
X73793042Y-83889290D01*
X73778724Y-83887166D01*
X73764683Y-83883649D01*
X73751054Y-83878772D01*
X73737969Y-83872583D01*
X73725553Y-83865142D01*
X73713927Y-83856519D01*
X73703202Y-83846798D01*
X73693481Y-83836073D01*
X73684858Y-83824447D01*
X73677417Y-83812031D01*
X73671228Y-83798946D01*
X73666351Y-83785317D01*
X73662834Y-83771276D01*
X73660710Y-83756958D01*
X73660000Y-83742500D01*
X73660000Y-83447500D01*
X73660710Y-83433042D01*
X73662834Y-83418724D01*
X73666351Y-83404683D01*
X73671228Y-83391054D01*
X73677417Y-83377969D01*
X73684858Y-83365553D01*
X73693481Y-83353927D01*
X73703202Y-83343202D01*
X73713927Y-83333481D01*
X73725553Y-83324858D01*
X73737969Y-83317417D01*
X73751054Y-83311228D01*
X73764683Y-83306351D01*
X73778724Y-83302834D01*
X73793042Y-83300710D01*
X73807500Y-83300000D01*
X74152500Y-83300000D01*
X74166958Y-83300710D01*
X74166958Y-83300710D01*
G37*
D11*
X73980000Y-83595000D03*
D10*
G36*
X74166958Y-82330710D02*
X74181276Y-82332834D01*
X74195317Y-82336351D01*
X74208946Y-82341228D01*
X74222031Y-82347417D01*
X74234447Y-82354858D01*
X74246073Y-82363481D01*
X74256798Y-82373202D01*
X74266519Y-82383927D01*
X74275142Y-82395553D01*
X74282583Y-82407969D01*
X74288772Y-82421054D01*
X74293649Y-82434683D01*
X74297166Y-82448724D01*
X74299290Y-82463042D01*
X74300000Y-82477500D01*
X74300000Y-82772500D01*
X74299290Y-82786958D01*
X74297166Y-82801276D01*
X74293649Y-82815317D01*
X74288772Y-82828946D01*
X74282583Y-82842031D01*
X74275142Y-82854447D01*
X74266519Y-82866073D01*
X74256798Y-82876798D01*
X74246073Y-82886519D01*
X74234447Y-82895142D01*
X74222031Y-82902583D01*
X74208946Y-82908772D01*
X74195317Y-82913649D01*
X74181276Y-82917166D01*
X74166958Y-82919290D01*
X74152500Y-82920000D01*
X73807500Y-82920000D01*
X73793042Y-82919290D01*
X73778724Y-82917166D01*
X73764683Y-82913649D01*
X73751054Y-82908772D01*
X73737969Y-82902583D01*
X73725553Y-82895142D01*
X73713927Y-82886519D01*
X73703202Y-82876798D01*
X73693481Y-82866073D01*
X73684858Y-82854447D01*
X73677417Y-82842031D01*
X73671228Y-82828946D01*
X73666351Y-82815317D01*
X73662834Y-82801276D01*
X73660710Y-82786958D01*
X73660000Y-82772500D01*
X73660000Y-82477500D01*
X73660710Y-82463042D01*
X73662834Y-82448724D01*
X73666351Y-82434683D01*
X73671228Y-82421054D01*
X73677417Y-82407969D01*
X73684858Y-82395553D01*
X73693481Y-82383927D01*
X73703202Y-82373202D01*
X73713927Y-82363481D01*
X73725553Y-82354858D01*
X73737969Y-82347417D01*
X73751054Y-82341228D01*
X73764683Y-82336351D01*
X73778724Y-82332834D01*
X73793042Y-82330710D01*
X73807500Y-82330000D01*
X74152500Y-82330000D01*
X74166958Y-82330710D01*
X74166958Y-82330710D01*
G37*
D11*
X73980000Y-82625000D03*
G04 #@! TD*
D10*
G04 #@! TO.C,C21*
G36*
X90216958Y-83930710D02*
X90231276Y-83932834D01*
X90245317Y-83936351D01*
X90258946Y-83941228D01*
X90272031Y-83947417D01*
X90284447Y-83954858D01*
X90296073Y-83963481D01*
X90306798Y-83973202D01*
X90316519Y-83983927D01*
X90325142Y-83995553D01*
X90332583Y-84007969D01*
X90338772Y-84021054D01*
X90343649Y-84034683D01*
X90347166Y-84048724D01*
X90349290Y-84063042D01*
X90350000Y-84077500D01*
X90350000Y-84372500D01*
X90349290Y-84386958D01*
X90347166Y-84401276D01*
X90343649Y-84415317D01*
X90338772Y-84428946D01*
X90332583Y-84442031D01*
X90325142Y-84454447D01*
X90316519Y-84466073D01*
X90306798Y-84476798D01*
X90296073Y-84486519D01*
X90284447Y-84495142D01*
X90272031Y-84502583D01*
X90258946Y-84508772D01*
X90245317Y-84513649D01*
X90231276Y-84517166D01*
X90216958Y-84519290D01*
X90202500Y-84520000D01*
X89857500Y-84520000D01*
X89843042Y-84519290D01*
X89828724Y-84517166D01*
X89814683Y-84513649D01*
X89801054Y-84508772D01*
X89787969Y-84502583D01*
X89775553Y-84495142D01*
X89763927Y-84486519D01*
X89753202Y-84476798D01*
X89743481Y-84466073D01*
X89734858Y-84454447D01*
X89727417Y-84442031D01*
X89721228Y-84428946D01*
X89716351Y-84415317D01*
X89712834Y-84401276D01*
X89710710Y-84386958D01*
X89710000Y-84372500D01*
X89710000Y-84077500D01*
X89710710Y-84063042D01*
X89712834Y-84048724D01*
X89716351Y-84034683D01*
X89721228Y-84021054D01*
X89727417Y-84007969D01*
X89734858Y-83995553D01*
X89743481Y-83983927D01*
X89753202Y-83973202D01*
X89763927Y-83963481D01*
X89775553Y-83954858D01*
X89787969Y-83947417D01*
X89801054Y-83941228D01*
X89814683Y-83936351D01*
X89828724Y-83932834D01*
X89843042Y-83930710D01*
X89857500Y-83930000D01*
X90202500Y-83930000D01*
X90216958Y-83930710D01*
X90216958Y-83930710D01*
G37*
D11*
X90030000Y-84225000D03*
D10*
G36*
X90216958Y-82960710D02*
X90231276Y-82962834D01*
X90245317Y-82966351D01*
X90258946Y-82971228D01*
X90272031Y-82977417D01*
X90284447Y-82984858D01*
X90296073Y-82993481D01*
X90306798Y-83003202D01*
X90316519Y-83013927D01*
X90325142Y-83025553D01*
X90332583Y-83037969D01*
X90338772Y-83051054D01*
X90343649Y-83064683D01*
X90347166Y-83078724D01*
X90349290Y-83093042D01*
X90350000Y-83107500D01*
X90350000Y-83402500D01*
X90349290Y-83416958D01*
X90347166Y-83431276D01*
X90343649Y-83445317D01*
X90338772Y-83458946D01*
X90332583Y-83472031D01*
X90325142Y-83484447D01*
X90316519Y-83496073D01*
X90306798Y-83506798D01*
X90296073Y-83516519D01*
X90284447Y-83525142D01*
X90272031Y-83532583D01*
X90258946Y-83538772D01*
X90245317Y-83543649D01*
X90231276Y-83547166D01*
X90216958Y-83549290D01*
X90202500Y-83550000D01*
X89857500Y-83550000D01*
X89843042Y-83549290D01*
X89828724Y-83547166D01*
X89814683Y-83543649D01*
X89801054Y-83538772D01*
X89787969Y-83532583D01*
X89775553Y-83525142D01*
X89763927Y-83516519D01*
X89753202Y-83506798D01*
X89743481Y-83496073D01*
X89734858Y-83484447D01*
X89727417Y-83472031D01*
X89721228Y-83458946D01*
X89716351Y-83445317D01*
X89712834Y-83431276D01*
X89710710Y-83416958D01*
X89710000Y-83402500D01*
X89710000Y-83107500D01*
X89710710Y-83093042D01*
X89712834Y-83078724D01*
X89716351Y-83064683D01*
X89721228Y-83051054D01*
X89727417Y-83037969D01*
X89734858Y-83025553D01*
X89743481Y-83013927D01*
X89753202Y-83003202D01*
X89763927Y-82993481D01*
X89775553Y-82984858D01*
X89787969Y-82977417D01*
X89801054Y-82971228D01*
X89814683Y-82966351D01*
X89828724Y-82962834D01*
X89843042Y-82960710D01*
X89857500Y-82960000D01*
X90202500Y-82960000D01*
X90216958Y-82960710D01*
X90216958Y-82960710D01*
G37*
D11*
X90030000Y-83255000D03*
G04 #@! TD*
D10*
G04 #@! TO.C,C22*
G36*
X89126958Y-82950710D02*
X89141276Y-82952834D01*
X89155317Y-82956351D01*
X89168946Y-82961228D01*
X89182031Y-82967417D01*
X89194447Y-82974858D01*
X89206073Y-82983481D01*
X89216798Y-82993202D01*
X89226519Y-83003927D01*
X89235142Y-83015553D01*
X89242583Y-83027969D01*
X89248772Y-83041054D01*
X89253649Y-83054683D01*
X89257166Y-83068724D01*
X89259290Y-83083042D01*
X89260000Y-83097500D01*
X89260000Y-83392500D01*
X89259290Y-83406958D01*
X89257166Y-83421276D01*
X89253649Y-83435317D01*
X89248772Y-83448946D01*
X89242583Y-83462031D01*
X89235142Y-83474447D01*
X89226519Y-83486073D01*
X89216798Y-83496798D01*
X89206073Y-83506519D01*
X89194447Y-83515142D01*
X89182031Y-83522583D01*
X89168946Y-83528772D01*
X89155317Y-83533649D01*
X89141276Y-83537166D01*
X89126958Y-83539290D01*
X89112500Y-83540000D01*
X88767500Y-83540000D01*
X88753042Y-83539290D01*
X88738724Y-83537166D01*
X88724683Y-83533649D01*
X88711054Y-83528772D01*
X88697969Y-83522583D01*
X88685553Y-83515142D01*
X88673927Y-83506519D01*
X88663202Y-83496798D01*
X88653481Y-83486073D01*
X88644858Y-83474447D01*
X88637417Y-83462031D01*
X88631228Y-83448946D01*
X88626351Y-83435317D01*
X88622834Y-83421276D01*
X88620710Y-83406958D01*
X88620000Y-83392500D01*
X88620000Y-83097500D01*
X88620710Y-83083042D01*
X88622834Y-83068724D01*
X88626351Y-83054683D01*
X88631228Y-83041054D01*
X88637417Y-83027969D01*
X88644858Y-83015553D01*
X88653481Y-83003927D01*
X88663202Y-82993202D01*
X88673927Y-82983481D01*
X88685553Y-82974858D01*
X88697969Y-82967417D01*
X88711054Y-82961228D01*
X88724683Y-82956351D01*
X88738724Y-82952834D01*
X88753042Y-82950710D01*
X88767500Y-82950000D01*
X89112500Y-82950000D01*
X89126958Y-82950710D01*
X89126958Y-82950710D01*
G37*
D11*
X88940000Y-83245000D03*
D10*
G36*
X89126958Y-83920710D02*
X89141276Y-83922834D01*
X89155317Y-83926351D01*
X89168946Y-83931228D01*
X89182031Y-83937417D01*
X89194447Y-83944858D01*
X89206073Y-83953481D01*
X89216798Y-83963202D01*
X89226519Y-83973927D01*
X89235142Y-83985553D01*
X89242583Y-83997969D01*
X89248772Y-84011054D01*
X89253649Y-84024683D01*
X89257166Y-84038724D01*
X89259290Y-84053042D01*
X89260000Y-84067500D01*
X89260000Y-84362500D01*
X89259290Y-84376958D01*
X89257166Y-84391276D01*
X89253649Y-84405317D01*
X89248772Y-84418946D01*
X89242583Y-84432031D01*
X89235142Y-84444447D01*
X89226519Y-84456073D01*
X89216798Y-84466798D01*
X89206073Y-84476519D01*
X89194447Y-84485142D01*
X89182031Y-84492583D01*
X89168946Y-84498772D01*
X89155317Y-84503649D01*
X89141276Y-84507166D01*
X89126958Y-84509290D01*
X89112500Y-84510000D01*
X88767500Y-84510000D01*
X88753042Y-84509290D01*
X88738724Y-84507166D01*
X88724683Y-84503649D01*
X88711054Y-84498772D01*
X88697969Y-84492583D01*
X88685553Y-84485142D01*
X88673927Y-84476519D01*
X88663202Y-84466798D01*
X88653481Y-84456073D01*
X88644858Y-84444447D01*
X88637417Y-84432031D01*
X88631228Y-84418946D01*
X88626351Y-84405317D01*
X88622834Y-84391276D01*
X88620710Y-84376958D01*
X88620000Y-84362500D01*
X88620000Y-84067500D01*
X88620710Y-84053042D01*
X88622834Y-84038724D01*
X88626351Y-84024683D01*
X88631228Y-84011054D01*
X88637417Y-83997969D01*
X88644858Y-83985553D01*
X88653481Y-83973927D01*
X88663202Y-83963202D01*
X88673927Y-83953481D01*
X88685553Y-83944858D01*
X88697969Y-83937417D01*
X88711054Y-83931228D01*
X88724683Y-83926351D01*
X88738724Y-83922834D01*
X88753042Y-83920710D01*
X88767500Y-83920000D01*
X89112500Y-83920000D01*
X89126958Y-83920710D01*
X89126958Y-83920710D01*
G37*
D11*
X88940000Y-84215000D03*
G04 #@! TD*
D10*
G04 #@! TO.C,C23*
G36*
X71871958Y-85540710D02*
X71886276Y-85542834D01*
X71900317Y-85546351D01*
X71913946Y-85551228D01*
X71927031Y-85557417D01*
X71939447Y-85564858D01*
X71951073Y-85573481D01*
X71961798Y-85583202D01*
X71971519Y-85593927D01*
X71980142Y-85605553D01*
X71987583Y-85617969D01*
X71993772Y-85631054D01*
X71998649Y-85644683D01*
X72002166Y-85658724D01*
X72004290Y-85673042D01*
X72005000Y-85687500D01*
X72005000Y-86032500D01*
X72004290Y-86046958D01*
X72002166Y-86061276D01*
X71998649Y-86075317D01*
X71993772Y-86088946D01*
X71987583Y-86102031D01*
X71980142Y-86114447D01*
X71971519Y-86126073D01*
X71961798Y-86136798D01*
X71951073Y-86146519D01*
X71939447Y-86155142D01*
X71927031Y-86162583D01*
X71913946Y-86168772D01*
X71900317Y-86173649D01*
X71886276Y-86177166D01*
X71871958Y-86179290D01*
X71857500Y-86180000D01*
X71562500Y-86180000D01*
X71548042Y-86179290D01*
X71533724Y-86177166D01*
X71519683Y-86173649D01*
X71506054Y-86168772D01*
X71492969Y-86162583D01*
X71480553Y-86155142D01*
X71468927Y-86146519D01*
X71458202Y-86136798D01*
X71448481Y-86126073D01*
X71439858Y-86114447D01*
X71432417Y-86102031D01*
X71426228Y-86088946D01*
X71421351Y-86075317D01*
X71417834Y-86061276D01*
X71415710Y-86046958D01*
X71415000Y-86032500D01*
X71415000Y-85687500D01*
X71415710Y-85673042D01*
X71417834Y-85658724D01*
X71421351Y-85644683D01*
X71426228Y-85631054D01*
X71432417Y-85617969D01*
X71439858Y-85605553D01*
X71448481Y-85593927D01*
X71458202Y-85583202D01*
X71468927Y-85573481D01*
X71480553Y-85564858D01*
X71492969Y-85557417D01*
X71506054Y-85551228D01*
X71519683Y-85546351D01*
X71533724Y-85542834D01*
X71548042Y-85540710D01*
X71562500Y-85540000D01*
X71857500Y-85540000D01*
X71871958Y-85540710D01*
X71871958Y-85540710D01*
G37*
D11*
X71710000Y-85860000D03*
D10*
G36*
X70901958Y-85540710D02*
X70916276Y-85542834D01*
X70930317Y-85546351D01*
X70943946Y-85551228D01*
X70957031Y-85557417D01*
X70969447Y-85564858D01*
X70981073Y-85573481D01*
X70991798Y-85583202D01*
X71001519Y-85593927D01*
X71010142Y-85605553D01*
X71017583Y-85617969D01*
X71023772Y-85631054D01*
X71028649Y-85644683D01*
X71032166Y-85658724D01*
X71034290Y-85673042D01*
X71035000Y-85687500D01*
X71035000Y-86032500D01*
X71034290Y-86046958D01*
X71032166Y-86061276D01*
X71028649Y-86075317D01*
X71023772Y-86088946D01*
X71017583Y-86102031D01*
X71010142Y-86114447D01*
X71001519Y-86126073D01*
X70991798Y-86136798D01*
X70981073Y-86146519D01*
X70969447Y-86155142D01*
X70957031Y-86162583D01*
X70943946Y-86168772D01*
X70930317Y-86173649D01*
X70916276Y-86177166D01*
X70901958Y-86179290D01*
X70887500Y-86180000D01*
X70592500Y-86180000D01*
X70578042Y-86179290D01*
X70563724Y-86177166D01*
X70549683Y-86173649D01*
X70536054Y-86168772D01*
X70522969Y-86162583D01*
X70510553Y-86155142D01*
X70498927Y-86146519D01*
X70488202Y-86136798D01*
X70478481Y-86126073D01*
X70469858Y-86114447D01*
X70462417Y-86102031D01*
X70456228Y-86088946D01*
X70451351Y-86075317D01*
X70447834Y-86061276D01*
X70445710Y-86046958D01*
X70445000Y-86032500D01*
X70445000Y-85687500D01*
X70445710Y-85673042D01*
X70447834Y-85658724D01*
X70451351Y-85644683D01*
X70456228Y-85631054D01*
X70462417Y-85617969D01*
X70469858Y-85605553D01*
X70478481Y-85593927D01*
X70488202Y-85583202D01*
X70498927Y-85573481D01*
X70510553Y-85564858D01*
X70522969Y-85557417D01*
X70536054Y-85551228D01*
X70549683Y-85546351D01*
X70563724Y-85542834D01*
X70578042Y-85540710D01*
X70592500Y-85540000D01*
X70887500Y-85540000D01*
X70901958Y-85540710D01*
X70901958Y-85540710D01*
G37*
D11*
X70740000Y-85860000D03*
G04 #@! TD*
D10*
G04 #@! TO.C,C24*
G36*
X85936958Y-93095710D02*
X85951276Y-93097834D01*
X85965317Y-93101351D01*
X85978946Y-93106228D01*
X85992031Y-93112417D01*
X86004447Y-93119858D01*
X86016073Y-93128481D01*
X86026798Y-93138202D01*
X86036519Y-93148927D01*
X86045142Y-93160553D01*
X86052583Y-93172969D01*
X86058772Y-93186054D01*
X86063649Y-93199683D01*
X86067166Y-93213724D01*
X86069290Y-93228042D01*
X86070000Y-93242500D01*
X86070000Y-93537500D01*
X86069290Y-93551958D01*
X86067166Y-93566276D01*
X86063649Y-93580317D01*
X86058772Y-93593946D01*
X86052583Y-93607031D01*
X86045142Y-93619447D01*
X86036519Y-93631073D01*
X86026798Y-93641798D01*
X86016073Y-93651519D01*
X86004447Y-93660142D01*
X85992031Y-93667583D01*
X85978946Y-93673772D01*
X85965317Y-93678649D01*
X85951276Y-93682166D01*
X85936958Y-93684290D01*
X85922500Y-93685000D01*
X85577500Y-93685000D01*
X85563042Y-93684290D01*
X85548724Y-93682166D01*
X85534683Y-93678649D01*
X85521054Y-93673772D01*
X85507969Y-93667583D01*
X85495553Y-93660142D01*
X85483927Y-93651519D01*
X85473202Y-93641798D01*
X85463481Y-93631073D01*
X85454858Y-93619447D01*
X85447417Y-93607031D01*
X85441228Y-93593946D01*
X85436351Y-93580317D01*
X85432834Y-93566276D01*
X85430710Y-93551958D01*
X85430000Y-93537500D01*
X85430000Y-93242500D01*
X85430710Y-93228042D01*
X85432834Y-93213724D01*
X85436351Y-93199683D01*
X85441228Y-93186054D01*
X85447417Y-93172969D01*
X85454858Y-93160553D01*
X85463481Y-93148927D01*
X85473202Y-93138202D01*
X85483927Y-93128481D01*
X85495553Y-93119858D01*
X85507969Y-93112417D01*
X85521054Y-93106228D01*
X85534683Y-93101351D01*
X85548724Y-93097834D01*
X85563042Y-93095710D01*
X85577500Y-93095000D01*
X85922500Y-93095000D01*
X85936958Y-93095710D01*
X85936958Y-93095710D01*
G37*
D11*
X85750000Y-93390000D03*
D10*
G36*
X85936958Y-94065710D02*
X85951276Y-94067834D01*
X85965317Y-94071351D01*
X85978946Y-94076228D01*
X85992031Y-94082417D01*
X86004447Y-94089858D01*
X86016073Y-94098481D01*
X86026798Y-94108202D01*
X86036519Y-94118927D01*
X86045142Y-94130553D01*
X86052583Y-94142969D01*
X86058772Y-94156054D01*
X86063649Y-94169683D01*
X86067166Y-94183724D01*
X86069290Y-94198042D01*
X86070000Y-94212500D01*
X86070000Y-94507500D01*
X86069290Y-94521958D01*
X86067166Y-94536276D01*
X86063649Y-94550317D01*
X86058772Y-94563946D01*
X86052583Y-94577031D01*
X86045142Y-94589447D01*
X86036519Y-94601073D01*
X86026798Y-94611798D01*
X86016073Y-94621519D01*
X86004447Y-94630142D01*
X85992031Y-94637583D01*
X85978946Y-94643772D01*
X85965317Y-94648649D01*
X85951276Y-94652166D01*
X85936958Y-94654290D01*
X85922500Y-94655000D01*
X85577500Y-94655000D01*
X85563042Y-94654290D01*
X85548724Y-94652166D01*
X85534683Y-94648649D01*
X85521054Y-94643772D01*
X85507969Y-94637583D01*
X85495553Y-94630142D01*
X85483927Y-94621519D01*
X85473202Y-94611798D01*
X85463481Y-94601073D01*
X85454858Y-94589447D01*
X85447417Y-94577031D01*
X85441228Y-94563946D01*
X85436351Y-94550317D01*
X85432834Y-94536276D01*
X85430710Y-94521958D01*
X85430000Y-94507500D01*
X85430000Y-94212500D01*
X85430710Y-94198042D01*
X85432834Y-94183724D01*
X85436351Y-94169683D01*
X85441228Y-94156054D01*
X85447417Y-94142969D01*
X85454858Y-94130553D01*
X85463481Y-94118927D01*
X85473202Y-94108202D01*
X85483927Y-94098481D01*
X85495553Y-94089858D01*
X85507969Y-94082417D01*
X85521054Y-94076228D01*
X85534683Y-94071351D01*
X85548724Y-94067834D01*
X85563042Y-94065710D01*
X85577500Y-94065000D01*
X85922500Y-94065000D01*
X85936958Y-94065710D01*
X85936958Y-94065710D01*
G37*
D11*
X85750000Y-94360000D03*
G04 #@! TD*
D10*
G04 #@! TO.C,C25*
G36*
X86986958Y-94065710D02*
X87001276Y-94067834D01*
X87015317Y-94071351D01*
X87028946Y-94076228D01*
X87042031Y-94082417D01*
X87054447Y-94089858D01*
X87066073Y-94098481D01*
X87076798Y-94108202D01*
X87086519Y-94118927D01*
X87095142Y-94130553D01*
X87102583Y-94142969D01*
X87108772Y-94156054D01*
X87113649Y-94169683D01*
X87117166Y-94183724D01*
X87119290Y-94198042D01*
X87120000Y-94212500D01*
X87120000Y-94507500D01*
X87119290Y-94521958D01*
X87117166Y-94536276D01*
X87113649Y-94550317D01*
X87108772Y-94563946D01*
X87102583Y-94577031D01*
X87095142Y-94589447D01*
X87086519Y-94601073D01*
X87076798Y-94611798D01*
X87066073Y-94621519D01*
X87054447Y-94630142D01*
X87042031Y-94637583D01*
X87028946Y-94643772D01*
X87015317Y-94648649D01*
X87001276Y-94652166D01*
X86986958Y-94654290D01*
X86972500Y-94655000D01*
X86627500Y-94655000D01*
X86613042Y-94654290D01*
X86598724Y-94652166D01*
X86584683Y-94648649D01*
X86571054Y-94643772D01*
X86557969Y-94637583D01*
X86545553Y-94630142D01*
X86533927Y-94621519D01*
X86523202Y-94611798D01*
X86513481Y-94601073D01*
X86504858Y-94589447D01*
X86497417Y-94577031D01*
X86491228Y-94563946D01*
X86486351Y-94550317D01*
X86482834Y-94536276D01*
X86480710Y-94521958D01*
X86480000Y-94507500D01*
X86480000Y-94212500D01*
X86480710Y-94198042D01*
X86482834Y-94183724D01*
X86486351Y-94169683D01*
X86491228Y-94156054D01*
X86497417Y-94142969D01*
X86504858Y-94130553D01*
X86513481Y-94118927D01*
X86523202Y-94108202D01*
X86533927Y-94098481D01*
X86545553Y-94089858D01*
X86557969Y-94082417D01*
X86571054Y-94076228D01*
X86584683Y-94071351D01*
X86598724Y-94067834D01*
X86613042Y-94065710D01*
X86627500Y-94065000D01*
X86972500Y-94065000D01*
X86986958Y-94065710D01*
X86986958Y-94065710D01*
G37*
D11*
X86800000Y-94360000D03*
D10*
G36*
X86986958Y-93095710D02*
X87001276Y-93097834D01*
X87015317Y-93101351D01*
X87028946Y-93106228D01*
X87042031Y-93112417D01*
X87054447Y-93119858D01*
X87066073Y-93128481D01*
X87076798Y-93138202D01*
X87086519Y-93148927D01*
X87095142Y-93160553D01*
X87102583Y-93172969D01*
X87108772Y-93186054D01*
X87113649Y-93199683D01*
X87117166Y-93213724D01*
X87119290Y-93228042D01*
X87120000Y-93242500D01*
X87120000Y-93537500D01*
X87119290Y-93551958D01*
X87117166Y-93566276D01*
X87113649Y-93580317D01*
X87108772Y-93593946D01*
X87102583Y-93607031D01*
X87095142Y-93619447D01*
X87086519Y-93631073D01*
X87076798Y-93641798D01*
X87066073Y-93651519D01*
X87054447Y-93660142D01*
X87042031Y-93667583D01*
X87028946Y-93673772D01*
X87015317Y-93678649D01*
X87001276Y-93682166D01*
X86986958Y-93684290D01*
X86972500Y-93685000D01*
X86627500Y-93685000D01*
X86613042Y-93684290D01*
X86598724Y-93682166D01*
X86584683Y-93678649D01*
X86571054Y-93673772D01*
X86557969Y-93667583D01*
X86545553Y-93660142D01*
X86533927Y-93651519D01*
X86523202Y-93641798D01*
X86513481Y-93631073D01*
X86504858Y-93619447D01*
X86497417Y-93607031D01*
X86491228Y-93593946D01*
X86486351Y-93580317D01*
X86482834Y-93566276D01*
X86480710Y-93551958D01*
X86480000Y-93537500D01*
X86480000Y-93242500D01*
X86480710Y-93228042D01*
X86482834Y-93213724D01*
X86486351Y-93199683D01*
X86491228Y-93186054D01*
X86497417Y-93172969D01*
X86504858Y-93160553D01*
X86513481Y-93148927D01*
X86523202Y-93138202D01*
X86533927Y-93128481D01*
X86545553Y-93119858D01*
X86557969Y-93112417D01*
X86571054Y-93106228D01*
X86584683Y-93101351D01*
X86598724Y-93097834D01*
X86613042Y-93095710D01*
X86627500Y-93095000D01*
X86972500Y-93095000D01*
X86986958Y-93095710D01*
X86986958Y-93095710D01*
G37*
D11*
X86800000Y-93390000D03*
G04 #@! TD*
D10*
G04 #@! TO.C,C26*
G36*
X84506958Y-82450710D02*
X84521276Y-82452834D01*
X84535317Y-82456351D01*
X84548946Y-82461228D01*
X84562031Y-82467417D01*
X84574447Y-82474858D01*
X84586073Y-82483481D01*
X84596798Y-82493202D01*
X84606519Y-82503927D01*
X84615142Y-82515553D01*
X84622583Y-82527969D01*
X84628772Y-82541054D01*
X84633649Y-82554683D01*
X84637166Y-82568724D01*
X84639290Y-82583042D01*
X84640000Y-82597500D01*
X84640000Y-82892500D01*
X84639290Y-82906958D01*
X84637166Y-82921276D01*
X84633649Y-82935317D01*
X84628772Y-82948946D01*
X84622583Y-82962031D01*
X84615142Y-82974447D01*
X84606519Y-82986073D01*
X84596798Y-82996798D01*
X84586073Y-83006519D01*
X84574447Y-83015142D01*
X84562031Y-83022583D01*
X84548946Y-83028772D01*
X84535317Y-83033649D01*
X84521276Y-83037166D01*
X84506958Y-83039290D01*
X84492500Y-83040000D01*
X84147500Y-83040000D01*
X84133042Y-83039290D01*
X84118724Y-83037166D01*
X84104683Y-83033649D01*
X84091054Y-83028772D01*
X84077969Y-83022583D01*
X84065553Y-83015142D01*
X84053927Y-83006519D01*
X84043202Y-82996798D01*
X84033481Y-82986073D01*
X84024858Y-82974447D01*
X84017417Y-82962031D01*
X84011228Y-82948946D01*
X84006351Y-82935317D01*
X84002834Y-82921276D01*
X84000710Y-82906958D01*
X84000000Y-82892500D01*
X84000000Y-82597500D01*
X84000710Y-82583042D01*
X84002834Y-82568724D01*
X84006351Y-82554683D01*
X84011228Y-82541054D01*
X84017417Y-82527969D01*
X84024858Y-82515553D01*
X84033481Y-82503927D01*
X84043202Y-82493202D01*
X84053927Y-82483481D01*
X84065553Y-82474858D01*
X84077969Y-82467417D01*
X84091054Y-82461228D01*
X84104683Y-82456351D01*
X84118724Y-82452834D01*
X84133042Y-82450710D01*
X84147500Y-82450000D01*
X84492500Y-82450000D01*
X84506958Y-82450710D01*
X84506958Y-82450710D01*
G37*
D11*
X84320000Y-82745000D03*
D10*
G36*
X84506958Y-81480710D02*
X84521276Y-81482834D01*
X84535317Y-81486351D01*
X84548946Y-81491228D01*
X84562031Y-81497417D01*
X84574447Y-81504858D01*
X84586073Y-81513481D01*
X84596798Y-81523202D01*
X84606519Y-81533927D01*
X84615142Y-81545553D01*
X84622583Y-81557969D01*
X84628772Y-81571054D01*
X84633649Y-81584683D01*
X84637166Y-81598724D01*
X84639290Y-81613042D01*
X84640000Y-81627500D01*
X84640000Y-81922500D01*
X84639290Y-81936958D01*
X84637166Y-81951276D01*
X84633649Y-81965317D01*
X84628772Y-81978946D01*
X84622583Y-81992031D01*
X84615142Y-82004447D01*
X84606519Y-82016073D01*
X84596798Y-82026798D01*
X84586073Y-82036519D01*
X84574447Y-82045142D01*
X84562031Y-82052583D01*
X84548946Y-82058772D01*
X84535317Y-82063649D01*
X84521276Y-82067166D01*
X84506958Y-82069290D01*
X84492500Y-82070000D01*
X84147500Y-82070000D01*
X84133042Y-82069290D01*
X84118724Y-82067166D01*
X84104683Y-82063649D01*
X84091054Y-82058772D01*
X84077969Y-82052583D01*
X84065553Y-82045142D01*
X84053927Y-82036519D01*
X84043202Y-82026798D01*
X84033481Y-82016073D01*
X84024858Y-82004447D01*
X84017417Y-81992031D01*
X84011228Y-81978946D01*
X84006351Y-81965317D01*
X84002834Y-81951276D01*
X84000710Y-81936958D01*
X84000000Y-81922500D01*
X84000000Y-81627500D01*
X84000710Y-81613042D01*
X84002834Y-81598724D01*
X84006351Y-81584683D01*
X84011228Y-81571054D01*
X84017417Y-81557969D01*
X84024858Y-81545553D01*
X84033481Y-81533927D01*
X84043202Y-81523202D01*
X84053927Y-81513481D01*
X84065553Y-81504858D01*
X84077969Y-81497417D01*
X84091054Y-81491228D01*
X84104683Y-81486351D01*
X84118724Y-81482834D01*
X84133042Y-81480710D01*
X84147500Y-81480000D01*
X84492500Y-81480000D01*
X84506958Y-81480710D01*
X84506958Y-81480710D01*
G37*
D11*
X84320000Y-81775000D03*
G04 #@! TD*
D10*
G04 #@! TO.C,C27*
G36*
X91296958Y-87480710D02*
X91311276Y-87482834D01*
X91325317Y-87486351D01*
X91338946Y-87491228D01*
X91352031Y-87497417D01*
X91364447Y-87504858D01*
X91376073Y-87513481D01*
X91386798Y-87523202D01*
X91396519Y-87533927D01*
X91405142Y-87545553D01*
X91412583Y-87557969D01*
X91418772Y-87571054D01*
X91423649Y-87584683D01*
X91427166Y-87598724D01*
X91429290Y-87613042D01*
X91430000Y-87627500D01*
X91430000Y-87972500D01*
X91429290Y-87986958D01*
X91427166Y-88001276D01*
X91423649Y-88015317D01*
X91418772Y-88028946D01*
X91412583Y-88042031D01*
X91405142Y-88054447D01*
X91396519Y-88066073D01*
X91386798Y-88076798D01*
X91376073Y-88086519D01*
X91364447Y-88095142D01*
X91352031Y-88102583D01*
X91338946Y-88108772D01*
X91325317Y-88113649D01*
X91311276Y-88117166D01*
X91296958Y-88119290D01*
X91282500Y-88120000D01*
X90987500Y-88120000D01*
X90973042Y-88119290D01*
X90958724Y-88117166D01*
X90944683Y-88113649D01*
X90931054Y-88108772D01*
X90917969Y-88102583D01*
X90905553Y-88095142D01*
X90893927Y-88086519D01*
X90883202Y-88076798D01*
X90873481Y-88066073D01*
X90864858Y-88054447D01*
X90857417Y-88042031D01*
X90851228Y-88028946D01*
X90846351Y-88015317D01*
X90842834Y-88001276D01*
X90840710Y-87986958D01*
X90840000Y-87972500D01*
X90840000Y-87627500D01*
X90840710Y-87613042D01*
X90842834Y-87598724D01*
X90846351Y-87584683D01*
X90851228Y-87571054D01*
X90857417Y-87557969D01*
X90864858Y-87545553D01*
X90873481Y-87533927D01*
X90883202Y-87523202D01*
X90893927Y-87513481D01*
X90905553Y-87504858D01*
X90917969Y-87497417D01*
X90931054Y-87491228D01*
X90944683Y-87486351D01*
X90958724Y-87482834D01*
X90973042Y-87480710D01*
X90987500Y-87480000D01*
X91282500Y-87480000D01*
X91296958Y-87480710D01*
X91296958Y-87480710D01*
G37*
D11*
X91135000Y-87800000D03*
D10*
G36*
X90326958Y-87480710D02*
X90341276Y-87482834D01*
X90355317Y-87486351D01*
X90368946Y-87491228D01*
X90382031Y-87497417D01*
X90394447Y-87504858D01*
X90406073Y-87513481D01*
X90416798Y-87523202D01*
X90426519Y-87533927D01*
X90435142Y-87545553D01*
X90442583Y-87557969D01*
X90448772Y-87571054D01*
X90453649Y-87584683D01*
X90457166Y-87598724D01*
X90459290Y-87613042D01*
X90460000Y-87627500D01*
X90460000Y-87972500D01*
X90459290Y-87986958D01*
X90457166Y-88001276D01*
X90453649Y-88015317D01*
X90448772Y-88028946D01*
X90442583Y-88042031D01*
X90435142Y-88054447D01*
X90426519Y-88066073D01*
X90416798Y-88076798D01*
X90406073Y-88086519D01*
X90394447Y-88095142D01*
X90382031Y-88102583D01*
X90368946Y-88108772D01*
X90355317Y-88113649D01*
X90341276Y-88117166D01*
X90326958Y-88119290D01*
X90312500Y-88120000D01*
X90017500Y-88120000D01*
X90003042Y-88119290D01*
X89988724Y-88117166D01*
X89974683Y-88113649D01*
X89961054Y-88108772D01*
X89947969Y-88102583D01*
X89935553Y-88095142D01*
X89923927Y-88086519D01*
X89913202Y-88076798D01*
X89903481Y-88066073D01*
X89894858Y-88054447D01*
X89887417Y-88042031D01*
X89881228Y-88028946D01*
X89876351Y-88015317D01*
X89872834Y-88001276D01*
X89870710Y-87986958D01*
X89870000Y-87972500D01*
X89870000Y-87627500D01*
X89870710Y-87613042D01*
X89872834Y-87598724D01*
X89876351Y-87584683D01*
X89881228Y-87571054D01*
X89887417Y-87557969D01*
X89894858Y-87545553D01*
X89903481Y-87533927D01*
X89913202Y-87523202D01*
X89923927Y-87513481D01*
X89935553Y-87504858D01*
X89947969Y-87497417D01*
X89961054Y-87491228D01*
X89974683Y-87486351D01*
X89988724Y-87482834D01*
X90003042Y-87480710D01*
X90017500Y-87480000D01*
X90312500Y-87480000D01*
X90326958Y-87480710D01*
X90326958Y-87480710D01*
G37*
D11*
X90165000Y-87800000D03*
G04 #@! TD*
D10*
G04 #@! TO.C,C28*
G36*
X93321958Y-90805710D02*
X93336276Y-90807834D01*
X93350317Y-90811351D01*
X93363946Y-90816228D01*
X93377031Y-90822417D01*
X93389447Y-90829858D01*
X93401073Y-90838481D01*
X93411798Y-90848202D01*
X93421519Y-90858927D01*
X93430142Y-90870553D01*
X93437583Y-90882969D01*
X93443772Y-90896054D01*
X93448649Y-90909683D01*
X93452166Y-90923724D01*
X93454290Y-90938042D01*
X93455000Y-90952500D01*
X93455000Y-91297500D01*
X93454290Y-91311958D01*
X93452166Y-91326276D01*
X93448649Y-91340317D01*
X93443772Y-91353946D01*
X93437583Y-91367031D01*
X93430142Y-91379447D01*
X93421519Y-91391073D01*
X93411798Y-91401798D01*
X93401073Y-91411519D01*
X93389447Y-91420142D01*
X93377031Y-91427583D01*
X93363946Y-91433772D01*
X93350317Y-91438649D01*
X93336276Y-91442166D01*
X93321958Y-91444290D01*
X93307500Y-91445000D01*
X93012500Y-91445000D01*
X92998042Y-91444290D01*
X92983724Y-91442166D01*
X92969683Y-91438649D01*
X92956054Y-91433772D01*
X92942969Y-91427583D01*
X92930553Y-91420142D01*
X92918927Y-91411519D01*
X92908202Y-91401798D01*
X92898481Y-91391073D01*
X92889858Y-91379447D01*
X92882417Y-91367031D01*
X92876228Y-91353946D01*
X92871351Y-91340317D01*
X92867834Y-91326276D01*
X92865710Y-91311958D01*
X92865000Y-91297500D01*
X92865000Y-90952500D01*
X92865710Y-90938042D01*
X92867834Y-90923724D01*
X92871351Y-90909683D01*
X92876228Y-90896054D01*
X92882417Y-90882969D01*
X92889858Y-90870553D01*
X92898481Y-90858927D01*
X92908202Y-90848202D01*
X92918927Y-90838481D01*
X92930553Y-90829858D01*
X92942969Y-90822417D01*
X92956054Y-90816228D01*
X92969683Y-90811351D01*
X92983724Y-90807834D01*
X92998042Y-90805710D01*
X93012500Y-90805000D01*
X93307500Y-90805000D01*
X93321958Y-90805710D01*
X93321958Y-90805710D01*
G37*
D11*
X93160000Y-91125000D03*
D10*
G36*
X92351958Y-90805710D02*
X92366276Y-90807834D01*
X92380317Y-90811351D01*
X92393946Y-90816228D01*
X92407031Y-90822417D01*
X92419447Y-90829858D01*
X92431073Y-90838481D01*
X92441798Y-90848202D01*
X92451519Y-90858927D01*
X92460142Y-90870553D01*
X92467583Y-90882969D01*
X92473772Y-90896054D01*
X92478649Y-90909683D01*
X92482166Y-90923724D01*
X92484290Y-90938042D01*
X92485000Y-90952500D01*
X92485000Y-91297500D01*
X92484290Y-91311958D01*
X92482166Y-91326276D01*
X92478649Y-91340317D01*
X92473772Y-91353946D01*
X92467583Y-91367031D01*
X92460142Y-91379447D01*
X92451519Y-91391073D01*
X92441798Y-91401798D01*
X92431073Y-91411519D01*
X92419447Y-91420142D01*
X92407031Y-91427583D01*
X92393946Y-91433772D01*
X92380317Y-91438649D01*
X92366276Y-91442166D01*
X92351958Y-91444290D01*
X92337500Y-91445000D01*
X92042500Y-91445000D01*
X92028042Y-91444290D01*
X92013724Y-91442166D01*
X91999683Y-91438649D01*
X91986054Y-91433772D01*
X91972969Y-91427583D01*
X91960553Y-91420142D01*
X91948927Y-91411519D01*
X91938202Y-91401798D01*
X91928481Y-91391073D01*
X91919858Y-91379447D01*
X91912417Y-91367031D01*
X91906228Y-91353946D01*
X91901351Y-91340317D01*
X91897834Y-91326276D01*
X91895710Y-91311958D01*
X91895000Y-91297500D01*
X91895000Y-90952500D01*
X91895710Y-90938042D01*
X91897834Y-90923724D01*
X91901351Y-90909683D01*
X91906228Y-90896054D01*
X91912417Y-90882969D01*
X91919858Y-90870553D01*
X91928481Y-90858927D01*
X91938202Y-90848202D01*
X91948927Y-90838481D01*
X91960553Y-90829858D01*
X91972969Y-90822417D01*
X91986054Y-90816228D01*
X91999683Y-90811351D01*
X92013724Y-90807834D01*
X92028042Y-90805710D01*
X92042500Y-90805000D01*
X92337500Y-90805000D01*
X92351958Y-90805710D01*
X92351958Y-90805710D01*
G37*
D11*
X92190000Y-91125000D03*
G04 #@! TD*
D10*
G04 #@! TO.C,C29*
G36*
X90326958Y-88655710D02*
X90341276Y-88657834D01*
X90355317Y-88661351D01*
X90368946Y-88666228D01*
X90382031Y-88672417D01*
X90394447Y-88679858D01*
X90406073Y-88688481D01*
X90416798Y-88698202D01*
X90426519Y-88708927D01*
X90435142Y-88720553D01*
X90442583Y-88732969D01*
X90448772Y-88746054D01*
X90453649Y-88759683D01*
X90457166Y-88773724D01*
X90459290Y-88788042D01*
X90460000Y-88802500D01*
X90460000Y-89147500D01*
X90459290Y-89161958D01*
X90457166Y-89176276D01*
X90453649Y-89190317D01*
X90448772Y-89203946D01*
X90442583Y-89217031D01*
X90435142Y-89229447D01*
X90426519Y-89241073D01*
X90416798Y-89251798D01*
X90406073Y-89261519D01*
X90394447Y-89270142D01*
X90382031Y-89277583D01*
X90368946Y-89283772D01*
X90355317Y-89288649D01*
X90341276Y-89292166D01*
X90326958Y-89294290D01*
X90312500Y-89295000D01*
X90017500Y-89295000D01*
X90003042Y-89294290D01*
X89988724Y-89292166D01*
X89974683Y-89288649D01*
X89961054Y-89283772D01*
X89947969Y-89277583D01*
X89935553Y-89270142D01*
X89923927Y-89261519D01*
X89913202Y-89251798D01*
X89903481Y-89241073D01*
X89894858Y-89229447D01*
X89887417Y-89217031D01*
X89881228Y-89203946D01*
X89876351Y-89190317D01*
X89872834Y-89176276D01*
X89870710Y-89161958D01*
X89870000Y-89147500D01*
X89870000Y-88802500D01*
X89870710Y-88788042D01*
X89872834Y-88773724D01*
X89876351Y-88759683D01*
X89881228Y-88746054D01*
X89887417Y-88732969D01*
X89894858Y-88720553D01*
X89903481Y-88708927D01*
X89913202Y-88698202D01*
X89923927Y-88688481D01*
X89935553Y-88679858D01*
X89947969Y-88672417D01*
X89961054Y-88666228D01*
X89974683Y-88661351D01*
X89988724Y-88657834D01*
X90003042Y-88655710D01*
X90017500Y-88655000D01*
X90312500Y-88655000D01*
X90326958Y-88655710D01*
X90326958Y-88655710D01*
G37*
D11*
X90165000Y-88975000D03*
D10*
G36*
X91296958Y-88655710D02*
X91311276Y-88657834D01*
X91325317Y-88661351D01*
X91338946Y-88666228D01*
X91352031Y-88672417D01*
X91364447Y-88679858D01*
X91376073Y-88688481D01*
X91386798Y-88698202D01*
X91396519Y-88708927D01*
X91405142Y-88720553D01*
X91412583Y-88732969D01*
X91418772Y-88746054D01*
X91423649Y-88759683D01*
X91427166Y-88773724D01*
X91429290Y-88788042D01*
X91430000Y-88802500D01*
X91430000Y-89147500D01*
X91429290Y-89161958D01*
X91427166Y-89176276D01*
X91423649Y-89190317D01*
X91418772Y-89203946D01*
X91412583Y-89217031D01*
X91405142Y-89229447D01*
X91396519Y-89241073D01*
X91386798Y-89251798D01*
X91376073Y-89261519D01*
X91364447Y-89270142D01*
X91352031Y-89277583D01*
X91338946Y-89283772D01*
X91325317Y-89288649D01*
X91311276Y-89292166D01*
X91296958Y-89294290D01*
X91282500Y-89295000D01*
X90987500Y-89295000D01*
X90973042Y-89294290D01*
X90958724Y-89292166D01*
X90944683Y-89288649D01*
X90931054Y-89283772D01*
X90917969Y-89277583D01*
X90905553Y-89270142D01*
X90893927Y-89261519D01*
X90883202Y-89251798D01*
X90873481Y-89241073D01*
X90864858Y-89229447D01*
X90857417Y-89217031D01*
X90851228Y-89203946D01*
X90846351Y-89190317D01*
X90842834Y-89176276D01*
X90840710Y-89161958D01*
X90840000Y-89147500D01*
X90840000Y-88802500D01*
X90840710Y-88788042D01*
X90842834Y-88773724D01*
X90846351Y-88759683D01*
X90851228Y-88746054D01*
X90857417Y-88732969D01*
X90864858Y-88720553D01*
X90873481Y-88708927D01*
X90883202Y-88698202D01*
X90893927Y-88688481D01*
X90905553Y-88679858D01*
X90917969Y-88672417D01*
X90931054Y-88666228D01*
X90944683Y-88661351D01*
X90958724Y-88657834D01*
X90973042Y-88655710D01*
X90987500Y-88655000D01*
X91282500Y-88655000D01*
X91296958Y-88655710D01*
X91296958Y-88655710D01*
G37*
D11*
X91135000Y-88975000D03*
G04 #@! TD*
D10*
G04 #@! TO.C,R1*
G36*
X84666958Y-83780710D02*
X84681276Y-83782834D01*
X84695317Y-83786351D01*
X84708946Y-83791228D01*
X84722031Y-83797417D01*
X84734447Y-83804858D01*
X84746073Y-83813481D01*
X84756798Y-83823202D01*
X84766519Y-83833927D01*
X84775142Y-83845553D01*
X84782583Y-83857969D01*
X84788772Y-83871054D01*
X84793649Y-83884683D01*
X84797166Y-83898724D01*
X84799290Y-83913042D01*
X84800000Y-83927500D01*
X84800000Y-84222500D01*
X84799290Y-84236958D01*
X84797166Y-84251276D01*
X84793649Y-84265317D01*
X84788772Y-84278946D01*
X84782583Y-84292031D01*
X84775142Y-84304447D01*
X84766519Y-84316073D01*
X84756798Y-84326798D01*
X84746073Y-84336519D01*
X84734447Y-84345142D01*
X84722031Y-84352583D01*
X84708946Y-84358772D01*
X84695317Y-84363649D01*
X84681276Y-84367166D01*
X84666958Y-84369290D01*
X84652500Y-84370000D01*
X84307500Y-84370000D01*
X84293042Y-84369290D01*
X84278724Y-84367166D01*
X84264683Y-84363649D01*
X84251054Y-84358772D01*
X84237969Y-84352583D01*
X84225553Y-84345142D01*
X84213927Y-84336519D01*
X84203202Y-84326798D01*
X84193481Y-84316073D01*
X84184858Y-84304447D01*
X84177417Y-84292031D01*
X84171228Y-84278946D01*
X84166351Y-84265317D01*
X84162834Y-84251276D01*
X84160710Y-84236958D01*
X84160000Y-84222500D01*
X84160000Y-83927500D01*
X84160710Y-83913042D01*
X84162834Y-83898724D01*
X84166351Y-83884683D01*
X84171228Y-83871054D01*
X84177417Y-83857969D01*
X84184858Y-83845553D01*
X84193481Y-83833927D01*
X84203202Y-83823202D01*
X84213927Y-83813481D01*
X84225553Y-83804858D01*
X84237969Y-83797417D01*
X84251054Y-83791228D01*
X84264683Y-83786351D01*
X84278724Y-83782834D01*
X84293042Y-83780710D01*
X84307500Y-83780000D01*
X84652500Y-83780000D01*
X84666958Y-83780710D01*
X84666958Y-83780710D01*
G37*
D11*
X84480000Y-84075000D03*
D10*
G36*
X84666958Y-84750710D02*
X84681276Y-84752834D01*
X84695317Y-84756351D01*
X84708946Y-84761228D01*
X84722031Y-84767417D01*
X84734447Y-84774858D01*
X84746073Y-84783481D01*
X84756798Y-84793202D01*
X84766519Y-84803927D01*
X84775142Y-84815553D01*
X84782583Y-84827969D01*
X84788772Y-84841054D01*
X84793649Y-84854683D01*
X84797166Y-84868724D01*
X84799290Y-84883042D01*
X84800000Y-84897500D01*
X84800000Y-85192500D01*
X84799290Y-85206958D01*
X84797166Y-85221276D01*
X84793649Y-85235317D01*
X84788772Y-85248946D01*
X84782583Y-85262031D01*
X84775142Y-85274447D01*
X84766519Y-85286073D01*
X84756798Y-85296798D01*
X84746073Y-85306519D01*
X84734447Y-85315142D01*
X84722031Y-85322583D01*
X84708946Y-85328772D01*
X84695317Y-85333649D01*
X84681276Y-85337166D01*
X84666958Y-85339290D01*
X84652500Y-85340000D01*
X84307500Y-85340000D01*
X84293042Y-85339290D01*
X84278724Y-85337166D01*
X84264683Y-85333649D01*
X84251054Y-85328772D01*
X84237969Y-85322583D01*
X84225553Y-85315142D01*
X84213927Y-85306519D01*
X84203202Y-85296798D01*
X84193481Y-85286073D01*
X84184858Y-85274447D01*
X84177417Y-85262031D01*
X84171228Y-85248946D01*
X84166351Y-85235317D01*
X84162834Y-85221276D01*
X84160710Y-85206958D01*
X84160000Y-85192500D01*
X84160000Y-84897500D01*
X84160710Y-84883042D01*
X84162834Y-84868724D01*
X84166351Y-84854683D01*
X84171228Y-84841054D01*
X84177417Y-84827969D01*
X84184858Y-84815553D01*
X84193481Y-84803927D01*
X84203202Y-84793202D01*
X84213927Y-84783481D01*
X84225553Y-84774858D01*
X84237969Y-84767417D01*
X84251054Y-84761228D01*
X84264683Y-84756351D01*
X84278724Y-84752834D01*
X84293042Y-84750710D01*
X84307500Y-84750000D01*
X84652500Y-84750000D01*
X84666958Y-84750710D01*
X84666958Y-84750710D01*
G37*
D11*
X84480000Y-85045000D03*
G04 #@! TD*
D10*
G04 #@! TO.C,R2*
G36*
X91296958Y-86320710D02*
X91311276Y-86322834D01*
X91325317Y-86326351D01*
X91338946Y-86331228D01*
X91352031Y-86337417D01*
X91364447Y-86344858D01*
X91376073Y-86353481D01*
X91386798Y-86363202D01*
X91396519Y-86373927D01*
X91405142Y-86385553D01*
X91412583Y-86397969D01*
X91418772Y-86411054D01*
X91423649Y-86424683D01*
X91427166Y-86438724D01*
X91429290Y-86453042D01*
X91430000Y-86467500D01*
X91430000Y-86812500D01*
X91429290Y-86826958D01*
X91427166Y-86841276D01*
X91423649Y-86855317D01*
X91418772Y-86868946D01*
X91412583Y-86882031D01*
X91405142Y-86894447D01*
X91396519Y-86906073D01*
X91386798Y-86916798D01*
X91376073Y-86926519D01*
X91364447Y-86935142D01*
X91352031Y-86942583D01*
X91338946Y-86948772D01*
X91325317Y-86953649D01*
X91311276Y-86957166D01*
X91296958Y-86959290D01*
X91282500Y-86960000D01*
X90987500Y-86960000D01*
X90973042Y-86959290D01*
X90958724Y-86957166D01*
X90944683Y-86953649D01*
X90931054Y-86948772D01*
X90917969Y-86942583D01*
X90905553Y-86935142D01*
X90893927Y-86926519D01*
X90883202Y-86916798D01*
X90873481Y-86906073D01*
X90864858Y-86894447D01*
X90857417Y-86882031D01*
X90851228Y-86868946D01*
X90846351Y-86855317D01*
X90842834Y-86841276D01*
X90840710Y-86826958D01*
X90840000Y-86812500D01*
X90840000Y-86467500D01*
X90840710Y-86453042D01*
X90842834Y-86438724D01*
X90846351Y-86424683D01*
X90851228Y-86411054D01*
X90857417Y-86397969D01*
X90864858Y-86385553D01*
X90873481Y-86373927D01*
X90883202Y-86363202D01*
X90893927Y-86353481D01*
X90905553Y-86344858D01*
X90917969Y-86337417D01*
X90931054Y-86331228D01*
X90944683Y-86326351D01*
X90958724Y-86322834D01*
X90973042Y-86320710D01*
X90987500Y-86320000D01*
X91282500Y-86320000D01*
X91296958Y-86320710D01*
X91296958Y-86320710D01*
G37*
D11*
X91135000Y-86640000D03*
D10*
G36*
X90326958Y-86320710D02*
X90341276Y-86322834D01*
X90355317Y-86326351D01*
X90368946Y-86331228D01*
X90382031Y-86337417D01*
X90394447Y-86344858D01*
X90406073Y-86353481D01*
X90416798Y-86363202D01*
X90426519Y-86373927D01*
X90435142Y-86385553D01*
X90442583Y-86397969D01*
X90448772Y-86411054D01*
X90453649Y-86424683D01*
X90457166Y-86438724D01*
X90459290Y-86453042D01*
X90460000Y-86467500D01*
X90460000Y-86812500D01*
X90459290Y-86826958D01*
X90457166Y-86841276D01*
X90453649Y-86855317D01*
X90448772Y-86868946D01*
X90442583Y-86882031D01*
X90435142Y-86894447D01*
X90426519Y-86906073D01*
X90416798Y-86916798D01*
X90406073Y-86926519D01*
X90394447Y-86935142D01*
X90382031Y-86942583D01*
X90368946Y-86948772D01*
X90355317Y-86953649D01*
X90341276Y-86957166D01*
X90326958Y-86959290D01*
X90312500Y-86960000D01*
X90017500Y-86960000D01*
X90003042Y-86959290D01*
X89988724Y-86957166D01*
X89974683Y-86953649D01*
X89961054Y-86948772D01*
X89947969Y-86942583D01*
X89935553Y-86935142D01*
X89923927Y-86926519D01*
X89913202Y-86916798D01*
X89903481Y-86906073D01*
X89894858Y-86894447D01*
X89887417Y-86882031D01*
X89881228Y-86868946D01*
X89876351Y-86855317D01*
X89872834Y-86841276D01*
X89870710Y-86826958D01*
X89870000Y-86812500D01*
X89870000Y-86467500D01*
X89870710Y-86453042D01*
X89872834Y-86438724D01*
X89876351Y-86424683D01*
X89881228Y-86411054D01*
X89887417Y-86397969D01*
X89894858Y-86385553D01*
X89903481Y-86373927D01*
X89913202Y-86363202D01*
X89923927Y-86353481D01*
X89935553Y-86344858D01*
X89947969Y-86337417D01*
X89961054Y-86331228D01*
X89974683Y-86326351D01*
X89988724Y-86322834D01*
X90003042Y-86320710D01*
X90017500Y-86320000D01*
X90312500Y-86320000D01*
X90326958Y-86320710D01*
X90326958Y-86320710D01*
G37*
D11*
X90165000Y-86640000D03*
G04 #@! TD*
D10*
G04 #@! TO.C,R3*
G36*
X90316958Y-85220710D02*
X90331276Y-85222834D01*
X90345317Y-85226351D01*
X90358946Y-85231228D01*
X90372031Y-85237417D01*
X90384447Y-85244858D01*
X90396073Y-85253481D01*
X90406798Y-85263202D01*
X90416519Y-85273927D01*
X90425142Y-85285553D01*
X90432583Y-85297969D01*
X90438772Y-85311054D01*
X90443649Y-85324683D01*
X90447166Y-85338724D01*
X90449290Y-85353042D01*
X90450000Y-85367500D01*
X90450000Y-85712500D01*
X90449290Y-85726958D01*
X90447166Y-85741276D01*
X90443649Y-85755317D01*
X90438772Y-85768946D01*
X90432583Y-85782031D01*
X90425142Y-85794447D01*
X90416519Y-85806073D01*
X90406798Y-85816798D01*
X90396073Y-85826519D01*
X90384447Y-85835142D01*
X90372031Y-85842583D01*
X90358946Y-85848772D01*
X90345317Y-85853649D01*
X90331276Y-85857166D01*
X90316958Y-85859290D01*
X90302500Y-85860000D01*
X90007500Y-85860000D01*
X89993042Y-85859290D01*
X89978724Y-85857166D01*
X89964683Y-85853649D01*
X89951054Y-85848772D01*
X89937969Y-85842583D01*
X89925553Y-85835142D01*
X89913927Y-85826519D01*
X89903202Y-85816798D01*
X89893481Y-85806073D01*
X89884858Y-85794447D01*
X89877417Y-85782031D01*
X89871228Y-85768946D01*
X89866351Y-85755317D01*
X89862834Y-85741276D01*
X89860710Y-85726958D01*
X89860000Y-85712500D01*
X89860000Y-85367500D01*
X89860710Y-85353042D01*
X89862834Y-85338724D01*
X89866351Y-85324683D01*
X89871228Y-85311054D01*
X89877417Y-85297969D01*
X89884858Y-85285553D01*
X89893481Y-85273927D01*
X89903202Y-85263202D01*
X89913927Y-85253481D01*
X89925553Y-85244858D01*
X89937969Y-85237417D01*
X89951054Y-85231228D01*
X89964683Y-85226351D01*
X89978724Y-85222834D01*
X89993042Y-85220710D01*
X90007500Y-85220000D01*
X90302500Y-85220000D01*
X90316958Y-85220710D01*
X90316958Y-85220710D01*
G37*
D11*
X90155000Y-85540000D03*
D10*
G36*
X91286958Y-85220710D02*
X91301276Y-85222834D01*
X91315317Y-85226351D01*
X91328946Y-85231228D01*
X91342031Y-85237417D01*
X91354447Y-85244858D01*
X91366073Y-85253481D01*
X91376798Y-85263202D01*
X91386519Y-85273927D01*
X91395142Y-85285553D01*
X91402583Y-85297969D01*
X91408772Y-85311054D01*
X91413649Y-85324683D01*
X91417166Y-85338724D01*
X91419290Y-85353042D01*
X91420000Y-85367500D01*
X91420000Y-85712500D01*
X91419290Y-85726958D01*
X91417166Y-85741276D01*
X91413649Y-85755317D01*
X91408772Y-85768946D01*
X91402583Y-85782031D01*
X91395142Y-85794447D01*
X91386519Y-85806073D01*
X91376798Y-85816798D01*
X91366073Y-85826519D01*
X91354447Y-85835142D01*
X91342031Y-85842583D01*
X91328946Y-85848772D01*
X91315317Y-85853649D01*
X91301276Y-85857166D01*
X91286958Y-85859290D01*
X91272500Y-85860000D01*
X90977500Y-85860000D01*
X90963042Y-85859290D01*
X90948724Y-85857166D01*
X90934683Y-85853649D01*
X90921054Y-85848772D01*
X90907969Y-85842583D01*
X90895553Y-85835142D01*
X90883927Y-85826519D01*
X90873202Y-85816798D01*
X90863481Y-85806073D01*
X90854858Y-85794447D01*
X90847417Y-85782031D01*
X90841228Y-85768946D01*
X90836351Y-85755317D01*
X90832834Y-85741276D01*
X90830710Y-85726958D01*
X90830000Y-85712500D01*
X90830000Y-85367500D01*
X90830710Y-85353042D01*
X90832834Y-85338724D01*
X90836351Y-85324683D01*
X90841228Y-85311054D01*
X90847417Y-85297969D01*
X90854858Y-85285553D01*
X90863481Y-85273927D01*
X90873202Y-85263202D01*
X90883927Y-85253481D01*
X90895553Y-85244858D01*
X90907969Y-85237417D01*
X90921054Y-85231228D01*
X90934683Y-85226351D01*
X90948724Y-85222834D01*
X90963042Y-85220710D01*
X90977500Y-85220000D01*
X91272500Y-85220000D01*
X91286958Y-85220710D01*
X91286958Y-85220710D01*
G37*
D11*
X91125000Y-85540000D03*
G04 #@! TD*
D10*
G04 #@! TO.C,R4*
G36*
X88396958Y-95155710D02*
X88411276Y-95157834D01*
X88425317Y-95161351D01*
X88438946Y-95166228D01*
X88452031Y-95172417D01*
X88464447Y-95179858D01*
X88476073Y-95188481D01*
X88486798Y-95198202D01*
X88496519Y-95208927D01*
X88505142Y-95220553D01*
X88512583Y-95232969D01*
X88518772Y-95246054D01*
X88523649Y-95259683D01*
X88527166Y-95273724D01*
X88529290Y-95288042D01*
X88530000Y-95302500D01*
X88530000Y-95647500D01*
X88529290Y-95661958D01*
X88527166Y-95676276D01*
X88523649Y-95690317D01*
X88518772Y-95703946D01*
X88512583Y-95717031D01*
X88505142Y-95729447D01*
X88496519Y-95741073D01*
X88486798Y-95751798D01*
X88476073Y-95761519D01*
X88464447Y-95770142D01*
X88452031Y-95777583D01*
X88438946Y-95783772D01*
X88425317Y-95788649D01*
X88411276Y-95792166D01*
X88396958Y-95794290D01*
X88382500Y-95795000D01*
X88087500Y-95795000D01*
X88073042Y-95794290D01*
X88058724Y-95792166D01*
X88044683Y-95788649D01*
X88031054Y-95783772D01*
X88017969Y-95777583D01*
X88005553Y-95770142D01*
X87993927Y-95761519D01*
X87983202Y-95751798D01*
X87973481Y-95741073D01*
X87964858Y-95729447D01*
X87957417Y-95717031D01*
X87951228Y-95703946D01*
X87946351Y-95690317D01*
X87942834Y-95676276D01*
X87940710Y-95661958D01*
X87940000Y-95647500D01*
X87940000Y-95302500D01*
X87940710Y-95288042D01*
X87942834Y-95273724D01*
X87946351Y-95259683D01*
X87951228Y-95246054D01*
X87957417Y-95232969D01*
X87964858Y-95220553D01*
X87973481Y-95208927D01*
X87983202Y-95198202D01*
X87993927Y-95188481D01*
X88005553Y-95179858D01*
X88017969Y-95172417D01*
X88031054Y-95166228D01*
X88044683Y-95161351D01*
X88058724Y-95157834D01*
X88073042Y-95155710D01*
X88087500Y-95155000D01*
X88382500Y-95155000D01*
X88396958Y-95155710D01*
X88396958Y-95155710D01*
G37*
D11*
X88235000Y-95475000D03*
D10*
G36*
X87426958Y-95155710D02*
X87441276Y-95157834D01*
X87455317Y-95161351D01*
X87468946Y-95166228D01*
X87482031Y-95172417D01*
X87494447Y-95179858D01*
X87506073Y-95188481D01*
X87516798Y-95198202D01*
X87526519Y-95208927D01*
X87535142Y-95220553D01*
X87542583Y-95232969D01*
X87548772Y-95246054D01*
X87553649Y-95259683D01*
X87557166Y-95273724D01*
X87559290Y-95288042D01*
X87560000Y-95302500D01*
X87560000Y-95647500D01*
X87559290Y-95661958D01*
X87557166Y-95676276D01*
X87553649Y-95690317D01*
X87548772Y-95703946D01*
X87542583Y-95717031D01*
X87535142Y-95729447D01*
X87526519Y-95741073D01*
X87516798Y-95751798D01*
X87506073Y-95761519D01*
X87494447Y-95770142D01*
X87482031Y-95777583D01*
X87468946Y-95783772D01*
X87455317Y-95788649D01*
X87441276Y-95792166D01*
X87426958Y-95794290D01*
X87412500Y-95795000D01*
X87117500Y-95795000D01*
X87103042Y-95794290D01*
X87088724Y-95792166D01*
X87074683Y-95788649D01*
X87061054Y-95783772D01*
X87047969Y-95777583D01*
X87035553Y-95770142D01*
X87023927Y-95761519D01*
X87013202Y-95751798D01*
X87003481Y-95741073D01*
X86994858Y-95729447D01*
X86987417Y-95717031D01*
X86981228Y-95703946D01*
X86976351Y-95690317D01*
X86972834Y-95676276D01*
X86970710Y-95661958D01*
X86970000Y-95647500D01*
X86970000Y-95302500D01*
X86970710Y-95288042D01*
X86972834Y-95273724D01*
X86976351Y-95259683D01*
X86981228Y-95246054D01*
X86987417Y-95232969D01*
X86994858Y-95220553D01*
X87003481Y-95208927D01*
X87013202Y-95198202D01*
X87023927Y-95188481D01*
X87035553Y-95179858D01*
X87047969Y-95172417D01*
X87061054Y-95166228D01*
X87074683Y-95161351D01*
X87088724Y-95157834D01*
X87103042Y-95155710D01*
X87117500Y-95155000D01*
X87412500Y-95155000D01*
X87426958Y-95155710D01*
X87426958Y-95155710D01*
G37*
D11*
X87265000Y-95475000D03*
G04 #@! TD*
D10*
G04 #@! TO.C,R5*
G36*
X85771958Y-95155710D02*
X85786276Y-95157834D01*
X85800317Y-95161351D01*
X85813946Y-95166228D01*
X85827031Y-95172417D01*
X85839447Y-95179858D01*
X85851073Y-95188481D01*
X85861798Y-95198202D01*
X85871519Y-95208927D01*
X85880142Y-95220553D01*
X85887583Y-95232969D01*
X85893772Y-95246054D01*
X85898649Y-95259683D01*
X85902166Y-95273724D01*
X85904290Y-95288042D01*
X85905000Y-95302500D01*
X85905000Y-95647500D01*
X85904290Y-95661958D01*
X85902166Y-95676276D01*
X85898649Y-95690317D01*
X85893772Y-95703946D01*
X85887583Y-95717031D01*
X85880142Y-95729447D01*
X85871519Y-95741073D01*
X85861798Y-95751798D01*
X85851073Y-95761519D01*
X85839447Y-95770142D01*
X85827031Y-95777583D01*
X85813946Y-95783772D01*
X85800317Y-95788649D01*
X85786276Y-95792166D01*
X85771958Y-95794290D01*
X85757500Y-95795000D01*
X85462500Y-95795000D01*
X85448042Y-95794290D01*
X85433724Y-95792166D01*
X85419683Y-95788649D01*
X85406054Y-95783772D01*
X85392969Y-95777583D01*
X85380553Y-95770142D01*
X85368927Y-95761519D01*
X85358202Y-95751798D01*
X85348481Y-95741073D01*
X85339858Y-95729447D01*
X85332417Y-95717031D01*
X85326228Y-95703946D01*
X85321351Y-95690317D01*
X85317834Y-95676276D01*
X85315710Y-95661958D01*
X85315000Y-95647500D01*
X85315000Y-95302500D01*
X85315710Y-95288042D01*
X85317834Y-95273724D01*
X85321351Y-95259683D01*
X85326228Y-95246054D01*
X85332417Y-95232969D01*
X85339858Y-95220553D01*
X85348481Y-95208927D01*
X85358202Y-95198202D01*
X85368927Y-95188481D01*
X85380553Y-95179858D01*
X85392969Y-95172417D01*
X85406054Y-95166228D01*
X85419683Y-95161351D01*
X85433724Y-95157834D01*
X85448042Y-95155710D01*
X85462500Y-95155000D01*
X85757500Y-95155000D01*
X85771958Y-95155710D01*
X85771958Y-95155710D01*
G37*
D11*
X85610000Y-95475000D03*
D10*
G36*
X84801958Y-95155710D02*
X84816276Y-95157834D01*
X84830317Y-95161351D01*
X84843946Y-95166228D01*
X84857031Y-95172417D01*
X84869447Y-95179858D01*
X84881073Y-95188481D01*
X84891798Y-95198202D01*
X84901519Y-95208927D01*
X84910142Y-95220553D01*
X84917583Y-95232969D01*
X84923772Y-95246054D01*
X84928649Y-95259683D01*
X84932166Y-95273724D01*
X84934290Y-95288042D01*
X84935000Y-95302500D01*
X84935000Y-95647500D01*
X84934290Y-95661958D01*
X84932166Y-95676276D01*
X84928649Y-95690317D01*
X84923772Y-95703946D01*
X84917583Y-95717031D01*
X84910142Y-95729447D01*
X84901519Y-95741073D01*
X84891798Y-95751798D01*
X84881073Y-95761519D01*
X84869447Y-95770142D01*
X84857031Y-95777583D01*
X84843946Y-95783772D01*
X84830317Y-95788649D01*
X84816276Y-95792166D01*
X84801958Y-95794290D01*
X84787500Y-95795000D01*
X84492500Y-95795000D01*
X84478042Y-95794290D01*
X84463724Y-95792166D01*
X84449683Y-95788649D01*
X84436054Y-95783772D01*
X84422969Y-95777583D01*
X84410553Y-95770142D01*
X84398927Y-95761519D01*
X84388202Y-95751798D01*
X84378481Y-95741073D01*
X84369858Y-95729447D01*
X84362417Y-95717031D01*
X84356228Y-95703946D01*
X84351351Y-95690317D01*
X84347834Y-95676276D01*
X84345710Y-95661958D01*
X84345000Y-95647500D01*
X84345000Y-95302500D01*
X84345710Y-95288042D01*
X84347834Y-95273724D01*
X84351351Y-95259683D01*
X84356228Y-95246054D01*
X84362417Y-95232969D01*
X84369858Y-95220553D01*
X84378481Y-95208927D01*
X84388202Y-95198202D01*
X84398927Y-95188481D01*
X84410553Y-95179858D01*
X84422969Y-95172417D01*
X84436054Y-95166228D01*
X84449683Y-95161351D01*
X84463724Y-95157834D01*
X84478042Y-95155710D01*
X84492500Y-95155000D01*
X84787500Y-95155000D01*
X84801958Y-95155710D01*
X84801958Y-95155710D01*
G37*
D11*
X84640000Y-95475000D03*
G04 #@! TD*
D10*
G04 #@! TO.C,R6*
G36*
X85606958Y-81480710D02*
X85621276Y-81482834D01*
X85635317Y-81486351D01*
X85648946Y-81491228D01*
X85662031Y-81497417D01*
X85674447Y-81504858D01*
X85686073Y-81513481D01*
X85696798Y-81523202D01*
X85706519Y-81533927D01*
X85715142Y-81545553D01*
X85722583Y-81557969D01*
X85728772Y-81571054D01*
X85733649Y-81584683D01*
X85737166Y-81598724D01*
X85739290Y-81613042D01*
X85740000Y-81627500D01*
X85740000Y-81922500D01*
X85739290Y-81936958D01*
X85737166Y-81951276D01*
X85733649Y-81965317D01*
X85728772Y-81978946D01*
X85722583Y-81992031D01*
X85715142Y-82004447D01*
X85706519Y-82016073D01*
X85696798Y-82026798D01*
X85686073Y-82036519D01*
X85674447Y-82045142D01*
X85662031Y-82052583D01*
X85648946Y-82058772D01*
X85635317Y-82063649D01*
X85621276Y-82067166D01*
X85606958Y-82069290D01*
X85592500Y-82070000D01*
X85247500Y-82070000D01*
X85233042Y-82069290D01*
X85218724Y-82067166D01*
X85204683Y-82063649D01*
X85191054Y-82058772D01*
X85177969Y-82052583D01*
X85165553Y-82045142D01*
X85153927Y-82036519D01*
X85143202Y-82026798D01*
X85133481Y-82016073D01*
X85124858Y-82004447D01*
X85117417Y-81992031D01*
X85111228Y-81978946D01*
X85106351Y-81965317D01*
X85102834Y-81951276D01*
X85100710Y-81936958D01*
X85100000Y-81922500D01*
X85100000Y-81627500D01*
X85100710Y-81613042D01*
X85102834Y-81598724D01*
X85106351Y-81584683D01*
X85111228Y-81571054D01*
X85117417Y-81557969D01*
X85124858Y-81545553D01*
X85133481Y-81533927D01*
X85143202Y-81523202D01*
X85153927Y-81513481D01*
X85165553Y-81504858D01*
X85177969Y-81497417D01*
X85191054Y-81491228D01*
X85204683Y-81486351D01*
X85218724Y-81482834D01*
X85233042Y-81480710D01*
X85247500Y-81480000D01*
X85592500Y-81480000D01*
X85606958Y-81480710D01*
X85606958Y-81480710D01*
G37*
D11*
X85420000Y-81775000D03*
D10*
G36*
X85606958Y-82450710D02*
X85621276Y-82452834D01*
X85635317Y-82456351D01*
X85648946Y-82461228D01*
X85662031Y-82467417D01*
X85674447Y-82474858D01*
X85686073Y-82483481D01*
X85696798Y-82493202D01*
X85706519Y-82503927D01*
X85715142Y-82515553D01*
X85722583Y-82527969D01*
X85728772Y-82541054D01*
X85733649Y-82554683D01*
X85737166Y-82568724D01*
X85739290Y-82583042D01*
X85740000Y-82597500D01*
X85740000Y-82892500D01*
X85739290Y-82906958D01*
X85737166Y-82921276D01*
X85733649Y-82935317D01*
X85728772Y-82948946D01*
X85722583Y-82962031D01*
X85715142Y-82974447D01*
X85706519Y-82986073D01*
X85696798Y-82996798D01*
X85686073Y-83006519D01*
X85674447Y-83015142D01*
X85662031Y-83022583D01*
X85648946Y-83028772D01*
X85635317Y-83033649D01*
X85621276Y-83037166D01*
X85606958Y-83039290D01*
X85592500Y-83040000D01*
X85247500Y-83040000D01*
X85233042Y-83039290D01*
X85218724Y-83037166D01*
X85204683Y-83033649D01*
X85191054Y-83028772D01*
X85177969Y-83022583D01*
X85165553Y-83015142D01*
X85153927Y-83006519D01*
X85143202Y-82996798D01*
X85133481Y-82986073D01*
X85124858Y-82974447D01*
X85117417Y-82962031D01*
X85111228Y-82948946D01*
X85106351Y-82935317D01*
X85102834Y-82921276D01*
X85100710Y-82906958D01*
X85100000Y-82892500D01*
X85100000Y-82597500D01*
X85100710Y-82583042D01*
X85102834Y-82568724D01*
X85106351Y-82554683D01*
X85111228Y-82541054D01*
X85117417Y-82527969D01*
X85124858Y-82515553D01*
X85133481Y-82503927D01*
X85143202Y-82493202D01*
X85153927Y-82483481D01*
X85165553Y-82474858D01*
X85177969Y-82467417D01*
X85191054Y-82461228D01*
X85204683Y-82456351D01*
X85218724Y-82452834D01*
X85233042Y-82450710D01*
X85247500Y-82450000D01*
X85592500Y-82450000D01*
X85606958Y-82450710D01*
X85606958Y-82450710D01*
G37*
D11*
X85420000Y-82745000D03*
G04 #@! TD*
D10*
G04 #@! TO.C,R7*
G36*
X93426958Y-86780710D02*
X93441276Y-86782834D01*
X93455317Y-86786351D01*
X93468946Y-86791228D01*
X93482031Y-86797417D01*
X93494447Y-86804858D01*
X93506073Y-86813481D01*
X93516798Y-86823202D01*
X93526519Y-86833927D01*
X93535142Y-86845553D01*
X93542583Y-86857969D01*
X93548772Y-86871054D01*
X93553649Y-86884683D01*
X93557166Y-86898724D01*
X93559290Y-86913042D01*
X93560000Y-86927500D01*
X93560000Y-87272500D01*
X93559290Y-87286958D01*
X93557166Y-87301276D01*
X93553649Y-87315317D01*
X93548772Y-87328946D01*
X93542583Y-87342031D01*
X93535142Y-87354447D01*
X93526519Y-87366073D01*
X93516798Y-87376798D01*
X93506073Y-87386519D01*
X93494447Y-87395142D01*
X93482031Y-87402583D01*
X93468946Y-87408772D01*
X93455317Y-87413649D01*
X93441276Y-87417166D01*
X93426958Y-87419290D01*
X93412500Y-87420000D01*
X93117500Y-87420000D01*
X93103042Y-87419290D01*
X93088724Y-87417166D01*
X93074683Y-87413649D01*
X93061054Y-87408772D01*
X93047969Y-87402583D01*
X93035553Y-87395142D01*
X93023927Y-87386519D01*
X93013202Y-87376798D01*
X93003481Y-87366073D01*
X92994858Y-87354447D01*
X92987417Y-87342031D01*
X92981228Y-87328946D01*
X92976351Y-87315317D01*
X92972834Y-87301276D01*
X92970710Y-87286958D01*
X92970000Y-87272500D01*
X92970000Y-86927500D01*
X92970710Y-86913042D01*
X92972834Y-86898724D01*
X92976351Y-86884683D01*
X92981228Y-86871054D01*
X92987417Y-86857969D01*
X92994858Y-86845553D01*
X93003481Y-86833927D01*
X93013202Y-86823202D01*
X93023927Y-86813481D01*
X93035553Y-86804858D01*
X93047969Y-86797417D01*
X93061054Y-86791228D01*
X93074683Y-86786351D01*
X93088724Y-86782834D01*
X93103042Y-86780710D01*
X93117500Y-86780000D01*
X93412500Y-86780000D01*
X93426958Y-86780710D01*
X93426958Y-86780710D01*
G37*
D11*
X93265000Y-87100000D03*
D10*
G36*
X94396958Y-86780710D02*
X94411276Y-86782834D01*
X94425317Y-86786351D01*
X94438946Y-86791228D01*
X94452031Y-86797417D01*
X94464447Y-86804858D01*
X94476073Y-86813481D01*
X94486798Y-86823202D01*
X94496519Y-86833927D01*
X94505142Y-86845553D01*
X94512583Y-86857969D01*
X94518772Y-86871054D01*
X94523649Y-86884683D01*
X94527166Y-86898724D01*
X94529290Y-86913042D01*
X94530000Y-86927500D01*
X94530000Y-87272500D01*
X94529290Y-87286958D01*
X94527166Y-87301276D01*
X94523649Y-87315317D01*
X94518772Y-87328946D01*
X94512583Y-87342031D01*
X94505142Y-87354447D01*
X94496519Y-87366073D01*
X94486798Y-87376798D01*
X94476073Y-87386519D01*
X94464447Y-87395142D01*
X94452031Y-87402583D01*
X94438946Y-87408772D01*
X94425317Y-87413649D01*
X94411276Y-87417166D01*
X94396958Y-87419290D01*
X94382500Y-87420000D01*
X94087500Y-87420000D01*
X94073042Y-87419290D01*
X94058724Y-87417166D01*
X94044683Y-87413649D01*
X94031054Y-87408772D01*
X94017969Y-87402583D01*
X94005553Y-87395142D01*
X93993927Y-87386519D01*
X93983202Y-87376798D01*
X93973481Y-87366073D01*
X93964858Y-87354447D01*
X93957417Y-87342031D01*
X93951228Y-87328946D01*
X93946351Y-87315317D01*
X93942834Y-87301276D01*
X93940710Y-87286958D01*
X93940000Y-87272500D01*
X93940000Y-86927500D01*
X93940710Y-86913042D01*
X93942834Y-86898724D01*
X93946351Y-86884683D01*
X93951228Y-86871054D01*
X93957417Y-86857969D01*
X93964858Y-86845553D01*
X93973481Y-86833927D01*
X93983202Y-86823202D01*
X93993927Y-86813481D01*
X94005553Y-86804858D01*
X94017969Y-86797417D01*
X94031054Y-86791228D01*
X94044683Y-86786351D01*
X94058724Y-86782834D01*
X94073042Y-86780710D01*
X94087500Y-86780000D01*
X94382500Y-86780000D01*
X94396958Y-86780710D01*
X94396958Y-86780710D01*
G37*
D11*
X94235000Y-87100000D03*
G04 #@! TD*
D10*
G04 #@! TO.C,R8*
G36*
X91386958Y-89745710D02*
X91401276Y-89747834D01*
X91415317Y-89751351D01*
X91428946Y-89756228D01*
X91442031Y-89762417D01*
X91454447Y-89769858D01*
X91466073Y-89778481D01*
X91476798Y-89788202D01*
X91486519Y-89798927D01*
X91495142Y-89810553D01*
X91502583Y-89822969D01*
X91508772Y-89836054D01*
X91513649Y-89849683D01*
X91517166Y-89863724D01*
X91519290Y-89878042D01*
X91520000Y-89892500D01*
X91520000Y-90187500D01*
X91519290Y-90201958D01*
X91517166Y-90216276D01*
X91513649Y-90230317D01*
X91508772Y-90243946D01*
X91502583Y-90257031D01*
X91495142Y-90269447D01*
X91486519Y-90281073D01*
X91476798Y-90291798D01*
X91466073Y-90301519D01*
X91454447Y-90310142D01*
X91442031Y-90317583D01*
X91428946Y-90323772D01*
X91415317Y-90328649D01*
X91401276Y-90332166D01*
X91386958Y-90334290D01*
X91372500Y-90335000D01*
X91027500Y-90335000D01*
X91013042Y-90334290D01*
X90998724Y-90332166D01*
X90984683Y-90328649D01*
X90971054Y-90323772D01*
X90957969Y-90317583D01*
X90945553Y-90310142D01*
X90933927Y-90301519D01*
X90923202Y-90291798D01*
X90913481Y-90281073D01*
X90904858Y-90269447D01*
X90897417Y-90257031D01*
X90891228Y-90243946D01*
X90886351Y-90230317D01*
X90882834Y-90216276D01*
X90880710Y-90201958D01*
X90880000Y-90187500D01*
X90880000Y-89892500D01*
X90880710Y-89878042D01*
X90882834Y-89863724D01*
X90886351Y-89849683D01*
X90891228Y-89836054D01*
X90897417Y-89822969D01*
X90904858Y-89810553D01*
X90913481Y-89798927D01*
X90923202Y-89788202D01*
X90933927Y-89778481D01*
X90945553Y-89769858D01*
X90957969Y-89762417D01*
X90971054Y-89756228D01*
X90984683Y-89751351D01*
X90998724Y-89747834D01*
X91013042Y-89745710D01*
X91027500Y-89745000D01*
X91372500Y-89745000D01*
X91386958Y-89745710D01*
X91386958Y-89745710D01*
G37*
D11*
X91200000Y-90040000D03*
D10*
G36*
X91386958Y-90715710D02*
X91401276Y-90717834D01*
X91415317Y-90721351D01*
X91428946Y-90726228D01*
X91442031Y-90732417D01*
X91454447Y-90739858D01*
X91466073Y-90748481D01*
X91476798Y-90758202D01*
X91486519Y-90768927D01*
X91495142Y-90780553D01*
X91502583Y-90792969D01*
X91508772Y-90806054D01*
X91513649Y-90819683D01*
X91517166Y-90833724D01*
X91519290Y-90848042D01*
X91520000Y-90862500D01*
X91520000Y-91157500D01*
X91519290Y-91171958D01*
X91517166Y-91186276D01*
X91513649Y-91200317D01*
X91508772Y-91213946D01*
X91502583Y-91227031D01*
X91495142Y-91239447D01*
X91486519Y-91251073D01*
X91476798Y-91261798D01*
X91466073Y-91271519D01*
X91454447Y-91280142D01*
X91442031Y-91287583D01*
X91428946Y-91293772D01*
X91415317Y-91298649D01*
X91401276Y-91302166D01*
X91386958Y-91304290D01*
X91372500Y-91305000D01*
X91027500Y-91305000D01*
X91013042Y-91304290D01*
X90998724Y-91302166D01*
X90984683Y-91298649D01*
X90971054Y-91293772D01*
X90957969Y-91287583D01*
X90945553Y-91280142D01*
X90933927Y-91271519D01*
X90923202Y-91261798D01*
X90913481Y-91251073D01*
X90904858Y-91239447D01*
X90897417Y-91227031D01*
X90891228Y-91213946D01*
X90886351Y-91200317D01*
X90882834Y-91186276D01*
X90880710Y-91171958D01*
X90880000Y-91157500D01*
X90880000Y-90862500D01*
X90880710Y-90848042D01*
X90882834Y-90833724D01*
X90886351Y-90819683D01*
X90891228Y-90806054D01*
X90897417Y-90792969D01*
X90904858Y-90780553D01*
X90913481Y-90768927D01*
X90923202Y-90758202D01*
X90933927Y-90748481D01*
X90945553Y-90739858D01*
X90957969Y-90732417D01*
X90971054Y-90726228D01*
X90984683Y-90721351D01*
X90998724Y-90717834D01*
X91013042Y-90715710D01*
X91027500Y-90715000D01*
X91372500Y-90715000D01*
X91386958Y-90715710D01*
X91386958Y-90715710D01*
G37*
D11*
X91200000Y-91010000D03*
G04 #@! TD*
D19*
G04 #@! TO.C,U1*
X75860000Y-102920000D03*
D20*
X69560000Y-102920000D03*
X69560000Y-105220000D03*
X69560000Y-100620000D03*
G04 #@! TD*
D21*
G04 #@! TO.C,U2*
X63890000Y-77100000D03*
X63890000Y-78050000D03*
X63890000Y-79000000D03*
X66090000Y-79000000D03*
X66090000Y-77100000D03*
G04 #@! TD*
D22*
G04 #@! TO.C,U4*
X72640000Y-84450000D03*
X72640000Y-83150000D03*
X72640000Y-83800000D03*
X70740000Y-83150000D03*
X70740000Y-84450000D03*
G04 #@! TD*
M02*
