G04 #@! TF.GenerationSoftware,KiCad,Pcbnew,(5.0.2)-1*
G04 #@! TF.CreationDate,2019-01-06T11:57:03+11:00*
G04 #@! TF.ProjectId,MAX2870_Dev_Rev_0,4d415832-3837-4305-9f44-65765f526576,rev?*
G04 #@! TF.SameCoordinates,Original*
G04 #@! TF.FileFunction,Copper,L4,Bot*
G04 #@! TF.FilePolarity,Positive*
%FSLAX46Y46*%
G04 Gerber Fmt 4.6, Leading zero omitted, Abs format (unit mm)*
G04 Created by KiCad (PCBNEW (5.0.2)-1) date 6/01/2019 11:57:03*
%MOMM*%
%LPD*%
G01*
G04 APERTURE LIST*
%ADD10C,0.200000*%
G04 #@! TA.AperFunction,SMDPad,CuDef*
%ADD11R,4.200000X1.350000*%
G04 #@! TD*
G04 #@! TA.AperFunction,ViaPad*
%ADD12C,0.600000*%
G04 #@! TD*
G04 #@! TA.AperFunction,ComponentPad*
%ADD13C,0.800000*%
G04 #@! TD*
G04 #@! TA.AperFunction,ComponentPad*
%ADD14C,6.400000*%
G04 #@! TD*
G04 #@! TA.AperFunction,ComponentPad*
%ADD15R,1.700000X1.700000*%
G04 #@! TD*
G04 #@! TA.AperFunction,ComponentPad*
%ADD16O,1.700000X1.700000*%
G04 #@! TD*
G04 #@! TA.AperFunction,ViaPad*
%ADD17C,0.800000*%
G04 #@! TD*
G04 #@! TA.AperFunction,ViaPad*
%ADD18C,0.450000*%
G04 #@! TD*
G04 #@! TA.AperFunction,Conductor*
%ADD19C,0.400000*%
G04 #@! TD*
G04 #@! TA.AperFunction,Conductor*
%ADD20C,0.250000*%
G04 #@! TD*
G04 #@! TA.AperFunction,Conductor*
%ADD21C,0.200000*%
G04 #@! TD*
G04 #@! TA.AperFunction,Conductor*
%ADD22C,0.254000*%
G04 #@! TD*
G04 APERTURE END LIST*
G04 #@! TO.C,REF\002A\002A*
D10*
X70885714Y-109478571D02*
X70885714Y-110478571D01*
X70528571Y-108907142D02*
X70171428Y-109978571D01*
X71100000Y-109978571D01*
G04 #@! TD*
D11*
G04 #@! TO.P,J2,2*
G04 #@! TO.N,GND*
X101800000Y-86075000D03*
X101800000Y-91725000D03*
G04 #@! TD*
D12*
G04 #@! TO.N,GND*
G04 #@! TO.C,U3*
X83787500Y-89737500D03*
X83787500Y-88737500D03*
X83787500Y-87737500D03*
X84787500Y-89737500D03*
X84787500Y-88737500D03*
X84787500Y-87737500D03*
X85787500Y-89737500D03*
X85787500Y-88737500D03*
X85787500Y-87737500D03*
G04 #@! TD*
D13*
G04 #@! TO.P,H1,1*
G04 #@! TO.N,GND*
X62697056Y-69302944D03*
X61000000Y-68600000D03*
X59302944Y-69302944D03*
X58600000Y-71000000D03*
X59302944Y-72697056D03*
X61000000Y-73400000D03*
X62697056Y-72697056D03*
X63400000Y-71000000D03*
D14*
X61000000Y-71000000D03*
G04 #@! TD*
G04 #@! TO.P,H2,1*
G04 #@! TO.N,GND*
X61000000Y-109000000D03*
D13*
X63400000Y-109000000D03*
X62697056Y-110697056D03*
X61000000Y-111400000D03*
X59302944Y-110697056D03*
X58600000Y-109000000D03*
X59302944Y-107302944D03*
X61000000Y-106600000D03*
X62697056Y-107302944D03*
G04 #@! TD*
G04 #@! TO.P,H3,1*
G04 #@! TO.N,GND*
X100697056Y-107302944D03*
X99000000Y-106600000D03*
X97302944Y-107302944D03*
X96600000Y-109000000D03*
X97302944Y-110697056D03*
X99000000Y-111400000D03*
X100697056Y-110697056D03*
X101400000Y-109000000D03*
D14*
X99000000Y-109000000D03*
G04 #@! TD*
G04 #@! TO.P,H4,1*
G04 #@! TO.N,GND*
X99000000Y-71000000D03*
D13*
X101400000Y-71000000D03*
X100697056Y-72697056D03*
X99000000Y-73400000D03*
X97302944Y-72697056D03*
X96600000Y-71000000D03*
X97302944Y-69302944D03*
X99000000Y-68600000D03*
X100697056Y-69302944D03*
G04 #@! TD*
D15*
G04 #@! TO.P,J1,1*
G04 #@! TO.N,+5V*
X62380000Y-83920000D03*
D16*
G04 #@! TO.P,J1,2*
G04 #@! TO.N,GND*
X64920000Y-83920000D03*
G04 #@! TO.P,J1,3*
G04 #@! TO.N,/CE*
X62380000Y-86460000D03*
G04 #@! TO.P,J1,4*
G04 #@! TO.N,/LD*
X64920000Y-86460000D03*
G04 #@! TO.P,J1,5*
G04 #@! TO.N,/LE*
X62380000Y-89000000D03*
G04 #@! TO.P,J1,6*
G04 #@! TO.N,/RFOUT_EN*
X64920000Y-89000000D03*
G04 #@! TO.P,J1,7*
G04 #@! TO.N,/DATA*
X62380000Y-91540000D03*
G04 #@! TO.P,J1,8*
G04 #@! TO.N,/MUX_OUT*
X64920000Y-91540000D03*
G04 #@! TO.P,J1,9*
G04 #@! TO.N,/CLK*
X62380000Y-94080000D03*
G04 #@! TO.P,J1,10*
G04 #@! TO.N,Net-(J1-Pad10)*
X64920000Y-94080000D03*
G04 #@! TD*
D17*
G04 #@! TO.N,GND*
X94000000Y-91125000D03*
X95100000Y-87125000D03*
X87750000Y-94425000D03*
X89125000Y-95475000D03*
D18*
X88950000Y-82580000D03*
X90040000Y-82600000D03*
X87670000Y-82570000D03*
X86580000Y-82580000D03*
X84320000Y-81110000D03*
X84490000Y-83630000D03*
X83340000Y-83180000D03*
X82260000Y-83180000D03*
D17*
X75440000Y-90460000D03*
D18*
X72450000Y-85880000D03*
D17*
X71710000Y-83830000D03*
D18*
X73980000Y-81950000D03*
X70750000Y-90810000D03*
X79580000Y-92180000D03*
X80690000Y-92180000D03*
D17*
X60500000Y-79000000D03*
X67070000Y-102160000D03*
X69570000Y-99230000D03*
X71500000Y-97830000D03*
D18*
X80550000Y-86507978D03*
X79460000Y-86507978D03*
X97600000Y-88050000D03*
X97000000Y-88050000D03*
X96400000Y-88050000D03*
X95800000Y-88050000D03*
X97600000Y-89900000D03*
X97000000Y-89900000D03*
X96400000Y-89900000D03*
X95800000Y-89900000D03*
X95200000Y-89900000D03*
X94600000Y-89900000D03*
X94000000Y-89900000D03*
X93400000Y-89900000D03*
X92800000Y-89900000D03*
X92200000Y-89900000D03*
X95200000Y-88050000D03*
X94600000Y-88050000D03*
X94000000Y-88050000D03*
X93400000Y-88050000D03*
X92800000Y-88050000D03*
D17*
X89575000Y-91750000D03*
X88500000Y-91750000D03*
D18*
X83000000Y-93725000D03*
X83000000Y-92675000D03*
X99900000Y-88050000D03*
X98700000Y-88050000D03*
X98100000Y-88050000D03*
X99300000Y-88050000D03*
X99300000Y-89900000D03*
X98700000Y-89900000D03*
X98100000Y-89900000D03*
X99900000Y-89900000D03*
X100300000Y-86500000D03*
X99850000Y-86500000D03*
X101200000Y-86500000D03*
X100750000Y-86500000D03*
X101650000Y-86500000D03*
X102100000Y-86500000D03*
X102550000Y-86500000D03*
X103000000Y-86500000D03*
X103450000Y-86500000D03*
X103550000Y-91300000D03*
X100850000Y-91300000D03*
X101750000Y-91300000D03*
X102650000Y-91300000D03*
X101300000Y-91300000D03*
X102200000Y-91300000D03*
X103100000Y-91300000D03*
X100400000Y-91300000D03*
X99950000Y-91300000D03*
D17*
X103000000Y-94000000D03*
X103000000Y-84000000D03*
X102000000Y-84000000D03*
X101000000Y-84000000D03*
X100000000Y-84000000D03*
X99000000Y-84000000D03*
X99000000Y-85000000D03*
X99000000Y-86000000D03*
X99000000Y-87000000D03*
X98000000Y-87000000D03*
X97000000Y-87000000D03*
X96000000Y-87000000D03*
X95000000Y-91000000D03*
X96000000Y-91000000D03*
X97000000Y-91000000D03*
X98000000Y-91000000D03*
X99000000Y-91000000D03*
X99000000Y-92000000D03*
X99000000Y-93000000D03*
X99000000Y-94000000D03*
X100000000Y-94000000D03*
X101000000Y-94000000D03*
X102000000Y-94000000D03*
X65000000Y-72500000D03*
X70000000Y-72500000D03*
X75000000Y-72500000D03*
X80000000Y-72500000D03*
X85000000Y-72500000D03*
X90000000Y-72500000D03*
X95000000Y-72500000D03*
X95000000Y-77500000D03*
X95000000Y-82500000D03*
X92500000Y-80000000D03*
X92500000Y-75000000D03*
X90000000Y-77500000D03*
X87500000Y-75000000D03*
X85000000Y-77500000D03*
X82500000Y-75000000D03*
X80000000Y-77500000D03*
X82500000Y-80000000D03*
X80000000Y-82500000D03*
X77500000Y-80000000D03*
X72500000Y-80000000D03*
X77500000Y-85000000D03*
X67500000Y-85000000D03*
X97500000Y-75000000D03*
X100000000Y-82500000D03*
X100000000Y-77500000D03*
X97500000Y-80000000D03*
X97500000Y-85000000D03*
X60000000Y-102500000D03*
X62500000Y-100000000D03*
X65000000Y-102500000D03*
X62500000Y-105000000D03*
X65000000Y-107500000D03*
X80000000Y-102500000D03*
X80000000Y-107500000D03*
X82500000Y-105000000D03*
X82500000Y-100000000D03*
X85000000Y-102500000D03*
X87500000Y-105000000D03*
X92500000Y-105000000D03*
X97500000Y-105000000D03*
X100000000Y-102500000D03*
X100000000Y-97500000D03*
X97500000Y-95000000D03*
X95000000Y-97500000D03*
X95000000Y-102500000D03*
X97500000Y-100000000D03*
X92500000Y-100000000D03*
X87500000Y-100000000D03*
X90000000Y-102500000D03*
X75000000Y-107500000D03*
X77500000Y-100000000D03*
X70000000Y-92500000D03*
X67500000Y-92500000D03*
X67500000Y-90000000D03*
X75000000Y-92500000D03*
X72500000Y-92500000D03*
X87500000Y-80000000D03*
X97500000Y-92500000D03*
X92500000Y-95000000D03*
X90000000Y-97500000D03*
X85000000Y-97500000D03*
X77500000Y-105000000D03*
X65000000Y-97500000D03*
X67500000Y-100000000D03*
X70000000Y-97500000D03*
X80000000Y-97500000D03*
X85000000Y-107500000D03*
X90000000Y-107500000D03*
X92500000Y-110000000D03*
X87500000Y-110000000D03*
X82500000Y-110000000D03*
X77500000Y-110000000D03*
X72500000Y-110000000D03*
X70000000Y-107500000D03*
X70000000Y-107500000D03*
X70000000Y-107500000D03*
X100000000Y-95000000D03*
X75000000Y-82500000D03*
X95000000Y-92500000D03*
X72500000Y-105000000D03*
X67600000Y-78800000D03*
X72500000Y-75000000D03*
X75000000Y-77500000D03*
X77500000Y-75000000D03*
X60000000Y-75000000D03*
X67500000Y-75000000D03*
X70000000Y-77500000D03*
X70000000Y-82500000D03*
G04 #@! TO.N,+3V3*
X78230000Y-90480000D03*
X78220000Y-88250000D03*
G04 #@! TO.N,+3.3VA*
X91990000Y-85540000D03*
X91970000Y-86640000D03*
X93750000Y-84290000D03*
X74820000Y-83690000D03*
X91210000Y-91950000D03*
X92930000Y-93190000D03*
X68500000Y-77100000D03*
X67600000Y-76200000D03*
X68500000Y-76200000D03*
D18*
G04 #@! TO.N,Net-(C24-Pad2)*
X85420000Y-81110004D03*
X86650000Y-92590000D03*
G04 #@! TO.N,/LD*
X81759999Y-86959988D03*
G04 #@! TO.N,/MUX_OUT*
X81670000Y-89480000D03*
G04 #@! TO.N,/RFOUT_EN*
X81813213Y-87534533D03*
G04 #@! TO.N,/CE*
X84570941Y-91751370D03*
G04 #@! TO.N,/LE*
X83994485Y-91776705D03*
G04 #@! TO.N,/DATA*
X83417476Y-91774978D03*
G04 #@! TO.N,/CLK*
X82625000Y-91125000D03*
G04 #@! TO.N,Net-(R4-Pad1)*
X86475000Y-95475000D03*
X85110490Y-91955891D03*
G04 #@! TD*
D19*
G04 #@! TO.N,+3V3*
X78220000Y-90470000D02*
X78230000Y-90480000D01*
X78220000Y-88250000D02*
X78220000Y-90470000D01*
D20*
G04 #@! TO.N,Net-(C24-Pad2)*
X87070000Y-92170000D02*
X86650000Y-92590000D01*
X87070000Y-84380000D02*
X87070000Y-92170000D01*
X87057001Y-84367001D02*
X87070000Y-84380000D01*
X87057001Y-82347001D02*
X87057001Y-84367001D01*
X85420000Y-81110004D02*
X85820004Y-81110004D01*
X85820004Y-81110004D02*
X87057001Y-82347001D01*
D21*
G04 #@! TO.N,/LD*
X81441801Y-86959988D02*
X81759999Y-86959988D01*
X66729988Y-86959988D02*
X81441801Y-86959988D01*
X64920000Y-86460000D02*
X66230000Y-86460000D01*
X66230000Y-86460000D02*
X66729988Y-86959988D01*
D20*
G04 #@! TO.N,/MUX_OUT*
X64930000Y-91550000D02*
X64920000Y-91540000D01*
X78830000Y-91550000D02*
X64930000Y-91550000D01*
X81670000Y-89480000D02*
X80900000Y-89480000D01*
X80900000Y-89480000D02*
X78830000Y-91550000D01*
D21*
G04 #@! TO.N,/RFOUT_EN*
X81495015Y-87534533D02*
X81813213Y-87534533D01*
X67455467Y-87534533D02*
X81495015Y-87534533D01*
X64920000Y-89000000D02*
X65990000Y-89000000D01*
X65990000Y-89000000D02*
X67455467Y-87534533D01*
D20*
G04 #@! TO.N,/CE*
X84570941Y-92069568D02*
X84570941Y-91751370D01*
X62380000Y-86460000D02*
X60100000Y-88740000D01*
X60100000Y-95150000D02*
X61300000Y-96350000D01*
X82125000Y-96350000D02*
X84570941Y-93904059D01*
X60100000Y-88740000D02*
X60100000Y-95150000D01*
X61300000Y-96350000D02*
X82125000Y-96350000D01*
X84570941Y-93904059D02*
X84570941Y-92069568D01*
D21*
G04 #@! TO.N,/LE*
X83994485Y-91831297D02*
X83994485Y-91776705D01*
X84020000Y-91856812D02*
X83994485Y-91831297D01*
D20*
X60650000Y-90730000D02*
X60650000Y-95000000D01*
X62380000Y-89000000D02*
X60650000Y-90730000D01*
X60650000Y-95000000D02*
X61450000Y-95800000D01*
X61450000Y-95800000D02*
X82025000Y-95800000D01*
X82025000Y-95800000D02*
X83994485Y-93830515D01*
X83994485Y-92094903D02*
X83994485Y-91776705D01*
X83994485Y-93830515D02*
X83994485Y-92094903D01*
G04 #@! TO.N,/DATA*
X83099278Y-91774978D02*
X83417476Y-91774978D01*
X61150000Y-92770000D02*
X61150000Y-94800000D01*
X62380000Y-91540000D02*
X61150000Y-92770000D01*
X61150000Y-94800000D02*
X61650000Y-95300000D01*
X61650000Y-95300000D02*
X79570000Y-95300000D01*
X79570000Y-95300000D02*
X83095022Y-91774978D01*
X83095022Y-91774978D02*
X83099278Y-91774978D01*
G04 #@! TO.N,/CLK*
X63660000Y-92800000D02*
X62380000Y-94080000D01*
X65700000Y-92800000D02*
X63660000Y-92800000D01*
X66450000Y-93550000D02*
X65700000Y-92800000D01*
X82625000Y-91125000D02*
X80200000Y-93550000D01*
X80200000Y-93550000D02*
X66450000Y-93550000D01*
D21*
G04 #@! TO.N,Net-(R4-Pad1)*
X85110490Y-92274089D02*
X85110490Y-91955891D01*
X85110490Y-94110490D02*
X85110490Y-92274089D01*
X86475000Y-95475000D02*
X85110490Y-94110490D01*
G04 #@! TD*
D22*
G04 #@! TO.N,GND*
G36*
X99759192Y-66780578D02*
X100494389Y-66981705D01*
X101182351Y-67309846D01*
X101801331Y-67754628D01*
X102331761Y-68301988D01*
X102756884Y-68934639D01*
X103063251Y-69632561D01*
X103242499Y-70379183D01*
X103290000Y-71026030D01*
X103290001Y-108968370D01*
X103219422Y-109759193D01*
X103018295Y-110494389D01*
X102690152Y-111182355D01*
X102245374Y-111801328D01*
X101698012Y-112331761D01*
X101065362Y-112756883D01*
X100367439Y-113063251D01*
X99620819Y-113242499D01*
X98973970Y-113290000D01*
X61031618Y-113290000D01*
X60240807Y-113219422D01*
X59505611Y-113018295D01*
X58817645Y-112690152D01*
X58198672Y-112245374D01*
X57709811Y-111740910D01*
X58438695Y-111740910D01*
X58805640Y-112236343D01*
X60211171Y-112829736D01*
X61736793Y-112840087D01*
X63150246Y-112265819D01*
X63194360Y-112236343D01*
X63561305Y-111740910D01*
X96438695Y-111740910D01*
X96805640Y-112236343D01*
X98211171Y-112829736D01*
X99736793Y-112840087D01*
X101150246Y-112265819D01*
X101194360Y-112236343D01*
X101561305Y-111740910D01*
X99000000Y-109179605D01*
X96438695Y-111740910D01*
X63561305Y-111740910D01*
X61000000Y-109179605D01*
X58438695Y-111740910D01*
X57709811Y-111740910D01*
X57668239Y-111698012D01*
X57243117Y-111065362D01*
X56936749Y-110367439D01*
X56785344Y-109736793D01*
X57159913Y-109736793D01*
X57734181Y-111150246D01*
X57763657Y-111194360D01*
X58259090Y-111561305D01*
X60820395Y-109000000D01*
X61179605Y-109000000D01*
X63740910Y-111561305D01*
X64236343Y-111194360D01*
X64829736Y-109788829D01*
X64838141Y-108550000D01*
X65223000Y-108550000D01*
X65223000Y-110800000D01*
X65232667Y-110848601D01*
X65260197Y-110889803D01*
X65301399Y-110917333D01*
X65350000Y-110927000D01*
X71350000Y-110927000D01*
X71398601Y-110917333D01*
X71439803Y-110889803D01*
X71467333Y-110848601D01*
X71477000Y-110800000D01*
X71477000Y-109736793D01*
X95159913Y-109736793D01*
X95734181Y-111150246D01*
X95763657Y-111194360D01*
X96259090Y-111561305D01*
X98820395Y-109000000D01*
X99179605Y-109000000D01*
X101740910Y-111561305D01*
X102236343Y-111194360D01*
X102829736Y-109788829D01*
X102840087Y-108263207D01*
X102265819Y-106849754D01*
X102236343Y-106805640D01*
X101740910Y-106438695D01*
X99179605Y-109000000D01*
X98820395Y-109000000D01*
X96259090Y-106438695D01*
X95763657Y-106805640D01*
X95170264Y-108211171D01*
X95159913Y-109736793D01*
X71477000Y-109736793D01*
X71477000Y-108550000D01*
X71467333Y-108501399D01*
X71439803Y-108460197D01*
X71398601Y-108432667D01*
X71350000Y-108423000D01*
X65350000Y-108423000D01*
X65301399Y-108432667D01*
X65260197Y-108460197D01*
X65232667Y-108501399D01*
X65223000Y-108550000D01*
X64838141Y-108550000D01*
X64840087Y-108263207D01*
X64265819Y-106849754D01*
X64236343Y-106805640D01*
X63740910Y-106438695D01*
X61179605Y-109000000D01*
X60820395Y-109000000D01*
X58259090Y-106438695D01*
X57763657Y-106805640D01*
X57170264Y-108211171D01*
X57159913Y-109736793D01*
X56785344Y-109736793D01*
X56757501Y-109620819D01*
X56710000Y-108973970D01*
X56710000Y-106259090D01*
X58438695Y-106259090D01*
X61000000Y-108820395D01*
X63561305Y-106259090D01*
X96438695Y-106259090D01*
X99000000Y-108820395D01*
X101561305Y-106259090D01*
X101194360Y-105763657D01*
X99788829Y-105170264D01*
X98263207Y-105159913D01*
X96849754Y-105734181D01*
X96805640Y-105763657D01*
X96438695Y-106259090D01*
X63561305Y-106259090D01*
X63194360Y-105763657D01*
X61788829Y-105170264D01*
X60263207Y-105159913D01*
X58849754Y-105734181D01*
X58805640Y-105763657D01*
X58438695Y-106259090D01*
X56710000Y-106259090D01*
X56710000Y-88740000D01*
X59325112Y-88740000D01*
X59340000Y-88814847D01*
X59340001Y-95075148D01*
X59325112Y-95150000D01*
X59384097Y-95446537D01*
X59463252Y-95565000D01*
X59552072Y-95697929D01*
X59615528Y-95740329D01*
X60709671Y-96834473D01*
X60752071Y-96897929D01*
X61003463Y-97065904D01*
X61225148Y-97110000D01*
X61225152Y-97110000D01*
X61299999Y-97124888D01*
X61374846Y-97110000D01*
X82050153Y-97110000D01*
X82125000Y-97124888D01*
X82199847Y-97110000D01*
X82199852Y-97110000D01*
X82421537Y-97065904D01*
X82672929Y-96897929D01*
X82715331Y-96834470D01*
X84755178Y-94794624D01*
X85620927Y-95660374D01*
X85745928Y-95962151D01*
X85987849Y-96204072D01*
X86303935Y-96335000D01*
X86646065Y-96335000D01*
X86962151Y-96204072D01*
X87204072Y-95962151D01*
X87335000Y-95646065D01*
X87335000Y-95303935D01*
X87204072Y-94987849D01*
X86962151Y-94745928D01*
X86660374Y-94620927D01*
X85845490Y-93806044D01*
X85845490Y-92895029D01*
X85920928Y-93077151D01*
X86162849Y-93319072D01*
X86478935Y-93450000D01*
X86821065Y-93450000D01*
X87137151Y-93319072D01*
X87379072Y-93077151D01*
X87479074Y-92835727D01*
X87554470Y-92760331D01*
X87617929Y-92717929D01*
X87760839Y-92504050D01*
X87785904Y-92466538D01*
X87809785Y-92346477D01*
X87830000Y-92244852D01*
X87830000Y-92244848D01*
X87844888Y-92170000D01*
X87830000Y-92095152D01*
X87830000Y-91744126D01*
X90175000Y-91744126D01*
X90175000Y-92155874D01*
X90332569Y-92536280D01*
X90623720Y-92827431D01*
X91004126Y-92985000D01*
X91415874Y-92985000D01*
X91417984Y-92984126D01*
X91895000Y-92984126D01*
X91895000Y-93395874D01*
X92052569Y-93776280D01*
X92343720Y-94067431D01*
X92724126Y-94225000D01*
X93135874Y-94225000D01*
X93516280Y-94067431D01*
X93807431Y-93776280D01*
X93965000Y-93395874D01*
X93965000Y-92984126D01*
X93807431Y-92603720D01*
X93516280Y-92312569D01*
X93135874Y-92155000D01*
X92724126Y-92155000D01*
X92343720Y-92312569D01*
X92052569Y-92603720D01*
X91895000Y-92984126D01*
X91417984Y-92984126D01*
X91796280Y-92827431D01*
X92087431Y-92536280D01*
X92245000Y-92155874D01*
X92245000Y-91744126D01*
X92087431Y-91363720D01*
X91796280Y-91072569D01*
X91415874Y-90915000D01*
X91004126Y-90915000D01*
X90623720Y-91072569D01*
X90332569Y-91363720D01*
X90175000Y-91744126D01*
X87830000Y-91744126D01*
X87830000Y-86434126D01*
X90935000Y-86434126D01*
X90935000Y-86845874D01*
X91092569Y-87226280D01*
X91383720Y-87517431D01*
X91764126Y-87675000D01*
X92175874Y-87675000D01*
X92556280Y-87517431D01*
X92847431Y-87226280D01*
X93005000Y-86845874D01*
X93005000Y-86434126D01*
X92872459Y-86114142D01*
X93025000Y-85745874D01*
X93025000Y-85334126D01*
X92867431Y-84953720D01*
X92576280Y-84662569D01*
X92195874Y-84505000D01*
X91784126Y-84505000D01*
X91403720Y-84662569D01*
X91112569Y-84953720D01*
X90955000Y-85334126D01*
X90955000Y-85745874D01*
X91087541Y-86065858D01*
X90935000Y-86434126D01*
X87830000Y-86434126D01*
X87830000Y-84454846D01*
X87844888Y-84379999D01*
X87830000Y-84305152D01*
X87830000Y-84305148D01*
X87817001Y-84239798D01*
X87817001Y-84084126D01*
X92715000Y-84084126D01*
X92715000Y-84495874D01*
X92872569Y-84876280D01*
X93163720Y-85167431D01*
X93544126Y-85325000D01*
X93955874Y-85325000D01*
X94336280Y-85167431D01*
X94627431Y-84876280D01*
X94785000Y-84495874D01*
X94785000Y-84084126D01*
X94627431Y-83703720D01*
X94336280Y-83412569D01*
X93955874Y-83255000D01*
X93544126Y-83255000D01*
X93163720Y-83412569D01*
X92872569Y-83703720D01*
X92715000Y-84084126D01*
X87817001Y-84084126D01*
X87817001Y-82421848D01*
X87831889Y-82347001D01*
X87817001Y-82272154D01*
X87817001Y-82272149D01*
X87772905Y-82050464D01*
X87604930Y-81799072D01*
X87541474Y-81756672D01*
X86410335Y-80625534D01*
X86367933Y-80562075D01*
X86116541Y-80394100D01*
X85894856Y-80350004D01*
X85894851Y-80350004D01*
X85820004Y-80335116D01*
X85804154Y-80338269D01*
X85591065Y-80250004D01*
X85248935Y-80250004D01*
X84932849Y-80380932D01*
X84690928Y-80622853D01*
X84560000Y-80938939D01*
X84560000Y-81281069D01*
X84690928Y-81597155D01*
X84932849Y-81839076D01*
X85248935Y-81970004D01*
X85591065Y-81970004D01*
X85601062Y-81965863D01*
X86297001Y-82661803D01*
X86297002Y-84292149D01*
X86282113Y-84367001D01*
X86297002Y-84441853D01*
X86310000Y-84507198D01*
X86310001Y-91799975D01*
X86162849Y-91860928D01*
X85970490Y-92053287D01*
X85970490Y-91784826D01*
X85839562Y-91468740D01*
X85597641Y-91226819D01*
X85281555Y-91095891D01*
X85131685Y-91095891D01*
X85058092Y-91022298D01*
X84742006Y-90891370D01*
X84399876Y-90891370D01*
X84252131Y-90952568D01*
X84165550Y-90916705D01*
X83823420Y-90916705D01*
X83708065Y-90964487D01*
X83588541Y-90914978D01*
X83468863Y-90914978D01*
X83354072Y-90637849D01*
X83112151Y-90395928D01*
X82796065Y-90265000D01*
X82453935Y-90265000D01*
X82137849Y-90395928D01*
X81895928Y-90637849D01*
X81795927Y-90879271D01*
X79885199Y-92790000D01*
X66764802Y-92790000D01*
X66290331Y-92315530D01*
X66286636Y-92310000D01*
X78755153Y-92310000D01*
X78830000Y-92324888D01*
X78904847Y-92310000D01*
X78904852Y-92310000D01*
X79126537Y-92265904D01*
X79377929Y-92097929D01*
X79420331Y-92034470D01*
X81214802Y-90240000D01*
X81257515Y-90240000D01*
X81498935Y-90340000D01*
X81841065Y-90340000D01*
X82157151Y-90209072D01*
X82399072Y-89967151D01*
X82530000Y-89651065D01*
X82530000Y-89308935D01*
X82399072Y-88992849D01*
X82157151Y-88750928D01*
X81841065Y-88620000D01*
X81498935Y-88620000D01*
X81257515Y-88720000D01*
X80974846Y-88720000D01*
X80899999Y-88705112D01*
X80825152Y-88720000D01*
X80825148Y-88720000D01*
X80603463Y-88764096D01*
X80352071Y-88932071D01*
X80309671Y-88995527D01*
X79196484Y-90108714D01*
X79107431Y-89893720D01*
X79055000Y-89841289D01*
X79055000Y-88878711D01*
X79097431Y-88836280D01*
X79255000Y-88455874D01*
X79255000Y-88269533D01*
X81340373Y-88269533D01*
X81642148Y-88394533D01*
X81984278Y-88394533D01*
X82300364Y-88263605D01*
X82542285Y-88021684D01*
X82673213Y-87705598D01*
X82673213Y-87363468D01*
X82598471Y-87183026D01*
X82619999Y-87131053D01*
X82619999Y-86788923D01*
X82489071Y-86472837D01*
X82247150Y-86230916D01*
X81931064Y-86099988D01*
X81588934Y-86099988D01*
X81287159Y-86224988D01*
X67034435Y-86224988D01*
X66800911Y-85991465D01*
X66759905Y-85930095D01*
X66516783Y-85767646D01*
X66302388Y-85725000D01*
X66302384Y-85725000D01*
X66230000Y-85710602D01*
X66208164Y-85714945D01*
X65990625Y-85389375D01*
X65671522Y-85176157D01*
X65801358Y-85115183D01*
X66191645Y-84686924D01*
X66361476Y-84276890D01*
X66240155Y-84047000D01*
X65047000Y-84047000D01*
X65047000Y-84067000D01*
X64793000Y-84067000D01*
X64793000Y-84047000D01*
X64773000Y-84047000D01*
X64773000Y-83793000D01*
X64793000Y-83793000D01*
X64793000Y-82599181D01*
X65047000Y-82599181D01*
X65047000Y-83793000D01*
X66240155Y-83793000D01*
X66361476Y-83563110D01*
X66328762Y-83484126D01*
X73785000Y-83484126D01*
X73785000Y-83895874D01*
X73942569Y-84276280D01*
X74233720Y-84567431D01*
X74614126Y-84725000D01*
X75025874Y-84725000D01*
X75406280Y-84567431D01*
X75697431Y-84276280D01*
X75855000Y-83895874D01*
X75855000Y-83484126D01*
X75697431Y-83103720D01*
X75406280Y-82812569D01*
X75025874Y-82655000D01*
X74614126Y-82655000D01*
X74233720Y-82812569D01*
X73942569Y-83103720D01*
X73785000Y-83484126D01*
X66328762Y-83484126D01*
X66191645Y-83153076D01*
X65801358Y-82724817D01*
X65276892Y-82478514D01*
X65047000Y-82599181D01*
X64793000Y-82599181D01*
X64563108Y-82478514D01*
X64038642Y-82724817D01*
X63849961Y-82931855D01*
X63828157Y-82822235D01*
X63687809Y-82612191D01*
X63477765Y-82471843D01*
X63230000Y-82422560D01*
X61530000Y-82422560D01*
X61282235Y-82471843D01*
X61072191Y-82612191D01*
X60931843Y-82822235D01*
X60882560Y-83070000D01*
X60882560Y-84770000D01*
X60931843Y-85017765D01*
X61072191Y-85227809D01*
X61282235Y-85368157D01*
X61327619Y-85377184D01*
X61309375Y-85389375D01*
X60981161Y-85880582D01*
X60865908Y-86460000D01*
X60938791Y-86826408D01*
X59615530Y-88149669D01*
X59552071Y-88192071D01*
X59384096Y-88443464D01*
X59340000Y-88665149D01*
X59340000Y-88665153D01*
X59325112Y-88740000D01*
X56710000Y-88740000D01*
X56710000Y-75994126D01*
X66565000Y-75994126D01*
X66565000Y-76405874D01*
X66722569Y-76786280D01*
X67013720Y-77077431D01*
X67394126Y-77235000D01*
X67465000Y-77235000D01*
X67465000Y-77305874D01*
X67622569Y-77686280D01*
X67913720Y-77977431D01*
X68294126Y-78135000D01*
X68705874Y-78135000D01*
X69086280Y-77977431D01*
X69377431Y-77686280D01*
X69535000Y-77305874D01*
X69535000Y-76894126D01*
X69433880Y-76650000D01*
X69535000Y-76405874D01*
X69535000Y-75994126D01*
X69377431Y-75613720D01*
X69086280Y-75322569D01*
X68705874Y-75165000D01*
X68294126Y-75165000D01*
X68050000Y-75266120D01*
X67805874Y-75165000D01*
X67394126Y-75165000D01*
X67013720Y-75322569D01*
X66722569Y-75613720D01*
X66565000Y-75994126D01*
X56710000Y-75994126D01*
X56710000Y-73740910D01*
X58438695Y-73740910D01*
X58805640Y-74236343D01*
X60211171Y-74829736D01*
X61736793Y-74840087D01*
X63150246Y-74265819D01*
X63194360Y-74236343D01*
X63561305Y-73740910D01*
X96438695Y-73740910D01*
X96805640Y-74236343D01*
X98211171Y-74829736D01*
X99736793Y-74840087D01*
X101150246Y-74265819D01*
X101194360Y-74236343D01*
X101561305Y-73740910D01*
X99000000Y-71179605D01*
X96438695Y-73740910D01*
X63561305Y-73740910D01*
X61000000Y-71179605D01*
X58438695Y-73740910D01*
X56710000Y-73740910D01*
X56710000Y-71736793D01*
X57159913Y-71736793D01*
X57734181Y-73150246D01*
X57763657Y-73194360D01*
X58259090Y-73561305D01*
X60820395Y-71000000D01*
X61179605Y-71000000D01*
X63740910Y-73561305D01*
X64236343Y-73194360D01*
X64829736Y-71788829D01*
X64830089Y-71736793D01*
X95159913Y-71736793D01*
X95734181Y-73150246D01*
X95763657Y-73194360D01*
X96259090Y-73561305D01*
X98820395Y-71000000D01*
X99179605Y-71000000D01*
X101740910Y-73561305D01*
X102236343Y-73194360D01*
X102829736Y-71788829D01*
X102840087Y-70263207D01*
X102265819Y-68849754D01*
X102236343Y-68805640D01*
X101740910Y-68438695D01*
X99179605Y-71000000D01*
X98820395Y-71000000D01*
X96259090Y-68438695D01*
X95763657Y-68805640D01*
X95170264Y-70211171D01*
X95159913Y-71736793D01*
X64830089Y-71736793D01*
X64840087Y-70263207D01*
X64265819Y-68849754D01*
X64236343Y-68805640D01*
X63740910Y-68438695D01*
X61179605Y-71000000D01*
X60820395Y-71000000D01*
X58259090Y-68438695D01*
X57763657Y-68805640D01*
X57170264Y-70211171D01*
X57159913Y-71736793D01*
X56710000Y-71736793D01*
X56710000Y-71031618D01*
X56780578Y-70240808D01*
X56981705Y-69505611D01*
X57309846Y-68817649D01*
X57711211Y-68259090D01*
X58438695Y-68259090D01*
X61000000Y-70820395D01*
X63561305Y-68259090D01*
X96438695Y-68259090D01*
X99000000Y-70820395D01*
X101561305Y-68259090D01*
X101194360Y-67763657D01*
X99788829Y-67170264D01*
X98263207Y-67159913D01*
X96849754Y-67734181D01*
X96805640Y-67763657D01*
X96438695Y-68259090D01*
X63561305Y-68259090D01*
X63194360Y-67763657D01*
X61788829Y-67170264D01*
X60263207Y-67159913D01*
X58849754Y-67734181D01*
X58805640Y-67763657D01*
X58438695Y-68259090D01*
X57711211Y-68259090D01*
X57754628Y-68198669D01*
X58301988Y-67668239D01*
X58934639Y-67243116D01*
X59632561Y-66936749D01*
X60379183Y-66757501D01*
X61026030Y-66710000D01*
X98968382Y-66710000D01*
X99759192Y-66780578D01*
X99759192Y-66780578D01*
G37*
X99759192Y-66780578D02*
X100494389Y-66981705D01*
X101182351Y-67309846D01*
X101801331Y-67754628D01*
X102331761Y-68301988D01*
X102756884Y-68934639D01*
X103063251Y-69632561D01*
X103242499Y-70379183D01*
X103290000Y-71026030D01*
X103290001Y-108968370D01*
X103219422Y-109759193D01*
X103018295Y-110494389D01*
X102690152Y-111182355D01*
X102245374Y-111801328D01*
X101698012Y-112331761D01*
X101065362Y-112756883D01*
X100367439Y-113063251D01*
X99620819Y-113242499D01*
X98973970Y-113290000D01*
X61031618Y-113290000D01*
X60240807Y-113219422D01*
X59505611Y-113018295D01*
X58817645Y-112690152D01*
X58198672Y-112245374D01*
X57709811Y-111740910D01*
X58438695Y-111740910D01*
X58805640Y-112236343D01*
X60211171Y-112829736D01*
X61736793Y-112840087D01*
X63150246Y-112265819D01*
X63194360Y-112236343D01*
X63561305Y-111740910D01*
X96438695Y-111740910D01*
X96805640Y-112236343D01*
X98211171Y-112829736D01*
X99736793Y-112840087D01*
X101150246Y-112265819D01*
X101194360Y-112236343D01*
X101561305Y-111740910D01*
X99000000Y-109179605D01*
X96438695Y-111740910D01*
X63561305Y-111740910D01*
X61000000Y-109179605D01*
X58438695Y-111740910D01*
X57709811Y-111740910D01*
X57668239Y-111698012D01*
X57243117Y-111065362D01*
X56936749Y-110367439D01*
X56785344Y-109736793D01*
X57159913Y-109736793D01*
X57734181Y-111150246D01*
X57763657Y-111194360D01*
X58259090Y-111561305D01*
X60820395Y-109000000D01*
X61179605Y-109000000D01*
X63740910Y-111561305D01*
X64236343Y-111194360D01*
X64829736Y-109788829D01*
X64838141Y-108550000D01*
X65223000Y-108550000D01*
X65223000Y-110800000D01*
X65232667Y-110848601D01*
X65260197Y-110889803D01*
X65301399Y-110917333D01*
X65350000Y-110927000D01*
X71350000Y-110927000D01*
X71398601Y-110917333D01*
X71439803Y-110889803D01*
X71467333Y-110848601D01*
X71477000Y-110800000D01*
X71477000Y-109736793D01*
X95159913Y-109736793D01*
X95734181Y-111150246D01*
X95763657Y-111194360D01*
X96259090Y-111561305D01*
X98820395Y-109000000D01*
X99179605Y-109000000D01*
X101740910Y-111561305D01*
X102236343Y-111194360D01*
X102829736Y-109788829D01*
X102840087Y-108263207D01*
X102265819Y-106849754D01*
X102236343Y-106805640D01*
X101740910Y-106438695D01*
X99179605Y-109000000D01*
X98820395Y-109000000D01*
X96259090Y-106438695D01*
X95763657Y-106805640D01*
X95170264Y-108211171D01*
X95159913Y-109736793D01*
X71477000Y-109736793D01*
X71477000Y-108550000D01*
X71467333Y-108501399D01*
X71439803Y-108460197D01*
X71398601Y-108432667D01*
X71350000Y-108423000D01*
X65350000Y-108423000D01*
X65301399Y-108432667D01*
X65260197Y-108460197D01*
X65232667Y-108501399D01*
X65223000Y-108550000D01*
X64838141Y-108550000D01*
X64840087Y-108263207D01*
X64265819Y-106849754D01*
X64236343Y-106805640D01*
X63740910Y-106438695D01*
X61179605Y-109000000D01*
X60820395Y-109000000D01*
X58259090Y-106438695D01*
X57763657Y-106805640D01*
X57170264Y-108211171D01*
X57159913Y-109736793D01*
X56785344Y-109736793D01*
X56757501Y-109620819D01*
X56710000Y-108973970D01*
X56710000Y-106259090D01*
X58438695Y-106259090D01*
X61000000Y-108820395D01*
X63561305Y-106259090D01*
X96438695Y-106259090D01*
X99000000Y-108820395D01*
X101561305Y-106259090D01*
X101194360Y-105763657D01*
X99788829Y-105170264D01*
X98263207Y-105159913D01*
X96849754Y-105734181D01*
X96805640Y-105763657D01*
X96438695Y-106259090D01*
X63561305Y-106259090D01*
X63194360Y-105763657D01*
X61788829Y-105170264D01*
X60263207Y-105159913D01*
X58849754Y-105734181D01*
X58805640Y-105763657D01*
X58438695Y-106259090D01*
X56710000Y-106259090D01*
X56710000Y-88740000D01*
X59325112Y-88740000D01*
X59340000Y-88814847D01*
X59340001Y-95075148D01*
X59325112Y-95150000D01*
X59384097Y-95446537D01*
X59463252Y-95565000D01*
X59552072Y-95697929D01*
X59615528Y-95740329D01*
X60709671Y-96834473D01*
X60752071Y-96897929D01*
X61003463Y-97065904D01*
X61225148Y-97110000D01*
X61225152Y-97110000D01*
X61299999Y-97124888D01*
X61374846Y-97110000D01*
X82050153Y-97110000D01*
X82125000Y-97124888D01*
X82199847Y-97110000D01*
X82199852Y-97110000D01*
X82421537Y-97065904D01*
X82672929Y-96897929D01*
X82715331Y-96834470D01*
X84755178Y-94794624D01*
X85620927Y-95660374D01*
X85745928Y-95962151D01*
X85987849Y-96204072D01*
X86303935Y-96335000D01*
X86646065Y-96335000D01*
X86962151Y-96204072D01*
X87204072Y-95962151D01*
X87335000Y-95646065D01*
X87335000Y-95303935D01*
X87204072Y-94987849D01*
X86962151Y-94745928D01*
X86660374Y-94620927D01*
X85845490Y-93806044D01*
X85845490Y-92895029D01*
X85920928Y-93077151D01*
X86162849Y-93319072D01*
X86478935Y-93450000D01*
X86821065Y-93450000D01*
X87137151Y-93319072D01*
X87379072Y-93077151D01*
X87479074Y-92835727D01*
X87554470Y-92760331D01*
X87617929Y-92717929D01*
X87760839Y-92504050D01*
X87785904Y-92466538D01*
X87809785Y-92346477D01*
X87830000Y-92244852D01*
X87830000Y-92244848D01*
X87844888Y-92170000D01*
X87830000Y-92095152D01*
X87830000Y-91744126D01*
X90175000Y-91744126D01*
X90175000Y-92155874D01*
X90332569Y-92536280D01*
X90623720Y-92827431D01*
X91004126Y-92985000D01*
X91415874Y-92985000D01*
X91417984Y-92984126D01*
X91895000Y-92984126D01*
X91895000Y-93395874D01*
X92052569Y-93776280D01*
X92343720Y-94067431D01*
X92724126Y-94225000D01*
X93135874Y-94225000D01*
X93516280Y-94067431D01*
X93807431Y-93776280D01*
X93965000Y-93395874D01*
X93965000Y-92984126D01*
X93807431Y-92603720D01*
X93516280Y-92312569D01*
X93135874Y-92155000D01*
X92724126Y-92155000D01*
X92343720Y-92312569D01*
X92052569Y-92603720D01*
X91895000Y-92984126D01*
X91417984Y-92984126D01*
X91796280Y-92827431D01*
X92087431Y-92536280D01*
X92245000Y-92155874D01*
X92245000Y-91744126D01*
X92087431Y-91363720D01*
X91796280Y-91072569D01*
X91415874Y-90915000D01*
X91004126Y-90915000D01*
X90623720Y-91072569D01*
X90332569Y-91363720D01*
X90175000Y-91744126D01*
X87830000Y-91744126D01*
X87830000Y-86434126D01*
X90935000Y-86434126D01*
X90935000Y-86845874D01*
X91092569Y-87226280D01*
X91383720Y-87517431D01*
X91764126Y-87675000D01*
X92175874Y-87675000D01*
X92556280Y-87517431D01*
X92847431Y-87226280D01*
X93005000Y-86845874D01*
X93005000Y-86434126D01*
X92872459Y-86114142D01*
X93025000Y-85745874D01*
X93025000Y-85334126D01*
X92867431Y-84953720D01*
X92576280Y-84662569D01*
X92195874Y-84505000D01*
X91784126Y-84505000D01*
X91403720Y-84662569D01*
X91112569Y-84953720D01*
X90955000Y-85334126D01*
X90955000Y-85745874D01*
X91087541Y-86065858D01*
X90935000Y-86434126D01*
X87830000Y-86434126D01*
X87830000Y-84454846D01*
X87844888Y-84379999D01*
X87830000Y-84305152D01*
X87830000Y-84305148D01*
X87817001Y-84239798D01*
X87817001Y-84084126D01*
X92715000Y-84084126D01*
X92715000Y-84495874D01*
X92872569Y-84876280D01*
X93163720Y-85167431D01*
X93544126Y-85325000D01*
X93955874Y-85325000D01*
X94336280Y-85167431D01*
X94627431Y-84876280D01*
X94785000Y-84495874D01*
X94785000Y-84084126D01*
X94627431Y-83703720D01*
X94336280Y-83412569D01*
X93955874Y-83255000D01*
X93544126Y-83255000D01*
X93163720Y-83412569D01*
X92872569Y-83703720D01*
X92715000Y-84084126D01*
X87817001Y-84084126D01*
X87817001Y-82421848D01*
X87831889Y-82347001D01*
X87817001Y-82272154D01*
X87817001Y-82272149D01*
X87772905Y-82050464D01*
X87604930Y-81799072D01*
X87541474Y-81756672D01*
X86410335Y-80625534D01*
X86367933Y-80562075D01*
X86116541Y-80394100D01*
X85894856Y-80350004D01*
X85894851Y-80350004D01*
X85820004Y-80335116D01*
X85804154Y-80338269D01*
X85591065Y-80250004D01*
X85248935Y-80250004D01*
X84932849Y-80380932D01*
X84690928Y-80622853D01*
X84560000Y-80938939D01*
X84560000Y-81281069D01*
X84690928Y-81597155D01*
X84932849Y-81839076D01*
X85248935Y-81970004D01*
X85591065Y-81970004D01*
X85601062Y-81965863D01*
X86297001Y-82661803D01*
X86297002Y-84292149D01*
X86282113Y-84367001D01*
X86297002Y-84441853D01*
X86310000Y-84507198D01*
X86310001Y-91799975D01*
X86162849Y-91860928D01*
X85970490Y-92053287D01*
X85970490Y-91784826D01*
X85839562Y-91468740D01*
X85597641Y-91226819D01*
X85281555Y-91095891D01*
X85131685Y-91095891D01*
X85058092Y-91022298D01*
X84742006Y-90891370D01*
X84399876Y-90891370D01*
X84252131Y-90952568D01*
X84165550Y-90916705D01*
X83823420Y-90916705D01*
X83708065Y-90964487D01*
X83588541Y-90914978D01*
X83468863Y-90914978D01*
X83354072Y-90637849D01*
X83112151Y-90395928D01*
X82796065Y-90265000D01*
X82453935Y-90265000D01*
X82137849Y-90395928D01*
X81895928Y-90637849D01*
X81795927Y-90879271D01*
X79885199Y-92790000D01*
X66764802Y-92790000D01*
X66290331Y-92315530D01*
X66286636Y-92310000D01*
X78755153Y-92310000D01*
X78830000Y-92324888D01*
X78904847Y-92310000D01*
X78904852Y-92310000D01*
X79126537Y-92265904D01*
X79377929Y-92097929D01*
X79420331Y-92034470D01*
X81214802Y-90240000D01*
X81257515Y-90240000D01*
X81498935Y-90340000D01*
X81841065Y-90340000D01*
X82157151Y-90209072D01*
X82399072Y-89967151D01*
X82530000Y-89651065D01*
X82530000Y-89308935D01*
X82399072Y-88992849D01*
X82157151Y-88750928D01*
X81841065Y-88620000D01*
X81498935Y-88620000D01*
X81257515Y-88720000D01*
X80974846Y-88720000D01*
X80899999Y-88705112D01*
X80825152Y-88720000D01*
X80825148Y-88720000D01*
X80603463Y-88764096D01*
X80352071Y-88932071D01*
X80309671Y-88995527D01*
X79196484Y-90108714D01*
X79107431Y-89893720D01*
X79055000Y-89841289D01*
X79055000Y-88878711D01*
X79097431Y-88836280D01*
X79255000Y-88455874D01*
X79255000Y-88269533D01*
X81340373Y-88269533D01*
X81642148Y-88394533D01*
X81984278Y-88394533D01*
X82300364Y-88263605D01*
X82542285Y-88021684D01*
X82673213Y-87705598D01*
X82673213Y-87363468D01*
X82598471Y-87183026D01*
X82619999Y-87131053D01*
X82619999Y-86788923D01*
X82489071Y-86472837D01*
X82247150Y-86230916D01*
X81931064Y-86099988D01*
X81588934Y-86099988D01*
X81287159Y-86224988D01*
X67034435Y-86224988D01*
X66800911Y-85991465D01*
X66759905Y-85930095D01*
X66516783Y-85767646D01*
X66302388Y-85725000D01*
X66302384Y-85725000D01*
X66230000Y-85710602D01*
X66208164Y-85714945D01*
X65990625Y-85389375D01*
X65671522Y-85176157D01*
X65801358Y-85115183D01*
X66191645Y-84686924D01*
X66361476Y-84276890D01*
X66240155Y-84047000D01*
X65047000Y-84047000D01*
X65047000Y-84067000D01*
X64793000Y-84067000D01*
X64793000Y-84047000D01*
X64773000Y-84047000D01*
X64773000Y-83793000D01*
X64793000Y-83793000D01*
X64793000Y-82599181D01*
X65047000Y-82599181D01*
X65047000Y-83793000D01*
X66240155Y-83793000D01*
X66361476Y-83563110D01*
X66328762Y-83484126D01*
X73785000Y-83484126D01*
X73785000Y-83895874D01*
X73942569Y-84276280D01*
X74233720Y-84567431D01*
X74614126Y-84725000D01*
X75025874Y-84725000D01*
X75406280Y-84567431D01*
X75697431Y-84276280D01*
X75855000Y-83895874D01*
X75855000Y-83484126D01*
X75697431Y-83103720D01*
X75406280Y-82812569D01*
X75025874Y-82655000D01*
X74614126Y-82655000D01*
X74233720Y-82812569D01*
X73942569Y-83103720D01*
X73785000Y-83484126D01*
X66328762Y-83484126D01*
X66191645Y-83153076D01*
X65801358Y-82724817D01*
X65276892Y-82478514D01*
X65047000Y-82599181D01*
X64793000Y-82599181D01*
X64563108Y-82478514D01*
X64038642Y-82724817D01*
X63849961Y-82931855D01*
X63828157Y-82822235D01*
X63687809Y-82612191D01*
X63477765Y-82471843D01*
X63230000Y-82422560D01*
X61530000Y-82422560D01*
X61282235Y-82471843D01*
X61072191Y-82612191D01*
X60931843Y-82822235D01*
X60882560Y-83070000D01*
X60882560Y-84770000D01*
X60931843Y-85017765D01*
X61072191Y-85227809D01*
X61282235Y-85368157D01*
X61327619Y-85377184D01*
X61309375Y-85389375D01*
X60981161Y-85880582D01*
X60865908Y-86460000D01*
X60938791Y-86826408D01*
X59615530Y-88149669D01*
X59552071Y-88192071D01*
X59384096Y-88443464D01*
X59340000Y-88665149D01*
X59340000Y-88665153D01*
X59325112Y-88740000D01*
X56710000Y-88740000D01*
X56710000Y-75994126D01*
X66565000Y-75994126D01*
X66565000Y-76405874D01*
X66722569Y-76786280D01*
X67013720Y-77077431D01*
X67394126Y-77235000D01*
X67465000Y-77235000D01*
X67465000Y-77305874D01*
X67622569Y-77686280D01*
X67913720Y-77977431D01*
X68294126Y-78135000D01*
X68705874Y-78135000D01*
X69086280Y-77977431D01*
X69377431Y-77686280D01*
X69535000Y-77305874D01*
X69535000Y-76894126D01*
X69433880Y-76650000D01*
X69535000Y-76405874D01*
X69535000Y-75994126D01*
X69377431Y-75613720D01*
X69086280Y-75322569D01*
X68705874Y-75165000D01*
X68294126Y-75165000D01*
X68050000Y-75266120D01*
X67805874Y-75165000D01*
X67394126Y-75165000D01*
X67013720Y-75322569D01*
X66722569Y-75613720D01*
X66565000Y-75994126D01*
X56710000Y-75994126D01*
X56710000Y-73740910D01*
X58438695Y-73740910D01*
X58805640Y-74236343D01*
X60211171Y-74829736D01*
X61736793Y-74840087D01*
X63150246Y-74265819D01*
X63194360Y-74236343D01*
X63561305Y-73740910D01*
X96438695Y-73740910D01*
X96805640Y-74236343D01*
X98211171Y-74829736D01*
X99736793Y-74840087D01*
X101150246Y-74265819D01*
X101194360Y-74236343D01*
X101561305Y-73740910D01*
X99000000Y-71179605D01*
X96438695Y-73740910D01*
X63561305Y-73740910D01*
X61000000Y-71179605D01*
X58438695Y-73740910D01*
X56710000Y-73740910D01*
X56710000Y-71736793D01*
X57159913Y-71736793D01*
X57734181Y-73150246D01*
X57763657Y-73194360D01*
X58259090Y-73561305D01*
X60820395Y-71000000D01*
X61179605Y-71000000D01*
X63740910Y-73561305D01*
X64236343Y-73194360D01*
X64829736Y-71788829D01*
X64830089Y-71736793D01*
X95159913Y-71736793D01*
X95734181Y-73150246D01*
X95763657Y-73194360D01*
X96259090Y-73561305D01*
X98820395Y-71000000D01*
X99179605Y-71000000D01*
X101740910Y-73561305D01*
X102236343Y-73194360D01*
X102829736Y-71788829D01*
X102840087Y-70263207D01*
X102265819Y-68849754D01*
X102236343Y-68805640D01*
X101740910Y-68438695D01*
X99179605Y-71000000D01*
X98820395Y-71000000D01*
X96259090Y-68438695D01*
X95763657Y-68805640D01*
X95170264Y-70211171D01*
X95159913Y-71736793D01*
X64830089Y-71736793D01*
X64840087Y-70263207D01*
X64265819Y-68849754D01*
X64236343Y-68805640D01*
X63740910Y-68438695D01*
X61179605Y-71000000D01*
X60820395Y-71000000D01*
X58259090Y-68438695D01*
X57763657Y-68805640D01*
X57170264Y-70211171D01*
X57159913Y-71736793D01*
X56710000Y-71736793D01*
X56710000Y-71031618D01*
X56780578Y-70240808D01*
X56981705Y-69505611D01*
X57309846Y-68817649D01*
X57711211Y-68259090D01*
X58438695Y-68259090D01*
X61000000Y-70820395D01*
X63561305Y-68259090D01*
X96438695Y-68259090D01*
X99000000Y-70820395D01*
X101561305Y-68259090D01*
X101194360Y-67763657D01*
X99788829Y-67170264D01*
X98263207Y-67159913D01*
X96849754Y-67734181D01*
X96805640Y-67763657D01*
X96438695Y-68259090D01*
X63561305Y-68259090D01*
X63194360Y-67763657D01*
X61788829Y-67170264D01*
X60263207Y-67159913D01*
X58849754Y-67734181D01*
X58805640Y-67763657D01*
X58438695Y-68259090D01*
X57711211Y-68259090D01*
X57754628Y-68198669D01*
X58301988Y-67668239D01*
X58934639Y-67243116D01*
X59632561Y-66936749D01*
X60379183Y-66757501D01*
X61026030Y-66710000D01*
X98968382Y-66710000D01*
X99759192Y-66780578D01*
G36*
X83234485Y-93515712D02*
X81710199Y-95040000D01*
X80904801Y-95040000D01*
X83234486Y-92710316D01*
X83234485Y-93515712D01*
X83234485Y-93515712D01*
G37*
X83234485Y-93515712D02*
X81710199Y-95040000D01*
X80904801Y-95040000D01*
X83234486Y-92710316D01*
X83234485Y-93515712D01*
G36*
X77185000Y-88455874D02*
X77342569Y-88836280D01*
X77385000Y-88878711D01*
X77385001Y-89861288D01*
X77352569Y-89893720D01*
X77195000Y-90274126D01*
X77195000Y-90685874D01*
X77238130Y-90790000D01*
X66204860Y-90790000D01*
X65990625Y-90469375D01*
X65692239Y-90270000D01*
X65990625Y-90070625D01*
X66238257Y-89700017D01*
X66276783Y-89692354D01*
X66519905Y-89529905D01*
X66560911Y-89468535D01*
X67759914Y-88269533D01*
X77185000Y-88269533D01*
X77185000Y-88455874D01*
X77185000Y-88455874D01*
G37*
X77185000Y-88455874D02*
X77342569Y-88836280D01*
X77385000Y-88878711D01*
X77385001Y-89861288D01*
X77352569Y-89893720D01*
X77195000Y-90274126D01*
X77195000Y-90685874D01*
X77238130Y-90790000D01*
X66204860Y-90790000D01*
X65990625Y-90469375D01*
X65692239Y-90270000D01*
X65990625Y-90070625D01*
X66238257Y-89700017D01*
X66276783Y-89692354D01*
X66519905Y-89529905D01*
X66560911Y-89468535D01*
X67759914Y-88269533D01*
X77185000Y-88269533D01*
X77185000Y-88455874D01*
G04 #@! TD*
M02*
