M48
;DRILL file {KiCad (5.0.2)-1} date 19/01/2019 12:25:24
;FORMAT={-:-/ absolute / inch / decimal}
FMAT,2
INCH,TZ
T1C0.0118
T2C0.0157
T3C0.0197
T4C0.0394
T5C0.1260
%
G90
G05
T1
X2.7854Y-3.5752
X2.8524Y-3.3811
X3.1283Y-3.4058
X3.1331Y-3.6291
X3.1713Y-3.4058
X3.1768Y-3.6291
X3.2154Y-3.5228
X3.2189Y-3.4236
X3.221Y-3.4462
X3.2386Y-3.2748
X3.253Y-3.5876
X3.2677Y-3.6486
X3.2677Y-3.69
X3.2811Y-3.2748
X3.2842Y-3.6132
X3.3069Y-3.6133
X3.3197Y-3.1933
X3.3264Y-3.2925
X3.3296Y-3.6123
X3.3508Y-3.6203
X3.363Y-3.1933
X3.4045Y-3.7589
X3.4087Y-3.2512
X3.4114Y-3.6453
X3.4516Y-3.2508
X3.502Y-3.2512
X3.5449Y-3.252
X3.6299Y-3.5394
X3.6535Y-3.4665
X3.6535Y-3.5394
X3.6772Y-3.4665
X3.6772Y-3.5394
X3.7008Y-3.4665
X3.7008Y-3.5394
X3.7244Y-3.4665
X3.7244Y-3.5394
X3.748Y-3.4665
X3.748Y-3.5394
X3.7717Y-3.4665
X3.7717Y-3.5394
X3.7953Y-3.4665
X3.7953Y-3.5394
X3.8189Y-3.4665
X3.8189Y-3.5394
X3.8425Y-3.4665
X3.8425Y-3.5394
X3.8622Y-3.4665
X3.8622Y-3.5394
X3.8858Y-3.4665
X3.8858Y-3.5394
X3.9094Y-3.4665
X3.9094Y-3.5394
X3.9311Y-3.4055
X3.9331Y-3.4665
X3.9331Y-3.5394
X3.935Y-3.5945
X3.9488Y-3.4055
X3.9528Y-3.5945
X3.9665Y-3.4055
X3.9705Y-3.5945
X3.9843Y-3.4055
X3.9882Y-3.5945
X4.002Y-3.4055
X4.0059Y-3.5945
X4.0197Y-3.4055
X4.0236Y-3.5945
X4.0374Y-3.4055
X4.0413Y-3.5945
X4.0551Y-3.4055
X4.0591Y-3.5945
X4.0728Y-3.4055
X4.0768Y-3.5945
X3.2987Y-3.4542
X3.2987Y-3.4936
X3.2987Y-3.533
X3.3381Y-3.4542
X3.3381Y-3.4936
X3.3381Y-3.533
X3.3775Y-3.4542
X3.3775Y-3.4936
X3.3775Y-3.533
T2
X2.3622Y-2.9528
X2.3622Y-4.0354
X2.3819Y-3.1102
X2.4606Y-3.937
X2.4606Y-4.1339
X2.5591Y-2.8543
X2.5591Y-3.8386
X2.5591Y-4.0354
X2.5591Y-4.2323
X2.6406Y-4.022
X2.6575Y-2.9528
X2.6575Y-3.3465
X2.6575Y-3.5433
X2.6575Y-3.6417
X2.6575Y-3.937
X2.6614Y-3.
X2.6614Y-3.1024
X2.6969Y-3.
X2.6969Y-3.0354
X2.739Y-3.9067
X2.7559Y-2.8543
X2.7559Y-3.0512
X2.7559Y-3.248
X2.7559Y-3.6417
X2.7559Y-3.8386
X2.7559Y-4.2323
X2.7559Y-4.2323
X2.7559Y-4.2323
X2.815Y-3.8516
X2.8232Y-3.3004
X2.8543Y-2.9528
X2.8543Y-3.1496
X2.8543Y-3.6417
X2.8543Y-4.1339
X2.8543Y-4.3307
X2.9134Y-3.2205
X2.9457Y-3.2949
X2.9528Y-2.8543
X2.9528Y-3.0512
X2.9528Y-3.248
X2.9528Y-3.6417
X2.9528Y-4.2323
X2.9701Y-3.5614
X3.0512Y-2.9528
X3.0512Y-3.1496
X3.0512Y-3.3465
X3.0512Y-3.937
X3.0512Y-4.1339
X3.0512Y-4.3307
X3.0795Y-3.4744
X3.0799Y-3.5622
X3.1496Y-2.8543
X3.1496Y-3.0512
X3.1496Y-3.248
X3.1496Y-3.8386
X3.1496Y-4.0354
X3.1496Y-4.2323
X3.248Y-2.9528
X3.248Y-3.1496
X3.248Y-3.937
X3.248Y-4.1339
X3.248Y-4.3307
X3.3465Y-2.8543
X3.3465Y-3.0512
X3.3465Y-3.8386
X3.3465Y-4.0354
X3.3465Y-4.2323
X3.4449Y-2.9528
X3.4449Y-3.1496
X3.4449Y-3.937
X3.4449Y-4.1339
X3.4449Y-4.3307
X3.4547Y-3.7175
X3.4843Y-3.6122
X3.5089Y-3.7589
X3.5266Y-3.6122
X3.5433Y-2.8543
X3.5433Y-3.0512
X3.5433Y-3.8386
X3.5433Y-4.0354
X3.5433Y-4.2323
X3.5909Y-3.6201
X3.6209Y-3.411
X3.6217Y-3.3677
X3.6417Y-2.9528
X3.6417Y-3.1496
X3.6417Y-3.7402
X3.6417Y-3.937
X3.6417Y-4.1339
X3.6417Y-4.3307
X3.6587Y-3.6689
X3.6909Y-3.3185
X3.7008Y-3.5876
X3.7402Y-2.8543
X3.7402Y-3.0512
X3.7402Y-3.248
X3.7402Y-3.5827
X3.7402Y-3.6417
X3.7402Y-3.8386
X3.7402Y-4.0354
X3.7441Y-3.4301
X3.7795Y-3.4252
X3.7795Y-3.5827
X3.8189Y-3.4252
X3.8189Y-3.5827
X3.8386Y-2.9528
X3.8386Y-3.1496
X3.8386Y-3.3465
X3.8386Y-3.6417
X3.8386Y-3.7402
X3.8386Y-3.937
X3.8386Y-4.1339
X3.8583Y-3.4252
X3.8583Y-3.5827
X3.8976Y-3.3071
X3.8976Y-3.3465
X3.8976Y-3.3858
X3.8976Y-3.4252
X3.8976Y-3.5827
X3.8976Y-3.622
X3.8976Y-3.6614
X3.8976Y-3.7008
X3.937Y-3.0512
X3.937Y-3.248
X3.937Y-3.3071
X3.937Y-3.7008
X3.937Y-3.7402
X3.937Y-3.8386
X3.937Y-4.0354
X3.9764Y-3.3071
X3.9764Y-3.7008
X4.0157Y-3.3071
X4.0157Y-3.7008
X4.0551Y-3.3071
X4.0551Y-3.7008
T3
X3.8031Y-2.7953
X3.8308Y-2.7285
X3.8308Y-2.8621
X3.8976Y-2.7008
X3.8976Y-2.8898
X3.9645Y-2.7285
X3.9645Y-2.8621
X3.9921Y-2.7953
X2.3071Y-2.7953
X2.3348Y-2.7285
X2.3348Y-2.8621
X2.4016Y-2.7008
X2.4016Y-2.8898
X2.4684Y-2.7285
X2.4684Y-2.8621
X2.4961Y-2.7953
X3.8031Y-4.2913
X3.8308Y-4.2245
X3.8308Y-4.3582
X3.8976Y-4.1969
X3.8976Y-4.3858
X3.9645Y-4.2245
X3.9645Y-4.3582
X3.9921Y-4.2913
X2.3071Y-4.2913
X2.3348Y-4.2245
X2.3348Y-4.3582
X2.4016Y-4.1969
X2.4016Y-4.3858
X2.4684Y-4.2245
X2.4684Y-4.3582
X2.4961Y-4.2913
T4
X2.4559Y-3.3039
X2.4559Y-3.4039
X2.4559Y-3.5039
X2.4559Y-3.6039
X2.4559Y-3.7039
X2.5559Y-3.3039
X2.5559Y-3.4039
X2.5559Y-3.5039
X2.5559Y-3.6039
X2.5559Y-3.7039
T5
X3.8976Y-2.7953
X2.4016Y-2.7953
X3.8976Y-4.2913
X2.4016Y-4.2913
T0
M30
