G04 #@! TF.GenerationSoftware,KiCad,Pcbnew,(5.0.2)-1*
G04 #@! TF.CreationDate,2019-01-06T11:57:04+11:00*
G04 #@! TF.ProjectId,MAX2870_Dev_Rev_0,4d415832-3837-4305-9f44-65765f526576,rev?*
G04 #@! TF.SameCoordinates,Original*
G04 #@! TF.FileFunction,Legend,Bot*
G04 #@! TF.FilePolarity,Positive*
%FSLAX46Y46*%
G04 Gerber Fmt 4.6, Leading zero omitted, Abs format (unit mm)*
G04 Created by KiCad (PCBNEW (5.0.2)-1) date 6/01/2019 11:57:04*
%MOMM*%
%LPD*%
G01*
G04 APERTURE LIST*
%ADD10C,0.150000*%
G04 APERTURE END LIST*
D10*
X94390476Y-110785714D02*
X94390476Y-111595238D01*
X94438095Y-111690476D01*
X94485714Y-111738095D01*
X94580952Y-111785714D01*
X94723809Y-111785714D01*
X94819047Y-111738095D01*
X94390476Y-111404761D02*
X94485714Y-111452380D01*
X94676190Y-111452380D01*
X94771428Y-111404761D01*
X94819047Y-111357142D01*
X94866666Y-111261904D01*
X94866666Y-110976190D01*
X94819047Y-110880952D01*
X94771428Y-110833333D01*
X94676190Y-110785714D01*
X94485714Y-110785714D01*
X94390476Y-110833333D01*
X93914285Y-111452380D02*
X93914285Y-110785714D01*
X93914285Y-110452380D02*
X93961904Y-110500000D01*
X93914285Y-110547619D01*
X93866666Y-110500000D01*
X93914285Y-110452380D01*
X93914285Y-110547619D01*
X93580952Y-110785714D02*
X93200000Y-110785714D01*
X93438095Y-110452380D02*
X93438095Y-111309523D01*
X93390476Y-111404761D01*
X93295238Y-111452380D01*
X93200000Y-111452380D01*
X92866666Y-111452380D02*
X92866666Y-110452380D01*
X92438095Y-111452380D02*
X92438095Y-110928571D01*
X92485714Y-110833333D01*
X92580952Y-110785714D01*
X92723809Y-110785714D01*
X92819047Y-110833333D01*
X92866666Y-110880952D01*
X91533333Y-110785714D02*
X91533333Y-111452380D01*
X91961904Y-110785714D02*
X91961904Y-111309523D01*
X91914285Y-111404761D01*
X91819047Y-111452380D01*
X91676190Y-111452380D01*
X91580952Y-111404761D01*
X91533333Y-111357142D01*
X91057142Y-111452380D02*
X91057142Y-110452380D01*
X91057142Y-110833333D02*
X90961904Y-110785714D01*
X90771428Y-110785714D01*
X90676190Y-110833333D01*
X90628571Y-110880952D01*
X90580952Y-110976190D01*
X90580952Y-111261904D01*
X90628571Y-111357142D01*
X90676190Y-111404761D01*
X90771428Y-111452380D01*
X90961904Y-111452380D01*
X91057142Y-111404761D01*
X90152380Y-111357142D02*
X90104761Y-111404761D01*
X90152380Y-111452380D01*
X90200000Y-111404761D01*
X90152380Y-111357142D01*
X90152380Y-111452380D01*
X89247619Y-111404761D02*
X89342857Y-111452380D01*
X89533333Y-111452380D01*
X89628571Y-111404761D01*
X89676190Y-111357142D01*
X89723809Y-111261904D01*
X89723809Y-110976190D01*
X89676190Y-110880952D01*
X89628571Y-110833333D01*
X89533333Y-110785714D01*
X89342857Y-110785714D01*
X89247619Y-110833333D01*
X88676190Y-111452380D02*
X88771428Y-111404761D01*
X88819047Y-111357142D01*
X88866666Y-111261904D01*
X88866666Y-110976190D01*
X88819047Y-110880952D01*
X88771428Y-110833333D01*
X88676190Y-110785714D01*
X88533333Y-110785714D01*
X88438095Y-110833333D01*
X88390476Y-110880952D01*
X88342857Y-110976190D01*
X88342857Y-111261904D01*
X88390476Y-111357142D01*
X88438095Y-111404761D01*
X88533333Y-111452380D01*
X88676190Y-111452380D01*
X87914285Y-111452380D02*
X87914285Y-110785714D01*
X87914285Y-110880952D02*
X87866666Y-110833333D01*
X87771428Y-110785714D01*
X87628571Y-110785714D01*
X87533333Y-110833333D01*
X87485714Y-110928571D01*
X87485714Y-111452380D01*
X87485714Y-110928571D02*
X87438095Y-110833333D01*
X87342857Y-110785714D01*
X87200000Y-110785714D01*
X87104761Y-110833333D01*
X87057142Y-110928571D01*
X87057142Y-111452380D01*
X85866666Y-110404761D02*
X86723809Y-111690476D01*
X85533333Y-110785714D02*
X85533333Y-111642857D01*
X85580952Y-111738095D01*
X85676190Y-111785714D01*
X85723809Y-111785714D01*
X85533333Y-110452380D02*
X85580952Y-110500000D01*
X85533333Y-110547619D01*
X85485714Y-110500000D01*
X85533333Y-110452380D01*
X85533333Y-110547619D01*
X84914285Y-111452380D02*
X85009523Y-111404761D01*
X85057142Y-111357142D01*
X85104761Y-111261904D01*
X85104761Y-110976190D01*
X85057142Y-110880952D01*
X85009523Y-110833333D01*
X84914285Y-110785714D01*
X84771428Y-110785714D01*
X84676190Y-110833333D01*
X84628571Y-110880952D01*
X84580952Y-110976190D01*
X84580952Y-111261904D01*
X84628571Y-111357142D01*
X84676190Y-111404761D01*
X84771428Y-111452380D01*
X84914285Y-111452380D01*
X84200000Y-111404761D02*
X84104761Y-111452380D01*
X83914285Y-111452380D01*
X83819047Y-111404761D01*
X83771428Y-111309523D01*
X83771428Y-111261904D01*
X83819047Y-111166666D01*
X83914285Y-111119047D01*
X84057142Y-111119047D01*
X84152380Y-111071428D01*
X84200000Y-110976190D01*
X84200000Y-110928571D01*
X84152380Y-110833333D01*
X84057142Y-110785714D01*
X83914285Y-110785714D01*
X83819047Y-110833333D01*
X83342857Y-111452380D02*
X83342857Y-110452380D01*
X82914285Y-111452380D02*
X82914285Y-110928571D01*
X82961904Y-110833333D01*
X83057142Y-110785714D01*
X83200000Y-110785714D01*
X83295238Y-110833333D01*
X83342857Y-110880952D01*
X82009523Y-111452380D02*
X82009523Y-110928571D01*
X82057142Y-110833333D01*
X82152380Y-110785714D01*
X82342857Y-110785714D01*
X82438095Y-110833333D01*
X82009523Y-111404761D02*
X82104761Y-111452380D01*
X82342857Y-111452380D01*
X82438095Y-111404761D01*
X82485714Y-111309523D01*
X82485714Y-111214285D01*
X82438095Y-111119047D01*
X82342857Y-111071428D01*
X82104761Y-111071428D01*
X82009523Y-111023809D01*
X81533333Y-110785714D02*
X81533333Y-111642857D01*
X81580952Y-111738095D01*
X81676190Y-111785714D01*
X81723809Y-111785714D01*
X81533333Y-110452380D02*
X81580952Y-110500000D01*
X81533333Y-110547619D01*
X81485714Y-110500000D01*
X81533333Y-110452380D01*
X81533333Y-110547619D01*
X80914285Y-111452380D02*
X81009523Y-111404761D01*
X81057142Y-111357142D01*
X81104761Y-111261904D01*
X81104761Y-110976190D01*
X81057142Y-110880952D01*
X81009523Y-110833333D01*
X80914285Y-110785714D01*
X80771428Y-110785714D01*
X80676190Y-110833333D01*
X80628571Y-110880952D01*
X80580952Y-110976190D01*
X80580952Y-111261904D01*
X80628571Y-111357142D01*
X80676190Y-111404761D01*
X80771428Y-111452380D01*
X80914285Y-111452380D01*
X80152380Y-111452380D02*
X80152380Y-110452380D01*
X79723809Y-111452380D02*
X79723809Y-110928571D01*
X79771428Y-110833333D01*
X79866666Y-110785714D01*
X80009523Y-110785714D01*
X80104761Y-110833333D01*
X80152380Y-110880952D01*
X79247619Y-110785714D02*
X79247619Y-111452380D01*
X79247619Y-110880952D02*
X79200000Y-110833333D01*
X79104761Y-110785714D01*
X78961904Y-110785714D01*
X78866666Y-110833333D01*
X78819047Y-110928571D01*
X78819047Y-111452380D01*
X78390476Y-111404761D02*
X78295238Y-111452380D01*
X78104761Y-111452380D01*
X78009523Y-111404761D01*
X77961904Y-111309523D01*
X77961904Y-111261904D01*
X78009523Y-111166666D01*
X78104761Y-111119047D01*
X78247619Y-111119047D01*
X78342857Y-111071428D01*
X78390476Y-110976190D01*
X78390476Y-110928571D01*
X78342857Y-110833333D01*
X78247619Y-110785714D01*
X78104761Y-110785714D01*
X78009523Y-110833333D01*
X77390476Y-111452380D02*
X77485714Y-111404761D01*
X77533333Y-111357142D01*
X77580952Y-111261904D01*
X77580952Y-110976190D01*
X77533333Y-110880952D01*
X77485714Y-110833333D01*
X77390476Y-110785714D01*
X77247619Y-110785714D01*
X77152380Y-110833333D01*
X77104761Y-110880952D01*
X77057142Y-110976190D01*
X77057142Y-111261904D01*
X77104761Y-111357142D01*
X77152380Y-111404761D01*
X77247619Y-111452380D01*
X77390476Y-111452380D01*
X76628571Y-110785714D02*
X76628571Y-111452380D01*
X76628571Y-110880952D02*
X76580952Y-110833333D01*
X76485714Y-110785714D01*
X76342857Y-110785714D01*
X76247619Y-110833333D01*
X76200000Y-110928571D01*
X76200000Y-111452380D01*
X75009523Y-110404761D02*
X75866666Y-111690476D01*
X74771428Y-110785714D02*
X74533333Y-111452380D01*
X74295238Y-110785714D01*
X73914285Y-110785714D02*
X73914285Y-111452380D01*
X73914285Y-110880952D02*
X73866666Y-110833333D01*
X73771428Y-110785714D01*
X73628571Y-110785714D01*
X73533333Y-110833333D01*
X73485714Y-110928571D01*
X73485714Y-111452380D01*
X72580952Y-111452380D02*
X72580952Y-110928571D01*
X72628571Y-110833333D01*
X72723809Y-110785714D01*
X72914285Y-110785714D01*
X73009523Y-110833333D01*
X72580952Y-111404761D02*
X72676190Y-111452380D01*
X72914285Y-111452380D01*
X73009523Y-111404761D01*
X73057142Y-111309523D01*
X73057142Y-111214285D01*
X73009523Y-111119047D01*
X72914285Y-111071428D01*
X72676190Y-111071428D01*
X72580952Y-111023809D01*
X94602380Y-108385714D02*
X94602380Y-109242857D01*
X94650000Y-109338095D01*
X94745238Y-109385714D01*
X94792857Y-109385714D01*
X94602380Y-108052380D02*
X94650000Y-108100000D01*
X94602380Y-108147619D01*
X94554761Y-108100000D01*
X94602380Y-108052380D01*
X94602380Y-108147619D01*
X93983333Y-109052380D02*
X94078571Y-109004761D01*
X94126190Y-108957142D01*
X94173809Y-108861904D01*
X94173809Y-108576190D01*
X94126190Y-108480952D01*
X94078571Y-108433333D01*
X93983333Y-108385714D01*
X93840476Y-108385714D01*
X93745238Y-108433333D01*
X93697619Y-108480952D01*
X93650000Y-108576190D01*
X93650000Y-108861904D01*
X93697619Y-108957142D01*
X93745238Y-109004761D01*
X93840476Y-109052380D01*
X93983333Y-109052380D01*
X93269047Y-109004761D02*
X93173809Y-109052380D01*
X92983333Y-109052380D01*
X92888095Y-109004761D01*
X92840476Y-108909523D01*
X92840476Y-108861904D01*
X92888095Y-108766666D01*
X92983333Y-108719047D01*
X93126190Y-108719047D01*
X93221428Y-108671428D01*
X93269047Y-108576190D01*
X93269047Y-108528571D01*
X93221428Y-108433333D01*
X93126190Y-108385714D01*
X92983333Y-108385714D01*
X92888095Y-108433333D01*
X92411904Y-109052380D02*
X92411904Y-108052380D01*
X91983333Y-109052380D02*
X91983333Y-108528571D01*
X92030952Y-108433333D01*
X92126190Y-108385714D01*
X92269047Y-108385714D01*
X92364285Y-108433333D01*
X92411904Y-108480952D01*
X91078571Y-109052380D02*
X91078571Y-108528571D01*
X91126190Y-108433333D01*
X91221428Y-108385714D01*
X91411904Y-108385714D01*
X91507142Y-108433333D01*
X91078571Y-109004761D02*
X91173809Y-109052380D01*
X91411904Y-109052380D01*
X91507142Y-109004761D01*
X91554761Y-108909523D01*
X91554761Y-108814285D01*
X91507142Y-108719047D01*
X91411904Y-108671428D01*
X91173809Y-108671428D01*
X91078571Y-108623809D01*
X90602380Y-108385714D02*
X90602380Y-109242857D01*
X90650000Y-109338095D01*
X90745238Y-109385714D01*
X90792857Y-109385714D01*
X90602380Y-108052380D02*
X90650000Y-108100000D01*
X90602380Y-108147619D01*
X90554761Y-108100000D01*
X90602380Y-108052380D01*
X90602380Y-108147619D01*
X89983333Y-109052380D02*
X90078571Y-109004761D01*
X90126190Y-108957142D01*
X90173809Y-108861904D01*
X90173809Y-108576190D01*
X90126190Y-108480952D01*
X90078571Y-108433333D01*
X89983333Y-108385714D01*
X89840476Y-108385714D01*
X89745238Y-108433333D01*
X89697619Y-108480952D01*
X89650000Y-108576190D01*
X89650000Y-108861904D01*
X89697619Y-108957142D01*
X89745238Y-109004761D01*
X89840476Y-109052380D01*
X89983333Y-109052380D01*
X89221428Y-109052380D02*
X89221428Y-108052380D01*
X88792857Y-109052380D02*
X88792857Y-108528571D01*
X88840476Y-108433333D01*
X88935714Y-108385714D01*
X89078571Y-108385714D01*
X89173809Y-108433333D01*
X89221428Y-108480952D01*
X88316666Y-108385714D02*
X88316666Y-109052380D01*
X88316666Y-108480952D02*
X88269047Y-108433333D01*
X88173809Y-108385714D01*
X88030952Y-108385714D01*
X87935714Y-108433333D01*
X87888095Y-108528571D01*
X87888095Y-109052380D01*
X87459523Y-109004761D02*
X87364285Y-109052380D01*
X87173809Y-109052380D01*
X87078571Y-109004761D01*
X87030952Y-108909523D01*
X87030952Y-108861904D01*
X87078571Y-108766666D01*
X87173809Y-108719047D01*
X87316666Y-108719047D01*
X87411904Y-108671428D01*
X87459523Y-108576190D01*
X87459523Y-108528571D01*
X87411904Y-108433333D01*
X87316666Y-108385714D01*
X87173809Y-108385714D01*
X87078571Y-108433333D01*
X86459523Y-109052380D02*
X86554761Y-109004761D01*
X86602380Y-108957142D01*
X86650000Y-108861904D01*
X86650000Y-108576190D01*
X86602380Y-108480952D01*
X86554761Y-108433333D01*
X86459523Y-108385714D01*
X86316666Y-108385714D01*
X86221428Y-108433333D01*
X86173809Y-108480952D01*
X86126190Y-108576190D01*
X86126190Y-108861904D01*
X86173809Y-108957142D01*
X86221428Y-109004761D01*
X86316666Y-109052380D01*
X86459523Y-109052380D01*
X85697619Y-108385714D02*
X85697619Y-109052380D01*
X85697619Y-108480952D02*
X85650000Y-108433333D01*
X85554761Y-108385714D01*
X85411904Y-108385714D01*
X85316666Y-108433333D01*
X85269047Y-108528571D01*
X85269047Y-109052380D01*
X84792857Y-108957142D02*
X84745238Y-109004761D01*
X84792857Y-109052380D01*
X84840476Y-109004761D01*
X84792857Y-108957142D01*
X84792857Y-109052380D01*
X83888095Y-109004761D02*
X83983333Y-109052380D01*
X84173809Y-109052380D01*
X84269047Y-109004761D01*
X84316666Y-108957142D01*
X84364285Y-108861904D01*
X84364285Y-108576190D01*
X84316666Y-108480952D01*
X84269047Y-108433333D01*
X84173809Y-108385714D01*
X83983333Y-108385714D01*
X83888095Y-108433333D01*
X83316666Y-109052380D02*
X83411904Y-109004761D01*
X83459523Y-108957142D01*
X83507142Y-108861904D01*
X83507142Y-108576190D01*
X83459523Y-108480952D01*
X83411904Y-108433333D01*
X83316666Y-108385714D01*
X83173809Y-108385714D01*
X83078571Y-108433333D01*
X83030952Y-108480952D01*
X82983333Y-108576190D01*
X82983333Y-108861904D01*
X83030952Y-108957142D01*
X83078571Y-109004761D01*
X83173809Y-109052380D01*
X83316666Y-109052380D01*
X82554761Y-109052380D02*
X82554761Y-108385714D01*
X82554761Y-108480952D02*
X82507142Y-108433333D01*
X82411904Y-108385714D01*
X82269047Y-108385714D01*
X82173809Y-108433333D01*
X82126190Y-108528571D01*
X82126190Y-109052380D01*
X82126190Y-108528571D02*
X82078571Y-108433333D01*
X81983333Y-108385714D01*
X81840476Y-108385714D01*
X81745238Y-108433333D01*
X81697619Y-108528571D01*
X81697619Y-109052380D01*
X94445238Y-105702380D02*
X94445238Y-106416666D01*
X94492857Y-106559523D01*
X94588095Y-106654761D01*
X94730952Y-106702380D01*
X94826190Y-106702380D01*
X93826190Y-106702380D02*
X93921428Y-106654761D01*
X93969047Y-106607142D01*
X94016666Y-106511904D01*
X94016666Y-106226190D01*
X93969047Y-106130952D01*
X93921428Y-106083333D01*
X93826190Y-106035714D01*
X93683333Y-106035714D01*
X93588095Y-106083333D01*
X93540476Y-106130952D01*
X93492857Y-106226190D01*
X93492857Y-106511904D01*
X93540476Y-106607142D01*
X93588095Y-106654761D01*
X93683333Y-106702380D01*
X93826190Y-106702380D01*
X93111904Y-106654761D02*
X93016666Y-106702380D01*
X92826190Y-106702380D01*
X92730952Y-106654761D01*
X92683333Y-106559523D01*
X92683333Y-106511904D01*
X92730952Y-106416666D01*
X92826190Y-106369047D01*
X92969047Y-106369047D01*
X93064285Y-106321428D01*
X93111904Y-106226190D01*
X93111904Y-106178571D01*
X93064285Y-106083333D01*
X92969047Y-106035714D01*
X92826190Y-106035714D01*
X92730952Y-106083333D01*
X92254761Y-106702380D02*
X92254761Y-105702380D01*
X91826190Y-106702380D02*
X91826190Y-106178571D01*
X91873809Y-106083333D01*
X91969047Y-106035714D01*
X92111904Y-106035714D01*
X92207142Y-106083333D01*
X92254761Y-106130952D01*
X90302380Y-105702380D02*
X90302380Y-106416666D01*
X90350000Y-106559523D01*
X90445238Y-106654761D01*
X90588095Y-106702380D01*
X90683333Y-106702380D01*
X89683333Y-106702380D02*
X89778571Y-106654761D01*
X89826190Y-106607142D01*
X89873809Y-106511904D01*
X89873809Y-106226190D01*
X89826190Y-106130952D01*
X89778571Y-106083333D01*
X89683333Y-106035714D01*
X89540476Y-106035714D01*
X89445238Y-106083333D01*
X89397619Y-106130952D01*
X89350000Y-106226190D01*
X89350000Y-106511904D01*
X89397619Y-106607142D01*
X89445238Y-106654761D01*
X89540476Y-106702380D01*
X89683333Y-106702380D01*
X88921428Y-106702380D02*
X88921428Y-105702380D01*
X88492857Y-106702380D02*
X88492857Y-106178571D01*
X88540476Y-106083333D01*
X88635714Y-106035714D01*
X88778571Y-106035714D01*
X88873809Y-106083333D01*
X88921428Y-106130952D01*
X88016666Y-106035714D02*
X88016666Y-106702380D01*
X88016666Y-106130952D02*
X87969047Y-106083333D01*
X87873809Y-106035714D01*
X87730952Y-106035714D01*
X87635714Y-106083333D01*
X87588095Y-106178571D01*
X87588095Y-106702380D01*
X87159523Y-106654761D02*
X87064285Y-106702380D01*
X86873809Y-106702380D01*
X86778571Y-106654761D01*
X86730952Y-106559523D01*
X86730952Y-106511904D01*
X86778571Y-106416666D01*
X86873809Y-106369047D01*
X87016666Y-106369047D01*
X87111904Y-106321428D01*
X87159523Y-106226190D01*
X87159523Y-106178571D01*
X87111904Y-106083333D01*
X87016666Y-106035714D01*
X86873809Y-106035714D01*
X86778571Y-106083333D01*
X86159523Y-106702380D02*
X86254761Y-106654761D01*
X86302380Y-106607142D01*
X86350000Y-106511904D01*
X86350000Y-106226190D01*
X86302380Y-106130952D01*
X86254761Y-106083333D01*
X86159523Y-106035714D01*
X86016666Y-106035714D01*
X85921428Y-106083333D01*
X85873809Y-106130952D01*
X85826190Y-106226190D01*
X85826190Y-106511904D01*
X85873809Y-106607142D01*
X85921428Y-106654761D01*
X86016666Y-106702380D01*
X86159523Y-106702380D01*
X85397619Y-106035714D02*
X85397619Y-106702380D01*
X85397619Y-106130952D02*
X85350000Y-106083333D01*
X85254761Y-106035714D01*
X85111904Y-106035714D01*
X85016666Y-106083333D01*
X84969047Y-106178571D01*
X84969047Y-106702380D01*
M02*
