G04 #@! TF.GenerationSoftware,KiCad,Pcbnew,(5.0.2)-1*
G04 #@! TF.CreationDate,2019-01-06T11:57:04+11:00*
G04 #@! TF.ProjectId,MAX2870_Dev_Rev_0,4d415832-3837-4305-9f44-65765f526576,rev?*
G04 #@! TF.SameCoordinates,Original*
G04 #@! TF.FileFunction,Soldermask,Top*
G04 #@! TF.FilePolarity,Negative*
%FSLAX46Y46*%
G04 Gerber Fmt 4.6, Leading zero omitted, Abs format (unit mm)*
G04 Created by KiCad (PCBNEW (5.0.2)-1) date 6/01/2019 11:57:04*
%MOMM*%
%LPD*%
G01*
G04 APERTURE LIST*
%ADD10C,0.150000*%
%ADD11C,0.010000*%
%ADD12C,0.100000*%
G04 APERTURE END LIST*
D10*
G04 #@! TO.C,REF\002A\002A*
G36*
X65350000Y-108550000D02*
X71350000Y-108550000D01*
X71350000Y-110800000D01*
X65350000Y-110800000D01*
X65350000Y-108550000D01*
G37*
X65350000Y-108550000D02*
X71350000Y-108550000D01*
X71350000Y-110800000D01*
X65350000Y-110800000D01*
X65350000Y-108550000D01*
D11*
G04 #@! TO.C,*
G36*
X75046025Y-108363358D02*
X75087086Y-108363668D01*
X75123939Y-108364144D01*
X75155448Y-108364763D01*
X75180478Y-108365502D01*
X75197893Y-108366337D01*
X75206557Y-108367244D01*
X75207210Y-108367471D01*
X75209787Y-108373471D01*
X75213922Y-108388787D01*
X75219466Y-108412721D01*
X75226268Y-108444573D01*
X75234179Y-108483644D01*
X75243047Y-108529237D01*
X75250901Y-108570850D01*
X75259151Y-108614601D01*
X75267001Y-108655265D01*
X75274225Y-108691748D01*
X75280599Y-108722957D01*
X75285898Y-108747798D01*
X75289897Y-108765177D01*
X75292372Y-108774000D01*
X75292802Y-108774834D01*
X75299048Y-108778371D01*
X75313151Y-108784916D01*
X75333676Y-108793889D01*
X75359190Y-108804710D01*
X75388258Y-108816800D01*
X75419446Y-108829578D01*
X75451320Y-108842466D01*
X75482447Y-108854882D01*
X75511392Y-108866248D01*
X75536721Y-108875983D01*
X75556999Y-108883508D01*
X75570794Y-108888242D01*
X75576671Y-108889607D01*
X75576678Y-108889605D01*
X75581988Y-108886333D01*
X75594724Y-108877928D01*
X75613948Y-108865025D01*
X75638724Y-108848257D01*
X75668114Y-108828260D01*
X75701180Y-108805669D01*
X75736986Y-108781119D01*
X75745656Y-108775162D01*
X75782085Y-108750277D01*
X75816148Y-108727306D01*
X75846886Y-108706874D01*
X75873339Y-108689606D01*
X75894549Y-108676126D01*
X75909556Y-108667059D01*
X75917401Y-108663028D01*
X75918086Y-108662879D01*
X75923807Y-108666391D01*
X75935602Y-108676292D01*
X75952520Y-108691632D01*
X75973609Y-108711458D01*
X75997919Y-108734820D01*
X76024500Y-108760767D01*
X76052400Y-108788347D01*
X76080669Y-108816609D01*
X76108355Y-108844603D01*
X76134508Y-108871376D01*
X76158178Y-108895978D01*
X76178412Y-108917458D01*
X76194261Y-108934864D01*
X76204774Y-108947246D01*
X76208999Y-108953651D01*
X76209040Y-108953938D01*
X76206243Y-108960058D01*
X76198279Y-108973530D01*
X76185789Y-108993372D01*
X76169410Y-109018598D01*
X76149783Y-109048226D01*
X76127547Y-109081269D01*
X76103341Y-109116745D01*
X76101788Y-109119005D01*
X76077294Y-109154726D01*
X76054499Y-109188139D01*
X76034080Y-109218244D01*
X76016708Y-109244038D01*
X76003060Y-109264521D01*
X75993807Y-109278692D01*
X75989626Y-109285550D01*
X75989568Y-109285670D01*
X75988784Y-109290391D01*
X75989912Y-109298231D01*
X75993299Y-109310143D01*
X75999292Y-109327084D01*
X76008241Y-109350007D01*
X76020491Y-109379867D01*
X76036390Y-109417619D01*
X76044749Y-109437252D01*
X76061018Y-109474852D01*
X76076011Y-109508510D01*
X76089231Y-109537168D01*
X76100175Y-109559772D01*
X76108346Y-109575265D01*
X76113243Y-109582592D01*
X76113710Y-109582948D01*
X76120560Y-109584928D01*
X76136248Y-109588502D01*
X76159616Y-109593434D01*
X76189508Y-109599491D01*
X76224767Y-109606439D01*
X76264236Y-109614044D01*
X76306757Y-109622071D01*
X76311409Y-109622940D01*
X76360146Y-109632180D01*
X76403053Y-109640621D01*
X76439390Y-109648102D01*
X76468418Y-109654463D01*
X76489397Y-109659544D01*
X76501585Y-109663184D01*
X76504451Y-109664714D01*
X76505372Y-109671096D01*
X76506225Y-109686503D01*
X76506989Y-109709798D01*
X76507638Y-109739847D01*
X76508151Y-109775514D01*
X76508503Y-109815663D01*
X76508671Y-109859159D01*
X76508682Y-109870027D01*
X76508649Y-109921548D01*
X76508486Y-109963801D01*
X76508162Y-109997680D01*
X76507647Y-110024077D01*
X76506908Y-110043884D01*
X76505916Y-110057996D01*
X76504639Y-110067303D01*
X76503046Y-110072699D01*
X76501595Y-110074741D01*
X76495095Y-110076999D01*
X76479763Y-110080799D01*
X76456765Y-110085898D01*
X76427271Y-110092050D01*
X76392450Y-110099013D01*
X76353470Y-110106543D01*
X76312365Y-110114236D01*
X76266210Y-110122897D01*
X76224798Y-110130981D01*
X76189062Y-110138286D01*
X76159937Y-110144611D01*
X76138354Y-110149758D01*
X76125249Y-110153525D01*
X76121726Y-110155133D01*
X76117704Y-110161585D01*
X76110714Y-110175987D01*
X76101314Y-110196948D01*
X76090063Y-110223082D01*
X76077519Y-110253000D01*
X76064240Y-110285313D01*
X76050785Y-110318634D01*
X76037712Y-110351575D01*
X76025580Y-110382747D01*
X76014946Y-110410763D01*
X76006369Y-110434233D01*
X76000408Y-110451771D01*
X75997620Y-110461987D01*
X75997556Y-110463842D01*
X76000901Y-110469358D01*
X76009348Y-110482262D01*
X76022236Y-110501573D01*
X76038906Y-110526312D01*
X76058697Y-110555498D01*
X76080948Y-110588151D01*
X76104512Y-110622582D01*
X76128487Y-110657797D01*
X76150526Y-110690662D01*
X76169982Y-110720174D01*
X76186209Y-110745331D01*
X76198558Y-110765130D01*
X76206383Y-110778568D01*
X76209040Y-110784588D01*
X76205537Y-110790258D01*
X76195662Y-110802017D01*
X76180363Y-110818914D01*
X76160590Y-110839997D01*
X76137290Y-110864314D01*
X76111414Y-110890912D01*
X76083908Y-110918838D01*
X76055723Y-110947142D01*
X76027807Y-110974870D01*
X76001109Y-111001071D01*
X75976578Y-111024792D01*
X75955162Y-111045081D01*
X75937810Y-111060985D01*
X75925471Y-111071554D01*
X75919094Y-111075834D01*
X75918792Y-111075880D01*
X75912917Y-111073089D01*
X75899690Y-111065148D01*
X75880102Y-111052705D01*
X75855147Y-111036406D01*
X75825814Y-111016900D01*
X75793098Y-110994834D01*
X75759274Y-110971740D01*
X75724192Y-110947807D01*
X75691493Y-110925813D01*
X75662179Y-110906405D01*
X75637247Y-110890232D01*
X75617696Y-110877942D01*
X75604527Y-110870183D01*
X75598812Y-110867600D01*
X75591386Y-110869920D01*
X75576894Y-110876305D01*
X75557157Y-110885890D01*
X75533991Y-110897810D01*
X75523350Y-110903481D01*
X75497800Y-110916747D01*
X75475514Y-110927375D01*
X75458172Y-110934622D01*
X75447456Y-110937744D01*
X75445823Y-110937771D01*
X75443235Y-110936377D01*
X75439874Y-110932452D01*
X75435467Y-110925381D01*
X75429738Y-110914547D01*
X75422414Y-110899334D01*
X75413220Y-110879125D01*
X75401884Y-110853305D01*
X75388129Y-110821257D01*
X75371684Y-110782365D01*
X75352272Y-110736012D01*
X75329620Y-110681582D01*
X75303454Y-110618459D01*
X75298860Y-110607359D01*
X75276257Y-110552528D01*
X75254911Y-110500342D01*
X75235128Y-110451575D01*
X75217213Y-110406998D01*
X75201473Y-110367386D01*
X75188212Y-110333510D01*
X75177736Y-110306143D01*
X75170352Y-110286060D01*
X75166364Y-110274031D01*
X75165760Y-110270809D01*
X75170949Y-110264897D01*
X75182723Y-110254827D01*
X75199234Y-110242102D01*
X75215173Y-110230629D01*
X75257327Y-110199570D01*
X75291753Y-110170231D01*
X75320203Y-110140682D01*
X75344432Y-110108997D01*
X75366194Y-110073247D01*
X75376863Y-110052918D01*
X75400756Y-109994488D01*
X75415076Y-109934158D01*
X75419979Y-109872953D01*
X75415623Y-109811898D01*
X75402163Y-109752019D01*
X75379756Y-109694342D01*
X75348559Y-109639891D01*
X75308727Y-109589692D01*
X75305664Y-109586411D01*
X75258017Y-109542833D01*
X75204808Y-109507422D01*
X75145354Y-109479755D01*
X75116660Y-109469807D01*
X75099933Y-109464974D01*
X75084165Y-109461632D01*
X75066854Y-109459519D01*
X75045497Y-109458373D01*
X75017593Y-109457935D01*
X75002540Y-109457900D01*
X74970915Y-109458110D01*
X74946936Y-109458916D01*
X74928093Y-109460578D01*
X74911877Y-109463357D01*
X74895778Y-109467516D01*
X74888240Y-109469802D01*
X74826246Y-109494205D01*
X74769961Y-109526690D01*
X74719969Y-109566763D01*
X74676854Y-109613933D01*
X74641201Y-109667707D01*
X74631329Y-109686500D01*
X74610756Y-109733357D01*
X74597234Y-109777726D01*
X74589860Y-109823443D01*
X74587727Y-109871920D01*
X74592586Y-109936989D01*
X74606992Y-109999065D01*
X74630688Y-110057510D01*
X74663416Y-110111687D01*
X74703955Y-110159975D01*
X74722140Y-110176971D01*
X74745762Y-110196791D01*
X74771748Y-110217052D01*
X74797023Y-110235368D01*
X74818514Y-110249354D01*
X74821139Y-110250883D01*
X74832832Y-110259785D01*
X74839872Y-110269264D01*
X74840325Y-110270648D01*
X74838872Y-110277322D01*
X74833641Y-110292833D01*
X74824832Y-110316671D01*
X74812647Y-110348326D01*
X74797287Y-110387287D01*
X74778953Y-110433043D01*
X74757846Y-110485085D01*
X74734166Y-110542901D01*
X74710728Y-110599679D01*
X74688300Y-110653781D01*
X74666914Y-110705286D01*
X74646903Y-110753399D01*
X74628599Y-110797325D01*
X74612334Y-110836268D01*
X74598442Y-110869433D01*
X74587253Y-110896026D01*
X74579102Y-110915249D01*
X74574319Y-110926309D01*
X74573253Y-110928609D01*
X74565020Y-110936716D01*
X74558211Y-110938720D01*
X74550498Y-110936394D01*
X74535745Y-110929995D01*
X74515790Y-110920387D01*
X74492470Y-110908437D01*
X74481642Y-110902672D01*
X74451834Y-110887192D01*
X74428316Y-110876189D01*
X74411875Y-110870007D01*
X74403822Y-110868837D01*
X74396680Y-110872269D01*
X74382538Y-110880700D01*
X74362709Y-110893286D01*
X74338506Y-110909184D01*
X74311241Y-110927551D01*
X74293880Y-110939461D01*
X74246962Y-110971822D01*
X74207682Y-110998815D01*
X74175352Y-111020892D01*
X74149281Y-111038506D01*
X74128781Y-111052109D01*
X74113163Y-111062155D01*
X74101739Y-111069097D01*
X74093819Y-111073388D01*
X74088714Y-111075480D01*
X74086387Y-111075880D01*
X74081121Y-111072399D01*
X74069535Y-111062478D01*
X74052460Y-111046897D01*
X74030721Y-111026437D01*
X74005148Y-111001880D01*
X73976568Y-110974006D01*
X73945809Y-110943597D01*
X73939731Y-110937541D01*
X73908736Y-110906470D01*
X73880010Y-110877382D01*
X73854357Y-110851112D01*
X73832577Y-110828494D01*
X73815473Y-110810363D01*
X73803847Y-110797552D01*
X73798501Y-110790896D01*
X73798266Y-110790413D01*
X73797367Y-110787436D01*
X73797052Y-110784393D01*
X73797835Y-110780460D01*
X73800226Y-110774812D01*
X73804737Y-110766624D01*
X73811879Y-110755072D01*
X73822165Y-110739330D01*
X73836105Y-110718575D01*
X73854212Y-110691980D01*
X73876996Y-110658721D01*
X73904969Y-110617973D01*
X73907515Y-110614266D01*
X73931161Y-110579625D01*
X73952865Y-110547438D01*
X73971973Y-110518706D01*
X73987831Y-110494428D01*
X73999785Y-110475605D01*
X74007181Y-110463237D01*
X74009400Y-110458469D01*
X74007571Y-110452070D01*
X74002390Y-110437455D01*
X73994314Y-110415826D01*
X73983802Y-110388385D01*
X73971312Y-110356333D01*
X73957300Y-110320874D01*
X73950294Y-110303307D01*
X73932557Y-110259314D01*
X73918005Y-110224051D01*
X73906276Y-110196727D01*
X73897006Y-110176551D01*
X73889833Y-110162734D01*
X73884394Y-110154485D01*
X73880444Y-110151059D01*
X73873085Y-110149121D01*
X73856936Y-110145609D01*
X73833202Y-110140762D01*
X73803091Y-110134819D01*
X73767809Y-110128018D01*
X73728562Y-110120597D01*
X73689921Y-110113414D01*
X73648281Y-110105616D01*
X73609669Y-110098154D01*
X73575261Y-110091273D01*
X73546230Y-110085217D01*
X73523751Y-110080232D01*
X73508998Y-110076560D01*
X73503231Y-110074531D01*
X73501433Y-110071360D01*
X73499961Y-110064541D01*
X73498785Y-110053211D01*
X73497877Y-110036509D01*
X73497207Y-110013571D01*
X73496746Y-109983536D01*
X73496465Y-109945541D01*
X73496336Y-109898724D01*
X73496320Y-109868875D01*
X73496320Y-109668954D01*
X73507750Y-109661902D01*
X73515237Y-109659400D01*
X73531536Y-109655372D01*
X73555455Y-109650066D01*
X73585802Y-109643732D01*
X73621384Y-109636617D01*
X73661009Y-109628971D01*
X73703486Y-109621042D01*
X73704600Y-109620838D01*
X73746876Y-109612950D01*
X73786108Y-109605374D01*
X73821145Y-109598352D01*
X73850836Y-109592126D01*
X73874030Y-109586937D01*
X73889576Y-109583026D01*
X73896323Y-109580637D01*
X73896405Y-109580566D01*
X73900090Y-109574301D01*
X73907022Y-109560106D01*
X73916577Y-109539428D01*
X73928134Y-109513713D01*
X73941070Y-109484406D01*
X73954763Y-109452954D01*
X73968591Y-109420802D01*
X73981931Y-109389397D01*
X73994161Y-109360185D01*
X74004659Y-109334611D01*
X74012803Y-109314123D01*
X74017969Y-109300165D01*
X74019560Y-109294394D01*
X74016767Y-109288575D01*
X74008811Y-109275372D01*
X73996319Y-109255749D01*
X73979924Y-109230667D01*
X73960254Y-109201089D01*
X73937939Y-109167976D01*
X73913611Y-109132293D01*
X73909742Y-109126655D01*
X73885048Y-109090538D01*
X73862155Y-109056750D01*
X73841713Y-109026274D01*
X73824371Y-109000088D01*
X73810778Y-108979175D01*
X73801583Y-108964516D01*
X73797434Y-108957090D01*
X73797293Y-108956684D01*
X73798054Y-108952579D01*
X73802214Y-108945668D01*
X73810317Y-108935355D01*
X73822905Y-108921048D01*
X73840521Y-108902154D01*
X73863708Y-108878078D01*
X73893008Y-108848226D01*
X73928964Y-108812005D01*
X73936199Y-108804749D01*
X73972218Y-108768889D01*
X74004356Y-108737378D01*
X74032068Y-108710731D01*
X74054806Y-108689461D01*
X74072023Y-108674081D01*
X74083174Y-108665105D01*
X74087325Y-108662880D01*
X74093560Y-108665672D01*
X74107156Y-108673627D01*
X74127133Y-108686110D01*
X74152508Y-108702487D01*
X74182300Y-108722122D01*
X74215526Y-108744382D01*
X74251205Y-108768631D01*
X74255086Y-108771289D01*
X74291100Y-108795928D01*
X74324822Y-108818914D01*
X74355253Y-108839573D01*
X74381395Y-108857230D01*
X74402248Y-108871211D01*
X74416815Y-108880841D01*
X74424096Y-108885446D01*
X74424352Y-108885587D01*
X74428805Y-108886941D01*
X74435339Y-108886744D01*
X74445059Y-108884631D01*
X74459068Y-108880234D01*
X74478471Y-108873187D01*
X74504373Y-108863124D01*
X74537877Y-108849677D01*
X74561512Y-108840068D01*
X74603366Y-108822981D01*
X74636788Y-108809243D01*
X74662760Y-108798382D01*
X74682264Y-108789926D01*
X74696281Y-108783403D01*
X74705795Y-108778340D01*
X74711786Y-108774266D01*
X74715236Y-108770708D01*
X74717128Y-108767193D01*
X74717945Y-108764840D01*
X74719560Y-108757736D01*
X74722793Y-108741805D01*
X74727420Y-108718215D01*
X74733216Y-108688129D01*
X74739958Y-108652714D01*
X74747420Y-108613135D01*
X74755378Y-108570558D01*
X74756195Y-108566168D01*
X74764252Y-108523481D01*
X74771968Y-108483799D01*
X74779104Y-108448266D01*
X74785420Y-108418028D01*
X74790676Y-108394228D01*
X74794633Y-108378012D01*
X74797050Y-108370524D01*
X74797212Y-108370283D01*
X74800242Y-108368437D01*
X74806563Y-108366928D01*
X74817063Y-108365727D01*
X74832633Y-108364801D01*
X74854159Y-108364121D01*
X74882532Y-108363657D01*
X74918639Y-108363376D01*
X74963370Y-108363250D01*
X75001892Y-108363237D01*
X75046025Y-108363358D01*
X75046025Y-108363358D01*
G37*
X75046025Y-108363358D02*
X75087086Y-108363668D01*
X75123939Y-108364144D01*
X75155448Y-108364763D01*
X75180478Y-108365502D01*
X75197893Y-108366337D01*
X75206557Y-108367244D01*
X75207210Y-108367471D01*
X75209787Y-108373471D01*
X75213922Y-108388787D01*
X75219466Y-108412721D01*
X75226268Y-108444573D01*
X75234179Y-108483644D01*
X75243047Y-108529237D01*
X75250901Y-108570850D01*
X75259151Y-108614601D01*
X75267001Y-108655265D01*
X75274225Y-108691748D01*
X75280599Y-108722957D01*
X75285898Y-108747798D01*
X75289897Y-108765177D01*
X75292372Y-108774000D01*
X75292802Y-108774834D01*
X75299048Y-108778371D01*
X75313151Y-108784916D01*
X75333676Y-108793889D01*
X75359190Y-108804710D01*
X75388258Y-108816800D01*
X75419446Y-108829578D01*
X75451320Y-108842466D01*
X75482447Y-108854882D01*
X75511392Y-108866248D01*
X75536721Y-108875983D01*
X75556999Y-108883508D01*
X75570794Y-108888242D01*
X75576671Y-108889607D01*
X75576678Y-108889605D01*
X75581988Y-108886333D01*
X75594724Y-108877928D01*
X75613948Y-108865025D01*
X75638724Y-108848257D01*
X75668114Y-108828260D01*
X75701180Y-108805669D01*
X75736986Y-108781119D01*
X75745656Y-108775162D01*
X75782085Y-108750277D01*
X75816148Y-108727306D01*
X75846886Y-108706874D01*
X75873339Y-108689606D01*
X75894549Y-108676126D01*
X75909556Y-108667059D01*
X75917401Y-108663028D01*
X75918086Y-108662879D01*
X75923807Y-108666391D01*
X75935602Y-108676292D01*
X75952520Y-108691632D01*
X75973609Y-108711458D01*
X75997919Y-108734820D01*
X76024500Y-108760767D01*
X76052400Y-108788347D01*
X76080669Y-108816609D01*
X76108355Y-108844603D01*
X76134508Y-108871376D01*
X76158178Y-108895978D01*
X76178412Y-108917458D01*
X76194261Y-108934864D01*
X76204774Y-108947246D01*
X76208999Y-108953651D01*
X76209040Y-108953938D01*
X76206243Y-108960058D01*
X76198279Y-108973530D01*
X76185789Y-108993372D01*
X76169410Y-109018598D01*
X76149783Y-109048226D01*
X76127547Y-109081269D01*
X76103341Y-109116745D01*
X76101788Y-109119005D01*
X76077294Y-109154726D01*
X76054499Y-109188139D01*
X76034080Y-109218244D01*
X76016708Y-109244038D01*
X76003060Y-109264521D01*
X75993807Y-109278692D01*
X75989626Y-109285550D01*
X75989568Y-109285670D01*
X75988784Y-109290391D01*
X75989912Y-109298231D01*
X75993299Y-109310143D01*
X75999292Y-109327084D01*
X76008241Y-109350007D01*
X76020491Y-109379867D01*
X76036390Y-109417619D01*
X76044749Y-109437252D01*
X76061018Y-109474852D01*
X76076011Y-109508510D01*
X76089231Y-109537168D01*
X76100175Y-109559772D01*
X76108346Y-109575265D01*
X76113243Y-109582592D01*
X76113710Y-109582948D01*
X76120560Y-109584928D01*
X76136248Y-109588502D01*
X76159616Y-109593434D01*
X76189508Y-109599491D01*
X76224767Y-109606439D01*
X76264236Y-109614044D01*
X76306757Y-109622071D01*
X76311409Y-109622940D01*
X76360146Y-109632180D01*
X76403053Y-109640621D01*
X76439390Y-109648102D01*
X76468418Y-109654463D01*
X76489397Y-109659544D01*
X76501585Y-109663184D01*
X76504451Y-109664714D01*
X76505372Y-109671096D01*
X76506225Y-109686503D01*
X76506989Y-109709798D01*
X76507638Y-109739847D01*
X76508151Y-109775514D01*
X76508503Y-109815663D01*
X76508671Y-109859159D01*
X76508682Y-109870027D01*
X76508649Y-109921548D01*
X76508486Y-109963801D01*
X76508162Y-109997680D01*
X76507647Y-110024077D01*
X76506908Y-110043884D01*
X76505916Y-110057996D01*
X76504639Y-110067303D01*
X76503046Y-110072699D01*
X76501595Y-110074741D01*
X76495095Y-110076999D01*
X76479763Y-110080799D01*
X76456765Y-110085898D01*
X76427271Y-110092050D01*
X76392450Y-110099013D01*
X76353470Y-110106543D01*
X76312365Y-110114236D01*
X76266210Y-110122897D01*
X76224798Y-110130981D01*
X76189062Y-110138286D01*
X76159937Y-110144611D01*
X76138354Y-110149758D01*
X76125249Y-110153525D01*
X76121726Y-110155133D01*
X76117704Y-110161585D01*
X76110714Y-110175987D01*
X76101314Y-110196948D01*
X76090063Y-110223082D01*
X76077519Y-110253000D01*
X76064240Y-110285313D01*
X76050785Y-110318634D01*
X76037712Y-110351575D01*
X76025580Y-110382747D01*
X76014946Y-110410763D01*
X76006369Y-110434233D01*
X76000408Y-110451771D01*
X75997620Y-110461987D01*
X75997556Y-110463842D01*
X76000901Y-110469358D01*
X76009348Y-110482262D01*
X76022236Y-110501573D01*
X76038906Y-110526312D01*
X76058697Y-110555498D01*
X76080948Y-110588151D01*
X76104512Y-110622582D01*
X76128487Y-110657797D01*
X76150526Y-110690662D01*
X76169982Y-110720174D01*
X76186209Y-110745331D01*
X76198558Y-110765130D01*
X76206383Y-110778568D01*
X76209040Y-110784588D01*
X76205537Y-110790258D01*
X76195662Y-110802017D01*
X76180363Y-110818914D01*
X76160590Y-110839997D01*
X76137290Y-110864314D01*
X76111414Y-110890912D01*
X76083908Y-110918838D01*
X76055723Y-110947142D01*
X76027807Y-110974870D01*
X76001109Y-111001071D01*
X75976578Y-111024792D01*
X75955162Y-111045081D01*
X75937810Y-111060985D01*
X75925471Y-111071554D01*
X75919094Y-111075834D01*
X75918792Y-111075880D01*
X75912917Y-111073089D01*
X75899690Y-111065148D01*
X75880102Y-111052705D01*
X75855147Y-111036406D01*
X75825814Y-111016900D01*
X75793098Y-110994834D01*
X75759274Y-110971740D01*
X75724192Y-110947807D01*
X75691493Y-110925813D01*
X75662179Y-110906405D01*
X75637247Y-110890232D01*
X75617696Y-110877942D01*
X75604527Y-110870183D01*
X75598812Y-110867600D01*
X75591386Y-110869920D01*
X75576894Y-110876305D01*
X75557157Y-110885890D01*
X75533991Y-110897810D01*
X75523350Y-110903481D01*
X75497800Y-110916747D01*
X75475514Y-110927375D01*
X75458172Y-110934622D01*
X75447456Y-110937744D01*
X75445823Y-110937771D01*
X75443235Y-110936377D01*
X75439874Y-110932452D01*
X75435467Y-110925381D01*
X75429738Y-110914547D01*
X75422414Y-110899334D01*
X75413220Y-110879125D01*
X75401884Y-110853305D01*
X75388129Y-110821257D01*
X75371684Y-110782365D01*
X75352272Y-110736012D01*
X75329620Y-110681582D01*
X75303454Y-110618459D01*
X75298860Y-110607359D01*
X75276257Y-110552528D01*
X75254911Y-110500342D01*
X75235128Y-110451575D01*
X75217213Y-110406998D01*
X75201473Y-110367386D01*
X75188212Y-110333510D01*
X75177736Y-110306143D01*
X75170352Y-110286060D01*
X75166364Y-110274031D01*
X75165760Y-110270809D01*
X75170949Y-110264897D01*
X75182723Y-110254827D01*
X75199234Y-110242102D01*
X75215173Y-110230629D01*
X75257327Y-110199570D01*
X75291753Y-110170231D01*
X75320203Y-110140682D01*
X75344432Y-110108997D01*
X75366194Y-110073247D01*
X75376863Y-110052918D01*
X75400756Y-109994488D01*
X75415076Y-109934158D01*
X75419979Y-109872953D01*
X75415623Y-109811898D01*
X75402163Y-109752019D01*
X75379756Y-109694342D01*
X75348559Y-109639891D01*
X75308727Y-109589692D01*
X75305664Y-109586411D01*
X75258017Y-109542833D01*
X75204808Y-109507422D01*
X75145354Y-109479755D01*
X75116660Y-109469807D01*
X75099933Y-109464974D01*
X75084165Y-109461632D01*
X75066854Y-109459519D01*
X75045497Y-109458373D01*
X75017593Y-109457935D01*
X75002540Y-109457900D01*
X74970915Y-109458110D01*
X74946936Y-109458916D01*
X74928093Y-109460578D01*
X74911877Y-109463357D01*
X74895778Y-109467516D01*
X74888240Y-109469802D01*
X74826246Y-109494205D01*
X74769961Y-109526690D01*
X74719969Y-109566763D01*
X74676854Y-109613933D01*
X74641201Y-109667707D01*
X74631329Y-109686500D01*
X74610756Y-109733357D01*
X74597234Y-109777726D01*
X74589860Y-109823443D01*
X74587727Y-109871920D01*
X74592586Y-109936989D01*
X74606992Y-109999065D01*
X74630688Y-110057510D01*
X74663416Y-110111687D01*
X74703955Y-110159975D01*
X74722140Y-110176971D01*
X74745762Y-110196791D01*
X74771748Y-110217052D01*
X74797023Y-110235368D01*
X74818514Y-110249354D01*
X74821139Y-110250883D01*
X74832832Y-110259785D01*
X74839872Y-110269264D01*
X74840325Y-110270648D01*
X74838872Y-110277322D01*
X74833641Y-110292833D01*
X74824832Y-110316671D01*
X74812647Y-110348326D01*
X74797287Y-110387287D01*
X74778953Y-110433043D01*
X74757846Y-110485085D01*
X74734166Y-110542901D01*
X74710728Y-110599679D01*
X74688300Y-110653781D01*
X74666914Y-110705286D01*
X74646903Y-110753399D01*
X74628599Y-110797325D01*
X74612334Y-110836268D01*
X74598442Y-110869433D01*
X74587253Y-110896026D01*
X74579102Y-110915249D01*
X74574319Y-110926309D01*
X74573253Y-110928609D01*
X74565020Y-110936716D01*
X74558211Y-110938720D01*
X74550498Y-110936394D01*
X74535745Y-110929995D01*
X74515790Y-110920387D01*
X74492470Y-110908437D01*
X74481642Y-110902672D01*
X74451834Y-110887192D01*
X74428316Y-110876189D01*
X74411875Y-110870007D01*
X74403822Y-110868837D01*
X74396680Y-110872269D01*
X74382538Y-110880700D01*
X74362709Y-110893286D01*
X74338506Y-110909184D01*
X74311241Y-110927551D01*
X74293880Y-110939461D01*
X74246962Y-110971822D01*
X74207682Y-110998815D01*
X74175352Y-111020892D01*
X74149281Y-111038506D01*
X74128781Y-111052109D01*
X74113163Y-111062155D01*
X74101739Y-111069097D01*
X74093819Y-111073388D01*
X74088714Y-111075480D01*
X74086387Y-111075880D01*
X74081121Y-111072399D01*
X74069535Y-111062478D01*
X74052460Y-111046897D01*
X74030721Y-111026437D01*
X74005148Y-111001880D01*
X73976568Y-110974006D01*
X73945809Y-110943597D01*
X73939731Y-110937541D01*
X73908736Y-110906470D01*
X73880010Y-110877382D01*
X73854357Y-110851112D01*
X73832577Y-110828494D01*
X73815473Y-110810363D01*
X73803847Y-110797552D01*
X73798501Y-110790896D01*
X73798266Y-110790413D01*
X73797367Y-110787436D01*
X73797052Y-110784393D01*
X73797835Y-110780460D01*
X73800226Y-110774812D01*
X73804737Y-110766624D01*
X73811879Y-110755072D01*
X73822165Y-110739330D01*
X73836105Y-110718575D01*
X73854212Y-110691980D01*
X73876996Y-110658721D01*
X73904969Y-110617973D01*
X73907515Y-110614266D01*
X73931161Y-110579625D01*
X73952865Y-110547438D01*
X73971973Y-110518706D01*
X73987831Y-110494428D01*
X73999785Y-110475605D01*
X74007181Y-110463237D01*
X74009400Y-110458469D01*
X74007571Y-110452070D01*
X74002390Y-110437455D01*
X73994314Y-110415826D01*
X73983802Y-110388385D01*
X73971312Y-110356333D01*
X73957300Y-110320874D01*
X73950294Y-110303307D01*
X73932557Y-110259314D01*
X73918005Y-110224051D01*
X73906276Y-110196727D01*
X73897006Y-110176551D01*
X73889833Y-110162734D01*
X73884394Y-110154485D01*
X73880444Y-110151059D01*
X73873085Y-110149121D01*
X73856936Y-110145609D01*
X73833202Y-110140762D01*
X73803091Y-110134819D01*
X73767809Y-110128018D01*
X73728562Y-110120597D01*
X73689921Y-110113414D01*
X73648281Y-110105616D01*
X73609669Y-110098154D01*
X73575261Y-110091273D01*
X73546230Y-110085217D01*
X73523751Y-110080232D01*
X73508998Y-110076560D01*
X73503231Y-110074531D01*
X73501433Y-110071360D01*
X73499961Y-110064541D01*
X73498785Y-110053211D01*
X73497877Y-110036509D01*
X73497207Y-110013571D01*
X73496746Y-109983536D01*
X73496465Y-109945541D01*
X73496336Y-109898724D01*
X73496320Y-109868875D01*
X73496320Y-109668954D01*
X73507750Y-109661902D01*
X73515237Y-109659400D01*
X73531536Y-109655372D01*
X73555455Y-109650066D01*
X73585802Y-109643732D01*
X73621384Y-109636617D01*
X73661009Y-109628971D01*
X73703486Y-109621042D01*
X73704600Y-109620838D01*
X73746876Y-109612950D01*
X73786108Y-109605374D01*
X73821145Y-109598352D01*
X73850836Y-109592126D01*
X73874030Y-109586937D01*
X73889576Y-109583026D01*
X73896323Y-109580637D01*
X73896405Y-109580566D01*
X73900090Y-109574301D01*
X73907022Y-109560106D01*
X73916577Y-109539428D01*
X73928134Y-109513713D01*
X73941070Y-109484406D01*
X73954763Y-109452954D01*
X73968591Y-109420802D01*
X73981931Y-109389397D01*
X73994161Y-109360185D01*
X74004659Y-109334611D01*
X74012803Y-109314123D01*
X74017969Y-109300165D01*
X74019560Y-109294394D01*
X74016767Y-109288575D01*
X74008811Y-109275372D01*
X73996319Y-109255749D01*
X73979924Y-109230667D01*
X73960254Y-109201089D01*
X73937939Y-109167976D01*
X73913611Y-109132293D01*
X73909742Y-109126655D01*
X73885048Y-109090538D01*
X73862155Y-109056750D01*
X73841713Y-109026274D01*
X73824371Y-109000088D01*
X73810778Y-108979175D01*
X73801583Y-108964516D01*
X73797434Y-108957090D01*
X73797293Y-108956684D01*
X73798054Y-108952579D01*
X73802214Y-108945668D01*
X73810317Y-108935355D01*
X73822905Y-108921048D01*
X73840521Y-108902154D01*
X73863708Y-108878078D01*
X73893008Y-108848226D01*
X73928964Y-108812005D01*
X73936199Y-108804749D01*
X73972218Y-108768889D01*
X74004356Y-108737378D01*
X74032068Y-108710731D01*
X74054806Y-108689461D01*
X74072023Y-108674081D01*
X74083174Y-108665105D01*
X74087325Y-108662880D01*
X74093560Y-108665672D01*
X74107156Y-108673627D01*
X74127133Y-108686110D01*
X74152508Y-108702487D01*
X74182300Y-108722122D01*
X74215526Y-108744382D01*
X74251205Y-108768631D01*
X74255086Y-108771289D01*
X74291100Y-108795928D01*
X74324822Y-108818914D01*
X74355253Y-108839573D01*
X74381395Y-108857230D01*
X74402248Y-108871211D01*
X74416815Y-108880841D01*
X74424096Y-108885446D01*
X74424352Y-108885587D01*
X74428805Y-108886941D01*
X74435339Y-108886744D01*
X74445059Y-108884631D01*
X74459068Y-108880234D01*
X74478471Y-108873187D01*
X74504373Y-108863124D01*
X74537877Y-108849677D01*
X74561512Y-108840068D01*
X74603366Y-108822981D01*
X74636788Y-108809243D01*
X74662760Y-108798382D01*
X74682264Y-108789926D01*
X74696281Y-108783403D01*
X74705795Y-108778340D01*
X74711786Y-108774266D01*
X74715236Y-108770708D01*
X74717128Y-108767193D01*
X74717945Y-108764840D01*
X74719560Y-108757736D01*
X74722793Y-108741805D01*
X74727420Y-108718215D01*
X74733216Y-108688129D01*
X74739958Y-108652714D01*
X74747420Y-108613135D01*
X74755378Y-108570558D01*
X74756195Y-108566168D01*
X74764252Y-108523481D01*
X74771968Y-108483799D01*
X74779104Y-108448266D01*
X74785420Y-108418028D01*
X74790676Y-108394228D01*
X74794633Y-108378012D01*
X74797050Y-108370524D01*
X74797212Y-108370283D01*
X74800242Y-108368437D01*
X74806563Y-108366928D01*
X74817063Y-108365727D01*
X74832633Y-108364801D01*
X74854159Y-108364121D01*
X74882532Y-108363657D01*
X74918639Y-108363376D01*
X74963370Y-108363250D01*
X75001892Y-108363237D01*
X75046025Y-108363358D01*
D12*
G36*
X99634239Y-105811467D02*
X99948282Y-105873934D01*
X100539926Y-106119001D01*
X100829523Y-106312504D01*
X101072395Y-106474786D01*
X101525214Y-106927605D01*
X101525216Y-106927608D01*
X101880999Y-107460074D01*
X102002724Y-107753944D01*
X102126066Y-108051719D01*
X102251000Y-108679803D01*
X102251000Y-109320197D01*
X102188533Y-109634239D01*
X102126066Y-109948282D01*
X101880999Y-110539926D01*
X101633265Y-110910685D01*
X101525214Y-111072395D01*
X101072395Y-111525214D01*
X101072392Y-111525216D01*
X100539926Y-111880999D01*
X99948282Y-112126066D01*
X99634239Y-112188533D01*
X99320197Y-112251000D01*
X98679803Y-112251000D01*
X98365761Y-112188533D01*
X98051718Y-112126066D01*
X97460074Y-111880999D01*
X96927608Y-111525216D01*
X96927605Y-111525214D01*
X96474786Y-111072395D01*
X96366735Y-110910685D01*
X96119001Y-110539926D01*
X95873934Y-109948282D01*
X95811467Y-109634239D01*
X95749000Y-109320197D01*
X95749000Y-108679803D01*
X95873934Y-108051719D01*
X95997276Y-107753944D01*
X96119001Y-107460074D01*
X96474784Y-106927608D01*
X96474786Y-106927605D01*
X96927605Y-106474786D01*
X97170477Y-106312504D01*
X97460074Y-106119001D01*
X98051718Y-105873934D01*
X98365761Y-105811467D01*
X98679803Y-105749000D01*
X99320197Y-105749000D01*
X99634239Y-105811467D01*
X99634239Y-105811467D01*
G37*
G36*
X61634239Y-105811467D02*
X61948282Y-105873934D01*
X62539926Y-106119001D01*
X62829523Y-106312504D01*
X63072395Y-106474786D01*
X63525214Y-106927605D01*
X63525216Y-106927608D01*
X63880999Y-107460074D01*
X64002724Y-107753944D01*
X64126066Y-108051719D01*
X64251000Y-108679803D01*
X64251000Y-109320197D01*
X64188533Y-109634239D01*
X64126066Y-109948282D01*
X63880999Y-110539926D01*
X63633265Y-110910685D01*
X63525214Y-111072395D01*
X63072395Y-111525214D01*
X63072392Y-111525216D01*
X62539926Y-111880999D01*
X61948282Y-112126066D01*
X61634239Y-112188533D01*
X61320197Y-112251000D01*
X60679803Y-112251000D01*
X60365761Y-112188533D01*
X60051718Y-112126066D01*
X59460074Y-111880999D01*
X58927608Y-111525216D01*
X58927605Y-111525214D01*
X58474786Y-111072395D01*
X58366735Y-110910685D01*
X58119001Y-110539926D01*
X57873934Y-109948282D01*
X57811467Y-109634239D01*
X57749000Y-109320197D01*
X57749000Y-108679803D01*
X57873934Y-108051719D01*
X57997276Y-107753944D01*
X58119001Y-107460074D01*
X58474784Y-106927608D01*
X58474786Y-106927605D01*
X58927605Y-106474786D01*
X59170477Y-106312504D01*
X59460074Y-106119001D01*
X60051718Y-105873934D01*
X60365761Y-105811467D01*
X60679803Y-105749000D01*
X61320197Y-105749000D01*
X61634239Y-105811467D01*
X61634239Y-105811467D01*
G37*
G36*
X70611000Y-106021000D02*
X68509000Y-106021000D01*
X68509000Y-104419000D01*
X70611000Y-104419000D01*
X70611000Y-106021000D01*
X70611000Y-106021000D01*
G37*
G36*
X67654466Y-104653565D02*
X67693137Y-104665296D01*
X67728779Y-104684348D01*
X67760017Y-104709983D01*
X67785652Y-104741221D01*
X67804704Y-104776863D01*
X67816435Y-104815534D01*
X67821000Y-104861888D01*
X67821000Y-105513112D01*
X67816435Y-105559466D01*
X67804704Y-105598137D01*
X67785652Y-105633779D01*
X67760017Y-105665017D01*
X67728779Y-105690652D01*
X67693137Y-105709704D01*
X67654466Y-105721435D01*
X67608112Y-105726000D01*
X66531888Y-105726000D01*
X66485534Y-105721435D01*
X66446863Y-105709704D01*
X66411221Y-105690652D01*
X66379983Y-105665017D01*
X66354348Y-105633779D01*
X66335296Y-105598137D01*
X66323565Y-105559466D01*
X66319000Y-105513112D01*
X66319000Y-104861888D01*
X66323565Y-104815534D01*
X66335296Y-104776863D01*
X66354348Y-104741221D01*
X66379983Y-104709983D01*
X66411221Y-104684348D01*
X66446863Y-104665296D01*
X66485534Y-104653565D01*
X66531888Y-104649000D01*
X67608112Y-104649000D01*
X67654466Y-104653565D01*
X67654466Y-104653565D01*
G37*
G36*
X76911000Y-104871000D02*
X74809000Y-104871000D01*
X74809000Y-100969000D01*
X76911000Y-100969000D01*
X76911000Y-104871000D01*
X76911000Y-104871000D01*
G37*
G36*
X67654466Y-102778565D02*
X67693137Y-102790296D01*
X67728779Y-102809348D01*
X67760017Y-102834983D01*
X67785652Y-102866221D01*
X67804704Y-102901863D01*
X67816435Y-102940534D01*
X67821000Y-102986888D01*
X67821000Y-103638112D01*
X67816435Y-103684466D01*
X67804704Y-103723137D01*
X67785652Y-103758779D01*
X67760017Y-103790017D01*
X67728779Y-103815652D01*
X67693137Y-103834704D01*
X67654466Y-103846435D01*
X67608112Y-103851000D01*
X66531888Y-103851000D01*
X66485534Y-103846435D01*
X66446863Y-103834704D01*
X66411221Y-103815652D01*
X66379983Y-103790017D01*
X66354348Y-103758779D01*
X66335296Y-103723137D01*
X66323565Y-103684466D01*
X66319000Y-103638112D01*
X66319000Y-102986888D01*
X66323565Y-102940534D01*
X66335296Y-102901863D01*
X66354348Y-102866221D01*
X66379983Y-102834983D01*
X66411221Y-102809348D01*
X66446863Y-102790296D01*
X66485534Y-102778565D01*
X66531888Y-102774000D01*
X67608112Y-102774000D01*
X67654466Y-102778565D01*
X67654466Y-102778565D01*
G37*
G36*
X70611000Y-103721000D02*
X68509000Y-103721000D01*
X68509000Y-102119000D01*
X70611000Y-102119000D01*
X70611000Y-103721000D01*
X70611000Y-103721000D01*
G37*
G36*
X70611000Y-101421000D02*
X68509000Y-101421000D01*
X68509000Y-99819000D01*
X70611000Y-99819000D01*
X70611000Y-101421000D01*
X70611000Y-101421000D01*
G37*
G36*
X76357797Y-97088247D02*
X76393367Y-97099037D01*
X76426139Y-97116554D01*
X76454869Y-97140131D01*
X76478446Y-97168861D01*
X76495963Y-97201633D01*
X76506753Y-97237203D01*
X76511000Y-97280324D01*
X76511000Y-98339676D01*
X76506753Y-98382797D01*
X76495963Y-98418367D01*
X76478446Y-98451139D01*
X76454869Y-98479869D01*
X76426139Y-98503446D01*
X76393367Y-98520963D01*
X76357797Y-98531753D01*
X76314676Y-98536000D01*
X75205324Y-98536000D01*
X75162203Y-98531753D01*
X75126633Y-98520963D01*
X75093861Y-98503446D01*
X75065131Y-98479869D01*
X75041554Y-98451139D01*
X75024037Y-98418367D01*
X75013247Y-98382797D01*
X75009000Y-98339676D01*
X75009000Y-97280324D01*
X75013247Y-97237203D01*
X75024037Y-97201633D01*
X75041554Y-97168861D01*
X75065131Y-97140131D01*
X75093861Y-97116554D01*
X75126633Y-97099037D01*
X75162203Y-97088247D01*
X75205324Y-97084000D01*
X76314676Y-97084000D01*
X76357797Y-97088247D01*
X76357797Y-97088247D01*
G37*
G36*
X73657797Y-97088247D02*
X73693367Y-97099037D01*
X73726139Y-97116554D01*
X73754869Y-97140131D01*
X73778446Y-97168861D01*
X73795963Y-97201633D01*
X73806753Y-97237203D01*
X73811000Y-97280324D01*
X73811000Y-98339676D01*
X73806753Y-98382797D01*
X73795963Y-98418367D01*
X73778446Y-98451139D01*
X73754869Y-98479869D01*
X73726139Y-98503446D01*
X73693367Y-98520963D01*
X73657797Y-98531753D01*
X73614676Y-98536000D01*
X72505324Y-98536000D01*
X72462203Y-98531753D01*
X72426633Y-98520963D01*
X72393861Y-98503446D01*
X72365131Y-98479869D01*
X72341554Y-98451139D01*
X72324037Y-98418367D01*
X72313247Y-98382797D01*
X72309000Y-98339676D01*
X72309000Y-97280324D01*
X72313247Y-97237203D01*
X72324037Y-97201633D01*
X72341554Y-97168861D01*
X72365131Y-97140131D01*
X72393861Y-97116554D01*
X72426633Y-97099037D01*
X72462203Y-97088247D01*
X72505324Y-97084000D01*
X73614676Y-97084000D01*
X73657797Y-97088247D01*
X73657797Y-97088247D01*
G37*
G36*
X88491938Y-95106716D02*
X88512556Y-95112970D01*
X88531556Y-95123126D01*
X88548208Y-95136792D01*
X88561874Y-95153444D01*
X88572030Y-95172444D01*
X88578284Y-95193062D01*
X88581000Y-95220640D01*
X88581000Y-95729360D01*
X88578284Y-95756938D01*
X88572030Y-95777556D01*
X88561874Y-95796556D01*
X88548208Y-95813208D01*
X88531556Y-95826874D01*
X88512556Y-95837030D01*
X88491938Y-95843284D01*
X88464360Y-95846000D01*
X88005640Y-95846000D01*
X87978062Y-95843284D01*
X87957444Y-95837030D01*
X87938444Y-95826874D01*
X87921792Y-95813208D01*
X87908126Y-95796556D01*
X87897970Y-95777556D01*
X87891716Y-95756938D01*
X87889000Y-95729360D01*
X87889000Y-95220640D01*
X87891716Y-95193062D01*
X87897970Y-95172444D01*
X87908126Y-95153444D01*
X87921792Y-95136792D01*
X87938444Y-95123126D01*
X87957444Y-95112970D01*
X87978062Y-95106716D01*
X88005640Y-95104000D01*
X88464360Y-95104000D01*
X88491938Y-95106716D01*
X88491938Y-95106716D01*
G37*
G36*
X87521938Y-95106716D02*
X87542556Y-95112970D01*
X87561556Y-95123126D01*
X87578208Y-95136792D01*
X87591874Y-95153444D01*
X87602030Y-95172444D01*
X87608284Y-95193062D01*
X87611000Y-95220640D01*
X87611000Y-95729360D01*
X87608284Y-95756938D01*
X87602030Y-95777556D01*
X87591874Y-95796556D01*
X87578208Y-95813208D01*
X87561556Y-95826874D01*
X87542556Y-95837030D01*
X87521938Y-95843284D01*
X87494360Y-95846000D01*
X87035640Y-95846000D01*
X87008062Y-95843284D01*
X86987444Y-95837030D01*
X86968444Y-95826874D01*
X86951792Y-95813208D01*
X86938126Y-95796556D01*
X86927970Y-95777556D01*
X86921716Y-95756938D01*
X86919000Y-95729360D01*
X86919000Y-95220640D01*
X86921716Y-95193062D01*
X86927970Y-95172444D01*
X86938126Y-95153444D01*
X86951792Y-95136792D01*
X86968444Y-95123126D01*
X86987444Y-95112970D01*
X87008062Y-95106716D01*
X87035640Y-95104000D01*
X87494360Y-95104000D01*
X87521938Y-95106716D01*
X87521938Y-95106716D01*
G37*
G36*
X85866938Y-95106716D02*
X85887556Y-95112970D01*
X85906556Y-95123126D01*
X85923208Y-95136792D01*
X85936874Y-95153444D01*
X85947030Y-95172444D01*
X85953284Y-95193062D01*
X85956000Y-95220640D01*
X85956000Y-95729360D01*
X85953284Y-95756938D01*
X85947030Y-95777556D01*
X85936874Y-95796556D01*
X85923208Y-95813208D01*
X85906556Y-95826874D01*
X85887556Y-95837030D01*
X85866938Y-95843284D01*
X85839360Y-95846000D01*
X85380640Y-95846000D01*
X85353062Y-95843284D01*
X85332444Y-95837030D01*
X85313444Y-95826874D01*
X85296792Y-95813208D01*
X85283126Y-95796556D01*
X85272970Y-95777556D01*
X85266716Y-95756938D01*
X85264000Y-95729360D01*
X85264000Y-95220640D01*
X85266716Y-95193062D01*
X85272970Y-95172444D01*
X85283126Y-95153444D01*
X85296792Y-95136792D01*
X85313444Y-95123126D01*
X85332444Y-95112970D01*
X85353062Y-95106716D01*
X85380640Y-95104000D01*
X85839360Y-95104000D01*
X85866938Y-95106716D01*
X85866938Y-95106716D01*
G37*
G36*
X84896938Y-95106716D02*
X84917556Y-95112970D01*
X84936556Y-95123126D01*
X84953208Y-95136792D01*
X84966874Y-95153444D01*
X84977030Y-95172444D01*
X84983284Y-95193062D01*
X84986000Y-95220640D01*
X84986000Y-95729360D01*
X84983284Y-95756938D01*
X84977030Y-95777556D01*
X84966874Y-95796556D01*
X84953208Y-95813208D01*
X84936556Y-95826874D01*
X84917556Y-95837030D01*
X84896938Y-95843284D01*
X84869360Y-95846000D01*
X84410640Y-95846000D01*
X84383062Y-95843284D01*
X84362444Y-95837030D01*
X84343444Y-95826874D01*
X84326792Y-95813208D01*
X84313126Y-95796556D01*
X84302970Y-95777556D01*
X84296716Y-95756938D01*
X84294000Y-95729360D01*
X84294000Y-95220640D01*
X84296716Y-95193062D01*
X84302970Y-95172444D01*
X84313126Y-95153444D01*
X84326792Y-95136792D01*
X84343444Y-95123126D01*
X84362444Y-95112970D01*
X84383062Y-95106716D01*
X84410640Y-95104000D01*
X84869360Y-95104000D01*
X84896938Y-95106716D01*
X84896938Y-95106716D01*
G37*
G36*
X62467400Y-93183249D02*
X62556627Y-93192037D01*
X62638919Y-93217000D01*
X62726467Y-93243557D01*
X62865087Y-93317652D01*
X62882991Y-93327222D01*
X62915620Y-93354000D01*
X63020186Y-93439814D01*
X63103448Y-93541271D01*
X63132778Y-93577009D01*
X63132779Y-93577011D01*
X63216443Y-93733533D01*
X63216443Y-93733534D01*
X63267963Y-93903373D01*
X63285359Y-94080000D01*
X63267963Y-94256627D01*
X63233616Y-94369853D01*
X63216443Y-94426467D01*
X63159499Y-94533000D01*
X63132778Y-94582991D01*
X63127551Y-94589360D01*
X63020186Y-94720186D01*
X62918729Y-94803448D01*
X62882991Y-94832778D01*
X62882989Y-94832779D01*
X62726467Y-94916443D01*
X62669853Y-94933616D01*
X62556627Y-94967963D01*
X62490443Y-94974481D01*
X62424260Y-94981000D01*
X62335740Y-94981000D01*
X62269557Y-94974481D01*
X62203373Y-94967963D01*
X62090147Y-94933616D01*
X62033533Y-94916443D01*
X61877011Y-94832779D01*
X61877009Y-94832778D01*
X61841271Y-94803448D01*
X61739814Y-94720186D01*
X61632449Y-94589360D01*
X61627222Y-94582991D01*
X61600501Y-94533000D01*
X61543557Y-94426467D01*
X61526384Y-94369853D01*
X61492037Y-94256627D01*
X61474641Y-94080000D01*
X61492037Y-93903373D01*
X61543557Y-93733534D01*
X61543557Y-93733533D01*
X61627221Y-93577011D01*
X61627222Y-93577009D01*
X61656552Y-93541271D01*
X61739814Y-93439814D01*
X61844380Y-93354000D01*
X61877009Y-93327222D01*
X61894913Y-93317652D01*
X62033533Y-93243557D01*
X62121081Y-93217000D01*
X62203373Y-93192037D01*
X62292600Y-93183249D01*
X62335740Y-93179000D01*
X62424260Y-93179000D01*
X62467400Y-93183249D01*
X62467400Y-93183249D01*
G37*
G36*
X65007400Y-93183249D02*
X65096627Y-93192037D01*
X65178919Y-93217000D01*
X65266467Y-93243557D01*
X65405087Y-93317652D01*
X65422991Y-93327222D01*
X65455620Y-93354000D01*
X65560186Y-93439814D01*
X65643448Y-93541271D01*
X65672778Y-93577009D01*
X65672779Y-93577011D01*
X65756443Y-93733533D01*
X65756443Y-93733534D01*
X65807963Y-93903373D01*
X65825359Y-94080000D01*
X65807963Y-94256627D01*
X65773616Y-94369853D01*
X65756443Y-94426467D01*
X65699499Y-94533000D01*
X65672778Y-94582991D01*
X65667551Y-94589360D01*
X65560186Y-94720186D01*
X65458729Y-94803448D01*
X65422991Y-94832778D01*
X65422989Y-94832779D01*
X65266467Y-94916443D01*
X65209853Y-94933616D01*
X65096627Y-94967963D01*
X65030443Y-94974481D01*
X64964260Y-94981000D01*
X64875740Y-94981000D01*
X64809557Y-94974481D01*
X64743373Y-94967963D01*
X64630147Y-94933616D01*
X64573533Y-94916443D01*
X64417011Y-94832779D01*
X64417009Y-94832778D01*
X64381271Y-94803448D01*
X64279814Y-94720186D01*
X64172449Y-94589360D01*
X64167222Y-94582991D01*
X64140501Y-94533000D01*
X64083557Y-94426467D01*
X64066384Y-94369853D01*
X64032037Y-94256627D01*
X64014641Y-94080000D01*
X64032037Y-93903373D01*
X64083557Y-93733534D01*
X64083557Y-93733533D01*
X64167221Y-93577011D01*
X64167222Y-93577009D01*
X64196552Y-93541271D01*
X64279814Y-93439814D01*
X64384380Y-93354000D01*
X64417009Y-93327222D01*
X64434913Y-93317652D01*
X64573533Y-93243557D01*
X64661081Y-93217000D01*
X64743373Y-93192037D01*
X64832600Y-93183249D01*
X64875740Y-93179000D01*
X64964260Y-93179000D01*
X65007400Y-93183249D01*
X65007400Y-93183249D01*
G37*
G36*
X86031938Y-94016716D02*
X86052556Y-94022970D01*
X86071556Y-94033126D01*
X86088208Y-94046792D01*
X86101874Y-94063444D01*
X86112030Y-94082444D01*
X86118284Y-94103062D01*
X86121000Y-94130640D01*
X86121000Y-94589360D01*
X86118284Y-94616938D01*
X86112030Y-94637556D01*
X86101874Y-94656556D01*
X86088208Y-94673208D01*
X86071556Y-94686874D01*
X86052556Y-94697030D01*
X86031938Y-94703284D01*
X86004360Y-94706000D01*
X85495640Y-94706000D01*
X85468062Y-94703284D01*
X85447444Y-94697030D01*
X85428444Y-94686874D01*
X85411792Y-94673208D01*
X85398126Y-94656556D01*
X85387970Y-94637556D01*
X85381716Y-94616938D01*
X85379000Y-94589360D01*
X85379000Y-94130640D01*
X85381716Y-94103062D01*
X85387970Y-94082444D01*
X85398126Y-94063444D01*
X85411792Y-94046792D01*
X85428444Y-94033126D01*
X85447444Y-94022970D01*
X85468062Y-94016716D01*
X85495640Y-94014000D01*
X86004360Y-94014000D01*
X86031938Y-94016716D01*
X86031938Y-94016716D01*
G37*
G36*
X87081938Y-94016716D02*
X87102556Y-94022970D01*
X87121556Y-94033126D01*
X87138208Y-94046792D01*
X87151874Y-94063444D01*
X87162030Y-94082444D01*
X87168284Y-94103062D01*
X87171000Y-94130640D01*
X87171000Y-94589360D01*
X87168284Y-94616938D01*
X87162030Y-94637556D01*
X87151874Y-94656556D01*
X87138208Y-94673208D01*
X87121556Y-94686874D01*
X87102556Y-94697030D01*
X87081938Y-94703284D01*
X87054360Y-94706000D01*
X86545640Y-94706000D01*
X86518062Y-94703284D01*
X86497444Y-94697030D01*
X86478444Y-94686874D01*
X86461792Y-94673208D01*
X86448126Y-94656556D01*
X86437970Y-94637556D01*
X86431716Y-94616938D01*
X86429000Y-94589360D01*
X86429000Y-94130640D01*
X86431716Y-94103062D01*
X86437970Y-94082444D01*
X86448126Y-94063444D01*
X86461792Y-94046792D01*
X86478444Y-94033126D01*
X86497444Y-94022970D01*
X86518062Y-94016716D01*
X86545640Y-94014000D01*
X87054360Y-94014000D01*
X87081938Y-94016716D01*
X87081938Y-94016716D01*
G37*
G36*
X84766938Y-93356716D02*
X84787556Y-93362970D01*
X84806556Y-93373126D01*
X84823208Y-93386792D01*
X84836874Y-93403444D01*
X84847030Y-93422444D01*
X84853284Y-93443062D01*
X84856000Y-93470640D01*
X84856000Y-93979360D01*
X84853284Y-94006938D01*
X84847030Y-94027556D01*
X84836874Y-94046556D01*
X84823208Y-94063208D01*
X84806556Y-94076874D01*
X84787556Y-94087030D01*
X84766938Y-94093284D01*
X84739360Y-94096000D01*
X84280640Y-94096000D01*
X84253062Y-94093284D01*
X84232444Y-94087030D01*
X84213444Y-94076874D01*
X84196792Y-94063208D01*
X84183126Y-94046556D01*
X84172970Y-94027556D01*
X84166716Y-94006938D01*
X84164000Y-93979360D01*
X84164000Y-93470640D01*
X84166716Y-93443062D01*
X84172970Y-93422444D01*
X84183126Y-93403444D01*
X84196792Y-93386792D01*
X84213444Y-93373126D01*
X84232444Y-93362970D01*
X84253062Y-93356716D01*
X84280640Y-93354000D01*
X84739360Y-93354000D01*
X84766938Y-93356716D01*
X84766938Y-93356716D01*
G37*
G36*
X83796938Y-93356716D02*
X83817556Y-93362970D01*
X83836556Y-93373126D01*
X83853208Y-93386792D01*
X83866874Y-93403444D01*
X83877030Y-93422444D01*
X83883284Y-93443062D01*
X83886000Y-93470640D01*
X83886000Y-93979360D01*
X83883284Y-94006938D01*
X83877030Y-94027556D01*
X83866874Y-94046556D01*
X83853208Y-94063208D01*
X83836556Y-94076874D01*
X83817556Y-94087030D01*
X83796938Y-94093284D01*
X83769360Y-94096000D01*
X83310640Y-94096000D01*
X83283062Y-94093284D01*
X83262444Y-94087030D01*
X83243444Y-94076874D01*
X83226792Y-94063208D01*
X83213126Y-94046556D01*
X83202970Y-94027556D01*
X83196716Y-94006938D01*
X83194000Y-93979360D01*
X83194000Y-93470640D01*
X83196716Y-93443062D01*
X83202970Y-93422444D01*
X83213126Y-93403444D01*
X83226792Y-93386792D01*
X83243444Y-93373126D01*
X83262444Y-93362970D01*
X83283062Y-93356716D01*
X83310640Y-93354000D01*
X83769360Y-93354000D01*
X83796938Y-93356716D01*
X83796938Y-93356716D01*
G37*
G36*
X90876000Y-93741000D02*
X89924000Y-93741000D01*
X89924000Y-92639000D01*
X90876000Y-92639000D01*
X90876000Y-93741000D01*
X90876000Y-93741000D01*
G37*
G36*
X92476000Y-93741000D02*
X91524000Y-93741000D01*
X91524000Y-92639000D01*
X92476000Y-92639000D01*
X92476000Y-93741000D01*
X92476000Y-93741000D01*
G37*
G36*
X86031938Y-93046716D02*
X86052556Y-93052970D01*
X86071556Y-93063126D01*
X86088208Y-93076792D01*
X86101874Y-93093444D01*
X86112030Y-93112444D01*
X86118284Y-93133062D01*
X86121000Y-93160640D01*
X86121000Y-93619360D01*
X86118284Y-93646938D01*
X86112030Y-93667556D01*
X86101874Y-93686556D01*
X86088208Y-93703208D01*
X86071556Y-93716874D01*
X86052556Y-93727030D01*
X86031938Y-93733284D01*
X86004360Y-93736000D01*
X85495640Y-93736000D01*
X85468062Y-93733284D01*
X85447444Y-93727030D01*
X85428444Y-93716874D01*
X85411792Y-93703208D01*
X85398126Y-93686556D01*
X85387970Y-93667556D01*
X85381716Y-93646938D01*
X85379000Y-93619360D01*
X85379000Y-93160640D01*
X85381716Y-93133062D01*
X85387970Y-93112444D01*
X85398126Y-93093444D01*
X85411792Y-93076792D01*
X85428444Y-93063126D01*
X85447444Y-93052970D01*
X85468062Y-93046716D01*
X85495640Y-93044000D01*
X86004360Y-93044000D01*
X86031938Y-93046716D01*
X86031938Y-93046716D01*
G37*
G36*
X87081938Y-93046716D02*
X87102556Y-93052970D01*
X87121556Y-93063126D01*
X87138208Y-93076792D01*
X87151874Y-93093444D01*
X87162030Y-93112444D01*
X87168284Y-93133062D01*
X87171000Y-93160640D01*
X87171000Y-93619360D01*
X87168284Y-93646938D01*
X87162030Y-93667556D01*
X87151874Y-93686556D01*
X87138208Y-93703208D01*
X87121556Y-93716874D01*
X87102556Y-93727030D01*
X87081938Y-93733284D01*
X87054360Y-93736000D01*
X86545640Y-93736000D01*
X86518062Y-93733284D01*
X86497444Y-93727030D01*
X86478444Y-93716874D01*
X86461792Y-93703208D01*
X86448126Y-93686556D01*
X86437970Y-93667556D01*
X86431716Y-93646938D01*
X86429000Y-93619360D01*
X86429000Y-93160640D01*
X86431716Y-93133062D01*
X86437970Y-93112444D01*
X86448126Y-93093444D01*
X86461792Y-93076792D01*
X86478444Y-93063126D01*
X86497444Y-93052970D01*
X86518062Y-93046716D01*
X86545640Y-93044000D01*
X87054360Y-93044000D01*
X87081938Y-93046716D01*
X87081938Y-93046716D01*
G37*
G36*
X83796938Y-92306716D02*
X83817556Y-92312970D01*
X83836556Y-92323126D01*
X83853208Y-92336792D01*
X83866874Y-92353444D01*
X83877030Y-92372444D01*
X83883284Y-92393062D01*
X83886000Y-92420640D01*
X83886000Y-92929360D01*
X83883284Y-92956938D01*
X83877030Y-92977556D01*
X83866874Y-92996556D01*
X83853208Y-93013208D01*
X83836556Y-93026874D01*
X83817556Y-93037030D01*
X83796938Y-93043284D01*
X83769360Y-93046000D01*
X83310640Y-93046000D01*
X83283062Y-93043284D01*
X83262444Y-93037030D01*
X83243444Y-93026874D01*
X83226792Y-93013208D01*
X83213126Y-92996556D01*
X83202970Y-92977556D01*
X83196716Y-92956938D01*
X83194000Y-92929360D01*
X83194000Y-92420640D01*
X83196716Y-92393062D01*
X83202970Y-92372444D01*
X83213126Y-92353444D01*
X83226792Y-92336792D01*
X83243444Y-92323126D01*
X83262444Y-92312970D01*
X83283062Y-92306716D01*
X83310640Y-92304000D01*
X83769360Y-92304000D01*
X83796938Y-92306716D01*
X83796938Y-92306716D01*
G37*
G36*
X84766938Y-92306716D02*
X84787556Y-92312970D01*
X84806556Y-92323126D01*
X84823208Y-92336792D01*
X84836874Y-92353444D01*
X84847030Y-92372444D01*
X84853284Y-92393062D01*
X84856000Y-92420640D01*
X84856000Y-92929360D01*
X84853284Y-92956938D01*
X84847030Y-92977556D01*
X84836874Y-92996556D01*
X84823208Y-93013208D01*
X84806556Y-93026874D01*
X84787556Y-93037030D01*
X84766938Y-93043284D01*
X84739360Y-93046000D01*
X84280640Y-93046000D01*
X84253062Y-93043284D01*
X84232444Y-93037030D01*
X84213444Y-93026874D01*
X84196792Y-93013208D01*
X84183126Y-92996556D01*
X84172970Y-92977556D01*
X84166716Y-92956938D01*
X84164000Y-92929360D01*
X84164000Y-92420640D01*
X84166716Y-92393062D01*
X84172970Y-92372444D01*
X84183126Y-92353444D01*
X84196792Y-92336792D01*
X84213444Y-92323126D01*
X84232444Y-92312970D01*
X84253062Y-92306716D01*
X84280640Y-92304000D01*
X84739360Y-92304000D01*
X84766938Y-92306716D01*
X84766938Y-92306716D01*
G37*
G36*
X103951000Y-92451000D02*
X99649000Y-92451000D01*
X99649000Y-90999000D01*
X103951000Y-90999000D01*
X103951000Y-92451000D01*
X103951000Y-92451000D01*
G37*
G36*
X65030443Y-90645519D02*
X65096627Y-90652037D01*
X65199114Y-90683126D01*
X65266467Y-90703557D01*
X65398928Y-90774360D01*
X65422991Y-90787222D01*
X65455759Y-90814114D01*
X65560186Y-90899814D01*
X65641585Y-90999000D01*
X65672778Y-91037009D01*
X65672779Y-91037011D01*
X65756443Y-91193533D01*
X65764372Y-91219671D01*
X65807963Y-91363373D01*
X65825359Y-91540000D01*
X65807963Y-91716627D01*
X65784930Y-91792556D01*
X65756443Y-91886467D01*
X65682348Y-92025087D01*
X65672778Y-92042991D01*
X65643448Y-92078729D01*
X65560186Y-92180186D01*
X65458729Y-92263448D01*
X65422991Y-92292778D01*
X65422989Y-92292779D01*
X65266467Y-92376443D01*
X65211680Y-92393062D01*
X65096627Y-92427963D01*
X65030443Y-92434481D01*
X64964260Y-92441000D01*
X64875740Y-92441000D01*
X64809557Y-92434481D01*
X64743373Y-92427963D01*
X64628320Y-92393062D01*
X64573533Y-92376443D01*
X64417011Y-92292779D01*
X64417009Y-92292778D01*
X64381271Y-92263448D01*
X64279814Y-92180186D01*
X64196552Y-92078729D01*
X64167222Y-92042991D01*
X64157652Y-92025087D01*
X64083557Y-91886467D01*
X64055070Y-91792556D01*
X64032037Y-91716627D01*
X64014641Y-91540000D01*
X64032037Y-91363373D01*
X64075628Y-91219671D01*
X64083557Y-91193533D01*
X64167221Y-91037011D01*
X64167222Y-91037009D01*
X64198415Y-90999000D01*
X64279814Y-90899814D01*
X64384241Y-90814114D01*
X64417009Y-90787222D01*
X64441072Y-90774360D01*
X64573533Y-90703557D01*
X64640886Y-90683126D01*
X64743373Y-90652037D01*
X64809557Y-90645519D01*
X64875740Y-90639000D01*
X64964260Y-90639000D01*
X65030443Y-90645519D01*
X65030443Y-90645519D01*
G37*
G36*
X62490443Y-90645519D02*
X62556627Y-90652037D01*
X62659114Y-90683126D01*
X62726467Y-90703557D01*
X62858928Y-90774360D01*
X62882991Y-90787222D01*
X62915759Y-90814114D01*
X63020186Y-90899814D01*
X63101585Y-90999000D01*
X63132778Y-91037009D01*
X63132779Y-91037011D01*
X63216443Y-91193533D01*
X63224372Y-91219671D01*
X63267963Y-91363373D01*
X63285359Y-91540000D01*
X63267963Y-91716627D01*
X63244930Y-91792556D01*
X63216443Y-91886467D01*
X63142348Y-92025087D01*
X63132778Y-92042991D01*
X63103448Y-92078729D01*
X63020186Y-92180186D01*
X62918729Y-92263448D01*
X62882991Y-92292778D01*
X62882989Y-92292779D01*
X62726467Y-92376443D01*
X62671680Y-92393062D01*
X62556627Y-92427963D01*
X62490443Y-92434481D01*
X62424260Y-92441000D01*
X62335740Y-92441000D01*
X62269557Y-92434481D01*
X62203373Y-92427963D01*
X62088320Y-92393062D01*
X62033533Y-92376443D01*
X61877011Y-92292779D01*
X61877009Y-92292778D01*
X61841271Y-92263448D01*
X61739814Y-92180186D01*
X61656552Y-92078729D01*
X61627222Y-92042991D01*
X61617652Y-92025087D01*
X61543557Y-91886467D01*
X61515070Y-91792556D01*
X61492037Y-91716627D01*
X61474641Y-91540000D01*
X61492037Y-91363373D01*
X61535628Y-91219671D01*
X61543557Y-91193533D01*
X61627221Y-91037011D01*
X61627222Y-91037009D01*
X61658415Y-90999000D01*
X61739814Y-90899814D01*
X61844241Y-90814114D01*
X61877009Y-90787222D01*
X61901072Y-90774360D01*
X62033533Y-90703557D01*
X62100886Y-90683126D01*
X62203373Y-90652037D01*
X62269557Y-90645519D01*
X62335740Y-90639000D01*
X62424260Y-90639000D01*
X62490443Y-90645519D01*
X62490443Y-90645519D01*
G37*
G36*
X80961938Y-91171716D02*
X80982556Y-91177970D01*
X81001556Y-91188126D01*
X81018208Y-91201792D01*
X81031874Y-91218444D01*
X81042030Y-91237444D01*
X81048284Y-91258062D01*
X81051000Y-91285640D01*
X81051000Y-91744360D01*
X81048284Y-91771938D01*
X81042030Y-91792556D01*
X81031874Y-91811556D01*
X81018208Y-91828208D01*
X81001556Y-91841874D01*
X80982556Y-91852030D01*
X80961938Y-91858284D01*
X80934360Y-91861000D01*
X80425640Y-91861000D01*
X80398062Y-91858284D01*
X80377444Y-91852030D01*
X80358444Y-91841874D01*
X80341792Y-91828208D01*
X80328126Y-91811556D01*
X80317970Y-91792556D01*
X80311716Y-91771938D01*
X80309000Y-91744360D01*
X80309000Y-91285640D01*
X80311716Y-91258062D01*
X80317970Y-91237444D01*
X80328126Y-91218444D01*
X80341792Y-91201792D01*
X80358444Y-91188126D01*
X80377444Y-91177970D01*
X80398062Y-91171716D01*
X80425640Y-91169000D01*
X80934360Y-91169000D01*
X80961938Y-91171716D01*
X80961938Y-91171716D01*
G37*
G36*
X79871938Y-91151716D02*
X79892556Y-91157970D01*
X79911556Y-91168126D01*
X79928208Y-91181792D01*
X79941874Y-91198444D01*
X79952030Y-91217444D01*
X79958284Y-91238062D01*
X79961000Y-91265640D01*
X79961000Y-91724360D01*
X79958284Y-91751938D01*
X79952030Y-91772556D01*
X79941874Y-91791556D01*
X79928208Y-91808208D01*
X79911556Y-91821874D01*
X79892556Y-91832030D01*
X79871938Y-91838284D01*
X79844360Y-91841000D01*
X79335640Y-91841000D01*
X79308062Y-91838284D01*
X79287444Y-91832030D01*
X79268444Y-91821874D01*
X79251792Y-91808208D01*
X79238126Y-91791556D01*
X79227970Y-91772556D01*
X79221716Y-91751938D01*
X79219000Y-91724360D01*
X79219000Y-91265640D01*
X79221716Y-91238062D01*
X79227970Y-91217444D01*
X79238126Y-91198444D01*
X79251792Y-91181792D01*
X79268444Y-91168126D01*
X79287444Y-91157970D01*
X79308062Y-91151716D01*
X79335640Y-91149000D01*
X79844360Y-91149000D01*
X79871938Y-91151716D01*
X79871938Y-91151716D01*
G37*
G36*
X86763500Y-86686500D02*
X86765902Y-86710886D01*
X86773015Y-86734335D01*
X86784566Y-86755946D01*
X86800112Y-86774888D01*
X86819054Y-86790434D01*
X86840665Y-86801985D01*
X86864114Y-86809098D01*
X86888500Y-86811500D01*
X87638500Y-86811500D01*
X87638500Y-90663500D01*
X86888500Y-90663500D01*
X86864114Y-90665902D01*
X86840665Y-90673015D01*
X86819054Y-90684566D01*
X86800112Y-90700112D01*
X86784566Y-90719054D01*
X86773015Y-90740665D01*
X86765902Y-90764114D01*
X86763500Y-90788500D01*
X86763500Y-91538500D01*
X82911500Y-91538500D01*
X82911500Y-90788500D01*
X82909098Y-90764114D01*
X82901985Y-90740665D01*
X82890434Y-90719054D01*
X82874888Y-90700112D01*
X82855946Y-90684566D01*
X82834335Y-90673015D01*
X82810886Y-90665902D01*
X82786500Y-90663500D01*
X82036500Y-90663500D01*
X82036500Y-86811500D01*
X82786500Y-86811500D01*
X82810886Y-86809098D01*
X82834335Y-86801985D01*
X82855946Y-86790434D01*
X82874888Y-86774888D01*
X82890434Y-86755946D01*
X82901985Y-86734335D01*
X82909098Y-86710886D01*
X82911500Y-86686500D01*
X82911500Y-85936500D01*
X86763500Y-85936500D01*
X86763500Y-86686500D01*
X86763500Y-86686500D01*
G37*
G36*
X93416938Y-90756716D02*
X93437556Y-90762970D01*
X93456556Y-90773126D01*
X93473208Y-90786792D01*
X93486874Y-90803444D01*
X93497030Y-90822444D01*
X93503284Y-90843062D01*
X93506000Y-90870640D01*
X93506000Y-91379360D01*
X93503284Y-91406938D01*
X93497030Y-91427556D01*
X93486874Y-91446556D01*
X93473208Y-91463208D01*
X93456556Y-91476874D01*
X93437556Y-91487030D01*
X93416938Y-91493284D01*
X93389360Y-91496000D01*
X92930640Y-91496000D01*
X92903062Y-91493284D01*
X92882444Y-91487030D01*
X92863444Y-91476874D01*
X92846792Y-91463208D01*
X92833126Y-91446556D01*
X92822970Y-91427556D01*
X92816716Y-91406938D01*
X92814000Y-91379360D01*
X92814000Y-90870640D01*
X92816716Y-90843062D01*
X92822970Y-90822444D01*
X92833126Y-90803444D01*
X92846792Y-90786792D01*
X92863444Y-90773126D01*
X92882444Y-90762970D01*
X92903062Y-90756716D01*
X92930640Y-90754000D01*
X93389360Y-90754000D01*
X93416938Y-90756716D01*
X93416938Y-90756716D01*
G37*
G36*
X92446938Y-90756716D02*
X92467556Y-90762970D01*
X92486556Y-90773126D01*
X92503208Y-90786792D01*
X92516874Y-90803444D01*
X92527030Y-90822444D01*
X92533284Y-90843062D01*
X92536000Y-90870640D01*
X92536000Y-91379360D01*
X92533284Y-91406938D01*
X92527030Y-91427556D01*
X92516874Y-91446556D01*
X92503208Y-91463208D01*
X92486556Y-91476874D01*
X92467556Y-91487030D01*
X92446938Y-91493284D01*
X92419360Y-91496000D01*
X91960640Y-91496000D01*
X91933062Y-91493284D01*
X91912444Y-91487030D01*
X91893444Y-91476874D01*
X91876792Y-91463208D01*
X91863126Y-91446556D01*
X91852970Y-91427556D01*
X91846716Y-91406938D01*
X91844000Y-91379360D01*
X91844000Y-90870640D01*
X91846716Y-90843062D01*
X91852970Y-90822444D01*
X91863126Y-90803444D01*
X91876792Y-90786792D01*
X91893444Y-90773126D01*
X91912444Y-90762970D01*
X91933062Y-90756716D01*
X91960640Y-90754000D01*
X92419360Y-90754000D01*
X92446938Y-90756716D01*
X92446938Y-90756716D01*
G37*
G36*
X91481938Y-90666716D02*
X91502556Y-90672970D01*
X91521556Y-90683126D01*
X91538208Y-90696792D01*
X91551874Y-90713444D01*
X91562030Y-90732444D01*
X91568284Y-90753062D01*
X91571000Y-90780640D01*
X91571000Y-91239360D01*
X91568284Y-91266938D01*
X91562030Y-91287556D01*
X91551874Y-91306556D01*
X91538208Y-91323208D01*
X91521556Y-91336874D01*
X91502556Y-91347030D01*
X91481938Y-91353284D01*
X91454360Y-91356000D01*
X90945640Y-91356000D01*
X90918062Y-91353284D01*
X90897444Y-91347030D01*
X90878444Y-91336874D01*
X90861792Y-91323208D01*
X90848126Y-91306556D01*
X90837970Y-91287556D01*
X90831716Y-91266938D01*
X90829000Y-91239360D01*
X90829000Y-90780640D01*
X90831716Y-90753062D01*
X90837970Y-90732444D01*
X90848126Y-90713444D01*
X90861792Y-90696792D01*
X90878444Y-90683126D01*
X90897444Y-90672970D01*
X90918062Y-90666716D01*
X90945640Y-90664000D01*
X91454360Y-90664000D01*
X91481938Y-90666716D01*
X91481938Y-90666716D01*
G37*
G36*
X89856938Y-90616716D02*
X89877556Y-90622970D01*
X89896556Y-90633126D01*
X89913208Y-90646792D01*
X89926874Y-90663444D01*
X89937030Y-90682444D01*
X89943284Y-90703062D01*
X89946000Y-90730640D01*
X89946000Y-91189360D01*
X89943284Y-91216938D01*
X89937030Y-91237556D01*
X89926874Y-91256556D01*
X89913208Y-91273208D01*
X89896556Y-91286874D01*
X89877556Y-91297030D01*
X89856938Y-91303284D01*
X89829360Y-91306000D01*
X89320640Y-91306000D01*
X89293062Y-91303284D01*
X89272444Y-91297030D01*
X89253444Y-91286874D01*
X89236792Y-91273208D01*
X89223126Y-91256556D01*
X89212970Y-91237556D01*
X89206716Y-91216938D01*
X89204000Y-91189360D01*
X89204000Y-90730640D01*
X89206716Y-90703062D01*
X89212970Y-90682444D01*
X89223126Y-90663444D01*
X89236792Y-90646792D01*
X89253444Y-90633126D01*
X89272444Y-90622970D01*
X89293062Y-90616716D01*
X89320640Y-90614000D01*
X89829360Y-90614000D01*
X89856938Y-90616716D01*
X89856938Y-90616716D01*
G37*
G36*
X88781938Y-90616716D02*
X88802556Y-90622970D01*
X88821556Y-90633126D01*
X88838208Y-90646792D01*
X88851874Y-90663444D01*
X88862030Y-90682444D01*
X88868284Y-90703062D01*
X88871000Y-90730640D01*
X88871000Y-91189360D01*
X88868284Y-91216938D01*
X88862030Y-91237556D01*
X88851874Y-91256556D01*
X88838208Y-91273208D01*
X88821556Y-91286874D01*
X88802556Y-91297030D01*
X88781938Y-91303284D01*
X88754360Y-91306000D01*
X88245640Y-91306000D01*
X88218062Y-91303284D01*
X88197444Y-91297030D01*
X88178444Y-91286874D01*
X88161792Y-91273208D01*
X88148126Y-91256556D01*
X88137970Y-91237556D01*
X88131716Y-91216938D01*
X88129000Y-91189360D01*
X88129000Y-90730640D01*
X88131716Y-90703062D01*
X88137970Y-90682444D01*
X88148126Y-90663444D01*
X88161792Y-90646792D01*
X88178444Y-90633126D01*
X88197444Y-90622970D01*
X88218062Y-90616716D01*
X88245640Y-90614000D01*
X88754360Y-90614000D01*
X88781938Y-90616716D01*
X88781938Y-90616716D01*
G37*
G36*
X74946000Y-90926000D02*
X74214000Y-90926000D01*
X74214000Y-89984000D01*
X74946000Y-89984000D01*
X74946000Y-90926000D01*
X74946000Y-90926000D01*
G37*
G36*
X72866000Y-90926000D02*
X72134000Y-90926000D01*
X72134000Y-89984000D01*
X72866000Y-89984000D01*
X72866000Y-90926000D01*
X72866000Y-90926000D01*
G37*
G36*
X80961938Y-90201716D02*
X80982556Y-90207970D01*
X81001556Y-90218126D01*
X81018208Y-90231792D01*
X81031874Y-90248444D01*
X81042030Y-90267444D01*
X81048284Y-90288062D01*
X81051000Y-90315640D01*
X81051000Y-90774360D01*
X81048284Y-90801938D01*
X81042030Y-90822556D01*
X81031874Y-90841556D01*
X81018208Y-90858208D01*
X81001556Y-90871874D01*
X80982556Y-90882030D01*
X80961938Y-90888284D01*
X80934360Y-90891000D01*
X80425640Y-90891000D01*
X80398062Y-90888284D01*
X80377444Y-90882030D01*
X80358444Y-90871874D01*
X80341792Y-90858208D01*
X80328126Y-90841556D01*
X80317970Y-90822556D01*
X80311716Y-90801938D01*
X80309000Y-90774360D01*
X80309000Y-90315640D01*
X80311716Y-90288062D01*
X80317970Y-90267444D01*
X80328126Y-90248444D01*
X80341792Y-90231792D01*
X80358444Y-90218126D01*
X80377444Y-90207970D01*
X80398062Y-90201716D01*
X80425640Y-90199000D01*
X80934360Y-90199000D01*
X80961938Y-90201716D01*
X80961938Y-90201716D01*
G37*
G36*
X79871938Y-90181716D02*
X79892556Y-90187970D01*
X79911556Y-90198126D01*
X79928208Y-90211792D01*
X79941874Y-90228444D01*
X79952030Y-90247444D01*
X79958284Y-90268062D01*
X79961000Y-90295640D01*
X79961000Y-90754360D01*
X79958284Y-90781938D01*
X79952030Y-90802556D01*
X79941874Y-90821556D01*
X79928208Y-90838208D01*
X79911556Y-90851874D01*
X79892556Y-90862030D01*
X79871938Y-90868284D01*
X79844360Y-90871000D01*
X79335640Y-90871000D01*
X79308062Y-90868284D01*
X79287444Y-90862030D01*
X79268444Y-90851874D01*
X79251792Y-90838208D01*
X79238126Y-90821556D01*
X79227970Y-90802556D01*
X79221716Y-90781938D01*
X79219000Y-90754360D01*
X79219000Y-90295640D01*
X79221716Y-90268062D01*
X79227970Y-90247444D01*
X79238126Y-90228444D01*
X79251792Y-90211792D01*
X79268444Y-90198126D01*
X79287444Y-90187970D01*
X79308062Y-90181716D01*
X79335640Y-90179000D01*
X79844360Y-90179000D01*
X79871938Y-90181716D01*
X79871938Y-90181716D01*
G37*
G36*
X71051938Y-89771716D02*
X71072556Y-89777970D01*
X71091556Y-89788126D01*
X71108208Y-89801792D01*
X71121874Y-89818444D01*
X71132030Y-89837444D01*
X71138284Y-89858062D01*
X71141000Y-89885640D01*
X71141000Y-90344360D01*
X71138284Y-90371938D01*
X71132030Y-90392556D01*
X71121874Y-90411556D01*
X71108208Y-90428208D01*
X71091556Y-90441874D01*
X71072556Y-90452030D01*
X71051938Y-90458284D01*
X71024360Y-90461000D01*
X70515640Y-90461000D01*
X70488062Y-90458284D01*
X70467444Y-90452030D01*
X70448444Y-90441874D01*
X70431792Y-90428208D01*
X70418126Y-90411556D01*
X70407970Y-90392556D01*
X70401716Y-90371938D01*
X70399000Y-90344360D01*
X70399000Y-89885640D01*
X70401716Y-89858062D01*
X70407970Y-89837444D01*
X70418126Y-89818444D01*
X70431792Y-89801792D01*
X70448444Y-89788126D01*
X70467444Y-89777970D01*
X70488062Y-89771716D01*
X70515640Y-89769000D01*
X71024360Y-89769000D01*
X71051938Y-89771716D01*
X71051938Y-89771716D01*
G37*
G36*
X91481938Y-89696716D02*
X91502556Y-89702970D01*
X91521556Y-89713126D01*
X91538208Y-89726792D01*
X91551874Y-89743444D01*
X91562030Y-89762444D01*
X91568284Y-89783062D01*
X91571000Y-89810640D01*
X91571000Y-90269360D01*
X91568284Y-90296938D01*
X91562030Y-90317556D01*
X91551874Y-90336556D01*
X91538208Y-90353208D01*
X91521556Y-90366874D01*
X91502556Y-90377030D01*
X91481938Y-90383284D01*
X91454360Y-90386000D01*
X90945640Y-90386000D01*
X90918062Y-90383284D01*
X90897444Y-90377030D01*
X90878444Y-90366874D01*
X90861792Y-90353208D01*
X90848126Y-90336556D01*
X90837970Y-90317556D01*
X90831716Y-90296938D01*
X90829000Y-90269360D01*
X90829000Y-89810640D01*
X90831716Y-89783062D01*
X90837970Y-89762444D01*
X90848126Y-89743444D01*
X90861792Y-89726792D01*
X90878444Y-89713126D01*
X90897444Y-89702970D01*
X90918062Y-89696716D01*
X90945640Y-89694000D01*
X91454360Y-89694000D01*
X91481938Y-89696716D01*
X91481938Y-89696716D01*
G37*
G36*
X88781938Y-89646716D02*
X88802556Y-89652970D01*
X88821556Y-89663126D01*
X88838208Y-89676792D01*
X88851874Y-89693444D01*
X88862030Y-89712444D01*
X88868284Y-89733062D01*
X88871000Y-89760640D01*
X88871000Y-90219360D01*
X88868284Y-90246938D01*
X88862030Y-90267556D01*
X88851874Y-90286556D01*
X88838208Y-90303208D01*
X88821556Y-90316874D01*
X88802556Y-90327030D01*
X88781938Y-90333284D01*
X88754360Y-90336000D01*
X88245640Y-90336000D01*
X88218062Y-90333284D01*
X88197444Y-90327030D01*
X88178444Y-90316874D01*
X88161792Y-90303208D01*
X88148126Y-90286556D01*
X88137970Y-90267556D01*
X88131716Y-90246938D01*
X88129000Y-90219360D01*
X88129000Y-89760640D01*
X88131716Y-89733062D01*
X88137970Y-89712444D01*
X88148126Y-89693444D01*
X88161792Y-89676792D01*
X88178444Y-89663126D01*
X88197444Y-89652970D01*
X88218062Y-89646716D01*
X88245640Y-89644000D01*
X88754360Y-89644000D01*
X88781938Y-89646716D01*
X88781938Y-89646716D01*
G37*
G36*
X89856938Y-89646716D02*
X89877556Y-89652970D01*
X89896556Y-89663126D01*
X89913208Y-89676792D01*
X89926874Y-89693444D01*
X89937030Y-89712444D01*
X89943284Y-89733062D01*
X89946000Y-89760640D01*
X89946000Y-90219360D01*
X89943284Y-90246938D01*
X89937030Y-90267556D01*
X89926874Y-90286556D01*
X89913208Y-90303208D01*
X89896556Y-90316874D01*
X89877556Y-90327030D01*
X89856938Y-90333284D01*
X89829360Y-90336000D01*
X89320640Y-90336000D01*
X89293062Y-90333284D01*
X89272444Y-90327030D01*
X89253444Y-90316874D01*
X89236792Y-90303208D01*
X89223126Y-90286556D01*
X89212970Y-90267556D01*
X89206716Y-90246938D01*
X89204000Y-90219360D01*
X89204000Y-89760640D01*
X89206716Y-89733062D01*
X89212970Y-89712444D01*
X89223126Y-89693444D01*
X89236792Y-89676792D01*
X89253444Y-89663126D01*
X89272444Y-89652970D01*
X89293062Y-89646716D01*
X89320640Y-89644000D01*
X89829360Y-89644000D01*
X89856938Y-89646716D01*
X89856938Y-89646716D01*
G37*
G36*
X65030443Y-88105519D02*
X65096627Y-88112037D01*
X65209853Y-88146384D01*
X65266467Y-88163557D01*
X65405087Y-88237652D01*
X65422991Y-88247222D01*
X65458729Y-88276552D01*
X65560186Y-88359814D01*
X65629368Y-88444114D01*
X65672778Y-88497009D01*
X65678805Y-88508284D01*
X65756443Y-88653533D01*
X65768434Y-88693062D01*
X65807963Y-88823373D01*
X65825359Y-89000000D01*
X65807963Y-89176627D01*
X65783601Y-89256938D01*
X65756443Y-89346467D01*
X65720284Y-89414114D01*
X65672778Y-89502991D01*
X65645688Y-89536000D01*
X65560186Y-89640186D01*
X65472138Y-89712444D01*
X65422991Y-89752778D01*
X65422989Y-89752779D01*
X65266467Y-89836443D01*
X65235337Y-89845886D01*
X65096627Y-89887963D01*
X65030442Y-89894482D01*
X64964260Y-89901000D01*
X64875740Y-89901000D01*
X64809558Y-89894482D01*
X64743373Y-89887963D01*
X64604663Y-89845886D01*
X64573533Y-89836443D01*
X64417011Y-89752779D01*
X64417009Y-89752778D01*
X64367862Y-89712444D01*
X64279814Y-89640186D01*
X64194312Y-89536000D01*
X64167222Y-89502991D01*
X64119716Y-89414114D01*
X64083557Y-89346467D01*
X64056399Y-89256938D01*
X64032037Y-89176627D01*
X64014641Y-89000000D01*
X64032037Y-88823373D01*
X64071566Y-88693062D01*
X64083557Y-88653533D01*
X64161195Y-88508284D01*
X64167222Y-88497009D01*
X64210632Y-88444114D01*
X64279814Y-88359814D01*
X64381271Y-88276552D01*
X64417009Y-88247222D01*
X64434913Y-88237652D01*
X64573533Y-88163557D01*
X64630147Y-88146384D01*
X64743373Y-88112037D01*
X64809557Y-88105519D01*
X64875740Y-88099000D01*
X64964260Y-88099000D01*
X65030443Y-88105519D01*
X65030443Y-88105519D01*
G37*
G36*
X62490443Y-88105519D02*
X62556627Y-88112037D01*
X62669853Y-88146384D01*
X62726467Y-88163557D01*
X62865087Y-88237652D01*
X62882991Y-88247222D01*
X62918729Y-88276552D01*
X63020186Y-88359814D01*
X63089368Y-88444114D01*
X63132778Y-88497009D01*
X63138805Y-88508284D01*
X63216443Y-88653533D01*
X63228434Y-88693062D01*
X63267963Y-88823373D01*
X63285359Y-89000000D01*
X63267963Y-89176627D01*
X63243601Y-89256938D01*
X63216443Y-89346467D01*
X63180284Y-89414114D01*
X63132778Y-89502991D01*
X63105688Y-89536000D01*
X63020186Y-89640186D01*
X62932138Y-89712444D01*
X62882991Y-89752778D01*
X62882989Y-89752779D01*
X62726467Y-89836443D01*
X62695337Y-89845886D01*
X62556627Y-89887963D01*
X62490442Y-89894482D01*
X62424260Y-89901000D01*
X62335740Y-89901000D01*
X62269558Y-89894482D01*
X62203373Y-89887963D01*
X62064663Y-89845886D01*
X62033533Y-89836443D01*
X61877011Y-89752779D01*
X61877009Y-89752778D01*
X61827862Y-89712444D01*
X61739814Y-89640186D01*
X61654312Y-89536000D01*
X61627222Y-89502991D01*
X61579716Y-89414114D01*
X61543557Y-89346467D01*
X61516399Y-89256938D01*
X61492037Y-89176627D01*
X61474641Y-89000000D01*
X61492037Y-88823373D01*
X61531566Y-88693062D01*
X61543557Y-88653533D01*
X61621195Y-88508284D01*
X61627222Y-88497009D01*
X61670632Y-88444114D01*
X61739814Y-88359814D01*
X61841271Y-88276552D01*
X61877009Y-88247222D01*
X61894913Y-88237652D01*
X62033533Y-88163557D01*
X62090147Y-88146384D01*
X62203373Y-88112037D01*
X62269557Y-88105519D01*
X62335740Y-88099000D01*
X62424260Y-88099000D01*
X62490443Y-88105519D01*
X62490443Y-88105519D01*
G37*
G36*
X103851000Y-89586000D02*
X100149000Y-89586000D01*
X100149000Y-88214000D01*
X103851000Y-88214000D01*
X103851000Y-89586000D01*
X103851000Y-89586000D01*
G37*
G36*
X74946000Y-89536000D02*
X74214000Y-89536000D01*
X74214000Y-88594000D01*
X74946000Y-88594000D01*
X74946000Y-89536000D01*
X74946000Y-89536000D01*
G37*
G36*
X72866000Y-89536000D02*
X72134000Y-89536000D01*
X72134000Y-88594000D01*
X72866000Y-88594000D01*
X72866000Y-89536000D01*
X72866000Y-89536000D01*
G37*
G36*
X71051938Y-88801716D02*
X71072556Y-88807970D01*
X71091556Y-88818126D01*
X71108208Y-88831792D01*
X71121874Y-88848444D01*
X71132030Y-88867444D01*
X71138284Y-88888062D01*
X71141000Y-88915640D01*
X71141000Y-89374360D01*
X71138284Y-89401938D01*
X71132030Y-89422556D01*
X71121874Y-89441556D01*
X71108208Y-89458208D01*
X71091556Y-89471874D01*
X71072556Y-89482030D01*
X71051938Y-89488284D01*
X71024360Y-89491000D01*
X70515640Y-89491000D01*
X70488062Y-89488284D01*
X70467444Y-89482030D01*
X70448444Y-89471874D01*
X70431792Y-89458208D01*
X70418126Y-89441556D01*
X70407970Y-89422556D01*
X70401716Y-89401938D01*
X70399000Y-89374360D01*
X70399000Y-88915640D01*
X70401716Y-88888062D01*
X70407970Y-88867444D01*
X70418126Y-88848444D01*
X70431792Y-88831792D01*
X70448444Y-88818126D01*
X70467444Y-88807970D01*
X70488062Y-88801716D01*
X70515640Y-88799000D01*
X71024360Y-88799000D01*
X71051938Y-88801716D01*
X71051938Y-88801716D01*
G37*
G36*
X76551938Y-88661716D02*
X76572556Y-88667970D01*
X76591556Y-88678126D01*
X76608208Y-88691792D01*
X76621874Y-88708444D01*
X76632030Y-88727444D01*
X76638284Y-88748062D01*
X76641000Y-88775640D01*
X76641000Y-89284360D01*
X76638284Y-89311938D01*
X76632030Y-89332556D01*
X76621874Y-89351556D01*
X76608208Y-89368208D01*
X76591556Y-89381874D01*
X76572556Y-89392030D01*
X76551938Y-89398284D01*
X76524360Y-89401000D01*
X76065640Y-89401000D01*
X76038062Y-89398284D01*
X76017444Y-89392030D01*
X75998444Y-89381874D01*
X75981792Y-89368208D01*
X75968126Y-89351556D01*
X75957970Y-89332556D01*
X75951716Y-89311938D01*
X75949000Y-89284360D01*
X75949000Y-88775640D01*
X75951716Y-88748062D01*
X75957970Y-88727444D01*
X75968126Y-88708444D01*
X75981792Y-88691792D01*
X75998444Y-88678126D01*
X76017444Y-88667970D01*
X76038062Y-88661716D01*
X76065640Y-88659000D01*
X76524360Y-88659000D01*
X76551938Y-88661716D01*
X76551938Y-88661716D01*
G37*
G36*
X77521938Y-88661716D02*
X77542556Y-88667970D01*
X77561556Y-88678126D01*
X77578208Y-88691792D01*
X77591874Y-88708444D01*
X77602030Y-88727444D01*
X77608284Y-88748062D01*
X77611000Y-88775640D01*
X77611000Y-89284360D01*
X77608284Y-89311938D01*
X77602030Y-89332556D01*
X77591874Y-89351556D01*
X77578208Y-89368208D01*
X77561556Y-89381874D01*
X77542556Y-89392030D01*
X77521938Y-89398284D01*
X77494360Y-89401000D01*
X77035640Y-89401000D01*
X77008062Y-89398284D01*
X76987444Y-89392030D01*
X76968444Y-89381874D01*
X76951792Y-89368208D01*
X76938126Y-89351556D01*
X76927970Y-89332556D01*
X76921716Y-89311938D01*
X76919000Y-89284360D01*
X76919000Y-88775640D01*
X76921716Y-88748062D01*
X76927970Y-88727444D01*
X76938126Y-88708444D01*
X76951792Y-88691792D01*
X76968444Y-88678126D01*
X76987444Y-88667970D01*
X77008062Y-88661716D01*
X77035640Y-88659000D01*
X77494360Y-88659000D01*
X77521938Y-88661716D01*
X77521938Y-88661716D01*
G37*
G36*
X90421938Y-88606716D02*
X90442556Y-88612970D01*
X90461556Y-88623126D01*
X90478208Y-88636792D01*
X90491874Y-88653444D01*
X90502030Y-88672444D01*
X90508284Y-88693062D01*
X90511000Y-88720640D01*
X90511000Y-89229360D01*
X90508284Y-89256938D01*
X90502030Y-89277556D01*
X90491874Y-89296556D01*
X90478208Y-89313208D01*
X90461556Y-89326874D01*
X90442556Y-89337030D01*
X90421938Y-89343284D01*
X90394360Y-89346000D01*
X89935640Y-89346000D01*
X89908062Y-89343284D01*
X89887444Y-89337030D01*
X89868444Y-89326874D01*
X89851792Y-89313208D01*
X89838126Y-89296556D01*
X89827970Y-89277556D01*
X89821716Y-89256938D01*
X89819000Y-89229360D01*
X89819000Y-88720640D01*
X89821716Y-88693062D01*
X89827970Y-88672444D01*
X89838126Y-88653444D01*
X89851792Y-88636792D01*
X89868444Y-88623126D01*
X89887444Y-88612970D01*
X89908062Y-88606716D01*
X89935640Y-88604000D01*
X90394360Y-88604000D01*
X90421938Y-88606716D01*
X90421938Y-88606716D01*
G37*
G36*
X91391938Y-88606716D02*
X91412556Y-88612970D01*
X91431556Y-88623126D01*
X91448208Y-88636792D01*
X91461874Y-88653444D01*
X91472030Y-88672444D01*
X91478284Y-88693062D01*
X91481000Y-88720640D01*
X91481000Y-89229360D01*
X91478284Y-89256938D01*
X91472030Y-89277556D01*
X91461874Y-89296556D01*
X91448208Y-89313208D01*
X91431556Y-89326874D01*
X91412556Y-89337030D01*
X91391938Y-89343284D01*
X91364360Y-89346000D01*
X90905640Y-89346000D01*
X90878062Y-89343284D01*
X90857444Y-89337030D01*
X90838444Y-89326874D01*
X90821792Y-89313208D01*
X90808126Y-89296556D01*
X90797970Y-89277556D01*
X90791716Y-89256938D01*
X90789000Y-89229360D01*
X90789000Y-88720640D01*
X90791716Y-88693062D01*
X90797970Y-88672444D01*
X90808126Y-88653444D01*
X90821792Y-88636792D01*
X90838444Y-88623126D01*
X90857444Y-88612970D01*
X90878062Y-88606716D01*
X90905640Y-88604000D01*
X91364360Y-88604000D01*
X91391938Y-88606716D01*
X91391938Y-88606716D01*
G37*
G36*
X79741938Y-87831716D02*
X79762556Y-87837970D01*
X79781556Y-87848126D01*
X79798208Y-87861792D01*
X79811874Y-87878444D01*
X79822030Y-87897444D01*
X79828284Y-87918062D01*
X79831000Y-87945640D01*
X79831000Y-88404360D01*
X79828284Y-88431938D01*
X79822030Y-88452556D01*
X79811874Y-88471556D01*
X79798208Y-88488208D01*
X79781556Y-88501874D01*
X79762556Y-88512030D01*
X79741938Y-88518284D01*
X79714360Y-88521000D01*
X79205640Y-88521000D01*
X79178062Y-88518284D01*
X79157444Y-88512030D01*
X79138444Y-88501874D01*
X79121792Y-88488208D01*
X79108126Y-88471556D01*
X79097970Y-88452556D01*
X79091716Y-88431938D01*
X79089000Y-88404360D01*
X79089000Y-87945640D01*
X79091716Y-87918062D01*
X79097970Y-87897444D01*
X79108126Y-87878444D01*
X79121792Y-87861792D01*
X79138444Y-87848126D01*
X79157444Y-87837970D01*
X79178062Y-87831716D01*
X79205640Y-87829000D01*
X79714360Y-87829000D01*
X79741938Y-87831716D01*
X79741938Y-87831716D01*
G37*
G36*
X80831938Y-87821716D02*
X80852556Y-87827970D01*
X80871556Y-87838126D01*
X80888208Y-87851792D01*
X80901874Y-87868444D01*
X80912030Y-87887444D01*
X80918284Y-87908062D01*
X80921000Y-87935640D01*
X80921000Y-88394360D01*
X80918284Y-88421938D01*
X80912030Y-88442556D01*
X80901874Y-88461556D01*
X80888208Y-88478208D01*
X80871556Y-88491874D01*
X80852556Y-88502030D01*
X80831938Y-88508284D01*
X80804360Y-88511000D01*
X80295640Y-88511000D01*
X80268062Y-88508284D01*
X80247444Y-88502030D01*
X80228444Y-88491874D01*
X80211792Y-88478208D01*
X80198126Y-88461556D01*
X80187970Y-88442556D01*
X80181716Y-88421938D01*
X80179000Y-88394360D01*
X80179000Y-87935640D01*
X80181716Y-87908062D01*
X80187970Y-87887444D01*
X80198126Y-87868444D01*
X80211792Y-87851792D01*
X80228444Y-87838126D01*
X80247444Y-87827970D01*
X80268062Y-87821716D01*
X80295640Y-87819000D01*
X80804360Y-87819000D01*
X80831938Y-87821716D01*
X80831938Y-87821716D01*
G37*
G36*
X90421938Y-87431716D02*
X90442556Y-87437970D01*
X90461556Y-87448126D01*
X90478208Y-87461792D01*
X90491874Y-87478444D01*
X90502030Y-87497444D01*
X90508284Y-87518062D01*
X90511000Y-87545640D01*
X90511000Y-88054360D01*
X90508284Y-88081938D01*
X90502030Y-88102556D01*
X90491874Y-88121556D01*
X90478208Y-88138208D01*
X90461556Y-88151874D01*
X90442556Y-88162030D01*
X90421938Y-88168284D01*
X90394360Y-88171000D01*
X89935640Y-88171000D01*
X89908062Y-88168284D01*
X89887444Y-88162030D01*
X89868444Y-88151874D01*
X89851792Y-88138208D01*
X89838126Y-88121556D01*
X89827970Y-88102556D01*
X89821716Y-88081938D01*
X89819000Y-88054360D01*
X89819000Y-87545640D01*
X89821716Y-87518062D01*
X89827970Y-87497444D01*
X89838126Y-87478444D01*
X89851792Y-87461792D01*
X89868444Y-87448126D01*
X89887444Y-87437970D01*
X89908062Y-87431716D01*
X89935640Y-87429000D01*
X90394360Y-87429000D01*
X90421938Y-87431716D01*
X90421938Y-87431716D01*
G37*
G36*
X91391938Y-87431716D02*
X91412556Y-87437970D01*
X91431556Y-87448126D01*
X91448208Y-87461792D01*
X91461874Y-87478444D01*
X91472030Y-87497444D01*
X91478284Y-87518062D01*
X91481000Y-87545640D01*
X91481000Y-88054360D01*
X91478284Y-88081938D01*
X91472030Y-88102556D01*
X91461874Y-88121556D01*
X91448208Y-88138208D01*
X91431556Y-88151874D01*
X91412556Y-88162030D01*
X91391938Y-88168284D01*
X91364360Y-88171000D01*
X90905640Y-88171000D01*
X90878062Y-88168284D01*
X90857444Y-88162030D01*
X90838444Y-88151874D01*
X90821792Y-88138208D01*
X90808126Y-88121556D01*
X90797970Y-88102556D01*
X90791716Y-88081938D01*
X90789000Y-88054360D01*
X90789000Y-87545640D01*
X90791716Y-87518062D01*
X90797970Y-87497444D01*
X90808126Y-87478444D01*
X90821792Y-87461792D01*
X90838444Y-87448126D01*
X90857444Y-87437970D01*
X90878062Y-87431716D01*
X90905640Y-87429000D01*
X91364360Y-87429000D01*
X91391938Y-87431716D01*
X91391938Y-87431716D01*
G37*
G36*
X79741938Y-86861716D02*
X79762556Y-86867970D01*
X79781556Y-86878126D01*
X79798208Y-86891792D01*
X79811874Y-86908444D01*
X79822030Y-86927444D01*
X79828284Y-86948062D01*
X79831000Y-86975640D01*
X79831000Y-87434360D01*
X79828284Y-87461938D01*
X79822030Y-87482556D01*
X79811874Y-87501556D01*
X79798208Y-87518208D01*
X79781556Y-87531874D01*
X79762556Y-87542030D01*
X79741938Y-87548284D01*
X79714360Y-87551000D01*
X79205640Y-87551000D01*
X79178062Y-87548284D01*
X79157444Y-87542030D01*
X79138444Y-87531874D01*
X79121792Y-87518208D01*
X79108126Y-87501556D01*
X79097970Y-87482556D01*
X79091716Y-87461938D01*
X79089000Y-87434360D01*
X79089000Y-86975640D01*
X79091716Y-86948062D01*
X79097970Y-86927444D01*
X79108126Y-86908444D01*
X79121792Y-86891792D01*
X79138444Y-86878126D01*
X79157444Y-86867970D01*
X79178062Y-86861716D01*
X79205640Y-86859000D01*
X79714360Y-86859000D01*
X79741938Y-86861716D01*
X79741938Y-86861716D01*
G37*
G36*
X80831938Y-86851716D02*
X80852556Y-86857970D01*
X80871556Y-86868126D01*
X80888208Y-86881792D01*
X80901874Y-86898444D01*
X80912030Y-86917444D01*
X80918284Y-86938062D01*
X80921000Y-86965640D01*
X80921000Y-87424360D01*
X80918284Y-87451938D01*
X80912030Y-87472556D01*
X80901874Y-87491556D01*
X80888208Y-87508208D01*
X80871556Y-87521874D01*
X80852556Y-87532030D01*
X80831938Y-87538284D01*
X80804360Y-87541000D01*
X80295640Y-87541000D01*
X80268062Y-87538284D01*
X80247444Y-87532030D01*
X80228444Y-87521874D01*
X80211792Y-87508208D01*
X80198126Y-87491556D01*
X80187970Y-87472556D01*
X80181716Y-87451938D01*
X80179000Y-87424360D01*
X80179000Y-86965640D01*
X80181716Y-86938062D01*
X80187970Y-86917444D01*
X80198126Y-86898444D01*
X80211792Y-86881792D01*
X80228444Y-86868126D01*
X80247444Y-86857970D01*
X80268062Y-86851716D01*
X80295640Y-86849000D01*
X80804360Y-86849000D01*
X80831938Y-86851716D01*
X80831938Y-86851716D01*
G37*
G36*
X94491938Y-86731716D02*
X94512556Y-86737970D01*
X94531556Y-86748126D01*
X94548208Y-86761792D01*
X94561874Y-86778444D01*
X94572030Y-86797444D01*
X94578284Y-86818062D01*
X94581000Y-86845640D01*
X94581000Y-87354360D01*
X94578284Y-87381938D01*
X94572030Y-87402556D01*
X94561874Y-87421556D01*
X94548208Y-87438208D01*
X94531556Y-87451874D01*
X94512556Y-87462030D01*
X94491938Y-87468284D01*
X94464360Y-87471000D01*
X94005640Y-87471000D01*
X93978062Y-87468284D01*
X93957444Y-87462030D01*
X93938444Y-87451874D01*
X93921792Y-87438208D01*
X93908126Y-87421556D01*
X93897970Y-87402556D01*
X93891716Y-87381938D01*
X93889000Y-87354360D01*
X93889000Y-86845640D01*
X93891716Y-86818062D01*
X93897970Y-86797444D01*
X93908126Y-86778444D01*
X93921792Y-86761792D01*
X93938444Y-86748126D01*
X93957444Y-86737970D01*
X93978062Y-86731716D01*
X94005640Y-86729000D01*
X94464360Y-86729000D01*
X94491938Y-86731716D01*
X94491938Y-86731716D01*
G37*
G36*
X93521938Y-86731716D02*
X93542556Y-86737970D01*
X93561556Y-86748126D01*
X93578208Y-86761792D01*
X93591874Y-86778444D01*
X93602030Y-86797444D01*
X93608284Y-86818062D01*
X93611000Y-86845640D01*
X93611000Y-87354360D01*
X93608284Y-87381938D01*
X93602030Y-87402556D01*
X93591874Y-87421556D01*
X93578208Y-87438208D01*
X93561556Y-87451874D01*
X93542556Y-87462030D01*
X93521938Y-87468284D01*
X93494360Y-87471000D01*
X93035640Y-87471000D01*
X93008062Y-87468284D01*
X92987444Y-87462030D01*
X92968444Y-87451874D01*
X92951792Y-87438208D01*
X92938126Y-87421556D01*
X92927970Y-87402556D01*
X92921716Y-87381938D01*
X92919000Y-87354360D01*
X92919000Y-86845640D01*
X92921716Y-86818062D01*
X92927970Y-86797444D01*
X92938126Y-86778444D01*
X92951792Y-86761792D01*
X92968444Y-86748126D01*
X92987444Y-86737970D01*
X93008062Y-86731716D01*
X93035640Y-86729000D01*
X93494360Y-86729000D01*
X93521938Y-86731716D01*
X93521938Y-86731716D01*
G37*
G36*
X62490442Y-85565518D02*
X62556627Y-85572037D01*
X62667401Y-85605640D01*
X62726467Y-85623557D01*
X62865087Y-85697652D01*
X62882991Y-85707222D01*
X62918729Y-85736552D01*
X63020186Y-85819814D01*
X63079323Y-85891874D01*
X63132778Y-85957009D01*
X63132779Y-85957011D01*
X63216443Y-86113533D01*
X63216443Y-86113534D01*
X63267963Y-86283373D01*
X63285359Y-86460000D01*
X63267963Y-86636627D01*
X63252834Y-86686500D01*
X63216443Y-86806467D01*
X63152611Y-86925886D01*
X63132778Y-86962991D01*
X63112049Y-86988249D01*
X63020186Y-87100186D01*
X62918729Y-87183448D01*
X62882991Y-87212778D01*
X62882989Y-87212779D01*
X62726467Y-87296443D01*
X62676830Y-87311500D01*
X62556627Y-87347963D01*
X62491676Y-87354360D01*
X62424260Y-87361000D01*
X62335740Y-87361000D01*
X62268324Y-87354360D01*
X62203373Y-87347963D01*
X62083170Y-87311500D01*
X62033533Y-87296443D01*
X61877011Y-87212779D01*
X61877009Y-87212778D01*
X61841271Y-87183448D01*
X61739814Y-87100186D01*
X61647951Y-86988249D01*
X61627222Y-86962991D01*
X61607389Y-86925886D01*
X61543557Y-86806467D01*
X61507166Y-86686500D01*
X61492037Y-86636627D01*
X61474641Y-86460000D01*
X61492037Y-86283373D01*
X61543557Y-86113534D01*
X61543557Y-86113533D01*
X61627221Y-85957011D01*
X61627222Y-85957009D01*
X61680677Y-85891874D01*
X61739814Y-85819814D01*
X61841271Y-85736552D01*
X61877009Y-85707222D01*
X61894913Y-85697652D01*
X62033533Y-85623557D01*
X62092599Y-85605640D01*
X62203373Y-85572037D01*
X62269558Y-85565518D01*
X62335740Y-85559000D01*
X62424260Y-85559000D01*
X62490442Y-85565518D01*
X62490442Y-85565518D01*
G37*
G36*
X65030442Y-85565518D02*
X65096627Y-85572037D01*
X65207401Y-85605640D01*
X65266467Y-85623557D01*
X65405087Y-85697652D01*
X65422991Y-85707222D01*
X65458729Y-85736552D01*
X65560186Y-85819814D01*
X65619323Y-85891874D01*
X65672778Y-85957009D01*
X65672779Y-85957011D01*
X65756443Y-86113533D01*
X65756443Y-86113534D01*
X65807963Y-86283373D01*
X65825359Y-86460000D01*
X65807963Y-86636627D01*
X65792834Y-86686500D01*
X65756443Y-86806467D01*
X65692611Y-86925886D01*
X65672778Y-86962991D01*
X65652049Y-86988249D01*
X65560186Y-87100186D01*
X65458729Y-87183448D01*
X65422991Y-87212778D01*
X65422989Y-87212779D01*
X65266467Y-87296443D01*
X65216830Y-87311500D01*
X65096627Y-87347963D01*
X65031676Y-87354360D01*
X64964260Y-87361000D01*
X64875740Y-87361000D01*
X64808324Y-87354360D01*
X64743373Y-87347963D01*
X64623170Y-87311500D01*
X64573533Y-87296443D01*
X64417011Y-87212779D01*
X64417009Y-87212778D01*
X64381271Y-87183448D01*
X64279814Y-87100186D01*
X64187951Y-86988249D01*
X64167222Y-86962991D01*
X64147389Y-86925886D01*
X64083557Y-86806467D01*
X64047166Y-86686500D01*
X64032037Y-86636627D01*
X64014641Y-86460000D01*
X64032037Y-86283373D01*
X64083557Y-86113534D01*
X64083557Y-86113533D01*
X64167221Y-85957011D01*
X64167222Y-85957009D01*
X64220677Y-85891874D01*
X64279814Y-85819814D01*
X64381271Y-85736552D01*
X64417009Y-85707222D01*
X64434913Y-85697652D01*
X64573533Y-85623557D01*
X64632599Y-85605640D01*
X64743373Y-85572037D01*
X64809558Y-85565518D01*
X64875740Y-85559000D01*
X64964260Y-85559000D01*
X65030442Y-85565518D01*
X65030442Y-85565518D01*
G37*
G36*
X90421938Y-86271716D02*
X90442556Y-86277970D01*
X90461556Y-86288126D01*
X90478208Y-86301792D01*
X90491874Y-86318444D01*
X90502030Y-86337444D01*
X90508284Y-86358062D01*
X90511000Y-86385640D01*
X90511000Y-86894360D01*
X90508284Y-86921938D01*
X90502030Y-86942556D01*
X90491874Y-86961556D01*
X90478208Y-86978208D01*
X90461556Y-86991874D01*
X90442556Y-87002030D01*
X90421938Y-87008284D01*
X90394360Y-87011000D01*
X89935640Y-87011000D01*
X89908062Y-87008284D01*
X89887444Y-87002030D01*
X89868444Y-86991874D01*
X89851792Y-86978208D01*
X89838126Y-86961556D01*
X89827970Y-86942556D01*
X89821716Y-86921938D01*
X89819000Y-86894360D01*
X89819000Y-86385640D01*
X89821716Y-86358062D01*
X89827970Y-86337444D01*
X89838126Y-86318444D01*
X89851792Y-86301792D01*
X89868444Y-86288126D01*
X89887444Y-86277970D01*
X89908062Y-86271716D01*
X89935640Y-86269000D01*
X90394360Y-86269000D01*
X90421938Y-86271716D01*
X90421938Y-86271716D01*
G37*
G36*
X91391938Y-86271716D02*
X91412556Y-86277970D01*
X91431556Y-86288126D01*
X91448208Y-86301792D01*
X91461874Y-86318444D01*
X91472030Y-86337444D01*
X91478284Y-86358062D01*
X91481000Y-86385640D01*
X91481000Y-86894360D01*
X91478284Y-86921938D01*
X91472030Y-86942556D01*
X91461874Y-86961556D01*
X91448208Y-86978208D01*
X91431556Y-86991874D01*
X91412556Y-87002030D01*
X91391938Y-87008284D01*
X91364360Y-87011000D01*
X90905640Y-87011000D01*
X90878062Y-87008284D01*
X90857444Y-87002030D01*
X90838444Y-86991874D01*
X90821792Y-86978208D01*
X90808126Y-86961556D01*
X90797970Y-86942556D01*
X90791716Y-86921938D01*
X90789000Y-86894360D01*
X90789000Y-86385640D01*
X90791716Y-86358062D01*
X90797970Y-86337444D01*
X90808126Y-86318444D01*
X90821792Y-86301792D01*
X90838444Y-86288126D01*
X90857444Y-86277970D01*
X90878062Y-86271716D01*
X90905640Y-86269000D01*
X91364360Y-86269000D01*
X91391938Y-86271716D01*
X91391938Y-86271716D01*
G37*
G36*
X103951000Y-86801000D02*
X99649000Y-86801000D01*
X99649000Y-85349000D01*
X103951000Y-85349000D01*
X103951000Y-86801000D01*
X103951000Y-86801000D01*
G37*
G36*
X71966938Y-85491716D02*
X71987556Y-85497970D01*
X72006556Y-85508126D01*
X72023208Y-85521792D01*
X72036874Y-85538444D01*
X72047030Y-85557444D01*
X72053284Y-85578062D01*
X72056000Y-85605640D01*
X72056000Y-86114360D01*
X72053284Y-86141938D01*
X72047030Y-86162556D01*
X72036874Y-86181556D01*
X72023208Y-86198208D01*
X72006556Y-86211874D01*
X71987556Y-86222030D01*
X71966938Y-86228284D01*
X71939360Y-86231000D01*
X71480640Y-86231000D01*
X71453062Y-86228284D01*
X71432444Y-86222030D01*
X71413444Y-86211874D01*
X71396792Y-86198208D01*
X71383126Y-86181556D01*
X71372970Y-86162556D01*
X71366716Y-86141938D01*
X71364000Y-86114360D01*
X71364000Y-85605640D01*
X71366716Y-85578062D01*
X71372970Y-85557444D01*
X71383126Y-85538444D01*
X71396792Y-85521792D01*
X71413444Y-85508126D01*
X71432444Y-85497970D01*
X71453062Y-85491716D01*
X71480640Y-85489000D01*
X71939360Y-85489000D01*
X71966938Y-85491716D01*
X71966938Y-85491716D01*
G37*
G36*
X70996938Y-85491716D02*
X71017556Y-85497970D01*
X71036556Y-85508126D01*
X71053208Y-85521792D01*
X71066874Y-85538444D01*
X71077030Y-85557444D01*
X71083284Y-85578062D01*
X71086000Y-85605640D01*
X71086000Y-86114360D01*
X71083284Y-86141938D01*
X71077030Y-86162556D01*
X71066874Y-86181556D01*
X71053208Y-86198208D01*
X71036556Y-86211874D01*
X71017556Y-86222030D01*
X70996938Y-86228284D01*
X70969360Y-86231000D01*
X70510640Y-86231000D01*
X70483062Y-86228284D01*
X70462444Y-86222030D01*
X70443444Y-86211874D01*
X70426792Y-86198208D01*
X70413126Y-86181556D01*
X70402970Y-86162556D01*
X70396716Y-86141938D01*
X70394000Y-86114360D01*
X70394000Y-85605640D01*
X70396716Y-85578062D01*
X70402970Y-85557444D01*
X70413126Y-85538444D01*
X70426792Y-85521792D01*
X70443444Y-85508126D01*
X70462444Y-85497970D01*
X70483062Y-85491716D01*
X70510640Y-85489000D01*
X70969360Y-85489000D01*
X70996938Y-85491716D01*
X70996938Y-85491716D01*
G37*
G36*
X91381938Y-85171716D02*
X91402556Y-85177970D01*
X91421556Y-85188126D01*
X91438208Y-85201792D01*
X91451874Y-85218444D01*
X91462030Y-85237444D01*
X91468284Y-85258062D01*
X91471000Y-85285640D01*
X91471000Y-85794360D01*
X91468284Y-85821938D01*
X91462030Y-85842556D01*
X91451874Y-85861556D01*
X91438208Y-85878208D01*
X91421556Y-85891874D01*
X91402556Y-85902030D01*
X91381938Y-85908284D01*
X91354360Y-85911000D01*
X90895640Y-85911000D01*
X90868062Y-85908284D01*
X90847444Y-85902030D01*
X90828444Y-85891874D01*
X90811792Y-85878208D01*
X90798126Y-85861556D01*
X90787970Y-85842556D01*
X90781716Y-85821938D01*
X90779000Y-85794360D01*
X90779000Y-85285640D01*
X90781716Y-85258062D01*
X90787970Y-85237444D01*
X90798126Y-85218444D01*
X90811792Y-85201792D01*
X90828444Y-85188126D01*
X90847444Y-85177970D01*
X90868062Y-85171716D01*
X90895640Y-85169000D01*
X91354360Y-85169000D01*
X91381938Y-85171716D01*
X91381938Y-85171716D01*
G37*
G36*
X90411938Y-85171716D02*
X90432556Y-85177970D01*
X90451556Y-85188126D01*
X90468208Y-85201792D01*
X90481874Y-85218444D01*
X90492030Y-85237444D01*
X90498284Y-85258062D01*
X90501000Y-85285640D01*
X90501000Y-85794360D01*
X90498284Y-85821938D01*
X90492030Y-85842556D01*
X90481874Y-85861556D01*
X90468208Y-85878208D01*
X90451556Y-85891874D01*
X90432556Y-85902030D01*
X90411938Y-85908284D01*
X90384360Y-85911000D01*
X89925640Y-85911000D01*
X89898062Y-85908284D01*
X89877444Y-85902030D01*
X89858444Y-85891874D01*
X89841792Y-85878208D01*
X89828126Y-85861556D01*
X89817970Y-85842556D01*
X89811716Y-85821938D01*
X89809000Y-85794360D01*
X89809000Y-85285640D01*
X89811716Y-85258062D01*
X89817970Y-85237444D01*
X89828126Y-85218444D01*
X89841792Y-85201792D01*
X89858444Y-85188126D01*
X89877444Y-85177970D01*
X89898062Y-85171716D01*
X89925640Y-85169000D01*
X90384360Y-85169000D01*
X90411938Y-85171716D01*
X90411938Y-85171716D01*
G37*
G36*
X84761938Y-84701716D02*
X84782556Y-84707970D01*
X84801556Y-84718126D01*
X84818208Y-84731792D01*
X84831874Y-84748444D01*
X84842030Y-84767444D01*
X84848284Y-84788062D01*
X84851000Y-84815640D01*
X84851000Y-85274360D01*
X84848284Y-85301938D01*
X84842030Y-85322556D01*
X84831874Y-85341556D01*
X84818208Y-85358208D01*
X84801556Y-85371874D01*
X84782556Y-85382030D01*
X84761938Y-85388284D01*
X84734360Y-85391000D01*
X84225640Y-85391000D01*
X84198062Y-85388284D01*
X84177444Y-85382030D01*
X84158444Y-85371874D01*
X84141792Y-85358208D01*
X84128126Y-85341556D01*
X84117970Y-85322556D01*
X84111716Y-85301938D01*
X84109000Y-85274360D01*
X84109000Y-84815640D01*
X84111716Y-84788062D01*
X84117970Y-84767444D01*
X84128126Y-84748444D01*
X84141792Y-84731792D01*
X84158444Y-84718126D01*
X84177444Y-84707970D01*
X84198062Y-84701716D01*
X84225640Y-84699000D01*
X84734360Y-84699000D01*
X84761938Y-84701716D01*
X84761938Y-84701716D01*
G37*
G36*
X82541938Y-84471716D02*
X82562556Y-84477970D01*
X82581556Y-84488126D01*
X82598208Y-84501792D01*
X82611874Y-84518444D01*
X82622030Y-84537444D01*
X82628284Y-84558062D01*
X82631000Y-84585640D01*
X82631000Y-85044360D01*
X82628284Y-85071938D01*
X82622030Y-85092556D01*
X82611874Y-85111556D01*
X82598208Y-85128208D01*
X82581556Y-85141874D01*
X82562556Y-85152030D01*
X82541938Y-85158284D01*
X82514360Y-85161000D01*
X82005640Y-85161000D01*
X81978062Y-85158284D01*
X81957444Y-85152030D01*
X81938444Y-85141874D01*
X81921792Y-85128208D01*
X81908126Y-85111556D01*
X81897970Y-85092556D01*
X81891716Y-85071938D01*
X81889000Y-85044360D01*
X81889000Y-84585640D01*
X81891716Y-84558062D01*
X81897970Y-84537444D01*
X81908126Y-84518444D01*
X81921792Y-84501792D01*
X81938444Y-84488126D01*
X81957444Y-84477970D01*
X81978062Y-84471716D01*
X82005640Y-84469000D01*
X82514360Y-84469000D01*
X82541938Y-84471716D01*
X82541938Y-84471716D01*
G37*
G36*
X83621938Y-84471716D02*
X83642556Y-84477970D01*
X83661556Y-84488126D01*
X83678208Y-84501792D01*
X83691874Y-84518444D01*
X83702030Y-84537444D01*
X83708284Y-84558062D01*
X83711000Y-84585640D01*
X83711000Y-85044360D01*
X83708284Y-85071938D01*
X83702030Y-85092556D01*
X83691874Y-85111556D01*
X83678208Y-85128208D01*
X83661556Y-85141874D01*
X83642556Y-85152030D01*
X83621938Y-85158284D01*
X83594360Y-85161000D01*
X83085640Y-85161000D01*
X83058062Y-85158284D01*
X83037444Y-85152030D01*
X83018444Y-85141874D01*
X83001792Y-85128208D01*
X82988126Y-85111556D01*
X82977970Y-85092556D01*
X82971716Y-85071938D01*
X82969000Y-85044360D01*
X82969000Y-84585640D01*
X82971716Y-84558062D01*
X82977970Y-84537444D01*
X82988126Y-84518444D01*
X83001792Y-84501792D01*
X83018444Y-84488126D01*
X83037444Y-84477970D01*
X83058062Y-84471716D01*
X83085640Y-84469000D01*
X83594360Y-84469000D01*
X83621938Y-84471716D01*
X83621938Y-84471716D01*
G37*
G36*
X93296000Y-84821000D02*
X92344000Y-84821000D01*
X92344000Y-83719000D01*
X93296000Y-83719000D01*
X93296000Y-84821000D01*
X93296000Y-84821000D01*
G37*
G36*
X91696000Y-84821000D02*
X90744000Y-84821000D01*
X90744000Y-83719000D01*
X91696000Y-83719000D01*
X91696000Y-84821000D01*
X91696000Y-84821000D01*
G37*
G36*
X63281000Y-84821000D02*
X61479000Y-84821000D01*
X61479000Y-83019000D01*
X63281000Y-83019000D01*
X63281000Y-84821000D01*
X63281000Y-84821000D01*
G37*
G36*
X65030442Y-83025518D02*
X65096627Y-83032037D01*
X65209853Y-83066384D01*
X65266467Y-83083557D01*
X65405087Y-83157652D01*
X65422991Y-83167222D01*
X65458729Y-83196552D01*
X65560186Y-83279814D01*
X65643448Y-83381271D01*
X65672778Y-83417009D01*
X65672779Y-83417011D01*
X65756443Y-83573533D01*
X65763951Y-83598284D01*
X65807963Y-83743373D01*
X65825359Y-83920000D01*
X65807963Y-84096627D01*
X65773616Y-84209853D01*
X65756443Y-84266467D01*
X65721447Y-84331938D01*
X65672778Y-84422991D01*
X65655241Y-84444360D01*
X65560186Y-84560186D01*
X65460494Y-84642000D01*
X65422991Y-84672778D01*
X65422989Y-84672779D01*
X65266467Y-84756443D01*
X65209853Y-84773616D01*
X65096627Y-84807963D01*
X65030442Y-84814482D01*
X64964260Y-84821000D01*
X64875740Y-84821000D01*
X64809558Y-84814482D01*
X64743373Y-84807963D01*
X64630147Y-84773616D01*
X64573533Y-84756443D01*
X64417011Y-84672779D01*
X64417009Y-84672778D01*
X64379506Y-84642000D01*
X64279814Y-84560186D01*
X64184759Y-84444360D01*
X64167222Y-84422991D01*
X64118553Y-84331938D01*
X64083557Y-84266467D01*
X64066384Y-84209853D01*
X64032037Y-84096627D01*
X64014641Y-83920000D01*
X64032037Y-83743373D01*
X64076049Y-83598284D01*
X64083557Y-83573533D01*
X64167221Y-83417011D01*
X64167222Y-83417009D01*
X64196552Y-83381271D01*
X64279814Y-83279814D01*
X64381271Y-83196552D01*
X64417009Y-83167222D01*
X64434913Y-83157652D01*
X64573533Y-83083557D01*
X64630147Y-83066384D01*
X64743373Y-83032037D01*
X64809558Y-83025518D01*
X64875740Y-83019000D01*
X64964260Y-83019000D01*
X65030442Y-83025518D01*
X65030442Y-83025518D01*
G37*
G36*
X73016000Y-84701000D02*
X72264000Y-84701000D01*
X72264000Y-82899000D01*
X73016000Y-82899000D01*
X73016000Y-84701000D01*
X73016000Y-84701000D01*
G37*
G36*
X71116000Y-84701000D02*
X70364000Y-84701000D01*
X70364000Y-84199000D01*
X71116000Y-84199000D01*
X71116000Y-84701000D01*
X71116000Y-84701000D01*
G37*
G36*
X90311938Y-83881716D02*
X90332556Y-83887970D01*
X90351556Y-83898126D01*
X90368208Y-83911792D01*
X90381874Y-83928444D01*
X90392030Y-83947444D01*
X90398284Y-83968062D01*
X90401000Y-83995640D01*
X90401000Y-84454360D01*
X90398284Y-84481938D01*
X90392030Y-84502556D01*
X90381874Y-84521556D01*
X90368208Y-84538208D01*
X90351556Y-84551874D01*
X90332556Y-84562030D01*
X90311938Y-84568284D01*
X90284360Y-84571000D01*
X89775640Y-84571000D01*
X89748062Y-84568284D01*
X89727444Y-84562030D01*
X89708444Y-84551874D01*
X89691792Y-84538208D01*
X89678126Y-84521556D01*
X89667970Y-84502556D01*
X89661716Y-84481938D01*
X89659000Y-84454360D01*
X89659000Y-83995640D01*
X89661716Y-83968062D01*
X89667970Y-83947444D01*
X89678126Y-83928444D01*
X89691792Y-83911792D01*
X89708444Y-83898126D01*
X89727444Y-83887970D01*
X89748062Y-83881716D01*
X89775640Y-83879000D01*
X90284360Y-83879000D01*
X90311938Y-83881716D01*
X90311938Y-83881716D01*
G37*
G36*
X86861938Y-83871716D02*
X86882556Y-83877970D01*
X86901556Y-83888126D01*
X86918208Y-83901792D01*
X86931874Y-83918444D01*
X86942030Y-83937444D01*
X86948284Y-83958062D01*
X86951000Y-83985640D01*
X86951000Y-84444360D01*
X86948284Y-84471938D01*
X86942030Y-84492556D01*
X86931874Y-84511556D01*
X86918208Y-84528208D01*
X86901556Y-84541874D01*
X86882556Y-84552030D01*
X86861938Y-84558284D01*
X86834360Y-84561000D01*
X86325640Y-84561000D01*
X86298062Y-84558284D01*
X86277444Y-84552030D01*
X86258444Y-84541874D01*
X86241792Y-84528208D01*
X86228126Y-84511556D01*
X86217970Y-84492556D01*
X86211716Y-84471938D01*
X86209000Y-84444360D01*
X86209000Y-83985640D01*
X86211716Y-83958062D01*
X86217970Y-83937444D01*
X86228126Y-83918444D01*
X86241792Y-83901792D01*
X86258444Y-83888126D01*
X86277444Y-83877970D01*
X86298062Y-83871716D01*
X86325640Y-83869000D01*
X86834360Y-83869000D01*
X86861938Y-83871716D01*
X86861938Y-83871716D01*
G37*
G36*
X89221938Y-83871716D02*
X89242556Y-83877970D01*
X89261556Y-83888126D01*
X89278208Y-83901792D01*
X89291874Y-83918444D01*
X89302030Y-83937444D01*
X89308284Y-83958062D01*
X89311000Y-83985640D01*
X89311000Y-84444360D01*
X89308284Y-84471938D01*
X89302030Y-84492556D01*
X89291874Y-84511556D01*
X89278208Y-84528208D01*
X89261556Y-84541874D01*
X89242556Y-84552030D01*
X89221938Y-84558284D01*
X89194360Y-84561000D01*
X88685640Y-84561000D01*
X88658062Y-84558284D01*
X88637444Y-84552030D01*
X88618444Y-84541874D01*
X88601792Y-84528208D01*
X88588126Y-84511556D01*
X88577970Y-84492556D01*
X88571716Y-84471938D01*
X88569000Y-84444360D01*
X88569000Y-83985640D01*
X88571716Y-83958062D01*
X88577970Y-83937444D01*
X88588126Y-83918444D01*
X88601792Y-83901792D01*
X88618444Y-83888126D01*
X88637444Y-83877970D01*
X88658062Y-83871716D01*
X88685640Y-83869000D01*
X89194360Y-83869000D01*
X89221938Y-83871716D01*
X89221938Y-83871716D01*
G37*
G36*
X87941938Y-83871716D02*
X87962556Y-83877970D01*
X87981556Y-83888126D01*
X87998208Y-83901792D01*
X88011874Y-83918444D01*
X88022030Y-83937444D01*
X88028284Y-83958062D01*
X88031000Y-83985640D01*
X88031000Y-84444360D01*
X88028284Y-84471938D01*
X88022030Y-84492556D01*
X88011874Y-84511556D01*
X87998208Y-84528208D01*
X87981556Y-84541874D01*
X87962556Y-84552030D01*
X87941938Y-84558284D01*
X87914360Y-84561000D01*
X87405640Y-84561000D01*
X87378062Y-84558284D01*
X87357444Y-84552030D01*
X87338444Y-84541874D01*
X87321792Y-84528208D01*
X87308126Y-84511556D01*
X87297970Y-84492556D01*
X87291716Y-84471938D01*
X87289000Y-84444360D01*
X87289000Y-83985640D01*
X87291716Y-83958062D01*
X87297970Y-83937444D01*
X87308126Y-83918444D01*
X87321792Y-83901792D01*
X87338444Y-83888126D01*
X87357444Y-83877970D01*
X87378062Y-83871716D01*
X87405640Y-83869000D01*
X87914360Y-83869000D01*
X87941938Y-83871716D01*
X87941938Y-83871716D01*
G37*
G36*
X84761938Y-83731716D02*
X84782556Y-83737970D01*
X84801556Y-83748126D01*
X84818208Y-83761792D01*
X84831874Y-83778444D01*
X84842030Y-83797444D01*
X84848284Y-83818062D01*
X84851000Y-83845640D01*
X84851000Y-84304360D01*
X84848284Y-84331938D01*
X84842030Y-84352556D01*
X84831874Y-84371556D01*
X84818208Y-84388208D01*
X84801556Y-84401874D01*
X84782556Y-84412030D01*
X84761938Y-84418284D01*
X84734360Y-84421000D01*
X84225640Y-84421000D01*
X84198062Y-84418284D01*
X84177444Y-84412030D01*
X84158444Y-84401874D01*
X84141792Y-84388208D01*
X84128126Y-84371556D01*
X84117970Y-84352556D01*
X84111716Y-84331938D01*
X84109000Y-84304360D01*
X84109000Y-83845640D01*
X84111716Y-83818062D01*
X84117970Y-83797444D01*
X84128126Y-83778444D01*
X84141792Y-83761792D01*
X84158444Y-83748126D01*
X84177444Y-83737970D01*
X84198062Y-83731716D01*
X84225640Y-83729000D01*
X84734360Y-83729000D01*
X84761938Y-83731716D01*
X84761938Y-83731716D01*
G37*
G36*
X82541938Y-83501716D02*
X82562556Y-83507970D01*
X82581556Y-83518126D01*
X82598208Y-83531792D01*
X82611874Y-83548444D01*
X82622030Y-83567444D01*
X82628284Y-83588062D01*
X82631000Y-83615640D01*
X82631000Y-84074360D01*
X82628284Y-84101938D01*
X82622030Y-84122556D01*
X82611874Y-84141556D01*
X82598208Y-84158208D01*
X82581556Y-84171874D01*
X82562556Y-84182030D01*
X82541938Y-84188284D01*
X82514360Y-84191000D01*
X82005640Y-84191000D01*
X81978062Y-84188284D01*
X81957444Y-84182030D01*
X81938444Y-84171874D01*
X81921792Y-84158208D01*
X81908126Y-84141556D01*
X81897970Y-84122556D01*
X81891716Y-84101938D01*
X81889000Y-84074360D01*
X81889000Y-83615640D01*
X81891716Y-83588062D01*
X81897970Y-83567444D01*
X81908126Y-83548444D01*
X81921792Y-83531792D01*
X81938444Y-83518126D01*
X81957444Y-83507970D01*
X81978062Y-83501716D01*
X82005640Y-83499000D01*
X82514360Y-83499000D01*
X82541938Y-83501716D01*
X82541938Y-83501716D01*
G37*
G36*
X83621938Y-83501716D02*
X83642556Y-83507970D01*
X83661556Y-83518126D01*
X83678208Y-83531792D01*
X83691874Y-83548444D01*
X83702030Y-83567444D01*
X83708284Y-83588062D01*
X83711000Y-83615640D01*
X83711000Y-84074360D01*
X83708284Y-84101938D01*
X83702030Y-84122556D01*
X83691874Y-84141556D01*
X83678208Y-84158208D01*
X83661556Y-84171874D01*
X83642556Y-84182030D01*
X83621938Y-84188284D01*
X83594360Y-84191000D01*
X83085640Y-84191000D01*
X83058062Y-84188284D01*
X83037444Y-84182030D01*
X83018444Y-84171874D01*
X83001792Y-84158208D01*
X82988126Y-84141556D01*
X82977970Y-84122556D01*
X82971716Y-84101938D01*
X82969000Y-84074360D01*
X82969000Y-83615640D01*
X82971716Y-83588062D01*
X82977970Y-83567444D01*
X82988126Y-83548444D01*
X83001792Y-83531792D01*
X83018444Y-83518126D01*
X83037444Y-83507970D01*
X83058062Y-83501716D01*
X83085640Y-83499000D01*
X83594360Y-83499000D01*
X83621938Y-83501716D01*
X83621938Y-83501716D01*
G37*
G36*
X74261938Y-83251716D02*
X74282556Y-83257970D01*
X74301556Y-83268126D01*
X74318208Y-83281792D01*
X74331874Y-83298444D01*
X74342030Y-83317444D01*
X74348284Y-83338062D01*
X74351000Y-83365640D01*
X74351000Y-83824360D01*
X74348284Y-83851938D01*
X74342030Y-83872556D01*
X74331874Y-83891556D01*
X74318208Y-83908208D01*
X74301556Y-83921874D01*
X74282556Y-83932030D01*
X74261938Y-83938284D01*
X74234360Y-83941000D01*
X73725640Y-83941000D01*
X73698062Y-83938284D01*
X73677444Y-83932030D01*
X73658444Y-83921874D01*
X73641792Y-83908208D01*
X73628126Y-83891556D01*
X73617970Y-83872556D01*
X73611716Y-83851938D01*
X73609000Y-83824360D01*
X73609000Y-83365640D01*
X73611716Y-83338062D01*
X73617970Y-83317444D01*
X73628126Y-83298444D01*
X73641792Y-83281792D01*
X73658444Y-83268126D01*
X73677444Y-83257970D01*
X73698062Y-83251716D01*
X73725640Y-83249000D01*
X74234360Y-83249000D01*
X74261938Y-83251716D01*
X74261938Y-83251716D01*
G37*
G36*
X90311938Y-82911716D02*
X90332556Y-82917970D01*
X90351556Y-82928126D01*
X90368208Y-82941792D01*
X90381874Y-82958444D01*
X90392030Y-82977444D01*
X90398284Y-82998062D01*
X90401000Y-83025640D01*
X90401000Y-83484360D01*
X90398284Y-83511938D01*
X90392030Y-83532556D01*
X90381874Y-83551556D01*
X90368208Y-83568208D01*
X90351556Y-83581874D01*
X90332556Y-83592030D01*
X90311938Y-83598284D01*
X90284360Y-83601000D01*
X89775640Y-83601000D01*
X89748062Y-83598284D01*
X89727444Y-83592030D01*
X89708444Y-83581874D01*
X89691792Y-83568208D01*
X89678126Y-83551556D01*
X89667970Y-83532556D01*
X89661716Y-83511938D01*
X89659000Y-83484360D01*
X89659000Y-83025640D01*
X89661716Y-82998062D01*
X89667970Y-82977444D01*
X89678126Y-82958444D01*
X89691792Y-82941792D01*
X89708444Y-82928126D01*
X89727444Y-82917970D01*
X89748062Y-82911716D01*
X89775640Y-82909000D01*
X90284360Y-82909000D01*
X90311938Y-82911716D01*
X90311938Y-82911716D01*
G37*
G36*
X89221938Y-82901716D02*
X89242556Y-82907970D01*
X89261556Y-82918126D01*
X89278208Y-82931792D01*
X89291874Y-82948444D01*
X89302030Y-82967444D01*
X89308284Y-82988062D01*
X89311000Y-83015640D01*
X89311000Y-83474360D01*
X89308284Y-83501938D01*
X89302030Y-83522556D01*
X89291874Y-83541556D01*
X89278208Y-83558208D01*
X89261556Y-83571874D01*
X89242556Y-83582030D01*
X89221938Y-83588284D01*
X89194360Y-83591000D01*
X88685640Y-83591000D01*
X88658062Y-83588284D01*
X88637444Y-83582030D01*
X88618444Y-83571874D01*
X88601792Y-83558208D01*
X88588126Y-83541556D01*
X88577970Y-83522556D01*
X88571716Y-83501938D01*
X88569000Y-83474360D01*
X88569000Y-83015640D01*
X88571716Y-82988062D01*
X88577970Y-82967444D01*
X88588126Y-82948444D01*
X88601792Y-82931792D01*
X88618444Y-82918126D01*
X88637444Y-82907970D01*
X88658062Y-82901716D01*
X88685640Y-82899000D01*
X89194360Y-82899000D01*
X89221938Y-82901716D01*
X89221938Y-82901716D01*
G37*
G36*
X86861938Y-82901716D02*
X86882556Y-82907970D01*
X86901556Y-82918126D01*
X86918208Y-82931792D01*
X86931874Y-82948444D01*
X86942030Y-82967444D01*
X86948284Y-82988062D01*
X86951000Y-83015640D01*
X86951000Y-83474360D01*
X86948284Y-83501938D01*
X86942030Y-83522556D01*
X86931874Y-83541556D01*
X86918208Y-83558208D01*
X86901556Y-83571874D01*
X86882556Y-83582030D01*
X86861938Y-83588284D01*
X86834360Y-83591000D01*
X86325640Y-83591000D01*
X86298062Y-83588284D01*
X86277444Y-83582030D01*
X86258444Y-83571874D01*
X86241792Y-83558208D01*
X86228126Y-83541556D01*
X86217970Y-83522556D01*
X86211716Y-83501938D01*
X86209000Y-83474360D01*
X86209000Y-83015640D01*
X86211716Y-82988062D01*
X86217970Y-82967444D01*
X86228126Y-82948444D01*
X86241792Y-82931792D01*
X86258444Y-82918126D01*
X86277444Y-82907970D01*
X86298062Y-82901716D01*
X86325640Y-82899000D01*
X86834360Y-82899000D01*
X86861938Y-82901716D01*
X86861938Y-82901716D01*
G37*
G36*
X87941938Y-82901716D02*
X87962556Y-82907970D01*
X87981556Y-82918126D01*
X87998208Y-82931792D01*
X88011874Y-82948444D01*
X88022030Y-82967444D01*
X88028284Y-82988062D01*
X88031000Y-83015640D01*
X88031000Y-83474360D01*
X88028284Y-83501938D01*
X88022030Y-83522556D01*
X88011874Y-83541556D01*
X87998208Y-83558208D01*
X87981556Y-83571874D01*
X87962556Y-83582030D01*
X87941938Y-83588284D01*
X87914360Y-83591000D01*
X87405640Y-83591000D01*
X87378062Y-83588284D01*
X87357444Y-83582030D01*
X87338444Y-83571874D01*
X87321792Y-83558208D01*
X87308126Y-83541556D01*
X87297970Y-83522556D01*
X87291716Y-83501938D01*
X87289000Y-83474360D01*
X87289000Y-83015640D01*
X87291716Y-82988062D01*
X87297970Y-82967444D01*
X87308126Y-82948444D01*
X87321792Y-82931792D01*
X87338444Y-82918126D01*
X87357444Y-82907970D01*
X87378062Y-82901716D01*
X87405640Y-82899000D01*
X87914360Y-82899000D01*
X87941938Y-82901716D01*
X87941938Y-82901716D01*
G37*
G36*
X71116000Y-83401000D02*
X70364000Y-83401000D01*
X70364000Y-82899000D01*
X71116000Y-82899000D01*
X71116000Y-83401000D01*
X71116000Y-83401000D01*
G37*
G36*
X85701938Y-82401716D02*
X85722556Y-82407970D01*
X85741556Y-82418126D01*
X85758208Y-82431792D01*
X85771874Y-82448444D01*
X85782030Y-82467444D01*
X85788284Y-82488062D01*
X85791000Y-82515640D01*
X85791000Y-82974360D01*
X85788284Y-83001938D01*
X85782030Y-83022556D01*
X85771874Y-83041556D01*
X85758208Y-83058208D01*
X85741556Y-83071874D01*
X85722556Y-83082030D01*
X85701938Y-83088284D01*
X85674360Y-83091000D01*
X85165640Y-83091000D01*
X85138062Y-83088284D01*
X85117444Y-83082030D01*
X85098444Y-83071874D01*
X85081792Y-83058208D01*
X85068126Y-83041556D01*
X85057970Y-83022556D01*
X85051716Y-83001938D01*
X85049000Y-82974360D01*
X85049000Y-82515640D01*
X85051716Y-82488062D01*
X85057970Y-82467444D01*
X85068126Y-82448444D01*
X85081792Y-82431792D01*
X85098444Y-82418126D01*
X85117444Y-82407970D01*
X85138062Y-82401716D01*
X85165640Y-82399000D01*
X85674360Y-82399000D01*
X85701938Y-82401716D01*
X85701938Y-82401716D01*
G37*
G36*
X84601938Y-82401716D02*
X84622556Y-82407970D01*
X84641556Y-82418126D01*
X84658208Y-82431792D01*
X84671874Y-82448444D01*
X84682030Y-82467444D01*
X84688284Y-82488062D01*
X84691000Y-82515640D01*
X84691000Y-82974360D01*
X84688284Y-83001938D01*
X84682030Y-83022556D01*
X84671874Y-83041556D01*
X84658208Y-83058208D01*
X84641556Y-83071874D01*
X84622556Y-83082030D01*
X84601938Y-83088284D01*
X84574360Y-83091000D01*
X84065640Y-83091000D01*
X84038062Y-83088284D01*
X84017444Y-83082030D01*
X83998444Y-83071874D01*
X83981792Y-83058208D01*
X83968126Y-83041556D01*
X83957970Y-83022556D01*
X83951716Y-83001938D01*
X83949000Y-82974360D01*
X83949000Y-82515640D01*
X83951716Y-82488062D01*
X83957970Y-82467444D01*
X83968126Y-82448444D01*
X83981792Y-82431792D01*
X83998444Y-82418126D01*
X84017444Y-82407970D01*
X84038062Y-82401716D01*
X84065640Y-82399000D01*
X84574360Y-82399000D01*
X84601938Y-82401716D01*
X84601938Y-82401716D01*
G37*
G36*
X74261938Y-82281716D02*
X74282556Y-82287970D01*
X74301556Y-82298126D01*
X74318208Y-82311792D01*
X74331874Y-82328444D01*
X74342030Y-82347444D01*
X74348284Y-82368062D01*
X74351000Y-82395640D01*
X74351000Y-82854360D01*
X74348284Y-82881938D01*
X74342030Y-82902556D01*
X74331874Y-82921556D01*
X74318208Y-82938208D01*
X74301556Y-82951874D01*
X74282556Y-82962030D01*
X74261938Y-82968284D01*
X74234360Y-82971000D01*
X73725640Y-82971000D01*
X73698062Y-82968284D01*
X73677444Y-82962030D01*
X73658444Y-82951874D01*
X73641792Y-82938208D01*
X73628126Y-82921556D01*
X73617970Y-82902556D01*
X73611716Y-82881938D01*
X73609000Y-82854360D01*
X73609000Y-82395640D01*
X73611716Y-82368062D01*
X73617970Y-82347444D01*
X73628126Y-82328444D01*
X73641792Y-82311792D01*
X73658444Y-82298126D01*
X73677444Y-82287970D01*
X73698062Y-82281716D01*
X73725640Y-82279000D01*
X74234360Y-82279000D01*
X74261938Y-82281716D01*
X74261938Y-82281716D01*
G37*
G36*
X87871938Y-81401716D02*
X87892556Y-81407970D01*
X87911556Y-81418126D01*
X87928208Y-81431792D01*
X87941874Y-81448444D01*
X87952030Y-81467444D01*
X87958284Y-81488062D01*
X87961000Y-81515640D01*
X87961000Y-82024360D01*
X87958284Y-82051938D01*
X87952030Y-82072556D01*
X87941874Y-82091556D01*
X87928208Y-82108208D01*
X87911556Y-82121874D01*
X87892556Y-82132030D01*
X87871938Y-82138284D01*
X87844360Y-82141000D01*
X87385640Y-82141000D01*
X87358062Y-82138284D01*
X87337444Y-82132030D01*
X87318444Y-82121874D01*
X87301792Y-82108208D01*
X87288126Y-82091556D01*
X87277970Y-82072556D01*
X87271716Y-82051938D01*
X87269000Y-82024360D01*
X87269000Y-81515640D01*
X87271716Y-81488062D01*
X87277970Y-81467444D01*
X87288126Y-81448444D01*
X87301792Y-81431792D01*
X87318444Y-81418126D01*
X87337444Y-81407970D01*
X87358062Y-81401716D01*
X87385640Y-81399000D01*
X87844360Y-81399000D01*
X87871938Y-81401716D01*
X87871938Y-81401716D01*
G37*
G36*
X86901938Y-81401716D02*
X86922556Y-81407970D01*
X86941556Y-81418126D01*
X86958208Y-81431792D01*
X86971874Y-81448444D01*
X86982030Y-81467444D01*
X86988284Y-81488062D01*
X86991000Y-81515640D01*
X86991000Y-82024360D01*
X86988284Y-82051938D01*
X86982030Y-82072556D01*
X86971874Y-82091556D01*
X86958208Y-82108208D01*
X86941556Y-82121874D01*
X86922556Y-82132030D01*
X86901938Y-82138284D01*
X86874360Y-82141000D01*
X86415640Y-82141000D01*
X86388062Y-82138284D01*
X86367444Y-82132030D01*
X86348444Y-82121874D01*
X86331792Y-82108208D01*
X86318126Y-82091556D01*
X86307970Y-82072556D01*
X86301716Y-82051938D01*
X86299000Y-82024360D01*
X86299000Y-81515640D01*
X86301716Y-81488062D01*
X86307970Y-81467444D01*
X86318126Y-81448444D01*
X86331792Y-81431792D01*
X86348444Y-81418126D01*
X86367444Y-81407970D01*
X86388062Y-81401716D01*
X86415640Y-81399000D01*
X86874360Y-81399000D01*
X86901938Y-81401716D01*
X86901938Y-81401716D01*
G37*
G36*
X84601938Y-81431716D02*
X84622556Y-81437970D01*
X84641556Y-81448126D01*
X84658208Y-81461792D01*
X84671874Y-81478444D01*
X84682030Y-81497444D01*
X84688284Y-81518062D01*
X84691000Y-81545640D01*
X84691000Y-82004360D01*
X84688284Y-82031938D01*
X84682030Y-82052556D01*
X84671874Y-82071556D01*
X84658208Y-82088208D01*
X84641556Y-82101874D01*
X84622556Y-82112030D01*
X84601938Y-82118284D01*
X84574360Y-82121000D01*
X84065640Y-82121000D01*
X84038062Y-82118284D01*
X84017444Y-82112030D01*
X83998444Y-82101874D01*
X83981792Y-82088208D01*
X83968126Y-82071556D01*
X83957970Y-82052556D01*
X83951716Y-82031938D01*
X83949000Y-82004360D01*
X83949000Y-81545640D01*
X83951716Y-81518062D01*
X83957970Y-81497444D01*
X83968126Y-81478444D01*
X83981792Y-81461792D01*
X83998444Y-81448126D01*
X84017444Y-81437970D01*
X84038062Y-81431716D01*
X84065640Y-81429000D01*
X84574360Y-81429000D01*
X84601938Y-81431716D01*
X84601938Y-81431716D01*
G37*
G36*
X85701938Y-81431716D02*
X85722556Y-81437970D01*
X85741556Y-81448126D01*
X85758208Y-81461792D01*
X85771874Y-81478444D01*
X85782030Y-81497444D01*
X85788284Y-81518062D01*
X85791000Y-81545640D01*
X85791000Y-82004360D01*
X85788284Y-82031938D01*
X85782030Y-82052556D01*
X85771874Y-82071556D01*
X85758208Y-82088208D01*
X85741556Y-82101874D01*
X85722556Y-82112030D01*
X85701938Y-82118284D01*
X85674360Y-82121000D01*
X85165640Y-82121000D01*
X85138062Y-82118284D01*
X85117444Y-82112030D01*
X85098444Y-82101874D01*
X85081792Y-82088208D01*
X85068126Y-82071556D01*
X85057970Y-82052556D01*
X85051716Y-82031938D01*
X85049000Y-82004360D01*
X85049000Y-81545640D01*
X85051716Y-81518062D01*
X85057970Y-81497444D01*
X85068126Y-81478444D01*
X85081792Y-81461792D01*
X85098444Y-81448126D01*
X85117444Y-81437970D01*
X85138062Y-81431716D01*
X85165640Y-81429000D01*
X85674360Y-81429000D01*
X85701938Y-81431716D01*
X85701938Y-81431716D01*
G37*
G36*
X61691938Y-78641716D02*
X61712556Y-78647970D01*
X61731556Y-78658126D01*
X61748208Y-78671792D01*
X61761874Y-78688444D01*
X61772030Y-78707444D01*
X61778284Y-78728062D01*
X61781000Y-78755640D01*
X61781000Y-79264360D01*
X61778284Y-79291938D01*
X61772030Y-79312556D01*
X61761874Y-79331556D01*
X61748208Y-79348208D01*
X61731556Y-79361874D01*
X61712556Y-79372030D01*
X61691938Y-79378284D01*
X61664360Y-79381000D01*
X61205640Y-79381000D01*
X61178062Y-79378284D01*
X61157444Y-79372030D01*
X61138444Y-79361874D01*
X61121792Y-79348208D01*
X61108126Y-79331556D01*
X61097970Y-79312556D01*
X61091716Y-79291938D01*
X61089000Y-79264360D01*
X61089000Y-78755640D01*
X61091716Y-78728062D01*
X61097970Y-78707444D01*
X61108126Y-78688444D01*
X61121792Y-78671792D01*
X61138444Y-78658126D01*
X61157444Y-78647970D01*
X61178062Y-78641716D01*
X61205640Y-78639000D01*
X61664360Y-78639000D01*
X61691938Y-78641716D01*
X61691938Y-78641716D01*
G37*
G36*
X62661938Y-78641716D02*
X62682556Y-78647970D01*
X62701556Y-78658126D01*
X62718208Y-78671792D01*
X62731874Y-78688444D01*
X62742030Y-78707444D01*
X62748284Y-78728062D01*
X62751000Y-78755640D01*
X62751000Y-79264360D01*
X62748284Y-79291938D01*
X62742030Y-79312556D01*
X62731874Y-79331556D01*
X62718208Y-79348208D01*
X62701556Y-79361874D01*
X62682556Y-79372030D01*
X62661938Y-79378284D01*
X62634360Y-79381000D01*
X62175640Y-79381000D01*
X62148062Y-79378284D01*
X62127444Y-79372030D01*
X62108444Y-79361874D01*
X62091792Y-79348208D01*
X62078126Y-79331556D01*
X62067970Y-79312556D01*
X62061716Y-79291938D01*
X62059000Y-79264360D01*
X62059000Y-78755640D01*
X62061716Y-78728062D01*
X62067970Y-78707444D01*
X62078126Y-78688444D01*
X62091792Y-78671792D01*
X62108444Y-78658126D01*
X62127444Y-78647970D01*
X62148062Y-78641716D01*
X62175640Y-78639000D01*
X62634360Y-78639000D01*
X62661938Y-78641716D01*
X62661938Y-78641716D01*
G37*
G36*
X66671000Y-79376000D02*
X65509000Y-79376000D01*
X65509000Y-78624000D01*
X66671000Y-78624000D01*
X66671000Y-79376000D01*
X66671000Y-79376000D01*
G37*
G36*
X64471000Y-79376000D02*
X63309000Y-79376000D01*
X63309000Y-76724000D01*
X64471000Y-76724000D01*
X64471000Y-79376000D01*
X64471000Y-79376000D01*
G37*
G36*
X67881938Y-77711716D02*
X67902556Y-77717970D01*
X67921556Y-77728126D01*
X67938208Y-77741792D01*
X67951874Y-77758444D01*
X67962030Y-77777444D01*
X67968284Y-77798062D01*
X67971000Y-77825640D01*
X67971000Y-78284360D01*
X67968284Y-78311938D01*
X67962030Y-78332556D01*
X67951874Y-78351556D01*
X67938208Y-78368208D01*
X67921556Y-78381874D01*
X67902556Y-78392030D01*
X67881938Y-78398284D01*
X67854360Y-78401000D01*
X67345640Y-78401000D01*
X67318062Y-78398284D01*
X67297444Y-78392030D01*
X67278444Y-78381874D01*
X67261792Y-78368208D01*
X67248126Y-78351556D01*
X67237970Y-78332556D01*
X67231716Y-78311938D01*
X67229000Y-78284360D01*
X67229000Y-77825640D01*
X67231716Y-77798062D01*
X67237970Y-77777444D01*
X67248126Y-77758444D01*
X67261792Y-77741792D01*
X67278444Y-77728126D01*
X67297444Y-77717970D01*
X67318062Y-77711716D01*
X67345640Y-77709000D01*
X67854360Y-77709000D01*
X67881938Y-77711716D01*
X67881938Y-77711716D01*
G37*
G36*
X66671000Y-77476000D02*
X65509000Y-77476000D01*
X65509000Y-76724000D01*
X66671000Y-76724000D01*
X66671000Y-77476000D01*
X66671000Y-77476000D01*
G37*
G36*
X67881938Y-76741716D02*
X67902556Y-76747970D01*
X67921556Y-76758126D01*
X67938208Y-76771792D01*
X67951874Y-76788444D01*
X67962030Y-76807444D01*
X67968284Y-76828062D01*
X67971000Y-76855640D01*
X67971000Y-77314360D01*
X67968284Y-77341938D01*
X67962030Y-77362556D01*
X67951874Y-77381556D01*
X67938208Y-77398208D01*
X67921556Y-77411874D01*
X67902556Y-77422030D01*
X67881938Y-77428284D01*
X67854360Y-77431000D01*
X67345640Y-77431000D01*
X67318062Y-77428284D01*
X67297444Y-77422030D01*
X67278444Y-77411874D01*
X67261792Y-77398208D01*
X67248126Y-77381556D01*
X67237970Y-77362556D01*
X67231716Y-77341938D01*
X67229000Y-77314360D01*
X67229000Y-76855640D01*
X67231716Y-76828062D01*
X67237970Y-76807444D01*
X67248126Y-76788444D01*
X67261792Y-76771792D01*
X67278444Y-76758126D01*
X67297444Y-76747970D01*
X67318062Y-76741716D01*
X67345640Y-76739000D01*
X67854360Y-76739000D01*
X67881938Y-76741716D01*
X67881938Y-76741716D01*
G37*
G36*
X61634239Y-67811467D02*
X61948282Y-67873934D01*
X62539926Y-68119001D01*
X62829523Y-68312504D01*
X63072395Y-68474786D01*
X63525214Y-68927605D01*
X63525216Y-68927608D01*
X63880999Y-69460074D01*
X64002724Y-69753944D01*
X64126066Y-70051719D01*
X64251000Y-70679803D01*
X64251000Y-71320197D01*
X64188533Y-71634239D01*
X64126066Y-71948282D01*
X63880999Y-72539926D01*
X63633265Y-72910685D01*
X63525214Y-73072395D01*
X63072395Y-73525214D01*
X63072392Y-73525216D01*
X62539926Y-73880999D01*
X61948282Y-74126066D01*
X61634239Y-74188533D01*
X61320197Y-74251000D01*
X60679803Y-74251000D01*
X60365761Y-74188533D01*
X60051718Y-74126066D01*
X59460074Y-73880999D01*
X58927608Y-73525216D01*
X58927605Y-73525214D01*
X58474786Y-73072395D01*
X58366735Y-72910685D01*
X58119001Y-72539926D01*
X57873934Y-71948282D01*
X57811467Y-71634239D01*
X57749000Y-71320197D01*
X57749000Y-70679803D01*
X57873934Y-70051719D01*
X57997276Y-69753944D01*
X58119001Y-69460074D01*
X58474784Y-68927608D01*
X58474786Y-68927605D01*
X58927605Y-68474786D01*
X59170477Y-68312504D01*
X59460074Y-68119001D01*
X60051718Y-67873934D01*
X60365761Y-67811467D01*
X60679803Y-67749000D01*
X61320197Y-67749000D01*
X61634239Y-67811467D01*
X61634239Y-67811467D01*
G37*
G36*
X99634239Y-67811467D02*
X99948282Y-67873934D01*
X100539926Y-68119001D01*
X100829523Y-68312504D01*
X101072395Y-68474786D01*
X101525214Y-68927605D01*
X101525216Y-68927608D01*
X101880999Y-69460074D01*
X102002724Y-69753944D01*
X102126066Y-70051719D01*
X102251000Y-70679803D01*
X102251000Y-71320197D01*
X102188533Y-71634239D01*
X102126066Y-71948282D01*
X101880999Y-72539926D01*
X101633265Y-72910685D01*
X101525214Y-73072395D01*
X101072395Y-73525214D01*
X101072392Y-73525216D01*
X100539926Y-73880999D01*
X99948282Y-74126066D01*
X99634239Y-74188533D01*
X99320197Y-74251000D01*
X98679803Y-74251000D01*
X98365761Y-74188533D01*
X98051718Y-74126066D01*
X97460074Y-73880999D01*
X96927608Y-73525216D01*
X96927605Y-73525214D01*
X96474786Y-73072395D01*
X96366735Y-72910685D01*
X96119001Y-72539926D01*
X95873934Y-71948282D01*
X95811467Y-71634239D01*
X95749000Y-71320197D01*
X95749000Y-70679803D01*
X95873934Y-70051719D01*
X95997276Y-69753944D01*
X96119001Y-69460074D01*
X96474784Y-68927608D01*
X96474786Y-68927605D01*
X96927605Y-68474786D01*
X97170477Y-68312504D01*
X97460074Y-68119001D01*
X98051718Y-67873934D01*
X98365761Y-67811467D01*
X98679803Y-67749000D01*
X99320197Y-67749000D01*
X99634239Y-67811467D01*
X99634239Y-67811467D01*
G37*
M02*
