G04 #@! TF.GenerationSoftware,KiCad,Pcbnew,(5.0.2)-1*
G04 #@! TF.CreationDate,2019-01-19T12:25:22+11:00*
G04 #@! TF.ProjectId,MAX2870_Dev_Rev_0,4d415832-3837-4305-9f44-65765f526576,rev?*
G04 #@! TF.SameCoordinates,Original*
G04 #@! TF.FileFunction,Soldermask,Bot*
G04 #@! TF.FilePolarity,Negative*
%FSLAX46Y46*%
G04 Gerber Fmt 4.6, Leading zero omitted, Abs format (unit mm)*
G04 Created by KiCad (PCBNEW (5.0.2)-1) date 19/01/2019 12:25:22*
%MOMM*%
%LPD*%
G01*
G04 APERTURE LIST*
%ADD10C,0.150000*%
%ADD11C,0.100000*%
G04 APERTURE END LIST*
D10*
G04 #@! TO.C,REF\002A\002A*
G36*
X65350000Y-108550000D02*
X71350000Y-108550000D01*
X71350000Y-110800000D01*
X65350000Y-110800000D01*
X65350000Y-108550000D01*
G37*
X65350000Y-108550000D02*
X71350000Y-108550000D01*
X71350000Y-110800000D01*
X65350000Y-110800000D01*
X65350000Y-108550000D01*
D11*
G36*
X61634239Y-105811467D02*
X61948282Y-105873934D01*
X62539926Y-106119001D01*
X62829523Y-106312504D01*
X63072395Y-106474786D01*
X63525214Y-106927605D01*
X63525216Y-106927608D01*
X63880999Y-107460074D01*
X64002724Y-107753944D01*
X64126066Y-108051719D01*
X64251000Y-108679803D01*
X64251000Y-109320197D01*
X64188533Y-109634239D01*
X64126066Y-109948282D01*
X63880999Y-110539926D01*
X63633265Y-110910685D01*
X63525214Y-111072395D01*
X63072395Y-111525214D01*
X63072392Y-111525216D01*
X62539926Y-111880999D01*
X61948282Y-112126066D01*
X61634239Y-112188533D01*
X61320197Y-112251000D01*
X60679803Y-112251000D01*
X60365761Y-112188533D01*
X60051718Y-112126066D01*
X59460074Y-111880999D01*
X58927608Y-111525216D01*
X58927605Y-111525214D01*
X58474786Y-111072395D01*
X58366735Y-110910685D01*
X58119001Y-110539926D01*
X57873934Y-109948282D01*
X57811467Y-109634239D01*
X57749000Y-109320197D01*
X57749000Y-108679803D01*
X57873934Y-108051719D01*
X57997276Y-107753944D01*
X58119001Y-107460074D01*
X58474784Y-106927608D01*
X58474786Y-106927605D01*
X58927605Y-106474786D01*
X59170477Y-106312504D01*
X59460074Y-106119001D01*
X60051718Y-105873934D01*
X60365761Y-105811467D01*
X60679803Y-105749000D01*
X61320197Y-105749000D01*
X61634239Y-105811467D01*
X61634239Y-105811467D01*
G37*
G36*
X99634239Y-105811467D02*
X99948282Y-105873934D01*
X100539926Y-106119001D01*
X100829523Y-106312504D01*
X101072395Y-106474786D01*
X101525214Y-106927605D01*
X101525216Y-106927608D01*
X101880999Y-107460074D01*
X102002724Y-107753944D01*
X102126066Y-108051719D01*
X102251000Y-108679803D01*
X102251000Y-109320197D01*
X102188533Y-109634239D01*
X102126066Y-109948282D01*
X101880999Y-110539926D01*
X101633265Y-110910685D01*
X101525214Y-111072395D01*
X101072395Y-111525214D01*
X101072392Y-111525216D01*
X100539926Y-111880999D01*
X99948282Y-112126066D01*
X99634239Y-112188533D01*
X99320197Y-112251000D01*
X98679803Y-112251000D01*
X98365761Y-112188533D01*
X98051718Y-112126066D01*
X97460074Y-111880999D01*
X96927608Y-111525216D01*
X96927605Y-111525214D01*
X96474786Y-111072395D01*
X96366735Y-110910685D01*
X96119001Y-110539926D01*
X95873934Y-109948282D01*
X95811467Y-109634239D01*
X95749000Y-109320197D01*
X95749000Y-108679803D01*
X95873934Y-108051719D01*
X95997276Y-107753944D01*
X96119001Y-107460074D01*
X96474784Y-106927608D01*
X96474786Y-106927605D01*
X96927605Y-106474786D01*
X97170477Y-106312504D01*
X97460074Y-106119001D01*
X98051718Y-105873934D01*
X98365761Y-105811467D01*
X98679803Y-105749000D01*
X99320197Y-105749000D01*
X99634239Y-105811467D01*
X99634239Y-105811467D01*
G37*
G36*
X62490442Y-93185518D02*
X62556627Y-93192037D01*
X62669853Y-93226384D01*
X62726467Y-93243557D01*
X62865087Y-93317652D01*
X62882991Y-93327222D01*
X62918729Y-93356552D01*
X63020186Y-93439814D01*
X63103448Y-93541271D01*
X63132778Y-93577009D01*
X63132779Y-93577011D01*
X63216443Y-93733533D01*
X63216443Y-93733534D01*
X63267963Y-93903373D01*
X63285359Y-94080000D01*
X63267963Y-94256627D01*
X63233616Y-94369853D01*
X63216443Y-94426467D01*
X63142348Y-94565087D01*
X63132778Y-94582991D01*
X63103448Y-94618729D01*
X63020186Y-94720186D01*
X62918729Y-94803448D01*
X62882991Y-94832778D01*
X62882989Y-94832779D01*
X62726467Y-94916443D01*
X62669853Y-94933616D01*
X62556627Y-94967963D01*
X62490443Y-94974481D01*
X62424260Y-94981000D01*
X62335740Y-94981000D01*
X62269557Y-94974481D01*
X62203373Y-94967963D01*
X62090147Y-94933616D01*
X62033533Y-94916443D01*
X61877011Y-94832779D01*
X61877009Y-94832778D01*
X61841271Y-94803448D01*
X61739814Y-94720186D01*
X61656552Y-94618729D01*
X61627222Y-94582991D01*
X61617652Y-94565087D01*
X61543557Y-94426467D01*
X61526384Y-94369853D01*
X61492037Y-94256627D01*
X61474641Y-94080000D01*
X61492037Y-93903373D01*
X61543557Y-93733534D01*
X61543557Y-93733533D01*
X61627221Y-93577011D01*
X61627222Y-93577009D01*
X61656552Y-93541271D01*
X61739814Y-93439814D01*
X61841271Y-93356552D01*
X61877009Y-93327222D01*
X61894913Y-93317652D01*
X62033533Y-93243557D01*
X62090147Y-93226384D01*
X62203373Y-93192037D01*
X62269558Y-93185518D01*
X62335740Y-93179000D01*
X62424260Y-93179000D01*
X62490442Y-93185518D01*
X62490442Y-93185518D01*
G37*
G36*
X65030442Y-93185518D02*
X65096627Y-93192037D01*
X65209853Y-93226384D01*
X65266467Y-93243557D01*
X65405087Y-93317652D01*
X65422991Y-93327222D01*
X65458729Y-93356552D01*
X65560186Y-93439814D01*
X65643448Y-93541271D01*
X65672778Y-93577009D01*
X65672779Y-93577011D01*
X65756443Y-93733533D01*
X65756443Y-93733534D01*
X65807963Y-93903373D01*
X65825359Y-94080000D01*
X65807963Y-94256627D01*
X65773616Y-94369853D01*
X65756443Y-94426467D01*
X65682348Y-94565087D01*
X65672778Y-94582991D01*
X65643448Y-94618729D01*
X65560186Y-94720186D01*
X65458729Y-94803448D01*
X65422991Y-94832778D01*
X65422989Y-94832779D01*
X65266467Y-94916443D01*
X65209853Y-94933616D01*
X65096627Y-94967963D01*
X65030443Y-94974481D01*
X64964260Y-94981000D01*
X64875740Y-94981000D01*
X64809557Y-94974481D01*
X64743373Y-94967963D01*
X64630147Y-94933616D01*
X64573533Y-94916443D01*
X64417011Y-94832779D01*
X64417009Y-94832778D01*
X64381271Y-94803448D01*
X64279814Y-94720186D01*
X64196552Y-94618729D01*
X64167222Y-94582991D01*
X64157652Y-94565087D01*
X64083557Y-94426467D01*
X64066384Y-94369853D01*
X64032037Y-94256627D01*
X64014641Y-94080000D01*
X64032037Y-93903373D01*
X64083557Y-93733534D01*
X64083557Y-93733533D01*
X64167221Y-93577011D01*
X64167222Y-93577009D01*
X64196552Y-93541271D01*
X64279814Y-93439814D01*
X64381271Y-93356552D01*
X64417009Y-93327222D01*
X64434913Y-93317652D01*
X64573533Y-93243557D01*
X64630147Y-93226384D01*
X64743373Y-93192037D01*
X64809558Y-93185518D01*
X64875740Y-93179000D01*
X64964260Y-93179000D01*
X65030442Y-93185518D01*
X65030442Y-93185518D01*
G37*
G36*
X103951000Y-92451000D02*
X99649000Y-92451000D01*
X99649000Y-90999000D01*
X103951000Y-90999000D01*
X103951000Y-92451000D01*
X103951000Y-92451000D01*
G37*
G36*
X65030443Y-90645519D02*
X65096627Y-90652037D01*
X65209853Y-90686384D01*
X65266467Y-90703557D01*
X65405087Y-90777652D01*
X65422991Y-90787222D01*
X65458729Y-90816552D01*
X65560186Y-90899814D01*
X65641585Y-90999000D01*
X65672778Y-91037009D01*
X65672779Y-91037011D01*
X65756443Y-91193533D01*
X65756443Y-91193534D01*
X65807963Y-91363373D01*
X65825359Y-91540000D01*
X65807963Y-91716627D01*
X65773616Y-91829853D01*
X65756443Y-91886467D01*
X65682348Y-92025087D01*
X65672778Y-92042991D01*
X65643448Y-92078729D01*
X65560186Y-92180186D01*
X65458729Y-92263448D01*
X65422991Y-92292778D01*
X65422989Y-92292779D01*
X65266467Y-92376443D01*
X65209853Y-92393616D01*
X65096627Y-92427963D01*
X65030443Y-92434481D01*
X64964260Y-92441000D01*
X64875740Y-92441000D01*
X64809557Y-92434481D01*
X64743373Y-92427963D01*
X64630147Y-92393616D01*
X64573533Y-92376443D01*
X64417011Y-92292779D01*
X64417009Y-92292778D01*
X64381271Y-92263448D01*
X64279814Y-92180186D01*
X64196552Y-92078729D01*
X64167222Y-92042991D01*
X64157652Y-92025087D01*
X64083557Y-91886467D01*
X64066384Y-91829853D01*
X64032037Y-91716627D01*
X64014641Y-91540000D01*
X64032037Y-91363373D01*
X64083557Y-91193534D01*
X64083557Y-91193533D01*
X64167221Y-91037011D01*
X64167222Y-91037009D01*
X64198415Y-90999000D01*
X64279814Y-90899814D01*
X64381271Y-90816552D01*
X64417009Y-90787222D01*
X64434913Y-90777652D01*
X64573533Y-90703557D01*
X64630147Y-90686384D01*
X64743373Y-90652037D01*
X64809557Y-90645519D01*
X64875740Y-90639000D01*
X64964260Y-90639000D01*
X65030443Y-90645519D01*
X65030443Y-90645519D01*
G37*
G36*
X62490443Y-90645519D02*
X62556627Y-90652037D01*
X62669853Y-90686384D01*
X62726467Y-90703557D01*
X62865087Y-90777652D01*
X62882991Y-90787222D01*
X62918729Y-90816552D01*
X63020186Y-90899814D01*
X63101585Y-90999000D01*
X63132778Y-91037009D01*
X63132779Y-91037011D01*
X63216443Y-91193533D01*
X63216443Y-91193534D01*
X63267963Y-91363373D01*
X63285359Y-91540000D01*
X63267963Y-91716627D01*
X63233616Y-91829853D01*
X63216443Y-91886467D01*
X63142348Y-92025087D01*
X63132778Y-92042991D01*
X63103448Y-92078729D01*
X63020186Y-92180186D01*
X62918729Y-92263448D01*
X62882991Y-92292778D01*
X62882989Y-92292779D01*
X62726467Y-92376443D01*
X62669853Y-92393616D01*
X62556627Y-92427963D01*
X62490443Y-92434481D01*
X62424260Y-92441000D01*
X62335740Y-92441000D01*
X62269557Y-92434481D01*
X62203373Y-92427963D01*
X62090147Y-92393616D01*
X62033533Y-92376443D01*
X61877011Y-92292779D01*
X61877009Y-92292778D01*
X61841271Y-92263448D01*
X61739814Y-92180186D01*
X61656552Y-92078729D01*
X61627222Y-92042991D01*
X61617652Y-92025087D01*
X61543557Y-91886467D01*
X61526384Y-91829853D01*
X61492037Y-91716627D01*
X61474641Y-91540000D01*
X61492037Y-91363373D01*
X61543557Y-91193534D01*
X61543557Y-91193533D01*
X61627221Y-91037011D01*
X61627222Y-91037009D01*
X61658415Y-90999000D01*
X61739814Y-90899814D01*
X61841271Y-90816552D01*
X61877009Y-90787222D01*
X61894913Y-90777652D01*
X62033533Y-90703557D01*
X62090147Y-90686384D01*
X62203373Y-90652037D01*
X62269557Y-90645519D01*
X62335740Y-90639000D01*
X62424260Y-90639000D01*
X62490443Y-90645519D01*
X62490443Y-90645519D01*
G37*
G36*
X62490443Y-88105519D02*
X62556627Y-88112037D01*
X62669853Y-88146384D01*
X62726467Y-88163557D01*
X62865087Y-88237652D01*
X62882991Y-88247222D01*
X62918729Y-88276552D01*
X63020186Y-88359814D01*
X63103448Y-88461271D01*
X63132778Y-88497009D01*
X63132779Y-88497011D01*
X63216443Y-88653533D01*
X63216443Y-88653534D01*
X63267963Y-88823373D01*
X63285359Y-89000000D01*
X63267963Y-89176627D01*
X63233616Y-89289853D01*
X63216443Y-89346467D01*
X63142348Y-89485087D01*
X63132778Y-89502991D01*
X63103448Y-89538729D01*
X63020186Y-89640186D01*
X62918729Y-89723448D01*
X62882991Y-89752778D01*
X62882989Y-89752779D01*
X62726467Y-89836443D01*
X62669853Y-89853616D01*
X62556627Y-89887963D01*
X62490442Y-89894482D01*
X62424260Y-89901000D01*
X62335740Y-89901000D01*
X62269558Y-89894482D01*
X62203373Y-89887963D01*
X62090147Y-89853616D01*
X62033533Y-89836443D01*
X61877011Y-89752779D01*
X61877009Y-89752778D01*
X61841271Y-89723448D01*
X61739814Y-89640186D01*
X61656552Y-89538729D01*
X61627222Y-89502991D01*
X61617652Y-89485087D01*
X61543557Y-89346467D01*
X61526384Y-89289853D01*
X61492037Y-89176627D01*
X61474641Y-89000000D01*
X61492037Y-88823373D01*
X61543557Y-88653534D01*
X61543557Y-88653533D01*
X61627221Y-88497011D01*
X61627222Y-88497009D01*
X61656552Y-88461271D01*
X61739814Y-88359814D01*
X61841271Y-88276552D01*
X61877009Y-88247222D01*
X61894913Y-88237652D01*
X62033533Y-88163557D01*
X62090147Y-88146384D01*
X62203373Y-88112037D01*
X62269557Y-88105519D01*
X62335740Y-88099000D01*
X62424260Y-88099000D01*
X62490443Y-88105519D01*
X62490443Y-88105519D01*
G37*
G36*
X65030443Y-88105519D02*
X65096627Y-88112037D01*
X65209853Y-88146384D01*
X65266467Y-88163557D01*
X65405087Y-88237652D01*
X65422991Y-88247222D01*
X65458729Y-88276552D01*
X65560186Y-88359814D01*
X65643448Y-88461271D01*
X65672778Y-88497009D01*
X65672779Y-88497011D01*
X65756443Y-88653533D01*
X65756443Y-88653534D01*
X65807963Y-88823373D01*
X65825359Y-89000000D01*
X65807963Y-89176627D01*
X65773616Y-89289853D01*
X65756443Y-89346467D01*
X65682348Y-89485087D01*
X65672778Y-89502991D01*
X65643448Y-89538729D01*
X65560186Y-89640186D01*
X65458729Y-89723448D01*
X65422991Y-89752778D01*
X65422989Y-89752779D01*
X65266467Y-89836443D01*
X65209853Y-89853616D01*
X65096627Y-89887963D01*
X65030442Y-89894482D01*
X64964260Y-89901000D01*
X64875740Y-89901000D01*
X64809558Y-89894482D01*
X64743373Y-89887963D01*
X64630147Y-89853616D01*
X64573533Y-89836443D01*
X64417011Y-89752779D01*
X64417009Y-89752778D01*
X64381271Y-89723448D01*
X64279814Y-89640186D01*
X64196552Y-89538729D01*
X64167222Y-89502991D01*
X64157652Y-89485087D01*
X64083557Y-89346467D01*
X64066384Y-89289853D01*
X64032037Y-89176627D01*
X64014641Y-89000000D01*
X64032037Y-88823373D01*
X64083557Y-88653534D01*
X64083557Y-88653533D01*
X64167221Y-88497011D01*
X64167222Y-88497009D01*
X64196552Y-88461271D01*
X64279814Y-88359814D01*
X64381271Y-88276552D01*
X64417009Y-88247222D01*
X64434913Y-88237652D01*
X64573533Y-88163557D01*
X64630147Y-88146384D01*
X64743373Y-88112037D01*
X64809557Y-88105519D01*
X64875740Y-88099000D01*
X64964260Y-88099000D01*
X65030443Y-88105519D01*
X65030443Y-88105519D01*
G37*
G36*
X65030442Y-85565518D02*
X65096627Y-85572037D01*
X65209853Y-85606384D01*
X65266467Y-85623557D01*
X65405087Y-85697652D01*
X65422991Y-85707222D01*
X65458729Y-85736552D01*
X65560186Y-85819814D01*
X65643448Y-85921271D01*
X65672778Y-85957009D01*
X65672779Y-85957011D01*
X65756443Y-86113533D01*
X65756443Y-86113534D01*
X65807963Y-86283373D01*
X65825359Y-86460000D01*
X65807963Y-86636627D01*
X65773616Y-86749853D01*
X65756443Y-86806467D01*
X65682348Y-86945087D01*
X65672778Y-86962991D01*
X65643448Y-86998729D01*
X65560186Y-87100186D01*
X65458729Y-87183448D01*
X65422991Y-87212778D01*
X65422989Y-87212779D01*
X65266467Y-87296443D01*
X65209853Y-87313616D01*
X65096627Y-87347963D01*
X65030443Y-87354481D01*
X64964260Y-87361000D01*
X64875740Y-87361000D01*
X64809557Y-87354481D01*
X64743373Y-87347963D01*
X64630147Y-87313616D01*
X64573533Y-87296443D01*
X64417011Y-87212779D01*
X64417009Y-87212778D01*
X64381271Y-87183448D01*
X64279814Y-87100186D01*
X64196552Y-86998729D01*
X64167222Y-86962991D01*
X64157652Y-86945087D01*
X64083557Y-86806467D01*
X64066384Y-86749853D01*
X64032037Y-86636627D01*
X64014641Y-86460000D01*
X64032037Y-86283373D01*
X64083557Y-86113534D01*
X64083557Y-86113533D01*
X64167221Y-85957011D01*
X64167222Y-85957009D01*
X64196552Y-85921271D01*
X64279814Y-85819814D01*
X64381271Y-85736552D01*
X64417009Y-85707222D01*
X64434913Y-85697652D01*
X64573533Y-85623557D01*
X64630147Y-85606384D01*
X64743373Y-85572037D01*
X64809558Y-85565518D01*
X64875740Y-85559000D01*
X64964260Y-85559000D01*
X65030442Y-85565518D01*
X65030442Y-85565518D01*
G37*
G36*
X62490442Y-85565518D02*
X62556627Y-85572037D01*
X62669853Y-85606384D01*
X62726467Y-85623557D01*
X62865087Y-85697652D01*
X62882991Y-85707222D01*
X62918729Y-85736552D01*
X63020186Y-85819814D01*
X63103448Y-85921271D01*
X63132778Y-85957009D01*
X63132779Y-85957011D01*
X63216443Y-86113533D01*
X63216443Y-86113534D01*
X63267963Y-86283373D01*
X63285359Y-86460000D01*
X63267963Y-86636627D01*
X63233616Y-86749853D01*
X63216443Y-86806467D01*
X63142348Y-86945087D01*
X63132778Y-86962991D01*
X63103448Y-86998729D01*
X63020186Y-87100186D01*
X62918729Y-87183448D01*
X62882991Y-87212778D01*
X62882989Y-87212779D01*
X62726467Y-87296443D01*
X62669853Y-87313616D01*
X62556627Y-87347963D01*
X62490443Y-87354481D01*
X62424260Y-87361000D01*
X62335740Y-87361000D01*
X62269557Y-87354481D01*
X62203373Y-87347963D01*
X62090147Y-87313616D01*
X62033533Y-87296443D01*
X61877011Y-87212779D01*
X61877009Y-87212778D01*
X61841271Y-87183448D01*
X61739814Y-87100186D01*
X61656552Y-86998729D01*
X61627222Y-86962991D01*
X61617652Y-86945087D01*
X61543557Y-86806467D01*
X61526384Y-86749853D01*
X61492037Y-86636627D01*
X61474641Y-86460000D01*
X61492037Y-86283373D01*
X61543557Y-86113534D01*
X61543557Y-86113533D01*
X61627221Y-85957011D01*
X61627222Y-85957009D01*
X61656552Y-85921271D01*
X61739814Y-85819814D01*
X61841271Y-85736552D01*
X61877009Y-85707222D01*
X61894913Y-85697652D01*
X62033533Y-85623557D01*
X62090147Y-85606384D01*
X62203373Y-85572037D01*
X62269558Y-85565518D01*
X62335740Y-85559000D01*
X62424260Y-85559000D01*
X62490442Y-85565518D01*
X62490442Y-85565518D01*
G37*
G36*
X103951000Y-86801000D02*
X99649000Y-86801000D01*
X99649000Y-85349000D01*
X103951000Y-85349000D01*
X103951000Y-86801000D01*
X103951000Y-86801000D01*
G37*
G36*
X65030442Y-83025518D02*
X65096627Y-83032037D01*
X65209853Y-83066384D01*
X65266467Y-83083557D01*
X65405087Y-83157652D01*
X65422991Y-83167222D01*
X65458729Y-83196552D01*
X65560186Y-83279814D01*
X65643448Y-83381271D01*
X65672778Y-83417009D01*
X65672779Y-83417011D01*
X65756443Y-83573533D01*
X65756443Y-83573534D01*
X65807963Y-83743373D01*
X65825359Y-83920000D01*
X65807963Y-84096627D01*
X65773616Y-84209853D01*
X65756443Y-84266467D01*
X65682348Y-84405087D01*
X65672778Y-84422991D01*
X65643448Y-84458729D01*
X65560186Y-84560186D01*
X65458729Y-84643448D01*
X65422991Y-84672778D01*
X65422989Y-84672779D01*
X65266467Y-84756443D01*
X65209853Y-84773616D01*
X65096627Y-84807963D01*
X65030442Y-84814482D01*
X64964260Y-84821000D01*
X64875740Y-84821000D01*
X64809558Y-84814482D01*
X64743373Y-84807963D01*
X64630147Y-84773616D01*
X64573533Y-84756443D01*
X64417011Y-84672779D01*
X64417009Y-84672778D01*
X64381271Y-84643448D01*
X64279814Y-84560186D01*
X64196552Y-84458729D01*
X64167222Y-84422991D01*
X64157652Y-84405087D01*
X64083557Y-84266467D01*
X64066384Y-84209853D01*
X64032037Y-84096627D01*
X64014641Y-83920000D01*
X64032037Y-83743373D01*
X64083557Y-83573534D01*
X64083557Y-83573533D01*
X64167221Y-83417011D01*
X64167222Y-83417009D01*
X64196552Y-83381271D01*
X64279814Y-83279814D01*
X64381271Y-83196552D01*
X64417009Y-83167222D01*
X64434913Y-83157652D01*
X64573533Y-83083557D01*
X64630147Y-83066384D01*
X64743373Y-83032037D01*
X64809558Y-83025518D01*
X64875740Y-83019000D01*
X64964260Y-83019000D01*
X65030442Y-83025518D01*
X65030442Y-83025518D01*
G37*
G36*
X63281000Y-84821000D02*
X61479000Y-84821000D01*
X61479000Y-83019000D01*
X63281000Y-83019000D01*
X63281000Y-84821000D01*
X63281000Y-84821000D01*
G37*
G36*
X61634239Y-67811467D02*
X61948282Y-67873934D01*
X62539926Y-68119001D01*
X62829523Y-68312504D01*
X63072395Y-68474786D01*
X63525214Y-68927605D01*
X63525216Y-68927608D01*
X63880999Y-69460074D01*
X64002724Y-69753944D01*
X64126066Y-70051719D01*
X64251000Y-70679803D01*
X64251000Y-71320197D01*
X64188533Y-71634239D01*
X64126066Y-71948282D01*
X63880999Y-72539926D01*
X63633265Y-72910685D01*
X63525214Y-73072395D01*
X63072395Y-73525214D01*
X63072392Y-73525216D01*
X62539926Y-73880999D01*
X61948282Y-74126066D01*
X61634239Y-74188533D01*
X61320197Y-74251000D01*
X60679803Y-74251000D01*
X60365761Y-74188533D01*
X60051718Y-74126066D01*
X59460074Y-73880999D01*
X58927608Y-73525216D01*
X58927605Y-73525214D01*
X58474786Y-73072395D01*
X58366735Y-72910685D01*
X58119001Y-72539926D01*
X57873934Y-71948282D01*
X57811467Y-71634239D01*
X57749000Y-71320197D01*
X57749000Y-70679803D01*
X57873934Y-70051719D01*
X57997276Y-69753944D01*
X58119001Y-69460074D01*
X58474784Y-68927608D01*
X58474786Y-68927605D01*
X58927605Y-68474786D01*
X59170477Y-68312504D01*
X59460074Y-68119001D01*
X60051718Y-67873934D01*
X60365761Y-67811467D01*
X60679803Y-67749000D01*
X61320197Y-67749000D01*
X61634239Y-67811467D01*
X61634239Y-67811467D01*
G37*
G36*
X99634239Y-67811467D02*
X99948282Y-67873934D01*
X100539926Y-68119001D01*
X100829523Y-68312504D01*
X101072395Y-68474786D01*
X101525214Y-68927605D01*
X101525216Y-68927608D01*
X101880999Y-69460074D01*
X102002724Y-69753944D01*
X102126066Y-70051719D01*
X102251000Y-70679803D01*
X102251000Y-71320197D01*
X102188533Y-71634239D01*
X102126066Y-71948282D01*
X101880999Y-72539926D01*
X101633265Y-72910685D01*
X101525214Y-73072395D01*
X101072395Y-73525214D01*
X101072392Y-73525216D01*
X100539926Y-73880999D01*
X99948282Y-74126066D01*
X99634239Y-74188533D01*
X99320197Y-74251000D01*
X98679803Y-74251000D01*
X98365761Y-74188533D01*
X98051718Y-74126066D01*
X97460074Y-73880999D01*
X96927608Y-73525216D01*
X96927605Y-73525214D01*
X96474786Y-73072395D01*
X96366735Y-72910685D01*
X96119001Y-72539926D01*
X95873934Y-71948282D01*
X95811467Y-71634239D01*
X95749000Y-71320197D01*
X95749000Y-70679803D01*
X95873934Y-70051719D01*
X95997276Y-69753944D01*
X96119001Y-69460074D01*
X96474784Y-68927608D01*
X96474786Y-68927605D01*
X96927605Y-68474786D01*
X97170477Y-68312504D01*
X97460074Y-68119001D01*
X98051718Y-67873934D01*
X98365761Y-67811467D01*
X98679803Y-67749000D01*
X99320197Y-67749000D01*
X99634239Y-67811467D01*
X99634239Y-67811467D01*
G37*
M02*
