G04 #@! TF.GenerationSoftware,KiCad,Pcbnew,(5.1.0)-1*
G04 #@! TF.CreationDate,2019-03-22T19:36:58+11:00*
G04 #@! TF.ProjectId,TRF37A75_Dev_Rev_0,54524633-3741-4373-955f-4465765f5265,rev?*
G04 #@! TF.SameCoordinates,Original*
G04 #@! TF.FileFunction,Paste,Top*
G04 #@! TF.FilePolarity,Positive*
%FSLAX46Y46*%
G04 Gerber Fmt 4.6, Leading zero omitted, Abs format (unit mm)*
G04 Created by KiCad (PCBNEW (5.1.0)-1) date 2019-03-22 19:36:58*
%MOMM*%
%LPD*%
G04 APERTURE LIST*
%ADD10C,0.100000*%
%ADD11C,0.975000*%
%ADD12C,0.590000*%
%ADD13R,1.000000X0.850000*%
%ADD14R,1.900000X1.900000*%
%ADD15R,1.350000X1.000000*%
%ADD16R,0.400000X1.350000*%
%ADD17C,0.360000*%
%ADD18C,0.250000*%
G04 APERTURE END LIST*
D10*
G36*
X119405142Y-74101174D02*
G01*
X119428803Y-74104684D01*
X119452007Y-74110496D01*
X119474529Y-74118554D01*
X119496153Y-74128782D01*
X119516670Y-74141079D01*
X119535883Y-74155329D01*
X119553607Y-74171393D01*
X119569671Y-74189117D01*
X119583921Y-74208330D01*
X119596218Y-74228847D01*
X119606446Y-74250471D01*
X119614504Y-74272993D01*
X119620316Y-74296197D01*
X119623826Y-74319858D01*
X119625000Y-74343750D01*
X119625000Y-75256250D01*
X119623826Y-75280142D01*
X119620316Y-75303803D01*
X119614504Y-75327007D01*
X119606446Y-75349529D01*
X119596218Y-75371153D01*
X119583921Y-75391670D01*
X119569671Y-75410883D01*
X119553607Y-75428607D01*
X119535883Y-75444671D01*
X119516670Y-75458921D01*
X119496153Y-75471218D01*
X119474529Y-75481446D01*
X119452007Y-75489504D01*
X119428803Y-75495316D01*
X119405142Y-75498826D01*
X119381250Y-75500000D01*
X118893750Y-75500000D01*
X118869858Y-75498826D01*
X118846197Y-75495316D01*
X118822993Y-75489504D01*
X118800471Y-75481446D01*
X118778847Y-75471218D01*
X118758330Y-75458921D01*
X118739117Y-75444671D01*
X118721393Y-75428607D01*
X118705329Y-75410883D01*
X118691079Y-75391670D01*
X118678782Y-75371153D01*
X118668554Y-75349529D01*
X118660496Y-75327007D01*
X118654684Y-75303803D01*
X118651174Y-75280142D01*
X118650000Y-75256250D01*
X118650000Y-74343750D01*
X118651174Y-74319858D01*
X118654684Y-74296197D01*
X118660496Y-74272993D01*
X118668554Y-74250471D01*
X118678782Y-74228847D01*
X118691079Y-74208330D01*
X118705329Y-74189117D01*
X118721393Y-74171393D01*
X118739117Y-74155329D01*
X118758330Y-74141079D01*
X118778847Y-74128782D01*
X118800471Y-74118554D01*
X118822993Y-74110496D01*
X118846197Y-74104684D01*
X118869858Y-74101174D01*
X118893750Y-74100000D01*
X119381250Y-74100000D01*
X119405142Y-74101174D01*
X119405142Y-74101174D01*
G37*
D11*
X119137500Y-74800000D03*
D10*
G36*
X117530142Y-74101174D02*
G01*
X117553803Y-74104684D01*
X117577007Y-74110496D01*
X117599529Y-74118554D01*
X117621153Y-74128782D01*
X117641670Y-74141079D01*
X117660883Y-74155329D01*
X117678607Y-74171393D01*
X117694671Y-74189117D01*
X117708921Y-74208330D01*
X117721218Y-74228847D01*
X117731446Y-74250471D01*
X117739504Y-74272993D01*
X117745316Y-74296197D01*
X117748826Y-74319858D01*
X117750000Y-74343750D01*
X117750000Y-75256250D01*
X117748826Y-75280142D01*
X117745316Y-75303803D01*
X117739504Y-75327007D01*
X117731446Y-75349529D01*
X117721218Y-75371153D01*
X117708921Y-75391670D01*
X117694671Y-75410883D01*
X117678607Y-75428607D01*
X117660883Y-75444671D01*
X117641670Y-75458921D01*
X117621153Y-75471218D01*
X117599529Y-75481446D01*
X117577007Y-75489504D01*
X117553803Y-75495316D01*
X117530142Y-75498826D01*
X117506250Y-75500000D01*
X117018750Y-75500000D01*
X116994858Y-75498826D01*
X116971197Y-75495316D01*
X116947993Y-75489504D01*
X116925471Y-75481446D01*
X116903847Y-75471218D01*
X116883330Y-75458921D01*
X116864117Y-75444671D01*
X116846393Y-75428607D01*
X116830329Y-75410883D01*
X116816079Y-75391670D01*
X116803782Y-75371153D01*
X116793554Y-75349529D01*
X116785496Y-75327007D01*
X116779684Y-75303803D01*
X116776174Y-75280142D01*
X116775000Y-75256250D01*
X116775000Y-74343750D01*
X116776174Y-74319858D01*
X116779684Y-74296197D01*
X116785496Y-74272993D01*
X116793554Y-74250471D01*
X116803782Y-74228847D01*
X116816079Y-74208330D01*
X116830329Y-74189117D01*
X116846393Y-74171393D01*
X116864117Y-74155329D01*
X116883330Y-74141079D01*
X116903847Y-74128782D01*
X116925471Y-74118554D01*
X116947993Y-74110496D01*
X116971197Y-74104684D01*
X116994858Y-74101174D01*
X117018750Y-74100000D01*
X117506250Y-74100000D01*
X117530142Y-74101174D01*
X117530142Y-74101174D01*
G37*
D11*
X117262500Y-74800000D03*
D10*
G36*
X115176958Y-88130710D02*
G01*
X115191276Y-88132834D01*
X115205317Y-88136351D01*
X115218946Y-88141228D01*
X115232031Y-88147417D01*
X115244447Y-88154858D01*
X115256073Y-88163481D01*
X115266798Y-88173202D01*
X115276519Y-88183927D01*
X115285142Y-88195553D01*
X115292583Y-88207969D01*
X115298772Y-88221054D01*
X115303649Y-88234683D01*
X115307166Y-88248724D01*
X115309290Y-88263042D01*
X115310000Y-88277500D01*
X115310000Y-88622500D01*
X115309290Y-88636958D01*
X115307166Y-88651276D01*
X115303649Y-88665317D01*
X115298772Y-88678946D01*
X115292583Y-88692031D01*
X115285142Y-88704447D01*
X115276519Y-88716073D01*
X115266798Y-88726798D01*
X115256073Y-88736519D01*
X115244447Y-88745142D01*
X115232031Y-88752583D01*
X115218946Y-88758772D01*
X115205317Y-88763649D01*
X115191276Y-88767166D01*
X115176958Y-88769290D01*
X115162500Y-88770000D01*
X114867500Y-88770000D01*
X114853042Y-88769290D01*
X114838724Y-88767166D01*
X114824683Y-88763649D01*
X114811054Y-88758772D01*
X114797969Y-88752583D01*
X114785553Y-88745142D01*
X114773927Y-88736519D01*
X114763202Y-88726798D01*
X114753481Y-88716073D01*
X114744858Y-88704447D01*
X114737417Y-88692031D01*
X114731228Y-88678946D01*
X114726351Y-88665317D01*
X114722834Y-88651276D01*
X114720710Y-88636958D01*
X114720000Y-88622500D01*
X114720000Y-88277500D01*
X114720710Y-88263042D01*
X114722834Y-88248724D01*
X114726351Y-88234683D01*
X114731228Y-88221054D01*
X114737417Y-88207969D01*
X114744858Y-88195553D01*
X114753481Y-88183927D01*
X114763202Y-88173202D01*
X114773927Y-88163481D01*
X114785553Y-88154858D01*
X114797969Y-88147417D01*
X114811054Y-88141228D01*
X114824683Y-88136351D01*
X114838724Y-88132834D01*
X114853042Y-88130710D01*
X114867500Y-88130000D01*
X115162500Y-88130000D01*
X115176958Y-88130710D01*
X115176958Y-88130710D01*
G37*
D12*
X115015000Y-88450000D03*
D10*
G36*
X116146958Y-88130710D02*
G01*
X116161276Y-88132834D01*
X116175317Y-88136351D01*
X116188946Y-88141228D01*
X116202031Y-88147417D01*
X116214447Y-88154858D01*
X116226073Y-88163481D01*
X116236798Y-88173202D01*
X116246519Y-88183927D01*
X116255142Y-88195553D01*
X116262583Y-88207969D01*
X116268772Y-88221054D01*
X116273649Y-88234683D01*
X116277166Y-88248724D01*
X116279290Y-88263042D01*
X116280000Y-88277500D01*
X116280000Y-88622500D01*
X116279290Y-88636958D01*
X116277166Y-88651276D01*
X116273649Y-88665317D01*
X116268772Y-88678946D01*
X116262583Y-88692031D01*
X116255142Y-88704447D01*
X116246519Y-88716073D01*
X116236798Y-88726798D01*
X116226073Y-88736519D01*
X116214447Y-88745142D01*
X116202031Y-88752583D01*
X116188946Y-88758772D01*
X116175317Y-88763649D01*
X116161276Y-88767166D01*
X116146958Y-88769290D01*
X116132500Y-88770000D01*
X115837500Y-88770000D01*
X115823042Y-88769290D01*
X115808724Y-88767166D01*
X115794683Y-88763649D01*
X115781054Y-88758772D01*
X115767969Y-88752583D01*
X115755553Y-88745142D01*
X115743927Y-88736519D01*
X115733202Y-88726798D01*
X115723481Y-88716073D01*
X115714858Y-88704447D01*
X115707417Y-88692031D01*
X115701228Y-88678946D01*
X115696351Y-88665317D01*
X115692834Y-88651276D01*
X115690710Y-88636958D01*
X115690000Y-88622500D01*
X115690000Y-88277500D01*
X115690710Y-88263042D01*
X115692834Y-88248724D01*
X115696351Y-88234683D01*
X115701228Y-88221054D01*
X115707417Y-88207969D01*
X115714858Y-88195553D01*
X115723481Y-88183927D01*
X115733202Y-88173202D01*
X115743927Y-88163481D01*
X115755553Y-88154858D01*
X115767969Y-88147417D01*
X115781054Y-88141228D01*
X115794683Y-88136351D01*
X115808724Y-88132834D01*
X115823042Y-88130710D01*
X115837500Y-88130000D01*
X116132500Y-88130000D01*
X116146958Y-88130710D01*
X116146958Y-88130710D01*
G37*
D12*
X115985000Y-88450000D03*
D10*
G36*
X118046958Y-86480710D02*
G01*
X118061276Y-86482834D01*
X118075317Y-86486351D01*
X118088946Y-86491228D01*
X118102031Y-86497417D01*
X118114447Y-86504858D01*
X118126073Y-86513481D01*
X118136798Y-86523202D01*
X118146519Y-86533927D01*
X118155142Y-86545553D01*
X118162583Y-86557969D01*
X118168772Y-86571054D01*
X118173649Y-86584683D01*
X118177166Y-86598724D01*
X118179290Y-86613042D01*
X118180000Y-86627500D01*
X118180000Y-86972500D01*
X118179290Y-86986958D01*
X118177166Y-87001276D01*
X118173649Y-87015317D01*
X118168772Y-87028946D01*
X118162583Y-87042031D01*
X118155142Y-87054447D01*
X118146519Y-87066073D01*
X118136798Y-87076798D01*
X118126073Y-87086519D01*
X118114447Y-87095142D01*
X118102031Y-87102583D01*
X118088946Y-87108772D01*
X118075317Y-87113649D01*
X118061276Y-87117166D01*
X118046958Y-87119290D01*
X118032500Y-87120000D01*
X117737500Y-87120000D01*
X117723042Y-87119290D01*
X117708724Y-87117166D01*
X117694683Y-87113649D01*
X117681054Y-87108772D01*
X117667969Y-87102583D01*
X117655553Y-87095142D01*
X117643927Y-87086519D01*
X117633202Y-87076798D01*
X117623481Y-87066073D01*
X117614858Y-87054447D01*
X117607417Y-87042031D01*
X117601228Y-87028946D01*
X117596351Y-87015317D01*
X117592834Y-87001276D01*
X117590710Y-86986958D01*
X117590000Y-86972500D01*
X117590000Y-86627500D01*
X117590710Y-86613042D01*
X117592834Y-86598724D01*
X117596351Y-86584683D01*
X117601228Y-86571054D01*
X117607417Y-86557969D01*
X117614858Y-86545553D01*
X117623481Y-86533927D01*
X117633202Y-86523202D01*
X117643927Y-86513481D01*
X117655553Y-86504858D01*
X117667969Y-86497417D01*
X117681054Y-86491228D01*
X117694683Y-86486351D01*
X117708724Y-86482834D01*
X117723042Y-86480710D01*
X117737500Y-86480000D01*
X118032500Y-86480000D01*
X118046958Y-86480710D01*
X118046958Y-86480710D01*
G37*
D12*
X117885000Y-86800000D03*
D10*
G36*
X117076958Y-86480710D02*
G01*
X117091276Y-86482834D01*
X117105317Y-86486351D01*
X117118946Y-86491228D01*
X117132031Y-86497417D01*
X117144447Y-86504858D01*
X117156073Y-86513481D01*
X117166798Y-86523202D01*
X117176519Y-86533927D01*
X117185142Y-86545553D01*
X117192583Y-86557969D01*
X117198772Y-86571054D01*
X117203649Y-86584683D01*
X117207166Y-86598724D01*
X117209290Y-86613042D01*
X117210000Y-86627500D01*
X117210000Y-86972500D01*
X117209290Y-86986958D01*
X117207166Y-87001276D01*
X117203649Y-87015317D01*
X117198772Y-87028946D01*
X117192583Y-87042031D01*
X117185142Y-87054447D01*
X117176519Y-87066073D01*
X117166798Y-87076798D01*
X117156073Y-87086519D01*
X117144447Y-87095142D01*
X117132031Y-87102583D01*
X117118946Y-87108772D01*
X117105317Y-87113649D01*
X117091276Y-87117166D01*
X117076958Y-87119290D01*
X117062500Y-87120000D01*
X116767500Y-87120000D01*
X116753042Y-87119290D01*
X116738724Y-87117166D01*
X116724683Y-87113649D01*
X116711054Y-87108772D01*
X116697969Y-87102583D01*
X116685553Y-87095142D01*
X116673927Y-87086519D01*
X116663202Y-87076798D01*
X116653481Y-87066073D01*
X116644858Y-87054447D01*
X116637417Y-87042031D01*
X116631228Y-87028946D01*
X116626351Y-87015317D01*
X116622834Y-87001276D01*
X116620710Y-86986958D01*
X116620000Y-86972500D01*
X116620000Y-86627500D01*
X116620710Y-86613042D01*
X116622834Y-86598724D01*
X116626351Y-86584683D01*
X116631228Y-86571054D01*
X116637417Y-86557969D01*
X116644858Y-86545553D01*
X116653481Y-86533927D01*
X116663202Y-86523202D01*
X116673927Y-86513481D01*
X116685553Y-86504858D01*
X116697969Y-86497417D01*
X116711054Y-86491228D01*
X116724683Y-86486351D01*
X116738724Y-86482834D01*
X116753042Y-86480710D01*
X116767500Y-86480000D01*
X117062500Y-86480000D01*
X117076958Y-86480710D01*
X117076958Y-86480710D01*
G37*
D12*
X116915000Y-86800000D03*
D10*
G36*
X117530142Y-79301174D02*
G01*
X117553803Y-79304684D01*
X117577007Y-79310496D01*
X117599529Y-79318554D01*
X117621153Y-79328782D01*
X117641670Y-79341079D01*
X117660883Y-79355329D01*
X117678607Y-79371393D01*
X117694671Y-79389117D01*
X117708921Y-79408330D01*
X117721218Y-79428847D01*
X117731446Y-79450471D01*
X117739504Y-79472993D01*
X117745316Y-79496197D01*
X117748826Y-79519858D01*
X117750000Y-79543750D01*
X117750000Y-80456250D01*
X117748826Y-80480142D01*
X117745316Y-80503803D01*
X117739504Y-80527007D01*
X117731446Y-80549529D01*
X117721218Y-80571153D01*
X117708921Y-80591670D01*
X117694671Y-80610883D01*
X117678607Y-80628607D01*
X117660883Y-80644671D01*
X117641670Y-80658921D01*
X117621153Y-80671218D01*
X117599529Y-80681446D01*
X117577007Y-80689504D01*
X117553803Y-80695316D01*
X117530142Y-80698826D01*
X117506250Y-80700000D01*
X117018750Y-80700000D01*
X116994858Y-80698826D01*
X116971197Y-80695316D01*
X116947993Y-80689504D01*
X116925471Y-80681446D01*
X116903847Y-80671218D01*
X116883330Y-80658921D01*
X116864117Y-80644671D01*
X116846393Y-80628607D01*
X116830329Y-80610883D01*
X116816079Y-80591670D01*
X116803782Y-80571153D01*
X116793554Y-80549529D01*
X116785496Y-80527007D01*
X116779684Y-80503803D01*
X116776174Y-80480142D01*
X116775000Y-80456250D01*
X116775000Y-79543750D01*
X116776174Y-79519858D01*
X116779684Y-79496197D01*
X116785496Y-79472993D01*
X116793554Y-79450471D01*
X116803782Y-79428847D01*
X116816079Y-79408330D01*
X116830329Y-79389117D01*
X116846393Y-79371393D01*
X116864117Y-79355329D01*
X116883330Y-79341079D01*
X116903847Y-79328782D01*
X116925471Y-79318554D01*
X116947993Y-79310496D01*
X116971197Y-79304684D01*
X116994858Y-79301174D01*
X117018750Y-79300000D01*
X117506250Y-79300000D01*
X117530142Y-79301174D01*
X117530142Y-79301174D01*
G37*
D11*
X117262500Y-80000000D03*
D10*
G36*
X119405142Y-79301174D02*
G01*
X119428803Y-79304684D01*
X119452007Y-79310496D01*
X119474529Y-79318554D01*
X119496153Y-79328782D01*
X119516670Y-79341079D01*
X119535883Y-79355329D01*
X119553607Y-79371393D01*
X119569671Y-79389117D01*
X119583921Y-79408330D01*
X119596218Y-79428847D01*
X119606446Y-79450471D01*
X119614504Y-79472993D01*
X119620316Y-79496197D01*
X119623826Y-79519858D01*
X119625000Y-79543750D01*
X119625000Y-80456250D01*
X119623826Y-80480142D01*
X119620316Y-80503803D01*
X119614504Y-80527007D01*
X119606446Y-80549529D01*
X119596218Y-80571153D01*
X119583921Y-80591670D01*
X119569671Y-80610883D01*
X119553607Y-80628607D01*
X119535883Y-80644671D01*
X119516670Y-80658921D01*
X119496153Y-80671218D01*
X119474529Y-80681446D01*
X119452007Y-80689504D01*
X119428803Y-80695316D01*
X119405142Y-80698826D01*
X119381250Y-80700000D01*
X118893750Y-80700000D01*
X118869858Y-80698826D01*
X118846197Y-80695316D01*
X118822993Y-80689504D01*
X118800471Y-80681446D01*
X118778847Y-80671218D01*
X118758330Y-80658921D01*
X118739117Y-80644671D01*
X118721393Y-80628607D01*
X118705329Y-80610883D01*
X118691079Y-80591670D01*
X118678782Y-80571153D01*
X118668554Y-80549529D01*
X118660496Y-80527007D01*
X118654684Y-80503803D01*
X118651174Y-80480142D01*
X118650000Y-80456250D01*
X118650000Y-79543750D01*
X118651174Y-79519858D01*
X118654684Y-79496197D01*
X118660496Y-79472993D01*
X118668554Y-79450471D01*
X118678782Y-79428847D01*
X118691079Y-79408330D01*
X118705329Y-79389117D01*
X118721393Y-79371393D01*
X118739117Y-79355329D01*
X118758330Y-79341079D01*
X118778847Y-79328782D01*
X118800471Y-79318554D01*
X118822993Y-79310496D01*
X118846197Y-79304684D01*
X118869858Y-79301174D01*
X118893750Y-79300000D01*
X119381250Y-79300000D01*
X119405142Y-79301174D01*
X119405142Y-79301174D01*
G37*
D11*
X119137500Y-80000000D03*
D10*
G36*
X122246958Y-82180710D02*
G01*
X122261276Y-82182834D01*
X122275317Y-82186351D01*
X122288946Y-82191228D01*
X122302031Y-82197417D01*
X122314447Y-82204858D01*
X122326073Y-82213481D01*
X122336798Y-82223202D01*
X122346519Y-82233927D01*
X122355142Y-82245553D01*
X122362583Y-82257969D01*
X122368772Y-82271054D01*
X122373649Y-82284683D01*
X122377166Y-82298724D01*
X122379290Y-82313042D01*
X122380000Y-82327500D01*
X122380000Y-82672500D01*
X122379290Y-82686958D01*
X122377166Y-82701276D01*
X122373649Y-82715317D01*
X122368772Y-82728946D01*
X122362583Y-82742031D01*
X122355142Y-82754447D01*
X122346519Y-82766073D01*
X122336798Y-82776798D01*
X122326073Y-82786519D01*
X122314447Y-82795142D01*
X122302031Y-82802583D01*
X122288946Y-82808772D01*
X122275317Y-82813649D01*
X122261276Y-82817166D01*
X122246958Y-82819290D01*
X122232500Y-82820000D01*
X121937500Y-82820000D01*
X121923042Y-82819290D01*
X121908724Y-82817166D01*
X121894683Y-82813649D01*
X121881054Y-82808772D01*
X121867969Y-82802583D01*
X121855553Y-82795142D01*
X121843927Y-82786519D01*
X121833202Y-82776798D01*
X121823481Y-82766073D01*
X121814858Y-82754447D01*
X121807417Y-82742031D01*
X121801228Y-82728946D01*
X121796351Y-82715317D01*
X121792834Y-82701276D01*
X121790710Y-82686958D01*
X121790000Y-82672500D01*
X121790000Y-82327500D01*
X121790710Y-82313042D01*
X121792834Y-82298724D01*
X121796351Y-82284683D01*
X121801228Y-82271054D01*
X121807417Y-82257969D01*
X121814858Y-82245553D01*
X121823481Y-82233927D01*
X121833202Y-82223202D01*
X121843927Y-82213481D01*
X121855553Y-82204858D01*
X121867969Y-82197417D01*
X121881054Y-82191228D01*
X121894683Y-82186351D01*
X121908724Y-82182834D01*
X121923042Y-82180710D01*
X121937500Y-82180000D01*
X122232500Y-82180000D01*
X122246958Y-82180710D01*
X122246958Y-82180710D01*
G37*
D12*
X122085000Y-82500000D03*
D10*
G36*
X121276958Y-82180710D02*
G01*
X121291276Y-82182834D01*
X121305317Y-82186351D01*
X121318946Y-82191228D01*
X121332031Y-82197417D01*
X121344447Y-82204858D01*
X121356073Y-82213481D01*
X121366798Y-82223202D01*
X121376519Y-82233927D01*
X121385142Y-82245553D01*
X121392583Y-82257969D01*
X121398772Y-82271054D01*
X121403649Y-82284683D01*
X121407166Y-82298724D01*
X121409290Y-82313042D01*
X121410000Y-82327500D01*
X121410000Y-82672500D01*
X121409290Y-82686958D01*
X121407166Y-82701276D01*
X121403649Y-82715317D01*
X121398772Y-82728946D01*
X121392583Y-82742031D01*
X121385142Y-82754447D01*
X121376519Y-82766073D01*
X121366798Y-82776798D01*
X121356073Y-82786519D01*
X121344447Y-82795142D01*
X121332031Y-82802583D01*
X121318946Y-82808772D01*
X121305317Y-82813649D01*
X121291276Y-82817166D01*
X121276958Y-82819290D01*
X121262500Y-82820000D01*
X120967500Y-82820000D01*
X120953042Y-82819290D01*
X120938724Y-82817166D01*
X120924683Y-82813649D01*
X120911054Y-82808772D01*
X120897969Y-82802583D01*
X120885553Y-82795142D01*
X120873927Y-82786519D01*
X120863202Y-82776798D01*
X120853481Y-82766073D01*
X120844858Y-82754447D01*
X120837417Y-82742031D01*
X120831228Y-82728946D01*
X120826351Y-82715317D01*
X120822834Y-82701276D01*
X120820710Y-82686958D01*
X120820000Y-82672500D01*
X120820000Y-82327500D01*
X120820710Y-82313042D01*
X120822834Y-82298724D01*
X120826351Y-82284683D01*
X120831228Y-82271054D01*
X120837417Y-82257969D01*
X120844858Y-82245553D01*
X120853481Y-82233927D01*
X120863202Y-82223202D01*
X120873927Y-82213481D01*
X120885553Y-82204858D01*
X120897969Y-82197417D01*
X120911054Y-82191228D01*
X120924683Y-82186351D01*
X120938724Y-82182834D01*
X120953042Y-82180710D01*
X120967500Y-82180000D01*
X121262500Y-82180000D01*
X121276958Y-82180710D01*
X121276958Y-82180710D01*
G37*
D12*
X121115000Y-82500000D03*
D10*
G36*
X122246958Y-85280710D02*
G01*
X122261276Y-85282834D01*
X122275317Y-85286351D01*
X122288946Y-85291228D01*
X122302031Y-85297417D01*
X122314447Y-85304858D01*
X122326073Y-85313481D01*
X122336798Y-85323202D01*
X122346519Y-85333927D01*
X122355142Y-85345553D01*
X122362583Y-85357969D01*
X122368772Y-85371054D01*
X122373649Y-85384683D01*
X122377166Y-85398724D01*
X122379290Y-85413042D01*
X122380000Y-85427500D01*
X122380000Y-85772500D01*
X122379290Y-85786958D01*
X122377166Y-85801276D01*
X122373649Y-85815317D01*
X122368772Y-85828946D01*
X122362583Y-85842031D01*
X122355142Y-85854447D01*
X122346519Y-85866073D01*
X122336798Y-85876798D01*
X122326073Y-85886519D01*
X122314447Y-85895142D01*
X122302031Y-85902583D01*
X122288946Y-85908772D01*
X122275317Y-85913649D01*
X122261276Y-85917166D01*
X122246958Y-85919290D01*
X122232500Y-85920000D01*
X121937500Y-85920000D01*
X121923042Y-85919290D01*
X121908724Y-85917166D01*
X121894683Y-85913649D01*
X121881054Y-85908772D01*
X121867969Y-85902583D01*
X121855553Y-85895142D01*
X121843927Y-85886519D01*
X121833202Y-85876798D01*
X121823481Y-85866073D01*
X121814858Y-85854447D01*
X121807417Y-85842031D01*
X121801228Y-85828946D01*
X121796351Y-85815317D01*
X121792834Y-85801276D01*
X121790710Y-85786958D01*
X121790000Y-85772500D01*
X121790000Y-85427500D01*
X121790710Y-85413042D01*
X121792834Y-85398724D01*
X121796351Y-85384683D01*
X121801228Y-85371054D01*
X121807417Y-85357969D01*
X121814858Y-85345553D01*
X121823481Y-85333927D01*
X121833202Y-85323202D01*
X121843927Y-85313481D01*
X121855553Y-85304858D01*
X121867969Y-85297417D01*
X121881054Y-85291228D01*
X121894683Y-85286351D01*
X121908724Y-85282834D01*
X121923042Y-85280710D01*
X121937500Y-85280000D01*
X122232500Y-85280000D01*
X122246958Y-85280710D01*
X122246958Y-85280710D01*
G37*
D12*
X122085000Y-85600000D03*
D10*
G36*
X121276958Y-85280710D02*
G01*
X121291276Y-85282834D01*
X121305317Y-85286351D01*
X121318946Y-85291228D01*
X121332031Y-85297417D01*
X121344447Y-85304858D01*
X121356073Y-85313481D01*
X121366798Y-85323202D01*
X121376519Y-85333927D01*
X121385142Y-85345553D01*
X121392583Y-85357969D01*
X121398772Y-85371054D01*
X121403649Y-85384683D01*
X121407166Y-85398724D01*
X121409290Y-85413042D01*
X121410000Y-85427500D01*
X121410000Y-85772500D01*
X121409290Y-85786958D01*
X121407166Y-85801276D01*
X121403649Y-85815317D01*
X121398772Y-85828946D01*
X121392583Y-85842031D01*
X121385142Y-85854447D01*
X121376519Y-85866073D01*
X121366798Y-85876798D01*
X121356073Y-85886519D01*
X121344447Y-85895142D01*
X121332031Y-85902583D01*
X121318946Y-85908772D01*
X121305317Y-85913649D01*
X121291276Y-85917166D01*
X121276958Y-85919290D01*
X121262500Y-85920000D01*
X120967500Y-85920000D01*
X120953042Y-85919290D01*
X120938724Y-85917166D01*
X120924683Y-85913649D01*
X120911054Y-85908772D01*
X120897969Y-85902583D01*
X120885553Y-85895142D01*
X120873927Y-85886519D01*
X120863202Y-85876798D01*
X120853481Y-85866073D01*
X120844858Y-85854447D01*
X120837417Y-85842031D01*
X120831228Y-85828946D01*
X120826351Y-85815317D01*
X120822834Y-85801276D01*
X120820710Y-85786958D01*
X120820000Y-85772500D01*
X120820000Y-85427500D01*
X120820710Y-85413042D01*
X120822834Y-85398724D01*
X120826351Y-85384683D01*
X120831228Y-85371054D01*
X120837417Y-85357969D01*
X120844858Y-85345553D01*
X120853481Y-85333927D01*
X120863202Y-85323202D01*
X120873927Y-85313481D01*
X120885553Y-85304858D01*
X120897969Y-85297417D01*
X120911054Y-85291228D01*
X120924683Y-85286351D01*
X120938724Y-85282834D01*
X120953042Y-85280710D01*
X120967500Y-85280000D01*
X121262500Y-85280000D01*
X121276958Y-85280710D01*
X121276958Y-85280710D01*
G37*
D12*
X121115000Y-85600000D03*
D10*
G36*
X124886958Y-88120710D02*
G01*
X124901276Y-88122834D01*
X124915317Y-88126351D01*
X124928946Y-88131228D01*
X124942031Y-88137417D01*
X124954447Y-88144858D01*
X124966073Y-88153481D01*
X124976798Y-88163202D01*
X124986519Y-88173927D01*
X124995142Y-88185553D01*
X125002583Y-88197969D01*
X125008772Y-88211054D01*
X125013649Y-88224683D01*
X125017166Y-88238724D01*
X125019290Y-88253042D01*
X125020000Y-88267500D01*
X125020000Y-88612500D01*
X125019290Y-88626958D01*
X125017166Y-88641276D01*
X125013649Y-88655317D01*
X125008772Y-88668946D01*
X125002583Y-88682031D01*
X124995142Y-88694447D01*
X124986519Y-88706073D01*
X124976798Y-88716798D01*
X124966073Y-88726519D01*
X124954447Y-88735142D01*
X124942031Y-88742583D01*
X124928946Y-88748772D01*
X124915317Y-88753649D01*
X124901276Y-88757166D01*
X124886958Y-88759290D01*
X124872500Y-88760000D01*
X124577500Y-88760000D01*
X124563042Y-88759290D01*
X124548724Y-88757166D01*
X124534683Y-88753649D01*
X124521054Y-88748772D01*
X124507969Y-88742583D01*
X124495553Y-88735142D01*
X124483927Y-88726519D01*
X124473202Y-88716798D01*
X124463481Y-88706073D01*
X124454858Y-88694447D01*
X124447417Y-88682031D01*
X124441228Y-88668946D01*
X124436351Y-88655317D01*
X124432834Y-88641276D01*
X124430710Y-88626958D01*
X124430000Y-88612500D01*
X124430000Y-88267500D01*
X124430710Y-88253042D01*
X124432834Y-88238724D01*
X124436351Y-88224683D01*
X124441228Y-88211054D01*
X124447417Y-88197969D01*
X124454858Y-88185553D01*
X124463481Y-88173927D01*
X124473202Y-88163202D01*
X124483927Y-88153481D01*
X124495553Y-88144858D01*
X124507969Y-88137417D01*
X124521054Y-88131228D01*
X124534683Y-88126351D01*
X124548724Y-88122834D01*
X124563042Y-88120710D01*
X124577500Y-88120000D01*
X124872500Y-88120000D01*
X124886958Y-88120710D01*
X124886958Y-88120710D01*
G37*
D12*
X124725000Y-88440000D03*
D10*
G36*
X123916958Y-88120710D02*
G01*
X123931276Y-88122834D01*
X123945317Y-88126351D01*
X123958946Y-88131228D01*
X123972031Y-88137417D01*
X123984447Y-88144858D01*
X123996073Y-88153481D01*
X124006798Y-88163202D01*
X124016519Y-88173927D01*
X124025142Y-88185553D01*
X124032583Y-88197969D01*
X124038772Y-88211054D01*
X124043649Y-88224683D01*
X124047166Y-88238724D01*
X124049290Y-88253042D01*
X124050000Y-88267500D01*
X124050000Y-88612500D01*
X124049290Y-88626958D01*
X124047166Y-88641276D01*
X124043649Y-88655317D01*
X124038772Y-88668946D01*
X124032583Y-88682031D01*
X124025142Y-88694447D01*
X124016519Y-88706073D01*
X124006798Y-88716798D01*
X123996073Y-88726519D01*
X123984447Y-88735142D01*
X123972031Y-88742583D01*
X123958946Y-88748772D01*
X123945317Y-88753649D01*
X123931276Y-88757166D01*
X123916958Y-88759290D01*
X123902500Y-88760000D01*
X123607500Y-88760000D01*
X123593042Y-88759290D01*
X123578724Y-88757166D01*
X123564683Y-88753649D01*
X123551054Y-88748772D01*
X123537969Y-88742583D01*
X123525553Y-88735142D01*
X123513927Y-88726519D01*
X123503202Y-88716798D01*
X123493481Y-88706073D01*
X123484858Y-88694447D01*
X123477417Y-88682031D01*
X123471228Y-88668946D01*
X123466351Y-88655317D01*
X123462834Y-88641276D01*
X123460710Y-88626958D01*
X123460000Y-88612500D01*
X123460000Y-88267500D01*
X123460710Y-88253042D01*
X123462834Y-88238724D01*
X123466351Y-88224683D01*
X123471228Y-88211054D01*
X123477417Y-88197969D01*
X123484858Y-88185553D01*
X123493481Y-88173927D01*
X123503202Y-88163202D01*
X123513927Y-88153481D01*
X123525553Y-88144858D01*
X123537969Y-88137417D01*
X123551054Y-88131228D01*
X123564683Y-88126351D01*
X123578724Y-88122834D01*
X123593042Y-88120710D01*
X123607500Y-88120000D01*
X123902500Y-88120000D01*
X123916958Y-88120710D01*
X123916958Y-88120710D01*
G37*
D12*
X123755000Y-88440000D03*
D13*
X119100000Y-78200000D03*
X119100000Y-76600000D03*
D14*
X118850000Y-61450000D03*
X121150000Y-61450000D03*
X123950000Y-61450000D03*
X116050000Y-61450000D03*
D15*
X116900000Y-63700000D03*
X123100000Y-63700000D03*
D16*
X120000000Y-64125000D03*
X118700000Y-64125000D03*
X119350000Y-64125000D03*
X121300000Y-64125000D03*
X120650000Y-64125000D03*
D10*
G36*
X122286958Y-86420710D02*
G01*
X122301276Y-86422834D01*
X122315317Y-86426351D01*
X122328946Y-86431228D01*
X122342031Y-86437417D01*
X122354447Y-86444858D01*
X122366073Y-86453481D01*
X122376798Y-86463202D01*
X122386519Y-86473927D01*
X122395142Y-86485553D01*
X122402583Y-86497969D01*
X122408772Y-86511054D01*
X122413649Y-86524683D01*
X122417166Y-86538724D01*
X122419290Y-86553042D01*
X122420000Y-86567500D01*
X122420000Y-86862500D01*
X122419290Y-86876958D01*
X122417166Y-86891276D01*
X122413649Y-86905317D01*
X122408772Y-86918946D01*
X122402583Y-86932031D01*
X122395142Y-86944447D01*
X122386519Y-86956073D01*
X122376798Y-86966798D01*
X122366073Y-86976519D01*
X122354447Y-86985142D01*
X122342031Y-86992583D01*
X122328946Y-86998772D01*
X122315317Y-87003649D01*
X122301276Y-87007166D01*
X122286958Y-87009290D01*
X122272500Y-87010000D01*
X121927500Y-87010000D01*
X121913042Y-87009290D01*
X121898724Y-87007166D01*
X121884683Y-87003649D01*
X121871054Y-86998772D01*
X121857969Y-86992583D01*
X121845553Y-86985142D01*
X121833927Y-86976519D01*
X121823202Y-86966798D01*
X121813481Y-86956073D01*
X121804858Y-86944447D01*
X121797417Y-86932031D01*
X121791228Y-86918946D01*
X121786351Y-86905317D01*
X121782834Y-86891276D01*
X121780710Y-86876958D01*
X121780000Y-86862500D01*
X121780000Y-86567500D01*
X121780710Y-86553042D01*
X121782834Y-86538724D01*
X121786351Y-86524683D01*
X121791228Y-86511054D01*
X121797417Y-86497969D01*
X121804858Y-86485553D01*
X121813481Y-86473927D01*
X121823202Y-86463202D01*
X121833927Y-86453481D01*
X121845553Y-86444858D01*
X121857969Y-86437417D01*
X121871054Y-86431228D01*
X121884683Y-86426351D01*
X121898724Y-86422834D01*
X121913042Y-86420710D01*
X121927500Y-86420000D01*
X122272500Y-86420000D01*
X122286958Y-86420710D01*
X122286958Y-86420710D01*
G37*
D12*
X122100000Y-86715000D03*
D10*
G36*
X122286958Y-87390710D02*
G01*
X122301276Y-87392834D01*
X122315317Y-87396351D01*
X122328946Y-87401228D01*
X122342031Y-87407417D01*
X122354447Y-87414858D01*
X122366073Y-87423481D01*
X122376798Y-87433202D01*
X122386519Y-87443927D01*
X122395142Y-87455553D01*
X122402583Y-87467969D01*
X122408772Y-87481054D01*
X122413649Y-87494683D01*
X122417166Y-87508724D01*
X122419290Y-87523042D01*
X122420000Y-87537500D01*
X122420000Y-87832500D01*
X122419290Y-87846958D01*
X122417166Y-87861276D01*
X122413649Y-87875317D01*
X122408772Y-87888946D01*
X122402583Y-87902031D01*
X122395142Y-87914447D01*
X122386519Y-87926073D01*
X122376798Y-87936798D01*
X122366073Y-87946519D01*
X122354447Y-87955142D01*
X122342031Y-87962583D01*
X122328946Y-87968772D01*
X122315317Y-87973649D01*
X122301276Y-87977166D01*
X122286958Y-87979290D01*
X122272500Y-87980000D01*
X121927500Y-87980000D01*
X121913042Y-87979290D01*
X121898724Y-87977166D01*
X121884683Y-87973649D01*
X121871054Y-87968772D01*
X121857969Y-87962583D01*
X121845553Y-87955142D01*
X121833927Y-87946519D01*
X121823202Y-87936798D01*
X121813481Y-87926073D01*
X121804858Y-87914447D01*
X121797417Y-87902031D01*
X121791228Y-87888946D01*
X121786351Y-87875317D01*
X121782834Y-87861276D01*
X121780710Y-87846958D01*
X121780000Y-87832500D01*
X121780000Y-87537500D01*
X121780710Y-87523042D01*
X121782834Y-87508724D01*
X121786351Y-87494683D01*
X121791228Y-87481054D01*
X121797417Y-87467969D01*
X121804858Y-87455553D01*
X121813481Y-87443927D01*
X121823202Y-87433202D01*
X121833927Y-87423481D01*
X121845553Y-87414858D01*
X121857969Y-87407417D01*
X121871054Y-87401228D01*
X121884683Y-87396351D01*
X121898724Y-87392834D01*
X121913042Y-87390710D01*
X121927500Y-87390000D01*
X122272500Y-87390000D01*
X122286958Y-87390710D01*
X122286958Y-87390710D01*
G37*
D12*
X122100000Y-87685000D03*
D10*
G36*
X122286958Y-83220710D02*
G01*
X122301276Y-83222834D01*
X122315317Y-83226351D01*
X122328946Y-83231228D01*
X122342031Y-83237417D01*
X122354447Y-83244858D01*
X122366073Y-83253481D01*
X122376798Y-83263202D01*
X122386519Y-83273927D01*
X122395142Y-83285553D01*
X122402583Y-83297969D01*
X122408772Y-83311054D01*
X122413649Y-83324683D01*
X122417166Y-83338724D01*
X122419290Y-83353042D01*
X122420000Y-83367500D01*
X122420000Y-83662500D01*
X122419290Y-83676958D01*
X122417166Y-83691276D01*
X122413649Y-83705317D01*
X122408772Y-83718946D01*
X122402583Y-83732031D01*
X122395142Y-83744447D01*
X122386519Y-83756073D01*
X122376798Y-83766798D01*
X122366073Y-83776519D01*
X122354447Y-83785142D01*
X122342031Y-83792583D01*
X122328946Y-83798772D01*
X122315317Y-83803649D01*
X122301276Y-83807166D01*
X122286958Y-83809290D01*
X122272500Y-83810000D01*
X121927500Y-83810000D01*
X121913042Y-83809290D01*
X121898724Y-83807166D01*
X121884683Y-83803649D01*
X121871054Y-83798772D01*
X121857969Y-83792583D01*
X121845553Y-83785142D01*
X121833927Y-83776519D01*
X121823202Y-83766798D01*
X121813481Y-83756073D01*
X121804858Y-83744447D01*
X121797417Y-83732031D01*
X121791228Y-83718946D01*
X121786351Y-83705317D01*
X121782834Y-83691276D01*
X121780710Y-83676958D01*
X121780000Y-83662500D01*
X121780000Y-83367500D01*
X121780710Y-83353042D01*
X121782834Y-83338724D01*
X121786351Y-83324683D01*
X121791228Y-83311054D01*
X121797417Y-83297969D01*
X121804858Y-83285553D01*
X121813481Y-83273927D01*
X121823202Y-83263202D01*
X121833927Y-83253481D01*
X121845553Y-83244858D01*
X121857969Y-83237417D01*
X121871054Y-83231228D01*
X121884683Y-83226351D01*
X121898724Y-83222834D01*
X121913042Y-83220710D01*
X121927500Y-83220000D01*
X122272500Y-83220000D01*
X122286958Y-83220710D01*
X122286958Y-83220710D01*
G37*
D12*
X122100000Y-83515000D03*
D10*
G36*
X122286958Y-84190710D02*
G01*
X122301276Y-84192834D01*
X122315317Y-84196351D01*
X122328946Y-84201228D01*
X122342031Y-84207417D01*
X122354447Y-84214858D01*
X122366073Y-84223481D01*
X122376798Y-84233202D01*
X122386519Y-84243927D01*
X122395142Y-84255553D01*
X122402583Y-84267969D01*
X122408772Y-84281054D01*
X122413649Y-84294683D01*
X122417166Y-84308724D01*
X122419290Y-84323042D01*
X122420000Y-84337500D01*
X122420000Y-84632500D01*
X122419290Y-84646958D01*
X122417166Y-84661276D01*
X122413649Y-84675317D01*
X122408772Y-84688946D01*
X122402583Y-84702031D01*
X122395142Y-84714447D01*
X122386519Y-84726073D01*
X122376798Y-84736798D01*
X122366073Y-84746519D01*
X122354447Y-84755142D01*
X122342031Y-84762583D01*
X122328946Y-84768772D01*
X122315317Y-84773649D01*
X122301276Y-84777166D01*
X122286958Y-84779290D01*
X122272500Y-84780000D01*
X121927500Y-84780000D01*
X121913042Y-84779290D01*
X121898724Y-84777166D01*
X121884683Y-84773649D01*
X121871054Y-84768772D01*
X121857969Y-84762583D01*
X121845553Y-84755142D01*
X121833927Y-84746519D01*
X121823202Y-84736798D01*
X121813481Y-84726073D01*
X121804858Y-84714447D01*
X121797417Y-84702031D01*
X121791228Y-84688946D01*
X121786351Y-84675317D01*
X121782834Y-84661276D01*
X121780710Y-84646958D01*
X121780000Y-84632500D01*
X121780000Y-84337500D01*
X121780710Y-84323042D01*
X121782834Y-84308724D01*
X121786351Y-84294683D01*
X121791228Y-84281054D01*
X121797417Y-84267969D01*
X121804858Y-84255553D01*
X121813481Y-84243927D01*
X121823202Y-84233202D01*
X121833927Y-84223481D01*
X121845553Y-84214858D01*
X121857969Y-84207417D01*
X121871054Y-84201228D01*
X121884683Y-84196351D01*
X121898724Y-84192834D01*
X121913042Y-84190710D01*
X121927500Y-84190000D01*
X122272500Y-84190000D01*
X122286958Y-84190710D01*
X122286958Y-84190710D01*
G37*
D12*
X122100000Y-84485000D03*
D10*
G36*
X118873822Y-88025433D02*
G01*
X118882558Y-88026729D01*
X118891126Y-88028875D01*
X118899442Y-88031851D01*
X118907426Y-88035627D01*
X118915001Y-88040168D01*
X118922095Y-88045429D01*
X118928640Y-88051360D01*
X118934571Y-88057905D01*
X118939832Y-88064999D01*
X118944373Y-88072574D01*
X118948149Y-88080558D01*
X118951125Y-88088874D01*
X118953271Y-88097442D01*
X118954567Y-88106178D01*
X118955000Y-88115000D01*
X118955000Y-88535000D01*
X118954567Y-88543822D01*
X118953271Y-88552558D01*
X118951125Y-88561126D01*
X118948149Y-88569442D01*
X118944373Y-88577426D01*
X118939832Y-88585001D01*
X118934571Y-88592095D01*
X118928640Y-88598640D01*
X118922095Y-88604571D01*
X118915001Y-88609832D01*
X118907426Y-88614373D01*
X118899442Y-88618149D01*
X118891126Y-88621125D01*
X118882558Y-88623271D01*
X118873822Y-88624567D01*
X118865000Y-88625000D01*
X118685000Y-88625000D01*
X118676178Y-88624567D01*
X118667442Y-88623271D01*
X118658874Y-88621125D01*
X118650558Y-88618149D01*
X118642574Y-88614373D01*
X118634999Y-88609832D01*
X118627905Y-88604571D01*
X118621360Y-88598640D01*
X118615429Y-88592095D01*
X118610168Y-88585001D01*
X118605627Y-88577426D01*
X118601851Y-88569442D01*
X118598875Y-88561126D01*
X118596729Y-88552558D01*
X118595433Y-88543822D01*
X118595000Y-88535000D01*
X118595000Y-88115000D01*
X118595433Y-88106178D01*
X118596729Y-88097442D01*
X118598875Y-88088874D01*
X118601851Y-88080558D01*
X118605627Y-88072574D01*
X118610168Y-88064999D01*
X118615429Y-88057905D01*
X118621360Y-88051360D01*
X118627905Y-88045429D01*
X118634999Y-88040168D01*
X118642574Y-88035627D01*
X118650558Y-88031851D01*
X118658874Y-88028875D01*
X118667442Y-88026729D01*
X118676178Y-88025433D01*
X118685000Y-88025000D01*
X118865000Y-88025000D01*
X118873822Y-88025433D01*
X118873822Y-88025433D01*
G37*
D17*
X118775000Y-88325000D03*
D10*
G36*
X118873822Y-88775433D02*
G01*
X118882558Y-88776729D01*
X118891126Y-88778875D01*
X118899442Y-88781851D01*
X118907426Y-88785627D01*
X118915001Y-88790168D01*
X118922095Y-88795429D01*
X118928640Y-88801360D01*
X118934571Y-88807905D01*
X118939832Y-88814999D01*
X118944373Y-88822574D01*
X118948149Y-88830558D01*
X118951125Y-88838874D01*
X118953271Y-88847442D01*
X118954567Y-88856178D01*
X118955000Y-88865000D01*
X118955000Y-89285000D01*
X118954567Y-89293822D01*
X118953271Y-89302558D01*
X118951125Y-89311126D01*
X118948149Y-89319442D01*
X118944373Y-89327426D01*
X118939832Y-89335001D01*
X118934571Y-89342095D01*
X118928640Y-89348640D01*
X118922095Y-89354571D01*
X118915001Y-89359832D01*
X118907426Y-89364373D01*
X118899442Y-89368149D01*
X118891126Y-89371125D01*
X118882558Y-89373271D01*
X118873822Y-89374567D01*
X118865000Y-89375000D01*
X118685000Y-89375000D01*
X118676178Y-89374567D01*
X118667442Y-89373271D01*
X118658874Y-89371125D01*
X118650558Y-89368149D01*
X118642574Y-89364373D01*
X118634999Y-89359832D01*
X118627905Y-89354571D01*
X118621360Y-89348640D01*
X118615429Y-89342095D01*
X118610168Y-89335001D01*
X118605627Y-89327426D01*
X118601851Y-89319442D01*
X118598875Y-89311126D01*
X118596729Y-89302558D01*
X118595433Y-89293822D01*
X118595000Y-89285000D01*
X118595000Y-88865000D01*
X118595433Y-88856178D01*
X118596729Y-88847442D01*
X118598875Y-88838874D01*
X118601851Y-88830558D01*
X118605627Y-88822574D01*
X118610168Y-88814999D01*
X118615429Y-88807905D01*
X118621360Y-88801360D01*
X118627905Y-88795429D01*
X118634999Y-88790168D01*
X118642574Y-88785627D01*
X118650558Y-88781851D01*
X118658874Y-88778875D01*
X118667442Y-88776729D01*
X118676178Y-88775433D01*
X118685000Y-88775000D01*
X118865000Y-88775000D01*
X118873822Y-88775433D01*
X118873822Y-88775433D01*
G37*
D17*
X118775000Y-89075000D03*
D10*
G36*
X119323822Y-88025433D02*
G01*
X119332558Y-88026729D01*
X119341126Y-88028875D01*
X119349442Y-88031851D01*
X119357426Y-88035627D01*
X119365001Y-88040168D01*
X119372095Y-88045429D01*
X119378640Y-88051360D01*
X119384571Y-88057905D01*
X119389832Y-88064999D01*
X119394373Y-88072574D01*
X119398149Y-88080558D01*
X119401125Y-88088874D01*
X119403271Y-88097442D01*
X119404567Y-88106178D01*
X119405000Y-88115000D01*
X119405000Y-88535000D01*
X119404567Y-88543822D01*
X119403271Y-88552558D01*
X119401125Y-88561126D01*
X119398149Y-88569442D01*
X119394373Y-88577426D01*
X119389832Y-88585001D01*
X119384571Y-88592095D01*
X119378640Y-88598640D01*
X119372095Y-88604571D01*
X119365001Y-88609832D01*
X119357426Y-88614373D01*
X119349442Y-88618149D01*
X119341126Y-88621125D01*
X119332558Y-88623271D01*
X119323822Y-88624567D01*
X119315000Y-88625000D01*
X119135000Y-88625000D01*
X119126178Y-88624567D01*
X119117442Y-88623271D01*
X119108874Y-88621125D01*
X119100558Y-88618149D01*
X119092574Y-88614373D01*
X119084999Y-88609832D01*
X119077905Y-88604571D01*
X119071360Y-88598640D01*
X119065429Y-88592095D01*
X119060168Y-88585001D01*
X119055627Y-88577426D01*
X119051851Y-88569442D01*
X119048875Y-88561126D01*
X119046729Y-88552558D01*
X119045433Y-88543822D01*
X119045000Y-88535000D01*
X119045000Y-88115000D01*
X119045433Y-88106178D01*
X119046729Y-88097442D01*
X119048875Y-88088874D01*
X119051851Y-88080558D01*
X119055627Y-88072574D01*
X119060168Y-88064999D01*
X119065429Y-88057905D01*
X119071360Y-88051360D01*
X119077905Y-88045429D01*
X119084999Y-88040168D01*
X119092574Y-88035627D01*
X119100558Y-88031851D01*
X119108874Y-88028875D01*
X119117442Y-88026729D01*
X119126178Y-88025433D01*
X119135000Y-88025000D01*
X119315000Y-88025000D01*
X119323822Y-88025433D01*
X119323822Y-88025433D01*
G37*
D17*
X119225000Y-88325000D03*
D10*
G36*
X119323822Y-88775433D02*
G01*
X119332558Y-88776729D01*
X119341126Y-88778875D01*
X119349442Y-88781851D01*
X119357426Y-88785627D01*
X119365001Y-88790168D01*
X119372095Y-88795429D01*
X119378640Y-88801360D01*
X119384571Y-88807905D01*
X119389832Y-88814999D01*
X119394373Y-88822574D01*
X119398149Y-88830558D01*
X119401125Y-88838874D01*
X119403271Y-88847442D01*
X119404567Y-88856178D01*
X119405000Y-88865000D01*
X119405000Y-89285000D01*
X119404567Y-89293822D01*
X119403271Y-89302558D01*
X119401125Y-89311126D01*
X119398149Y-89319442D01*
X119394373Y-89327426D01*
X119389832Y-89335001D01*
X119384571Y-89342095D01*
X119378640Y-89348640D01*
X119372095Y-89354571D01*
X119365001Y-89359832D01*
X119357426Y-89364373D01*
X119349442Y-89368149D01*
X119341126Y-89371125D01*
X119332558Y-89373271D01*
X119323822Y-89374567D01*
X119315000Y-89375000D01*
X119135000Y-89375000D01*
X119126178Y-89374567D01*
X119117442Y-89373271D01*
X119108874Y-89371125D01*
X119100558Y-89368149D01*
X119092574Y-89364373D01*
X119084999Y-89359832D01*
X119077905Y-89354571D01*
X119071360Y-89348640D01*
X119065429Y-89342095D01*
X119060168Y-89335001D01*
X119055627Y-89327426D01*
X119051851Y-89319442D01*
X119048875Y-89311126D01*
X119046729Y-89302558D01*
X119045433Y-89293822D01*
X119045000Y-89285000D01*
X119045000Y-88865000D01*
X119045433Y-88856178D01*
X119046729Y-88847442D01*
X119048875Y-88838874D01*
X119051851Y-88830558D01*
X119055627Y-88822574D01*
X119060168Y-88814999D01*
X119065429Y-88807905D01*
X119071360Y-88801360D01*
X119077905Y-88795429D01*
X119084999Y-88790168D01*
X119092574Y-88785627D01*
X119100558Y-88781851D01*
X119108874Y-88778875D01*
X119117442Y-88776729D01*
X119126178Y-88775433D01*
X119135000Y-88775000D01*
X119315000Y-88775000D01*
X119323822Y-88775433D01*
X119323822Y-88775433D01*
G37*
D17*
X119225000Y-89075000D03*
D10*
G36*
X118293626Y-87825301D02*
G01*
X118299693Y-87826201D01*
X118305643Y-87827691D01*
X118311418Y-87829758D01*
X118316962Y-87832380D01*
X118322223Y-87835533D01*
X118327150Y-87839187D01*
X118331694Y-87843306D01*
X118335813Y-87847850D01*
X118339467Y-87852777D01*
X118342620Y-87858038D01*
X118345242Y-87863582D01*
X118347309Y-87869357D01*
X118348799Y-87875307D01*
X118349699Y-87881374D01*
X118350000Y-87887500D01*
X118350000Y-88012500D01*
X118349699Y-88018626D01*
X118348799Y-88024693D01*
X118347309Y-88030643D01*
X118345242Y-88036418D01*
X118342620Y-88041962D01*
X118339467Y-88047223D01*
X118335813Y-88052150D01*
X118331694Y-88056694D01*
X118327150Y-88060813D01*
X118322223Y-88064467D01*
X118316962Y-88067620D01*
X118311418Y-88070242D01*
X118305643Y-88072309D01*
X118299693Y-88073799D01*
X118293626Y-88074699D01*
X118287500Y-88075000D01*
X117712500Y-88075000D01*
X117706374Y-88074699D01*
X117700307Y-88073799D01*
X117694357Y-88072309D01*
X117688582Y-88070242D01*
X117683038Y-88067620D01*
X117677777Y-88064467D01*
X117672850Y-88060813D01*
X117668306Y-88056694D01*
X117664187Y-88052150D01*
X117660533Y-88047223D01*
X117657380Y-88041962D01*
X117654758Y-88036418D01*
X117652691Y-88030643D01*
X117651201Y-88024693D01*
X117650301Y-88018626D01*
X117650000Y-88012500D01*
X117650000Y-87887500D01*
X117650301Y-87881374D01*
X117651201Y-87875307D01*
X117652691Y-87869357D01*
X117654758Y-87863582D01*
X117657380Y-87858038D01*
X117660533Y-87852777D01*
X117664187Y-87847850D01*
X117668306Y-87843306D01*
X117672850Y-87839187D01*
X117677777Y-87835533D01*
X117683038Y-87832380D01*
X117688582Y-87829758D01*
X117694357Y-87827691D01*
X117700307Y-87826201D01*
X117706374Y-87825301D01*
X117712500Y-87825000D01*
X118287500Y-87825000D01*
X118293626Y-87825301D01*
X118293626Y-87825301D01*
G37*
D18*
X118000000Y-87950000D03*
D10*
G36*
X118293626Y-88325301D02*
G01*
X118299693Y-88326201D01*
X118305643Y-88327691D01*
X118311418Y-88329758D01*
X118316962Y-88332380D01*
X118322223Y-88335533D01*
X118327150Y-88339187D01*
X118331694Y-88343306D01*
X118335813Y-88347850D01*
X118339467Y-88352777D01*
X118342620Y-88358038D01*
X118345242Y-88363582D01*
X118347309Y-88369357D01*
X118348799Y-88375307D01*
X118349699Y-88381374D01*
X118350000Y-88387500D01*
X118350000Y-88512500D01*
X118349699Y-88518626D01*
X118348799Y-88524693D01*
X118347309Y-88530643D01*
X118345242Y-88536418D01*
X118342620Y-88541962D01*
X118339467Y-88547223D01*
X118335813Y-88552150D01*
X118331694Y-88556694D01*
X118327150Y-88560813D01*
X118322223Y-88564467D01*
X118316962Y-88567620D01*
X118311418Y-88570242D01*
X118305643Y-88572309D01*
X118299693Y-88573799D01*
X118293626Y-88574699D01*
X118287500Y-88575000D01*
X117712500Y-88575000D01*
X117706374Y-88574699D01*
X117700307Y-88573799D01*
X117694357Y-88572309D01*
X117688582Y-88570242D01*
X117683038Y-88567620D01*
X117677777Y-88564467D01*
X117672850Y-88560813D01*
X117668306Y-88556694D01*
X117664187Y-88552150D01*
X117660533Y-88547223D01*
X117657380Y-88541962D01*
X117654758Y-88536418D01*
X117652691Y-88530643D01*
X117651201Y-88524693D01*
X117650301Y-88518626D01*
X117650000Y-88512500D01*
X117650000Y-88387500D01*
X117650301Y-88381374D01*
X117651201Y-88375307D01*
X117652691Y-88369357D01*
X117654758Y-88363582D01*
X117657380Y-88358038D01*
X117660533Y-88352777D01*
X117664187Y-88347850D01*
X117668306Y-88343306D01*
X117672850Y-88339187D01*
X117677777Y-88335533D01*
X117683038Y-88332380D01*
X117688582Y-88329758D01*
X117694357Y-88327691D01*
X117700307Y-88326201D01*
X117706374Y-88325301D01*
X117712500Y-88325000D01*
X118287500Y-88325000D01*
X118293626Y-88325301D01*
X118293626Y-88325301D01*
G37*
D18*
X118000000Y-88450000D03*
D10*
G36*
X118293626Y-88825301D02*
G01*
X118299693Y-88826201D01*
X118305643Y-88827691D01*
X118311418Y-88829758D01*
X118316962Y-88832380D01*
X118322223Y-88835533D01*
X118327150Y-88839187D01*
X118331694Y-88843306D01*
X118335813Y-88847850D01*
X118339467Y-88852777D01*
X118342620Y-88858038D01*
X118345242Y-88863582D01*
X118347309Y-88869357D01*
X118348799Y-88875307D01*
X118349699Y-88881374D01*
X118350000Y-88887500D01*
X118350000Y-89012500D01*
X118349699Y-89018626D01*
X118348799Y-89024693D01*
X118347309Y-89030643D01*
X118345242Y-89036418D01*
X118342620Y-89041962D01*
X118339467Y-89047223D01*
X118335813Y-89052150D01*
X118331694Y-89056694D01*
X118327150Y-89060813D01*
X118322223Y-89064467D01*
X118316962Y-89067620D01*
X118311418Y-89070242D01*
X118305643Y-89072309D01*
X118299693Y-89073799D01*
X118293626Y-89074699D01*
X118287500Y-89075000D01*
X117712500Y-89075000D01*
X117706374Y-89074699D01*
X117700307Y-89073799D01*
X117694357Y-89072309D01*
X117688582Y-89070242D01*
X117683038Y-89067620D01*
X117677777Y-89064467D01*
X117672850Y-89060813D01*
X117668306Y-89056694D01*
X117664187Y-89052150D01*
X117660533Y-89047223D01*
X117657380Y-89041962D01*
X117654758Y-89036418D01*
X117652691Y-89030643D01*
X117651201Y-89024693D01*
X117650301Y-89018626D01*
X117650000Y-89012500D01*
X117650000Y-88887500D01*
X117650301Y-88881374D01*
X117651201Y-88875307D01*
X117652691Y-88869357D01*
X117654758Y-88863582D01*
X117657380Y-88858038D01*
X117660533Y-88852777D01*
X117664187Y-88847850D01*
X117668306Y-88843306D01*
X117672850Y-88839187D01*
X117677777Y-88835533D01*
X117683038Y-88832380D01*
X117688582Y-88829758D01*
X117694357Y-88827691D01*
X117700307Y-88826201D01*
X117706374Y-88825301D01*
X117712500Y-88825000D01*
X118287500Y-88825000D01*
X118293626Y-88825301D01*
X118293626Y-88825301D01*
G37*
D18*
X118000000Y-88950000D03*
D10*
G36*
X118293626Y-89325301D02*
G01*
X118299693Y-89326201D01*
X118305643Y-89327691D01*
X118311418Y-89329758D01*
X118316962Y-89332380D01*
X118322223Y-89335533D01*
X118327150Y-89339187D01*
X118331694Y-89343306D01*
X118335813Y-89347850D01*
X118339467Y-89352777D01*
X118342620Y-89358038D01*
X118345242Y-89363582D01*
X118347309Y-89369357D01*
X118348799Y-89375307D01*
X118349699Y-89381374D01*
X118350000Y-89387500D01*
X118350000Y-89512500D01*
X118349699Y-89518626D01*
X118348799Y-89524693D01*
X118347309Y-89530643D01*
X118345242Y-89536418D01*
X118342620Y-89541962D01*
X118339467Y-89547223D01*
X118335813Y-89552150D01*
X118331694Y-89556694D01*
X118327150Y-89560813D01*
X118322223Y-89564467D01*
X118316962Y-89567620D01*
X118311418Y-89570242D01*
X118305643Y-89572309D01*
X118299693Y-89573799D01*
X118293626Y-89574699D01*
X118287500Y-89575000D01*
X117712500Y-89575000D01*
X117706374Y-89574699D01*
X117700307Y-89573799D01*
X117694357Y-89572309D01*
X117688582Y-89570242D01*
X117683038Y-89567620D01*
X117677777Y-89564467D01*
X117672850Y-89560813D01*
X117668306Y-89556694D01*
X117664187Y-89552150D01*
X117660533Y-89547223D01*
X117657380Y-89541962D01*
X117654758Y-89536418D01*
X117652691Y-89530643D01*
X117651201Y-89524693D01*
X117650301Y-89518626D01*
X117650000Y-89512500D01*
X117650000Y-89387500D01*
X117650301Y-89381374D01*
X117651201Y-89375307D01*
X117652691Y-89369357D01*
X117654758Y-89363582D01*
X117657380Y-89358038D01*
X117660533Y-89352777D01*
X117664187Y-89347850D01*
X117668306Y-89343306D01*
X117672850Y-89339187D01*
X117677777Y-89335533D01*
X117683038Y-89332380D01*
X117688582Y-89329758D01*
X117694357Y-89327691D01*
X117700307Y-89326201D01*
X117706374Y-89325301D01*
X117712500Y-89325000D01*
X118287500Y-89325000D01*
X118293626Y-89325301D01*
X118293626Y-89325301D01*
G37*
D18*
X118000000Y-89450000D03*
D10*
G36*
X120293626Y-89325301D02*
G01*
X120299693Y-89326201D01*
X120305643Y-89327691D01*
X120311418Y-89329758D01*
X120316962Y-89332380D01*
X120322223Y-89335533D01*
X120327150Y-89339187D01*
X120331694Y-89343306D01*
X120335813Y-89347850D01*
X120339467Y-89352777D01*
X120342620Y-89358038D01*
X120345242Y-89363582D01*
X120347309Y-89369357D01*
X120348799Y-89375307D01*
X120349699Y-89381374D01*
X120350000Y-89387500D01*
X120350000Y-89512500D01*
X120349699Y-89518626D01*
X120348799Y-89524693D01*
X120347309Y-89530643D01*
X120345242Y-89536418D01*
X120342620Y-89541962D01*
X120339467Y-89547223D01*
X120335813Y-89552150D01*
X120331694Y-89556694D01*
X120327150Y-89560813D01*
X120322223Y-89564467D01*
X120316962Y-89567620D01*
X120311418Y-89570242D01*
X120305643Y-89572309D01*
X120299693Y-89573799D01*
X120293626Y-89574699D01*
X120287500Y-89575000D01*
X119712500Y-89575000D01*
X119706374Y-89574699D01*
X119700307Y-89573799D01*
X119694357Y-89572309D01*
X119688582Y-89570242D01*
X119683038Y-89567620D01*
X119677777Y-89564467D01*
X119672850Y-89560813D01*
X119668306Y-89556694D01*
X119664187Y-89552150D01*
X119660533Y-89547223D01*
X119657380Y-89541962D01*
X119654758Y-89536418D01*
X119652691Y-89530643D01*
X119651201Y-89524693D01*
X119650301Y-89518626D01*
X119650000Y-89512500D01*
X119650000Y-89387500D01*
X119650301Y-89381374D01*
X119651201Y-89375307D01*
X119652691Y-89369357D01*
X119654758Y-89363582D01*
X119657380Y-89358038D01*
X119660533Y-89352777D01*
X119664187Y-89347850D01*
X119668306Y-89343306D01*
X119672850Y-89339187D01*
X119677777Y-89335533D01*
X119683038Y-89332380D01*
X119688582Y-89329758D01*
X119694357Y-89327691D01*
X119700307Y-89326201D01*
X119706374Y-89325301D01*
X119712500Y-89325000D01*
X120287500Y-89325000D01*
X120293626Y-89325301D01*
X120293626Y-89325301D01*
G37*
D18*
X120000000Y-89450000D03*
D10*
G36*
X120293626Y-88825301D02*
G01*
X120299693Y-88826201D01*
X120305643Y-88827691D01*
X120311418Y-88829758D01*
X120316962Y-88832380D01*
X120322223Y-88835533D01*
X120327150Y-88839187D01*
X120331694Y-88843306D01*
X120335813Y-88847850D01*
X120339467Y-88852777D01*
X120342620Y-88858038D01*
X120345242Y-88863582D01*
X120347309Y-88869357D01*
X120348799Y-88875307D01*
X120349699Y-88881374D01*
X120350000Y-88887500D01*
X120350000Y-89012500D01*
X120349699Y-89018626D01*
X120348799Y-89024693D01*
X120347309Y-89030643D01*
X120345242Y-89036418D01*
X120342620Y-89041962D01*
X120339467Y-89047223D01*
X120335813Y-89052150D01*
X120331694Y-89056694D01*
X120327150Y-89060813D01*
X120322223Y-89064467D01*
X120316962Y-89067620D01*
X120311418Y-89070242D01*
X120305643Y-89072309D01*
X120299693Y-89073799D01*
X120293626Y-89074699D01*
X120287500Y-89075000D01*
X119712500Y-89075000D01*
X119706374Y-89074699D01*
X119700307Y-89073799D01*
X119694357Y-89072309D01*
X119688582Y-89070242D01*
X119683038Y-89067620D01*
X119677777Y-89064467D01*
X119672850Y-89060813D01*
X119668306Y-89056694D01*
X119664187Y-89052150D01*
X119660533Y-89047223D01*
X119657380Y-89041962D01*
X119654758Y-89036418D01*
X119652691Y-89030643D01*
X119651201Y-89024693D01*
X119650301Y-89018626D01*
X119650000Y-89012500D01*
X119650000Y-88887500D01*
X119650301Y-88881374D01*
X119651201Y-88875307D01*
X119652691Y-88869357D01*
X119654758Y-88863582D01*
X119657380Y-88858038D01*
X119660533Y-88852777D01*
X119664187Y-88847850D01*
X119668306Y-88843306D01*
X119672850Y-88839187D01*
X119677777Y-88835533D01*
X119683038Y-88832380D01*
X119688582Y-88829758D01*
X119694357Y-88827691D01*
X119700307Y-88826201D01*
X119706374Y-88825301D01*
X119712500Y-88825000D01*
X120287500Y-88825000D01*
X120293626Y-88825301D01*
X120293626Y-88825301D01*
G37*
D18*
X120000000Y-88950000D03*
D10*
G36*
X120293626Y-88325301D02*
G01*
X120299693Y-88326201D01*
X120305643Y-88327691D01*
X120311418Y-88329758D01*
X120316962Y-88332380D01*
X120322223Y-88335533D01*
X120327150Y-88339187D01*
X120331694Y-88343306D01*
X120335813Y-88347850D01*
X120339467Y-88352777D01*
X120342620Y-88358038D01*
X120345242Y-88363582D01*
X120347309Y-88369357D01*
X120348799Y-88375307D01*
X120349699Y-88381374D01*
X120350000Y-88387500D01*
X120350000Y-88512500D01*
X120349699Y-88518626D01*
X120348799Y-88524693D01*
X120347309Y-88530643D01*
X120345242Y-88536418D01*
X120342620Y-88541962D01*
X120339467Y-88547223D01*
X120335813Y-88552150D01*
X120331694Y-88556694D01*
X120327150Y-88560813D01*
X120322223Y-88564467D01*
X120316962Y-88567620D01*
X120311418Y-88570242D01*
X120305643Y-88572309D01*
X120299693Y-88573799D01*
X120293626Y-88574699D01*
X120287500Y-88575000D01*
X119712500Y-88575000D01*
X119706374Y-88574699D01*
X119700307Y-88573799D01*
X119694357Y-88572309D01*
X119688582Y-88570242D01*
X119683038Y-88567620D01*
X119677777Y-88564467D01*
X119672850Y-88560813D01*
X119668306Y-88556694D01*
X119664187Y-88552150D01*
X119660533Y-88547223D01*
X119657380Y-88541962D01*
X119654758Y-88536418D01*
X119652691Y-88530643D01*
X119651201Y-88524693D01*
X119650301Y-88518626D01*
X119650000Y-88512500D01*
X119650000Y-88387500D01*
X119650301Y-88381374D01*
X119651201Y-88375307D01*
X119652691Y-88369357D01*
X119654758Y-88363582D01*
X119657380Y-88358038D01*
X119660533Y-88352777D01*
X119664187Y-88347850D01*
X119668306Y-88343306D01*
X119672850Y-88339187D01*
X119677777Y-88335533D01*
X119683038Y-88332380D01*
X119688582Y-88329758D01*
X119694357Y-88327691D01*
X119700307Y-88326201D01*
X119706374Y-88325301D01*
X119712500Y-88325000D01*
X120287500Y-88325000D01*
X120293626Y-88325301D01*
X120293626Y-88325301D01*
G37*
D18*
X120000000Y-88450000D03*
D10*
G36*
X120293626Y-87825301D02*
G01*
X120299693Y-87826201D01*
X120305643Y-87827691D01*
X120311418Y-87829758D01*
X120316962Y-87832380D01*
X120322223Y-87835533D01*
X120327150Y-87839187D01*
X120331694Y-87843306D01*
X120335813Y-87847850D01*
X120339467Y-87852777D01*
X120342620Y-87858038D01*
X120345242Y-87863582D01*
X120347309Y-87869357D01*
X120348799Y-87875307D01*
X120349699Y-87881374D01*
X120350000Y-87887500D01*
X120350000Y-88012500D01*
X120349699Y-88018626D01*
X120348799Y-88024693D01*
X120347309Y-88030643D01*
X120345242Y-88036418D01*
X120342620Y-88041962D01*
X120339467Y-88047223D01*
X120335813Y-88052150D01*
X120331694Y-88056694D01*
X120327150Y-88060813D01*
X120322223Y-88064467D01*
X120316962Y-88067620D01*
X120311418Y-88070242D01*
X120305643Y-88072309D01*
X120299693Y-88073799D01*
X120293626Y-88074699D01*
X120287500Y-88075000D01*
X119712500Y-88075000D01*
X119706374Y-88074699D01*
X119700307Y-88073799D01*
X119694357Y-88072309D01*
X119688582Y-88070242D01*
X119683038Y-88067620D01*
X119677777Y-88064467D01*
X119672850Y-88060813D01*
X119668306Y-88056694D01*
X119664187Y-88052150D01*
X119660533Y-88047223D01*
X119657380Y-88041962D01*
X119654758Y-88036418D01*
X119652691Y-88030643D01*
X119651201Y-88024693D01*
X119650301Y-88018626D01*
X119650000Y-88012500D01*
X119650000Y-87887500D01*
X119650301Y-87881374D01*
X119651201Y-87875307D01*
X119652691Y-87869357D01*
X119654758Y-87863582D01*
X119657380Y-87858038D01*
X119660533Y-87852777D01*
X119664187Y-87847850D01*
X119668306Y-87843306D01*
X119672850Y-87839187D01*
X119677777Y-87835533D01*
X119683038Y-87832380D01*
X119688582Y-87829758D01*
X119694357Y-87827691D01*
X119700307Y-87826201D01*
X119706374Y-87825301D01*
X119712500Y-87825000D01*
X120287500Y-87825000D01*
X120293626Y-87825301D01*
X120293626Y-87825301D01*
G37*
D18*
X120000000Y-87950000D03*
M02*
