G04 #@! TF.GenerationSoftware,KiCad,Pcbnew,(5.1.0)-1*
G04 #@! TF.CreationDate,2019-03-22T19:36:58+11:00*
G04 #@! TF.ProjectId,TRF37A75_Dev_Rev_0,54524633-3741-4373-955f-4465765f5265,rev?*
G04 #@! TF.SameCoordinates,Original*
G04 #@! TF.FileFunction,Legend,Top*
G04 #@! TF.FilePolarity,Positive*
%FSLAX46Y46*%
G04 Gerber Fmt 4.6, Leading zero omitted, Abs format (unit mm)*
G04 Created by KiCad (PCBNEW (5.1.0)-1) date 2019-03-22 19:36:58*
%MOMM*%
%LPD*%
G04 APERTURE LIST*
%ADD10C,0.300000*%
%ADD11C,0.120000*%
%ADD12C,0.150000*%
%ADD13C,0.200000*%
G04 APERTURE END LIST*
D10*
X127607142Y-67950000D02*
X127464285Y-67878571D01*
X127250000Y-67878571D01*
X127035714Y-67950000D01*
X126892857Y-68092857D01*
X126821428Y-68235714D01*
X126750000Y-68521428D01*
X126750000Y-68735714D01*
X126821428Y-69021428D01*
X126892857Y-69164285D01*
X127035714Y-69307142D01*
X127250000Y-69378571D01*
X127392857Y-69378571D01*
X127607142Y-69307142D01*
X127678571Y-69235714D01*
X127678571Y-68735714D01*
X127392857Y-68735714D01*
X128321428Y-69378571D02*
X128321428Y-67878571D01*
X129178571Y-69378571D01*
X129178571Y-67878571D01*
X129892857Y-69378571D02*
X129892857Y-67878571D01*
X130250000Y-67878571D01*
X130464285Y-67950000D01*
X130607142Y-68092857D01*
X130678571Y-68235714D01*
X130750000Y-68521428D01*
X130750000Y-68735714D01*
X130678571Y-69021428D01*
X130607142Y-69164285D01*
X130464285Y-69307142D01*
X130250000Y-69378571D01*
X129892857Y-69378571D01*
X115550000Y-68128571D02*
X114835714Y-68128571D01*
X114764285Y-68842857D01*
X114835714Y-68771428D01*
X114978571Y-68700000D01*
X115335714Y-68700000D01*
X115478571Y-68771428D01*
X115550000Y-68842857D01*
X115621428Y-68985714D01*
X115621428Y-69342857D01*
X115550000Y-69485714D01*
X115478571Y-69557142D01*
X115335714Y-69628571D01*
X114978571Y-69628571D01*
X114835714Y-69557142D01*
X114764285Y-69485714D01*
X116050000Y-68128571D02*
X116550000Y-69628571D01*
X117050000Y-68128571D01*
X117835714Y-68128571D02*
X117978571Y-68128571D01*
X118121428Y-68200000D01*
X118192857Y-68271428D01*
X118264285Y-68414285D01*
X118335714Y-68700000D01*
X118335714Y-69057142D01*
X118264285Y-69342857D01*
X118192857Y-69485714D01*
X118121428Y-69557142D01*
X117978571Y-69628571D01*
X117835714Y-69628571D01*
X117692857Y-69557142D01*
X117621428Y-69485714D01*
X117550000Y-69342857D01*
X117478571Y-69057142D01*
X117478571Y-68700000D01*
X117550000Y-68414285D01*
X117621428Y-68271428D01*
X117692857Y-68200000D01*
X117835714Y-68128571D01*
D11*
X118458578Y-75510000D02*
X117941422Y-75510000D01*
X118458578Y-74090000D02*
X117941422Y-74090000D01*
X118458578Y-79290000D02*
X117941422Y-79290000D01*
X118458578Y-80710000D02*
X117941422Y-80710000D01*
D12*
X119750000Y-78300000D02*
X119750000Y-76600000D01*
X118450000Y-78300000D02*
X118450000Y-76600000D01*
D11*
X120030000Y-67370000D02*
X120030000Y-70030000D01*
X122630000Y-67370000D02*
X120030000Y-67370000D01*
X122630000Y-70030000D02*
X120030000Y-70030000D01*
X122630000Y-67370000D02*
X122630000Y-70030000D01*
X123900000Y-67370000D02*
X125230000Y-67370000D01*
X125230000Y-67370000D02*
X125230000Y-68700000D01*
X119000000Y-87590000D02*
X120000000Y-87590000D01*
X118000000Y-89810000D02*
X120000000Y-89810000D01*
D12*
X115133333Y-75157142D02*
X115085714Y-75204761D01*
X114942857Y-75252380D01*
X114847619Y-75252380D01*
X114704761Y-75204761D01*
X114609523Y-75109523D01*
X114561904Y-75014285D01*
X114514285Y-74823809D01*
X114514285Y-74680952D01*
X114561904Y-74490476D01*
X114609523Y-74395238D01*
X114704761Y-74300000D01*
X114847619Y-74252380D01*
X114942857Y-74252380D01*
X115085714Y-74300000D01*
X115133333Y-74347619D01*
X116085714Y-75252380D02*
X115514285Y-75252380D01*
X115800000Y-75252380D02*
X115800000Y-74252380D01*
X115704761Y-74395238D01*
X115609523Y-74490476D01*
X115514285Y-74538095D01*
X115333333Y-91282142D02*
X115285714Y-91329761D01*
X115142857Y-91377380D01*
X115047619Y-91377380D01*
X114904761Y-91329761D01*
X114809523Y-91234523D01*
X114761904Y-91139285D01*
X114714285Y-90948809D01*
X114714285Y-90805952D01*
X114761904Y-90615476D01*
X114809523Y-90520238D01*
X114904761Y-90425000D01*
X115047619Y-90377380D01*
X115142857Y-90377380D01*
X115285714Y-90425000D01*
X115333333Y-90472619D01*
X115714285Y-90472619D02*
X115761904Y-90425000D01*
X115857142Y-90377380D01*
X116095238Y-90377380D01*
X116190476Y-90425000D01*
X116238095Y-90472619D01*
X116285714Y-90567857D01*
X116285714Y-90663095D01*
X116238095Y-90805952D01*
X115666666Y-91377380D01*
X116285714Y-91377380D01*
X115333333Y-86132142D02*
X115285714Y-86179761D01*
X115142857Y-86227380D01*
X115047619Y-86227380D01*
X114904761Y-86179761D01*
X114809523Y-86084523D01*
X114761904Y-85989285D01*
X114714285Y-85798809D01*
X114714285Y-85655952D01*
X114761904Y-85465476D01*
X114809523Y-85370238D01*
X114904761Y-85275000D01*
X115047619Y-85227380D01*
X115142857Y-85227380D01*
X115285714Y-85275000D01*
X115333333Y-85322619D01*
X115666666Y-85227380D02*
X116285714Y-85227380D01*
X115952380Y-85608333D01*
X116095238Y-85608333D01*
X116190476Y-85655952D01*
X116238095Y-85703571D01*
X116285714Y-85798809D01*
X116285714Y-86036904D01*
X116238095Y-86132142D01*
X116190476Y-86179761D01*
X116095238Y-86227380D01*
X115809523Y-86227380D01*
X115714285Y-86179761D01*
X115666666Y-86132142D01*
X115133333Y-80357142D02*
X115085714Y-80404761D01*
X114942857Y-80452380D01*
X114847619Y-80452380D01*
X114704761Y-80404761D01*
X114609523Y-80309523D01*
X114561904Y-80214285D01*
X114514285Y-80023809D01*
X114514285Y-79880952D01*
X114561904Y-79690476D01*
X114609523Y-79595238D01*
X114704761Y-79500000D01*
X114847619Y-79452380D01*
X114942857Y-79452380D01*
X115085714Y-79500000D01*
X115133333Y-79547619D01*
X115990476Y-79785714D02*
X115990476Y-80452380D01*
X115752380Y-79404761D02*
X115514285Y-80119047D01*
X116133333Y-80119047D01*
X124283333Y-81582142D02*
X124235714Y-81629761D01*
X124092857Y-81677380D01*
X123997619Y-81677380D01*
X123854761Y-81629761D01*
X123759523Y-81534523D01*
X123711904Y-81439285D01*
X123664285Y-81248809D01*
X123664285Y-81105952D01*
X123711904Y-80915476D01*
X123759523Y-80820238D01*
X123854761Y-80725000D01*
X123997619Y-80677380D01*
X124092857Y-80677380D01*
X124235714Y-80725000D01*
X124283333Y-80772619D01*
X125188095Y-80677380D02*
X124711904Y-80677380D01*
X124664285Y-81153571D01*
X124711904Y-81105952D01*
X124807142Y-81058333D01*
X125045238Y-81058333D01*
X125140476Y-81105952D01*
X125188095Y-81153571D01*
X125235714Y-81248809D01*
X125235714Y-81486904D01*
X125188095Y-81582142D01*
X125140476Y-81629761D01*
X125045238Y-81677380D01*
X124807142Y-81677380D01*
X124711904Y-81629761D01*
X124664285Y-81582142D01*
X124383333Y-84682142D02*
X124335714Y-84729761D01*
X124192857Y-84777380D01*
X124097619Y-84777380D01*
X123954761Y-84729761D01*
X123859523Y-84634523D01*
X123811904Y-84539285D01*
X123764285Y-84348809D01*
X123764285Y-84205952D01*
X123811904Y-84015476D01*
X123859523Y-83920238D01*
X123954761Y-83825000D01*
X124097619Y-83777380D01*
X124192857Y-83777380D01*
X124335714Y-83825000D01*
X124383333Y-83872619D01*
X125240476Y-83777380D02*
X125050000Y-83777380D01*
X124954761Y-83825000D01*
X124907142Y-83872619D01*
X124811904Y-84015476D01*
X124764285Y-84205952D01*
X124764285Y-84586904D01*
X124811904Y-84682142D01*
X124859523Y-84729761D01*
X124954761Y-84777380D01*
X125145238Y-84777380D01*
X125240476Y-84729761D01*
X125288095Y-84682142D01*
X125335714Y-84586904D01*
X125335714Y-84348809D01*
X125288095Y-84253571D01*
X125240476Y-84205952D01*
X125145238Y-84158333D01*
X124954761Y-84158333D01*
X124859523Y-84205952D01*
X124811904Y-84253571D01*
X124764285Y-84348809D01*
X124058333Y-91332142D02*
X124010714Y-91379761D01*
X123867857Y-91427380D01*
X123772619Y-91427380D01*
X123629761Y-91379761D01*
X123534523Y-91284523D01*
X123486904Y-91189285D01*
X123439285Y-90998809D01*
X123439285Y-90855952D01*
X123486904Y-90665476D01*
X123534523Y-90570238D01*
X123629761Y-90475000D01*
X123772619Y-90427380D01*
X123867857Y-90427380D01*
X124010714Y-90475000D01*
X124058333Y-90522619D01*
X124391666Y-90427380D02*
X125058333Y-90427380D01*
X124629761Y-91427380D01*
X114766666Y-77303571D02*
X114433333Y-77303571D01*
X114433333Y-77827380D02*
X114433333Y-76827380D01*
X114909523Y-76827380D01*
X115623809Y-77303571D02*
X115766666Y-77351190D01*
X115814285Y-77398809D01*
X115861904Y-77494047D01*
X115861904Y-77636904D01*
X115814285Y-77732142D01*
X115766666Y-77779761D01*
X115671428Y-77827380D01*
X115290476Y-77827380D01*
X115290476Y-76827380D01*
X115623809Y-76827380D01*
X115719047Y-76875000D01*
X115766666Y-76922619D01*
X115814285Y-77017857D01*
X115814285Y-77113095D01*
X115766666Y-77208333D01*
X115719047Y-77255952D01*
X115623809Y-77303571D01*
X115290476Y-77303571D01*
X116814285Y-77827380D02*
X116242857Y-77827380D01*
X116528571Y-77827380D02*
X116528571Y-76827380D01*
X116433333Y-76970238D01*
X116338095Y-77065476D01*
X116242857Y-77113095D01*
X113116666Y-62202380D02*
X113116666Y-62916666D01*
X113069047Y-63059523D01*
X112973809Y-63154761D01*
X112830952Y-63202380D01*
X112735714Y-63202380D01*
X114116666Y-63202380D02*
X113545238Y-63202380D01*
X113830952Y-63202380D02*
X113830952Y-62202380D01*
X113735714Y-62345238D01*
X113640476Y-62440476D01*
X113545238Y-62488095D01*
X124483333Y-86177380D02*
X124007142Y-86177380D01*
X124007142Y-85177380D01*
X125340476Y-86177380D02*
X124769047Y-86177380D01*
X125054761Y-86177380D02*
X125054761Y-85177380D01*
X124959523Y-85320238D01*
X124864285Y-85415476D01*
X124769047Y-85463095D01*
X124383333Y-83177380D02*
X124050000Y-82701190D01*
X123811904Y-83177380D02*
X123811904Y-82177380D01*
X124192857Y-82177380D01*
X124288095Y-82225000D01*
X124335714Y-82272619D01*
X124383333Y-82367857D01*
X124383333Y-82510714D01*
X124335714Y-82605952D01*
X124288095Y-82653571D01*
X124192857Y-82701190D01*
X123811904Y-82701190D01*
X125335714Y-83177380D02*
X124764285Y-83177380D01*
X125050000Y-83177380D02*
X125050000Y-82177380D01*
X124954761Y-82320238D01*
X124859523Y-82415476D01*
X124764285Y-82463095D01*
X118238095Y-90152380D02*
X118238095Y-90961904D01*
X118285714Y-91057142D01*
X118333333Y-91104761D01*
X118428571Y-91152380D01*
X118619047Y-91152380D01*
X118714285Y-91104761D01*
X118761904Y-91057142D01*
X118809523Y-90961904D01*
X118809523Y-90152380D01*
X119809523Y-91152380D02*
X119238095Y-91152380D01*
X119523809Y-91152380D02*
X119523809Y-90152380D01*
X119428571Y-90295238D01*
X119333333Y-90390476D01*
X119238095Y-90438095D01*
X127717857Y-98002380D02*
X127384523Y-97526190D01*
X127146428Y-98002380D02*
X127146428Y-97002380D01*
X127527380Y-97002380D01*
X127622619Y-97050000D01*
X127670238Y-97097619D01*
X127717857Y-97192857D01*
X127717857Y-97335714D01*
X127670238Y-97430952D01*
X127622619Y-97478571D01*
X127527380Y-97526190D01*
X127146428Y-97526190D01*
X128527380Y-97954761D02*
X128432142Y-98002380D01*
X128241666Y-98002380D01*
X128146428Y-97954761D01*
X128098809Y-97859523D01*
X128098809Y-97478571D01*
X128146428Y-97383333D01*
X128241666Y-97335714D01*
X128432142Y-97335714D01*
X128527380Y-97383333D01*
X128575000Y-97478571D01*
X128575000Y-97573809D01*
X128098809Y-97669047D01*
X128908333Y-97335714D02*
X129146428Y-98002380D01*
X129384523Y-97335714D01*
X130717857Y-97002380D02*
X130813095Y-97002380D01*
X130908333Y-97050000D01*
X130955952Y-97097619D01*
X131003571Y-97192857D01*
X131051190Y-97383333D01*
X131051190Y-97621428D01*
X131003571Y-97811904D01*
X130955952Y-97907142D01*
X130908333Y-97954761D01*
X130813095Y-98002380D01*
X130717857Y-98002380D01*
X130622619Y-97954761D01*
X130575000Y-97907142D01*
X130527380Y-97811904D01*
X130479761Y-97621428D01*
X130479761Y-97383333D01*
X130527380Y-97192857D01*
X130575000Y-97097619D01*
X130622619Y-97050000D01*
X130717857Y-97002380D01*
D13*
X107871428Y-95178571D02*
X108728571Y-95178571D01*
X108300000Y-96678571D02*
X108300000Y-95178571D01*
X110085714Y-96678571D02*
X109585714Y-95964285D01*
X109228571Y-96678571D02*
X109228571Y-95178571D01*
X109800000Y-95178571D01*
X109942857Y-95250000D01*
X110014285Y-95321428D01*
X110085714Y-95464285D01*
X110085714Y-95678571D01*
X110014285Y-95821428D01*
X109942857Y-95892857D01*
X109800000Y-95964285D01*
X109228571Y-95964285D01*
X111228571Y-95892857D02*
X110728571Y-95892857D01*
X110728571Y-96678571D02*
X110728571Y-95178571D01*
X111442857Y-95178571D01*
X111871428Y-95178571D02*
X112800000Y-95178571D01*
X112300000Y-95750000D01*
X112514285Y-95750000D01*
X112657142Y-95821428D01*
X112728571Y-95892857D01*
X112800000Y-96035714D01*
X112800000Y-96392857D01*
X112728571Y-96535714D01*
X112657142Y-96607142D01*
X112514285Y-96678571D01*
X112085714Y-96678571D01*
X111942857Y-96607142D01*
X111871428Y-96535714D01*
X113300000Y-95178571D02*
X114300000Y-95178571D01*
X113657142Y-96678571D01*
X114800000Y-96250000D02*
X115514285Y-96250000D01*
X114657142Y-96678571D02*
X115157142Y-95178571D01*
X115657142Y-96678571D01*
X116014285Y-95178571D02*
X117014285Y-95178571D01*
X116371428Y-96678571D01*
X118300000Y-95178571D02*
X117585714Y-95178571D01*
X117514285Y-95892857D01*
X117585714Y-95821428D01*
X117728571Y-95750000D01*
X118085714Y-95750000D01*
X118228571Y-95821428D01*
X118300000Y-95892857D01*
X118371428Y-96035714D01*
X118371428Y-96392857D01*
X118300000Y-96535714D01*
X118228571Y-96607142D01*
X118085714Y-96678571D01*
X117728571Y-96678571D01*
X117585714Y-96607142D01*
X117514285Y-96535714D01*
X120157142Y-96678571D02*
X120157142Y-95178571D01*
X120514285Y-95178571D01*
X120728571Y-95250000D01*
X120871428Y-95392857D01*
X120942857Y-95535714D01*
X121014285Y-95821428D01*
X121014285Y-96035714D01*
X120942857Y-96321428D01*
X120871428Y-96464285D01*
X120728571Y-96607142D01*
X120514285Y-96678571D01*
X120157142Y-96678571D01*
X122228571Y-96607142D02*
X122085714Y-96678571D01*
X121800000Y-96678571D01*
X121657142Y-96607142D01*
X121585714Y-96464285D01*
X121585714Y-95892857D01*
X121657142Y-95750000D01*
X121800000Y-95678571D01*
X122085714Y-95678571D01*
X122228571Y-95750000D01*
X122300000Y-95892857D01*
X122300000Y-96035714D01*
X121585714Y-96178571D01*
X122800000Y-95678571D02*
X123157142Y-96678571D01*
X123514285Y-95678571D01*
X125728571Y-95892857D02*
X125942857Y-95964285D01*
X126014285Y-96035714D01*
X126085714Y-96178571D01*
X126085714Y-96392857D01*
X126014285Y-96535714D01*
X125942857Y-96607142D01*
X125800000Y-96678571D01*
X125228571Y-96678571D01*
X125228571Y-95178571D01*
X125728571Y-95178571D01*
X125871428Y-95250000D01*
X125942857Y-95321428D01*
X126014285Y-95464285D01*
X126014285Y-95607142D01*
X125942857Y-95750000D01*
X125871428Y-95821428D01*
X125728571Y-95892857D01*
X125228571Y-95892857D01*
X126942857Y-96678571D02*
X126800000Y-96607142D01*
X126728571Y-96535714D01*
X126657142Y-96392857D01*
X126657142Y-95964285D01*
X126728571Y-95821428D01*
X126800000Y-95750000D01*
X126942857Y-95678571D01*
X127157142Y-95678571D01*
X127300000Y-95750000D01*
X127371428Y-95821428D01*
X127442857Y-95964285D01*
X127442857Y-96392857D01*
X127371428Y-96535714D01*
X127300000Y-96607142D01*
X127157142Y-96678571D01*
X126942857Y-96678571D01*
X128728571Y-96678571D02*
X128728571Y-95892857D01*
X128657142Y-95750000D01*
X128514285Y-95678571D01*
X128228571Y-95678571D01*
X128085714Y-95750000D01*
X128728571Y-96607142D02*
X128585714Y-96678571D01*
X128228571Y-96678571D01*
X128085714Y-96607142D01*
X128014285Y-96464285D01*
X128014285Y-96321428D01*
X128085714Y-96178571D01*
X128228571Y-96107142D01*
X128585714Y-96107142D01*
X128728571Y-96035714D01*
X129442857Y-96678571D02*
X129442857Y-95678571D01*
X129442857Y-95964285D02*
X129514285Y-95821428D01*
X129585714Y-95750000D01*
X129728571Y-95678571D01*
X129871428Y-95678571D01*
X131014285Y-96678571D02*
X131014285Y-95178571D01*
X131014285Y-96607142D02*
X130871428Y-96678571D01*
X130585714Y-96678571D01*
X130442857Y-96607142D01*
X130371428Y-96535714D01*
X130300000Y-96392857D01*
X130300000Y-95964285D01*
X130371428Y-95821428D01*
X130442857Y-95750000D01*
X130585714Y-95678571D01*
X130871428Y-95678571D01*
X131014285Y-95750000D01*
M02*
