M48
; DRILL file {KiCad (5.1.0)-1} date 22/03/2019 19:37:02
; FORMAT={-:-/ absolute / metric / decimal}
; #@! TF.CreationDate,2019-03-22T19:37:02+11:00
; #@! TF.GenerationSoftware,Kicad,Pcbnew,(5.1.0)-1
FMAT,2
METRIC
T1C0.200
T2C0.300
T3C0.400
T4C0.500
T5C1.000
T6C3.200
T7C0.600
%
G90
G05
T1
X118.75Y-88.2
X118.75Y-88.725
X118.75Y-89.225
X119.25Y-88.2
X119.25Y-88.725
X119.25Y-89.225
T2
X97.4Y-85.9
X97.4Y-90.8
X98.0Y-85.9
X98.0Y-90.8
X98.6Y-85.9
X98.6Y-90.8
X99.2Y-85.9
X99.2Y-90.8
X99.8Y-85.9
X99.8Y-90.8
X100.4Y-85.9
X100.4Y-90.8
X101.0Y-85.9
X101.0Y-90.8
X121.1Y-87.0
X140.475Y-86.3
X141.0Y-86.0
X141.0Y-90.9
X141.6Y-86.0
X141.6Y-90.9
X142.2Y-86.0
X142.2Y-90.9
X142.8Y-86.0
X142.8Y-90.9
X143.4Y-86.0
X143.4Y-90.9
X144.0Y-86.0
X144.0Y-90.9
X144.6Y-86.0
X144.6Y-90.9
T3
X101.65Y-90.4
X101.725Y-86.225
X102.2Y-87.0
X102.2Y-89.8
X103.0Y-87.0
X103.0Y-89.8
X103.8Y-87.0
X103.8Y-89.8
X104.6Y-87.0
X104.6Y-89.8
X105.4Y-87.0
X105.4Y-89.8
X106.2Y-87.0
X106.2Y-89.8
X107.0Y-87.0
X107.0Y-89.8
X107.8Y-87.0
X107.8Y-89.8
X108.6Y-87.0
X108.6Y-89.8
X109.4Y-87.0
X109.4Y-89.8
X110.2Y-87.0
X110.2Y-89.8
X111.0Y-87.0
X111.0Y-89.8
X111.8Y-87.0
X111.8Y-89.8
X112.6Y-87.0
X112.6Y-89.8
X113.4Y-87.0
X113.4Y-89.8
X114.2Y-87.0
X114.2Y-89.8
X115.025Y-87.0
X115.025Y-89.8
X115.825Y-87.0
X115.825Y-89.8
X116.65Y-89.825
X118.0Y-84.0
X118.0Y-85.6
X119.7Y-82.4
X119.7Y-84.0
X119.7Y-85.6
X121.5Y-89.875
X122.325Y-89.875
X123.175Y-89.9
X123.225Y-86.9
X123.975Y-89.9
X124.075Y-86.9
X124.775Y-89.9
X124.875Y-86.9
X125.6Y-89.9
X125.7Y-86.9
X126.4Y-89.9
X126.5Y-86.9
X127.2Y-89.9
X127.3Y-86.9
X128.0Y-89.9
X128.1Y-86.9
X128.8Y-89.9
X128.9Y-86.9
X129.6Y-89.9
X129.7Y-86.9
X130.4Y-89.9
X130.5Y-86.9
X131.2Y-89.9
X131.3Y-86.9
X132.0Y-89.9
X132.1Y-86.9
X132.8Y-89.9
X132.9Y-86.9
X133.6Y-89.9
X133.7Y-86.9
X134.4Y-89.9
X134.5Y-86.9
X135.2Y-89.9
X135.3Y-86.9
X136.0Y-89.9
X136.1Y-86.9
X136.8Y-89.9
X136.9Y-86.9
X137.6Y-89.9
X137.7Y-86.9
X138.4Y-89.9
X138.5Y-86.9
X139.2Y-89.9
X139.3Y-86.9
X140.0Y-89.9
X140.1Y-86.9
X140.3Y-90.675
T4
X137.6Y-103.0
X138.303Y-101.303
X138.303Y-104.697
X140.0Y-100.6
X140.0Y-105.4
X141.697Y-101.303
X141.697Y-104.697
X142.4Y-103.0
X137.6Y-65.0
X138.303Y-63.303
X138.303Y-66.697
X140.0Y-62.6
X140.0Y-67.4
X141.697Y-63.303
X141.697Y-66.697
X142.4Y-65.0
X99.6Y-65.0
X100.303Y-63.303
X100.303Y-66.697
X102.0Y-62.6
X102.0Y-67.4
X103.697Y-63.303
X103.697Y-66.697
X104.4Y-65.0
X99.6Y-103.0
X100.303Y-101.303
X100.303Y-104.697
X102.0Y-100.6
X102.0Y-105.4
X103.697Y-101.303
X103.697Y-104.697
X104.4Y-103.0
T5
X121.36Y-68.7
X123.9Y-68.7
T6
X102.0Y-65.0
X102.0Y-103.0
X140.0Y-103.0
X140.0Y-65.0
T7
X118.0Y-63.58
X122.0Y-63.58
T0
M30
