G04 #@! TF.GenerationSoftware,KiCad,Pcbnew,(5.1.0)-1*
G04 #@! TF.CreationDate,2019-03-22T19:36:58+11:00*
G04 #@! TF.ProjectId,TRF37A75_Dev_Rev_0,54524633-3741-4373-955f-4465765f5265,rev?*
G04 #@! TF.SameCoordinates,Original*
G04 #@! TF.FileFunction,Soldermask,Top*
G04 #@! TF.FilePolarity,Negative*
%FSLAX46Y46*%
G04 Gerber Fmt 4.6, Leading zero omitted, Abs format (unit mm)*
G04 Created by KiCad (PCBNEW (5.1.0)-1) date 2019-03-22 19:36:58*
%MOMM*%
%LPD*%
G04 APERTURE LIST*
%ADD10C,0.150000*%
%ADD11C,0.010000*%
%ADD12C,0.100000*%
G04 APERTURE END LIST*
D10*
G36*
X129925000Y-104550000D02*
G01*
X135925000Y-104550000D01*
X135925000Y-106800000D01*
X129925000Y-106800000D01*
X129925000Y-104550000D01*
G37*
X129925000Y-104550000D02*
X135925000Y-104550000D01*
X135925000Y-106800000D01*
X129925000Y-106800000D01*
X129925000Y-104550000D01*
D11*
G36*
X127271025Y-104238358D02*
G01*
X127312086Y-104238668D01*
X127348939Y-104239144D01*
X127380448Y-104239763D01*
X127405478Y-104240502D01*
X127422893Y-104241337D01*
X127431557Y-104242244D01*
X127432210Y-104242471D01*
X127434787Y-104248471D01*
X127438922Y-104263787D01*
X127444466Y-104287721D01*
X127451268Y-104319573D01*
X127459179Y-104358644D01*
X127468047Y-104404237D01*
X127475901Y-104445850D01*
X127484151Y-104489601D01*
X127492001Y-104530265D01*
X127499225Y-104566748D01*
X127505599Y-104597957D01*
X127510898Y-104622798D01*
X127514897Y-104640177D01*
X127517372Y-104649000D01*
X127517802Y-104649834D01*
X127524048Y-104653371D01*
X127538151Y-104659916D01*
X127558676Y-104668889D01*
X127584190Y-104679710D01*
X127613258Y-104691800D01*
X127644446Y-104704578D01*
X127676320Y-104717466D01*
X127707447Y-104729882D01*
X127736392Y-104741248D01*
X127761721Y-104750983D01*
X127781999Y-104758508D01*
X127795794Y-104763242D01*
X127801671Y-104764607D01*
X127801678Y-104764605D01*
X127806988Y-104761333D01*
X127819724Y-104752928D01*
X127838948Y-104740025D01*
X127863724Y-104723257D01*
X127893114Y-104703260D01*
X127926180Y-104680669D01*
X127961986Y-104656119D01*
X127970656Y-104650162D01*
X128007085Y-104625277D01*
X128041148Y-104602306D01*
X128071886Y-104581874D01*
X128098339Y-104564606D01*
X128119549Y-104551126D01*
X128134556Y-104542059D01*
X128142401Y-104538028D01*
X128143086Y-104537879D01*
X128148807Y-104541391D01*
X128160602Y-104551292D01*
X128177520Y-104566632D01*
X128198609Y-104586458D01*
X128222919Y-104609820D01*
X128249500Y-104635767D01*
X128277400Y-104663347D01*
X128305669Y-104691609D01*
X128333355Y-104719603D01*
X128359508Y-104746376D01*
X128383178Y-104770978D01*
X128403412Y-104792458D01*
X128419261Y-104809864D01*
X128429774Y-104822246D01*
X128433999Y-104828651D01*
X128434040Y-104828938D01*
X128431243Y-104835058D01*
X128423279Y-104848530D01*
X128410789Y-104868372D01*
X128394410Y-104893598D01*
X128374783Y-104923226D01*
X128352547Y-104956269D01*
X128328341Y-104991745D01*
X128326788Y-104994005D01*
X128302294Y-105029726D01*
X128279499Y-105063139D01*
X128259080Y-105093244D01*
X128241708Y-105119038D01*
X128228060Y-105139521D01*
X128218807Y-105153692D01*
X128214626Y-105160550D01*
X128214568Y-105160670D01*
X128213784Y-105165391D01*
X128214912Y-105173231D01*
X128218299Y-105185143D01*
X128224292Y-105202084D01*
X128233241Y-105225007D01*
X128245491Y-105254867D01*
X128261390Y-105292619D01*
X128269749Y-105312252D01*
X128286018Y-105349852D01*
X128301011Y-105383510D01*
X128314231Y-105412168D01*
X128325175Y-105434772D01*
X128333346Y-105450265D01*
X128338243Y-105457592D01*
X128338710Y-105457948D01*
X128345560Y-105459928D01*
X128361248Y-105463502D01*
X128384616Y-105468434D01*
X128414508Y-105474491D01*
X128449767Y-105481439D01*
X128489236Y-105489044D01*
X128531757Y-105497071D01*
X128536409Y-105497940D01*
X128585146Y-105507180D01*
X128628053Y-105515621D01*
X128664390Y-105523102D01*
X128693418Y-105529463D01*
X128714397Y-105534544D01*
X128726585Y-105538184D01*
X128729451Y-105539714D01*
X128730372Y-105546096D01*
X128731225Y-105561503D01*
X128731989Y-105584798D01*
X128732638Y-105614847D01*
X128733151Y-105650514D01*
X128733503Y-105690663D01*
X128733671Y-105734159D01*
X128733682Y-105745027D01*
X128733649Y-105796548D01*
X128733486Y-105838801D01*
X128733162Y-105872680D01*
X128732647Y-105899077D01*
X128731908Y-105918884D01*
X128730916Y-105932996D01*
X128729639Y-105942303D01*
X128728046Y-105947699D01*
X128726595Y-105949741D01*
X128720095Y-105951999D01*
X128704763Y-105955799D01*
X128681765Y-105960898D01*
X128652271Y-105967050D01*
X128617450Y-105974013D01*
X128578470Y-105981543D01*
X128537365Y-105989236D01*
X128491210Y-105997897D01*
X128449798Y-106005981D01*
X128414062Y-106013286D01*
X128384937Y-106019611D01*
X128363354Y-106024758D01*
X128350249Y-106028525D01*
X128346726Y-106030133D01*
X128342704Y-106036585D01*
X128335714Y-106050987D01*
X128326314Y-106071948D01*
X128315063Y-106098082D01*
X128302519Y-106128000D01*
X128289240Y-106160313D01*
X128275785Y-106193634D01*
X128262712Y-106226575D01*
X128250580Y-106257747D01*
X128239946Y-106285763D01*
X128231369Y-106309233D01*
X128225408Y-106326771D01*
X128222620Y-106336987D01*
X128222556Y-106338842D01*
X128225901Y-106344358D01*
X128234348Y-106357262D01*
X128247236Y-106376573D01*
X128263906Y-106401312D01*
X128283697Y-106430498D01*
X128305948Y-106463151D01*
X128329512Y-106497582D01*
X128353487Y-106532797D01*
X128375526Y-106565662D01*
X128394982Y-106595174D01*
X128411209Y-106620331D01*
X128423558Y-106640130D01*
X128431383Y-106653568D01*
X128434040Y-106659588D01*
X128430537Y-106665258D01*
X128420662Y-106677017D01*
X128405363Y-106693914D01*
X128385590Y-106714997D01*
X128362290Y-106739314D01*
X128336414Y-106765912D01*
X128308908Y-106793838D01*
X128280723Y-106822142D01*
X128252807Y-106849870D01*
X128226109Y-106876071D01*
X128201578Y-106899792D01*
X128180162Y-106920081D01*
X128162810Y-106935985D01*
X128150471Y-106946554D01*
X128144094Y-106950834D01*
X128143792Y-106950880D01*
X128137917Y-106948089D01*
X128124690Y-106940148D01*
X128105102Y-106927705D01*
X128080147Y-106911406D01*
X128050814Y-106891900D01*
X128018098Y-106869834D01*
X127984274Y-106846740D01*
X127949192Y-106822807D01*
X127916493Y-106800813D01*
X127887179Y-106781405D01*
X127862247Y-106765232D01*
X127842696Y-106752942D01*
X127829527Y-106745183D01*
X127823812Y-106742600D01*
X127816386Y-106744920D01*
X127801894Y-106751305D01*
X127782157Y-106760890D01*
X127758991Y-106772810D01*
X127748350Y-106778481D01*
X127722800Y-106791747D01*
X127700514Y-106802375D01*
X127683172Y-106809622D01*
X127672456Y-106812744D01*
X127670823Y-106812771D01*
X127668235Y-106811377D01*
X127664874Y-106807452D01*
X127660467Y-106800381D01*
X127654738Y-106789547D01*
X127647414Y-106774334D01*
X127638220Y-106754125D01*
X127626884Y-106728305D01*
X127613129Y-106696257D01*
X127596684Y-106657365D01*
X127577272Y-106611012D01*
X127554620Y-106556582D01*
X127528454Y-106493459D01*
X127523860Y-106482359D01*
X127501257Y-106427528D01*
X127479911Y-106375342D01*
X127460128Y-106326575D01*
X127442213Y-106281998D01*
X127426473Y-106242386D01*
X127413212Y-106208510D01*
X127402736Y-106181143D01*
X127395352Y-106161060D01*
X127391364Y-106149031D01*
X127390760Y-106145809D01*
X127395949Y-106139897D01*
X127407723Y-106129827D01*
X127424234Y-106117102D01*
X127440173Y-106105629D01*
X127482327Y-106074570D01*
X127516753Y-106045231D01*
X127545203Y-106015682D01*
X127569432Y-105983997D01*
X127591194Y-105948247D01*
X127601863Y-105927918D01*
X127625756Y-105869488D01*
X127640076Y-105809158D01*
X127644979Y-105747953D01*
X127640623Y-105686898D01*
X127627163Y-105627019D01*
X127604756Y-105569342D01*
X127573559Y-105514891D01*
X127533727Y-105464692D01*
X127530664Y-105461411D01*
X127483017Y-105417833D01*
X127429808Y-105382422D01*
X127370354Y-105354755D01*
X127341660Y-105344807D01*
X127324933Y-105339974D01*
X127309165Y-105336632D01*
X127291854Y-105334519D01*
X127270497Y-105333373D01*
X127242593Y-105332935D01*
X127227540Y-105332900D01*
X127195915Y-105333110D01*
X127171936Y-105333916D01*
X127153093Y-105335578D01*
X127136877Y-105338357D01*
X127120778Y-105342516D01*
X127113240Y-105344802D01*
X127051246Y-105369205D01*
X126994961Y-105401690D01*
X126944969Y-105441763D01*
X126901854Y-105488933D01*
X126866201Y-105542707D01*
X126856329Y-105561500D01*
X126835756Y-105608357D01*
X126822234Y-105652726D01*
X126814860Y-105698443D01*
X126812727Y-105746920D01*
X126817586Y-105811989D01*
X126831992Y-105874065D01*
X126855688Y-105932510D01*
X126888416Y-105986687D01*
X126928955Y-106034975D01*
X126947140Y-106051971D01*
X126970762Y-106071791D01*
X126996748Y-106092052D01*
X127022023Y-106110368D01*
X127043514Y-106124354D01*
X127046139Y-106125883D01*
X127057832Y-106134785D01*
X127064872Y-106144264D01*
X127065325Y-106145648D01*
X127063872Y-106152322D01*
X127058641Y-106167833D01*
X127049832Y-106191671D01*
X127037647Y-106223326D01*
X127022287Y-106262287D01*
X127003953Y-106308043D01*
X126982846Y-106360085D01*
X126959166Y-106417901D01*
X126935728Y-106474679D01*
X126913300Y-106528781D01*
X126891914Y-106580286D01*
X126871903Y-106628399D01*
X126853599Y-106672325D01*
X126837334Y-106711268D01*
X126823442Y-106744433D01*
X126812253Y-106771026D01*
X126804102Y-106790249D01*
X126799319Y-106801309D01*
X126798253Y-106803609D01*
X126790020Y-106811716D01*
X126783211Y-106813720D01*
X126775498Y-106811394D01*
X126760745Y-106804995D01*
X126740790Y-106795387D01*
X126717470Y-106783437D01*
X126706642Y-106777672D01*
X126676834Y-106762192D01*
X126653316Y-106751189D01*
X126636875Y-106745007D01*
X126628822Y-106743837D01*
X126621680Y-106747269D01*
X126607538Y-106755700D01*
X126587709Y-106768286D01*
X126563506Y-106784184D01*
X126536241Y-106802551D01*
X126518880Y-106814461D01*
X126471962Y-106846822D01*
X126432682Y-106873815D01*
X126400352Y-106895892D01*
X126374281Y-106913506D01*
X126353781Y-106927109D01*
X126338163Y-106937155D01*
X126326739Y-106944097D01*
X126318819Y-106948388D01*
X126313714Y-106950480D01*
X126311387Y-106950880D01*
X126306121Y-106947399D01*
X126294535Y-106937478D01*
X126277460Y-106921897D01*
X126255721Y-106901437D01*
X126230148Y-106876880D01*
X126201568Y-106849006D01*
X126170809Y-106818597D01*
X126164731Y-106812541D01*
X126133736Y-106781470D01*
X126105010Y-106752382D01*
X126079357Y-106726112D01*
X126057577Y-106703494D01*
X126040473Y-106685363D01*
X126028847Y-106672552D01*
X126023501Y-106665896D01*
X126023266Y-106665413D01*
X126022367Y-106662436D01*
X126022052Y-106659393D01*
X126022835Y-106655460D01*
X126025226Y-106649812D01*
X126029737Y-106641624D01*
X126036879Y-106630072D01*
X126047165Y-106614330D01*
X126061105Y-106593575D01*
X126079212Y-106566980D01*
X126101996Y-106533721D01*
X126129969Y-106492973D01*
X126132515Y-106489266D01*
X126156161Y-106454625D01*
X126177865Y-106422438D01*
X126196973Y-106393706D01*
X126212831Y-106369428D01*
X126224785Y-106350605D01*
X126232181Y-106338237D01*
X126234400Y-106333469D01*
X126232571Y-106327070D01*
X126227390Y-106312455D01*
X126219314Y-106290826D01*
X126208802Y-106263385D01*
X126196312Y-106231333D01*
X126182300Y-106195874D01*
X126175294Y-106178307D01*
X126157557Y-106134314D01*
X126143005Y-106099051D01*
X126131276Y-106071727D01*
X126122006Y-106051551D01*
X126114833Y-106037734D01*
X126109394Y-106029485D01*
X126105444Y-106026059D01*
X126098085Y-106024121D01*
X126081936Y-106020609D01*
X126058202Y-106015762D01*
X126028091Y-106009819D01*
X125992809Y-106003018D01*
X125953562Y-105995597D01*
X125914921Y-105988414D01*
X125873281Y-105980616D01*
X125834669Y-105973154D01*
X125800261Y-105966273D01*
X125771230Y-105960217D01*
X125748751Y-105955232D01*
X125733998Y-105951560D01*
X125728231Y-105949531D01*
X125726433Y-105946360D01*
X125724961Y-105939541D01*
X125723785Y-105928211D01*
X125722877Y-105911509D01*
X125722207Y-105888571D01*
X125721746Y-105858536D01*
X125721465Y-105820541D01*
X125721336Y-105773724D01*
X125721320Y-105743875D01*
X125721320Y-105543954D01*
X125732750Y-105536902D01*
X125740237Y-105534400D01*
X125756536Y-105530372D01*
X125780455Y-105525066D01*
X125810802Y-105518732D01*
X125846384Y-105511617D01*
X125886009Y-105503971D01*
X125928486Y-105496042D01*
X125929600Y-105495838D01*
X125971876Y-105487950D01*
X126011108Y-105480374D01*
X126046145Y-105473352D01*
X126075836Y-105467126D01*
X126099030Y-105461937D01*
X126114576Y-105458026D01*
X126121323Y-105455637D01*
X126121405Y-105455566D01*
X126125090Y-105449301D01*
X126132022Y-105435106D01*
X126141577Y-105414428D01*
X126153134Y-105388713D01*
X126166070Y-105359406D01*
X126179763Y-105327954D01*
X126193591Y-105295802D01*
X126206931Y-105264397D01*
X126219161Y-105235185D01*
X126229659Y-105209611D01*
X126237803Y-105189123D01*
X126242969Y-105175165D01*
X126244560Y-105169394D01*
X126241767Y-105163575D01*
X126233811Y-105150372D01*
X126221319Y-105130749D01*
X126204924Y-105105667D01*
X126185254Y-105076089D01*
X126162939Y-105042976D01*
X126138611Y-105007293D01*
X126134742Y-105001655D01*
X126110048Y-104965538D01*
X126087155Y-104931750D01*
X126066713Y-104901274D01*
X126049371Y-104875088D01*
X126035778Y-104854175D01*
X126026583Y-104839516D01*
X126022434Y-104832090D01*
X126022293Y-104831684D01*
X126023054Y-104827579D01*
X126027214Y-104820668D01*
X126035317Y-104810355D01*
X126047905Y-104796048D01*
X126065521Y-104777154D01*
X126088708Y-104753078D01*
X126118008Y-104723226D01*
X126153964Y-104687005D01*
X126161199Y-104679749D01*
X126197218Y-104643889D01*
X126229356Y-104612378D01*
X126257068Y-104585731D01*
X126279806Y-104564461D01*
X126297023Y-104549081D01*
X126308174Y-104540105D01*
X126312325Y-104537880D01*
X126318560Y-104540672D01*
X126332156Y-104548627D01*
X126352133Y-104561110D01*
X126377508Y-104577487D01*
X126407300Y-104597122D01*
X126440526Y-104619382D01*
X126476205Y-104643631D01*
X126480086Y-104646289D01*
X126516100Y-104670928D01*
X126549822Y-104693914D01*
X126580253Y-104714573D01*
X126606395Y-104732230D01*
X126627248Y-104746211D01*
X126641815Y-104755841D01*
X126649096Y-104760446D01*
X126649352Y-104760587D01*
X126653805Y-104761941D01*
X126660339Y-104761744D01*
X126670059Y-104759631D01*
X126684068Y-104755234D01*
X126703471Y-104748187D01*
X126729373Y-104738124D01*
X126762877Y-104724677D01*
X126786512Y-104715068D01*
X126828366Y-104697981D01*
X126861788Y-104684243D01*
X126887760Y-104673382D01*
X126907264Y-104664926D01*
X126921281Y-104658403D01*
X126930795Y-104653340D01*
X126936786Y-104649266D01*
X126940236Y-104645708D01*
X126942128Y-104642193D01*
X126942945Y-104639840D01*
X126944560Y-104632736D01*
X126947793Y-104616805D01*
X126952420Y-104593215D01*
X126958216Y-104563129D01*
X126964958Y-104527714D01*
X126972420Y-104488135D01*
X126980378Y-104445558D01*
X126981195Y-104441168D01*
X126989252Y-104398481D01*
X126996968Y-104358799D01*
X127004104Y-104323266D01*
X127010420Y-104293028D01*
X127015676Y-104269228D01*
X127019633Y-104253012D01*
X127022050Y-104245524D01*
X127022212Y-104245283D01*
X127025242Y-104243437D01*
X127031563Y-104241928D01*
X127042063Y-104240727D01*
X127057633Y-104239801D01*
X127079159Y-104239121D01*
X127107532Y-104238657D01*
X127143639Y-104238376D01*
X127188370Y-104238250D01*
X127226892Y-104238237D01*
X127271025Y-104238358D01*
X127271025Y-104238358D01*
G37*
X127271025Y-104238358D02*
X127312086Y-104238668D01*
X127348939Y-104239144D01*
X127380448Y-104239763D01*
X127405478Y-104240502D01*
X127422893Y-104241337D01*
X127431557Y-104242244D01*
X127432210Y-104242471D01*
X127434787Y-104248471D01*
X127438922Y-104263787D01*
X127444466Y-104287721D01*
X127451268Y-104319573D01*
X127459179Y-104358644D01*
X127468047Y-104404237D01*
X127475901Y-104445850D01*
X127484151Y-104489601D01*
X127492001Y-104530265D01*
X127499225Y-104566748D01*
X127505599Y-104597957D01*
X127510898Y-104622798D01*
X127514897Y-104640177D01*
X127517372Y-104649000D01*
X127517802Y-104649834D01*
X127524048Y-104653371D01*
X127538151Y-104659916D01*
X127558676Y-104668889D01*
X127584190Y-104679710D01*
X127613258Y-104691800D01*
X127644446Y-104704578D01*
X127676320Y-104717466D01*
X127707447Y-104729882D01*
X127736392Y-104741248D01*
X127761721Y-104750983D01*
X127781999Y-104758508D01*
X127795794Y-104763242D01*
X127801671Y-104764607D01*
X127801678Y-104764605D01*
X127806988Y-104761333D01*
X127819724Y-104752928D01*
X127838948Y-104740025D01*
X127863724Y-104723257D01*
X127893114Y-104703260D01*
X127926180Y-104680669D01*
X127961986Y-104656119D01*
X127970656Y-104650162D01*
X128007085Y-104625277D01*
X128041148Y-104602306D01*
X128071886Y-104581874D01*
X128098339Y-104564606D01*
X128119549Y-104551126D01*
X128134556Y-104542059D01*
X128142401Y-104538028D01*
X128143086Y-104537879D01*
X128148807Y-104541391D01*
X128160602Y-104551292D01*
X128177520Y-104566632D01*
X128198609Y-104586458D01*
X128222919Y-104609820D01*
X128249500Y-104635767D01*
X128277400Y-104663347D01*
X128305669Y-104691609D01*
X128333355Y-104719603D01*
X128359508Y-104746376D01*
X128383178Y-104770978D01*
X128403412Y-104792458D01*
X128419261Y-104809864D01*
X128429774Y-104822246D01*
X128433999Y-104828651D01*
X128434040Y-104828938D01*
X128431243Y-104835058D01*
X128423279Y-104848530D01*
X128410789Y-104868372D01*
X128394410Y-104893598D01*
X128374783Y-104923226D01*
X128352547Y-104956269D01*
X128328341Y-104991745D01*
X128326788Y-104994005D01*
X128302294Y-105029726D01*
X128279499Y-105063139D01*
X128259080Y-105093244D01*
X128241708Y-105119038D01*
X128228060Y-105139521D01*
X128218807Y-105153692D01*
X128214626Y-105160550D01*
X128214568Y-105160670D01*
X128213784Y-105165391D01*
X128214912Y-105173231D01*
X128218299Y-105185143D01*
X128224292Y-105202084D01*
X128233241Y-105225007D01*
X128245491Y-105254867D01*
X128261390Y-105292619D01*
X128269749Y-105312252D01*
X128286018Y-105349852D01*
X128301011Y-105383510D01*
X128314231Y-105412168D01*
X128325175Y-105434772D01*
X128333346Y-105450265D01*
X128338243Y-105457592D01*
X128338710Y-105457948D01*
X128345560Y-105459928D01*
X128361248Y-105463502D01*
X128384616Y-105468434D01*
X128414508Y-105474491D01*
X128449767Y-105481439D01*
X128489236Y-105489044D01*
X128531757Y-105497071D01*
X128536409Y-105497940D01*
X128585146Y-105507180D01*
X128628053Y-105515621D01*
X128664390Y-105523102D01*
X128693418Y-105529463D01*
X128714397Y-105534544D01*
X128726585Y-105538184D01*
X128729451Y-105539714D01*
X128730372Y-105546096D01*
X128731225Y-105561503D01*
X128731989Y-105584798D01*
X128732638Y-105614847D01*
X128733151Y-105650514D01*
X128733503Y-105690663D01*
X128733671Y-105734159D01*
X128733682Y-105745027D01*
X128733649Y-105796548D01*
X128733486Y-105838801D01*
X128733162Y-105872680D01*
X128732647Y-105899077D01*
X128731908Y-105918884D01*
X128730916Y-105932996D01*
X128729639Y-105942303D01*
X128728046Y-105947699D01*
X128726595Y-105949741D01*
X128720095Y-105951999D01*
X128704763Y-105955799D01*
X128681765Y-105960898D01*
X128652271Y-105967050D01*
X128617450Y-105974013D01*
X128578470Y-105981543D01*
X128537365Y-105989236D01*
X128491210Y-105997897D01*
X128449798Y-106005981D01*
X128414062Y-106013286D01*
X128384937Y-106019611D01*
X128363354Y-106024758D01*
X128350249Y-106028525D01*
X128346726Y-106030133D01*
X128342704Y-106036585D01*
X128335714Y-106050987D01*
X128326314Y-106071948D01*
X128315063Y-106098082D01*
X128302519Y-106128000D01*
X128289240Y-106160313D01*
X128275785Y-106193634D01*
X128262712Y-106226575D01*
X128250580Y-106257747D01*
X128239946Y-106285763D01*
X128231369Y-106309233D01*
X128225408Y-106326771D01*
X128222620Y-106336987D01*
X128222556Y-106338842D01*
X128225901Y-106344358D01*
X128234348Y-106357262D01*
X128247236Y-106376573D01*
X128263906Y-106401312D01*
X128283697Y-106430498D01*
X128305948Y-106463151D01*
X128329512Y-106497582D01*
X128353487Y-106532797D01*
X128375526Y-106565662D01*
X128394982Y-106595174D01*
X128411209Y-106620331D01*
X128423558Y-106640130D01*
X128431383Y-106653568D01*
X128434040Y-106659588D01*
X128430537Y-106665258D01*
X128420662Y-106677017D01*
X128405363Y-106693914D01*
X128385590Y-106714997D01*
X128362290Y-106739314D01*
X128336414Y-106765912D01*
X128308908Y-106793838D01*
X128280723Y-106822142D01*
X128252807Y-106849870D01*
X128226109Y-106876071D01*
X128201578Y-106899792D01*
X128180162Y-106920081D01*
X128162810Y-106935985D01*
X128150471Y-106946554D01*
X128144094Y-106950834D01*
X128143792Y-106950880D01*
X128137917Y-106948089D01*
X128124690Y-106940148D01*
X128105102Y-106927705D01*
X128080147Y-106911406D01*
X128050814Y-106891900D01*
X128018098Y-106869834D01*
X127984274Y-106846740D01*
X127949192Y-106822807D01*
X127916493Y-106800813D01*
X127887179Y-106781405D01*
X127862247Y-106765232D01*
X127842696Y-106752942D01*
X127829527Y-106745183D01*
X127823812Y-106742600D01*
X127816386Y-106744920D01*
X127801894Y-106751305D01*
X127782157Y-106760890D01*
X127758991Y-106772810D01*
X127748350Y-106778481D01*
X127722800Y-106791747D01*
X127700514Y-106802375D01*
X127683172Y-106809622D01*
X127672456Y-106812744D01*
X127670823Y-106812771D01*
X127668235Y-106811377D01*
X127664874Y-106807452D01*
X127660467Y-106800381D01*
X127654738Y-106789547D01*
X127647414Y-106774334D01*
X127638220Y-106754125D01*
X127626884Y-106728305D01*
X127613129Y-106696257D01*
X127596684Y-106657365D01*
X127577272Y-106611012D01*
X127554620Y-106556582D01*
X127528454Y-106493459D01*
X127523860Y-106482359D01*
X127501257Y-106427528D01*
X127479911Y-106375342D01*
X127460128Y-106326575D01*
X127442213Y-106281998D01*
X127426473Y-106242386D01*
X127413212Y-106208510D01*
X127402736Y-106181143D01*
X127395352Y-106161060D01*
X127391364Y-106149031D01*
X127390760Y-106145809D01*
X127395949Y-106139897D01*
X127407723Y-106129827D01*
X127424234Y-106117102D01*
X127440173Y-106105629D01*
X127482327Y-106074570D01*
X127516753Y-106045231D01*
X127545203Y-106015682D01*
X127569432Y-105983997D01*
X127591194Y-105948247D01*
X127601863Y-105927918D01*
X127625756Y-105869488D01*
X127640076Y-105809158D01*
X127644979Y-105747953D01*
X127640623Y-105686898D01*
X127627163Y-105627019D01*
X127604756Y-105569342D01*
X127573559Y-105514891D01*
X127533727Y-105464692D01*
X127530664Y-105461411D01*
X127483017Y-105417833D01*
X127429808Y-105382422D01*
X127370354Y-105354755D01*
X127341660Y-105344807D01*
X127324933Y-105339974D01*
X127309165Y-105336632D01*
X127291854Y-105334519D01*
X127270497Y-105333373D01*
X127242593Y-105332935D01*
X127227540Y-105332900D01*
X127195915Y-105333110D01*
X127171936Y-105333916D01*
X127153093Y-105335578D01*
X127136877Y-105338357D01*
X127120778Y-105342516D01*
X127113240Y-105344802D01*
X127051246Y-105369205D01*
X126994961Y-105401690D01*
X126944969Y-105441763D01*
X126901854Y-105488933D01*
X126866201Y-105542707D01*
X126856329Y-105561500D01*
X126835756Y-105608357D01*
X126822234Y-105652726D01*
X126814860Y-105698443D01*
X126812727Y-105746920D01*
X126817586Y-105811989D01*
X126831992Y-105874065D01*
X126855688Y-105932510D01*
X126888416Y-105986687D01*
X126928955Y-106034975D01*
X126947140Y-106051971D01*
X126970762Y-106071791D01*
X126996748Y-106092052D01*
X127022023Y-106110368D01*
X127043514Y-106124354D01*
X127046139Y-106125883D01*
X127057832Y-106134785D01*
X127064872Y-106144264D01*
X127065325Y-106145648D01*
X127063872Y-106152322D01*
X127058641Y-106167833D01*
X127049832Y-106191671D01*
X127037647Y-106223326D01*
X127022287Y-106262287D01*
X127003953Y-106308043D01*
X126982846Y-106360085D01*
X126959166Y-106417901D01*
X126935728Y-106474679D01*
X126913300Y-106528781D01*
X126891914Y-106580286D01*
X126871903Y-106628399D01*
X126853599Y-106672325D01*
X126837334Y-106711268D01*
X126823442Y-106744433D01*
X126812253Y-106771026D01*
X126804102Y-106790249D01*
X126799319Y-106801309D01*
X126798253Y-106803609D01*
X126790020Y-106811716D01*
X126783211Y-106813720D01*
X126775498Y-106811394D01*
X126760745Y-106804995D01*
X126740790Y-106795387D01*
X126717470Y-106783437D01*
X126706642Y-106777672D01*
X126676834Y-106762192D01*
X126653316Y-106751189D01*
X126636875Y-106745007D01*
X126628822Y-106743837D01*
X126621680Y-106747269D01*
X126607538Y-106755700D01*
X126587709Y-106768286D01*
X126563506Y-106784184D01*
X126536241Y-106802551D01*
X126518880Y-106814461D01*
X126471962Y-106846822D01*
X126432682Y-106873815D01*
X126400352Y-106895892D01*
X126374281Y-106913506D01*
X126353781Y-106927109D01*
X126338163Y-106937155D01*
X126326739Y-106944097D01*
X126318819Y-106948388D01*
X126313714Y-106950480D01*
X126311387Y-106950880D01*
X126306121Y-106947399D01*
X126294535Y-106937478D01*
X126277460Y-106921897D01*
X126255721Y-106901437D01*
X126230148Y-106876880D01*
X126201568Y-106849006D01*
X126170809Y-106818597D01*
X126164731Y-106812541D01*
X126133736Y-106781470D01*
X126105010Y-106752382D01*
X126079357Y-106726112D01*
X126057577Y-106703494D01*
X126040473Y-106685363D01*
X126028847Y-106672552D01*
X126023501Y-106665896D01*
X126023266Y-106665413D01*
X126022367Y-106662436D01*
X126022052Y-106659393D01*
X126022835Y-106655460D01*
X126025226Y-106649812D01*
X126029737Y-106641624D01*
X126036879Y-106630072D01*
X126047165Y-106614330D01*
X126061105Y-106593575D01*
X126079212Y-106566980D01*
X126101996Y-106533721D01*
X126129969Y-106492973D01*
X126132515Y-106489266D01*
X126156161Y-106454625D01*
X126177865Y-106422438D01*
X126196973Y-106393706D01*
X126212831Y-106369428D01*
X126224785Y-106350605D01*
X126232181Y-106338237D01*
X126234400Y-106333469D01*
X126232571Y-106327070D01*
X126227390Y-106312455D01*
X126219314Y-106290826D01*
X126208802Y-106263385D01*
X126196312Y-106231333D01*
X126182300Y-106195874D01*
X126175294Y-106178307D01*
X126157557Y-106134314D01*
X126143005Y-106099051D01*
X126131276Y-106071727D01*
X126122006Y-106051551D01*
X126114833Y-106037734D01*
X126109394Y-106029485D01*
X126105444Y-106026059D01*
X126098085Y-106024121D01*
X126081936Y-106020609D01*
X126058202Y-106015762D01*
X126028091Y-106009819D01*
X125992809Y-106003018D01*
X125953562Y-105995597D01*
X125914921Y-105988414D01*
X125873281Y-105980616D01*
X125834669Y-105973154D01*
X125800261Y-105966273D01*
X125771230Y-105960217D01*
X125748751Y-105955232D01*
X125733998Y-105951560D01*
X125728231Y-105949531D01*
X125726433Y-105946360D01*
X125724961Y-105939541D01*
X125723785Y-105928211D01*
X125722877Y-105911509D01*
X125722207Y-105888571D01*
X125721746Y-105858536D01*
X125721465Y-105820541D01*
X125721336Y-105773724D01*
X125721320Y-105743875D01*
X125721320Y-105543954D01*
X125732750Y-105536902D01*
X125740237Y-105534400D01*
X125756536Y-105530372D01*
X125780455Y-105525066D01*
X125810802Y-105518732D01*
X125846384Y-105511617D01*
X125886009Y-105503971D01*
X125928486Y-105496042D01*
X125929600Y-105495838D01*
X125971876Y-105487950D01*
X126011108Y-105480374D01*
X126046145Y-105473352D01*
X126075836Y-105467126D01*
X126099030Y-105461937D01*
X126114576Y-105458026D01*
X126121323Y-105455637D01*
X126121405Y-105455566D01*
X126125090Y-105449301D01*
X126132022Y-105435106D01*
X126141577Y-105414428D01*
X126153134Y-105388713D01*
X126166070Y-105359406D01*
X126179763Y-105327954D01*
X126193591Y-105295802D01*
X126206931Y-105264397D01*
X126219161Y-105235185D01*
X126229659Y-105209611D01*
X126237803Y-105189123D01*
X126242969Y-105175165D01*
X126244560Y-105169394D01*
X126241767Y-105163575D01*
X126233811Y-105150372D01*
X126221319Y-105130749D01*
X126204924Y-105105667D01*
X126185254Y-105076089D01*
X126162939Y-105042976D01*
X126138611Y-105007293D01*
X126134742Y-105001655D01*
X126110048Y-104965538D01*
X126087155Y-104931750D01*
X126066713Y-104901274D01*
X126049371Y-104875088D01*
X126035778Y-104854175D01*
X126026583Y-104839516D01*
X126022434Y-104832090D01*
X126022293Y-104831684D01*
X126023054Y-104827579D01*
X126027214Y-104820668D01*
X126035317Y-104810355D01*
X126047905Y-104796048D01*
X126065521Y-104777154D01*
X126088708Y-104753078D01*
X126118008Y-104723226D01*
X126153964Y-104687005D01*
X126161199Y-104679749D01*
X126197218Y-104643889D01*
X126229356Y-104612378D01*
X126257068Y-104585731D01*
X126279806Y-104564461D01*
X126297023Y-104549081D01*
X126308174Y-104540105D01*
X126312325Y-104537880D01*
X126318560Y-104540672D01*
X126332156Y-104548627D01*
X126352133Y-104561110D01*
X126377508Y-104577487D01*
X126407300Y-104597122D01*
X126440526Y-104619382D01*
X126476205Y-104643631D01*
X126480086Y-104646289D01*
X126516100Y-104670928D01*
X126549822Y-104693914D01*
X126580253Y-104714573D01*
X126606395Y-104732230D01*
X126627248Y-104746211D01*
X126641815Y-104755841D01*
X126649096Y-104760446D01*
X126649352Y-104760587D01*
X126653805Y-104761941D01*
X126660339Y-104761744D01*
X126670059Y-104759631D01*
X126684068Y-104755234D01*
X126703471Y-104748187D01*
X126729373Y-104738124D01*
X126762877Y-104724677D01*
X126786512Y-104715068D01*
X126828366Y-104697981D01*
X126861788Y-104684243D01*
X126887760Y-104673382D01*
X126907264Y-104664926D01*
X126921281Y-104658403D01*
X126930795Y-104653340D01*
X126936786Y-104649266D01*
X126940236Y-104645708D01*
X126942128Y-104642193D01*
X126942945Y-104639840D01*
X126944560Y-104632736D01*
X126947793Y-104616805D01*
X126952420Y-104593215D01*
X126958216Y-104563129D01*
X126964958Y-104527714D01*
X126972420Y-104488135D01*
X126980378Y-104445558D01*
X126981195Y-104441168D01*
X126989252Y-104398481D01*
X126996968Y-104358799D01*
X127004104Y-104323266D01*
X127010420Y-104293028D01*
X127015676Y-104269228D01*
X127019633Y-104253012D01*
X127022050Y-104245524D01*
X127022212Y-104245283D01*
X127025242Y-104243437D01*
X127031563Y-104241928D01*
X127042063Y-104240727D01*
X127057633Y-104239801D01*
X127079159Y-104239121D01*
X127107532Y-104238657D01*
X127143639Y-104238376D01*
X127188370Y-104238250D01*
X127226892Y-104238237D01*
X127271025Y-104238358D01*
D12*
G36*
X140529558Y-99790645D02*
G01*
X140948282Y-99873934D01*
X141539926Y-100119001D01*
X142072392Y-100474784D01*
X142525216Y-100927608D01*
X142880999Y-101460074D01*
X143126066Y-102051718D01*
X143126066Y-102051720D01*
X143251000Y-102679803D01*
X143251000Y-103320197D01*
X143209355Y-103529558D01*
X143126066Y-103948282D01*
X142880999Y-104539926D01*
X142525216Y-105072392D01*
X142072392Y-105525216D01*
X141539926Y-105880999D01*
X140948282Y-106126066D01*
X140529558Y-106209355D01*
X140320197Y-106251000D01*
X139679803Y-106251000D01*
X139470442Y-106209355D01*
X139051718Y-106126066D01*
X138460074Y-105880999D01*
X137927608Y-105525216D01*
X137474784Y-105072392D01*
X137119001Y-104539926D01*
X136873934Y-103948282D01*
X136790645Y-103529558D01*
X136749000Y-103320197D01*
X136749000Y-102679803D01*
X136873934Y-102051720D01*
X136873934Y-102051718D01*
X137119001Y-101460074D01*
X137474784Y-100927608D01*
X137927608Y-100474784D01*
X138460074Y-100119001D01*
X139051718Y-99873934D01*
X139470442Y-99790645D01*
X139679803Y-99749000D01*
X140320197Y-99749000D01*
X140529558Y-99790645D01*
X140529558Y-99790645D01*
G37*
G36*
X102529558Y-99790645D02*
G01*
X102948282Y-99873934D01*
X103539926Y-100119001D01*
X104072392Y-100474784D01*
X104525216Y-100927608D01*
X104880999Y-101460074D01*
X105126066Y-102051718D01*
X105126066Y-102051720D01*
X105251000Y-102679803D01*
X105251000Y-103320197D01*
X105209355Y-103529558D01*
X105126066Y-103948282D01*
X104880999Y-104539926D01*
X104525216Y-105072392D01*
X104072392Y-105525216D01*
X103539926Y-105880999D01*
X102948282Y-106126066D01*
X102529558Y-106209355D01*
X102320197Y-106251000D01*
X101679803Y-106251000D01*
X101470442Y-106209355D01*
X101051718Y-106126066D01*
X100460074Y-105880999D01*
X99927608Y-105525216D01*
X99474784Y-105072392D01*
X99119001Y-104539926D01*
X98873934Y-103948282D01*
X98790645Y-103529558D01*
X98749000Y-103320197D01*
X98749000Y-102679803D01*
X98873934Y-102051720D01*
X98873934Y-102051718D01*
X99119001Y-101460074D01*
X99474784Y-100927608D01*
X99927608Y-100474784D01*
X100460074Y-100119001D01*
X101051718Y-99873934D01*
X101470442Y-99790645D01*
X101679803Y-99749000D01*
X102320197Y-99749000D01*
X102529558Y-99790645D01*
X102529558Y-99790645D01*
G37*
G36*
X144961000Y-91951000D02*
G01*
X140659000Y-91951000D01*
X140659000Y-90499000D01*
X144961000Y-90499000D01*
X144961000Y-91951000D01*
X144961000Y-91951000D01*
G37*
G36*
X101351000Y-91951000D02*
G01*
X97049000Y-91951000D01*
X97049000Y-90499000D01*
X101351000Y-90499000D01*
X101351000Y-91951000D01*
X101351000Y-91951000D01*
G37*
G36*
X120350240Y-89275447D02*
G01*
X120362019Y-89279020D01*
X120372865Y-89284818D01*
X120382376Y-89292624D01*
X120390182Y-89302135D01*
X120395980Y-89312981D01*
X120399553Y-89324760D01*
X120401000Y-89339453D01*
X120401000Y-89560547D01*
X120399553Y-89575240D01*
X120395980Y-89587019D01*
X120390182Y-89597865D01*
X120382376Y-89607376D01*
X120372865Y-89615182D01*
X120362019Y-89620980D01*
X120350240Y-89624553D01*
X120335547Y-89626000D01*
X119664453Y-89626000D01*
X119649760Y-89624553D01*
X119637981Y-89620980D01*
X119627135Y-89615182D01*
X119617624Y-89607376D01*
X119609818Y-89597865D01*
X119604020Y-89587019D01*
X119600447Y-89575240D01*
X119599000Y-89560547D01*
X119599000Y-89339453D01*
X119600447Y-89324760D01*
X119604020Y-89312981D01*
X119609818Y-89302135D01*
X119617624Y-89292624D01*
X119627135Y-89284818D01*
X119637981Y-89279020D01*
X119649760Y-89275447D01*
X119664453Y-89274000D01*
X120335547Y-89274000D01*
X120350240Y-89275447D01*
X120350240Y-89275447D01*
G37*
G36*
X118350240Y-89275447D02*
G01*
X118362019Y-89279020D01*
X118372865Y-89284818D01*
X118382376Y-89292624D01*
X118390182Y-89302135D01*
X118395980Y-89312981D01*
X118399553Y-89324760D01*
X118401000Y-89339453D01*
X118401000Y-89560547D01*
X118399553Y-89575240D01*
X118395980Y-89587019D01*
X118390182Y-89597865D01*
X118382376Y-89607376D01*
X118372865Y-89615182D01*
X118362019Y-89620980D01*
X118350240Y-89624553D01*
X118335547Y-89626000D01*
X117664453Y-89626000D01*
X117649760Y-89624553D01*
X117637981Y-89620980D01*
X117627135Y-89615182D01*
X117617624Y-89607376D01*
X117609818Y-89597865D01*
X117604020Y-89587019D01*
X117600447Y-89575240D01*
X117599000Y-89560547D01*
X117599000Y-89339453D01*
X117600447Y-89324760D01*
X117604020Y-89312981D01*
X117609818Y-89302135D01*
X117617624Y-89292624D01*
X117627135Y-89284818D01*
X117637981Y-89279020D01*
X117649760Y-89275447D01*
X117664453Y-89274000D01*
X118335547Y-89274000D01*
X118350240Y-89275447D01*
X118350240Y-89275447D01*
G37*
G36*
X119319446Y-87903570D02*
G01*
X119361701Y-87916388D01*
X119400646Y-87937205D01*
X119434781Y-87965219D01*
X119462795Y-87999354D01*
X119483612Y-88038299D01*
X119496430Y-88080554D01*
X119501000Y-88126954D01*
X119501000Y-88316712D01*
X119501961Y-88326466D01*
X119504806Y-88335846D01*
X119509426Y-88344490D01*
X119515644Y-88352067D01*
X119523221Y-88358285D01*
X119531865Y-88362905D01*
X119541245Y-88365750D01*
X119550999Y-88366711D01*
X119560753Y-88365750D01*
X119570133Y-88362905D01*
X119578777Y-88358285D01*
X119586354Y-88352067D01*
X119592572Y-88344490D01*
X119597192Y-88335846D01*
X119600037Y-88326466D01*
X119600140Y-88325772D01*
X119604020Y-88312981D01*
X119609818Y-88302135D01*
X119617624Y-88292624D01*
X119627135Y-88284818D01*
X119637981Y-88279020D01*
X119649760Y-88275447D01*
X119664453Y-88274000D01*
X120335547Y-88274000D01*
X120350240Y-88275447D01*
X120362019Y-88279020D01*
X120372865Y-88284818D01*
X120382376Y-88292624D01*
X120390182Y-88302135D01*
X120395980Y-88312981D01*
X120399553Y-88324760D01*
X120401000Y-88339453D01*
X120401000Y-88560547D01*
X120399553Y-88575240D01*
X120395980Y-88587019D01*
X120390182Y-88597865D01*
X120382376Y-88607376D01*
X120372865Y-88615182D01*
X120362019Y-88620980D01*
X120350240Y-88624553D01*
X120335547Y-88626000D01*
X119664453Y-88626000D01*
X119649760Y-88624553D01*
X119637981Y-88620980D01*
X119627135Y-88615182D01*
X119617624Y-88607376D01*
X119609818Y-88597865D01*
X119604020Y-88587019D01*
X119599529Y-88572214D01*
X119598845Y-88568775D01*
X119595095Y-88559720D01*
X119589650Y-88551570D01*
X119582719Y-88544639D01*
X119574570Y-88539193D01*
X119565514Y-88535442D01*
X119555901Y-88533530D01*
X119546100Y-88533530D01*
X119536486Y-88535442D01*
X119527431Y-88539192D01*
X119519281Y-88544637D01*
X119512350Y-88551568D01*
X119506904Y-88559717D01*
X119503153Y-88568773D01*
X119501241Y-88578386D01*
X119501000Y-88583288D01*
X119501000Y-88816712D01*
X119501961Y-88826466D01*
X119504806Y-88835846D01*
X119509426Y-88844490D01*
X119515644Y-88852067D01*
X119523221Y-88858285D01*
X119531865Y-88862905D01*
X119541245Y-88865750D01*
X119550999Y-88866711D01*
X119560753Y-88865750D01*
X119570133Y-88862905D01*
X119578777Y-88858285D01*
X119586354Y-88852067D01*
X119592572Y-88844490D01*
X119597192Y-88835846D01*
X119600037Y-88826466D01*
X119600140Y-88825772D01*
X119604020Y-88812981D01*
X119609818Y-88802135D01*
X119617624Y-88792624D01*
X119627135Y-88784818D01*
X119637981Y-88779020D01*
X119649760Y-88775447D01*
X119664453Y-88774000D01*
X120335547Y-88774000D01*
X120350240Y-88775447D01*
X120362019Y-88779020D01*
X120372865Y-88784818D01*
X120382376Y-88792624D01*
X120390182Y-88802135D01*
X120395980Y-88812981D01*
X120399553Y-88824760D01*
X120401000Y-88839453D01*
X120401000Y-89060547D01*
X120399553Y-89075240D01*
X120395980Y-89087019D01*
X120390182Y-89097865D01*
X120382376Y-89107376D01*
X120372865Y-89115182D01*
X120362019Y-89120980D01*
X120350240Y-89124553D01*
X120335547Y-89126000D01*
X119664453Y-89126000D01*
X119649760Y-89124553D01*
X119637981Y-89120980D01*
X119627135Y-89115182D01*
X119617624Y-89107376D01*
X119609818Y-89097865D01*
X119604020Y-89087019D01*
X119599529Y-89072214D01*
X119598845Y-89068775D01*
X119595095Y-89059720D01*
X119589650Y-89051570D01*
X119582719Y-89044639D01*
X119574570Y-89039193D01*
X119565514Y-89035442D01*
X119555901Y-89033530D01*
X119546100Y-89033530D01*
X119536486Y-89035442D01*
X119527431Y-89039192D01*
X119519281Y-89044637D01*
X119512350Y-89051568D01*
X119506904Y-89059717D01*
X119503153Y-89068773D01*
X119501241Y-89078386D01*
X119501000Y-89083288D01*
X119501000Y-89273046D01*
X119496430Y-89319446D01*
X119483612Y-89361701D01*
X119462795Y-89400646D01*
X119434781Y-89434781D01*
X119400646Y-89462795D01*
X119361701Y-89483612D01*
X119319446Y-89496430D01*
X119273046Y-89501000D01*
X118726954Y-89501000D01*
X118680554Y-89496430D01*
X118638299Y-89483612D01*
X118599354Y-89462795D01*
X118565219Y-89434781D01*
X118537205Y-89400646D01*
X118516388Y-89361701D01*
X118503570Y-89319446D01*
X118499000Y-89273046D01*
X118499000Y-89083288D01*
X118498039Y-89073534D01*
X118495194Y-89064154D01*
X118490574Y-89055510D01*
X118484356Y-89047933D01*
X118476779Y-89041715D01*
X118468135Y-89037095D01*
X118458755Y-89034250D01*
X118449001Y-89033289D01*
X118439247Y-89034250D01*
X118429867Y-89037095D01*
X118421223Y-89041715D01*
X118413646Y-89047933D01*
X118407428Y-89055510D01*
X118402808Y-89064154D01*
X118399963Y-89073534D01*
X118399860Y-89074228D01*
X118395980Y-89087019D01*
X118390182Y-89097865D01*
X118382376Y-89107376D01*
X118372865Y-89115182D01*
X118362019Y-89120980D01*
X118350240Y-89124553D01*
X118335547Y-89126000D01*
X117664453Y-89126000D01*
X117649760Y-89124553D01*
X117637981Y-89120980D01*
X117627135Y-89115182D01*
X117617624Y-89107376D01*
X117609818Y-89097865D01*
X117604020Y-89087019D01*
X117600447Y-89075240D01*
X117599000Y-89060547D01*
X117599000Y-88839453D01*
X117600447Y-88824760D01*
X117604020Y-88812981D01*
X117609818Y-88802135D01*
X117617624Y-88792624D01*
X117627135Y-88784818D01*
X117637981Y-88779020D01*
X117649760Y-88775447D01*
X117664453Y-88774000D01*
X118335547Y-88774000D01*
X118350240Y-88775447D01*
X118362019Y-88779020D01*
X118372865Y-88784818D01*
X118382376Y-88792624D01*
X118390182Y-88802135D01*
X118395980Y-88812981D01*
X118400471Y-88827786D01*
X118401155Y-88831225D01*
X118404905Y-88840280D01*
X118410350Y-88848430D01*
X118417281Y-88855361D01*
X118425430Y-88860807D01*
X118434486Y-88864558D01*
X118444099Y-88866470D01*
X118453900Y-88866470D01*
X118463514Y-88864558D01*
X118472569Y-88860808D01*
X118480719Y-88855363D01*
X118487650Y-88848432D01*
X118493096Y-88840283D01*
X118496847Y-88831227D01*
X118498759Y-88821614D01*
X118499000Y-88816712D01*
X118499000Y-88583288D01*
X118498039Y-88573534D01*
X118495194Y-88564154D01*
X118490574Y-88555510D01*
X118484356Y-88547933D01*
X118476779Y-88541715D01*
X118468135Y-88537095D01*
X118458755Y-88534250D01*
X118449001Y-88533289D01*
X118439247Y-88534250D01*
X118429867Y-88537095D01*
X118421223Y-88541715D01*
X118413646Y-88547933D01*
X118407428Y-88555510D01*
X118402808Y-88564154D01*
X118399963Y-88573534D01*
X118399860Y-88574228D01*
X118395980Y-88587019D01*
X118390182Y-88597865D01*
X118382376Y-88607376D01*
X118372865Y-88615182D01*
X118362019Y-88620980D01*
X118350240Y-88624553D01*
X118335547Y-88626000D01*
X117664453Y-88626000D01*
X117649760Y-88624553D01*
X117637981Y-88620980D01*
X117627135Y-88615182D01*
X117617624Y-88607376D01*
X117609818Y-88597865D01*
X117604020Y-88587019D01*
X117600447Y-88575240D01*
X117599000Y-88560547D01*
X117599000Y-88339453D01*
X117600447Y-88324760D01*
X117604020Y-88312981D01*
X117609818Y-88302135D01*
X117617624Y-88292624D01*
X117627135Y-88284818D01*
X117637981Y-88279020D01*
X117649760Y-88275447D01*
X117664453Y-88274000D01*
X118335547Y-88274000D01*
X118350240Y-88275447D01*
X118362019Y-88279020D01*
X118372865Y-88284818D01*
X118382376Y-88292624D01*
X118390182Y-88302135D01*
X118395980Y-88312981D01*
X118400471Y-88327786D01*
X118401155Y-88331225D01*
X118404905Y-88340280D01*
X118410350Y-88348430D01*
X118417281Y-88355361D01*
X118425430Y-88360807D01*
X118434486Y-88364558D01*
X118444099Y-88366470D01*
X118453900Y-88366470D01*
X118463514Y-88364558D01*
X118472569Y-88360808D01*
X118480719Y-88355363D01*
X118487650Y-88348432D01*
X118493096Y-88340283D01*
X118496847Y-88331227D01*
X118498759Y-88321614D01*
X118499000Y-88316712D01*
X118499000Y-88126954D01*
X118503570Y-88080554D01*
X118516388Y-88038299D01*
X118537205Y-87999354D01*
X118565219Y-87965219D01*
X118599354Y-87937205D01*
X118638299Y-87916388D01*
X118680554Y-87903570D01*
X118726954Y-87899000D01*
X119273046Y-87899000D01*
X119319446Y-87903570D01*
X119319446Y-87903570D01*
G37*
G36*
X144861000Y-89086000D02*
G01*
X141159000Y-89086000D01*
X141159000Y-87714000D01*
X144861000Y-87714000D01*
X144861000Y-89086000D01*
X144861000Y-89086000D01*
G37*
G36*
X100851000Y-89086000D02*
G01*
X97149000Y-89086000D01*
X97149000Y-87714000D01*
X100851000Y-87714000D01*
X100851000Y-89086000D01*
X100851000Y-89086000D01*
G37*
G36*
X116211824Y-88082080D02*
G01*
X116239545Y-88090490D01*
X116265089Y-88104144D01*
X116287480Y-88122520D01*
X116305856Y-88144911D01*
X116319510Y-88170455D01*
X116327920Y-88198176D01*
X116331000Y-88229453D01*
X116331000Y-88670547D01*
X116327920Y-88701824D01*
X116319510Y-88729545D01*
X116305856Y-88755089D01*
X116287480Y-88777480D01*
X116265089Y-88795856D01*
X116239545Y-88809510D01*
X116211824Y-88817920D01*
X116180547Y-88821000D01*
X115789453Y-88821000D01*
X115758176Y-88817920D01*
X115730455Y-88809510D01*
X115704911Y-88795856D01*
X115682520Y-88777480D01*
X115664144Y-88755089D01*
X115650490Y-88729545D01*
X115642080Y-88701824D01*
X115639000Y-88670547D01*
X115639000Y-88229453D01*
X115642080Y-88198176D01*
X115650490Y-88170455D01*
X115664144Y-88144911D01*
X115682520Y-88122520D01*
X115704911Y-88104144D01*
X115730455Y-88090490D01*
X115758176Y-88082080D01*
X115789453Y-88079000D01*
X116180547Y-88079000D01*
X116211824Y-88082080D01*
X116211824Y-88082080D01*
G37*
G36*
X115241824Y-88082080D02*
G01*
X115269545Y-88090490D01*
X115295089Y-88104144D01*
X115317480Y-88122520D01*
X115335856Y-88144911D01*
X115349510Y-88170455D01*
X115357920Y-88198176D01*
X115361000Y-88229453D01*
X115361000Y-88670547D01*
X115357920Y-88701824D01*
X115349510Y-88729545D01*
X115335856Y-88755089D01*
X115317480Y-88777480D01*
X115295089Y-88795856D01*
X115269545Y-88809510D01*
X115241824Y-88817920D01*
X115210547Y-88821000D01*
X114819453Y-88821000D01*
X114788176Y-88817920D01*
X114760455Y-88809510D01*
X114734911Y-88795856D01*
X114712520Y-88777480D01*
X114694144Y-88755089D01*
X114680490Y-88729545D01*
X114672080Y-88701824D01*
X114669000Y-88670547D01*
X114669000Y-88229453D01*
X114672080Y-88198176D01*
X114680490Y-88170455D01*
X114694144Y-88144911D01*
X114712520Y-88122520D01*
X114734911Y-88104144D01*
X114760455Y-88090490D01*
X114788176Y-88082080D01*
X114819453Y-88079000D01*
X115210547Y-88079000D01*
X115241824Y-88082080D01*
X115241824Y-88082080D01*
G37*
G36*
X123981824Y-88072080D02*
G01*
X124009545Y-88080490D01*
X124035089Y-88094144D01*
X124057480Y-88112520D01*
X124075856Y-88134911D01*
X124089510Y-88160455D01*
X124097920Y-88188176D01*
X124101000Y-88219453D01*
X124101000Y-88660547D01*
X124097920Y-88691824D01*
X124089510Y-88719545D01*
X124075856Y-88745089D01*
X124057480Y-88767480D01*
X124035089Y-88785856D01*
X124009545Y-88799510D01*
X123981824Y-88807920D01*
X123950547Y-88811000D01*
X123559453Y-88811000D01*
X123528176Y-88807920D01*
X123500455Y-88799510D01*
X123474911Y-88785856D01*
X123452520Y-88767480D01*
X123434144Y-88745089D01*
X123420490Y-88719545D01*
X123412080Y-88691824D01*
X123409000Y-88660547D01*
X123409000Y-88219453D01*
X123412080Y-88188176D01*
X123420490Y-88160455D01*
X123434144Y-88134911D01*
X123452520Y-88112520D01*
X123474911Y-88094144D01*
X123500455Y-88080490D01*
X123528176Y-88072080D01*
X123559453Y-88069000D01*
X123950547Y-88069000D01*
X123981824Y-88072080D01*
X123981824Y-88072080D01*
G37*
G36*
X124951824Y-88072080D02*
G01*
X124979545Y-88080490D01*
X125005089Y-88094144D01*
X125027480Y-88112520D01*
X125045856Y-88134911D01*
X125059510Y-88160455D01*
X125067920Y-88188176D01*
X125071000Y-88219453D01*
X125071000Y-88660547D01*
X125067920Y-88691824D01*
X125059510Y-88719545D01*
X125045856Y-88745089D01*
X125027480Y-88767480D01*
X125005089Y-88785856D01*
X124979545Y-88799510D01*
X124951824Y-88807920D01*
X124920547Y-88811000D01*
X124529453Y-88811000D01*
X124498176Y-88807920D01*
X124470455Y-88799510D01*
X124444911Y-88785856D01*
X124422520Y-88767480D01*
X124404144Y-88745089D01*
X124390490Y-88719545D01*
X124382080Y-88691824D01*
X124379000Y-88660547D01*
X124379000Y-88219453D01*
X124382080Y-88188176D01*
X124390490Y-88160455D01*
X124404144Y-88134911D01*
X124422520Y-88112520D01*
X124444911Y-88094144D01*
X124470455Y-88080490D01*
X124498176Y-88072080D01*
X124529453Y-88069000D01*
X124920547Y-88069000D01*
X124951824Y-88072080D01*
X124951824Y-88072080D01*
G37*
G36*
X120350240Y-87775447D02*
G01*
X120362019Y-87779020D01*
X120372865Y-87784818D01*
X120382376Y-87792624D01*
X120390182Y-87802135D01*
X120395980Y-87812981D01*
X120399553Y-87824760D01*
X120401000Y-87839453D01*
X120401000Y-88060547D01*
X120399553Y-88075240D01*
X120395980Y-88087019D01*
X120390182Y-88097865D01*
X120382376Y-88107376D01*
X120372865Y-88115182D01*
X120362019Y-88120980D01*
X120350240Y-88124553D01*
X120335547Y-88126000D01*
X119664453Y-88126000D01*
X119649760Y-88124553D01*
X119637981Y-88120980D01*
X119627135Y-88115182D01*
X119617624Y-88107376D01*
X119609818Y-88097865D01*
X119604020Y-88087019D01*
X119600447Y-88075240D01*
X119599000Y-88060547D01*
X119599000Y-87839453D01*
X119600447Y-87824760D01*
X119604020Y-87812981D01*
X119609818Y-87802135D01*
X119617624Y-87792624D01*
X119627135Y-87784818D01*
X119637981Y-87779020D01*
X119649760Y-87775447D01*
X119664453Y-87774000D01*
X120335547Y-87774000D01*
X120350240Y-87775447D01*
X120350240Y-87775447D01*
G37*
G36*
X118350240Y-87775447D02*
G01*
X118362019Y-87779020D01*
X118372865Y-87784818D01*
X118382376Y-87792624D01*
X118390182Y-87802135D01*
X118395980Y-87812981D01*
X118399553Y-87824760D01*
X118401000Y-87839453D01*
X118401000Y-88060547D01*
X118399553Y-88075240D01*
X118395980Y-88087019D01*
X118390182Y-88097865D01*
X118382376Y-88107376D01*
X118372865Y-88115182D01*
X118362019Y-88120980D01*
X118350240Y-88124553D01*
X118335547Y-88126000D01*
X117664453Y-88126000D01*
X117649760Y-88124553D01*
X117637981Y-88120980D01*
X117627135Y-88115182D01*
X117617624Y-88107376D01*
X117609818Y-88097865D01*
X117604020Y-88087019D01*
X117600447Y-88075240D01*
X117599000Y-88060547D01*
X117599000Y-87839453D01*
X117600447Y-87824760D01*
X117604020Y-87812981D01*
X117609818Y-87802135D01*
X117617624Y-87792624D01*
X117627135Y-87784818D01*
X117637981Y-87779020D01*
X117649760Y-87775447D01*
X117664453Y-87774000D01*
X118335547Y-87774000D01*
X118350240Y-87775447D01*
X118350240Y-87775447D01*
G37*
G36*
X122351824Y-87342080D02*
G01*
X122379545Y-87350490D01*
X122405089Y-87364144D01*
X122427480Y-87382520D01*
X122445856Y-87404911D01*
X122459510Y-87430455D01*
X122467920Y-87458176D01*
X122471000Y-87489453D01*
X122471000Y-87880547D01*
X122467920Y-87911824D01*
X122459510Y-87939545D01*
X122445856Y-87965089D01*
X122427480Y-87987480D01*
X122405089Y-88005856D01*
X122379545Y-88019510D01*
X122351824Y-88027920D01*
X122320547Y-88031000D01*
X121879453Y-88031000D01*
X121848176Y-88027920D01*
X121820455Y-88019510D01*
X121794911Y-88005856D01*
X121772520Y-87987480D01*
X121754144Y-87965089D01*
X121740490Y-87939545D01*
X121732080Y-87911824D01*
X121729000Y-87880547D01*
X121729000Y-87489453D01*
X121732080Y-87458176D01*
X121740490Y-87430455D01*
X121754144Y-87404911D01*
X121772520Y-87382520D01*
X121794911Y-87364144D01*
X121820455Y-87350490D01*
X121848176Y-87342080D01*
X121879453Y-87339000D01*
X122320547Y-87339000D01*
X122351824Y-87342080D01*
X122351824Y-87342080D01*
G37*
G36*
X118111824Y-86432080D02*
G01*
X118139545Y-86440490D01*
X118165089Y-86454144D01*
X118187480Y-86472520D01*
X118205856Y-86494911D01*
X118219510Y-86520455D01*
X118227920Y-86548176D01*
X118231000Y-86579453D01*
X118231000Y-87020547D01*
X118227920Y-87051824D01*
X118219510Y-87079545D01*
X118205856Y-87105089D01*
X118187480Y-87127480D01*
X118165089Y-87145856D01*
X118139545Y-87159510D01*
X118111824Y-87167920D01*
X118080547Y-87171000D01*
X117689453Y-87171000D01*
X117658176Y-87167920D01*
X117630455Y-87159510D01*
X117604911Y-87145856D01*
X117582520Y-87127480D01*
X117564144Y-87105089D01*
X117550490Y-87079545D01*
X117542080Y-87051824D01*
X117539000Y-87020547D01*
X117539000Y-86579453D01*
X117542080Y-86548176D01*
X117550490Y-86520455D01*
X117564144Y-86494911D01*
X117582520Y-86472520D01*
X117604911Y-86454144D01*
X117630455Y-86440490D01*
X117658176Y-86432080D01*
X117689453Y-86429000D01*
X118080547Y-86429000D01*
X118111824Y-86432080D01*
X118111824Y-86432080D01*
G37*
G36*
X117141824Y-86432080D02*
G01*
X117169545Y-86440490D01*
X117195089Y-86454144D01*
X117217480Y-86472520D01*
X117235856Y-86494911D01*
X117249510Y-86520455D01*
X117257920Y-86548176D01*
X117261000Y-86579453D01*
X117261000Y-87020547D01*
X117257920Y-87051824D01*
X117249510Y-87079545D01*
X117235856Y-87105089D01*
X117217480Y-87127480D01*
X117195089Y-87145856D01*
X117169545Y-87159510D01*
X117141824Y-87167920D01*
X117110547Y-87171000D01*
X116719453Y-87171000D01*
X116688176Y-87167920D01*
X116660455Y-87159510D01*
X116634911Y-87145856D01*
X116612520Y-87127480D01*
X116594144Y-87105089D01*
X116580490Y-87079545D01*
X116572080Y-87051824D01*
X116569000Y-87020547D01*
X116569000Y-86579453D01*
X116572080Y-86548176D01*
X116580490Y-86520455D01*
X116594144Y-86494911D01*
X116612520Y-86472520D01*
X116634911Y-86454144D01*
X116660455Y-86440490D01*
X116688176Y-86432080D01*
X116719453Y-86429000D01*
X117110547Y-86429000D01*
X117141824Y-86432080D01*
X117141824Y-86432080D01*
G37*
G36*
X122351824Y-86372080D02*
G01*
X122379545Y-86380490D01*
X122405089Y-86394144D01*
X122427480Y-86412520D01*
X122445856Y-86434911D01*
X122459510Y-86460455D01*
X122467920Y-86488176D01*
X122471000Y-86519453D01*
X122471000Y-86910547D01*
X122467920Y-86941824D01*
X122459510Y-86969545D01*
X122445856Y-86995089D01*
X122427480Y-87017480D01*
X122405089Y-87035856D01*
X122379545Y-87049510D01*
X122351824Y-87057920D01*
X122320547Y-87061000D01*
X121879453Y-87061000D01*
X121848176Y-87057920D01*
X121820455Y-87049510D01*
X121794911Y-87035856D01*
X121772520Y-87017480D01*
X121754144Y-86995089D01*
X121740490Y-86969545D01*
X121732080Y-86941824D01*
X121729000Y-86910547D01*
X121729000Y-86519453D01*
X121732080Y-86488176D01*
X121740490Y-86460455D01*
X121754144Y-86434911D01*
X121772520Y-86412520D01*
X121794911Y-86394144D01*
X121820455Y-86380490D01*
X121848176Y-86372080D01*
X121879453Y-86369000D01*
X122320547Y-86369000D01*
X122351824Y-86372080D01*
X122351824Y-86372080D01*
G37*
G36*
X101351000Y-86301000D02*
G01*
X97049000Y-86301000D01*
X97049000Y-84849000D01*
X101351000Y-84849000D01*
X101351000Y-86301000D01*
X101351000Y-86301000D01*
G37*
G36*
X144961000Y-86301000D02*
G01*
X140659000Y-86301000D01*
X140659000Y-84849000D01*
X144961000Y-84849000D01*
X144961000Y-86301000D01*
X144961000Y-86301000D01*
G37*
G36*
X121341824Y-85232080D02*
G01*
X121369545Y-85240490D01*
X121395089Y-85254144D01*
X121417480Y-85272520D01*
X121435856Y-85294911D01*
X121449510Y-85320455D01*
X121457920Y-85348176D01*
X121461000Y-85379453D01*
X121461000Y-85820547D01*
X121457920Y-85851824D01*
X121449510Y-85879545D01*
X121435856Y-85905089D01*
X121417480Y-85927480D01*
X121395089Y-85945856D01*
X121369545Y-85959510D01*
X121341824Y-85967920D01*
X121310547Y-85971000D01*
X120919453Y-85971000D01*
X120888176Y-85967920D01*
X120860455Y-85959510D01*
X120834911Y-85945856D01*
X120812520Y-85927480D01*
X120794144Y-85905089D01*
X120780490Y-85879545D01*
X120772080Y-85851824D01*
X120769000Y-85820547D01*
X120769000Y-85379453D01*
X120772080Y-85348176D01*
X120780490Y-85320455D01*
X120794144Y-85294911D01*
X120812520Y-85272520D01*
X120834911Y-85254144D01*
X120860455Y-85240490D01*
X120888176Y-85232080D01*
X120919453Y-85229000D01*
X121310547Y-85229000D01*
X121341824Y-85232080D01*
X121341824Y-85232080D01*
G37*
G36*
X122311824Y-85232080D02*
G01*
X122339545Y-85240490D01*
X122365089Y-85254144D01*
X122387480Y-85272520D01*
X122405856Y-85294911D01*
X122419510Y-85320455D01*
X122427920Y-85348176D01*
X122431000Y-85379453D01*
X122431000Y-85820547D01*
X122427920Y-85851824D01*
X122419510Y-85879545D01*
X122405856Y-85905089D01*
X122387480Y-85927480D01*
X122365089Y-85945856D01*
X122339545Y-85959510D01*
X122311824Y-85967920D01*
X122280547Y-85971000D01*
X121889453Y-85971000D01*
X121858176Y-85967920D01*
X121830455Y-85959510D01*
X121804911Y-85945856D01*
X121782520Y-85927480D01*
X121764144Y-85905089D01*
X121750490Y-85879545D01*
X121742080Y-85851824D01*
X121739000Y-85820547D01*
X121739000Y-85379453D01*
X121742080Y-85348176D01*
X121750490Y-85320455D01*
X121764144Y-85294911D01*
X121782520Y-85272520D01*
X121804911Y-85254144D01*
X121830455Y-85240490D01*
X121858176Y-85232080D01*
X121889453Y-85229000D01*
X122280547Y-85229000D01*
X122311824Y-85232080D01*
X122311824Y-85232080D01*
G37*
G36*
X122351824Y-84142080D02*
G01*
X122379545Y-84150490D01*
X122405089Y-84164144D01*
X122427480Y-84182520D01*
X122445856Y-84204911D01*
X122459510Y-84230455D01*
X122467920Y-84258176D01*
X122471000Y-84289453D01*
X122471000Y-84680547D01*
X122467920Y-84711824D01*
X122459510Y-84739545D01*
X122445856Y-84765089D01*
X122427480Y-84787480D01*
X122405089Y-84805856D01*
X122379545Y-84819510D01*
X122351824Y-84827920D01*
X122320547Y-84831000D01*
X121879453Y-84831000D01*
X121848176Y-84827920D01*
X121820455Y-84819510D01*
X121794911Y-84805856D01*
X121772520Y-84787480D01*
X121754144Y-84765089D01*
X121740490Y-84739545D01*
X121732080Y-84711824D01*
X121729000Y-84680547D01*
X121729000Y-84289453D01*
X121732080Y-84258176D01*
X121740490Y-84230455D01*
X121754144Y-84204911D01*
X121772520Y-84182520D01*
X121794911Y-84164144D01*
X121820455Y-84150490D01*
X121848176Y-84142080D01*
X121879453Y-84139000D01*
X122320547Y-84139000D01*
X122351824Y-84142080D01*
X122351824Y-84142080D01*
G37*
G36*
X122351824Y-83172080D02*
G01*
X122379545Y-83180490D01*
X122405089Y-83194144D01*
X122427480Y-83212520D01*
X122445856Y-83234911D01*
X122459510Y-83260455D01*
X122467920Y-83288176D01*
X122471000Y-83319453D01*
X122471000Y-83710547D01*
X122467920Y-83741824D01*
X122459510Y-83769545D01*
X122445856Y-83795089D01*
X122427480Y-83817480D01*
X122405089Y-83835856D01*
X122379545Y-83849510D01*
X122351824Y-83857920D01*
X122320547Y-83861000D01*
X121879453Y-83861000D01*
X121848176Y-83857920D01*
X121820455Y-83849510D01*
X121794911Y-83835856D01*
X121772520Y-83817480D01*
X121754144Y-83795089D01*
X121740490Y-83769545D01*
X121732080Y-83741824D01*
X121729000Y-83710547D01*
X121729000Y-83319453D01*
X121732080Y-83288176D01*
X121740490Y-83260455D01*
X121754144Y-83234911D01*
X121772520Y-83212520D01*
X121794911Y-83194144D01*
X121820455Y-83180490D01*
X121848176Y-83172080D01*
X121879453Y-83169000D01*
X122320547Y-83169000D01*
X122351824Y-83172080D01*
X122351824Y-83172080D01*
G37*
G36*
X121341824Y-82132080D02*
G01*
X121369545Y-82140490D01*
X121395089Y-82154144D01*
X121417480Y-82172520D01*
X121435856Y-82194911D01*
X121449510Y-82220455D01*
X121457920Y-82248176D01*
X121461000Y-82279453D01*
X121461000Y-82720547D01*
X121457920Y-82751824D01*
X121449510Y-82779545D01*
X121435856Y-82805089D01*
X121417480Y-82827480D01*
X121395089Y-82845856D01*
X121369545Y-82859510D01*
X121341824Y-82867920D01*
X121310547Y-82871000D01*
X120919453Y-82871000D01*
X120888176Y-82867920D01*
X120860455Y-82859510D01*
X120834911Y-82845856D01*
X120812520Y-82827480D01*
X120794144Y-82805089D01*
X120780490Y-82779545D01*
X120772080Y-82751824D01*
X120769000Y-82720547D01*
X120769000Y-82279453D01*
X120772080Y-82248176D01*
X120780490Y-82220455D01*
X120794144Y-82194911D01*
X120812520Y-82172520D01*
X120834911Y-82154144D01*
X120860455Y-82140490D01*
X120888176Y-82132080D01*
X120919453Y-82129000D01*
X121310547Y-82129000D01*
X121341824Y-82132080D01*
X121341824Y-82132080D01*
G37*
G36*
X122311824Y-82132080D02*
G01*
X122339545Y-82140490D01*
X122365089Y-82154144D01*
X122387480Y-82172520D01*
X122405856Y-82194911D01*
X122419510Y-82220455D01*
X122427920Y-82248176D01*
X122431000Y-82279453D01*
X122431000Y-82720547D01*
X122427920Y-82751824D01*
X122419510Y-82779545D01*
X122405856Y-82805089D01*
X122387480Y-82827480D01*
X122365089Y-82845856D01*
X122339545Y-82859510D01*
X122311824Y-82867920D01*
X122280547Y-82871000D01*
X121889453Y-82871000D01*
X121858176Y-82867920D01*
X121830455Y-82859510D01*
X121804911Y-82845856D01*
X121782520Y-82827480D01*
X121764144Y-82805089D01*
X121750490Y-82779545D01*
X121742080Y-82751824D01*
X121739000Y-82720547D01*
X121739000Y-82279453D01*
X121742080Y-82248176D01*
X121750490Y-82220455D01*
X121764144Y-82194911D01*
X121782520Y-82172520D01*
X121804911Y-82154144D01*
X121830455Y-82140490D01*
X121858176Y-82132080D01*
X121889453Y-82129000D01*
X122280547Y-82129000D01*
X122311824Y-82132080D01*
X122311824Y-82132080D01*
G37*
G36*
X117604353Y-79253930D02*
G01*
X117650127Y-79267815D01*
X117692317Y-79290366D01*
X117729290Y-79320710D01*
X117759634Y-79357683D01*
X117782185Y-79399873D01*
X117796070Y-79445647D01*
X117801000Y-79495704D01*
X117801000Y-80504296D01*
X117796070Y-80554353D01*
X117782185Y-80600127D01*
X117759634Y-80642317D01*
X117729290Y-80679290D01*
X117692317Y-80709634D01*
X117650127Y-80732185D01*
X117604353Y-80746070D01*
X117554296Y-80751000D01*
X116970704Y-80751000D01*
X116920647Y-80746070D01*
X116874873Y-80732185D01*
X116832683Y-80709634D01*
X116795710Y-80679290D01*
X116765366Y-80642317D01*
X116742815Y-80600127D01*
X116728930Y-80554353D01*
X116724000Y-80504296D01*
X116724000Y-79495704D01*
X116728930Y-79445647D01*
X116742815Y-79399873D01*
X116765366Y-79357683D01*
X116795710Y-79320710D01*
X116832683Y-79290366D01*
X116874873Y-79267815D01*
X116920647Y-79253930D01*
X116970704Y-79249000D01*
X117554296Y-79249000D01*
X117604353Y-79253930D01*
X117604353Y-79253930D01*
G37*
G36*
X119479353Y-79253930D02*
G01*
X119525127Y-79267815D01*
X119567317Y-79290366D01*
X119604290Y-79320710D01*
X119634634Y-79357683D01*
X119657185Y-79399873D01*
X119671070Y-79445647D01*
X119676000Y-79495704D01*
X119676000Y-80504296D01*
X119671070Y-80554353D01*
X119657185Y-80600127D01*
X119634634Y-80642317D01*
X119604290Y-80679290D01*
X119567317Y-80709634D01*
X119525127Y-80732185D01*
X119479353Y-80746070D01*
X119429296Y-80751000D01*
X118845704Y-80751000D01*
X118795647Y-80746070D01*
X118749873Y-80732185D01*
X118707683Y-80709634D01*
X118670710Y-80679290D01*
X118640366Y-80642317D01*
X118617815Y-80600127D01*
X118603930Y-80554353D01*
X118599000Y-80504296D01*
X118599000Y-79495704D01*
X118603930Y-79445647D01*
X118617815Y-79399873D01*
X118640366Y-79357683D01*
X118670710Y-79320710D01*
X118707683Y-79290366D01*
X118749873Y-79267815D01*
X118795647Y-79253930D01*
X118845704Y-79249000D01*
X119429296Y-79249000D01*
X119479353Y-79253930D01*
X119479353Y-79253930D01*
G37*
G36*
X119651000Y-78676000D02*
G01*
X118549000Y-78676000D01*
X118549000Y-77724000D01*
X119651000Y-77724000D01*
X119651000Y-78676000D01*
X119651000Y-78676000D01*
G37*
G36*
X119651000Y-77076000D02*
G01*
X118549000Y-77076000D01*
X118549000Y-76124000D01*
X119651000Y-76124000D01*
X119651000Y-77076000D01*
X119651000Y-77076000D01*
G37*
G36*
X119479353Y-74053930D02*
G01*
X119525127Y-74067815D01*
X119567317Y-74090366D01*
X119604290Y-74120710D01*
X119634634Y-74157683D01*
X119657185Y-74199873D01*
X119671070Y-74245647D01*
X119676000Y-74295704D01*
X119676000Y-75304296D01*
X119671070Y-75354353D01*
X119657185Y-75400127D01*
X119634634Y-75442317D01*
X119604290Y-75479290D01*
X119567317Y-75509634D01*
X119525127Y-75532185D01*
X119479353Y-75546070D01*
X119429296Y-75551000D01*
X118845704Y-75551000D01*
X118795647Y-75546070D01*
X118749873Y-75532185D01*
X118707683Y-75509634D01*
X118670710Y-75479290D01*
X118640366Y-75442317D01*
X118617815Y-75400127D01*
X118603930Y-75354353D01*
X118599000Y-75304296D01*
X118599000Y-74295704D01*
X118603930Y-74245647D01*
X118617815Y-74199873D01*
X118640366Y-74157683D01*
X118670710Y-74120710D01*
X118707683Y-74090366D01*
X118749873Y-74067815D01*
X118795647Y-74053930D01*
X118845704Y-74049000D01*
X119429296Y-74049000D01*
X119479353Y-74053930D01*
X119479353Y-74053930D01*
G37*
G36*
X117604353Y-74053930D02*
G01*
X117650127Y-74067815D01*
X117692317Y-74090366D01*
X117729290Y-74120710D01*
X117759634Y-74157683D01*
X117782185Y-74199873D01*
X117796070Y-74245647D01*
X117801000Y-74295704D01*
X117801000Y-75304296D01*
X117796070Y-75354353D01*
X117782185Y-75400127D01*
X117759634Y-75442317D01*
X117729290Y-75479290D01*
X117692317Y-75509634D01*
X117650127Y-75532185D01*
X117604353Y-75546070D01*
X117554296Y-75551000D01*
X116970704Y-75551000D01*
X116920647Y-75546070D01*
X116874873Y-75532185D01*
X116832683Y-75509634D01*
X116795710Y-75479290D01*
X116765366Y-75442317D01*
X116742815Y-75400127D01*
X116728930Y-75354353D01*
X116724000Y-75304296D01*
X116724000Y-74295704D01*
X116728930Y-74245647D01*
X116742815Y-74199873D01*
X116765366Y-74157683D01*
X116795710Y-74120710D01*
X116832683Y-74090366D01*
X116874873Y-74067815D01*
X116920647Y-74053930D01*
X116970704Y-74049000D01*
X117554296Y-74049000D01*
X117604353Y-74053930D01*
X117604353Y-74053930D01*
G37*
G36*
X124801000Y-69601000D02*
G01*
X122999000Y-69601000D01*
X122999000Y-67799000D01*
X124801000Y-67799000D01*
X124801000Y-69601000D01*
X124801000Y-69601000D01*
G37*
G36*
X121492504Y-67807691D02*
G01*
X121536627Y-67812037D01*
X121706466Y-67863557D01*
X121739097Y-67880999D01*
X121862989Y-67947220D01*
X122000185Y-68059815D01*
X122112780Y-68197011D01*
X122141637Y-68251000D01*
X122196443Y-68353534D01*
X122247963Y-68523373D01*
X122265359Y-68700000D01*
X122247963Y-68876627D01*
X122196443Y-69046466D01*
X122196442Y-69046467D01*
X122112780Y-69202989D01*
X122000185Y-69340185D01*
X121862989Y-69452780D01*
X121758641Y-69508555D01*
X121706466Y-69536443D01*
X121536627Y-69587963D01*
X121492504Y-69592309D01*
X121404260Y-69601000D01*
X121315740Y-69601000D01*
X121227496Y-69592309D01*
X121183373Y-69587963D01*
X121013534Y-69536443D01*
X120961359Y-69508555D01*
X120857011Y-69452780D01*
X120719815Y-69340185D01*
X120607220Y-69202989D01*
X120523558Y-69046467D01*
X120523557Y-69046466D01*
X120472037Y-68876627D01*
X120454641Y-68700000D01*
X120472037Y-68523373D01*
X120523557Y-68353534D01*
X120578363Y-68251000D01*
X120607220Y-68197011D01*
X120719815Y-68059815D01*
X120857011Y-67947220D01*
X120980903Y-67880999D01*
X121013534Y-67863557D01*
X121183373Y-67812037D01*
X121227496Y-67807691D01*
X121315740Y-67799000D01*
X121404260Y-67799000D01*
X121492504Y-67807691D01*
X121492504Y-67807691D01*
G37*
G36*
X102529558Y-61790645D02*
G01*
X102948282Y-61873934D01*
X103539926Y-62119001D01*
X104072392Y-62474784D01*
X104525216Y-62927608D01*
X104880999Y-63460074D01*
X105126066Y-64051718D01*
X105209355Y-64470442D01*
X105251000Y-64679803D01*
X105251000Y-65320197D01*
X105209355Y-65529558D01*
X105126066Y-65948282D01*
X104880999Y-66539926D01*
X104525216Y-67072392D01*
X104072392Y-67525216D01*
X103539926Y-67880999D01*
X102948282Y-68126066D01*
X102591627Y-68197009D01*
X102320197Y-68251000D01*
X101679803Y-68251000D01*
X101408373Y-68197009D01*
X101051718Y-68126066D01*
X100460074Y-67880999D01*
X99927608Y-67525216D01*
X99474784Y-67072392D01*
X99119001Y-66539926D01*
X98873934Y-65948282D01*
X98790645Y-65529558D01*
X98749000Y-65320197D01*
X98749000Y-64679803D01*
X98790645Y-64470442D01*
X98873934Y-64051718D01*
X99119001Y-63460074D01*
X99474784Y-62927608D01*
X99927608Y-62474784D01*
X100460074Y-62119001D01*
X101051718Y-61873934D01*
X101470442Y-61790645D01*
X101679803Y-61749000D01*
X102320197Y-61749000D01*
X102529558Y-61790645D01*
X102529558Y-61790645D01*
G37*
G36*
X140529558Y-61790645D02*
G01*
X140948282Y-61873934D01*
X141539926Y-62119001D01*
X142072392Y-62474784D01*
X142525216Y-62927608D01*
X142880999Y-63460074D01*
X143126066Y-64051718D01*
X143209355Y-64470442D01*
X143251000Y-64679803D01*
X143251000Y-65320197D01*
X143209355Y-65529558D01*
X143126066Y-65948282D01*
X142880999Y-66539926D01*
X142525216Y-67072392D01*
X142072392Y-67525216D01*
X141539926Y-67880999D01*
X140948282Y-68126066D01*
X140591627Y-68197009D01*
X140320197Y-68251000D01*
X139679803Y-68251000D01*
X139408373Y-68197009D01*
X139051718Y-68126066D01*
X138460074Y-67880999D01*
X137927608Y-67525216D01*
X137474784Y-67072392D01*
X137119001Y-66539926D01*
X136873934Y-65948282D01*
X136790645Y-65529558D01*
X136749000Y-65320197D01*
X136749000Y-64679803D01*
X136790645Y-64470442D01*
X136873934Y-64051718D01*
X137119001Y-63460074D01*
X137474784Y-62927608D01*
X137927608Y-62474784D01*
X138460074Y-62119001D01*
X139051718Y-61873934D01*
X139470442Y-61790645D01*
X139679803Y-61749000D01*
X140320197Y-61749000D01*
X140529558Y-61790645D01*
X140529558Y-61790645D01*
G37*
G36*
X120251000Y-64851000D02*
G01*
X119749000Y-64851000D01*
X119749000Y-63399000D01*
X120251000Y-63399000D01*
X120251000Y-64851000D01*
X120251000Y-64851000D01*
G37*
G36*
X120901000Y-64851000D02*
G01*
X120399000Y-64851000D01*
X120399000Y-63399000D01*
X120901000Y-63399000D01*
X120901000Y-64851000D01*
X120901000Y-64851000D01*
G37*
G36*
X121551000Y-63530460D02*
G01*
X121551961Y-63540214D01*
X121554806Y-63549594D01*
X121559426Y-63558238D01*
X121565644Y-63565815D01*
X121573221Y-63572033D01*
X121581865Y-63576653D01*
X121591245Y-63579498D01*
X121596340Y-63580000D01*
X121591245Y-63580502D01*
X121581865Y-63583347D01*
X121573221Y-63587967D01*
X121565644Y-63594185D01*
X121559426Y-63601762D01*
X121554806Y-63610406D01*
X121551961Y-63619786D01*
X121551000Y-63629540D01*
X121551000Y-64851000D01*
X121049000Y-64851000D01*
X121049000Y-63399000D01*
X121551000Y-63399000D01*
X121551000Y-63530460D01*
X121551000Y-63530460D01*
G37*
G36*
X118951000Y-64851000D02*
G01*
X118449000Y-64851000D01*
X118449000Y-63629540D01*
X118448039Y-63619786D01*
X118445194Y-63610406D01*
X118440574Y-63601762D01*
X118434356Y-63594185D01*
X118426779Y-63587967D01*
X118418135Y-63583347D01*
X118408755Y-63580502D01*
X118403660Y-63580000D01*
X118408755Y-63579498D01*
X118418135Y-63576653D01*
X118426779Y-63572033D01*
X118434356Y-63565815D01*
X118440574Y-63558238D01*
X118445194Y-63549594D01*
X118448039Y-63540214D01*
X118449000Y-63530460D01*
X118449000Y-63399000D01*
X118951000Y-63399000D01*
X118951000Y-64851000D01*
X118951000Y-64851000D01*
G37*
G36*
X119601000Y-64851000D02*
G01*
X119099000Y-64851000D01*
X119099000Y-63399000D01*
X119601000Y-63399000D01*
X119601000Y-64851000D01*
X119601000Y-64851000D01*
G37*
G36*
X123826000Y-64251000D02*
G01*
X122374000Y-64251000D01*
X122374000Y-63816877D01*
X122373039Y-63807123D01*
X122370194Y-63797743D01*
X122365574Y-63789099D01*
X122359356Y-63781522D01*
X122351779Y-63775304D01*
X122343135Y-63770684D01*
X122333755Y-63767839D01*
X122324001Y-63766878D01*
X122314247Y-63767839D01*
X122304867Y-63770684D01*
X122296223Y-63775304D01*
X122288646Y-63781522D01*
X122282428Y-63789099D01*
X122272639Y-63803749D01*
X122223749Y-63852639D01*
X122166261Y-63891052D01*
X122113341Y-63912972D01*
X122102381Y-63917512D01*
X122034572Y-63931000D01*
X121965428Y-63931000D01*
X121897619Y-63917512D01*
X121886659Y-63912972D01*
X121833739Y-63891052D01*
X121776251Y-63852639D01*
X121727361Y-63803749D01*
X121688948Y-63746261D01*
X121662489Y-63682383D01*
X121662488Y-63682381D01*
X121650037Y-63619786D01*
X121647192Y-63610406D01*
X121642572Y-63601762D01*
X121636354Y-63594185D01*
X121628777Y-63587967D01*
X121620133Y-63583347D01*
X121610753Y-63580502D01*
X121605658Y-63580000D01*
X121610753Y-63579498D01*
X121620133Y-63576653D01*
X121628777Y-63572033D01*
X121636354Y-63565815D01*
X121642572Y-63558238D01*
X121647192Y-63549594D01*
X121650037Y-63540214D01*
X121662488Y-63477619D01*
X121669756Y-63460074D01*
X121688948Y-63413739D01*
X121727361Y-63356251D01*
X121776251Y-63307361D01*
X121833739Y-63268948D01*
X121897617Y-63242489D01*
X121897616Y-63242489D01*
X121897619Y-63242488D01*
X121965428Y-63229000D01*
X122034572Y-63229000D01*
X122102381Y-63242488D01*
X122102384Y-63242489D01*
X122102383Y-63242489D01*
X122166261Y-63268948D01*
X122223749Y-63307361D01*
X122272640Y-63356252D01*
X122282428Y-63370901D01*
X122288646Y-63378478D01*
X122296223Y-63384696D01*
X122304867Y-63389316D01*
X122314247Y-63392161D01*
X122324001Y-63393122D01*
X122333755Y-63392161D01*
X122343135Y-63389316D01*
X122351779Y-63384696D01*
X122359356Y-63378478D01*
X122365574Y-63370901D01*
X122370194Y-63362257D01*
X122373039Y-63352877D01*
X122374000Y-63343123D01*
X122374000Y-63149000D01*
X123826000Y-63149000D01*
X123826000Y-64251000D01*
X123826000Y-64251000D01*
G37*
G36*
X117626000Y-63343123D02*
G01*
X117626961Y-63352877D01*
X117629806Y-63362257D01*
X117634426Y-63370901D01*
X117640644Y-63378478D01*
X117648221Y-63384696D01*
X117656865Y-63389316D01*
X117666245Y-63392161D01*
X117675999Y-63393122D01*
X117685753Y-63392161D01*
X117695133Y-63389316D01*
X117703777Y-63384696D01*
X117711354Y-63378478D01*
X117717572Y-63370901D01*
X117727360Y-63356252D01*
X117776251Y-63307361D01*
X117833739Y-63268948D01*
X117897617Y-63242489D01*
X117897616Y-63242489D01*
X117897619Y-63242488D01*
X117965428Y-63229000D01*
X118034572Y-63229000D01*
X118102381Y-63242488D01*
X118102384Y-63242489D01*
X118102383Y-63242489D01*
X118166261Y-63268948D01*
X118223749Y-63307361D01*
X118272639Y-63356251D01*
X118311052Y-63413739D01*
X118330244Y-63460074D01*
X118337512Y-63477619D01*
X118349963Y-63540214D01*
X118352808Y-63549594D01*
X118357428Y-63558238D01*
X118363646Y-63565815D01*
X118371223Y-63572033D01*
X118379867Y-63576653D01*
X118389247Y-63579498D01*
X118394342Y-63580000D01*
X118389247Y-63580502D01*
X118379867Y-63583347D01*
X118371223Y-63587967D01*
X118363646Y-63594185D01*
X118357428Y-63601762D01*
X118352808Y-63610406D01*
X118349963Y-63619786D01*
X118337512Y-63682381D01*
X118337511Y-63682383D01*
X118311052Y-63746261D01*
X118272639Y-63803749D01*
X118223749Y-63852639D01*
X118166261Y-63891052D01*
X118113341Y-63912972D01*
X118102381Y-63917512D01*
X118034572Y-63931000D01*
X117965428Y-63931000D01*
X117897619Y-63917512D01*
X117886659Y-63912972D01*
X117833739Y-63891052D01*
X117776251Y-63852639D01*
X117727361Y-63803749D01*
X117717572Y-63789099D01*
X117711354Y-63781522D01*
X117703777Y-63775304D01*
X117695133Y-63770684D01*
X117685753Y-63767839D01*
X117675999Y-63766878D01*
X117666245Y-63767839D01*
X117656865Y-63770684D01*
X117648221Y-63775304D01*
X117640644Y-63781522D01*
X117634426Y-63789099D01*
X117629806Y-63797743D01*
X117626961Y-63807123D01*
X117626000Y-63816877D01*
X117626000Y-64251000D01*
X116174000Y-64251000D01*
X116174000Y-63149000D01*
X117626000Y-63149000D01*
X117626000Y-63343123D01*
X117626000Y-63343123D01*
G37*
G36*
X117051000Y-62451000D02*
G01*
X115049000Y-62451000D01*
X115049000Y-60449000D01*
X117051000Y-60449000D01*
X117051000Y-62451000D01*
X117051000Y-62451000D01*
G37*
G36*
X119851000Y-62451000D02*
G01*
X117849000Y-62451000D01*
X117849000Y-60449000D01*
X119851000Y-60449000D01*
X119851000Y-62451000D01*
X119851000Y-62451000D01*
G37*
G36*
X122151000Y-62451000D02*
G01*
X120149000Y-62451000D01*
X120149000Y-60449000D01*
X122151000Y-60449000D01*
X122151000Y-62451000D01*
X122151000Y-62451000D01*
G37*
G36*
X124951000Y-62451000D02*
G01*
X122949000Y-62451000D01*
X122949000Y-60449000D01*
X124951000Y-60449000D01*
X124951000Y-62451000D01*
X124951000Y-62451000D01*
G37*
M02*
