G04 #@! TF.GenerationSoftware,KiCad,Pcbnew,(5.1.0)-1*
G04 #@! TF.CreationDate,2019-03-22T19:36:58+11:00*
G04 #@! TF.ProjectId,TRF37A75_Dev_Rev_0,54524633-3741-4373-955f-4465765f5265,rev?*
G04 #@! TF.SameCoordinates,Original*
G04 #@! TF.FileFunction,Copper,L1,Top*
G04 #@! TF.FilePolarity,Positive*
%FSLAX46Y46*%
G04 Gerber Fmt 4.6, Leading zero omitted, Abs format (unit mm)*
G04 Created by KiCad (PCBNEW (5.1.0)-1) date 2019-03-22 19:36:58*
%MOMM*%
%LPD*%
G04 APERTURE LIST*
%ADD10C,0.200000*%
%ADD11C,0.100000*%
%ADD12C,0.975000*%
%ADD13C,0.590000*%
%ADD14R,1.000000X0.850000*%
%ADD15C,0.800000*%
%ADD16C,6.400000*%
%ADD17R,1.900000X1.900000*%
%ADD18R,1.350000X1.000000*%
%ADD19R,0.400000X1.350000*%
%ADD20R,1.700000X1.700000*%
%ADD21O,1.700000X1.700000*%
%ADD22R,4.200000X1.350000*%
%ADD23R,3.600000X1.270000*%
%ADD24C,0.900000*%
%ADD25C,0.250000*%
%ADD26C,0.450000*%
%ADD27C,0.600000*%
%ADD28C,0.340000*%
%ADD29C,0.500000*%
%ADD30C,0.400000*%
%ADD31C,0.250000*%
%ADD32C,0.300000*%
%ADD33C,0.254000*%
G04 APERTURE END LIST*
D10*
X131103571Y-106478571D02*
X130246428Y-106478571D01*
X130675000Y-106478571D02*
X130675000Y-104978571D01*
X130532142Y-105192857D01*
X130389285Y-105335714D01*
X130246428Y-105407142D01*
D11*
G36*
X119405142Y-74101174D02*
G01*
X119428803Y-74104684D01*
X119452007Y-74110496D01*
X119474529Y-74118554D01*
X119496153Y-74128782D01*
X119516670Y-74141079D01*
X119535883Y-74155329D01*
X119553607Y-74171393D01*
X119569671Y-74189117D01*
X119583921Y-74208330D01*
X119596218Y-74228847D01*
X119606446Y-74250471D01*
X119614504Y-74272993D01*
X119620316Y-74296197D01*
X119623826Y-74319858D01*
X119625000Y-74343750D01*
X119625000Y-75256250D01*
X119623826Y-75280142D01*
X119620316Y-75303803D01*
X119614504Y-75327007D01*
X119606446Y-75349529D01*
X119596218Y-75371153D01*
X119583921Y-75391670D01*
X119569671Y-75410883D01*
X119553607Y-75428607D01*
X119535883Y-75444671D01*
X119516670Y-75458921D01*
X119496153Y-75471218D01*
X119474529Y-75481446D01*
X119452007Y-75489504D01*
X119428803Y-75495316D01*
X119405142Y-75498826D01*
X119381250Y-75500000D01*
X118893750Y-75500000D01*
X118869858Y-75498826D01*
X118846197Y-75495316D01*
X118822993Y-75489504D01*
X118800471Y-75481446D01*
X118778847Y-75471218D01*
X118758330Y-75458921D01*
X118739117Y-75444671D01*
X118721393Y-75428607D01*
X118705329Y-75410883D01*
X118691079Y-75391670D01*
X118678782Y-75371153D01*
X118668554Y-75349529D01*
X118660496Y-75327007D01*
X118654684Y-75303803D01*
X118651174Y-75280142D01*
X118650000Y-75256250D01*
X118650000Y-74343750D01*
X118651174Y-74319858D01*
X118654684Y-74296197D01*
X118660496Y-74272993D01*
X118668554Y-74250471D01*
X118678782Y-74228847D01*
X118691079Y-74208330D01*
X118705329Y-74189117D01*
X118721393Y-74171393D01*
X118739117Y-74155329D01*
X118758330Y-74141079D01*
X118778847Y-74128782D01*
X118800471Y-74118554D01*
X118822993Y-74110496D01*
X118846197Y-74104684D01*
X118869858Y-74101174D01*
X118893750Y-74100000D01*
X119381250Y-74100000D01*
X119405142Y-74101174D01*
X119405142Y-74101174D01*
G37*
D12*
X119137500Y-74800000D03*
D11*
G36*
X117530142Y-74101174D02*
G01*
X117553803Y-74104684D01*
X117577007Y-74110496D01*
X117599529Y-74118554D01*
X117621153Y-74128782D01*
X117641670Y-74141079D01*
X117660883Y-74155329D01*
X117678607Y-74171393D01*
X117694671Y-74189117D01*
X117708921Y-74208330D01*
X117721218Y-74228847D01*
X117731446Y-74250471D01*
X117739504Y-74272993D01*
X117745316Y-74296197D01*
X117748826Y-74319858D01*
X117750000Y-74343750D01*
X117750000Y-75256250D01*
X117748826Y-75280142D01*
X117745316Y-75303803D01*
X117739504Y-75327007D01*
X117731446Y-75349529D01*
X117721218Y-75371153D01*
X117708921Y-75391670D01*
X117694671Y-75410883D01*
X117678607Y-75428607D01*
X117660883Y-75444671D01*
X117641670Y-75458921D01*
X117621153Y-75471218D01*
X117599529Y-75481446D01*
X117577007Y-75489504D01*
X117553803Y-75495316D01*
X117530142Y-75498826D01*
X117506250Y-75500000D01*
X117018750Y-75500000D01*
X116994858Y-75498826D01*
X116971197Y-75495316D01*
X116947993Y-75489504D01*
X116925471Y-75481446D01*
X116903847Y-75471218D01*
X116883330Y-75458921D01*
X116864117Y-75444671D01*
X116846393Y-75428607D01*
X116830329Y-75410883D01*
X116816079Y-75391670D01*
X116803782Y-75371153D01*
X116793554Y-75349529D01*
X116785496Y-75327007D01*
X116779684Y-75303803D01*
X116776174Y-75280142D01*
X116775000Y-75256250D01*
X116775000Y-74343750D01*
X116776174Y-74319858D01*
X116779684Y-74296197D01*
X116785496Y-74272993D01*
X116793554Y-74250471D01*
X116803782Y-74228847D01*
X116816079Y-74208330D01*
X116830329Y-74189117D01*
X116846393Y-74171393D01*
X116864117Y-74155329D01*
X116883330Y-74141079D01*
X116903847Y-74128782D01*
X116925471Y-74118554D01*
X116947993Y-74110496D01*
X116971197Y-74104684D01*
X116994858Y-74101174D01*
X117018750Y-74100000D01*
X117506250Y-74100000D01*
X117530142Y-74101174D01*
X117530142Y-74101174D01*
G37*
D12*
X117262500Y-74800000D03*
D11*
G36*
X115176958Y-88130710D02*
G01*
X115191276Y-88132834D01*
X115205317Y-88136351D01*
X115218946Y-88141228D01*
X115232031Y-88147417D01*
X115244447Y-88154858D01*
X115256073Y-88163481D01*
X115266798Y-88173202D01*
X115276519Y-88183927D01*
X115285142Y-88195553D01*
X115292583Y-88207969D01*
X115298772Y-88221054D01*
X115303649Y-88234683D01*
X115307166Y-88248724D01*
X115309290Y-88263042D01*
X115310000Y-88277500D01*
X115310000Y-88622500D01*
X115309290Y-88636958D01*
X115307166Y-88651276D01*
X115303649Y-88665317D01*
X115298772Y-88678946D01*
X115292583Y-88692031D01*
X115285142Y-88704447D01*
X115276519Y-88716073D01*
X115266798Y-88726798D01*
X115256073Y-88736519D01*
X115244447Y-88745142D01*
X115232031Y-88752583D01*
X115218946Y-88758772D01*
X115205317Y-88763649D01*
X115191276Y-88767166D01*
X115176958Y-88769290D01*
X115162500Y-88770000D01*
X114867500Y-88770000D01*
X114853042Y-88769290D01*
X114838724Y-88767166D01*
X114824683Y-88763649D01*
X114811054Y-88758772D01*
X114797969Y-88752583D01*
X114785553Y-88745142D01*
X114773927Y-88736519D01*
X114763202Y-88726798D01*
X114753481Y-88716073D01*
X114744858Y-88704447D01*
X114737417Y-88692031D01*
X114731228Y-88678946D01*
X114726351Y-88665317D01*
X114722834Y-88651276D01*
X114720710Y-88636958D01*
X114720000Y-88622500D01*
X114720000Y-88277500D01*
X114720710Y-88263042D01*
X114722834Y-88248724D01*
X114726351Y-88234683D01*
X114731228Y-88221054D01*
X114737417Y-88207969D01*
X114744858Y-88195553D01*
X114753481Y-88183927D01*
X114763202Y-88173202D01*
X114773927Y-88163481D01*
X114785553Y-88154858D01*
X114797969Y-88147417D01*
X114811054Y-88141228D01*
X114824683Y-88136351D01*
X114838724Y-88132834D01*
X114853042Y-88130710D01*
X114867500Y-88130000D01*
X115162500Y-88130000D01*
X115176958Y-88130710D01*
X115176958Y-88130710D01*
G37*
D13*
X115015000Y-88450000D03*
D11*
G36*
X116146958Y-88130710D02*
G01*
X116161276Y-88132834D01*
X116175317Y-88136351D01*
X116188946Y-88141228D01*
X116202031Y-88147417D01*
X116214447Y-88154858D01*
X116226073Y-88163481D01*
X116236798Y-88173202D01*
X116246519Y-88183927D01*
X116255142Y-88195553D01*
X116262583Y-88207969D01*
X116268772Y-88221054D01*
X116273649Y-88234683D01*
X116277166Y-88248724D01*
X116279290Y-88263042D01*
X116280000Y-88277500D01*
X116280000Y-88622500D01*
X116279290Y-88636958D01*
X116277166Y-88651276D01*
X116273649Y-88665317D01*
X116268772Y-88678946D01*
X116262583Y-88692031D01*
X116255142Y-88704447D01*
X116246519Y-88716073D01*
X116236798Y-88726798D01*
X116226073Y-88736519D01*
X116214447Y-88745142D01*
X116202031Y-88752583D01*
X116188946Y-88758772D01*
X116175317Y-88763649D01*
X116161276Y-88767166D01*
X116146958Y-88769290D01*
X116132500Y-88770000D01*
X115837500Y-88770000D01*
X115823042Y-88769290D01*
X115808724Y-88767166D01*
X115794683Y-88763649D01*
X115781054Y-88758772D01*
X115767969Y-88752583D01*
X115755553Y-88745142D01*
X115743927Y-88736519D01*
X115733202Y-88726798D01*
X115723481Y-88716073D01*
X115714858Y-88704447D01*
X115707417Y-88692031D01*
X115701228Y-88678946D01*
X115696351Y-88665317D01*
X115692834Y-88651276D01*
X115690710Y-88636958D01*
X115690000Y-88622500D01*
X115690000Y-88277500D01*
X115690710Y-88263042D01*
X115692834Y-88248724D01*
X115696351Y-88234683D01*
X115701228Y-88221054D01*
X115707417Y-88207969D01*
X115714858Y-88195553D01*
X115723481Y-88183927D01*
X115733202Y-88173202D01*
X115743927Y-88163481D01*
X115755553Y-88154858D01*
X115767969Y-88147417D01*
X115781054Y-88141228D01*
X115794683Y-88136351D01*
X115808724Y-88132834D01*
X115823042Y-88130710D01*
X115837500Y-88130000D01*
X116132500Y-88130000D01*
X116146958Y-88130710D01*
X116146958Y-88130710D01*
G37*
D13*
X115985000Y-88450000D03*
D11*
G36*
X118046958Y-86480710D02*
G01*
X118061276Y-86482834D01*
X118075317Y-86486351D01*
X118088946Y-86491228D01*
X118102031Y-86497417D01*
X118114447Y-86504858D01*
X118126073Y-86513481D01*
X118136798Y-86523202D01*
X118146519Y-86533927D01*
X118155142Y-86545553D01*
X118162583Y-86557969D01*
X118168772Y-86571054D01*
X118173649Y-86584683D01*
X118177166Y-86598724D01*
X118179290Y-86613042D01*
X118180000Y-86627500D01*
X118180000Y-86972500D01*
X118179290Y-86986958D01*
X118177166Y-87001276D01*
X118173649Y-87015317D01*
X118168772Y-87028946D01*
X118162583Y-87042031D01*
X118155142Y-87054447D01*
X118146519Y-87066073D01*
X118136798Y-87076798D01*
X118126073Y-87086519D01*
X118114447Y-87095142D01*
X118102031Y-87102583D01*
X118088946Y-87108772D01*
X118075317Y-87113649D01*
X118061276Y-87117166D01*
X118046958Y-87119290D01*
X118032500Y-87120000D01*
X117737500Y-87120000D01*
X117723042Y-87119290D01*
X117708724Y-87117166D01*
X117694683Y-87113649D01*
X117681054Y-87108772D01*
X117667969Y-87102583D01*
X117655553Y-87095142D01*
X117643927Y-87086519D01*
X117633202Y-87076798D01*
X117623481Y-87066073D01*
X117614858Y-87054447D01*
X117607417Y-87042031D01*
X117601228Y-87028946D01*
X117596351Y-87015317D01*
X117592834Y-87001276D01*
X117590710Y-86986958D01*
X117590000Y-86972500D01*
X117590000Y-86627500D01*
X117590710Y-86613042D01*
X117592834Y-86598724D01*
X117596351Y-86584683D01*
X117601228Y-86571054D01*
X117607417Y-86557969D01*
X117614858Y-86545553D01*
X117623481Y-86533927D01*
X117633202Y-86523202D01*
X117643927Y-86513481D01*
X117655553Y-86504858D01*
X117667969Y-86497417D01*
X117681054Y-86491228D01*
X117694683Y-86486351D01*
X117708724Y-86482834D01*
X117723042Y-86480710D01*
X117737500Y-86480000D01*
X118032500Y-86480000D01*
X118046958Y-86480710D01*
X118046958Y-86480710D01*
G37*
D13*
X117885000Y-86800000D03*
D11*
G36*
X117076958Y-86480710D02*
G01*
X117091276Y-86482834D01*
X117105317Y-86486351D01*
X117118946Y-86491228D01*
X117132031Y-86497417D01*
X117144447Y-86504858D01*
X117156073Y-86513481D01*
X117166798Y-86523202D01*
X117176519Y-86533927D01*
X117185142Y-86545553D01*
X117192583Y-86557969D01*
X117198772Y-86571054D01*
X117203649Y-86584683D01*
X117207166Y-86598724D01*
X117209290Y-86613042D01*
X117210000Y-86627500D01*
X117210000Y-86972500D01*
X117209290Y-86986958D01*
X117207166Y-87001276D01*
X117203649Y-87015317D01*
X117198772Y-87028946D01*
X117192583Y-87042031D01*
X117185142Y-87054447D01*
X117176519Y-87066073D01*
X117166798Y-87076798D01*
X117156073Y-87086519D01*
X117144447Y-87095142D01*
X117132031Y-87102583D01*
X117118946Y-87108772D01*
X117105317Y-87113649D01*
X117091276Y-87117166D01*
X117076958Y-87119290D01*
X117062500Y-87120000D01*
X116767500Y-87120000D01*
X116753042Y-87119290D01*
X116738724Y-87117166D01*
X116724683Y-87113649D01*
X116711054Y-87108772D01*
X116697969Y-87102583D01*
X116685553Y-87095142D01*
X116673927Y-87086519D01*
X116663202Y-87076798D01*
X116653481Y-87066073D01*
X116644858Y-87054447D01*
X116637417Y-87042031D01*
X116631228Y-87028946D01*
X116626351Y-87015317D01*
X116622834Y-87001276D01*
X116620710Y-86986958D01*
X116620000Y-86972500D01*
X116620000Y-86627500D01*
X116620710Y-86613042D01*
X116622834Y-86598724D01*
X116626351Y-86584683D01*
X116631228Y-86571054D01*
X116637417Y-86557969D01*
X116644858Y-86545553D01*
X116653481Y-86533927D01*
X116663202Y-86523202D01*
X116673927Y-86513481D01*
X116685553Y-86504858D01*
X116697969Y-86497417D01*
X116711054Y-86491228D01*
X116724683Y-86486351D01*
X116738724Y-86482834D01*
X116753042Y-86480710D01*
X116767500Y-86480000D01*
X117062500Y-86480000D01*
X117076958Y-86480710D01*
X117076958Y-86480710D01*
G37*
D13*
X116915000Y-86800000D03*
D11*
G36*
X117530142Y-79301174D02*
G01*
X117553803Y-79304684D01*
X117577007Y-79310496D01*
X117599529Y-79318554D01*
X117621153Y-79328782D01*
X117641670Y-79341079D01*
X117660883Y-79355329D01*
X117678607Y-79371393D01*
X117694671Y-79389117D01*
X117708921Y-79408330D01*
X117721218Y-79428847D01*
X117731446Y-79450471D01*
X117739504Y-79472993D01*
X117745316Y-79496197D01*
X117748826Y-79519858D01*
X117750000Y-79543750D01*
X117750000Y-80456250D01*
X117748826Y-80480142D01*
X117745316Y-80503803D01*
X117739504Y-80527007D01*
X117731446Y-80549529D01*
X117721218Y-80571153D01*
X117708921Y-80591670D01*
X117694671Y-80610883D01*
X117678607Y-80628607D01*
X117660883Y-80644671D01*
X117641670Y-80658921D01*
X117621153Y-80671218D01*
X117599529Y-80681446D01*
X117577007Y-80689504D01*
X117553803Y-80695316D01*
X117530142Y-80698826D01*
X117506250Y-80700000D01*
X117018750Y-80700000D01*
X116994858Y-80698826D01*
X116971197Y-80695316D01*
X116947993Y-80689504D01*
X116925471Y-80681446D01*
X116903847Y-80671218D01*
X116883330Y-80658921D01*
X116864117Y-80644671D01*
X116846393Y-80628607D01*
X116830329Y-80610883D01*
X116816079Y-80591670D01*
X116803782Y-80571153D01*
X116793554Y-80549529D01*
X116785496Y-80527007D01*
X116779684Y-80503803D01*
X116776174Y-80480142D01*
X116775000Y-80456250D01*
X116775000Y-79543750D01*
X116776174Y-79519858D01*
X116779684Y-79496197D01*
X116785496Y-79472993D01*
X116793554Y-79450471D01*
X116803782Y-79428847D01*
X116816079Y-79408330D01*
X116830329Y-79389117D01*
X116846393Y-79371393D01*
X116864117Y-79355329D01*
X116883330Y-79341079D01*
X116903847Y-79328782D01*
X116925471Y-79318554D01*
X116947993Y-79310496D01*
X116971197Y-79304684D01*
X116994858Y-79301174D01*
X117018750Y-79300000D01*
X117506250Y-79300000D01*
X117530142Y-79301174D01*
X117530142Y-79301174D01*
G37*
D12*
X117262500Y-80000000D03*
D11*
G36*
X119405142Y-79301174D02*
G01*
X119428803Y-79304684D01*
X119452007Y-79310496D01*
X119474529Y-79318554D01*
X119496153Y-79328782D01*
X119516670Y-79341079D01*
X119535883Y-79355329D01*
X119553607Y-79371393D01*
X119569671Y-79389117D01*
X119583921Y-79408330D01*
X119596218Y-79428847D01*
X119606446Y-79450471D01*
X119614504Y-79472993D01*
X119620316Y-79496197D01*
X119623826Y-79519858D01*
X119625000Y-79543750D01*
X119625000Y-80456250D01*
X119623826Y-80480142D01*
X119620316Y-80503803D01*
X119614504Y-80527007D01*
X119606446Y-80549529D01*
X119596218Y-80571153D01*
X119583921Y-80591670D01*
X119569671Y-80610883D01*
X119553607Y-80628607D01*
X119535883Y-80644671D01*
X119516670Y-80658921D01*
X119496153Y-80671218D01*
X119474529Y-80681446D01*
X119452007Y-80689504D01*
X119428803Y-80695316D01*
X119405142Y-80698826D01*
X119381250Y-80700000D01*
X118893750Y-80700000D01*
X118869858Y-80698826D01*
X118846197Y-80695316D01*
X118822993Y-80689504D01*
X118800471Y-80681446D01*
X118778847Y-80671218D01*
X118758330Y-80658921D01*
X118739117Y-80644671D01*
X118721393Y-80628607D01*
X118705329Y-80610883D01*
X118691079Y-80591670D01*
X118678782Y-80571153D01*
X118668554Y-80549529D01*
X118660496Y-80527007D01*
X118654684Y-80503803D01*
X118651174Y-80480142D01*
X118650000Y-80456250D01*
X118650000Y-79543750D01*
X118651174Y-79519858D01*
X118654684Y-79496197D01*
X118660496Y-79472993D01*
X118668554Y-79450471D01*
X118678782Y-79428847D01*
X118691079Y-79408330D01*
X118705329Y-79389117D01*
X118721393Y-79371393D01*
X118739117Y-79355329D01*
X118758330Y-79341079D01*
X118778847Y-79328782D01*
X118800471Y-79318554D01*
X118822993Y-79310496D01*
X118846197Y-79304684D01*
X118869858Y-79301174D01*
X118893750Y-79300000D01*
X119381250Y-79300000D01*
X119405142Y-79301174D01*
X119405142Y-79301174D01*
G37*
D12*
X119137500Y-80000000D03*
D11*
G36*
X122246958Y-82180710D02*
G01*
X122261276Y-82182834D01*
X122275317Y-82186351D01*
X122288946Y-82191228D01*
X122302031Y-82197417D01*
X122314447Y-82204858D01*
X122326073Y-82213481D01*
X122336798Y-82223202D01*
X122346519Y-82233927D01*
X122355142Y-82245553D01*
X122362583Y-82257969D01*
X122368772Y-82271054D01*
X122373649Y-82284683D01*
X122377166Y-82298724D01*
X122379290Y-82313042D01*
X122380000Y-82327500D01*
X122380000Y-82672500D01*
X122379290Y-82686958D01*
X122377166Y-82701276D01*
X122373649Y-82715317D01*
X122368772Y-82728946D01*
X122362583Y-82742031D01*
X122355142Y-82754447D01*
X122346519Y-82766073D01*
X122336798Y-82776798D01*
X122326073Y-82786519D01*
X122314447Y-82795142D01*
X122302031Y-82802583D01*
X122288946Y-82808772D01*
X122275317Y-82813649D01*
X122261276Y-82817166D01*
X122246958Y-82819290D01*
X122232500Y-82820000D01*
X121937500Y-82820000D01*
X121923042Y-82819290D01*
X121908724Y-82817166D01*
X121894683Y-82813649D01*
X121881054Y-82808772D01*
X121867969Y-82802583D01*
X121855553Y-82795142D01*
X121843927Y-82786519D01*
X121833202Y-82776798D01*
X121823481Y-82766073D01*
X121814858Y-82754447D01*
X121807417Y-82742031D01*
X121801228Y-82728946D01*
X121796351Y-82715317D01*
X121792834Y-82701276D01*
X121790710Y-82686958D01*
X121790000Y-82672500D01*
X121790000Y-82327500D01*
X121790710Y-82313042D01*
X121792834Y-82298724D01*
X121796351Y-82284683D01*
X121801228Y-82271054D01*
X121807417Y-82257969D01*
X121814858Y-82245553D01*
X121823481Y-82233927D01*
X121833202Y-82223202D01*
X121843927Y-82213481D01*
X121855553Y-82204858D01*
X121867969Y-82197417D01*
X121881054Y-82191228D01*
X121894683Y-82186351D01*
X121908724Y-82182834D01*
X121923042Y-82180710D01*
X121937500Y-82180000D01*
X122232500Y-82180000D01*
X122246958Y-82180710D01*
X122246958Y-82180710D01*
G37*
D13*
X122085000Y-82500000D03*
D11*
G36*
X121276958Y-82180710D02*
G01*
X121291276Y-82182834D01*
X121305317Y-82186351D01*
X121318946Y-82191228D01*
X121332031Y-82197417D01*
X121344447Y-82204858D01*
X121356073Y-82213481D01*
X121366798Y-82223202D01*
X121376519Y-82233927D01*
X121385142Y-82245553D01*
X121392583Y-82257969D01*
X121398772Y-82271054D01*
X121403649Y-82284683D01*
X121407166Y-82298724D01*
X121409290Y-82313042D01*
X121410000Y-82327500D01*
X121410000Y-82672500D01*
X121409290Y-82686958D01*
X121407166Y-82701276D01*
X121403649Y-82715317D01*
X121398772Y-82728946D01*
X121392583Y-82742031D01*
X121385142Y-82754447D01*
X121376519Y-82766073D01*
X121366798Y-82776798D01*
X121356073Y-82786519D01*
X121344447Y-82795142D01*
X121332031Y-82802583D01*
X121318946Y-82808772D01*
X121305317Y-82813649D01*
X121291276Y-82817166D01*
X121276958Y-82819290D01*
X121262500Y-82820000D01*
X120967500Y-82820000D01*
X120953042Y-82819290D01*
X120938724Y-82817166D01*
X120924683Y-82813649D01*
X120911054Y-82808772D01*
X120897969Y-82802583D01*
X120885553Y-82795142D01*
X120873927Y-82786519D01*
X120863202Y-82776798D01*
X120853481Y-82766073D01*
X120844858Y-82754447D01*
X120837417Y-82742031D01*
X120831228Y-82728946D01*
X120826351Y-82715317D01*
X120822834Y-82701276D01*
X120820710Y-82686958D01*
X120820000Y-82672500D01*
X120820000Y-82327500D01*
X120820710Y-82313042D01*
X120822834Y-82298724D01*
X120826351Y-82284683D01*
X120831228Y-82271054D01*
X120837417Y-82257969D01*
X120844858Y-82245553D01*
X120853481Y-82233927D01*
X120863202Y-82223202D01*
X120873927Y-82213481D01*
X120885553Y-82204858D01*
X120897969Y-82197417D01*
X120911054Y-82191228D01*
X120924683Y-82186351D01*
X120938724Y-82182834D01*
X120953042Y-82180710D01*
X120967500Y-82180000D01*
X121262500Y-82180000D01*
X121276958Y-82180710D01*
X121276958Y-82180710D01*
G37*
D13*
X121115000Y-82500000D03*
D11*
G36*
X122246958Y-85280710D02*
G01*
X122261276Y-85282834D01*
X122275317Y-85286351D01*
X122288946Y-85291228D01*
X122302031Y-85297417D01*
X122314447Y-85304858D01*
X122326073Y-85313481D01*
X122336798Y-85323202D01*
X122346519Y-85333927D01*
X122355142Y-85345553D01*
X122362583Y-85357969D01*
X122368772Y-85371054D01*
X122373649Y-85384683D01*
X122377166Y-85398724D01*
X122379290Y-85413042D01*
X122380000Y-85427500D01*
X122380000Y-85772500D01*
X122379290Y-85786958D01*
X122377166Y-85801276D01*
X122373649Y-85815317D01*
X122368772Y-85828946D01*
X122362583Y-85842031D01*
X122355142Y-85854447D01*
X122346519Y-85866073D01*
X122336798Y-85876798D01*
X122326073Y-85886519D01*
X122314447Y-85895142D01*
X122302031Y-85902583D01*
X122288946Y-85908772D01*
X122275317Y-85913649D01*
X122261276Y-85917166D01*
X122246958Y-85919290D01*
X122232500Y-85920000D01*
X121937500Y-85920000D01*
X121923042Y-85919290D01*
X121908724Y-85917166D01*
X121894683Y-85913649D01*
X121881054Y-85908772D01*
X121867969Y-85902583D01*
X121855553Y-85895142D01*
X121843927Y-85886519D01*
X121833202Y-85876798D01*
X121823481Y-85866073D01*
X121814858Y-85854447D01*
X121807417Y-85842031D01*
X121801228Y-85828946D01*
X121796351Y-85815317D01*
X121792834Y-85801276D01*
X121790710Y-85786958D01*
X121790000Y-85772500D01*
X121790000Y-85427500D01*
X121790710Y-85413042D01*
X121792834Y-85398724D01*
X121796351Y-85384683D01*
X121801228Y-85371054D01*
X121807417Y-85357969D01*
X121814858Y-85345553D01*
X121823481Y-85333927D01*
X121833202Y-85323202D01*
X121843927Y-85313481D01*
X121855553Y-85304858D01*
X121867969Y-85297417D01*
X121881054Y-85291228D01*
X121894683Y-85286351D01*
X121908724Y-85282834D01*
X121923042Y-85280710D01*
X121937500Y-85280000D01*
X122232500Y-85280000D01*
X122246958Y-85280710D01*
X122246958Y-85280710D01*
G37*
D13*
X122085000Y-85600000D03*
D11*
G36*
X121276958Y-85280710D02*
G01*
X121291276Y-85282834D01*
X121305317Y-85286351D01*
X121318946Y-85291228D01*
X121332031Y-85297417D01*
X121344447Y-85304858D01*
X121356073Y-85313481D01*
X121366798Y-85323202D01*
X121376519Y-85333927D01*
X121385142Y-85345553D01*
X121392583Y-85357969D01*
X121398772Y-85371054D01*
X121403649Y-85384683D01*
X121407166Y-85398724D01*
X121409290Y-85413042D01*
X121410000Y-85427500D01*
X121410000Y-85772500D01*
X121409290Y-85786958D01*
X121407166Y-85801276D01*
X121403649Y-85815317D01*
X121398772Y-85828946D01*
X121392583Y-85842031D01*
X121385142Y-85854447D01*
X121376519Y-85866073D01*
X121366798Y-85876798D01*
X121356073Y-85886519D01*
X121344447Y-85895142D01*
X121332031Y-85902583D01*
X121318946Y-85908772D01*
X121305317Y-85913649D01*
X121291276Y-85917166D01*
X121276958Y-85919290D01*
X121262500Y-85920000D01*
X120967500Y-85920000D01*
X120953042Y-85919290D01*
X120938724Y-85917166D01*
X120924683Y-85913649D01*
X120911054Y-85908772D01*
X120897969Y-85902583D01*
X120885553Y-85895142D01*
X120873927Y-85886519D01*
X120863202Y-85876798D01*
X120853481Y-85866073D01*
X120844858Y-85854447D01*
X120837417Y-85842031D01*
X120831228Y-85828946D01*
X120826351Y-85815317D01*
X120822834Y-85801276D01*
X120820710Y-85786958D01*
X120820000Y-85772500D01*
X120820000Y-85427500D01*
X120820710Y-85413042D01*
X120822834Y-85398724D01*
X120826351Y-85384683D01*
X120831228Y-85371054D01*
X120837417Y-85357969D01*
X120844858Y-85345553D01*
X120853481Y-85333927D01*
X120863202Y-85323202D01*
X120873927Y-85313481D01*
X120885553Y-85304858D01*
X120897969Y-85297417D01*
X120911054Y-85291228D01*
X120924683Y-85286351D01*
X120938724Y-85282834D01*
X120953042Y-85280710D01*
X120967500Y-85280000D01*
X121262500Y-85280000D01*
X121276958Y-85280710D01*
X121276958Y-85280710D01*
G37*
D13*
X121115000Y-85600000D03*
D11*
G36*
X124886958Y-88120710D02*
G01*
X124901276Y-88122834D01*
X124915317Y-88126351D01*
X124928946Y-88131228D01*
X124942031Y-88137417D01*
X124954447Y-88144858D01*
X124966073Y-88153481D01*
X124976798Y-88163202D01*
X124986519Y-88173927D01*
X124995142Y-88185553D01*
X125002583Y-88197969D01*
X125008772Y-88211054D01*
X125013649Y-88224683D01*
X125017166Y-88238724D01*
X125019290Y-88253042D01*
X125020000Y-88267500D01*
X125020000Y-88612500D01*
X125019290Y-88626958D01*
X125017166Y-88641276D01*
X125013649Y-88655317D01*
X125008772Y-88668946D01*
X125002583Y-88682031D01*
X124995142Y-88694447D01*
X124986519Y-88706073D01*
X124976798Y-88716798D01*
X124966073Y-88726519D01*
X124954447Y-88735142D01*
X124942031Y-88742583D01*
X124928946Y-88748772D01*
X124915317Y-88753649D01*
X124901276Y-88757166D01*
X124886958Y-88759290D01*
X124872500Y-88760000D01*
X124577500Y-88760000D01*
X124563042Y-88759290D01*
X124548724Y-88757166D01*
X124534683Y-88753649D01*
X124521054Y-88748772D01*
X124507969Y-88742583D01*
X124495553Y-88735142D01*
X124483927Y-88726519D01*
X124473202Y-88716798D01*
X124463481Y-88706073D01*
X124454858Y-88694447D01*
X124447417Y-88682031D01*
X124441228Y-88668946D01*
X124436351Y-88655317D01*
X124432834Y-88641276D01*
X124430710Y-88626958D01*
X124430000Y-88612500D01*
X124430000Y-88267500D01*
X124430710Y-88253042D01*
X124432834Y-88238724D01*
X124436351Y-88224683D01*
X124441228Y-88211054D01*
X124447417Y-88197969D01*
X124454858Y-88185553D01*
X124463481Y-88173927D01*
X124473202Y-88163202D01*
X124483927Y-88153481D01*
X124495553Y-88144858D01*
X124507969Y-88137417D01*
X124521054Y-88131228D01*
X124534683Y-88126351D01*
X124548724Y-88122834D01*
X124563042Y-88120710D01*
X124577500Y-88120000D01*
X124872500Y-88120000D01*
X124886958Y-88120710D01*
X124886958Y-88120710D01*
G37*
D13*
X124725000Y-88440000D03*
D11*
G36*
X123916958Y-88120710D02*
G01*
X123931276Y-88122834D01*
X123945317Y-88126351D01*
X123958946Y-88131228D01*
X123972031Y-88137417D01*
X123984447Y-88144858D01*
X123996073Y-88153481D01*
X124006798Y-88163202D01*
X124016519Y-88173927D01*
X124025142Y-88185553D01*
X124032583Y-88197969D01*
X124038772Y-88211054D01*
X124043649Y-88224683D01*
X124047166Y-88238724D01*
X124049290Y-88253042D01*
X124050000Y-88267500D01*
X124050000Y-88612500D01*
X124049290Y-88626958D01*
X124047166Y-88641276D01*
X124043649Y-88655317D01*
X124038772Y-88668946D01*
X124032583Y-88682031D01*
X124025142Y-88694447D01*
X124016519Y-88706073D01*
X124006798Y-88716798D01*
X123996073Y-88726519D01*
X123984447Y-88735142D01*
X123972031Y-88742583D01*
X123958946Y-88748772D01*
X123945317Y-88753649D01*
X123931276Y-88757166D01*
X123916958Y-88759290D01*
X123902500Y-88760000D01*
X123607500Y-88760000D01*
X123593042Y-88759290D01*
X123578724Y-88757166D01*
X123564683Y-88753649D01*
X123551054Y-88748772D01*
X123537969Y-88742583D01*
X123525553Y-88735142D01*
X123513927Y-88726519D01*
X123503202Y-88716798D01*
X123493481Y-88706073D01*
X123484858Y-88694447D01*
X123477417Y-88682031D01*
X123471228Y-88668946D01*
X123466351Y-88655317D01*
X123462834Y-88641276D01*
X123460710Y-88626958D01*
X123460000Y-88612500D01*
X123460000Y-88267500D01*
X123460710Y-88253042D01*
X123462834Y-88238724D01*
X123466351Y-88224683D01*
X123471228Y-88211054D01*
X123477417Y-88197969D01*
X123484858Y-88185553D01*
X123493481Y-88173927D01*
X123503202Y-88163202D01*
X123513927Y-88153481D01*
X123525553Y-88144858D01*
X123537969Y-88137417D01*
X123551054Y-88131228D01*
X123564683Y-88126351D01*
X123578724Y-88122834D01*
X123593042Y-88120710D01*
X123607500Y-88120000D01*
X123902500Y-88120000D01*
X123916958Y-88120710D01*
X123916958Y-88120710D01*
G37*
D13*
X123755000Y-88440000D03*
D14*
X119100000Y-78200000D03*
X119100000Y-76600000D03*
D15*
X103697056Y-63302944D03*
X102000000Y-62600000D03*
X100302944Y-63302944D03*
X99600000Y-65000000D03*
X100302944Y-66697056D03*
X102000000Y-67400000D03*
X103697056Y-66697056D03*
X104400000Y-65000000D03*
D16*
X102000000Y-65000000D03*
D15*
X141697056Y-101302944D03*
X140000000Y-100600000D03*
X138302944Y-101302944D03*
X137600000Y-103000000D03*
X138302944Y-104697056D03*
X140000000Y-105400000D03*
X141697056Y-104697056D03*
X142400000Y-103000000D03*
D16*
X140000000Y-103000000D03*
X140000000Y-65000000D03*
D15*
X142400000Y-65000000D03*
X141697056Y-66697056D03*
X140000000Y-67400000D03*
X138302944Y-66697056D03*
X137600000Y-65000000D03*
X138302944Y-63302944D03*
X140000000Y-62600000D03*
X141697056Y-63302944D03*
D16*
X102000000Y-103000000D03*
D15*
X104400000Y-103000000D03*
X103697056Y-104697056D03*
X102000000Y-105400000D03*
X100302944Y-104697056D03*
X99600000Y-103000000D03*
X100302944Y-101302944D03*
X102000000Y-100600000D03*
X103697056Y-101302944D03*
D17*
X118850000Y-61450000D03*
X121150000Y-61450000D03*
X123950000Y-61450000D03*
X116050000Y-61450000D03*
D18*
X116900000Y-63700000D03*
X123100000Y-63700000D03*
D19*
X120000000Y-64125000D03*
X118700000Y-64125000D03*
X119350000Y-64125000D03*
X121300000Y-64125000D03*
X120650000Y-64125000D03*
D20*
X123900000Y-68700000D03*
D21*
X121360000Y-68700000D03*
D22*
X99200000Y-85575000D03*
X99200000Y-91225000D03*
D23*
X99000000Y-88400000D03*
X143010000Y-88400000D03*
D22*
X142810000Y-85575000D03*
X142810000Y-91225000D03*
D11*
G36*
X122286958Y-86420710D02*
G01*
X122301276Y-86422834D01*
X122315317Y-86426351D01*
X122328946Y-86431228D01*
X122342031Y-86437417D01*
X122354447Y-86444858D01*
X122366073Y-86453481D01*
X122376798Y-86463202D01*
X122386519Y-86473927D01*
X122395142Y-86485553D01*
X122402583Y-86497969D01*
X122408772Y-86511054D01*
X122413649Y-86524683D01*
X122417166Y-86538724D01*
X122419290Y-86553042D01*
X122420000Y-86567500D01*
X122420000Y-86862500D01*
X122419290Y-86876958D01*
X122417166Y-86891276D01*
X122413649Y-86905317D01*
X122408772Y-86918946D01*
X122402583Y-86932031D01*
X122395142Y-86944447D01*
X122386519Y-86956073D01*
X122376798Y-86966798D01*
X122366073Y-86976519D01*
X122354447Y-86985142D01*
X122342031Y-86992583D01*
X122328946Y-86998772D01*
X122315317Y-87003649D01*
X122301276Y-87007166D01*
X122286958Y-87009290D01*
X122272500Y-87010000D01*
X121927500Y-87010000D01*
X121913042Y-87009290D01*
X121898724Y-87007166D01*
X121884683Y-87003649D01*
X121871054Y-86998772D01*
X121857969Y-86992583D01*
X121845553Y-86985142D01*
X121833927Y-86976519D01*
X121823202Y-86966798D01*
X121813481Y-86956073D01*
X121804858Y-86944447D01*
X121797417Y-86932031D01*
X121791228Y-86918946D01*
X121786351Y-86905317D01*
X121782834Y-86891276D01*
X121780710Y-86876958D01*
X121780000Y-86862500D01*
X121780000Y-86567500D01*
X121780710Y-86553042D01*
X121782834Y-86538724D01*
X121786351Y-86524683D01*
X121791228Y-86511054D01*
X121797417Y-86497969D01*
X121804858Y-86485553D01*
X121813481Y-86473927D01*
X121823202Y-86463202D01*
X121833927Y-86453481D01*
X121845553Y-86444858D01*
X121857969Y-86437417D01*
X121871054Y-86431228D01*
X121884683Y-86426351D01*
X121898724Y-86422834D01*
X121913042Y-86420710D01*
X121927500Y-86420000D01*
X122272500Y-86420000D01*
X122286958Y-86420710D01*
X122286958Y-86420710D01*
G37*
D13*
X122100000Y-86715000D03*
D11*
G36*
X122286958Y-87390710D02*
G01*
X122301276Y-87392834D01*
X122315317Y-87396351D01*
X122328946Y-87401228D01*
X122342031Y-87407417D01*
X122354447Y-87414858D01*
X122366073Y-87423481D01*
X122376798Y-87433202D01*
X122386519Y-87443927D01*
X122395142Y-87455553D01*
X122402583Y-87467969D01*
X122408772Y-87481054D01*
X122413649Y-87494683D01*
X122417166Y-87508724D01*
X122419290Y-87523042D01*
X122420000Y-87537500D01*
X122420000Y-87832500D01*
X122419290Y-87846958D01*
X122417166Y-87861276D01*
X122413649Y-87875317D01*
X122408772Y-87888946D01*
X122402583Y-87902031D01*
X122395142Y-87914447D01*
X122386519Y-87926073D01*
X122376798Y-87936798D01*
X122366073Y-87946519D01*
X122354447Y-87955142D01*
X122342031Y-87962583D01*
X122328946Y-87968772D01*
X122315317Y-87973649D01*
X122301276Y-87977166D01*
X122286958Y-87979290D01*
X122272500Y-87980000D01*
X121927500Y-87980000D01*
X121913042Y-87979290D01*
X121898724Y-87977166D01*
X121884683Y-87973649D01*
X121871054Y-87968772D01*
X121857969Y-87962583D01*
X121845553Y-87955142D01*
X121833927Y-87946519D01*
X121823202Y-87936798D01*
X121813481Y-87926073D01*
X121804858Y-87914447D01*
X121797417Y-87902031D01*
X121791228Y-87888946D01*
X121786351Y-87875317D01*
X121782834Y-87861276D01*
X121780710Y-87846958D01*
X121780000Y-87832500D01*
X121780000Y-87537500D01*
X121780710Y-87523042D01*
X121782834Y-87508724D01*
X121786351Y-87494683D01*
X121791228Y-87481054D01*
X121797417Y-87467969D01*
X121804858Y-87455553D01*
X121813481Y-87443927D01*
X121823202Y-87433202D01*
X121833927Y-87423481D01*
X121845553Y-87414858D01*
X121857969Y-87407417D01*
X121871054Y-87401228D01*
X121884683Y-87396351D01*
X121898724Y-87392834D01*
X121913042Y-87390710D01*
X121927500Y-87390000D01*
X122272500Y-87390000D01*
X122286958Y-87390710D01*
X122286958Y-87390710D01*
G37*
D13*
X122100000Y-87685000D03*
D11*
G36*
X122286958Y-83220710D02*
G01*
X122301276Y-83222834D01*
X122315317Y-83226351D01*
X122328946Y-83231228D01*
X122342031Y-83237417D01*
X122354447Y-83244858D01*
X122366073Y-83253481D01*
X122376798Y-83263202D01*
X122386519Y-83273927D01*
X122395142Y-83285553D01*
X122402583Y-83297969D01*
X122408772Y-83311054D01*
X122413649Y-83324683D01*
X122417166Y-83338724D01*
X122419290Y-83353042D01*
X122420000Y-83367500D01*
X122420000Y-83662500D01*
X122419290Y-83676958D01*
X122417166Y-83691276D01*
X122413649Y-83705317D01*
X122408772Y-83718946D01*
X122402583Y-83732031D01*
X122395142Y-83744447D01*
X122386519Y-83756073D01*
X122376798Y-83766798D01*
X122366073Y-83776519D01*
X122354447Y-83785142D01*
X122342031Y-83792583D01*
X122328946Y-83798772D01*
X122315317Y-83803649D01*
X122301276Y-83807166D01*
X122286958Y-83809290D01*
X122272500Y-83810000D01*
X121927500Y-83810000D01*
X121913042Y-83809290D01*
X121898724Y-83807166D01*
X121884683Y-83803649D01*
X121871054Y-83798772D01*
X121857969Y-83792583D01*
X121845553Y-83785142D01*
X121833927Y-83776519D01*
X121823202Y-83766798D01*
X121813481Y-83756073D01*
X121804858Y-83744447D01*
X121797417Y-83732031D01*
X121791228Y-83718946D01*
X121786351Y-83705317D01*
X121782834Y-83691276D01*
X121780710Y-83676958D01*
X121780000Y-83662500D01*
X121780000Y-83367500D01*
X121780710Y-83353042D01*
X121782834Y-83338724D01*
X121786351Y-83324683D01*
X121791228Y-83311054D01*
X121797417Y-83297969D01*
X121804858Y-83285553D01*
X121813481Y-83273927D01*
X121823202Y-83263202D01*
X121833927Y-83253481D01*
X121845553Y-83244858D01*
X121857969Y-83237417D01*
X121871054Y-83231228D01*
X121884683Y-83226351D01*
X121898724Y-83222834D01*
X121913042Y-83220710D01*
X121927500Y-83220000D01*
X122272500Y-83220000D01*
X122286958Y-83220710D01*
X122286958Y-83220710D01*
G37*
D13*
X122100000Y-83515000D03*
D11*
G36*
X122286958Y-84190710D02*
G01*
X122301276Y-84192834D01*
X122315317Y-84196351D01*
X122328946Y-84201228D01*
X122342031Y-84207417D01*
X122354447Y-84214858D01*
X122366073Y-84223481D01*
X122376798Y-84233202D01*
X122386519Y-84243927D01*
X122395142Y-84255553D01*
X122402583Y-84267969D01*
X122408772Y-84281054D01*
X122413649Y-84294683D01*
X122417166Y-84308724D01*
X122419290Y-84323042D01*
X122420000Y-84337500D01*
X122420000Y-84632500D01*
X122419290Y-84646958D01*
X122417166Y-84661276D01*
X122413649Y-84675317D01*
X122408772Y-84688946D01*
X122402583Y-84702031D01*
X122395142Y-84714447D01*
X122386519Y-84726073D01*
X122376798Y-84736798D01*
X122366073Y-84746519D01*
X122354447Y-84755142D01*
X122342031Y-84762583D01*
X122328946Y-84768772D01*
X122315317Y-84773649D01*
X122301276Y-84777166D01*
X122286958Y-84779290D01*
X122272500Y-84780000D01*
X121927500Y-84780000D01*
X121913042Y-84779290D01*
X121898724Y-84777166D01*
X121884683Y-84773649D01*
X121871054Y-84768772D01*
X121857969Y-84762583D01*
X121845553Y-84755142D01*
X121833927Y-84746519D01*
X121823202Y-84736798D01*
X121813481Y-84726073D01*
X121804858Y-84714447D01*
X121797417Y-84702031D01*
X121791228Y-84688946D01*
X121786351Y-84675317D01*
X121782834Y-84661276D01*
X121780710Y-84646958D01*
X121780000Y-84632500D01*
X121780000Y-84337500D01*
X121780710Y-84323042D01*
X121782834Y-84308724D01*
X121786351Y-84294683D01*
X121791228Y-84281054D01*
X121797417Y-84267969D01*
X121804858Y-84255553D01*
X121813481Y-84243927D01*
X121823202Y-84233202D01*
X121833927Y-84223481D01*
X121845553Y-84214858D01*
X121857969Y-84207417D01*
X121871054Y-84201228D01*
X121884683Y-84196351D01*
X121898724Y-84192834D01*
X121913042Y-84190710D01*
X121927500Y-84190000D01*
X122272500Y-84190000D01*
X122286958Y-84190710D01*
X122286958Y-84190710D01*
G37*
D13*
X122100000Y-84485000D03*
D11*
G36*
X119247054Y-87951083D02*
G01*
X119268895Y-87954323D01*
X119290314Y-87959688D01*
X119311104Y-87967127D01*
X119331064Y-87976568D01*
X119350003Y-87987919D01*
X119367738Y-88001073D01*
X119384099Y-88015901D01*
X119398927Y-88032262D01*
X119412081Y-88049997D01*
X119423432Y-88068936D01*
X119432873Y-88088896D01*
X119440312Y-88109686D01*
X119445677Y-88131105D01*
X119448917Y-88152946D01*
X119450000Y-88175000D01*
X119450000Y-89225000D01*
X119448917Y-89247054D01*
X119445677Y-89268895D01*
X119440312Y-89290314D01*
X119432873Y-89311104D01*
X119423432Y-89331064D01*
X119412081Y-89350003D01*
X119398927Y-89367738D01*
X119384099Y-89384099D01*
X119367738Y-89398927D01*
X119350003Y-89412081D01*
X119331064Y-89423432D01*
X119311104Y-89432873D01*
X119290314Y-89440312D01*
X119268895Y-89445677D01*
X119247054Y-89448917D01*
X119225000Y-89450000D01*
X118775000Y-89450000D01*
X118752946Y-89448917D01*
X118731105Y-89445677D01*
X118709686Y-89440312D01*
X118688896Y-89432873D01*
X118668936Y-89423432D01*
X118649997Y-89412081D01*
X118632262Y-89398927D01*
X118615901Y-89384099D01*
X118601073Y-89367738D01*
X118587919Y-89350003D01*
X118576568Y-89331064D01*
X118567127Y-89311104D01*
X118559688Y-89290314D01*
X118554323Y-89268895D01*
X118551083Y-89247054D01*
X118550000Y-89225000D01*
X118550000Y-88175000D01*
X118551083Y-88152946D01*
X118554323Y-88131105D01*
X118559688Y-88109686D01*
X118567127Y-88088896D01*
X118576568Y-88068936D01*
X118587919Y-88049997D01*
X118601073Y-88032262D01*
X118615901Y-88015901D01*
X118632262Y-88001073D01*
X118649997Y-87987919D01*
X118668936Y-87976568D01*
X118688896Y-87967127D01*
X118709686Y-87959688D01*
X118731105Y-87954323D01*
X118752946Y-87951083D01*
X118775000Y-87950000D01*
X119225000Y-87950000D01*
X119247054Y-87951083D01*
X119247054Y-87951083D01*
G37*
D24*
X119000000Y-88700000D03*
D11*
G36*
X118293626Y-87825301D02*
G01*
X118299693Y-87826201D01*
X118305643Y-87827691D01*
X118311418Y-87829758D01*
X118316962Y-87832380D01*
X118322223Y-87835533D01*
X118327150Y-87839187D01*
X118331694Y-87843306D01*
X118335813Y-87847850D01*
X118339467Y-87852777D01*
X118342620Y-87858038D01*
X118345242Y-87863582D01*
X118347309Y-87869357D01*
X118348799Y-87875307D01*
X118349699Y-87881374D01*
X118350000Y-87887500D01*
X118350000Y-88012500D01*
X118349699Y-88018626D01*
X118348799Y-88024693D01*
X118347309Y-88030643D01*
X118345242Y-88036418D01*
X118342620Y-88041962D01*
X118339467Y-88047223D01*
X118335813Y-88052150D01*
X118331694Y-88056694D01*
X118327150Y-88060813D01*
X118322223Y-88064467D01*
X118316962Y-88067620D01*
X118311418Y-88070242D01*
X118305643Y-88072309D01*
X118299693Y-88073799D01*
X118293626Y-88074699D01*
X118287500Y-88075000D01*
X117712500Y-88075000D01*
X117706374Y-88074699D01*
X117700307Y-88073799D01*
X117694357Y-88072309D01*
X117688582Y-88070242D01*
X117683038Y-88067620D01*
X117677777Y-88064467D01*
X117672850Y-88060813D01*
X117668306Y-88056694D01*
X117664187Y-88052150D01*
X117660533Y-88047223D01*
X117657380Y-88041962D01*
X117654758Y-88036418D01*
X117652691Y-88030643D01*
X117651201Y-88024693D01*
X117650301Y-88018626D01*
X117650000Y-88012500D01*
X117650000Y-87887500D01*
X117650301Y-87881374D01*
X117651201Y-87875307D01*
X117652691Y-87869357D01*
X117654758Y-87863582D01*
X117657380Y-87858038D01*
X117660533Y-87852777D01*
X117664187Y-87847850D01*
X117668306Y-87843306D01*
X117672850Y-87839187D01*
X117677777Y-87835533D01*
X117683038Y-87832380D01*
X117688582Y-87829758D01*
X117694357Y-87827691D01*
X117700307Y-87826201D01*
X117706374Y-87825301D01*
X117712500Y-87825000D01*
X118287500Y-87825000D01*
X118293626Y-87825301D01*
X118293626Y-87825301D01*
G37*
D25*
X118000000Y-87950000D03*
D11*
G36*
X118293626Y-88325301D02*
G01*
X118299693Y-88326201D01*
X118305643Y-88327691D01*
X118311418Y-88329758D01*
X118316962Y-88332380D01*
X118322223Y-88335533D01*
X118327150Y-88339187D01*
X118331694Y-88343306D01*
X118335813Y-88347850D01*
X118339467Y-88352777D01*
X118342620Y-88358038D01*
X118345242Y-88363582D01*
X118347309Y-88369357D01*
X118348799Y-88375307D01*
X118349699Y-88381374D01*
X118350000Y-88387500D01*
X118350000Y-88512500D01*
X118349699Y-88518626D01*
X118348799Y-88524693D01*
X118347309Y-88530643D01*
X118345242Y-88536418D01*
X118342620Y-88541962D01*
X118339467Y-88547223D01*
X118335813Y-88552150D01*
X118331694Y-88556694D01*
X118327150Y-88560813D01*
X118322223Y-88564467D01*
X118316962Y-88567620D01*
X118311418Y-88570242D01*
X118305643Y-88572309D01*
X118299693Y-88573799D01*
X118293626Y-88574699D01*
X118287500Y-88575000D01*
X117712500Y-88575000D01*
X117706374Y-88574699D01*
X117700307Y-88573799D01*
X117694357Y-88572309D01*
X117688582Y-88570242D01*
X117683038Y-88567620D01*
X117677777Y-88564467D01*
X117672850Y-88560813D01*
X117668306Y-88556694D01*
X117664187Y-88552150D01*
X117660533Y-88547223D01*
X117657380Y-88541962D01*
X117654758Y-88536418D01*
X117652691Y-88530643D01*
X117651201Y-88524693D01*
X117650301Y-88518626D01*
X117650000Y-88512500D01*
X117650000Y-88387500D01*
X117650301Y-88381374D01*
X117651201Y-88375307D01*
X117652691Y-88369357D01*
X117654758Y-88363582D01*
X117657380Y-88358038D01*
X117660533Y-88352777D01*
X117664187Y-88347850D01*
X117668306Y-88343306D01*
X117672850Y-88339187D01*
X117677777Y-88335533D01*
X117683038Y-88332380D01*
X117688582Y-88329758D01*
X117694357Y-88327691D01*
X117700307Y-88326201D01*
X117706374Y-88325301D01*
X117712500Y-88325000D01*
X118287500Y-88325000D01*
X118293626Y-88325301D01*
X118293626Y-88325301D01*
G37*
D25*
X118000000Y-88450000D03*
D11*
G36*
X118293626Y-88825301D02*
G01*
X118299693Y-88826201D01*
X118305643Y-88827691D01*
X118311418Y-88829758D01*
X118316962Y-88832380D01*
X118322223Y-88835533D01*
X118327150Y-88839187D01*
X118331694Y-88843306D01*
X118335813Y-88847850D01*
X118339467Y-88852777D01*
X118342620Y-88858038D01*
X118345242Y-88863582D01*
X118347309Y-88869357D01*
X118348799Y-88875307D01*
X118349699Y-88881374D01*
X118350000Y-88887500D01*
X118350000Y-89012500D01*
X118349699Y-89018626D01*
X118348799Y-89024693D01*
X118347309Y-89030643D01*
X118345242Y-89036418D01*
X118342620Y-89041962D01*
X118339467Y-89047223D01*
X118335813Y-89052150D01*
X118331694Y-89056694D01*
X118327150Y-89060813D01*
X118322223Y-89064467D01*
X118316962Y-89067620D01*
X118311418Y-89070242D01*
X118305643Y-89072309D01*
X118299693Y-89073799D01*
X118293626Y-89074699D01*
X118287500Y-89075000D01*
X117712500Y-89075000D01*
X117706374Y-89074699D01*
X117700307Y-89073799D01*
X117694357Y-89072309D01*
X117688582Y-89070242D01*
X117683038Y-89067620D01*
X117677777Y-89064467D01*
X117672850Y-89060813D01*
X117668306Y-89056694D01*
X117664187Y-89052150D01*
X117660533Y-89047223D01*
X117657380Y-89041962D01*
X117654758Y-89036418D01*
X117652691Y-89030643D01*
X117651201Y-89024693D01*
X117650301Y-89018626D01*
X117650000Y-89012500D01*
X117650000Y-88887500D01*
X117650301Y-88881374D01*
X117651201Y-88875307D01*
X117652691Y-88869357D01*
X117654758Y-88863582D01*
X117657380Y-88858038D01*
X117660533Y-88852777D01*
X117664187Y-88847850D01*
X117668306Y-88843306D01*
X117672850Y-88839187D01*
X117677777Y-88835533D01*
X117683038Y-88832380D01*
X117688582Y-88829758D01*
X117694357Y-88827691D01*
X117700307Y-88826201D01*
X117706374Y-88825301D01*
X117712500Y-88825000D01*
X118287500Y-88825000D01*
X118293626Y-88825301D01*
X118293626Y-88825301D01*
G37*
D25*
X118000000Y-88950000D03*
D11*
G36*
X118293626Y-89325301D02*
G01*
X118299693Y-89326201D01*
X118305643Y-89327691D01*
X118311418Y-89329758D01*
X118316962Y-89332380D01*
X118322223Y-89335533D01*
X118327150Y-89339187D01*
X118331694Y-89343306D01*
X118335813Y-89347850D01*
X118339467Y-89352777D01*
X118342620Y-89358038D01*
X118345242Y-89363582D01*
X118347309Y-89369357D01*
X118348799Y-89375307D01*
X118349699Y-89381374D01*
X118350000Y-89387500D01*
X118350000Y-89512500D01*
X118349699Y-89518626D01*
X118348799Y-89524693D01*
X118347309Y-89530643D01*
X118345242Y-89536418D01*
X118342620Y-89541962D01*
X118339467Y-89547223D01*
X118335813Y-89552150D01*
X118331694Y-89556694D01*
X118327150Y-89560813D01*
X118322223Y-89564467D01*
X118316962Y-89567620D01*
X118311418Y-89570242D01*
X118305643Y-89572309D01*
X118299693Y-89573799D01*
X118293626Y-89574699D01*
X118287500Y-89575000D01*
X117712500Y-89575000D01*
X117706374Y-89574699D01*
X117700307Y-89573799D01*
X117694357Y-89572309D01*
X117688582Y-89570242D01*
X117683038Y-89567620D01*
X117677777Y-89564467D01*
X117672850Y-89560813D01*
X117668306Y-89556694D01*
X117664187Y-89552150D01*
X117660533Y-89547223D01*
X117657380Y-89541962D01*
X117654758Y-89536418D01*
X117652691Y-89530643D01*
X117651201Y-89524693D01*
X117650301Y-89518626D01*
X117650000Y-89512500D01*
X117650000Y-89387500D01*
X117650301Y-89381374D01*
X117651201Y-89375307D01*
X117652691Y-89369357D01*
X117654758Y-89363582D01*
X117657380Y-89358038D01*
X117660533Y-89352777D01*
X117664187Y-89347850D01*
X117668306Y-89343306D01*
X117672850Y-89339187D01*
X117677777Y-89335533D01*
X117683038Y-89332380D01*
X117688582Y-89329758D01*
X117694357Y-89327691D01*
X117700307Y-89326201D01*
X117706374Y-89325301D01*
X117712500Y-89325000D01*
X118287500Y-89325000D01*
X118293626Y-89325301D01*
X118293626Y-89325301D01*
G37*
D25*
X118000000Y-89450000D03*
D11*
G36*
X120293626Y-89325301D02*
G01*
X120299693Y-89326201D01*
X120305643Y-89327691D01*
X120311418Y-89329758D01*
X120316962Y-89332380D01*
X120322223Y-89335533D01*
X120327150Y-89339187D01*
X120331694Y-89343306D01*
X120335813Y-89347850D01*
X120339467Y-89352777D01*
X120342620Y-89358038D01*
X120345242Y-89363582D01*
X120347309Y-89369357D01*
X120348799Y-89375307D01*
X120349699Y-89381374D01*
X120350000Y-89387500D01*
X120350000Y-89512500D01*
X120349699Y-89518626D01*
X120348799Y-89524693D01*
X120347309Y-89530643D01*
X120345242Y-89536418D01*
X120342620Y-89541962D01*
X120339467Y-89547223D01*
X120335813Y-89552150D01*
X120331694Y-89556694D01*
X120327150Y-89560813D01*
X120322223Y-89564467D01*
X120316962Y-89567620D01*
X120311418Y-89570242D01*
X120305643Y-89572309D01*
X120299693Y-89573799D01*
X120293626Y-89574699D01*
X120287500Y-89575000D01*
X119712500Y-89575000D01*
X119706374Y-89574699D01*
X119700307Y-89573799D01*
X119694357Y-89572309D01*
X119688582Y-89570242D01*
X119683038Y-89567620D01*
X119677777Y-89564467D01*
X119672850Y-89560813D01*
X119668306Y-89556694D01*
X119664187Y-89552150D01*
X119660533Y-89547223D01*
X119657380Y-89541962D01*
X119654758Y-89536418D01*
X119652691Y-89530643D01*
X119651201Y-89524693D01*
X119650301Y-89518626D01*
X119650000Y-89512500D01*
X119650000Y-89387500D01*
X119650301Y-89381374D01*
X119651201Y-89375307D01*
X119652691Y-89369357D01*
X119654758Y-89363582D01*
X119657380Y-89358038D01*
X119660533Y-89352777D01*
X119664187Y-89347850D01*
X119668306Y-89343306D01*
X119672850Y-89339187D01*
X119677777Y-89335533D01*
X119683038Y-89332380D01*
X119688582Y-89329758D01*
X119694357Y-89327691D01*
X119700307Y-89326201D01*
X119706374Y-89325301D01*
X119712500Y-89325000D01*
X120287500Y-89325000D01*
X120293626Y-89325301D01*
X120293626Y-89325301D01*
G37*
D25*
X120000000Y-89450000D03*
D11*
G36*
X120293626Y-88825301D02*
G01*
X120299693Y-88826201D01*
X120305643Y-88827691D01*
X120311418Y-88829758D01*
X120316962Y-88832380D01*
X120322223Y-88835533D01*
X120327150Y-88839187D01*
X120331694Y-88843306D01*
X120335813Y-88847850D01*
X120339467Y-88852777D01*
X120342620Y-88858038D01*
X120345242Y-88863582D01*
X120347309Y-88869357D01*
X120348799Y-88875307D01*
X120349699Y-88881374D01*
X120350000Y-88887500D01*
X120350000Y-89012500D01*
X120349699Y-89018626D01*
X120348799Y-89024693D01*
X120347309Y-89030643D01*
X120345242Y-89036418D01*
X120342620Y-89041962D01*
X120339467Y-89047223D01*
X120335813Y-89052150D01*
X120331694Y-89056694D01*
X120327150Y-89060813D01*
X120322223Y-89064467D01*
X120316962Y-89067620D01*
X120311418Y-89070242D01*
X120305643Y-89072309D01*
X120299693Y-89073799D01*
X120293626Y-89074699D01*
X120287500Y-89075000D01*
X119712500Y-89075000D01*
X119706374Y-89074699D01*
X119700307Y-89073799D01*
X119694357Y-89072309D01*
X119688582Y-89070242D01*
X119683038Y-89067620D01*
X119677777Y-89064467D01*
X119672850Y-89060813D01*
X119668306Y-89056694D01*
X119664187Y-89052150D01*
X119660533Y-89047223D01*
X119657380Y-89041962D01*
X119654758Y-89036418D01*
X119652691Y-89030643D01*
X119651201Y-89024693D01*
X119650301Y-89018626D01*
X119650000Y-89012500D01*
X119650000Y-88887500D01*
X119650301Y-88881374D01*
X119651201Y-88875307D01*
X119652691Y-88869357D01*
X119654758Y-88863582D01*
X119657380Y-88858038D01*
X119660533Y-88852777D01*
X119664187Y-88847850D01*
X119668306Y-88843306D01*
X119672850Y-88839187D01*
X119677777Y-88835533D01*
X119683038Y-88832380D01*
X119688582Y-88829758D01*
X119694357Y-88827691D01*
X119700307Y-88826201D01*
X119706374Y-88825301D01*
X119712500Y-88825000D01*
X120287500Y-88825000D01*
X120293626Y-88825301D01*
X120293626Y-88825301D01*
G37*
D25*
X120000000Y-88950000D03*
D11*
G36*
X120293626Y-88325301D02*
G01*
X120299693Y-88326201D01*
X120305643Y-88327691D01*
X120311418Y-88329758D01*
X120316962Y-88332380D01*
X120322223Y-88335533D01*
X120327150Y-88339187D01*
X120331694Y-88343306D01*
X120335813Y-88347850D01*
X120339467Y-88352777D01*
X120342620Y-88358038D01*
X120345242Y-88363582D01*
X120347309Y-88369357D01*
X120348799Y-88375307D01*
X120349699Y-88381374D01*
X120350000Y-88387500D01*
X120350000Y-88512500D01*
X120349699Y-88518626D01*
X120348799Y-88524693D01*
X120347309Y-88530643D01*
X120345242Y-88536418D01*
X120342620Y-88541962D01*
X120339467Y-88547223D01*
X120335813Y-88552150D01*
X120331694Y-88556694D01*
X120327150Y-88560813D01*
X120322223Y-88564467D01*
X120316962Y-88567620D01*
X120311418Y-88570242D01*
X120305643Y-88572309D01*
X120299693Y-88573799D01*
X120293626Y-88574699D01*
X120287500Y-88575000D01*
X119712500Y-88575000D01*
X119706374Y-88574699D01*
X119700307Y-88573799D01*
X119694357Y-88572309D01*
X119688582Y-88570242D01*
X119683038Y-88567620D01*
X119677777Y-88564467D01*
X119672850Y-88560813D01*
X119668306Y-88556694D01*
X119664187Y-88552150D01*
X119660533Y-88547223D01*
X119657380Y-88541962D01*
X119654758Y-88536418D01*
X119652691Y-88530643D01*
X119651201Y-88524693D01*
X119650301Y-88518626D01*
X119650000Y-88512500D01*
X119650000Y-88387500D01*
X119650301Y-88381374D01*
X119651201Y-88375307D01*
X119652691Y-88369357D01*
X119654758Y-88363582D01*
X119657380Y-88358038D01*
X119660533Y-88352777D01*
X119664187Y-88347850D01*
X119668306Y-88343306D01*
X119672850Y-88339187D01*
X119677777Y-88335533D01*
X119683038Y-88332380D01*
X119688582Y-88329758D01*
X119694357Y-88327691D01*
X119700307Y-88326201D01*
X119706374Y-88325301D01*
X119712500Y-88325000D01*
X120287500Y-88325000D01*
X120293626Y-88325301D01*
X120293626Y-88325301D01*
G37*
D25*
X120000000Y-88450000D03*
D11*
G36*
X120293626Y-87825301D02*
G01*
X120299693Y-87826201D01*
X120305643Y-87827691D01*
X120311418Y-87829758D01*
X120316962Y-87832380D01*
X120322223Y-87835533D01*
X120327150Y-87839187D01*
X120331694Y-87843306D01*
X120335813Y-87847850D01*
X120339467Y-87852777D01*
X120342620Y-87858038D01*
X120345242Y-87863582D01*
X120347309Y-87869357D01*
X120348799Y-87875307D01*
X120349699Y-87881374D01*
X120350000Y-87887500D01*
X120350000Y-88012500D01*
X120349699Y-88018626D01*
X120348799Y-88024693D01*
X120347309Y-88030643D01*
X120345242Y-88036418D01*
X120342620Y-88041962D01*
X120339467Y-88047223D01*
X120335813Y-88052150D01*
X120331694Y-88056694D01*
X120327150Y-88060813D01*
X120322223Y-88064467D01*
X120316962Y-88067620D01*
X120311418Y-88070242D01*
X120305643Y-88072309D01*
X120299693Y-88073799D01*
X120293626Y-88074699D01*
X120287500Y-88075000D01*
X119712500Y-88075000D01*
X119706374Y-88074699D01*
X119700307Y-88073799D01*
X119694357Y-88072309D01*
X119688582Y-88070242D01*
X119683038Y-88067620D01*
X119677777Y-88064467D01*
X119672850Y-88060813D01*
X119668306Y-88056694D01*
X119664187Y-88052150D01*
X119660533Y-88047223D01*
X119657380Y-88041962D01*
X119654758Y-88036418D01*
X119652691Y-88030643D01*
X119651201Y-88024693D01*
X119650301Y-88018626D01*
X119650000Y-88012500D01*
X119650000Y-87887500D01*
X119650301Y-87881374D01*
X119651201Y-87875307D01*
X119652691Y-87869357D01*
X119654758Y-87863582D01*
X119657380Y-87858038D01*
X119660533Y-87852777D01*
X119664187Y-87847850D01*
X119668306Y-87843306D01*
X119672850Y-87839187D01*
X119677777Y-87835533D01*
X119683038Y-87832380D01*
X119688582Y-87829758D01*
X119694357Y-87827691D01*
X119700307Y-87826201D01*
X119706374Y-87825301D01*
X119712500Y-87825000D01*
X120287500Y-87825000D01*
X120293626Y-87825301D01*
X120293626Y-87825301D01*
G37*
D25*
X120000000Y-87950000D03*
D26*
X118750000Y-88200000D03*
D15*
X102200000Y-87000000D03*
X103000000Y-87000000D03*
X103800000Y-87000000D03*
X104600000Y-87000000D03*
X105400000Y-87000000D03*
X106200000Y-87000000D03*
X108600000Y-87000000D03*
X107800000Y-87000000D03*
X107000000Y-87000000D03*
X112600000Y-87000000D03*
X111800000Y-87000000D03*
X111000000Y-87000000D03*
X109400000Y-87000000D03*
X113400000Y-87000000D03*
X114200000Y-87000000D03*
X110200000Y-87000000D03*
X102200000Y-89800000D03*
X107000000Y-89800000D03*
X112600000Y-89800000D03*
X111000000Y-89800000D03*
X109400000Y-89800000D03*
X106200000Y-89800000D03*
X103000000Y-89800000D03*
X105400000Y-89800000D03*
X114200000Y-89800000D03*
X103800000Y-89800000D03*
X107800000Y-89800000D03*
X111800000Y-89800000D03*
X108600000Y-89800000D03*
X113400000Y-89800000D03*
X104600000Y-89800000D03*
X110200000Y-89800000D03*
X136000000Y-89900000D03*
X140000000Y-89900000D03*
X136800000Y-89900000D03*
X138400000Y-89900000D03*
X128000000Y-89900000D03*
X132000000Y-89900000D03*
X128800000Y-89900000D03*
X129600000Y-89900000D03*
X133600000Y-89900000D03*
X137600000Y-89900000D03*
X131200000Y-89900000D03*
X134400000Y-89900000D03*
X139200000Y-89900000D03*
X130400000Y-89900000D03*
X135200000Y-89900000D03*
X132800000Y-89900000D03*
X130500000Y-86900000D03*
X131300000Y-86900000D03*
X134500000Y-86900000D03*
X139300000Y-86900000D03*
X135300000Y-86900000D03*
X132900000Y-86900000D03*
X132100000Y-86900000D03*
X129700000Y-86900000D03*
X133700000Y-86900000D03*
X137700000Y-86900000D03*
X136100000Y-86900000D03*
X140100000Y-86900000D03*
X128900000Y-86900000D03*
X136900000Y-86900000D03*
X128100000Y-86900000D03*
X138500000Y-86900000D03*
X125700000Y-86900000D03*
X126500000Y-86900000D03*
X127300000Y-86900000D03*
X127200000Y-89900000D03*
X125600000Y-89900000D03*
X126400000Y-89900000D03*
X124775000Y-89900000D03*
X123175000Y-89900000D03*
X123975000Y-89900000D03*
D27*
X141000000Y-86000000D03*
X121100000Y-87000000D03*
X141600000Y-86000000D03*
X142200000Y-86000000D03*
X142800000Y-86000000D03*
X143400000Y-86000000D03*
X144000000Y-86000000D03*
X144600000Y-86000000D03*
X144600000Y-90900000D03*
X143400000Y-90900000D03*
X142200000Y-90900000D03*
X142800000Y-90900000D03*
X141000000Y-90900000D03*
X144000000Y-90900000D03*
X141600000Y-90900000D03*
X101000000Y-90800000D03*
X98600000Y-90800000D03*
X99800000Y-90800000D03*
X99200000Y-90800000D03*
X98000000Y-90800000D03*
X100400000Y-90800000D03*
X97400000Y-90800000D03*
X98600000Y-85900000D03*
X97400000Y-85900000D03*
X101000000Y-85900000D03*
X99200000Y-85900000D03*
X98000000Y-85900000D03*
X99800000Y-85900000D03*
X100400000Y-85900000D03*
D26*
X119250000Y-88200000D03*
X118750000Y-88725000D03*
X119250000Y-88725000D03*
X118750000Y-89225000D03*
X119250000Y-89225000D03*
D15*
X101650000Y-90400000D03*
X101725000Y-86225000D03*
D27*
X140475000Y-86300000D03*
D15*
X140300000Y-90675000D03*
X121500000Y-89875000D03*
X122325000Y-89875000D03*
X124875000Y-86900000D03*
X124075000Y-86900000D03*
X123225000Y-86900000D03*
X115825000Y-87000000D03*
X115025000Y-87000000D03*
X115025000Y-89800000D03*
X115825000Y-89800000D03*
X116650000Y-89825000D03*
X119700000Y-85600000D03*
X119700000Y-84000000D03*
X119700000Y-82400000D03*
X118000000Y-84000000D03*
X118000000Y-85600000D03*
D28*
X121300000Y-64125000D02*
X121300000Y-65140000D01*
D29*
X121300000Y-68640000D02*
X121360000Y-68700000D01*
X121300000Y-65140000D02*
X121300000Y-68640000D01*
D30*
X119137500Y-76562500D02*
X119100000Y-76600000D01*
X119137500Y-74800000D02*
X119137500Y-76562500D01*
D29*
X119137500Y-73062500D02*
X119137500Y-74800000D01*
X121360000Y-68700000D02*
X121360000Y-70840000D01*
X121360000Y-70840000D02*
X119137500Y-73062500D01*
D31*
X118700000Y-64125000D02*
X118700000Y-65050000D01*
D28*
X99000000Y-88400000D02*
X103940000Y-88400000D01*
X115015000Y-88450000D02*
X99000000Y-88400000D01*
D10*
X117250000Y-88450000D02*
X118000000Y-88450000D01*
D28*
X116380000Y-88450000D02*
X117380000Y-88450000D01*
X115985000Y-88450000D02*
X116380000Y-88450000D01*
X122085000Y-83500000D02*
X122100000Y-83515000D01*
X122085000Y-82500000D02*
X122085000Y-83500000D01*
D30*
X119100000Y-79962500D02*
X119137500Y-80000000D01*
X119100000Y-78200000D02*
X119100000Y-79962500D01*
D32*
X119137500Y-80000000D02*
X121300000Y-80000000D01*
X121300000Y-80000000D02*
X122100000Y-80800000D01*
X122085000Y-80815000D02*
X122085000Y-82500000D01*
X122100000Y-80800000D02*
X122085000Y-80815000D01*
X116915000Y-83285000D02*
X116915000Y-86800000D01*
X119137500Y-80000000D02*
X119137500Y-81062500D01*
X119137500Y-81062500D02*
X116915000Y-83285000D01*
D10*
X116915000Y-87515000D02*
X116915000Y-86800000D01*
X118000000Y-87950000D02*
X117350000Y-87950000D01*
X117350000Y-87950000D02*
X116915000Y-87515000D01*
D28*
X122100000Y-85615000D02*
X122085000Y-85600000D01*
X122100000Y-86715000D02*
X122100000Y-85615000D01*
X122100000Y-85585000D02*
X122085000Y-85600000D01*
X122100000Y-84485000D02*
X122100000Y-85585000D01*
X142970000Y-88440000D02*
X143010000Y-88400000D01*
X124725000Y-88440000D02*
X142970000Y-88440000D01*
D10*
X120950000Y-88450000D02*
X120000000Y-88450000D01*
D28*
X123150000Y-88450000D02*
X123755000Y-88440000D01*
X122100000Y-87685000D02*
X122100000Y-88450000D01*
X120610000Y-88450000D02*
X122100000Y-88450000D01*
X122100000Y-88450000D02*
X123150000Y-88450000D01*
D33*
G36*
X101051399Y-89517333D02*
G01*
X101100000Y-89527000D01*
X116873000Y-89527000D01*
X116873000Y-89912500D01*
X116883802Y-89963754D01*
X116912261Y-90004320D01*
X116954078Y-90030907D01*
X117002886Y-90039467D01*
X117551434Y-90027000D01*
X120700000Y-90027000D01*
X120748601Y-90017333D01*
X120789803Y-89989803D01*
X120817333Y-89948601D01*
X120827000Y-89900000D01*
X120827000Y-89527000D01*
X140997756Y-89527000D01*
X141004375Y-89531423D01*
X141210000Y-89572324D01*
X144373001Y-89572324D01*
X144373001Y-102972063D01*
X144301434Y-103773950D01*
X144096399Y-104523435D01*
X143761878Y-105224773D01*
X143308454Y-105855779D01*
X142750449Y-106396523D01*
X142105507Y-106829906D01*
X141394015Y-107142229D01*
X140633632Y-107324781D01*
X139977012Y-107373000D01*
X102027926Y-107373000D01*
X101226050Y-107301434D01*
X100476565Y-107096399D01*
X99775227Y-106761878D01*
X99144221Y-106308454D01*
X98603477Y-105750449D01*
X98472577Y-105555649D01*
X99476878Y-105555649D01*
X99844986Y-106005252D01*
X101159087Y-106601179D01*
X102601210Y-106648858D01*
X103951804Y-106141033D01*
X104155014Y-106005252D01*
X104523122Y-105555649D01*
X102000000Y-103032527D01*
X99476878Y-105555649D01*
X98472577Y-105555649D01*
X98170094Y-105105507D01*
X97857771Y-104394015D01*
X97675219Y-103633632D01*
X97672839Y-103601210D01*
X98351142Y-103601210D01*
X98858967Y-104951804D01*
X98994748Y-105155014D01*
X99444351Y-105523122D01*
X101967473Y-103000000D01*
X102032527Y-103000000D01*
X104555649Y-105523122D01*
X105005252Y-105155014D01*
X105313629Y-104475000D01*
X129723000Y-104475000D01*
X129723000Y-106875000D01*
X129732667Y-106923601D01*
X129760197Y-106964803D01*
X129801399Y-106992333D01*
X129850000Y-107002000D01*
X136000000Y-107002000D01*
X136048601Y-106992333D01*
X136089803Y-106964803D01*
X136117333Y-106923601D01*
X136127000Y-106875000D01*
X136127000Y-105555649D01*
X137476878Y-105555649D01*
X137844986Y-106005252D01*
X139159087Y-106601179D01*
X140601210Y-106648858D01*
X141951804Y-106141033D01*
X142155014Y-106005252D01*
X142523122Y-105555649D01*
X140000000Y-103032527D01*
X137476878Y-105555649D01*
X136127000Y-105555649D01*
X136127000Y-104475000D01*
X136117333Y-104426399D01*
X136089803Y-104385197D01*
X136048601Y-104357667D01*
X136000000Y-104348000D01*
X129850000Y-104348000D01*
X129801399Y-104357667D01*
X129760197Y-104385197D01*
X129732667Y-104426399D01*
X129723000Y-104475000D01*
X105313629Y-104475000D01*
X105601179Y-103840913D01*
X105609103Y-103601210D01*
X136351142Y-103601210D01*
X136858967Y-104951804D01*
X136994748Y-105155014D01*
X137444351Y-105523122D01*
X139967473Y-103000000D01*
X140032527Y-103000000D01*
X142555649Y-105523122D01*
X143005252Y-105155014D01*
X143601179Y-103840913D01*
X143648858Y-102398790D01*
X143141033Y-101048196D01*
X143005252Y-100844986D01*
X142555649Y-100476878D01*
X140032527Y-103000000D01*
X139967473Y-103000000D01*
X137444351Y-100476878D01*
X136994748Y-100844986D01*
X136398821Y-102159087D01*
X136351142Y-103601210D01*
X105609103Y-103601210D01*
X105648858Y-102398790D01*
X105141033Y-101048196D01*
X105005252Y-100844986D01*
X104555649Y-100476878D01*
X102032527Y-103000000D01*
X101967473Y-103000000D01*
X99444351Y-100476878D01*
X98994748Y-100844986D01*
X98398821Y-102159087D01*
X98351142Y-103601210D01*
X97672839Y-103601210D01*
X97627000Y-102977012D01*
X97627000Y-100444351D01*
X99476878Y-100444351D01*
X102000000Y-102967473D01*
X104523122Y-100444351D01*
X137476878Y-100444351D01*
X140000000Y-102967473D01*
X142523122Y-100444351D01*
X142155014Y-99994748D01*
X140840913Y-99398821D01*
X139398790Y-99351142D01*
X138048196Y-99858967D01*
X137844986Y-99994748D01*
X137476878Y-100444351D01*
X104523122Y-100444351D01*
X104155014Y-99994748D01*
X102840913Y-99398821D01*
X101398790Y-99351142D01*
X100048196Y-99858967D01*
X99844986Y-99994748D01*
X99476878Y-100444351D01*
X97627000Y-100444351D01*
X97627000Y-89572324D01*
X100800000Y-89572324D01*
X101005625Y-89531423D01*
X101039055Y-89509085D01*
X101051399Y-89517333D01*
X101051399Y-89517333D01*
G37*
X101051399Y-89517333D02*
X101100000Y-89527000D01*
X116873000Y-89527000D01*
X116873000Y-89912500D01*
X116883802Y-89963754D01*
X116912261Y-90004320D01*
X116954078Y-90030907D01*
X117002886Y-90039467D01*
X117551434Y-90027000D01*
X120700000Y-90027000D01*
X120748601Y-90017333D01*
X120789803Y-89989803D01*
X120817333Y-89948601D01*
X120827000Y-89900000D01*
X120827000Y-89527000D01*
X140997756Y-89527000D01*
X141004375Y-89531423D01*
X141210000Y-89572324D01*
X144373001Y-89572324D01*
X144373001Y-102972063D01*
X144301434Y-103773950D01*
X144096399Y-104523435D01*
X143761878Y-105224773D01*
X143308454Y-105855779D01*
X142750449Y-106396523D01*
X142105507Y-106829906D01*
X141394015Y-107142229D01*
X140633632Y-107324781D01*
X139977012Y-107373000D01*
X102027926Y-107373000D01*
X101226050Y-107301434D01*
X100476565Y-107096399D01*
X99775227Y-106761878D01*
X99144221Y-106308454D01*
X98603477Y-105750449D01*
X98472577Y-105555649D01*
X99476878Y-105555649D01*
X99844986Y-106005252D01*
X101159087Y-106601179D01*
X102601210Y-106648858D01*
X103951804Y-106141033D01*
X104155014Y-106005252D01*
X104523122Y-105555649D01*
X102000000Y-103032527D01*
X99476878Y-105555649D01*
X98472577Y-105555649D01*
X98170094Y-105105507D01*
X97857771Y-104394015D01*
X97675219Y-103633632D01*
X97672839Y-103601210D01*
X98351142Y-103601210D01*
X98858967Y-104951804D01*
X98994748Y-105155014D01*
X99444351Y-105523122D01*
X101967473Y-103000000D01*
X102032527Y-103000000D01*
X104555649Y-105523122D01*
X105005252Y-105155014D01*
X105313629Y-104475000D01*
X129723000Y-104475000D01*
X129723000Y-106875000D01*
X129732667Y-106923601D01*
X129760197Y-106964803D01*
X129801399Y-106992333D01*
X129850000Y-107002000D01*
X136000000Y-107002000D01*
X136048601Y-106992333D01*
X136089803Y-106964803D01*
X136117333Y-106923601D01*
X136127000Y-106875000D01*
X136127000Y-105555649D01*
X137476878Y-105555649D01*
X137844986Y-106005252D01*
X139159087Y-106601179D01*
X140601210Y-106648858D01*
X141951804Y-106141033D01*
X142155014Y-106005252D01*
X142523122Y-105555649D01*
X140000000Y-103032527D01*
X137476878Y-105555649D01*
X136127000Y-105555649D01*
X136127000Y-104475000D01*
X136117333Y-104426399D01*
X136089803Y-104385197D01*
X136048601Y-104357667D01*
X136000000Y-104348000D01*
X129850000Y-104348000D01*
X129801399Y-104357667D01*
X129760197Y-104385197D01*
X129732667Y-104426399D01*
X129723000Y-104475000D01*
X105313629Y-104475000D01*
X105601179Y-103840913D01*
X105609103Y-103601210D01*
X136351142Y-103601210D01*
X136858967Y-104951804D01*
X136994748Y-105155014D01*
X137444351Y-105523122D01*
X139967473Y-103000000D01*
X140032527Y-103000000D01*
X142555649Y-105523122D01*
X143005252Y-105155014D01*
X143601179Y-103840913D01*
X143648858Y-102398790D01*
X143141033Y-101048196D01*
X143005252Y-100844986D01*
X142555649Y-100476878D01*
X140032527Y-103000000D01*
X139967473Y-103000000D01*
X137444351Y-100476878D01*
X136994748Y-100844986D01*
X136398821Y-102159087D01*
X136351142Y-103601210D01*
X105609103Y-103601210D01*
X105648858Y-102398790D01*
X105141033Y-101048196D01*
X105005252Y-100844986D01*
X104555649Y-100476878D01*
X102032527Y-103000000D01*
X101967473Y-103000000D01*
X99444351Y-100476878D01*
X98994748Y-100844986D01*
X98398821Y-102159087D01*
X98351142Y-103601210D01*
X97672839Y-103601210D01*
X97627000Y-102977012D01*
X97627000Y-100444351D01*
X99476878Y-100444351D01*
X102000000Y-102967473D01*
X104523122Y-100444351D01*
X137476878Y-100444351D01*
X140000000Y-102967473D01*
X142523122Y-100444351D01*
X142155014Y-99994748D01*
X140840913Y-99398821D01*
X139398790Y-99351142D01*
X138048196Y-99858967D01*
X137844986Y-99994748D01*
X137476878Y-100444351D01*
X104523122Y-100444351D01*
X104155014Y-99994748D01*
X102840913Y-99398821D01*
X101398790Y-99351142D01*
X100048196Y-99858967D01*
X99844986Y-99994748D01*
X99476878Y-100444351D01*
X97627000Y-100444351D01*
X97627000Y-89572324D01*
X100800000Y-89572324D01*
X101005625Y-89531423D01*
X101039055Y-89509085D01*
X101051399Y-89517333D01*
G36*
X114673000Y-61320250D02*
G01*
X114779750Y-61427000D01*
X116027000Y-61427000D01*
X116027000Y-61407000D01*
X116073000Y-61407000D01*
X116073000Y-61427000D01*
X117320250Y-61427000D01*
X117427000Y-61320250D01*
X117427000Y-60627000D01*
X117473000Y-60627000D01*
X117473000Y-61320250D01*
X117579750Y-61427000D01*
X118827000Y-61427000D01*
X118827000Y-61407000D01*
X118873000Y-61407000D01*
X118873000Y-61427000D01*
X121127000Y-61427000D01*
X121127000Y-61407000D01*
X121173000Y-61407000D01*
X121173000Y-61427000D01*
X122420250Y-61427000D01*
X122527000Y-61320250D01*
X122527000Y-60627000D01*
X122573000Y-60627000D01*
X122573000Y-61320250D01*
X122679750Y-61427000D01*
X123927000Y-61427000D01*
X123927000Y-61407000D01*
X123973000Y-61407000D01*
X123973000Y-61427000D01*
X125220250Y-61427000D01*
X125327000Y-61320250D01*
X125327000Y-60627000D01*
X139972073Y-60627000D01*
X140773955Y-60698566D01*
X141523433Y-60903600D01*
X142224773Y-61238122D01*
X142855776Y-61691544D01*
X143396523Y-62249551D01*
X143829906Y-62894493D01*
X144142229Y-63605983D01*
X144324781Y-64366369D01*
X144373000Y-65022988D01*
X144373001Y-87227676D01*
X141210000Y-87227676D01*
X141004375Y-87268577D01*
X140997756Y-87273000D01*
X122903572Y-87273000D01*
X122854795Y-87200000D01*
X122905195Y-87124571D01*
X122957324Y-86862500D01*
X122957324Y-86567500D01*
X122905195Y-86305429D01*
X122797000Y-86143503D01*
X122797000Y-86136632D01*
X122865195Y-86034571D01*
X122917324Y-85772500D01*
X122917324Y-85427500D01*
X122865195Y-85165429D01*
X122797000Y-85063368D01*
X122797000Y-85056497D01*
X122905195Y-84894571D01*
X122957324Y-84632500D01*
X122957324Y-84337500D01*
X122905195Y-84075429D01*
X122854795Y-84000000D01*
X122905195Y-83924571D01*
X122957324Y-83662500D01*
X122957324Y-83367500D01*
X122905195Y-83105429D01*
X122828113Y-82990068D01*
X122865195Y-82934571D01*
X122917324Y-82672500D01*
X122917324Y-82327500D01*
X122865195Y-82065429D01*
X122762000Y-81910987D01*
X122762000Y-80942085D01*
X122790263Y-80800000D01*
X122737719Y-80535847D01*
X122625859Y-80368437D01*
X122625857Y-80368435D01*
X122588089Y-80311911D01*
X122531564Y-80274142D01*
X121825864Y-79568443D01*
X121788090Y-79511910D01*
X121564152Y-79362280D01*
X121366678Y-79323000D01*
X121366676Y-79323000D01*
X121300000Y-79309737D01*
X121233324Y-79323000D01*
X120118414Y-79323000D01*
X120102868Y-79244846D01*
X119954108Y-79022209D01*
X119979945Y-79004945D01*
X120096423Y-78830625D01*
X120137324Y-78625000D01*
X120137324Y-77775000D01*
X120096423Y-77569375D01*
X119983249Y-77400000D01*
X120096423Y-77230625D01*
X120137324Y-77025000D01*
X120137324Y-76175000D01*
X120096423Y-75969375D01*
X119979945Y-75795055D01*
X119954108Y-75777791D01*
X120102868Y-75555154D01*
X120162324Y-75256250D01*
X120162324Y-74343750D01*
X120102868Y-74044846D01*
X119933553Y-73791447D01*
X119914500Y-73778716D01*
X119914500Y-73384343D01*
X121855308Y-71443536D01*
X121920186Y-71400186D01*
X122091918Y-71143170D01*
X122137000Y-70916526D01*
X122137000Y-70916525D01*
X122152222Y-70840000D01*
X122137000Y-70763475D01*
X122137000Y-69836930D01*
X122352762Y-69692762D01*
X122623000Y-69288322D01*
X122623000Y-69634935D01*
X122688007Y-69791876D01*
X122808124Y-69911993D01*
X122965064Y-69977000D01*
X123770250Y-69977000D01*
X123877000Y-69870250D01*
X123877000Y-68723000D01*
X123923000Y-68723000D01*
X123923000Y-69870250D01*
X124029750Y-69977000D01*
X124834936Y-69977000D01*
X124991876Y-69911993D01*
X125111993Y-69791876D01*
X125177000Y-69634935D01*
X125177000Y-68829750D01*
X125070250Y-68723000D01*
X123923000Y-68723000D01*
X123877000Y-68723000D01*
X123857000Y-68723000D01*
X123857000Y-68677000D01*
X123877000Y-68677000D01*
X123877000Y-67529750D01*
X123923000Y-67529750D01*
X123923000Y-68677000D01*
X125070250Y-68677000D01*
X125177000Y-68570250D01*
X125177000Y-67765065D01*
X125111993Y-67608124D01*
X125059518Y-67555649D01*
X137476878Y-67555649D01*
X137844986Y-68005252D01*
X139159087Y-68601179D01*
X140601210Y-68648858D01*
X141951804Y-68141033D01*
X142155014Y-68005252D01*
X142523122Y-67555649D01*
X140000000Y-65032527D01*
X137476878Y-67555649D01*
X125059518Y-67555649D01*
X124991876Y-67488007D01*
X124834936Y-67423000D01*
X124029750Y-67423000D01*
X123923000Y-67529750D01*
X123877000Y-67529750D01*
X123770250Y-67423000D01*
X122965064Y-67423000D01*
X122808124Y-67488007D01*
X122688007Y-67608124D01*
X122623000Y-67765065D01*
X122623000Y-68111678D01*
X122352762Y-67707238D01*
X122077000Y-67522980D01*
X122077000Y-65601210D01*
X136351142Y-65601210D01*
X136858967Y-66951804D01*
X136994748Y-67155014D01*
X137444351Y-67523122D01*
X139967473Y-65000000D01*
X140032527Y-65000000D01*
X142555649Y-67523122D01*
X143005252Y-67155014D01*
X143601179Y-65840913D01*
X143648858Y-64398790D01*
X143141033Y-63048196D01*
X143005252Y-62844986D01*
X142555649Y-62476878D01*
X140032527Y-65000000D01*
X139967473Y-65000000D01*
X137444351Y-62476878D01*
X136994748Y-62844986D01*
X136398821Y-64159087D01*
X136351142Y-65601210D01*
X122077000Y-65601210D01*
X122077000Y-65063474D01*
X122031918Y-64836830D01*
X122030439Y-64834616D01*
X122037324Y-64800000D01*
X122037324Y-64407000D01*
X122048561Y-64407000D01*
X122063007Y-64441876D01*
X122183124Y-64561993D01*
X122340065Y-64627000D01*
X122970250Y-64627000D01*
X123077000Y-64520250D01*
X123077000Y-63723000D01*
X123123000Y-63723000D01*
X123123000Y-64520250D01*
X123229750Y-64627000D01*
X123859935Y-64627000D01*
X124016876Y-64561993D01*
X124136993Y-64441876D01*
X124202000Y-64284936D01*
X124202000Y-63829750D01*
X124095250Y-63723000D01*
X123123000Y-63723000D01*
X123077000Y-63723000D01*
X123057000Y-63723000D01*
X123057000Y-63677000D01*
X123077000Y-63677000D01*
X123077000Y-63657000D01*
X123123000Y-63657000D01*
X123123000Y-63677000D01*
X124095250Y-63677000D01*
X124202000Y-63570250D01*
X124202000Y-63115064D01*
X124136993Y-62958124D01*
X124016876Y-62838007D01*
X123973002Y-62819834D01*
X123973002Y-62720252D01*
X124079750Y-62827000D01*
X124984935Y-62827000D01*
X125141876Y-62761993D01*
X125261993Y-62641876D01*
X125327000Y-62484936D01*
X125327000Y-62444351D01*
X137476878Y-62444351D01*
X140000000Y-64967473D01*
X142523122Y-62444351D01*
X142155014Y-61994748D01*
X140840913Y-61398821D01*
X139398790Y-61351142D01*
X138048196Y-61858967D01*
X137844986Y-61994748D01*
X137476878Y-62444351D01*
X125327000Y-62444351D01*
X125327000Y-61579750D01*
X125220250Y-61473000D01*
X123973000Y-61473000D01*
X123973000Y-61493000D01*
X123927000Y-61493000D01*
X123927000Y-61473000D01*
X122679750Y-61473000D01*
X122573000Y-61579750D01*
X122573000Y-62484936D01*
X122638007Y-62641876D01*
X122758124Y-62761993D01*
X122784697Y-62773000D01*
X122340065Y-62773000D01*
X122276425Y-62799360D01*
X122264044Y-62794232D01*
X122341876Y-62761993D01*
X122461993Y-62641876D01*
X122527000Y-62484936D01*
X122527000Y-61579750D01*
X122420250Y-61473000D01*
X121173000Y-61473000D01*
X121173000Y-62720250D01*
X121279750Y-62827000D01*
X121656847Y-62827000D01*
X121531542Y-62878903D01*
X121497769Y-62912676D01*
X121100000Y-62912676D01*
X120975000Y-62937540D01*
X120850000Y-62912676D01*
X120450000Y-62912676D01*
X120325000Y-62937540D01*
X120200000Y-62912676D01*
X119800000Y-62912676D01*
X119675000Y-62937540D01*
X119550000Y-62912676D01*
X119150000Y-62912676D01*
X118944375Y-62953577D01*
X118840477Y-63023000D01*
X118829750Y-63023000D01*
X118808149Y-63044601D01*
X118770055Y-63070055D01*
X118744601Y-63108149D01*
X118723000Y-63129750D01*
X118723000Y-63140477D01*
X118716878Y-63149640D01*
X118701097Y-63111542D01*
X118468458Y-62878903D01*
X118343153Y-62827000D01*
X118720250Y-62827000D01*
X118827000Y-62720250D01*
X118827000Y-61473000D01*
X118873000Y-61473000D01*
X118873000Y-62720250D01*
X118979750Y-62827000D01*
X119884935Y-62827000D01*
X120000000Y-62779339D01*
X120115065Y-62827000D01*
X121020250Y-62827000D01*
X121127000Y-62720250D01*
X121127000Y-61473000D01*
X118873000Y-61473000D01*
X118827000Y-61473000D01*
X117579750Y-61473000D01*
X117473000Y-61579750D01*
X117473000Y-62484936D01*
X117538007Y-62641876D01*
X117658124Y-62761993D01*
X117735956Y-62794232D01*
X117723575Y-62799360D01*
X117659935Y-62773000D01*
X117215303Y-62773000D01*
X117241876Y-62761993D01*
X117361993Y-62641876D01*
X117427000Y-62484936D01*
X117427000Y-61579750D01*
X117320250Y-61473000D01*
X116073000Y-61473000D01*
X116073000Y-61493000D01*
X116027000Y-61493000D01*
X116027000Y-61473000D01*
X114779750Y-61473000D01*
X114673000Y-61579750D01*
X114673000Y-62484936D01*
X114738007Y-62641876D01*
X114858124Y-62761993D01*
X115015065Y-62827000D01*
X115920250Y-62827000D01*
X116026998Y-62720252D01*
X116026998Y-62819834D01*
X115983124Y-62838007D01*
X115863007Y-62958124D01*
X115798000Y-63115064D01*
X115798000Y-63570250D01*
X115904750Y-63677000D01*
X116877000Y-63677000D01*
X116877000Y-63657000D01*
X116923000Y-63657000D01*
X116923000Y-63677000D01*
X116943000Y-63677000D01*
X116943000Y-63723000D01*
X116923000Y-63723000D01*
X116923000Y-64520250D01*
X117029750Y-64627000D01*
X117659935Y-64627000D01*
X117816876Y-64561993D01*
X117936993Y-64441876D01*
X117951439Y-64407000D01*
X118073000Y-64407000D01*
X118073000Y-64884936D01*
X118138007Y-65041876D01*
X118258124Y-65161993D01*
X118415065Y-65227000D01*
X118570250Y-65227000D01*
X118677000Y-65120250D01*
X118677000Y-65040680D01*
X118723000Y-65109523D01*
X118723000Y-65120250D01*
X118744601Y-65141851D01*
X118770055Y-65179945D01*
X118808149Y-65205399D01*
X118829750Y-65227000D01*
X118840477Y-65227000D01*
X118944375Y-65296423D01*
X119150000Y-65337324D01*
X119550000Y-65337324D01*
X119675000Y-65312460D01*
X119800000Y-65337324D01*
X120200000Y-65337324D01*
X120325000Y-65312460D01*
X120450000Y-65337324D01*
X120523000Y-65337324D01*
X120523001Y-67603161D01*
X120367238Y-67707238D01*
X120062894Y-68162721D01*
X119956023Y-68700000D01*
X120062894Y-69237279D01*
X120367238Y-69692762D01*
X120583001Y-69836930D01*
X120583001Y-70518155D01*
X118642195Y-72458962D01*
X118577314Y-72502314D01*
X118405582Y-72759331D01*
X118362893Y-72973944D01*
X118345278Y-73062500D01*
X118360500Y-73139026D01*
X118360500Y-73778716D01*
X118341447Y-73791447D01*
X118177000Y-74037560D01*
X118177000Y-74015064D01*
X118111993Y-73858124D01*
X117991876Y-73738007D01*
X117834935Y-73673000D01*
X117392250Y-73673000D01*
X117285500Y-73779750D01*
X117285500Y-74777000D01*
X117305500Y-74777000D01*
X117305500Y-74823000D01*
X117285500Y-74823000D01*
X117285500Y-75820250D01*
X117392250Y-75927000D01*
X117834935Y-75927000D01*
X117991876Y-75861993D01*
X118111993Y-75741876D01*
X118177000Y-75584936D01*
X118177000Y-75562440D01*
X118297743Y-75743145D01*
X118220055Y-75795055D01*
X118103577Y-75969375D01*
X118062676Y-76175000D01*
X118062676Y-77025000D01*
X118103577Y-77230625D01*
X118216751Y-77400000D01*
X118103577Y-77569375D01*
X118062676Y-77775000D01*
X118062676Y-78625000D01*
X118103577Y-78830625D01*
X118220055Y-79004945D01*
X118297743Y-79056855D01*
X118177000Y-79237560D01*
X118177000Y-79215064D01*
X118111993Y-79058124D01*
X117991876Y-78938007D01*
X117834935Y-78873000D01*
X117392250Y-78873000D01*
X117285500Y-78979750D01*
X117285500Y-79977000D01*
X117305500Y-79977000D01*
X117305500Y-80023000D01*
X117285500Y-80023000D01*
X117285500Y-81020250D01*
X117392250Y-81127000D01*
X117834935Y-81127000D01*
X117991876Y-81061993D01*
X118111993Y-80941876D01*
X118177000Y-80784936D01*
X118177000Y-80762440D01*
X118298420Y-80944158D01*
X116483440Y-82759138D01*
X116426910Y-82796911D01*
X116277280Y-83020849D01*
X116238000Y-83218322D01*
X116224737Y-83285000D01*
X116238000Y-83351677D01*
X116238001Y-86210985D01*
X116134805Y-86365429D01*
X116082676Y-86627500D01*
X116082676Y-86972500D01*
X116134805Y-87234571D01*
X116160482Y-87273000D01*
X101100000Y-87273000D01*
X101051399Y-87282667D01*
X101039055Y-87290915D01*
X101005625Y-87268577D01*
X100800000Y-87227676D01*
X97627000Y-87227676D01*
X97627000Y-80129750D01*
X116348000Y-80129750D01*
X116348000Y-80784936D01*
X116413007Y-80941876D01*
X116533124Y-81061993D01*
X116690065Y-81127000D01*
X117132750Y-81127000D01*
X117239500Y-81020250D01*
X117239500Y-80023000D01*
X116454750Y-80023000D01*
X116348000Y-80129750D01*
X97627000Y-80129750D01*
X97627000Y-79215064D01*
X116348000Y-79215064D01*
X116348000Y-79870250D01*
X116454750Y-79977000D01*
X117239500Y-79977000D01*
X117239500Y-78979750D01*
X117132750Y-78873000D01*
X116690065Y-78873000D01*
X116533124Y-78938007D01*
X116413007Y-79058124D01*
X116348000Y-79215064D01*
X97627000Y-79215064D01*
X97627000Y-74929750D01*
X116348000Y-74929750D01*
X116348000Y-75584936D01*
X116413007Y-75741876D01*
X116533124Y-75861993D01*
X116690065Y-75927000D01*
X117132750Y-75927000D01*
X117239500Y-75820250D01*
X117239500Y-74823000D01*
X116454750Y-74823000D01*
X116348000Y-74929750D01*
X97627000Y-74929750D01*
X97627000Y-74015064D01*
X116348000Y-74015064D01*
X116348000Y-74670250D01*
X116454750Y-74777000D01*
X117239500Y-74777000D01*
X117239500Y-73779750D01*
X117132750Y-73673000D01*
X116690065Y-73673000D01*
X116533124Y-73738007D01*
X116413007Y-73858124D01*
X116348000Y-74015064D01*
X97627000Y-74015064D01*
X97627000Y-67555649D01*
X99476878Y-67555649D01*
X99844986Y-68005252D01*
X101159087Y-68601179D01*
X102601210Y-68648858D01*
X103951804Y-68141033D01*
X104155014Y-68005252D01*
X104523122Y-67555649D01*
X102000000Y-65032527D01*
X99476878Y-67555649D01*
X97627000Y-67555649D01*
X97627000Y-65601210D01*
X98351142Y-65601210D01*
X98858967Y-66951804D01*
X98994748Y-67155014D01*
X99444351Y-67523122D01*
X101967473Y-65000000D01*
X102032527Y-65000000D01*
X104555649Y-67523122D01*
X105005252Y-67155014D01*
X105601179Y-65840913D01*
X105648858Y-64398790D01*
X105434899Y-63829750D01*
X115798000Y-63829750D01*
X115798000Y-64284936D01*
X115863007Y-64441876D01*
X115983124Y-64561993D01*
X116140065Y-64627000D01*
X116770250Y-64627000D01*
X116877000Y-64520250D01*
X116877000Y-63723000D01*
X115904750Y-63723000D01*
X115798000Y-63829750D01*
X105434899Y-63829750D01*
X105141033Y-63048196D01*
X105005252Y-62844986D01*
X104555649Y-62476878D01*
X102032527Y-65000000D01*
X101967473Y-65000000D01*
X99444351Y-62476878D01*
X98994748Y-62844986D01*
X98398821Y-64159087D01*
X98351142Y-65601210D01*
X97627000Y-65601210D01*
X97627000Y-65027927D01*
X97698566Y-64226045D01*
X97903600Y-63476567D01*
X98238122Y-62775227D01*
X98475880Y-62444351D01*
X99476878Y-62444351D01*
X102000000Y-64967473D01*
X104523122Y-62444351D01*
X104155014Y-61994748D01*
X102840913Y-61398821D01*
X101398790Y-61351142D01*
X100048196Y-61858967D01*
X99844986Y-61994748D01*
X99476878Y-62444351D01*
X98475880Y-62444351D01*
X98691544Y-62144224D01*
X99249551Y-61603477D01*
X99894493Y-61170094D01*
X100605983Y-60857771D01*
X101366369Y-60675219D01*
X102022988Y-60627000D01*
X114673000Y-60627000D01*
X114673000Y-61320250D01*
X114673000Y-61320250D01*
G37*
X114673000Y-61320250D02*
X114779750Y-61427000D01*
X116027000Y-61427000D01*
X116027000Y-61407000D01*
X116073000Y-61407000D01*
X116073000Y-61427000D01*
X117320250Y-61427000D01*
X117427000Y-61320250D01*
X117427000Y-60627000D01*
X117473000Y-60627000D01*
X117473000Y-61320250D01*
X117579750Y-61427000D01*
X118827000Y-61427000D01*
X118827000Y-61407000D01*
X118873000Y-61407000D01*
X118873000Y-61427000D01*
X121127000Y-61427000D01*
X121127000Y-61407000D01*
X121173000Y-61407000D01*
X121173000Y-61427000D01*
X122420250Y-61427000D01*
X122527000Y-61320250D01*
X122527000Y-60627000D01*
X122573000Y-60627000D01*
X122573000Y-61320250D01*
X122679750Y-61427000D01*
X123927000Y-61427000D01*
X123927000Y-61407000D01*
X123973000Y-61407000D01*
X123973000Y-61427000D01*
X125220250Y-61427000D01*
X125327000Y-61320250D01*
X125327000Y-60627000D01*
X139972073Y-60627000D01*
X140773955Y-60698566D01*
X141523433Y-60903600D01*
X142224773Y-61238122D01*
X142855776Y-61691544D01*
X143396523Y-62249551D01*
X143829906Y-62894493D01*
X144142229Y-63605983D01*
X144324781Y-64366369D01*
X144373000Y-65022988D01*
X144373001Y-87227676D01*
X141210000Y-87227676D01*
X141004375Y-87268577D01*
X140997756Y-87273000D01*
X122903572Y-87273000D01*
X122854795Y-87200000D01*
X122905195Y-87124571D01*
X122957324Y-86862500D01*
X122957324Y-86567500D01*
X122905195Y-86305429D01*
X122797000Y-86143503D01*
X122797000Y-86136632D01*
X122865195Y-86034571D01*
X122917324Y-85772500D01*
X122917324Y-85427500D01*
X122865195Y-85165429D01*
X122797000Y-85063368D01*
X122797000Y-85056497D01*
X122905195Y-84894571D01*
X122957324Y-84632500D01*
X122957324Y-84337500D01*
X122905195Y-84075429D01*
X122854795Y-84000000D01*
X122905195Y-83924571D01*
X122957324Y-83662500D01*
X122957324Y-83367500D01*
X122905195Y-83105429D01*
X122828113Y-82990068D01*
X122865195Y-82934571D01*
X122917324Y-82672500D01*
X122917324Y-82327500D01*
X122865195Y-82065429D01*
X122762000Y-81910987D01*
X122762000Y-80942085D01*
X122790263Y-80800000D01*
X122737719Y-80535847D01*
X122625859Y-80368437D01*
X122625857Y-80368435D01*
X122588089Y-80311911D01*
X122531564Y-80274142D01*
X121825864Y-79568443D01*
X121788090Y-79511910D01*
X121564152Y-79362280D01*
X121366678Y-79323000D01*
X121366676Y-79323000D01*
X121300000Y-79309737D01*
X121233324Y-79323000D01*
X120118414Y-79323000D01*
X120102868Y-79244846D01*
X119954108Y-79022209D01*
X119979945Y-79004945D01*
X120096423Y-78830625D01*
X120137324Y-78625000D01*
X120137324Y-77775000D01*
X120096423Y-77569375D01*
X119983249Y-77400000D01*
X120096423Y-77230625D01*
X120137324Y-77025000D01*
X120137324Y-76175000D01*
X120096423Y-75969375D01*
X119979945Y-75795055D01*
X119954108Y-75777791D01*
X120102868Y-75555154D01*
X120162324Y-75256250D01*
X120162324Y-74343750D01*
X120102868Y-74044846D01*
X119933553Y-73791447D01*
X119914500Y-73778716D01*
X119914500Y-73384343D01*
X121855308Y-71443536D01*
X121920186Y-71400186D01*
X122091918Y-71143170D01*
X122137000Y-70916526D01*
X122137000Y-70916525D01*
X122152222Y-70840000D01*
X122137000Y-70763475D01*
X122137000Y-69836930D01*
X122352762Y-69692762D01*
X122623000Y-69288322D01*
X122623000Y-69634935D01*
X122688007Y-69791876D01*
X122808124Y-69911993D01*
X122965064Y-69977000D01*
X123770250Y-69977000D01*
X123877000Y-69870250D01*
X123877000Y-68723000D01*
X123923000Y-68723000D01*
X123923000Y-69870250D01*
X124029750Y-69977000D01*
X124834936Y-69977000D01*
X124991876Y-69911993D01*
X125111993Y-69791876D01*
X125177000Y-69634935D01*
X125177000Y-68829750D01*
X125070250Y-68723000D01*
X123923000Y-68723000D01*
X123877000Y-68723000D01*
X123857000Y-68723000D01*
X123857000Y-68677000D01*
X123877000Y-68677000D01*
X123877000Y-67529750D01*
X123923000Y-67529750D01*
X123923000Y-68677000D01*
X125070250Y-68677000D01*
X125177000Y-68570250D01*
X125177000Y-67765065D01*
X125111993Y-67608124D01*
X125059518Y-67555649D01*
X137476878Y-67555649D01*
X137844986Y-68005252D01*
X139159087Y-68601179D01*
X140601210Y-68648858D01*
X141951804Y-68141033D01*
X142155014Y-68005252D01*
X142523122Y-67555649D01*
X140000000Y-65032527D01*
X137476878Y-67555649D01*
X125059518Y-67555649D01*
X124991876Y-67488007D01*
X124834936Y-67423000D01*
X124029750Y-67423000D01*
X123923000Y-67529750D01*
X123877000Y-67529750D01*
X123770250Y-67423000D01*
X122965064Y-67423000D01*
X122808124Y-67488007D01*
X122688007Y-67608124D01*
X122623000Y-67765065D01*
X122623000Y-68111678D01*
X122352762Y-67707238D01*
X122077000Y-67522980D01*
X122077000Y-65601210D01*
X136351142Y-65601210D01*
X136858967Y-66951804D01*
X136994748Y-67155014D01*
X137444351Y-67523122D01*
X139967473Y-65000000D01*
X140032527Y-65000000D01*
X142555649Y-67523122D01*
X143005252Y-67155014D01*
X143601179Y-65840913D01*
X143648858Y-64398790D01*
X143141033Y-63048196D01*
X143005252Y-62844986D01*
X142555649Y-62476878D01*
X140032527Y-65000000D01*
X139967473Y-65000000D01*
X137444351Y-62476878D01*
X136994748Y-62844986D01*
X136398821Y-64159087D01*
X136351142Y-65601210D01*
X122077000Y-65601210D01*
X122077000Y-65063474D01*
X122031918Y-64836830D01*
X122030439Y-64834616D01*
X122037324Y-64800000D01*
X122037324Y-64407000D01*
X122048561Y-64407000D01*
X122063007Y-64441876D01*
X122183124Y-64561993D01*
X122340065Y-64627000D01*
X122970250Y-64627000D01*
X123077000Y-64520250D01*
X123077000Y-63723000D01*
X123123000Y-63723000D01*
X123123000Y-64520250D01*
X123229750Y-64627000D01*
X123859935Y-64627000D01*
X124016876Y-64561993D01*
X124136993Y-64441876D01*
X124202000Y-64284936D01*
X124202000Y-63829750D01*
X124095250Y-63723000D01*
X123123000Y-63723000D01*
X123077000Y-63723000D01*
X123057000Y-63723000D01*
X123057000Y-63677000D01*
X123077000Y-63677000D01*
X123077000Y-63657000D01*
X123123000Y-63657000D01*
X123123000Y-63677000D01*
X124095250Y-63677000D01*
X124202000Y-63570250D01*
X124202000Y-63115064D01*
X124136993Y-62958124D01*
X124016876Y-62838007D01*
X123973002Y-62819834D01*
X123973002Y-62720252D01*
X124079750Y-62827000D01*
X124984935Y-62827000D01*
X125141876Y-62761993D01*
X125261993Y-62641876D01*
X125327000Y-62484936D01*
X125327000Y-62444351D01*
X137476878Y-62444351D01*
X140000000Y-64967473D01*
X142523122Y-62444351D01*
X142155014Y-61994748D01*
X140840913Y-61398821D01*
X139398790Y-61351142D01*
X138048196Y-61858967D01*
X137844986Y-61994748D01*
X137476878Y-62444351D01*
X125327000Y-62444351D01*
X125327000Y-61579750D01*
X125220250Y-61473000D01*
X123973000Y-61473000D01*
X123973000Y-61493000D01*
X123927000Y-61493000D01*
X123927000Y-61473000D01*
X122679750Y-61473000D01*
X122573000Y-61579750D01*
X122573000Y-62484936D01*
X122638007Y-62641876D01*
X122758124Y-62761993D01*
X122784697Y-62773000D01*
X122340065Y-62773000D01*
X122276425Y-62799360D01*
X122264044Y-62794232D01*
X122341876Y-62761993D01*
X122461993Y-62641876D01*
X122527000Y-62484936D01*
X122527000Y-61579750D01*
X122420250Y-61473000D01*
X121173000Y-61473000D01*
X121173000Y-62720250D01*
X121279750Y-62827000D01*
X121656847Y-62827000D01*
X121531542Y-62878903D01*
X121497769Y-62912676D01*
X121100000Y-62912676D01*
X120975000Y-62937540D01*
X120850000Y-62912676D01*
X120450000Y-62912676D01*
X120325000Y-62937540D01*
X120200000Y-62912676D01*
X119800000Y-62912676D01*
X119675000Y-62937540D01*
X119550000Y-62912676D01*
X119150000Y-62912676D01*
X118944375Y-62953577D01*
X118840477Y-63023000D01*
X118829750Y-63023000D01*
X118808149Y-63044601D01*
X118770055Y-63070055D01*
X118744601Y-63108149D01*
X118723000Y-63129750D01*
X118723000Y-63140477D01*
X118716878Y-63149640D01*
X118701097Y-63111542D01*
X118468458Y-62878903D01*
X118343153Y-62827000D01*
X118720250Y-62827000D01*
X118827000Y-62720250D01*
X118827000Y-61473000D01*
X118873000Y-61473000D01*
X118873000Y-62720250D01*
X118979750Y-62827000D01*
X119884935Y-62827000D01*
X120000000Y-62779339D01*
X120115065Y-62827000D01*
X121020250Y-62827000D01*
X121127000Y-62720250D01*
X121127000Y-61473000D01*
X118873000Y-61473000D01*
X118827000Y-61473000D01*
X117579750Y-61473000D01*
X117473000Y-61579750D01*
X117473000Y-62484936D01*
X117538007Y-62641876D01*
X117658124Y-62761993D01*
X117735956Y-62794232D01*
X117723575Y-62799360D01*
X117659935Y-62773000D01*
X117215303Y-62773000D01*
X117241876Y-62761993D01*
X117361993Y-62641876D01*
X117427000Y-62484936D01*
X117427000Y-61579750D01*
X117320250Y-61473000D01*
X116073000Y-61473000D01*
X116073000Y-61493000D01*
X116027000Y-61493000D01*
X116027000Y-61473000D01*
X114779750Y-61473000D01*
X114673000Y-61579750D01*
X114673000Y-62484936D01*
X114738007Y-62641876D01*
X114858124Y-62761993D01*
X115015065Y-62827000D01*
X115920250Y-62827000D01*
X116026998Y-62720252D01*
X116026998Y-62819834D01*
X115983124Y-62838007D01*
X115863007Y-62958124D01*
X115798000Y-63115064D01*
X115798000Y-63570250D01*
X115904750Y-63677000D01*
X116877000Y-63677000D01*
X116877000Y-63657000D01*
X116923000Y-63657000D01*
X116923000Y-63677000D01*
X116943000Y-63677000D01*
X116943000Y-63723000D01*
X116923000Y-63723000D01*
X116923000Y-64520250D01*
X117029750Y-64627000D01*
X117659935Y-64627000D01*
X117816876Y-64561993D01*
X117936993Y-64441876D01*
X117951439Y-64407000D01*
X118073000Y-64407000D01*
X118073000Y-64884936D01*
X118138007Y-65041876D01*
X118258124Y-65161993D01*
X118415065Y-65227000D01*
X118570250Y-65227000D01*
X118677000Y-65120250D01*
X118677000Y-65040680D01*
X118723000Y-65109523D01*
X118723000Y-65120250D01*
X118744601Y-65141851D01*
X118770055Y-65179945D01*
X118808149Y-65205399D01*
X118829750Y-65227000D01*
X118840477Y-65227000D01*
X118944375Y-65296423D01*
X119150000Y-65337324D01*
X119550000Y-65337324D01*
X119675000Y-65312460D01*
X119800000Y-65337324D01*
X120200000Y-65337324D01*
X120325000Y-65312460D01*
X120450000Y-65337324D01*
X120523000Y-65337324D01*
X120523001Y-67603161D01*
X120367238Y-67707238D01*
X120062894Y-68162721D01*
X119956023Y-68700000D01*
X120062894Y-69237279D01*
X120367238Y-69692762D01*
X120583001Y-69836930D01*
X120583001Y-70518155D01*
X118642195Y-72458962D01*
X118577314Y-72502314D01*
X118405582Y-72759331D01*
X118362893Y-72973944D01*
X118345278Y-73062500D01*
X118360500Y-73139026D01*
X118360500Y-73778716D01*
X118341447Y-73791447D01*
X118177000Y-74037560D01*
X118177000Y-74015064D01*
X118111993Y-73858124D01*
X117991876Y-73738007D01*
X117834935Y-73673000D01*
X117392250Y-73673000D01*
X117285500Y-73779750D01*
X117285500Y-74777000D01*
X117305500Y-74777000D01*
X117305500Y-74823000D01*
X117285500Y-74823000D01*
X117285500Y-75820250D01*
X117392250Y-75927000D01*
X117834935Y-75927000D01*
X117991876Y-75861993D01*
X118111993Y-75741876D01*
X118177000Y-75584936D01*
X118177000Y-75562440D01*
X118297743Y-75743145D01*
X118220055Y-75795055D01*
X118103577Y-75969375D01*
X118062676Y-76175000D01*
X118062676Y-77025000D01*
X118103577Y-77230625D01*
X118216751Y-77400000D01*
X118103577Y-77569375D01*
X118062676Y-77775000D01*
X118062676Y-78625000D01*
X118103577Y-78830625D01*
X118220055Y-79004945D01*
X118297743Y-79056855D01*
X118177000Y-79237560D01*
X118177000Y-79215064D01*
X118111993Y-79058124D01*
X117991876Y-78938007D01*
X117834935Y-78873000D01*
X117392250Y-78873000D01*
X117285500Y-78979750D01*
X117285500Y-79977000D01*
X117305500Y-79977000D01*
X117305500Y-80023000D01*
X117285500Y-80023000D01*
X117285500Y-81020250D01*
X117392250Y-81127000D01*
X117834935Y-81127000D01*
X117991876Y-81061993D01*
X118111993Y-80941876D01*
X118177000Y-80784936D01*
X118177000Y-80762440D01*
X118298420Y-80944158D01*
X116483440Y-82759138D01*
X116426910Y-82796911D01*
X116277280Y-83020849D01*
X116238000Y-83218322D01*
X116224737Y-83285000D01*
X116238000Y-83351677D01*
X116238001Y-86210985D01*
X116134805Y-86365429D01*
X116082676Y-86627500D01*
X116082676Y-86972500D01*
X116134805Y-87234571D01*
X116160482Y-87273000D01*
X101100000Y-87273000D01*
X101051399Y-87282667D01*
X101039055Y-87290915D01*
X101005625Y-87268577D01*
X100800000Y-87227676D01*
X97627000Y-87227676D01*
X97627000Y-80129750D01*
X116348000Y-80129750D01*
X116348000Y-80784936D01*
X116413007Y-80941876D01*
X116533124Y-81061993D01*
X116690065Y-81127000D01*
X117132750Y-81127000D01*
X117239500Y-81020250D01*
X117239500Y-80023000D01*
X116454750Y-80023000D01*
X116348000Y-80129750D01*
X97627000Y-80129750D01*
X97627000Y-79215064D01*
X116348000Y-79215064D01*
X116348000Y-79870250D01*
X116454750Y-79977000D01*
X117239500Y-79977000D01*
X117239500Y-78979750D01*
X117132750Y-78873000D01*
X116690065Y-78873000D01*
X116533124Y-78938007D01*
X116413007Y-79058124D01*
X116348000Y-79215064D01*
X97627000Y-79215064D01*
X97627000Y-74929750D01*
X116348000Y-74929750D01*
X116348000Y-75584936D01*
X116413007Y-75741876D01*
X116533124Y-75861993D01*
X116690065Y-75927000D01*
X117132750Y-75927000D01*
X117239500Y-75820250D01*
X117239500Y-74823000D01*
X116454750Y-74823000D01*
X116348000Y-74929750D01*
X97627000Y-74929750D01*
X97627000Y-74015064D01*
X116348000Y-74015064D01*
X116348000Y-74670250D01*
X116454750Y-74777000D01*
X117239500Y-74777000D01*
X117239500Y-73779750D01*
X117132750Y-73673000D01*
X116690065Y-73673000D01*
X116533124Y-73738007D01*
X116413007Y-73858124D01*
X116348000Y-74015064D01*
X97627000Y-74015064D01*
X97627000Y-67555649D01*
X99476878Y-67555649D01*
X99844986Y-68005252D01*
X101159087Y-68601179D01*
X102601210Y-68648858D01*
X103951804Y-68141033D01*
X104155014Y-68005252D01*
X104523122Y-67555649D01*
X102000000Y-65032527D01*
X99476878Y-67555649D01*
X97627000Y-67555649D01*
X97627000Y-65601210D01*
X98351142Y-65601210D01*
X98858967Y-66951804D01*
X98994748Y-67155014D01*
X99444351Y-67523122D01*
X101967473Y-65000000D01*
X102032527Y-65000000D01*
X104555649Y-67523122D01*
X105005252Y-67155014D01*
X105601179Y-65840913D01*
X105648858Y-64398790D01*
X105434899Y-63829750D01*
X115798000Y-63829750D01*
X115798000Y-64284936D01*
X115863007Y-64441876D01*
X115983124Y-64561993D01*
X116140065Y-64627000D01*
X116770250Y-64627000D01*
X116877000Y-64520250D01*
X116877000Y-63723000D01*
X115904750Y-63723000D01*
X115798000Y-63829750D01*
X105434899Y-63829750D01*
X105141033Y-63048196D01*
X105005252Y-62844986D01*
X104555649Y-62476878D01*
X102032527Y-65000000D01*
X101967473Y-65000000D01*
X99444351Y-62476878D01*
X98994748Y-62844986D01*
X98398821Y-64159087D01*
X98351142Y-65601210D01*
X97627000Y-65601210D01*
X97627000Y-65027927D01*
X97698566Y-64226045D01*
X97903600Y-63476567D01*
X98238122Y-62775227D01*
X98475880Y-62444351D01*
X99476878Y-62444351D01*
X102000000Y-64967473D01*
X104523122Y-62444351D01*
X104155014Y-61994748D01*
X102840913Y-61398821D01*
X101398790Y-61351142D01*
X100048196Y-61858967D01*
X99844986Y-61994748D01*
X99476878Y-62444351D01*
X98475880Y-62444351D01*
X98691544Y-62144224D01*
X99249551Y-61603477D01*
X99894493Y-61170094D01*
X100605983Y-60857771D01*
X101366369Y-60675219D01*
X102022988Y-60627000D01*
X114673000Y-60627000D01*
X114673000Y-61320250D01*
G36*
X121408000Y-81065422D02*
G01*
X121408001Y-81753000D01*
X121244750Y-81753000D01*
X121138000Y-81859750D01*
X121138000Y-82477000D01*
X121158000Y-82477000D01*
X121158000Y-82523000D01*
X121138000Y-82523000D01*
X121138000Y-83140250D01*
X121244750Y-83247000D01*
X121266645Y-83247000D01*
X121242676Y-83367500D01*
X121242676Y-83662500D01*
X121294805Y-83924571D01*
X121345205Y-84000000D01*
X121294805Y-84075429D01*
X121242676Y-84337500D01*
X121242676Y-84632500D01*
X121286536Y-84853000D01*
X121244750Y-84853000D01*
X121138000Y-84959750D01*
X121138000Y-85577000D01*
X121158000Y-85577000D01*
X121158000Y-85623000D01*
X121138000Y-85623000D01*
X121138000Y-86240250D01*
X121244750Y-86347000D01*
X121286536Y-86347000D01*
X121242676Y-86567500D01*
X121242676Y-86862500D01*
X121294805Y-87124571D01*
X121345205Y-87200000D01*
X121296428Y-87273000D01*
X120721630Y-87273000D01*
X120717333Y-87251399D01*
X120689803Y-87210197D01*
X120648601Y-87182667D01*
X120600000Y-87173000D01*
X118607000Y-87173000D01*
X118607000Y-86929750D01*
X118500250Y-86823000D01*
X117908000Y-86823000D01*
X117908000Y-86843000D01*
X117862000Y-86843000D01*
X117862000Y-86823000D01*
X117842000Y-86823000D01*
X117842000Y-86777000D01*
X117862000Y-86777000D01*
X117862000Y-86159750D01*
X117908000Y-86159750D01*
X117908000Y-86777000D01*
X118500250Y-86777000D01*
X118607000Y-86670250D01*
X118607000Y-86395064D01*
X118541993Y-86238124D01*
X118421876Y-86118007D01*
X118264935Y-86053000D01*
X118014750Y-86053000D01*
X117908000Y-86159750D01*
X117862000Y-86159750D01*
X117755250Y-86053000D01*
X117592000Y-86053000D01*
X117592000Y-85729750D01*
X120393000Y-85729750D01*
X120393000Y-86004936D01*
X120458007Y-86161876D01*
X120578124Y-86281993D01*
X120735065Y-86347000D01*
X120985250Y-86347000D01*
X121092000Y-86240250D01*
X121092000Y-85623000D01*
X120499750Y-85623000D01*
X120393000Y-85729750D01*
X117592000Y-85729750D01*
X117592000Y-85195064D01*
X120393000Y-85195064D01*
X120393000Y-85470250D01*
X120499750Y-85577000D01*
X121092000Y-85577000D01*
X121092000Y-84959750D01*
X120985250Y-84853000D01*
X120735065Y-84853000D01*
X120578124Y-84918007D01*
X120458007Y-85038124D01*
X120393000Y-85195064D01*
X117592000Y-85195064D01*
X117592000Y-83565421D01*
X118527671Y-82629750D01*
X120393000Y-82629750D01*
X120393000Y-82904936D01*
X120458007Y-83061876D01*
X120578124Y-83181993D01*
X120735065Y-83247000D01*
X120985250Y-83247000D01*
X121092000Y-83140250D01*
X121092000Y-82523000D01*
X120499750Y-82523000D01*
X120393000Y-82629750D01*
X118527671Y-82629750D01*
X119062358Y-82095064D01*
X120393000Y-82095064D01*
X120393000Y-82370250D01*
X120499750Y-82477000D01*
X121092000Y-82477000D01*
X121092000Y-81859750D01*
X120985250Y-81753000D01*
X120735065Y-81753000D01*
X120578124Y-81818007D01*
X120458007Y-81938124D01*
X120393000Y-82095064D01*
X119062358Y-82095064D01*
X119569063Y-81588360D01*
X119625590Y-81550590D01*
X119701008Y-81437719D01*
X119775220Y-81326653D01*
X119823923Y-81081805D01*
X119933553Y-81008553D01*
X120102868Y-80755154D01*
X120118414Y-80677000D01*
X121019579Y-80677000D01*
X121408000Y-81065422D01*
X121408000Y-81065422D01*
G37*
X121408000Y-81065422D02*
X121408001Y-81753000D01*
X121244750Y-81753000D01*
X121138000Y-81859750D01*
X121138000Y-82477000D01*
X121158000Y-82477000D01*
X121158000Y-82523000D01*
X121138000Y-82523000D01*
X121138000Y-83140250D01*
X121244750Y-83247000D01*
X121266645Y-83247000D01*
X121242676Y-83367500D01*
X121242676Y-83662500D01*
X121294805Y-83924571D01*
X121345205Y-84000000D01*
X121294805Y-84075429D01*
X121242676Y-84337500D01*
X121242676Y-84632500D01*
X121286536Y-84853000D01*
X121244750Y-84853000D01*
X121138000Y-84959750D01*
X121138000Y-85577000D01*
X121158000Y-85577000D01*
X121158000Y-85623000D01*
X121138000Y-85623000D01*
X121138000Y-86240250D01*
X121244750Y-86347000D01*
X121286536Y-86347000D01*
X121242676Y-86567500D01*
X121242676Y-86862500D01*
X121294805Y-87124571D01*
X121345205Y-87200000D01*
X121296428Y-87273000D01*
X120721630Y-87273000D01*
X120717333Y-87251399D01*
X120689803Y-87210197D01*
X120648601Y-87182667D01*
X120600000Y-87173000D01*
X118607000Y-87173000D01*
X118607000Y-86929750D01*
X118500250Y-86823000D01*
X117908000Y-86823000D01*
X117908000Y-86843000D01*
X117862000Y-86843000D01*
X117862000Y-86823000D01*
X117842000Y-86823000D01*
X117842000Y-86777000D01*
X117862000Y-86777000D01*
X117862000Y-86159750D01*
X117908000Y-86159750D01*
X117908000Y-86777000D01*
X118500250Y-86777000D01*
X118607000Y-86670250D01*
X118607000Y-86395064D01*
X118541993Y-86238124D01*
X118421876Y-86118007D01*
X118264935Y-86053000D01*
X118014750Y-86053000D01*
X117908000Y-86159750D01*
X117862000Y-86159750D01*
X117755250Y-86053000D01*
X117592000Y-86053000D01*
X117592000Y-85729750D01*
X120393000Y-85729750D01*
X120393000Y-86004936D01*
X120458007Y-86161876D01*
X120578124Y-86281993D01*
X120735065Y-86347000D01*
X120985250Y-86347000D01*
X121092000Y-86240250D01*
X121092000Y-85623000D01*
X120499750Y-85623000D01*
X120393000Y-85729750D01*
X117592000Y-85729750D01*
X117592000Y-85195064D01*
X120393000Y-85195064D01*
X120393000Y-85470250D01*
X120499750Y-85577000D01*
X121092000Y-85577000D01*
X121092000Y-84959750D01*
X120985250Y-84853000D01*
X120735065Y-84853000D01*
X120578124Y-84918007D01*
X120458007Y-85038124D01*
X120393000Y-85195064D01*
X117592000Y-85195064D01*
X117592000Y-83565421D01*
X118527671Y-82629750D01*
X120393000Y-82629750D01*
X120393000Y-82904936D01*
X120458007Y-83061876D01*
X120578124Y-83181993D01*
X120735065Y-83247000D01*
X120985250Y-83247000D01*
X121092000Y-83140250D01*
X121092000Y-82523000D01*
X120499750Y-82523000D01*
X120393000Y-82629750D01*
X118527671Y-82629750D01*
X119062358Y-82095064D01*
X120393000Y-82095064D01*
X120393000Y-82370250D01*
X120499750Y-82477000D01*
X121092000Y-82477000D01*
X121092000Y-81859750D01*
X120985250Y-81753000D01*
X120735065Y-81753000D01*
X120578124Y-81818007D01*
X120458007Y-81938124D01*
X120393000Y-82095064D01*
X119062358Y-82095064D01*
X119569063Y-81588360D01*
X119625590Y-81550590D01*
X119701008Y-81437719D01*
X119775220Y-81326653D01*
X119823923Y-81081805D01*
X119933553Y-81008553D01*
X120102868Y-80755154D01*
X120118414Y-80677000D01*
X121019579Y-80677000D01*
X121408000Y-81065422D01*
D11*
G36*
X120463872Y-87353806D02*
G01*
X120447651Y-87364645D01*
X120436812Y-87380866D01*
X120433006Y-87400000D01*
X120433006Y-88063134D01*
X120391590Y-88090807D01*
X120287500Y-88070103D01*
X119712500Y-88070103D01*
X119591037Y-88094263D01*
X119507621Y-88150000D01*
X119500000Y-88150000D01*
X119480866Y-88153806D01*
X119464645Y-88164645D01*
X119453806Y-88180866D01*
X119450000Y-88200000D01*
X119450000Y-88220036D01*
X119419263Y-88266037D01*
X119395103Y-88387500D01*
X119395103Y-88512500D01*
X119419263Y-88633963D01*
X119450000Y-88679964D01*
X119450000Y-88700000D01*
X119453806Y-88719134D01*
X119464645Y-88735355D01*
X119480866Y-88746194D01*
X119500000Y-88750000D01*
X119507621Y-88750000D01*
X119591037Y-88805737D01*
X119712500Y-88829897D01*
X120287500Y-88829897D01*
X120391590Y-88809193D01*
X120433006Y-88836866D01*
X120433006Y-89400000D01*
X120436812Y-89419134D01*
X120447651Y-89435355D01*
X120463872Y-89446194D01*
X120483006Y-89450000D01*
X120650000Y-89450000D01*
X120650000Y-89850000D01*
X117550000Y-89850000D01*
X117548864Y-89850013D01*
X117050000Y-89861351D01*
X117050000Y-89450000D01*
X117300000Y-89450000D01*
X117319134Y-89446194D01*
X117335355Y-89435355D01*
X117339062Y-89429807D01*
X117551136Y-89424987D01*
X117570179Y-89420747D01*
X117586150Y-89409543D01*
X117596617Y-89393080D01*
X117600000Y-89375000D01*
X117600000Y-88850000D01*
X118600000Y-88850000D01*
X118619134Y-88846194D01*
X118635355Y-88835355D01*
X118646194Y-88819134D01*
X118650000Y-88800000D01*
X118650000Y-87350000D01*
X120483006Y-87350000D01*
X120463872Y-87353806D01*
X120463872Y-87353806D01*
G37*
X120463872Y-87353806D02*
X120447651Y-87364645D01*
X120436812Y-87380866D01*
X120433006Y-87400000D01*
X120433006Y-88063134D01*
X120391590Y-88090807D01*
X120287500Y-88070103D01*
X119712500Y-88070103D01*
X119591037Y-88094263D01*
X119507621Y-88150000D01*
X119500000Y-88150000D01*
X119480866Y-88153806D01*
X119464645Y-88164645D01*
X119453806Y-88180866D01*
X119450000Y-88200000D01*
X119450000Y-88220036D01*
X119419263Y-88266037D01*
X119395103Y-88387500D01*
X119395103Y-88512500D01*
X119419263Y-88633963D01*
X119450000Y-88679964D01*
X119450000Y-88700000D01*
X119453806Y-88719134D01*
X119464645Y-88735355D01*
X119480866Y-88746194D01*
X119500000Y-88750000D01*
X119507621Y-88750000D01*
X119591037Y-88805737D01*
X119712500Y-88829897D01*
X120287500Y-88829897D01*
X120391590Y-88809193D01*
X120433006Y-88836866D01*
X120433006Y-89400000D01*
X120436812Y-89419134D01*
X120447651Y-89435355D01*
X120463872Y-89446194D01*
X120483006Y-89450000D01*
X120650000Y-89450000D01*
X120650000Y-89850000D01*
X117550000Y-89850000D01*
X117548864Y-89850013D01*
X117050000Y-89861351D01*
X117050000Y-89450000D01*
X117300000Y-89450000D01*
X117319134Y-89446194D01*
X117335355Y-89435355D01*
X117339062Y-89429807D01*
X117551136Y-89424987D01*
X117570179Y-89420747D01*
X117586150Y-89409543D01*
X117596617Y-89393080D01*
X117600000Y-89375000D01*
X117600000Y-88850000D01*
X118600000Y-88850000D01*
X118619134Y-88846194D01*
X118635355Y-88835355D01*
X118646194Y-88819134D01*
X118650000Y-88800000D01*
X118650000Y-87350000D01*
X120483006Y-87350000D01*
X120463872Y-87353806D01*
M02*
