G04 #@! TF.GenerationSoftware,KiCad,Pcbnew,(5.1.0)-1*
G04 #@! TF.CreationDate,2019-03-22T19:36:58+11:00*
G04 #@! TF.ProjectId,TRF37A75_Dev_Rev_0,54524633-3741-4373-955f-4465765f5265,rev?*
G04 #@! TF.SameCoordinates,Original*
G04 #@! TF.FileFunction,Legend,Bot*
G04 #@! TF.FilePolarity,Positive*
%FSLAX46Y46*%
G04 Gerber Fmt 4.6, Leading zero omitted, Abs format (unit mm)*
G04 Created by KiCad (PCBNEW (5.1.0)-1) date 2019-03-22 19:36:58*
%MOMM*%
%LPD*%
G04 APERTURE LIST*
%ADD10C,0.150000*%
G04 APERTURE END LIST*
D10*
X135290476Y-102635714D02*
X135290476Y-103445238D01*
X135338095Y-103540476D01*
X135385714Y-103588095D01*
X135480952Y-103635714D01*
X135623809Y-103635714D01*
X135719047Y-103588095D01*
X135290476Y-103254761D02*
X135385714Y-103302380D01*
X135576190Y-103302380D01*
X135671428Y-103254761D01*
X135719047Y-103207142D01*
X135766666Y-103111904D01*
X135766666Y-102826190D01*
X135719047Y-102730952D01*
X135671428Y-102683333D01*
X135576190Y-102635714D01*
X135385714Y-102635714D01*
X135290476Y-102683333D01*
X134814285Y-103302380D02*
X134814285Y-102635714D01*
X134814285Y-102302380D02*
X134861904Y-102350000D01*
X134814285Y-102397619D01*
X134766666Y-102350000D01*
X134814285Y-102302380D01*
X134814285Y-102397619D01*
X134480952Y-102635714D02*
X134100000Y-102635714D01*
X134338095Y-102302380D02*
X134338095Y-103159523D01*
X134290476Y-103254761D01*
X134195238Y-103302380D01*
X134100000Y-103302380D01*
X133766666Y-103302380D02*
X133766666Y-102302380D01*
X133338095Y-103302380D02*
X133338095Y-102778571D01*
X133385714Y-102683333D01*
X133480952Y-102635714D01*
X133623809Y-102635714D01*
X133719047Y-102683333D01*
X133766666Y-102730952D01*
X132433333Y-102635714D02*
X132433333Y-103302380D01*
X132861904Y-102635714D02*
X132861904Y-103159523D01*
X132814285Y-103254761D01*
X132719047Y-103302380D01*
X132576190Y-103302380D01*
X132480952Y-103254761D01*
X132433333Y-103207142D01*
X131957142Y-103302380D02*
X131957142Y-102302380D01*
X131957142Y-102683333D02*
X131861904Y-102635714D01*
X131671428Y-102635714D01*
X131576190Y-102683333D01*
X131528571Y-102730952D01*
X131480952Y-102826190D01*
X131480952Y-103111904D01*
X131528571Y-103207142D01*
X131576190Y-103254761D01*
X131671428Y-103302380D01*
X131861904Y-103302380D01*
X131957142Y-103254761D01*
X131052380Y-103207142D02*
X131004761Y-103254761D01*
X131052380Y-103302380D01*
X131100000Y-103254761D01*
X131052380Y-103207142D01*
X131052380Y-103302380D01*
X130147619Y-103254761D02*
X130242857Y-103302380D01*
X130433333Y-103302380D01*
X130528571Y-103254761D01*
X130576190Y-103207142D01*
X130623809Y-103111904D01*
X130623809Y-102826190D01*
X130576190Y-102730952D01*
X130528571Y-102683333D01*
X130433333Y-102635714D01*
X130242857Y-102635714D01*
X130147619Y-102683333D01*
X129576190Y-103302380D02*
X129671428Y-103254761D01*
X129719047Y-103207142D01*
X129766666Y-103111904D01*
X129766666Y-102826190D01*
X129719047Y-102730952D01*
X129671428Y-102683333D01*
X129576190Y-102635714D01*
X129433333Y-102635714D01*
X129338095Y-102683333D01*
X129290476Y-102730952D01*
X129242857Y-102826190D01*
X129242857Y-103111904D01*
X129290476Y-103207142D01*
X129338095Y-103254761D01*
X129433333Y-103302380D01*
X129576190Y-103302380D01*
X128814285Y-103302380D02*
X128814285Y-102635714D01*
X128814285Y-102730952D02*
X128766666Y-102683333D01*
X128671428Y-102635714D01*
X128528571Y-102635714D01*
X128433333Y-102683333D01*
X128385714Y-102778571D01*
X128385714Y-103302380D01*
X128385714Y-102778571D02*
X128338095Y-102683333D01*
X128242857Y-102635714D01*
X128100000Y-102635714D01*
X128004761Y-102683333D01*
X127957142Y-102778571D01*
X127957142Y-103302380D01*
X126766666Y-102254761D02*
X127623809Y-103540476D01*
X126433333Y-102635714D02*
X126433333Y-103492857D01*
X126480952Y-103588095D01*
X126576190Y-103635714D01*
X126623809Y-103635714D01*
X126433333Y-102302380D02*
X126480952Y-102350000D01*
X126433333Y-102397619D01*
X126385714Y-102350000D01*
X126433333Y-102302380D01*
X126433333Y-102397619D01*
X125814285Y-103302380D02*
X125909523Y-103254761D01*
X125957142Y-103207142D01*
X126004761Y-103111904D01*
X126004761Y-102826190D01*
X125957142Y-102730952D01*
X125909523Y-102683333D01*
X125814285Y-102635714D01*
X125671428Y-102635714D01*
X125576190Y-102683333D01*
X125528571Y-102730952D01*
X125480952Y-102826190D01*
X125480952Y-103111904D01*
X125528571Y-103207142D01*
X125576190Y-103254761D01*
X125671428Y-103302380D01*
X125814285Y-103302380D01*
X125100000Y-103254761D02*
X125004761Y-103302380D01*
X124814285Y-103302380D01*
X124719047Y-103254761D01*
X124671428Y-103159523D01*
X124671428Y-103111904D01*
X124719047Y-103016666D01*
X124814285Y-102969047D01*
X124957142Y-102969047D01*
X125052380Y-102921428D01*
X125100000Y-102826190D01*
X125100000Y-102778571D01*
X125052380Y-102683333D01*
X124957142Y-102635714D01*
X124814285Y-102635714D01*
X124719047Y-102683333D01*
X124242857Y-103302380D02*
X124242857Y-102302380D01*
X123814285Y-103302380D02*
X123814285Y-102778571D01*
X123861904Y-102683333D01*
X123957142Y-102635714D01*
X124100000Y-102635714D01*
X124195238Y-102683333D01*
X124242857Y-102730952D01*
X122909523Y-103302380D02*
X122909523Y-102778571D01*
X122957142Y-102683333D01*
X123052380Y-102635714D01*
X123242857Y-102635714D01*
X123338095Y-102683333D01*
X122909523Y-103254761D02*
X123004761Y-103302380D01*
X123242857Y-103302380D01*
X123338095Y-103254761D01*
X123385714Y-103159523D01*
X123385714Y-103064285D01*
X123338095Y-102969047D01*
X123242857Y-102921428D01*
X123004761Y-102921428D01*
X122909523Y-102873809D01*
X122433333Y-102635714D02*
X122433333Y-103492857D01*
X122480952Y-103588095D01*
X122576190Y-103635714D01*
X122623809Y-103635714D01*
X122433333Y-102302380D02*
X122480952Y-102350000D01*
X122433333Y-102397619D01*
X122385714Y-102350000D01*
X122433333Y-102302380D01*
X122433333Y-102397619D01*
X121814285Y-103302380D02*
X121909523Y-103254761D01*
X121957142Y-103207142D01*
X122004761Y-103111904D01*
X122004761Y-102826190D01*
X121957142Y-102730952D01*
X121909523Y-102683333D01*
X121814285Y-102635714D01*
X121671428Y-102635714D01*
X121576190Y-102683333D01*
X121528571Y-102730952D01*
X121480952Y-102826190D01*
X121480952Y-103111904D01*
X121528571Y-103207142D01*
X121576190Y-103254761D01*
X121671428Y-103302380D01*
X121814285Y-103302380D01*
X121052380Y-103302380D02*
X121052380Y-102302380D01*
X120623809Y-103302380D02*
X120623809Y-102778571D01*
X120671428Y-102683333D01*
X120766666Y-102635714D01*
X120909523Y-102635714D01*
X121004761Y-102683333D01*
X121052380Y-102730952D01*
X120147619Y-102635714D02*
X120147619Y-103302380D01*
X120147619Y-102730952D02*
X120100000Y-102683333D01*
X120004761Y-102635714D01*
X119861904Y-102635714D01*
X119766666Y-102683333D01*
X119719047Y-102778571D01*
X119719047Y-103302380D01*
X119290476Y-103254761D02*
X119195238Y-103302380D01*
X119004761Y-103302380D01*
X118909523Y-103254761D01*
X118861904Y-103159523D01*
X118861904Y-103111904D01*
X118909523Y-103016666D01*
X119004761Y-102969047D01*
X119147619Y-102969047D01*
X119242857Y-102921428D01*
X119290476Y-102826190D01*
X119290476Y-102778571D01*
X119242857Y-102683333D01*
X119147619Y-102635714D01*
X119004761Y-102635714D01*
X118909523Y-102683333D01*
X118290476Y-103302380D02*
X118385714Y-103254761D01*
X118433333Y-103207142D01*
X118480952Y-103111904D01*
X118480952Y-102826190D01*
X118433333Y-102730952D01*
X118385714Y-102683333D01*
X118290476Y-102635714D01*
X118147619Y-102635714D01*
X118052380Y-102683333D01*
X118004761Y-102730952D01*
X117957142Y-102826190D01*
X117957142Y-103111904D01*
X118004761Y-103207142D01*
X118052380Y-103254761D01*
X118147619Y-103302380D01*
X118290476Y-103302380D01*
X117528571Y-102635714D02*
X117528571Y-103302380D01*
X117528571Y-102730952D02*
X117480952Y-102683333D01*
X117385714Y-102635714D01*
X117242857Y-102635714D01*
X117147619Y-102683333D01*
X117100000Y-102778571D01*
X117100000Y-103302380D01*
X115909523Y-102254761D02*
X116766666Y-103540476D01*
X115671428Y-102635714D02*
X115433333Y-103302380D01*
X115195238Y-102635714D01*
X114814285Y-102635714D02*
X114814285Y-103302380D01*
X114814285Y-102730952D02*
X114766666Y-102683333D01*
X114671428Y-102635714D01*
X114528571Y-102635714D01*
X114433333Y-102683333D01*
X114385714Y-102778571D01*
X114385714Y-103302380D01*
X113480952Y-103302380D02*
X113480952Y-102778571D01*
X113528571Y-102683333D01*
X113623809Y-102635714D01*
X113814285Y-102635714D01*
X113909523Y-102683333D01*
X113480952Y-103254761D02*
X113576190Y-103302380D01*
X113814285Y-103302380D01*
X113909523Y-103254761D01*
X113957142Y-103159523D01*
X113957142Y-103064285D01*
X113909523Y-102969047D01*
X113814285Y-102921428D01*
X113576190Y-102921428D01*
X113480952Y-102873809D01*
X135552380Y-101135714D02*
X135552380Y-101992857D01*
X135600000Y-102088095D01*
X135695238Y-102135714D01*
X135742857Y-102135714D01*
X135552380Y-100802380D02*
X135600000Y-100850000D01*
X135552380Y-100897619D01*
X135504761Y-100850000D01*
X135552380Y-100802380D01*
X135552380Y-100897619D01*
X134933333Y-101802380D02*
X135028571Y-101754761D01*
X135076190Y-101707142D01*
X135123809Y-101611904D01*
X135123809Y-101326190D01*
X135076190Y-101230952D01*
X135028571Y-101183333D01*
X134933333Y-101135714D01*
X134790476Y-101135714D01*
X134695238Y-101183333D01*
X134647619Y-101230952D01*
X134600000Y-101326190D01*
X134600000Y-101611904D01*
X134647619Y-101707142D01*
X134695238Y-101754761D01*
X134790476Y-101802380D01*
X134933333Y-101802380D01*
X134219047Y-101754761D02*
X134123809Y-101802380D01*
X133933333Y-101802380D01*
X133838095Y-101754761D01*
X133790476Y-101659523D01*
X133790476Y-101611904D01*
X133838095Y-101516666D01*
X133933333Y-101469047D01*
X134076190Y-101469047D01*
X134171428Y-101421428D01*
X134219047Y-101326190D01*
X134219047Y-101278571D01*
X134171428Y-101183333D01*
X134076190Y-101135714D01*
X133933333Y-101135714D01*
X133838095Y-101183333D01*
X133361904Y-101802380D02*
X133361904Y-100802380D01*
X132933333Y-101802380D02*
X132933333Y-101278571D01*
X132980952Y-101183333D01*
X133076190Y-101135714D01*
X133219047Y-101135714D01*
X133314285Y-101183333D01*
X133361904Y-101230952D01*
X132028571Y-101802380D02*
X132028571Y-101278571D01*
X132076190Y-101183333D01*
X132171428Y-101135714D01*
X132361904Y-101135714D01*
X132457142Y-101183333D01*
X132028571Y-101754761D02*
X132123809Y-101802380D01*
X132361904Y-101802380D01*
X132457142Y-101754761D01*
X132504761Y-101659523D01*
X132504761Y-101564285D01*
X132457142Y-101469047D01*
X132361904Y-101421428D01*
X132123809Y-101421428D01*
X132028571Y-101373809D01*
X131552380Y-101135714D02*
X131552380Y-101992857D01*
X131600000Y-102088095D01*
X131695238Y-102135714D01*
X131742857Y-102135714D01*
X131552380Y-100802380D02*
X131600000Y-100850000D01*
X131552380Y-100897619D01*
X131504761Y-100850000D01*
X131552380Y-100802380D01*
X131552380Y-100897619D01*
X130933333Y-101802380D02*
X131028571Y-101754761D01*
X131076190Y-101707142D01*
X131123809Y-101611904D01*
X131123809Y-101326190D01*
X131076190Y-101230952D01*
X131028571Y-101183333D01*
X130933333Y-101135714D01*
X130790476Y-101135714D01*
X130695238Y-101183333D01*
X130647619Y-101230952D01*
X130600000Y-101326190D01*
X130600000Y-101611904D01*
X130647619Y-101707142D01*
X130695238Y-101754761D01*
X130790476Y-101802380D01*
X130933333Y-101802380D01*
X130171428Y-101802380D02*
X130171428Y-100802380D01*
X129742857Y-101802380D02*
X129742857Y-101278571D01*
X129790476Y-101183333D01*
X129885714Y-101135714D01*
X130028571Y-101135714D01*
X130123809Y-101183333D01*
X130171428Y-101230952D01*
X129266666Y-101135714D02*
X129266666Y-101802380D01*
X129266666Y-101230952D02*
X129219047Y-101183333D01*
X129123809Y-101135714D01*
X128980952Y-101135714D01*
X128885714Y-101183333D01*
X128838095Y-101278571D01*
X128838095Y-101802380D01*
X128409523Y-101754761D02*
X128314285Y-101802380D01*
X128123809Y-101802380D01*
X128028571Y-101754761D01*
X127980952Y-101659523D01*
X127980952Y-101611904D01*
X128028571Y-101516666D01*
X128123809Y-101469047D01*
X128266666Y-101469047D01*
X128361904Y-101421428D01*
X128409523Y-101326190D01*
X128409523Y-101278571D01*
X128361904Y-101183333D01*
X128266666Y-101135714D01*
X128123809Y-101135714D01*
X128028571Y-101183333D01*
X127409523Y-101802380D02*
X127504761Y-101754761D01*
X127552380Y-101707142D01*
X127600000Y-101611904D01*
X127600000Y-101326190D01*
X127552380Y-101230952D01*
X127504761Y-101183333D01*
X127409523Y-101135714D01*
X127266666Y-101135714D01*
X127171428Y-101183333D01*
X127123809Y-101230952D01*
X127076190Y-101326190D01*
X127076190Y-101611904D01*
X127123809Y-101707142D01*
X127171428Y-101754761D01*
X127266666Y-101802380D01*
X127409523Y-101802380D01*
X126647619Y-101135714D02*
X126647619Y-101802380D01*
X126647619Y-101230952D02*
X126600000Y-101183333D01*
X126504761Y-101135714D01*
X126361904Y-101135714D01*
X126266666Y-101183333D01*
X126219047Y-101278571D01*
X126219047Y-101802380D01*
X125742857Y-101707142D02*
X125695238Y-101754761D01*
X125742857Y-101802380D01*
X125790476Y-101754761D01*
X125742857Y-101707142D01*
X125742857Y-101802380D01*
X124838095Y-101754761D02*
X124933333Y-101802380D01*
X125123809Y-101802380D01*
X125219047Y-101754761D01*
X125266666Y-101707142D01*
X125314285Y-101611904D01*
X125314285Y-101326190D01*
X125266666Y-101230952D01*
X125219047Y-101183333D01*
X125123809Y-101135714D01*
X124933333Y-101135714D01*
X124838095Y-101183333D01*
X124266666Y-101802380D02*
X124361904Y-101754761D01*
X124409523Y-101707142D01*
X124457142Y-101611904D01*
X124457142Y-101326190D01*
X124409523Y-101230952D01*
X124361904Y-101183333D01*
X124266666Y-101135714D01*
X124123809Y-101135714D01*
X124028571Y-101183333D01*
X123980952Y-101230952D01*
X123933333Y-101326190D01*
X123933333Y-101611904D01*
X123980952Y-101707142D01*
X124028571Y-101754761D01*
X124123809Y-101802380D01*
X124266666Y-101802380D01*
X123504761Y-101802380D02*
X123504761Y-101135714D01*
X123504761Y-101230952D02*
X123457142Y-101183333D01*
X123361904Y-101135714D01*
X123219047Y-101135714D01*
X123123809Y-101183333D01*
X123076190Y-101278571D01*
X123076190Y-101802380D01*
X123076190Y-101278571D02*
X123028571Y-101183333D01*
X122933333Y-101135714D01*
X122790476Y-101135714D01*
X122695238Y-101183333D01*
X122647619Y-101278571D01*
X122647619Y-101802380D01*
X135495238Y-99302380D02*
X135495238Y-100016666D01*
X135542857Y-100159523D01*
X135638095Y-100254761D01*
X135780952Y-100302380D01*
X135876190Y-100302380D01*
X134876190Y-100302380D02*
X134971428Y-100254761D01*
X135019047Y-100207142D01*
X135066666Y-100111904D01*
X135066666Y-99826190D01*
X135019047Y-99730952D01*
X134971428Y-99683333D01*
X134876190Y-99635714D01*
X134733333Y-99635714D01*
X134638095Y-99683333D01*
X134590476Y-99730952D01*
X134542857Y-99826190D01*
X134542857Y-100111904D01*
X134590476Y-100207142D01*
X134638095Y-100254761D01*
X134733333Y-100302380D01*
X134876190Y-100302380D01*
X134161904Y-100254761D02*
X134066666Y-100302380D01*
X133876190Y-100302380D01*
X133780952Y-100254761D01*
X133733333Y-100159523D01*
X133733333Y-100111904D01*
X133780952Y-100016666D01*
X133876190Y-99969047D01*
X134019047Y-99969047D01*
X134114285Y-99921428D01*
X134161904Y-99826190D01*
X134161904Y-99778571D01*
X134114285Y-99683333D01*
X134019047Y-99635714D01*
X133876190Y-99635714D01*
X133780952Y-99683333D01*
X133304761Y-100302380D02*
X133304761Y-99302380D01*
X132876190Y-100302380D02*
X132876190Y-99778571D01*
X132923809Y-99683333D01*
X133019047Y-99635714D01*
X133161904Y-99635714D01*
X133257142Y-99683333D01*
X133304761Y-99730952D01*
X131352380Y-99302380D02*
X131352380Y-100016666D01*
X131400000Y-100159523D01*
X131495238Y-100254761D01*
X131638095Y-100302380D01*
X131733333Y-100302380D01*
X130733333Y-100302380D02*
X130828571Y-100254761D01*
X130876190Y-100207142D01*
X130923809Y-100111904D01*
X130923809Y-99826190D01*
X130876190Y-99730952D01*
X130828571Y-99683333D01*
X130733333Y-99635714D01*
X130590476Y-99635714D01*
X130495238Y-99683333D01*
X130447619Y-99730952D01*
X130400000Y-99826190D01*
X130400000Y-100111904D01*
X130447619Y-100207142D01*
X130495238Y-100254761D01*
X130590476Y-100302380D01*
X130733333Y-100302380D01*
X129971428Y-100302380D02*
X129971428Y-99302380D01*
X129542857Y-100302380D02*
X129542857Y-99778571D01*
X129590476Y-99683333D01*
X129685714Y-99635714D01*
X129828571Y-99635714D01*
X129923809Y-99683333D01*
X129971428Y-99730952D01*
X129066666Y-99635714D02*
X129066666Y-100302380D01*
X129066666Y-99730952D02*
X129019047Y-99683333D01*
X128923809Y-99635714D01*
X128780952Y-99635714D01*
X128685714Y-99683333D01*
X128638095Y-99778571D01*
X128638095Y-100302380D01*
X128209523Y-100254761D02*
X128114285Y-100302380D01*
X127923809Y-100302380D01*
X127828571Y-100254761D01*
X127780952Y-100159523D01*
X127780952Y-100111904D01*
X127828571Y-100016666D01*
X127923809Y-99969047D01*
X128066666Y-99969047D01*
X128161904Y-99921428D01*
X128209523Y-99826190D01*
X128209523Y-99778571D01*
X128161904Y-99683333D01*
X128066666Y-99635714D01*
X127923809Y-99635714D01*
X127828571Y-99683333D01*
X127209523Y-100302380D02*
X127304761Y-100254761D01*
X127352380Y-100207142D01*
X127400000Y-100111904D01*
X127400000Y-99826190D01*
X127352380Y-99730952D01*
X127304761Y-99683333D01*
X127209523Y-99635714D01*
X127066666Y-99635714D01*
X126971428Y-99683333D01*
X126923809Y-99730952D01*
X126876190Y-99826190D01*
X126876190Y-100111904D01*
X126923809Y-100207142D01*
X126971428Y-100254761D01*
X127066666Y-100302380D01*
X127209523Y-100302380D01*
X126447619Y-99635714D02*
X126447619Y-100302380D01*
X126447619Y-99730952D02*
X126400000Y-99683333D01*
X126304761Y-99635714D01*
X126161904Y-99635714D01*
X126066666Y-99683333D01*
X126019047Y-99778571D01*
X126019047Y-100302380D01*
M02*
