G04 #@! TF.GenerationSoftware,KiCad,Pcbnew,(5.0.2)-1*
G04 #@! TF.CreationDate,2019-01-06T11:55:21+11:00*
G04 #@! TF.ProjectId,Gain_Block_Dev_Rev_0,4761696e-5f42-46c6-9f63-6b5f4465765f,rev?*
G04 #@! TF.SameCoordinates,Original*
G04 #@! TF.FileFunction,Soldermask,Bot*
G04 #@! TF.FilePolarity,Negative*
%FSLAX46Y46*%
G04 Gerber Fmt 4.6, Leading zero omitted, Abs format (unit mm)*
G04 Created by KiCad (PCBNEW (5.0.2)-1) date 6/01/2019 11:55:21*
%MOMM*%
%LPD*%
G01*
G04 APERTURE LIST*
%ADD10C,0.150000*%
%ADD11C,0.100000*%
G04 APERTURE END LIST*
D10*
G04 #@! TO.C,REF\002A\002A*
G36*
X107950000Y-105650000D02*
X113950000Y-105650000D01*
X113950000Y-107900000D01*
X107950000Y-107900000D01*
X107950000Y-105650000D01*
G37*
X107950000Y-105650000D02*
X113950000Y-105650000D01*
X113950000Y-107900000D01*
X107950000Y-107900000D01*
X107950000Y-105650000D01*
D11*
G36*
X148634239Y-109811467D02*
X148948282Y-109873934D01*
X149539926Y-110119001D01*
X149829523Y-110312504D01*
X150072395Y-110474786D01*
X150525214Y-110927605D01*
X150525216Y-110927608D01*
X150880999Y-111460074D01*
X151002724Y-111753944D01*
X151126066Y-112051719D01*
X151251000Y-112679803D01*
X151251000Y-113320197D01*
X151188533Y-113634239D01*
X151126066Y-113948282D01*
X150880999Y-114539926D01*
X150640457Y-114899922D01*
X150525214Y-115072395D01*
X150072395Y-115525214D01*
X150072392Y-115525216D01*
X149539926Y-115880999D01*
X148948282Y-116126066D01*
X148634239Y-116188533D01*
X148320197Y-116251000D01*
X147679803Y-116251000D01*
X147365761Y-116188533D01*
X147051718Y-116126066D01*
X146460074Y-115880999D01*
X145927608Y-115525216D01*
X145927605Y-115525214D01*
X145474786Y-115072395D01*
X145359543Y-114899922D01*
X145119001Y-114539926D01*
X144873934Y-113948282D01*
X144811467Y-113634239D01*
X144749000Y-113320197D01*
X144749000Y-112679803D01*
X144873934Y-112051719D01*
X144997276Y-111753944D01*
X145119001Y-111460074D01*
X145474784Y-110927608D01*
X145474786Y-110927605D01*
X145927605Y-110474786D01*
X146170477Y-110312504D01*
X146460074Y-110119001D01*
X147051718Y-109873934D01*
X147365761Y-109811467D01*
X147679803Y-109749000D01*
X148320197Y-109749000D01*
X148634239Y-109811467D01*
X148634239Y-109811467D01*
G37*
G36*
X110634239Y-109811467D02*
X110948282Y-109873934D01*
X111539926Y-110119001D01*
X111829523Y-110312504D01*
X112072395Y-110474786D01*
X112525214Y-110927605D01*
X112525216Y-110927608D01*
X112880999Y-111460074D01*
X113002724Y-111753944D01*
X113126066Y-112051719D01*
X113251000Y-112679803D01*
X113251000Y-113320197D01*
X113188533Y-113634239D01*
X113126066Y-113948282D01*
X112880999Y-114539926D01*
X112640457Y-114899922D01*
X112525214Y-115072395D01*
X112072395Y-115525214D01*
X112072392Y-115525216D01*
X111539926Y-115880999D01*
X110948282Y-116126066D01*
X110634239Y-116188533D01*
X110320197Y-116251000D01*
X109679803Y-116251000D01*
X109365761Y-116188533D01*
X109051718Y-116126066D01*
X108460074Y-115880999D01*
X107927608Y-115525216D01*
X107927605Y-115525214D01*
X107474786Y-115072395D01*
X107359543Y-114899922D01*
X107119001Y-114539926D01*
X106873934Y-113948282D01*
X106811467Y-113634239D01*
X106749000Y-113320197D01*
X106749000Y-112679803D01*
X106873934Y-112051719D01*
X106997276Y-111753944D01*
X107119001Y-111460074D01*
X107474784Y-110927608D01*
X107474786Y-110927605D01*
X107927605Y-110474786D01*
X108170477Y-110312504D01*
X108460074Y-110119001D01*
X109051718Y-109873934D01*
X109365761Y-109811467D01*
X109679803Y-109749000D01*
X110320197Y-109749000D01*
X110634239Y-109811467D01*
X110634239Y-109811467D01*
G37*
G36*
X123406821Y-114536313D02*
X123406824Y-114536314D01*
X123406825Y-114536314D01*
X123567239Y-114584975D01*
X123567241Y-114584976D01*
X123567244Y-114584977D01*
X123715078Y-114663995D01*
X123844659Y-114770341D01*
X123951005Y-114899922D01*
X124030023Y-115047756D01*
X124030024Y-115047759D01*
X124030025Y-115047761D01*
X124060449Y-115148056D01*
X124078687Y-115208179D01*
X124095117Y-115375000D01*
X124078687Y-115541821D01*
X124078686Y-115541824D01*
X124078686Y-115541825D01*
X124056905Y-115613629D01*
X124030023Y-115702244D01*
X123951005Y-115850078D01*
X123844659Y-115979659D01*
X123715078Y-116086005D01*
X123567244Y-116165023D01*
X123567241Y-116165024D01*
X123567239Y-116165025D01*
X123406825Y-116213686D01*
X123406824Y-116213686D01*
X123406821Y-116213687D01*
X123281804Y-116226000D01*
X123198196Y-116226000D01*
X123073179Y-116213687D01*
X123073176Y-116213686D01*
X123073175Y-116213686D01*
X122912761Y-116165025D01*
X122912759Y-116165024D01*
X122912756Y-116165023D01*
X122764922Y-116086005D01*
X122635341Y-115979659D01*
X122528995Y-115850078D01*
X122449977Y-115702244D01*
X122423096Y-115613629D01*
X122401314Y-115541825D01*
X122401314Y-115541824D01*
X122401313Y-115541821D01*
X122384883Y-115375000D01*
X122401313Y-115208179D01*
X122419551Y-115148056D01*
X122449975Y-115047761D01*
X122449976Y-115047759D01*
X122449977Y-115047756D01*
X122528995Y-114899922D01*
X122635341Y-114770341D01*
X122764922Y-114663995D01*
X122912756Y-114584977D01*
X122912759Y-114584976D01*
X122912761Y-114584975D01*
X123073175Y-114536314D01*
X123073176Y-114536314D01*
X123073179Y-114536313D01*
X123198196Y-114524000D01*
X123281804Y-114524000D01*
X123406821Y-114536313D01*
X123406821Y-114536313D01*
G37*
G36*
X120866821Y-114536313D02*
X120866824Y-114536314D01*
X120866825Y-114536314D01*
X121027239Y-114584975D01*
X121027241Y-114584976D01*
X121027244Y-114584977D01*
X121175078Y-114663995D01*
X121304659Y-114770341D01*
X121411005Y-114899922D01*
X121490023Y-115047756D01*
X121490024Y-115047759D01*
X121490025Y-115047761D01*
X121520449Y-115148056D01*
X121538687Y-115208179D01*
X121555117Y-115375000D01*
X121538687Y-115541821D01*
X121538686Y-115541824D01*
X121538686Y-115541825D01*
X121516905Y-115613629D01*
X121490023Y-115702244D01*
X121411005Y-115850078D01*
X121304659Y-115979659D01*
X121175078Y-116086005D01*
X121027244Y-116165023D01*
X121027241Y-116165024D01*
X121027239Y-116165025D01*
X120866825Y-116213686D01*
X120866824Y-116213686D01*
X120866821Y-116213687D01*
X120741804Y-116226000D01*
X120658196Y-116226000D01*
X120533179Y-116213687D01*
X120533176Y-116213686D01*
X120533175Y-116213686D01*
X120372761Y-116165025D01*
X120372759Y-116165024D01*
X120372756Y-116165023D01*
X120224922Y-116086005D01*
X120095341Y-115979659D01*
X119988995Y-115850078D01*
X119909977Y-115702244D01*
X119883096Y-115613629D01*
X119861314Y-115541825D01*
X119861314Y-115541824D01*
X119861313Y-115541821D01*
X119844883Y-115375000D01*
X119861313Y-115208179D01*
X119879551Y-115148056D01*
X119909975Y-115047761D01*
X119909976Y-115047759D01*
X119909977Y-115047756D01*
X119988995Y-114899922D01*
X120095341Y-114770341D01*
X120224922Y-114663995D01*
X120372756Y-114584977D01*
X120372759Y-114584976D01*
X120372761Y-114584975D01*
X120533175Y-114536314D01*
X120533176Y-114536314D01*
X120533179Y-114536313D01*
X120658196Y-114524000D01*
X120741804Y-114524000D01*
X120866821Y-114536313D01*
X120866821Y-114536313D01*
G37*
G36*
X125946821Y-114536313D02*
X125946824Y-114536314D01*
X125946825Y-114536314D01*
X126107239Y-114584975D01*
X126107241Y-114584976D01*
X126107244Y-114584977D01*
X126255078Y-114663995D01*
X126384659Y-114770341D01*
X126491005Y-114899922D01*
X126570023Y-115047756D01*
X126570024Y-115047759D01*
X126570025Y-115047761D01*
X126600449Y-115148056D01*
X126618687Y-115208179D01*
X126635117Y-115375000D01*
X126618687Y-115541821D01*
X126618686Y-115541824D01*
X126618686Y-115541825D01*
X126596905Y-115613629D01*
X126570023Y-115702244D01*
X126491005Y-115850078D01*
X126384659Y-115979659D01*
X126255078Y-116086005D01*
X126107244Y-116165023D01*
X126107241Y-116165024D01*
X126107239Y-116165025D01*
X125946825Y-116213686D01*
X125946824Y-116213686D01*
X125946821Y-116213687D01*
X125821804Y-116226000D01*
X125738196Y-116226000D01*
X125613179Y-116213687D01*
X125613176Y-116213686D01*
X125613175Y-116213686D01*
X125452761Y-116165025D01*
X125452759Y-116165024D01*
X125452756Y-116165023D01*
X125304922Y-116086005D01*
X125175341Y-115979659D01*
X125068995Y-115850078D01*
X124989977Y-115702244D01*
X124963096Y-115613629D01*
X124941314Y-115541825D01*
X124941314Y-115541824D01*
X124941313Y-115541821D01*
X124924883Y-115375000D01*
X124941313Y-115208179D01*
X124959551Y-115148056D01*
X124989975Y-115047761D01*
X124989976Y-115047759D01*
X124989977Y-115047756D01*
X125068995Y-114899922D01*
X125175341Y-114770341D01*
X125304922Y-114663995D01*
X125452756Y-114584977D01*
X125452759Y-114584976D01*
X125452761Y-114584975D01*
X125613175Y-114536314D01*
X125613176Y-114536314D01*
X125613179Y-114536313D01*
X125738196Y-114524000D01*
X125821804Y-114524000D01*
X125946821Y-114536313D01*
X125946821Y-114536313D01*
G37*
G36*
X128486821Y-114536313D02*
X128486824Y-114536314D01*
X128486825Y-114536314D01*
X128647239Y-114584975D01*
X128647241Y-114584976D01*
X128647244Y-114584977D01*
X128795078Y-114663995D01*
X128924659Y-114770341D01*
X129031005Y-114899922D01*
X129110023Y-115047756D01*
X129110024Y-115047759D01*
X129110025Y-115047761D01*
X129140449Y-115148056D01*
X129158687Y-115208179D01*
X129175117Y-115375000D01*
X129158687Y-115541821D01*
X129158686Y-115541824D01*
X129158686Y-115541825D01*
X129136905Y-115613629D01*
X129110023Y-115702244D01*
X129031005Y-115850078D01*
X128924659Y-115979659D01*
X128795078Y-116086005D01*
X128647244Y-116165023D01*
X128647241Y-116165024D01*
X128647239Y-116165025D01*
X128486825Y-116213686D01*
X128486824Y-116213686D01*
X128486821Y-116213687D01*
X128361804Y-116226000D01*
X128278196Y-116226000D01*
X128153179Y-116213687D01*
X128153176Y-116213686D01*
X128153175Y-116213686D01*
X127992761Y-116165025D01*
X127992759Y-116165024D01*
X127992756Y-116165023D01*
X127844922Y-116086005D01*
X127715341Y-115979659D01*
X127608995Y-115850078D01*
X127529977Y-115702244D01*
X127503096Y-115613629D01*
X127481314Y-115541825D01*
X127481314Y-115541824D01*
X127481313Y-115541821D01*
X127464883Y-115375000D01*
X127481313Y-115208179D01*
X127499551Y-115148056D01*
X127529975Y-115047761D01*
X127529976Y-115047759D01*
X127529977Y-115047756D01*
X127608995Y-114899922D01*
X127715341Y-114770341D01*
X127844922Y-114663995D01*
X127992756Y-114584977D01*
X127992759Y-114584976D01*
X127992761Y-114584975D01*
X128153175Y-114536314D01*
X128153176Y-114536314D01*
X128153179Y-114536313D01*
X128278196Y-114524000D01*
X128361804Y-114524000D01*
X128486821Y-114536313D01*
X128486821Y-114536313D01*
G37*
G36*
X131026821Y-114536313D02*
X131026824Y-114536314D01*
X131026825Y-114536314D01*
X131187239Y-114584975D01*
X131187241Y-114584976D01*
X131187244Y-114584977D01*
X131335078Y-114663995D01*
X131464659Y-114770341D01*
X131571005Y-114899922D01*
X131650023Y-115047756D01*
X131650024Y-115047759D01*
X131650025Y-115047761D01*
X131680449Y-115148056D01*
X131698687Y-115208179D01*
X131715117Y-115375000D01*
X131698687Y-115541821D01*
X131698686Y-115541824D01*
X131698686Y-115541825D01*
X131676905Y-115613629D01*
X131650023Y-115702244D01*
X131571005Y-115850078D01*
X131464659Y-115979659D01*
X131335078Y-116086005D01*
X131187244Y-116165023D01*
X131187241Y-116165024D01*
X131187239Y-116165025D01*
X131026825Y-116213686D01*
X131026824Y-116213686D01*
X131026821Y-116213687D01*
X130901804Y-116226000D01*
X130818196Y-116226000D01*
X130693179Y-116213687D01*
X130693176Y-116213686D01*
X130693175Y-116213686D01*
X130532761Y-116165025D01*
X130532759Y-116165024D01*
X130532756Y-116165023D01*
X130384922Y-116086005D01*
X130255341Y-115979659D01*
X130148995Y-115850078D01*
X130069977Y-115702244D01*
X130043096Y-115613629D01*
X130021314Y-115541825D01*
X130021314Y-115541824D01*
X130021313Y-115541821D01*
X130004883Y-115375000D01*
X130021313Y-115208179D01*
X130039551Y-115148056D01*
X130069975Y-115047761D01*
X130069976Y-115047759D01*
X130069977Y-115047756D01*
X130148995Y-114899922D01*
X130255341Y-114770341D01*
X130384922Y-114663995D01*
X130532756Y-114584977D01*
X130532759Y-114584976D01*
X130532761Y-114584975D01*
X130693175Y-114536314D01*
X130693176Y-114536314D01*
X130693179Y-114536313D01*
X130818196Y-114524000D01*
X130901804Y-114524000D01*
X131026821Y-114536313D01*
X131026821Y-114536313D01*
G37*
G36*
X133566821Y-114536313D02*
X133566824Y-114536314D01*
X133566825Y-114536314D01*
X133727239Y-114584975D01*
X133727241Y-114584976D01*
X133727244Y-114584977D01*
X133875078Y-114663995D01*
X134004659Y-114770341D01*
X134111005Y-114899922D01*
X134190023Y-115047756D01*
X134190024Y-115047759D01*
X134190025Y-115047761D01*
X134220449Y-115148056D01*
X134238687Y-115208179D01*
X134255117Y-115375000D01*
X134238687Y-115541821D01*
X134238686Y-115541824D01*
X134238686Y-115541825D01*
X134216905Y-115613629D01*
X134190023Y-115702244D01*
X134111005Y-115850078D01*
X134004659Y-115979659D01*
X133875078Y-116086005D01*
X133727244Y-116165023D01*
X133727241Y-116165024D01*
X133727239Y-116165025D01*
X133566825Y-116213686D01*
X133566824Y-116213686D01*
X133566821Y-116213687D01*
X133441804Y-116226000D01*
X133358196Y-116226000D01*
X133233179Y-116213687D01*
X133233176Y-116213686D01*
X133233175Y-116213686D01*
X133072761Y-116165025D01*
X133072759Y-116165024D01*
X133072756Y-116165023D01*
X132924922Y-116086005D01*
X132795341Y-115979659D01*
X132688995Y-115850078D01*
X132609977Y-115702244D01*
X132583096Y-115613629D01*
X132561314Y-115541825D01*
X132561314Y-115541824D01*
X132561313Y-115541821D01*
X132544883Y-115375000D01*
X132561313Y-115208179D01*
X132579551Y-115148056D01*
X132609975Y-115047761D01*
X132609976Y-115047759D01*
X132609977Y-115047756D01*
X132688995Y-114899922D01*
X132795341Y-114770341D01*
X132924922Y-114663995D01*
X133072756Y-114584977D01*
X133072759Y-114584976D01*
X133072761Y-114584975D01*
X133233175Y-114536314D01*
X133233176Y-114536314D01*
X133233179Y-114536313D01*
X133358196Y-114524000D01*
X133441804Y-114524000D01*
X133566821Y-114536313D01*
X133566821Y-114536313D01*
G37*
G36*
X136106821Y-114536313D02*
X136106824Y-114536314D01*
X136106825Y-114536314D01*
X136267239Y-114584975D01*
X136267241Y-114584976D01*
X136267244Y-114584977D01*
X136415078Y-114663995D01*
X136544659Y-114770341D01*
X136651005Y-114899922D01*
X136730023Y-115047756D01*
X136730024Y-115047759D01*
X136730025Y-115047761D01*
X136760449Y-115148056D01*
X136778687Y-115208179D01*
X136795117Y-115375000D01*
X136778687Y-115541821D01*
X136778686Y-115541824D01*
X136778686Y-115541825D01*
X136756905Y-115613629D01*
X136730023Y-115702244D01*
X136651005Y-115850078D01*
X136544659Y-115979659D01*
X136415078Y-116086005D01*
X136267244Y-116165023D01*
X136267241Y-116165024D01*
X136267239Y-116165025D01*
X136106825Y-116213686D01*
X136106824Y-116213686D01*
X136106821Y-116213687D01*
X135981804Y-116226000D01*
X135898196Y-116226000D01*
X135773179Y-116213687D01*
X135773176Y-116213686D01*
X135773175Y-116213686D01*
X135612761Y-116165025D01*
X135612759Y-116165024D01*
X135612756Y-116165023D01*
X135464922Y-116086005D01*
X135335341Y-115979659D01*
X135228995Y-115850078D01*
X135149977Y-115702244D01*
X135123096Y-115613629D01*
X135101314Y-115541825D01*
X135101314Y-115541824D01*
X135101313Y-115541821D01*
X135084883Y-115375000D01*
X135101313Y-115208179D01*
X135119551Y-115148056D01*
X135149975Y-115047761D01*
X135149976Y-115047759D01*
X135149977Y-115047756D01*
X135228995Y-114899922D01*
X135335341Y-114770341D01*
X135464922Y-114663995D01*
X135612756Y-114584977D01*
X135612759Y-114584976D01*
X135612761Y-114584975D01*
X135773175Y-114536314D01*
X135773176Y-114536314D01*
X135773179Y-114536313D01*
X135898196Y-114524000D01*
X135981804Y-114524000D01*
X136106821Y-114536313D01*
X136106821Y-114536313D01*
G37*
G36*
X138646821Y-114536313D02*
X138646824Y-114536314D01*
X138646825Y-114536314D01*
X138807239Y-114584975D01*
X138807241Y-114584976D01*
X138807244Y-114584977D01*
X138955078Y-114663995D01*
X139084659Y-114770341D01*
X139191005Y-114899922D01*
X139270023Y-115047756D01*
X139270024Y-115047759D01*
X139270025Y-115047761D01*
X139300449Y-115148056D01*
X139318687Y-115208179D01*
X139335117Y-115375000D01*
X139318687Y-115541821D01*
X139318686Y-115541824D01*
X139318686Y-115541825D01*
X139296905Y-115613629D01*
X139270023Y-115702244D01*
X139191005Y-115850078D01*
X139084659Y-115979659D01*
X138955078Y-116086005D01*
X138807244Y-116165023D01*
X138807241Y-116165024D01*
X138807239Y-116165025D01*
X138646825Y-116213686D01*
X138646824Y-116213686D01*
X138646821Y-116213687D01*
X138521804Y-116226000D01*
X138438196Y-116226000D01*
X138313179Y-116213687D01*
X138313176Y-116213686D01*
X138313175Y-116213686D01*
X138152761Y-116165025D01*
X138152759Y-116165024D01*
X138152756Y-116165023D01*
X138004922Y-116086005D01*
X137875341Y-115979659D01*
X137768995Y-115850078D01*
X137689977Y-115702244D01*
X137663096Y-115613629D01*
X137641314Y-115541825D01*
X137641314Y-115541824D01*
X137641313Y-115541821D01*
X137624883Y-115375000D01*
X137641313Y-115208179D01*
X137659551Y-115148056D01*
X137689975Y-115047761D01*
X137689976Y-115047759D01*
X137689977Y-115047756D01*
X137768995Y-114899922D01*
X137875341Y-114770341D01*
X138004922Y-114663995D01*
X138152756Y-114584977D01*
X138152759Y-114584976D01*
X138152761Y-114584975D01*
X138313175Y-114536314D01*
X138313176Y-114536314D01*
X138313179Y-114536313D01*
X138438196Y-114524000D01*
X138521804Y-114524000D01*
X138646821Y-114536313D01*
X138646821Y-114536313D01*
G37*
G36*
X139331000Y-108306000D02*
X137629000Y-108306000D01*
X137629000Y-106604000D01*
X139331000Y-106604000D01*
X139331000Y-108306000D01*
X139331000Y-108306000D01*
G37*
G36*
X136106821Y-106616313D02*
X136106824Y-106616314D01*
X136106825Y-106616314D01*
X136267239Y-106664975D01*
X136267241Y-106664976D01*
X136267244Y-106664977D01*
X136415078Y-106743995D01*
X136544659Y-106850341D01*
X136651005Y-106979922D01*
X136730023Y-107127756D01*
X136778687Y-107288179D01*
X136795117Y-107455000D01*
X136778687Y-107621821D01*
X136730023Y-107782244D01*
X136651005Y-107930078D01*
X136544659Y-108059659D01*
X136415078Y-108166005D01*
X136267244Y-108245023D01*
X136267241Y-108245024D01*
X136267239Y-108245025D01*
X136106825Y-108293686D01*
X136106824Y-108293686D01*
X136106821Y-108293687D01*
X135981804Y-108306000D01*
X135898196Y-108306000D01*
X135773179Y-108293687D01*
X135773176Y-108293686D01*
X135773175Y-108293686D01*
X135612761Y-108245025D01*
X135612759Y-108245024D01*
X135612756Y-108245023D01*
X135464922Y-108166005D01*
X135335341Y-108059659D01*
X135228995Y-107930078D01*
X135149977Y-107782244D01*
X135101313Y-107621821D01*
X135084883Y-107455000D01*
X135101313Y-107288179D01*
X135149977Y-107127756D01*
X135228995Y-106979922D01*
X135335341Y-106850341D01*
X135464922Y-106743995D01*
X135612756Y-106664977D01*
X135612759Y-106664976D01*
X135612761Y-106664975D01*
X135773175Y-106616314D01*
X135773176Y-106616314D01*
X135773179Y-106616313D01*
X135898196Y-106604000D01*
X135981804Y-106604000D01*
X136106821Y-106616313D01*
X136106821Y-106616313D01*
G37*
G36*
X125946821Y-106616313D02*
X125946824Y-106616314D01*
X125946825Y-106616314D01*
X126107239Y-106664975D01*
X126107241Y-106664976D01*
X126107244Y-106664977D01*
X126255078Y-106743995D01*
X126384659Y-106850341D01*
X126491005Y-106979922D01*
X126570023Y-107127756D01*
X126618687Y-107288179D01*
X126635117Y-107455000D01*
X126618687Y-107621821D01*
X126570023Y-107782244D01*
X126491005Y-107930078D01*
X126384659Y-108059659D01*
X126255078Y-108166005D01*
X126107244Y-108245023D01*
X126107241Y-108245024D01*
X126107239Y-108245025D01*
X125946825Y-108293686D01*
X125946824Y-108293686D01*
X125946821Y-108293687D01*
X125821804Y-108306000D01*
X125738196Y-108306000D01*
X125613179Y-108293687D01*
X125613176Y-108293686D01*
X125613175Y-108293686D01*
X125452761Y-108245025D01*
X125452759Y-108245024D01*
X125452756Y-108245023D01*
X125304922Y-108166005D01*
X125175341Y-108059659D01*
X125068995Y-107930078D01*
X124989977Y-107782244D01*
X124941313Y-107621821D01*
X124924883Y-107455000D01*
X124941313Y-107288179D01*
X124989977Y-107127756D01*
X125068995Y-106979922D01*
X125175341Y-106850341D01*
X125304922Y-106743995D01*
X125452756Y-106664977D01*
X125452759Y-106664976D01*
X125452761Y-106664975D01*
X125613175Y-106616314D01*
X125613176Y-106616314D01*
X125613179Y-106616313D01*
X125738196Y-106604000D01*
X125821804Y-106604000D01*
X125946821Y-106616313D01*
X125946821Y-106616313D01*
G37*
G36*
X133566821Y-106616313D02*
X133566824Y-106616314D01*
X133566825Y-106616314D01*
X133727239Y-106664975D01*
X133727241Y-106664976D01*
X133727244Y-106664977D01*
X133875078Y-106743995D01*
X134004659Y-106850341D01*
X134111005Y-106979922D01*
X134190023Y-107127756D01*
X134238687Y-107288179D01*
X134255117Y-107455000D01*
X134238687Y-107621821D01*
X134190023Y-107782244D01*
X134111005Y-107930078D01*
X134004659Y-108059659D01*
X133875078Y-108166005D01*
X133727244Y-108245023D01*
X133727241Y-108245024D01*
X133727239Y-108245025D01*
X133566825Y-108293686D01*
X133566824Y-108293686D01*
X133566821Y-108293687D01*
X133441804Y-108306000D01*
X133358196Y-108306000D01*
X133233179Y-108293687D01*
X133233176Y-108293686D01*
X133233175Y-108293686D01*
X133072761Y-108245025D01*
X133072759Y-108245024D01*
X133072756Y-108245023D01*
X132924922Y-108166005D01*
X132795341Y-108059659D01*
X132688995Y-107930078D01*
X132609977Y-107782244D01*
X132561313Y-107621821D01*
X132544883Y-107455000D01*
X132561313Y-107288179D01*
X132609977Y-107127756D01*
X132688995Y-106979922D01*
X132795341Y-106850341D01*
X132924922Y-106743995D01*
X133072756Y-106664977D01*
X133072759Y-106664976D01*
X133072761Y-106664975D01*
X133233175Y-106616314D01*
X133233176Y-106616314D01*
X133233179Y-106616313D01*
X133358196Y-106604000D01*
X133441804Y-106604000D01*
X133566821Y-106616313D01*
X133566821Y-106616313D01*
G37*
G36*
X128486821Y-106616313D02*
X128486824Y-106616314D01*
X128486825Y-106616314D01*
X128647239Y-106664975D01*
X128647241Y-106664976D01*
X128647244Y-106664977D01*
X128795078Y-106743995D01*
X128924659Y-106850341D01*
X129031005Y-106979922D01*
X129110023Y-107127756D01*
X129158687Y-107288179D01*
X129175117Y-107455000D01*
X129158687Y-107621821D01*
X129110023Y-107782244D01*
X129031005Y-107930078D01*
X128924659Y-108059659D01*
X128795078Y-108166005D01*
X128647244Y-108245023D01*
X128647241Y-108245024D01*
X128647239Y-108245025D01*
X128486825Y-108293686D01*
X128486824Y-108293686D01*
X128486821Y-108293687D01*
X128361804Y-108306000D01*
X128278196Y-108306000D01*
X128153179Y-108293687D01*
X128153176Y-108293686D01*
X128153175Y-108293686D01*
X127992761Y-108245025D01*
X127992759Y-108245024D01*
X127992756Y-108245023D01*
X127844922Y-108166005D01*
X127715341Y-108059659D01*
X127608995Y-107930078D01*
X127529977Y-107782244D01*
X127481313Y-107621821D01*
X127464883Y-107455000D01*
X127481313Y-107288179D01*
X127529977Y-107127756D01*
X127608995Y-106979922D01*
X127715341Y-106850341D01*
X127844922Y-106743995D01*
X127992756Y-106664977D01*
X127992759Y-106664976D01*
X127992761Y-106664975D01*
X128153175Y-106616314D01*
X128153176Y-106616314D01*
X128153179Y-106616313D01*
X128278196Y-106604000D01*
X128361804Y-106604000D01*
X128486821Y-106616313D01*
X128486821Y-106616313D01*
G37*
G36*
X120866821Y-106616313D02*
X120866824Y-106616314D01*
X120866825Y-106616314D01*
X121027239Y-106664975D01*
X121027241Y-106664976D01*
X121027244Y-106664977D01*
X121175078Y-106743995D01*
X121304659Y-106850341D01*
X121411005Y-106979922D01*
X121490023Y-107127756D01*
X121538687Y-107288179D01*
X121555117Y-107455000D01*
X121538687Y-107621821D01*
X121490023Y-107782244D01*
X121411005Y-107930078D01*
X121304659Y-108059659D01*
X121175078Y-108166005D01*
X121027244Y-108245023D01*
X121027241Y-108245024D01*
X121027239Y-108245025D01*
X120866825Y-108293686D01*
X120866824Y-108293686D01*
X120866821Y-108293687D01*
X120741804Y-108306000D01*
X120658196Y-108306000D01*
X120533179Y-108293687D01*
X120533176Y-108293686D01*
X120533175Y-108293686D01*
X120372761Y-108245025D01*
X120372759Y-108245024D01*
X120372756Y-108245023D01*
X120224922Y-108166005D01*
X120095341Y-108059659D01*
X119988995Y-107930078D01*
X119909977Y-107782244D01*
X119861313Y-107621821D01*
X119844883Y-107455000D01*
X119861313Y-107288179D01*
X119909977Y-107127756D01*
X119988995Y-106979922D01*
X120095341Y-106850341D01*
X120224922Y-106743995D01*
X120372756Y-106664977D01*
X120372759Y-106664976D01*
X120372761Y-106664975D01*
X120533175Y-106616314D01*
X120533176Y-106616314D01*
X120533179Y-106616313D01*
X120658196Y-106604000D01*
X120741804Y-106604000D01*
X120866821Y-106616313D01*
X120866821Y-106616313D01*
G37*
G36*
X123406821Y-106616313D02*
X123406824Y-106616314D01*
X123406825Y-106616314D01*
X123567239Y-106664975D01*
X123567241Y-106664976D01*
X123567244Y-106664977D01*
X123715078Y-106743995D01*
X123844659Y-106850341D01*
X123951005Y-106979922D01*
X124030023Y-107127756D01*
X124078687Y-107288179D01*
X124095117Y-107455000D01*
X124078687Y-107621821D01*
X124030023Y-107782244D01*
X123951005Y-107930078D01*
X123844659Y-108059659D01*
X123715078Y-108166005D01*
X123567244Y-108245023D01*
X123567241Y-108245024D01*
X123567239Y-108245025D01*
X123406825Y-108293686D01*
X123406824Y-108293686D01*
X123406821Y-108293687D01*
X123281804Y-108306000D01*
X123198196Y-108306000D01*
X123073179Y-108293687D01*
X123073176Y-108293686D01*
X123073175Y-108293686D01*
X122912761Y-108245025D01*
X122912759Y-108245024D01*
X122912756Y-108245023D01*
X122764922Y-108166005D01*
X122635341Y-108059659D01*
X122528995Y-107930078D01*
X122449977Y-107782244D01*
X122401313Y-107621821D01*
X122384883Y-107455000D01*
X122401313Y-107288179D01*
X122449977Y-107127756D01*
X122528995Y-106979922D01*
X122635341Y-106850341D01*
X122764922Y-106743995D01*
X122912756Y-106664977D01*
X122912759Y-106664976D01*
X122912761Y-106664975D01*
X123073175Y-106616314D01*
X123073176Y-106616314D01*
X123073179Y-106616313D01*
X123198196Y-106604000D01*
X123281804Y-106604000D01*
X123406821Y-106616313D01*
X123406821Y-106616313D01*
G37*
G36*
X131026821Y-106616313D02*
X131026824Y-106616314D01*
X131026825Y-106616314D01*
X131187239Y-106664975D01*
X131187241Y-106664976D01*
X131187244Y-106664977D01*
X131335078Y-106743995D01*
X131464659Y-106850341D01*
X131571005Y-106979922D01*
X131650023Y-107127756D01*
X131698687Y-107288179D01*
X131715117Y-107455000D01*
X131698687Y-107621821D01*
X131650023Y-107782244D01*
X131571005Y-107930078D01*
X131464659Y-108059659D01*
X131335078Y-108166005D01*
X131187244Y-108245023D01*
X131187241Y-108245024D01*
X131187239Y-108245025D01*
X131026825Y-108293686D01*
X131026824Y-108293686D01*
X131026821Y-108293687D01*
X130901804Y-108306000D01*
X130818196Y-108306000D01*
X130693179Y-108293687D01*
X130693176Y-108293686D01*
X130693175Y-108293686D01*
X130532761Y-108245025D01*
X130532759Y-108245024D01*
X130532756Y-108245023D01*
X130384922Y-108166005D01*
X130255341Y-108059659D01*
X130148995Y-107930078D01*
X130069977Y-107782244D01*
X130021313Y-107621821D01*
X130004883Y-107455000D01*
X130021313Y-107288179D01*
X130069977Y-107127756D01*
X130148995Y-106979922D01*
X130255341Y-106850341D01*
X130384922Y-106743995D01*
X130532756Y-106664977D01*
X130532759Y-106664976D01*
X130532761Y-106664975D01*
X130693175Y-106616314D01*
X130693176Y-106616314D01*
X130693179Y-106616313D01*
X130818196Y-106604000D01*
X130901804Y-106604000D01*
X131026821Y-106616313D01*
X131026821Y-106616313D01*
G37*
G36*
X152851000Y-98651000D02*
X148549000Y-98651000D01*
X148549000Y-97199000D01*
X152851000Y-97199000D01*
X152851000Y-98651000D01*
X152851000Y-98651000D01*
G37*
G36*
X109251000Y-98651000D02*
X104949000Y-98651000D01*
X104949000Y-97199000D01*
X109251000Y-97199000D01*
X109251000Y-98651000D01*
X109251000Y-98651000D01*
G37*
G36*
X109251000Y-93001000D02*
X104949000Y-93001000D01*
X104949000Y-91549000D01*
X109251000Y-91549000D01*
X109251000Y-93001000D01*
X109251000Y-93001000D01*
G37*
G36*
X152851000Y-93001000D02*
X148549000Y-93001000D01*
X148549000Y-91549000D01*
X152851000Y-91549000D01*
X152851000Y-93001000D01*
X152851000Y-93001000D01*
G37*
G36*
X117410442Y-86285518D02*
X117476627Y-86292037D01*
X117589853Y-86326384D01*
X117646467Y-86343557D01*
X117785087Y-86417652D01*
X117802991Y-86427222D01*
X117838729Y-86456552D01*
X117940186Y-86539814D01*
X118023448Y-86641271D01*
X118052778Y-86677009D01*
X118052779Y-86677011D01*
X118136443Y-86833533D01*
X118136443Y-86833534D01*
X118187963Y-87003373D01*
X118205359Y-87180000D01*
X118187963Y-87356627D01*
X118153616Y-87469853D01*
X118136443Y-87526467D01*
X118062348Y-87665087D01*
X118052778Y-87682991D01*
X118023448Y-87718729D01*
X117940186Y-87820186D01*
X117838729Y-87903448D01*
X117802991Y-87932778D01*
X117802989Y-87932779D01*
X117646467Y-88016443D01*
X117589853Y-88033616D01*
X117476627Y-88067963D01*
X117410443Y-88074481D01*
X117344260Y-88081000D01*
X117255740Y-88081000D01*
X117189557Y-88074481D01*
X117123373Y-88067963D01*
X117010147Y-88033616D01*
X116953533Y-88016443D01*
X116797011Y-87932779D01*
X116797009Y-87932778D01*
X116761271Y-87903448D01*
X116659814Y-87820186D01*
X116576552Y-87718729D01*
X116547222Y-87682991D01*
X116537652Y-87665087D01*
X116463557Y-87526467D01*
X116446384Y-87469853D01*
X116412037Y-87356627D01*
X116394641Y-87180000D01*
X116412037Y-87003373D01*
X116463557Y-86833534D01*
X116463557Y-86833533D01*
X116547221Y-86677011D01*
X116547222Y-86677009D01*
X116576552Y-86641271D01*
X116659814Y-86539814D01*
X116761271Y-86456552D01*
X116797009Y-86427222D01*
X116814913Y-86417652D01*
X116953533Y-86343557D01*
X117010147Y-86326384D01*
X117123373Y-86292037D01*
X117189558Y-86285518D01*
X117255740Y-86279000D01*
X117344260Y-86279000D01*
X117410442Y-86285518D01*
X117410442Y-86285518D01*
G37*
G36*
X119950442Y-86285518D02*
X120016627Y-86292037D01*
X120129853Y-86326384D01*
X120186467Y-86343557D01*
X120325087Y-86417652D01*
X120342991Y-86427222D01*
X120378729Y-86456552D01*
X120480186Y-86539814D01*
X120563448Y-86641271D01*
X120592778Y-86677009D01*
X120592779Y-86677011D01*
X120676443Y-86833533D01*
X120676443Y-86833534D01*
X120727963Y-87003373D01*
X120745359Y-87180000D01*
X120727963Y-87356627D01*
X120693616Y-87469853D01*
X120676443Y-87526467D01*
X120602348Y-87665087D01*
X120592778Y-87682991D01*
X120563448Y-87718729D01*
X120480186Y-87820186D01*
X120378729Y-87903448D01*
X120342991Y-87932778D01*
X120342989Y-87932779D01*
X120186467Y-88016443D01*
X120129853Y-88033616D01*
X120016627Y-88067963D01*
X119950443Y-88074481D01*
X119884260Y-88081000D01*
X119795740Y-88081000D01*
X119729557Y-88074481D01*
X119663373Y-88067963D01*
X119550147Y-88033616D01*
X119493533Y-88016443D01*
X119337011Y-87932779D01*
X119337009Y-87932778D01*
X119301271Y-87903448D01*
X119199814Y-87820186D01*
X119116552Y-87718729D01*
X119087222Y-87682991D01*
X119077652Y-87665087D01*
X119003557Y-87526467D01*
X118986384Y-87469853D01*
X118952037Y-87356627D01*
X118934641Y-87180000D01*
X118952037Y-87003373D01*
X119003557Y-86833534D01*
X119003557Y-86833533D01*
X119087221Y-86677011D01*
X119087222Y-86677009D01*
X119116552Y-86641271D01*
X119199814Y-86539814D01*
X119301271Y-86456552D01*
X119337009Y-86427222D01*
X119354913Y-86417652D01*
X119493533Y-86343557D01*
X119550147Y-86326384D01*
X119663373Y-86292037D01*
X119729558Y-86285518D01*
X119795740Y-86279000D01*
X119884260Y-86279000D01*
X119950442Y-86285518D01*
X119950442Y-86285518D01*
G37*
G36*
X117410443Y-83745519D02*
X117476627Y-83752037D01*
X117589853Y-83786384D01*
X117646467Y-83803557D01*
X117785087Y-83877652D01*
X117802991Y-83887222D01*
X117838729Y-83916552D01*
X117940186Y-83999814D01*
X118023448Y-84101271D01*
X118052778Y-84137009D01*
X118052779Y-84137011D01*
X118136443Y-84293533D01*
X118136443Y-84293534D01*
X118187963Y-84463373D01*
X118205359Y-84640000D01*
X118187963Y-84816627D01*
X118153616Y-84929853D01*
X118136443Y-84986467D01*
X118062348Y-85125087D01*
X118052778Y-85142991D01*
X118023448Y-85178729D01*
X117940186Y-85280186D01*
X117838729Y-85363448D01*
X117802991Y-85392778D01*
X117802989Y-85392779D01*
X117646467Y-85476443D01*
X117589853Y-85493616D01*
X117476627Y-85527963D01*
X117410443Y-85534481D01*
X117344260Y-85541000D01*
X117255740Y-85541000D01*
X117189557Y-85534481D01*
X117123373Y-85527963D01*
X117010147Y-85493616D01*
X116953533Y-85476443D01*
X116797011Y-85392779D01*
X116797009Y-85392778D01*
X116761271Y-85363448D01*
X116659814Y-85280186D01*
X116576552Y-85178729D01*
X116547222Y-85142991D01*
X116537652Y-85125087D01*
X116463557Y-84986467D01*
X116446384Y-84929853D01*
X116412037Y-84816627D01*
X116394641Y-84640000D01*
X116412037Y-84463373D01*
X116463557Y-84293534D01*
X116463557Y-84293533D01*
X116547221Y-84137011D01*
X116547222Y-84137009D01*
X116576552Y-84101271D01*
X116659814Y-83999814D01*
X116761271Y-83916552D01*
X116797009Y-83887222D01*
X116814913Y-83877652D01*
X116953533Y-83803557D01*
X117010147Y-83786384D01*
X117123373Y-83752037D01*
X117189557Y-83745519D01*
X117255740Y-83739000D01*
X117344260Y-83739000D01*
X117410443Y-83745519D01*
X117410443Y-83745519D01*
G37*
G36*
X119950443Y-83745519D02*
X120016627Y-83752037D01*
X120129853Y-83786384D01*
X120186467Y-83803557D01*
X120325087Y-83877652D01*
X120342991Y-83887222D01*
X120378729Y-83916552D01*
X120480186Y-83999814D01*
X120563448Y-84101271D01*
X120592778Y-84137009D01*
X120592779Y-84137011D01*
X120676443Y-84293533D01*
X120676443Y-84293534D01*
X120727963Y-84463373D01*
X120745359Y-84640000D01*
X120727963Y-84816627D01*
X120693616Y-84929853D01*
X120676443Y-84986467D01*
X120602348Y-85125087D01*
X120592778Y-85142991D01*
X120563448Y-85178729D01*
X120480186Y-85280186D01*
X120378729Y-85363448D01*
X120342991Y-85392778D01*
X120342989Y-85392779D01*
X120186467Y-85476443D01*
X120129853Y-85493616D01*
X120016627Y-85527963D01*
X119950443Y-85534481D01*
X119884260Y-85541000D01*
X119795740Y-85541000D01*
X119729557Y-85534481D01*
X119663373Y-85527963D01*
X119550147Y-85493616D01*
X119493533Y-85476443D01*
X119337011Y-85392779D01*
X119337009Y-85392778D01*
X119301271Y-85363448D01*
X119199814Y-85280186D01*
X119116552Y-85178729D01*
X119087222Y-85142991D01*
X119077652Y-85125087D01*
X119003557Y-84986467D01*
X118986384Y-84929853D01*
X118952037Y-84816627D01*
X118934641Y-84640000D01*
X118952037Y-84463373D01*
X119003557Y-84293534D01*
X119003557Y-84293533D01*
X119087221Y-84137011D01*
X119087222Y-84137009D01*
X119116552Y-84101271D01*
X119199814Y-83999814D01*
X119301271Y-83916552D01*
X119337009Y-83887222D01*
X119354913Y-83877652D01*
X119493533Y-83803557D01*
X119550147Y-83786384D01*
X119663373Y-83752037D01*
X119729557Y-83745519D01*
X119795740Y-83739000D01*
X119884260Y-83739000D01*
X119950443Y-83745519D01*
X119950443Y-83745519D01*
G37*
G36*
X118201000Y-83001000D02*
X116399000Y-83001000D01*
X116399000Y-81199000D01*
X118201000Y-81199000D01*
X118201000Y-83001000D01*
X118201000Y-83001000D01*
G37*
G36*
X119950443Y-81205519D02*
X120016627Y-81212037D01*
X120129853Y-81246384D01*
X120186467Y-81263557D01*
X120325087Y-81337652D01*
X120342991Y-81347222D01*
X120378729Y-81376552D01*
X120480186Y-81459814D01*
X120563448Y-81561271D01*
X120592778Y-81597009D01*
X120592779Y-81597011D01*
X120676443Y-81753533D01*
X120676443Y-81753534D01*
X120727963Y-81923373D01*
X120745359Y-82100000D01*
X120727963Y-82276627D01*
X120693616Y-82389853D01*
X120676443Y-82446467D01*
X120602348Y-82585087D01*
X120592778Y-82602991D01*
X120563448Y-82638729D01*
X120480186Y-82740186D01*
X120378729Y-82823448D01*
X120342991Y-82852778D01*
X120342989Y-82852779D01*
X120186467Y-82936443D01*
X120129853Y-82953616D01*
X120016627Y-82987963D01*
X119950442Y-82994482D01*
X119884260Y-83001000D01*
X119795740Y-83001000D01*
X119729558Y-82994482D01*
X119663373Y-82987963D01*
X119550147Y-82953616D01*
X119493533Y-82936443D01*
X119337011Y-82852779D01*
X119337009Y-82852778D01*
X119301271Y-82823448D01*
X119199814Y-82740186D01*
X119116552Y-82638729D01*
X119087222Y-82602991D01*
X119077652Y-82585087D01*
X119003557Y-82446467D01*
X118986384Y-82389853D01*
X118952037Y-82276627D01*
X118934641Y-82100000D01*
X118952037Y-81923373D01*
X119003557Y-81753534D01*
X119003557Y-81753533D01*
X119087221Y-81597011D01*
X119087222Y-81597009D01*
X119116552Y-81561271D01*
X119199814Y-81459814D01*
X119301271Y-81376552D01*
X119337009Y-81347222D01*
X119354913Y-81337652D01*
X119493533Y-81263557D01*
X119550147Y-81246384D01*
X119663373Y-81212037D01*
X119729557Y-81205519D01*
X119795740Y-81199000D01*
X119884260Y-81199000D01*
X119950443Y-81205519D01*
X119950443Y-81205519D01*
G37*
G36*
X110634239Y-71811467D02*
X110948282Y-71873934D01*
X111539926Y-72119001D01*
X111829523Y-72312504D01*
X112072395Y-72474786D01*
X112525214Y-72927605D01*
X112525216Y-72927608D01*
X112880999Y-73460074D01*
X113076063Y-73931000D01*
X113126066Y-74051719D01*
X113251000Y-74679803D01*
X113251000Y-75320197D01*
X113188533Y-75634239D01*
X113126066Y-75948282D01*
X112880999Y-76539926D01*
X112633265Y-76910685D01*
X112525214Y-77072395D01*
X112072395Y-77525214D01*
X112072392Y-77525216D01*
X111539926Y-77880999D01*
X110948282Y-78126066D01*
X110634239Y-78188533D01*
X110320197Y-78251000D01*
X109679803Y-78251000D01*
X109365761Y-78188533D01*
X109051718Y-78126066D01*
X108460074Y-77880999D01*
X107927608Y-77525216D01*
X107927605Y-77525214D01*
X107474786Y-77072395D01*
X107366735Y-76910685D01*
X107119001Y-76539926D01*
X106873934Y-75948282D01*
X106811467Y-75634239D01*
X106749000Y-75320197D01*
X106749000Y-74679803D01*
X106873934Y-74051719D01*
X106923937Y-73931000D01*
X107119001Y-73460074D01*
X107474784Y-72927608D01*
X107474786Y-72927605D01*
X107927605Y-72474786D01*
X108170477Y-72312504D01*
X108460074Y-72119001D01*
X109051718Y-71873934D01*
X109365761Y-71811467D01*
X109679803Y-71749000D01*
X110320197Y-71749000D01*
X110634239Y-71811467D01*
X110634239Y-71811467D01*
G37*
G36*
X148634239Y-71811467D02*
X148948282Y-71873934D01*
X149539926Y-72119001D01*
X149829523Y-72312504D01*
X150072395Y-72474786D01*
X150525214Y-72927605D01*
X150525216Y-72927608D01*
X150880999Y-73460074D01*
X151076063Y-73931000D01*
X151126066Y-74051719D01*
X151251000Y-74679803D01*
X151251000Y-75320197D01*
X151188533Y-75634239D01*
X151126066Y-75948282D01*
X150880999Y-76539926D01*
X150633265Y-76910685D01*
X150525214Y-77072395D01*
X150072395Y-77525214D01*
X150072392Y-77525216D01*
X149539926Y-77880999D01*
X148948282Y-78126066D01*
X148634239Y-78188533D01*
X148320197Y-78251000D01*
X147679803Y-78251000D01*
X147365761Y-78188533D01*
X147051718Y-78126066D01*
X146460074Y-77880999D01*
X145927608Y-77525216D01*
X145927605Y-77525214D01*
X145474786Y-77072395D01*
X145366735Y-76910685D01*
X145119001Y-76539926D01*
X144873934Y-75948282D01*
X144811467Y-75634239D01*
X144749000Y-75320197D01*
X144749000Y-74679803D01*
X144873934Y-74051719D01*
X144923937Y-73931000D01*
X145119001Y-73460074D01*
X145474784Y-72927608D01*
X145474786Y-72927605D01*
X145927605Y-72474786D01*
X146170477Y-72312504D01*
X146460074Y-72119001D01*
X147051718Y-71873934D01*
X147365761Y-71811467D01*
X147679803Y-71749000D01*
X148320197Y-71749000D01*
X148634239Y-71811467D01*
X148634239Y-71811467D01*
G37*
G36*
X131302383Y-73242489D02*
X131366261Y-73268948D01*
X131423750Y-73307361D01*
X131472639Y-73356250D01*
X131511052Y-73413739D01*
X131537511Y-73477617D01*
X131551000Y-73545430D01*
X131551000Y-73614570D01*
X131537511Y-73682383D01*
X131511052Y-73746261D01*
X131472639Y-73803750D01*
X131423750Y-73852639D01*
X131366261Y-73891052D01*
X131302383Y-73917511D01*
X131234570Y-73931000D01*
X131165430Y-73931000D01*
X131097617Y-73917511D01*
X131033739Y-73891052D01*
X130976250Y-73852639D01*
X130927361Y-73803750D01*
X130888948Y-73746261D01*
X130862489Y-73682383D01*
X130849000Y-73614570D01*
X130849000Y-73545430D01*
X130862489Y-73477617D01*
X130888948Y-73413739D01*
X130927361Y-73356250D01*
X130976250Y-73307361D01*
X131033739Y-73268948D01*
X131097617Y-73242489D01*
X131165430Y-73229000D01*
X131234570Y-73229000D01*
X131302383Y-73242489D01*
X131302383Y-73242489D01*
G37*
G36*
X127302383Y-73242489D02*
X127366261Y-73268948D01*
X127423750Y-73307361D01*
X127472639Y-73356250D01*
X127511052Y-73413739D01*
X127537511Y-73477617D01*
X127551000Y-73545430D01*
X127551000Y-73614570D01*
X127537511Y-73682383D01*
X127511052Y-73746261D01*
X127472639Y-73803750D01*
X127423750Y-73852639D01*
X127366261Y-73891052D01*
X127302383Y-73917511D01*
X127234570Y-73931000D01*
X127165430Y-73931000D01*
X127097617Y-73917511D01*
X127033739Y-73891052D01*
X126976250Y-73852639D01*
X126927361Y-73803750D01*
X126888948Y-73746261D01*
X126862489Y-73682383D01*
X126849000Y-73614570D01*
X126849000Y-73545430D01*
X126862489Y-73477617D01*
X126888948Y-73413739D01*
X126927361Y-73356250D01*
X126976250Y-73307361D01*
X127033739Y-73268948D01*
X127097617Y-73242489D01*
X127165430Y-73229000D01*
X127234570Y-73229000D01*
X127302383Y-73242489D01*
X127302383Y-73242489D01*
G37*
M02*
