G04 #@! TF.GenerationSoftware,KiCad,Pcbnew,(5.0.2)-1*
G04 #@! TF.CreationDate,2019-01-06T11:55:21+11:00*
G04 #@! TF.ProjectId,Gain_Block_Dev_Rev_0,4761696e-5f42-46c6-9f63-6b5f4465765f,rev?*
G04 #@! TF.SameCoordinates,Original*
G04 #@! TF.FileFunction,Copper,L4,Bot*
G04 #@! TF.FilePolarity,Positive*
%FSLAX46Y46*%
G04 Gerber Fmt 4.6, Leading zero omitted, Abs format (unit mm)*
G04 Created by KiCad (PCBNEW (5.0.2)-1) date 6/01/2019 11:55:21*
%MOMM*%
%LPD*%
G01*
G04 APERTURE LIST*
%ADD10C,0.200000*%
G04 #@! TA.AperFunction,ViaPad*
%ADD11C,0.500000*%
G04 #@! TD*
G04 #@! TA.AperFunction,SMDPad,CuDef*
%ADD12R,4.200000X1.350000*%
G04 #@! TD*
G04 #@! TA.AperFunction,ComponentPad*
%ADD13R,1.600000X1.600000*%
G04 #@! TD*
G04 #@! TA.AperFunction,ComponentPad*
%ADD14O,1.600000X1.600000*%
G04 #@! TD*
G04 #@! TA.AperFunction,ComponentPad*
%ADD15C,0.800000*%
G04 #@! TD*
G04 #@! TA.AperFunction,ComponentPad*
%ADD16C,6.400000*%
G04 #@! TD*
G04 #@! TA.AperFunction,ComponentPad*
%ADD17R,1.700000X1.700000*%
G04 #@! TD*
G04 #@! TA.AperFunction,ComponentPad*
%ADD18O,1.700000X1.700000*%
G04 #@! TD*
G04 #@! TA.AperFunction,ViaPad*
%ADD19C,0.450000*%
G04 #@! TD*
G04 #@! TA.AperFunction,ViaPad*
%ADD20C,0.800000*%
G04 #@! TD*
G04 #@! TA.AperFunction,Conductor*
%ADD21C,0.250000*%
G04 #@! TD*
G04 #@! TA.AperFunction,Conductor*
%ADD22C,0.310000*%
G04 #@! TD*
G04 #@! TA.AperFunction,Conductor*
%ADD23C,0.200000*%
G04 #@! TD*
G04 #@! TA.AperFunction,Conductor*
%ADD24C,0.254000*%
G04 #@! TD*
G04 APERTURE END LIST*
G04 #@! TO.C,REF\002A\002A*
D10*
X113485714Y-106578571D02*
X113485714Y-107578571D01*
X113128571Y-106007142D02*
X112771428Y-107078571D01*
X113700000Y-107078571D01*
G04 #@! TD*
D11*
G04 #@! TO.N,GND*
G04 #@! TO.C,U1*
X115800000Y-93300000D03*
X116900000Y-93300000D03*
X118000000Y-93300000D03*
X115800000Y-94350000D03*
X116900000Y-94350000D03*
X118000000Y-94350000D03*
X115800000Y-95400000D03*
X116900000Y-95400000D03*
X118000000Y-95400000D03*
G04 #@! TD*
D12*
G04 #@! TO.P,J2,2*
G04 #@! TO.N,GND*
X107100000Y-97925000D03*
X107100000Y-92275000D03*
G04 #@! TD*
G04 #@! TO.P,J4,2*
G04 #@! TO.N,GND*
X150700000Y-97925000D03*
X150700000Y-92275000D03*
G04 #@! TD*
D13*
G04 #@! TO.P,SW1,1*
G04 #@! TO.N,/nP_S*
X138480000Y-107455000D03*
D14*
G04 #@! TO.P,SW1,9*
G04 #@! TO.N,+3.3VA*
X120700000Y-115375000D03*
G04 #@! TO.P,SW1,2*
G04 #@! TO.N,Net-(R7-Pad1)*
X135940000Y-107455000D03*
G04 #@! TO.P,SW1,10*
G04 #@! TO.N,+3.3VA*
X123240000Y-115375000D03*
G04 #@! TO.P,SW1,3*
G04 #@! TO.N,Net-(R6-Pad1)*
X133400000Y-107455000D03*
G04 #@! TO.P,SW1,11*
G04 #@! TO.N,+3.3VA*
X125780000Y-115375000D03*
G04 #@! TO.P,SW1,4*
G04 #@! TO.N,Net-(R5-Pad1)*
X130860000Y-107455000D03*
G04 #@! TO.P,SW1,12*
G04 #@! TO.N,+3.3VA*
X128320000Y-115375000D03*
G04 #@! TO.P,SW1,5*
G04 #@! TO.N,Net-(R4-Pad1)*
X128320000Y-107455000D03*
G04 #@! TO.P,SW1,13*
G04 #@! TO.N,+3.3VA*
X130860000Y-115375000D03*
G04 #@! TO.P,SW1,6*
G04 #@! TO.N,Net-(R3-Pad1)*
X125780000Y-107455000D03*
G04 #@! TO.P,SW1,14*
G04 #@! TO.N,+3.3VA*
X133400000Y-115375000D03*
G04 #@! TO.P,SW1,7*
G04 #@! TO.N,Net-(R2-Pad1)*
X123240000Y-107455000D03*
G04 #@! TO.P,SW1,15*
G04 #@! TO.N,+3.3VA*
X135940000Y-115375000D03*
G04 #@! TO.P,SW1,8*
G04 #@! TO.N,Net-(R1-Pad1)*
X120700000Y-107455000D03*
G04 #@! TO.P,SW1,16*
G04 #@! TO.N,+3.3VA*
X138480000Y-115375000D03*
G04 #@! TD*
D15*
G04 #@! TO.P,H1,1*
G04 #@! TO.N,GND*
X111697056Y-73302944D03*
X110000000Y-72600000D03*
X108302944Y-73302944D03*
X107600000Y-75000000D03*
X108302944Y-76697056D03*
X110000000Y-77400000D03*
X111697056Y-76697056D03*
X112400000Y-75000000D03*
D16*
X110000000Y-75000000D03*
G04 #@! TD*
G04 #@! TO.P,H2,1*
G04 #@! TO.N,GND*
X148000000Y-113000000D03*
D15*
X150400000Y-113000000D03*
X149697056Y-114697056D03*
X148000000Y-115400000D03*
X146302944Y-114697056D03*
X145600000Y-113000000D03*
X146302944Y-111302944D03*
X148000000Y-110600000D03*
X149697056Y-111302944D03*
G04 #@! TD*
D16*
G04 #@! TO.P,H3,1*
G04 #@! TO.N,GND*
X110000000Y-113000000D03*
D15*
X112400000Y-113000000D03*
X111697056Y-114697056D03*
X110000000Y-115400000D03*
X108302944Y-114697056D03*
X107600000Y-113000000D03*
X108302944Y-111302944D03*
X110000000Y-110600000D03*
X111697056Y-111302944D03*
G04 #@! TD*
G04 #@! TO.P,H4,1*
G04 #@! TO.N,GND*
X149697056Y-73302944D03*
X148000000Y-72600000D03*
X146302944Y-73302944D03*
X145600000Y-75000000D03*
X146302944Y-76697056D03*
X148000000Y-77400000D03*
X149697056Y-76697056D03*
X150400000Y-75000000D03*
D16*
X148000000Y-75000000D03*
G04 #@! TD*
D17*
G04 #@! TO.P,J3,1*
G04 #@! TO.N,/SI*
X117300000Y-82100000D03*
D18*
G04 #@! TO.P,J3,2*
G04 #@! TO.N,+5V*
X119840000Y-82100000D03*
G04 #@! TO.P,J3,3*
G04 #@! TO.N,/LE*
X117300000Y-84640000D03*
G04 #@! TO.P,J3,4*
G04 #@! TO.N,GND*
X119840000Y-84640000D03*
G04 #@! TO.P,J3,5*
G04 #@! TO.N,/CLK*
X117300000Y-87180000D03*
G04 #@! TO.P,J3,6*
G04 #@! TO.N,/RF_PWR*
X119840000Y-87180000D03*
G04 #@! TD*
D19*
G04 #@! TO.N,GND*
X108700000Y-91800000D03*
X108200000Y-91800000D03*
X107700000Y-91800000D03*
X107200000Y-91800000D03*
X106700000Y-91800000D03*
X106200000Y-91800000D03*
X105700000Y-91800000D03*
X105200000Y-91800000D03*
X126100000Y-73700000D03*
X132300000Y-73700000D03*
X133150000Y-71450000D03*
X130350000Y-71450000D03*
X128050000Y-71450000D03*
X125250000Y-71450000D03*
X113400000Y-91950000D03*
X112350000Y-91950000D03*
D20*
X123275000Y-96325000D03*
X125175000Y-96325000D03*
D19*
X142300000Y-86525000D03*
D20*
X140375000Y-84325000D03*
X140375000Y-88150000D03*
X133200000Y-83800000D03*
D19*
X146085000Y-86500000D03*
X142750000Y-83600000D03*
X143850000Y-83600000D03*
X137750000Y-89550000D03*
X136700000Y-89550000D03*
X135700000Y-89550000D03*
X134150000Y-89550000D03*
X138250000Y-91350000D03*
X141500000Y-91300000D03*
X124250000Y-94150000D03*
X128750000Y-91550000D03*
D20*
X130600000Y-83000000D03*
D19*
X107200000Y-98400000D03*
X105700000Y-98400000D03*
X106200000Y-98400000D03*
X107700000Y-98400000D03*
X108200000Y-98400000D03*
X106700000Y-98400000D03*
X108700000Y-98400000D03*
X105200000Y-98400000D03*
X151100000Y-98400000D03*
X150100000Y-98400000D03*
X150600000Y-98400000D03*
X152600000Y-98400000D03*
X149100000Y-98400000D03*
X151600000Y-98400000D03*
X152100000Y-98400000D03*
X149600000Y-98400000D03*
X150600000Y-91800000D03*
X152600000Y-91800000D03*
X149600000Y-91800000D03*
X149100000Y-91800000D03*
X152100000Y-91800000D03*
X151100000Y-91800000D03*
X150100000Y-91800000D03*
X151600000Y-91800000D03*
D20*
X127700000Y-80400000D03*
X127900000Y-75800000D03*
D19*
X110200000Y-94100000D03*
X110200000Y-94100000D03*
X110200000Y-94100000D03*
X110700000Y-94100000D03*
X109700000Y-94100000D03*
X109200000Y-94100000D03*
X109400000Y-96000000D03*
X109900000Y-96000000D03*
X110400000Y-96000000D03*
X110900000Y-96000000D03*
X111400000Y-96000000D03*
X111900000Y-96000000D03*
X112400000Y-96000000D03*
X112900000Y-96000000D03*
X119900000Y-96000000D03*
X120400000Y-96000000D03*
X120900000Y-96000000D03*
X121400000Y-96000000D03*
X121900000Y-96000000D03*
X122400000Y-96000000D03*
X122700000Y-94100000D03*
X122200000Y-94300000D03*
X121700000Y-94200000D03*
X121200000Y-94200000D03*
X123200000Y-94000000D03*
X123700000Y-94000000D03*
X124800000Y-94000000D03*
X125300000Y-94000000D03*
X125800000Y-94000000D03*
X126300000Y-94300000D03*
X126100000Y-96000000D03*
X127500000Y-96000000D03*
X128000000Y-96000000D03*
X128500000Y-96000000D03*
X129000000Y-96100000D03*
X129800000Y-94100000D03*
X130300000Y-94100000D03*
X130800000Y-94200000D03*
X131300000Y-94300000D03*
X131800000Y-94300000D03*
X132300000Y-94200000D03*
X132800000Y-94100000D03*
X133300000Y-94100000D03*
X133800000Y-94100000D03*
X134300000Y-93700000D03*
X134800000Y-93300000D03*
X135300000Y-92800000D03*
X135800000Y-92500000D03*
X136300000Y-92200000D03*
X136800000Y-92200000D03*
X137300000Y-92200000D03*
X136000000Y-95200000D03*
X136500000Y-94700000D03*
X137100000Y-94300000D03*
X137700000Y-94300000D03*
X136600000Y-94100000D03*
X136000000Y-94700000D03*
X137200000Y-93800000D03*
X137800000Y-93800000D03*
X138300000Y-94100000D03*
X138800000Y-94100000D03*
X139300000Y-94100000D03*
X139800000Y-94100000D03*
X140300000Y-94100000D03*
X140800000Y-94100000D03*
X141300000Y-94100000D03*
X142300000Y-94100000D03*
X142800000Y-94100000D03*
X141800000Y-94100000D03*
X143800000Y-94100000D03*
X143300000Y-94100000D03*
X144800000Y-94100000D03*
X144300000Y-94100000D03*
X145800000Y-94100000D03*
X145300000Y-94100000D03*
X147800000Y-94100000D03*
X147300000Y-94100000D03*
X148300000Y-94100000D03*
X146800000Y-94100000D03*
X146300000Y-94100000D03*
X138800000Y-96000000D03*
X139300000Y-96000000D03*
X138300000Y-96000000D03*
X147800000Y-96000000D03*
X142300000Y-96000000D03*
X141800000Y-96000000D03*
X144300000Y-96000000D03*
X140300000Y-96000000D03*
X143800000Y-96000000D03*
X145800000Y-96000000D03*
X144800000Y-96000000D03*
X143300000Y-96000000D03*
X142800000Y-96000000D03*
X139800000Y-96000000D03*
X146800000Y-96000000D03*
X145300000Y-96000000D03*
X141300000Y-96000000D03*
X146300000Y-96000000D03*
X147300000Y-96000000D03*
X148300000Y-96000000D03*
X140800000Y-96000000D03*
X137800000Y-96000000D03*
X137800000Y-96000000D03*
X137800000Y-96000000D03*
X137300000Y-96400000D03*
X136900000Y-96900000D03*
X136600000Y-97400000D03*
X136100000Y-97700000D03*
X135500000Y-97600000D03*
X135000000Y-97300000D03*
X134600000Y-96800000D03*
X134600000Y-96800000D03*
X134600000Y-96800000D03*
X134200000Y-96300000D03*
X133700000Y-96200000D03*
X133200000Y-96200000D03*
X132700000Y-96200000D03*
X132200000Y-96000000D03*
X131700000Y-96000000D03*
X146100000Y-88500000D03*
X146100000Y-90500000D03*
X146100000Y-89500000D03*
X146100000Y-91000000D03*
X146100000Y-90000000D03*
X146100000Y-89000000D03*
X146100000Y-88000000D03*
X144200000Y-88200000D03*
X144200000Y-88700000D03*
X144200000Y-89200000D03*
X144200000Y-90200000D03*
X144200000Y-90700000D03*
X144200000Y-89700000D03*
X143800000Y-91200000D03*
X143400000Y-91700000D03*
X142800000Y-92000000D03*
X142200000Y-92100000D03*
X140700000Y-92000000D03*
X140200000Y-92000000D03*
X139700000Y-92000000D03*
X139700000Y-92000000D03*
X139700000Y-92000000D03*
X139200000Y-92000000D03*
X146000000Y-91500000D03*
X145500000Y-92000000D03*
X145000000Y-92500000D03*
X144500000Y-93000000D03*
X144000000Y-93400000D03*
X143600000Y-88300000D03*
X143000000Y-88300000D03*
X142500000Y-88200000D03*
X141900000Y-88100000D03*
X141300000Y-88100000D03*
X115000000Y-72500000D03*
X120000000Y-72500000D03*
X117500000Y-75000000D03*
X117500000Y-80000000D03*
X115000000Y-77500000D03*
X120000000Y-77500000D03*
X112500000Y-80000000D03*
X110000000Y-82500000D03*
X107500000Y-85000000D03*
X110000000Y-87500000D03*
X107500000Y-90000000D03*
X112500000Y-85000000D03*
X115000000Y-82500000D03*
X122500000Y-75000000D03*
X122500000Y-80000000D03*
X125000000Y-82500000D03*
X122500000Y-90000000D03*
X122500000Y-85000000D03*
X135000000Y-75000000D03*
X140000000Y-75000000D03*
X137500000Y-72500000D03*
X142500000Y-72500000D03*
X142500000Y-77500000D03*
X137500000Y-77500000D03*
X135000000Y-80000000D03*
X140000000Y-80000000D03*
X145000000Y-80000000D03*
X150000000Y-80000000D03*
X147500000Y-82500000D03*
X150000000Y-85000000D03*
X145000000Y-85000000D03*
X147500000Y-87500000D03*
X147500000Y-92500000D03*
X150000000Y-90000000D03*
X147500000Y-97500000D03*
X147500000Y-102500000D03*
X147500000Y-107500000D03*
X150000000Y-105000000D03*
X150000000Y-100000000D03*
X145000000Y-100000000D03*
X145000000Y-105000000D03*
X145000000Y-110000000D03*
X142500000Y-107500000D03*
X142500000Y-102500000D03*
X142500000Y-97500000D03*
X140000000Y-100000000D03*
X140000000Y-105000000D03*
X110000000Y-92500000D03*
X110000000Y-97500000D03*
X107500000Y-100000000D03*
X112500000Y-100000000D03*
X115000000Y-102500000D03*
X117500000Y-105000000D03*
X115000000Y-107500000D03*
X112500000Y-110000000D03*
X110000000Y-105000000D03*
X107500000Y-102500000D03*
X107500000Y-107500000D03*
X115000000Y-112500000D03*
X117500000Y-115000000D03*
X117500000Y-110000000D03*
X122500000Y-100000000D03*
X120000000Y-97500000D03*
X127500000Y-100000000D03*
X142500000Y-112500000D03*
X125000000Y-77500000D03*
G04 #@! TO.N,+3.3VA*
X112350000Y-94200000D03*
X111700000Y-93600000D03*
X134950000Y-87900000D03*
D20*
X134100000Y-82000000D03*
X133200000Y-81200000D03*
D19*
G04 #@! TO.N,/RF_PWR*
X136250000Y-84100000D03*
G04 #@! TO.N,Net-(R1-Pad1)*
X114174990Y-92550000D03*
X119300000Y-103700000D03*
G04 #@! TO.N,Net-(R2-Pad1)*
X115551468Y-91194117D03*
X121950056Y-103850000D03*
G04 #@! TO.N,Net-(R3-Pad1)*
X116125000Y-91500000D03*
X124500000Y-103937514D03*
G04 #@! TO.N,Net-(R4-Pad1)*
X127000000Y-103800000D03*
X116650000Y-91013449D03*
G04 #@! TO.N,Net-(R5-Pad1)*
X129600000Y-103900000D03*
X117175010Y-91400000D03*
G04 #@! TO.N,Net-(R6-Pad1)*
X132200000Y-104000000D03*
X117625000Y-90906053D03*
G04 #@! TO.N,Net-(R7-Pad1)*
X134650000Y-103900000D03*
X118150000Y-90500000D03*
G04 #@! TO.N,/nP_S*
X113649990Y-94500000D03*
X137200000Y-103950000D03*
G04 #@! TD*
D21*
G04 #@! TO.N,/RF_PWR*
X123970000Y-87180000D02*
X119840000Y-87180000D01*
X136250000Y-84100000D02*
X133170000Y-87180000D01*
X133170000Y-87180000D02*
X123970000Y-87180000D01*
D22*
G04 #@! TO.N,Net-(R1-Pad1)*
X121280000Y-107455000D02*
X120700000Y-107455000D01*
D23*
X114174990Y-92550000D02*
X114174990Y-97024990D01*
X114174990Y-97024990D02*
X119300000Y-102150000D01*
X119300000Y-103700000D02*
X119300000Y-102150000D01*
G04 #@! TO.N,Net-(R2-Pad1)*
X114699990Y-92045595D02*
X114699990Y-96599934D01*
X114699990Y-96599934D02*
X121725057Y-103625001D01*
X121725057Y-103625001D02*
X121950056Y-103850000D01*
X115551468Y-91194117D02*
X114699990Y-92045595D01*
G04 #@! TO.N,Net-(R3-Pad1)*
X124487514Y-103937514D02*
X124500000Y-103937514D01*
X116125000Y-91975000D02*
X115100000Y-93000000D01*
X116125000Y-91500000D02*
X116125000Y-91975000D01*
X115100000Y-93000000D02*
X115100000Y-96050000D01*
X115100000Y-96050000D02*
X122400000Y-103350000D01*
X122400000Y-103350000D02*
X123900000Y-103350000D01*
X123900000Y-103350000D02*
X124487514Y-103937514D01*
D22*
G04 #@! TO.N,Net-(R4-Pad1)*
X128675000Y-107810000D02*
X128320000Y-107455000D01*
D23*
X127000000Y-94100020D02*
X125099990Y-92200010D01*
X127000000Y-103800000D02*
X127000000Y-94100020D01*
X125099990Y-92200010D02*
X117181812Y-92200010D01*
X117181812Y-92200010D02*
X116650000Y-91668198D01*
X116650000Y-91013449D02*
X116650000Y-91668198D01*
D22*
G04 #@! TO.N,Net-(R5-Pad1)*
X130675000Y-107640000D02*
X130860000Y-107455000D01*
D23*
X129600000Y-96800000D02*
X129600000Y-103900000D01*
X129600000Y-96000000D02*
X129600000Y-96800000D01*
X125400000Y-91800000D02*
X129600000Y-96000000D01*
X117175010Y-91400000D02*
X117575010Y-91800000D01*
X117575010Y-91800000D02*
X125400000Y-91800000D01*
G04 #@! TO.N,Net-(R6-Pad1)*
X117768947Y-91050000D02*
X117625000Y-90906053D01*
X118500000Y-91050000D02*
X117768947Y-91050000D01*
X118850000Y-91400000D02*
X118500000Y-91050000D01*
X125600000Y-91400000D02*
X118850000Y-91400000D01*
X132200000Y-104000000D02*
X132200000Y-98000000D01*
X132200000Y-98000000D02*
X125600000Y-91400000D01*
G04 #@! TO.N,Net-(R7-Pad1)*
X125819975Y-90969975D02*
X134650000Y-99800000D01*
X119269975Y-90969975D02*
X125819975Y-90969975D01*
X118150000Y-90500000D02*
X118800000Y-90500000D01*
X118800000Y-90500000D02*
X119269975Y-90969975D01*
X134650000Y-99800000D02*
X134650000Y-103900000D01*
G04 #@! TO.N,/nP_S*
X136296448Y-105753552D02*
X137200000Y-104850000D01*
X119103552Y-105753552D02*
X136296448Y-105753552D01*
X118550000Y-105200000D02*
X119103552Y-105753552D01*
X118550000Y-102450000D02*
X118550000Y-105200000D01*
X113649990Y-94500000D02*
X113649990Y-97549990D01*
X113649990Y-97549990D02*
X118550000Y-102450000D01*
X137200000Y-103950000D02*
X137200000Y-104850000D01*
G04 #@! TD*
D24*
G04 #@! TO.N,GND*
G36*
X148760619Y-70772674D02*
X149497187Y-70974176D01*
X150186439Y-71302932D01*
X150806581Y-71748550D01*
X151338003Y-72296934D01*
X151763921Y-72930768D01*
X152070863Y-73629999D01*
X152250429Y-74377944D01*
X152298000Y-75025744D01*
X152298001Y-112968723D01*
X152227326Y-113760619D01*
X152025824Y-114497187D01*
X151697068Y-115186439D01*
X151251452Y-115806578D01*
X150703066Y-116338003D01*
X150069232Y-116763921D01*
X149369997Y-117070864D01*
X148622056Y-117250429D01*
X147974256Y-117298000D01*
X110031266Y-117298000D01*
X109239381Y-117227326D01*
X108502813Y-117025824D01*
X107813561Y-116697068D01*
X107193422Y-116251452D01*
X106694449Y-115736553D01*
X107443052Y-115736553D01*
X107810437Y-116229740D01*
X109213075Y-116821800D01*
X110735516Y-116832027D01*
X112145981Y-116258861D01*
X112189563Y-116229740D01*
X112556948Y-115736553D01*
X110000000Y-113179605D01*
X107443052Y-115736553D01*
X106694449Y-115736553D01*
X106661997Y-115703066D01*
X106236079Y-115069232D01*
X105929136Y-114369997D01*
X105776811Y-113735516D01*
X106167973Y-113735516D01*
X106741139Y-115145981D01*
X106770260Y-115189563D01*
X107263447Y-115556948D01*
X109820395Y-113000000D01*
X110179605Y-113000000D01*
X112736553Y-115556948D01*
X112980804Y-115375000D01*
X119245044Y-115375000D01*
X119355796Y-115931788D01*
X119671191Y-116403809D01*
X120143212Y-116719204D01*
X120559456Y-116802000D01*
X120840544Y-116802000D01*
X121256788Y-116719204D01*
X121728809Y-116403809D01*
X121970000Y-116042842D01*
X122211191Y-116403809D01*
X122683212Y-116719204D01*
X123099456Y-116802000D01*
X123380544Y-116802000D01*
X123796788Y-116719204D01*
X124268809Y-116403809D01*
X124510000Y-116042842D01*
X124751191Y-116403809D01*
X125223212Y-116719204D01*
X125639456Y-116802000D01*
X125920544Y-116802000D01*
X126336788Y-116719204D01*
X126808809Y-116403809D01*
X127050000Y-116042842D01*
X127291191Y-116403809D01*
X127763212Y-116719204D01*
X128179456Y-116802000D01*
X128460544Y-116802000D01*
X128876788Y-116719204D01*
X129348809Y-116403809D01*
X129590000Y-116042842D01*
X129831191Y-116403809D01*
X130303212Y-116719204D01*
X130719456Y-116802000D01*
X131000544Y-116802000D01*
X131416788Y-116719204D01*
X131888809Y-116403809D01*
X132130000Y-116042842D01*
X132371191Y-116403809D01*
X132843212Y-116719204D01*
X133259456Y-116802000D01*
X133540544Y-116802000D01*
X133956788Y-116719204D01*
X134428809Y-116403809D01*
X134670000Y-116042842D01*
X134911191Y-116403809D01*
X135383212Y-116719204D01*
X135799456Y-116802000D01*
X136080544Y-116802000D01*
X136496788Y-116719204D01*
X136968809Y-116403809D01*
X137210000Y-116042842D01*
X137451191Y-116403809D01*
X137923212Y-116719204D01*
X138339456Y-116802000D01*
X138620544Y-116802000D01*
X139036788Y-116719204D01*
X139508809Y-116403809D01*
X139824204Y-115931788D01*
X139863038Y-115736553D01*
X145443052Y-115736553D01*
X145810437Y-116229740D01*
X147213075Y-116821800D01*
X148735516Y-116832027D01*
X150145981Y-116258861D01*
X150189563Y-116229740D01*
X150556948Y-115736553D01*
X148000000Y-113179605D01*
X145443052Y-115736553D01*
X139863038Y-115736553D01*
X139934956Y-115375000D01*
X139824204Y-114818212D01*
X139508809Y-114346191D01*
X139036788Y-114030796D01*
X138620544Y-113948000D01*
X138339456Y-113948000D01*
X137923212Y-114030796D01*
X137451191Y-114346191D01*
X137210000Y-114707158D01*
X136968809Y-114346191D01*
X136496788Y-114030796D01*
X136080544Y-113948000D01*
X135799456Y-113948000D01*
X135383212Y-114030796D01*
X134911191Y-114346191D01*
X134670000Y-114707158D01*
X134428809Y-114346191D01*
X133956788Y-114030796D01*
X133540544Y-113948000D01*
X133259456Y-113948000D01*
X132843212Y-114030796D01*
X132371191Y-114346191D01*
X132130000Y-114707158D01*
X131888809Y-114346191D01*
X131416788Y-114030796D01*
X131000544Y-113948000D01*
X130719456Y-113948000D01*
X130303212Y-114030796D01*
X129831191Y-114346191D01*
X129590000Y-114707158D01*
X129348809Y-114346191D01*
X128876788Y-114030796D01*
X128460544Y-113948000D01*
X128179456Y-113948000D01*
X127763212Y-114030796D01*
X127291191Y-114346191D01*
X127050000Y-114707158D01*
X126808809Y-114346191D01*
X126336788Y-114030796D01*
X125920544Y-113948000D01*
X125639456Y-113948000D01*
X125223212Y-114030796D01*
X124751191Y-114346191D01*
X124510000Y-114707158D01*
X124268809Y-114346191D01*
X123796788Y-114030796D01*
X123380544Y-113948000D01*
X123099456Y-113948000D01*
X122683212Y-114030796D01*
X122211191Y-114346191D01*
X121970000Y-114707158D01*
X121728809Y-114346191D01*
X121256788Y-114030796D01*
X120840544Y-113948000D01*
X120559456Y-113948000D01*
X120143212Y-114030796D01*
X119671191Y-114346191D01*
X119355796Y-114818212D01*
X119245044Y-115375000D01*
X112980804Y-115375000D01*
X113229740Y-115189563D01*
X113821800Y-113786925D01*
X113822145Y-113735516D01*
X144167973Y-113735516D01*
X144741139Y-115145981D01*
X144770260Y-115189563D01*
X145263447Y-115556948D01*
X147820395Y-113000000D01*
X148179605Y-113000000D01*
X150736553Y-115556948D01*
X151229740Y-115189563D01*
X151821800Y-113786925D01*
X151832027Y-112264484D01*
X151258861Y-110854019D01*
X151229740Y-110810437D01*
X150736553Y-110443052D01*
X148179605Y-113000000D01*
X147820395Y-113000000D01*
X145263447Y-110443052D01*
X144770260Y-110810437D01*
X144178200Y-112213075D01*
X144167973Y-113735516D01*
X113822145Y-113735516D01*
X113832027Y-112264484D01*
X113258861Y-110854019D01*
X113229740Y-110810437D01*
X112736553Y-110443052D01*
X110179605Y-113000000D01*
X109820395Y-113000000D01*
X107263447Y-110443052D01*
X106770260Y-110810437D01*
X106178200Y-112213075D01*
X106167973Y-113735516D01*
X105776811Y-113735516D01*
X105749571Y-113622056D01*
X105702000Y-112974256D01*
X105702000Y-110263447D01*
X107443052Y-110263447D01*
X110000000Y-112820395D01*
X112556948Y-110263447D01*
X145443052Y-110263447D01*
X148000000Y-112820395D01*
X150556948Y-110263447D01*
X150189563Y-109770260D01*
X148786925Y-109178200D01*
X147264484Y-109167973D01*
X145854019Y-109741139D01*
X145810437Y-109770260D01*
X145443052Y-110263447D01*
X112556948Y-110263447D01*
X112189563Y-109770260D01*
X110786925Y-109178200D01*
X109264484Y-109167973D01*
X107854019Y-109741139D01*
X107810437Y-109770260D01*
X107443052Y-110263447D01*
X105702000Y-110263447D01*
X105702000Y-105600000D01*
X107773000Y-105600000D01*
X107773000Y-107950000D01*
X107782667Y-107998601D01*
X107810197Y-108039803D01*
X107851399Y-108067333D01*
X107900000Y-108077000D01*
X114000000Y-108077000D01*
X114048601Y-108067333D01*
X114089803Y-108039803D01*
X114117333Y-107998601D01*
X114127000Y-107950000D01*
X114127000Y-105600000D01*
X114117333Y-105551399D01*
X114089803Y-105510197D01*
X114048601Y-105482667D01*
X114000000Y-105473000D01*
X107900000Y-105473000D01*
X107851399Y-105482667D01*
X107810197Y-105510197D01*
X107782667Y-105551399D01*
X107773000Y-105600000D01*
X105702000Y-105600000D01*
X105702000Y-93430527D01*
X110848000Y-93430527D01*
X110848000Y-93769473D01*
X110977709Y-94082619D01*
X111217381Y-94322291D01*
X111530527Y-94452000D01*
X111532184Y-94452000D01*
X111627709Y-94682619D01*
X111867381Y-94922291D01*
X112180527Y-95052000D01*
X112519473Y-95052000D01*
X112832619Y-94922291D01*
X112882181Y-94872729D01*
X112922990Y-94971251D01*
X112922991Y-97478390D01*
X112908749Y-97549990D01*
X112965172Y-97833650D01*
X112965173Y-97833651D01*
X113125854Y-98074127D01*
X113186552Y-98114684D01*
X117823000Y-102751134D01*
X117823001Y-105128400D01*
X117808759Y-105200000D01*
X117865182Y-105483660D01*
X117899365Y-105534818D01*
X118025864Y-105724137D01*
X118086562Y-105764694D01*
X118538857Y-106216990D01*
X118579415Y-106277689D01*
X118819891Y-106438370D01*
X119031953Y-106480552D01*
X119031957Y-106480552D01*
X119103552Y-106494793D01*
X119175147Y-106480552D01*
X119634868Y-106480552D01*
X119355796Y-106898212D01*
X119245044Y-107455000D01*
X119355796Y-108011788D01*
X119671191Y-108483809D01*
X120143212Y-108799204D01*
X120559456Y-108882000D01*
X120840544Y-108882000D01*
X121256788Y-108799204D01*
X121728809Y-108483809D01*
X121970000Y-108122842D01*
X122211191Y-108483809D01*
X122683212Y-108799204D01*
X123099456Y-108882000D01*
X123380544Y-108882000D01*
X123796788Y-108799204D01*
X124268809Y-108483809D01*
X124510000Y-108122842D01*
X124751191Y-108483809D01*
X125223212Y-108799204D01*
X125639456Y-108882000D01*
X125920544Y-108882000D01*
X126336788Y-108799204D01*
X126808809Y-108483809D01*
X127050000Y-108122842D01*
X127291191Y-108483809D01*
X127763212Y-108799204D01*
X128179456Y-108882000D01*
X128460544Y-108882000D01*
X128876788Y-108799204D01*
X129348809Y-108483809D01*
X129590000Y-108122842D01*
X129831191Y-108483809D01*
X130303212Y-108799204D01*
X130719456Y-108882000D01*
X131000544Y-108882000D01*
X131416788Y-108799204D01*
X131888809Y-108483809D01*
X132130000Y-108122842D01*
X132371191Y-108483809D01*
X132843212Y-108799204D01*
X133259456Y-108882000D01*
X133540544Y-108882000D01*
X133956788Y-108799204D01*
X134428809Y-108483809D01*
X134670000Y-108122842D01*
X134911191Y-108483809D01*
X135383212Y-108799204D01*
X135799456Y-108882000D01*
X136080544Y-108882000D01*
X136496788Y-108799204D01*
X136968809Y-108483809D01*
X137059294Y-108348390D01*
X137089380Y-108499643D01*
X137227959Y-108707041D01*
X137435357Y-108845620D01*
X137680000Y-108894283D01*
X139280000Y-108894283D01*
X139524643Y-108845620D01*
X139732041Y-108707041D01*
X139870620Y-108499643D01*
X139919283Y-108255000D01*
X139919283Y-106655000D01*
X139870620Y-106410357D01*
X139732041Y-106202959D01*
X139524643Y-106064380D01*
X139280000Y-106015717D01*
X137680000Y-106015717D01*
X137435357Y-106064380D01*
X137227959Y-106202959D01*
X137089380Y-106410357D01*
X137059294Y-106561610D01*
X136968809Y-106426191D01*
X136783573Y-106302420D01*
X136820585Y-106277689D01*
X136861144Y-106216988D01*
X137663438Y-105414695D01*
X137724137Y-105374137D01*
X137884818Y-105133661D01*
X137927000Y-104921599D01*
X137927000Y-104921595D01*
X137941241Y-104850001D01*
X137927000Y-104778407D01*
X137927000Y-104421250D01*
X138052000Y-104119473D01*
X138052000Y-103780527D01*
X137922291Y-103467381D01*
X137682619Y-103227709D01*
X137369473Y-103098000D01*
X137030527Y-103098000D01*
X136717381Y-103227709D01*
X136477709Y-103467381D01*
X136348000Y-103780527D01*
X136348000Y-104119473D01*
X136473001Y-104421252D01*
X136473001Y-104548867D01*
X135995316Y-105026552D01*
X119404685Y-105026552D01*
X119277000Y-104898868D01*
X119277000Y-104552000D01*
X119469473Y-104552000D01*
X119782619Y-104422291D01*
X120022291Y-104182619D01*
X120152000Y-103869473D01*
X120152000Y-103530527D01*
X120027000Y-103228750D01*
X120027000Y-102955077D01*
X121102765Y-104030842D01*
X121227765Y-104332619D01*
X121467437Y-104572291D01*
X121780583Y-104702000D01*
X122119529Y-104702000D01*
X122432675Y-104572291D01*
X122672347Y-104332619D01*
X122778228Y-104077000D01*
X123598868Y-104077000D01*
X123661538Y-104139670D01*
X123777709Y-104420133D01*
X124017381Y-104659805D01*
X124330527Y-104789514D01*
X124669473Y-104789514D01*
X124982619Y-104659805D01*
X125222291Y-104420133D01*
X125352000Y-104106987D01*
X125352000Y-103768041D01*
X125222291Y-103454895D01*
X124982619Y-103215223D01*
X124669473Y-103085514D01*
X124663646Y-103085514D01*
X124464696Y-102886564D01*
X124424137Y-102825863D01*
X124183661Y-102665182D01*
X123971599Y-102623000D01*
X123971595Y-102623000D01*
X123900000Y-102608759D01*
X123828405Y-102623000D01*
X122701133Y-102623000D01*
X115827000Y-95748868D01*
X115827000Y-93301132D01*
X116540901Y-92587232D01*
X116617117Y-92663448D01*
X116657675Y-92724147D01*
X116898151Y-92884828D01*
X117110213Y-92927010D01*
X117110217Y-92927010D01*
X117181812Y-92941251D01*
X117253407Y-92927010D01*
X124798858Y-92927010D01*
X126273001Y-94401154D01*
X126273000Y-103328749D01*
X126148000Y-103630527D01*
X126148000Y-103969473D01*
X126277709Y-104282619D01*
X126517381Y-104522291D01*
X126830527Y-104652000D01*
X127169473Y-104652000D01*
X127482619Y-104522291D01*
X127722291Y-104282619D01*
X127852000Y-103969473D01*
X127852000Y-103630527D01*
X127727000Y-103328750D01*
X127727000Y-95155133D01*
X128873000Y-96301133D01*
X128873000Y-96728402D01*
X128873001Y-103428747D01*
X128748000Y-103730527D01*
X128748000Y-104069473D01*
X128877709Y-104382619D01*
X129117381Y-104622291D01*
X129430527Y-104752000D01*
X129769473Y-104752000D01*
X130082619Y-104622291D01*
X130322291Y-104382619D01*
X130452000Y-104069473D01*
X130452000Y-103730527D01*
X130327000Y-103428750D01*
X130327000Y-97155134D01*
X131473001Y-98301135D01*
X131473000Y-103528749D01*
X131348000Y-103830527D01*
X131348000Y-104169473D01*
X131477709Y-104482619D01*
X131717381Y-104722291D01*
X132030527Y-104852000D01*
X132369473Y-104852000D01*
X132682619Y-104722291D01*
X132922291Y-104482619D01*
X133052000Y-104169473D01*
X133052000Y-103830527D01*
X132927000Y-103528750D01*
X132927000Y-99105133D01*
X133923000Y-100101133D01*
X133923001Y-103428747D01*
X133798000Y-103730527D01*
X133798000Y-104069473D01*
X133927709Y-104382619D01*
X134167381Y-104622291D01*
X134480527Y-104752000D01*
X134819473Y-104752000D01*
X135132619Y-104622291D01*
X135372291Y-104382619D01*
X135502000Y-104069473D01*
X135502000Y-103730527D01*
X135377000Y-103428750D01*
X135377000Y-99871593D01*
X135391241Y-99799999D01*
X135377000Y-99728405D01*
X135377000Y-99728401D01*
X135334818Y-99516339D01*
X135260758Y-99405501D01*
X135214694Y-99336561D01*
X135214692Y-99336559D01*
X135174136Y-99275863D01*
X135113441Y-99235308D01*
X126384671Y-90506539D01*
X126344112Y-90445838D01*
X126103636Y-90285157D01*
X125891574Y-90242975D01*
X125891570Y-90242975D01*
X125819975Y-90228734D01*
X125748380Y-90242975D01*
X119571108Y-90242975D01*
X119364696Y-90036564D01*
X119324137Y-89975863D01*
X119083661Y-89815182D01*
X118871599Y-89773000D01*
X118871595Y-89773000D01*
X118800000Y-89758759D01*
X118728405Y-89773000D01*
X118621250Y-89773000D01*
X118319473Y-89648000D01*
X117980527Y-89648000D01*
X117667381Y-89777709D01*
X117427709Y-90017381D01*
X117403612Y-90075557D01*
X117142381Y-90183762D01*
X117063581Y-90262562D01*
X116819473Y-90161449D01*
X116480527Y-90161449D01*
X116167381Y-90291158D01*
X116000588Y-90457951D01*
X115720941Y-90342117D01*
X115381995Y-90342117D01*
X115068849Y-90471826D01*
X114829177Y-90711498D01*
X114704177Y-91013275D01*
X114236552Y-91480901D01*
X114175853Y-91521459D01*
X114057892Y-91698000D01*
X114005517Y-91698000D01*
X113692371Y-91827709D01*
X113452699Y-92067381D01*
X113322990Y-92380527D01*
X113322990Y-92719473D01*
X113447990Y-93021251D01*
X113447990Y-93661473D01*
X113167371Y-93777709D01*
X113117809Y-93827271D01*
X113072291Y-93717381D01*
X112832619Y-93477709D01*
X112519473Y-93348000D01*
X112517816Y-93348000D01*
X112422291Y-93117381D01*
X112182619Y-92877709D01*
X111869473Y-92748000D01*
X111530527Y-92748000D01*
X111217381Y-92877709D01*
X110977709Y-93117381D01*
X110848000Y-93430527D01*
X105702000Y-93430527D01*
X105702000Y-84640000D01*
X115794064Y-84640000D01*
X115908697Y-85216297D01*
X116235142Y-85704858D01*
X116542160Y-85910000D01*
X116235142Y-86115142D01*
X115908697Y-86603703D01*
X115794064Y-87180000D01*
X115908697Y-87756297D01*
X116235142Y-88244858D01*
X116723703Y-88571303D01*
X117154529Y-88657000D01*
X117445471Y-88657000D01*
X117876297Y-88571303D01*
X118364858Y-88244858D01*
X118570000Y-87937840D01*
X118775142Y-88244858D01*
X119263703Y-88571303D01*
X119694529Y-88657000D01*
X119985471Y-88657000D01*
X120416297Y-88571303D01*
X120904858Y-88244858D01*
X121113902Y-87932000D01*
X133095941Y-87932000D01*
X133170000Y-87946731D01*
X133244059Y-87932000D01*
X133244063Y-87932000D01*
X133463416Y-87888368D01*
X133699640Y-87730527D01*
X134098000Y-87730527D01*
X134098000Y-88069473D01*
X134227709Y-88382619D01*
X134467381Y-88622291D01*
X134780527Y-88752000D01*
X135119473Y-88752000D01*
X135432619Y-88622291D01*
X135672291Y-88382619D01*
X135802000Y-88069473D01*
X135802000Y-87730527D01*
X135672291Y-87417381D01*
X135432619Y-87177709D01*
X135119473Y-87048000D01*
X134780527Y-87048000D01*
X134467381Y-87177709D01*
X134227709Y-87417381D01*
X134098000Y-87730527D01*
X133699640Y-87730527D01*
X133712161Y-87722161D01*
X133754116Y-87659371D01*
X136491197Y-84922291D01*
X136732619Y-84822291D01*
X136972291Y-84582619D01*
X137102000Y-84269473D01*
X137102000Y-83930527D01*
X136972291Y-83617381D01*
X136732619Y-83377709D01*
X136419473Y-83248000D01*
X136080527Y-83248000D01*
X135767381Y-83377709D01*
X135527709Y-83617381D01*
X135427709Y-83858803D01*
X132858513Y-86428000D01*
X121113902Y-86428000D01*
X120904858Y-86115142D01*
X120575389Y-85894998D01*
X120717163Y-85828337D01*
X121105150Y-85402204D01*
X121273546Y-84995634D01*
X121154127Y-84767000D01*
X119967000Y-84767000D01*
X119967000Y-84787000D01*
X119713000Y-84787000D01*
X119713000Y-84767000D01*
X119693000Y-84767000D01*
X119693000Y-84513000D01*
X119713000Y-84513000D01*
X119713000Y-84493000D01*
X119967000Y-84493000D01*
X119967000Y-84513000D01*
X121154127Y-84513000D01*
X121273546Y-84284366D01*
X121105150Y-83877796D01*
X120717163Y-83451663D01*
X120575389Y-83385002D01*
X120904858Y-83164858D01*
X121231303Y-82676297D01*
X121345936Y-82100000D01*
X121231303Y-81523703D01*
X120904858Y-81035142D01*
X120845855Y-80995717D01*
X132173000Y-80995717D01*
X132173000Y-81404283D01*
X132329352Y-81781749D01*
X132618251Y-82070648D01*
X132995717Y-82227000D01*
X133082410Y-82227000D01*
X133229352Y-82581749D01*
X133518251Y-82870648D01*
X133895717Y-83027000D01*
X134304283Y-83027000D01*
X134681749Y-82870648D01*
X134970648Y-82581749D01*
X135127000Y-82204283D01*
X135127000Y-81795717D01*
X134970648Y-81418251D01*
X134681749Y-81129352D01*
X134304283Y-80973000D01*
X134217590Y-80973000D01*
X134070648Y-80618251D01*
X133781749Y-80329352D01*
X133404283Y-80173000D01*
X132995717Y-80173000D01*
X132618251Y-80329352D01*
X132329352Y-80618251D01*
X132173000Y-80995717D01*
X120845855Y-80995717D01*
X120416297Y-80708697D01*
X119985471Y-80623000D01*
X119694529Y-80623000D01*
X119263703Y-80708697D01*
X118775142Y-81035142D01*
X118753105Y-81068123D01*
X118740620Y-81005357D01*
X118602041Y-80797959D01*
X118394643Y-80659380D01*
X118150000Y-80610717D01*
X116450000Y-80610717D01*
X116205357Y-80659380D01*
X115997959Y-80797959D01*
X115859380Y-81005357D01*
X115810717Y-81250000D01*
X115810717Y-82950000D01*
X115859380Y-83194643D01*
X115997959Y-83402041D01*
X116205357Y-83540620D01*
X116268123Y-83553105D01*
X116235142Y-83575142D01*
X115908697Y-84063703D01*
X115794064Y-84640000D01*
X105702000Y-84640000D01*
X105702000Y-77736553D01*
X107443052Y-77736553D01*
X107810437Y-78229740D01*
X109213075Y-78821800D01*
X110735516Y-78832027D01*
X112145981Y-78258861D01*
X112189563Y-78229740D01*
X112556948Y-77736553D01*
X145443052Y-77736553D01*
X145810437Y-78229740D01*
X147213075Y-78821800D01*
X148735516Y-78832027D01*
X150145981Y-78258861D01*
X150189563Y-78229740D01*
X150556948Y-77736553D01*
X148000000Y-75179605D01*
X145443052Y-77736553D01*
X112556948Y-77736553D01*
X110000000Y-75179605D01*
X107443052Y-77736553D01*
X105702000Y-77736553D01*
X105702000Y-75735516D01*
X106167973Y-75735516D01*
X106741139Y-77145981D01*
X106770260Y-77189563D01*
X107263447Y-77556948D01*
X109820395Y-75000000D01*
X110179605Y-75000000D01*
X112736553Y-77556948D01*
X113229740Y-77189563D01*
X113821800Y-75786925D01*
X113822145Y-75735516D01*
X144167973Y-75735516D01*
X144741139Y-77145981D01*
X144770260Y-77189563D01*
X145263447Y-77556948D01*
X147820395Y-75000000D01*
X148179605Y-75000000D01*
X150736553Y-77556948D01*
X151229740Y-77189563D01*
X151821800Y-75786925D01*
X151832027Y-74264484D01*
X151258861Y-72854019D01*
X151229740Y-72810437D01*
X150736553Y-72443052D01*
X148179605Y-75000000D01*
X147820395Y-75000000D01*
X145263447Y-72443052D01*
X144770260Y-72810437D01*
X144178200Y-74213075D01*
X144167973Y-75735516D01*
X113822145Y-75735516D01*
X113832027Y-74264484D01*
X113478945Y-73395608D01*
X126273000Y-73395608D01*
X126273000Y-73764392D01*
X126414127Y-74105103D01*
X126674897Y-74365873D01*
X127015608Y-74507000D01*
X127384392Y-74507000D01*
X127725103Y-74365873D01*
X127985873Y-74105103D01*
X128127000Y-73764392D01*
X128127000Y-73395608D01*
X130273000Y-73395608D01*
X130273000Y-73764392D01*
X130414127Y-74105103D01*
X130674897Y-74365873D01*
X131015608Y-74507000D01*
X131384392Y-74507000D01*
X131725103Y-74365873D01*
X131985873Y-74105103D01*
X132127000Y-73764392D01*
X132127000Y-73395608D01*
X131985873Y-73054897D01*
X131725103Y-72794127D01*
X131384392Y-72653000D01*
X131015608Y-72653000D01*
X130674897Y-72794127D01*
X130414127Y-73054897D01*
X130273000Y-73395608D01*
X128127000Y-73395608D01*
X127985873Y-73054897D01*
X127725103Y-72794127D01*
X127384392Y-72653000D01*
X127015608Y-72653000D01*
X126674897Y-72794127D01*
X126414127Y-73054897D01*
X126273000Y-73395608D01*
X113478945Y-73395608D01*
X113258861Y-72854019D01*
X113229740Y-72810437D01*
X112736553Y-72443052D01*
X110179605Y-75000000D01*
X109820395Y-75000000D01*
X107263447Y-72443052D01*
X106770260Y-72810437D01*
X106178200Y-74213075D01*
X106167973Y-75735516D01*
X105702000Y-75735516D01*
X105702000Y-75031266D01*
X105772674Y-74239381D01*
X105974176Y-73502813D01*
X106302932Y-72813561D01*
X106698229Y-72263447D01*
X107443052Y-72263447D01*
X110000000Y-74820395D01*
X112556948Y-72263447D01*
X145443052Y-72263447D01*
X148000000Y-74820395D01*
X150556948Y-72263447D01*
X150189563Y-71770260D01*
X148786925Y-71178200D01*
X147264484Y-71167973D01*
X145854019Y-71741139D01*
X145810437Y-71770260D01*
X145443052Y-72263447D01*
X112556948Y-72263447D01*
X112189563Y-71770260D01*
X110786925Y-71178200D01*
X109264484Y-71167973D01*
X107854019Y-71741139D01*
X107810437Y-71770260D01*
X107443052Y-72263447D01*
X106698229Y-72263447D01*
X106748550Y-72193419D01*
X107296934Y-71661997D01*
X107930768Y-71236079D01*
X108629999Y-70929137D01*
X109377944Y-70749571D01*
X110025744Y-70702000D01*
X147968734Y-70702000D01*
X148760619Y-70772674D01*
X148760619Y-70772674D01*
G37*
X148760619Y-70772674D02*
X149497187Y-70974176D01*
X150186439Y-71302932D01*
X150806581Y-71748550D01*
X151338003Y-72296934D01*
X151763921Y-72930768D01*
X152070863Y-73629999D01*
X152250429Y-74377944D01*
X152298000Y-75025744D01*
X152298001Y-112968723D01*
X152227326Y-113760619D01*
X152025824Y-114497187D01*
X151697068Y-115186439D01*
X151251452Y-115806578D01*
X150703066Y-116338003D01*
X150069232Y-116763921D01*
X149369997Y-117070864D01*
X148622056Y-117250429D01*
X147974256Y-117298000D01*
X110031266Y-117298000D01*
X109239381Y-117227326D01*
X108502813Y-117025824D01*
X107813561Y-116697068D01*
X107193422Y-116251452D01*
X106694449Y-115736553D01*
X107443052Y-115736553D01*
X107810437Y-116229740D01*
X109213075Y-116821800D01*
X110735516Y-116832027D01*
X112145981Y-116258861D01*
X112189563Y-116229740D01*
X112556948Y-115736553D01*
X110000000Y-113179605D01*
X107443052Y-115736553D01*
X106694449Y-115736553D01*
X106661997Y-115703066D01*
X106236079Y-115069232D01*
X105929136Y-114369997D01*
X105776811Y-113735516D01*
X106167973Y-113735516D01*
X106741139Y-115145981D01*
X106770260Y-115189563D01*
X107263447Y-115556948D01*
X109820395Y-113000000D01*
X110179605Y-113000000D01*
X112736553Y-115556948D01*
X112980804Y-115375000D01*
X119245044Y-115375000D01*
X119355796Y-115931788D01*
X119671191Y-116403809D01*
X120143212Y-116719204D01*
X120559456Y-116802000D01*
X120840544Y-116802000D01*
X121256788Y-116719204D01*
X121728809Y-116403809D01*
X121970000Y-116042842D01*
X122211191Y-116403809D01*
X122683212Y-116719204D01*
X123099456Y-116802000D01*
X123380544Y-116802000D01*
X123796788Y-116719204D01*
X124268809Y-116403809D01*
X124510000Y-116042842D01*
X124751191Y-116403809D01*
X125223212Y-116719204D01*
X125639456Y-116802000D01*
X125920544Y-116802000D01*
X126336788Y-116719204D01*
X126808809Y-116403809D01*
X127050000Y-116042842D01*
X127291191Y-116403809D01*
X127763212Y-116719204D01*
X128179456Y-116802000D01*
X128460544Y-116802000D01*
X128876788Y-116719204D01*
X129348809Y-116403809D01*
X129590000Y-116042842D01*
X129831191Y-116403809D01*
X130303212Y-116719204D01*
X130719456Y-116802000D01*
X131000544Y-116802000D01*
X131416788Y-116719204D01*
X131888809Y-116403809D01*
X132130000Y-116042842D01*
X132371191Y-116403809D01*
X132843212Y-116719204D01*
X133259456Y-116802000D01*
X133540544Y-116802000D01*
X133956788Y-116719204D01*
X134428809Y-116403809D01*
X134670000Y-116042842D01*
X134911191Y-116403809D01*
X135383212Y-116719204D01*
X135799456Y-116802000D01*
X136080544Y-116802000D01*
X136496788Y-116719204D01*
X136968809Y-116403809D01*
X137210000Y-116042842D01*
X137451191Y-116403809D01*
X137923212Y-116719204D01*
X138339456Y-116802000D01*
X138620544Y-116802000D01*
X139036788Y-116719204D01*
X139508809Y-116403809D01*
X139824204Y-115931788D01*
X139863038Y-115736553D01*
X145443052Y-115736553D01*
X145810437Y-116229740D01*
X147213075Y-116821800D01*
X148735516Y-116832027D01*
X150145981Y-116258861D01*
X150189563Y-116229740D01*
X150556948Y-115736553D01*
X148000000Y-113179605D01*
X145443052Y-115736553D01*
X139863038Y-115736553D01*
X139934956Y-115375000D01*
X139824204Y-114818212D01*
X139508809Y-114346191D01*
X139036788Y-114030796D01*
X138620544Y-113948000D01*
X138339456Y-113948000D01*
X137923212Y-114030796D01*
X137451191Y-114346191D01*
X137210000Y-114707158D01*
X136968809Y-114346191D01*
X136496788Y-114030796D01*
X136080544Y-113948000D01*
X135799456Y-113948000D01*
X135383212Y-114030796D01*
X134911191Y-114346191D01*
X134670000Y-114707158D01*
X134428809Y-114346191D01*
X133956788Y-114030796D01*
X133540544Y-113948000D01*
X133259456Y-113948000D01*
X132843212Y-114030796D01*
X132371191Y-114346191D01*
X132130000Y-114707158D01*
X131888809Y-114346191D01*
X131416788Y-114030796D01*
X131000544Y-113948000D01*
X130719456Y-113948000D01*
X130303212Y-114030796D01*
X129831191Y-114346191D01*
X129590000Y-114707158D01*
X129348809Y-114346191D01*
X128876788Y-114030796D01*
X128460544Y-113948000D01*
X128179456Y-113948000D01*
X127763212Y-114030796D01*
X127291191Y-114346191D01*
X127050000Y-114707158D01*
X126808809Y-114346191D01*
X126336788Y-114030796D01*
X125920544Y-113948000D01*
X125639456Y-113948000D01*
X125223212Y-114030796D01*
X124751191Y-114346191D01*
X124510000Y-114707158D01*
X124268809Y-114346191D01*
X123796788Y-114030796D01*
X123380544Y-113948000D01*
X123099456Y-113948000D01*
X122683212Y-114030796D01*
X122211191Y-114346191D01*
X121970000Y-114707158D01*
X121728809Y-114346191D01*
X121256788Y-114030796D01*
X120840544Y-113948000D01*
X120559456Y-113948000D01*
X120143212Y-114030796D01*
X119671191Y-114346191D01*
X119355796Y-114818212D01*
X119245044Y-115375000D01*
X112980804Y-115375000D01*
X113229740Y-115189563D01*
X113821800Y-113786925D01*
X113822145Y-113735516D01*
X144167973Y-113735516D01*
X144741139Y-115145981D01*
X144770260Y-115189563D01*
X145263447Y-115556948D01*
X147820395Y-113000000D01*
X148179605Y-113000000D01*
X150736553Y-115556948D01*
X151229740Y-115189563D01*
X151821800Y-113786925D01*
X151832027Y-112264484D01*
X151258861Y-110854019D01*
X151229740Y-110810437D01*
X150736553Y-110443052D01*
X148179605Y-113000000D01*
X147820395Y-113000000D01*
X145263447Y-110443052D01*
X144770260Y-110810437D01*
X144178200Y-112213075D01*
X144167973Y-113735516D01*
X113822145Y-113735516D01*
X113832027Y-112264484D01*
X113258861Y-110854019D01*
X113229740Y-110810437D01*
X112736553Y-110443052D01*
X110179605Y-113000000D01*
X109820395Y-113000000D01*
X107263447Y-110443052D01*
X106770260Y-110810437D01*
X106178200Y-112213075D01*
X106167973Y-113735516D01*
X105776811Y-113735516D01*
X105749571Y-113622056D01*
X105702000Y-112974256D01*
X105702000Y-110263447D01*
X107443052Y-110263447D01*
X110000000Y-112820395D01*
X112556948Y-110263447D01*
X145443052Y-110263447D01*
X148000000Y-112820395D01*
X150556948Y-110263447D01*
X150189563Y-109770260D01*
X148786925Y-109178200D01*
X147264484Y-109167973D01*
X145854019Y-109741139D01*
X145810437Y-109770260D01*
X145443052Y-110263447D01*
X112556948Y-110263447D01*
X112189563Y-109770260D01*
X110786925Y-109178200D01*
X109264484Y-109167973D01*
X107854019Y-109741139D01*
X107810437Y-109770260D01*
X107443052Y-110263447D01*
X105702000Y-110263447D01*
X105702000Y-105600000D01*
X107773000Y-105600000D01*
X107773000Y-107950000D01*
X107782667Y-107998601D01*
X107810197Y-108039803D01*
X107851399Y-108067333D01*
X107900000Y-108077000D01*
X114000000Y-108077000D01*
X114048601Y-108067333D01*
X114089803Y-108039803D01*
X114117333Y-107998601D01*
X114127000Y-107950000D01*
X114127000Y-105600000D01*
X114117333Y-105551399D01*
X114089803Y-105510197D01*
X114048601Y-105482667D01*
X114000000Y-105473000D01*
X107900000Y-105473000D01*
X107851399Y-105482667D01*
X107810197Y-105510197D01*
X107782667Y-105551399D01*
X107773000Y-105600000D01*
X105702000Y-105600000D01*
X105702000Y-93430527D01*
X110848000Y-93430527D01*
X110848000Y-93769473D01*
X110977709Y-94082619D01*
X111217381Y-94322291D01*
X111530527Y-94452000D01*
X111532184Y-94452000D01*
X111627709Y-94682619D01*
X111867381Y-94922291D01*
X112180527Y-95052000D01*
X112519473Y-95052000D01*
X112832619Y-94922291D01*
X112882181Y-94872729D01*
X112922990Y-94971251D01*
X112922991Y-97478390D01*
X112908749Y-97549990D01*
X112965172Y-97833650D01*
X112965173Y-97833651D01*
X113125854Y-98074127D01*
X113186552Y-98114684D01*
X117823000Y-102751134D01*
X117823001Y-105128400D01*
X117808759Y-105200000D01*
X117865182Y-105483660D01*
X117899365Y-105534818D01*
X118025864Y-105724137D01*
X118086562Y-105764694D01*
X118538857Y-106216990D01*
X118579415Y-106277689D01*
X118819891Y-106438370D01*
X119031953Y-106480552D01*
X119031957Y-106480552D01*
X119103552Y-106494793D01*
X119175147Y-106480552D01*
X119634868Y-106480552D01*
X119355796Y-106898212D01*
X119245044Y-107455000D01*
X119355796Y-108011788D01*
X119671191Y-108483809D01*
X120143212Y-108799204D01*
X120559456Y-108882000D01*
X120840544Y-108882000D01*
X121256788Y-108799204D01*
X121728809Y-108483809D01*
X121970000Y-108122842D01*
X122211191Y-108483809D01*
X122683212Y-108799204D01*
X123099456Y-108882000D01*
X123380544Y-108882000D01*
X123796788Y-108799204D01*
X124268809Y-108483809D01*
X124510000Y-108122842D01*
X124751191Y-108483809D01*
X125223212Y-108799204D01*
X125639456Y-108882000D01*
X125920544Y-108882000D01*
X126336788Y-108799204D01*
X126808809Y-108483809D01*
X127050000Y-108122842D01*
X127291191Y-108483809D01*
X127763212Y-108799204D01*
X128179456Y-108882000D01*
X128460544Y-108882000D01*
X128876788Y-108799204D01*
X129348809Y-108483809D01*
X129590000Y-108122842D01*
X129831191Y-108483809D01*
X130303212Y-108799204D01*
X130719456Y-108882000D01*
X131000544Y-108882000D01*
X131416788Y-108799204D01*
X131888809Y-108483809D01*
X132130000Y-108122842D01*
X132371191Y-108483809D01*
X132843212Y-108799204D01*
X133259456Y-108882000D01*
X133540544Y-108882000D01*
X133956788Y-108799204D01*
X134428809Y-108483809D01*
X134670000Y-108122842D01*
X134911191Y-108483809D01*
X135383212Y-108799204D01*
X135799456Y-108882000D01*
X136080544Y-108882000D01*
X136496788Y-108799204D01*
X136968809Y-108483809D01*
X137059294Y-108348390D01*
X137089380Y-108499643D01*
X137227959Y-108707041D01*
X137435357Y-108845620D01*
X137680000Y-108894283D01*
X139280000Y-108894283D01*
X139524643Y-108845620D01*
X139732041Y-108707041D01*
X139870620Y-108499643D01*
X139919283Y-108255000D01*
X139919283Y-106655000D01*
X139870620Y-106410357D01*
X139732041Y-106202959D01*
X139524643Y-106064380D01*
X139280000Y-106015717D01*
X137680000Y-106015717D01*
X137435357Y-106064380D01*
X137227959Y-106202959D01*
X137089380Y-106410357D01*
X137059294Y-106561610D01*
X136968809Y-106426191D01*
X136783573Y-106302420D01*
X136820585Y-106277689D01*
X136861144Y-106216988D01*
X137663438Y-105414695D01*
X137724137Y-105374137D01*
X137884818Y-105133661D01*
X137927000Y-104921599D01*
X137927000Y-104921595D01*
X137941241Y-104850001D01*
X137927000Y-104778407D01*
X137927000Y-104421250D01*
X138052000Y-104119473D01*
X138052000Y-103780527D01*
X137922291Y-103467381D01*
X137682619Y-103227709D01*
X137369473Y-103098000D01*
X137030527Y-103098000D01*
X136717381Y-103227709D01*
X136477709Y-103467381D01*
X136348000Y-103780527D01*
X136348000Y-104119473D01*
X136473001Y-104421252D01*
X136473001Y-104548867D01*
X135995316Y-105026552D01*
X119404685Y-105026552D01*
X119277000Y-104898868D01*
X119277000Y-104552000D01*
X119469473Y-104552000D01*
X119782619Y-104422291D01*
X120022291Y-104182619D01*
X120152000Y-103869473D01*
X120152000Y-103530527D01*
X120027000Y-103228750D01*
X120027000Y-102955077D01*
X121102765Y-104030842D01*
X121227765Y-104332619D01*
X121467437Y-104572291D01*
X121780583Y-104702000D01*
X122119529Y-104702000D01*
X122432675Y-104572291D01*
X122672347Y-104332619D01*
X122778228Y-104077000D01*
X123598868Y-104077000D01*
X123661538Y-104139670D01*
X123777709Y-104420133D01*
X124017381Y-104659805D01*
X124330527Y-104789514D01*
X124669473Y-104789514D01*
X124982619Y-104659805D01*
X125222291Y-104420133D01*
X125352000Y-104106987D01*
X125352000Y-103768041D01*
X125222291Y-103454895D01*
X124982619Y-103215223D01*
X124669473Y-103085514D01*
X124663646Y-103085514D01*
X124464696Y-102886564D01*
X124424137Y-102825863D01*
X124183661Y-102665182D01*
X123971599Y-102623000D01*
X123971595Y-102623000D01*
X123900000Y-102608759D01*
X123828405Y-102623000D01*
X122701133Y-102623000D01*
X115827000Y-95748868D01*
X115827000Y-93301132D01*
X116540901Y-92587232D01*
X116617117Y-92663448D01*
X116657675Y-92724147D01*
X116898151Y-92884828D01*
X117110213Y-92927010D01*
X117110217Y-92927010D01*
X117181812Y-92941251D01*
X117253407Y-92927010D01*
X124798858Y-92927010D01*
X126273001Y-94401154D01*
X126273000Y-103328749D01*
X126148000Y-103630527D01*
X126148000Y-103969473D01*
X126277709Y-104282619D01*
X126517381Y-104522291D01*
X126830527Y-104652000D01*
X127169473Y-104652000D01*
X127482619Y-104522291D01*
X127722291Y-104282619D01*
X127852000Y-103969473D01*
X127852000Y-103630527D01*
X127727000Y-103328750D01*
X127727000Y-95155133D01*
X128873000Y-96301133D01*
X128873000Y-96728402D01*
X128873001Y-103428747D01*
X128748000Y-103730527D01*
X128748000Y-104069473D01*
X128877709Y-104382619D01*
X129117381Y-104622291D01*
X129430527Y-104752000D01*
X129769473Y-104752000D01*
X130082619Y-104622291D01*
X130322291Y-104382619D01*
X130452000Y-104069473D01*
X130452000Y-103730527D01*
X130327000Y-103428750D01*
X130327000Y-97155134D01*
X131473001Y-98301135D01*
X131473000Y-103528749D01*
X131348000Y-103830527D01*
X131348000Y-104169473D01*
X131477709Y-104482619D01*
X131717381Y-104722291D01*
X132030527Y-104852000D01*
X132369473Y-104852000D01*
X132682619Y-104722291D01*
X132922291Y-104482619D01*
X133052000Y-104169473D01*
X133052000Y-103830527D01*
X132927000Y-103528750D01*
X132927000Y-99105133D01*
X133923000Y-100101133D01*
X133923001Y-103428747D01*
X133798000Y-103730527D01*
X133798000Y-104069473D01*
X133927709Y-104382619D01*
X134167381Y-104622291D01*
X134480527Y-104752000D01*
X134819473Y-104752000D01*
X135132619Y-104622291D01*
X135372291Y-104382619D01*
X135502000Y-104069473D01*
X135502000Y-103730527D01*
X135377000Y-103428750D01*
X135377000Y-99871593D01*
X135391241Y-99799999D01*
X135377000Y-99728405D01*
X135377000Y-99728401D01*
X135334818Y-99516339D01*
X135260758Y-99405501D01*
X135214694Y-99336561D01*
X135214692Y-99336559D01*
X135174136Y-99275863D01*
X135113441Y-99235308D01*
X126384671Y-90506539D01*
X126344112Y-90445838D01*
X126103636Y-90285157D01*
X125891574Y-90242975D01*
X125891570Y-90242975D01*
X125819975Y-90228734D01*
X125748380Y-90242975D01*
X119571108Y-90242975D01*
X119364696Y-90036564D01*
X119324137Y-89975863D01*
X119083661Y-89815182D01*
X118871599Y-89773000D01*
X118871595Y-89773000D01*
X118800000Y-89758759D01*
X118728405Y-89773000D01*
X118621250Y-89773000D01*
X118319473Y-89648000D01*
X117980527Y-89648000D01*
X117667381Y-89777709D01*
X117427709Y-90017381D01*
X117403612Y-90075557D01*
X117142381Y-90183762D01*
X117063581Y-90262562D01*
X116819473Y-90161449D01*
X116480527Y-90161449D01*
X116167381Y-90291158D01*
X116000588Y-90457951D01*
X115720941Y-90342117D01*
X115381995Y-90342117D01*
X115068849Y-90471826D01*
X114829177Y-90711498D01*
X114704177Y-91013275D01*
X114236552Y-91480901D01*
X114175853Y-91521459D01*
X114057892Y-91698000D01*
X114005517Y-91698000D01*
X113692371Y-91827709D01*
X113452699Y-92067381D01*
X113322990Y-92380527D01*
X113322990Y-92719473D01*
X113447990Y-93021251D01*
X113447990Y-93661473D01*
X113167371Y-93777709D01*
X113117809Y-93827271D01*
X113072291Y-93717381D01*
X112832619Y-93477709D01*
X112519473Y-93348000D01*
X112517816Y-93348000D01*
X112422291Y-93117381D01*
X112182619Y-92877709D01*
X111869473Y-92748000D01*
X111530527Y-92748000D01*
X111217381Y-92877709D01*
X110977709Y-93117381D01*
X110848000Y-93430527D01*
X105702000Y-93430527D01*
X105702000Y-84640000D01*
X115794064Y-84640000D01*
X115908697Y-85216297D01*
X116235142Y-85704858D01*
X116542160Y-85910000D01*
X116235142Y-86115142D01*
X115908697Y-86603703D01*
X115794064Y-87180000D01*
X115908697Y-87756297D01*
X116235142Y-88244858D01*
X116723703Y-88571303D01*
X117154529Y-88657000D01*
X117445471Y-88657000D01*
X117876297Y-88571303D01*
X118364858Y-88244858D01*
X118570000Y-87937840D01*
X118775142Y-88244858D01*
X119263703Y-88571303D01*
X119694529Y-88657000D01*
X119985471Y-88657000D01*
X120416297Y-88571303D01*
X120904858Y-88244858D01*
X121113902Y-87932000D01*
X133095941Y-87932000D01*
X133170000Y-87946731D01*
X133244059Y-87932000D01*
X133244063Y-87932000D01*
X133463416Y-87888368D01*
X133699640Y-87730527D01*
X134098000Y-87730527D01*
X134098000Y-88069473D01*
X134227709Y-88382619D01*
X134467381Y-88622291D01*
X134780527Y-88752000D01*
X135119473Y-88752000D01*
X135432619Y-88622291D01*
X135672291Y-88382619D01*
X135802000Y-88069473D01*
X135802000Y-87730527D01*
X135672291Y-87417381D01*
X135432619Y-87177709D01*
X135119473Y-87048000D01*
X134780527Y-87048000D01*
X134467381Y-87177709D01*
X134227709Y-87417381D01*
X134098000Y-87730527D01*
X133699640Y-87730527D01*
X133712161Y-87722161D01*
X133754116Y-87659371D01*
X136491197Y-84922291D01*
X136732619Y-84822291D01*
X136972291Y-84582619D01*
X137102000Y-84269473D01*
X137102000Y-83930527D01*
X136972291Y-83617381D01*
X136732619Y-83377709D01*
X136419473Y-83248000D01*
X136080527Y-83248000D01*
X135767381Y-83377709D01*
X135527709Y-83617381D01*
X135427709Y-83858803D01*
X132858513Y-86428000D01*
X121113902Y-86428000D01*
X120904858Y-86115142D01*
X120575389Y-85894998D01*
X120717163Y-85828337D01*
X121105150Y-85402204D01*
X121273546Y-84995634D01*
X121154127Y-84767000D01*
X119967000Y-84767000D01*
X119967000Y-84787000D01*
X119713000Y-84787000D01*
X119713000Y-84767000D01*
X119693000Y-84767000D01*
X119693000Y-84513000D01*
X119713000Y-84513000D01*
X119713000Y-84493000D01*
X119967000Y-84493000D01*
X119967000Y-84513000D01*
X121154127Y-84513000D01*
X121273546Y-84284366D01*
X121105150Y-83877796D01*
X120717163Y-83451663D01*
X120575389Y-83385002D01*
X120904858Y-83164858D01*
X121231303Y-82676297D01*
X121345936Y-82100000D01*
X121231303Y-81523703D01*
X120904858Y-81035142D01*
X120845855Y-80995717D01*
X132173000Y-80995717D01*
X132173000Y-81404283D01*
X132329352Y-81781749D01*
X132618251Y-82070648D01*
X132995717Y-82227000D01*
X133082410Y-82227000D01*
X133229352Y-82581749D01*
X133518251Y-82870648D01*
X133895717Y-83027000D01*
X134304283Y-83027000D01*
X134681749Y-82870648D01*
X134970648Y-82581749D01*
X135127000Y-82204283D01*
X135127000Y-81795717D01*
X134970648Y-81418251D01*
X134681749Y-81129352D01*
X134304283Y-80973000D01*
X134217590Y-80973000D01*
X134070648Y-80618251D01*
X133781749Y-80329352D01*
X133404283Y-80173000D01*
X132995717Y-80173000D01*
X132618251Y-80329352D01*
X132329352Y-80618251D01*
X132173000Y-80995717D01*
X120845855Y-80995717D01*
X120416297Y-80708697D01*
X119985471Y-80623000D01*
X119694529Y-80623000D01*
X119263703Y-80708697D01*
X118775142Y-81035142D01*
X118753105Y-81068123D01*
X118740620Y-81005357D01*
X118602041Y-80797959D01*
X118394643Y-80659380D01*
X118150000Y-80610717D01*
X116450000Y-80610717D01*
X116205357Y-80659380D01*
X115997959Y-80797959D01*
X115859380Y-81005357D01*
X115810717Y-81250000D01*
X115810717Y-82950000D01*
X115859380Y-83194643D01*
X115997959Y-83402041D01*
X116205357Y-83540620D01*
X116268123Y-83553105D01*
X116235142Y-83575142D01*
X115908697Y-84063703D01*
X115794064Y-84640000D01*
X105702000Y-84640000D01*
X105702000Y-77736553D01*
X107443052Y-77736553D01*
X107810437Y-78229740D01*
X109213075Y-78821800D01*
X110735516Y-78832027D01*
X112145981Y-78258861D01*
X112189563Y-78229740D01*
X112556948Y-77736553D01*
X145443052Y-77736553D01*
X145810437Y-78229740D01*
X147213075Y-78821800D01*
X148735516Y-78832027D01*
X150145981Y-78258861D01*
X150189563Y-78229740D01*
X150556948Y-77736553D01*
X148000000Y-75179605D01*
X145443052Y-77736553D01*
X112556948Y-77736553D01*
X110000000Y-75179605D01*
X107443052Y-77736553D01*
X105702000Y-77736553D01*
X105702000Y-75735516D01*
X106167973Y-75735516D01*
X106741139Y-77145981D01*
X106770260Y-77189563D01*
X107263447Y-77556948D01*
X109820395Y-75000000D01*
X110179605Y-75000000D01*
X112736553Y-77556948D01*
X113229740Y-77189563D01*
X113821800Y-75786925D01*
X113822145Y-75735516D01*
X144167973Y-75735516D01*
X144741139Y-77145981D01*
X144770260Y-77189563D01*
X145263447Y-77556948D01*
X147820395Y-75000000D01*
X148179605Y-75000000D01*
X150736553Y-77556948D01*
X151229740Y-77189563D01*
X151821800Y-75786925D01*
X151832027Y-74264484D01*
X151258861Y-72854019D01*
X151229740Y-72810437D01*
X150736553Y-72443052D01*
X148179605Y-75000000D01*
X147820395Y-75000000D01*
X145263447Y-72443052D01*
X144770260Y-72810437D01*
X144178200Y-74213075D01*
X144167973Y-75735516D01*
X113822145Y-75735516D01*
X113832027Y-74264484D01*
X113478945Y-73395608D01*
X126273000Y-73395608D01*
X126273000Y-73764392D01*
X126414127Y-74105103D01*
X126674897Y-74365873D01*
X127015608Y-74507000D01*
X127384392Y-74507000D01*
X127725103Y-74365873D01*
X127985873Y-74105103D01*
X128127000Y-73764392D01*
X128127000Y-73395608D01*
X130273000Y-73395608D01*
X130273000Y-73764392D01*
X130414127Y-74105103D01*
X130674897Y-74365873D01*
X131015608Y-74507000D01*
X131384392Y-74507000D01*
X131725103Y-74365873D01*
X131985873Y-74105103D01*
X132127000Y-73764392D01*
X132127000Y-73395608D01*
X131985873Y-73054897D01*
X131725103Y-72794127D01*
X131384392Y-72653000D01*
X131015608Y-72653000D01*
X130674897Y-72794127D01*
X130414127Y-73054897D01*
X130273000Y-73395608D01*
X128127000Y-73395608D01*
X127985873Y-73054897D01*
X127725103Y-72794127D01*
X127384392Y-72653000D01*
X127015608Y-72653000D01*
X126674897Y-72794127D01*
X126414127Y-73054897D01*
X126273000Y-73395608D01*
X113478945Y-73395608D01*
X113258861Y-72854019D01*
X113229740Y-72810437D01*
X112736553Y-72443052D01*
X110179605Y-75000000D01*
X109820395Y-75000000D01*
X107263447Y-72443052D01*
X106770260Y-72810437D01*
X106178200Y-74213075D01*
X106167973Y-75735516D01*
X105702000Y-75735516D01*
X105702000Y-75031266D01*
X105772674Y-74239381D01*
X105974176Y-73502813D01*
X106302932Y-72813561D01*
X106698229Y-72263447D01*
X107443052Y-72263447D01*
X110000000Y-74820395D01*
X112556948Y-72263447D01*
X145443052Y-72263447D01*
X148000000Y-74820395D01*
X150556948Y-72263447D01*
X150189563Y-71770260D01*
X148786925Y-71178200D01*
X147264484Y-71167973D01*
X145854019Y-71741139D01*
X145810437Y-71770260D01*
X145443052Y-72263447D01*
X112556948Y-72263447D01*
X112189563Y-71770260D01*
X110786925Y-71178200D01*
X109264484Y-71167973D01*
X107854019Y-71741139D01*
X107810437Y-71770260D01*
X107443052Y-72263447D01*
X106698229Y-72263447D01*
X106748550Y-72193419D01*
X107296934Y-71661997D01*
X107930768Y-71236079D01*
X108629999Y-70929137D01*
X109377944Y-70749571D01*
X110025744Y-70702000D01*
X147968734Y-70702000D01*
X148760619Y-70772674D01*
G04 #@! TD*
M02*
