G04 #@! TF.GenerationSoftware,KiCad,Pcbnew,(5.0.2)-1*
G04 #@! TF.CreationDate,2019-01-19T12:29:50+11:00*
G04 #@! TF.ProjectId,Gain_Block_Dev_Rev_0,4761696e-5f42-46c6-9f63-6b5f4465765f,rev?*
G04 #@! TF.SameCoordinates,Original*
G04 #@! TF.FileFunction,Soldermask,Top*
G04 #@! TF.FilePolarity,Negative*
%FSLAX46Y46*%
G04 Gerber Fmt 4.6, Leading zero omitted, Abs format (unit mm)*
G04 Created by KiCad (PCBNEW (5.0.2)-1) date 19/01/2019 12:29:50*
%MOMM*%
%LPD*%
G01*
G04 APERTURE LIST*
%ADD10C,0.150000*%
%ADD11C,0.010000*%
%ADD12C,0.100000*%
G04 APERTURE END LIST*
D10*
G04 #@! TO.C,REF\002A\002A*
G36*
X107950000Y-105650000D02*
X113950000Y-105650000D01*
X113950000Y-107900000D01*
X107950000Y-107900000D01*
X107950000Y-105650000D01*
G37*
X107950000Y-105650000D02*
X113950000Y-105650000D01*
X113950000Y-107900000D01*
X107950000Y-107900000D01*
X107950000Y-105650000D01*
D11*
G04 #@! TO.C,G\002A\002A\002A*
G36*
X110946025Y-101913358D02*
X110987086Y-101913668D01*
X111023939Y-101914144D01*
X111055448Y-101914763D01*
X111080478Y-101915502D01*
X111097893Y-101916337D01*
X111106557Y-101917244D01*
X111107210Y-101917471D01*
X111109787Y-101923471D01*
X111113922Y-101938787D01*
X111119466Y-101962721D01*
X111126268Y-101994573D01*
X111134179Y-102033644D01*
X111143047Y-102079237D01*
X111150901Y-102120850D01*
X111159151Y-102164601D01*
X111167001Y-102205265D01*
X111174225Y-102241748D01*
X111180599Y-102272957D01*
X111185898Y-102297798D01*
X111189897Y-102315177D01*
X111192372Y-102324000D01*
X111192802Y-102324834D01*
X111199048Y-102328371D01*
X111213151Y-102334916D01*
X111233676Y-102343889D01*
X111259190Y-102354710D01*
X111288258Y-102366800D01*
X111319446Y-102379578D01*
X111351320Y-102392466D01*
X111382447Y-102404882D01*
X111411392Y-102416248D01*
X111436721Y-102425983D01*
X111456999Y-102433508D01*
X111470794Y-102438242D01*
X111476671Y-102439607D01*
X111476678Y-102439605D01*
X111481988Y-102436333D01*
X111494724Y-102427928D01*
X111513948Y-102415025D01*
X111538724Y-102398257D01*
X111568114Y-102378260D01*
X111601180Y-102355669D01*
X111636986Y-102331119D01*
X111645656Y-102325162D01*
X111682085Y-102300277D01*
X111716148Y-102277306D01*
X111746886Y-102256874D01*
X111773339Y-102239606D01*
X111794549Y-102226126D01*
X111809556Y-102217059D01*
X111817401Y-102213028D01*
X111818086Y-102212879D01*
X111823807Y-102216391D01*
X111835602Y-102226292D01*
X111852520Y-102241632D01*
X111873609Y-102261458D01*
X111897919Y-102284820D01*
X111924500Y-102310767D01*
X111952400Y-102338347D01*
X111980669Y-102366609D01*
X112008355Y-102394603D01*
X112034508Y-102421376D01*
X112058178Y-102445978D01*
X112078412Y-102467458D01*
X112094261Y-102484864D01*
X112104774Y-102497246D01*
X112108999Y-102503651D01*
X112109040Y-102503938D01*
X112106243Y-102510058D01*
X112098279Y-102523530D01*
X112085789Y-102543372D01*
X112069410Y-102568598D01*
X112049783Y-102598226D01*
X112027547Y-102631269D01*
X112003341Y-102666745D01*
X112001788Y-102669005D01*
X111977294Y-102704726D01*
X111954499Y-102738139D01*
X111934080Y-102768244D01*
X111916708Y-102794038D01*
X111903060Y-102814521D01*
X111893807Y-102828692D01*
X111889626Y-102835550D01*
X111889568Y-102835670D01*
X111888784Y-102840391D01*
X111889912Y-102848231D01*
X111893299Y-102860143D01*
X111899292Y-102877084D01*
X111908241Y-102900007D01*
X111920491Y-102929867D01*
X111936390Y-102967619D01*
X111944749Y-102987252D01*
X111961018Y-103024852D01*
X111976011Y-103058510D01*
X111989231Y-103087168D01*
X112000175Y-103109772D01*
X112008346Y-103125265D01*
X112013243Y-103132592D01*
X112013710Y-103132948D01*
X112020560Y-103134928D01*
X112036248Y-103138502D01*
X112059616Y-103143434D01*
X112089508Y-103149491D01*
X112124767Y-103156439D01*
X112164236Y-103164044D01*
X112206757Y-103172071D01*
X112211409Y-103172940D01*
X112260146Y-103182180D01*
X112303053Y-103190621D01*
X112339390Y-103198102D01*
X112368418Y-103204463D01*
X112389397Y-103209544D01*
X112401585Y-103213184D01*
X112404451Y-103214714D01*
X112405372Y-103221096D01*
X112406225Y-103236503D01*
X112406989Y-103259798D01*
X112407638Y-103289847D01*
X112408151Y-103325514D01*
X112408503Y-103365663D01*
X112408671Y-103409159D01*
X112408682Y-103420027D01*
X112408649Y-103471548D01*
X112408486Y-103513801D01*
X112408162Y-103547680D01*
X112407647Y-103574077D01*
X112406908Y-103593884D01*
X112405916Y-103607996D01*
X112404639Y-103617303D01*
X112403046Y-103622699D01*
X112401595Y-103624741D01*
X112395095Y-103626999D01*
X112379763Y-103630799D01*
X112356765Y-103635898D01*
X112327271Y-103642050D01*
X112292450Y-103649013D01*
X112253470Y-103656543D01*
X112212365Y-103664236D01*
X112166210Y-103672897D01*
X112124798Y-103680981D01*
X112089062Y-103688286D01*
X112059937Y-103694611D01*
X112038354Y-103699758D01*
X112025249Y-103703525D01*
X112021726Y-103705133D01*
X112017704Y-103711585D01*
X112010714Y-103725987D01*
X112001314Y-103746948D01*
X111990063Y-103773082D01*
X111977519Y-103803000D01*
X111964240Y-103835313D01*
X111950785Y-103868634D01*
X111937712Y-103901575D01*
X111925580Y-103932747D01*
X111914946Y-103960763D01*
X111906369Y-103984233D01*
X111900408Y-104001771D01*
X111897620Y-104011987D01*
X111897556Y-104013842D01*
X111900901Y-104019358D01*
X111909348Y-104032262D01*
X111922236Y-104051573D01*
X111938906Y-104076312D01*
X111958697Y-104105498D01*
X111980948Y-104138151D01*
X112004512Y-104172582D01*
X112028487Y-104207797D01*
X112050526Y-104240662D01*
X112069982Y-104270174D01*
X112086209Y-104295331D01*
X112098558Y-104315130D01*
X112106383Y-104328568D01*
X112109040Y-104334588D01*
X112105537Y-104340258D01*
X112095662Y-104352017D01*
X112080363Y-104368914D01*
X112060590Y-104389997D01*
X112037290Y-104414314D01*
X112011414Y-104440912D01*
X111983908Y-104468838D01*
X111955723Y-104497142D01*
X111927807Y-104524870D01*
X111901109Y-104551071D01*
X111876578Y-104574792D01*
X111855162Y-104595081D01*
X111837810Y-104610985D01*
X111825471Y-104621554D01*
X111819094Y-104625834D01*
X111818792Y-104625880D01*
X111812917Y-104623089D01*
X111799690Y-104615148D01*
X111780102Y-104602705D01*
X111755147Y-104586406D01*
X111725814Y-104566900D01*
X111693098Y-104544834D01*
X111659274Y-104521740D01*
X111624192Y-104497807D01*
X111591493Y-104475813D01*
X111562179Y-104456405D01*
X111537247Y-104440232D01*
X111517696Y-104427942D01*
X111504527Y-104420183D01*
X111498812Y-104417600D01*
X111491386Y-104419920D01*
X111476894Y-104426305D01*
X111457157Y-104435890D01*
X111433991Y-104447810D01*
X111423350Y-104453481D01*
X111397800Y-104466747D01*
X111375514Y-104477375D01*
X111358172Y-104484622D01*
X111347456Y-104487744D01*
X111345823Y-104487771D01*
X111343235Y-104486377D01*
X111339874Y-104482452D01*
X111335467Y-104475381D01*
X111329738Y-104464547D01*
X111322414Y-104449334D01*
X111313220Y-104429125D01*
X111301884Y-104403305D01*
X111288129Y-104371257D01*
X111271684Y-104332365D01*
X111252272Y-104286012D01*
X111229620Y-104231582D01*
X111203454Y-104168459D01*
X111198860Y-104157359D01*
X111176257Y-104102528D01*
X111154911Y-104050342D01*
X111135128Y-104001575D01*
X111117213Y-103956998D01*
X111101473Y-103917386D01*
X111088212Y-103883510D01*
X111077736Y-103856143D01*
X111070352Y-103836060D01*
X111066364Y-103824031D01*
X111065760Y-103820809D01*
X111070949Y-103814897D01*
X111082723Y-103804827D01*
X111099234Y-103792102D01*
X111115173Y-103780629D01*
X111157327Y-103749570D01*
X111191753Y-103720231D01*
X111220203Y-103690682D01*
X111244432Y-103658997D01*
X111266194Y-103623247D01*
X111276863Y-103602918D01*
X111300756Y-103544488D01*
X111315076Y-103484158D01*
X111319979Y-103422953D01*
X111315623Y-103361898D01*
X111302163Y-103302019D01*
X111279756Y-103244342D01*
X111248559Y-103189891D01*
X111208727Y-103139692D01*
X111205664Y-103136411D01*
X111158017Y-103092833D01*
X111104808Y-103057422D01*
X111045354Y-103029755D01*
X111016660Y-103019807D01*
X110999933Y-103014974D01*
X110984165Y-103011632D01*
X110966854Y-103009519D01*
X110945497Y-103008373D01*
X110917593Y-103007935D01*
X110902540Y-103007900D01*
X110870915Y-103008110D01*
X110846936Y-103008916D01*
X110828093Y-103010578D01*
X110811877Y-103013357D01*
X110795778Y-103017516D01*
X110788240Y-103019802D01*
X110726246Y-103044205D01*
X110669961Y-103076690D01*
X110619969Y-103116763D01*
X110576854Y-103163933D01*
X110541201Y-103217707D01*
X110531329Y-103236500D01*
X110510756Y-103283357D01*
X110497234Y-103327726D01*
X110489860Y-103373443D01*
X110487727Y-103421920D01*
X110492586Y-103486989D01*
X110506992Y-103549065D01*
X110530688Y-103607510D01*
X110563416Y-103661687D01*
X110603955Y-103709975D01*
X110622140Y-103726971D01*
X110645762Y-103746791D01*
X110671748Y-103767052D01*
X110697023Y-103785368D01*
X110718514Y-103799354D01*
X110721139Y-103800883D01*
X110732832Y-103809785D01*
X110739872Y-103819264D01*
X110740325Y-103820648D01*
X110738872Y-103827322D01*
X110733641Y-103842833D01*
X110724832Y-103866671D01*
X110712647Y-103898326D01*
X110697287Y-103937287D01*
X110678953Y-103983043D01*
X110657846Y-104035085D01*
X110634166Y-104092901D01*
X110610728Y-104149679D01*
X110588300Y-104203781D01*
X110566914Y-104255286D01*
X110546903Y-104303399D01*
X110528599Y-104347325D01*
X110512334Y-104386268D01*
X110498442Y-104419433D01*
X110487253Y-104446026D01*
X110479102Y-104465249D01*
X110474319Y-104476309D01*
X110473253Y-104478609D01*
X110465020Y-104486716D01*
X110458211Y-104488720D01*
X110450498Y-104486394D01*
X110435745Y-104479995D01*
X110415790Y-104470387D01*
X110392470Y-104458437D01*
X110381642Y-104452672D01*
X110351834Y-104437192D01*
X110328316Y-104426189D01*
X110311875Y-104420007D01*
X110303822Y-104418837D01*
X110296680Y-104422269D01*
X110282538Y-104430700D01*
X110262709Y-104443286D01*
X110238506Y-104459184D01*
X110211241Y-104477551D01*
X110193880Y-104489461D01*
X110146962Y-104521822D01*
X110107682Y-104548815D01*
X110075352Y-104570892D01*
X110049281Y-104588506D01*
X110028781Y-104602109D01*
X110013163Y-104612155D01*
X110001739Y-104619097D01*
X109993819Y-104623388D01*
X109988714Y-104625480D01*
X109986387Y-104625880D01*
X109981121Y-104622399D01*
X109969535Y-104612478D01*
X109952460Y-104596897D01*
X109930721Y-104576437D01*
X109905148Y-104551880D01*
X109876568Y-104524006D01*
X109845809Y-104493597D01*
X109839731Y-104487541D01*
X109808736Y-104456470D01*
X109780010Y-104427382D01*
X109754357Y-104401112D01*
X109732577Y-104378494D01*
X109715473Y-104360363D01*
X109703847Y-104347552D01*
X109698501Y-104340896D01*
X109698266Y-104340413D01*
X109697367Y-104337436D01*
X109697052Y-104334393D01*
X109697835Y-104330460D01*
X109700226Y-104324812D01*
X109704737Y-104316624D01*
X109711879Y-104305072D01*
X109722165Y-104289330D01*
X109736105Y-104268575D01*
X109754212Y-104241980D01*
X109776996Y-104208721D01*
X109804969Y-104167973D01*
X109807515Y-104164266D01*
X109831161Y-104129625D01*
X109852865Y-104097438D01*
X109871973Y-104068706D01*
X109887831Y-104044428D01*
X109899785Y-104025605D01*
X109907181Y-104013237D01*
X109909400Y-104008469D01*
X109907571Y-104002070D01*
X109902390Y-103987455D01*
X109894314Y-103965826D01*
X109883802Y-103938385D01*
X109871312Y-103906333D01*
X109857300Y-103870874D01*
X109850294Y-103853307D01*
X109832557Y-103809314D01*
X109818005Y-103774051D01*
X109806276Y-103746727D01*
X109797006Y-103726551D01*
X109789833Y-103712734D01*
X109784394Y-103704485D01*
X109780444Y-103701059D01*
X109773085Y-103699121D01*
X109756936Y-103695609D01*
X109733202Y-103690762D01*
X109703091Y-103684819D01*
X109667809Y-103678018D01*
X109628562Y-103670597D01*
X109589921Y-103663414D01*
X109548281Y-103655616D01*
X109509669Y-103648154D01*
X109475261Y-103641273D01*
X109446230Y-103635217D01*
X109423751Y-103630232D01*
X109408998Y-103626560D01*
X109403231Y-103624531D01*
X109401433Y-103621360D01*
X109399961Y-103614541D01*
X109398785Y-103603211D01*
X109397877Y-103586509D01*
X109397207Y-103563571D01*
X109396746Y-103533536D01*
X109396465Y-103495541D01*
X109396336Y-103448724D01*
X109396320Y-103418875D01*
X109396320Y-103218954D01*
X109407750Y-103211902D01*
X109415237Y-103209400D01*
X109431536Y-103205372D01*
X109455455Y-103200066D01*
X109485802Y-103193732D01*
X109521384Y-103186617D01*
X109561009Y-103178971D01*
X109603486Y-103171042D01*
X109604600Y-103170838D01*
X109646876Y-103162950D01*
X109686108Y-103155374D01*
X109721145Y-103148352D01*
X109750836Y-103142126D01*
X109774030Y-103136937D01*
X109789576Y-103133026D01*
X109796323Y-103130637D01*
X109796405Y-103130566D01*
X109800090Y-103124301D01*
X109807022Y-103110106D01*
X109816577Y-103089428D01*
X109828134Y-103063713D01*
X109841070Y-103034406D01*
X109854763Y-103002954D01*
X109868591Y-102970802D01*
X109881931Y-102939397D01*
X109894161Y-102910185D01*
X109904659Y-102884611D01*
X109912803Y-102864123D01*
X109917969Y-102850165D01*
X109919560Y-102844394D01*
X109916767Y-102838575D01*
X109908811Y-102825372D01*
X109896319Y-102805749D01*
X109879924Y-102780667D01*
X109860254Y-102751089D01*
X109837939Y-102717976D01*
X109813611Y-102682293D01*
X109809742Y-102676655D01*
X109785048Y-102640538D01*
X109762155Y-102606750D01*
X109741713Y-102576274D01*
X109724371Y-102550088D01*
X109710778Y-102529175D01*
X109701583Y-102514516D01*
X109697434Y-102507090D01*
X109697293Y-102506684D01*
X109698054Y-102502579D01*
X109702214Y-102495668D01*
X109710317Y-102485355D01*
X109722905Y-102471048D01*
X109740521Y-102452154D01*
X109763708Y-102428078D01*
X109793008Y-102398226D01*
X109828964Y-102362005D01*
X109836199Y-102354749D01*
X109872218Y-102318889D01*
X109904356Y-102287378D01*
X109932068Y-102260731D01*
X109954806Y-102239461D01*
X109972023Y-102224081D01*
X109983174Y-102215105D01*
X109987325Y-102212880D01*
X109993560Y-102215672D01*
X110007156Y-102223627D01*
X110027133Y-102236110D01*
X110052508Y-102252487D01*
X110082300Y-102272122D01*
X110115526Y-102294382D01*
X110151205Y-102318631D01*
X110155086Y-102321289D01*
X110191100Y-102345928D01*
X110224822Y-102368914D01*
X110255253Y-102389573D01*
X110281395Y-102407230D01*
X110302248Y-102421211D01*
X110316815Y-102430841D01*
X110324096Y-102435446D01*
X110324352Y-102435587D01*
X110328805Y-102436941D01*
X110335339Y-102436744D01*
X110345059Y-102434631D01*
X110359068Y-102430234D01*
X110378471Y-102423187D01*
X110404373Y-102413124D01*
X110437877Y-102399677D01*
X110461512Y-102390068D01*
X110503366Y-102372981D01*
X110536788Y-102359243D01*
X110562760Y-102348382D01*
X110582264Y-102339926D01*
X110596281Y-102333403D01*
X110605795Y-102328340D01*
X110611786Y-102324266D01*
X110615236Y-102320708D01*
X110617128Y-102317193D01*
X110617945Y-102314840D01*
X110619560Y-102307736D01*
X110622793Y-102291805D01*
X110627420Y-102268215D01*
X110633216Y-102238129D01*
X110639958Y-102202714D01*
X110647420Y-102163135D01*
X110655378Y-102120558D01*
X110656195Y-102116168D01*
X110664252Y-102073481D01*
X110671968Y-102033799D01*
X110679104Y-101998266D01*
X110685420Y-101968028D01*
X110690676Y-101944228D01*
X110694633Y-101928012D01*
X110697050Y-101920524D01*
X110697212Y-101920283D01*
X110700242Y-101918437D01*
X110706563Y-101916928D01*
X110717063Y-101915727D01*
X110732633Y-101914801D01*
X110754159Y-101914121D01*
X110782532Y-101913657D01*
X110818639Y-101913376D01*
X110863370Y-101913250D01*
X110901892Y-101913237D01*
X110946025Y-101913358D01*
X110946025Y-101913358D01*
G37*
X110946025Y-101913358D02*
X110987086Y-101913668D01*
X111023939Y-101914144D01*
X111055448Y-101914763D01*
X111080478Y-101915502D01*
X111097893Y-101916337D01*
X111106557Y-101917244D01*
X111107210Y-101917471D01*
X111109787Y-101923471D01*
X111113922Y-101938787D01*
X111119466Y-101962721D01*
X111126268Y-101994573D01*
X111134179Y-102033644D01*
X111143047Y-102079237D01*
X111150901Y-102120850D01*
X111159151Y-102164601D01*
X111167001Y-102205265D01*
X111174225Y-102241748D01*
X111180599Y-102272957D01*
X111185898Y-102297798D01*
X111189897Y-102315177D01*
X111192372Y-102324000D01*
X111192802Y-102324834D01*
X111199048Y-102328371D01*
X111213151Y-102334916D01*
X111233676Y-102343889D01*
X111259190Y-102354710D01*
X111288258Y-102366800D01*
X111319446Y-102379578D01*
X111351320Y-102392466D01*
X111382447Y-102404882D01*
X111411392Y-102416248D01*
X111436721Y-102425983D01*
X111456999Y-102433508D01*
X111470794Y-102438242D01*
X111476671Y-102439607D01*
X111476678Y-102439605D01*
X111481988Y-102436333D01*
X111494724Y-102427928D01*
X111513948Y-102415025D01*
X111538724Y-102398257D01*
X111568114Y-102378260D01*
X111601180Y-102355669D01*
X111636986Y-102331119D01*
X111645656Y-102325162D01*
X111682085Y-102300277D01*
X111716148Y-102277306D01*
X111746886Y-102256874D01*
X111773339Y-102239606D01*
X111794549Y-102226126D01*
X111809556Y-102217059D01*
X111817401Y-102213028D01*
X111818086Y-102212879D01*
X111823807Y-102216391D01*
X111835602Y-102226292D01*
X111852520Y-102241632D01*
X111873609Y-102261458D01*
X111897919Y-102284820D01*
X111924500Y-102310767D01*
X111952400Y-102338347D01*
X111980669Y-102366609D01*
X112008355Y-102394603D01*
X112034508Y-102421376D01*
X112058178Y-102445978D01*
X112078412Y-102467458D01*
X112094261Y-102484864D01*
X112104774Y-102497246D01*
X112108999Y-102503651D01*
X112109040Y-102503938D01*
X112106243Y-102510058D01*
X112098279Y-102523530D01*
X112085789Y-102543372D01*
X112069410Y-102568598D01*
X112049783Y-102598226D01*
X112027547Y-102631269D01*
X112003341Y-102666745D01*
X112001788Y-102669005D01*
X111977294Y-102704726D01*
X111954499Y-102738139D01*
X111934080Y-102768244D01*
X111916708Y-102794038D01*
X111903060Y-102814521D01*
X111893807Y-102828692D01*
X111889626Y-102835550D01*
X111889568Y-102835670D01*
X111888784Y-102840391D01*
X111889912Y-102848231D01*
X111893299Y-102860143D01*
X111899292Y-102877084D01*
X111908241Y-102900007D01*
X111920491Y-102929867D01*
X111936390Y-102967619D01*
X111944749Y-102987252D01*
X111961018Y-103024852D01*
X111976011Y-103058510D01*
X111989231Y-103087168D01*
X112000175Y-103109772D01*
X112008346Y-103125265D01*
X112013243Y-103132592D01*
X112013710Y-103132948D01*
X112020560Y-103134928D01*
X112036248Y-103138502D01*
X112059616Y-103143434D01*
X112089508Y-103149491D01*
X112124767Y-103156439D01*
X112164236Y-103164044D01*
X112206757Y-103172071D01*
X112211409Y-103172940D01*
X112260146Y-103182180D01*
X112303053Y-103190621D01*
X112339390Y-103198102D01*
X112368418Y-103204463D01*
X112389397Y-103209544D01*
X112401585Y-103213184D01*
X112404451Y-103214714D01*
X112405372Y-103221096D01*
X112406225Y-103236503D01*
X112406989Y-103259798D01*
X112407638Y-103289847D01*
X112408151Y-103325514D01*
X112408503Y-103365663D01*
X112408671Y-103409159D01*
X112408682Y-103420027D01*
X112408649Y-103471548D01*
X112408486Y-103513801D01*
X112408162Y-103547680D01*
X112407647Y-103574077D01*
X112406908Y-103593884D01*
X112405916Y-103607996D01*
X112404639Y-103617303D01*
X112403046Y-103622699D01*
X112401595Y-103624741D01*
X112395095Y-103626999D01*
X112379763Y-103630799D01*
X112356765Y-103635898D01*
X112327271Y-103642050D01*
X112292450Y-103649013D01*
X112253470Y-103656543D01*
X112212365Y-103664236D01*
X112166210Y-103672897D01*
X112124798Y-103680981D01*
X112089062Y-103688286D01*
X112059937Y-103694611D01*
X112038354Y-103699758D01*
X112025249Y-103703525D01*
X112021726Y-103705133D01*
X112017704Y-103711585D01*
X112010714Y-103725987D01*
X112001314Y-103746948D01*
X111990063Y-103773082D01*
X111977519Y-103803000D01*
X111964240Y-103835313D01*
X111950785Y-103868634D01*
X111937712Y-103901575D01*
X111925580Y-103932747D01*
X111914946Y-103960763D01*
X111906369Y-103984233D01*
X111900408Y-104001771D01*
X111897620Y-104011987D01*
X111897556Y-104013842D01*
X111900901Y-104019358D01*
X111909348Y-104032262D01*
X111922236Y-104051573D01*
X111938906Y-104076312D01*
X111958697Y-104105498D01*
X111980948Y-104138151D01*
X112004512Y-104172582D01*
X112028487Y-104207797D01*
X112050526Y-104240662D01*
X112069982Y-104270174D01*
X112086209Y-104295331D01*
X112098558Y-104315130D01*
X112106383Y-104328568D01*
X112109040Y-104334588D01*
X112105537Y-104340258D01*
X112095662Y-104352017D01*
X112080363Y-104368914D01*
X112060590Y-104389997D01*
X112037290Y-104414314D01*
X112011414Y-104440912D01*
X111983908Y-104468838D01*
X111955723Y-104497142D01*
X111927807Y-104524870D01*
X111901109Y-104551071D01*
X111876578Y-104574792D01*
X111855162Y-104595081D01*
X111837810Y-104610985D01*
X111825471Y-104621554D01*
X111819094Y-104625834D01*
X111818792Y-104625880D01*
X111812917Y-104623089D01*
X111799690Y-104615148D01*
X111780102Y-104602705D01*
X111755147Y-104586406D01*
X111725814Y-104566900D01*
X111693098Y-104544834D01*
X111659274Y-104521740D01*
X111624192Y-104497807D01*
X111591493Y-104475813D01*
X111562179Y-104456405D01*
X111537247Y-104440232D01*
X111517696Y-104427942D01*
X111504527Y-104420183D01*
X111498812Y-104417600D01*
X111491386Y-104419920D01*
X111476894Y-104426305D01*
X111457157Y-104435890D01*
X111433991Y-104447810D01*
X111423350Y-104453481D01*
X111397800Y-104466747D01*
X111375514Y-104477375D01*
X111358172Y-104484622D01*
X111347456Y-104487744D01*
X111345823Y-104487771D01*
X111343235Y-104486377D01*
X111339874Y-104482452D01*
X111335467Y-104475381D01*
X111329738Y-104464547D01*
X111322414Y-104449334D01*
X111313220Y-104429125D01*
X111301884Y-104403305D01*
X111288129Y-104371257D01*
X111271684Y-104332365D01*
X111252272Y-104286012D01*
X111229620Y-104231582D01*
X111203454Y-104168459D01*
X111198860Y-104157359D01*
X111176257Y-104102528D01*
X111154911Y-104050342D01*
X111135128Y-104001575D01*
X111117213Y-103956998D01*
X111101473Y-103917386D01*
X111088212Y-103883510D01*
X111077736Y-103856143D01*
X111070352Y-103836060D01*
X111066364Y-103824031D01*
X111065760Y-103820809D01*
X111070949Y-103814897D01*
X111082723Y-103804827D01*
X111099234Y-103792102D01*
X111115173Y-103780629D01*
X111157327Y-103749570D01*
X111191753Y-103720231D01*
X111220203Y-103690682D01*
X111244432Y-103658997D01*
X111266194Y-103623247D01*
X111276863Y-103602918D01*
X111300756Y-103544488D01*
X111315076Y-103484158D01*
X111319979Y-103422953D01*
X111315623Y-103361898D01*
X111302163Y-103302019D01*
X111279756Y-103244342D01*
X111248559Y-103189891D01*
X111208727Y-103139692D01*
X111205664Y-103136411D01*
X111158017Y-103092833D01*
X111104808Y-103057422D01*
X111045354Y-103029755D01*
X111016660Y-103019807D01*
X110999933Y-103014974D01*
X110984165Y-103011632D01*
X110966854Y-103009519D01*
X110945497Y-103008373D01*
X110917593Y-103007935D01*
X110902540Y-103007900D01*
X110870915Y-103008110D01*
X110846936Y-103008916D01*
X110828093Y-103010578D01*
X110811877Y-103013357D01*
X110795778Y-103017516D01*
X110788240Y-103019802D01*
X110726246Y-103044205D01*
X110669961Y-103076690D01*
X110619969Y-103116763D01*
X110576854Y-103163933D01*
X110541201Y-103217707D01*
X110531329Y-103236500D01*
X110510756Y-103283357D01*
X110497234Y-103327726D01*
X110489860Y-103373443D01*
X110487727Y-103421920D01*
X110492586Y-103486989D01*
X110506992Y-103549065D01*
X110530688Y-103607510D01*
X110563416Y-103661687D01*
X110603955Y-103709975D01*
X110622140Y-103726971D01*
X110645762Y-103746791D01*
X110671748Y-103767052D01*
X110697023Y-103785368D01*
X110718514Y-103799354D01*
X110721139Y-103800883D01*
X110732832Y-103809785D01*
X110739872Y-103819264D01*
X110740325Y-103820648D01*
X110738872Y-103827322D01*
X110733641Y-103842833D01*
X110724832Y-103866671D01*
X110712647Y-103898326D01*
X110697287Y-103937287D01*
X110678953Y-103983043D01*
X110657846Y-104035085D01*
X110634166Y-104092901D01*
X110610728Y-104149679D01*
X110588300Y-104203781D01*
X110566914Y-104255286D01*
X110546903Y-104303399D01*
X110528599Y-104347325D01*
X110512334Y-104386268D01*
X110498442Y-104419433D01*
X110487253Y-104446026D01*
X110479102Y-104465249D01*
X110474319Y-104476309D01*
X110473253Y-104478609D01*
X110465020Y-104486716D01*
X110458211Y-104488720D01*
X110450498Y-104486394D01*
X110435745Y-104479995D01*
X110415790Y-104470387D01*
X110392470Y-104458437D01*
X110381642Y-104452672D01*
X110351834Y-104437192D01*
X110328316Y-104426189D01*
X110311875Y-104420007D01*
X110303822Y-104418837D01*
X110296680Y-104422269D01*
X110282538Y-104430700D01*
X110262709Y-104443286D01*
X110238506Y-104459184D01*
X110211241Y-104477551D01*
X110193880Y-104489461D01*
X110146962Y-104521822D01*
X110107682Y-104548815D01*
X110075352Y-104570892D01*
X110049281Y-104588506D01*
X110028781Y-104602109D01*
X110013163Y-104612155D01*
X110001739Y-104619097D01*
X109993819Y-104623388D01*
X109988714Y-104625480D01*
X109986387Y-104625880D01*
X109981121Y-104622399D01*
X109969535Y-104612478D01*
X109952460Y-104596897D01*
X109930721Y-104576437D01*
X109905148Y-104551880D01*
X109876568Y-104524006D01*
X109845809Y-104493597D01*
X109839731Y-104487541D01*
X109808736Y-104456470D01*
X109780010Y-104427382D01*
X109754357Y-104401112D01*
X109732577Y-104378494D01*
X109715473Y-104360363D01*
X109703847Y-104347552D01*
X109698501Y-104340896D01*
X109698266Y-104340413D01*
X109697367Y-104337436D01*
X109697052Y-104334393D01*
X109697835Y-104330460D01*
X109700226Y-104324812D01*
X109704737Y-104316624D01*
X109711879Y-104305072D01*
X109722165Y-104289330D01*
X109736105Y-104268575D01*
X109754212Y-104241980D01*
X109776996Y-104208721D01*
X109804969Y-104167973D01*
X109807515Y-104164266D01*
X109831161Y-104129625D01*
X109852865Y-104097438D01*
X109871973Y-104068706D01*
X109887831Y-104044428D01*
X109899785Y-104025605D01*
X109907181Y-104013237D01*
X109909400Y-104008469D01*
X109907571Y-104002070D01*
X109902390Y-103987455D01*
X109894314Y-103965826D01*
X109883802Y-103938385D01*
X109871312Y-103906333D01*
X109857300Y-103870874D01*
X109850294Y-103853307D01*
X109832557Y-103809314D01*
X109818005Y-103774051D01*
X109806276Y-103746727D01*
X109797006Y-103726551D01*
X109789833Y-103712734D01*
X109784394Y-103704485D01*
X109780444Y-103701059D01*
X109773085Y-103699121D01*
X109756936Y-103695609D01*
X109733202Y-103690762D01*
X109703091Y-103684819D01*
X109667809Y-103678018D01*
X109628562Y-103670597D01*
X109589921Y-103663414D01*
X109548281Y-103655616D01*
X109509669Y-103648154D01*
X109475261Y-103641273D01*
X109446230Y-103635217D01*
X109423751Y-103630232D01*
X109408998Y-103626560D01*
X109403231Y-103624531D01*
X109401433Y-103621360D01*
X109399961Y-103614541D01*
X109398785Y-103603211D01*
X109397877Y-103586509D01*
X109397207Y-103563571D01*
X109396746Y-103533536D01*
X109396465Y-103495541D01*
X109396336Y-103448724D01*
X109396320Y-103418875D01*
X109396320Y-103218954D01*
X109407750Y-103211902D01*
X109415237Y-103209400D01*
X109431536Y-103205372D01*
X109455455Y-103200066D01*
X109485802Y-103193732D01*
X109521384Y-103186617D01*
X109561009Y-103178971D01*
X109603486Y-103171042D01*
X109604600Y-103170838D01*
X109646876Y-103162950D01*
X109686108Y-103155374D01*
X109721145Y-103148352D01*
X109750836Y-103142126D01*
X109774030Y-103136937D01*
X109789576Y-103133026D01*
X109796323Y-103130637D01*
X109796405Y-103130566D01*
X109800090Y-103124301D01*
X109807022Y-103110106D01*
X109816577Y-103089428D01*
X109828134Y-103063713D01*
X109841070Y-103034406D01*
X109854763Y-103002954D01*
X109868591Y-102970802D01*
X109881931Y-102939397D01*
X109894161Y-102910185D01*
X109904659Y-102884611D01*
X109912803Y-102864123D01*
X109917969Y-102850165D01*
X109919560Y-102844394D01*
X109916767Y-102838575D01*
X109908811Y-102825372D01*
X109896319Y-102805749D01*
X109879924Y-102780667D01*
X109860254Y-102751089D01*
X109837939Y-102717976D01*
X109813611Y-102682293D01*
X109809742Y-102676655D01*
X109785048Y-102640538D01*
X109762155Y-102606750D01*
X109741713Y-102576274D01*
X109724371Y-102550088D01*
X109710778Y-102529175D01*
X109701583Y-102514516D01*
X109697434Y-102507090D01*
X109697293Y-102506684D01*
X109698054Y-102502579D01*
X109702214Y-102495668D01*
X109710317Y-102485355D01*
X109722905Y-102471048D01*
X109740521Y-102452154D01*
X109763708Y-102428078D01*
X109793008Y-102398226D01*
X109828964Y-102362005D01*
X109836199Y-102354749D01*
X109872218Y-102318889D01*
X109904356Y-102287378D01*
X109932068Y-102260731D01*
X109954806Y-102239461D01*
X109972023Y-102224081D01*
X109983174Y-102215105D01*
X109987325Y-102212880D01*
X109993560Y-102215672D01*
X110007156Y-102223627D01*
X110027133Y-102236110D01*
X110052508Y-102252487D01*
X110082300Y-102272122D01*
X110115526Y-102294382D01*
X110151205Y-102318631D01*
X110155086Y-102321289D01*
X110191100Y-102345928D01*
X110224822Y-102368914D01*
X110255253Y-102389573D01*
X110281395Y-102407230D01*
X110302248Y-102421211D01*
X110316815Y-102430841D01*
X110324096Y-102435446D01*
X110324352Y-102435587D01*
X110328805Y-102436941D01*
X110335339Y-102436744D01*
X110345059Y-102434631D01*
X110359068Y-102430234D01*
X110378471Y-102423187D01*
X110404373Y-102413124D01*
X110437877Y-102399677D01*
X110461512Y-102390068D01*
X110503366Y-102372981D01*
X110536788Y-102359243D01*
X110562760Y-102348382D01*
X110582264Y-102339926D01*
X110596281Y-102333403D01*
X110605795Y-102328340D01*
X110611786Y-102324266D01*
X110615236Y-102320708D01*
X110617128Y-102317193D01*
X110617945Y-102314840D01*
X110619560Y-102307736D01*
X110622793Y-102291805D01*
X110627420Y-102268215D01*
X110633216Y-102238129D01*
X110639958Y-102202714D01*
X110647420Y-102163135D01*
X110655378Y-102120558D01*
X110656195Y-102116168D01*
X110664252Y-102073481D01*
X110671968Y-102033799D01*
X110679104Y-101998266D01*
X110685420Y-101968028D01*
X110690676Y-101944228D01*
X110694633Y-101928012D01*
X110697050Y-101920524D01*
X110697212Y-101920283D01*
X110700242Y-101918437D01*
X110706563Y-101916928D01*
X110717063Y-101915727D01*
X110732633Y-101914801D01*
X110754159Y-101914121D01*
X110782532Y-101913657D01*
X110818639Y-101913376D01*
X110863370Y-101913250D01*
X110901892Y-101913237D01*
X110946025Y-101913358D01*
D12*
G36*
X148634239Y-109811467D02*
X148948282Y-109873934D01*
X149539926Y-110119001D01*
X149829523Y-110312504D01*
X150072395Y-110474786D01*
X150525214Y-110927605D01*
X150525216Y-110927608D01*
X150880999Y-111460074D01*
X151002724Y-111753944D01*
X151126066Y-112051719D01*
X151251000Y-112679803D01*
X151251000Y-113320197D01*
X151188533Y-113634239D01*
X151126066Y-113948282D01*
X150880999Y-114539926D01*
X150640457Y-114899922D01*
X150525214Y-115072395D01*
X150072395Y-115525214D01*
X150072392Y-115525216D01*
X149539926Y-115880999D01*
X148948282Y-116126066D01*
X148634239Y-116188533D01*
X148320197Y-116251000D01*
X147679803Y-116251000D01*
X147365761Y-116188533D01*
X147051718Y-116126066D01*
X146460074Y-115880999D01*
X145927608Y-115525216D01*
X145927605Y-115525214D01*
X145474786Y-115072395D01*
X145359543Y-114899922D01*
X145119001Y-114539926D01*
X144873934Y-113948282D01*
X144811467Y-113634239D01*
X144749000Y-113320197D01*
X144749000Y-112679803D01*
X144873934Y-112051719D01*
X144997276Y-111753944D01*
X145119001Y-111460074D01*
X145474784Y-110927608D01*
X145474786Y-110927605D01*
X145927605Y-110474786D01*
X146170477Y-110312504D01*
X146460074Y-110119001D01*
X147051718Y-109873934D01*
X147365761Y-109811467D01*
X147679803Y-109749000D01*
X148320197Y-109749000D01*
X148634239Y-109811467D01*
X148634239Y-109811467D01*
G37*
G36*
X110634239Y-109811467D02*
X110948282Y-109873934D01*
X111539926Y-110119001D01*
X111829523Y-110312504D01*
X112072395Y-110474786D01*
X112525214Y-110927605D01*
X112525216Y-110927608D01*
X112880999Y-111460074D01*
X113002724Y-111753944D01*
X113126066Y-112051719D01*
X113251000Y-112679803D01*
X113251000Y-113320197D01*
X113188533Y-113634239D01*
X113126066Y-113948282D01*
X112880999Y-114539926D01*
X112640457Y-114899922D01*
X112525214Y-115072395D01*
X112072395Y-115525214D01*
X112072392Y-115525216D01*
X111539926Y-115880999D01*
X110948282Y-116126066D01*
X110634239Y-116188533D01*
X110320197Y-116251000D01*
X109679803Y-116251000D01*
X109365761Y-116188533D01*
X109051718Y-116126066D01*
X108460074Y-115880999D01*
X107927608Y-115525216D01*
X107927605Y-115525214D01*
X107474786Y-115072395D01*
X107359543Y-114899922D01*
X107119001Y-114539926D01*
X106873934Y-113948282D01*
X106811467Y-113634239D01*
X106749000Y-113320197D01*
X106749000Y-112679803D01*
X106873934Y-112051719D01*
X106997276Y-111753944D01*
X107119001Y-111460074D01*
X107474784Y-110927608D01*
X107474786Y-110927605D01*
X107927605Y-110474786D01*
X108170477Y-110312504D01*
X108460074Y-110119001D01*
X109051718Y-109873934D01*
X109365761Y-109811467D01*
X109679803Y-109749000D01*
X110320197Y-109749000D01*
X110634239Y-109811467D01*
X110634239Y-109811467D01*
G37*
G36*
X131026821Y-114536313D02*
X131026824Y-114536314D01*
X131026825Y-114536314D01*
X131187239Y-114584975D01*
X131187241Y-114584976D01*
X131187244Y-114584977D01*
X131335078Y-114663995D01*
X131464659Y-114770341D01*
X131571005Y-114899922D01*
X131650023Y-115047756D01*
X131650024Y-115047759D01*
X131650025Y-115047761D01*
X131680449Y-115148056D01*
X131698687Y-115208179D01*
X131715117Y-115375000D01*
X131698687Y-115541821D01*
X131698686Y-115541824D01*
X131698686Y-115541825D01*
X131676905Y-115613629D01*
X131650023Y-115702244D01*
X131571005Y-115850078D01*
X131464659Y-115979659D01*
X131335078Y-116086005D01*
X131187244Y-116165023D01*
X131187241Y-116165024D01*
X131187239Y-116165025D01*
X131026825Y-116213686D01*
X131026824Y-116213686D01*
X131026821Y-116213687D01*
X130901804Y-116226000D01*
X130818196Y-116226000D01*
X130693179Y-116213687D01*
X130693176Y-116213686D01*
X130693175Y-116213686D01*
X130532761Y-116165025D01*
X130532759Y-116165024D01*
X130532756Y-116165023D01*
X130384922Y-116086005D01*
X130255341Y-115979659D01*
X130148995Y-115850078D01*
X130069977Y-115702244D01*
X130043096Y-115613629D01*
X130021314Y-115541825D01*
X130021314Y-115541824D01*
X130021313Y-115541821D01*
X130004883Y-115375000D01*
X130021313Y-115208179D01*
X130039551Y-115148056D01*
X130069975Y-115047761D01*
X130069976Y-115047759D01*
X130069977Y-115047756D01*
X130148995Y-114899922D01*
X130255341Y-114770341D01*
X130384922Y-114663995D01*
X130532756Y-114584977D01*
X130532759Y-114584976D01*
X130532761Y-114584975D01*
X130693175Y-114536314D01*
X130693176Y-114536314D01*
X130693179Y-114536313D01*
X130818196Y-114524000D01*
X130901804Y-114524000D01*
X131026821Y-114536313D01*
X131026821Y-114536313D01*
G37*
G36*
X138646821Y-114536313D02*
X138646824Y-114536314D01*
X138646825Y-114536314D01*
X138807239Y-114584975D01*
X138807241Y-114584976D01*
X138807244Y-114584977D01*
X138955078Y-114663995D01*
X139084659Y-114770341D01*
X139191005Y-114899922D01*
X139270023Y-115047756D01*
X139270024Y-115047759D01*
X139270025Y-115047761D01*
X139300449Y-115148056D01*
X139318687Y-115208179D01*
X139335117Y-115375000D01*
X139318687Y-115541821D01*
X139318686Y-115541824D01*
X139318686Y-115541825D01*
X139296905Y-115613629D01*
X139270023Y-115702244D01*
X139191005Y-115850078D01*
X139084659Y-115979659D01*
X138955078Y-116086005D01*
X138807244Y-116165023D01*
X138807241Y-116165024D01*
X138807239Y-116165025D01*
X138646825Y-116213686D01*
X138646824Y-116213686D01*
X138646821Y-116213687D01*
X138521804Y-116226000D01*
X138438196Y-116226000D01*
X138313179Y-116213687D01*
X138313176Y-116213686D01*
X138313175Y-116213686D01*
X138152761Y-116165025D01*
X138152759Y-116165024D01*
X138152756Y-116165023D01*
X138004922Y-116086005D01*
X137875341Y-115979659D01*
X137768995Y-115850078D01*
X137689977Y-115702244D01*
X137663096Y-115613629D01*
X137641314Y-115541825D01*
X137641314Y-115541824D01*
X137641313Y-115541821D01*
X137624883Y-115375000D01*
X137641313Y-115208179D01*
X137659551Y-115148056D01*
X137689975Y-115047761D01*
X137689976Y-115047759D01*
X137689977Y-115047756D01*
X137768995Y-114899922D01*
X137875341Y-114770341D01*
X138004922Y-114663995D01*
X138152756Y-114584977D01*
X138152759Y-114584976D01*
X138152761Y-114584975D01*
X138313175Y-114536314D01*
X138313176Y-114536314D01*
X138313179Y-114536313D01*
X138438196Y-114524000D01*
X138521804Y-114524000D01*
X138646821Y-114536313D01*
X138646821Y-114536313D01*
G37*
G36*
X136106821Y-114536313D02*
X136106824Y-114536314D01*
X136106825Y-114536314D01*
X136267239Y-114584975D01*
X136267241Y-114584976D01*
X136267244Y-114584977D01*
X136415078Y-114663995D01*
X136544659Y-114770341D01*
X136651005Y-114899922D01*
X136730023Y-115047756D01*
X136730024Y-115047759D01*
X136730025Y-115047761D01*
X136760449Y-115148056D01*
X136778687Y-115208179D01*
X136795117Y-115375000D01*
X136778687Y-115541821D01*
X136778686Y-115541824D01*
X136778686Y-115541825D01*
X136756905Y-115613629D01*
X136730023Y-115702244D01*
X136651005Y-115850078D01*
X136544659Y-115979659D01*
X136415078Y-116086005D01*
X136267244Y-116165023D01*
X136267241Y-116165024D01*
X136267239Y-116165025D01*
X136106825Y-116213686D01*
X136106824Y-116213686D01*
X136106821Y-116213687D01*
X135981804Y-116226000D01*
X135898196Y-116226000D01*
X135773179Y-116213687D01*
X135773176Y-116213686D01*
X135773175Y-116213686D01*
X135612761Y-116165025D01*
X135612759Y-116165024D01*
X135612756Y-116165023D01*
X135464922Y-116086005D01*
X135335341Y-115979659D01*
X135228995Y-115850078D01*
X135149977Y-115702244D01*
X135123096Y-115613629D01*
X135101314Y-115541825D01*
X135101314Y-115541824D01*
X135101313Y-115541821D01*
X135084883Y-115375000D01*
X135101313Y-115208179D01*
X135119551Y-115148056D01*
X135149975Y-115047761D01*
X135149976Y-115047759D01*
X135149977Y-115047756D01*
X135228995Y-114899922D01*
X135335341Y-114770341D01*
X135464922Y-114663995D01*
X135612756Y-114584977D01*
X135612759Y-114584976D01*
X135612761Y-114584975D01*
X135773175Y-114536314D01*
X135773176Y-114536314D01*
X135773179Y-114536313D01*
X135898196Y-114524000D01*
X135981804Y-114524000D01*
X136106821Y-114536313D01*
X136106821Y-114536313D01*
G37*
G36*
X133566821Y-114536313D02*
X133566824Y-114536314D01*
X133566825Y-114536314D01*
X133727239Y-114584975D01*
X133727241Y-114584976D01*
X133727244Y-114584977D01*
X133875078Y-114663995D01*
X134004659Y-114770341D01*
X134111005Y-114899922D01*
X134190023Y-115047756D01*
X134190024Y-115047759D01*
X134190025Y-115047761D01*
X134220449Y-115148056D01*
X134238687Y-115208179D01*
X134255117Y-115375000D01*
X134238687Y-115541821D01*
X134238686Y-115541824D01*
X134238686Y-115541825D01*
X134216905Y-115613629D01*
X134190023Y-115702244D01*
X134111005Y-115850078D01*
X134004659Y-115979659D01*
X133875078Y-116086005D01*
X133727244Y-116165023D01*
X133727241Y-116165024D01*
X133727239Y-116165025D01*
X133566825Y-116213686D01*
X133566824Y-116213686D01*
X133566821Y-116213687D01*
X133441804Y-116226000D01*
X133358196Y-116226000D01*
X133233179Y-116213687D01*
X133233176Y-116213686D01*
X133233175Y-116213686D01*
X133072761Y-116165025D01*
X133072759Y-116165024D01*
X133072756Y-116165023D01*
X132924922Y-116086005D01*
X132795341Y-115979659D01*
X132688995Y-115850078D01*
X132609977Y-115702244D01*
X132583096Y-115613629D01*
X132561314Y-115541825D01*
X132561314Y-115541824D01*
X132561313Y-115541821D01*
X132544883Y-115375000D01*
X132561313Y-115208179D01*
X132579551Y-115148056D01*
X132609975Y-115047761D01*
X132609976Y-115047759D01*
X132609977Y-115047756D01*
X132688995Y-114899922D01*
X132795341Y-114770341D01*
X132924922Y-114663995D01*
X133072756Y-114584977D01*
X133072759Y-114584976D01*
X133072761Y-114584975D01*
X133233175Y-114536314D01*
X133233176Y-114536314D01*
X133233179Y-114536313D01*
X133358196Y-114524000D01*
X133441804Y-114524000D01*
X133566821Y-114536313D01*
X133566821Y-114536313D01*
G37*
G36*
X128486821Y-114536313D02*
X128486824Y-114536314D01*
X128486825Y-114536314D01*
X128647239Y-114584975D01*
X128647241Y-114584976D01*
X128647244Y-114584977D01*
X128795078Y-114663995D01*
X128924659Y-114770341D01*
X129031005Y-114899922D01*
X129110023Y-115047756D01*
X129110024Y-115047759D01*
X129110025Y-115047761D01*
X129140449Y-115148056D01*
X129158687Y-115208179D01*
X129175117Y-115375000D01*
X129158687Y-115541821D01*
X129158686Y-115541824D01*
X129158686Y-115541825D01*
X129136905Y-115613629D01*
X129110023Y-115702244D01*
X129031005Y-115850078D01*
X128924659Y-115979659D01*
X128795078Y-116086005D01*
X128647244Y-116165023D01*
X128647241Y-116165024D01*
X128647239Y-116165025D01*
X128486825Y-116213686D01*
X128486824Y-116213686D01*
X128486821Y-116213687D01*
X128361804Y-116226000D01*
X128278196Y-116226000D01*
X128153179Y-116213687D01*
X128153176Y-116213686D01*
X128153175Y-116213686D01*
X127992761Y-116165025D01*
X127992759Y-116165024D01*
X127992756Y-116165023D01*
X127844922Y-116086005D01*
X127715341Y-115979659D01*
X127608995Y-115850078D01*
X127529977Y-115702244D01*
X127503096Y-115613629D01*
X127481314Y-115541825D01*
X127481314Y-115541824D01*
X127481313Y-115541821D01*
X127464883Y-115375000D01*
X127481313Y-115208179D01*
X127499551Y-115148056D01*
X127529975Y-115047761D01*
X127529976Y-115047759D01*
X127529977Y-115047756D01*
X127608995Y-114899922D01*
X127715341Y-114770341D01*
X127844922Y-114663995D01*
X127992756Y-114584977D01*
X127992759Y-114584976D01*
X127992761Y-114584975D01*
X128153175Y-114536314D01*
X128153176Y-114536314D01*
X128153179Y-114536313D01*
X128278196Y-114524000D01*
X128361804Y-114524000D01*
X128486821Y-114536313D01*
X128486821Y-114536313D01*
G37*
G36*
X125946821Y-114536313D02*
X125946824Y-114536314D01*
X125946825Y-114536314D01*
X126107239Y-114584975D01*
X126107241Y-114584976D01*
X126107244Y-114584977D01*
X126255078Y-114663995D01*
X126384659Y-114770341D01*
X126491005Y-114899922D01*
X126570023Y-115047756D01*
X126570024Y-115047759D01*
X126570025Y-115047761D01*
X126600449Y-115148056D01*
X126618687Y-115208179D01*
X126635117Y-115375000D01*
X126618687Y-115541821D01*
X126618686Y-115541824D01*
X126618686Y-115541825D01*
X126596905Y-115613629D01*
X126570023Y-115702244D01*
X126491005Y-115850078D01*
X126384659Y-115979659D01*
X126255078Y-116086005D01*
X126107244Y-116165023D01*
X126107241Y-116165024D01*
X126107239Y-116165025D01*
X125946825Y-116213686D01*
X125946824Y-116213686D01*
X125946821Y-116213687D01*
X125821804Y-116226000D01*
X125738196Y-116226000D01*
X125613179Y-116213687D01*
X125613176Y-116213686D01*
X125613175Y-116213686D01*
X125452761Y-116165025D01*
X125452759Y-116165024D01*
X125452756Y-116165023D01*
X125304922Y-116086005D01*
X125175341Y-115979659D01*
X125068995Y-115850078D01*
X124989977Y-115702244D01*
X124963096Y-115613629D01*
X124941314Y-115541825D01*
X124941314Y-115541824D01*
X124941313Y-115541821D01*
X124924883Y-115375000D01*
X124941313Y-115208179D01*
X124959551Y-115148056D01*
X124989975Y-115047761D01*
X124989976Y-115047759D01*
X124989977Y-115047756D01*
X125068995Y-114899922D01*
X125175341Y-114770341D01*
X125304922Y-114663995D01*
X125452756Y-114584977D01*
X125452759Y-114584976D01*
X125452761Y-114584975D01*
X125613175Y-114536314D01*
X125613176Y-114536314D01*
X125613179Y-114536313D01*
X125738196Y-114524000D01*
X125821804Y-114524000D01*
X125946821Y-114536313D01*
X125946821Y-114536313D01*
G37*
G36*
X123406821Y-114536313D02*
X123406824Y-114536314D01*
X123406825Y-114536314D01*
X123567239Y-114584975D01*
X123567241Y-114584976D01*
X123567244Y-114584977D01*
X123715078Y-114663995D01*
X123844659Y-114770341D01*
X123951005Y-114899922D01*
X124030023Y-115047756D01*
X124030024Y-115047759D01*
X124030025Y-115047761D01*
X124060449Y-115148056D01*
X124078687Y-115208179D01*
X124095117Y-115375000D01*
X124078687Y-115541821D01*
X124078686Y-115541824D01*
X124078686Y-115541825D01*
X124056905Y-115613629D01*
X124030023Y-115702244D01*
X123951005Y-115850078D01*
X123844659Y-115979659D01*
X123715078Y-116086005D01*
X123567244Y-116165023D01*
X123567241Y-116165024D01*
X123567239Y-116165025D01*
X123406825Y-116213686D01*
X123406824Y-116213686D01*
X123406821Y-116213687D01*
X123281804Y-116226000D01*
X123198196Y-116226000D01*
X123073179Y-116213687D01*
X123073176Y-116213686D01*
X123073175Y-116213686D01*
X122912761Y-116165025D01*
X122912759Y-116165024D01*
X122912756Y-116165023D01*
X122764922Y-116086005D01*
X122635341Y-115979659D01*
X122528995Y-115850078D01*
X122449977Y-115702244D01*
X122423096Y-115613629D01*
X122401314Y-115541825D01*
X122401314Y-115541824D01*
X122401313Y-115541821D01*
X122384883Y-115375000D01*
X122401313Y-115208179D01*
X122419551Y-115148056D01*
X122449975Y-115047761D01*
X122449976Y-115047759D01*
X122449977Y-115047756D01*
X122528995Y-114899922D01*
X122635341Y-114770341D01*
X122764922Y-114663995D01*
X122912756Y-114584977D01*
X122912759Y-114584976D01*
X122912761Y-114584975D01*
X123073175Y-114536314D01*
X123073176Y-114536314D01*
X123073179Y-114536313D01*
X123198196Y-114524000D01*
X123281804Y-114524000D01*
X123406821Y-114536313D01*
X123406821Y-114536313D01*
G37*
G36*
X120866821Y-114536313D02*
X120866824Y-114536314D01*
X120866825Y-114536314D01*
X121027239Y-114584975D01*
X121027241Y-114584976D01*
X121027244Y-114584977D01*
X121175078Y-114663995D01*
X121304659Y-114770341D01*
X121411005Y-114899922D01*
X121490023Y-115047756D01*
X121490024Y-115047759D01*
X121490025Y-115047761D01*
X121520449Y-115148056D01*
X121538687Y-115208179D01*
X121555117Y-115375000D01*
X121538687Y-115541821D01*
X121538686Y-115541824D01*
X121538686Y-115541825D01*
X121516905Y-115613629D01*
X121490023Y-115702244D01*
X121411005Y-115850078D01*
X121304659Y-115979659D01*
X121175078Y-116086005D01*
X121027244Y-116165023D01*
X121027241Y-116165024D01*
X121027239Y-116165025D01*
X120866825Y-116213686D01*
X120866824Y-116213686D01*
X120866821Y-116213687D01*
X120741804Y-116226000D01*
X120658196Y-116226000D01*
X120533179Y-116213687D01*
X120533176Y-116213686D01*
X120533175Y-116213686D01*
X120372761Y-116165025D01*
X120372759Y-116165024D01*
X120372756Y-116165023D01*
X120224922Y-116086005D01*
X120095341Y-115979659D01*
X119988995Y-115850078D01*
X119909977Y-115702244D01*
X119883096Y-115613629D01*
X119861314Y-115541825D01*
X119861314Y-115541824D01*
X119861313Y-115541821D01*
X119844883Y-115375000D01*
X119861313Y-115208179D01*
X119879551Y-115148056D01*
X119909975Y-115047761D01*
X119909976Y-115047759D01*
X119909977Y-115047756D01*
X119988995Y-114899922D01*
X120095341Y-114770341D01*
X120224922Y-114663995D01*
X120372756Y-114584977D01*
X120372759Y-114584976D01*
X120372761Y-114584975D01*
X120533175Y-114536314D01*
X120533176Y-114536314D01*
X120533179Y-114536313D01*
X120658196Y-114524000D01*
X120741804Y-114524000D01*
X120866821Y-114536313D01*
X120866821Y-114536313D01*
G37*
G36*
X123406821Y-106616313D02*
X123406824Y-106616314D01*
X123406825Y-106616314D01*
X123567239Y-106664975D01*
X123567241Y-106664976D01*
X123567244Y-106664977D01*
X123715078Y-106743995D01*
X123844659Y-106850341D01*
X123951005Y-106979922D01*
X124030023Y-107127756D01*
X124078687Y-107288179D01*
X124095117Y-107455000D01*
X124078687Y-107621821D01*
X124030023Y-107782244D01*
X123951005Y-107930078D01*
X123844659Y-108059659D01*
X123715078Y-108166005D01*
X123567244Y-108245023D01*
X123567241Y-108245024D01*
X123567239Y-108245025D01*
X123406825Y-108293686D01*
X123406824Y-108293686D01*
X123406821Y-108293687D01*
X123281804Y-108306000D01*
X123198196Y-108306000D01*
X123073179Y-108293687D01*
X123073176Y-108293686D01*
X123073175Y-108293686D01*
X122912761Y-108245025D01*
X122912759Y-108245024D01*
X122912756Y-108245023D01*
X122764922Y-108166005D01*
X122635341Y-108059659D01*
X122528995Y-107930078D01*
X122449977Y-107782244D01*
X122401313Y-107621821D01*
X122384883Y-107455000D01*
X122401313Y-107288179D01*
X122449977Y-107127756D01*
X122528995Y-106979922D01*
X122635341Y-106850341D01*
X122764922Y-106743995D01*
X122912756Y-106664977D01*
X122912759Y-106664976D01*
X122912761Y-106664975D01*
X123073175Y-106616314D01*
X123073176Y-106616314D01*
X123073179Y-106616313D01*
X123198196Y-106604000D01*
X123281804Y-106604000D01*
X123406821Y-106616313D01*
X123406821Y-106616313D01*
G37*
G36*
X131026821Y-106616313D02*
X131026824Y-106616314D01*
X131026825Y-106616314D01*
X131187239Y-106664975D01*
X131187241Y-106664976D01*
X131187244Y-106664977D01*
X131335078Y-106743995D01*
X131464659Y-106850341D01*
X131571005Y-106979922D01*
X131650023Y-107127756D01*
X131698687Y-107288179D01*
X131715117Y-107455000D01*
X131698687Y-107621821D01*
X131650023Y-107782244D01*
X131571005Y-107930078D01*
X131464659Y-108059659D01*
X131335078Y-108166005D01*
X131187244Y-108245023D01*
X131187241Y-108245024D01*
X131187239Y-108245025D01*
X131026825Y-108293686D01*
X131026824Y-108293686D01*
X131026821Y-108293687D01*
X130901804Y-108306000D01*
X130818196Y-108306000D01*
X130693179Y-108293687D01*
X130693176Y-108293686D01*
X130693175Y-108293686D01*
X130532761Y-108245025D01*
X130532759Y-108245024D01*
X130532756Y-108245023D01*
X130384922Y-108166005D01*
X130255341Y-108059659D01*
X130148995Y-107930078D01*
X130069977Y-107782244D01*
X130021313Y-107621821D01*
X130004883Y-107455000D01*
X130021313Y-107288179D01*
X130069977Y-107127756D01*
X130148995Y-106979922D01*
X130255341Y-106850341D01*
X130384922Y-106743995D01*
X130532756Y-106664977D01*
X130532759Y-106664976D01*
X130532761Y-106664975D01*
X130693175Y-106616314D01*
X130693176Y-106616314D01*
X130693179Y-106616313D01*
X130818196Y-106604000D01*
X130901804Y-106604000D01*
X131026821Y-106616313D01*
X131026821Y-106616313D01*
G37*
G36*
X125946821Y-106616313D02*
X125946824Y-106616314D01*
X125946825Y-106616314D01*
X126107239Y-106664975D01*
X126107241Y-106664976D01*
X126107244Y-106664977D01*
X126255078Y-106743995D01*
X126384659Y-106850341D01*
X126491005Y-106979922D01*
X126570023Y-107127756D01*
X126618687Y-107288179D01*
X126635117Y-107455000D01*
X126618687Y-107621821D01*
X126570023Y-107782244D01*
X126491005Y-107930078D01*
X126384659Y-108059659D01*
X126255078Y-108166005D01*
X126107244Y-108245023D01*
X126107241Y-108245024D01*
X126107239Y-108245025D01*
X125946825Y-108293686D01*
X125946824Y-108293686D01*
X125946821Y-108293687D01*
X125821804Y-108306000D01*
X125738196Y-108306000D01*
X125613179Y-108293687D01*
X125613176Y-108293686D01*
X125613175Y-108293686D01*
X125452761Y-108245025D01*
X125452759Y-108245024D01*
X125452756Y-108245023D01*
X125304922Y-108166005D01*
X125175341Y-108059659D01*
X125068995Y-107930078D01*
X124989977Y-107782244D01*
X124941313Y-107621821D01*
X124924883Y-107455000D01*
X124941313Y-107288179D01*
X124989977Y-107127756D01*
X125068995Y-106979922D01*
X125175341Y-106850341D01*
X125304922Y-106743995D01*
X125452756Y-106664977D01*
X125452759Y-106664976D01*
X125452761Y-106664975D01*
X125613175Y-106616314D01*
X125613176Y-106616314D01*
X125613179Y-106616313D01*
X125738196Y-106604000D01*
X125821804Y-106604000D01*
X125946821Y-106616313D01*
X125946821Y-106616313D01*
G37*
G36*
X133566821Y-106616313D02*
X133566824Y-106616314D01*
X133566825Y-106616314D01*
X133727239Y-106664975D01*
X133727241Y-106664976D01*
X133727244Y-106664977D01*
X133875078Y-106743995D01*
X134004659Y-106850341D01*
X134111005Y-106979922D01*
X134190023Y-107127756D01*
X134238687Y-107288179D01*
X134255117Y-107455000D01*
X134238687Y-107621821D01*
X134190023Y-107782244D01*
X134111005Y-107930078D01*
X134004659Y-108059659D01*
X133875078Y-108166005D01*
X133727244Y-108245023D01*
X133727241Y-108245024D01*
X133727239Y-108245025D01*
X133566825Y-108293686D01*
X133566824Y-108293686D01*
X133566821Y-108293687D01*
X133441804Y-108306000D01*
X133358196Y-108306000D01*
X133233179Y-108293687D01*
X133233176Y-108293686D01*
X133233175Y-108293686D01*
X133072761Y-108245025D01*
X133072759Y-108245024D01*
X133072756Y-108245023D01*
X132924922Y-108166005D01*
X132795341Y-108059659D01*
X132688995Y-107930078D01*
X132609977Y-107782244D01*
X132561313Y-107621821D01*
X132544883Y-107455000D01*
X132561313Y-107288179D01*
X132609977Y-107127756D01*
X132688995Y-106979922D01*
X132795341Y-106850341D01*
X132924922Y-106743995D01*
X133072756Y-106664977D01*
X133072759Y-106664976D01*
X133072761Y-106664975D01*
X133233175Y-106616314D01*
X133233176Y-106616314D01*
X133233179Y-106616313D01*
X133358196Y-106604000D01*
X133441804Y-106604000D01*
X133566821Y-106616313D01*
X133566821Y-106616313D01*
G37*
G36*
X136106821Y-106616313D02*
X136106824Y-106616314D01*
X136106825Y-106616314D01*
X136267239Y-106664975D01*
X136267241Y-106664976D01*
X136267244Y-106664977D01*
X136415078Y-106743995D01*
X136544659Y-106850341D01*
X136651005Y-106979922D01*
X136730023Y-107127756D01*
X136778687Y-107288179D01*
X136795117Y-107455000D01*
X136778687Y-107621821D01*
X136730023Y-107782244D01*
X136651005Y-107930078D01*
X136544659Y-108059659D01*
X136415078Y-108166005D01*
X136267244Y-108245023D01*
X136267241Y-108245024D01*
X136267239Y-108245025D01*
X136106825Y-108293686D01*
X136106824Y-108293686D01*
X136106821Y-108293687D01*
X135981804Y-108306000D01*
X135898196Y-108306000D01*
X135773179Y-108293687D01*
X135773176Y-108293686D01*
X135773175Y-108293686D01*
X135612761Y-108245025D01*
X135612759Y-108245024D01*
X135612756Y-108245023D01*
X135464922Y-108166005D01*
X135335341Y-108059659D01*
X135228995Y-107930078D01*
X135149977Y-107782244D01*
X135101313Y-107621821D01*
X135084883Y-107455000D01*
X135101313Y-107288179D01*
X135149977Y-107127756D01*
X135228995Y-106979922D01*
X135335341Y-106850341D01*
X135464922Y-106743995D01*
X135612756Y-106664977D01*
X135612759Y-106664976D01*
X135612761Y-106664975D01*
X135773175Y-106616314D01*
X135773176Y-106616314D01*
X135773179Y-106616313D01*
X135898196Y-106604000D01*
X135981804Y-106604000D01*
X136106821Y-106616313D01*
X136106821Y-106616313D01*
G37*
G36*
X139331000Y-108306000D02*
X137629000Y-108306000D01*
X137629000Y-106604000D01*
X139331000Y-106604000D01*
X139331000Y-108306000D01*
X139331000Y-108306000D01*
G37*
G36*
X120866821Y-106616313D02*
X120866824Y-106616314D01*
X120866825Y-106616314D01*
X121027239Y-106664975D01*
X121027241Y-106664976D01*
X121027244Y-106664977D01*
X121175078Y-106743995D01*
X121304659Y-106850341D01*
X121411005Y-106979922D01*
X121490023Y-107127756D01*
X121538687Y-107288179D01*
X121555117Y-107455000D01*
X121538687Y-107621821D01*
X121490023Y-107782244D01*
X121411005Y-107930078D01*
X121304659Y-108059659D01*
X121175078Y-108166005D01*
X121027244Y-108245023D01*
X121027241Y-108245024D01*
X121027239Y-108245025D01*
X120866825Y-108293686D01*
X120866824Y-108293686D01*
X120866821Y-108293687D01*
X120741804Y-108306000D01*
X120658196Y-108306000D01*
X120533179Y-108293687D01*
X120533176Y-108293686D01*
X120533175Y-108293686D01*
X120372761Y-108245025D01*
X120372759Y-108245024D01*
X120372756Y-108245023D01*
X120224922Y-108166005D01*
X120095341Y-108059659D01*
X119988995Y-107930078D01*
X119909977Y-107782244D01*
X119861313Y-107621821D01*
X119844883Y-107455000D01*
X119861313Y-107288179D01*
X119909977Y-107127756D01*
X119988995Y-106979922D01*
X120095341Y-106850341D01*
X120224922Y-106743995D01*
X120372756Y-106664977D01*
X120372759Y-106664976D01*
X120372761Y-106664975D01*
X120533175Y-106616314D01*
X120533176Y-106616314D01*
X120533179Y-106616313D01*
X120658196Y-106604000D01*
X120741804Y-106604000D01*
X120866821Y-106616313D01*
X120866821Y-106616313D01*
G37*
G36*
X128486821Y-106616313D02*
X128486824Y-106616314D01*
X128486825Y-106616314D01*
X128647239Y-106664975D01*
X128647241Y-106664976D01*
X128647244Y-106664977D01*
X128795078Y-106743995D01*
X128924659Y-106850341D01*
X129031005Y-106979922D01*
X129110023Y-107127756D01*
X129158687Y-107288179D01*
X129175117Y-107455000D01*
X129158687Y-107621821D01*
X129110023Y-107782244D01*
X129031005Y-107930078D01*
X128924659Y-108059659D01*
X128795078Y-108166005D01*
X128647244Y-108245023D01*
X128647241Y-108245024D01*
X128647239Y-108245025D01*
X128486825Y-108293686D01*
X128486824Y-108293686D01*
X128486821Y-108293687D01*
X128361804Y-108306000D01*
X128278196Y-108306000D01*
X128153179Y-108293687D01*
X128153176Y-108293686D01*
X128153175Y-108293686D01*
X127992761Y-108245025D01*
X127992759Y-108245024D01*
X127992756Y-108245023D01*
X127844922Y-108166005D01*
X127715341Y-108059659D01*
X127608995Y-107930078D01*
X127529977Y-107782244D01*
X127481313Y-107621821D01*
X127464883Y-107455000D01*
X127481313Y-107288179D01*
X127529977Y-107127756D01*
X127608995Y-106979922D01*
X127715341Y-106850341D01*
X127844922Y-106743995D01*
X127992756Y-106664977D01*
X127992759Y-106664976D01*
X127992761Y-106664975D01*
X128153175Y-106616314D01*
X128153176Y-106616314D01*
X128153179Y-106616313D01*
X128278196Y-106604000D01*
X128361804Y-106604000D01*
X128486821Y-106616313D01*
X128486821Y-106616313D01*
G37*
G36*
X136484466Y-103703565D02*
X136523137Y-103715296D01*
X136558779Y-103734348D01*
X136590017Y-103759983D01*
X136615652Y-103791221D01*
X136634704Y-103826863D01*
X136646435Y-103865534D01*
X136651000Y-103911888D01*
X136651000Y-104563112D01*
X136646435Y-104609466D01*
X136634704Y-104648137D01*
X136615652Y-104683779D01*
X136590017Y-104715017D01*
X136558779Y-104740652D01*
X136523137Y-104759704D01*
X136484466Y-104771435D01*
X136438112Y-104776000D01*
X135361888Y-104776000D01*
X135315534Y-104771435D01*
X135276863Y-104759704D01*
X135241221Y-104740652D01*
X135209983Y-104715017D01*
X135184348Y-104683779D01*
X135165296Y-104648137D01*
X135153565Y-104609466D01*
X135149000Y-104563112D01*
X135149000Y-103911888D01*
X135153565Y-103865534D01*
X135165296Y-103826863D01*
X135184348Y-103791221D01*
X135209983Y-103759983D01*
X135241221Y-103734348D01*
X135276863Y-103715296D01*
X135315534Y-103703565D01*
X135361888Y-103699000D01*
X136438112Y-103699000D01*
X136484466Y-103703565D01*
X136484466Y-103703565D01*
G37*
G36*
X139059466Y-103703565D02*
X139098137Y-103715296D01*
X139133779Y-103734348D01*
X139165017Y-103759983D01*
X139190652Y-103791221D01*
X139209704Y-103826863D01*
X139221435Y-103865534D01*
X139226000Y-103911888D01*
X139226000Y-104563112D01*
X139221435Y-104609466D01*
X139209704Y-104648137D01*
X139190652Y-104683779D01*
X139165017Y-104715017D01*
X139133779Y-104740652D01*
X139098137Y-104759704D01*
X139059466Y-104771435D01*
X139013112Y-104776000D01*
X137936888Y-104776000D01*
X137890534Y-104771435D01*
X137851863Y-104759704D01*
X137816221Y-104740652D01*
X137784983Y-104715017D01*
X137759348Y-104683779D01*
X137740296Y-104648137D01*
X137728565Y-104609466D01*
X137724000Y-104563112D01*
X137724000Y-103911888D01*
X137728565Y-103865534D01*
X137740296Y-103826863D01*
X137759348Y-103791221D01*
X137784983Y-103759983D01*
X137816221Y-103734348D01*
X137851863Y-103715296D01*
X137890534Y-103703565D01*
X137936888Y-103699000D01*
X139013112Y-103699000D01*
X139059466Y-103703565D01*
X139059466Y-103703565D01*
G37*
G36*
X133984466Y-103703565D02*
X134023137Y-103715296D01*
X134058779Y-103734348D01*
X134090017Y-103759983D01*
X134115652Y-103791221D01*
X134134704Y-103826863D01*
X134146435Y-103865534D01*
X134151000Y-103911888D01*
X134151000Y-104563112D01*
X134146435Y-104609466D01*
X134134704Y-104648137D01*
X134115652Y-104683779D01*
X134090017Y-104715017D01*
X134058779Y-104740652D01*
X134023137Y-104759704D01*
X133984466Y-104771435D01*
X133938112Y-104776000D01*
X132861888Y-104776000D01*
X132815534Y-104771435D01*
X132776863Y-104759704D01*
X132741221Y-104740652D01*
X132709983Y-104715017D01*
X132684348Y-104683779D01*
X132665296Y-104648137D01*
X132653565Y-104609466D01*
X132649000Y-104563112D01*
X132649000Y-103911888D01*
X132653565Y-103865534D01*
X132665296Y-103826863D01*
X132684348Y-103791221D01*
X132709983Y-103759983D01*
X132741221Y-103734348D01*
X132776863Y-103715296D01*
X132815534Y-103703565D01*
X132861888Y-103699000D01*
X133938112Y-103699000D01*
X133984466Y-103703565D01*
X133984466Y-103703565D01*
G37*
G36*
X121284466Y-103703565D02*
X121323137Y-103715296D01*
X121358779Y-103734348D01*
X121390017Y-103759983D01*
X121415652Y-103791221D01*
X121434704Y-103826863D01*
X121446435Y-103865534D01*
X121451000Y-103911888D01*
X121451000Y-104563112D01*
X121446435Y-104609466D01*
X121434704Y-104648137D01*
X121415652Y-104683779D01*
X121390017Y-104715017D01*
X121358779Y-104740652D01*
X121323137Y-104759704D01*
X121284466Y-104771435D01*
X121238112Y-104776000D01*
X120161888Y-104776000D01*
X120115534Y-104771435D01*
X120076863Y-104759704D01*
X120041221Y-104740652D01*
X120009983Y-104715017D01*
X119984348Y-104683779D01*
X119965296Y-104648137D01*
X119953565Y-104609466D01*
X119949000Y-104563112D01*
X119949000Y-103911888D01*
X119953565Y-103865534D01*
X119965296Y-103826863D01*
X119984348Y-103791221D01*
X120009983Y-103759983D01*
X120041221Y-103734348D01*
X120076863Y-103715296D01*
X120115534Y-103703565D01*
X120161888Y-103699000D01*
X121238112Y-103699000D01*
X121284466Y-103703565D01*
X121284466Y-103703565D01*
G37*
G36*
X123784466Y-103703565D02*
X123823137Y-103715296D01*
X123858779Y-103734348D01*
X123890017Y-103759983D01*
X123915652Y-103791221D01*
X123934704Y-103826863D01*
X123946435Y-103865534D01*
X123951000Y-103911888D01*
X123951000Y-104563112D01*
X123946435Y-104609466D01*
X123934704Y-104648137D01*
X123915652Y-104683779D01*
X123890017Y-104715017D01*
X123858779Y-104740652D01*
X123823137Y-104759704D01*
X123784466Y-104771435D01*
X123738112Y-104776000D01*
X122661888Y-104776000D01*
X122615534Y-104771435D01*
X122576863Y-104759704D01*
X122541221Y-104740652D01*
X122509983Y-104715017D01*
X122484348Y-104683779D01*
X122465296Y-104648137D01*
X122453565Y-104609466D01*
X122449000Y-104563112D01*
X122449000Y-103911888D01*
X122453565Y-103865534D01*
X122465296Y-103826863D01*
X122484348Y-103791221D01*
X122509983Y-103759983D01*
X122541221Y-103734348D01*
X122576863Y-103715296D01*
X122615534Y-103703565D01*
X122661888Y-103699000D01*
X123738112Y-103699000D01*
X123784466Y-103703565D01*
X123784466Y-103703565D01*
G37*
G36*
X126384466Y-103703565D02*
X126423137Y-103715296D01*
X126458779Y-103734348D01*
X126490017Y-103759983D01*
X126515652Y-103791221D01*
X126534704Y-103826863D01*
X126546435Y-103865534D01*
X126551000Y-103911888D01*
X126551000Y-104563112D01*
X126546435Y-104609466D01*
X126534704Y-104648137D01*
X126515652Y-104683779D01*
X126490017Y-104715017D01*
X126458779Y-104740652D01*
X126423137Y-104759704D01*
X126384466Y-104771435D01*
X126338112Y-104776000D01*
X125261888Y-104776000D01*
X125215534Y-104771435D01*
X125176863Y-104759704D01*
X125141221Y-104740652D01*
X125109983Y-104715017D01*
X125084348Y-104683779D01*
X125065296Y-104648137D01*
X125053565Y-104609466D01*
X125049000Y-104563112D01*
X125049000Y-103911888D01*
X125053565Y-103865534D01*
X125065296Y-103826863D01*
X125084348Y-103791221D01*
X125109983Y-103759983D01*
X125141221Y-103734348D01*
X125176863Y-103715296D01*
X125215534Y-103703565D01*
X125261888Y-103699000D01*
X126338112Y-103699000D01*
X126384466Y-103703565D01*
X126384466Y-103703565D01*
G37*
G36*
X128884466Y-103703565D02*
X128923137Y-103715296D01*
X128958779Y-103734348D01*
X128990017Y-103759983D01*
X129015652Y-103791221D01*
X129034704Y-103826863D01*
X129046435Y-103865534D01*
X129051000Y-103911888D01*
X129051000Y-104563112D01*
X129046435Y-104609466D01*
X129034704Y-104648137D01*
X129015652Y-104683779D01*
X128990017Y-104715017D01*
X128958779Y-104740652D01*
X128923137Y-104759704D01*
X128884466Y-104771435D01*
X128838112Y-104776000D01*
X127761888Y-104776000D01*
X127715534Y-104771435D01*
X127676863Y-104759704D01*
X127641221Y-104740652D01*
X127609983Y-104715017D01*
X127584348Y-104683779D01*
X127565296Y-104648137D01*
X127553565Y-104609466D01*
X127549000Y-104563112D01*
X127549000Y-103911888D01*
X127553565Y-103865534D01*
X127565296Y-103826863D01*
X127584348Y-103791221D01*
X127609983Y-103759983D01*
X127641221Y-103734348D01*
X127676863Y-103715296D01*
X127715534Y-103703565D01*
X127761888Y-103699000D01*
X128838112Y-103699000D01*
X128884466Y-103703565D01*
X128884466Y-103703565D01*
G37*
G36*
X131484466Y-103703565D02*
X131523137Y-103715296D01*
X131558779Y-103734348D01*
X131590017Y-103759983D01*
X131615652Y-103791221D01*
X131634704Y-103826863D01*
X131646435Y-103865534D01*
X131651000Y-103911888D01*
X131651000Y-104563112D01*
X131646435Y-104609466D01*
X131634704Y-104648137D01*
X131615652Y-104683779D01*
X131590017Y-104715017D01*
X131558779Y-104740652D01*
X131523137Y-104759704D01*
X131484466Y-104771435D01*
X131438112Y-104776000D01*
X130361888Y-104776000D01*
X130315534Y-104771435D01*
X130276863Y-104759704D01*
X130241221Y-104740652D01*
X130209983Y-104715017D01*
X130184348Y-104683779D01*
X130165296Y-104648137D01*
X130153565Y-104609466D01*
X130149000Y-104563112D01*
X130149000Y-103911888D01*
X130153565Y-103865534D01*
X130165296Y-103826863D01*
X130184348Y-103791221D01*
X130209983Y-103759983D01*
X130241221Y-103734348D01*
X130276863Y-103715296D01*
X130315534Y-103703565D01*
X130361888Y-103699000D01*
X131438112Y-103699000D01*
X131484466Y-103703565D01*
X131484466Y-103703565D01*
G37*
G36*
X126384466Y-101828565D02*
X126423137Y-101840296D01*
X126458779Y-101859348D01*
X126490017Y-101884983D01*
X126515652Y-101916221D01*
X126534704Y-101951863D01*
X126546435Y-101990534D01*
X126551000Y-102036888D01*
X126551000Y-102688112D01*
X126546435Y-102734466D01*
X126534704Y-102773137D01*
X126515652Y-102808779D01*
X126490017Y-102840017D01*
X126458779Y-102865652D01*
X126423137Y-102884704D01*
X126384466Y-102896435D01*
X126338112Y-102901000D01*
X125261888Y-102901000D01*
X125215534Y-102896435D01*
X125176863Y-102884704D01*
X125141221Y-102865652D01*
X125109983Y-102840017D01*
X125084348Y-102808779D01*
X125065296Y-102773137D01*
X125053565Y-102734466D01*
X125049000Y-102688112D01*
X125049000Y-102036888D01*
X125053565Y-101990534D01*
X125065296Y-101951863D01*
X125084348Y-101916221D01*
X125109983Y-101884983D01*
X125141221Y-101859348D01*
X125176863Y-101840296D01*
X125215534Y-101828565D01*
X125261888Y-101824000D01*
X126338112Y-101824000D01*
X126384466Y-101828565D01*
X126384466Y-101828565D01*
G37*
G36*
X139059466Y-101828565D02*
X139098137Y-101840296D01*
X139133779Y-101859348D01*
X139165017Y-101884983D01*
X139190652Y-101916221D01*
X139209704Y-101951863D01*
X139221435Y-101990534D01*
X139226000Y-102036888D01*
X139226000Y-102688112D01*
X139221435Y-102734466D01*
X139209704Y-102773137D01*
X139190652Y-102808779D01*
X139165017Y-102840017D01*
X139133779Y-102865652D01*
X139098137Y-102884704D01*
X139059466Y-102896435D01*
X139013112Y-102901000D01*
X137936888Y-102901000D01*
X137890534Y-102896435D01*
X137851863Y-102884704D01*
X137816221Y-102865652D01*
X137784983Y-102840017D01*
X137759348Y-102808779D01*
X137740296Y-102773137D01*
X137728565Y-102734466D01*
X137724000Y-102688112D01*
X137724000Y-102036888D01*
X137728565Y-101990534D01*
X137740296Y-101951863D01*
X137759348Y-101916221D01*
X137784983Y-101884983D01*
X137816221Y-101859348D01*
X137851863Y-101840296D01*
X137890534Y-101828565D01*
X137936888Y-101824000D01*
X139013112Y-101824000D01*
X139059466Y-101828565D01*
X139059466Y-101828565D01*
G37*
G36*
X136484466Y-101828565D02*
X136523137Y-101840296D01*
X136558779Y-101859348D01*
X136590017Y-101884983D01*
X136615652Y-101916221D01*
X136634704Y-101951863D01*
X136646435Y-101990534D01*
X136651000Y-102036888D01*
X136651000Y-102688112D01*
X136646435Y-102734466D01*
X136634704Y-102773137D01*
X136615652Y-102808779D01*
X136590017Y-102840017D01*
X136558779Y-102865652D01*
X136523137Y-102884704D01*
X136484466Y-102896435D01*
X136438112Y-102901000D01*
X135361888Y-102901000D01*
X135315534Y-102896435D01*
X135276863Y-102884704D01*
X135241221Y-102865652D01*
X135209983Y-102840017D01*
X135184348Y-102808779D01*
X135165296Y-102773137D01*
X135153565Y-102734466D01*
X135149000Y-102688112D01*
X135149000Y-102036888D01*
X135153565Y-101990534D01*
X135165296Y-101951863D01*
X135184348Y-101916221D01*
X135209983Y-101884983D01*
X135241221Y-101859348D01*
X135276863Y-101840296D01*
X135315534Y-101828565D01*
X135361888Y-101824000D01*
X136438112Y-101824000D01*
X136484466Y-101828565D01*
X136484466Y-101828565D01*
G37*
G36*
X121284466Y-101828565D02*
X121323137Y-101840296D01*
X121358779Y-101859348D01*
X121390017Y-101884983D01*
X121415652Y-101916221D01*
X121434704Y-101951863D01*
X121446435Y-101990534D01*
X121451000Y-102036888D01*
X121451000Y-102688112D01*
X121446435Y-102734466D01*
X121434704Y-102773137D01*
X121415652Y-102808779D01*
X121390017Y-102840017D01*
X121358779Y-102865652D01*
X121323137Y-102884704D01*
X121284466Y-102896435D01*
X121238112Y-102901000D01*
X120161888Y-102901000D01*
X120115534Y-102896435D01*
X120076863Y-102884704D01*
X120041221Y-102865652D01*
X120009983Y-102840017D01*
X119984348Y-102808779D01*
X119965296Y-102773137D01*
X119953565Y-102734466D01*
X119949000Y-102688112D01*
X119949000Y-102036888D01*
X119953565Y-101990534D01*
X119965296Y-101951863D01*
X119984348Y-101916221D01*
X120009983Y-101884983D01*
X120041221Y-101859348D01*
X120076863Y-101840296D01*
X120115534Y-101828565D01*
X120161888Y-101824000D01*
X121238112Y-101824000D01*
X121284466Y-101828565D01*
X121284466Y-101828565D01*
G37*
G36*
X133984466Y-101828565D02*
X134023137Y-101840296D01*
X134058779Y-101859348D01*
X134090017Y-101884983D01*
X134115652Y-101916221D01*
X134134704Y-101951863D01*
X134146435Y-101990534D01*
X134151000Y-102036888D01*
X134151000Y-102688112D01*
X134146435Y-102734466D01*
X134134704Y-102773137D01*
X134115652Y-102808779D01*
X134090017Y-102840017D01*
X134058779Y-102865652D01*
X134023137Y-102884704D01*
X133984466Y-102896435D01*
X133938112Y-102901000D01*
X132861888Y-102901000D01*
X132815534Y-102896435D01*
X132776863Y-102884704D01*
X132741221Y-102865652D01*
X132709983Y-102840017D01*
X132684348Y-102808779D01*
X132665296Y-102773137D01*
X132653565Y-102734466D01*
X132649000Y-102688112D01*
X132649000Y-102036888D01*
X132653565Y-101990534D01*
X132665296Y-101951863D01*
X132684348Y-101916221D01*
X132709983Y-101884983D01*
X132741221Y-101859348D01*
X132776863Y-101840296D01*
X132815534Y-101828565D01*
X132861888Y-101824000D01*
X133938112Y-101824000D01*
X133984466Y-101828565D01*
X133984466Y-101828565D01*
G37*
G36*
X128884466Y-101828565D02*
X128923137Y-101840296D01*
X128958779Y-101859348D01*
X128990017Y-101884983D01*
X129015652Y-101916221D01*
X129034704Y-101951863D01*
X129046435Y-101990534D01*
X129051000Y-102036888D01*
X129051000Y-102688112D01*
X129046435Y-102734466D01*
X129034704Y-102773137D01*
X129015652Y-102808779D01*
X128990017Y-102840017D01*
X128958779Y-102865652D01*
X128923137Y-102884704D01*
X128884466Y-102896435D01*
X128838112Y-102901000D01*
X127761888Y-102901000D01*
X127715534Y-102896435D01*
X127676863Y-102884704D01*
X127641221Y-102865652D01*
X127609983Y-102840017D01*
X127584348Y-102808779D01*
X127565296Y-102773137D01*
X127553565Y-102734466D01*
X127549000Y-102688112D01*
X127549000Y-102036888D01*
X127553565Y-101990534D01*
X127565296Y-101951863D01*
X127584348Y-101916221D01*
X127609983Y-101884983D01*
X127641221Y-101859348D01*
X127676863Y-101840296D01*
X127715534Y-101828565D01*
X127761888Y-101824000D01*
X128838112Y-101824000D01*
X128884466Y-101828565D01*
X128884466Y-101828565D01*
G37*
G36*
X131484466Y-101828565D02*
X131523137Y-101840296D01*
X131558779Y-101859348D01*
X131590017Y-101884983D01*
X131615652Y-101916221D01*
X131634704Y-101951863D01*
X131646435Y-101990534D01*
X131651000Y-102036888D01*
X131651000Y-102688112D01*
X131646435Y-102734466D01*
X131634704Y-102773137D01*
X131615652Y-102808779D01*
X131590017Y-102840017D01*
X131558779Y-102865652D01*
X131523137Y-102884704D01*
X131484466Y-102896435D01*
X131438112Y-102901000D01*
X130361888Y-102901000D01*
X130315534Y-102896435D01*
X130276863Y-102884704D01*
X130241221Y-102865652D01*
X130209983Y-102840017D01*
X130184348Y-102808779D01*
X130165296Y-102773137D01*
X130153565Y-102734466D01*
X130149000Y-102688112D01*
X130149000Y-102036888D01*
X130153565Y-101990534D01*
X130165296Y-101951863D01*
X130184348Y-101916221D01*
X130209983Y-101884983D01*
X130241221Y-101859348D01*
X130276863Y-101840296D01*
X130315534Y-101828565D01*
X130361888Y-101824000D01*
X131438112Y-101824000D01*
X131484466Y-101828565D01*
X131484466Y-101828565D01*
G37*
G36*
X123784466Y-101828565D02*
X123823137Y-101840296D01*
X123858779Y-101859348D01*
X123890017Y-101884983D01*
X123915652Y-101916221D01*
X123934704Y-101951863D01*
X123946435Y-101990534D01*
X123951000Y-102036888D01*
X123951000Y-102688112D01*
X123946435Y-102734466D01*
X123934704Y-102773137D01*
X123915652Y-102808779D01*
X123890017Y-102840017D01*
X123858779Y-102865652D01*
X123823137Y-102884704D01*
X123784466Y-102896435D01*
X123738112Y-102901000D01*
X122661888Y-102901000D01*
X122615534Y-102896435D01*
X122576863Y-102884704D01*
X122541221Y-102865652D01*
X122509983Y-102840017D01*
X122484348Y-102808779D01*
X122465296Y-102773137D01*
X122453565Y-102734466D01*
X122449000Y-102688112D01*
X122449000Y-102036888D01*
X122453565Y-101990534D01*
X122465296Y-101951863D01*
X122484348Y-101916221D01*
X122509983Y-101884983D01*
X122541221Y-101859348D01*
X122576863Y-101840296D01*
X122615534Y-101828565D01*
X122661888Y-101824000D01*
X123738112Y-101824000D01*
X123784466Y-101828565D01*
X123784466Y-101828565D01*
G37*
G36*
X109251000Y-98651000D02*
X104949000Y-98651000D01*
X104949000Y-97199000D01*
X109251000Y-97199000D01*
X109251000Y-98651000D01*
X109251000Y-98651000D01*
G37*
G36*
X152851000Y-98651000D02*
X148549000Y-98651000D01*
X148549000Y-97199000D01*
X152851000Y-97199000D01*
X152851000Y-98651000D01*
X152851000Y-98651000D01*
G37*
G36*
X125551000Y-97906000D02*
X122899000Y-97906000D01*
X122899000Y-96744000D01*
X125551000Y-96744000D01*
X125551000Y-97906000D01*
X125551000Y-97906000D01*
G37*
G36*
X135882063Y-96134438D02*
X135902681Y-96140692D01*
X135921681Y-96150848D01*
X135943106Y-96168431D01*
X136267463Y-96492788D01*
X136285046Y-96514213D01*
X136295202Y-96533213D01*
X136301456Y-96553831D01*
X136303567Y-96575269D01*
X136301456Y-96596707D01*
X136295202Y-96617325D01*
X136285046Y-96636325D01*
X136267463Y-96657750D01*
X135907750Y-97017463D01*
X135886325Y-97035046D01*
X135867325Y-97045202D01*
X135846707Y-97051456D01*
X135825269Y-97053567D01*
X135803831Y-97051456D01*
X135783213Y-97045202D01*
X135764213Y-97035046D01*
X135742788Y-97017463D01*
X135418431Y-96693106D01*
X135400848Y-96671681D01*
X135390692Y-96652681D01*
X135384438Y-96632063D01*
X135382327Y-96610625D01*
X135384438Y-96589187D01*
X135390692Y-96568569D01*
X135400848Y-96549569D01*
X135418431Y-96528144D01*
X135778144Y-96168431D01*
X135799569Y-96150848D01*
X135818569Y-96140692D01*
X135839187Y-96134438D01*
X135860625Y-96132327D01*
X135882063Y-96134438D01*
X135882063Y-96134438D01*
G37*
G36*
X115805357Y-91925083D02*
X115810028Y-91926500D01*
X115814330Y-91928800D01*
X115820705Y-91934031D01*
X115841080Y-91947644D01*
X115863719Y-91957020D01*
X115887753Y-91961800D01*
X115912257Y-91961799D01*
X115936291Y-91957017D01*
X115958929Y-91947639D01*
X115979295Y-91934031D01*
X115985670Y-91928800D01*
X115989972Y-91926500D01*
X115994643Y-91925083D01*
X116005641Y-91924000D01*
X116294359Y-91924000D01*
X116305357Y-91925083D01*
X116310028Y-91926500D01*
X116314330Y-91928800D01*
X116320705Y-91934031D01*
X116341080Y-91947644D01*
X116363719Y-91957020D01*
X116387753Y-91961800D01*
X116412257Y-91961799D01*
X116436291Y-91957017D01*
X116458929Y-91947639D01*
X116479295Y-91934031D01*
X116485670Y-91928800D01*
X116489972Y-91926500D01*
X116494643Y-91925083D01*
X116505641Y-91924000D01*
X116794359Y-91924000D01*
X116805357Y-91925083D01*
X116810028Y-91926500D01*
X116814330Y-91928800D01*
X116820705Y-91934031D01*
X116841080Y-91947644D01*
X116863719Y-91957020D01*
X116887753Y-91961800D01*
X116912257Y-91961799D01*
X116936291Y-91957017D01*
X116958929Y-91947639D01*
X116979295Y-91934031D01*
X116985670Y-91928800D01*
X116989972Y-91926500D01*
X116994643Y-91925083D01*
X117005641Y-91924000D01*
X117294359Y-91924000D01*
X117305357Y-91925083D01*
X117310028Y-91926500D01*
X117314330Y-91928800D01*
X117320705Y-91934031D01*
X117341080Y-91947644D01*
X117363719Y-91957020D01*
X117387753Y-91961800D01*
X117412257Y-91961799D01*
X117436291Y-91957017D01*
X117458929Y-91947639D01*
X117479295Y-91934031D01*
X117485670Y-91928800D01*
X117489972Y-91926500D01*
X117494643Y-91925083D01*
X117505641Y-91924000D01*
X117794359Y-91924000D01*
X117805357Y-91925083D01*
X117810028Y-91926500D01*
X117814330Y-91928800D01*
X117820705Y-91934031D01*
X117841080Y-91947644D01*
X117863719Y-91957020D01*
X117887753Y-91961800D01*
X117912257Y-91961799D01*
X117936291Y-91957017D01*
X117958929Y-91947639D01*
X117979295Y-91934031D01*
X117985670Y-91928800D01*
X117989972Y-91926500D01*
X117994643Y-91925083D01*
X118005641Y-91924000D01*
X118294359Y-91924000D01*
X118305357Y-91925083D01*
X118310028Y-91926500D01*
X118314330Y-91928800D01*
X118318104Y-91931896D01*
X118321200Y-91935670D01*
X118323500Y-91939972D01*
X118324917Y-91944643D01*
X118326000Y-91955641D01*
X118326000Y-92799000D01*
X118328402Y-92823386D01*
X118335515Y-92846835D01*
X118347066Y-92868446D01*
X118362612Y-92887388D01*
X118381554Y-92902934D01*
X118403165Y-92914485D01*
X118426614Y-92921598D01*
X118451000Y-92924000D01*
X119294359Y-92924000D01*
X119305357Y-92925083D01*
X119310028Y-92926500D01*
X119314330Y-92928800D01*
X119318104Y-92931896D01*
X119321200Y-92935670D01*
X119323500Y-92939972D01*
X119324917Y-92944643D01*
X119326000Y-92955641D01*
X119326000Y-93244359D01*
X119324917Y-93255357D01*
X119323500Y-93260028D01*
X119321200Y-93264330D01*
X119315969Y-93270705D01*
X119302356Y-93291080D01*
X119292980Y-93313719D01*
X119288200Y-93337753D01*
X119288201Y-93362257D01*
X119292983Y-93386291D01*
X119302361Y-93408929D01*
X119315969Y-93429295D01*
X119321200Y-93435670D01*
X119323500Y-93439972D01*
X119324917Y-93444643D01*
X119326000Y-93455641D01*
X119326000Y-93744359D01*
X119324917Y-93755357D01*
X119323500Y-93760028D01*
X119321200Y-93764330D01*
X119315969Y-93770705D01*
X119302356Y-93791080D01*
X119292980Y-93813719D01*
X119288200Y-93837753D01*
X119288201Y-93862257D01*
X119292983Y-93886291D01*
X119302361Y-93908929D01*
X119315969Y-93929295D01*
X119321200Y-93935670D01*
X119323500Y-93939972D01*
X119324917Y-93944643D01*
X119326000Y-93955641D01*
X119326000Y-94244359D01*
X119324917Y-94255357D01*
X119323500Y-94260028D01*
X119321200Y-94264330D01*
X119315969Y-94270705D01*
X119302356Y-94291080D01*
X119292980Y-94313719D01*
X119288200Y-94337753D01*
X119288201Y-94362257D01*
X119292983Y-94386291D01*
X119302361Y-94408929D01*
X119315969Y-94429295D01*
X119321200Y-94435670D01*
X119323500Y-94439972D01*
X119324917Y-94444643D01*
X119326000Y-94455641D01*
X119326000Y-94744359D01*
X119324917Y-94755357D01*
X119323500Y-94760028D01*
X119321200Y-94764330D01*
X119315969Y-94770705D01*
X119302356Y-94791080D01*
X119292980Y-94813719D01*
X119288200Y-94837753D01*
X119288201Y-94862257D01*
X119292983Y-94886291D01*
X119302361Y-94908929D01*
X119315969Y-94929295D01*
X119321200Y-94935670D01*
X119323500Y-94939972D01*
X119324917Y-94944643D01*
X119326000Y-94955641D01*
X119326000Y-95244359D01*
X119324917Y-95255357D01*
X119323500Y-95260028D01*
X119321200Y-95264330D01*
X119315969Y-95270705D01*
X119302356Y-95291080D01*
X119292980Y-95313719D01*
X119288200Y-95337753D01*
X119288201Y-95362257D01*
X119292983Y-95386291D01*
X119302361Y-95408929D01*
X119315969Y-95429295D01*
X119321200Y-95435670D01*
X119323500Y-95439972D01*
X119324917Y-95444643D01*
X119326000Y-95455641D01*
X119326000Y-95744359D01*
X119324917Y-95755357D01*
X119323500Y-95760028D01*
X119321200Y-95764330D01*
X119318104Y-95768104D01*
X119314330Y-95771200D01*
X119310028Y-95773500D01*
X119305357Y-95774917D01*
X119294359Y-95776000D01*
X118451000Y-95776000D01*
X118426614Y-95778402D01*
X118403165Y-95785515D01*
X118381554Y-95797066D01*
X118362612Y-95812612D01*
X118347066Y-95831554D01*
X118335515Y-95853165D01*
X118328402Y-95876614D01*
X118326000Y-95901000D01*
X118326000Y-96744359D01*
X118324917Y-96755357D01*
X118323500Y-96760028D01*
X118321200Y-96764330D01*
X118318104Y-96768104D01*
X118314330Y-96771200D01*
X118310028Y-96773500D01*
X118305357Y-96774917D01*
X118294359Y-96776000D01*
X118005641Y-96776000D01*
X117994643Y-96774917D01*
X117989972Y-96773500D01*
X117985670Y-96771200D01*
X117979295Y-96765969D01*
X117958920Y-96752356D01*
X117936281Y-96742980D01*
X117912247Y-96738200D01*
X117887743Y-96738201D01*
X117863709Y-96742983D01*
X117841071Y-96752361D01*
X117820705Y-96765969D01*
X117814330Y-96771200D01*
X117810028Y-96773500D01*
X117805357Y-96774917D01*
X117794359Y-96776000D01*
X117505641Y-96776000D01*
X117494643Y-96774917D01*
X117489972Y-96773500D01*
X117485670Y-96771200D01*
X117479295Y-96765969D01*
X117458920Y-96752356D01*
X117436281Y-96742980D01*
X117412247Y-96738200D01*
X117387743Y-96738201D01*
X117363709Y-96742983D01*
X117341071Y-96752361D01*
X117320705Y-96765969D01*
X117314330Y-96771200D01*
X117310028Y-96773500D01*
X117305357Y-96774917D01*
X117294359Y-96776000D01*
X117005641Y-96776000D01*
X116994643Y-96774917D01*
X116989972Y-96773500D01*
X116985670Y-96771200D01*
X116979295Y-96765969D01*
X116958920Y-96752356D01*
X116936281Y-96742980D01*
X116912247Y-96738200D01*
X116887743Y-96738201D01*
X116863709Y-96742983D01*
X116841071Y-96752361D01*
X116820705Y-96765969D01*
X116814330Y-96771200D01*
X116810028Y-96773500D01*
X116805357Y-96774917D01*
X116794359Y-96776000D01*
X116505641Y-96776000D01*
X116494643Y-96774917D01*
X116489972Y-96773500D01*
X116485670Y-96771200D01*
X116479295Y-96765969D01*
X116458920Y-96752356D01*
X116436281Y-96742980D01*
X116412247Y-96738200D01*
X116387743Y-96738201D01*
X116363709Y-96742983D01*
X116341071Y-96752361D01*
X116320705Y-96765969D01*
X116314330Y-96771200D01*
X116310028Y-96773500D01*
X116305357Y-96774917D01*
X116294359Y-96776000D01*
X116005641Y-96776000D01*
X115994643Y-96774917D01*
X115989972Y-96773500D01*
X115985670Y-96771200D01*
X115979295Y-96765969D01*
X115958920Y-96752356D01*
X115936281Y-96742980D01*
X115912247Y-96738200D01*
X115887743Y-96738201D01*
X115863709Y-96742983D01*
X115841071Y-96752361D01*
X115820705Y-96765969D01*
X115814330Y-96771200D01*
X115810028Y-96773500D01*
X115805357Y-96774917D01*
X115794359Y-96776000D01*
X115505641Y-96776000D01*
X115494643Y-96774917D01*
X115489972Y-96773500D01*
X115485670Y-96771200D01*
X115481896Y-96768104D01*
X115478800Y-96764330D01*
X115476500Y-96760028D01*
X115475083Y-96755357D01*
X115474000Y-96744359D01*
X115474000Y-95901000D01*
X115471598Y-95876614D01*
X115464485Y-95853165D01*
X115452934Y-95831554D01*
X115437388Y-95812612D01*
X115418446Y-95797066D01*
X115396835Y-95785515D01*
X115373386Y-95778402D01*
X115349000Y-95776000D01*
X114505641Y-95776000D01*
X114494643Y-95774917D01*
X114489972Y-95773500D01*
X114485670Y-95771200D01*
X114481896Y-95768104D01*
X114478800Y-95764330D01*
X114476500Y-95760028D01*
X114475083Y-95755357D01*
X114474000Y-95744359D01*
X114474000Y-95455641D01*
X114475083Y-95444643D01*
X114476500Y-95439972D01*
X114478800Y-95435670D01*
X114484031Y-95429295D01*
X114497644Y-95408920D01*
X114507020Y-95386281D01*
X114511800Y-95362247D01*
X114511799Y-95337743D01*
X114507017Y-95313709D01*
X114497639Y-95291071D01*
X114484031Y-95270705D01*
X114478800Y-95264330D01*
X114476500Y-95260028D01*
X114475083Y-95255357D01*
X114474000Y-95244359D01*
X114474000Y-94955641D01*
X114475083Y-94944643D01*
X114476500Y-94939972D01*
X114478800Y-94935670D01*
X114484031Y-94929295D01*
X114497644Y-94908920D01*
X114507020Y-94886281D01*
X114511800Y-94862247D01*
X114511799Y-94837743D01*
X114507017Y-94813709D01*
X114497639Y-94791071D01*
X114484031Y-94770705D01*
X114478800Y-94764330D01*
X114476500Y-94760028D01*
X114475083Y-94755357D01*
X114474000Y-94744359D01*
X114474000Y-94455641D01*
X114475083Y-94444643D01*
X114476500Y-94439972D01*
X114478800Y-94435670D01*
X114484031Y-94429295D01*
X114497644Y-94408920D01*
X114507020Y-94386281D01*
X114511800Y-94362247D01*
X114511799Y-94337743D01*
X114507017Y-94313709D01*
X114497639Y-94291071D01*
X114484031Y-94270705D01*
X114478800Y-94264330D01*
X114476500Y-94260028D01*
X114475083Y-94255357D01*
X114474000Y-94244359D01*
X114474000Y-93955641D01*
X114475083Y-93944643D01*
X114476500Y-93939972D01*
X114478800Y-93935670D01*
X114484031Y-93929295D01*
X114497644Y-93908920D01*
X114507020Y-93886281D01*
X114511800Y-93862247D01*
X114511799Y-93837743D01*
X114507017Y-93813709D01*
X114497639Y-93791071D01*
X114484031Y-93770705D01*
X114478800Y-93764330D01*
X114476500Y-93760028D01*
X114475083Y-93755357D01*
X114474000Y-93744359D01*
X114474000Y-93455641D01*
X114475083Y-93444643D01*
X114476500Y-93439972D01*
X114478800Y-93435670D01*
X114484031Y-93429295D01*
X114497644Y-93408920D01*
X114507020Y-93386281D01*
X114511800Y-93362247D01*
X114511799Y-93337743D01*
X114507017Y-93313709D01*
X114497639Y-93291071D01*
X114484031Y-93270705D01*
X114478800Y-93264330D01*
X114476500Y-93260028D01*
X114475083Y-93255357D01*
X114474000Y-93244359D01*
X114474000Y-92955641D01*
X114475083Y-92944643D01*
X114476500Y-92939972D01*
X114478800Y-92935670D01*
X114481896Y-92931896D01*
X114485670Y-92928800D01*
X114489972Y-92926500D01*
X114494643Y-92925083D01*
X114505641Y-92924000D01*
X115349000Y-92924000D01*
X115373386Y-92921598D01*
X115396835Y-92914485D01*
X115418446Y-92902934D01*
X115437388Y-92887388D01*
X115452934Y-92868446D01*
X115464485Y-92846835D01*
X115471598Y-92823386D01*
X115474000Y-92799000D01*
X115474000Y-91955641D01*
X115475083Y-91944643D01*
X115476500Y-91939972D01*
X115478800Y-91935670D01*
X115481896Y-91931896D01*
X115485670Y-91928800D01*
X115489972Y-91926500D01*
X115494643Y-91925083D01*
X115505641Y-91924000D01*
X115794359Y-91924000D01*
X115805357Y-91925083D01*
X115805357Y-91925083D01*
G37*
G36*
X135196169Y-95448544D02*
X135216787Y-95454798D01*
X135235787Y-95464954D01*
X135257212Y-95482537D01*
X135581569Y-95806894D01*
X135599152Y-95828319D01*
X135609308Y-95847319D01*
X135615562Y-95867937D01*
X135617673Y-95889375D01*
X135615562Y-95910813D01*
X135609308Y-95931431D01*
X135599152Y-95950431D01*
X135581569Y-95971856D01*
X135221856Y-96331569D01*
X135200431Y-96349152D01*
X135181431Y-96359308D01*
X135160813Y-96365562D01*
X135139375Y-96367673D01*
X135117937Y-96365562D01*
X135097319Y-96359308D01*
X135078319Y-96349152D01*
X135056894Y-96331569D01*
X134732537Y-96007212D01*
X134714954Y-95985787D01*
X134704798Y-95966787D01*
X134698544Y-95946169D01*
X134696433Y-95924731D01*
X134698544Y-95903293D01*
X134704798Y-95882675D01*
X134714954Y-95863675D01*
X134732537Y-95842250D01*
X135092250Y-95482537D01*
X135113675Y-95464954D01*
X135132675Y-95454798D01*
X135153293Y-95448544D01*
X135174731Y-95446433D01*
X135196169Y-95448544D01*
X135196169Y-95448544D01*
G37*
G36*
X152751000Y-95786000D02*
X149049000Y-95786000D01*
X149049000Y-94414000D01*
X152751000Y-94414000D01*
X152751000Y-95786000D01*
X152751000Y-95786000D01*
G37*
G36*
X108751000Y-95786000D02*
X105049000Y-95786000D01*
X105049000Y-94414000D01*
X108751000Y-94414000D01*
X108751000Y-95786000D01*
X108751000Y-95786000D01*
G37*
G36*
X125551000Y-95706000D02*
X122899000Y-95706000D01*
X122899000Y-94544000D01*
X125551000Y-94544000D01*
X125551000Y-95706000D01*
X125551000Y-95706000D01*
G37*
G36*
X130516938Y-94756716D02*
X130537556Y-94762970D01*
X130556556Y-94773126D01*
X130573208Y-94786792D01*
X130586874Y-94803444D01*
X130597030Y-94822444D01*
X130603284Y-94843062D01*
X130606000Y-94870640D01*
X130606000Y-95379360D01*
X130603284Y-95406938D01*
X130597030Y-95427556D01*
X130586874Y-95446556D01*
X130573208Y-95463208D01*
X130556556Y-95476874D01*
X130537556Y-95487030D01*
X130516938Y-95493284D01*
X130489360Y-95496000D01*
X130030640Y-95496000D01*
X130003062Y-95493284D01*
X129982444Y-95487030D01*
X129963444Y-95476874D01*
X129946792Y-95463208D01*
X129933126Y-95446556D01*
X129922970Y-95427556D01*
X129916716Y-95406938D01*
X129914000Y-95379360D01*
X129914000Y-94870640D01*
X129916716Y-94843062D01*
X129922970Y-94822444D01*
X129933126Y-94803444D01*
X129946792Y-94786792D01*
X129963444Y-94773126D01*
X129982444Y-94762970D01*
X130003062Y-94756716D01*
X130030640Y-94754000D01*
X130489360Y-94754000D01*
X130516938Y-94756716D01*
X130516938Y-94756716D01*
G37*
G36*
X129546938Y-94756716D02*
X129567556Y-94762970D01*
X129586556Y-94773126D01*
X129603208Y-94786792D01*
X129616874Y-94803444D01*
X129627030Y-94822444D01*
X129633284Y-94843062D01*
X129636000Y-94870640D01*
X129636000Y-95379360D01*
X129633284Y-95406938D01*
X129627030Y-95427556D01*
X129616874Y-95446556D01*
X129603208Y-95463208D01*
X129586556Y-95476874D01*
X129567556Y-95487030D01*
X129546938Y-95493284D01*
X129519360Y-95496000D01*
X129060640Y-95496000D01*
X129033062Y-95493284D01*
X129012444Y-95487030D01*
X128993444Y-95476874D01*
X128976792Y-95463208D01*
X128963126Y-95446556D01*
X128952970Y-95427556D01*
X128946716Y-95406938D01*
X128944000Y-95379360D01*
X128944000Y-94870640D01*
X128946716Y-94843062D01*
X128952970Y-94822444D01*
X128963126Y-94803444D01*
X128976792Y-94786792D01*
X128993444Y-94773126D01*
X129012444Y-94762970D01*
X129033062Y-94756716D01*
X129060640Y-94754000D01*
X129519360Y-94754000D01*
X129546938Y-94756716D01*
X129546938Y-94756716D01*
G37*
G36*
X133941938Y-94756716D02*
X133962556Y-94762970D01*
X133981556Y-94773126D01*
X133998208Y-94786792D01*
X134011874Y-94803444D01*
X134022030Y-94822444D01*
X134028284Y-94843062D01*
X134031000Y-94870640D01*
X134031000Y-95379360D01*
X134028284Y-95406938D01*
X134022030Y-95427556D01*
X134011874Y-95446556D01*
X133998208Y-95463208D01*
X133981556Y-95476874D01*
X133962556Y-95487030D01*
X133941938Y-95493284D01*
X133914360Y-95496000D01*
X133455640Y-95496000D01*
X133428062Y-95493284D01*
X133407444Y-95487030D01*
X133388444Y-95476874D01*
X133371792Y-95463208D01*
X133358126Y-95446556D01*
X133347970Y-95427556D01*
X133341716Y-95406938D01*
X133339000Y-95379360D01*
X133339000Y-94870640D01*
X133341716Y-94843062D01*
X133347970Y-94822444D01*
X133358126Y-94803444D01*
X133371792Y-94786792D01*
X133388444Y-94773126D01*
X133407444Y-94762970D01*
X133428062Y-94756716D01*
X133455640Y-94754000D01*
X133914360Y-94754000D01*
X133941938Y-94756716D01*
X133941938Y-94756716D01*
G37*
G36*
X132971938Y-94756716D02*
X132992556Y-94762970D01*
X133011556Y-94773126D01*
X133028208Y-94786792D01*
X133041874Y-94803444D01*
X133052030Y-94822444D01*
X133058284Y-94843062D01*
X133061000Y-94870640D01*
X133061000Y-95379360D01*
X133058284Y-95406938D01*
X133052030Y-95427556D01*
X133041874Y-95446556D01*
X133028208Y-95463208D01*
X133011556Y-95476874D01*
X132992556Y-95487030D01*
X132971938Y-95493284D01*
X132944360Y-95496000D01*
X132485640Y-95496000D01*
X132458062Y-95493284D01*
X132437444Y-95487030D01*
X132418444Y-95476874D01*
X132401792Y-95463208D01*
X132388126Y-95446556D01*
X132377970Y-95427556D01*
X132371716Y-95406938D01*
X132369000Y-95379360D01*
X132369000Y-94870640D01*
X132371716Y-94843062D01*
X132377970Y-94822444D01*
X132388126Y-94803444D01*
X132401792Y-94786792D01*
X132418444Y-94773126D01*
X132437444Y-94762970D01*
X132458062Y-94756716D01*
X132485640Y-94754000D01*
X132944360Y-94754000D01*
X132971938Y-94756716D01*
X132971938Y-94756716D01*
G37*
G36*
X120971938Y-94731716D02*
X120992556Y-94737970D01*
X121011556Y-94748126D01*
X121028208Y-94761792D01*
X121041874Y-94778444D01*
X121052030Y-94797444D01*
X121058284Y-94818062D01*
X121061000Y-94845640D01*
X121061000Y-95354360D01*
X121058284Y-95381938D01*
X121052030Y-95402556D01*
X121041874Y-95421556D01*
X121028208Y-95438208D01*
X121011556Y-95451874D01*
X120992556Y-95462030D01*
X120971938Y-95468284D01*
X120944360Y-95471000D01*
X120485640Y-95471000D01*
X120458062Y-95468284D01*
X120437444Y-95462030D01*
X120418444Y-95451874D01*
X120401792Y-95438208D01*
X120388126Y-95421556D01*
X120377970Y-95402556D01*
X120371716Y-95381938D01*
X120369000Y-95354360D01*
X120369000Y-94845640D01*
X120371716Y-94818062D01*
X120377970Y-94797444D01*
X120388126Y-94778444D01*
X120401792Y-94761792D01*
X120418444Y-94748126D01*
X120437444Y-94737970D01*
X120458062Y-94731716D01*
X120485640Y-94729000D01*
X120944360Y-94729000D01*
X120971938Y-94731716D01*
X120971938Y-94731716D01*
G37*
G36*
X121941938Y-94731716D02*
X121962556Y-94737970D01*
X121981556Y-94748126D01*
X121998208Y-94761792D01*
X122011874Y-94778444D01*
X122022030Y-94797444D01*
X122028284Y-94818062D01*
X122031000Y-94845640D01*
X122031000Y-95354360D01*
X122028284Y-95381938D01*
X122022030Y-95402556D01*
X122011874Y-95421556D01*
X121998208Y-95438208D01*
X121981556Y-95451874D01*
X121962556Y-95462030D01*
X121941938Y-95468284D01*
X121914360Y-95471000D01*
X121455640Y-95471000D01*
X121428062Y-95468284D01*
X121407444Y-95462030D01*
X121388444Y-95451874D01*
X121371792Y-95438208D01*
X121358126Y-95421556D01*
X121347970Y-95402556D01*
X121341716Y-95381938D01*
X121339000Y-95354360D01*
X121339000Y-94845640D01*
X121341716Y-94818062D01*
X121347970Y-94797444D01*
X121358126Y-94778444D01*
X121371792Y-94761792D01*
X121388444Y-94748126D01*
X121407444Y-94737970D01*
X121428062Y-94731716D01*
X121455640Y-94729000D01*
X121914360Y-94729000D01*
X121941938Y-94731716D01*
X121941938Y-94731716D01*
G37*
G36*
X135160813Y-93784438D02*
X135181431Y-93790692D01*
X135200431Y-93800848D01*
X135221856Y-93818431D01*
X135581569Y-94178144D01*
X135599152Y-94199569D01*
X135609308Y-94218569D01*
X135615562Y-94239187D01*
X135617673Y-94260625D01*
X135615562Y-94282063D01*
X135609308Y-94302681D01*
X135599152Y-94321681D01*
X135581569Y-94343106D01*
X135257212Y-94667463D01*
X135235787Y-94685046D01*
X135216787Y-94695202D01*
X135196169Y-94701456D01*
X135174731Y-94703567D01*
X135153293Y-94701456D01*
X135132675Y-94695202D01*
X135113675Y-94685046D01*
X135092250Y-94667463D01*
X134732537Y-94307750D01*
X134714954Y-94286325D01*
X134704798Y-94267325D01*
X134698544Y-94246707D01*
X134696433Y-94225269D01*
X134698544Y-94203831D01*
X134704798Y-94183213D01*
X134714954Y-94164213D01*
X134732537Y-94142788D01*
X135056894Y-93818431D01*
X135078319Y-93800848D01*
X135097319Y-93790692D01*
X135117937Y-93784438D01*
X135139375Y-93782327D01*
X135160813Y-93784438D01*
X135160813Y-93784438D01*
G37*
G36*
X127356938Y-93516716D02*
X127377556Y-93522970D01*
X127396556Y-93533126D01*
X127413208Y-93546792D01*
X127426874Y-93563444D01*
X127437030Y-93582444D01*
X127443284Y-93603062D01*
X127446000Y-93630640D01*
X127446000Y-94089360D01*
X127443284Y-94116938D01*
X127437030Y-94137556D01*
X127426874Y-94156556D01*
X127413208Y-94173208D01*
X127396556Y-94186874D01*
X127377556Y-94197030D01*
X127356938Y-94203284D01*
X127329360Y-94206000D01*
X126820640Y-94206000D01*
X126793062Y-94203284D01*
X126772444Y-94197030D01*
X126753444Y-94186874D01*
X126736792Y-94173208D01*
X126723126Y-94156556D01*
X126712970Y-94137556D01*
X126706716Y-94116938D01*
X126704000Y-94089360D01*
X126704000Y-93630640D01*
X126706716Y-93603062D01*
X126712970Y-93582444D01*
X126723126Y-93563444D01*
X126736792Y-93546792D01*
X126753444Y-93533126D01*
X126772444Y-93522970D01*
X126793062Y-93516716D01*
X126820640Y-93514000D01*
X127329360Y-93514000D01*
X127356938Y-93516716D01*
X127356938Y-93516716D01*
G37*
G36*
X135846707Y-93098544D02*
X135867325Y-93104798D01*
X135886325Y-93114954D01*
X135907750Y-93132537D01*
X136267463Y-93492250D01*
X136285046Y-93513675D01*
X136295202Y-93532675D01*
X136301456Y-93553293D01*
X136303567Y-93574731D01*
X136301456Y-93596169D01*
X136295202Y-93616787D01*
X136285046Y-93635787D01*
X136267463Y-93657212D01*
X135943106Y-93981569D01*
X135921681Y-93999152D01*
X135902681Y-94009308D01*
X135882063Y-94015562D01*
X135860625Y-94017673D01*
X135839187Y-94015562D01*
X135818569Y-94009308D01*
X135799569Y-93999152D01*
X135778144Y-93981569D01*
X135418431Y-93621856D01*
X135400848Y-93600431D01*
X135390692Y-93581431D01*
X135384438Y-93560813D01*
X135382327Y-93539375D01*
X135384438Y-93517937D01*
X135390692Y-93497319D01*
X135400848Y-93478319D01*
X135418431Y-93456894D01*
X135742788Y-93132537D01*
X135764213Y-93114954D01*
X135783213Y-93104798D01*
X135803831Y-93098544D01*
X135825269Y-93096433D01*
X135846707Y-93098544D01*
X135846707Y-93098544D01*
G37*
G36*
X113681938Y-93241716D02*
X113702556Y-93247970D01*
X113721556Y-93258126D01*
X113738208Y-93271792D01*
X113751874Y-93288444D01*
X113762030Y-93307444D01*
X113768284Y-93328062D01*
X113771000Y-93355640D01*
X113771000Y-93814360D01*
X113768284Y-93841938D01*
X113762030Y-93862556D01*
X113751874Y-93881556D01*
X113738208Y-93898208D01*
X113721556Y-93911874D01*
X113702556Y-93922030D01*
X113681938Y-93928284D01*
X113654360Y-93931000D01*
X113145640Y-93931000D01*
X113118062Y-93928284D01*
X113097444Y-93922030D01*
X113078444Y-93911874D01*
X113061792Y-93898208D01*
X113048126Y-93881556D01*
X113037970Y-93862556D01*
X113031716Y-93841938D01*
X113029000Y-93814360D01*
X113029000Y-93355640D01*
X113031716Y-93328062D01*
X113037970Y-93307444D01*
X113048126Y-93288444D01*
X113061792Y-93271792D01*
X113078444Y-93258126D01*
X113097444Y-93247970D01*
X113118062Y-93241716D01*
X113145640Y-93239000D01*
X113654360Y-93239000D01*
X113681938Y-93241716D01*
X113681938Y-93241716D01*
G37*
G36*
X112631938Y-93241716D02*
X112652556Y-93247970D01*
X112671556Y-93258126D01*
X112688208Y-93271792D01*
X112701874Y-93288444D01*
X112712030Y-93307444D01*
X112718284Y-93328062D01*
X112721000Y-93355640D01*
X112721000Y-93814360D01*
X112718284Y-93841938D01*
X112712030Y-93862556D01*
X112701874Y-93881556D01*
X112688208Y-93898208D01*
X112671556Y-93911874D01*
X112652556Y-93922030D01*
X112631938Y-93928284D01*
X112604360Y-93931000D01*
X112095640Y-93931000D01*
X112068062Y-93928284D01*
X112047444Y-93922030D01*
X112028444Y-93911874D01*
X112011792Y-93898208D01*
X111998126Y-93881556D01*
X111987970Y-93862556D01*
X111981716Y-93841938D01*
X111979000Y-93814360D01*
X111979000Y-93355640D01*
X111981716Y-93328062D01*
X111987970Y-93307444D01*
X111998126Y-93288444D01*
X112011792Y-93271792D01*
X112028444Y-93258126D01*
X112047444Y-93247970D01*
X112068062Y-93241716D01*
X112095640Y-93239000D01*
X112604360Y-93239000D01*
X112631938Y-93241716D01*
X112631938Y-93241716D01*
G37*
G36*
X140641938Y-92631716D02*
X140662556Y-92637970D01*
X140681556Y-92648126D01*
X140698208Y-92661792D01*
X140711874Y-92678444D01*
X140722030Y-92697444D01*
X140728284Y-92718062D01*
X140731000Y-92745640D01*
X140731000Y-93254360D01*
X140728284Y-93281938D01*
X140722030Y-93302556D01*
X140711874Y-93321556D01*
X140698208Y-93338208D01*
X140681556Y-93351874D01*
X140662556Y-93362030D01*
X140641938Y-93368284D01*
X140614360Y-93371000D01*
X140155640Y-93371000D01*
X140128062Y-93368284D01*
X140107444Y-93362030D01*
X140088444Y-93351874D01*
X140071792Y-93338208D01*
X140058126Y-93321556D01*
X140047970Y-93302556D01*
X140041716Y-93281938D01*
X140039000Y-93254360D01*
X140039000Y-92745640D01*
X140041716Y-92718062D01*
X140047970Y-92697444D01*
X140058126Y-92678444D01*
X140071792Y-92661792D01*
X140088444Y-92648126D01*
X140107444Y-92637970D01*
X140128062Y-92631716D01*
X140155640Y-92629000D01*
X140614360Y-92629000D01*
X140641938Y-92631716D01*
X140641938Y-92631716D01*
G37*
G36*
X139671938Y-92631716D02*
X139692556Y-92637970D01*
X139711556Y-92648126D01*
X139728208Y-92661792D01*
X139741874Y-92678444D01*
X139752030Y-92697444D01*
X139758284Y-92718062D01*
X139761000Y-92745640D01*
X139761000Y-93254360D01*
X139758284Y-93281938D01*
X139752030Y-93302556D01*
X139741874Y-93321556D01*
X139728208Y-93338208D01*
X139711556Y-93351874D01*
X139692556Y-93362030D01*
X139671938Y-93368284D01*
X139644360Y-93371000D01*
X139185640Y-93371000D01*
X139158062Y-93368284D01*
X139137444Y-93362030D01*
X139118444Y-93351874D01*
X139101792Y-93338208D01*
X139088126Y-93321556D01*
X139077970Y-93302556D01*
X139071716Y-93281938D01*
X139069000Y-93254360D01*
X139069000Y-92745640D01*
X139071716Y-92718062D01*
X139077970Y-92697444D01*
X139088126Y-92678444D01*
X139101792Y-92661792D01*
X139118444Y-92648126D01*
X139137444Y-92637970D01*
X139158062Y-92631716D01*
X139185640Y-92629000D01*
X139644360Y-92629000D01*
X139671938Y-92631716D01*
X139671938Y-92631716D01*
G37*
G36*
X141781938Y-92641716D02*
X141802556Y-92647970D01*
X141821556Y-92658126D01*
X141838208Y-92671792D01*
X141851874Y-92688444D01*
X141862030Y-92707444D01*
X141868284Y-92728062D01*
X141871000Y-92755640D01*
X141871000Y-93214360D01*
X141868284Y-93241938D01*
X141862030Y-93262556D01*
X141851874Y-93281556D01*
X141838208Y-93298208D01*
X141821556Y-93311874D01*
X141802556Y-93322030D01*
X141781938Y-93328284D01*
X141754360Y-93331000D01*
X141245640Y-93331000D01*
X141218062Y-93328284D01*
X141197444Y-93322030D01*
X141178444Y-93311874D01*
X141161792Y-93298208D01*
X141148126Y-93281556D01*
X141137970Y-93262556D01*
X141131716Y-93241938D01*
X141129000Y-93214360D01*
X141129000Y-92755640D01*
X141131716Y-92728062D01*
X141137970Y-92707444D01*
X141148126Y-92688444D01*
X141161792Y-92671792D01*
X141178444Y-92658126D01*
X141197444Y-92647970D01*
X141218062Y-92641716D01*
X141245640Y-92639000D01*
X141754360Y-92639000D01*
X141781938Y-92641716D01*
X141781938Y-92641716D01*
G37*
G36*
X138531938Y-92641716D02*
X138552556Y-92647970D01*
X138571556Y-92658126D01*
X138588208Y-92671792D01*
X138601874Y-92688444D01*
X138612030Y-92707444D01*
X138618284Y-92728062D01*
X138621000Y-92755640D01*
X138621000Y-93214360D01*
X138618284Y-93241938D01*
X138612030Y-93262556D01*
X138601874Y-93281556D01*
X138588208Y-93298208D01*
X138571556Y-93311874D01*
X138552556Y-93322030D01*
X138531938Y-93328284D01*
X138504360Y-93331000D01*
X137995640Y-93331000D01*
X137968062Y-93328284D01*
X137947444Y-93322030D01*
X137928444Y-93311874D01*
X137911792Y-93298208D01*
X137898126Y-93281556D01*
X137887970Y-93262556D01*
X137881716Y-93241938D01*
X137879000Y-93214360D01*
X137879000Y-92755640D01*
X137881716Y-92728062D01*
X137887970Y-92707444D01*
X137898126Y-92688444D01*
X137911792Y-92671792D01*
X137928444Y-92658126D01*
X137947444Y-92647970D01*
X137968062Y-92641716D01*
X137995640Y-92639000D01*
X138504360Y-92639000D01*
X138531938Y-92641716D01*
X138531938Y-92641716D01*
G37*
G36*
X127356938Y-92546716D02*
X127377556Y-92552970D01*
X127396556Y-92563126D01*
X127413208Y-92576792D01*
X127426874Y-92593444D01*
X127437030Y-92612444D01*
X127443284Y-92633062D01*
X127446000Y-92660640D01*
X127446000Y-93119360D01*
X127443284Y-93146938D01*
X127437030Y-93167556D01*
X127426874Y-93186556D01*
X127413208Y-93203208D01*
X127396556Y-93216874D01*
X127377556Y-93227030D01*
X127356938Y-93233284D01*
X127329360Y-93236000D01*
X126820640Y-93236000D01*
X126793062Y-93233284D01*
X126772444Y-93227030D01*
X126753444Y-93216874D01*
X126736792Y-93203208D01*
X126723126Y-93186556D01*
X126712970Y-93167556D01*
X126706716Y-93146938D01*
X126704000Y-93119360D01*
X126704000Y-92660640D01*
X126706716Y-92633062D01*
X126712970Y-92612444D01*
X126723126Y-92593444D01*
X126736792Y-92576792D01*
X126753444Y-92563126D01*
X126772444Y-92552970D01*
X126793062Y-92546716D01*
X126820640Y-92544000D01*
X127329360Y-92544000D01*
X127356938Y-92546716D01*
X127356938Y-92546716D01*
G37*
G36*
X152851000Y-93001000D02*
X148549000Y-93001000D01*
X148549000Y-91549000D01*
X152851000Y-91549000D01*
X152851000Y-93001000D01*
X152851000Y-93001000D01*
G37*
G36*
X109251000Y-93001000D02*
X104949000Y-93001000D01*
X104949000Y-91549000D01*
X109251000Y-91549000D01*
X109251000Y-93001000D01*
X109251000Y-93001000D01*
G37*
G36*
X113681938Y-92271716D02*
X113702556Y-92277970D01*
X113721556Y-92288126D01*
X113738208Y-92301792D01*
X113751874Y-92318444D01*
X113762030Y-92337444D01*
X113768284Y-92358062D01*
X113771000Y-92385640D01*
X113771000Y-92844360D01*
X113768284Y-92871938D01*
X113762030Y-92892556D01*
X113751874Y-92911556D01*
X113738208Y-92928208D01*
X113721556Y-92941874D01*
X113702556Y-92952030D01*
X113681938Y-92958284D01*
X113654360Y-92961000D01*
X113145640Y-92961000D01*
X113118062Y-92958284D01*
X113097444Y-92952030D01*
X113078444Y-92941874D01*
X113061792Y-92928208D01*
X113048126Y-92911556D01*
X113037970Y-92892556D01*
X113031716Y-92871938D01*
X113029000Y-92844360D01*
X113029000Y-92385640D01*
X113031716Y-92358062D01*
X113037970Y-92337444D01*
X113048126Y-92318444D01*
X113061792Y-92301792D01*
X113078444Y-92288126D01*
X113097444Y-92277970D01*
X113118062Y-92271716D01*
X113145640Y-92269000D01*
X113654360Y-92269000D01*
X113681938Y-92271716D01*
X113681938Y-92271716D01*
G37*
G36*
X112631938Y-92271716D02*
X112652556Y-92277970D01*
X112671556Y-92288126D01*
X112688208Y-92301792D01*
X112701874Y-92318444D01*
X112712030Y-92337444D01*
X112718284Y-92358062D01*
X112721000Y-92385640D01*
X112721000Y-92844360D01*
X112718284Y-92871938D01*
X112712030Y-92892556D01*
X112701874Y-92911556D01*
X112688208Y-92928208D01*
X112671556Y-92941874D01*
X112652556Y-92952030D01*
X112631938Y-92958284D01*
X112604360Y-92961000D01*
X112095640Y-92961000D01*
X112068062Y-92958284D01*
X112047444Y-92952030D01*
X112028444Y-92941874D01*
X112011792Y-92928208D01*
X111998126Y-92911556D01*
X111987970Y-92892556D01*
X111981716Y-92871938D01*
X111979000Y-92844360D01*
X111979000Y-92385640D01*
X111981716Y-92358062D01*
X111987970Y-92337444D01*
X111998126Y-92318444D01*
X112011792Y-92301792D01*
X112028444Y-92288126D01*
X112047444Y-92277970D01*
X112068062Y-92271716D01*
X112095640Y-92269000D01*
X112604360Y-92269000D01*
X112631938Y-92271716D01*
X112631938Y-92271716D01*
G37*
G36*
X141781938Y-91671716D02*
X141802556Y-91677970D01*
X141821556Y-91688126D01*
X141838208Y-91701792D01*
X141851874Y-91718444D01*
X141862030Y-91737444D01*
X141868284Y-91758062D01*
X141871000Y-91785640D01*
X141871000Y-92244360D01*
X141868284Y-92271938D01*
X141862030Y-92292556D01*
X141851874Y-92311556D01*
X141838208Y-92328208D01*
X141821556Y-92341874D01*
X141802556Y-92352030D01*
X141781938Y-92358284D01*
X141754360Y-92361000D01*
X141245640Y-92361000D01*
X141218062Y-92358284D01*
X141197444Y-92352030D01*
X141178444Y-92341874D01*
X141161792Y-92328208D01*
X141148126Y-92311556D01*
X141137970Y-92292556D01*
X141131716Y-92271938D01*
X141129000Y-92244360D01*
X141129000Y-91785640D01*
X141131716Y-91758062D01*
X141137970Y-91737444D01*
X141148126Y-91718444D01*
X141161792Y-91701792D01*
X141178444Y-91688126D01*
X141197444Y-91677970D01*
X141218062Y-91671716D01*
X141245640Y-91669000D01*
X141754360Y-91669000D01*
X141781938Y-91671716D01*
X141781938Y-91671716D01*
G37*
G36*
X138531938Y-91671716D02*
X138552556Y-91677970D01*
X138571556Y-91688126D01*
X138588208Y-91701792D01*
X138601874Y-91718444D01*
X138612030Y-91737444D01*
X138618284Y-91758062D01*
X138621000Y-91785640D01*
X138621000Y-92244360D01*
X138618284Y-92271938D01*
X138612030Y-92292556D01*
X138601874Y-92311556D01*
X138588208Y-92328208D01*
X138571556Y-92341874D01*
X138552556Y-92352030D01*
X138531938Y-92358284D01*
X138504360Y-92361000D01*
X137995640Y-92361000D01*
X137968062Y-92358284D01*
X137947444Y-92352030D01*
X137928444Y-92341874D01*
X137911792Y-92328208D01*
X137898126Y-92311556D01*
X137887970Y-92292556D01*
X137881716Y-92271938D01*
X137879000Y-92244360D01*
X137879000Y-91785640D01*
X137881716Y-91758062D01*
X137887970Y-91737444D01*
X137898126Y-91718444D01*
X137911792Y-91701792D01*
X137928444Y-91688126D01*
X137947444Y-91677970D01*
X137968062Y-91671716D01*
X137995640Y-91669000D01*
X138504360Y-91669000D01*
X138531938Y-91671716D01*
X138531938Y-91671716D01*
G37*
G36*
X127346938Y-91156716D02*
X127367556Y-91162970D01*
X127386556Y-91173126D01*
X127403208Y-91186792D01*
X127416874Y-91203444D01*
X127427030Y-91222444D01*
X127433284Y-91243062D01*
X127436000Y-91270640D01*
X127436000Y-91779360D01*
X127433284Y-91806938D01*
X127427030Y-91827556D01*
X127416874Y-91846556D01*
X127403208Y-91863208D01*
X127386556Y-91876874D01*
X127367556Y-91887030D01*
X127346938Y-91893284D01*
X127319360Y-91896000D01*
X126860640Y-91896000D01*
X126833062Y-91893284D01*
X126812444Y-91887030D01*
X126793444Y-91876874D01*
X126776792Y-91863208D01*
X126763126Y-91846556D01*
X126752970Y-91827556D01*
X126746716Y-91806938D01*
X126744000Y-91779360D01*
X126744000Y-91270640D01*
X126746716Y-91243062D01*
X126752970Y-91222444D01*
X126763126Y-91203444D01*
X126776792Y-91186792D01*
X126793444Y-91173126D01*
X126812444Y-91162970D01*
X126833062Y-91156716D01*
X126860640Y-91154000D01*
X127319360Y-91154000D01*
X127346938Y-91156716D01*
X127346938Y-91156716D01*
G37*
G36*
X128316938Y-91156716D02*
X128337556Y-91162970D01*
X128356556Y-91173126D01*
X128373208Y-91186792D01*
X128386874Y-91203444D01*
X128397030Y-91222444D01*
X128403284Y-91243062D01*
X128406000Y-91270640D01*
X128406000Y-91779360D01*
X128403284Y-91806938D01*
X128397030Y-91827556D01*
X128386874Y-91846556D01*
X128373208Y-91863208D01*
X128356556Y-91876874D01*
X128337556Y-91887030D01*
X128316938Y-91893284D01*
X128289360Y-91896000D01*
X127830640Y-91896000D01*
X127803062Y-91893284D01*
X127782444Y-91887030D01*
X127763444Y-91876874D01*
X127746792Y-91863208D01*
X127733126Y-91846556D01*
X127722970Y-91827556D01*
X127716716Y-91806938D01*
X127714000Y-91779360D01*
X127714000Y-91270640D01*
X127716716Y-91243062D01*
X127722970Y-91222444D01*
X127733126Y-91203444D01*
X127746792Y-91186792D01*
X127763444Y-91173126D01*
X127782444Y-91162970D01*
X127803062Y-91156716D01*
X127830640Y-91154000D01*
X128289360Y-91154000D01*
X128316938Y-91156716D01*
X128316938Y-91156716D01*
G37*
G36*
X138031938Y-88541716D02*
X138052556Y-88547970D01*
X138071556Y-88558126D01*
X138088208Y-88571792D01*
X138101874Y-88588444D01*
X138112030Y-88607444D01*
X138118284Y-88628062D01*
X138121000Y-88655640D01*
X138121000Y-89114360D01*
X138118284Y-89141938D01*
X138112030Y-89162556D01*
X138101874Y-89181556D01*
X138088208Y-89198208D01*
X138071556Y-89211874D01*
X138052556Y-89222030D01*
X138031938Y-89228284D01*
X138004360Y-89231000D01*
X137495640Y-89231000D01*
X137468062Y-89228284D01*
X137447444Y-89222030D01*
X137428444Y-89211874D01*
X137411792Y-89198208D01*
X137398126Y-89181556D01*
X137387970Y-89162556D01*
X137381716Y-89141938D01*
X137379000Y-89114360D01*
X137379000Y-88655640D01*
X137381716Y-88628062D01*
X137387970Y-88607444D01*
X137398126Y-88588444D01*
X137411792Y-88571792D01*
X137428444Y-88558126D01*
X137447444Y-88547970D01*
X137468062Y-88541716D01*
X137495640Y-88539000D01*
X138004360Y-88539000D01*
X138031938Y-88541716D01*
X138031938Y-88541716D01*
G37*
G36*
X135981938Y-88541716D02*
X136002556Y-88547970D01*
X136021556Y-88558126D01*
X136038208Y-88571792D01*
X136051874Y-88588444D01*
X136062030Y-88607444D01*
X136068284Y-88628062D01*
X136071000Y-88655640D01*
X136071000Y-89114360D01*
X136068284Y-89141938D01*
X136062030Y-89162556D01*
X136051874Y-89181556D01*
X136038208Y-89198208D01*
X136021556Y-89211874D01*
X136002556Y-89222030D01*
X135981938Y-89228284D01*
X135954360Y-89231000D01*
X135445640Y-89231000D01*
X135418062Y-89228284D01*
X135397444Y-89222030D01*
X135378444Y-89211874D01*
X135361792Y-89198208D01*
X135348126Y-89181556D01*
X135337970Y-89162556D01*
X135331716Y-89141938D01*
X135329000Y-89114360D01*
X135329000Y-88655640D01*
X135331716Y-88628062D01*
X135337970Y-88607444D01*
X135348126Y-88588444D01*
X135361792Y-88571792D01*
X135378444Y-88558126D01*
X135397444Y-88547970D01*
X135418062Y-88541716D01*
X135445640Y-88539000D01*
X135954360Y-88539000D01*
X135981938Y-88541716D01*
X135981938Y-88541716D01*
G37*
G36*
X134406938Y-88541716D02*
X134427556Y-88547970D01*
X134446556Y-88558126D01*
X134463208Y-88571792D01*
X134476874Y-88588444D01*
X134487030Y-88607444D01*
X134493284Y-88628062D01*
X134496000Y-88655640D01*
X134496000Y-89114360D01*
X134493284Y-89141938D01*
X134487030Y-89162556D01*
X134476874Y-89181556D01*
X134463208Y-89198208D01*
X134446556Y-89211874D01*
X134427556Y-89222030D01*
X134406938Y-89228284D01*
X134379360Y-89231000D01*
X133870640Y-89231000D01*
X133843062Y-89228284D01*
X133822444Y-89222030D01*
X133803444Y-89211874D01*
X133786792Y-89198208D01*
X133773126Y-89181556D01*
X133762970Y-89162556D01*
X133756716Y-89141938D01*
X133754000Y-89114360D01*
X133754000Y-88655640D01*
X133756716Y-88628062D01*
X133762970Y-88607444D01*
X133773126Y-88588444D01*
X133786792Y-88571792D01*
X133803444Y-88558126D01*
X133822444Y-88547970D01*
X133843062Y-88541716D01*
X133870640Y-88539000D01*
X134379360Y-88539000D01*
X134406938Y-88541716D01*
X134406938Y-88541716D01*
G37*
G36*
X137006938Y-88541716D02*
X137027556Y-88547970D01*
X137046556Y-88558126D01*
X137063208Y-88571792D01*
X137076874Y-88588444D01*
X137087030Y-88607444D01*
X137093284Y-88628062D01*
X137096000Y-88655640D01*
X137096000Y-89114360D01*
X137093284Y-89141938D01*
X137087030Y-89162556D01*
X137076874Y-89181556D01*
X137063208Y-89198208D01*
X137046556Y-89211874D01*
X137027556Y-89222030D01*
X137006938Y-89228284D01*
X136979360Y-89231000D01*
X136470640Y-89231000D01*
X136443062Y-89228284D01*
X136422444Y-89222030D01*
X136403444Y-89211874D01*
X136386792Y-89198208D01*
X136373126Y-89181556D01*
X136362970Y-89162556D01*
X136356716Y-89141938D01*
X136354000Y-89114360D01*
X136354000Y-88655640D01*
X136356716Y-88628062D01*
X136362970Y-88607444D01*
X136373126Y-88588444D01*
X136386792Y-88571792D01*
X136403444Y-88558126D01*
X136422444Y-88547970D01*
X136443062Y-88541716D01*
X136470640Y-88539000D01*
X136979360Y-88539000D01*
X137006938Y-88541716D01*
X137006938Y-88541716D01*
G37*
G36*
X138031938Y-87571716D02*
X138052556Y-87577970D01*
X138071556Y-87588126D01*
X138088208Y-87601792D01*
X138101874Y-87618444D01*
X138112030Y-87637444D01*
X138118284Y-87658062D01*
X138121000Y-87685640D01*
X138121000Y-88144360D01*
X138118284Y-88171938D01*
X138112030Y-88192556D01*
X138101874Y-88211556D01*
X138088208Y-88228208D01*
X138071556Y-88241874D01*
X138052556Y-88252030D01*
X138031938Y-88258284D01*
X138004360Y-88261000D01*
X137495640Y-88261000D01*
X137468062Y-88258284D01*
X137447444Y-88252030D01*
X137428444Y-88241874D01*
X137411792Y-88228208D01*
X137398126Y-88211556D01*
X137387970Y-88192556D01*
X137381716Y-88171938D01*
X137379000Y-88144360D01*
X137379000Y-87685640D01*
X137381716Y-87658062D01*
X137387970Y-87637444D01*
X137398126Y-87618444D01*
X137411792Y-87601792D01*
X137428444Y-87588126D01*
X137447444Y-87577970D01*
X137468062Y-87571716D01*
X137495640Y-87569000D01*
X138004360Y-87569000D01*
X138031938Y-87571716D01*
X138031938Y-87571716D01*
G37*
G36*
X137006938Y-87571716D02*
X137027556Y-87577970D01*
X137046556Y-87588126D01*
X137063208Y-87601792D01*
X137076874Y-87618444D01*
X137087030Y-87637444D01*
X137093284Y-87658062D01*
X137096000Y-87685640D01*
X137096000Y-88144360D01*
X137093284Y-88171938D01*
X137087030Y-88192556D01*
X137076874Y-88211556D01*
X137063208Y-88228208D01*
X137046556Y-88241874D01*
X137027556Y-88252030D01*
X137006938Y-88258284D01*
X136979360Y-88261000D01*
X136470640Y-88261000D01*
X136443062Y-88258284D01*
X136422444Y-88252030D01*
X136403444Y-88241874D01*
X136386792Y-88228208D01*
X136373126Y-88211556D01*
X136362970Y-88192556D01*
X136356716Y-88171938D01*
X136354000Y-88144360D01*
X136354000Y-87685640D01*
X136356716Y-87658062D01*
X136362970Y-87637444D01*
X136373126Y-87618444D01*
X136386792Y-87601792D01*
X136403444Y-87588126D01*
X136422444Y-87577970D01*
X136443062Y-87571716D01*
X136470640Y-87569000D01*
X136979360Y-87569000D01*
X137006938Y-87571716D01*
X137006938Y-87571716D01*
G37*
G36*
X134406938Y-87571716D02*
X134427556Y-87577970D01*
X134446556Y-87588126D01*
X134463208Y-87601792D01*
X134476874Y-87618444D01*
X134487030Y-87637444D01*
X134493284Y-87658062D01*
X134496000Y-87685640D01*
X134496000Y-88144360D01*
X134493284Y-88171938D01*
X134487030Y-88192556D01*
X134476874Y-88211556D01*
X134463208Y-88228208D01*
X134446556Y-88241874D01*
X134427556Y-88252030D01*
X134406938Y-88258284D01*
X134379360Y-88261000D01*
X133870640Y-88261000D01*
X133843062Y-88258284D01*
X133822444Y-88252030D01*
X133803444Y-88241874D01*
X133786792Y-88228208D01*
X133773126Y-88211556D01*
X133762970Y-88192556D01*
X133756716Y-88171938D01*
X133754000Y-88144360D01*
X133754000Y-87685640D01*
X133756716Y-87658062D01*
X133762970Y-87637444D01*
X133773126Y-87618444D01*
X133786792Y-87601792D01*
X133803444Y-87588126D01*
X133822444Y-87577970D01*
X133843062Y-87571716D01*
X133870640Y-87569000D01*
X134379360Y-87569000D01*
X134406938Y-87571716D01*
X134406938Y-87571716D01*
G37*
G36*
X135981938Y-87571716D02*
X136002556Y-87577970D01*
X136021556Y-87588126D01*
X136038208Y-87601792D01*
X136051874Y-87618444D01*
X136062030Y-87637444D01*
X136068284Y-87658062D01*
X136071000Y-87685640D01*
X136071000Y-88144360D01*
X136068284Y-88171938D01*
X136062030Y-88192556D01*
X136051874Y-88211556D01*
X136038208Y-88228208D01*
X136021556Y-88241874D01*
X136002556Y-88252030D01*
X135981938Y-88258284D01*
X135954360Y-88261000D01*
X135445640Y-88261000D01*
X135418062Y-88258284D01*
X135397444Y-88252030D01*
X135378444Y-88241874D01*
X135361792Y-88228208D01*
X135348126Y-88211556D01*
X135337970Y-88192556D01*
X135331716Y-88171938D01*
X135329000Y-88144360D01*
X135329000Y-87685640D01*
X135331716Y-87658062D01*
X135337970Y-87637444D01*
X135348126Y-87618444D01*
X135361792Y-87601792D01*
X135378444Y-87588126D01*
X135397444Y-87577970D01*
X135418062Y-87571716D01*
X135445640Y-87569000D01*
X135954360Y-87569000D01*
X135981938Y-87571716D01*
X135981938Y-87571716D01*
G37*
G36*
X119950442Y-86285518D02*
X120016627Y-86292037D01*
X120129853Y-86326384D01*
X120186467Y-86343557D01*
X120325087Y-86417652D01*
X120342991Y-86427222D01*
X120378729Y-86456552D01*
X120480186Y-86539814D01*
X120563448Y-86641271D01*
X120592778Y-86677009D01*
X120592779Y-86677011D01*
X120676443Y-86833533D01*
X120690807Y-86880886D01*
X120727963Y-87003373D01*
X120745359Y-87180000D01*
X120727963Y-87356627D01*
X120699149Y-87451614D01*
X120676443Y-87526467D01*
X120626624Y-87619671D01*
X120592778Y-87682991D01*
X120572049Y-87708249D01*
X120480186Y-87820186D01*
X120378729Y-87903448D01*
X120342991Y-87932778D01*
X120342989Y-87932779D01*
X120186467Y-88016443D01*
X120129853Y-88033616D01*
X120016627Y-88067963D01*
X119950443Y-88074481D01*
X119884260Y-88081000D01*
X119795740Y-88081000D01*
X119729557Y-88074481D01*
X119663373Y-88067963D01*
X119550147Y-88033616D01*
X119493533Y-88016443D01*
X119337011Y-87932779D01*
X119337009Y-87932778D01*
X119301271Y-87903448D01*
X119199814Y-87820186D01*
X119107951Y-87708249D01*
X119087222Y-87682991D01*
X119053376Y-87619671D01*
X119003557Y-87526467D01*
X118980851Y-87451614D01*
X118952037Y-87356627D01*
X118934641Y-87180000D01*
X118952037Y-87003373D01*
X118989193Y-86880886D01*
X119003557Y-86833533D01*
X119087221Y-86677011D01*
X119087222Y-86677009D01*
X119116552Y-86641271D01*
X119199814Y-86539814D01*
X119301271Y-86456552D01*
X119337009Y-86427222D01*
X119354913Y-86417652D01*
X119493533Y-86343557D01*
X119550147Y-86326384D01*
X119663373Y-86292037D01*
X119729558Y-86285518D01*
X119795740Y-86279000D01*
X119884260Y-86279000D01*
X119950442Y-86285518D01*
X119950442Y-86285518D01*
G37*
G36*
X117410442Y-86285518D02*
X117476627Y-86292037D01*
X117589853Y-86326384D01*
X117646467Y-86343557D01*
X117785087Y-86417652D01*
X117802991Y-86427222D01*
X117838729Y-86456552D01*
X117940186Y-86539814D01*
X118023448Y-86641271D01*
X118052778Y-86677009D01*
X118052779Y-86677011D01*
X118136443Y-86833533D01*
X118150807Y-86880886D01*
X118187963Y-87003373D01*
X118205359Y-87180000D01*
X118187963Y-87356627D01*
X118159149Y-87451614D01*
X118136443Y-87526467D01*
X118086624Y-87619671D01*
X118052778Y-87682991D01*
X118032049Y-87708249D01*
X117940186Y-87820186D01*
X117838729Y-87903448D01*
X117802991Y-87932778D01*
X117802989Y-87932779D01*
X117646467Y-88016443D01*
X117589853Y-88033616D01*
X117476627Y-88067963D01*
X117410443Y-88074481D01*
X117344260Y-88081000D01*
X117255740Y-88081000D01*
X117189557Y-88074481D01*
X117123373Y-88067963D01*
X117010147Y-88033616D01*
X116953533Y-88016443D01*
X116797011Y-87932779D01*
X116797009Y-87932778D01*
X116761271Y-87903448D01*
X116659814Y-87820186D01*
X116567951Y-87708249D01*
X116547222Y-87682991D01*
X116513376Y-87619671D01*
X116463557Y-87526467D01*
X116440851Y-87451614D01*
X116412037Y-87356627D01*
X116394641Y-87180000D01*
X116412037Y-87003373D01*
X116449193Y-86880886D01*
X116463557Y-86833533D01*
X116547221Y-86677011D01*
X116547222Y-86677009D01*
X116576552Y-86641271D01*
X116659814Y-86539814D01*
X116761271Y-86456552D01*
X116797009Y-86427222D01*
X116814913Y-86417652D01*
X116953533Y-86343557D01*
X117010147Y-86326384D01*
X117123373Y-86292037D01*
X117189558Y-86285518D01*
X117255740Y-86279000D01*
X117344260Y-86279000D01*
X117410442Y-86285518D01*
X117410442Y-86285518D01*
G37*
G36*
X140731000Y-85374000D02*
X140733402Y-85398386D01*
X140740515Y-85421835D01*
X140752066Y-85443446D01*
X140767612Y-85462388D01*
X140786554Y-85477934D01*
X140808165Y-85489485D01*
X140831614Y-85496598D01*
X140856000Y-85499000D01*
X141701000Y-85499000D01*
X141701000Y-87351000D01*
X140856000Y-87351000D01*
X140831614Y-87353402D01*
X140808165Y-87360515D01*
X140786554Y-87372066D01*
X140767612Y-87387612D01*
X140752066Y-87406554D01*
X140740515Y-87428165D01*
X140733402Y-87451614D01*
X140731000Y-87476000D01*
X140731000Y-87576000D01*
X140019000Y-87576000D01*
X140019000Y-87476000D01*
X140016598Y-87451614D01*
X140009485Y-87428165D01*
X139997934Y-87406554D01*
X139982388Y-87387612D01*
X139963446Y-87372066D01*
X139941835Y-87360515D01*
X139918386Y-87353402D01*
X139894000Y-87351000D01*
X139049000Y-87351000D01*
X139049000Y-85499000D01*
X139894000Y-85499000D01*
X139918386Y-85496598D01*
X139941835Y-85489485D01*
X139963446Y-85477934D01*
X139982388Y-85462388D01*
X139997934Y-85443446D01*
X140009485Y-85421835D01*
X140016598Y-85398386D01*
X140019000Y-85374000D01*
X140019000Y-85274000D01*
X140731000Y-85274000D01*
X140731000Y-85374000D01*
X140731000Y-85374000D01*
G37*
G36*
X146341938Y-86831716D02*
X146362556Y-86837970D01*
X146381556Y-86848126D01*
X146398208Y-86861792D01*
X146411874Y-86878444D01*
X146422030Y-86897444D01*
X146428284Y-86918062D01*
X146431000Y-86945640D01*
X146431000Y-87454360D01*
X146428284Y-87481938D01*
X146422030Y-87502556D01*
X146411874Y-87521556D01*
X146398208Y-87538208D01*
X146381556Y-87551874D01*
X146362556Y-87562030D01*
X146341938Y-87568284D01*
X146314360Y-87571000D01*
X145855640Y-87571000D01*
X145828062Y-87568284D01*
X145807444Y-87562030D01*
X145788444Y-87551874D01*
X145771792Y-87538208D01*
X145758126Y-87521556D01*
X145747970Y-87502556D01*
X145741716Y-87481938D01*
X145739000Y-87454360D01*
X145739000Y-86945640D01*
X145741716Y-86918062D01*
X145747970Y-86897444D01*
X145758126Y-86878444D01*
X145771792Y-86861792D01*
X145788444Y-86848126D01*
X145807444Y-86837970D01*
X145828062Y-86831716D01*
X145855640Y-86829000D01*
X146314360Y-86829000D01*
X146341938Y-86831716D01*
X146341938Y-86831716D01*
G37*
G36*
X145371938Y-86831716D02*
X145392556Y-86837970D01*
X145411556Y-86848126D01*
X145428208Y-86861792D01*
X145441874Y-86878444D01*
X145452030Y-86897444D01*
X145458284Y-86918062D01*
X145461000Y-86945640D01*
X145461000Y-87454360D01*
X145458284Y-87481938D01*
X145452030Y-87502556D01*
X145441874Y-87521556D01*
X145428208Y-87538208D01*
X145411556Y-87551874D01*
X145392556Y-87562030D01*
X145371938Y-87568284D01*
X145344360Y-87571000D01*
X144885640Y-87571000D01*
X144858062Y-87568284D01*
X144837444Y-87562030D01*
X144818444Y-87551874D01*
X144801792Y-87538208D01*
X144788126Y-87521556D01*
X144777970Y-87502556D01*
X144771716Y-87481938D01*
X144769000Y-87454360D01*
X144769000Y-86945640D01*
X144771716Y-86918062D01*
X144777970Y-86897444D01*
X144788126Y-86878444D01*
X144801792Y-86861792D01*
X144818444Y-86848126D01*
X144837444Y-86837970D01*
X144858062Y-86831716D01*
X144885640Y-86829000D01*
X145344360Y-86829000D01*
X145371938Y-86831716D01*
X145371938Y-86831716D01*
G37*
G36*
X144116938Y-86806716D02*
X144137556Y-86812970D01*
X144156556Y-86823126D01*
X144173208Y-86836792D01*
X144186874Y-86853444D01*
X144197030Y-86872444D01*
X144203284Y-86893062D01*
X144206000Y-86920640D01*
X144206000Y-87429360D01*
X144203284Y-87456938D01*
X144197030Y-87477556D01*
X144186874Y-87496556D01*
X144173208Y-87513208D01*
X144156556Y-87526874D01*
X144137556Y-87537030D01*
X144116938Y-87543284D01*
X144089360Y-87546000D01*
X143630640Y-87546000D01*
X143603062Y-87543284D01*
X143582444Y-87537030D01*
X143563444Y-87526874D01*
X143546792Y-87513208D01*
X143533126Y-87496556D01*
X143522970Y-87477556D01*
X143516716Y-87456938D01*
X143514000Y-87429360D01*
X143514000Y-86920640D01*
X143516716Y-86893062D01*
X143522970Y-86872444D01*
X143533126Y-86853444D01*
X143546792Y-86836792D01*
X143563444Y-86823126D01*
X143582444Y-86812970D01*
X143603062Y-86806716D01*
X143630640Y-86804000D01*
X144089360Y-86804000D01*
X144116938Y-86806716D01*
X144116938Y-86806716D01*
G37*
G36*
X143146938Y-86806716D02*
X143167556Y-86812970D01*
X143186556Y-86823126D01*
X143203208Y-86836792D01*
X143216874Y-86853444D01*
X143227030Y-86872444D01*
X143233284Y-86893062D01*
X143236000Y-86920640D01*
X143236000Y-87429360D01*
X143233284Y-87456938D01*
X143227030Y-87477556D01*
X143216874Y-87496556D01*
X143203208Y-87513208D01*
X143186556Y-87526874D01*
X143167556Y-87537030D01*
X143146938Y-87543284D01*
X143119360Y-87546000D01*
X142660640Y-87546000D01*
X142633062Y-87543284D01*
X142612444Y-87537030D01*
X142593444Y-87526874D01*
X142576792Y-87513208D01*
X142563126Y-87496556D01*
X142552970Y-87477556D01*
X142546716Y-87456938D01*
X142544000Y-87429360D01*
X142544000Y-86920640D01*
X142546716Y-86893062D01*
X142552970Y-86872444D01*
X142563126Y-86853444D01*
X142576792Y-86836792D01*
X142593444Y-86823126D01*
X142612444Y-86812970D01*
X142633062Y-86806716D01*
X142660640Y-86804000D01*
X143119360Y-86804000D01*
X143146938Y-86806716D01*
X143146938Y-86806716D01*
G37*
G36*
X119950443Y-83745519D02*
X120016627Y-83752037D01*
X120115959Y-83782169D01*
X120186467Y-83803557D01*
X120288437Y-83858062D01*
X120342991Y-83887222D01*
X120368612Y-83908249D01*
X120480186Y-83999814D01*
X120563448Y-84101271D01*
X120592778Y-84137009D01*
X120592779Y-84137011D01*
X120676443Y-84293533D01*
X120691861Y-84344360D01*
X120727963Y-84463373D01*
X120745359Y-84640000D01*
X120727963Y-84816627D01*
X120705437Y-84890886D01*
X120676443Y-84986467D01*
X120676158Y-84987000D01*
X120592778Y-85142991D01*
X120563448Y-85178729D01*
X120480186Y-85280186D01*
X120390103Y-85354114D01*
X120342991Y-85392778D01*
X120342989Y-85392779D01*
X120186467Y-85476443D01*
X120152080Y-85486874D01*
X120016627Y-85527963D01*
X119950443Y-85534481D01*
X119884260Y-85541000D01*
X119795740Y-85541000D01*
X119729557Y-85534481D01*
X119663373Y-85527963D01*
X119527920Y-85486874D01*
X119493533Y-85476443D01*
X119337011Y-85392779D01*
X119337009Y-85392778D01*
X119289897Y-85354114D01*
X119199814Y-85280186D01*
X119116552Y-85178729D01*
X119087222Y-85142991D01*
X119003842Y-84987000D01*
X119003557Y-84986467D01*
X118974563Y-84890886D01*
X118952037Y-84816627D01*
X118934641Y-84640000D01*
X118952037Y-84463373D01*
X118988139Y-84344360D01*
X119003557Y-84293533D01*
X119087221Y-84137011D01*
X119087222Y-84137009D01*
X119116552Y-84101271D01*
X119199814Y-83999814D01*
X119311388Y-83908249D01*
X119337009Y-83887222D01*
X119391563Y-83858062D01*
X119493533Y-83803557D01*
X119564041Y-83782169D01*
X119663373Y-83752037D01*
X119729557Y-83745519D01*
X119795740Y-83739000D01*
X119884260Y-83739000D01*
X119950443Y-83745519D01*
X119950443Y-83745519D01*
G37*
G36*
X117410443Y-83745519D02*
X117476627Y-83752037D01*
X117575959Y-83782169D01*
X117646467Y-83803557D01*
X117748437Y-83858062D01*
X117802991Y-83887222D01*
X117828612Y-83908249D01*
X117940186Y-83999814D01*
X118023448Y-84101271D01*
X118052778Y-84137009D01*
X118052779Y-84137011D01*
X118136443Y-84293533D01*
X118151861Y-84344360D01*
X118187963Y-84463373D01*
X118205359Y-84640000D01*
X118187963Y-84816627D01*
X118165437Y-84890886D01*
X118136443Y-84986467D01*
X118136158Y-84987000D01*
X118052778Y-85142991D01*
X118023448Y-85178729D01*
X117940186Y-85280186D01*
X117850103Y-85354114D01*
X117802991Y-85392778D01*
X117802989Y-85392779D01*
X117646467Y-85476443D01*
X117612080Y-85486874D01*
X117476627Y-85527963D01*
X117410443Y-85534481D01*
X117344260Y-85541000D01*
X117255740Y-85541000D01*
X117189557Y-85534481D01*
X117123373Y-85527963D01*
X116987920Y-85486874D01*
X116953533Y-85476443D01*
X116797011Y-85392779D01*
X116797009Y-85392778D01*
X116749897Y-85354114D01*
X116659814Y-85280186D01*
X116576552Y-85178729D01*
X116547222Y-85142991D01*
X116463842Y-84987000D01*
X116463557Y-84986467D01*
X116434563Y-84890886D01*
X116412037Y-84816627D01*
X116394641Y-84640000D01*
X116412037Y-84463373D01*
X116448139Y-84344360D01*
X116463557Y-84293533D01*
X116547221Y-84137011D01*
X116547222Y-84137009D01*
X116576552Y-84101271D01*
X116659814Y-83999814D01*
X116771388Y-83908249D01*
X116797009Y-83887222D01*
X116851563Y-83858062D01*
X116953533Y-83803557D01*
X117024041Y-83782169D01*
X117123373Y-83752037D01*
X117189557Y-83745519D01*
X117255740Y-83739000D01*
X117344260Y-83739000D01*
X117410443Y-83745519D01*
X117410443Y-83745519D01*
G37*
G36*
X143031938Y-84816716D02*
X143052556Y-84822970D01*
X143071556Y-84833126D01*
X143088208Y-84846792D01*
X143101874Y-84863444D01*
X143112030Y-84882444D01*
X143118284Y-84903062D01*
X143121000Y-84930640D01*
X143121000Y-85389360D01*
X143118284Y-85416938D01*
X143112030Y-85437556D01*
X143101874Y-85456556D01*
X143088208Y-85473208D01*
X143071556Y-85486874D01*
X143052556Y-85497030D01*
X143031938Y-85503284D01*
X143004360Y-85506000D01*
X142495640Y-85506000D01*
X142468062Y-85503284D01*
X142447444Y-85497030D01*
X142428444Y-85486874D01*
X142411792Y-85473208D01*
X142398126Y-85456556D01*
X142387970Y-85437556D01*
X142381716Y-85416938D01*
X142379000Y-85389360D01*
X142379000Y-84930640D01*
X142381716Y-84903062D01*
X142387970Y-84882444D01*
X142398126Y-84863444D01*
X142411792Y-84846792D01*
X142428444Y-84833126D01*
X142447444Y-84822970D01*
X142468062Y-84816716D01*
X142495640Y-84814000D01*
X143004360Y-84814000D01*
X143031938Y-84816716D01*
X143031938Y-84816716D01*
G37*
G36*
X144131938Y-84816716D02*
X144152556Y-84822970D01*
X144171556Y-84833126D01*
X144188208Y-84846792D01*
X144201874Y-84863444D01*
X144212030Y-84882444D01*
X144218284Y-84903062D01*
X144221000Y-84930640D01*
X144221000Y-85389360D01*
X144218284Y-85416938D01*
X144212030Y-85437556D01*
X144201874Y-85456556D01*
X144188208Y-85473208D01*
X144171556Y-85486874D01*
X144152556Y-85497030D01*
X144131938Y-85503284D01*
X144104360Y-85506000D01*
X143595640Y-85506000D01*
X143568062Y-85503284D01*
X143547444Y-85497030D01*
X143528444Y-85486874D01*
X143511792Y-85473208D01*
X143498126Y-85456556D01*
X143487970Y-85437556D01*
X143481716Y-85416938D01*
X143479000Y-85389360D01*
X143479000Y-84930640D01*
X143481716Y-84903062D01*
X143487970Y-84882444D01*
X143498126Y-84863444D01*
X143511792Y-84846792D01*
X143528444Y-84833126D01*
X143547444Y-84822970D01*
X143568062Y-84816716D01*
X143595640Y-84814000D01*
X144104360Y-84814000D01*
X144131938Y-84816716D01*
X144131938Y-84816716D01*
G37*
G36*
X137356938Y-84741716D02*
X137377556Y-84747970D01*
X137396556Y-84758126D01*
X137413208Y-84771792D01*
X137426874Y-84788444D01*
X137437030Y-84807444D01*
X137443284Y-84828062D01*
X137446000Y-84855640D01*
X137446000Y-85314360D01*
X137443284Y-85341938D01*
X137437030Y-85362556D01*
X137426874Y-85381556D01*
X137413208Y-85398208D01*
X137396556Y-85411874D01*
X137377556Y-85422030D01*
X137356938Y-85428284D01*
X137329360Y-85431000D01*
X136820640Y-85431000D01*
X136793062Y-85428284D01*
X136772444Y-85422030D01*
X136753444Y-85411874D01*
X136736792Y-85398208D01*
X136723126Y-85381556D01*
X136712970Y-85362556D01*
X136706716Y-85341938D01*
X136704000Y-85314360D01*
X136704000Y-84855640D01*
X136706716Y-84828062D01*
X136712970Y-84807444D01*
X136723126Y-84788444D01*
X136736792Y-84771792D01*
X136753444Y-84758126D01*
X136772444Y-84747970D01*
X136793062Y-84741716D01*
X136820640Y-84739000D01*
X137329360Y-84739000D01*
X137356938Y-84741716D01*
X137356938Y-84741716D01*
G37*
G36*
X138481938Y-84741716D02*
X138502556Y-84747970D01*
X138521556Y-84758126D01*
X138538208Y-84771792D01*
X138551874Y-84788444D01*
X138562030Y-84807444D01*
X138568284Y-84828062D01*
X138571000Y-84855640D01*
X138571000Y-85314360D01*
X138568284Y-85341938D01*
X138562030Y-85362556D01*
X138551874Y-85381556D01*
X138538208Y-85398208D01*
X138521556Y-85411874D01*
X138502556Y-85422030D01*
X138481938Y-85428284D01*
X138454360Y-85431000D01*
X137945640Y-85431000D01*
X137918062Y-85428284D01*
X137897444Y-85422030D01*
X137878444Y-85411874D01*
X137861792Y-85398208D01*
X137848126Y-85381556D01*
X137837970Y-85362556D01*
X137831716Y-85341938D01*
X137829000Y-85314360D01*
X137829000Y-84855640D01*
X137831716Y-84828062D01*
X137837970Y-84807444D01*
X137848126Y-84788444D01*
X137861792Y-84771792D01*
X137878444Y-84758126D01*
X137897444Y-84747970D01*
X137918062Y-84741716D01*
X137945640Y-84739000D01*
X138454360Y-84739000D01*
X138481938Y-84741716D01*
X138481938Y-84741716D01*
G37*
G36*
X143031938Y-83846716D02*
X143052556Y-83852970D01*
X143071556Y-83863126D01*
X143088208Y-83876792D01*
X143101874Y-83893444D01*
X143112030Y-83912444D01*
X143118284Y-83933062D01*
X143121000Y-83960640D01*
X143121000Y-84419360D01*
X143118284Y-84446938D01*
X143112030Y-84467556D01*
X143101874Y-84486556D01*
X143088208Y-84503208D01*
X143071556Y-84516874D01*
X143052556Y-84527030D01*
X143031938Y-84533284D01*
X143004360Y-84536000D01*
X142495640Y-84536000D01*
X142468062Y-84533284D01*
X142447444Y-84527030D01*
X142428444Y-84516874D01*
X142411792Y-84503208D01*
X142398126Y-84486556D01*
X142387970Y-84467556D01*
X142381716Y-84446938D01*
X142379000Y-84419360D01*
X142379000Y-83960640D01*
X142381716Y-83933062D01*
X142387970Y-83912444D01*
X142398126Y-83893444D01*
X142411792Y-83876792D01*
X142428444Y-83863126D01*
X142447444Y-83852970D01*
X142468062Y-83846716D01*
X142495640Y-83844000D01*
X143004360Y-83844000D01*
X143031938Y-83846716D01*
X143031938Y-83846716D01*
G37*
G36*
X144131938Y-83846716D02*
X144152556Y-83852970D01*
X144171556Y-83863126D01*
X144188208Y-83876792D01*
X144201874Y-83893444D01*
X144212030Y-83912444D01*
X144218284Y-83933062D01*
X144221000Y-83960640D01*
X144221000Y-84419360D01*
X144218284Y-84446938D01*
X144212030Y-84467556D01*
X144201874Y-84486556D01*
X144188208Y-84503208D01*
X144171556Y-84516874D01*
X144152556Y-84527030D01*
X144131938Y-84533284D01*
X144104360Y-84536000D01*
X143595640Y-84536000D01*
X143568062Y-84533284D01*
X143547444Y-84527030D01*
X143528444Y-84516874D01*
X143511792Y-84503208D01*
X143498126Y-84486556D01*
X143487970Y-84467556D01*
X143481716Y-84446938D01*
X143479000Y-84419360D01*
X143479000Y-83960640D01*
X143481716Y-83933062D01*
X143487970Y-83912444D01*
X143498126Y-83893444D01*
X143511792Y-83876792D01*
X143528444Y-83863126D01*
X143547444Y-83852970D01*
X143568062Y-83846716D01*
X143595640Y-83844000D01*
X144104360Y-83844000D01*
X144131938Y-83846716D01*
X144131938Y-83846716D01*
G37*
G36*
X137356938Y-83771716D02*
X137377556Y-83777970D01*
X137396556Y-83788126D01*
X137413208Y-83801792D01*
X137426874Y-83818444D01*
X137437030Y-83837444D01*
X137443284Y-83858062D01*
X137446000Y-83885640D01*
X137446000Y-84344360D01*
X137443284Y-84371938D01*
X137437030Y-84392556D01*
X137426874Y-84411556D01*
X137413208Y-84428208D01*
X137396556Y-84441874D01*
X137377556Y-84452030D01*
X137356938Y-84458284D01*
X137329360Y-84461000D01*
X136820640Y-84461000D01*
X136793062Y-84458284D01*
X136772444Y-84452030D01*
X136753444Y-84441874D01*
X136736792Y-84428208D01*
X136723126Y-84411556D01*
X136712970Y-84392556D01*
X136706716Y-84371938D01*
X136704000Y-84344360D01*
X136704000Y-83885640D01*
X136706716Y-83858062D01*
X136712970Y-83837444D01*
X136723126Y-83818444D01*
X136736792Y-83801792D01*
X136753444Y-83788126D01*
X136772444Y-83777970D01*
X136793062Y-83771716D01*
X136820640Y-83769000D01*
X137329360Y-83769000D01*
X137356938Y-83771716D01*
X137356938Y-83771716D01*
G37*
G36*
X138481938Y-83771716D02*
X138502556Y-83777970D01*
X138521556Y-83788126D01*
X138538208Y-83801792D01*
X138551874Y-83818444D01*
X138562030Y-83837444D01*
X138568284Y-83858062D01*
X138571000Y-83885640D01*
X138571000Y-84344360D01*
X138568284Y-84371938D01*
X138562030Y-84392556D01*
X138551874Y-84411556D01*
X138538208Y-84428208D01*
X138521556Y-84441874D01*
X138502556Y-84452030D01*
X138481938Y-84458284D01*
X138454360Y-84461000D01*
X137945640Y-84461000D01*
X137918062Y-84458284D01*
X137897444Y-84452030D01*
X137878444Y-84441874D01*
X137861792Y-84428208D01*
X137848126Y-84411556D01*
X137837970Y-84392556D01*
X137831716Y-84371938D01*
X137829000Y-84344360D01*
X137829000Y-83885640D01*
X137831716Y-83858062D01*
X137837970Y-83837444D01*
X137848126Y-83818444D01*
X137861792Y-83801792D01*
X137878444Y-83788126D01*
X137897444Y-83777970D01*
X137918062Y-83771716D01*
X137945640Y-83769000D01*
X138454360Y-83769000D01*
X138481938Y-83771716D01*
X138481938Y-83771716D01*
G37*
G36*
X130081000Y-84326000D02*
X128919000Y-84326000D01*
X128919000Y-81674000D01*
X130081000Y-81674000D01*
X130081000Y-84326000D01*
X130081000Y-84326000D01*
G37*
G36*
X132281000Y-84326000D02*
X131119000Y-84326000D01*
X131119000Y-83574000D01*
X132281000Y-83574000D01*
X132281000Y-84326000D01*
X132281000Y-84326000D01*
G37*
G36*
X133481938Y-82641716D02*
X133502556Y-82647970D01*
X133521556Y-82658126D01*
X133538208Y-82671792D01*
X133551874Y-82688444D01*
X133562030Y-82707444D01*
X133568284Y-82728062D01*
X133571000Y-82755640D01*
X133571000Y-83214360D01*
X133568284Y-83241938D01*
X133562030Y-83262556D01*
X133551874Y-83281556D01*
X133538208Y-83298208D01*
X133521556Y-83311874D01*
X133502556Y-83322030D01*
X133481938Y-83328284D01*
X133454360Y-83331000D01*
X132945640Y-83331000D01*
X132918062Y-83328284D01*
X132897444Y-83322030D01*
X132878444Y-83311874D01*
X132861792Y-83298208D01*
X132848126Y-83281556D01*
X132837970Y-83262556D01*
X132831716Y-83241938D01*
X132829000Y-83214360D01*
X132829000Y-82755640D01*
X132831716Y-82728062D01*
X132837970Y-82707444D01*
X132848126Y-82688444D01*
X132861792Y-82671792D01*
X132878444Y-82658126D01*
X132897444Y-82647970D01*
X132918062Y-82641716D01*
X132945640Y-82639000D01*
X133454360Y-82639000D01*
X133481938Y-82641716D01*
X133481938Y-82641716D01*
G37*
G36*
X118201000Y-83001000D02*
X116399000Y-83001000D01*
X116399000Y-81199000D01*
X118201000Y-81199000D01*
X118201000Y-83001000D01*
X118201000Y-83001000D01*
G37*
G36*
X119950443Y-81205519D02*
X120016627Y-81212037D01*
X120129853Y-81246384D01*
X120186467Y-81263557D01*
X120325087Y-81337652D01*
X120342991Y-81347222D01*
X120378729Y-81376552D01*
X120480186Y-81459814D01*
X120563448Y-81561271D01*
X120592778Y-81597009D01*
X120592779Y-81597011D01*
X120676443Y-81753533D01*
X120676443Y-81753534D01*
X120727963Y-81923373D01*
X120745359Y-82100000D01*
X120727963Y-82276627D01*
X120702369Y-82361000D01*
X120676443Y-82446467D01*
X120602348Y-82585087D01*
X120592778Y-82602991D01*
X120575536Y-82624000D01*
X120480186Y-82740186D01*
X120392679Y-82812000D01*
X120342991Y-82852778D01*
X120342989Y-82852779D01*
X120186467Y-82936443D01*
X120129853Y-82953616D01*
X120016627Y-82987963D01*
X119950442Y-82994482D01*
X119884260Y-83001000D01*
X119795740Y-83001000D01*
X119729558Y-82994482D01*
X119663373Y-82987963D01*
X119550147Y-82953616D01*
X119493533Y-82936443D01*
X119337011Y-82852779D01*
X119337009Y-82852778D01*
X119287321Y-82812000D01*
X119199814Y-82740186D01*
X119104464Y-82624000D01*
X119087222Y-82602991D01*
X119077652Y-82585087D01*
X119003557Y-82446467D01*
X118977631Y-82361000D01*
X118952037Y-82276627D01*
X118934641Y-82100000D01*
X118952037Y-81923373D01*
X119003557Y-81753534D01*
X119003557Y-81753533D01*
X119087221Y-81597011D01*
X119087222Y-81597009D01*
X119116552Y-81561271D01*
X119199814Y-81459814D01*
X119301271Y-81376552D01*
X119337009Y-81347222D01*
X119354913Y-81337652D01*
X119493533Y-81263557D01*
X119550147Y-81246384D01*
X119663373Y-81212037D01*
X119729557Y-81205519D01*
X119795740Y-81199000D01*
X119884260Y-81199000D01*
X119950443Y-81205519D01*
X119950443Y-81205519D01*
G37*
G36*
X132281000Y-82426000D02*
X131119000Y-82426000D01*
X131119000Y-81674000D01*
X132281000Y-81674000D01*
X132281000Y-82426000D01*
X132281000Y-82426000D01*
G37*
G36*
X133481938Y-81671716D02*
X133502556Y-81677970D01*
X133521556Y-81688126D01*
X133538208Y-81701792D01*
X133551874Y-81718444D01*
X133562030Y-81737444D01*
X133568284Y-81758062D01*
X133571000Y-81785640D01*
X133571000Y-82244360D01*
X133568284Y-82271938D01*
X133562030Y-82292556D01*
X133551874Y-82311556D01*
X133538208Y-82328208D01*
X133521556Y-82341874D01*
X133502556Y-82352030D01*
X133481938Y-82358284D01*
X133454360Y-82361000D01*
X132945640Y-82361000D01*
X132918062Y-82358284D01*
X132897444Y-82352030D01*
X132878444Y-82341874D01*
X132861792Y-82328208D01*
X132848126Y-82311556D01*
X132837970Y-82292556D01*
X132831716Y-82271938D01*
X132829000Y-82244360D01*
X132829000Y-81785640D01*
X132831716Y-81758062D01*
X132837970Y-81737444D01*
X132848126Y-81718444D01*
X132861792Y-81701792D01*
X132878444Y-81688126D01*
X132897444Y-81677970D01*
X132918062Y-81671716D01*
X132945640Y-81669000D01*
X133454360Y-81669000D01*
X133481938Y-81671716D01*
X133481938Y-81671716D01*
G37*
G36*
X129741938Y-80031716D02*
X129762556Y-80037970D01*
X129781556Y-80048126D01*
X129798208Y-80061792D01*
X129811874Y-80078444D01*
X129822030Y-80097444D01*
X129828284Y-80118062D01*
X129831000Y-80145640D01*
X129831000Y-80654360D01*
X129828284Y-80681938D01*
X129822030Y-80702556D01*
X129811874Y-80721556D01*
X129798208Y-80738208D01*
X129781556Y-80751874D01*
X129762556Y-80762030D01*
X129741938Y-80768284D01*
X129714360Y-80771000D01*
X129255640Y-80771000D01*
X129228062Y-80768284D01*
X129207444Y-80762030D01*
X129188444Y-80751874D01*
X129171792Y-80738208D01*
X129158126Y-80721556D01*
X129147970Y-80702556D01*
X129141716Y-80681938D01*
X129139000Y-80654360D01*
X129139000Y-80145640D01*
X129141716Y-80118062D01*
X129147970Y-80097444D01*
X129158126Y-80078444D01*
X129171792Y-80061792D01*
X129188444Y-80048126D01*
X129207444Y-80037970D01*
X129228062Y-80031716D01*
X129255640Y-80029000D01*
X129714360Y-80029000D01*
X129741938Y-80031716D01*
X129741938Y-80031716D01*
G37*
G36*
X128771938Y-80031716D02*
X128792556Y-80037970D01*
X128811556Y-80048126D01*
X128828208Y-80061792D01*
X128841874Y-80078444D01*
X128852030Y-80097444D01*
X128858284Y-80118062D01*
X128861000Y-80145640D01*
X128861000Y-80654360D01*
X128858284Y-80681938D01*
X128852030Y-80702556D01*
X128841874Y-80721556D01*
X128828208Y-80738208D01*
X128811556Y-80751874D01*
X128792556Y-80762030D01*
X128771938Y-80768284D01*
X128744360Y-80771000D01*
X128285640Y-80771000D01*
X128258062Y-80768284D01*
X128237444Y-80762030D01*
X128218444Y-80751874D01*
X128201792Y-80738208D01*
X128188126Y-80721556D01*
X128177970Y-80702556D01*
X128171716Y-80681938D01*
X128169000Y-80654360D01*
X128169000Y-80145640D01*
X128171716Y-80118062D01*
X128177970Y-80097444D01*
X128188126Y-80078444D01*
X128201792Y-80061792D01*
X128218444Y-80048126D01*
X128237444Y-80037970D01*
X128258062Y-80031716D01*
X128285640Y-80029000D01*
X128744360Y-80029000D01*
X128771938Y-80031716D01*
X128771938Y-80031716D01*
G37*
G36*
X148634239Y-71811467D02*
X148948282Y-71873934D01*
X149539926Y-72119001D01*
X149829523Y-72312504D01*
X150072395Y-72474786D01*
X150525214Y-72927605D01*
X150525216Y-72927608D01*
X150880999Y-73460074D01*
X151126066Y-74051718D01*
X151126066Y-74051719D01*
X151251000Y-74679803D01*
X151251000Y-75320197D01*
X151188533Y-75634239D01*
X151126066Y-75948282D01*
X150880999Y-76539926D01*
X150633265Y-76910685D01*
X150525214Y-77072395D01*
X150072395Y-77525214D01*
X150072392Y-77525216D01*
X149539926Y-77880999D01*
X148948282Y-78126066D01*
X148634239Y-78188533D01*
X148320197Y-78251000D01*
X147679803Y-78251000D01*
X147365761Y-78188533D01*
X147051718Y-78126066D01*
X146460074Y-77880999D01*
X145927608Y-77525216D01*
X145927605Y-77525214D01*
X145474786Y-77072395D01*
X145366735Y-76910685D01*
X145119001Y-76539926D01*
X144873934Y-75948282D01*
X144811467Y-75634239D01*
X144749000Y-75320197D01*
X144749000Y-74679803D01*
X144873934Y-74051719D01*
X144873934Y-74051718D01*
X145119001Y-73460074D01*
X145474784Y-72927608D01*
X145474786Y-72927605D01*
X145927605Y-72474786D01*
X146170477Y-72312504D01*
X146460074Y-72119001D01*
X147051718Y-71873934D01*
X147365761Y-71811467D01*
X147679803Y-71749000D01*
X148320197Y-71749000D01*
X148634239Y-71811467D01*
X148634239Y-71811467D01*
G37*
G36*
X110634239Y-71811467D02*
X110948282Y-71873934D01*
X111539926Y-72119001D01*
X111829523Y-72312504D01*
X112072395Y-72474786D01*
X112525214Y-72927605D01*
X112525216Y-72927608D01*
X112880999Y-73460074D01*
X113126066Y-74051718D01*
X113126066Y-74051719D01*
X113251000Y-74679803D01*
X113251000Y-75320197D01*
X113188533Y-75634239D01*
X113126066Y-75948282D01*
X112880999Y-76539926D01*
X112633265Y-76910685D01*
X112525214Y-77072395D01*
X112072395Y-77525214D01*
X112072392Y-77525216D01*
X111539926Y-77880999D01*
X110948282Y-78126066D01*
X110634239Y-78188533D01*
X110320197Y-78251000D01*
X109679803Y-78251000D01*
X109365761Y-78188533D01*
X109051718Y-78126066D01*
X108460074Y-77880999D01*
X107927608Y-77525216D01*
X107927605Y-77525214D01*
X107474786Y-77072395D01*
X107366735Y-76910685D01*
X107119001Y-76539926D01*
X106873934Y-75948282D01*
X106811467Y-75634239D01*
X106749000Y-75320197D01*
X106749000Y-74679803D01*
X106873934Y-74051719D01*
X106873934Y-74051718D01*
X107119001Y-73460074D01*
X107474784Y-72927608D01*
X107474786Y-72927605D01*
X107927605Y-72474786D01*
X108170477Y-72312504D01*
X108460074Y-72119001D01*
X109051718Y-71873934D01*
X109365761Y-71811467D01*
X109679803Y-71749000D01*
X110320197Y-71749000D01*
X110634239Y-71811467D01*
X110634239Y-71811467D01*
G37*
G36*
X126826000Y-73173896D02*
X126828402Y-73198282D01*
X126835515Y-73221731D01*
X126847066Y-73243342D01*
X126862612Y-73262284D01*
X126881554Y-73277830D01*
X126903165Y-73289381D01*
X126926614Y-73296494D01*
X126951000Y-73298896D01*
X126975386Y-73296494D01*
X126998835Y-73289381D01*
X127020446Y-73277830D01*
X127033740Y-73268947D01*
X127097617Y-73242489D01*
X127165430Y-73229000D01*
X127234570Y-73229000D01*
X127302383Y-73242489D01*
X127366261Y-73268948D01*
X127423750Y-73307361D01*
X127478777Y-73362388D01*
X127497719Y-73377934D01*
X127519330Y-73389485D01*
X127542779Y-73396598D01*
X127567165Y-73399000D01*
X130832835Y-73399000D01*
X130857221Y-73396598D01*
X130880670Y-73389485D01*
X130902281Y-73377934D01*
X130921223Y-73362388D01*
X130976250Y-73307361D01*
X131033739Y-73268948D01*
X131097617Y-73242489D01*
X131165430Y-73229000D01*
X131234570Y-73229000D01*
X131302383Y-73242489D01*
X131366260Y-73268947D01*
X131379554Y-73277830D01*
X131401165Y-73289381D01*
X131424615Y-73296494D01*
X131449001Y-73298896D01*
X131473387Y-73296494D01*
X131496836Y-73289381D01*
X131518447Y-73277829D01*
X131537389Y-73262284D01*
X131552934Y-73243342D01*
X131564485Y-73221731D01*
X131571598Y-73198281D01*
X131574000Y-73173896D01*
X131574000Y-73149000D01*
X133026000Y-73149000D01*
X133026000Y-74251000D01*
X131574000Y-74251000D01*
X131574000Y-73986104D01*
X131571598Y-73961718D01*
X131564485Y-73938269D01*
X131552934Y-73916658D01*
X131537388Y-73897716D01*
X131518446Y-73882170D01*
X131496835Y-73870619D01*
X131473386Y-73863506D01*
X131449000Y-73861104D01*
X131424614Y-73863506D01*
X131401165Y-73870619D01*
X131379554Y-73882170D01*
X131366260Y-73891053D01*
X131302383Y-73917511D01*
X131234570Y-73931000D01*
X131165430Y-73931000D01*
X131097617Y-73917511D01*
X131033739Y-73891052D01*
X130976250Y-73852639D01*
X130964388Y-73840777D01*
X130945446Y-73825231D01*
X130923835Y-73813680D01*
X130900386Y-73806567D01*
X130876000Y-73804165D01*
X130851614Y-73806567D01*
X130828165Y-73813680D01*
X130806554Y-73825231D01*
X130787612Y-73840777D01*
X130772066Y-73859719D01*
X130760515Y-73881330D01*
X130753402Y-73904779D01*
X130751000Y-73929165D01*
X130751000Y-74851000D01*
X127649000Y-74851000D01*
X127649000Y-73929165D01*
X127646598Y-73904779D01*
X127639485Y-73881330D01*
X127627934Y-73859719D01*
X127612388Y-73840777D01*
X127593446Y-73825231D01*
X127571835Y-73813680D01*
X127548386Y-73806567D01*
X127524000Y-73804165D01*
X127499614Y-73806567D01*
X127476165Y-73813680D01*
X127454554Y-73825231D01*
X127435612Y-73840777D01*
X127423750Y-73852639D01*
X127407486Y-73863506D01*
X127366261Y-73891052D01*
X127302383Y-73917511D01*
X127234570Y-73931000D01*
X127165430Y-73931000D01*
X127097617Y-73917511D01*
X127095558Y-73916658D01*
X127033740Y-73891053D01*
X127020446Y-73882170D01*
X126998835Y-73870619D01*
X126975385Y-73863506D01*
X126950999Y-73861104D01*
X126926613Y-73863506D01*
X126903164Y-73870619D01*
X126881553Y-73882171D01*
X126862611Y-73897716D01*
X126847066Y-73916658D01*
X126835515Y-73938269D01*
X126828402Y-73961719D01*
X126826000Y-73986104D01*
X126826000Y-74251000D01*
X125374000Y-74251000D01*
X125374000Y-73149000D01*
X126826000Y-73149000D01*
X126826000Y-73173896D01*
X126826000Y-73173896D01*
G37*
G36*
X126251000Y-72451000D02*
X124249000Y-72451000D01*
X124249000Y-70449000D01*
X126251000Y-70449000D01*
X126251000Y-72451000D01*
X126251000Y-72451000D01*
G37*
G36*
X134151000Y-72451000D02*
X132149000Y-72451000D01*
X132149000Y-70449000D01*
X134151000Y-70449000D01*
X134151000Y-72451000D01*
X134151000Y-72451000D01*
G37*
G36*
X131351000Y-72451000D02*
X129349000Y-72451000D01*
X129349000Y-70449000D01*
X131351000Y-70449000D01*
X131351000Y-72451000D01*
X131351000Y-72451000D01*
G37*
G36*
X129051000Y-72451000D02*
X127049000Y-72451000D01*
X127049000Y-70449000D01*
X129051000Y-70449000D01*
X129051000Y-72451000D01*
X129051000Y-72451000D01*
G37*
M02*
