G04 #@! TF.GenerationSoftware,KiCad,Pcbnew,(5.0.2)-1*
G04 #@! TF.CreationDate,2019-01-06T11:55:21+11:00*
G04 #@! TF.ProjectId,Gain_Block_Dev_Rev_0,4761696e-5f42-46c6-9f63-6b5f4465765f,rev?*
G04 #@! TF.SameCoordinates,Original*
G04 #@! TF.FileFunction,Copper,L3,Inr*
G04 #@! TF.FilePolarity,Positive*
%FSLAX46Y46*%
G04 Gerber Fmt 4.6, Leading zero omitted, Abs format (unit mm)*
G04 Created by KiCad (PCBNEW (5.0.2)-1) date 6/01/2019 11:55:21*
%MOMM*%
%LPD*%
G01*
G04 APERTURE LIST*
%ADD10C,0.200000*%
G04 #@! TA.AperFunction,ViaPad*
%ADD11C,0.500000*%
G04 #@! TD*
G04 #@! TA.AperFunction,ViaPad*
%ADD12R,1.600000X1.600000*%
G04 #@! TD*
G04 #@! TA.AperFunction,ViaPad*
%ADD13O,1.600000X1.600000*%
G04 #@! TD*
G04 #@! TA.AperFunction,ViaPad*
%ADD14C,0.800000*%
G04 #@! TD*
G04 #@! TA.AperFunction,ViaPad*
%ADD15C,6.400000*%
G04 #@! TD*
G04 #@! TA.AperFunction,ViaPad*
%ADD16R,1.700000X1.700000*%
G04 #@! TD*
G04 #@! TA.AperFunction,ViaPad*
%ADD17O,1.700000X1.700000*%
G04 #@! TD*
G04 #@! TA.AperFunction,ViaPad*
%ADD18C,0.450000*%
G04 #@! TD*
G04 #@! TA.AperFunction,Conductor*
%ADD19C,0.254000*%
G04 #@! TD*
G04 APERTURE END LIST*
G04 #@! TO.C,REF\002A\002A*
D10*
X111200000Y-106078571D02*
X112128571Y-106078571D01*
X111628571Y-106650000D01*
X111842857Y-106650000D01*
X111985714Y-106721428D01*
X112057142Y-106792857D01*
X112128571Y-106935714D01*
X112128571Y-107292857D01*
X112057142Y-107435714D01*
X111985714Y-107507142D01*
X111842857Y-107578571D01*
X111414285Y-107578571D01*
X111271428Y-107507142D01*
X111200000Y-107435714D01*
G04 #@! TD*
D11*
G04 #@! TO.N,GND*
G04 #@! TO.C,U1*
X115800000Y-93300000D03*
X116900000Y-93300000D03*
X118000000Y-93300000D03*
X115800000Y-94350000D03*
X116900000Y-94350000D03*
X118000000Y-94350000D03*
X115800000Y-95400000D03*
X116900000Y-95400000D03*
X118000000Y-95400000D03*
G04 #@! TD*
D12*
G04 #@! TO.N,/nP_S*
G04 #@! TO.C,SW1*
X138480000Y-107455000D03*
D13*
G04 #@! TO.N,+3.3VA*
X120700000Y-115375000D03*
G04 #@! TO.N,Net-(R7-Pad1)*
X135940000Y-107455000D03*
G04 #@! TO.N,+3.3VA*
X123240000Y-115375000D03*
G04 #@! TO.N,Net-(R6-Pad1)*
X133400000Y-107455000D03*
G04 #@! TO.N,+3.3VA*
X125780000Y-115375000D03*
G04 #@! TO.N,Net-(R5-Pad1)*
X130860000Y-107455000D03*
G04 #@! TO.N,+3.3VA*
X128320000Y-115375000D03*
G04 #@! TO.N,Net-(R4-Pad1)*
X128320000Y-107455000D03*
G04 #@! TO.N,+3.3VA*
X130860000Y-115375000D03*
G04 #@! TO.N,Net-(R3-Pad1)*
X125780000Y-107455000D03*
G04 #@! TO.N,+3.3VA*
X133400000Y-115375000D03*
G04 #@! TO.N,Net-(R2-Pad1)*
X123240000Y-107455000D03*
G04 #@! TO.N,+3.3VA*
X135940000Y-115375000D03*
G04 #@! TO.N,Net-(R1-Pad1)*
X120700000Y-107455000D03*
G04 #@! TO.N,+3.3VA*
X138480000Y-115375000D03*
G04 #@! TD*
D14*
G04 #@! TO.N,GND*
G04 #@! TO.C,H1*
X111697056Y-73302944D03*
X110000000Y-72600000D03*
X108302944Y-73302944D03*
X107600000Y-75000000D03*
X108302944Y-76697056D03*
X110000000Y-77400000D03*
X111697056Y-76697056D03*
X112400000Y-75000000D03*
D15*
X110000000Y-75000000D03*
G04 #@! TD*
G04 #@! TO.N,GND*
G04 #@! TO.C,H2*
X148000000Y-113000000D03*
D14*
X150400000Y-113000000D03*
X149697056Y-114697056D03*
X148000000Y-115400000D03*
X146302944Y-114697056D03*
X145600000Y-113000000D03*
X146302944Y-111302944D03*
X148000000Y-110600000D03*
X149697056Y-111302944D03*
G04 #@! TD*
D15*
G04 #@! TO.N,GND*
G04 #@! TO.C,H3*
X110000000Y-113000000D03*
D14*
X112400000Y-113000000D03*
X111697056Y-114697056D03*
X110000000Y-115400000D03*
X108302944Y-114697056D03*
X107600000Y-113000000D03*
X108302944Y-111302944D03*
X110000000Y-110600000D03*
X111697056Y-111302944D03*
G04 #@! TD*
G04 #@! TO.N,GND*
G04 #@! TO.C,H4*
X149697056Y-73302944D03*
X148000000Y-72600000D03*
X146302944Y-73302944D03*
X145600000Y-75000000D03*
X146302944Y-76697056D03*
X148000000Y-77400000D03*
X149697056Y-76697056D03*
X150400000Y-75000000D03*
D15*
X148000000Y-75000000D03*
G04 #@! TD*
D16*
G04 #@! TO.N,/SI*
G04 #@! TO.C,J3*
X117300000Y-82100000D03*
D17*
G04 #@! TO.N,+5V*
X119840000Y-82100000D03*
G04 #@! TO.N,/LE*
X117300000Y-84640000D03*
G04 #@! TO.N,GND*
X119840000Y-84640000D03*
G04 #@! TO.N,/CLK*
X117300000Y-87180000D03*
G04 #@! TO.N,/RF_PWR*
X119840000Y-87180000D03*
G04 #@! TD*
D18*
G04 #@! TO.N,GND*
X108700000Y-91800000D03*
X108200000Y-91800000D03*
X107700000Y-91800000D03*
X107200000Y-91800000D03*
X106700000Y-91800000D03*
X106200000Y-91800000D03*
X105700000Y-91800000D03*
X105200000Y-91800000D03*
X126100000Y-73700000D03*
X132300000Y-73700000D03*
X133150000Y-71450000D03*
X130350000Y-71450000D03*
X128050000Y-71450000D03*
X125250000Y-71450000D03*
X113400000Y-91950000D03*
X112350000Y-91950000D03*
D14*
X123275000Y-96325000D03*
X125175000Y-96325000D03*
D18*
X142300000Y-86525000D03*
D14*
X140375000Y-84325000D03*
X140375000Y-88150000D03*
X133200000Y-83800000D03*
D18*
X146085000Y-86500000D03*
X142750000Y-83600000D03*
X143850000Y-83600000D03*
X137750000Y-89550000D03*
X136700000Y-89550000D03*
X135700000Y-89550000D03*
X134150000Y-89550000D03*
X138250000Y-91350000D03*
X141500000Y-91300000D03*
X124250000Y-94150000D03*
X128750000Y-91550000D03*
D14*
X130600000Y-83000000D03*
D18*
X107200000Y-98400000D03*
X105700000Y-98400000D03*
X106200000Y-98400000D03*
X107700000Y-98400000D03*
X108200000Y-98400000D03*
X106700000Y-98400000D03*
X108700000Y-98400000D03*
X105200000Y-98400000D03*
X151100000Y-98400000D03*
X150100000Y-98400000D03*
X150600000Y-98400000D03*
X152600000Y-98400000D03*
X149100000Y-98400000D03*
X151600000Y-98400000D03*
X152100000Y-98400000D03*
X149600000Y-98400000D03*
X150600000Y-91800000D03*
X152600000Y-91800000D03*
X149600000Y-91800000D03*
X149100000Y-91800000D03*
X152100000Y-91800000D03*
X151100000Y-91800000D03*
X150100000Y-91800000D03*
X151600000Y-91800000D03*
D14*
X127700000Y-80400000D03*
X127900000Y-75800000D03*
D18*
X110200000Y-94100000D03*
X110200000Y-94100000D03*
X110200000Y-94100000D03*
X110700000Y-94100000D03*
X109700000Y-94100000D03*
X109200000Y-94100000D03*
X109400000Y-96000000D03*
X109900000Y-96000000D03*
X110400000Y-96000000D03*
X110900000Y-96000000D03*
X111400000Y-96000000D03*
X111900000Y-96000000D03*
X112400000Y-96000000D03*
X112900000Y-96000000D03*
X119900000Y-96000000D03*
X120400000Y-96000000D03*
X120900000Y-96000000D03*
X121400000Y-96000000D03*
X121900000Y-96000000D03*
X122400000Y-96000000D03*
X122700000Y-94100000D03*
X122200000Y-94300000D03*
X121700000Y-94200000D03*
X121200000Y-94200000D03*
X123200000Y-94000000D03*
X123700000Y-94000000D03*
X124800000Y-94000000D03*
X125300000Y-94000000D03*
X125800000Y-94000000D03*
X126300000Y-94300000D03*
X126100000Y-96000000D03*
X127500000Y-96000000D03*
X128000000Y-96000000D03*
X128500000Y-96000000D03*
X129000000Y-96100000D03*
X129800000Y-94100000D03*
X130300000Y-94100000D03*
X130800000Y-94200000D03*
X131300000Y-94300000D03*
X131800000Y-94300000D03*
X132300000Y-94200000D03*
X132800000Y-94100000D03*
X133300000Y-94100000D03*
X133800000Y-94100000D03*
X134300000Y-93700000D03*
X134800000Y-93300000D03*
X135300000Y-92800000D03*
X135800000Y-92500000D03*
X136300000Y-92200000D03*
X136800000Y-92200000D03*
X137300000Y-92200000D03*
X136000000Y-95200000D03*
X136500000Y-94700000D03*
X137100000Y-94300000D03*
X137700000Y-94300000D03*
X136600000Y-94100000D03*
X136000000Y-94700000D03*
X137200000Y-93800000D03*
X137800000Y-93800000D03*
X138300000Y-94100000D03*
X138800000Y-94100000D03*
X139300000Y-94100000D03*
X139800000Y-94100000D03*
X140300000Y-94100000D03*
X140800000Y-94100000D03*
X141300000Y-94100000D03*
X142300000Y-94100000D03*
X142800000Y-94100000D03*
X141800000Y-94100000D03*
X143800000Y-94100000D03*
X143300000Y-94100000D03*
X144800000Y-94100000D03*
X144300000Y-94100000D03*
X145800000Y-94100000D03*
X145300000Y-94100000D03*
X147800000Y-94100000D03*
X147300000Y-94100000D03*
X148300000Y-94100000D03*
X146800000Y-94100000D03*
X146300000Y-94100000D03*
X138800000Y-96000000D03*
X139300000Y-96000000D03*
X138300000Y-96000000D03*
X147800000Y-96000000D03*
X142300000Y-96000000D03*
X141800000Y-96000000D03*
X144300000Y-96000000D03*
X140300000Y-96000000D03*
X143800000Y-96000000D03*
X145800000Y-96000000D03*
X144800000Y-96000000D03*
X143300000Y-96000000D03*
X142800000Y-96000000D03*
X139800000Y-96000000D03*
X146800000Y-96000000D03*
X145300000Y-96000000D03*
X141300000Y-96000000D03*
X146300000Y-96000000D03*
X147300000Y-96000000D03*
X148300000Y-96000000D03*
X140800000Y-96000000D03*
X137800000Y-96000000D03*
X137800000Y-96000000D03*
X137800000Y-96000000D03*
X137300000Y-96400000D03*
X136900000Y-96900000D03*
X136600000Y-97400000D03*
X136100000Y-97700000D03*
X135500000Y-97600000D03*
X135000000Y-97300000D03*
X134600000Y-96800000D03*
X134600000Y-96800000D03*
X134600000Y-96800000D03*
X134200000Y-96300000D03*
X133700000Y-96200000D03*
X133200000Y-96200000D03*
X132700000Y-96200000D03*
X132200000Y-96000000D03*
X131700000Y-96000000D03*
X146100000Y-88500000D03*
X146100000Y-90500000D03*
X146100000Y-89500000D03*
X146100000Y-91000000D03*
X146100000Y-90000000D03*
X146100000Y-89000000D03*
X146100000Y-88000000D03*
X144200000Y-88200000D03*
X144200000Y-88700000D03*
X144200000Y-89200000D03*
X144200000Y-90200000D03*
X144200000Y-90700000D03*
X144200000Y-89700000D03*
X143800000Y-91200000D03*
X143400000Y-91700000D03*
X142800000Y-92000000D03*
X142200000Y-92100000D03*
X140700000Y-92000000D03*
X140200000Y-92000000D03*
X139700000Y-92000000D03*
X139700000Y-92000000D03*
X139700000Y-92000000D03*
X139200000Y-92000000D03*
X146000000Y-91500000D03*
X145500000Y-92000000D03*
X145000000Y-92500000D03*
X144500000Y-93000000D03*
X144000000Y-93400000D03*
X143600000Y-88300000D03*
X143000000Y-88300000D03*
X142500000Y-88200000D03*
X141900000Y-88100000D03*
X141300000Y-88100000D03*
X115000000Y-72500000D03*
X120000000Y-72500000D03*
X117500000Y-75000000D03*
X117500000Y-80000000D03*
X115000000Y-77500000D03*
X120000000Y-77500000D03*
X112500000Y-80000000D03*
X110000000Y-82500000D03*
X107500000Y-85000000D03*
X110000000Y-87500000D03*
X107500000Y-90000000D03*
X112500000Y-85000000D03*
X115000000Y-82500000D03*
X122500000Y-75000000D03*
X122500000Y-80000000D03*
X125000000Y-82500000D03*
X122500000Y-90000000D03*
X122500000Y-85000000D03*
X135000000Y-75000000D03*
X140000000Y-75000000D03*
X137500000Y-72500000D03*
X142500000Y-72500000D03*
X142500000Y-77500000D03*
X137500000Y-77500000D03*
X135000000Y-80000000D03*
X140000000Y-80000000D03*
X145000000Y-80000000D03*
X150000000Y-80000000D03*
X147500000Y-82500000D03*
X150000000Y-85000000D03*
X145000000Y-85000000D03*
X147500000Y-87500000D03*
X147500000Y-92500000D03*
X150000000Y-90000000D03*
X147500000Y-97500000D03*
X147500000Y-102500000D03*
X147500000Y-107500000D03*
X150000000Y-105000000D03*
X150000000Y-100000000D03*
X145000000Y-100000000D03*
X145000000Y-105000000D03*
X145000000Y-110000000D03*
X142500000Y-107500000D03*
X142500000Y-102500000D03*
X142500000Y-97500000D03*
X140000000Y-100000000D03*
X140000000Y-105000000D03*
X110000000Y-92500000D03*
X110000000Y-97500000D03*
X107500000Y-100000000D03*
X112500000Y-100000000D03*
X115000000Y-102500000D03*
X117500000Y-105000000D03*
X115000000Y-107500000D03*
X112500000Y-110000000D03*
X110000000Y-105000000D03*
X107500000Y-102500000D03*
X107500000Y-107500000D03*
X115000000Y-112500000D03*
X117500000Y-115000000D03*
X117500000Y-110000000D03*
X122500000Y-100000000D03*
X120000000Y-97500000D03*
X127500000Y-100000000D03*
X142500000Y-112500000D03*
X125000000Y-77500000D03*
G04 #@! TO.N,+3.3VA*
X112350000Y-94200000D03*
X111700000Y-93600000D03*
X134950000Y-87900000D03*
D14*
X134100000Y-82000000D03*
X133200000Y-81200000D03*
D18*
G04 #@! TO.N,/RF_PWR*
X136250000Y-84100000D03*
G04 #@! TO.N,Net-(R1-Pad1)*
X114174990Y-92550000D03*
X119300000Y-103700000D03*
G04 #@! TO.N,Net-(R2-Pad1)*
X115551468Y-91194117D03*
X121950056Y-103850000D03*
G04 #@! TO.N,Net-(R3-Pad1)*
X116125000Y-91500000D03*
X124500000Y-103937514D03*
G04 #@! TO.N,Net-(R4-Pad1)*
X127000000Y-103800000D03*
X116650000Y-91013449D03*
G04 #@! TO.N,Net-(R5-Pad1)*
X129600000Y-103900000D03*
X117175010Y-91400000D03*
G04 #@! TO.N,Net-(R6-Pad1)*
X132200000Y-104000000D03*
X117625000Y-90906053D03*
G04 #@! TO.N,Net-(R7-Pad1)*
X134650000Y-103900000D03*
X118150000Y-90500000D03*
G04 #@! TO.N,/nP_S*
X113649990Y-94500000D03*
X137200000Y-103950000D03*
G04 #@! TD*
D19*
G04 #@! TO.N,+3.3VA*
G36*
X124762849Y-70720928D02*
X124520928Y-70962849D01*
X124390000Y-71278935D01*
X124390000Y-71621065D01*
X124520928Y-71937151D01*
X124762849Y-72179072D01*
X125078935Y-72310000D01*
X125421065Y-72310000D01*
X125737151Y-72179072D01*
X125979072Y-71937151D01*
X126110000Y-71621065D01*
X126110000Y-71278935D01*
X125979072Y-70962849D01*
X125737151Y-70720928D01*
X125710769Y-70710000D01*
X127589231Y-70710000D01*
X127562849Y-70720928D01*
X127320928Y-70962849D01*
X127190000Y-71278935D01*
X127190000Y-71621065D01*
X127320928Y-71937151D01*
X127562849Y-72179072D01*
X127878935Y-72310000D01*
X128221065Y-72310000D01*
X128537151Y-72179072D01*
X128779072Y-71937151D01*
X128910000Y-71621065D01*
X128910000Y-71278935D01*
X128779072Y-70962849D01*
X128537151Y-70720928D01*
X128510769Y-70710000D01*
X129889231Y-70710000D01*
X129862849Y-70720928D01*
X129620928Y-70962849D01*
X129490000Y-71278935D01*
X129490000Y-71621065D01*
X129620928Y-71937151D01*
X129862849Y-72179072D01*
X130178935Y-72310000D01*
X130521065Y-72310000D01*
X130837151Y-72179072D01*
X131079072Y-71937151D01*
X131210000Y-71621065D01*
X131210000Y-71278935D01*
X131079072Y-70962849D01*
X130837151Y-70720928D01*
X130810769Y-70710000D01*
X132689231Y-70710000D01*
X132662849Y-70720928D01*
X132420928Y-70962849D01*
X132290000Y-71278935D01*
X132290000Y-71621065D01*
X132420928Y-71937151D01*
X132662849Y-72179072D01*
X132978935Y-72310000D01*
X133321065Y-72310000D01*
X133637151Y-72179072D01*
X133879072Y-71937151D01*
X134010000Y-71621065D01*
X134010000Y-71278935D01*
X133879072Y-70962849D01*
X133637151Y-70720928D01*
X133610769Y-70710000D01*
X147968382Y-70710000D01*
X148759192Y-70780578D01*
X149494389Y-70981705D01*
X150182351Y-71309846D01*
X150801331Y-71754628D01*
X151331761Y-72301988D01*
X151756884Y-72934639D01*
X152063251Y-73632561D01*
X152242499Y-74379183D01*
X152290000Y-75026030D01*
X152290000Y-90947843D01*
X152271065Y-90940000D01*
X151928935Y-90940000D01*
X151850000Y-90972696D01*
X151771065Y-90940000D01*
X151428935Y-90940000D01*
X151350000Y-90972696D01*
X151271065Y-90940000D01*
X150928935Y-90940000D01*
X150850000Y-90972696D01*
X150771065Y-90940000D01*
X150428935Y-90940000D01*
X150350000Y-90972696D01*
X150271065Y-90940000D01*
X149928935Y-90940000D01*
X149850000Y-90972696D01*
X149771065Y-90940000D01*
X149428935Y-90940000D01*
X149350000Y-90972696D01*
X149271065Y-90940000D01*
X148928935Y-90940000D01*
X148612849Y-91070928D01*
X148370928Y-91312849D01*
X148240000Y-91628935D01*
X148240000Y-91971065D01*
X148370928Y-92287151D01*
X148612849Y-92529072D01*
X148928935Y-92660000D01*
X149271065Y-92660000D01*
X149350000Y-92627304D01*
X149428935Y-92660000D01*
X149771065Y-92660000D01*
X149850000Y-92627304D01*
X149928935Y-92660000D01*
X150271065Y-92660000D01*
X150350000Y-92627304D01*
X150428935Y-92660000D01*
X150771065Y-92660000D01*
X150850000Y-92627304D01*
X150928935Y-92660000D01*
X151271065Y-92660000D01*
X151350000Y-92627304D01*
X151428935Y-92660000D01*
X151771065Y-92660000D01*
X151850000Y-92627304D01*
X151928935Y-92660000D01*
X152271065Y-92660000D01*
X152290000Y-92652157D01*
X152290001Y-97547843D01*
X152271065Y-97540000D01*
X151928935Y-97540000D01*
X151850000Y-97572696D01*
X151771065Y-97540000D01*
X151428935Y-97540000D01*
X151350000Y-97572696D01*
X151271065Y-97540000D01*
X150928935Y-97540000D01*
X150850000Y-97572696D01*
X150771065Y-97540000D01*
X150428935Y-97540000D01*
X150350000Y-97572696D01*
X150271065Y-97540000D01*
X149928935Y-97540000D01*
X149850000Y-97572696D01*
X149771065Y-97540000D01*
X149428935Y-97540000D01*
X149350000Y-97572696D01*
X149271065Y-97540000D01*
X148928935Y-97540000D01*
X148612849Y-97670928D01*
X148370928Y-97912849D01*
X148240000Y-98228935D01*
X148240000Y-98571065D01*
X148370928Y-98887151D01*
X148612849Y-99129072D01*
X148928935Y-99260000D01*
X149271065Y-99260000D01*
X149350000Y-99227304D01*
X149428935Y-99260000D01*
X149539231Y-99260000D01*
X149512849Y-99270928D01*
X149270928Y-99512849D01*
X149140000Y-99828935D01*
X149140000Y-100171065D01*
X149270928Y-100487151D01*
X149512849Y-100729072D01*
X149828935Y-100860000D01*
X150171065Y-100860000D01*
X150487151Y-100729072D01*
X150729072Y-100487151D01*
X150860000Y-100171065D01*
X150860000Y-99828935D01*
X150729072Y-99512849D01*
X150487151Y-99270928D01*
X150460769Y-99260000D01*
X150771065Y-99260000D01*
X150850000Y-99227304D01*
X150928935Y-99260000D01*
X151271065Y-99260000D01*
X151350000Y-99227304D01*
X151428935Y-99260000D01*
X151771065Y-99260000D01*
X151850000Y-99227304D01*
X151928935Y-99260000D01*
X152271065Y-99260000D01*
X152290001Y-99252157D01*
X152290001Y-112968370D01*
X152219422Y-113759193D01*
X152018295Y-114494389D01*
X151690152Y-115182355D01*
X151245374Y-115801328D01*
X150698012Y-116331761D01*
X150065362Y-116756883D01*
X149367439Y-117063251D01*
X148620819Y-117242499D01*
X147973970Y-117290000D01*
X110031618Y-117290000D01*
X109240807Y-117219422D01*
X108505611Y-117018295D01*
X107817645Y-116690152D01*
X107198672Y-116245374D01*
X106668239Y-115698012D01*
X106243117Y-115065362D01*
X105936749Y-114367439D01*
X105757501Y-113620819D01*
X105710000Y-112973970D01*
X105710000Y-112237171D01*
X106165000Y-112237171D01*
X106165000Y-113762829D01*
X106748844Y-115172353D01*
X107827647Y-116251156D01*
X109237171Y-116835000D01*
X110762829Y-116835000D01*
X112172353Y-116251156D01*
X113251156Y-115172353D01*
X113393404Y-114828935D01*
X116640000Y-114828935D01*
X116640000Y-115171065D01*
X116770928Y-115487151D01*
X117012849Y-115729072D01*
X117328935Y-115860000D01*
X117671065Y-115860000D01*
X117987151Y-115729072D01*
X117992182Y-115724041D01*
X119308086Y-115724041D01*
X119547611Y-116230134D01*
X119962577Y-116606041D01*
X120350961Y-116766904D01*
X120573000Y-116644915D01*
X120573000Y-115502000D01*
X120827000Y-115502000D01*
X120827000Y-116644915D01*
X121049039Y-116766904D01*
X121437423Y-116606041D01*
X121852389Y-116230134D01*
X121970000Y-115981633D01*
X122087611Y-116230134D01*
X122502577Y-116606041D01*
X122890961Y-116766904D01*
X123113000Y-116644915D01*
X123113000Y-115502000D01*
X123367000Y-115502000D01*
X123367000Y-116644915D01*
X123589039Y-116766904D01*
X123977423Y-116606041D01*
X124392389Y-116230134D01*
X124510000Y-115981633D01*
X124627611Y-116230134D01*
X125042577Y-116606041D01*
X125430961Y-116766904D01*
X125653000Y-116644915D01*
X125653000Y-115502000D01*
X125907000Y-115502000D01*
X125907000Y-116644915D01*
X126129039Y-116766904D01*
X126517423Y-116606041D01*
X126932389Y-116230134D01*
X127050000Y-115981633D01*
X127167611Y-116230134D01*
X127582577Y-116606041D01*
X127970961Y-116766904D01*
X128193000Y-116644915D01*
X128193000Y-115502000D01*
X128447000Y-115502000D01*
X128447000Y-116644915D01*
X128669039Y-116766904D01*
X129057423Y-116606041D01*
X129472389Y-116230134D01*
X129590000Y-115981633D01*
X129707611Y-116230134D01*
X130122577Y-116606041D01*
X130510961Y-116766904D01*
X130733000Y-116644915D01*
X130733000Y-115502000D01*
X130987000Y-115502000D01*
X130987000Y-116644915D01*
X131209039Y-116766904D01*
X131597423Y-116606041D01*
X132012389Y-116230134D01*
X132130000Y-115981633D01*
X132247611Y-116230134D01*
X132662577Y-116606041D01*
X133050961Y-116766904D01*
X133273000Y-116644915D01*
X133273000Y-115502000D01*
X133527000Y-115502000D01*
X133527000Y-116644915D01*
X133749039Y-116766904D01*
X134137423Y-116606041D01*
X134552389Y-116230134D01*
X134670000Y-115981633D01*
X134787611Y-116230134D01*
X135202577Y-116606041D01*
X135590961Y-116766904D01*
X135813000Y-116644915D01*
X135813000Y-115502000D01*
X136067000Y-115502000D01*
X136067000Y-116644915D01*
X136289039Y-116766904D01*
X136677423Y-116606041D01*
X137092389Y-116230134D01*
X137210000Y-115981633D01*
X137327611Y-116230134D01*
X137742577Y-116606041D01*
X138130961Y-116766904D01*
X138353000Y-116644915D01*
X138353000Y-115502000D01*
X138607000Y-115502000D01*
X138607000Y-116644915D01*
X138829039Y-116766904D01*
X139217423Y-116606041D01*
X139632389Y-116230134D01*
X139871914Y-115724041D01*
X139750629Y-115502000D01*
X138607000Y-115502000D01*
X138353000Y-115502000D01*
X136067000Y-115502000D01*
X135813000Y-115502000D01*
X133527000Y-115502000D01*
X133273000Y-115502000D01*
X130987000Y-115502000D01*
X130733000Y-115502000D01*
X128447000Y-115502000D01*
X128193000Y-115502000D01*
X125907000Y-115502000D01*
X125653000Y-115502000D01*
X123367000Y-115502000D01*
X123113000Y-115502000D01*
X120827000Y-115502000D01*
X120573000Y-115502000D01*
X119429371Y-115502000D01*
X119308086Y-115724041D01*
X117992182Y-115724041D01*
X118229072Y-115487151D01*
X118360000Y-115171065D01*
X118360000Y-115025959D01*
X119308086Y-115025959D01*
X119429371Y-115248000D01*
X120573000Y-115248000D01*
X120573000Y-114105085D01*
X120827000Y-114105085D01*
X120827000Y-115248000D01*
X123113000Y-115248000D01*
X123113000Y-114105085D01*
X123367000Y-114105085D01*
X123367000Y-115248000D01*
X125653000Y-115248000D01*
X125653000Y-114105085D01*
X125907000Y-114105085D01*
X125907000Y-115248000D01*
X128193000Y-115248000D01*
X128193000Y-114105085D01*
X128447000Y-114105085D01*
X128447000Y-115248000D01*
X130733000Y-115248000D01*
X130733000Y-114105085D01*
X130987000Y-114105085D01*
X130987000Y-115248000D01*
X133273000Y-115248000D01*
X133273000Y-114105085D01*
X133527000Y-114105085D01*
X133527000Y-115248000D01*
X135813000Y-115248000D01*
X135813000Y-114105085D01*
X136067000Y-114105085D01*
X136067000Y-115248000D01*
X138353000Y-115248000D01*
X138353000Y-114105085D01*
X138607000Y-114105085D01*
X138607000Y-115248000D01*
X139750629Y-115248000D01*
X139871914Y-115025959D01*
X139632389Y-114519866D01*
X139217423Y-114143959D01*
X138829039Y-113983096D01*
X138607000Y-114105085D01*
X138353000Y-114105085D01*
X138130961Y-113983096D01*
X137742577Y-114143959D01*
X137327611Y-114519866D01*
X137210000Y-114768367D01*
X137092389Y-114519866D01*
X136677423Y-114143959D01*
X136289039Y-113983096D01*
X136067000Y-114105085D01*
X135813000Y-114105085D01*
X135590961Y-113983096D01*
X135202577Y-114143959D01*
X134787611Y-114519866D01*
X134670000Y-114768367D01*
X134552389Y-114519866D01*
X134137423Y-114143959D01*
X133749039Y-113983096D01*
X133527000Y-114105085D01*
X133273000Y-114105085D01*
X133050961Y-113983096D01*
X132662577Y-114143959D01*
X132247611Y-114519866D01*
X132130000Y-114768367D01*
X132012389Y-114519866D01*
X131597423Y-114143959D01*
X131209039Y-113983096D01*
X130987000Y-114105085D01*
X130733000Y-114105085D01*
X130510961Y-113983096D01*
X130122577Y-114143959D01*
X129707611Y-114519866D01*
X129590000Y-114768367D01*
X129472389Y-114519866D01*
X129057423Y-114143959D01*
X128669039Y-113983096D01*
X128447000Y-114105085D01*
X128193000Y-114105085D01*
X127970961Y-113983096D01*
X127582577Y-114143959D01*
X127167611Y-114519866D01*
X127050000Y-114768367D01*
X126932389Y-114519866D01*
X126517423Y-114143959D01*
X126129039Y-113983096D01*
X125907000Y-114105085D01*
X125653000Y-114105085D01*
X125430961Y-113983096D01*
X125042577Y-114143959D01*
X124627611Y-114519866D01*
X124510000Y-114768367D01*
X124392389Y-114519866D01*
X123977423Y-114143959D01*
X123589039Y-113983096D01*
X123367000Y-114105085D01*
X123113000Y-114105085D01*
X122890961Y-113983096D01*
X122502577Y-114143959D01*
X122087611Y-114519866D01*
X121970000Y-114768367D01*
X121852389Y-114519866D01*
X121437423Y-114143959D01*
X121049039Y-113983096D01*
X120827000Y-114105085D01*
X120573000Y-114105085D01*
X120350961Y-113983096D01*
X119962577Y-114143959D01*
X119547611Y-114519866D01*
X119308086Y-115025959D01*
X118360000Y-115025959D01*
X118360000Y-114828935D01*
X118229072Y-114512849D01*
X117987151Y-114270928D01*
X117671065Y-114140000D01*
X117328935Y-114140000D01*
X117012849Y-114270928D01*
X116770928Y-114512849D01*
X116640000Y-114828935D01*
X113393404Y-114828935D01*
X113835000Y-113762829D01*
X113835000Y-112328935D01*
X114140000Y-112328935D01*
X114140000Y-112671065D01*
X114270928Y-112987151D01*
X114512849Y-113229072D01*
X114828935Y-113360000D01*
X115171065Y-113360000D01*
X115487151Y-113229072D01*
X115729072Y-112987151D01*
X115860000Y-112671065D01*
X115860000Y-112328935D01*
X141640000Y-112328935D01*
X141640000Y-112671065D01*
X141770928Y-112987151D01*
X142012849Y-113229072D01*
X142328935Y-113360000D01*
X142671065Y-113360000D01*
X142987151Y-113229072D01*
X143229072Y-112987151D01*
X143360000Y-112671065D01*
X143360000Y-112328935D01*
X143229072Y-112012849D01*
X142987151Y-111770928D01*
X142671065Y-111640000D01*
X142328935Y-111640000D01*
X142012849Y-111770928D01*
X141770928Y-112012849D01*
X141640000Y-112328935D01*
X115860000Y-112328935D01*
X115729072Y-112012849D01*
X115487151Y-111770928D01*
X115171065Y-111640000D01*
X114828935Y-111640000D01*
X114512849Y-111770928D01*
X114270928Y-112012849D01*
X114140000Y-112328935D01*
X113835000Y-112328935D01*
X113835000Y-112237171D01*
X113251156Y-110827647D01*
X113069866Y-110646357D01*
X113229072Y-110487151D01*
X113360000Y-110171065D01*
X113360000Y-109828935D01*
X116640000Y-109828935D01*
X116640000Y-110171065D01*
X116770928Y-110487151D01*
X117012849Y-110729072D01*
X117328935Y-110860000D01*
X117671065Y-110860000D01*
X117987151Y-110729072D01*
X118229072Y-110487151D01*
X118360000Y-110171065D01*
X118360000Y-109828935D01*
X144140000Y-109828935D01*
X144140000Y-110171065D01*
X144270928Y-110487151D01*
X144512849Y-110729072D01*
X144749425Y-110827066D01*
X144748844Y-110827647D01*
X144165000Y-112237171D01*
X144165000Y-113762829D01*
X144748844Y-115172353D01*
X145827647Y-116251156D01*
X147237171Y-116835000D01*
X148762829Y-116835000D01*
X150172353Y-116251156D01*
X151251156Y-115172353D01*
X151835000Y-113762829D01*
X151835000Y-112237171D01*
X151251156Y-110827647D01*
X150172353Y-109748844D01*
X148762829Y-109165000D01*
X147237171Y-109165000D01*
X145827647Y-109748844D01*
X145827066Y-109749425D01*
X145729072Y-109512849D01*
X145487151Y-109270928D01*
X145171065Y-109140000D01*
X144828935Y-109140000D01*
X144512849Y-109270928D01*
X144270928Y-109512849D01*
X144140000Y-109828935D01*
X118360000Y-109828935D01*
X118229072Y-109512849D01*
X117987151Y-109270928D01*
X117671065Y-109140000D01*
X117328935Y-109140000D01*
X117012849Y-109270928D01*
X116770928Y-109512849D01*
X116640000Y-109828935D01*
X113360000Y-109828935D01*
X113229072Y-109512849D01*
X112987151Y-109270928D01*
X112671065Y-109140000D01*
X112328935Y-109140000D01*
X112012849Y-109270928D01*
X111770928Y-109512849D01*
X111746278Y-109572358D01*
X110762829Y-109165000D01*
X109237171Y-109165000D01*
X107827647Y-109748844D01*
X106748844Y-110827647D01*
X106165000Y-112237171D01*
X105710000Y-112237171D01*
X105710000Y-107328935D01*
X106640000Y-107328935D01*
X106640000Y-107671065D01*
X106770928Y-107987151D01*
X107012849Y-108229072D01*
X107328935Y-108360000D01*
X107671065Y-108360000D01*
X107987151Y-108229072D01*
X108139223Y-108077000D01*
X114000000Y-108077000D01*
X114048601Y-108067333D01*
X114089803Y-108039803D01*
X114117333Y-107998601D01*
X114127000Y-107950000D01*
X114127000Y-107328935D01*
X114140000Y-107328935D01*
X114140000Y-107671065D01*
X114270928Y-107987151D01*
X114512849Y-108229072D01*
X114828935Y-108360000D01*
X115171065Y-108360000D01*
X115487151Y-108229072D01*
X115729072Y-107987151D01*
X115860000Y-107671065D01*
X115860000Y-107455000D01*
X119236887Y-107455000D01*
X119348260Y-108014909D01*
X119665423Y-108489577D01*
X120140091Y-108806740D01*
X120558667Y-108890000D01*
X120841333Y-108890000D01*
X121259909Y-108806740D01*
X121734577Y-108489577D01*
X121970000Y-108137242D01*
X122205423Y-108489577D01*
X122680091Y-108806740D01*
X123098667Y-108890000D01*
X123381333Y-108890000D01*
X123799909Y-108806740D01*
X124274577Y-108489577D01*
X124510000Y-108137242D01*
X124745423Y-108489577D01*
X125220091Y-108806740D01*
X125638667Y-108890000D01*
X125921333Y-108890000D01*
X126339909Y-108806740D01*
X126814577Y-108489577D01*
X127050000Y-108137242D01*
X127285423Y-108489577D01*
X127760091Y-108806740D01*
X128178667Y-108890000D01*
X128461333Y-108890000D01*
X128879909Y-108806740D01*
X129354577Y-108489577D01*
X129590000Y-108137242D01*
X129825423Y-108489577D01*
X130300091Y-108806740D01*
X130718667Y-108890000D01*
X131001333Y-108890000D01*
X131419909Y-108806740D01*
X131894577Y-108489577D01*
X132130000Y-108137242D01*
X132365423Y-108489577D01*
X132840091Y-108806740D01*
X133258667Y-108890000D01*
X133541333Y-108890000D01*
X133959909Y-108806740D01*
X134434577Y-108489577D01*
X134670000Y-108137242D01*
X134905423Y-108489577D01*
X135380091Y-108806740D01*
X135798667Y-108890000D01*
X136081333Y-108890000D01*
X136499909Y-108806740D01*
X136974577Y-108489577D01*
X137055215Y-108368894D01*
X137081843Y-108502765D01*
X137222191Y-108712809D01*
X137432235Y-108853157D01*
X137680000Y-108902440D01*
X139280000Y-108902440D01*
X139527765Y-108853157D01*
X139737809Y-108712809D01*
X139878157Y-108502765D01*
X139927440Y-108255000D01*
X139927440Y-107328935D01*
X141640000Y-107328935D01*
X141640000Y-107671065D01*
X141770928Y-107987151D01*
X142012849Y-108229072D01*
X142328935Y-108360000D01*
X142671065Y-108360000D01*
X142987151Y-108229072D01*
X143229072Y-107987151D01*
X143360000Y-107671065D01*
X143360000Y-107328935D01*
X146640000Y-107328935D01*
X146640000Y-107671065D01*
X146770928Y-107987151D01*
X147012849Y-108229072D01*
X147328935Y-108360000D01*
X147671065Y-108360000D01*
X147987151Y-108229072D01*
X148229072Y-107987151D01*
X148360000Y-107671065D01*
X148360000Y-107328935D01*
X148229072Y-107012849D01*
X147987151Y-106770928D01*
X147671065Y-106640000D01*
X147328935Y-106640000D01*
X147012849Y-106770928D01*
X146770928Y-107012849D01*
X146640000Y-107328935D01*
X143360000Y-107328935D01*
X143229072Y-107012849D01*
X142987151Y-106770928D01*
X142671065Y-106640000D01*
X142328935Y-106640000D01*
X142012849Y-106770928D01*
X141770928Y-107012849D01*
X141640000Y-107328935D01*
X139927440Y-107328935D01*
X139927440Y-106655000D01*
X139878157Y-106407235D01*
X139737809Y-106197191D01*
X139527765Y-106056843D01*
X139280000Y-106007560D01*
X137680000Y-106007560D01*
X137432235Y-106056843D01*
X137222191Y-106197191D01*
X137081843Y-106407235D01*
X137055215Y-106541106D01*
X136974577Y-106420423D01*
X136499909Y-106103260D01*
X136081333Y-106020000D01*
X135798667Y-106020000D01*
X135380091Y-106103260D01*
X134905423Y-106420423D01*
X134670000Y-106772758D01*
X134434577Y-106420423D01*
X133959909Y-106103260D01*
X133541333Y-106020000D01*
X133258667Y-106020000D01*
X132840091Y-106103260D01*
X132365423Y-106420423D01*
X132130000Y-106772758D01*
X131894577Y-106420423D01*
X131419909Y-106103260D01*
X131001333Y-106020000D01*
X130718667Y-106020000D01*
X130300091Y-106103260D01*
X129825423Y-106420423D01*
X129590000Y-106772758D01*
X129354577Y-106420423D01*
X128879909Y-106103260D01*
X128461333Y-106020000D01*
X128178667Y-106020000D01*
X127760091Y-106103260D01*
X127285423Y-106420423D01*
X127050000Y-106772758D01*
X126814577Y-106420423D01*
X126339909Y-106103260D01*
X125921333Y-106020000D01*
X125638667Y-106020000D01*
X125220091Y-106103260D01*
X124745423Y-106420423D01*
X124510000Y-106772758D01*
X124274577Y-106420423D01*
X123799909Y-106103260D01*
X123381333Y-106020000D01*
X123098667Y-106020000D01*
X122680091Y-106103260D01*
X122205423Y-106420423D01*
X121970000Y-106772758D01*
X121734577Y-106420423D01*
X121259909Y-106103260D01*
X120841333Y-106020000D01*
X120558667Y-106020000D01*
X120140091Y-106103260D01*
X119665423Y-106420423D01*
X119348260Y-106895091D01*
X119236887Y-107455000D01*
X115860000Y-107455000D01*
X115860000Y-107328935D01*
X115729072Y-107012849D01*
X115487151Y-106770928D01*
X115171065Y-106640000D01*
X114828935Y-106640000D01*
X114512849Y-106770928D01*
X114270928Y-107012849D01*
X114140000Y-107328935D01*
X114127000Y-107328935D01*
X114127000Y-105600000D01*
X114117333Y-105551399D01*
X114089803Y-105510197D01*
X114048601Y-105482667D01*
X114000000Y-105473000D01*
X110734934Y-105473000D01*
X110860000Y-105171065D01*
X110860000Y-104828935D01*
X116640000Y-104828935D01*
X116640000Y-105171065D01*
X116770928Y-105487151D01*
X117012849Y-105729072D01*
X117328935Y-105860000D01*
X117671065Y-105860000D01*
X117987151Y-105729072D01*
X118229072Y-105487151D01*
X118360000Y-105171065D01*
X118360000Y-104828935D01*
X118229072Y-104512849D01*
X117987151Y-104270928D01*
X117671065Y-104140000D01*
X117328935Y-104140000D01*
X117012849Y-104270928D01*
X116770928Y-104512849D01*
X116640000Y-104828935D01*
X110860000Y-104828935D01*
X110729072Y-104512849D01*
X110487151Y-104270928D01*
X110171065Y-104140000D01*
X109828935Y-104140000D01*
X109512849Y-104270928D01*
X109270928Y-104512849D01*
X109140000Y-104828935D01*
X109140000Y-105171065D01*
X109265066Y-105473000D01*
X107900000Y-105473000D01*
X107851399Y-105482667D01*
X107810197Y-105510197D01*
X107782667Y-105551399D01*
X107773000Y-105600000D01*
X107773000Y-106682223D01*
X107671065Y-106640000D01*
X107328935Y-106640000D01*
X107012849Y-106770928D01*
X106770928Y-107012849D01*
X106640000Y-107328935D01*
X105710000Y-107328935D01*
X105710000Y-103528935D01*
X118440000Y-103528935D01*
X118440000Y-103871065D01*
X118570928Y-104187151D01*
X118812849Y-104429072D01*
X119128935Y-104560000D01*
X119471065Y-104560000D01*
X119787151Y-104429072D01*
X120029072Y-104187151D01*
X120160000Y-103871065D01*
X120160000Y-103678935D01*
X121090056Y-103678935D01*
X121090056Y-104021065D01*
X121220984Y-104337151D01*
X121462905Y-104579072D01*
X121778991Y-104710000D01*
X122121121Y-104710000D01*
X122437207Y-104579072D01*
X122679128Y-104337151D01*
X122810056Y-104021065D01*
X122810056Y-103766449D01*
X123640000Y-103766449D01*
X123640000Y-104108579D01*
X123770928Y-104424665D01*
X124012849Y-104666586D01*
X124328935Y-104797514D01*
X124671065Y-104797514D01*
X124987151Y-104666586D01*
X125229072Y-104424665D01*
X125360000Y-104108579D01*
X125360000Y-103766449D01*
X125303040Y-103628935D01*
X126140000Y-103628935D01*
X126140000Y-103971065D01*
X126270928Y-104287151D01*
X126512849Y-104529072D01*
X126828935Y-104660000D01*
X127171065Y-104660000D01*
X127487151Y-104529072D01*
X127729072Y-104287151D01*
X127860000Y-103971065D01*
X127860000Y-103728935D01*
X128740000Y-103728935D01*
X128740000Y-104071065D01*
X128870928Y-104387151D01*
X129112849Y-104629072D01*
X129428935Y-104760000D01*
X129771065Y-104760000D01*
X130087151Y-104629072D01*
X130329072Y-104387151D01*
X130460000Y-104071065D01*
X130460000Y-103828935D01*
X131340000Y-103828935D01*
X131340000Y-104171065D01*
X131470928Y-104487151D01*
X131712849Y-104729072D01*
X132028935Y-104860000D01*
X132371065Y-104860000D01*
X132446062Y-104828935D01*
X139140000Y-104828935D01*
X139140000Y-105171065D01*
X139270928Y-105487151D01*
X139512849Y-105729072D01*
X139828935Y-105860000D01*
X140171065Y-105860000D01*
X140487151Y-105729072D01*
X140729072Y-105487151D01*
X140860000Y-105171065D01*
X140860000Y-104828935D01*
X144140000Y-104828935D01*
X144140000Y-105171065D01*
X144270928Y-105487151D01*
X144512849Y-105729072D01*
X144828935Y-105860000D01*
X145171065Y-105860000D01*
X145487151Y-105729072D01*
X145729072Y-105487151D01*
X145860000Y-105171065D01*
X145860000Y-104828935D01*
X149140000Y-104828935D01*
X149140000Y-105171065D01*
X149270928Y-105487151D01*
X149512849Y-105729072D01*
X149828935Y-105860000D01*
X150171065Y-105860000D01*
X150487151Y-105729072D01*
X150729072Y-105487151D01*
X150860000Y-105171065D01*
X150860000Y-104828935D01*
X150729072Y-104512849D01*
X150487151Y-104270928D01*
X150171065Y-104140000D01*
X149828935Y-104140000D01*
X149512849Y-104270928D01*
X149270928Y-104512849D01*
X149140000Y-104828935D01*
X145860000Y-104828935D01*
X145729072Y-104512849D01*
X145487151Y-104270928D01*
X145171065Y-104140000D01*
X144828935Y-104140000D01*
X144512849Y-104270928D01*
X144270928Y-104512849D01*
X144140000Y-104828935D01*
X140860000Y-104828935D01*
X140729072Y-104512849D01*
X140487151Y-104270928D01*
X140171065Y-104140000D01*
X139828935Y-104140000D01*
X139512849Y-104270928D01*
X139270928Y-104512849D01*
X139140000Y-104828935D01*
X132446062Y-104828935D01*
X132687151Y-104729072D01*
X132929072Y-104487151D01*
X133060000Y-104171065D01*
X133060000Y-103828935D01*
X133018579Y-103728935D01*
X133790000Y-103728935D01*
X133790000Y-104071065D01*
X133920928Y-104387151D01*
X134162849Y-104629072D01*
X134478935Y-104760000D01*
X134821065Y-104760000D01*
X135137151Y-104629072D01*
X135379072Y-104387151D01*
X135510000Y-104071065D01*
X135510000Y-103778935D01*
X136340000Y-103778935D01*
X136340000Y-104121065D01*
X136470928Y-104437151D01*
X136712849Y-104679072D01*
X137028935Y-104810000D01*
X137371065Y-104810000D01*
X137687151Y-104679072D01*
X137929072Y-104437151D01*
X138060000Y-104121065D01*
X138060000Y-103778935D01*
X137929072Y-103462849D01*
X137687151Y-103220928D01*
X137371065Y-103090000D01*
X137028935Y-103090000D01*
X136712849Y-103220928D01*
X136470928Y-103462849D01*
X136340000Y-103778935D01*
X135510000Y-103778935D01*
X135510000Y-103728935D01*
X135379072Y-103412849D01*
X135137151Y-103170928D01*
X134821065Y-103040000D01*
X134478935Y-103040000D01*
X134162849Y-103170928D01*
X133920928Y-103412849D01*
X133790000Y-103728935D01*
X133018579Y-103728935D01*
X132929072Y-103512849D01*
X132687151Y-103270928D01*
X132371065Y-103140000D01*
X132028935Y-103140000D01*
X131712849Y-103270928D01*
X131470928Y-103512849D01*
X131340000Y-103828935D01*
X130460000Y-103828935D01*
X130460000Y-103728935D01*
X130329072Y-103412849D01*
X130087151Y-103170928D01*
X129771065Y-103040000D01*
X129428935Y-103040000D01*
X129112849Y-103170928D01*
X128870928Y-103412849D01*
X128740000Y-103728935D01*
X127860000Y-103728935D01*
X127860000Y-103628935D01*
X127729072Y-103312849D01*
X127487151Y-103070928D01*
X127171065Y-102940000D01*
X126828935Y-102940000D01*
X126512849Y-103070928D01*
X126270928Y-103312849D01*
X126140000Y-103628935D01*
X125303040Y-103628935D01*
X125229072Y-103450363D01*
X124987151Y-103208442D01*
X124671065Y-103077514D01*
X124328935Y-103077514D01*
X124012849Y-103208442D01*
X123770928Y-103450363D01*
X123640000Y-103766449D01*
X122810056Y-103766449D01*
X122810056Y-103678935D01*
X122679128Y-103362849D01*
X122437207Y-103120928D01*
X122121121Y-102990000D01*
X121778991Y-102990000D01*
X121462905Y-103120928D01*
X121220984Y-103362849D01*
X121090056Y-103678935D01*
X120160000Y-103678935D01*
X120160000Y-103528935D01*
X120029072Y-103212849D01*
X119787151Y-102970928D01*
X119471065Y-102840000D01*
X119128935Y-102840000D01*
X118812849Y-102970928D01*
X118570928Y-103212849D01*
X118440000Y-103528935D01*
X105710000Y-103528935D01*
X105710000Y-102328935D01*
X106640000Y-102328935D01*
X106640000Y-102671065D01*
X106770928Y-102987151D01*
X107012849Y-103229072D01*
X107328935Y-103360000D01*
X107671065Y-103360000D01*
X107987151Y-103229072D01*
X108229072Y-102987151D01*
X108360000Y-102671065D01*
X108360000Y-102328935D01*
X114140000Y-102328935D01*
X114140000Y-102671065D01*
X114270928Y-102987151D01*
X114512849Y-103229072D01*
X114828935Y-103360000D01*
X115171065Y-103360000D01*
X115487151Y-103229072D01*
X115729072Y-102987151D01*
X115860000Y-102671065D01*
X115860000Y-102328935D01*
X141640000Y-102328935D01*
X141640000Y-102671065D01*
X141770928Y-102987151D01*
X142012849Y-103229072D01*
X142328935Y-103360000D01*
X142671065Y-103360000D01*
X142987151Y-103229072D01*
X143229072Y-102987151D01*
X143360000Y-102671065D01*
X143360000Y-102328935D01*
X146640000Y-102328935D01*
X146640000Y-102671065D01*
X146770928Y-102987151D01*
X147012849Y-103229072D01*
X147328935Y-103360000D01*
X147671065Y-103360000D01*
X147987151Y-103229072D01*
X148229072Y-102987151D01*
X148360000Y-102671065D01*
X148360000Y-102328935D01*
X148229072Y-102012849D01*
X147987151Y-101770928D01*
X147671065Y-101640000D01*
X147328935Y-101640000D01*
X147012849Y-101770928D01*
X146770928Y-102012849D01*
X146640000Y-102328935D01*
X143360000Y-102328935D01*
X143229072Y-102012849D01*
X142987151Y-101770928D01*
X142671065Y-101640000D01*
X142328935Y-101640000D01*
X142012849Y-101770928D01*
X141770928Y-102012849D01*
X141640000Y-102328935D01*
X115860000Y-102328935D01*
X115729072Y-102012849D01*
X115487151Y-101770928D01*
X115171065Y-101640000D01*
X114828935Y-101640000D01*
X114512849Y-101770928D01*
X114270928Y-102012849D01*
X114140000Y-102328935D01*
X108360000Y-102328935D01*
X108229072Y-102012849D01*
X107987151Y-101770928D01*
X107671065Y-101640000D01*
X107328935Y-101640000D01*
X107012849Y-101770928D01*
X106770928Y-102012849D01*
X106640000Y-102328935D01*
X105710000Y-102328935D01*
X105710000Y-99260000D01*
X105871065Y-99260000D01*
X105950000Y-99227304D01*
X106028935Y-99260000D01*
X106371065Y-99260000D01*
X106450000Y-99227304D01*
X106528935Y-99260000D01*
X106871065Y-99260000D01*
X106950000Y-99227304D01*
X107028935Y-99260000D01*
X107039231Y-99260000D01*
X107012849Y-99270928D01*
X106770928Y-99512849D01*
X106640000Y-99828935D01*
X106640000Y-100171065D01*
X106770928Y-100487151D01*
X107012849Y-100729072D01*
X107328935Y-100860000D01*
X107671065Y-100860000D01*
X107987151Y-100729072D01*
X108229072Y-100487151D01*
X108360000Y-100171065D01*
X108360000Y-99828935D01*
X111640000Y-99828935D01*
X111640000Y-100171065D01*
X111770928Y-100487151D01*
X112012849Y-100729072D01*
X112328935Y-100860000D01*
X112671065Y-100860000D01*
X112987151Y-100729072D01*
X113229072Y-100487151D01*
X113360000Y-100171065D01*
X113360000Y-99828935D01*
X121640000Y-99828935D01*
X121640000Y-100171065D01*
X121770928Y-100487151D01*
X122012849Y-100729072D01*
X122328935Y-100860000D01*
X122671065Y-100860000D01*
X122987151Y-100729072D01*
X123229072Y-100487151D01*
X123360000Y-100171065D01*
X123360000Y-99828935D01*
X126640000Y-99828935D01*
X126640000Y-100171065D01*
X126770928Y-100487151D01*
X127012849Y-100729072D01*
X127328935Y-100860000D01*
X127671065Y-100860000D01*
X127987151Y-100729072D01*
X128229072Y-100487151D01*
X128360000Y-100171065D01*
X128360000Y-99828935D01*
X139140000Y-99828935D01*
X139140000Y-100171065D01*
X139270928Y-100487151D01*
X139512849Y-100729072D01*
X139828935Y-100860000D01*
X140171065Y-100860000D01*
X140487151Y-100729072D01*
X140729072Y-100487151D01*
X140860000Y-100171065D01*
X140860000Y-99828935D01*
X144140000Y-99828935D01*
X144140000Y-100171065D01*
X144270928Y-100487151D01*
X144512849Y-100729072D01*
X144828935Y-100860000D01*
X145171065Y-100860000D01*
X145487151Y-100729072D01*
X145729072Y-100487151D01*
X145860000Y-100171065D01*
X145860000Y-99828935D01*
X145729072Y-99512849D01*
X145487151Y-99270928D01*
X145171065Y-99140000D01*
X144828935Y-99140000D01*
X144512849Y-99270928D01*
X144270928Y-99512849D01*
X144140000Y-99828935D01*
X140860000Y-99828935D01*
X140729072Y-99512849D01*
X140487151Y-99270928D01*
X140171065Y-99140000D01*
X139828935Y-99140000D01*
X139512849Y-99270928D01*
X139270928Y-99512849D01*
X139140000Y-99828935D01*
X128360000Y-99828935D01*
X128229072Y-99512849D01*
X127987151Y-99270928D01*
X127671065Y-99140000D01*
X127328935Y-99140000D01*
X127012849Y-99270928D01*
X126770928Y-99512849D01*
X126640000Y-99828935D01*
X123360000Y-99828935D01*
X123229072Y-99512849D01*
X122987151Y-99270928D01*
X122671065Y-99140000D01*
X122328935Y-99140000D01*
X122012849Y-99270928D01*
X121770928Y-99512849D01*
X121640000Y-99828935D01*
X113360000Y-99828935D01*
X113229072Y-99512849D01*
X112987151Y-99270928D01*
X112671065Y-99140000D01*
X112328935Y-99140000D01*
X112012849Y-99270928D01*
X111770928Y-99512849D01*
X111640000Y-99828935D01*
X108360000Y-99828935D01*
X108229072Y-99512849D01*
X107987151Y-99270928D01*
X107915917Y-99241422D01*
X107950000Y-99227304D01*
X108028935Y-99260000D01*
X108371065Y-99260000D01*
X108450000Y-99227304D01*
X108528935Y-99260000D01*
X108871065Y-99260000D01*
X109187151Y-99129072D01*
X109429072Y-98887151D01*
X109560000Y-98571065D01*
X109560000Y-98248603D01*
X109828935Y-98360000D01*
X110171065Y-98360000D01*
X110487151Y-98229072D01*
X110729072Y-97987151D01*
X110860000Y-97671065D01*
X110860000Y-97328935D01*
X110729072Y-97012849D01*
X110574712Y-96858489D01*
X110650000Y-96827304D01*
X110728935Y-96860000D01*
X111071065Y-96860000D01*
X111150000Y-96827304D01*
X111228935Y-96860000D01*
X111571065Y-96860000D01*
X111650000Y-96827304D01*
X111728935Y-96860000D01*
X112071065Y-96860000D01*
X112150000Y-96827304D01*
X112228935Y-96860000D01*
X112571065Y-96860000D01*
X112650000Y-96827304D01*
X112728935Y-96860000D01*
X113071065Y-96860000D01*
X113387151Y-96729072D01*
X113629072Y-96487151D01*
X113760000Y-96171065D01*
X113760000Y-95828935D01*
X113629072Y-95512849D01*
X113474312Y-95358089D01*
X113478925Y-95360000D01*
X113821055Y-95360000D01*
X114137141Y-95229072D01*
X114379062Y-94987151D01*
X114509990Y-94671065D01*
X114509990Y-94328935D01*
X114379062Y-94012849D01*
X114137141Y-93770928D01*
X113821055Y-93640000D01*
X113478925Y-93640000D01*
X113162839Y-93770928D01*
X112920918Y-94012849D01*
X112789990Y-94328935D01*
X112789990Y-94671065D01*
X112920918Y-94987151D01*
X113075678Y-95141911D01*
X113071065Y-95140000D01*
X112728935Y-95140000D01*
X112650000Y-95172696D01*
X112571065Y-95140000D01*
X112228935Y-95140000D01*
X112150000Y-95172696D01*
X112071065Y-95140000D01*
X111728935Y-95140000D01*
X111650000Y-95172696D01*
X111571065Y-95140000D01*
X111228935Y-95140000D01*
X111150000Y-95172696D01*
X111071065Y-95140000D01*
X110728935Y-95140000D01*
X110650000Y-95172696D01*
X110571065Y-95140000D01*
X110228935Y-95140000D01*
X110150000Y-95172696D01*
X110071065Y-95140000D01*
X109728935Y-95140000D01*
X109650000Y-95172696D01*
X109571065Y-95140000D01*
X109228935Y-95140000D01*
X108912849Y-95270928D01*
X108670928Y-95512849D01*
X108540000Y-95828935D01*
X108540000Y-96171065D01*
X108670928Y-96487151D01*
X108912849Y-96729072D01*
X109228935Y-96860000D01*
X109423777Y-96860000D01*
X109270928Y-97012849D01*
X109140000Y-97328935D01*
X109140000Y-97651397D01*
X108871065Y-97540000D01*
X108528935Y-97540000D01*
X108450000Y-97572696D01*
X108371065Y-97540000D01*
X108028935Y-97540000D01*
X107950000Y-97572696D01*
X107871065Y-97540000D01*
X107528935Y-97540000D01*
X107450000Y-97572696D01*
X107371065Y-97540000D01*
X107028935Y-97540000D01*
X106950000Y-97572696D01*
X106871065Y-97540000D01*
X106528935Y-97540000D01*
X106450000Y-97572696D01*
X106371065Y-97540000D01*
X106028935Y-97540000D01*
X105950000Y-97572696D01*
X105871065Y-97540000D01*
X105710000Y-97540000D01*
X105710000Y-92660000D01*
X105871065Y-92660000D01*
X105950000Y-92627304D01*
X106028935Y-92660000D01*
X106371065Y-92660000D01*
X106450000Y-92627304D01*
X106528935Y-92660000D01*
X106871065Y-92660000D01*
X106950000Y-92627304D01*
X107028935Y-92660000D01*
X107371065Y-92660000D01*
X107450000Y-92627304D01*
X107528935Y-92660000D01*
X107871065Y-92660000D01*
X107950000Y-92627304D01*
X108028935Y-92660000D01*
X108371065Y-92660000D01*
X108450000Y-92627304D01*
X108528935Y-92660000D01*
X108871065Y-92660000D01*
X109140000Y-92548603D01*
X109140000Y-92671065D01*
X109270928Y-92987151D01*
X109512849Y-93229072D01*
X109539231Y-93240000D01*
X109528935Y-93240000D01*
X109450000Y-93272696D01*
X109371065Y-93240000D01*
X109028935Y-93240000D01*
X108712849Y-93370928D01*
X108470928Y-93612849D01*
X108340000Y-93928935D01*
X108340000Y-94271065D01*
X108470928Y-94587151D01*
X108712849Y-94829072D01*
X109028935Y-94960000D01*
X109371065Y-94960000D01*
X109450000Y-94927304D01*
X109528935Y-94960000D01*
X109871065Y-94960000D01*
X109950000Y-94927304D01*
X110028935Y-94960000D01*
X110371065Y-94960000D01*
X110450000Y-94927304D01*
X110528935Y-94960000D01*
X110871065Y-94960000D01*
X111187151Y-94829072D01*
X111429072Y-94587151D01*
X111560000Y-94271065D01*
X111560000Y-93928935D01*
X111429072Y-93612849D01*
X111187151Y-93370928D01*
X110871065Y-93240000D01*
X110528935Y-93240000D01*
X110450000Y-93272696D01*
X110415917Y-93258578D01*
X110487151Y-93229072D01*
X110729072Y-92987151D01*
X110860000Y-92671065D01*
X110860000Y-92328935D01*
X110729072Y-92012849D01*
X110495158Y-91778935D01*
X111490000Y-91778935D01*
X111490000Y-92121065D01*
X111620928Y-92437151D01*
X111862849Y-92679072D01*
X112178935Y-92810000D01*
X112521065Y-92810000D01*
X112837151Y-92679072D01*
X112875000Y-92641223D01*
X112912849Y-92679072D01*
X113228935Y-92810000D01*
X113351828Y-92810000D01*
X113445918Y-93037151D01*
X113687839Y-93279072D01*
X114003925Y-93410000D01*
X114346055Y-93410000D01*
X114662141Y-93279072D01*
X114817250Y-93123963D01*
X114915000Y-93123963D01*
X114915000Y-93476037D01*
X115049733Y-93801312D01*
X115073421Y-93825000D01*
X115049733Y-93848688D01*
X114915000Y-94173963D01*
X114915000Y-94526037D01*
X115049733Y-94851312D01*
X115073421Y-94875000D01*
X115049733Y-94898688D01*
X114915000Y-95223963D01*
X114915000Y-95576037D01*
X115049733Y-95901312D01*
X115298688Y-96150267D01*
X115623963Y-96285000D01*
X115976037Y-96285000D01*
X116301312Y-96150267D01*
X116350000Y-96101579D01*
X116398688Y-96150267D01*
X116723963Y-96285000D01*
X117076037Y-96285000D01*
X117401312Y-96150267D01*
X117450000Y-96101579D01*
X117498688Y-96150267D01*
X117823963Y-96285000D01*
X118176037Y-96285000D01*
X118501312Y-96150267D01*
X118750267Y-95901312D01*
X118780246Y-95828935D01*
X119040000Y-95828935D01*
X119040000Y-96171065D01*
X119170928Y-96487151D01*
X119412849Y-96729072D01*
X119513373Y-96770711D01*
X119512849Y-96770928D01*
X119270928Y-97012849D01*
X119140000Y-97328935D01*
X119140000Y-97671065D01*
X119270928Y-97987151D01*
X119512849Y-98229072D01*
X119828935Y-98360000D01*
X120171065Y-98360000D01*
X120487151Y-98229072D01*
X120729072Y-97987151D01*
X120860000Y-97671065D01*
X120860000Y-97328935D01*
X120729072Y-97012849D01*
X120574712Y-96858489D01*
X120650000Y-96827304D01*
X120728935Y-96860000D01*
X121071065Y-96860000D01*
X121150000Y-96827304D01*
X121228935Y-96860000D01*
X121571065Y-96860000D01*
X121650000Y-96827304D01*
X121728935Y-96860000D01*
X122071065Y-96860000D01*
X122150000Y-96827304D01*
X122228935Y-96860000D01*
X122376328Y-96860000D01*
X122397569Y-96911280D01*
X122688720Y-97202431D01*
X123069126Y-97360000D01*
X123480874Y-97360000D01*
X123861280Y-97202431D01*
X124152431Y-96911280D01*
X124225000Y-96736083D01*
X124297569Y-96911280D01*
X124588720Y-97202431D01*
X124969126Y-97360000D01*
X125380874Y-97360000D01*
X125761280Y-97202431D01*
X126052431Y-96911280D01*
X126073672Y-96860000D01*
X126271065Y-96860000D01*
X126587151Y-96729072D01*
X126800000Y-96516223D01*
X127012849Y-96729072D01*
X127328935Y-96860000D01*
X127671065Y-96860000D01*
X127750000Y-96827304D01*
X127828935Y-96860000D01*
X128171065Y-96860000D01*
X128250000Y-96827304D01*
X128328935Y-96860000D01*
X128587515Y-96860000D01*
X128828935Y-96960000D01*
X129171065Y-96960000D01*
X129487151Y-96829072D01*
X129729072Y-96587151D01*
X129860000Y-96271065D01*
X129860000Y-95928935D01*
X129729072Y-95612849D01*
X129487151Y-95370928D01*
X129171065Y-95240000D01*
X128912485Y-95240000D01*
X128671065Y-95140000D01*
X128328935Y-95140000D01*
X128250000Y-95172696D01*
X128171065Y-95140000D01*
X127828935Y-95140000D01*
X127750000Y-95172696D01*
X127671065Y-95140000D01*
X127328935Y-95140000D01*
X127012849Y-95270928D01*
X126800000Y-95483777D01*
X126587151Y-95270928D01*
X126319349Y-95160000D01*
X126471065Y-95160000D01*
X126787151Y-95029072D01*
X127029072Y-94787151D01*
X127160000Y-94471065D01*
X127160000Y-94128935D01*
X127077157Y-93928935D01*
X128940000Y-93928935D01*
X128940000Y-94271065D01*
X129070928Y-94587151D01*
X129312849Y-94829072D01*
X129628935Y-94960000D01*
X129971065Y-94960000D01*
X130050000Y-94927304D01*
X130128935Y-94960000D01*
X130387515Y-94960000D01*
X130628935Y-95060000D01*
X130887515Y-95060000D01*
X131128935Y-95160000D01*
X131471065Y-95160000D01*
X131550000Y-95127304D01*
X131580651Y-95140000D01*
X131528935Y-95140000D01*
X131212849Y-95270928D01*
X130970928Y-95512849D01*
X130840000Y-95828935D01*
X130840000Y-96171065D01*
X130970928Y-96487151D01*
X131212849Y-96729072D01*
X131528935Y-96860000D01*
X131871065Y-96860000D01*
X131950000Y-96827304D01*
X132028935Y-96860000D01*
X132143777Y-96860000D01*
X132212849Y-96929072D01*
X132528935Y-97060000D01*
X132871065Y-97060000D01*
X132950000Y-97027304D01*
X133028935Y-97060000D01*
X133371065Y-97060000D01*
X133450000Y-97027304D01*
X133528935Y-97060000D01*
X133776838Y-97060000D01*
X133870928Y-97287151D01*
X134112849Y-97529072D01*
X134174627Y-97554661D01*
X134270928Y-97787151D01*
X134512849Y-98029072D01*
X134828935Y-98160000D01*
X134843777Y-98160000D01*
X135012849Y-98329072D01*
X135328935Y-98460000D01*
X135671065Y-98460000D01*
X135679290Y-98456593D01*
X135928935Y-98560000D01*
X136271065Y-98560000D01*
X136587151Y-98429072D01*
X136756223Y-98260000D01*
X136771065Y-98260000D01*
X137087151Y-98129072D01*
X137329072Y-97887151D01*
X137460000Y-97571065D01*
X137460000Y-97556223D01*
X137629072Y-97387151D01*
X137725373Y-97154661D01*
X137787151Y-97129072D01*
X138029072Y-96887151D01*
X138053296Y-96828669D01*
X138128935Y-96860000D01*
X138471065Y-96860000D01*
X138550000Y-96827304D01*
X138628935Y-96860000D01*
X138971065Y-96860000D01*
X139050000Y-96827304D01*
X139128935Y-96860000D01*
X139471065Y-96860000D01*
X139550000Y-96827304D01*
X139628935Y-96860000D01*
X139971065Y-96860000D01*
X140050000Y-96827304D01*
X140128935Y-96860000D01*
X140471065Y-96860000D01*
X140550000Y-96827304D01*
X140628935Y-96860000D01*
X140971065Y-96860000D01*
X141050000Y-96827304D01*
X141128935Y-96860000D01*
X141471065Y-96860000D01*
X141550000Y-96827304D01*
X141628935Y-96860000D01*
X141923777Y-96860000D01*
X141770928Y-97012849D01*
X141640000Y-97328935D01*
X141640000Y-97671065D01*
X141770928Y-97987151D01*
X142012849Y-98229072D01*
X142328935Y-98360000D01*
X142671065Y-98360000D01*
X142987151Y-98229072D01*
X143229072Y-97987151D01*
X143360000Y-97671065D01*
X143360000Y-97328935D01*
X143229072Y-97012849D01*
X143045423Y-96829200D01*
X143050000Y-96827304D01*
X143128935Y-96860000D01*
X143471065Y-96860000D01*
X143550000Y-96827304D01*
X143628935Y-96860000D01*
X143971065Y-96860000D01*
X144050000Y-96827304D01*
X144128935Y-96860000D01*
X144471065Y-96860000D01*
X144550000Y-96827304D01*
X144628935Y-96860000D01*
X144971065Y-96860000D01*
X145050000Y-96827304D01*
X145128935Y-96860000D01*
X145471065Y-96860000D01*
X145550000Y-96827304D01*
X145628935Y-96860000D01*
X145971065Y-96860000D01*
X146050000Y-96827304D01*
X146128935Y-96860000D01*
X146471065Y-96860000D01*
X146550000Y-96827304D01*
X146628935Y-96860000D01*
X146923777Y-96860000D01*
X146770928Y-97012849D01*
X146640000Y-97328935D01*
X146640000Y-97671065D01*
X146770928Y-97987151D01*
X147012849Y-98229072D01*
X147328935Y-98360000D01*
X147671065Y-98360000D01*
X147987151Y-98229072D01*
X148229072Y-97987151D01*
X148360000Y-97671065D01*
X148360000Y-97328935D01*
X148229072Y-97012849D01*
X148045423Y-96829200D01*
X148050000Y-96827304D01*
X148128935Y-96860000D01*
X148471065Y-96860000D01*
X148787151Y-96729072D01*
X149029072Y-96487151D01*
X149160000Y-96171065D01*
X149160000Y-95828935D01*
X149029072Y-95512849D01*
X148787151Y-95270928D01*
X148471065Y-95140000D01*
X148128935Y-95140000D01*
X148050000Y-95172696D01*
X147971065Y-95140000D01*
X147628935Y-95140000D01*
X147550000Y-95172696D01*
X147471065Y-95140000D01*
X147128935Y-95140000D01*
X147050000Y-95172696D01*
X146971065Y-95140000D01*
X146628935Y-95140000D01*
X146550000Y-95172696D01*
X146471065Y-95140000D01*
X146128935Y-95140000D01*
X146050000Y-95172696D01*
X145971065Y-95140000D01*
X145628935Y-95140000D01*
X145550000Y-95172696D01*
X145471065Y-95140000D01*
X145128935Y-95140000D01*
X145050000Y-95172696D01*
X144971065Y-95140000D01*
X144628935Y-95140000D01*
X144550000Y-95172696D01*
X144471065Y-95140000D01*
X144128935Y-95140000D01*
X144050000Y-95172696D01*
X143971065Y-95140000D01*
X143628935Y-95140000D01*
X143550000Y-95172696D01*
X143471065Y-95140000D01*
X143128935Y-95140000D01*
X143050000Y-95172696D01*
X142971065Y-95140000D01*
X142628935Y-95140000D01*
X142550000Y-95172696D01*
X142471065Y-95140000D01*
X142128935Y-95140000D01*
X142050000Y-95172696D01*
X141971065Y-95140000D01*
X141628935Y-95140000D01*
X141550000Y-95172696D01*
X141471065Y-95140000D01*
X141128935Y-95140000D01*
X141050000Y-95172696D01*
X140971065Y-95140000D01*
X140628935Y-95140000D01*
X140550000Y-95172696D01*
X140471065Y-95140000D01*
X140128935Y-95140000D01*
X140050000Y-95172696D01*
X139971065Y-95140000D01*
X139628935Y-95140000D01*
X139550000Y-95172696D01*
X139471065Y-95140000D01*
X139128935Y-95140000D01*
X139050000Y-95172696D01*
X138971065Y-95140000D01*
X138628935Y-95140000D01*
X138550000Y-95172696D01*
X138471065Y-95140000D01*
X138128935Y-95140000D01*
X138050000Y-95172696D01*
X137971065Y-95140000D01*
X137919349Y-95140000D01*
X138187151Y-95029072D01*
X138256223Y-94960000D01*
X138471065Y-94960000D01*
X138550000Y-94927304D01*
X138628935Y-94960000D01*
X138971065Y-94960000D01*
X139050000Y-94927304D01*
X139128935Y-94960000D01*
X139471065Y-94960000D01*
X139550000Y-94927304D01*
X139628935Y-94960000D01*
X139971065Y-94960000D01*
X140050000Y-94927304D01*
X140128935Y-94960000D01*
X140471065Y-94960000D01*
X140550000Y-94927304D01*
X140628935Y-94960000D01*
X140971065Y-94960000D01*
X141050000Y-94927304D01*
X141128935Y-94960000D01*
X141471065Y-94960000D01*
X141550000Y-94927304D01*
X141628935Y-94960000D01*
X141971065Y-94960000D01*
X142050000Y-94927304D01*
X142128935Y-94960000D01*
X142471065Y-94960000D01*
X142550000Y-94927304D01*
X142628935Y-94960000D01*
X142971065Y-94960000D01*
X143050000Y-94927304D01*
X143128935Y-94960000D01*
X143471065Y-94960000D01*
X143550000Y-94927304D01*
X143628935Y-94960000D01*
X143971065Y-94960000D01*
X144050000Y-94927304D01*
X144128935Y-94960000D01*
X144471065Y-94960000D01*
X144550000Y-94927304D01*
X144628935Y-94960000D01*
X144971065Y-94960000D01*
X145050000Y-94927304D01*
X145128935Y-94960000D01*
X145471065Y-94960000D01*
X145550000Y-94927304D01*
X145628935Y-94960000D01*
X145971065Y-94960000D01*
X146050000Y-94927304D01*
X146128935Y-94960000D01*
X146471065Y-94960000D01*
X146550000Y-94927304D01*
X146628935Y-94960000D01*
X146971065Y-94960000D01*
X147050000Y-94927304D01*
X147128935Y-94960000D01*
X147471065Y-94960000D01*
X147550000Y-94927304D01*
X147628935Y-94960000D01*
X147971065Y-94960000D01*
X148050000Y-94927304D01*
X148128935Y-94960000D01*
X148471065Y-94960000D01*
X148787151Y-94829072D01*
X149029072Y-94587151D01*
X149160000Y-94271065D01*
X149160000Y-93928935D01*
X149029072Y-93612849D01*
X148787151Y-93370928D01*
X148471065Y-93240000D01*
X148128935Y-93240000D01*
X148050000Y-93272696D01*
X147971065Y-93240000D01*
X147960769Y-93240000D01*
X147987151Y-93229072D01*
X148229072Y-92987151D01*
X148360000Y-92671065D01*
X148360000Y-92328935D01*
X148229072Y-92012849D01*
X147987151Y-91770928D01*
X147671065Y-91640000D01*
X147328935Y-91640000D01*
X147012849Y-91770928D01*
X146770928Y-92012849D01*
X146640000Y-92328935D01*
X146640000Y-92671065D01*
X146770928Y-92987151D01*
X147012849Y-93229072D01*
X147084083Y-93258578D01*
X147050000Y-93272696D01*
X146971065Y-93240000D01*
X146628935Y-93240000D01*
X146550000Y-93272696D01*
X146471065Y-93240000D01*
X146128935Y-93240000D01*
X146050000Y-93272696D01*
X145971065Y-93240000D01*
X145628935Y-93240000D01*
X145550000Y-93272696D01*
X145471065Y-93240000D01*
X145460769Y-93240000D01*
X145487151Y-93229072D01*
X145729072Y-92987151D01*
X145804662Y-92804662D01*
X145987151Y-92729072D01*
X146229072Y-92487151D01*
X146304662Y-92304662D01*
X146487151Y-92229072D01*
X146729072Y-91987151D01*
X146860000Y-91671065D01*
X146860000Y-91412485D01*
X146960000Y-91171065D01*
X146960000Y-90828935D01*
X146927304Y-90750000D01*
X146960000Y-90671065D01*
X146960000Y-90328935D01*
X146927304Y-90250000D01*
X146960000Y-90171065D01*
X146960000Y-89828935D01*
X149140000Y-89828935D01*
X149140000Y-90171065D01*
X149270928Y-90487151D01*
X149512849Y-90729072D01*
X149828935Y-90860000D01*
X150171065Y-90860000D01*
X150487151Y-90729072D01*
X150729072Y-90487151D01*
X150860000Y-90171065D01*
X150860000Y-89828935D01*
X150729072Y-89512849D01*
X150487151Y-89270928D01*
X150171065Y-89140000D01*
X149828935Y-89140000D01*
X149512849Y-89270928D01*
X149270928Y-89512849D01*
X149140000Y-89828935D01*
X146960000Y-89828935D01*
X146927304Y-89750000D01*
X146960000Y-89671065D01*
X146960000Y-89328935D01*
X146927304Y-89250000D01*
X146960000Y-89171065D01*
X146960000Y-88828935D01*
X146927304Y-88750000D01*
X146960000Y-88671065D01*
X146960000Y-88328935D01*
X146927304Y-88250000D01*
X146958489Y-88174712D01*
X147012849Y-88229072D01*
X147328935Y-88360000D01*
X147671065Y-88360000D01*
X147987151Y-88229072D01*
X148229072Y-87987151D01*
X148360000Y-87671065D01*
X148360000Y-87328935D01*
X148229072Y-87012849D01*
X147987151Y-86770928D01*
X147671065Y-86640000D01*
X147328935Y-86640000D01*
X147012849Y-86770928D01*
X146826408Y-86957369D01*
X146945000Y-86671065D01*
X146945000Y-86328935D01*
X146814072Y-86012849D01*
X146572151Y-85770928D01*
X146256065Y-85640000D01*
X145913935Y-85640000D01*
X145597849Y-85770928D01*
X145355928Y-86012849D01*
X145225000Y-86328935D01*
X145225000Y-86671065D01*
X145355928Y-86987151D01*
X145597849Y-87229072D01*
X145655873Y-87253107D01*
X145612849Y-87270928D01*
X145370928Y-87512849D01*
X145240000Y-87828935D01*
X145240000Y-88171065D01*
X145272696Y-88250000D01*
X145240000Y-88328935D01*
X145240000Y-88671065D01*
X145272696Y-88750000D01*
X145240000Y-88828935D01*
X145240000Y-89171065D01*
X145272696Y-89250000D01*
X145240000Y-89328935D01*
X145240000Y-89671065D01*
X145272696Y-89750000D01*
X145240000Y-89828935D01*
X145240000Y-90171065D01*
X145272696Y-90250000D01*
X145240000Y-90328935D01*
X145240000Y-90671065D01*
X145272696Y-90750000D01*
X145240000Y-90828935D01*
X145240000Y-91087515D01*
X145195338Y-91195338D01*
X145012849Y-91270928D01*
X144770928Y-91512849D01*
X144695338Y-91695338D01*
X144512849Y-91770928D01*
X144270928Y-92012849D01*
X144195338Y-92195338D01*
X144068238Y-92247985D01*
X144129072Y-92187151D01*
X144225373Y-91954661D01*
X144287151Y-91929072D01*
X144529072Y-91687151D01*
X144625373Y-91454661D01*
X144687151Y-91429072D01*
X144929072Y-91187151D01*
X145060000Y-90871065D01*
X145060000Y-90528935D01*
X145027304Y-90450000D01*
X145060000Y-90371065D01*
X145060000Y-90028935D01*
X145027304Y-89950000D01*
X145060000Y-89871065D01*
X145060000Y-89528935D01*
X145027304Y-89450000D01*
X145060000Y-89371065D01*
X145060000Y-89028935D01*
X145027304Y-88950000D01*
X145060000Y-88871065D01*
X145060000Y-88528935D01*
X145027304Y-88450000D01*
X145060000Y-88371065D01*
X145060000Y-88028935D01*
X144929072Y-87712849D01*
X144687151Y-87470928D01*
X144371065Y-87340000D01*
X144028935Y-87340000D01*
X143779290Y-87443407D01*
X143771065Y-87440000D01*
X143428935Y-87440000D01*
X143300000Y-87493407D01*
X143171065Y-87440000D01*
X142912485Y-87440000D01*
X142671065Y-87340000D01*
X142579704Y-87340000D01*
X142787151Y-87254072D01*
X143029072Y-87012151D01*
X143160000Y-86696065D01*
X143160000Y-86353935D01*
X143029072Y-86037849D01*
X142787151Y-85795928D01*
X142471065Y-85665000D01*
X142128935Y-85665000D01*
X141812849Y-85795928D01*
X141570928Y-86037849D01*
X141440000Y-86353935D01*
X141440000Y-86696065D01*
X141570928Y-87012151D01*
X141798777Y-87240000D01*
X141728935Y-87240000D01*
X141600000Y-87293407D01*
X141471065Y-87240000D01*
X141128935Y-87240000D01*
X140987356Y-87298645D01*
X140961280Y-87272569D01*
X140580874Y-87115000D01*
X140169126Y-87115000D01*
X139788720Y-87272569D01*
X139497569Y-87563720D01*
X139340000Y-87944126D01*
X139340000Y-88355874D01*
X139497569Y-88736280D01*
X139788720Y-89027431D01*
X140169126Y-89185000D01*
X140580874Y-89185000D01*
X140961280Y-89027431D01*
X141058066Y-88930645D01*
X141128935Y-88960000D01*
X141471065Y-88960000D01*
X141600000Y-88906593D01*
X141728935Y-88960000D01*
X142071065Y-88960000D01*
X142079290Y-88956593D01*
X142328935Y-89060000D01*
X142587515Y-89060000D01*
X142828935Y-89160000D01*
X143171065Y-89160000D01*
X143300000Y-89106593D01*
X143340000Y-89123162D01*
X143340000Y-89371065D01*
X143372696Y-89450000D01*
X143340000Y-89528935D01*
X143340000Y-89871065D01*
X143372696Y-89950000D01*
X143340000Y-90028935D01*
X143340000Y-90371065D01*
X143371331Y-90446704D01*
X143312849Y-90470928D01*
X143070928Y-90712849D01*
X142974627Y-90945339D01*
X142912849Y-90970928D01*
X142743777Y-91140000D01*
X142628935Y-91140000D01*
X142379290Y-91243407D01*
X142371065Y-91240000D01*
X142360000Y-91240000D01*
X142360000Y-91128935D01*
X142229072Y-90812849D01*
X141987151Y-90570928D01*
X141671065Y-90440000D01*
X141328935Y-90440000D01*
X141012849Y-90570928D01*
X140770928Y-90812849D01*
X140640000Y-91128935D01*
X140640000Y-91140000D01*
X140528935Y-91140000D01*
X140450000Y-91172696D01*
X140371065Y-91140000D01*
X140028935Y-91140000D01*
X139950000Y-91172696D01*
X139871065Y-91140000D01*
X139528935Y-91140000D01*
X139450000Y-91172696D01*
X139371065Y-91140000D01*
X139093872Y-91140000D01*
X138979072Y-90862849D01*
X138737151Y-90620928D01*
X138421065Y-90490000D01*
X138078935Y-90490000D01*
X137762849Y-90620928D01*
X137520928Y-90862849D01*
X137390000Y-91178935D01*
X137390000Y-91340000D01*
X137128935Y-91340000D01*
X137050000Y-91372696D01*
X136971065Y-91340000D01*
X136628935Y-91340000D01*
X136550000Y-91372696D01*
X136471065Y-91340000D01*
X136128935Y-91340000D01*
X135812849Y-91470928D01*
X135643777Y-91640000D01*
X135628935Y-91640000D01*
X135312849Y-91770928D01*
X135143777Y-91940000D01*
X135128935Y-91940000D01*
X134812849Y-92070928D01*
X134570928Y-92312849D01*
X134495338Y-92495338D01*
X134312849Y-92570928D01*
X134070928Y-92812849D01*
X134045339Y-92874627D01*
X133812849Y-92970928D01*
X133570928Y-93212849D01*
X133546704Y-93271331D01*
X133471065Y-93240000D01*
X133128935Y-93240000D01*
X133050000Y-93272696D01*
X132971065Y-93240000D01*
X132628935Y-93240000D01*
X132387515Y-93340000D01*
X132128935Y-93340000D01*
X131887515Y-93440000D01*
X131628935Y-93440000D01*
X131550000Y-93472696D01*
X131471065Y-93440000D01*
X131212485Y-93440000D01*
X130971065Y-93340000D01*
X130712485Y-93340000D01*
X130471065Y-93240000D01*
X130128935Y-93240000D01*
X130050000Y-93272696D01*
X129971065Y-93240000D01*
X129628935Y-93240000D01*
X129312849Y-93370928D01*
X129070928Y-93612849D01*
X128940000Y-93928935D01*
X127077157Y-93928935D01*
X127029072Y-93812849D01*
X126787151Y-93570928D01*
X126471065Y-93440000D01*
X126456223Y-93440000D01*
X126287151Y-93270928D01*
X125971065Y-93140000D01*
X125628935Y-93140000D01*
X125550000Y-93172696D01*
X125471065Y-93140000D01*
X125128935Y-93140000D01*
X125050000Y-93172696D01*
X124971065Y-93140000D01*
X124628935Y-93140000D01*
X124312849Y-93270928D01*
X124293777Y-93290000D01*
X124206223Y-93290000D01*
X124187151Y-93270928D01*
X123871065Y-93140000D01*
X123528935Y-93140000D01*
X123450000Y-93172696D01*
X123371065Y-93140000D01*
X123028935Y-93140000D01*
X122787515Y-93240000D01*
X122528935Y-93240000D01*
X122212849Y-93370928D01*
X122143777Y-93440000D01*
X122112485Y-93440000D01*
X121871065Y-93340000D01*
X121528935Y-93340000D01*
X121450000Y-93372696D01*
X121371065Y-93340000D01*
X121028935Y-93340000D01*
X120712849Y-93470928D01*
X120470928Y-93712849D01*
X120340000Y-94028935D01*
X120340000Y-94371065D01*
X120470928Y-94687151D01*
X120712849Y-94929072D01*
X121028935Y-95060000D01*
X121371065Y-95060000D01*
X121450000Y-95027304D01*
X121528935Y-95060000D01*
X121787515Y-95060000D01*
X121980651Y-95140000D01*
X121728935Y-95140000D01*
X121650000Y-95172696D01*
X121571065Y-95140000D01*
X121228935Y-95140000D01*
X121150000Y-95172696D01*
X121071065Y-95140000D01*
X120728935Y-95140000D01*
X120650000Y-95172696D01*
X120571065Y-95140000D01*
X120228935Y-95140000D01*
X120150000Y-95172696D01*
X120071065Y-95140000D01*
X119728935Y-95140000D01*
X119412849Y-95270928D01*
X119170928Y-95512849D01*
X119040000Y-95828935D01*
X118780246Y-95828935D01*
X118885000Y-95576037D01*
X118885000Y-95223963D01*
X118750267Y-94898688D01*
X118726579Y-94875000D01*
X118750267Y-94851312D01*
X118885000Y-94526037D01*
X118885000Y-94173963D01*
X118750267Y-93848688D01*
X118726579Y-93825000D01*
X118750267Y-93801312D01*
X118885000Y-93476037D01*
X118885000Y-93123963D01*
X118750267Y-92798688D01*
X118501312Y-92549733D01*
X118176037Y-92415000D01*
X117823963Y-92415000D01*
X117498688Y-92549733D01*
X117450000Y-92598421D01*
X117401312Y-92549733D01*
X117076037Y-92415000D01*
X116723963Y-92415000D01*
X116398688Y-92549733D01*
X116350000Y-92598421D01*
X116301312Y-92549733D01*
X115976037Y-92415000D01*
X115623963Y-92415000D01*
X115298688Y-92549733D01*
X115049733Y-92798688D01*
X114915000Y-93123963D01*
X114817250Y-93123963D01*
X114904062Y-93037151D01*
X115034990Y-92721065D01*
X115034990Y-92378935D01*
X114904062Y-92062849D01*
X114662141Y-91820928D01*
X114346055Y-91690000D01*
X114223162Y-91690000D01*
X114129072Y-91462849D01*
X113887151Y-91220928D01*
X113571065Y-91090000D01*
X113228935Y-91090000D01*
X112912849Y-91220928D01*
X112875000Y-91258777D01*
X112837151Y-91220928D01*
X112521065Y-91090000D01*
X112178935Y-91090000D01*
X111862849Y-91220928D01*
X111620928Y-91462849D01*
X111490000Y-91778935D01*
X110495158Y-91778935D01*
X110487151Y-91770928D01*
X110171065Y-91640000D01*
X109828935Y-91640000D01*
X109560000Y-91751397D01*
X109560000Y-91628935D01*
X109429072Y-91312849D01*
X109187151Y-91070928D01*
X109071569Y-91023052D01*
X114691468Y-91023052D01*
X114691468Y-91365182D01*
X114822396Y-91681268D01*
X115064317Y-91923189D01*
X115380403Y-92054117D01*
X115462894Y-92054117D01*
X115637849Y-92229072D01*
X115953935Y-92360000D01*
X116296065Y-92360000D01*
X116612151Y-92229072D01*
X116705036Y-92136187D01*
X117003945Y-92260000D01*
X117346075Y-92260000D01*
X117662161Y-92129072D01*
X117904082Y-91887151D01*
X117987003Y-91686963D01*
X118112151Y-91635125D01*
X118354072Y-91393204D01*
X118359982Y-91378935D01*
X127890000Y-91378935D01*
X127890000Y-91721065D01*
X128020928Y-92037151D01*
X128262849Y-92279072D01*
X128578935Y-92410000D01*
X128921065Y-92410000D01*
X129237151Y-92279072D01*
X129479072Y-92037151D01*
X129610000Y-91721065D01*
X129610000Y-91378935D01*
X129479072Y-91062849D01*
X129237151Y-90820928D01*
X128921065Y-90690000D01*
X128578935Y-90690000D01*
X128262849Y-90820928D01*
X128020928Y-91062849D01*
X127890000Y-91378935D01*
X118359982Y-91378935D01*
X118377510Y-91336619D01*
X118637151Y-91229072D01*
X118879072Y-90987151D01*
X119010000Y-90671065D01*
X119010000Y-90328935D01*
X118879072Y-90012849D01*
X118695158Y-89828935D01*
X121640000Y-89828935D01*
X121640000Y-90171065D01*
X121770928Y-90487151D01*
X122012849Y-90729072D01*
X122328935Y-90860000D01*
X122671065Y-90860000D01*
X122987151Y-90729072D01*
X123229072Y-90487151D01*
X123360000Y-90171065D01*
X123360000Y-89828935D01*
X123229072Y-89512849D01*
X123095158Y-89378935D01*
X133290000Y-89378935D01*
X133290000Y-89721065D01*
X133420928Y-90037151D01*
X133662849Y-90279072D01*
X133978935Y-90410000D01*
X134321065Y-90410000D01*
X134637151Y-90279072D01*
X134879072Y-90037151D01*
X134925000Y-89926272D01*
X134970928Y-90037151D01*
X135212849Y-90279072D01*
X135528935Y-90410000D01*
X135871065Y-90410000D01*
X136187151Y-90279072D01*
X136200000Y-90266223D01*
X136212849Y-90279072D01*
X136528935Y-90410000D01*
X136871065Y-90410000D01*
X137187151Y-90279072D01*
X137225000Y-90241223D01*
X137262849Y-90279072D01*
X137578935Y-90410000D01*
X137921065Y-90410000D01*
X138237151Y-90279072D01*
X138479072Y-90037151D01*
X138610000Y-89721065D01*
X138610000Y-89378935D01*
X138479072Y-89062849D01*
X138237151Y-88820928D01*
X137921065Y-88690000D01*
X137578935Y-88690000D01*
X137262849Y-88820928D01*
X137225000Y-88858777D01*
X137187151Y-88820928D01*
X136871065Y-88690000D01*
X136528935Y-88690000D01*
X136212849Y-88820928D01*
X136200000Y-88833777D01*
X136187151Y-88820928D01*
X135871065Y-88690000D01*
X135528935Y-88690000D01*
X135212849Y-88820928D01*
X134970928Y-89062849D01*
X134925000Y-89173728D01*
X134879072Y-89062849D01*
X134637151Y-88820928D01*
X134321065Y-88690000D01*
X133978935Y-88690000D01*
X133662849Y-88820928D01*
X133420928Y-89062849D01*
X133290000Y-89378935D01*
X123095158Y-89378935D01*
X122987151Y-89270928D01*
X122671065Y-89140000D01*
X122328935Y-89140000D01*
X122012849Y-89270928D01*
X121770928Y-89512849D01*
X121640000Y-89828935D01*
X118695158Y-89828935D01*
X118637151Y-89770928D01*
X118321065Y-89640000D01*
X117978935Y-89640000D01*
X117662849Y-89770928D01*
X117420928Y-90012849D01*
X117397490Y-90069434D01*
X117137849Y-90176981D01*
X117061704Y-90253126D01*
X116821065Y-90153449D01*
X116478935Y-90153449D01*
X116162849Y-90284377D01*
X115998711Y-90448515D01*
X115722533Y-90334117D01*
X115380403Y-90334117D01*
X115064317Y-90465045D01*
X114822396Y-90706966D01*
X114691468Y-91023052D01*
X109071569Y-91023052D01*
X108871065Y-90940000D01*
X108528935Y-90940000D01*
X108450000Y-90972696D01*
X108371065Y-90940000D01*
X108028935Y-90940000D01*
X107950000Y-90972696D01*
X107871065Y-90940000D01*
X107528935Y-90940000D01*
X107450000Y-90972696D01*
X107371065Y-90940000D01*
X107028935Y-90940000D01*
X106950000Y-90972696D01*
X106871065Y-90940000D01*
X106528935Y-90940000D01*
X106450000Y-90972696D01*
X106371065Y-90940000D01*
X106028935Y-90940000D01*
X105950000Y-90972696D01*
X105871065Y-90940000D01*
X105710000Y-90940000D01*
X105710000Y-89828935D01*
X106640000Y-89828935D01*
X106640000Y-90171065D01*
X106770928Y-90487151D01*
X107012849Y-90729072D01*
X107328935Y-90860000D01*
X107671065Y-90860000D01*
X107987151Y-90729072D01*
X108229072Y-90487151D01*
X108360000Y-90171065D01*
X108360000Y-89828935D01*
X108229072Y-89512849D01*
X107987151Y-89270928D01*
X107671065Y-89140000D01*
X107328935Y-89140000D01*
X107012849Y-89270928D01*
X106770928Y-89512849D01*
X106640000Y-89828935D01*
X105710000Y-89828935D01*
X105710000Y-87328935D01*
X109140000Y-87328935D01*
X109140000Y-87671065D01*
X109270928Y-87987151D01*
X109512849Y-88229072D01*
X109828935Y-88360000D01*
X110171065Y-88360000D01*
X110487151Y-88229072D01*
X110729072Y-87987151D01*
X110860000Y-87671065D01*
X110860000Y-87328935D01*
X110729072Y-87012849D01*
X110487151Y-86770928D01*
X110171065Y-86640000D01*
X109828935Y-86640000D01*
X109512849Y-86770928D01*
X109270928Y-87012849D01*
X109140000Y-87328935D01*
X105710000Y-87328935D01*
X105710000Y-84828935D01*
X106640000Y-84828935D01*
X106640000Y-85171065D01*
X106770928Y-85487151D01*
X107012849Y-85729072D01*
X107328935Y-85860000D01*
X107671065Y-85860000D01*
X107987151Y-85729072D01*
X108229072Y-85487151D01*
X108360000Y-85171065D01*
X108360000Y-84828935D01*
X111640000Y-84828935D01*
X111640000Y-85171065D01*
X111770928Y-85487151D01*
X112012849Y-85729072D01*
X112328935Y-85860000D01*
X112671065Y-85860000D01*
X112987151Y-85729072D01*
X113229072Y-85487151D01*
X113360000Y-85171065D01*
X113360000Y-84828935D01*
X113229072Y-84512849D01*
X112987151Y-84270928D01*
X112671065Y-84140000D01*
X112328935Y-84140000D01*
X112012849Y-84270928D01*
X111770928Y-84512849D01*
X111640000Y-84828935D01*
X108360000Y-84828935D01*
X108229072Y-84512849D01*
X107987151Y-84270928D01*
X107671065Y-84140000D01*
X107328935Y-84140000D01*
X107012849Y-84270928D01*
X106770928Y-84512849D01*
X106640000Y-84828935D01*
X105710000Y-84828935D01*
X105710000Y-82328935D01*
X109140000Y-82328935D01*
X109140000Y-82671065D01*
X109270928Y-82987151D01*
X109512849Y-83229072D01*
X109828935Y-83360000D01*
X110171065Y-83360000D01*
X110487151Y-83229072D01*
X110729072Y-82987151D01*
X110860000Y-82671065D01*
X110860000Y-82328935D01*
X114140000Y-82328935D01*
X114140000Y-82671065D01*
X114270928Y-82987151D01*
X114512849Y-83229072D01*
X114828935Y-83360000D01*
X115171065Y-83360000D01*
X115487151Y-83229072D01*
X115729072Y-82987151D01*
X115802560Y-82809736D01*
X115802560Y-82950000D01*
X115851843Y-83197765D01*
X115992191Y-83407809D01*
X116202235Y-83548157D01*
X116247619Y-83557184D01*
X116229375Y-83569375D01*
X115901161Y-84060582D01*
X115785908Y-84640000D01*
X115901161Y-85219418D01*
X116229375Y-85710625D01*
X116527761Y-85910000D01*
X116229375Y-86109375D01*
X115901161Y-86600582D01*
X115785908Y-87180000D01*
X115901161Y-87759418D01*
X116229375Y-88250625D01*
X116720582Y-88578839D01*
X117153744Y-88665000D01*
X117446256Y-88665000D01*
X117879418Y-88578839D01*
X118370625Y-88250625D01*
X118570000Y-87952239D01*
X118769375Y-88250625D01*
X119260582Y-88578839D01*
X119693744Y-88665000D01*
X119986256Y-88665000D01*
X120419418Y-88578839D01*
X120910625Y-88250625D01*
X121238839Y-87759418D01*
X121354092Y-87180000D01*
X121238839Y-86600582D01*
X120910625Y-86109375D01*
X120612239Y-85910000D01*
X120910625Y-85710625D01*
X121238839Y-85219418D01*
X121316510Y-84828935D01*
X121640000Y-84828935D01*
X121640000Y-85171065D01*
X121770928Y-85487151D01*
X122012849Y-85729072D01*
X122328935Y-85860000D01*
X122671065Y-85860000D01*
X122987151Y-85729072D01*
X123229072Y-85487151D01*
X123360000Y-85171065D01*
X123360000Y-84828935D01*
X123229072Y-84512849D01*
X122987151Y-84270928D01*
X122671065Y-84140000D01*
X122328935Y-84140000D01*
X122012849Y-84270928D01*
X121770928Y-84512849D01*
X121640000Y-84828935D01*
X121316510Y-84828935D01*
X121354092Y-84640000D01*
X121238839Y-84060582D01*
X120910625Y-83569375D01*
X120612239Y-83370000D01*
X120910625Y-83170625D01*
X121238839Y-82679418D01*
X121308554Y-82328935D01*
X124140000Y-82328935D01*
X124140000Y-82671065D01*
X124270928Y-82987151D01*
X124512849Y-83229072D01*
X124828935Y-83360000D01*
X125171065Y-83360000D01*
X125487151Y-83229072D01*
X125729072Y-82987151D01*
X125809026Y-82794126D01*
X129565000Y-82794126D01*
X129565000Y-83205874D01*
X129722569Y-83586280D01*
X130013720Y-83877431D01*
X130394126Y-84035000D01*
X130805874Y-84035000D01*
X131186280Y-83877431D01*
X131469585Y-83594126D01*
X132165000Y-83594126D01*
X132165000Y-84005874D01*
X132322569Y-84386280D01*
X132613720Y-84677431D01*
X132994126Y-84835000D01*
X133405874Y-84835000D01*
X133786280Y-84677431D01*
X134077431Y-84386280D01*
X134235000Y-84005874D01*
X134235000Y-83928935D01*
X135390000Y-83928935D01*
X135390000Y-84271065D01*
X135520928Y-84587151D01*
X135762849Y-84829072D01*
X136078935Y-84960000D01*
X136421065Y-84960000D01*
X136737151Y-84829072D01*
X136979072Y-84587151D01*
X137110000Y-84271065D01*
X137110000Y-84119126D01*
X139340000Y-84119126D01*
X139340000Y-84530874D01*
X139497569Y-84911280D01*
X139788720Y-85202431D01*
X140169126Y-85360000D01*
X140580874Y-85360000D01*
X140961280Y-85202431D01*
X141252431Y-84911280D01*
X141286539Y-84828935D01*
X144140000Y-84828935D01*
X144140000Y-85171065D01*
X144270928Y-85487151D01*
X144512849Y-85729072D01*
X144828935Y-85860000D01*
X145171065Y-85860000D01*
X145487151Y-85729072D01*
X145729072Y-85487151D01*
X145860000Y-85171065D01*
X145860000Y-84828935D01*
X149140000Y-84828935D01*
X149140000Y-85171065D01*
X149270928Y-85487151D01*
X149512849Y-85729072D01*
X149828935Y-85860000D01*
X150171065Y-85860000D01*
X150487151Y-85729072D01*
X150729072Y-85487151D01*
X150860000Y-85171065D01*
X150860000Y-84828935D01*
X150729072Y-84512849D01*
X150487151Y-84270928D01*
X150171065Y-84140000D01*
X149828935Y-84140000D01*
X149512849Y-84270928D01*
X149270928Y-84512849D01*
X149140000Y-84828935D01*
X145860000Y-84828935D01*
X145729072Y-84512849D01*
X145487151Y-84270928D01*
X145171065Y-84140000D01*
X144828935Y-84140000D01*
X144512849Y-84270928D01*
X144270928Y-84512849D01*
X144140000Y-84828935D01*
X141286539Y-84828935D01*
X141410000Y-84530874D01*
X141410000Y-84119126D01*
X141252431Y-83738720D01*
X140961280Y-83447569D01*
X140916294Y-83428935D01*
X141890000Y-83428935D01*
X141890000Y-83771065D01*
X142020928Y-84087151D01*
X142262849Y-84329072D01*
X142578935Y-84460000D01*
X142921065Y-84460000D01*
X143237151Y-84329072D01*
X143300000Y-84266223D01*
X143362849Y-84329072D01*
X143678935Y-84460000D01*
X144021065Y-84460000D01*
X144337151Y-84329072D01*
X144579072Y-84087151D01*
X144710000Y-83771065D01*
X144710000Y-83428935D01*
X144579072Y-83112849D01*
X144337151Y-82870928D01*
X144021065Y-82740000D01*
X143678935Y-82740000D01*
X143362849Y-82870928D01*
X143300000Y-82933777D01*
X143237151Y-82870928D01*
X142921065Y-82740000D01*
X142578935Y-82740000D01*
X142262849Y-82870928D01*
X142020928Y-83112849D01*
X141890000Y-83428935D01*
X140916294Y-83428935D01*
X140580874Y-83290000D01*
X140169126Y-83290000D01*
X139788720Y-83447569D01*
X139497569Y-83738720D01*
X139340000Y-84119126D01*
X137110000Y-84119126D01*
X137110000Y-83928935D01*
X136979072Y-83612849D01*
X136737151Y-83370928D01*
X136421065Y-83240000D01*
X136078935Y-83240000D01*
X135762849Y-83370928D01*
X135520928Y-83612849D01*
X135390000Y-83928935D01*
X134235000Y-83928935D01*
X134235000Y-83594126D01*
X134077431Y-83213720D01*
X133786280Y-82922569D01*
X133405874Y-82765000D01*
X132994126Y-82765000D01*
X132613720Y-82922569D01*
X132322569Y-83213720D01*
X132165000Y-83594126D01*
X131469585Y-83594126D01*
X131477431Y-83586280D01*
X131635000Y-83205874D01*
X131635000Y-82794126D01*
X131477431Y-82413720D01*
X131392646Y-82328935D01*
X146640000Y-82328935D01*
X146640000Y-82671065D01*
X146770928Y-82987151D01*
X147012849Y-83229072D01*
X147328935Y-83360000D01*
X147671065Y-83360000D01*
X147987151Y-83229072D01*
X148229072Y-82987151D01*
X148360000Y-82671065D01*
X148360000Y-82328935D01*
X148229072Y-82012849D01*
X147987151Y-81770928D01*
X147671065Y-81640000D01*
X147328935Y-81640000D01*
X147012849Y-81770928D01*
X146770928Y-82012849D01*
X146640000Y-82328935D01*
X131392646Y-82328935D01*
X131186280Y-82122569D01*
X130805874Y-81965000D01*
X130394126Y-81965000D01*
X130013720Y-82122569D01*
X129722569Y-82413720D01*
X129565000Y-82794126D01*
X125809026Y-82794126D01*
X125860000Y-82671065D01*
X125860000Y-82328935D01*
X125729072Y-82012849D01*
X125487151Y-81770928D01*
X125171065Y-81640000D01*
X124828935Y-81640000D01*
X124512849Y-81770928D01*
X124270928Y-82012849D01*
X124140000Y-82328935D01*
X121308554Y-82328935D01*
X121354092Y-82100000D01*
X121238839Y-81520582D01*
X120910625Y-81029375D01*
X120419418Y-80701161D01*
X119986256Y-80615000D01*
X119693744Y-80615000D01*
X119260582Y-80701161D01*
X118769375Y-81029375D01*
X118757184Y-81047619D01*
X118748157Y-81002235D01*
X118607809Y-80792191D01*
X118397765Y-80651843D01*
X118150000Y-80602560D01*
X118113663Y-80602560D01*
X118229072Y-80487151D01*
X118360000Y-80171065D01*
X118360000Y-79828935D01*
X121640000Y-79828935D01*
X121640000Y-80171065D01*
X121770928Y-80487151D01*
X122012849Y-80729072D01*
X122328935Y-80860000D01*
X122671065Y-80860000D01*
X122987151Y-80729072D01*
X123229072Y-80487151D01*
X123350447Y-80194126D01*
X126665000Y-80194126D01*
X126665000Y-80605874D01*
X126822569Y-80986280D01*
X127113720Y-81277431D01*
X127494126Y-81435000D01*
X127905874Y-81435000D01*
X128286280Y-81277431D01*
X128577431Y-80986280D01*
X128735000Y-80605874D01*
X128735000Y-80194126D01*
X128583734Y-79828935D01*
X134140000Y-79828935D01*
X134140000Y-80171065D01*
X134270928Y-80487151D01*
X134512849Y-80729072D01*
X134828935Y-80860000D01*
X135171065Y-80860000D01*
X135487151Y-80729072D01*
X135729072Y-80487151D01*
X135860000Y-80171065D01*
X135860000Y-79828935D01*
X139140000Y-79828935D01*
X139140000Y-80171065D01*
X139270928Y-80487151D01*
X139512849Y-80729072D01*
X139828935Y-80860000D01*
X140171065Y-80860000D01*
X140487151Y-80729072D01*
X140729072Y-80487151D01*
X140860000Y-80171065D01*
X140860000Y-79828935D01*
X144140000Y-79828935D01*
X144140000Y-80171065D01*
X144270928Y-80487151D01*
X144512849Y-80729072D01*
X144828935Y-80860000D01*
X145171065Y-80860000D01*
X145487151Y-80729072D01*
X145729072Y-80487151D01*
X145860000Y-80171065D01*
X145860000Y-79828935D01*
X149140000Y-79828935D01*
X149140000Y-80171065D01*
X149270928Y-80487151D01*
X149512849Y-80729072D01*
X149828935Y-80860000D01*
X150171065Y-80860000D01*
X150487151Y-80729072D01*
X150729072Y-80487151D01*
X150860000Y-80171065D01*
X150860000Y-79828935D01*
X150729072Y-79512849D01*
X150487151Y-79270928D01*
X150171065Y-79140000D01*
X149828935Y-79140000D01*
X149512849Y-79270928D01*
X149270928Y-79512849D01*
X149140000Y-79828935D01*
X145860000Y-79828935D01*
X145729072Y-79512849D01*
X145487151Y-79270928D01*
X145171065Y-79140000D01*
X144828935Y-79140000D01*
X144512849Y-79270928D01*
X144270928Y-79512849D01*
X144140000Y-79828935D01*
X140860000Y-79828935D01*
X140729072Y-79512849D01*
X140487151Y-79270928D01*
X140171065Y-79140000D01*
X139828935Y-79140000D01*
X139512849Y-79270928D01*
X139270928Y-79512849D01*
X139140000Y-79828935D01*
X135860000Y-79828935D01*
X135729072Y-79512849D01*
X135487151Y-79270928D01*
X135171065Y-79140000D01*
X134828935Y-79140000D01*
X134512849Y-79270928D01*
X134270928Y-79512849D01*
X134140000Y-79828935D01*
X128583734Y-79828935D01*
X128577431Y-79813720D01*
X128286280Y-79522569D01*
X127905874Y-79365000D01*
X127494126Y-79365000D01*
X127113720Y-79522569D01*
X126822569Y-79813720D01*
X126665000Y-80194126D01*
X123350447Y-80194126D01*
X123360000Y-80171065D01*
X123360000Y-79828935D01*
X123229072Y-79512849D01*
X122987151Y-79270928D01*
X122671065Y-79140000D01*
X122328935Y-79140000D01*
X122012849Y-79270928D01*
X121770928Y-79512849D01*
X121640000Y-79828935D01*
X118360000Y-79828935D01*
X118229072Y-79512849D01*
X117987151Y-79270928D01*
X117671065Y-79140000D01*
X117328935Y-79140000D01*
X117012849Y-79270928D01*
X116770928Y-79512849D01*
X116640000Y-79828935D01*
X116640000Y-80171065D01*
X116770928Y-80487151D01*
X116886337Y-80602560D01*
X116450000Y-80602560D01*
X116202235Y-80651843D01*
X115992191Y-80792191D01*
X115851843Y-81002235D01*
X115802560Y-81250000D01*
X115802560Y-82190264D01*
X115729072Y-82012849D01*
X115487151Y-81770928D01*
X115171065Y-81640000D01*
X114828935Y-81640000D01*
X114512849Y-81770928D01*
X114270928Y-82012849D01*
X114140000Y-82328935D01*
X110860000Y-82328935D01*
X110729072Y-82012849D01*
X110487151Y-81770928D01*
X110171065Y-81640000D01*
X109828935Y-81640000D01*
X109512849Y-81770928D01*
X109270928Y-82012849D01*
X109140000Y-82328935D01*
X105710000Y-82328935D01*
X105710000Y-79828935D01*
X111640000Y-79828935D01*
X111640000Y-80171065D01*
X111770928Y-80487151D01*
X112012849Y-80729072D01*
X112328935Y-80860000D01*
X112671065Y-80860000D01*
X112987151Y-80729072D01*
X113229072Y-80487151D01*
X113360000Y-80171065D01*
X113360000Y-79828935D01*
X113229072Y-79512849D01*
X112987151Y-79270928D01*
X112671065Y-79140000D01*
X112328935Y-79140000D01*
X112012849Y-79270928D01*
X111770928Y-79512849D01*
X111640000Y-79828935D01*
X105710000Y-79828935D01*
X105710000Y-75031618D01*
X105780578Y-74240808D01*
X105781572Y-74237171D01*
X106165000Y-74237171D01*
X106165000Y-75762829D01*
X106748844Y-77172353D01*
X107827647Y-78251156D01*
X109237171Y-78835000D01*
X110762829Y-78835000D01*
X112172353Y-78251156D01*
X113094574Y-77328935D01*
X114140000Y-77328935D01*
X114140000Y-77671065D01*
X114270928Y-77987151D01*
X114512849Y-78229072D01*
X114828935Y-78360000D01*
X115171065Y-78360000D01*
X115487151Y-78229072D01*
X115729072Y-77987151D01*
X115860000Y-77671065D01*
X115860000Y-77328935D01*
X119140000Y-77328935D01*
X119140000Y-77671065D01*
X119270928Y-77987151D01*
X119512849Y-78229072D01*
X119828935Y-78360000D01*
X120171065Y-78360000D01*
X120487151Y-78229072D01*
X120729072Y-77987151D01*
X120860000Y-77671065D01*
X120860000Y-77328935D01*
X124140000Y-77328935D01*
X124140000Y-77671065D01*
X124270928Y-77987151D01*
X124512849Y-78229072D01*
X124828935Y-78360000D01*
X125171065Y-78360000D01*
X125487151Y-78229072D01*
X125729072Y-77987151D01*
X125860000Y-77671065D01*
X125860000Y-77328935D01*
X136640000Y-77328935D01*
X136640000Y-77671065D01*
X136770928Y-77987151D01*
X137012849Y-78229072D01*
X137328935Y-78360000D01*
X137671065Y-78360000D01*
X137987151Y-78229072D01*
X138229072Y-77987151D01*
X138360000Y-77671065D01*
X138360000Y-77328935D01*
X141640000Y-77328935D01*
X141640000Y-77671065D01*
X141770928Y-77987151D01*
X142012849Y-78229072D01*
X142328935Y-78360000D01*
X142671065Y-78360000D01*
X142987151Y-78229072D01*
X143229072Y-77987151D01*
X143360000Y-77671065D01*
X143360000Y-77328935D01*
X143229072Y-77012849D01*
X142987151Y-76770928D01*
X142671065Y-76640000D01*
X142328935Y-76640000D01*
X142012849Y-76770928D01*
X141770928Y-77012849D01*
X141640000Y-77328935D01*
X138360000Y-77328935D01*
X138229072Y-77012849D01*
X137987151Y-76770928D01*
X137671065Y-76640000D01*
X137328935Y-76640000D01*
X137012849Y-76770928D01*
X136770928Y-77012849D01*
X136640000Y-77328935D01*
X125860000Y-77328935D01*
X125729072Y-77012849D01*
X125487151Y-76770928D01*
X125171065Y-76640000D01*
X124828935Y-76640000D01*
X124512849Y-76770928D01*
X124270928Y-77012849D01*
X124140000Y-77328935D01*
X120860000Y-77328935D01*
X120729072Y-77012849D01*
X120487151Y-76770928D01*
X120171065Y-76640000D01*
X119828935Y-76640000D01*
X119512849Y-76770928D01*
X119270928Y-77012849D01*
X119140000Y-77328935D01*
X115860000Y-77328935D01*
X115729072Y-77012849D01*
X115487151Y-76770928D01*
X115171065Y-76640000D01*
X114828935Y-76640000D01*
X114512849Y-76770928D01*
X114270928Y-77012849D01*
X114140000Y-77328935D01*
X113094574Y-77328935D01*
X113251156Y-77172353D01*
X113835000Y-75762829D01*
X113835000Y-74828935D01*
X116640000Y-74828935D01*
X116640000Y-75171065D01*
X116770928Y-75487151D01*
X117012849Y-75729072D01*
X117328935Y-75860000D01*
X117671065Y-75860000D01*
X117987151Y-75729072D01*
X118229072Y-75487151D01*
X118360000Y-75171065D01*
X118360000Y-74828935D01*
X121640000Y-74828935D01*
X121640000Y-75171065D01*
X121770928Y-75487151D01*
X122012849Y-75729072D01*
X122328935Y-75860000D01*
X122671065Y-75860000D01*
X122987151Y-75729072D01*
X123122097Y-75594126D01*
X126865000Y-75594126D01*
X126865000Y-76005874D01*
X127022569Y-76386280D01*
X127313720Y-76677431D01*
X127694126Y-76835000D01*
X128105874Y-76835000D01*
X128486280Y-76677431D01*
X128777431Y-76386280D01*
X128935000Y-76005874D01*
X128935000Y-75594126D01*
X128777431Y-75213720D01*
X128486280Y-74922569D01*
X128260228Y-74828935D01*
X134140000Y-74828935D01*
X134140000Y-75171065D01*
X134270928Y-75487151D01*
X134512849Y-75729072D01*
X134828935Y-75860000D01*
X135171065Y-75860000D01*
X135487151Y-75729072D01*
X135729072Y-75487151D01*
X135860000Y-75171065D01*
X135860000Y-74828935D01*
X139140000Y-74828935D01*
X139140000Y-75171065D01*
X139270928Y-75487151D01*
X139512849Y-75729072D01*
X139828935Y-75860000D01*
X140171065Y-75860000D01*
X140487151Y-75729072D01*
X140729072Y-75487151D01*
X140860000Y-75171065D01*
X140860000Y-74828935D01*
X140729072Y-74512849D01*
X140487151Y-74270928D01*
X140405655Y-74237171D01*
X144165000Y-74237171D01*
X144165000Y-75762829D01*
X144748844Y-77172353D01*
X145827647Y-78251156D01*
X147237171Y-78835000D01*
X148762829Y-78835000D01*
X150172353Y-78251156D01*
X151251156Y-77172353D01*
X151835000Y-75762829D01*
X151835000Y-74237171D01*
X151251156Y-72827647D01*
X150172353Y-71748844D01*
X148762829Y-71165000D01*
X147237171Y-71165000D01*
X145827647Y-71748844D01*
X144748844Y-72827647D01*
X144165000Y-74237171D01*
X140405655Y-74237171D01*
X140171065Y-74140000D01*
X139828935Y-74140000D01*
X139512849Y-74270928D01*
X139270928Y-74512849D01*
X139140000Y-74828935D01*
X135860000Y-74828935D01*
X135729072Y-74512849D01*
X135487151Y-74270928D01*
X135171065Y-74140000D01*
X134828935Y-74140000D01*
X134512849Y-74270928D01*
X134270928Y-74512849D01*
X134140000Y-74828935D01*
X128260228Y-74828935D01*
X128105874Y-74765000D01*
X127694126Y-74765000D01*
X127313720Y-74922569D01*
X127022569Y-75213720D01*
X126865000Y-75594126D01*
X123122097Y-75594126D01*
X123229072Y-75487151D01*
X123360000Y-75171065D01*
X123360000Y-74828935D01*
X123229072Y-74512849D01*
X122987151Y-74270928D01*
X122671065Y-74140000D01*
X122328935Y-74140000D01*
X122012849Y-74270928D01*
X121770928Y-74512849D01*
X121640000Y-74828935D01*
X118360000Y-74828935D01*
X118229072Y-74512849D01*
X117987151Y-74270928D01*
X117671065Y-74140000D01*
X117328935Y-74140000D01*
X117012849Y-74270928D01*
X116770928Y-74512849D01*
X116640000Y-74828935D01*
X113835000Y-74828935D01*
X113835000Y-74237171D01*
X113541640Y-73528935D01*
X125240000Y-73528935D01*
X125240000Y-73871065D01*
X125370928Y-74187151D01*
X125612849Y-74429072D01*
X125928935Y-74560000D01*
X126271065Y-74560000D01*
X126587151Y-74429072D01*
X126656967Y-74359257D01*
X126670365Y-74372655D01*
X127014017Y-74515000D01*
X127385983Y-74515000D01*
X127729635Y-74372655D01*
X127992655Y-74109635D01*
X128135000Y-73765983D01*
X128135000Y-73394017D01*
X130265000Y-73394017D01*
X130265000Y-73765983D01*
X130407345Y-74109635D01*
X130670365Y-74372655D01*
X131014017Y-74515000D01*
X131385983Y-74515000D01*
X131729635Y-74372655D01*
X131743034Y-74359257D01*
X131812849Y-74429072D01*
X132128935Y-74560000D01*
X132471065Y-74560000D01*
X132787151Y-74429072D01*
X133029072Y-74187151D01*
X133160000Y-73871065D01*
X133160000Y-73528935D01*
X133029072Y-73212849D01*
X132787151Y-72970928D01*
X132471065Y-72840000D01*
X132128935Y-72840000D01*
X131883820Y-72941530D01*
X131729635Y-72787345D01*
X131385983Y-72645000D01*
X131014017Y-72645000D01*
X130670365Y-72787345D01*
X130407345Y-73050365D01*
X130265000Y-73394017D01*
X128135000Y-73394017D01*
X127992655Y-73050365D01*
X127729635Y-72787345D01*
X127385983Y-72645000D01*
X127014017Y-72645000D01*
X126670365Y-72787345D01*
X126516180Y-72941530D01*
X126271065Y-72840000D01*
X125928935Y-72840000D01*
X125612849Y-72970928D01*
X125370928Y-73212849D01*
X125240000Y-73528935D01*
X113541640Y-73528935D01*
X113251156Y-72827647D01*
X112752444Y-72328935D01*
X114140000Y-72328935D01*
X114140000Y-72671065D01*
X114270928Y-72987151D01*
X114512849Y-73229072D01*
X114828935Y-73360000D01*
X115171065Y-73360000D01*
X115487151Y-73229072D01*
X115729072Y-72987151D01*
X115860000Y-72671065D01*
X115860000Y-72328935D01*
X119140000Y-72328935D01*
X119140000Y-72671065D01*
X119270928Y-72987151D01*
X119512849Y-73229072D01*
X119828935Y-73360000D01*
X120171065Y-73360000D01*
X120487151Y-73229072D01*
X120729072Y-72987151D01*
X120860000Y-72671065D01*
X120860000Y-72328935D01*
X136640000Y-72328935D01*
X136640000Y-72671065D01*
X136770928Y-72987151D01*
X137012849Y-73229072D01*
X137328935Y-73360000D01*
X137671065Y-73360000D01*
X137987151Y-73229072D01*
X138229072Y-72987151D01*
X138360000Y-72671065D01*
X138360000Y-72328935D01*
X141640000Y-72328935D01*
X141640000Y-72671065D01*
X141770928Y-72987151D01*
X142012849Y-73229072D01*
X142328935Y-73360000D01*
X142671065Y-73360000D01*
X142987151Y-73229072D01*
X143229072Y-72987151D01*
X143360000Y-72671065D01*
X143360000Y-72328935D01*
X143229072Y-72012849D01*
X142987151Y-71770928D01*
X142671065Y-71640000D01*
X142328935Y-71640000D01*
X142012849Y-71770928D01*
X141770928Y-72012849D01*
X141640000Y-72328935D01*
X138360000Y-72328935D01*
X138229072Y-72012849D01*
X137987151Y-71770928D01*
X137671065Y-71640000D01*
X137328935Y-71640000D01*
X137012849Y-71770928D01*
X136770928Y-72012849D01*
X136640000Y-72328935D01*
X120860000Y-72328935D01*
X120729072Y-72012849D01*
X120487151Y-71770928D01*
X120171065Y-71640000D01*
X119828935Y-71640000D01*
X119512849Y-71770928D01*
X119270928Y-72012849D01*
X119140000Y-72328935D01*
X115860000Y-72328935D01*
X115729072Y-72012849D01*
X115487151Y-71770928D01*
X115171065Y-71640000D01*
X114828935Y-71640000D01*
X114512849Y-71770928D01*
X114270928Y-72012849D01*
X114140000Y-72328935D01*
X112752444Y-72328935D01*
X112172353Y-71748844D01*
X110762829Y-71165000D01*
X109237171Y-71165000D01*
X107827647Y-71748844D01*
X106748844Y-72827647D01*
X106165000Y-74237171D01*
X105781572Y-74237171D01*
X105981705Y-73505611D01*
X106309846Y-72817649D01*
X106754628Y-72198669D01*
X107301988Y-71668239D01*
X107934639Y-71243116D01*
X108632561Y-70936749D01*
X109379183Y-70757501D01*
X110026030Y-70710000D01*
X124789231Y-70710000D01*
X124762849Y-70720928D01*
X124762849Y-70720928D01*
G37*
X124762849Y-70720928D02*
X124520928Y-70962849D01*
X124390000Y-71278935D01*
X124390000Y-71621065D01*
X124520928Y-71937151D01*
X124762849Y-72179072D01*
X125078935Y-72310000D01*
X125421065Y-72310000D01*
X125737151Y-72179072D01*
X125979072Y-71937151D01*
X126110000Y-71621065D01*
X126110000Y-71278935D01*
X125979072Y-70962849D01*
X125737151Y-70720928D01*
X125710769Y-70710000D01*
X127589231Y-70710000D01*
X127562849Y-70720928D01*
X127320928Y-70962849D01*
X127190000Y-71278935D01*
X127190000Y-71621065D01*
X127320928Y-71937151D01*
X127562849Y-72179072D01*
X127878935Y-72310000D01*
X128221065Y-72310000D01*
X128537151Y-72179072D01*
X128779072Y-71937151D01*
X128910000Y-71621065D01*
X128910000Y-71278935D01*
X128779072Y-70962849D01*
X128537151Y-70720928D01*
X128510769Y-70710000D01*
X129889231Y-70710000D01*
X129862849Y-70720928D01*
X129620928Y-70962849D01*
X129490000Y-71278935D01*
X129490000Y-71621065D01*
X129620928Y-71937151D01*
X129862849Y-72179072D01*
X130178935Y-72310000D01*
X130521065Y-72310000D01*
X130837151Y-72179072D01*
X131079072Y-71937151D01*
X131210000Y-71621065D01*
X131210000Y-71278935D01*
X131079072Y-70962849D01*
X130837151Y-70720928D01*
X130810769Y-70710000D01*
X132689231Y-70710000D01*
X132662849Y-70720928D01*
X132420928Y-70962849D01*
X132290000Y-71278935D01*
X132290000Y-71621065D01*
X132420928Y-71937151D01*
X132662849Y-72179072D01*
X132978935Y-72310000D01*
X133321065Y-72310000D01*
X133637151Y-72179072D01*
X133879072Y-71937151D01*
X134010000Y-71621065D01*
X134010000Y-71278935D01*
X133879072Y-70962849D01*
X133637151Y-70720928D01*
X133610769Y-70710000D01*
X147968382Y-70710000D01*
X148759192Y-70780578D01*
X149494389Y-70981705D01*
X150182351Y-71309846D01*
X150801331Y-71754628D01*
X151331761Y-72301988D01*
X151756884Y-72934639D01*
X152063251Y-73632561D01*
X152242499Y-74379183D01*
X152290000Y-75026030D01*
X152290000Y-90947843D01*
X152271065Y-90940000D01*
X151928935Y-90940000D01*
X151850000Y-90972696D01*
X151771065Y-90940000D01*
X151428935Y-90940000D01*
X151350000Y-90972696D01*
X151271065Y-90940000D01*
X150928935Y-90940000D01*
X150850000Y-90972696D01*
X150771065Y-90940000D01*
X150428935Y-90940000D01*
X150350000Y-90972696D01*
X150271065Y-90940000D01*
X149928935Y-90940000D01*
X149850000Y-90972696D01*
X149771065Y-90940000D01*
X149428935Y-90940000D01*
X149350000Y-90972696D01*
X149271065Y-90940000D01*
X148928935Y-90940000D01*
X148612849Y-91070928D01*
X148370928Y-91312849D01*
X148240000Y-91628935D01*
X148240000Y-91971065D01*
X148370928Y-92287151D01*
X148612849Y-92529072D01*
X148928935Y-92660000D01*
X149271065Y-92660000D01*
X149350000Y-92627304D01*
X149428935Y-92660000D01*
X149771065Y-92660000D01*
X149850000Y-92627304D01*
X149928935Y-92660000D01*
X150271065Y-92660000D01*
X150350000Y-92627304D01*
X150428935Y-92660000D01*
X150771065Y-92660000D01*
X150850000Y-92627304D01*
X150928935Y-92660000D01*
X151271065Y-92660000D01*
X151350000Y-92627304D01*
X151428935Y-92660000D01*
X151771065Y-92660000D01*
X151850000Y-92627304D01*
X151928935Y-92660000D01*
X152271065Y-92660000D01*
X152290000Y-92652157D01*
X152290001Y-97547843D01*
X152271065Y-97540000D01*
X151928935Y-97540000D01*
X151850000Y-97572696D01*
X151771065Y-97540000D01*
X151428935Y-97540000D01*
X151350000Y-97572696D01*
X151271065Y-97540000D01*
X150928935Y-97540000D01*
X150850000Y-97572696D01*
X150771065Y-97540000D01*
X150428935Y-97540000D01*
X150350000Y-97572696D01*
X150271065Y-97540000D01*
X149928935Y-97540000D01*
X149850000Y-97572696D01*
X149771065Y-97540000D01*
X149428935Y-97540000D01*
X149350000Y-97572696D01*
X149271065Y-97540000D01*
X148928935Y-97540000D01*
X148612849Y-97670928D01*
X148370928Y-97912849D01*
X148240000Y-98228935D01*
X148240000Y-98571065D01*
X148370928Y-98887151D01*
X148612849Y-99129072D01*
X148928935Y-99260000D01*
X149271065Y-99260000D01*
X149350000Y-99227304D01*
X149428935Y-99260000D01*
X149539231Y-99260000D01*
X149512849Y-99270928D01*
X149270928Y-99512849D01*
X149140000Y-99828935D01*
X149140000Y-100171065D01*
X149270928Y-100487151D01*
X149512849Y-100729072D01*
X149828935Y-100860000D01*
X150171065Y-100860000D01*
X150487151Y-100729072D01*
X150729072Y-100487151D01*
X150860000Y-100171065D01*
X150860000Y-99828935D01*
X150729072Y-99512849D01*
X150487151Y-99270928D01*
X150460769Y-99260000D01*
X150771065Y-99260000D01*
X150850000Y-99227304D01*
X150928935Y-99260000D01*
X151271065Y-99260000D01*
X151350000Y-99227304D01*
X151428935Y-99260000D01*
X151771065Y-99260000D01*
X151850000Y-99227304D01*
X151928935Y-99260000D01*
X152271065Y-99260000D01*
X152290001Y-99252157D01*
X152290001Y-112968370D01*
X152219422Y-113759193D01*
X152018295Y-114494389D01*
X151690152Y-115182355D01*
X151245374Y-115801328D01*
X150698012Y-116331761D01*
X150065362Y-116756883D01*
X149367439Y-117063251D01*
X148620819Y-117242499D01*
X147973970Y-117290000D01*
X110031618Y-117290000D01*
X109240807Y-117219422D01*
X108505611Y-117018295D01*
X107817645Y-116690152D01*
X107198672Y-116245374D01*
X106668239Y-115698012D01*
X106243117Y-115065362D01*
X105936749Y-114367439D01*
X105757501Y-113620819D01*
X105710000Y-112973970D01*
X105710000Y-112237171D01*
X106165000Y-112237171D01*
X106165000Y-113762829D01*
X106748844Y-115172353D01*
X107827647Y-116251156D01*
X109237171Y-116835000D01*
X110762829Y-116835000D01*
X112172353Y-116251156D01*
X113251156Y-115172353D01*
X113393404Y-114828935D01*
X116640000Y-114828935D01*
X116640000Y-115171065D01*
X116770928Y-115487151D01*
X117012849Y-115729072D01*
X117328935Y-115860000D01*
X117671065Y-115860000D01*
X117987151Y-115729072D01*
X117992182Y-115724041D01*
X119308086Y-115724041D01*
X119547611Y-116230134D01*
X119962577Y-116606041D01*
X120350961Y-116766904D01*
X120573000Y-116644915D01*
X120573000Y-115502000D01*
X120827000Y-115502000D01*
X120827000Y-116644915D01*
X121049039Y-116766904D01*
X121437423Y-116606041D01*
X121852389Y-116230134D01*
X121970000Y-115981633D01*
X122087611Y-116230134D01*
X122502577Y-116606041D01*
X122890961Y-116766904D01*
X123113000Y-116644915D01*
X123113000Y-115502000D01*
X123367000Y-115502000D01*
X123367000Y-116644915D01*
X123589039Y-116766904D01*
X123977423Y-116606041D01*
X124392389Y-116230134D01*
X124510000Y-115981633D01*
X124627611Y-116230134D01*
X125042577Y-116606041D01*
X125430961Y-116766904D01*
X125653000Y-116644915D01*
X125653000Y-115502000D01*
X125907000Y-115502000D01*
X125907000Y-116644915D01*
X126129039Y-116766904D01*
X126517423Y-116606041D01*
X126932389Y-116230134D01*
X127050000Y-115981633D01*
X127167611Y-116230134D01*
X127582577Y-116606041D01*
X127970961Y-116766904D01*
X128193000Y-116644915D01*
X128193000Y-115502000D01*
X128447000Y-115502000D01*
X128447000Y-116644915D01*
X128669039Y-116766904D01*
X129057423Y-116606041D01*
X129472389Y-116230134D01*
X129590000Y-115981633D01*
X129707611Y-116230134D01*
X130122577Y-116606041D01*
X130510961Y-116766904D01*
X130733000Y-116644915D01*
X130733000Y-115502000D01*
X130987000Y-115502000D01*
X130987000Y-116644915D01*
X131209039Y-116766904D01*
X131597423Y-116606041D01*
X132012389Y-116230134D01*
X132130000Y-115981633D01*
X132247611Y-116230134D01*
X132662577Y-116606041D01*
X133050961Y-116766904D01*
X133273000Y-116644915D01*
X133273000Y-115502000D01*
X133527000Y-115502000D01*
X133527000Y-116644915D01*
X133749039Y-116766904D01*
X134137423Y-116606041D01*
X134552389Y-116230134D01*
X134670000Y-115981633D01*
X134787611Y-116230134D01*
X135202577Y-116606041D01*
X135590961Y-116766904D01*
X135813000Y-116644915D01*
X135813000Y-115502000D01*
X136067000Y-115502000D01*
X136067000Y-116644915D01*
X136289039Y-116766904D01*
X136677423Y-116606041D01*
X137092389Y-116230134D01*
X137210000Y-115981633D01*
X137327611Y-116230134D01*
X137742577Y-116606041D01*
X138130961Y-116766904D01*
X138353000Y-116644915D01*
X138353000Y-115502000D01*
X138607000Y-115502000D01*
X138607000Y-116644915D01*
X138829039Y-116766904D01*
X139217423Y-116606041D01*
X139632389Y-116230134D01*
X139871914Y-115724041D01*
X139750629Y-115502000D01*
X138607000Y-115502000D01*
X138353000Y-115502000D01*
X136067000Y-115502000D01*
X135813000Y-115502000D01*
X133527000Y-115502000D01*
X133273000Y-115502000D01*
X130987000Y-115502000D01*
X130733000Y-115502000D01*
X128447000Y-115502000D01*
X128193000Y-115502000D01*
X125907000Y-115502000D01*
X125653000Y-115502000D01*
X123367000Y-115502000D01*
X123113000Y-115502000D01*
X120827000Y-115502000D01*
X120573000Y-115502000D01*
X119429371Y-115502000D01*
X119308086Y-115724041D01*
X117992182Y-115724041D01*
X118229072Y-115487151D01*
X118360000Y-115171065D01*
X118360000Y-115025959D01*
X119308086Y-115025959D01*
X119429371Y-115248000D01*
X120573000Y-115248000D01*
X120573000Y-114105085D01*
X120827000Y-114105085D01*
X120827000Y-115248000D01*
X123113000Y-115248000D01*
X123113000Y-114105085D01*
X123367000Y-114105085D01*
X123367000Y-115248000D01*
X125653000Y-115248000D01*
X125653000Y-114105085D01*
X125907000Y-114105085D01*
X125907000Y-115248000D01*
X128193000Y-115248000D01*
X128193000Y-114105085D01*
X128447000Y-114105085D01*
X128447000Y-115248000D01*
X130733000Y-115248000D01*
X130733000Y-114105085D01*
X130987000Y-114105085D01*
X130987000Y-115248000D01*
X133273000Y-115248000D01*
X133273000Y-114105085D01*
X133527000Y-114105085D01*
X133527000Y-115248000D01*
X135813000Y-115248000D01*
X135813000Y-114105085D01*
X136067000Y-114105085D01*
X136067000Y-115248000D01*
X138353000Y-115248000D01*
X138353000Y-114105085D01*
X138607000Y-114105085D01*
X138607000Y-115248000D01*
X139750629Y-115248000D01*
X139871914Y-115025959D01*
X139632389Y-114519866D01*
X139217423Y-114143959D01*
X138829039Y-113983096D01*
X138607000Y-114105085D01*
X138353000Y-114105085D01*
X138130961Y-113983096D01*
X137742577Y-114143959D01*
X137327611Y-114519866D01*
X137210000Y-114768367D01*
X137092389Y-114519866D01*
X136677423Y-114143959D01*
X136289039Y-113983096D01*
X136067000Y-114105085D01*
X135813000Y-114105085D01*
X135590961Y-113983096D01*
X135202577Y-114143959D01*
X134787611Y-114519866D01*
X134670000Y-114768367D01*
X134552389Y-114519866D01*
X134137423Y-114143959D01*
X133749039Y-113983096D01*
X133527000Y-114105085D01*
X133273000Y-114105085D01*
X133050961Y-113983096D01*
X132662577Y-114143959D01*
X132247611Y-114519866D01*
X132130000Y-114768367D01*
X132012389Y-114519866D01*
X131597423Y-114143959D01*
X131209039Y-113983096D01*
X130987000Y-114105085D01*
X130733000Y-114105085D01*
X130510961Y-113983096D01*
X130122577Y-114143959D01*
X129707611Y-114519866D01*
X129590000Y-114768367D01*
X129472389Y-114519866D01*
X129057423Y-114143959D01*
X128669039Y-113983096D01*
X128447000Y-114105085D01*
X128193000Y-114105085D01*
X127970961Y-113983096D01*
X127582577Y-114143959D01*
X127167611Y-114519866D01*
X127050000Y-114768367D01*
X126932389Y-114519866D01*
X126517423Y-114143959D01*
X126129039Y-113983096D01*
X125907000Y-114105085D01*
X125653000Y-114105085D01*
X125430961Y-113983096D01*
X125042577Y-114143959D01*
X124627611Y-114519866D01*
X124510000Y-114768367D01*
X124392389Y-114519866D01*
X123977423Y-114143959D01*
X123589039Y-113983096D01*
X123367000Y-114105085D01*
X123113000Y-114105085D01*
X122890961Y-113983096D01*
X122502577Y-114143959D01*
X122087611Y-114519866D01*
X121970000Y-114768367D01*
X121852389Y-114519866D01*
X121437423Y-114143959D01*
X121049039Y-113983096D01*
X120827000Y-114105085D01*
X120573000Y-114105085D01*
X120350961Y-113983096D01*
X119962577Y-114143959D01*
X119547611Y-114519866D01*
X119308086Y-115025959D01*
X118360000Y-115025959D01*
X118360000Y-114828935D01*
X118229072Y-114512849D01*
X117987151Y-114270928D01*
X117671065Y-114140000D01*
X117328935Y-114140000D01*
X117012849Y-114270928D01*
X116770928Y-114512849D01*
X116640000Y-114828935D01*
X113393404Y-114828935D01*
X113835000Y-113762829D01*
X113835000Y-112328935D01*
X114140000Y-112328935D01*
X114140000Y-112671065D01*
X114270928Y-112987151D01*
X114512849Y-113229072D01*
X114828935Y-113360000D01*
X115171065Y-113360000D01*
X115487151Y-113229072D01*
X115729072Y-112987151D01*
X115860000Y-112671065D01*
X115860000Y-112328935D01*
X141640000Y-112328935D01*
X141640000Y-112671065D01*
X141770928Y-112987151D01*
X142012849Y-113229072D01*
X142328935Y-113360000D01*
X142671065Y-113360000D01*
X142987151Y-113229072D01*
X143229072Y-112987151D01*
X143360000Y-112671065D01*
X143360000Y-112328935D01*
X143229072Y-112012849D01*
X142987151Y-111770928D01*
X142671065Y-111640000D01*
X142328935Y-111640000D01*
X142012849Y-111770928D01*
X141770928Y-112012849D01*
X141640000Y-112328935D01*
X115860000Y-112328935D01*
X115729072Y-112012849D01*
X115487151Y-111770928D01*
X115171065Y-111640000D01*
X114828935Y-111640000D01*
X114512849Y-111770928D01*
X114270928Y-112012849D01*
X114140000Y-112328935D01*
X113835000Y-112328935D01*
X113835000Y-112237171D01*
X113251156Y-110827647D01*
X113069866Y-110646357D01*
X113229072Y-110487151D01*
X113360000Y-110171065D01*
X113360000Y-109828935D01*
X116640000Y-109828935D01*
X116640000Y-110171065D01*
X116770928Y-110487151D01*
X117012849Y-110729072D01*
X117328935Y-110860000D01*
X117671065Y-110860000D01*
X117987151Y-110729072D01*
X118229072Y-110487151D01*
X118360000Y-110171065D01*
X118360000Y-109828935D01*
X144140000Y-109828935D01*
X144140000Y-110171065D01*
X144270928Y-110487151D01*
X144512849Y-110729072D01*
X144749425Y-110827066D01*
X144748844Y-110827647D01*
X144165000Y-112237171D01*
X144165000Y-113762829D01*
X144748844Y-115172353D01*
X145827647Y-116251156D01*
X147237171Y-116835000D01*
X148762829Y-116835000D01*
X150172353Y-116251156D01*
X151251156Y-115172353D01*
X151835000Y-113762829D01*
X151835000Y-112237171D01*
X151251156Y-110827647D01*
X150172353Y-109748844D01*
X148762829Y-109165000D01*
X147237171Y-109165000D01*
X145827647Y-109748844D01*
X145827066Y-109749425D01*
X145729072Y-109512849D01*
X145487151Y-109270928D01*
X145171065Y-109140000D01*
X144828935Y-109140000D01*
X144512849Y-109270928D01*
X144270928Y-109512849D01*
X144140000Y-109828935D01*
X118360000Y-109828935D01*
X118229072Y-109512849D01*
X117987151Y-109270928D01*
X117671065Y-109140000D01*
X117328935Y-109140000D01*
X117012849Y-109270928D01*
X116770928Y-109512849D01*
X116640000Y-109828935D01*
X113360000Y-109828935D01*
X113229072Y-109512849D01*
X112987151Y-109270928D01*
X112671065Y-109140000D01*
X112328935Y-109140000D01*
X112012849Y-109270928D01*
X111770928Y-109512849D01*
X111746278Y-109572358D01*
X110762829Y-109165000D01*
X109237171Y-109165000D01*
X107827647Y-109748844D01*
X106748844Y-110827647D01*
X106165000Y-112237171D01*
X105710000Y-112237171D01*
X105710000Y-107328935D01*
X106640000Y-107328935D01*
X106640000Y-107671065D01*
X106770928Y-107987151D01*
X107012849Y-108229072D01*
X107328935Y-108360000D01*
X107671065Y-108360000D01*
X107987151Y-108229072D01*
X108139223Y-108077000D01*
X114000000Y-108077000D01*
X114048601Y-108067333D01*
X114089803Y-108039803D01*
X114117333Y-107998601D01*
X114127000Y-107950000D01*
X114127000Y-107328935D01*
X114140000Y-107328935D01*
X114140000Y-107671065D01*
X114270928Y-107987151D01*
X114512849Y-108229072D01*
X114828935Y-108360000D01*
X115171065Y-108360000D01*
X115487151Y-108229072D01*
X115729072Y-107987151D01*
X115860000Y-107671065D01*
X115860000Y-107455000D01*
X119236887Y-107455000D01*
X119348260Y-108014909D01*
X119665423Y-108489577D01*
X120140091Y-108806740D01*
X120558667Y-108890000D01*
X120841333Y-108890000D01*
X121259909Y-108806740D01*
X121734577Y-108489577D01*
X121970000Y-108137242D01*
X122205423Y-108489577D01*
X122680091Y-108806740D01*
X123098667Y-108890000D01*
X123381333Y-108890000D01*
X123799909Y-108806740D01*
X124274577Y-108489577D01*
X124510000Y-108137242D01*
X124745423Y-108489577D01*
X125220091Y-108806740D01*
X125638667Y-108890000D01*
X125921333Y-108890000D01*
X126339909Y-108806740D01*
X126814577Y-108489577D01*
X127050000Y-108137242D01*
X127285423Y-108489577D01*
X127760091Y-108806740D01*
X128178667Y-108890000D01*
X128461333Y-108890000D01*
X128879909Y-108806740D01*
X129354577Y-108489577D01*
X129590000Y-108137242D01*
X129825423Y-108489577D01*
X130300091Y-108806740D01*
X130718667Y-108890000D01*
X131001333Y-108890000D01*
X131419909Y-108806740D01*
X131894577Y-108489577D01*
X132130000Y-108137242D01*
X132365423Y-108489577D01*
X132840091Y-108806740D01*
X133258667Y-108890000D01*
X133541333Y-108890000D01*
X133959909Y-108806740D01*
X134434577Y-108489577D01*
X134670000Y-108137242D01*
X134905423Y-108489577D01*
X135380091Y-108806740D01*
X135798667Y-108890000D01*
X136081333Y-108890000D01*
X136499909Y-108806740D01*
X136974577Y-108489577D01*
X137055215Y-108368894D01*
X137081843Y-108502765D01*
X137222191Y-108712809D01*
X137432235Y-108853157D01*
X137680000Y-108902440D01*
X139280000Y-108902440D01*
X139527765Y-108853157D01*
X139737809Y-108712809D01*
X139878157Y-108502765D01*
X139927440Y-108255000D01*
X139927440Y-107328935D01*
X141640000Y-107328935D01*
X141640000Y-107671065D01*
X141770928Y-107987151D01*
X142012849Y-108229072D01*
X142328935Y-108360000D01*
X142671065Y-108360000D01*
X142987151Y-108229072D01*
X143229072Y-107987151D01*
X143360000Y-107671065D01*
X143360000Y-107328935D01*
X146640000Y-107328935D01*
X146640000Y-107671065D01*
X146770928Y-107987151D01*
X147012849Y-108229072D01*
X147328935Y-108360000D01*
X147671065Y-108360000D01*
X147987151Y-108229072D01*
X148229072Y-107987151D01*
X148360000Y-107671065D01*
X148360000Y-107328935D01*
X148229072Y-107012849D01*
X147987151Y-106770928D01*
X147671065Y-106640000D01*
X147328935Y-106640000D01*
X147012849Y-106770928D01*
X146770928Y-107012849D01*
X146640000Y-107328935D01*
X143360000Y-107328935D01*
X143229072Y-107012849D01*
X142987151Y-106770928D01*
X142671065Y-106640000D01*
X142328935Y-106640000D01*
X142012849Y-106770928D01*
X141770928Y-107012849D01*
X141640000Y-107328935D01*
X139927440Y-107328935D01*
X139927440Y-106655000D01*
X139878157Y-106407235D01*
X139737809Y-106197191D01*
X139527765Y-106056843D01*
X139280000Y-106007560D01*
X137680000Y-106007560D01*
X137432235Y-106056843D01*
X137222191Y-106197191D01*
X137081843Y-106407235D01*
X137055215Y-106541106D01*
X136974577Y-106420423D01*
X136499909Y-106103260D01*
X136081333Y-106020000D01*
X135798667Y-106020000D01*
X135380091Y-106103260D01*
X134905423Y-106420423D01*
X134670000Y-106772758D01*
X134434577Y-106420423D01*
X133959909Y-106103260D01*
X133541333Y-106020000D01*
X133258667Y-106020000D01*
X132840091Y-106103260D01*
X132365423Y-106420423D01*
X132130000Y-106772758D01*
X131894577Y-106420423D01*
X131419909Y-106103260D01*
X131001333Y-106020000D01*
X130718667Y-106020000D01*
X130300091Y-106103260D01*
X129825423Y-106420423D01*
X129590000Y-106772758D01*
X129354577Y-106420423D01*
X128879909Y-106103260D01*
X128461333Y-106020000D01*
X128178667Y-106020000D01*
X127760091Y-106103260D01*
X127285423Y-106420423D01*
X127050000Y-106772758D01*
X126814577Y-106420423D01*
X126339909Y-106103260D01*
X125921333Y-106020000D01*
X125638667Y-106020000D01*
X125220091Y-106103260D01*
X124745423Y-106420423D01*
X124510000Y-106772758D01*
X124274577Y-106420423D01*
X123799909Y-106103260D01*
X123381333Y-106020000D01*
X123098667Y-106020000D01*
X122680091Y-106103260D01*
X122205423Y-106420423D01*
X121970000Y-106772758D01*
X121734577Y-106420423D01*
X121259909Y-106103260D01*
X120841333Y-106020000D01*
X120558667Y-106020000D01*
X120140091Y-106103260D01*
X119665423Y-106420423D01*
X119348260Y-106895091D01*
X119236887Y-107455000D01*
X115860000Y-107455000D01*
X115860000Y-107328935D01*
X115729072Y-107012849D01*
X115487151Y-106770928D01*
X115171065Y-106640000D01*
X114828935Y-106640000D01*
X114512849Y-106770928D01*
X114270928Y-107012849D01*
X114140000Y-107328935D01*
X114127000Y-107328935D01*
X114127000Y-105600000D01*
X114117333Y-105551399D01*
X114089803Y-105510197D01*
X114048601Y-105482667D01*
X114000000Y-105473000D01*
X110734934Y-105473000D01*
X110860000Y-105171065D01*
X110860000Y-104828935D01*
X116640000Y-104828935D01*
X116640000Y-105171065D01*
X116770928Y-105487151D01*
X117012849Y-105729072D01*
X117328935Y-105860000D01*
X117671065Y-105860000D01*
X117987151Y-105729072D01*
X118229072Y-105487151D01*
X118360000Y-105171065D01*
X118360000Y-104828935D01*
X118229072Y-104512849D01*
X117987151Y-104270928D01*
X117671065Y-104140000D01*
X117328935Y-104140000D01*
X117012849Y-104270928D01*
X116770928Y-104512849D01*
X116640000Y-104828935D01*
X110860000Y-104828935D01*
X110729072Y-104512849D01*
X110487151Y-104270928D01*
X110171065Y-104140000D01*
X109828935Y-104140000D01*
X109512849Y-104270928D01*
X109270928Y-104512849D01*
X109140000Y-104828935D01*
X109140000Y-105171065D01*
X109265066Y-105473000D01*
X107900000Y-105473000D01*
X107851399Y-105482667D01*
X107810197Y-105510197D01*
X107782667Y-105551399D01*
X107773000Y-105600000D01*
X107773000Y-106682223D01*
X107671065Y-106640000D01*
X107328935Y-106640000D01*
X107012849Y-106770928D01*
X106770928Y-107012849D01*
X106640000Y-107328935D01*
X105710000Y-107328935D01*
X105710000Y-103528935D01*
X118440000Y-103528935D01*
X118440000Y-103871065D01*
X118570928Y-104187151D01*
X118812849Y-104429072D01*
X119128935Y-104560000D01*
X119471065Y-104560000D01*
X119787151Y-104429072D01*
X120029072Y-104187151D01*
X120160000Y-103871065D01*
X120160000Y-103678935D01*
X121090056Y-103678935D01*
X121090056Y-104021065D01*
X121220984Y-104337151D01*
X121462905Y-104579072D01*
X121778991Y-104710000D01*
X122121121Y-104710000D01*
X122437207Y-104579072D01*
X122679128Y-104337151D01*
X122810056Y-104021065D01*
X122810056Y-103766449D01*
X123640000Y-103766449D01*
X123640000Y-104108579D01*
X123770928Y-104424665D01*
X124012849Y-104666586D01*
X124328935Y-104797514D01*
X124671065Y-104797514D01*
X124987151Y-104666586D01*
X125229072Y-104424665D01*
X125360000Y-104108579D01*
X125360000Y-103766449D01*
X125303040Y-103628935D01*
X126140000Y-103628935D01*
X126140000Y-103971065D01*
X126270928Y-104287151D01*
X126512849Y-104529072D01*
X126828935Y-104660000D01*
X127171065Y-104660000D01*
X127487151Y-104529072D01*
X127729072Y-104287151D01*
X127860000Y-103971065D01*
X127860000Y-103728935D01*
X128740000Y-103728935D01*
X128740000Y-104071065D01*
X128870928Y-104387151D01*
X129112849Y-104629072D01*
X129428935Y-104760000D01*
X129771065Y-104760000D01*
X130087151Y-104629072D01*
X130329072Y-104387151D01*
X130460000Y-104071065D01*
X130460000Y-103828935D01*
X131340000Y-103828935D01*
X131340000Y-104171065D01*
X131470928Y-104487151D01*
X131712849Y-104729072D01*
X132028935Y-104860000D01*
X132371065Y-104860000D01*
X132446062Y-104828935D01*
X139140000Y-104828935D01*
X139140000Y-105171065D01*
X139270928Y-105487151D01*
X139512849Y-105729072D01*
X139828935Y-105860000D01*
X140171065Y-105860000D01*
X140487151Y-105729072D01*
X140729072Y-105487151D01*
X140860000Y-105171065D01*
X140860000Y-104828935D01*
X144140000Y-104828935D01*
X144140000Y-105171065D01*
X144270928Y-105487151D01*
X144512849Y-105729072D01*
X144828935Y-105860000D01*
X145171065Y-105860000D01*
X145487151Y-105729072D01*
X145729072Y-105487151D01*
X145860000Y-105171065D01*
X145860000Y-104828935D01*
X149140000Y-104828935D01*
X149140000Y-105171065D01*
X149270928Y-105487151D01*
X149512849Y-105729072D01*
X149828935Y-105860000D01*
X150171065Y-105860000D01*
X150487151Y-105729072D01*
X150729072Y-105487151D01*
X150860000Y-105171065D01*
X150860000Y-104828935D01*
X150729072Y-104512849D01*
X150487151Y-104270928D01*
X150171065Y-104140000D01*
X149828935Y-104140000D01*
X149512849Y-104270928D01*
X149270928Y-104512849D01*
X149140000Y-104828935D01*
X145860000Y-104828935D01*
X145729072Y-104512849D01*
X145487151Y-104270928D01*
X145171065Y-104140000D01*
X144828935Y-104140000D01*
X144512849Y-104270928D01*
X144270928Y-104512849D01*
X144140000Y-104828935D01*
X140860000Y-104828935D01*
X140729072Y-104512849D01*
X140487151Y-104270928D01*
X140171065Y-104140000D01*
X139828935Y-104140000D01*
X139512849Y-104270928D01*
X139270928Y-104512849D01*
X139140000Y-104828935D01*
X132446062Y-104828935D01*
X132687151Y-104729072D01*
X132929072Y-104487151D01*
X133060000Y-104171065D01*
X133060000Y-103828935D01*
X133018579Y-103728935D01*
X133790000Y-103728935D01*
X133790000Y-104071065D01*
X133920928Y-104387151D01*
X134162849Y-104629072D01*
X134478935Y-104760000D01*
X134821065Y-104760000D01*
X135137151Y-104629072D01*
X135379072Y-104387151D01*
X135510000Y-104071065D01*
X135510000Y-103778935D01*
X136340000Y-103778935D01*
X136340000Y-104121065D01*
X136470928Y-104437151D01*
X136712849Y-104679072D01*
X137028935Y-104810000D01*
X137371065Y-104810000D01*
X137687151Y-104679072D01*
X137929072Y-104437151D01*
X138060000Y-104121065D01*
X138060000Y-103778935D01*
X137929072Y-103462849D01*
X137687151Y-103220928D01*
X137371065Y-103090000D01*
X137028935Y-103090000D01*
X136712849Y-103220928D01*
X136470928Y-103462849D01*
X136340000Y-103778935D01*
X135510000Y-103778935D01*
X135510000Y-103728935D01*
X135379072Y-103412849D01*
X135137151Y-103170928D01*
X134821065Y-103040000D01*
X134478935Y-103040000D01*
X134162849Y-103170928D01*
X133920928Y-103412849D01*
X133790000Y-103728935D01*
X133018579Y-103728935D01*
X132929072Y-103512849D01*
X132687151Y-103270928D01*
X132371065Y-103140000D01*
X132028935Y-103140000D01*
X131712849Y-103270928D01*
X131470928Y-103512849D01*
X131340000Y-103828935D01*
X130460000Y-103828935D01*
X130460000Y-103728935D01*
X130329072Y-103412849D01*
X130087151Y-103170928D01*
X129771065Y-103040000D01*
X129428935Y-103040000D01*
X129112849Y-103170928D01*
X128870928Y-103412849D01*
X128740000Y-103728935D01*
X127860000Y-103728935D01*
X127860000Y-103628935D01*
X127729072Y-103312849D01*
X127487151Y-103070928D01*
X127171065Y-102940000D01*
X126828935Y-102940000D01*
X126512849Y-103070928D01*
X126270928Y-103312849D01*
X126140000Y-103628935D01*
X125303040Y-103628935D01*
X125229072Y-103450363D01*
X124987151Y-103208442D01*
X124671065Y-103077514D01*
X124328935Y-103077514D01*
X124012849Y-103208442D01*
X123770928Y-103450363D01*
X123640000Y-103766449D01*
X122810056Y-103766449D01*
X122810056Y-103678935D01*
X122679128Y-103362849D01*
X122437207Y-103120928D01*
X122121121Y-102990000D01*
X121778991Y-102990000D01*
X121462905Y-103120928D01*
X121220984Y-103362849D01*
X121090056Y-103678935D01*
X120160000Y-103678935D01*
X120160000Y-103528935D01*
X120029072Y-103212849D01*
X119787151Y-102970928D01*
X119471065Y-102840000D01*
X119128935Y-102840000D01*
X118812849Y-102970928D01*
X118570928Y-103212849D01*
X118440000Y-103528935D01*
X105710000Y-103528935D01*
X105710000Y-102328935D01*
X106640000Y-102328935D01*
X106640000Y-102671065D01*
X106770928Y-102987151D01*
X107012849Y-103229072D01*
X107328935Y-103360000D01*
X107671065Y-103360000D01*
X107987151Y-103229072D01*
X108229072Y-102987151D01*
X108360000Y-102671065D01*
X108360000Y-102328935D01*
X114140000Y-102328935D01*
X114140000Y-102671065D01*
X114270928Y-102987151D01*
X114512849Y-103229072D01*
X114828935Y-103360000D01*
X115171065Y-103360000D01*
X115487151Y-103229072D01*
X115729072Y-102987151D01*
X115860000Y-102671065D01*
X115860000Y-102328935D01*
X141640000Y-102328935D01*
X141640000Y-102671065D01*
X141770928Y-102987151D01*
X142012849Y-103229072D01*
X142328935Y-103360000D01*
X142671065Y-103360000D01*
X142987151Y-103229072D01*
X143229072Y-102987151D01*
X143360000Y-102671065D01*
X143360000Y-102328935D01*
X146640000Y-102328935D01*
X146640000Y-102671065D01*
X146770928Y-102987151D01*
X147012849Y-103229072D01*
X147328935Y-103360000D01*
X147671065Y-103360000D01*
X147987151Y-103229072D01*
X148229072Y-102987151D01*
X148360000Y-102671065D01*
X148360000Y-102328935D01*
X148229072Y-102012849D01*
X147987151Y-101770928D01*
X147671065Y-101640000D01*
X147328935Y-101640000D01*
X147012849Y-101770928D01*
X146770928Y-102012849D01*
X146640000Y-102328935D01*
X143360000Y-102328935D01*
X143229072Y-102012849D01*
X142987151Y-101770928D01*
X142671065Y-101640000D01*
X142328935Y-101640000D01*
X142012849Y-101770928D01*
X141770928Y-102012849D01*
X141640000Y-102328935D01*
X115860000Y-102328935D01*
X115729072Y-102012849D01*
X115487151Y-101770928D01*
X115171065Y-101640000D01*
X114828935Y-101640000D01*
X114512849Y-101770928D01*
X114270928Y-102012849D01*
X114140000Y-102328935D01*
X108360000Y-102328935D01*
X108229072Y-102012849D01*
X107987151Y-101770928D01*
X107671065Y-101640000D01*
X107328935Y-101640000D01*
X107012849Y-101770928D01*
X106770928Y-102012849D01*
X106640000Y-102328935D01*
X105710000Y-102328935D01*
X105710000Y-99260000D01*
X105871065Y-99260000D01*
X105950000Y-99227304D01*
X106028935Y-99260000D01*
X106371065Y-99260000D01*
X106450000Y-99227304D01*
X106528935Y-99260000D01*
X106871065Y-99260000D01*
X106950000Y-99227304D01*
X107028935Y-99260000D01*
X107039231Y-99260000D01*
X107012849Y-99270928D01*
X106770928Y-99512849D01*
X106640000Y-99828935D01*
X106640000Y-100171065D01*
X106770928Y-100487151D01*
X107012849Y-100729072D01*
X107328935Y-100860000D01*
X107671065Y-100860000D01*
X107987151Y-100729072D01*
X108229072Y-100487151D01*
X108360000Y-100171065D01*
X108360000Y-99828935D01*
X111640000Y-99828935D01*
X111640000Y-100171065D01*
X111770928Y-100487151D01*
X112012849Y-100729072D01*
X112328935Y-100860000D01*
X112671065Y-100860000D01*
X112987151Y-100729072D01*
X113229072Y-100487151D01*
X113360000Y-100171065D01*
X113360000Y-99828935D01*
X121640000Y-99828935D01*
X121640000Y-100171065D01*
X121770928Y-100487151D01*
X122012849Y-100729072D01*
X122328935Y-100860000D01*
X122671065Y-100860000D01*
X122987151Y-100729072D01*
X123229072Y-100487151D01*
X123360000Y-100171065D01*
X123360000Y-99828935D01*
X126640000Y-99828935D01*
X126640000Y-100171065D01*
X126770928Y-100487151D01*
X127012849Y-100729072D01*
X127328935Y-100860000D01*
X127671065Y-100860000D01*
X127987151Y-100729072D01*
X128229072Y-100487151D01*
X128360000Y-100171065D01*
X128360000Y-99828935D01*
X139140000Y-99828935D01*
X139140000Y-100171065D01*
X139270928Y-100487151D01*
X139512849Y-100729072D01*
X139828935Y-100860000D01*
X140171065Y-100860000D01*
X140487151Y-100729072D01*
X140729072Y-100487151D01*
X140860000Y-100171065D01*
X140860000Y-99828935D01*
X144140000Y-99828935D01*
X144140000Y-100171065D01*
X144270928Y-100487151D01*
X144512849Y-100729072D01*
X144828935Y-100860000D01*
X145171065Y-100860000D01*
X145487151Y-100729072D01*
X145729072Y-100487151D01*
X145860000Y-100171065D01*
X145860000Y-99828935D01*
X145729072Y-99512849D01*
X145487151Y-99270928D01*
X145171065Y-99140000D01*
X144828935Y-99140000D01*
X144512849Y-99270928D01*
X144270928Y-99512849D01*
X144140000Y-99828935D01*
X140860000Y-99828935D01*
X140729072Y-99512849D01*
X140487151Y-99270928D01*
X140171065Y-99140000D01*
X139828935Y-99140000D01*
X139512849Y-99270928D01*
X139270928Y-99512849D01*
X139140000Y-99828935D01*
X128360000Y-99828935D01*
X128229072Y-99512849D01*
X127987151Y-99270928D01*
X127671065Y-99140000D01*
X127328935Y-99140000D01*
X127012849Y-99270928D01*
X126770928Y-99512849D01*
X126640000Y-99828935D01*
X123360000Y-99828935D01*
X123229072Y-99512849D01*
X122987151Y-99270928D01*
X122671065Y-99140000D01*
X122328935Y-99140000D01*
X122012849Y-99270928D01*
X121770928Y-99512849D01*
X121640000Y-99828935D01*
X113360000Y-99828935D01*
X113229072Y-99512849D01*
X112987151Y-99270928D01*
X112671065Y-99140000D01*
X112328935Y-99140000D01*
X112012849Y-99270928D01*
X111770928Y-99512849D01*
X111640000Y-99828935D01*
X108360000Y-99828935D01*
X108229072Y-99512849D01*
X107987151Y-99270928D01*
X107915917Y-99241422D01*
X107950000Y-99227304D01*
X108028935Y-99260000D01*
X108371065Y-99260000D01*
X108450000Y-99227304D01*
X108528935Y-99260000D01*
X108871065Y-99260000D01*
X109187151Y-99129072D01*
X109429072Y-98887151D01*
X109560000Y-98571065D01*
X109560000Y-98248603D01*
X109828935Y-98360000D01*
X110171065Y-98360000D01*
X110487151Y-98229072D01*
X110729072Y-97987151D01*
X110860000Y-97671065D01*
X110860000Y-97328935D01*
X110729072Y-97012849D01*
X110574712Y-96858489D01*
X110650000Y-96827304D01*
X110728935Y-96860000D01*
X111071065Y-96860000D01*
X111150000Y-96827304D01*
X111228935Y-96860000D01*
X111571065Y-96860000D01*
X111650000Y-96827304D01*
X111728935Y-96860000D01*
X112071065Y-96860000D01*
X112150000Y-96827304D01*
X112228935Y-96860000D01*
X112571065Y-96860000D01*
X112650000Y-96827304D01*
X112728935Y-96860000D01*
X113071065Y-96860000D01*
X113387151Y-96729072D01*
X113629072Y-96487151D01*
X113760000Y-96171065D01*
X113760000Y-95828935D01*
X113629072Y-95512849D01*
X113474312Y-95358089D01*
X113478925Y-95360000D01*
X113821055Y-95360000D01*
X114137141Y-95229072D01*
X114379062Y-94987151D01*
X114509990Y-94671065D01*
X114509990Y-94328935D01*
X114379062Y-94012849D01*
X114137141Y-93770928D01*
X113821055Y-93640000D01*
X113478925Y-93640000D01*
X113162839Y-93770928D01*
X112920918Y-94012849D01*
X112789990Y-94328935D01*
X112789990Y-94671065D01*
X112920918Y-94987151D01*
X113075678Y-95141911D01*
X113071065Y-95140000D01*
X112728935Y-95140000D01*
X112650000Y-95172696D01*
X112571065Y-95140000D01*
X112228935Y-95140000D01*
X112150000Y-95172696D01*
X112071065Y-95140000D01*
X111728935Y-95140000D01*
X111650000Y-95172696D01*
X111571065Y-95140000D01*
X111228935Y-95140000D01*
X111150000Y-95172696D01*
X111071065Y-95140000D01*
X110728935Y-95140000D01*
X110650000Y-95172696D01*
X110571065Y-95140000D01*
X110228935Y-95140000D01*
X110150000Y-95172696D01*
X110071065Y-95140000D01*
X109728935Y-95140000D01*
X109650000Y-95172696D01*
X109571065Y-95140000D01*
X109228935Y-95140000D01*
X108912849Y-95270928D01*
X108670928Y-95512849D01*
X108540000Y-95828935D01*
X108540000Y-96171065D01*
X108670928Y-96487151D01*
X108912849Y-96729072D01*
X109228935Y-96860000D01*
X109423777Y-96860000D01*
X109270928Y-97012849D01*
X109140000Y-97328935D01*
X109140000Y-97651397D01*
X108871065Y-97540000D01*
X108528935Y-97540000D01*
X108450000Y-97572696D01*
X108371065Y-97540000D01*
X108028935Y-97540000D01*
X107950000Y-97572696D01*
X107871065Y-97540000D01*
X107528935Y-97540000D01*
X107450000Y-97572696D01*
X107371065Y-97540000D01*
X107028935Y-97540000D01*
X106950000Y-97572696D01*
X106871065Y-97540000D01*
X106528935Y-97540000D01*
X106450000Y-97572696D01*
X106371065Y-97540000D01*
X106028935Y-97540000D01*
X105950000Y-97572696D01*
X105871065Y-97540000D01*
X105710000Y-97540000D01*
X105710000Y-92660000D01*
X105871065Y-92660000D01*
X105950000Y-92627304D01*
X106028935Y-92660000D01*
X106371065Y-92660000D01*
X106450000Y-92627304D01*
X106528935Y-92660000D01*
X106871065Y-92660000D01*
X106950000Y-92627304D01*
X107028935Y-92660000D01*
X107371065Y-92660000D01*
X107450000Y-92627304D01*
X107528935Y-92660000D01*
X107871065Y-92660000D01*
X107950000Y-92627304D01*
X108028935Y-92660000D01*
X108371065Y-92660000D01*
X108450000Y-92627304D01*
X108528935Y-92660000D01*
X108871065Y-92660000D01*
X109140000Y-92548603D01*
X109140000Y-92671065D01*
X109270928Y-92987151D01*
X109512849Y-93229072D01*
X109539231Y-93240000D01*
X109528935Y-93240000D01*
X109450000Y-93272696D01*
X109371065Y-93240000D01*
X109028935Y-93240000D01*
X108712849Y-93370928D01*
X108470928Y-93612849D01*
X108340000Y-93928935D01*
X108340000Y-94271065D01*
X108470928Y-94587151D01*
X108712849Y-94829072D01*
X109028935Y-94960000D01*
X109371065Y-94960000D01*
X109450000Y-94927304D01*
X109528935Y-94960000D01*
X109871065Y-94960000D01*
X109950000Y-94927304D01*
X110028935Y-94960000D01*
X110371065Y-94960000D01*
X110450000Y-94927304D01*
X110528935Y-94960000D01*
X110871065Y-94960000D01*
X111187151Y-94829072D01*
X111429072Y-94587151D01*
X111560000Y-94271065D01*
X111560000Y-93928935D01*
X111429072Y-93612849D01*
X111187151Y-93370928D01*
X110871065Y-93240000D01*
X110528935Y-93240000D01*
X110450000Y-93272696D01*
X110415917Y-93258578D01*
X110487151Y-93229072D01*
X110729072Y-92987151D01*
X110860000Y-92671065D01*
X110860000Y-92328935D01*
X110729072Y-92012849D01*
X110495158Y-91778935D01*
X111490000Y-91778935D01*
X111490000Y-92121065D01*
X111620928Y-92437151D01*
X111862849Y-92679072D01*
X112178935Y-92810000D01*
X112521065Y-92810000D01*
X112837151Y-92679072D01*
X112875000Y-92641223D01*
X112912849Y-92679072D01*
X113228935Y-92810000D01*
X113351828Y-92810000D01*
X113445918Y-93037151D01*
X113687839Y-93279072D01*
X114003925Y-93410000D01*
X114346055Y-93410000D01*
X114662141Y-93279072D01*
X114817250Y-93123963D01*
X114915000Y-93123963D01*
X114915000Y-93476037D01*
X115049733Y-93801312D01*
X115073421Y-93825000D01*
X115049733Y-93848688D01*
X114915000Y-94173963D01*
X114915000Y-94526037D01*
X115049733Y-94851312D01*
X115073421Y-94875000D01*
X115049733Y-94898688D01*
X114915000Y-95223963D01*
X114915000Y-95576037D01*
X115049733Y-95901312D01*
X115298688Y-96150267D01*
X115623963Y-96285000D01*
X115976037Y-96285000D01*
X116301312Y-96150267D01*
X116350000Y-96101579D01*
X116398688Y-96150267D01*
X116723963Y-96285000D01*
X117076037Y-96285000D01*
X117401312Y-96150267D01*
X117450000Y-96101579D01*
X117498688Y-96150267D01*
X117823963Y-96285000D01*
X118176037Y-96285000D01*
X118501312Y-96150267D01*
X118750267Y-95901312D01*
X118780246Y-95828935D01*
X119040000Y-95828935D01*
X119040000Y-96171065D01*
X119170928Y-96487151D01*
X119412849Y-96729072D01*
X119513373Y-96770711D01*
X119512849Y-96770928D01*
X119270928Y-97012849D01*
X119140000Y-97328935D01*
X119140000Y-97671065D01*
X119270928Y-97987151D01*
X119512849Y-98229072D01*
X119828935Y-98360000D01*
X120171065Y-98360000D01*
X120487151Y-98229072D01*
X120729072Y-97987151D01*
X120860000Y-97671065D01*
X120860000Y-97328935D01*
X120729072Y-97012849D01*
X120574712Y-96858489D01*
X120650000Y-96827304D01*
X120728935Y-96860000D01*
X121071065Y-96860000D01*
X121150000Y-96827304D01*
X121228935Y-96860000D01*
X121571065Y-96860000D01*
X121650000Y-96827304D01*
X121728935Y-96860000D01*
X122071065Y-96860000D01*
X122150000Y-96827304D01*
X122228935Y-96860000D01*
X122376328Y-96860000D01*
X122397569Y-96911280D01*
X122688720Y-97202431D01*
X123069126Y-97360000D01*
X123480874Y-97360000D01*
X123861280Y-97202431D01*
X124152431Y-96911280D01*
X124225000Y-96736083D01*
X124297569Y-96911280D01*
X124588720Y-97202431D01*
X124969126Y-97360000D01*
X125380874Y-97360000D01*
X125761280Y-97202431D01*
X126052431Y-96911280D01*
X126073672Y-96860000D01*
X126271065Y-96860000D01*
X126587151Y-96729072D01*
X126800000Y-96516223D01*
X127012849Y-96729072D01*
X127328935Y-96860000D01*
X127671065Y-96860000D01*
X127750000Y-96827304D01*
X127828935Y-96860000D01*
X128171065Y-96860000D01*
X128250000Y-96827304D01*
X128328935Y-96860000D01*
X128587515Y-96860000D01*
X128828935Y-96960000D01*
X129171065Y-96960000D01*
X129487151Y-96829072D01*
X129729072Y-96587151D01*
X129860000Y-96271065D01*
X129860000Y-95928935D01*
X129729072Y-95612849D01*
X129487151Y-95370928D01*
X129171065Y-95240000D01*
X128912485Y-95240000D01*
X128671065Y-95140000D01*
X128328935Y-95140000D01*
X128250000Y-95172696D01*
X128171065Y-95140000D01*
X127828935Y-95140000D01*
X127750000Y-95172696D01*
X127671065Y-95140000D01*
X127328935Y-95140000D01*
X127012849Y-95270928D01*
X126800000Y-95483777D01*
X126587151Y-95270928D01*
X126319349Y-95160000D01*
X126471065Y-95160000D01*
X126787151Y-95029072D01*
X127029072Y-94787151D01*
X127160000Y-94471065D01*
X127160000Y-94128935D01*
X127077157Y-93928935D01*
X128940000Y-93928935D01*
X128940000Y-94271065D01*
X129070928Y-94587151D01*
X129312849Y-94829072D01*
X129628935Y-94960000D01*
X129971065Y-94960000D01*
X130050000Y-94927304D01*
X130128935Y-94960000D01*
X130387515Y-94960000D01*
X130628935Y-95060000D01*
X130887515Y-95060000D01*
X131128935Y-95160000D01*
X131471065Y-95160000D01*
X131550000Y-95127304D01*
X131580651Y-95140000D01*
X131528935Y-95140000D01*
X131212849Y-95270928D01*
X130970928Y-95512849D01*
X130840000Y-95828935D01*
X130840000Y-96171065D01*
X130970928Y-96487151D01*
X131212849Y-96729072D01*
X131528935Y-96860000D01*
X131871065Y-96860000D01*
X131950000Y-96827304D01*
X132028935Y-96860000D01*
X132143777Y-96860000D01*
X132212849Y-96929072D01*
X132528935Y-97060000D01*
X132871065Y-97060000D01*
X132950000Y-97027304D01*
X133028935Y-97060000D01*
X133371065Y-97060000D01*
X133450000Y-97027304D01*
X133528935Y-97060000D01*
X133776838Y-97060000D01*
X133870928Y-97287151D01*
X134112849Y-97529072D01*
X134174627Y-97554661D01*
X134270928Y-97787151D01*
X134512849Y-98029072D01*
X134828935Y-98160000D01*
X134843777Y-98160000D01*
X135012849Y-98329072D01*
X135328935Y-98460000D01*
X135671065Y-98460000D01*
X135679290Y-98456593D01*
X135928935Y-98560000D01*
X136271065Y-98560000D01*
X136587151Y-98429072D01*
X136756223Y-98260000D01*
X136771065Y-98260000D01*
X137087151Y-98129072D01*
X137329072Y-97887151D01*
X137460000Y-97571065D01*
X137460000Y-97556223D01*
X137629072Y-97387151D01*
X137725373Y-97154661D01*
X137787151Y-97129072D01*
X138029072Y-96887151D01*
X138053296Y-96828669D01*
X138128935Y-96860000D01*
X138471065Y-96860000D01*
X138550000Y-96827304D01*
X138628935Y-96860000D01*
X138971065Y-96860000D01*
X139050000Y-96827304D01*
X139128935Y-96860000D01*
X139471065Y-96860000D01*
X139550000Y-96827304D01*
X139628935Y-96860000D01*
X139971065Y-96860000D01*
X140050000Y-96827304D01*
X140128935Y-96860000D01*
X140471065Y-96860000D01*
X140550000Y-96827304D01*
X140628935Y-96860000D01*
X140971065Y-96860000D01*
X141050000Y-96827304D01*
X141128935Y-96860000D01*
X141471065Y-96860000D01*
X141550000Y-96827304D01*
X141628935Y-96860000D01*
X141923777Y-96860000D01*
X141770928Y-97012849D01*
X141640000Y-97328935D01*
X141640000Y-97671065D01*
X141770928Y-97987151D01*
X142012849Y-98229072D01*
X142328935Y-98360000D01*
X142671065Y-98360000D01*
X142987151Y-98229072D01*
X143229072Y-97987151D01*
X143360000Y-97671065D01*
X143360000Y-97328935D01*
X143229072Y-97012849D01*
X143045423Y-96829200D01*
X143050000Y-96827304D01*
X143128935Y-96860000D01*
X143471065Y-96860000D01*
X143550000Y-96827304D01*
X143628935Y-96860000D01*
X143971065Y-96860000D01*
X144050000Y-96827304D01*
X144128935Y-96860000D01*
X144471065Y-96860000D01*
X144550000Y-96827304D01*
X144628935Y-96860000D01*
X144971065Y-96860000D01*
X145050000Y-96827304D01*
X145128935Y-96860000D01*
X145471065Y-96860000D01*
X145550000Y-96827304D01*
X145628935Y-96860000D01*
X145971065Y-96860000D01*
X146050000Y-96827304D01*
X146128935Y-96860000D01*
X146471065Y-96860000D01*
X146550000Y-96827304D01*
X146628935Y-96860000D01*
X146923777Y-96860000D01*
X146770928Y-97012849D01*
X146640000Y-97328935D01*
X146640000Y-97671065D01*
X146770928Y-97987151D01*
X147012849Y-98229072D01*
X147328935Y-98360000D01*
X147671065Y-98360000D01*
X147987151Y-98229072D01*
X148229072Y-97987151D01*
X148360000Y-97671065D01*
X148360000Y-97328935D01*
X148229072Y-97012849D01*
X148045423Y-96829200D01*
X148050000Y-96827304D01*
X148128935Y-96860000D01*
X148471065Y-96860000D01*
X148787151Y-96729072D01*
X149029072Y-96487151D01*
X149160000Y-96171065D01*
X149160000Y-95828935D01*
X149029072Y-95512849D01*
X148787151Y-95270928D01*
X148471065Y-95140000D01*
X148128935Y-95140000D01*
X148050000Y-95172696D01*
X147971065Y-95140000D01*
X147628935Y-95140000D01*
X147550000Y-95172696D01*
X147471065Y-95140000D01*
X147128935Y-95140000D01*
X147050000Y-95172696D01*
X146971065Y-95140000D01*
X146628935Y-95140000D01*
X146550000Y-95172696D01*
X146471065Y-95140000D01*
X146128935Y-95140000D01*
X146050000Y-95172696D01*
X145971065Y-95140000D01*
X145628935Y-95140000D01*
X145550000Y-95172696D01*
X145471065Y-95140000D01*
X145128935Y-95140000D01*
X145050000Y-95172696D01*
X144971065Y-95140000D01*
X144628935Y-95140000D01*
X144550000Y-95172696D01*
X144471065Y-95140000D01*
X144128935Y-95140000D01*
X144050000Y-95172696D01*
X143971065Y-95140000D01*
X143628935Y-95140000D01*
X143550000Y-95172696D01*
X143471065Y-95140000D01*
X143128935Y-95140000D01*
X143050000Y-95172696D01*
X142971065Y-95140000D01*
X142628935Y-95140000D01*
X142550000Y-95172696D01*
X142471065Y-95140000D01*
X142128935Y-95140000D01*
X142050000Y-95172696D01*
X141971065Y-95140000D01*
X141628935Y-95140000D01*
X141550000Y-95172696D01*
X141471065Y-95140000D01*
X141128935Y-95140000D01*
X141050000Y-95172696D01*
X140971065Y-95140000D01*
X140628935Y-95140000D01*
X140550000Y-95172696D01*
X140471065Y-95140000D01*
X140128935Y-95140000D01*
X140050000Y-95172696D01*
X139971065Y-95140000D01*
X139628935Y-95140000D01*
X139550000Y-95172696D01*
X139471065Y-95140000D01*
X139128935Y-95140000D01*
X139050000Y-95172696D01*
X138971065Y-95140000D01*
X138628935Y-95140000D01*
X138550000Y-95172696D01*
X138471065Y-95140000D01*
X138128935Y-95140000D01*
X138050000Y-95172696D01*
X137971065Y-95140000D01*
X137919349Y-95140000D01*
X138187151Y-95029072D01*
X138256223Y-94960000D01*
X138471065Y-94960000D01*
X138550000Y-94927304D01*
X138628935Y-94960000D01*
X138971065Y-94960000D01*
X139050000Y-94927304D01*
X139128935Y-94960000D01*
X139471065Y-94960000D01*
X139550000Y-94927304D01*
X139628935Y-94960000D01*
X139971065Y-94960000D01*
X140050000Y-94927304D01*
X140128935Y-94960000D01*
X140471065Y-94960000D01*
X140550000Y-94927304D01*
X140628935Y-94960000D01*
X140971065Y-94960000D01*
X141050000Y-94927304D01*
X141128935Y-94960000D01*
X141471065Y-94960000D01*
X141550000Y-94927304D01*
X141628935Y-94960000D01*
X141971065Y-94960000D01*
X142050000Y-94927304D01*
X142128935Y-94960000D01*
X142471065Y-94960000D01*
X142550000Y-94927304D01*
X142628935Y-94960000D01*
X142971065Y-94960000D01*
X143050000Y-94927304D01*
X143128935Y-94960000D01*
X143471065Y-94960000D01*
X143550000Y-94927304D01*
X143628935Y-94960000D01*
X143971065Y-94960000D01*
X144050000Y-94927304D01*
X144128935Y-94960000D01*
X144471065Y-94960000D01*
X144550000Y-94927304D01*
X144628935Y-94960000D01*
X144971065Y-94960000D01*
X145050000Y-94927304D01*
X145128935Y-94960000D01*
X145471065Y-94960000D01*
X145550000Y-94927304D01*
X145628935Y-94960000D01*
X145971065Y-94960000D01*
X146050000Y-94927304D01*
X146128935Y-94960000D01*
X146471065Y-94960000D01*
X146550000Y-94927304D01*
X146628935Y-94960000D01*
X146971065Y-94960000D01*
X147050000Y-94927304D01*
X147128935Y-94960000D01*
X147471065Y-94960000D01*
X147550000Y-94927304D01*
X147628935Y-94960000D01*
X147971065Y-94960000D01*
X148050000Y-94927304D01*
X148128935Y-94960000D01*
X148471065Y-94960000D01*
X148787151Y-94829072D01*
X149029072Y-94587151D01*
X149160000Y-94271065D01*
X149160000Y-93928935D01*
X149029072Y-93612849D01*
X148787151Y-93370928D01*
X148471065Y-93240000D01*
X148128935Y-93240000D01*
X148050000Y-93272696D01*
X147971065Y-93240000D01*
X147960769Y-93240000D01*
X147987151Y-93229072D01*
X148229072Y-92987151D01*
X148360000Y-92671065D01*
X148360000Y-92328935D01*
X148229072Y-92012849D01*
X147987151Y-91770928D01*
X147671065Y-91640000D01*
X147328935Y-91640000D01*
X147012849Y-91770928D01*
X146770928Y-92012849D01*
X146640000Y-92328935D01*
X146640000Y-92671065D01*
X146770928Y-92987151D01*
X147012849Y-93229072D01*
X147084083Y-93258578D01*
X147050000Y-93272696D01*
X146971065Y-93240000D01*
X146628935Y-93240000D01*
X146550000Y-93272696D01*
X146471065Y-93240000D01*
X146128935Y-93240000D01*
X146050000Y-93272696D01*
X145971065Y-93240000D01*
X145628935Y-93240000D01*
X145550000Y-93272696D01*
X145471065Y-93240000D01*
X145460769Y-93240000D01*
X145487151Y-93229072D01*
X145729072Y-92987151D01*
X145804662Y-92804662D01*
X145987151Y-92729072D01*
X146229072Y-92487151D01*
X146304662Y-92304662D01*
X146487151Y-92229072D01*
X146729072Y-91987151D01*
X146860000Y-91671065D01*
X146860000Y-91412485D01*
X146960000Y-91171065D01*
X146960000Y-90828935D01*
X146927304Y-90750000D01*
X146960000Y-90671065D01*
X146960000Y-90328935D01*
X146927304Y-90250000D01*
X146960000Y-90171065D01*
X146960000Y-89828935D01*
X149140000Y-89828935D01*
X149140000Y-90171065D01*
X149270928Y-90487151D01*
X149512849Y-90729072D01*
X149828935Y-90860000D01*
X150171065Y-90860000D01*
X150487151Y-90729072D01*
X150729072Y-90487151D01*
X150860000Y-90171065D01*
X150860000Y-89828935D01*
X150729072Y-89512849D01*
X150487151Y-89270928D01*
X150171065Y-89140000D01*
X149828935Y-89140000D01*
X149512849Y-89270928D01*
X149270928Y-89512849D01*
X149140000Y-89828935D01*
X146960000Y-89828935D01*
X146927304Y-89750000D01*
X146960000Y-89671065D01*
X146960000Y-89328935D01*
X146927304Y-89250000D01*
X146960000Y-89171065D01*
X146960000Y-88828935D01*
X146927304Y-88750000D01*
X146960000Y-88671065D01*
X146960000Y-88328935D01*
X146927304Y-88250000D01*
X146958489Y-88174712D01*
X147012849Y-88229072D01*
X147328935Y-88360000D01*
X147671065Y-88360000D01*
X147987151Y-88229072D01*
X148229072Y-87987151D01*
X148360000Y-87671065D01*
X148360000Y-87328935D01*
X148229072Y-87012849D01*
X147987151Y-86770928D01*
X147671065Y-86640000D01*
X147328935Y-86640000D01*
X147012849Y-86770928D01*
X146826408Y-86957369D01*
X146945000Y-86671065D01*
X146945000Y-86328935D01*
X146814072Y-86012849D01*
X146572151Y-85770928D01*
X146256065Y-85640000D01*
X145913935Y-85640000D01*
X145597849Y-85770928D01*
X145355928Y-86012849D01*
X145225000Y-86328935D01*
X145225000Y-86671065D01*
X145355928Y-86987151D01*
X145597849Y-87229072D01*
X145655873Y-87253107D01*
X145612849Y-87270928D01*
X145370928Y-87512849D01*
X145240000Y-87828935D01*
X145240000Y-88171065D01*
X145272696Y-88250000D01*
X145240000Y-88328935D01*
X145240000Y-88671065D01*
X145272696Y-88750000D01*
X145240000Y-88828935D01*
X145240000Y-89171065D01*
X145272696Y-89250000D01*
X145240000Y-89328935D01*
X145240000Y-89671065D01*
X145272696Y-89750000D01*
X145240000Y-89828935D01*
X145240000Y-90171065D01*
X145272696Y-90250000D01*
X145240000Y-90328935D01*
X145240000Y-90671065D01*
X145272696Y-90750000D01*
X145240000Y-90828935D01*
X145240000Y-91087515D01*
X145195338Y-91195338D01*
X145012849Y-91270928D01*
X144770928Y-91512849D01*
X144695338Y-91695338D01*
X144512849Y-91770928D01*
X144270928Y-92012849D01*
X144195338Y-92195338D01*
X144068238Y-92247985D01*
X144129072Y-92187151D01*
X144225373Y-91954661D01*
X144287151Y-91929072D01*
X144529072Y-91687151D01*
X144625373Y-91454661D01*
X144687151Y-91429072D01*
X144929072Y-91187151D01*
X145060000Y-90871065D01*
X145060000Y-90528935D01*
X145027304Y-90450000D01*
X145060000Y-90371065D01*
X145060000Y-90028935D01*
X145027304Y-89950000D01*
X145060000Y-89871065D01*
X145060000Y-89528935D01*
X145027304Y-89450000D01*
X145060000Y-89371065D01*
X145060000Y-89028935D01*
X145027304Y-88950000D01*
X145060000Y-88871065D01*
X145060000Y-88528935D01*
X145027304Y-88450000D01*
X145060000Y-88371065D01*
X145060000Y-88028935D01*
X144929072Y-87712849D01*
X144687151Y-87470928D01*
X144371065Y-87340000D01*
X144028935Y-87340000D01*
X143779290Y-87443407D01*
X143771065Y-87440000D01*
X143428935Y-87440000D01*
X143300000Y-87493407D01*
X143171065Y-87440000D01*
X142912485Y-87440000D01*
X142671065Y-87340000D01*
X142579704Y-87340000D01*
X142787151Y-87254072D01*
X143029072Y-87012151D01*
X143160000Y-86696065D01*
X143160000Y-86353935D01*
X143029072Y-86037849D01*
X142787151Y-85795928D01*
X142471065Y-85665000D01*
X142128935Y-85665000D01*
X141812849Y-85795928D01*
X141570928Y-86037849D01*
X141440000Y-86353935D01*
X141440000Y-86696065D01*
X141570928Y-87012151D01*
X141798777Y-87240000D01*
X141728935Y-87240000D01*
X141600000Y-87293407D01*
X141471065Y-87240000D01*
X141128935Y-87240000D01*
X140987356Y-87298645D01*
X140961280Y-87272569D01*
X140580874Y-87115000D01*
X140169126Y-87115000D01*
X139788720Y-87272569D01*
X139497569Y-87563720D01*
X139340000Y-87944126D01*
X139340000Y-88355874D01*
X139497569Y-88736280D01*
X139788720Y-89027431D01*
X140169126Y-89185000D01*
X140580874Y-89185000D01*
X140961280Y-89027431D01*
X141058066Y-88930645D01*
X141128935Y-88960000D01*
X141471065Y-88960000D01*
X141600000Y-88906593D01*
X141728935Y-88960000D01*
X142071065Y-88960000D01*
X142079290Y-88956593D01*
X142328935Y-89060000D01*
X142587515Y-89060000D01*
X142828935Y-89160000D01*
X143171065Y-89160000D01*
X143300000Y-89106593D01*
X143340000Y-89123162D01*
X143340000Y-89371065D01*
X143372696Y-89450000D01*
X143340000Y-89528935D01*
X143340000Y-89871065D01*
X143372696Y-89950000D01*
X143340000Y-90028935D01*
X143340000Y-90371065D01*
X143371331Y-90446704D01*
X143312849Y-90470928D01*
X143070928Y-90712849D01*
X142974627Y-90945339D01*
X142912849Y-90970928D01*
X142743777Y-91140000D01*
X142628935Y-91140000D01*
X142379290Y-91243407D01*
X142371065Y-91240000D01*
X142360000Y-91240000D01*
X142360000Y-91128935D01*
X142229072Y-90812849D01*
X141987151Y-90570928D01*
X141671065Y-90440000D01*
X141328935Y-90440000D01*
X141012849Y-90570928D01*
X140770928Y-90812849D01*
X140640000Y-91128935D01*
X140640000Y-91140000D01*
X140528935Y-91140000D01*
X140450000Y-91172696D01*
X140371065Y-91140000D01*
X140028935Y-91140000D01*
X139950000Y-91172696D01*
X139871065Y-91140000D01*
X139528935Y-91140000D01*
X139450000Y-91172696D01*
X139371065Y-91140000D01*
X139093872Y-91140000D01*
X138979072Y-90862849D01*
X138737151Y-90620928D01*
X138421065Y-90490000D01*
X138078935Y-90490000D01*
X137762849Y-90620928D01*
X137520928Y-90862849D01*
X137390000Y-91178935D01*
X137390000Y-91340000D01*
X137128935Y-91340000D01*
X137050000Y-91372696D01*
X136971065Y-91340000D01*
X136628935Y-91340000D01*
X136550000Y-91372696D01*
X136471065Y-91340000D01*
X136128935Y-91340000D01*
X135812849Y-91470928D01*
X135643777Y-91640000D01*
X135628935Y-91640000D01*
X135312849Y-91770928D01*
X135143777Y-91940000D01*
X135128935Y-91940000D01*
X134812849Y-92070928D01*
X134570928Y-92312849D01*
X134495338Y-92495338D01*
X134312849Y-92570928D01*
X134070928Y-92812849D01*
X134045339Y-92874627D01*
X133812849Y-92970928D01*
X133570928Y-93212849D01*
X133546704Y-93271331D01*
X133471065Y-93240000D01*
X133128935Y-93240000D01*
X133050000Y-93272696D01*
X132971065Y-93240000D01*
X132628935Y-93240000D01*
X132387515Y-93340000D01*
X132128935Y-93340000D01*
X131887515Y-93440000D01*
X131628935Y-93440000D01*
X131550000Y-93472696D01*
X131471065Y-93440000D01*
X131212485Y-93440000D01*
X130971065Y-93340000D01*
X130712485Y-93340000D01*
X130471065Y-93240000D01*
X130128935Y-93240000D01*
X130050000Y-93272696D01*
X129971065Y-93240000D01*
X129628935Y-93240000D01*
X129312849Y-93370928D01*
X129070928Y-93612849D01*
X128940000Y-93928935D01*
X127077157Y-93928935D01*
X127029072Y-93812849D01*
X126787151Y-93570928D01*
X126471065Y-93440000D01*
X126456223Y-93440000D01*
X126287151Y-93270928D01*
X125971065Y-93140000D01*
X125628935Y-93140000D01*
X125550000Y-93172696D01*
X125471065Y-93140000D01*
X125128935Y-93140000D01*
X125050000Y-93172696D01*
X124971065Y-93140000D01*
X124628935Y-93140000D01*
X124312849Y-93270928D01*
X124293777Y-93290000D01*
X124206223Y-93290000D01*
X124187151Y-93270928D01*
X123871065Y-93140000D01*
X123528935Y-93140000D01*
X123450000Y-93172696D01*
X123371065Y-93140000D01*
X123028935Y-93140000D01*
X122787515Y-93240000D01*
X122528935Y-93240000D01*
X122212849Y-93370928D01*
X122143777Y-93440000D01*
X122112485Y-93440000D01*
X121871065Y-93340000D01*
X121528935Y-93340000D01*
X121450000Y-93372696D01*
X121371065Y-93340000D01*
X121028935Y-93340000D01*
X120712849Y-93470928D01*
X120470928Y-93712849D01*
X120340000Y-94028935D01*
X120340000Y-94371065D01*
X120470928Y-94687151D01*
X120712849Y-94929072D01*
X121028935Y-95060000D01*
X121371065Y-95060000D01*
X121450000Y-95027304D01*
X121528935Y-95060000D01*
X121787515Y-95060000D01*
X121980651Y-95140000D01*
X121728935Y-95140000D01*
X121650000Y-95172696D01*
X121571065Y-95140000D01*
X121228935Y-95140000D01*
X121150000Y-95172696D01*
X121071065Y-95140000D01*
X120728935Y-95140000D01*
X120650000Y-95172696D01*
X120571065Y-95140000D01*
X120228935Y-95140000D01*
X120150000Y-95172696D01*
X120071065Y-95140000D01*
X119728935Y-95140000D01*
X119412849Y-95270928D01*
X119170928Y-95512849D01*
X119040000Y-95828935D01*
X118780246Y-95828935D01*
X118885000Y-95576037D01*
X118885000Y-95223963D01*
X118750267Y-94898688D01*
X118726579Y-94875000D01*
X118750267Y-94851312D01*
X118885000Y-94526037D01*
X118885000Y-94173963D01*
X118750267Y-93848688D01*
X118726579Y-93825000D01*
X118750267Y-93801312D01*
X118885000Y-93476037D01*
X118885000Y-93123963D01*
X118750267Y-92798688D01*
X118501312Y-92549733D01*
X118176037Y-92415000D01*
X117823963Y-92415000D01*
X117498688Y-92549733D01*
X117450000Y-92598421D01*
X117401312Y-92549733D01*
X117076037Y-92415000D01*
X116723963Y-92415000D01*
X116398688Y-92549733D01*
X116350000Y-92598421D01*
X116301312Y-92549733D01*
X115976037Y-92415000D01*
X115623963Y-92415000D01*
X115298688Y-92549733D01*
X115049733Y-92798688D01*
X114915000Y-93123963D01*
X114817250Y-93123963D01*
X114904062Y-93037151D01*
X115034990Y-92721065D01*
X115034990Y-92378935D01*
X114904062Y-92062849D01*
X114662141Y-91820928D01*
X114346055Y-91690000D01*
X114223162Y-91690000D01*
X114129072Y-91462849D01*
X113887151Y-91220928D01*
X113571065Y-91090000D01*
X113228935Y-91090000D01*
X112912849Y-91220928D01*
X112875000Y-91258777D01*
X112837151Y-91220928D01*
X112521065Y-91090000D01*
X112178935Y-91090000D01*
X111862849Y-91220928D01*
X111620928Y-91462849D01*
X111490000Y-91778935D01*
X110495158Y-91778935D01*
X110487151Y-91770928D01*
X110171065Y-91640000D01*
X109828935Y-91640000D01*
X109560000Y-91751397D01*
X109560000Y-91628935D01*
X109429072Y-91312849D01*
X109187151Y-91070928D01*
X109071569Y-91023052D01*
X114691468Y-91023052D01*
X114691468Y-91365182D01*
X114822396Y-91681268D01*
X115064317Y-91923189D01*
X115380403Y-92054117D01*
X115462894Y-92054117D01*
X115637849Y-92229072D01*
X115953935Y-92360000D01*
X116296065Y-92360000D01*
X116612151Y-92229072D01*
X116705036Y-92136187D01*
X117003945Y-92260000D01*
X117346075Y-92260000D01*
X117662161Y-92129072D01*
X117904082Y-91887151D01*
X117987003Y-91686963D01*
X118112151Y-91635125D01*
X118354072Y-91393204D01*
X118359982Y-91378935D01*
X127890000Y-91378935D01*
X127890000Y-91721065D01*
X128020928Y-92037151D01*
X128262849Y-92279072D01*
X128578935Y-92410000D01*
X128921065Y-92410000D01*
X129237151Y-92279072D01*
X129479072Y-92037151D01*
X129610000Y-91721065D01*
X129610000Y-91378935D01*
X129479072Y-91062849D01*
X129237151Y-90820928D01*
X128921065Y-90690000D01*
X128578935Y-90690000D01*
X128262849Y-90820928D01*
X128020928Y-91062849D01*
X127890000Y-91378935D01*
X118359982Y-91378935D01*
X118377510Y-91336619D01*
X118637151Y-91229072D01*
X118879072Y-90987151D01*
X119010000Y-90671065D01*
X119010000Y-90328935D01*
X118879072Y-90012849D01*
X118695158Y-89828935D01*
X121640000Y-89828935D01*
X121640000Y-90171065D01*
X121770928Y-90487151D01*
X122012849Y-90729072D01*
X122328935Y-90860000D01*
X122671065Y-90860000D01*
X122987151Y-90729072D01*
X123229072Y-90487151D01*
X123360000Y-90171065D01*
X123360000Y-89828935D01*
X123229072Y-89512849D01*
X123095158Y-89378935D01*
X133290000Y-89378935D01*
X133290000Y-89721065D01*
X133420928Y-90037151D01*
X133662849Y-90279072D01*
X133978935Y-90410000D01*
X134321065Y-90410000D01*
X134637151Y-90279072D01*
X134879072Y-90037151D01*
X134925000Y-89926272D01*
X134970928Y-90037151D01*
X135212849Y-90279072D01*
X135528935Y-90410000D01*
X135871065Y-90410000D01*
X136187151Y-90279072D01*
X136200000Y-90266223D01*
X136212849Y-90279072D01*
X136528935Y-90410000D01*
X136871065Y-90410000D01*
X137187151Y-90279072D01*
X137225000Y-90241223D01*
X137262849Y-90279072D01*
X137578935Y-90410000D01*
X137921065Y-90410000D01*
X138237151Y-90279072D01*
X138479072Y-90037151D01*
X138610000Y-89721065D01*
X138610000Y-89378935D01*
X138479072Y-89062849D01*
X138237151Y-88820928D01*
X137921065Y-88690000D01*
X137578935Y-88690000D01*
X137262849Y-88820928D01*
X137225000Y-88858777D01*
X137187151Y-88820928D01*
X136871065Y-88690000D01*
X136528935Y-88690000D01*
X136212849Y-88820928D01*
X136200000Y-88833777D01*
X136187151Y-88820928D01*
X135871065Y-88690000D01*
X135528935Y-88690000D01*
X135212849Y-88820928D01*
X134970928Y-89062849D01*
X134925000Y-89173728D01*
X134879072Y-89062849D01*
X134637151Y-88820928D01*
X134321065Y-88690000D01*
X133978935Y-88690000D01*
X133662849Y-88820928D01*
X133420928Y-89062849D01*
X133290000Y-89378935D01*
X123095158Y-89378935D01*
X122987151Y-89270928D01*
X122671065Y-89140000D01*
X122328935Y-89140000D01*
X122012849Y-89270928D01*
X121770928Y-89512849D01*
X121640000Y-89828935D01*
X118695158Y-89828935D01*
X118637151Y-89770928D01*
X118321065Y-89640000D01*
X117978935Y-89640000D01*
X117662849Y-89770928D01*
X117420928Y-90012849D01*
X117397490Y-90069434D01*
X117137849Y-90176981D01*
X117061704Y-90253126D01*
X116821065Y-90153449D01*
X116478935Y-90153449D01*
X116162849Y-90284377D01*
X115998711Y-90448515D01*
X115722533Y-90334117D01*
X115380403Y-90334117D01*
X115064317Y-90465045D01*
X114822396Y-90706966D01*
X114691468Y-91023052D01*
X109071569Y-91023052D01*
X108871065Y-90940000D01*
X108528935Y-90940000D01*
X108450000Y-90972696D01*
X108371065Y-90940000D01*
X108028935Y-90940000D01*
X107950000Y-90972696D01*
X107871065Y-90940000D01*
X107528935Y-90940000D01*
X107450000Y-90972696D01*
X107371065Y-90940000D01*
X107028935Y-90940000D01*
X106950000Y-90972696D01*
X106871065Y-90940000D01*
X106528935Y-90940000D01*
X106450000Y-90972696D01*
X106371065Y-90940000D01*
X106028935Y-90940000D01*
X105950000Y-90972696D01*
X105871065Y-90940000D01*
X105710000Y-90940000D01*
X105710000Y-89828935D01*
X106640000Y-89828935D01*
X106640000Y-90171065D01*
X106770928Y-90487151D01*
X107012849Y-90729072D01*
X107328935Y-90860000D01*
X107671065Y-90860000D01*
X107987151Y-90729072D01*
X108229072Y-90487151D01*
X108360000Y-90171065D01*
X108360000Y-89828935D01*
X108229072Y-89512849D01*
X107987151Y-89270928D01*
X107671065Y-89140000D01*
X107328935Y-89140000D01*
X107012849Y-89270928D01*
X106770928Y-89512849D01*
X106640000Y-89828935D01*
X105710000Y-89828935D01*
X105710000Y-87328935D01*
X109140000Y-87328935D01*
X109140000Y-87671065D01*
X109270928Y-87987151D01*
X109512849Y-88229072D01*
X109828935Y-88360000D01*
X110171065Y-88360000D01*
X110487151Y-88229072D01*
X110729072Y-87987151D01*
X110860000Y-87671065D01*
X110860000Y-87328935D01*
X110729072Y-87012849D01*
X110487151Y-86770928D01*
X110171065Y-86640000D01*
X109828935Y-86640000D01*
X109512849Y-86770928D01*
X109270928Y-87012849D01*
X109140000Y-87328935D01*
X105710000Y-87328935D01*
X105710000Y-84828935D01*
X106640000Y-84828935D01*
X106640000Y-85171065D01*
X106770928Y-85487151D01*
X107012849Y-85729072D01*
X107328935Y-85860000D01*
X107671065Y-85860000D01*
X107987151Y-85729072D01*
X108229072Y-85487151D01*
X108360000Y-85171065D01*
X108360000Y-84828935D01*
X111640000Y-84828935D01*
X111640000Y-85171065D01*
X111770928Y-85487151D01*
X112012849Y-85729072D01*
X112328935Y-85860000D01*
X112671065Y-85860000D01*
X112987151Y-85729072D01*
X113229072Y-85487151D01*
X113360000Y-85171065D01*
X113360000Y-84828935D01*
X113229072Y-84512849D01*
X112987151Y-84270928D01*
X112671065Y-84140000D01*
X112328935Y-84140000D01*
X112012849Y-84270928D01*
X111770928Y-84512849D01*
X111640000Y-84828935D01*
X108360000Y-84828935D01*
X108229072Y-84512849D01*
X107987151Y-84270928D01*
X107671065Y-84140000D01*
X107328935Y-84140000D01*
X107012849Y-84270928D01*
X106770928Y-84512849D01*
X106640000Y-84828935D01*
X105710000Y-84828935D01*
X105710000Y-82328935D01*
X109140000Y-82328935D01*
X109140000Y-82671065D01*
X109270928Y-82987151D01*
X109512849Y-83229072D01*
X109828935Y-83360000D01*
X110171065Y-83360000D01*
X110487151Y-83229072D01*
X110729072Y-82987151D01*
X110860000Y-82671065D01*
X110860000Y-82328935D01*
X114140000Y-82328935D01*
X114140000Y-82671065D01*
X114270928Y-82987151D01*
X114512849Y-83229072D01*
X114828935Y-83360000D01*
X115171065Y-83360000D01*
X115487151Y-83229072D01*
X115729072Y-82987151D01*
X115802560Y-82809736D01*
X115802560Y-82950000D01*
X115851843Y-83197765D01*
X115992191Y-83407809D01*
X116202235Y-83548157D01*
X116247619Y-83557184D01*
X116229375Y-83569375D01*
X115901161Y-84060582D01*
X115785908Y-84640000D01*
X115901161Y-85219418D01*
X116229375Y-85710625D01*
X116527761Y-85910000D01*
X116229375Y-86109375D01*
X115901161Y-86600582D01*
X115785908Y-87180000D01*
X115901161Y-87759418D01*
X116229375Y-88250625D01*
X116720582Y-88578839D01*
X117153744Y-88665000D01*
X117446256Y-88665000D01*
X117879418Y-88578839D01*
X118370625Y-88250625D01*
X118570000Y-87952239D01*
X118769375Y-88250625D01*
X119260582Y-88578839D01*
X119693744Y-88665000D01*
X119986256Y-88665000D01*
X120419418Y-88578839D01*
X120910625Y-88250625D01*
X121238839Y-87759418D01*
X121354092Y-87180000D01*
X121238839Y-86600582D01*
X120910625Y-86109375D01*
X120612239Y-85910000D01*
X120910625Y-85710625D01*
X121238839Y-85219418D01*
X121316510Y-84828935D01*
X121640000Y-84828935D01*
X121640000Y-85171065D01*
X121770928Y-85487151D01*
X122012849Y-85729072D01*
X122328935Y-85860000D01*
X122671065Y-85860000D01*
X122987151Y-85729072D01*
X123229072Y-85487151D01*
X123360000Y-85171065D01*
X123360000Y-84828935D01*
X123229072Y-84512849D01*
X122987151Y-84270928D01*
X122671065Y-84140000D01*
X122328935Y-84140000D01*
X122012849Y-84270928D01*
X121770928Y-84512849D01*
X121640000Y-84828935D01*
X121316510Y-84828935D01*
X121354092Y-84640000D01*
X121238839Y-84060582D01*
X120910625Y-83569375D01*
X120612239Y-83370000D01*
X120910625Y-83170625D01*
X121238839Y-82679418D01*
X121308554Y-82328935D01*
X124140000Y-82328935D01*
X124140000Y-82671065D01*
X124270928Y-82987151D01*
X124512849Y-83229072D01*
X124828935Y-83360000D01*
X125171065Y-83360000D01*
X125487151Y-83229072D01*
X125729072Y-82987151D01*
X125809026Y-82794126D01*
X129565000Y-82794126D01*
X129565000Y-83205874D01*
X129722569Y-83586280D01*
X130013720Y-83877431D01*
X130394126Y-84035000D01*
X130805874Y-84035000D01*
X131186280Y-83877431D01*
X131469585Y-83594126D01*
X132165000Y-83594126D01*
X132165000Y-84005874D01*
X132322569Y-84386280D01*
X132613720Y-84677431D01*
X132994126Y-84835000D01*
X133405874Y-84835000D01*
X133786280Y-84677431D01*
X134077431Y-84386280D01*
X134235000Y-84005874D01*
X134235000Y-83928935D01*
X135390000Y-83928935D01*
X135390000Y-84271065D01*
X135520928Y-84587151D01*
X135762849Y-84829072D01*
X136078935Y-84960000D01*
X136421065Y-84960000D01*
X136737151Y-84829072D01*
X136979072Y-84587151D01*
X137110000Y-84271065D01*
X137110000Y-84119126D01*
X139340000Y-84119126D01*
X139340000Y-84530874D01*
X139497569Y-84911280D01*
X139788720Y-85202431D01*
X140169126Y-85360000D01*
X140580874Y-85360000D01*
X140961280Y-85202431D01*
X141252431Y-84911280D01*
X141286539Y-84828935D01*
X144140000Y-84828935D01*
X144140000Y-85171065D01*
X144270928Y-85487151D01*
X144512849Y-85729072D01*
X144828935Y-85860000D01*
X145171065Y-85860000D01*
X145487151Y-85729072D01*
X145729072Y-85487151D01*
X145860000Y-85171065D01*
X145860000Y-84828935D01*
X149140000Y-84828935D01*
X149140000Y-85171065D01*
X149270928Y-85487151D01*
X149512849Y-85729072D01*
X149828935Y-85860000D01*
X150171065Y-85860000D01*
X150487151Y-85729072D01*
X150729072Y-85487151D01*
X150860000Y-85171065D01*
X150860000Y-84828935D01*
X150729072Y-84512849D01*
X150487151Y-84270928D01*
X150171065Y-84140000D01*
X149828935Y-84140000D01*
X149512849Y-84270928D01*
X149270928Y-84512849D01*
X149140000Y-84828935D01*
X145860000Y-84828935D01*
X145729072Y-84512849D01*
X145487151Y-84270928D01*
X145171065Y-84140000D01*
X144828935Y-84140000D01*
X144512849Y-84270928D01*
X144270928Y-84512849D01*
X144140000Y-84828935D01*
X141286539Y-84828935D01*
X141410000Y-84530874D01*
X141410000Y-84119126D01*
X141252431Y-83738720D01*
X140961280Y-83447569D01*
X140916294Y-83428935D01*
X141890000Y-83428935D01*
X141890000Y-83771065D01*
X142020928Y-84087151D01*
X142262849Y-84329072D01*
X142578935Y-84460000D01*
X142921065Y-84460000D01*
X143237151Y-84329072D01*
X143300000Y-84266223D01*
X143362849Y-84329072D01*
X143678935Y-84460000D01*
X144021065Y-84460000D01*
X144337151Y-84329072D01*
X144579072Y-84087151D01*
X144710000Y-83771065D01*
X144710000Y-83428935D01*
X144579072Y-83112849D01*
X144337151Y-82870928D01*
X144021065Y-82740000D01*
X143678935Y-82740000D01*
X143362849Y-82870928D01*
X143300000Y-82933777D01*
X143237151Y-82870928D01*
X142921065Y-82740000D01*
X142578935Y-82740000D01*
X142262849Y-82870928D01*
X142020928Y-83112849D01*
X141890000Y-83428935D01*
X140916294Y-83428935D01*
X140580874Y-83290000D01*
X140169126Y-83290000D01*
X139788720Y-83447569D01*
X139497569Y-83738720D01*
X139340000Y-84119126D01*
X137110000Y-84119126D01*
X137110000Y-83928935D01*
X136979072Y-83612849D01*
X136737151Y-83370928D01*
X136421065Y-83240000D01*
X136078935Y-83240000D01*
X135762849Y-83370928D01*
X135520928Y-83612849D01*
X135390000Y-83928935D01*
X134235000Y-83928935D01*
X134235000Y-83594126D01*
X134077431Y-83213720D01*
X133786280Y-82922569D01*
X133405874Y-82765000D01*
X132994126Y-82765000D01*
X132613720Y-82922569D01*
X132322569Y-83213720D01*
X132165000Y-83594126D01*
X131469585Y-83594126D01*
X131477431Y-83586280D01*
X131635000Y-83205874D01*
X131635000Y-82794126D01*
X131477431Y-82413720D01*
X131392646Y-82328935D01*
X146640000Y-82328935D01*
X146640000Y-82671065D01*
X146770928Y-82987151D01*
X147012849Y-83229072D01*
X147328935Y-83360000D01*
X147671065Y-83360000D01*
X147987151Y-83229072D01*
X148229072Y-82987151D01*
X148360000Y-82671065D01*
X148360000Y-82328935D01*
X148229072Y-82012849D01*
X147987151Y-81770928D01*
X147671065Y-81640000D01*
X147328935Y-81640000D01*
X147012849Y-81770928D01*
X146770928Y-82012849D01*
X146640000Y-82328935D01*
X131392646Y-82328935D01*
X131186280Y-82122569D01*
X130805874Y-81965000D01*
X130394126Y-81965000D01*
X130013720Y-82122569D01*
X129722569Y-82413720D01*
X129565000Y-82794126D01*
X125809026Y-82794126D01*
X125860000Y-82671065D01*
X125860000Y-82328935D01*
X125729072Y-82012849D01*
X125487151Y-81770928D01*
X125171065Y-81640000D01*
X124828935Y-81640000D01*
X124512849Y-81770928D01*
X124270928Y-82012849D01*
X124140000Y-82328935D01*
X121308554Y-82328935D01*
X121354092Y-82100000D01*
X121238839Y-81520582D01*
X120910625Y-81029375D01*
X120419418Y-80701161D01*
X119986256Y-80615000D01*
X119693744Y-80615000D01*
X119260582Y-80701161D01*
X118769375Y-81029375D01*
X118757184Y-81047619D01*
X118748157Y-81002235D01*
X118607809Y-80792191D01*
X118397765Y-80651843D01*
X118150000Y-80602560D01*
X118113663Y-80602560D01*
X118229072Y-80487151D01*
X118360000Y-80171065D01*
X118360000Y-79828935D01*
X121640000Y-79828935D01*
X121640000Y-80171065D01*
X121770928Y-80487151D01*
X122012849Y-80729072D01*
X122328935Y-80860000D01*
X122671065Y-80860000D01*
X122987151Y-80729072D01*
X123229072Y-80487151D01*
X123350447Y-80194126D01*
X126665000Y-80194126D01*
X126665000Y-80605874D01*
X126822569Y-80986280D01*
X127113720Y-81277431D01*
X127494126Y-81435000D01*
X127905874Y-81435000D01*
X128286280Y-81277431D01*
X128577431Y-80986280D01*
X128735000Y-80605874D01*
X128735000Y-80194126D01*
X128583734Y-79828935D01*
X134140000Y-79828935D01*
X134140000Y-80171065D01*
X134270928Y-80487151D01*
X134512849Y-80729072D01*
X134828935Y-80860000D01*
X135171065Y-80860000D01*
X135487151Y-80729072D01*
X135729072Y-80487151D01*
X135860000Y-80171065D01*
X135860000Y-79828935D01*
X139140000Y-79828935D01*
X139140000Y-80171065D01*
X139270928Y-80487151D01*
X139512849Y-80729072D01*
X139828935Y-80860000D01*
X140171065Y-80860000D01*
X140487151Y-80729072D01*
X140729072Y-80487151D01*
X140860000Y-80171065D01*
X140860000Y-79828935D01*
X144140000Y-79828935D01*
X144140000Y-80171065D01*
X144270928Y-80487151D01*
X144512849Y-80729072D01*
X144828935Y-80860000D01*
X145171065Y-80860000D01*
X145487151Y-80729072D01*
X145729072Y-80487151D01*
X145860000Y-80171065D01*
X145860000Y-79828935D01*
X149140000Y-79828935D01*
X149140000Y-80171065D01*
X149270928Y-80487151D01*
X149512849Y-80729072D01*
X149828935Y-80860000D01*
X150171065Y-80860000D01*
X150487151Y-80729072D01*
X150729072Y-80487151D01*
X150860000Y-80171065D01*
X150860000Y-79828935D01*
X150729072Y-79512849D01*
X150487151Y-79270928D01*
X150171065Y-79140000D01*
X149828935Y-79140000D01*
X149512849Y-79270928D01*
X149270928Y-79512849D01*
X149140000Y-79828935D01*
X145860000Y-79828935D01*
X145729072Y-79512849D01*
X145487151Y-79270928D01*
X145171065Y-79140000D01*
X144828935Y-79140000D01*
X144512849Y-79270928D01*
X144270928Y-79512849D01*
X144140000Y-79828935D01*
X140860000Y-79828935D01*
X140729072Y-79512849D01*
X140487151Y-79270928D01*
X140171065Y-79140000D01*
X139828935Y-79140000D01*
X139512849Y-79270928D01*
X139270928Y-79512849D01*
X139140000Y-79828935D01*
X135860000Y-79828935D01*
X135729072Y-79512849D01*
X135487151Y-79270928D01*
X135171065Y-79140000D01*
X134828935Y-79140000D01*
X134512849Y-79270928D01*
X134270928Y-79512849D01*
X134140000Y-79828935D01*
X128583734Y-79828935D01*
X128577431Y-79813720D01*
X128286280Y-79522569D01*
X127905874Y-79365000D01*
X127494126Y-79365000D01*
X127113720Y-79522569D01*
X126822569Y-79813720D01*
X126665000Y-80194126D01*
X123350447Y-80194126D01*
X123360000Y-80171065D01*
X123360000Y-79828935D01*
X123229072Y-79512849D01*
X122987151Y-79270928D01*
X122671065Y-79140000D01*
X122328935Y-79140000D01*
X122012849Y-79270928D01*
X121770928Y-79512849D01*
X121640000Y-79828935D01*
X118360000Y-79828935D01*
X118229072Y-79512849D01*
X117987151Y-79270928D01*
X117671065Y-79140000D01*
X117328935Y-79140000D01*
X117012849Y-79270928D01*
X116770928Y-79512849D01*
X116640000Y-79828935D01*
X116640000Y-80171065D01*
X116770928Y-80487151D01*
X116886337Y-80602560D01*
X116450000Y-80602560D01*
X116202235Y-80651843D01*
X115992191Y-80792191D01*
X115851843Y-81002235D01*
X115802560Y-81250000D01*
X115802560Y-82190264D01*
X115729072Y-82012849D01*
X115487151Y-81770928D01*
X115171065Y-81640000D01*
X114828935Y-81640000D01*
X114512849Y-81770928D01*
X114270928Y-82012849D01*
X114140000Y-82328935D01*
X110860000Y-82328935D01*
X110729072Y-82012849D01*
X110487151Y-81770928D01*
X110171065Y-81640000D01*
X109828935Y-81640000D01*
X109512849Y-81770928D01*
X109270928Y-82012849D01*
X109140000Y-82328935D01*
X105710000Y-82328935D01*
X105710000Y-79828935D01*
X111640000Y-79828935D01*
X111640000Y-80171065D01*
X111770928Y-80487151D01*
X112012849Y-80729072D01*
X112328935Y-80860000D01*
X112671065Y-80860000D01*
X112987151Y-80729072D01*
X113229072Y-80487151D01*
X113360000Y-80171065D01*
X113360000Y-79828935D01*
X113229072Y-79512849D01*
X112987151Y-79270928D01*
X112671065Y-79140000D01*
X112328935Y-79140000D01*
X112012849Y-79270928D01*
X111770928Y-79512849D01*
X111640000Y-79828935D01*
X105710000Y-79828935D01*
X105710000Y-75031618D01*
X105780578Y-74240808D01*
X105781572Y-74237171D01*
X106165000Y-74237171D01*
X106165000Y-75762829D01*
X106748844Y-77172353D01*
X107827647Y-78251156D01*
X109237171Y-78835000D01*
X110762829Y-78835000D01*
X112172353Y-78251156D01*
X113094574Y-77328935D01*
X114140000Y-77328935D01*
X114140000Y-77671065D01*
X114270928Y-77987151D01*
X114512849Y-78229072D01*
X114828935Y-78360000D01*
X115171065Y-78360000D01*
X115487151Y-78229072D01*
X115729072Y-77987151D01*
X115860000Y-77671065D01*
X115860000Y-77328935D01*
X119140000Y-77328935D01*
X119140000Y-77671065D01*
X119270928Y-77987151D01*
X119512849Y-78229072D01*
X119828935Y-78360000D01*
X120171065Y-78360000D01*
X120487151Y-78229072D01*
X120729072Y-77987151D01*
X120860000Y-77671065D01*
X120860000Y-77328935D01*
X124140000Y-77328935D01*
X124140000Y-77671065D01*
X124270928Y-77987151D01*
X124512849Y-78229072D01*
X124828935Y-78360000D01*
X125171065Y-78360000D01*
X125487151Y-78229072D01*
X125729072Y-77987151D01*
X125860000Y-77671065D01*
X125860000Y-77328935D01*
X136640000Y-77328935D01*
X136640000Y-77671065D01*
X136770928Y-77987151D01*
X137012849Y-78229072D01*
X137328935Y-78360000D01*
X137671065Y-78360000D01*
X137987151Y-78229072D01*
X138229072Y-77987151D01*
X138360000Y-77671065D01*
X138360000Y-77328935D01*
X141640000Y-77328935D01*
X141640000Y-77671065D01*
X141770928Y-77987151D01*
X142012849Y-78229072D01*
X142328935Y-78360000D01*
X142671065Y-78360000D01*
X142987151Y-78229072D01*
X143229072Y-77987151D01*
X143360000Y-77671065D01*
X143360000Y-77328935D01*
X143229072Y-77012849D01*
X142987151Y-76770928D01*
X142671065Y-76640000D01*
X142328935Y-76640000D01*
X142012849Y-76770928D01*
X141770928Y-77012849D01*
X141640000Y-77328935D01*
X138360000Y-77328935D01*
X138229072Y-77012849D01*
X137987151Y-76770928D01*
X137671065Y-76640000D01*
X137328935Y-76640000D01*
X137012849Y-76770928D01*
X136770928Y-77012849D01*
X136640000Y-77328935D01*
X125860000Y-77328935D01*
X125729072Y-77012849D01*
X125487151Y-76770928D01*
X125171065Y-76640000D01*
X124828935Y-76640000D01*
X124512849Y-76770928D01*
X124270928Y-77012849D01*
X124140000Y-77328935D01*
X120860000Y-77328935D01*
X120729072Y-77012849D01*
X120487151Y-76770928D01*
X120171065Y-76640000D01*
X119828935Y-76640000D01*
X119512849Y-76770928D01*
X119270928Y-77012849D01*
X119140000Y-77328935D01*
X115860000Y-77328935D01*
X115729072Y-77012849D01*
X115487151Y-76770928D01*
X115171065Y-76640000D01*
X114828935Y-76640000D01*
X114512849Y-76770928D01*
X114270928Y-77012849D01*
X114140000Y-77328935D01*
X113094574Y-77328935D01*
X113251156Y-77172353D01*
X113835000Y-75762829D01*
X113835000Y-74828935D01*
X116640000Y-74828935D01*
X116640000Y-75171065D01*
X116770928Y-75487151D01*
X117012849Y-75729072D01*
X117328935Y-75860000D01*
X117671065Y-75860000D01*
X117987151Y-75729072D01*
X118229072Y-75487151D01*
X118360000Y-75171065D01*
X118360000Y-74828935D01*
X121640000Y-74828935D01*
X121640000Y-75171065D01*
X121770928Y-75487151D01*
X122012849Y-75729072D01*
X122328935Y-75860000D01*
X122671065Y-75860000D01*
X122987151Y-75729072D01*
X123122097Y-75594126D01*
X126865000Y-75594126D01*
X126865000Y-76005874D01*
X127022569Y-76386280D01*
X127313720Y-76677431D01*
X127694126Y-76835000D01*
X128105874Y-76835000D01*
X128486280Y-76677431D01*
X128777431Y-76386280D01*
X128935000Y-76005874D01*
X128935000Y-75594126D01*
X128777431Y-75213720D01*
X128486280Y-74922569D01*
X128260228Y-74828935D01*
X134140000Y-74828935D01*
X134140000Y-75171065D01*
X134270928Y-75487151D01*
X134512849Y-75729072D01*
X134828935Y-75860000D01*
X135171065Y-75860000D01*
X135487151Y-75729072D01*
X135729072Y-75487151D01*
X135860000Y-75171065D01*
X135860000Y-74828935D01*
X139140000Y-74828935D01*
X139140000Y-75171065D01*
X139270928Y-75487151D01*
X139512849Y-75729072D01*
X139828935Y-75860000D01*
X140171065Y-75860000D01*
X140487151Y-75729072D01*
X140729072Y-75487151D01*
X140860000Y-75171065D01*
X140860000Y-74828935D01*
X140729072Y-74512849D01*
X140487151Y-74270928D01*
X140405655Y-74237171D01*
X144165000Y-74237171D01*
X144165000Y-75762829D01*
X144748844Y-77172353D01*
X145827647Y-78251156D01*
X147237171Y-78835000D01*
X148762829Y-78835000D01*
X150172353Y-78251156D01*
X151251156Y-77172353D01*
X151835000Y-75762829D01*
X151835000Y-74237171D01*
X151251156Y-72827647D01*
X150172353Y-71748844D01*
X148762829Y-71165000D01*
X147237171Y-71165000D01*
X145827647Y-71748844D01*
X144748844Y-72827647D01*
X144165000Y-74237171D01*
X140405655Y-74237171D01*
X140171065Y-74140000D01*
X139828935Y-74140000D01*
X139512849Y-74270928D01*
X139270928Y-74512849D01*
X139140000Y-74828935D01*
X135860000Y-74828935D01*
X135729072Y-74512849D01*
X135487151Y-74270928D01*
X135171065Y-74140000D01*
X134828935Y-74140000D01*
X134512849Y-74270928D01*
X134270928Y-74512849D01*
X134140000Y-74828935D01*
X128260228Y-74828935D01*
X128105874Y-74765000D01*
X127694126Y-74765000D01*
X127313720Y-74922569D01*
X127022569Y-75213720D01*
X126865000Y-75594126D01*
X123122097Y-75594126D01*
X123229072Y-75487151D01*
X123360000Y-75171065D01*
X123360000Y-74828935D01*
X123229072Y-74512849D01*
X122987151Y-74270928D01*
X122671065Y-74140000D01*
X122328935Y-74140000D01*
X122012849Y-74270928D01*
X121770928Y-74512849D01*
X121640000Y-74828935D01*
X118360000Y-74828935D01*
X118229072Y-74512849D01*
X117987151Y-74270928D01*
X117671065Y-74140000D01*
X117328935Y-74140000D01*
X117012849Y-74270928D01*
X116770928Y-74512849D01*
X116640000Y-74828935D01*
X113835000Y-74828935D01*
X113835000Y-74237171D01*
X113541640Y-73528935D01*
X125240000Y-73528935D01*
X125240000Y-73871065D01*
X125370928Y-74187151D01*
X125612849Y-74429072D01*
X125928935Y-74560000D01*
X126271065Y-74560000D01*
X126587151Y-74429072D01*
X126656967Y-74359257D01*
X126670365Y-74372655D01*
X127014017Y-74515000D01*
X127385983Y-74515000D01*
X127729635Y-74372655D01*
X127992655Y-74109635D01*
X128135000Y-73765983D01*
X128135000Y-73394017D01*
X130265000Y-73394017D01*
X130265000Y-73765983D01*
X130407345Y-74109635D01*
X130670365Y-74372655D01*
X131014017Y-74515000D01*
X131385983Y-74515000D01*
X131729635Y-74372655D01*
X131743034Y-74359257D01*
X131812849Y-74429072D01*
X132128935Y-74560000D01*
X132471065Y-74560000D01*
X132787151Y-74429072D01*
X133029072Y-74187151D01*
X133160000Y-73871065D01*
X133160000Y-73528935D01*
X133029072Y-73212849D01*
X132787151Y-72970928D01*
X132471065Y-72840000D01*
X132128935Y-72840000D01*
X131883820Y-72941530D01*
X131729635Y-72787345D01*
X131385983Y-72645000D01*
X131014017Y-72645000D01*
X130670365Y-72787345D01*
X130407345Y-73050365D01*
X130265000Y-73394017D01*
X128135000Y-73394017D01*
X127992655Y-73050365D01*
X127729635Y-72787345D01*
X127385983Y-72645000D01*
X127014017Y-72645000D01*
X126670365Y-72787345D01*
X126516180Y-72941530D01*
X126271065Y-72840000D01*
X125928935Y-72840000D01*
X125612849Y-72970928D01*
X125370928Y-73212849D01*
X125240000Y-73528935D01*
X113541640Y-73528935D01*
X113251156Y-72827647D01*
X112752444Y-72328935D01*
X114140000Y-72328935D01*
X114140000Y-72671065D01*
X114270928Y-72987151D01*
X114512849Y-73229072D01*
X114828935Y-73360000D01*
X115171065Y-73360000D01*
X115487151Y-73229072D01*
X115729072Y-72987151D01*
X115860000Y-72671065D01*
X115860000Y-72328935D01*
X119140000Y-72328935D01*
X119140000Y-72671065D01*
X119270928Y-72987151D01*
X119512849Y-73229072D01*
X119828935Y-73360000D01*
X120171065Y-73360000D01*
X120487151Y-73229072D01*
X120729072Y-72987151D01*
X120860000Y-72671065D01*
X120860000Y-72328935D01*
X136640000Y-72328935D01*
X136640000Y-72671065D01*
X136770928Y-72987151D01*
X137012849Y-73229072D01*
X137328935Y-73360000D01*
X137671065Y-73360000D01*
X137987151Y-73229072D01*
X138229072Y-72987151D01*
X138360000Y-72671065D01*
X138360000Y-72328935D01*
X141640000Y-72328935D01*
X141640000Y-72671065D01*
X141770928Y-72987151D01*
X142012849Y-73229072D01*
X142328935Y-73360000D01*
X142671065Y-73360000D01*
X142987151Y-73229072D01*
X143229072Y-72987151D01*
X143360000Y-72671065D01*
X143360000Y-72328935D01*
X143229072Y-72012849D01*
X142987151Y-71770928D01*
X142671065Y-71640000D01*
X142328935Y-71640000D01*
X142012849Y-71770928D01*
X141770928Y-72012849D01*
X141640000Y-72328935D01*
X138360000Y-72328935D01*
X138229072Y-72012849D01*
X137987151Y-71770928D01*
X137671065Y-71640000D01*
X137328935Y-71640000D01*
X137012849Y-71770928D01*
X136770928Y-72012849D01*
X136640000Y-72328935D01*
X120860000Y-72328935D01*
X120729072Y-72012849D01*
X120487151Y-71770928D01*
X120171065Y-71640000D01*
X119828935Y-71640000D01*
X119512849Y-71770928D01*
X119270928Y-72012849D01*
X119140000Y-72328935D01*
X115860000Y-72328935D01*
X115729072Y-72012849D01*
X115487151Y-71770928D01*
X115171065Y-71640000D01*
X114828935Y-71640000D01*
X114512849Y-71770928D01*
X114270928Y-72012849D01*
X114140000Y-72328935D01*
X112752444Y-72328935D01*
X112172353Y-71748844D01*
X110762829Y-71165000D01*
X109237171Y-71165000D01*
X107827647Y-71748844D01*
X106748844Y-72827647D01*
X106165000Y-74237171D01*
X105781572Y-74237171D01*
X105981705Y-73505611D01*
X106309846Y-72817649D01*
X106754628Y-72198669D01*
X107301988Y-71668239D01*
X107934639Y-71243116D01*
X108632561Y-70936749D01*
X109379183Y-70757501D01*
X110026030Y-70710000D01*
X124789231Y-70710000D01*
X124762849Y-70720928D01*
G04 #@! TD*
M02*
