M48
;DRILL file {KiCad (5.0.2)-1} date 19/01/2019 12:29:53
;FORMAT={-:-/ absolute / inch / decimal}
FMAT,2
INCH,TZ
T1C0.0079
T2C0.0157
T3C0.0197
T4C0.0315
T5C0.0394
T6C0.1260
T7C0.0236
%
G90
G05
T1
X4.1417Y-3.6142
X4.1417Y-3.874
X4.1614Y-3.6142
X4.1614Y-3.874
X4.1811Y-3.6142
X4.1811Y-3.874
X4.2008Y-3.6142
X4.2008Y-3.874
X4.2205Y-3.6142
X4.2205Y-3.874
X4.2323Y-3.3465
X4.2323Y-3.5433
X4.2323Y-3.937
X4.2323Y-4.0354
X4.2323Y-4.2323
X4.2402Y-3.6142
X4.2402Y-3.874
X4.2598Y-3.6142
X4.2598Y-3.874
X4.2795Y-3.6142
X4.2795Y-3.874
X4.2992Y-3.7047
X4.3071Y-3.7795
X4.3189Y-3.7047
X4.3268Y-3.7795
X4.3307Y-3.248
X4.3307Y-3.4449
X4.3307Y-3.6417
X4.3307Y-3.8386
X4.3307Y-4.1339
X4.3386Y-3.7047
X4.3386Y-3.7047
X4.3386Y-3.7047
X4.3465Y-3.7795
X4.3583Y-3.7047
X4.3661Y-3.7795
X4.3858Y-3.7795
X4.3976Y-3.685
X4.4055Y-3.7795
X4.4232Y-3.6201
X4.4232Y-3.7087
X4.4252Y-3.7795
X4.4291Y-3.1496
X4.4291Y-3.3465
X4.4291Y-3.937
X4.4291Y-4.3307
X4.4449Y-3.7795
X4.4646Y-3.6201
X4.4744Y-3.7205
X4.4951Y-3.6437
X4.5276Y-2.8543
X4.5276Y-3.0512
X4.5276Y-3.248
X4.5276Y-4.0354
X4.5276Y-4.2323
X4.5276Y-4.4291
X4.5493Y-3.5903
X4.5719Y-3.6024
X4.5925Y-3.5832
X4.6132Y-3.5984
X4.626Y-2.9528
X4.626Y-3.1496
X4.626Y-4.1339
X4.626Y-4.3307
X4.626Y-4.5276
X4.6309Y-3.579
X4.6516Y-3.563
X4.6969Y-4.0827
X4.7205Y-3.7795
X4.7244Y-2.8543
X4.7244Y-3.0512
X4.7244Y-3.8386
X4.7402Y-3.7795
X4.7598Y-3.7795
X4.7717Y-3.7087
X4.7795Y-3.7795
X4.7913Y-3.7087
X4.7992Y-3.7795
X4.8012Y-4.0886
X4.811Y-3.7126
X4.8189Y-3.7795
X4.8228Y-2.9528
X4.8228Y-3.1496
X4.8228Y-3.3465
X4.8228Y-3.5433
X4.8228Y-3.937
X4.8307Y-3.7047
X4.8504Y-3.7008
X4.8701Y-3.7008
X4.8917Y-3.7067
X4.9016Y-4.092
X4.9134Y-3.7008
X4.9213Y-3.0512
X4.9213Y-3.248
X4.9311Y-2.813
X4.9331Y-3.7008
X4.9528Y-3.7008
X4.9646Y-2.9016
X4.9646Y-3.7795
X4.9724Y-3.7126
X5.Y-4.0866
X5.0197Y-3.7795
X5.0197Y-3.937
X5.0394Y-3.7795
X5.0413Y-2.813
X5.0591Y-3.7795
X5.0689Y-3.6043
X5.0787Y-3.7835
X5.1024Y-4.0906
X5.1102Y-3.7047
X5.1299Y-3.7047
X5.1319Y-2.813
X5.1496Y-3.7087
X5.1693Y-3.7126
X5.185Y-3.7795
X5.189Y-3.7126
X5.2047Y-3.7795
X5.2047Y-4.0945
X5.2087Y-2.9016
X5.2087Y-3.7087
X5.2244Y-3.7874
X5.2283Y-3.7047
X5.2421Y-2.813
X5.2441Y-3.7874
X5.248Y-3.7047
X5.2638Y-3.7874
X5.2677Y-3.7047
X5.2815Y-3.5256
X5.2835Y-3.7913
X5.2874Y-3.689
X5.2992Y-3.811
X5.2992Y-3.811
X5.2992Y-3.811
X5.3012Y-4.0906
X5.3071Y-3.6732
X5.313Y-3.4606
X5.315Y-2.9528
X5.315Y-3.1496
X5.315Y-3.8307
X5.3268Y-3.6535
X5.3346Y-3.8425
X5.3425Y-3.5256
X5.3465Y-3.6417
X5.3543Y-3.7283
X5.3543Y-3.748
X5.3583Y-3.8465
X5.3642Y-3.311
X5.3661Y-3.6299
X5.374Y-3.7283
X5.378Y-3.7047
X5.378Y-3.8346
X5.3819Y-3.5256
X5.3858Y-3.6299
X5.3898Y-3.815
X5.3976Y-3.7126
X5.4016Y-3.6929
X5.4016Y-4.0925
X5.4055Y-3.6299
X5.4055Y-3.7953
X5.4134Y-2.8543
X5.4134Y-3.0512
X5.4213Y-3.7126
X5.4232Y-3.5256
X5.4252Y-3.6929
X5.4252Y-3.7795
X5.4252Y-3.7795
X5.4252Y-3.7795
X5.4429Y-3.5965
X5.4449Y-3.7047
X5.4449Y-3.7795
X5.4646Y-3.7047
X5.4646Y-3.7795
X5.4803Y-3.622
X5.4843Y-3.7047
X5.4843Y-3.7795
X5.5Y-3.622
X5.5Y-3.622
X5.5Y-3.622
X5.5039Y-3.7047
X5.5039Y-3.7795
X5.5118Y-2.9528
X5.5118Y-3.1496
X5.5118Y-3.937
X5.5118Y-4.1339
X5.5197Y-3.622
X5.5236Y-3.7047
X5.5236Y-3.7795
X5.5394Y-3.622
X5.5433Y-3.7047
X5.5433Y-3.7795
X5.563Y-3.4685
X5.563Y-3.7047
X5.563Y-3.7795
X5.5709Y-3.5945
X5.5827Y-3.7047
X5.5827Y-3.7795
X5.5866Y-3.4685
X5.5984Y-3.626
X5.6024Y-3.4065
X5.6024Y-3.7047
X5.6024Y-3.7795
X5.6102Y-2.8543
X5.6102Y-3.0512
X5.6102Y-3.4724
X5.6102Y-3.8386
X5.6102Y-4.0354
X5.6102Y-4.2323
X5.6102Y-4.4291
X5.6201Y-3.2913
X5.622Y-3.622
X5.622Y-3.7047
X5.622Y-3.7795
X5.6299Y-3.4764
X5.6417Y-3.7047
X5.6417Y-3.7795
X5.6457Y-3.6102
X5.6535Y-3.4764
X5.6614Y-3.5906
X5.6614Y-3.7047
X5.6614Y-3.7795
X5.6634Y-3.2913
X5.6693Y-3.6772
X5.6772Y-3.4724
X5.6772Y-3.4921
X5.6772Y-3.5118
X5.6772Y-3.5315
X5.6772Y-3.5512
X5.6772Y-3.5709
X5.6811Y-3.7047
X5.6811Y-3.7795
X5.689Y-3.6614
X5.7008Y-3.7047
X5.7008Y-3.7795
X5.7087Y-3.1496
X5.7087Y-3.3465
X5.7087Y-3.6417
X5.7087Y-3.937
X5.7087Y-4.1339
X5.7087Y-4.3307
X5.7205Y-3.7047
X5.7205Y-3.7795
X5.7283Y-3.622
X5.7402Y-3.7047
X5.7402Y-3.7795
X5.748Y-3.6024
X5.7514Y-3.4055
X5.752Y-3.4646
X5.752Y-3.4843
X5.752Y-3.5039
X5.752Y-3.5236
X5.752Y-3.5433
X5.752Y-3.563
X5.752Y-3.5827
X5.7598Y-3.7047
X5.7598Y-3.7795
X5.7795Y-3.7047
X5.7795Y-3.7795
X5.7992Y-3.7047
X5.7992Y-3.7795
X5.8071Y-3.248
X5.8071Y-3.4449
X5.8071Y-3.6417
X5.8071Y-3.8386
X5.8071Y-4.0354
X5.8071Y-4.2323
X5.8189Y-3.7047
X5.8189Y-3.7795
X5.8386Y-3.7047
X5.8386Y-3.7795
X5.8701Y-3.6142
X5.8701Y-3.874
X5.8898Y-3.6142
X5.8898Y-3.874
X5.9055Y-3.1496
X5.9055Y-3.3465
X5.9055Y-3.5433
X5.9055Y-3.937
X5.9055Y-4.1339
X5.9094Y-3.6142
X5.9094Y-3.874
X5.9291Y-3.6142
X5.9291Y-3.874
X5.9488Y-3.6142
X5.9488Y-3.874
X5.9685Y-3.6142
X5.9685Y-3.874
X5.9882Y-3.6142
X5.9882Y-3.874
X6.0079Y-3.6142
X6.0079Y-3.874
X4.5591Y-3.6732
X4.5591Y-3.7146
X4.5591Y-3.7559
X4.6024Y-3.6732
X4.6024Y-3.7146
X4.6024Y-3.7559
X4.6457Y-3.6732
X4.6457Y-3.7146
X4.6457Y-3.7559
T2
X4.8533Y-3.7923
X4.9281Y-3.7923
X5.0276Y-3.1654
X5.0354Y-2.9843
X5.1417Y-3.2677
X5.2441Y-3.1969
X5.2441Y-3.2992
X5.2795Y-3.2283
X5.5266Y-3.3199
X5.5266Y-3.4705
T3
X5.7323Y-4.4488
X5.76Y-4.382
X5.76Y-4.5156
X5.8268Y-4.3543
X5.8268Y-4.5433
X5.8936Y-4.382
X5.8936Y-4.5156
X5.9213Y-4.4488
X4.2362Y-4.4488
X4.2639Y-4.382
X4.2639Y-4.5156
X4.3307Y-4.3543
X4.3307Y-4.5433
X4.3975Y-4.382
X4.3975Y-4.5156
X4.4252Y-4.4488
X5.7323Y-2.9528
X5.76Y-2.8859
X5.76Y-3.0196
X5.8268Y-2.8583
X5.8268Y-3.0472
X5.8936Y-2.8859
X5.8936Y-3.0196
X5.9213Y-2.9528
X4.2362Y-2.9528
X4.2639Y-2.8859
X4.2639Y-3.0196
X4.3307Y-2.8583
X4.3307Y-3.0472
X4.3975Y-2.8859
X4.3975Y-3.0196
X4.4252Y-2.9528
T4
X4.752Y-4.2305
X4.752Y-4.5423
X4.852Y-4.2305
X4.852Y-4.5423
X4.952Y-4.2305
X4.952Y-4.5423
X5.052Y-4.2305
X5.052Y-4.5423
X5.152Y-4.2305
X5.152Y-4.5423
X5.252Y-4.2305
X5.252Y-4.5423
X5.352Y-4.2305
X5.352Y-4.5423
X5.452Y-4.2305
X5.452Y-4.5423
T5
X4.6181Y-3.2323
X4.6181Y-3.3323
X4.6181Y-3.4323
X4.7181Y-3.2323
X4.7181Y-3.3323
X4.7181Y-3.4323
T6
X5.8268Y-4.4488
X4.3307Y-4.4488
X5.8268Y-2.9528
X4.3307Y-2.9528
T7
X5.0079Y-2.8969
X5.1654Y-2.8969
T0
M30
