0
SECTION
2
HEADER
9
$INSUNITS
70
4
9
$ACADVER
1
AC1014
9
$HANDSEED
5
FFFF
0
ENDSEC
0
SECTION
2
TABLES
0
TABLE
2
VPORT
5
8
100
AcDbSymbolTable
0
ENDTAB
0
TABLE
2
LTYPE
5
5
100
AcDbSymbolTable
0
LTYPE
5
14
100
AcDbSymbolTableRecord
100
AcDbLinetypeTableRecord
2
BYBLOCK
70
0
0
LTYPE
5
15
100
AcDbSymbolTableRecord
100
AcDbLinetypeTableRecord
2
BYLAYER
70
0
0
ENDTAB
0
TABLE
2
LAYER
5
2
100
AcDbSymbolTable
70
2
0
LAYER
5
50
100
AcDbSymbolTableRecord
100
AcDbLayerTableRecord
2
0
70
0
6
CONTINUOUS
0
ENDTAB
0
TABLE
2
STYLE
5
3
100
AcDbSymbolTable
70
1
0
STYLE
5
11
100
AcDbSymbolTableRecord
100
AcDbTextStyleTableRecord
2
STANDARD
70
0
0
ENDTAB
0
TABLE
2
VIEW
5
6
100
AcDbSymbolTable
70
0
0
ENDTAB
0
TABLE
2
UCS
5
7
100
AcDbSymbolTable
70
0
0
ENDTAB
0
TABLE
2
APPID
5
9
100
AcDbSymbolTable
70
2
0
APPID
5
12
100
AcDbSymbolTableRecord
100
AcDbRegAppTableRecord
2
ACAD
70
0
0
ENDTAB
0
TABLE
2
DIMSTYLE
5
A
100
AcDbSymbolTable
70
1
0
ENDTAB
0
TABLE
2
BLOCK_RECORD
5
1
100
AcDbSymbolTable
70
1
0
BLOCK_RECORD
5
1F
100
AcDbSymbolTableRecord
100
AcDbBlockTableRecord
2
*MODEL_SPACE
0
BLOCK_RECORD
5
1B
100
AcDbSymbolTableRecord
100
AcDbBlockTableRecord
2
*PAPER_SPACE
0
ENDTAB
0
ENDSEC
0
SECTION
2
BLOCKS
0
BLOCK
5
20
100
AcDbEntity
100
AcDbBlockBegin
2
*MODEL_SPACE
0
ENDBLK
5
21
100
AcDbEntity
100
AcDbBlockEnd
0
BLOCK
5
1C
100
AcDbEntity
100
AcDbBlockBegin
2
*PAPER_SPACE
0
ENDBLK
5
1D
100
AcDbEntity
100
AcDbBlockEnd
0
ENDSEC
0
SECTION
2
ENTITIES
0
CIRCLE
5
100
100
AcDbEntity
8
0
100
AcDbCircle
10
-16.044809692702245
20
-62.294809695037728
30
0
40
1.3999999999999968
0
CIRCLE
5
101
100
AcDbEntity
8
0
100
AcDbCircle
10
-16.044809692701993
20
-127.29480969503766
30
0
40
1.3999999999999921
0
LWPOLYLINE
5
102
100
AcDbEntity
8
0
100
AcDbPolyline
90
8
70
1
43
0.0
10
0.70749999999831337
20
-91.899999999999636
42
-0.41421356237309687
10
-1.2925000000016917
20
-93.899999999999636
10
-4.2925000000016915
20
-93.899999999999636
42
-0.41421356237309692
10
-6.2925000000016968
20
-91.899999999999636
10
-6.2925000000016968
20
-84.89999999999965
42
-0.41421356237309692
10
-4.2925000000016915
20
-82.89999999999965
10
-1.2925000000016911
20
-82.89999999999965
42
-0.41421356237309687
10
0.70749999999831426
20
-84.89999999999965
0
LWPOLYLINE
5
103
100
AcDbEntity
8
0
100
AcDbPolyline
90
16
70
1
43
0.0
10
-8.1580131055073988
20
-103.11646264593669
42
-0.083397751279613644
10
-8.0600000000011569
20
-103.09999999999965
10
-3.5400000000011551
20
-103.09999999999965
42
-0.083397751279607496
10
-3.4419868944949199
20
-103.11646264593669
10
-3.2200000000011544
20
-103.11646264593669
42
-0.41421356237309553
10
-2.2200000000011562
20
-104.11646264593669
10
-2.2200000000011562
20
-116.4835373540633
42
-0.4142135623730957
10
-3.2200000000011548
20
-117.48353735406329
10
-3.4419868944969174
20
-117.48353735406329
42
-0.083397751277833207
10
-3.5400000000011547
20
-117.49999999999964
10
-8.0600000000011587
20
-117.49999999999964
42
-0.08339775127782996
10
-8.1580131055053897
20
-117.48353735406329
10
-8.3914276217702692
20
-117.48353735406329
42
-0.41421356237309503
10
-9.3914276217702657
20
-116.4835373540633
10
-9.3914276217702515
20
-104.11646264593669
42
-0.41421356237309503
10
-8.391427621770255
20
-103.11646264593669
0
CIRCLE
5
104
100
AcDbEntity
8
0
100
AcDbCircle
10
2.4551903072977437
20
-62.29480969503765
30
1.7763568394002505e-14
40
1.3999999999999981
0
CIRCLE
5
105
100
AcDbEntity
8
0
100
AcDbCircle
10
-5.4100000000011335
20
-97.516268845315636
30
0
40
1.7500000000000071
0
CIRCLE
5
106
100
AcDbEntity
8
0
100
AcDbCircle
10
2.455190307298007
20
-127.29480969503757
30
0
40
1.400000000000001
0
LWPOLYLINE
5
107
100
AcDbEntity
8
0
100
AcDbPolyline
90
8
70
1
43
0.0
10
-14.54480969270195
20
-130.39480969503765
42
-0.41421356237309803
10
-19.544809692701961
20
-125.39480969503769
10
-19.544809692702223
20
-64.194809695037733
42
-0.41421356237309492
10
-14.544809692702254
20
-59.194809695037726
10
0.95519030729773191
20
-59.194809695037655
42
-0.41421356237309553
10
5.9551903072977428
20
-64.19480969503762
10
5.9551903072979995
20
-125.39480969503757
42
-0.41421356237309537
10
0.95519030729803056
20
-130.39480969503759
0
ENDSEC
0
SECTION
2
OBJECTS
0
DICTIONARY
5
C
100
AcDbDictionary
3
ACAD_GROUP
350
D
3
ACAD_MLINESTYLE
350
17
0
DICTIONARY
5
D
100
AcDbDictionary
0
DICTIONARY
5
1A
330
C
100
AcDbDictionary
0
DICTIONARY
5
17
100
AcDbDictionary
0
ENDSEC
0
EOF
