G04 #@! TF.GenerationSoftware,KiCad,Pcbnew,(5.0.2)-1*
G04 #@! TF.CreationDate,2019-01-19T10:46:15+11:00*
G04 #@! TF.ProjectId,ADC-15-4_Dev_Rev_1,4144432d-3135-42d3-945f-4465765f5265,1*
G04 #@! TF.SameCoordinates,Original*
G04 #@! TF.FileFunction,Legend,Top*
G04 #@! TF.FilePolarity,Positive*
%FSLAX46Y46*%
G04 Gerber Fmt 4.6, Leading zero omitted, Abs format (unit mm)*
G04 Created by KiCad (PCBNEW (5.0.2)-1) date 19/01/2019 10:46:15*
%MOMM*%
%LPD*%
G01*
G04 APERTURE LIST*
%ADD10C,0.150000*%
%ADD11C,0.300000*%
%ADD12C,0.200000*%
%ADD13C,0.120000*%
G04 APERTURE END LIST*
D10*
X214246428Y-69325000D02*
X214175000Y-69289285D01*
X214067857Y-69289285D01*
X213960714Y-69325000D01*
X213889285Y-69396428D01*
X213853571Y-69467857D01*
X213817857Y-69610714D01*
X213817857Y-69717857D01*
X213853571Y-69860714D01*
X213889285Y-69932142D01*
X213960714Y-70003571D01*
X214067857Y-70039285D01*
X214139285Y-70039285D01*
X214246428Y-70003571D01*
X214282142Y-69967857D01*
X214282142Y-69717857D01*
X214139285Y-69717857D01*
X214603571Y-70039285D02*
X214603571Y-69539285D01*
X214603571Y-69682142D02*
X214639285Y-69610714D01*
X214675000Y-69575000D01*
X214746428Y-69539285D01*
X214817857Y-69539285D01*
X215175000Y-70039285D02*
X215103571Y-70003571D01*
X215067857Y-69967857D01*
X215032142Y-69896428D01*
X215032142Y-69682142D01*
X215067857Y-69610714D01*
X215103571Y-69575000D01*
X215175000Y-69539285D01*
X215282142Y-69539285D01*
X215353571Y-69575000D01*
X215389285Y-69610714D01*
X215425000Y-69682142D01*
X215425000Y-69896428D01*
X215389285Y-69967857D01*
X215353571Y-70003571D01*
X215282142Y-70039285D01*
X215175000Y-70039285D01*
X216067857Y-69539285D02*
X216067857Y-70039285D01*
X215746428Y-69539285D02*
X215746428Y-69932142D01*
X215782142Y-70003571D01*
X215853571Y-70039285D01*
X215960714Y-70039285D01*
X216032142Y-70003571D01*
X216067857Y-69967857D01*
X216425000Y-69539285D02*
X216425000Y-70039285D01*
X216425000Y-69610714D02*
X216460714Y-69575000D01*
X216532142Y-69539285D01*
X216639285Y-69539285D01*
X216710714Y-69575000D01*
X216746428Y-69646428D01*
X216746428Y-70039285D01*
X217425000Y-70039285D02*
X217425000Y-69289285D01*
X217425000Y-70003571D02*
X217353571Y-70039285D01*
X217210714Y-70039285D01*
X217139285Y-70003571D01*
X217103571Y-69967857D01*
X217067857Y-69896428D01*
X217067857Y-69682142D01*
X217103571Y-69610714D01*
X217139285Y-69575000D01*
X217210714Y-69539285D01*
X217353571Y-69539285D01*
X217425000Y-69575000D01*
X218782142Y-69967857D02*
X218746428Y-70003571D01*
X218639285Y-70039285D01*
X218567857Y-70039285D01*
X218460714Y-70003571D01*
X218389285Y-69932142D01*
X218353571Y-69860714D01*
X218317857Y-69717857D01*
X218317857Y-69610714D01*
X218353571Y-69467857D01*
X218389285Y-69396428D01*
X218460714Y-69325000D01*
X218567857Y-69289285D01*
X218639285Y-69289285D01*
X218746428Y-69325000D01*
X218782142Y-69360714D01*
X219425000Y-69539285D02*
X219425000Y-70039285D01*
X219103571Y-69539285D02*
X219103571Y-69932142D01*
X219139285Y-70003571D01*
X219210714Y-70039285D01*
X219317857Y-70039285D01*
X219389285Y-70003571D01*
X219425000Y-69967857D01*
X219675000Y-69539285D02*
X219960714Y-69539285D01*
X219782142Y-69289285D02*
X219782142Y-69932142D01*
X219817857Y-70003571D01*
X219889285Y-70039285D01*
X219960714Y-70039285D01*
X220317857Y-70039285D02*
X220246428Y-70003571D01*
X220210714Y-69967857D01*
X220175000Y-69896428D01*
X220175000Y-69682142D01*
X220210714Y-69610714D01*
X220246428Y-69575000D01*
X220317857Y-69539285D01*
X220425000Y-69539285D01*
X220496428Y-69575000D01*
X220532142Y-69610714D01*
X220567857Y-69682142D01*
X220567857Y-69896428D01*
X220532142Y-69967857D01*
X220496428Y-70003571D01*
X220425000Y-70039285D01*
X220317857Y-70039285D01*
X221210714Y-69539285D02*
X221210714Y-70039285D01*
X220889285Y-69539285D02*
X220889285Y-69932142D01*
X220925000Y-70003571D01*
X220996428Y-70039285D01*
X221103571Y-70039285D01*
X221175000Y-70003571D01*
X221210714Y-69967857D01*
X221460714Y-69539285D02*
X221746428Y-69539285D01*
X221567857Y-69289285D02*
X221567857Y-69932142D01*
X221603571Y-70003571D01*
X221675000Y-70039285D01*
X221746428Y-70039285D01*
X221960714Y-70003571D02*
X222032142Y-70039285D01*
X222175000Y-70039285D01*
X222246428Y-70003571D01*
X222282142Y-69932142D01*
X222282142Y-69896428D01*
X222246428Y-69825000D01*
X222175000Y-69789285D01*
X222067857Y-69789285D01*
X221996428Y-69753571D01*
X221960714Y-69682142D01*
X221960714Y-69646428D01*
X221996428Y-69575000D01*
X222067857Y-69539285D01*
X222175000Y-69539285D01*
X222246428Y-69575000D01*
X223496428Y-69539285D02*
X223496428Y-70039285D01*
X223175000Y-69539285D02*
X223175000Y-69932142D01*
X223210714Y-70003571D01*
X223282142Y-70039285D01*
X223389285Y-70039285D01*
X223460714Y-70003571D01*
X223496428Y-69967857D01*
X223853571Y-69539285D02*
X223853571Y-70039285D01*
X223853571Y-69610714D02*
X223889285Y-69575000D01*
X223960714Y-69539285D01*
X224067857Y-69539285D01*
X224139285Y-69575000D01*
X224175000Y-69646428D01*
X224175000Y-70039285D01*
X224853571Y-70039285D02*
X224853571Y-69289285D01*
X224853571Y-70003571D02*
X224782142Y-70039285D01*
X224639285Y-70039285D01*
X224567857Y-70003571D01*
X224532142Y-69967857D01*
X224496428Y-69896428D01*
X224496428Y-69682142D01*
X224532142Y-69610714D01*
X224567857Y-69575000D01*
X224639285Y-69539285D01*
X224782142Y-69539285D01*
X224853571Y-69575000D01*
X225496428Y-70003571D02*
X225425000Y-70039285D01*
X225282142Y-70039285D01*
X225210714Y-70003571D01*
X225175000Y-69932142D01*
X225175000Y-69646428D01*
X225210714Y-69575000D01*
X225282142Y-69539285D01*
X225425000Y-69539285D01*
X225496428Y-69575000D01*
X225532142Y-69646428D01*
X225532142Y-69717857D01*
X225175000Y-69789285D01*
X225853571Y-70039285D02*
X225853571Y-69539285D01*
X225853571Y-69682142D02*
X225889285Y-69610714D01*
X225925000Y-69575000D01*
X225996428Y-69539285D01*
X226067857Y-69539285D01*
X226853571Y-70003571D02*
X226960714Y-70039285D01*
X227139285Y-70039285D01*
X227210714Y-70003571D01*
X227246428Y-69967857D01*
X227282142Y-69896428D01*
X227282142Y-69825000D01*
X227246428Y-69753571D01*
X227210714Y-69717857D01*
X227139285Y-69682142D01*
X226996428Y-69646428D01*
X226925000Y-69610714D01*
X226889285Y-69575000D01*
X226853571Y-69503571D01*
X226853571Y-69432142D01*
X226889285Y-69360714D01*
X226925000Y-69325000D01*
X226996428Y-69289285D01*
X227175000Y-69289285D01*
X227282142Y-69325000D01*
X227603571Y-70039285D02*
X227603571Y-69289285D01*
X227853571Y-69825000D01*
X228103571Y-69289285D01*
X228103571Y-70039285D01*
X228425000Y-69825000D02*
X228782142Y-69825000D01*
X228353571Y-70039285D02*
X228603571Y-69289285D01*
X228853571Y-70039285D01*
D11*
X216228571Y-64678571D02*
X217085714Y-64678571D01*
X216657142Y-66178571D02*
X216657142Y-64678571D01*
X217585714Y-66178571D02*
X217585714Y-64678571D01*
X217585714Y-65392857D02*
X218442857Y-65392857D01*
X218442857Y-66178571D02*
X218442857Y-64678571D01*
X220014285Y-66178571D02*
X219514285Y-65464285D01*
X219157142Y-66178571D02*
X219157142Y-64678571D01*
X219728571Y-64678571D01*
X219871428Y-64750000D01*
X219942857Y-64821428D01*
X220014285Y-64964285D01*
X220014285Y-65178571D01*
X219942857Y-65321428D01*
X219871428Y-65392857D01*
X219728571Y-65464285D01*
X219157142Y-65464285D01*
X220942857Y-64678571D02*
X221228571Y-64678571D01*
X221371428Y-64750000D01*
X221514285Y-64892857D01*
X221585714Y-65178571D01*
X221585714Y-65678571D01*
X221514285Y-65964285D01*
X221371428Y-66107142D01*
X221228571Y-66178571D01*
X220942857Y-66178571D01*
X220800000Y-66107142D01*
X220657142Y-65964285D01*
X220585714Y-65678571D01*
X220585714Y-65178571D01*
X220657142Y-64892857D01*
X220800000Y-64750000D01*
X220942857Y-64678571D01*
X222228571Y-64678571D02*
X222228571Y-65892857D01*
X222300000Y-66035714D01*
X222371428Y-66107142D01*
X222514285Y-66178571D01*
X222800000Y-66178571D01*
X222942857Y-66107142D01*
X223014285Y-66035714D01*
X223085714Y-65892857D01*
X223085714Y-64678571D01*
X224585714Y-64750000D02*
X224442857Y-64678571D01*
X224228571Y-64678571D01*
X224014285Y-64750000D01*
X223871428Y-64892857D01*
X223800000Y-65035714D01*
X223728571Y-65321428D01*
X223728571Y-65535714D01*
X223800000Y-65821428D01*
X223871428Y-65964285D01*
X224014285Y-66107142D01*
X224228571Y-66178571D01*
X224371428Y-66178571D01*
X224585714Y-66107142D01*
X224657142Y-66035714D01*
X224657142Y-65535714D01*
X224371428Y-65535714D01*
X225300000Y-66178571D02*
X225300000Y-64678571D01*
X225300000Y-65392857D02*
X226157142Y-65392857D01*
X226157142Y-66178571D02*
X226157142Y-64678571D01*
X216128571Y-75278571D02*
X216985714Y-75278571D01*
X216557142Y-76778571D02*
X216557142Y-75278571D01*
X217485714Y-76778571D02*
X217485714Y-75278571D01*
X217485714Y-75992857D02*
X218342857Y-75992857D01*
X218342857Y-76778571D02*
X218342857Y-75278571D01*
X219914285Y-76778571D02*
X219414285Y-76064285D01*
X219057142Y-76778571D02*
X219057142Y-75278571D01*
X219628571Y-75278571D01*
X219771428Y-75350000D01*
X219842857Y-75421428D01*
X219914285Y-75564285D01*
X219914285Y-75778571D01*
X219842857Y-75921428D01*
X219771428Y-75992857D01*
X219628571Y-76064285D01*
X219057142Y-76064285D01*
X220842857Y-75278571D02*
X221128571Y-75278571D01*
X221271428Y-75350000D01*
X221414285Y-75492857D01*
X221485714Y-75778571D01*
X221485714Y-76278571D01*
X221414285Y-76564285D01*
X221271428Y-76707142D01*
X221128571Y-76778571D01*
X220842857Y-76778571D01*
X220700000Y-76707142D01*
X220557142Y-76564285D01*
X220485714Y-76278571D01*
X220485714Y-75778571D01*
X220557142Y-75492857D01*
X220700000Y-75350000D01*
X220842857Y-75278571D01*
X222128571Y-75278571D02*
X222128571Y-76492857D01*
X222200000Y-76635714D01*
X222271428Y-76707142D01*
X222414285Y-76778571D01*
X222700000Y-76778571D01*
X222842857Y-76707142D01*
X222914285Y-76635714D01*
X222985714Y-76492857D01*
X222985714Y-75278571D01*
X224485714Y-75350000D02*
X224342857Y-75278571D01*
X224128571Y-75278571D01*
X223914285Y-75350000D01*
X223771428Y-75492857D01*
X223700000Y-75635714D01*
X223628571Y-75921428D01*
X223628571Y-76135714D01*
X223700000Y-76421428D01*
X223771428Y-76564285D01*
X223914285Y-76707142D01*
X224128571Y-76778571D01*
X224271428Y-76778571D01*
X224485714Y-76707142D01*
X224557142Y-76635714D01*
X224557142Y-76135714D01*
X224271428Y-76135714D01*
X225200000Y-76778571D02*
X225200000Y-75278571D01*
X225200000Y-75992857D02*
X226057142Y-75992857D01*
X226057142Y-76778571D02*
X226057142Y-75278571D01*
D10*
X212735714Y-80839285D02*
X212735714Y-80089285D01*
X213164285Y-80839285D01*
X213164285Y-80089285D01*
X213628571Y-80839285D02*
X213557142Y-80803571D01*
X213521428Y-80767857D01*
X213485714Y-80696428D01*
X213485714Y-80482142D01*
X213521428Y-80410714D01*
X213557142Y-80375000D01*
X213628571Y-80339285D01*
X213735714Y-80339285D01*
X213807142Y-80375000D01*
X213842857Y-80410714D01*
X213878571Y-80482142D01*
X213878571Y-80696428D01*
X213842857Y-80767857D01*
X213807142Y-80803571D01*
X213735714Y-80839285D01*
X213628571Y-80839285D01*
X215164285Y-80125000D02*
X215092857Y-80089285D01*
X214985714Y-80089285D01*
X214878571Y-80125000D01*
X214807142Y-80196428D01*
X214771428Y-80267857D01*
X214735714Y-80410714D01*
X214735714Y-80517857D01*
X214771428Y-80660714D01*
X214807142Y-80732142D01*
X214878571Y-80803571D01*
X214985714Y-80839285D01*
X215057142Y-80839285D01*
X215164285Y-80803571D01*
X215200000Y-80767857D01*
X215200000Y-80517857D01*
X215057142Y-80517857D01*
X215521428Y-80839285D02*
X215521428Y-80339285D01*
X215521428Y-80482142D02*
X215557142Y-80410714D01*
X215592857Y-80375000D01*
X215664285Y-80339285D01*
X215735714Y-80339285D01*
X216092857Y-80839285D02*
X216021428Y-80803571D01*
X215985714Y-80767857D01*
X215950000Y-80696428D01*
X215950000Y-80482142D01*
X215985714Y-80410714D01*
X216021428Y-80375000D01*
X216092857Y-80339285D01*
X216200000Y-80339285D01*
X216271428Y-80375000D01*
X216307142Y-80410714D01*
X216342857Y-80482142D01*
X216342857Y-80696428D01*
X216307142Y-80767857D01*
X216271428Y-80803571D01*
X216200000Y-80839285D01*
X216092857Y-80839285D01*
X216985714Y-80339285D02*
X216985714Y-80839285D01*
X216664285Y-80339285D02*
X216664285Y-80732142D01*
X216700000Y-80803571D01*
X216771428Y-80839285D01*
X216878571Y-80839285D01*
X216950000Y-80803571D01*
X216985714Y-80767857D01*
X217342857Y-80339285D02*
X217342857Y-80839285D01*
X217342857Y-80410714D02*
X217378571Y-80375000D01*
X217450000Y-80339285D01*
X217557142Y-80339285D01*
X217628571Y-80375000D01*
X217664285Y-80446428D01*
X217664285Y-80839285D01*
X218342857Y-80839285D02*
X218342857Y-80089285D01*
X218342857Y-80803571D02*
X218271428Y-80839285D01*
X218128571Y-80839285D01*
X218057142Y-80803571D01*
X218021428Y-80767857D01*
X217985714Y-80696428D01*
X217985714Y-80482142D01*
X218021428Y-80410714D01*
X218057142Y-80375000D01*
X218128571Y-80339285D01*
X218271428Y-80339285D01*
X218342857Y-80375000D01*
X219700000Y-80767857D02*
X219664285Y-80803571D01*
X219557142Y-80839285D01*
X219485714Y-80839285D01*
X219378571Y-80803571D01*
X219307142Y-80732142D01*
X219271428Y-80660714D01*
X219235714Y-80517857D01*
X219235714Y-80410714D01*
X219271428Y-80267857D01*
X219307142Y-80196428D01*
X219378571Y-80125000D01*
X219485714Y-80089285D01*
X219557142Y-80089285D01*
X219664285Y-80125000D01*
X219700000Y-80160714D01*
X220342857Y-80339285D02*
X220342857Y-80839285D01*
X220021428Y-80339285D02*
X220021428Y-80732142D01*
X220057142Y-80803571D01*
X220128571Y-80839285D01*
X220235714Y-80839285D01*
X220307142Y-80803571D01*
X220342857Y-80767857D01*
X220592857Y-80339285D02*
X220878571Y-80339285D01*
X220700000Y-80089285D02*
X220700000Y-80732142D01*
X220735714Y-80803571D01*
X220807142Y-80839285D01*
X220878571Y-80839285D01*
X221235714Y-80839285D02*
X221164285Y-80803571D01*
X221128571Y-80767857D01*
X221092857Y-80696428D01*
X221092857Y-80482142D01*
X221128571Y-80410714D01*
X221164285Y-80375000D01*
X221235714Y-80339285D01*
X221342857Y-80339285D01*
X221414285Y-80375000D01*
X221450000Y-80410714D01*
X221485714Y-80482142D01*
X221485714Y-80696428D01*
X221450000Y-80767857D01*
X221414285Y-80803571D01*
X221342857Y-80839285D01*
X221235714Y-80839285D01*
X222128571Y-80339285D02*
X222128571Y-80839285D01*
X221807142Y-80339285D02*
X221807142Y-80732142D01*
X221842857Y-80803571D01*
X221914285Y-80839285D01*
X222021428Y-80839285D01*
X222092857Y-80803571D01*
X222128571Y-80767857D01*
X222378571Y-80339285D02*
X222664285Y-80339285D01*
X222485714Y-80089285D02*
X222485714Y-80732142D01*
X222521428Y-80803571D01*
X222592857Y-80839285D01*
X222664285Y-80839285D01*
X222878571Y-80803571D02*
X222950000Y-80839285D01*
X223092857Y-80839285D01*
X223164285Y-80803571D01*
X223200000Y-80732142D01*
X223200000Y-80696428D01*
X223164285Y-80625000D01*
X223092857Y-80589285D01*
X222985714Y-80589285D01*
X222914285Y-80553571D01*
X222878571Y-80482142D01*
X222878571Y-80446428D01*
X222914285Y-80375000D01*
X222985714Y-80339285D01*
X223092857Y-80339285D01*
X223164285Y-80375000D01*
X224414285Y-80339285D02*
X224414285Y-80839285D01*
X224092857Y-80339285D02*
X224092857Y-80732142D01*
X224128571Y-80803571D01*
X224200000Y-80839285D01*
X224307142Y-80839285D01*
X224378571Y-80803571D01*
X224414285Y-80767857D01*
X224771428Y-80339285D02*
X224771428Y-80839285D01*
X224771428Y-80410714D02*
X224807142Y-80375000D01*
X224878571Y-80339285D01*
X224985714Y-80339285D01*
X225057142Y-80375000D01*
X225092857Y-80446428D01*
X225092857Y-80839285D01*
X225771428Y-80839285D02*
X225771428Y-80089285D01*
X225771428Y-80803571D02*
X225700000Y-80839285D01*
X225557142Y-80839285D01*
X225485714Y-80803571D01*
X225450000Y-80767857D01*
X225414285Y-80696428D01*
X225414285Y-80482142D01*
X225450000Y-80410714D01*
X225485714Y-80375000D01*
X225557142Y-80339285D01*
X225700000Y-80339285D01*
X225771428Y-80375000D01*
X226414285Y-80803571D02*
X226342857Y-80839285D01*
X226200000Y-80839285D01*
X226128571Y-80803571D01*
X226092857Y-80732142D01*
X226092857Y-80446428D01*
X226128571Y-80375000D01*
X226200000Y-80339285D01*
X226342857Y-80339285D01*
X226414285Y-80375000D01*
X226450000Y-80446428D01*
X226450000Y-80517857D01*
X226092857Y-80589285D01*
X226771428Y-80839285D02*
X226771428Y-80339285D01*
X226771428Y-80482142D02*
X226807142Y-80410714D01*
X226842857Y-80375000D01*
X226914285Y-80339285D01*
X226985714Y-80339285D01*
X227771428Y-80803571D02*
X227878571Y-80839285D01*
X228057142Y-80839285D01*
X228128571Y-80803571D01*
X228164285Y-80767857D01*
X228200000Y-80696428D01*
X228200000Y-80625000D01*
X228164285Y-80553571D01*
X228128571Y-80517857D01*
X228057142Y-80482142D01*
X227914285Y-80446428D01*
X227842857Y-80410714D01*
X227807142Y-80375000D01*
X227771428Y-80303571D01*
X227771428Y-80232142D01*
X227807142Y-80160714D01*
X227842857Y-80125000D01*
X227914285Y-80089285D01*
X228092857Y-80089285D01*
X228200000Y-80125000D01*
X228521428Y-80839285D02*
X228521428Y-80089285D01*
X228771428Y-80625000D01*
X229021428Y-80089285D01*
X229021428Y-80839285D01*
X229342857Y-80625000D02*
X229700000Y-80625000D01*
X229271428Y-80839285D02*
X229521428Y-80089285D01*
X229771428Y-80839285D01*
X230592857Y-61402380D02*
X230259523Y-60926190D01*
X230021428Y-61402380D02*
X230021428Y-60402380D01*
X230402380Y-60402380D01*
X230497619Y-60450000D01*
X230545238Y-60497619D01*
X230592857Y-60592857D01*
X230592857Y-60735714D01*
X230545238Y-60830952D01*
X230497619Y-60878571D01*
X230402380Y-60926190D01*
X230021428Y-60926190D01*
X231402380Y-61354761D02*
X231307142Y-61402380D01*
X231116666Y-61402380D01*
X231021428Y-61354761D01*
X230973809Y-61259523D01*
X230973809Y-60878571D01*
X231021428Y-60783333D01*
X231116666Y-60735714D01*
X231307142Y-60735714D01*
X231402380Y-60783333D01*
X231450000Y-60878571D01*
X231450000Y-60973809D01*
X230973809Y-61069047D01*
X231783333Y-60735714D02*
X232021428Y-61402380D01*
X232259523Y-60735714D01*
X233926190Y-61402380D02*
X233354761Y-61402380D01*
X233640476Y-61402380D02*
X233640476Y-60402380D01*
X233545238Y-60545238D01*
X233450000Y-60640476D01*
X233354761Y-60688095D01*
D12*
X207557142Y-59450000D02*
X208271428Y-59450000D01*
X207414285Y-59878571D02*
X207914285Y-58378571D01*
X208414285Y-59878571D01*
X208914285Y-59878571D02*
X208914285Y-58378571D01*
X209271428Y-58378571D01*
X209485714Y-58450000D01*
X209628571Y-58592857D01*
X209700000Y-58735714D01*
X209771428Y-59021428D01*
X209771428Y-59235714D01*
X209700000Y-59521428D01*
X209628571Y-59664285D01*
X209485714Y-59807142D01*
X209271428Y-59878571D01*
X208914285Y-59878571D01*
X211271428Y-59735714D02*
X211200000Y-59807142D01*
X210985714Y-59878571D01*
X210842857Y-59878571D01*
X210628571Y-59807142D01*
X210485714Y-59664285D01*
X210414285Y-59521428D01*
X210342857Y-59235714D01*
X210342857Y-59021428D01*
X210414285Y-58735714D01*
X210485714Y-58592857D01*
X210628571Y-58450000D01*
X210842857Y-58378571D01*
X210985714Y-58378571D01*
X211200000Y-58450000D01*
X211271428Y-58521428D01*
X211914285Y-59307142D02*
X213057142Y-59307142D01*
X214557142Y-59878571D02*
X213700000Y-59878571D01*
X214128571Y-59878571D02*
X214128571Y-58378571D01*
X213985714Y-58592857D01*
X213842857Y-58735714D01*
X213700000Y-58807142D01*
X215914285Y-58378571D02*
X215200000Y-58378571D01*
X215128571Y-59092857D01*
X215200000Y-59021428D01*
X215342857Y-58950000D01*
X215700000Y-58950000D01*
X215842857Y-59021428D01*
X215914285Y-59092857D01*
X215985714Y-59235714D01*
X215985714Y-59592857D01*
X215914285Y-59735714D01*
X215842857Y-59807142D01*
X215700000Y-59878571D01*
X215342857Y-59878571D01*
X215200000Y-59807142D01*
X215128571Y-59735714D01*
X216628571Y-59307142D02*
X217771428Y-59307142D01*
X219128571Y-58878571D02*
X219128571Y-59878571D01*
X218771428Y-58307142D02*
X218414285Y-59378571D01*
X219342857Y-59378571D01*
X219914285Y-59307142D02*
X221057142Y-59307142D01*
X220485714Y-59878571D02*
X220485714Y-58735714D01*
X222914285Y-59878571D02*
X222914285Y-58378571D01*
X223271428Y-58378571D01*
X223485714Y-58450000D01*
X223628571Y-58592857D01*
X223700000Y-58735714D01*
X223771428Y-59021428D01*
X223771428Y-59235714D01*
X223700000Y-59521428D01*
X223628571Y-59664285D01*
X223485714Y-59807142D01*
X223271428Y-59878571D01*
X222914285Y-59878571D01*
X224985714Y-59807142D02*
X224842857Y-59878571D01*
X224557142Y-59878571D01*
X224414285Y-59807142D01*
X224342857Y-59664285D01*
X224342857Y-59092857D01*
X224414285Y-58950000D01*
X224557142Y-58878571D01*
X224842857Y-58878571D01*
X224985714Y-58950000D01*
X225057142Y-59092857D01*
X225057142Y-59235714D01*
X224342857Y-59378571D01*
X225557142Y-58878571D02*
X225914285Y-59878571D01*
X226271428Y-58878571D01*
X228485714Y-59092857D02*
X228700000Y-59164285D01*
X228771428Y-59235714D01*
X228842857Y-59378571D01*
X228842857Y-59592857D01*
X228771428Y-59735714D01*
X228700000Y-59807142D01*
X228557142Y-59878571D01*
X227985714Y-59878571D01*
X227985714Y-58378571D01*
X228485714Y-58378571D01*
X228628571Y-58450000D01*
X228700000Y-58521428D01*
X228771428Y-58664285D01*
X228771428Y-58807142D01*
X228700000Y-58950000D01*
X228628571Y-59021428D01*
X228485714Y-59092857D01*
X227985714Y-59092857D01*
X229700000Y-59878571D02*
X229557142Y-59807142D01*
X229485714Y-59735714D01*
X229414285Y-59592857D01*
X229414285Y-59164285D01*
X229485714Y-59021428D01*
X229557142Y-58950000D01*
X229700000Y-58878571D01*
X229914285Y-58878571D01*
X230057142Y-58950000D01*
X230128571Y-59021428D01*
X230200000Y-59164285D01*
X230200000Y-59592857D01*
X230128571Y-59735714D01*
X230057142Y-59807142D01*
X229914285Y-59878571D01*
X229700000Y-59878571D01*
X231485714Y-59878571D02*
X231485714Y-59092857D01*
X231414285Y-58950000D01*
X231271428Y-58878571D01*
X230985714Y-58878571D01*
X230842857Y-58950000D01*
X231485714Y-59807142D02*
X231342857Y-59878571D01*
X230985714Y-59878571D01*
X230842857Y-59807142D01*
X230771428Y-59664285D01*
X230771428Y-59521428D01*
X230842857Y-59378571D01*
X230985714Y-59307142D01*
X231342857Y-59307142D01*
X231485714Y-59235714D01*
X232200000Y-59878571D02*
X232200000Y-58878571D01*
X232200000Y-59164285D02*
X232271428Y-59021428D01*
X232342857Y-58950000D01*
X232485714Y-58878571D01*
X232628571Y-58878571D01*
X233771428Y-59878571D02*
X233771428Y-58378571D01*
X233771428Y-59807142D02*
X233628571Y-59878571D01*
X233342857Y-59878571D01*
X233200000Y-59807142D01*
X233128571Y-59735714D01*
X233057142Y-59592857D01*
X233057142Y-59164285D01*
X233128571Y-59021428D01*
X233200000Y-58950000D01*
X233342857Y-58878571D01*
X233628571Y-58878571D01*
X233771428Y-58950000D01*
D11*
X221907142Y-101435714D02*
X221835714Y-101507142D01*
X221621428Y-101578571D01*
X221478571Y-101578571D01*
X221264285Y-101507142D01*
X221121428Y-101364285D01*
X221050000Y-101221428D01*
X220978571Y-100935714D01*
X220978571Y-100721428D01*
X221050000Y-100435714D01*
X221121428Y-100292857D01*
X221264285Y-100150000D01*
X221478571Y-100078571D01*
X221621428Y-100078571D01*
X221835714Y-100150000D01*
X221907142Y-100221428D01*
X222835714Y-100078571D02*
X223121428Y-100078571D01*
X223264285Y-100150000D01*
X223407142Y-100292857D01*
X223478571Y-100578571D01*
X223478571Y-101078571D01*
X223407142Y-101364285D01*
X223264285Y-101507142D01*
X223121428Y-101578571D01*
X222835714Y-101578571D01*
X222692857Y-101507142D01*
X222550000Y-101364285D01*
X222478571Y-101078571D01*
X222478571Y-100578571D01*
X222550000Y-100292857D01*
X222692857Y-100150000D01*
X222835714Y-100078571D01*
X224121428Y-100078571D02*
X224121428Y-101292857D01*
X224192857Y-101435714D01*
X224264285Y-101507142D01*
X224407142Y-101578571D01*
X224692857Y-101578571D01*
X224835714Y-101507142D01*
X224907142Y-101435714D01*
X224978571Y-101292857D01*
X224978571Y-100078571D01*
X225692857Y-101578571D02*
X225692857Y-100078571D01*
X226264285Y-100078571D01*
X226407142Y-100150000D01*
X226478571Y-100221428D01*
X226550000Y-100364285D01*
X226550000Y-100578571D01*
X226478571Y-100721428D01*
X226407142Y-100792857D01*
X226264285Y-100864285D01*
X225692857Y-100864285D01*
X227907142Y-101578571D02*
X227192857Y-101578571D01*
X227192857Y-100078571D01*
X228407142Y-100792857D02*
X228907142Y-100792857D01*
X229121428Y-101578571D02*
X228407142Y-101578571D01*
X228407142Y-100078571D01*
X229121428Y-100078571D01*
X229764285Y-101578571D02*
X229764285Y-100078571D01*
X230121428Y-100078571D01*
X230335714Y-100150000D01*
X230478571Y-100292857D01*
X230550000Y-100435714D01*
X230621428Y-100721428D01*
X230621428Y-100935714D01*
X230550000Y-101221428D01*
X230478571Y-101364285D01*
X230335714Y-101507142D01*
X230121428Y-101578571D01*
X229764285Y-101578571D01*
X232292857Y-85578571D02*
X232578571Y-85578571D01*
X232721428Y-85650000D01*
X232864285Y-85792857D01*
X232935714Y-86078571D01*
X232935714Y-86578571D01*
X232864285Y-86864285D01*
X232721428Y-87007142D01*
X232578571Y-87078571D01*
X232292857Y-87078571D01*
X232150000Y-87007142D01*
X232007142Y-86864285D01*
X231935714Y-86578571D01*
X231935714Y-86078571D01*
X232007142Y-85792857D01*
X232150000Y-85650000D01*
X232292857Y-85578571D01*
X233578571Y-85578571D02*
X233578571Y-86792857D01*
X233650000Y-86935714D01*
X233721428Y-87007142D01*
X233864285Y-87078571D01*
X234150000Y-87078571D01*
X234292857Y-87007142D01*
X234364285Y-86935714D01*
X234435714Y-86792857D01*
X234435714Y-85578571D01*
X234935714Y-85578571D02*
X235792857Y-85578571D01*
X235364285Y-87078571D02*
X235364285Y-85578571D01*
X236292857Y-87078571D02*
X236292857Y-85578571D01*
X236864285Y-85578571D01*
X237007142Y-85650000D01*
X237078571Y-85721428D01*
X237150000Y-85864285D01*
X237150000Y-86078571D01*
X237078571Y-86221428D01*
X237007142Y-86292857D01*
X236864285Y-86364285D01*
X236292857Y-86364285D01*
X237792857Y-85578571D02*
X237792857Y-86792857D01*
X237864285Y-86935714D01*
X237935714Y-87007142D01*
X238078571Y-87078571D01*
X238364285Y-87078571D01*
X238507142Y-87007142D01*
X238578571Y-86935714D01*
X238650000Y-86792857D01*
X238650000Y-85578571D01*
X239150000Y-85578571D02*
X240007142Y-85578571D01*
X239578571Y-87078571D02*
X239578571Y-85578571D01*
X202107142Y-86978571D02*
X202107142Y-85478571D01*
X202821428Y-86978571D02*
X202821428Y-85478571D01*
X203678571Y-86978571D01*
X203678571Y-85478571D01*
X204392857Y-86978571D02*
X204392857Y-85478571D01*
X204964285Y-85478571D01*
X205107142Y-85550000D01*
X205178571Y-85621428D01*
X205250000Y-85764285D01*
X205250000Y-85978571D01*
X205178571Y-86121428D01*
X205107142Y-86192857D01*
X204964285Y-86264285D01*
X204392857Y-86264285D01*
X205892857Y-85478571D02*
X205892857Y-86692857D01*
X205964285Y-86835714D01*
X206035714Y-86907142D01*
X206178571Y-86978571D01*
X206464285Y-86978571D01*
X206607142Y-86907142D01*
X206678571Y-86835714D01*
X206750000Y-86692857D01*
X206750000Y-85478571D01*
X207250000Y-85478571D02*
X208107142Y-85478571D01*
X207678571Y-86978571D02*
X207678571Y-85478571D01*
D10*
G04 #@! TO.C,FL1*
X226032778Y-88596010D02*
X226802778Y-87826010D01*
X226802778Y-87826010D02*
X227572778Y-87826010D01*
X227572778Y-87826010D02*
X227572778Y-95556010D01*
X227572778Y-95556010D02*
X226032778Y-95556010D01*
X226032778Y-95556010D02*
X226032778Y-88596010D01*
D13*
G04 #@! TO.C,R1*
X233110000Y-93562779D02*
X233110000Y-93237221D01*
X232090000Y-93562779D02*
X232090000Y-93237221D01*
G04 #@! TO.C,FL1*
D10*
X226064682Y-86754581D02*
X225731349Y-86754581D01*
X225731349Y-87278390D02*
X225731349Y-86278390D01*
X226207539Y-86278390D01*
X227064682Y-87278390D02*
X226588492Y-87278390D01*
X226588492Y-86278390D01*
X227921825Y-87278390D02*
X227350397Y-87278390D01*
X227636111Y-87278390D02*
X227636111Y-86278390D01*
X227540873Y-86421248D01*
X227445635Y-86516486D01*
X227350397Y-86564105D01*
G04 #@! TO.C,R1*
X232483333Y-96302380D02*
X232150000Y-95826190D01*
X231911904Y-96302380D02*
X231911904Y-95302380D01*
X232292857Y-95302380D01*
X232388095Y-95350000D01*
X232435714Y-95397619D01*
X232483333Y-95492857D01*
X232483333Y-95635714D01*
X232435714Y-95730952D01*
X232388095Y-95778571D01*
X232292857Y-95826190D01*
X231911904Y-95826190D01*
X233435714Y-96302380D02*
X232864285Y-96302380D01*
X233150000Y-96302380D02*
X233150000Y-95302380D01*
X233054761Y-95445238D01*
X232959523Y-95540476D01*
X232864285Y-95588095D01*
G04 #@! TD*
M02*
