G04 #@! TF.GenerationSoftware,KiCad,Pcbnew,(5.0.2)-1*
G04 #@! TF.CreationDate,2019-01-06T11:51:24+11:00*
G04 #@! TF.ProjectId,ADC-15-4_Dev_Rev_1,4144432d-3135-42d3-945f-4465765f5265,1*
G04 #@! TF.SameCoordinates,Original*
G04 #@! TF.FileFunction,Soldermask,Top*
G04 #@! TF.FilePolarity,Negative*
%FSLAX46Y46*%
G04 Gerber Fmt 4.6, Leading zero omitted, Abs format (unit mm)*
G04 Created by KiCad (PCBNEW (5.0.2)-1) date 6/01/2019 11:51:24*
%MOMM*%
%LPD*%
G01*
G04 APERTURE LIST*
%ADD10C,0.010000*%
%ADD11C,0.150000*%
%ADD12C,0.100000*%
G04 APERTURE END LIST*
D10*
G04 #@! TO.C,G\002A\002A\002A*
G36*
X233646025Y-99213358D02*
X233687086Y-99213668D01*
X233723939Y-99214144D01*
X233755448Y-99214763D01*
X233780478Y-99215502D01*
X233797893Y-99216337D01*
X233806557Y-99217244D01*
X233807210Y-99217471D01*
X233809787Y-99223471D01*
X233813922Y-99238787D01*
X233819466Y-99262721D01*
X233826268Y-99294573D01*
X233834179Y-99333644D01*
X233843047Y-99379237D01*
X233850901Y-99420850D01*
X233859151Y-99464601D01*
X233867001Y-99505265D01*
X233874225Y-99541748D01*
X233880599Y-99572957D01*
X233885898Y-99597798D01*
X233889897Y-99615177D01*
X233892372Y-99624000D01*
X233892802Y-99624834D01*
X233899048Y-99628371D01*
X233913151Y-99634916D01*
X233933676Y-99643889D01*
X233959190Y-99654710D01*
X233988258Y-99666800D01*
X234019446Y-99679578D01*
X234051320Y-99692466D01*
X234082447Y-99704882D01*
X234111392Y-99716248D01*
X234136721Y-99725983D01*
X234156999Y-99733508D01*
X234170794Y-99738242D01*
X234176671Y-99739607D01*
X234176678Y-99739605D01*
X234181988Y-99736333D01*
X234194724Y-99727928D01*
X234213948Y-99715025D01*
X234238724Y-99698257D01*
X234268114Y-99678260D01*
X234301180Y-99655669D01*
X234336986Y-99631119D01*
X234345656Y-99625162D01*
X234382085Y-99600277D01*
X234416148Y-99577306D01*
X234446886Y-99556874D01*
X234473339Y-99539606D01*
X234494549Y-99526126D01*
X234509556Y-99517059D01*
X234517401Y-99513028D01*
X234518086Y-99512879D01*
X234523807Y-99516391D01*
X234535602Y-99526292D01*
X234552520Y-99541632D01*
X234573609Y-99561458D01*
X234597919Y-99584820D01*
X234624500Y-99610767D01*
X234652400Y-99638347D01*
X234680669Y-99666609D01*
X234708355Y-99694603D01*
X234734508Y-99721376D01*
X234758178Y-99745978D01*
X234778412Y-99767458D01*
X234794261Y-99784864D01*
X234804774Y-99797246D01*
X234808999Y-99803651D01*
X234809040Y-99803938D01*
X234806243Y-99810058D01*
X234798279Y-99823530D01*
X234785789Y-99843372D01*
X234769410Y-99868598D01*
X234749783Y-99898226D01*
X234727547Y-99931269D01*
X234703341Y-99966745D01*
X234701788Y-99969005D01*
X234677294Y-100004726D01*
X234654499Y-100038139D01*
X234634080Y-100068244D01*
X234616708Y-100094038D01*
X234603060Y-100114521D01*
X234593807Y-100128692D01*
X234589626Y-100135550D01*
X234589568Y-100135670D01*
X234588784Y-100140391D01*
X234589912Y-100148231D01*
X234593299Y-100160143D01*
X234599292Y-100177084D01*
X234608241Y-100200007D01*
X234620491Y-100229867D01*
X234636390Y-100267619D01*
X234644749Y-100287252D01*
X234661018Y-100324852D01*
X234676011Y-100358510D01*
X234689231Y-100387168D01*
X234700175Y-100409772D01*
X234708346Y-100425265D01*
X234713243Y-100432592D01*
X234713710Y-100432948D01*
X234720560Y-100434928D01*
X234736248Y-100438502D01*
X234759616Y-100443434D01*
X234789508Y-100449491D01*
X234824767Y-100456439D01*
X234864236Y-100464044D01*
X234906757Y-100472071D01*
X234911409Y-100472940D01*
X234960146Y-100482180D01*
X235003053Y-100490621D01*
X235039390Y-100498102D01*
X235068418Y-100504463D01*
X235089397Y-100509544D01*
X235101585Y-100513184D01*
X235104451Y-100514714D01*
X235105372Y-100521096D01*
X235106225Y-100536503D01*
X235106989Y-100559798D01*
X235107638Y-100589847D01*
X235108151Y-100625514D01*
X235108503Y-100665663D01*
X235108671Y-100709159D01*
X235108682Y-100720027D01*
X235108649Y-100771548D01*
X235108486Y-100813801D01*
X235108162Y-100847680D01*
X235107647Y-100874077D01*
X235106908Y-100893884D01*
X235105916Y-100907996D01*
X235104639Y-100917303D01*
X235103046Y-100922699D01*
X235101595Y-100924741D01*
X235095095Y-100926999D01*
X235079763Y-100930799D01*
X235056765Y-100935898D01*
X235027271Y-100942050D01*
X234992450Y-100949013D01*
X234953470Y-100956543D01*
X234912365Y-100964236D01*
X234866210Y-100972897D01*
X234824798Y-100980981D01*
X234789062Y-100988286D01*
X234759937Y-100994611D01*
X234738354Y-100999758D01*
X234725249Y-101003525D01*
X234721726Y-101005133D01*
X234717704Y-101011585D01*
X234710714Y-101025987D01*
X234701314Y-101046948D01*
X234690063Y-101073082D01*
X234677519Y-101103000D01*
X234664240Y-101135313D01*
X234650785Y-101168634D01*
X234637712Y-101201575D01*
X234625580Y-101232747D01*
X234614946Y-101260763D01*
X234606369Y-101284233D01*
X234600408Y-101301771D01*
X234597620Y-101311987D01*
X234597556Y-101313842D01*
X234600901Y-101319358D01*
X234609348Y-101332262D01*
X234622236Y-101351573D01*
X234638906Y-101376312D01*
X234658697Y-101405498D01*
X234680948Y-101438151D01*
X234704512Y-101472582D01*
X234728487Y-101507797D01*
X234750526Y-101540662D01*
X234769982Y-101570174D01*
X234786209Y-101595331D01*
X234798558Y-101615130D01*
X234806383Y-101628568D01*
X234809040Y-101634588D01*
X234805537Y-101640258D01*
X234795662Y-101652017D01*
X234780363Y-101668914D01*
X234760590Y-101689997D01*
X234737290Y-101714314D01*
X234711414Y-101740912D01*
X234683908Y-101768838D01*
X234655723Y-101797142D01*
X234627807Y-101824870D01*
X234601109Y-101851071D01*
X234576578Y-101874792D01*
X234555162Y-101895081D01*
X234537810Y-101910985D01*
X234525471Y-101921554D01*
X234519094Y-101925834D01*
X234518792Y-101925880D01*
X234512917Y-101923089D01*
X234499690Y-101915148D01*
X234480102Y-101902705D01*
X234455147Y-101886406D01*
X234425814Y-101866900D01*
X234393098Y-101844834D01*
X234359274Y-101821740D01*
X234324192Y-101797807D01*
X234291493Y-101775813D01*
X234262179Y-101756405D01*
X234237247Y-101740232D01*
X234217696Y-101727942D01*
X234204527Y-101720183D01*
X234198812Y-101717600D01*
X234191386Y-101719920D01*
X234176894Y-101726305D01*
X234157157Y-101735890D01*
X234133991Y-101747810D01*
X234123350Y-101753481D01*
X234097800Y-101766747D01*
X234075514Y-101777375D01*
X234058172Y-101784622D01*
X234047456Y-101787744D01*
X234045823Y-101787771D01*
X234043235Y-101786377D01*
X234039874Y-101782452D01*
X234035467Y-101775381D01*
X234029738Y-101764547D01*
X234022414Y-101749334D01*
X234013220Y-101729125D01*
X234001884Y-101703305D01*
X233988129Y-101671257D01*
X233971684Y-101632365D01*
X233952272Y-101586012D01*
X233929620Y-101531582D01*
X233903454Y-101468459D01*
X233898860Y-101457359D01*
X233876257Y-101402528D01*
X233854911Y-101350342D01*
X233835128Y-101301575D01*
X233817213Y-101256998D01*
X233801473Y-101217386D01*
X233788212Y-101183510D01*
X233777736Y-101156143D01*
X233770352Y-101136060D01*
X233766364Y-101124031D01*
X233765760Y-101120809D01*
X233770949Y-101114897D01*
X233782723Y-101104827D01*
X233799234Y-101092102D01*
X233815173Y-101080629D01*
X233857327Y-101049570D01*
X233891753Y-101020231D01*
X233920203Y-100990682D01*
X233944432Y-100958997D01*
X233966194Y-100923247D01*
X233976863Y-100902918D01*
X234000756Y-100844488D01*
X234015076Y-100784158D01*
X234019979Y-100722953D01*
X234015623Y-100661898D01*
X234002163Y-100602019D01*
X233979756Y-100544342D01*
X233948559Y-100489891D01*
X233908727Y-100439692D01*
X233905664Y-100436411D01*
X233858017Y-100392833D01*
X233804808Y-100357422D01*
X233745354Y-100329755D01*
X233716660Y-100319807D01*
X233699933Y-100314974D01*
X233684165Y-100311632D01*
X233666854Y-100309519D01*
X233645497Y-100308373D01*
X233617593Y-100307935D01*
X233602540Y-100307900D01*
X233570915Y-100308110D01*
X233546936Y-100308916D01*
X233528093Y-100310578D01*
X233511877Y-100313357D01*
X233495778Y-100317516D01*
X233488240Y-100319802D01*
X233426246Y-100344205D01*
X233369961Y-100376690D01*
X233319969Y-100416763D01*
X233276854Y-100463933D01*
X233241201Y-100517707D01*
X233231329Y-100536500D01*
X233210756Y-100583357D01*
X233197234Y-100627726D01*
X233189860Y-100673443D01*
X233187727Y-100721920D01*
X233192586Y-100786989D01*
X233206992Y-100849065D01*
X233230688Y-100907510D01*
X233263416Y-100961687D01*
X233303955Y-101009975D01*
X233322140Y-101026971D01*
X233345762Y-101046791D01*
X233371748Y-101067052D01*
X233397023Y-101085368D01*
X233418514Y-101099354D01*
X233421139Y-101100883D01*
X233432832Y-101109785D01*
X233439872Y-101119264D01*
X233440325Y-101120648D01*
X233438872Y-101127322D01*
X233433641Y-101142833D01*
X233424832Y-101166671D01*
X233412647Y-101198326D01*
X233397287Y-101237287D01*
X233378953Y-101283043D01*
X233357846Y-101335085D01*
X233334166Y-101392901D01*
X233310728Y-101449679D01*
X233288300Y-101503781D01*
X233266914Y-101555286D01*
X233246903Y-101603399D01*
X233228599Y-101647325D01*
X233212334Y-101686268D01*
X233198442Y-101719433D01*
X233187253Y-101746026D01*
X233179102Y-101765249D01*
X233174319Y-101776309D01*
X233173253Y-101778609D01*
X233165020Y-101786716D01*
X233158211Y-101788720D01*
X233150498Y-101786394D01*
X233135745Y-101779995D01*
X233115790Y-101770387D01*
X233092470Y-101758437D01*
X233081642Y-101752672D01*
X233051834Y-101737192D01*
X233028316Y-101726189D01*
X233011875Y-101720007D01*
X233003822Y-101718837D01*
X232996680Y-101722269D01*
X232982538Y-101730700D01*
X232962709Y-101743286D01*
X232938506Y-101759184D01*
X232911241Y-101777551D01*
X232893880Y-101789461D01*
X232846962Y-101821822D01*
X232807682Y-101848815D01*
X232775352Y-101870892D01*
X232749281Y-101888506D01*
X232728781Y-101902109D01*
X232713163Y-101912155D01*
X232701739Y-101919097D01*
X232693819Y-101923388D01*
X232688714Y-101925480D01*
X232686387Y-101925880D01*
X232681121Y-101922399D01*
X232669535Y-101912478D01*
X232652460Y-101896897D01*
X232630721Y-101876437D01*
X232605148Y-101851880D01*
X232576568Y-101824006D01*
X232545809Y-101793597D01*
X232539731Y-101787541D01*
X232508736Y-101756470D01*
X232480010Y-101727382D01*
X232454357Y-101701112D01*
X232432577Y-101678494D01*
X232415473Y-101660363D01*
X232403847Y-101647552D01*
X232398501Y-101640896D01*
X232398266Y-101640413D01*
X232397367Y-101637436D01*
X232397052Y-101634393D01*
X232397835Y-101630460D01*
X232400226Y-101624812D01*
X232404737Y-101616624D01*
X232411879Y-101605072D01*
X232422165Y-101589330D01*
X232436105Y-101568575D01*
X232454212Y-101541980D01*
X232476996Y-101508721D01*
X232504969Y-101467973D01*
X232507515Y-101464266D01*
X232531161Y-101429625D01*
X232552865Y-101397438D01*
X232571973Y-101368706D01*
X232587831Y-101344428D01*
X232599785Y-101325605D01*
X232607181Y-101313237D01*
X232609400Y-101308469D01*
X232607571Y-101302070D01*
X232602390Y-101287455D01*
X232594314Y-101265826D01*
X232583802Y-101238385D01*
X232571312Y-101206333D01*
X232557300Y-101170874D01*
X232550294Y-101153307D01*
X232532557Y-101109314D01*
X232518005Y-101074051D01*
X232506276Y-101046727D01*
X232497006Y-101026551D01*
X232489833Y-101012734D01*
X232484394Y-101004485D01*
X232480444Y-101001059D01*
X232473085Y-100999121D01*
X232456936Y-100995609D01*
X232433202Y-100990762D01*
X232403091Y-100984819D01*
X232367809Y-100978018D01*
X232328562Y-100970597D01*
X232289921Y-100963414D01*
X232248281Y-100955616D01*
X232209669Y-100948154D01*
X232175261Y-100941273D01*
X232146230Y-100935217D01*
X232123751Y-100930232D01*
X232108998Y-100926560D01*
X232103231Y-100924531D01*
X232101433Y-100921360D01*
X232099961Y-100914541D01*
X232098785Y-100903211D01*
X232097877Y-100886509D01*
X232097207Y-100863571D01*
X232096746Y-100833536D01*
X232096465Y-100795541D01*
X232096336Y-100748724D01*
X232096320Y-100718875D01*
X232096320Y-100518954D01*
X232107750Y-100511902D01*
X232115237Y-100509400D01*
X232131536Y-100505372D01*
X232155455Y-100500066D01*
X232185802Y-100493732D01*
X232221384Y-100486617D01*
X232261009Y-100478971D01*
X232303486Y-100471042D01*
X232304600Y-100470838D01*
X232346876Y-100462950D01*
X232386108Y-100455374D01*
X232421145Y-100448352D01*
X232450836Y-100442126D01*
X232474030Y-100436937D01*
X232489576Y-100433026D01*
X232496323Y-100430637D01*
X232496405Y-100430566D01*
X232500090Y-100424301D01*
X232507022Y-100410106D01*
X232516577Y-100389428D01*
X232528134Y-100363713D01*
X232541070Y-100334406D01*
X232554763Y-100302954D01*
X232568591Y-100270802D01*
X232581931Y-100239397D01*
X232594161Y-100210185D01*
X232604659Y-100184611D01*
X232612803Y-100164123D01*
X232617969Y-100150165D01*
X232619560Y-100144394D01*
X232616767Y-100138575D01*
X232608811Y-100125372D01*
X232596319Y-100105749D01*
X232579924Y-100080667D01*
X232560254Y-100051089D01*
X232537939Y-100017976D01*
X232513611Y-99982293D01*
X232509742Y-99976655D01*
X232485048Y-99940538D01*
X232462155Y-99906750D01*
X232441713Y-99876274D01*
X232424371Y-99850088D01*
X232410778Y-99829175D01*
X232401583Y-99814516D01*
X232397434Y-99807090D01*
X232397293Y-99806684D01*
X232398054Y-99802579D01*
X232402214Y-99795668D01*
X232410317Y-99785355D01*
X232422905Y-99771048D01*
X232440521Y-99752154D01*
X232463708Y-99728078D01*
X232493008Y-99698226D01*
X232528964Y-99662005D01*
X232536199Y-99654749D01*
X232572218Y-99618889D01*
X232604356Y-99587378D01*
X232632068Y-99560731D01*
X232654806Y-99539461D01*
X232672023Y-99524081D01*
X232683174Y-99515105D01*
X232687325Y-99512880D01*
X232693560Y-99515672D01*
X232707156Y-99523627D01*
X232727133Y-99536110D01*
X232752508Y-99552487D01*
X232782300Y-99572122D01*
X232815526Y-99594382D01*
X232851205Y-99618631D01*
X232855086Y-99621289D01*
X232891100Y-99645928D01*
X232924822Y-99668914D01*
X232955253Y-99689573D01*
X232981395Y-99707230D01*
X233002248Y-99721211D01*
X233016815Y-99730841D01*
X233024096Y-99735446D01*
X233024352Y-99735587D01*
X233028805Y-99736941D01*
X233035339Y-99736744D01*
X233045059Y-99734631D01*
X233059068Y-99730234D01*
X233078471Y-99723187D01*
X233104373Y-99713124D01*
X233137877Y-99699677D01*
X233161512Y-99690068D01*
X233203366Y-99672981D01*
X233236788Y-99659243D01*
X233262760Y-99648382D01*
X233282264Y-99639926D01*
X233296281Y-99633403D01*
X233305795Y-99628340D01*
X233311786Y-99624266D01*
X233315236Y-99620708D01*
X233317128Y-99617193D01*
X233317945Y-99614840D01*
X233319560Y-99607736D01*
X233322793Y-99591805D01*
X233327420Y-99568215D01*
X233333216Y-99538129D01*
X233339958Y-99502714D01*
X233347420Y-99463135D01*
X233355378Y-99420558D01*
X233356195Y-99416168D01*
X233364252Y-99373481D01*
X233371968Y-99333799D01*
X233379104Y-99298266D01*
X233385420Y-99268028D01*
X233390676Y-99244228D01*
X233394633Y-99228012D01*
X233397050Y-99220524D01*
X233397212Y-99220283D01*
X233400242Y-99218437D01*
X233406563Y-99216928D01*
X233417063Y-99215727D01*
X233432633Y-99214801D01*
X233454159Y-99214121D01*
X233482532Y-99213657D01*
X233518639Y-99213376D01*
X233563370Y-99213250D01*
X233601892Y-99213237D01*
X233646025Y-99213358D01*
X233646025Y-99213358D01*
G37*
X233646025Y-99213358D02*
X233687086Y-99213668D01*
X233723939Y-99214144D01*
X233755448Y-99214763D01*
X233780478Y-99215502D01*
X233797893Y-99216337D01*
X233806557Y-99217244D01*
X233807210Y-99217471D01*
X233809787Y-99223471D01*
X233813922Y-99238787D01*
X233819466Y-99262721D01*
X233826268Y-99294573D01*
X233834179Y-99333644D01*
X233843047Y-99379237D01*
X233850901Y-99420850D01*
X233859151Y-99464601D01*
X233867001Y-99505265D01*
X233874225Y-99541748D01*
X233880599Y-99572957D01*
X233885898Y-99597798D01*
X233889897Y-99615177D01*
X233892372Y-99624000D01*
X233892802Y-99624834D01*
X233899048Y-99628371D01*
X233913151Y-99634916D01*
X233933676Y-99643889D01*
X233959190Y-99654710D01*
X233988258Y-99666800D01*
X234019446Y-99679578D01*
X234051320Y-99692466D01*
X234082447Y-99704882D01*
X234111392Y-99716248D01*
X234136721Y-99725983D01*
X234156999Y-99733508D01*
X234170794Y-99738242D01*
X234176671Y-99739607D01*
X234176678Y-99739605D01*
X234181988Y-99736333D01*
X234194724Y-99727928D01*
X234213948Y-99715025D01*
X234238724Y-99698257D01*
X234268114Y-99678260D01*
X234301180Y-99655669D01*
X234336986Y-99631119D01*
X234345656Y-99625162D01*
X234382085Y-99600277D01*
X234416148Y-99577306D01*
X234446886Y-99556874D01*
X234473339Y-99539606D01*
X234494549Y-99526126D01*
X234509556Y-99517059D01*
X234517401Y-99513028D01*
X234518086Y-99512879D01*
X234523807Y-99516391D01*
X234535602Y-99526292D01*
X234552520Y-99541632D01*
X234573609Y-99561458D01*
X234597919Y-99584820D01*
X234624500Y-99610767D01*
X234652400Y-99638347D01*
X234680669Y-99666609D01*
X234708355Y-99694603D01*
X234734508Y-99721376D01*
X234758178Y-99745978D01*
X234778412Y-99767458D01*
X234794261Y-99784864D01*
X234804774Y-99797246D01*
X234808999Y-99803651D01*
X234809040Y-99803938D01*
X234806243Y-99810058D01*
X234798279Y-99823530D01*
X234785789Y-99843372D01*
X234769410Y-99868598D01*
X234749783Y-99898226D01*
X234727547Y-99931269D01*
X234703341Y-99966745D01*
X234701788Y-99969005D01*
X234677294Y-100004726D01*
X234654499Y-100038139D01*
X234634080Y-100068244D01*
X234616708Y-100094038D01*
X234603060Y-100114521D01*
X234593807Y-100128692D01*
X234589626Y-100135550D01*
X234589568Y-100135670D01*
X234588784Y-100140391D01*
X234589912Y-100148231D01*
X234593299Y-100160143D01*
X234599292Y-100177084D01*
X234608241Y-100200007D01*
X234620491Y-100229867D01*
X234636390Y-100267619D01*
X234644749Y-100287252D01*
X234661018Y-100324852D01*
X234676011Y-100358510D01*
X234689231Y-100387168D01*
X234700175Y-100409772D01*
X234708346Y-100425265D01*
X234713243Y-100432592D01*
X234713710Y-100432948D01*
X234720560Y-100434928D01*
X234736248Y-100438502D01*
X234759616Y-100443434D01*
X234789508Y-100449491D01*
X234824767Y-100456439D01*
X234864236Y-100464044D01*
X234906757Y-100472071D01*
X234911409Y-100472940D01*
X234960146Y-100482180D01*
X235003053Y-100490621D01*
X235039390Y-100498102D01*
X235068418Y-100504463D01*
X235089397Y-100509544D01*
X235101585Y-100513184D01*
X235104451Y-100514714D01*
X235105372Y-100521096D01*
X235106225Y-100536503D01*
X235106989Y-100559798D01*
X235107638Y-100589847D01*
X235108151Y-100625514D01*
X235108503Y-100665663D01*
X235108671Y-100709159D01*
X235108682Y-100720027D01*
X235108649Y-100771548D01*
X235108486Y-100813801D01*
X235108162Y-100847680D01*
X235107647Y-100874077D01*
X235106908Y-100893884D01*
X235105916Y-100907996D01*
X235104639Y-100917303D01*
X235103046Y-100922699D01*
X235101595Y-100924741D01*
X235095095Y-100926999D01*
X235079763Y-100930799D01*
X235056765Y-100935898D01*
X235027271Y-100942050D01*
X234992450Y-100949013D01*
X234953470Y-100956543D01*
X234912365Y-100964236D01*
X234866210Y-100972897D01*
X234824798Y-100980981D01*
X234789062Y-100988286D01*
X234759937Y-100994611D01*
X234738354Y-100999758D01*
X234725249Y-101003525D01*
X234721726Y-101005133D01*
X234717704Y-101011585D01*
X234710714Y-101025987D01*
X234701314Y-101046948D01*
X234690063Y-101073082D01*
X234677519Y-101103000D01*
X234664240Y-101135313D01*
X234650785Y-101168634D01*
X234637712Y-101201575D01*
X234625580Y-101232747D01*
X234614946Y-101260763D01*
X234606369Y-101284233D01*
X234600408Y-101301771D01*
X234597620Y-101311987D01*
X234597556Y-101313842D01*
X234600901Y-101319358D01*
X234609348Y-101332262D01*
X234622236Y-101351573D01*
X234638906Y-101376312D01*
X234658697Y-101405498D01*
X234680948Y-101438151D01*
X234704512Y-101472582D01*
X234728487Y-101507797D01*
X234750526Y-101540662D01*
X234769982Y-101570174D01*
X234786209Y-101595331D01*
X234798558Y-101615130D01*
X234806383Y-101628568D01*
X234809040Y-101634588D01*
X234805537Y-101640258D01*
X234795662Y-101652017D01*
X234780363Y-101668914D01*
X234760590Y-101689997D01*
X234737290Y-101714314D01*
X234711414Y-101740912D01*
X234683908Y-101768838D01*
X234655723Y-101797142D01*
X234627807Y-101824870D01*
X234601109Y-101851071D01*
X234576578Y-101874792D01*
X234555162Y-101895081D01*
X234537810Y-101910985D01*
X234525471Y-101921554D01*
X234519094Y-101925834D01*
X234518792Y-101925880D01*
X234512917Y-101923089D01*
X234499690Y-101915148D01*
X234480102Y-101902705D01*
X234455147Y-101886406D01*
X234425814Y-101866900D01*
X234393098Y-101844834D01*
X234359274Y-101821740D01*
X234324192Y-101797807D01*
X234291493Y-101775813D01*
X234262179Y-101756405D01*
X234237247Y-101740232D01*
X234217696Y-101727942D01*
X234204527Y-101720183D01*
X234198812Y-101717600D01*
X234191386Y-101719920D01*
X234176894Y-101726305D01*
X234157157Y-101735890D01*
X234133991Y-101747810D01*
X234123350Y-101753481D01*
X234097800Y-101766747D01*
X234075514Y-101777375D01*
X234058172Y-101784622D01*
X234047456Y-101787744D01*
X234045823Y-101787771D01*
X234043235Y-101786377D01*
X234039874Y-101782452D01*
X234035467Y-101775381D01*
X234029738Y-101764547D01*
X234022414Y-101749334D01*
X234013220Y-101729125D01*
X234001884Y-101703305D01*
X233988129Y-101671257D01*
X233971684Y-101632365D01*
X233952272Y-101586012D01*
X233929620Y-101531582D01*
X233903454Y-101468459D01*
X233898860Y-101457359D01*
X233876257Y-101402528D01*
X233854911Y-101350342D01*
X233835128Y-101301575D01*
X233817213Y-101256998D01*
X233801473Y-101217386D01*
X233788212Y-101183510D01*
X233777736Y-101156143D01*
X233770352Y-101136060D01*
X233766364Y-101124031D01*
X233765760Y-101120809D01*
X233770949Y-101114897D01*
X233782723Y-101104827D01*
X233799234Y-101092102D01*
X233815173Y-101080629D01*
X233857327Y-101049570D01*
X233891753Y-101020231D01*
X233920203Y-100990682D01*
X233944432Y-100958997D01*
X233966194Y-100923247D01*
X233976863Y-100902918D01*
X234000756Y-100844488D01*
X234015076Y-100784158D01*
X234019979Y-100722953D01*
X234015623Y-100661898D01*
X234002163Y-100602019D01*
X233979756Y-100544342D01*
X233948559Y-100489891D01*
X233908727Y-100439692D01*
X233905664Y-100436411D01*
X233858017Y-100392833D01*
X233804808Y-100357422D01*
X233745354Y-100329755D01*
X233716660Y-100319807D01*
X233699933Y-100314974D01*
X233684165Y-100311632D01*
X233666854Y-100309519D01*
X233645497Y-100308373D01*
X233617593Y-100307935D01*
X233602540Y-100307900D01*
X233570915Y-100308110D01*
X233546936Y-100308916D01*
X233528093Y-100310578D01*
X233511877Y-100313357D01*
X233495778Y-100317516D01*
X233488240Y-100319802D01*
X233426246Y-100344205D01*
X233369961Y-100376690D01*
X233319969Y-100416763D01*
X233276854Y-100463933D01*
X233241201Y-100517707D01*
X233231329Y-100536500D01*
X233210756Y-100583357D01*
X233197234Y-100627726D01*
X233189860Y-100673443D01*
X233187727Y-100721920D01*
X233192586Y-100786989D01*
X233206992Y-100849065D01*
X233230688Y-100907510D01*
X233263416Y-100961687D01*
X233303955Y-101009975D01*
X233322140Y-101026971D01*
X233345762Y-101046791D01*
X233371748Y-101067052D01*
X233397023Y-101085368D01*
X233418514Y-101099354D01*
X233421139Y-101100883D01*
X233432832Y-101109785D01*
X233439872Y-101119264D01*
X233440325Y-101120648D01*
X233438872Y-101127322D01*
X233433641Y-101142833D01*
X233424832Y-101166671D01*
X233412647Y-101198326D01*
X233397287Y-101237287D01*
X233378953Y-101283043D01*
X233357846Y-101335085D01*
X233334166Y-101392901D01*
X233310728Y-101449679D01*
X233288300Y-101503781D01*
X233266914Y-101555286D01*
X233246903Y-101603399D01*
X233228599Y-101647325D01*
X233212334Y-101686268D01*
X233198442Y-101719433D01*
X233187253Y-101746026D01*
X233179102Y-101765249D01*
X233174319Y-101776309D01*
X233173253Y-101778609D01*
X233165020Y-101786716D01*
X233158211Y-101788720D01*
X233150498Y-101786394D01*
X233135745Y-101779995D01*
X233115790Y-101770387D01*
X233092470Y-101758437D01*
X233081642Y-101752672D01*
X233051834Y-101737192D01*
X233028316Y-101726189D01*
X233011875Y-101720007D01*
X233003822Y-101718837D01*
X232996680Y-101722269D01*
X232982538Y-101730700D01*
X232962709Y-101743286D01*
X232938506Y-101759184D01*
X232911241Y-101777551D01*
X232893880Y-101789461D01*
X232846962Y-101821822D01*
X232807682Y-101848815D01*
X232775352Y-101870892D01*
X232749281Y-101888506D01*
X232728781Y-101902109D01*
X232713163Y-101912155D01*
X232701739Y-101919097D01*
X232693819Y-101923388D01*
X232688714Y-101925480D01*
X232686387Y-101925880D01*
X232681121Y-101922399D01*
X232669535Y-101912478D01*
X232652460Y-101896897D01*
X232630721Y-101876437D01*
X232605148Y-101851880D01*
X232576568Y-101824006D01*
X232545809Y-101793597D01*
X232539731Y-101787541D01*
X232508736Y-101756470D01*
X232480010Y-101727382D01*
X232454357Y-101701112D01*
X232432577Y-101678494D01*
X232415473Y-101660363D01*
X232403847Y-101647552D01*
X232398501Y-101640896D01*
X232398266Y-101640413D01*
X232397367Y-101637436D01*
X232397052Y-101634393D01*
X232397835Y-101630460D01*
X232400226Y-101624812D01*
X232404737Y-101616624D01*
X232411879Y-101605072D01*
X232422165Y-101589330D01*
X232436105Y-101568575D01*
X232454212Y-101541980D01*
X232476996Y-101508721D01*
X232504969Y-101467973D01*
X232507515Y-101464266D01*
X232531161Y-101429625D01*
X232552865Y-101397438D01*
X232571973Y-101368706D01*
X232587831Y-101344428D01*
X232599785Y-101325605D01*
X232607181Y-101313237D01*
X232609400Y-101308469D01*
X232607571Y-101302070D01*
X232602390Y-101287455D01*
X232594314Y-101265826D01*
X232583802Y-101238385D01*
X232571312Y-101206333D01*
X232557300Y-101170874D01*
X232550294Y-101153307D01*
X232532557Y-101109314D01*
X232518005Y-101074051D01*
X232506276Y-101046727D01*
X232497006Y-101026551D01*
X232489833Y-101012734D01*
X232484394Y-101004485D01*
X232480444Y-101001059D01*
X232473085Y-100999121D01*
X232456936Y-100995609D01*
X232433202Y-100990762D01*
X232403091Y-100984819D01*
X232367809Y-100978018D01*
X232328562Y-100970597D01*
X232289921Y-100963414D01*
X232248281Y-100955616D01*
X232209669Y-100948154D01*
X232175261Y-100941273D01*
X232146230Y-100935217D01*
X232123751Y-100930232D01*
X232108998Y-100926560D01*
X232103231Y-100924531D01*
X232101433Y-100921360D01*
X232099961Y-100914541D01*
X232098785Y-100903211D01*
X232097877Y-100886509D01*
X232097207Y-100863571D01*
X232096746Y-100833536D01*
X232096465Y-100795541D01*
X232096336Y-100748724D01*
X232096320Y-100718875D01*
X232096320Y-100518954D01*
X232107750Y-100511902D01*
X232115237Y-100509400D01*
X232131536Y-100505372D01*
X232155455Y-100500066D01*
X232185802Y-100493732D01*
X232221384Y-100486617D01*
X232261009Y-100478971D01*
X232303486Y-100471042D01*
X232304600Y-100470838D01*
X232346876Y-100462950D01*
X232386108Y-100455374D01*
X232421145Y-100448352D01*
X232450836Y-100442126D01*
X232474030Y-100436937D01*
X232489576Y-100433026D01*
X232496323Y-100430637D01*
X232496405Y-100430566D01*
X232500090Y-100424301D01*
X232507022Y-100410106D01*
X232516577Y-100389428D01*
X232528134Y-100363713D01*
X232541070Y-100334406D01*
X232554763Y-100302954D01*
X232568591Y-100270802D01*
X232581931Y-100239397D01*
X232594161Y-100210185D01*
X232604659Y-100184611D01*
X232612803Y-100164123D01*
X232617969Y-100150165D01*
X232619560Y-100144394D01*
X232616767Y-100138575D01*
X232608811Y-100125372D01*
X232596319Y-100105749D01*
X232579924Y-100080667D01*
X232560254Y-100051089D01*
X232537939Y-100017976D01*
X232513611Y-99982293D01*
X232509742Y-99976655D01*
X232485048Y-99940538D01*
X232462155Y-99906750D01*
X232441713Y-99876274D01*
X232424371Y-99850088D01*
X232410778Y-99829175D01*
X232401583Y-99814516D01*
X232397434Y-99807090D01*
X232397293Y-99806684D01*
X232398054Y-99802579D01*
X232402214Y-99795668D01*
X232410317Y-99785355D01*
X232422905Y-99771048D01*
X232440521Y-99752154D01*
X232463708Y-99728078D01*
X232493008Y-99698226D01*
X232528964Y-99662005D01*
X232536199Y-99654749D01*
X232572218Y-99618889D01*
X232604356Y-99587378D01*
X232632068Y-99560731D01*
X232654806Y-99539461D01*
X232672023Y-99524081D01*
X232683174Y-99515105D01*
X232687325Y-99512880D01*
X232693560Y-99515672D01*
X232707156Y-99523627D01*
X232727133Y-99536110D01*
X232752508Y-99552487D01*
X232782300Y-99572122D01*
X232815526Y-99594382D01*
X232851205Y-99618631D01*
X232855086Y-99621289D01*
X232891100Y-99645928D01*
X232924822Y-99668914D01*
X232955253Y-99689573D01*
X232981395Y-99707230D01*
X233002248Y-99721211D01*
X233016815Y-99730841D01*
X233024096Y-99735446D01*
X233024352Y-99735587D01*
X233028805Y-99736941D01*
X233035339Y-99736744D01*
X233045059Y-99734631D01*
X233059068Y-99730234D01*
X233078471Y-99723187D01*
X233104373Y-99713124D01*
X233137877Y-99699677D01*
X233161512Y-99690068D01*
X233203366Y-99672981D01*
X233236788Y-99659243D01*
X233262760Y-99648382D01*
X233282264Y-99639926D01*
X233296281Y-99633403D01*
X233305795Y-99628340D01*
X233311786Y-99624266D01*
X233315236Y-99620708D01*
X233317128Y-99617193D01*
X233317945Y-99614840D01*
X233319560Y-99607736D01*
X233322793Y-99591805D01*
X233327420Y-99568215D01*
X233333216Y-99538129D01*
X233339958Y-99502714D01*
X233347420Y-99463135D01*
X233355378Y-99420558D01*
X233356195Y-99416168D01*
X233364252Y-99373481D01*
X233371968Y-99333799D01*
X233379104Y-99298266D01*
X233385420Y-99268028D01*
X233390676Y-99244228D01*
X233394633Y-99228012D01*
X233397050Y-99220524D01*
X233397212Y-99220283D01*
X233400242Y-99218437D01*
X233406563Y-99216928D01*
X233417063Y-99215727D01*
X233432633Y-99214801D01*
X233454159Y-99214121D01*
X233482532Y-99213657D01*
X233518639Y-99213376D01*
X233563370Y-99213250D01*
X233601892Y-99213237D01*
X233646025Y-99213358D01*
D11*
G04 #@! TO.C,REF\002A\002A*
G36*
X206050000Y-99250000D02*
X212050000Y-99250000D01*
X212050000Y-101500000D01*
X206050000Y-101500000D01*
X206050000Y-99250000D01*
G37*
X206050000Y-99250000D02*
X212050000Y-99250000D01*
X212050000Y-101500000D01*
X206050000Y-101500000D01*
X206050000Y-99250000D01*
D12*
G36*
X220151000Y-102951000D02*
X218699000Y-102951000D01*
X218699000Y-98649000D01*
X220151000Y-98649000D01*
X220151000Y-102951000D01*
X220151000Y-102951000D01*
G37*
G36*
X214501000Y-102951000D02*
X213049000Y-102951000D01*
X213049000Y-98649000D01*
X214501000Y-98649000D01*
X214501000Y-102951000D01*
X214501000Y-102951000D01*
G37*
G36*
X217286000Y-102851000D02*
X215914000Y-102851000D01*
X215914000Y-99149000D01*
X217286000Y-99149000D01*
X217286000Y-102851000D01*
X217286000Y-102851000D01*
G37*
G36*
X202634239Y-94811467D02*
X202948282Y-94873934D01*
X203539926Y-95119001D01*
X203829523Y-95312504D01*
X204072395Y-95474786D01*
X204525214Y-95927605D01*
X204525216Y-95927608D01*
X204880999Y-96460074D01*
X205002724Y-96753944D01*
X205126066Y-97051719D01*
X205251000Y-97679803D01*
X205251000Y-98320197D01*
X205188533Y-98634239D01*
X205126066Y-98948282D01*
X204880999Y-99539926D01*
X204633265Y-99910685D01*
X204525214Y-100072395D01*
X204072395Y-100525214D01*
X204072392Y-100525216D01*
X203539926Y-100880999D01*
X202948282Y-101126066D01*
X202634239Y-101188533D01*
X202320197Y-101251000D01*
X201679803Y-101251000D01*
X201365761Y-101188533D01*
X201051718Y-101126066D01*
X200460074Y-100880999D01*
X199927608Y-100525216D01*
X199927605Y-100525214D01*
X199474786Y-100072395D01*
X199366735Y-99910685D01*
X199119001Y-99539926D01*
X198873934Y-98948282D01*
X198811467Y-98634239D01*
X198749000Y-98320197D01*
X198749000Y-97679803D01*
X198873934Y-97051719D01*
X198997276Y-96753944D01*
X199119001Y-96460074D01*
X199474784Y-95927608D01*
X199474786Y-95927605D01*
X199927605Y-95474786D01*
X200170477Y-95312504D01*
X200460074Y-95119001D01*
X201051718Y-94873934D01*
X201365761Y-94811467D01*
X201679803Y-94749000D01*
X202320197Y-94749000D01*
X202634239Y-94811467D01*
X202634239Y-94811467D01*
G37*
G36*
X240634239Y-94811467D02*
X240948282Y-94873934D01*
X241539926Y-95119001D01*
X241829523Y-95312504D01*
X242072395Y-95474786D01*
X242525214Y-95927605D01*
X242525216Y-95927608D01*
X242880999Y-96460074D01*
X243002724Y-96753944D01*
X243126066Y-97051719D01*
X243251000Y-97679803D01*
X243251000Y-98320197D01*
X243188533Y-98634239D01*
X243126066Y-98948282D01*
X242880999Y-99539926D01*
X242633265Y-99910685D01*
X242525214Y-100072395D01*
X242072395Y-100525214D01*
X242072392Y-100525216D01*
X241539926Y-100880999D01*
X240948282Y-101126066D01*
X240634239Y-101188533D01*
X240320197Y-101251000D01*
X239679803Y-101251000D01*
X239365761Y-101188533D01*
X239051718Y-101126066D01*
X238460074Y-100880999D01*
X237927608Y-100525216D01*
X237927605Y-100525214D01*
X237474786Y-100072395D01*
X237366735Y-99910685D01*
X237119001Y-99539926D01*
X236873934Y-98948282D01*
X236811467Y-98634239D01*
X236749000Y-98320197D01*
X236749000Y-97679803D01*
X236873934Y-97051719D01*
X236997276Y-96753944D01*
X237119001Y-96460074D01*
X237474784Y-95927608D01*
X237474786Y-95927605D01*
X237927605Y-95474786D01*
X238170477Y-95312504D01*
X238460074Y-95119001D01*
X239051718Y-94873934D01*
X239365761Y-94811467D01*
X239679803Y-94749000D01*
X240320197Y-94749000D01*
X240634239Y-94811467D01*
X240634239Y-94811467D01*
G37*
G36*
X230663778Y-95107010D02*
X228021778Y-95107010D01*
X228021778Y-93355010D01*
X230663778Y-93355010D01*
X230663778Y-95107010D01*
X230663778Y-95107010D01*
G37*
G36*
X225583778Y-95107010D02*
X222941778Y-95107010D01*
X222941778Y-93355010D01*
X225583778Y-93355010D01*
X225583778Y-95107010D01*
X225583778Y-95107010D01*
G37*
G36*
X232979591Y-93703085D02*
X233013569Y-93713393D01*
X233044887Y-93730133D01*
X233072339Y-93752661D01*
X233094867Y-93780113D01*
X233111607Y-93811431D01*
X233121915Y-93845409D01*
X233126000Y-93886890D01*
X233126000Y-94488110D01*
X233121915Y-94529591D01*
X233111607Y-94563569D01*
X233094867Y-94594887D01*
X233072339Y-94622339D01*
X233044887Y-94644867D01*
X233013569Y-94661607D01*
X232979591Y-94671915D01*
X232938110Y-94676000D01*
X232261890Y-94676000D01*
X232220409Y-94671915D01*
X232186431Y-94661607D01*
X232155113Y-94644867D01*
X232127661Y-94622339D01*
X232105133Y-94594887D01*
X232088393Y-94563569D01*
X232078085Y-94529591D01*
X232074000Y-94488110D01*
X232074000Y-93886890D01*
X232078085Y-93845409D01*
X232088393Y-93811431D01*
X232105133Y-93780113D01*
X232127661Y-93752661D01*
X232155113Y-93730133D01*
X232186431Y-93713393D01*
X232220409Y-93703085D01*
X232261890Y-93699000D01*
X232938110Y-93699000D01*
X232979591Y-93703085D01*
X232979591Y-93703085D01*
G37*
G36*
X232979591Y-92128085D02*
X233013569Y-92138393D01*
X233044887Y-92155133D01*
X233072339Y-92177661D01*
X233094867Y-92205113D01*
X233111607Y-92236431D01*
X233121915Y-92270409D01*
X233126000Y-92311890D01*
X233126000Y-92913110D01*
X233121915Y-92954591D01*
X233111607Y-92988569D01*
X233094867Y-93019887D01*
X233072339Y-93047339D01*
X233044887Y-93069867D01*
X233013569Y-93086607D01*
X232979591Y-93096915D01*
X232938110Y-93101000D01*
X232261890Y-93101000D01*
X232220409Y-93096915D01*
X232186431Y-93086607D01*
X232155113Y-93069867D01*
X232127661Y-93047339D01*
X232105133Y-93019887D01*
X232088393Y-92988569D01*
X232078085Y-92954591D01*
X232074000Y-92913110D01*
X232074000Y-92311890D01*
X232078085Y-92270409D01*
X232088393Y-92236431D01*
X232105133Y-92205113D01*
X232127661Y-92177661D01*
X232155113Y-92155133D01*
X232186431Y-92138393D01*
X232220409Y-92128085D01*
X232261890Y-92124000D01*
X232938110Y-92124000D01*
X232979591Y-92128085D01*
X232979591Y-92128085D01*
G37*
G36*
X244951000Y-92651000D02*
X240649000Y-92651000D01*
X240649000Y-91199000D01*
X244951000Y-91199000D01*
X244951000Y-92651000D01*
X244951000Y-92651000D01*
G37*
G36*
X201351000Y-92651000D02*
X197049000Y-92651000D01*
X197049000Y-91199000D01*
X201351000Y-91199000D01*
X201351000Y-92651000D01*
X201351000Y-92651000D01*
G37*
G36*
X230663778Y-92567010D02*
X228021778Y-92567010D01*
X228021778Y-90815010D01*
X230663778Y-90815010D01*
X230663778Y-92567010D01*
X230663778Y-92567010D01*
G37*
G36*
X225583778Y-92567010D02*
X222941778Y-92567010D01*
X222941778Y-90815010D01*
X225583778Y-90815010D01*
X225583778Y-92567010D01*
X225583778Y-92567010D01*
G37*
G36*
X225583778Y-90027010D02*
X222941778Y-90027010D01*
X222941778Y-88275010D01*
X225583778Y-88275010D01*
X225583778Y-90027010D01*
X225583778Y-90027010D01*
G37*
G36*
X230663778Y-90027010D02*
X228021778Y-90027010D01*
X228021778Y-88275010D01*
X230663778Y-88275010D01*
X230663778Y-90027010D01*
X230663778Y-90027010D01*
G37*
G36*
X244851000Y-89786000D02*
X241149000Y-89786000D01*
X241149000Y-88414000D01*
X244851000Y-88414000D01*
X244851000Y-89786000D01*
X244851000Y-89786000D01*
G37*
G36*
X200851000Y-89786000D02*
X197149000Y-89786000D01*
X197149000Y-88414000D01*
X200851000Y-88414000D01*
X200851000Y-89786000D01*
X200851000Y-89786000D01*
G37*
G36*
X244951000Y-87001000D02*
X240649000Y-87001000D01*
X240649000Y-85549000D01*
X244951000Y-85549000D01*
X244951000Y-87001000D01*
X244951000Y-87001000D01*
G37*
G36*
X201351000Y-87001000D02*
X197049000Y-87001000D01*
X197049000Y-85549000D01*
X201351000Y-85549000D01*
X201351000Y-87001000D01*
X201351000Y-87001000D01*
G37*
G36*
X244951000Y-82051000D02*
X240649000Y-82051000D01*
X240649000Y-80599000D01*
X244951000Y-80599000D01*
X244951000Y-82051000D01*
X244951000Y-82051000D01*
G37*
G36*
X201351000Y-82051000D02*
X197049000Y-82051000D01*
X197049000Y-80599000D01*
X201351000Y-80599000D01*
X201351000Y-82051000D01*
X201351000Y-82051000D01*
G37*
G36*
X200851000Y-79186000D02*
X197149000Y-79186000D01*
X197149000Y-77814000D01*
X200851000Y-77814000D01*
X200851000Y-79186000D01*
X200851000Y-79186000D01*
G37*
G36*
X244851000Y-79186000D02*
X241149000Y-79186000D01*
X241149000Y-77814000D01*
X244851000Y-77814000D01*
X244851000Y-79186000D01*
X244851000Y-79186000D01*
G37*
G36*
X201351000Y-76401000D02*
X197049000Y-76401000D01*
X197049000Y-74949000D01*
X201351000Y-74949000D01*
X201351000Y-76401000D01*
X201351000Y-76401000D01*
G37*
G36*
X244951000Y-76401000D02*
X240649000Y-76401000D01*
X240649000Y-74949000D01*
X244951000Y-74949000D01*
X244951000Y-76401000D01*
X244951000Y-76401000D01*
G37*
G36*
X244951000Y-71351000D02*
X240649000Y-71351000D01*
X240649000Y-69899000D01*
X244951000Y-69899000D01*
X244951000Y-71351000D01*
X244951000Y-71351000D01*
G37*
G36*
X201351000Y-71351000D02*
X197049000Y-71351000D01*
X197049000Y-69899000D01*
X201351000Y-69899000D01*
X201351000Y-71351000D01*
X201351000Y-71351000D01*
G37*
G36*
X244851000Y-68486000D02*
X241149000Y-68486000D01*
X241149000Y-67114000D01*
X244851000Y-67114000D01*
X244851000Y-68486000D01*
X244851000Y-68486000D01*
G37*
G36*
X200851000Y-68486000D02*
X197149000Y-68486000D01*
X197149000Y-67114000D01*
X200851000Y-67114000D01*
X200851000Y-68486000D01*
X200851000Y-68486000D01*
G37*
G36*
X244951000Y-65701000D02*
X240649000Y-65701000D01*
X240649000Y-64249000D01*
X244951000Y-64249000D01*
X244951000Y-65701000D01*
X244951000Y-65701000D01*
G37*
G36*
X201351000Y-65701000D02*
X197049000Y-65701000D01*
X197049000Y-64249000D01*
X201351000Y-64249000D01*
X201351000Y-65701000D01*
X201351000Y-65701000D01*
G37*
G36*
X202634239Y-56811467D02*
X202948282Y-56873934D01*
X203539926Y-57119001D01*
X203829523Y-57312504D01*
X204072395Y-57474786D01*
X204525214Y-57927605D01*
X204525216Y-57927608D01*
X204880999Y-58460074D01*
X205002724Y-58753944D01*
X205126066Y-59051719D01*
X205251000Y-59679803D01*
X205251000Y-60320197D01*
X205188533Y-60634239D01*
X205126066Y-60948282D01*
X204880999Y-61539926D01*
X204633265Y-61910685D01*
X204525214Y-62072395D01*
X204072395Y-62525214D01*
X204072392Y-62525216D01*
X203539926Y-62880999D01*
X202948282Y-63126066D01*
X202634239Y-63188533D01*
X202320197Y-63251000D01*
X201679803Y-63251000D01*
X201365761Y-63188533D01*
X201051718Y-63126066D01*
X200460074Y-62880999D01*
X199927608Y-62525216D01*
X199927605Y-62525214D01*
X199474786Y-62072395D01*
X199366735Y-61910685D01*
X199119001Y-61539926D01*
X198873934Y-60948282D01*
X198811467Y-60634239D01*
X198749000Y-60320197D01*
X198749000Y-59679803D01*
X198873934Y-59051719D01*
X198997276Y-58753944D01*
X199119001Y-58460074D01*
X199474784Y-57927608D01*
X199474786Y-57927605D01*
X199927605Y-57474786D01*
X200170477Y-57312504D01*
X200460074Y-57119001D01*
X201051718Y-56873934D01*
X201365761Y-56811467D01*
X201679803Y-56749000D01*
X202320197Y-56749000D01*
X202634239Y-56811467D01*
X202634239Y-56811467D01*
G37*
G36*
X240634239Y-56811467D02*
X240948282Y-56873934D01*
X241539926Y-57119001D01*
X241829523Y-57312504D01*
X242072395Y-57474786D01*
X242525214Y-57927605D01*
X242525216Y-57927608D01*
X242880999Y-58460074D01*
X243002724Y-58753944D01*
X243126066Y-59051719D01*
X243251000Y-59679803D01*
X243251000Y-60320197D01*
X243188533Y-60634239D01*
X243126066Y-60948282D01*
X242880999Y-61539926D01*
X242633265Y-61910685D01*
X242525214Y-62072395D01*
X242072395Y-62525214D01*
X242072392Y-62525216D01*
X241539926Y-62880999D01*
X240948282Y-63126066D01*
X240634239Y-63188533D01*
X240320197Y-63251000D01*
X239679803Y-63251000D01*
X239365761Y-63188533D01*
X239051718Y-63126066D01*
X238460074Y-62880999D01*
X237927608Y-62525216D01*
X237927605Y-62525214D01*
X237474786Y-62072395D01*
X237366735Y-61910685D01*
X237119001Y-61539926D01*
X236873934Y-60948282D01*
X236811467Y-60634239D01*
X236749000Y-60320197D01*
X236749000Y-59679803D01*
X236873934Y-59051719D01*
X236997276Y-58753944D01*
X237119001Y-58460074D01*
X237474784Y-57927608D01*
X237474786Y-57927605D01*
X237927605Y-57474786D01*
X238170477Y-57312504D01*
X238460074Y-57119001D01*
X239051718Y-56873934D01*
X239365761Y-56811467D01*
X239679803Y-56749000D01*
X240320197Y-56749000D01*
X240634239Y-56811467D01*
X240634239Y-56811467D01*
G37*
M02*
