G04 #@! TF.GenerationSoftware,KiCad,Pcbnew,(5.0.2)-1*
G04 #@! TF.CreationDate,2019-01-06T11:51:23+11:00*
G04 #@! TF.ProjectId,ADC-15-4_Dev_Rev_1,4144432d-3135-42d3-945f-4465765f5265,1*
G04 #@! TF.SameCoordinates,Original*
G04 #@! TF.FileFunction,Copper,L1,Top*
G04 #@! TF.FilePolarity,Positive*
%FSLAX46Y46*%
G04 Gerber Fmt 4.6, Leading zero omitted, Abs format (unit mm)*
G04 Created by KiCad (PCBNEW (5.0.2)-1) date 6/01/2019 11:51:23*
%MOMM*%
%LPD*%
G01*
G04 APERTURE LIST*
%ADD10C,0.200000*%
G04 #@! TA.AperFunction,SMDPad,CuDef*
%ADD11R,2.540000X1.650000*%
G04 #@! TD*
G04 #@! TA.AperFunction,SMDPad,CuDef*
%ADD12R,4.200000X1.350000*%
G04 #@! TD*
G04 #@! TA.AperFunction,SMDPad,CuDef*
%ADD13R,3.600000X1.270000*%
G04 #@! TD*
G04 #@! TA.AperFunction,SMDPad,CuDef*
%ADD14R,1.350000X4.200000*%
G04 #@! TD*
G04 #@! TA.AperFunction,SMDPad,CuDef*
%ADD15R,1.270000X3.600000*%
G04 #@! TD*
G04 #@! TA.AperFunction,Conductor*
%ADD16C,0.100000*%
G04 #@! TD*
G04 #@! TA.AperFunction,SMDPad,CuDef*
%ADD17C,0.875000*%
G04 #@! TD*
G04 #@! TA.AperFunction,ComponentPad*
%ADD18C,0.800000*%
G04 #@! TD*
G04 #@! TA.AperFunction,ComponentPad*
%ADD19C,6.400000*%
G04 #@! TD*
G04 #@! TA.AperFunction,ViaPad*
%ADD20C,0.600000*%
G04 #@! TD*
G04 #@! TA.AperFunction,Conductor*
%ADD21C,0.850000*%
G04 #@! TD*
G04 #@! TA.AperFunction,Conductor*
%ADD22C,0.310000*%
G04 #@! TD*
G04 #@! TA.AperFunction,Conductor*
%ADD23C,0.930000*%
G04 #@! TD*
G04 #@! TA.AperFunction,Conductor*
%ADD24C,0.254000*%
G04 #@! TD*
G04 APERTURE END LIST*
G04 #@! TO.C,REF\002A\002A*
D10*
X207228571Y-101178571D02*
X206371428Y-101178571D01*
X206800000Y-101178571D02*
X206800000Y-99678571D01*
X206657142Y-99892857D01*
X206514285Y-100035714D01*
X206371428Y-100107142D01*
G04 #@! TD*
D11*
G04 #@! TO.P,FL1,6*
G04 #@! TO.N,Net-(FL1-Pad6)*
X229342778Y-89151010D03*
G04 #@! TO.P,FL1,1*
G04 #@! TO.N,Net-(FL1-Pad1)*
X224262778Y-89151010D03*
G04 #@! TO.P,FL1,5*
G04 #@! TO.N,Net-(FL1-Pad5)*
X229342778Y-91691010D03*
G04 #@! TO.P,FL1,2*
G04 #@! TO.N,GND*
X224262778Y-91691010D03*
G04 #@! TO.P,FL1,4*
G04 #@! TO.N,Net-(FL1-Pad4)*
X229342778Y-94231010D03*
G04 #@! TO.P,FL1,3*
G04 #@! TO.N,Net-(FL1-Pad3)*
X224262778Y-94231010D03*
G04 #@! TD*
D12*
G04 #@! TO.P,J1,2*
G04 #@! TO.N,GND*
X199200000Y-86275000D03*
X199200000Y-91925000D03*
D13*
G04 #@! TO.P,J1,1*
G04 #@! TO.N,Net-(FL1-Pad1)*
X199000000Y-89100000D03*
G04 #@! TD*
D12*
G04 #@! TO.P,J2,2*
G04 #@! TO.N,GND*
X199200000Y-64975000D03*
X199200000Y-70625000D03*
D13*
G04 #@! TO.P,J2,1*
G04 #@! TO.N,Net-(J2-Pad1)*
X199000000Y-67800000D03*
G04 #@! TD*
D14*
G04 #@! TO.P,J3,2*
G04 #@! TO.N,GND*
X213775000Y-100800000D03*
X219425000Y-100800000D03*
D15*
G04 #@! TO.P,J3,1*
G04 #@! TO.N,Net-(FL1-Pad3)*
X216600000Y-101000000D03*
G04 #@! TD*
D12*
G04 #@! TO.P,J4,2*
G04 #@! TO.N,GND*
X242800000Y-70625000D03*
X242800000Y-64975000D03*
D13*
G04 #@! TO.P,J4,1*
G04 #@! TO.N,Net-(J2-Pad1)*
X243000000Y-67800000D03*
G04 #@! TD*
D12*
G04 #@! TO.P,J5,2*
G04 #@! TO.N,GND*
X242800000Y-91925000D03*
X242800000Y-86275000D03*
D13*
G04 #@! TO.P,J5,1*
G04 #@! TO.N,Net-(FL1-Pad6)*
X243000000Y-89100000D03*
G04 #@! TD*
D16*
G04 #@! TO.N,GND*
G04 #@! TO.C,R1*
G36*
X232877691Y-92176053D02*
X232898926Y-92179203D01*
X232919750Y-92184419D01*
X232939962Y-92191651D01*
X232959368Y-92200830D01*
X232977781Y-92211866D01*
X232995024Y-92224654D01*
X233010930Y-92239070D01*
X233025346Y-92254976D01*
X233038134Y-92272219D01*
X233049170Y-92290632D01*
X233058349Y-92310038D01*
X233065581Y-92330250D01*
X233070797Y-92351074D01*
X233073947Y-92372309D01*
X233075000Y-92393750D01*
X233075000Y-92831250D01*
X233073947Y-92852691D01*
X233070797Y-92873926D01*
X233065581Y-92894750D01*
X233058349Y-92914962D01*
X233049170Y-92934368D01*
X233038134Y-92952781D01*
X233025346Y-92970024D01*
X233010930Y-92985930D01*
X232995024Y-93000346D01*
X232977781Y-93013134D01*
X232959368Y-93024170D01*
X232939962Y-93033349D01*
X232919750Y-93040581D01*
X232898926Y-93045797D01*
X232877691Y-93048947D01*
X232856250Y-93050000D01*
X232343750Y-93050000D01*
X232322309Y-93048947D01*
X232301074Y-93045797D01*
X232280250Y-93040581D01*
X232260038Y-93033349D01*
X232240632Y-93024170D01*
X232222219Y-93013134D01*
X232204976Y-93000346D01*
X232189070Y-92985930D01*
X232174654Y-92970024D01*
X232161866Y-92952781D01*
X232150830Y-92934368D01*
X232141651Y-92914962D01*
X232134419Y-92894750D01*
X232129203Y-92873926D01*
X232126053Y-92852691D01*
X232125000Y-92831250D01*
X232125000Y-92393750D01*
X232126053Y-92372309D01*
X232129203Y-92351074D01*
X232134419Y-92330250D01*
X232141651Y-92310038D01*
X232150830Y-92290632D01*
X232161866Y-92272219D01*
X232174654Y-92254976D01*
X232189070Y-92239070D01*
X232204976Y-92224654D01*
X232222219Y-92211866D01*
X232240632Y-92200830D01*
X232260038Y-92191651D01*
X232280250Y-92184419D01*
X232301074Y-92179203D01*
X232322309Y-92176053D01*
X232343750Y-92175000D01*
X232856250Y-92175000D01*
X232877691Y-92176053D01*
X232877691Y-92176053D01*
G37*
D17*
G04 #@! TD*
G04 #@! TO.P,R1,2*
G04 #@! TO.N,GND*
X232600000Y-92612500D03*
D16*
G04 #@! TO.N,Net-(FL1-Pad4)*
G04 #@! TO.C,R1*
G36*
X232877691Y-93751053D02*
X232898926Y-93754203D01*
X232919750Y-93759419D01*
X232939962Y-93766651D01*
X232959368Y-93775830D01*
X232977781Y-93786866D01*
X232995024Y-93799654D01*
X233010930Y-93814070D01*
X233025346Y-93829976D01*
X233038134Y-93847219D01*
X233049170Y-93865632D01*
X233058349Y-93885038D01*
X233065581Y-93905250D01*
X233070797Y-93926074D01*
X233073947Y-93947309D01*
X233075000Y-93968750D01*
X233075000Y-94406250D01*
X233073947Y-94427691D01*
X233070797Y-94448926D01*
X233065581Y-94469750D01*
X233058349Y-94489962D01*
X233049170Y-94509368D01*
X233038134Y-94527781D01*
X233025346Y-94545024D01*
X233010930Y-94560930D01*
X232995024Y-94575346D01*
X232977781Y-94588134D01*
X232959368Y-94599170D01*
X232939962Y-94608349D01*
X232919750Y-94615581D01*
X232898926Y-94620797D01*
X232877691Y-94623947D01*
X232856250Y-94625000D01*
X232343750Y-94625000D01*
X232322309Y-94623947D01*
X232301074Y-94620797D01*
X232280250Y-94615581D01*
X232260038Y-94608349D01*
X232240632Y-94599170D01*
X232222219Y-94588134D01*
X232204976Y-94575346D01*
X232189070Y-94560930D01*
X232174654Y-94545024D01*
X232161866Y-94527781D01*
X232150830Y-94509368D01*
X232141651Y-94489962D01*
X232134419Y-94469750D01*
X232129203Y-94448926D01*
X232126053Y-94427691D01*
X232125000Y-94406250D01*
X232125000Y-93968750D01*
X232126053Y-93947309D01*
X232129203Y-93926074D01*
X232134419Y-93905250D01*
X232141651Y-93885038D01*
X232150830Y-93865632D01*
X232161866Y-93847219D01*
X232174654Y-93829976D01*
X232189070Y-93814070D01*
X232204976Y-93799654D01*
X232222219Y-93786866D01*
X232240632Y-93775830D01*
X232260038Y-93766651D01*
X232280250Y-93759419D01*
X232301074Y-93754203D01*
X232322309Y-93751053D01*
X232343750Y-93750000D01*
X232856250Y-93750000D01*
X232877691Y-93751053D01*
X232877691Y-93751053D01*
G37*
D17*
G04 #@! TD*
G04 #@! TO.P,R1,1*
G04 #@! TO.N,Net-(FL1-Pad4)*
X232600000Y-94187500D03*
D18*
G04 #@! TO.P,H1,1*
G04 #@! TO.N,GND*
X203697056Y-96302944D03*
X202000000Y-95600000D03*
X200302944Y-96302944D03*
X199600000Y-98000000D03*
X200302944Y-99697056D03*
X202000000Y-100400000D03*
X203697056Y-99697056D03*
X204400000Y-98000000D03*
D19*
X202000000Y-98000000D03*
G04 #@! TD*
D18*
G04 #@! TO.P,H2,1*
G04 #@! TO.N,GND*
X241697056Y-96302944D03*
X240000000Y-95600000D03*
X238302944Y-96302944D03*
X237600000Y-98000000D03*
X238302944Y-99697056D03*
X240000000Y-100400000D03*
X241697056Y-99697056D03*
X242400000Y-98000000D03*
D19*
X240000000Y-98000000D03*
G04 #@! TD*
G04 #@! TO.P,H3,1*
G04 #@! TO.N,GND*
X240000000Y-60000000D03*
D18*
X242400000Y-60000000D03*
X241697056Y-61697056D03*
X240000000Y-62400000D03*
X238302944Y-61697056D03*
X237600000Y-60000000D03*
X238302944Y-58302944D03*
X240000000Y-57600000D03*
X241697056Y-58302944D03*
G04 #@! TD*
D19*
G04 #@! TO.P,H4,1*
G04 #@! TO.N,GND*
X202000000Y-60000000D03*
D18*
X204400000Y-60000000D03*
X203697056Y-61697056D03*
X202000000Y-62400000D03*
X200302944Y-61697056D03*
X199600000Y-60000000D03*
X200302944Y-58302944D03*
X202000000Y-57600000D03*
X203697056Y-58302944D03*
G04 #@! TD*
D13*
G04 #@! TO.P,J6,1*
G04 #@! TO.N,Net-(J6-Pad1)*
X199000000Y-78500000D03*
D12*
G04 #@! TO.P,J6,2*
G04 #@! TO.N,GND*
X199200000Y-81325000D03*
X199200000Y-75675000D03*
G04 #@! TD*
G04 #@! TO.P,J7,2*
G04 #@! TO.N,GND*
X242800000Y-81325000D03*
X242800000Y-75675000D03*
D13*
G04 #@! TO.P,J7,1*
G04 #@! TO.N,Net-(J6-Pad1)*
X243000000Y-78500000D03*
G04 #@! TD*
D20*
G04 #@! TO.N,GND*
X197400000Y-64600000D03*
X197400000Y-71000000D03*
X244600000Y-71000000D03*
X244600000Y-64600000D03*
X243800000Y-85900000D03*
X243100000Y-85900000D03*
X242400000Y-85900000D03*
X241700000Y-85900000D03*
X241000000Y-85900000D03*
X242400000Y-92300000D03*
X243100000Y-92300000D03*
X241700000Y-92300000D03*
X243800000Y-92300000D03*
X241000000Y-92300000D03*
X213422534Y-101793721D03*
X213422534Y-100393721D03*
X213422534Y-98993721D03*
X213422534Y-101093721D03*
X213422534Y-99693721D03*
X219845068Y-101787442D03*
X219845068Y-101087442D03*
X219845068Y-100387442D03*
X219845068Y-99687442D03*
X219845068Y-98987442D03*
X198800000Y-85900000D03*
X199500000Y-85900000D03*
X198100000Y-85900000D03*
X200200000Y-85900000D03*
X197400000Y-85900000D03*
X198100000Y-92300000D03*
X199500000Y-92300000D03*
X197400000Y-92300000D03*
X200200000Y-92300000D03*
X198800000Y-92300000D03*
X226900000Y-91600000D03*
X226900000Y-90100000D03*
X226900000Y-88600000D03*
X226900000Y-93100000D03*
X226900000Y-94600000D03*
X219700000Y-93100000D03*
X216100000Y-94700000D03*
X216600000Y-94200000D03*
X217100000Y-93700000D03*
X217600000Y-93200000D03*
X219000000Y-93100000D03*
X220400000Y-93100000D03*
X221100000Y-93100000D03*
X221800000Y-93100000D03*
X218300000Y-93100000D03*
X244600000Y-75300000D03*
X242500000Y-75300000D03*
X243200000Y-75300000D03*
X243900000Y-75300000D03*
X241800000Y-75300000D03*
X241800000Y-81700000D03*
X244600000Y-81700000D03*
X243900000Y-81700000D03*
X243200000Y-81700000D03*
X242500000Y-81700000D03*
X197400000Y-81700000D03*
X200200000Y-81700000D03*
X199500000Y-81700000D03*
X198800000Y-81700000D03*
X198100000Y-81700000D03*
X197400000Y-75300000D03*
X198800000Y-75300000D03*
X198100000Y-75300000D03*
X199500000Y-75300000D03*
X200200000Y-75300000D03*
X200900000Y-75300000D03*
X200900000Y-85900000D03*
X200900000Y-92300000D03*
X219845068Y-102500000D03*
X213422534Y-102500000D03*
X200900000Y-81700000D03*
X241100000Y-75300000D03*
X241100000Y-81700000D03*
X241100000Y-64600000D03*
X200900000Y-71000000D03*
X241100000Y-71000000D03*
X200900000Y-64600000D03*
X200200000Y-71000000D03*
X243900000Y-64600000D03*
X242500000Y-64600000D03*
X200200000Y-64600000D03*
X198100000Y-71000000D03*
X241800000Y-71000000D03*
X243900000Y-71000000D03*
X199500000Y-64600000D03*
X243200000Y-64600000D03*
X243200000Y-71000000D03*
X198100000Y-64600000D03*
X242500000Y-71000000D03*
X199500000Y-71000000D03*
X198800000Y-64600000D03*
X198800000Y-71000000D03*
X241800000Y-64600000D03*
X201600000Y-66800000D03*
X203000000Y-66800000D03*
X202300000Y-66800000D03*
X203700000Y-66800000D03*
X204400000Y-66800000D03*
X205100000Y-66800000D03*
X209300000Y-66800000D03*
X208600000Y-66800000D03*
X206500000Y-66800000D03*
X205800000Y-66800000D03*
X207900000Y-66800000D03*
X207200000Y-66800000D03*
X211400000Y-66800000D03*
X210700000Y-66800000D03*
X210000000Y-66800000D03*
X213500000Y-66800000D03*
X212800000Y-66800000D03*
X212100000Y-66800000D03*
X217000000Y-66800000D03*
X221900000Y-66800000D03*
X219100000Y-66800000D03*
X224000000Y-66800000D03*
X216300000Y-66800000D03*
X214200000Y-66800000D03*
X218400000Y-66800000D03*
X224700000Y-66800000D03*
X225400000Y-66800000D03*
X223300000Y-66800000D03*
X217700000Y-66800000D03*
X221200000Y-66800000D03*
X215600000Y-66800000D03*
X214900000Y-66800000D03*
X220500000Y-66800000D03*
X219800000Y-66800000D03*
X222600000Y-66800000D03*
X231700000Y-66800000D03*
X236600000Y-66800000D03*
X226800000Y-66800000D03*
X228900000Y-66800000D03*
X233800000Y-66800000D03*
X227500000Y-66800000D03*
X233100000Y-66800000D03*
X230300000Y-66800000D03*
X226100000Y-66800000D03*
X232400000Y-66800000D03*
X234500000Y-66800000D03*
X229600000Y-66800000D03*
X237300000Y-66800000D03*
X235900000Y-66800000D03*
X235200000Y-66800000D03*
X228200000Y-66800000D03*
X231000000Y-66800000D03*
X239400000Y-66800000D03*
X238700000Y-66800000D03*
X238000000Y-66800000D03*
X240100000Y-66800000D03*
X229600000Y-68800000D03*
X235900000Y-68800000D03*
X235200000Y-68800000D03*
X228200000Y-68800000D03*
X231000000Y-68800000D03*
X237300000Y-68800000D03*
X233100000Y-68800000D03*
X227500000Y-68800000D03*
X230300000Y-68800000D03*
X232400000Y-68800000D03*
X234500000Y-68800000D03*
X236600000Y-68800000D03*
X233800000Y-68800000D03*
X226100000Y-68800000D03*
X228900000Y-68800000D03*
X231700000Y-68800000D03*
X226800000Y-68800000D03*
X219800000Y-68800000D03*
X205100000Y-68800000D03*
X210000000Y-68800000D03*
X224700000Y-68800000D03*
X207200000Y-68800000D03*
X214900000Y-68800000D03*
X212100000Y-68800000D03*
X204400000Y-68800000D03*
X202300000Y-68800000D03*
X206500000Y-68800000D03*
X212800000Y-68800000D03*
X217000000Y-68800000D03*
X221900000Y-68800000D03*
X215600000Y-68800000D03*
X221200000Y-68800000D03*
X218400000Y-68800000D03*
X238700000Y-68800000D03*
X238000000Y-68800000D03*
X214200000Y-68800000D03*
X220500000Y-68800000D03*
X222600000Y-68800000D03*
X240100000Y-68800000D03*
X213500000Y-68800000D03*
X217700000Y-68800000D03*
X225400000Y-68800000D03*
X224000000Y-68800000D03*
X211400000Y-68800000D03*
X239400000Y-68800000D03*
X205800000Y-68800000D03*
X223300000Y-68800000D03*
X209300000Y-68800000D03*
X216300000Y-68800000D03*
X219100000Y-68800000D03*
X203700000Y-68800000D03*
X203000000Y-68800000D03*
X208600000Y-68800000D03*
X207900000Y-68800000D03*
X210700000Y-68800000D03*
X235800000Y-77400000D03*
X237200000Y-77400000D03*
X230200000Y-77400000D03*
X228100000Y-77400000D03*
X230900000Y-77400000D03*
X229500000Y-77400000D03*
X227400000Y-77400000D03*
X232300000Y-77400000D03*
X236500000Y-77400000D03*
X233700000Y-77400000D03*
X234400000Y-77400000D03*
X226000000Y-77400000D03*
X228800000Y-77400000D03*
X231600000Y-77400000D03*
X219700000Y-77400000D03*
X233000000Y-77400000D03*
X235100000Y-77400000D03*
X205000000Y-77400000D03*
X209900000Y-77400000D03*
X224600000Y-77400000D03*
X207100000Y-77400000D03*
X226700000Y-77400000D03*
X216900000Y-77400000D03*
X214800000Y-77400000D03*
X212000000Y-77400000D03*
X202200000Y-77400000D03*
X204300000Y-77400000D03*
X212700000Y-77400000D03*
X221800000Y-77400000D03*
X215500000Y-77400000D03*
X218300000Y-77400000D03*
X206400000Y-77400000D03*
X238600000Y-77400000D03*
X237900000Y-77400000D03*
X214100000Y-77400000D03*
X220400000Y-77400000D03*
X221100000Y-77400000D03*
X222500000Y-77400000D03*
X240000000Y-77400000D03*
X211300000Y-77400000D03*
X205700000Y-77400000D03*
X223200000Y-77400000D03*
X216200000Y-77400000D03*
X219000000Y-77400000D03*
X203600000Y-77400000D03*
X213400000Y-77400000D03*
X209200000Y-77400000D03*
X217600000Y-77400000D03*
X225300000Y-77400000D03*
X223900000Y-77400000D03*
X239300000Y-77400000D03*
X210600000Y-77400000D03*
X207800000Y-77400000D03*
X202900000Y-77400000D03*
X208500000Y-77400000D03*
X222500000Y-79500000D03*
X212700000Y-79500000D03*
X206400000Y-79500000D03*
X224600000Y-79500000D03*
X217600000Y-79500000D03*
X218300000Y-79500000D03*
X214800000Y-79500000D03*
X210600000Y-79500000D03*
X208500000Y-79500000D03*
X212000000Y-79500000D03*
X239300000Y-79500000D03*
X214100000Y-79500000D03*
X209900000Y-79500000D03*
X238600000Y-79500000D03*
X216900000Y-79500000D03*
X202900000Y-79500000D03*
X240000000Y-79500000D03*
X207100000Y-79500000D03*
X225300000Y-79500000D03*
X220400000Y-79500000D03*
X205700000Y-79500000D03*
X237900000Y-79500000D03*
X202200000Y-79500000D03*
X215500000Y-79500000D03*
X216200000Y-79500000D03*
X223900000Y-79500000D03*
X226700000Y-79500000D03*
X213400000Y-79500000D03*
X209200000Y-79500000D03*
X219000000Y-79500000D03*
X207800000Y-79500000D03*
X211300000Y-79500000D03*
X203600000Y-79500000D03*
X221100000Y-79500000D03*
X204300000Y-79500000D03*
X221800000Y-79500000D03*
X223200000Y-79500000D03*
X205000000Y-79500000D03*
X219700000Y-79500000D03*
X233000000Y-79500000D03*
X235100000Y-79500000D03*
X234400000Y-79500000D03*
X226000000Y-79500000D03*
X228800000Y-79500000D03*
X231600000Y-79500000D03*
X229500000Y-79500000D03*
X228100000Y-79500000D03*
X232300000Y-79500000D03*
X236500000Y-79500000D03*
X230900000Y-79500000D03*
X237200000Y-79500000D03*
X233700000Y-79500000D03*
X230200000Y-79500000D03*
X235800000Y-79500000D03*
X227400000Y-79500000D03*
X205900000Y-88100000D03*
X215000000Y-88100000D03*
X207300000Y-88100000D03*
X210800000Y-88100000D03*
X204500000Y-88100000D03*
X216400000Y-88100000D03*
X202400000Y-88100000D03*
X220600000Y-88100000D03*
X238100000Y-88100000D03*
X203100000Y-88100000D03*
X232500000Y-88100000D03*
X222000000Y-88100000D03*
X205200000Y-88100000D03*
X215700000Y-88100000D03*
X231800000Y-88100000D03*
X213600000Y-88100000D03*
X209400000Y-88100000D03*
X233200000Y-88100000D03*
X217100000Y-88100000D03*
X208000000Y-88100000D03*
X236000000Y-88100000D03*
X203800000Y-88100000D03*
X208700000Y-88100000D03*
X239500000Y-88100000D03*
X214300000Y-88100000D03*
X212900000Y-88100000D03*
X212200000Y-88100000D03*
X210100000Y-88100000D03*
X218500000Y-88100000D03*
X233900000Y-88100000D03*
X219200000Y-88100000D03*
X219900000Y-88100000D03*
X237400000Y-88100000D03*
X211500000Y-88100000D03*
X236700000Y-88100000D03*
X235300000Y-88100000D03*
X217800000Y-88100000D03*
X201700000Y-88100000D03*
X206600000Y-88100000D03*
X221300000Y-88100000D03*
X234600000Y-88100000D03*
X238800000Y-88100000D03*
X201600000Y-68800000D03*
X201500000Y-79500000D03*
X201500000Y-77400000D03*
X240200000Y-88100000D03*
X233200000Y-90200000D03*
X236000000Y-90200000D03*
X234600000Y-90200000D03*
X236700000Y-90200000D03*
X239500000Y-90200000D03*
X238800000Y-90200000D03*
X233900000Y-90200000D03*
X235300000Y-90200000D03*
X237400000Y-90200000D03*
X232500000Y-90200000D03*
X231800000Y-90200000D03*
X238100000Y-90200000D03*
X240200000Y-90200000D03*
X217200000Y-90200000D03*
X220700000Y-90200000D03*
X217900000Y-90200000D03*
X220000000Y-90200000D03*
X215100000Y-90200000D03*
X215800000Y-90200000D03*
X221400000Y-90200000D03*
X218600000Y-90200000D03*
X219300000Y-90200000D03*
X213700000Y-90200000D03*
X216500000Y-90200000D03*
X222100000Y-90200000D03*
X214400000Y-90200000D03*
X205300000Y-90200000D03*
X204600000Y-90200000D03*
X207400000Y-90200000D03*
X209500000Y-90200000D03*
X210200000Y-90200000D03*
X210900000Y-90200000D03*
X208800000Y-90200000D03*
X208100000Y-90200000D03*
X206700000Y-90200000D03*
X212300000Y-90200000D03*
X211600000Y-90200000D03*
X206000000Y-90200000D03*
X213000000Y-90200000D03*
X203900000Y-90200000D03*
X201800000Y-90200000D03*
X203200000Y-90200000D03*
X202500000Y-90200000D03*
X215600000Y-95200000D03*
X215600000Y-95900000D03*
X215600000Y-97300000D03*
X215600000Y-98000000D03*
X215600000Y-96600000D03*
X218100000Y-95700000D03*
X218600000Y-95200000D03*
X217600000Y-96900000D03*
X217600000Y-97600000D03*
X217600000Y-98300000D03*
X217600000Y-96200000D03*
X220700000Y-95200000D03*
X220000000Y-95200000D03*
X221400000Y-95200000D03*
X219300000Y-95200000D03*
X222100000Y-95200000D03*
X244500000Y-85900000D03*
X244500000Y-92300000D03*
G04 #@! TD*
D21*
G04 #@! TO.N,Net-(FL1-Pad6)*
X229393788Y-89100000D02*
X229342778Y-89151010D01*
D22*
X242948990Y-89151010D02*
X243000000Y-89100000D01*
X229342778Y-89151010D02*
X242948990Y-89151010D01*
D23*
G04 #@! TO.N,Net-(FL1-Pad1)*
X224211768Y-89100000D02*
X224262778Y-89151010D01*
D22*
X199051010Y-89151010D02*
X199000000Y-89100000D01*
X224262778Y-89151010D02*
X199051010Y-89151010D01*
D23*
G04 #@! TO.N,Net-(FL1-Pad4)*
X229373788Y-94200000D02*
X229342778Y-94231010D01*
D22*
X232556490Y-94231010D02*
X232600000Y-94187500D01*
X229342778Y-94231010D02*
X232556490Y-94231010D01*
G04 #@! TO.N,Net-(FL1-Pad3)*
X216600000Y-95662020D02*
X216600000Y-101000000D01*
X224262778Y-94231010D02*
X218031010Y-94231010D01*
X218031010Y-94231010D02*
X216600000Y-95662020D01*
G04 #@! TO.N,Net-(J2-Pad1)*
X199000000Y-67800000D02*
X243000000Y-67800000D01*
G04 #@! TO.N,Net-(J6-Pad1)*
X199000000Y-78500000D02*
X243100000Y-78500000D01*
G04 #@! TD*
D24*
G04 #@! TO.N,GND*
G36*
X240609380Y-79379643D02*
X240747959Y-79587041D01*
X240955357Y-79725620D01*
X241200000Y-79774283D01*
X244273001Y-79774283D01*
X244273001Y-87825717D01*
X241200000Y-87825717D01*
X240955357Y-87874380D01*
X240747959Y-88012959D01*
X240609380Y-88220357D01*
X240579811Y-88369010D01*
X231252061Y-88369010D01*
X231252061Y-88326010D01*
X231203398Y-88081367D01*
X231064819Y-87873969D01*
X230857421Y-87735390D01*
X230612778Y-87686727D01*
X228072778Y-87686727D01*
X227828135Y-87735390D01*
X227620737Y-87873969D01*
X227482158Y-88081367D01*
X227433495Y-88326010D01*
X227433495Y-89976010D01*
X227482158Y-90220653D01*
X227616032Y-90421010D01*
X227482158Y-90621367D01*
X227433495Y-90866010D01*
X227433495Y-92516010D01*
X227482158Y-92760653D01*
X227616032Y-92961010D01*
X227482158Y-93161367D01*
X227433495Y-93406010D01*
X227433495Y-95056010D01*
X227482158Y-95300653D01*
X227620737Y-95508051D01*
X227828135Y-95646630D01*
X228072778Y-95695293D01*
X230612778Y-95695293D01*
X230857421Y-95646630D01*
X231064819Y-95508051D01*
X231203398Y-95300653D01*
X231252061Y-95056010D01*
X231252061Y-95013010D01*
X231737087Y-95013010D01*
X232015395Y-95198969D01*
X232343750Y-95264283D01*
X232856250Y-95264283D01*
X232882356Y-95259090D01*
X237438695Y-95259090D01*
X240000000Y-97820395D01*
X242561305Y-95259090D01*
X242194360Y-94763657D01*
X240788829Y-94170264D01*
X239263207Y-94159913D01*
X237849754Y-94734181D01*
X237805640Y-94763657D01*
X237438695Y-95259090D01*
X232882356Y-95259090D01*
X233184605Y-95198969D01*
X233462971Y-95012971D01*
X233648969Y-94734605D01*
X233714283Y-94406250D01*
X233714283Y-93968750D01*
X233648969Y-93640395D01*
X233462971Y-93362029D01*
X233184605Y-93176031D01*
X232856250Y-93110717D01*
X232343750Y-93110717D01*
X232015395Y-93176031D01*
X231737029Y-93362029D01*
X231678910Y-93449010D01*
X231252061Y-93449010D01*
X231252061Y-93406010D01*
X231203398Y-93161367D01*
X231069524Y-92961010D01*
X231203398Y-92760653D01*
X231252061Y-92516010D01*
X231252061Y-90866010D01*
X231203398Y-90621367D01*
X231069524Y-90421010D01*
X231203398Y-90220653D01*
X231252061Y-89976010D01*
X231252061Y-89933010D01*
X240600104Y-89933010D01*
X240609380Y-89979643D01*
X240747959Y-90187041D01*
X240955357Y-90325620D01*
X241200000Y-90374283D01*
X244273001Y-90374283D01*
X244273001Y-97967610D01*
X244202623Y-98756175D01*
X244002298Y-99488439D01*
X243675464Y-100173662D01*
X243232451Y-100790178D01*
X242687264Y-101318502D01*
X242057142Y-101741926D01*
X241361994Y-102047075D01*
X240618200Y-102225645D01*
X239973337Y-102273000D01*
X217874283Y-102273000D01*
X217874283Y-100740910D01*
X237438695Y-100740910D01*
X237805640Y-101236343D01*
X239211171Y-101829736D01*
X240736793Y-101840087D01*
X242150246Y-101265819D01*
X242194360Y-101236343D01*
X242561305Y-100740910D01*
X240000000Y-98179605D01*
X237438695Y-100740910D01*
X217874283Y-100740910D01*
X217874283Y-99200000D01*
X217825620Y-98955357D01*
X217687041Y-98747959D01*
X217670330Y-98736793D01*
X236159913Y-98736793D01*
X236734181Y-100150246D01*
X236763657Y-100194360D01*
X237259090Y-100561305D01*
X239820395Y-98000000D01*
X240179605Y-98000000D01*
X242740910Y-100561305D01*
X243236343Y-100194360D01*
X243829736Y-98788829D01*
X243840087Y-97263207D01*
X243265819Y-95849754D01*
X243236343Y-95805640D01*
X242740910Y-95438695D01*
X240179605Y-98000000D01*
X239820395Y-98000000D01*
X237259090Y-95438695D01*
X236763657Y-95805640D01*
X236170264Y-97211171D01*
X236159913Y-98736793D01*
X217670330Y-98736793D01*
X217479643Y-98609380D01*
X217382000Y-98589957D01*
X217382000Y-95985934D01*
X218354925Y-95013010D01*
X222353495Y-95013010D01*
X222353495Y-95056010D01*
X222402158Y-95300653D01*
X222540737Y-95508051D01*
X222748135Y-95646630D01*
X222992778Y-95695293D01*
X225532778Y-95695293D01*
X225777421Y-95646630D01*
X225984819Y-95508051D01*
X226123398Y-95300653D01*
X226172061Y-95056010D01*
X226172061Y-93406010D01*
X226123398Y-93161367D01*
X225984819Y-92953969D01*
X225777421Y-92815390D01*
X225532778Y-92766727D01*
X222992778Y-92766727D01*
X222748135Y-92815390D01*
X222540737Y-92953969D01*
X222402158Y-93161367D01*
X222353495Y-93406010D01*
X222353495Y-93449010D01*
X218108024Y-93449010D01*
X218031010Y-93433691D01*
X217953996Y-93449010D01*
X217953991Y-93449010D01*
X217725889Y-93494382D01*
X217636379Y-93554191D01*
X217532513Y-93623592D01*
X217532512Y-93623593D01*
X217467220Y-93667220D01*
X217423593Y-93732512D01*
X216101505Y-95054601D01*
X216036210Y-95098230D01*
X215863372Y-95356900D01*
X215818000Y-95585002D01*
X215818000Y-95585006D01*
X215802681Y-95662020D01*
X215818000Y-95739034D01*
X215818001Y-98589957D01*
X215720357Y-98609380D01*
X215512959Y-98747959D01*
X215374380Y-98955357D01*
X215325717Y-99200000D01*
X215325717Y-102273000D01*
X202032379Y-102273000D01*
X201243825Y-102202623D01*
X200511561Y-102002298D01*
X199826338Y-101675464D01*
X199209822Y-101232451D01*
X198733485Y-100740910D01*
X199438695Y-100740910D01*
X199805640Y-101236343D01*
X201211171Y-101829736D01*
X202736793Y-101840087D01*
X204150246Y-101265819D01*
X204194360Y-101236343D01*
X204561305Y-100740910D01*
X202000000Y-98179605D01*
X199438695Y-100740910D01*
X198733485Y-100740910D01*
X198681498Y-100687264D01*
X198258074Y-100057142D01*
X197952925Y-99361994D01*
X197802827Y-98736793D01*
X198159913Y-98736793D01*
X198734181Y-100150246D01*
X198763657Y-100194360D01*
X199259090Y-100561305D01*
X201820395Y-98000000D01*
X202179605Y-98000000D01*
X204740910Y-100561305D01*
X205236343Y-100194360D01*
X205656146Y-99200000D01*
X205873000Y-99200000D01*
X205873000Y-101550000D01*
X205882667Y-101598601D01*
X205910197Y-101639803D01*
X205951399Y-101667333D01*
X206000000Y-101677000D01*
X212100000Y-101677000D01*
X212148601Y-101667333D01*
X212189803Y-101639803D01*
X212217333Y-101598601D01*
X212227000Y-101550000D01*
X212227000Y-99200000D01*
X212217333Y-99151399D01*
X212189803Y-99110197D01*
X212148601Y-99082667D01*
X212100000Y-99073000D01*
X206000000Y-99073000D01*
X205951399Y-99082667D01*
X205910197Y-99110197D01*
X205882667Y-99151399D01*
X205873000Y-99200000D01*
X205656146Y-99200000D01*
X205829736Y-98788829D01*
X205840087Y-97263207D01*
X205265819Y-95849754D01*
X205236343Y-95805640D01*
X204740910Y-95438695D01*
X202179605Y-98000000D01*
X201820395Y-98000000D01*
X199259090Y-95438695D01*
X198763657Y-95805640D01*
X198170264Y-97211171D01*
X198159913Y-98736793D01*
X197802827Y-98736793D01*
X197774355Y-98618200D01*
X197727000Y-97973337D01*
X197727000Y-95259090D01*
X199438695Y-95259090D01*
X202000000Y-97820395D01*
X204561305Y-95259090D01*
X204194360Y-94763657D01*
X202788829Y-94170264D01*
X201263207Y-94159913D01*
X199849754Y-94734181D01*
X199805640Y-94763657D01*
X199438695Y-95259090D01*
X197727000Y-95259090D01*
X197727000Y-90374283D01*
X200800000Y-90374283D01*
X201044643Y-90325620D01*
X201252041Y-90187041D01*
X201390620Y-89979643D01*
X201399896Y-89933010D01*
X222353495Y-89933010D01*
X222353495Y-89976010D01*
X222402158Y-90220653D01*
X222540737Y-90428051D01*
X222748135Y-90566630D01*
X222992778Y-90615293D01*
X225532778Y-90615293D01*
X225777421Y-90566630D01*
X225984819Y-90428051D01*
X226123398Y-90220653D01*
X226172061Y-89976010D01*
X226172061Y-88326010D01*
X226123398Y-88081367D01*
X225984819Y-87873969D01*
X225777421Y-87735390D01*
X225532778Y-87686727D01*
X222992778Y-87686727D01*
X222748135Y-87735390D01*
X222540737Y-87873969D01*
X222402158Y-88081367D01*
X222353495Y-88326010D01*
X222353495Y-88369010D01*
X201420189Y-88369010D01*
X201390620Y-88220357D01*
X201252041Y-88012959D01*
X201044643Y-87874380D01*
X200800000Y-87825717D01*
X197727000Y-87825717D01*
X197727000Y-79774283D01*
X200800000Y-79774283D01*
X201044643Y-79725620D01*
X201252041Y-79587041D01*
X201390620Y-79379643D01*
X201410043Y-79282000D01*
X240589957Y-79282000D01*
X240609380Y-79379643D01*
X240609380Y-79379643D01*
G37*
X240609380Y-79379643D02*
X240747959Y-79587041D01*
X240955357Y-79725620D01*
X241200000Y-79774283D01*
X244273001Y-79774283D01*
X244273001Y-87825717D01*
X241200000Y-87825717D01*
X240955357Y-87874380D01*
X240747959Y-88012959D01*
X240609380Y-88220357D01*
X240579811Y-88369010D01*
X231252061Y-88369010D01*
X231252061Y-88326010D01*
X231203398Y-88081367D01*
X231064819Y-87873969D01*
X230857421Y-87735390D01*
X230612778Y-87686727D01*
X228072778Y-87686727D01*
X227828135Y-87735390D01*
X227620737Y-87873969D01*
X227482158Y-88081367D01*
X227433495Y-88326010D01*
X227433495Y-89976010D01*
X227482158Y-90220653D01*
X227616032Y-90421010D01*
X227482158Y-90621367D01*
X227433495Y-90866010D01*
X227433495Y-92516010D01*
X227482158Y-92760653D01*
X227616032Y-92961010D01*
X227482158Y-93161367D01*
X227433495Y-93406010D01*
X227433495Y-95056010D01*
X227482158Y-95300653D01*
X227620737Y-95508051D01*
X227828135Y-95646630D01*
X228072778Y-95695293D01*
X230612778Y-95695293D01*
X230857421Y-95646630D01*
X231064819Y-95508051D01*
X231203398Y-95300653D01*
X231252061Y-95056010D01*
X231252061Y-95013010D01*
X231737087Y-95013010D01*
X232015395Y-95198969D01*
X232343750Y-95264283D01*
X232856250Y-95264283D01*
X232882356Y-95259090D01*
X237438695Y-95259090D01*
X240000000Y-97820395D01*
X242561305Y-95259090D01*
X242194360Y-94763657D01*
X240788829Y-94170264D01*
X239263207Y-94159913D01*
X237849754Y-94734181D01*
X237805640Y-94763657D01*
X237438695Y-95259090D01*
X232882356Y-95259090D01*
X233184605Y-95198969D01*
X233462971Y-95012971D01*
X233648969Y-94734605D01*
X233714283Y-94406250D01*
X233714283Y-93968750D01*
X233648969Y-93640395D01*
X233462971Y-93362029D01*
X233184605Y-93176031D01*
X232856250Y-93110717D01*
X232343750Y-93110717D01*
X232015395Y-93176031D01*
X231737029Y-93362029D01*
X231678910Y-93449010D01*
X231252061Y-93449010D01*
X231252061Y-93406010D01*
X231203398Y-93161367D01*
X231069524Y-92961010D01*
X231203398Y-92760653D01*
X231252061Y-92516010D01*
X231252061Y-90866010D01*
X231203398Y-90621367D01*
X231069524Y-90421010D01*
X231203398Y-90220653D01*
X231252061Y-89976010D01*
X231252061Y-89933010D01*
X240600104Y-89933010D01*
X240609380Y-89979643D01*
X240747959Y-90187041D01*
X240955357Y-90325620D01*
X241200000Y-90374283D01*
X244273001Y-90374283D01*
X244273001Y-97967610D01*
X244202623Y-98756175D01*
X244002298Y-99488439D01*
X243675464Y-100173662D01*
X243232451Y-100790178D01*
X242687264Y-101318502D01*
X242057142Y-101741926D01*
X241361994Y-102047075D01*
X240618200Y-102225645D01*
X239973337Y-102273000D01*
X217874283Y-102273000D01*
X217874283Y-100740910D01*
X237438695Y-100740910D01*
X237805640Y-101236343D01*
X239211171Y-101829736D01*
X240736793Y-101840087D01*
X242150246Y-101265819D01*
X242194360Y-101236343D01*
X242561305Y-100740910D01*
X240000000Y-98179605D01*
X237438695Y-100740910D01*
X217874283Y-100740910D01*
X217874283Y-99200000D01*
X217825620Y-98955357D01*
X217687041Y-98747959D01*
X217670330Y-98736793D01*
X236159913Y-98736793D01*
X236734181Y-100150246D01*
X236763657Y-100194360D01*
X237259090Y-100561305D01*
X239820395Y-98000000D01*
X240179605Y-98000000D01*
X242740910Y-100561305D01*
X243236343Y-100194360D01*
X243829736Y-98788829D01*
X243840087Y-97263207D01*
X243265819Y-95849754D01*
X243236343Y-95805640D01*
X242740910Y-95438695D01*
X240179605Y-98000000D01*
X239820395Y-98000000D01*
X237259090Y-95438695D01*
X236763657Y-95805640D01*
X236170264Y-97211171D01*
X236159913Y-98736793D01*
X217670330Y-98736793D01*
X217479643Y-98609380D01*
X217382000Y-98589957D01*
X217382000Y-95985934D01*
X218354925Y-95013010D01*
X222353495Y-95013010D01*
X222353495Y-95056010D01*
X222402158Y-95300653D01*
X222540737Y-95508051D01*
X222748135Y-95646630D01*
X222992778Y-95695293D01*
X225532778Y-95695293D01*
X225777421Y-95646630D01*
X225984819Y-95508051D01*
X226123398Y-95300653D01*
X226172061Y-95056010D01*
X226172061Y-93406010D01*
X226123398Y-93161367D01*
X225984819Y-92953969D01*
X225777421Y-92815390D01*
X225532778Y-92766727D01*
X222992778Y-92766727D01*
X222748135Y-92815390D01*
X222540737Y-92953969D01*
X222402158Y-93161367D01*
X222353495Y-93406010D01*
X222353495Y-93449010D01*
X218108024Y-93449010D01*
X218031010Y-93433691D01*
X217953996Y-93449010D01*
X217953991Y-93449010D01*
X217725889Y-93494382D01*
X217636379Y-93554191D01*
X217532513Y-93623592D01*
X217532512Y-93623593D01*
X217467220Y-93667220D01*
X217423593Y-93732512D01*
X216101505Y-95054601D01*
X216036210Y-95098230D01*
X215863372Y-95356900D01*
X215818000Y-95585002D01*
X215818000Y-95585006D01*
X215802681Y-95662020D01*
X215818000Y-95739034D01*
X215818001Y-98589957D01*
X215720357Y-98609380D01*
X215512959Y-98747959D01*
X215374380Y-98955357D01*
X215325717Y-99200000D01*
X215325717Y-102273000D01*
X202032379Y-102273000D01*
X201243825Y-102202623D01*
X200511561Y-102002298D01*
X199826338Y-101675464D01*
X199209822Y-101232451D01*
X198733485Y-100740910D01*
X199438695Y-100740910D01*
X199805640Y-101236343D01*
X201211171Y-101829736D01*
X202736793Y-101840087D01*
X204150246Y-101265819D01*
X204194360Y-101236343D01*
X204561305Y-100740910D01*
X202000000Y-98179605D01*
X199438695Y-100740910D01*
X198733485Y-100740910D01*
X198681498Y-100687264D01*
X198258074Y-100057142D01*
X197952925Y-99361994D01*
X197802827Y-98736793D01*
X198159913Y-98736793D01*
X198734181Y-100150246D01*
X198763657Y-100194360D01*
X199259090Y-100561305D01*
X201820395Y-98000000D01*
X202179605Y-98000000D01*
X204740910Y-100561305D01*
X205236343Y-100194360D01*
X205656146Y-99200000D01*
X205873000Y-99200000D01*
X205873000Y-101550000D01*
X205882667Y-101598601D01*
X205910197Y-101639803D01*
X205951399Y-101667333D01*
X206000000Y-101677000D01*
X212100000Y-101677000D01*
X212148601Y-101667333D01*
X212189803Y-101639803D01*
X212217333Y-101598601D01*
X212227000Y-101550000D01*
X212227000Y-99200000D01*
X212217333Y-99151399D01*
X212189803Y-99110197D01*
X212148601Y-99082667D01*
X212100000Y-99073000D01*
X206000000Y-99073000D01*
X205951399Y-99082667D01*
X205910197Y-99110197D01*
X205882667Y-99151399D01*
X205873000Y-99200000D01*
X205656146Y-99200000D01*
X205829736Y-98788829D01*
X205840087Y-97263207D01*
X205265819Y-95849754D01*
X205236343Y-95805640D01*
X204740910Y-95438695D01*
X202179605Y-98000000D01*
X201820395Y-98000000D01*
X199259090Y-95438695D01*
X198763657Y-95805640D01*
X198170264Y-97211171D01*
X198159913Y-98736793D01*
X197802827Y-98736793D01*
X197774355Y-98618200D01*
X197727000Y-97973337D01*
X197727000Y-95259090D01*
X199438695Y-95259090D01*
X202000000Y-97820395D01*
X204561305Y-95259090D01*
X204194360Y-94763657D01*
X202788829Y-94170264D01*
X201263207Y-94159913D01*
X199849754Y-94734181D01*
X199805640Y-94763657D01*
X199438695Y-95259090D01*
X197727000Y-95259090D01*
X197727000Y-90374283D01*
X200800000Y-90374283D01*
X201044643Y-90325620D01*
X201252041Y-90187041D01*
X201390620Y-89979643D01*
X201399896Y-89933010D01*
X222353495Y-89933010D01*
X222353495Y-89976010D01*
X222402158Y-90220653D01*
X222540737Y-90428051D01*
X222748135Y-90566630D01*
X222992778Y-90615293D01*
X225532778Y-90615293D01*
X225777421Y-90566630D01*
X225984819Y-90428051D01*
X226123398Y-90220653D01*
X226172061Y-89976010D01*
X226172061Y-88326010D01*
X226123398Y-88081367D01*
X225984819Y-87873969D01*
X225777421Y-87735390D01*
X225532778Y-87686727D01*
X222992778Y-87686727D01*
X222748135Y-87735390D01*
X222540737Y-87873969D01*
X222402158Y-88081367D01*
X222353495Y-88326010D01*
X222353495Y-88369010D01*
X201420189Y-88369010D01*
X201390620Y-88220357D01*
X201252041Y-88012959D01*
X201044643Y-87874380D01*
X200800000Y-87825717D01*
X197727000Y-87825717D01*
X197727000Y-79774283D01*
X200800000Y-79774283D01*
X201044643Y-79725620D01*
X201252041Y-79587041D01*
X201390620Y-79379643D01*
X201410043Y-79282000D01*
X240589957Y-79282000D01*
X240609380Y-79379643D01*
G36*
X240609380Y-68679643D02*
X240747959Y-68887041D01*
X240955357Y-69025620D01*
X241200000Y-69074283D01*
X244273000Y-69074283D01*
X244273000Y-77225717D01*
X241200000Y-77225717D01*
X240955357Y-77274380D01*
X240747959Y-77412959D01*
X240609380Y-77620357D01*
X240589957Y-77718000D01*
X201410043Y-77718000D01*
X201390620Y-77620357D01*
X201252041Y-77412959D01*
X201044643Y-77274380D01*
X200800000Y-77225717D01*
X197727000Y-77225717D01*
X197727000Y-69074283D01*
X200800000Y-69074283D01*
X201044643Y-69025620D01*
X201252041Y-68887041D01*
X201390620Y-68679643D01*
X201410043Y-68582000D01*
X240589957Y-68582000D01*
X240609380Y-68679643D01*
X240609380Y-68679643D01*
G37*
X240609380Y-68679643D02*
X240747959Y-68887041D01*
X240955357Y-69025620D01*
X241200000Y-69074283D01*
X244273000Y-69074283D01*
X244273000Y-77225717D01*
X241200000Y-77225717D01*
X240955357Y-77274380D01*
X240747959Y-77412959D01*
X240609380Y-77620357D01*
X240589957Y-77718000D01*
X201410043Y-77718000D01*
X201390620Y-77620357D01*
X201252041Y-77412959D01*
X201044643Y-77274380D01*
X200800000Y-77225717D01*
X197727000Y-77225717D01*
X197727000Y-69074283D01*
X200800000Y-69074283D01*
X201044643Y-69025620D01*
X201252041Y-68887041D01*
X201390620Y-68679643D01*
X201410043Y-68582000D01*
X240589957Y-68582000D01*
X240609380Y-68679643D01*
G36*
X240756173Y-55797376D02*
X241488441Y-55997702D01*
X242173659Y-56324534D01*
X242790178Y-56767549D01*
X243318502Y-57312736D01*
X243741926Y-57942858D01*
X244047076Y-58638009D01*
X244225645Y-59381800D01*
X244273000Y-60026663D01*
X244273000Y-66525717D01*
X241200000Y-66525717D01*
X240955357Y-66574380D01*
X240747959Y-66712959D01*
X240609380Y-66920357D01*
X240589957Y-67018000D01*
X201410043Y-67018000D01*
X201390620Y-66920357D01*
X201252041Y-66712959D01*
X201044643Y-66574380D01*
X200800000Y-66525717D01*
X197727000Y-66525717D01*
X197727000Y-62740910D01*
X199438695Y-62740910D01*
X199805640Y-63236343D01*
X201211171Y-63829736D01*
X202736793Y-63840087D01*
X204150246Y-63265819D01*
X204194360Y-63236343D01*
X204561305Y-62740910D01*
X237438695Y-62740910D01*
X237805640Y-63236343D01*
X239211171Y-63829736D01*
X240736793Y-63840087D01*
X242150246Y-63265819D01*
X242194360Y-63236343D01*
X242561305Y-62740910D01*
X240000000Y-60179605D01*
X237438695Y-62740910D01*
X204561305Y-62740910D01*
X202000000Y-60179605D01*
X199438695Y-62740910D01*
X197727000Y-62740910D01*
X197727000Y-60736793D01*
X198159913Y-60736793D01*
X198734181Y-62150246D01*
X198763657Y-62194360D01*
X199259090Y-62561305D01*
X201820395Y-60000000D01*
X202179605Y-60000000D01*
X204740910Y-62561305D01*
X205236343Y-62194360D01*
X205829736Y-60788829D01*
X205830089Y-60736793D01*
X236159913Y-60736793D01*
X236734181Y-62150246D01*
X236763657Y-62194360D01*
X237259090Y-62561305D01*
X239820395Y-60000000D01*
X240179605Y-60000000D01*
X242740910Y-62561305D01*
X243236343Y-62194360D01*
X243829736Y-60788829D01*
X243840087Y-59263207D01*
X243265819Y-57849754D01*
X243236343Y-57805640D01*
X242740910Y-57438695D01*
X240179605Y-60000000D01*
X239820395Y-60000000D01*
X237259090Y-57438695D01*
X236763657Y-57805640D01*
X236170264Y-59211171D01*
X236159913Y-60736793D01*
X205830089Y-60736793D01*
X205840087Y-59263207D01*
X205265819Y-57849754D01*
X205236343Y-57805640D01*
X204740910Y-57438695D01*
X202179605Y-60000000D01*
X201820395Y-60000000D01*
X199259090Y-57438695D01*
X198763657Y-57805640D01*
X198170264Y-59211171D01*
X198159913Y-60736793D01*
X197727000Y-60736793D01*
X197727000Y-60032379D01*
X197797376Y-59243827D01*
X197997702Y-58511559D01*
X198324534Y-57826341D01*
X198732146Y-57259090D01*
X199438695Y-57259090D01*
X202000000Y-59820395D01*
X204561305Y-57259090D01*
X237438695Y-57259090D01*
X240000000Y-59820395D01*
X242561305Y-57259090D01*
X242194360Y-56763657D01*
X240788829Y-56170264D01*
X239263207Y-56159913D01*
X237849754Y-56734181D01*
X237805640Y-56763657D01*
X237438695Y-57259090D01*
X204561305Y-57259090D01*
X204194360Y-56763657D01*
X202788829Y-56170264D01*
X201263207Y-56159913D01*
X199849754Y-56734181D01*
X199805640Y-56763657D01*
X199438695Y-57259090D01*
X198732146Y-57259090D01*
X198767549Y-57209822D01*
X199312736Y-56681498D01*
X199942858Y-56258074D01*
X200638009Y-55952924D01*
X201381800Y-55774355D01*
X202026663Y-55727000D01*
X239967621Y-55727000D01*
X240756173Y-55797376D01*
X240756173Y-55797376D01*
G37*
X240756173Y-55797376D02*
X241488441Y-55997702D01*
X242173659Y-56324534D01*
X242790178Y-56767549D01*
X243318502Y-57312736D01*
X243741926Y-57942858D01*
X244047076Y-58638009D01*
X244225645Y-59381800D01*
X244273000Y-60026663D01*
X244273000Y-66525717D01*
X241200000Y-66525717D01*
X240955357Y-66574380D01*
X240747959Y-66712959D01*
X240609380Y-66920357D01*
X240589957Y-67018000D01*
X201410043Y-67018000D01*
X201390620Y-66920357D01*
X201252041Y-66712959D01*
X201044643Y-66574380D01*
X200800000Y-66525717D01*
X197727000Y-66525717D01*
X197727000Y-62740910D01*
X199438695Y-62740910D01*
X199805640Y-63236343D01*
X201211171Y-63829736D01*
X202736793Y-63840087D01*
X204150246Y-63265819D01*
X204194360Y-63236343D01*
X204561305Y-62740910D01*
X237438695Y-62740910D01*
X237805640Y-63236343D01*
X239211171Y-63829736D01*
X240736793Y-63840087D01*
X242150246Y-63265819D01*
X242194360Y-63236343D01*
X242561305Y-62740910D01*
X240000000Y-60179605D01*
X237438695Y-62740910D01*
X204561305Y-62740910D01*
X202000000Y-60179605D01*
X199438695Y-62740910D01*
X197727000Y-62740910D01*
X197727000Y-60736793D01*
X198159913Y-60736793D01*
X198734181Y-62150246D01*
X198763657Y-62194360D01*
X199259090Y-62561305D01*
X201820395Y-60000000D01*
X202179605Y-60000000D01*
X204740910Y-62561305D01*
X205236343Y-62194360D01*
X205829736Y-60788829D01*
X205830089Y-60736793D01*
X236159913Y-60736793D01*
X236734181Y-62150246D01*
X236763657Y-62194360D01*
X237259090Y-62561305D01*
X239820395Y-60000000D01*
X240179605Y-60000000D01*
X242740910Y-62561305D01*
X243236343Y-62194360D01*
X243829736Y-60788829D01*
X243840087Y-59263207D01*
X243265819Y-57849754D01*
X243236343Y-57805640D01*
X242740910Y-57438695D01*
X240179605Y-60000000D01*
X239820395Y-60000000D01*
X237259090Y-57438695D01*
X236763657Y-57805640D01*
X236170264Y-59211171D01*
X236159913Y-60736793D01*
X205830089Y-60736793D01*
X205840087Y-59263207D01*
X205265819Y-57849754D01*
X205236343Y-57805640D01*
X204740910Y-57438695D01*
X202179605Y-60000000D01*
X201820395Y-60000000D01*
X199259090Y-57438695D01*
X198763657Y-57805640D01*
X198170264Y-59211171D01*
X198159913Y-60736793D01*
X197727000Y-60736793D01*
X197727000Y-60032379D01*
X197797376Y-59243827D01*
X197997702Y-58511559D01*
X198324534Y-57826341D01*
X198732146Y-57259090D01*
X199438695Y-57259090D01*
X202000000Y-59820395D01*
X204561305Y-57259090D01*
X237438695Y-57259090D01*
X240000000Y-59820395D01*
X242561305Y-57259090D01*
X242194360Y-56763657D01*
X240788829Y-56170264D01*
X239263207Y-56159913D01*
X237849754Y-56734181D01*
X237805640Y-56763657D01*
X237438695Y-57259090D01*
X204561305Y-57259090D01*
X204194360Y-56763657D01*
X202788829Y-56170264D01*
X201263207Y-56159913D01*
X199849754Y-56734181D01*
X199805640Y-56763657D01*
X199438695Y-57259090D01*
X198732146Y-57259090D01*
X198767549Y-57209822D01*
X199312736Y-56681498D01*
X199942858Y-56258074D01*
X200638009Y-55952924D01*
X201381800Y-55774355D01*
X202026663Y-55727000D01*
X239967621Y-55727000D01*
X240756173Y-55797376D01*
G04 #@! TD*
M02*
