G04 #@! TF.GenerationSoftware,KiCad,Pcbnew,(5.0.2)-1*
G04 #@! TF.CreationDate,2019-01-19T10:46:15+11:00*
G04 #@! TF.ProjectId,ADC-15-4_Dev_Rev_1,4144432d-3135-42d3-945f-4465765f5265,1*
G04 #@! TF.SameCoordinates,Original*
G04 #@! TF.FileFunction,Legend,Bot*
G04 #@! TF.FilePolarity,Positive*
%FSLAX46Y46*%
G04 Gerber Fmt 4.6, Leading zero omitted, Abs format (unit mm)*
G04 Created by KiCad (PCBNEW (5.0.2)-1) date 19/01/2019 10:46:15*
%MOMM*%
%LPD*%
G01*
G04 APERTURE LIST*
%ADD10C,0.150000*%
G04 APERTURE END LIST*
G04 #@! TO.C,REF\002A\002A*
D10*
X234690476Y-97485714D02*
X234690476Y-98295238D01*
X234738095Y-98390476D01*
X234785714Y-98438095D01*
X234880952Y-98485714D01*
X235023809Y-98485714D01*
X235119047Y-98438095D01*
X234690476Y-98104761D02*
X234785714Y-98152380D01*
X234976190Y-98152380D01*
X235071428Y-98104761D01*
X235119047Y-98057142D01*
X235166666Y-97961904D01*
X235166666Y-97676190D01*
X235119047Y-97580952D01*
X235071428Y-97533333D01*
X234976190Y-97485714D01*
X234785714Y-97485714D01*
X234690476Y-97533333D01*
X234214285Y-98152380D02*
X234214285Y-97485714D01*
X234214285Y-97152380D02*
X234261904Y-97200000D01*
X234214285Y-97247619D01*
X234166666Y-97200000D01*
X234214285Y-97152380D01*
X234214285Y-97247619D01*
X233880952Y-97485714D02*
X233500000Y-97485714D01*
X233738095Y-97152380D02*
X233738095Y-98009523D01*
X233690476Y-98104761D01*
X233595238Y-98152380D01*
X233500000Y-98152380D01*
X233166666Y-98152380D02*
X233166666Y-97152380D01*
X232738095Y-98152380D02*
X232738095Y-97628571D01*
X232785714Y-97533333D01*
X232880952Y-97485714D01*
X233023809Y-97485714D01*
X233119047Y-97533333D01*
X233166666Y-97580952D01*
X231833333Y-97485714D02*
X231833333Y-98152380D01*
X232261904Y-97485714D02*
X232261904Y-98009523D01*
X232214285Y-98104761D01*
X232119047Y-98152380D01*
X231976190Y-98152380D01*
X231880952Y-98104761D01*
X231833333Y-98057142D01*
X231357142Y-98152380D02*
X231357142Y-97152380D01*
X231357142Y-97533333D02*
X231261904Y-97485714D01*
X231071428Y-97485714D01*
X230976190Y-97533333D01*
X230928571Y-97580952D01*
X230880952Y-97676190D01*
X230880952Y-97961904D01*
X230928571Y-98057142D01*
X230976190Y-98104761D01*
X231071428Y-98152380D01*
X231261904Y-98152380D01*
X231357142Y-98104761D01*
X230452380Y-98057142D02*
X230404761Y-98104761D01*
X230452380Y-98152380D01*
X230500000Y-98104761D01*
X230452380Y-98057142D01*
X230452380Y-98152380D01*
X229547619Y-98104761D02*
X229642857Y-98152380D01*
X229833333Y-98152380D01*
X229928571Y-98104761D01*
X229976190Y-98057142D01*
X230023809Y-97961904D01*
X230023809Y-97676190D01*
X229976190Y-97580952D01*
X229928571Y-97533333D01*
X229833333Y-97485714D01*
X229642857Y-97485714D01*
X229547619Y-97533333D01*
X228976190Y-98152380D02*
X229071428Y-98104761D01*
X229119047Y-98057142D01*
X229166666Y-97961904D01*
X229166666Y-97676190D01*
X229119047Y-97580952D01*
X229071428Y-97533333D01*
X228976190Y-97485714D01*
X228833333Y-97485714D01*
X228738095Y-97533333D01*
X228690476Y-97580952D01*
X228642857Y-97676190D01*
X228642857Y-97961904D01*
X228690476Y-98057142D01*
X228738095Y-98104761D01*
X228833333Y-98152380D01*
X228976190Y-98152380D01*
X228214285Y-98152380D02*
X228214285Y-97485714D01*
X228214285Y-97580952D02*
X228166666Y-97533333D01*
X228071428Y-97485714D01*
X227928571Y-97485714D01*
X227833333Y-97533333D01*
X227785714Y-97628571D01*
X227785714Y-98152380D01*
X227785714Y-97628571D02*
X227738095Y-97533333D01*
X227642857Y-97485714D01*
X227500000Y-97485714D01*
X227404761Y-97533333D01*
X227357142Y-97628571D01*
X227357142Y-98152380D01*
X226166666Y-97104761D02*
X227023809Y-98390476D01*
X225833333Y-97485714D02*
X225833333Y-98342857D01*
X225880952Y-98438095D01*
X225976190Y-98485714D01*
X226023809Y-98485714D01*
X225833333Y-97152380D02*
X225880952Y-97200000D01*
X225833333Y-97247619D01*
X225785714Y-97200000D01*
X225833333Y-97152380D01*
X225833333Y-97247619D01*
X225214285Y-98152380D02*
X225309523Y-98104761D01*
X225357142Y-98057142D01*
X225404761Y-97961904D01*
X225404761Y-97676190D01*
X225357142Y-97580952D01*
X225309523Y-97533333D01*
X225214285Y-97485714D01*
X225071428Y-97485714D01*
X224976190Y-97533333D01*
X224928571Y-97580952D01*
X224880952Y-97676190D01*
X224880952Y-97961904D01*
X224928571Y-98057142D01*
X224976190Y-98104761D01*
X225071428Y-98152380D01*
X225214285Y-98152380D01*
X224500000Y-98104761D02*
X224404761Y-98152380D01*
X224214285Y-98152380D01*
X224119047Y-98104761D01*
X224071428Y-98009523D01*
X224071428Y-97961904D01*
X224119047Y-97866666D01*
X224214285Y-97819047D01*
X224357142Y-97819047D01*
X224452380Y-97771428D01*
X224500000Y-97676190D01*
X224500000Y-97628571D01*
X224452380Y-97533333D01*
X224357142Y-97485714D01*
X224214285Y-97485714D01*
X224119047Y-97533333D01*
X223642857Y-98152380D02*
X223642857Y-97152380D01*
X223214285Y-98152380D02*
X223214285Y-97628571D01*
X223261904Y-97533333D01*
X223357142Y-97485714D01*
X223500000Y-97485714D01*
X223595238Y-97533333D01*
X223642857Y-97580952D01*
X222309523Y-98152380D02*
X222309523Y-97628571D01*
X222357142Y-97533333D01*
X222452380Y-97485714D01*
X222642857Y-97485714D01*
X222738095Y-97533333D01*
X222309523Y-98104761D02*
X222404761Y-98152380D01*
X222642857Y-98152380D01*
X222738095Y-98104761D01*
X222785714Y-98009523D01*
X222785714Y-97914285D01*
X222738095Y-97819047D01*
X222642857Y-97771428D01*
X222404761Y-97771428D01*
X222309523Y-97723809D01*
X221833333Y-97485714D02*
X221833333Y-98342857D01*
X221880952Y-98438095D01*
X221976190Y-98485714D01*
X222023809Y-98485714D01*
X221833333Y-97152380D02*
X221880952Y-97200000D01*
X221833333Y-97247619D01*
X221785714Y-97200000D01*
X221833333Y-97152380D01*
X221833333Y-97247619D01*
X221214285Y-98152380D02*
X221309523Y-98104761D01*
X221357142Y-98057142D01*
X221404761Y-97961904D01*
X221404761Y-97676190D01*
X221357142Y-97580952D01*
X221309523Y-97533333D01*
X221214285Y-97485714D01*
X221071428Y-97485714D01*
X220976190Y-97533333D01*
X220928571Y-97580952D01*
X220880952Y-97676190D01*
X220880952Y-97961904D01*
X220928571Y-98057142D01*
X220976190Y-98104761D01*
X221071428Y-98152380D01*
X221214285Y-98152380D01*
X220452380Y-98152380D02*
X220452380Y-97152380D01*
X220023809Y-98152380D02*
X220023809Y-97628571D01*
X220071428Y-97533333D01*
X220166666Y-97485714D01*
X220309523Y-97485714D01*
X220404761Y-97533333D01*
X220452380Y-97580952D01*
X219547619Y-97485714D02*
X219547619Y-98152380D01*
X219547619Y-97580952D02*
X219500000Y-97533333D01*
X219404761Y-97485714D01*
X219261904Y-97485714D01*
X219166666Y-97533333D01*
X219119047Y-97628571D01*
X219119047Y-98152380D01*
X218690476Y-98104761D02*
X218595238Y-98152380D01*
X218404761Y-98152380D01*
X218309523Y-98104761D01*
X218261904Y-98009523D01*
X218261904Y-97961904D01*
X218309523Y-97866666D01*
X218404761Y-97819047D01*
X218547619Y-97819047D01*
X218642857Y-97771428D01*
X218690476Y-97676190D01*
X218690476Y-97628571D01*
X218642857Y-97533333D01*
X218547619Y-97485714D01*
X218404761Y-97485714D01*
X218309523Y-97533333D01*
X217690476Y-98152380D02*
X217785714Y-98104761D01*
X217833333Y-98057142D01*
X217880952Y-97961904D01*
X217880952Y-97676190D01*
X217833333Y-97580952D01*
X217785714Y-97533333D01*
X217690476Y-97485714D01*
X217547619Y-97485714D01*
X217452380Y-97533333D01*
X217404761Y-97580952D01*
X217357142Y-97676190D01*
X217357142Y-97961904D01*
X217404761Y-98057142D01*
X217452380Y-98104761D01*
X217547619Y-98152380D01*
X217690476Y-98152380D01*
X216928571Y-97485714D02*
X216928571Y-98152380D01*
X216928571Y-97580952D02*
X216880952Y-97533333D01*
X216785714Y-97485714D01*
X216642857Y-97485714D01*
X216547619Y-97533333D01*
X216500000Y-97628571D01*
X216500000Y-98152380D01*
X215309523Y-97104761D02*
X216166666Y-98390476D01*
X215071428Y-97485714D02*
X214833333Y-98152380D01*
X214595238Y-97485714D01*
X214214285Y-97485714D02*
X214214285Y-98152380D01*
X214214285Y-97580952D02*
X214166666Y-97533333D01*
X214071428Y-97485714D01*
X213928571Y-97485714D01*
X213833333Y-97533333D01*
X213785714Y-97628571D01*
X213785714Y-98152380D01*
X212880952Y-98152380D02*
X212880952Y-97628571D01*
X212928571Y-97533333D01*
X213023809Y-97485714D01*
X213214285Y-97485714D01*
X213309523Y-97533333D01*
X212880952Y-98104761D02*
X212976190Y-98152380D01*
X213214285Y-98152380D01*
X213309523Y-98104761D01*
X213357142Y-98009523D01*
X213357142Y-97914285D01*
X213309523Y-97819047D01*
X213214285Y-97771428D01*
X212976190Y-97771428D01*
X212880952Y-97723809D01*
X234952380Y-95985714D02*
X234952380Y-96842857D01*
X235000000Y-96938095D01*
X235095238Y-96985714D01*
X235142857Y-96985714D01*
X234952380Y-95652380D02*
X235000000Y-95700000D01*
X234952380Y-95747619D01*
X234904761Y-95700000D01*
X234952380Y-95652380D01*
X234952380Y-95747619D01*
X234333333Y-96652380D02*
X234428571Y-96604761D01*
X234476190Y-96557142D01*
X234523809Y-96461904D01*
X234523809Y-96176190D01*
X234476190Y-96080952D01*
X234428571Y-96033333D01*
X234333333Y-95985714D01*
X234190476Y-95985714D01*
X234095238Y-96033333D01*
X234047619Y-96080952D01*
X234000000Y-96176190D01*
X234000000Y-96461904D01*
X234047619Y-96557142D01*
X234095238Y-96604761D01*
X234190476Y-96652380D01*
X234333333Y-96652380D01*
X233619047Y-96604761D02*
X233523809Y-96652380D01*
X233333333Y-96652380D01*
X233238095Y-96604761D01*
X233190476Y-96509523D01*
X233190476Y-96461904D01*
X233238095Y-96366666D01*
X233333333Y-96319047D01*
X233476190Y-96319047D01*
X233571428Y-96271428D01*
X233619047Y-96176190D01*
X233619047Y-96128571D01*
X233571428Y-96033333D01*
X233476190Y-95985714D01*
X233333333Y-95985714D01*
X233238095Y-96033333D01*
X232761904Y-96652380D02*
X232761904Y-95652380D01*
X232333333Y-96652380D02*
X232333333Y-96128571D01*
X232380952Y-96033333D01*
X232476190Y-95985714D01*
X232619047Y-95985714D01*
X232714285Y-96033333D01*
X232761904Y-96080952D01*
X231428571Y-96652380D02*
X231428571Y-96128571D01*
X231476190Y-96033333D01*
X231571428Y-95985714D01*
X231761904Y-95985714D01*
X231857142Y-96033333D01*
X231428571Y-96604761D02*
X231523809Y-96652380D01*
X231761904Y-96652380D01*
X231857142Y-96604761D01*
X231904761Y-96509523D01*
X231904761Y-96414285D01*
X231857142Y-96319047D01*
X231761904Y-96271428D01*
X231523809Y-96271428D01*
X231428571Y-96223809D01*
X230952380Y-95985714D02*
X230952380Y-96842857D01*
X231000000Y-96938095D01*
X231095238Y-96985714D01*
X231142857Y-96985714D01*
X230952380Y-95652380D02*
X231000000Y-95700000D01*
X230952380Y-95747619D01*
X230904761Y-95700000D01*
X230952380Y-95652380D01*
X230952380Y-95747619D01*
X230333333Y-96652380D02*
X230428571Y-96604761D01*
X230476190Y-96557142D01*
X230523809Y-96461904D01*
X230523809Y-96176190D01*
X230476190Y-96080952D01*
X230428571Y-96033333D01*
X230333333Y-95985714D01*
X230190476Y-95985714D01*
X230095238Y-96033333D01*
X230047619Y-96080952D01*
X230000000Y-96176190D01*
X230000000Y-96461904D01*
X230047619Y-96557142D01*
X230095238Y-96604761D01*
X230190476Y-96652380D01*
X230333333Y-96652380D01*
X229571428Y-96652380D02*
X229571428Y-95652380D01*
X229142857Y-96652380D02*
X229142857Y-96128571D01*
X229190476Y-96033333D01*
X229285714Y-95985714D01*
X229428571Y-95985714D01*
X229523809Y-96033333D01*
X229571428Y-96080952D01*
X228666666Y-95985714D02*
X228666666Y-96652380D01*
X228666666Y-96080952D02*
X228619047Y-96033333D01*
X228523809Y-95985714D01*
X228380952Y-95985714D01*
X228285714Y-96033333D01*
X228238095Y-96128571D01*
X228238095Y-96652380D01*
X227809523Y-96604761D02*
X227714285Y-96652380D01*
X227523809Y-96652380D01*
X227428571Y-96604761D01*
X227380952Y-96509523D01*
X227380952Y-96461904D01*
X227428571Y-96366666D01*
X227523809Y-96319047D01*
X227666666Y-96319047D01*
X227761904Y-96271428D01*
X227809523Y-96176190D01*
X227809523Y-96128571D01*
X227761904Y-96033333D01*
X227666666Y-95985714D01*
X227523809Y-95985714D01*
X227428571Y-96033333D01*
X226809523Y-96652380D02*
X226904761Y-96604761D01*
X226952380Y-96557142D01*
X227000000Y-96461904D01*
X227000000Y-96176190D01*
X226952380Y-96080952D01*
X226904761Y-96033333D01*
X226809523Y-95985714D01*
X226666666Y-95985714D01*
X226571428Y-96033333D01*
X226523809Y-96080952D01*
X226476190Y-96176190D01*
X226476190Y-96461904D01*
X226523809Y-96557142D01*
X226571428Y-96604761D01*
X226666666Y-96652380D01*
X226809523Y-96652380D01*
X226047619Y-95985714D02*
X226047619Y-96652380D01*
X226047619Y-96080952D02*
X226000000Y-96033333D01*
X225904761Y-95985714D01*
X225761904Y-95985714D01*
X225666666Y-96033333D01*
X225619047Y-96128571D01*
X225619047Y-96652380D01*
X225142857Y-96557142D02*
X225095238Y-96604761D01*
X225142857Y-96652380D01*
X225190476Y-96604761D01*
X225142857Y-96557142D01*
X225142857Y-96652380D01*
X224238095Y-96604761D02*
X224333333Y-96652380D01*
X224523809Y-96652380D01*
X224619047Y-96604761D01*
X224666666Y-96557142D01*
X224714285Y-96461904D01*
X224714285Y-96176190D01*
X224666666Y-96080952D01*
X224619047Y-96033333D01*
X224523809Y-95985714D01*
X224333333Y-95985714D01*
X224238095Y-96033333D01*
X223666666Y-96652380D02*
X223761904Y-96604761D01*
X223809523Y-96557142D01*
X223857142Y-96461904D01*
X223857142Y-96176190D01*
X223809523Y-96080952D01*
X223761904Y-96033333D01*
X223666666Y-95985714D01*
X223523809Y-95985714D01*
X223428571Y-96033333D01*
X223380952Y-96080952D01*
X223333333Y-96176190D01*
X223333333Y-96461904D01*
X223380952Y-96557142D01*
X223428571Y-96604761D01*
X223523809Y-96652380D01*
X223666666Y-96652380D01*
X222904761Y-96652380D02*
X222904761Y-95985714D01*
X222904761Y-96080952D02*
X222857142Y-96033333D01*
X222761904Y-95985714D01*
X222619047Y-95985714D01*
X222523809Y-96033333D01*
X222476190Y-96128571D01*
X222476190Y-96652380D01*
X222476190Y-96128571D02*
X222428571Y-96033333D01*
X222333333Y-95985714D01*
X222190476Y-95985714D01*
X222095238Y-96033333D01*
X222047619Y-96128571D01*
X222047619Y-96652380D01*
X234895238Y-94152380D02*
X234895238Y-94866666D01*
X234942857Y-95009523D01*
X235038095Y-95104761D01*
X235180952Y-95152380D01*
X235276190Y-95152380D01*
X234276190Y-95152380D02*
X234371428Y-95104761D01*
X234419047Y-95057142D01*
X234466666Y-94961904D01*
X234466666Y-94676190D01*
X234419047Y-94580952D01*
X234371428Y-94533333D01*
X234276190Y-94485714D01*
X234133333Y-94485714D01*
X234038095Y-94533333D01*
X233990476Y-94580952D01*
X233942857Y-94676190D01*
X233942857Y-94961904D01*
X233990476Y-95057142D01*
X234038095Y-95104761D01*
X234133333Y-95152380D01*
X234276190Y-95152380D01*
X233561904Y-95104761D02*
X233466666Y-95152380D01*
X233276190Y-95152380D01*
X233180952Y-95104761D01*
X233133333Y-95009523D01*
X233133333Y-94961904D01*
X233180952Y-94866666D01*
X233276190Y-94819047D01*
X233419047Y-94819047D01*
X233514285Y-94771428D01*
X233561904Y-94676190D01*
X233561904Y-94628571D01*
X233514285Y-94533333D01*
X233419047Y-94485714D01*
X233276190Y-94485714D01*
X233180952Y-94533333D01*
X232704761Y-95152380D02*
X232704761Y-94152380D01*
X232276190Y-95152380D02*
X232276190Y-94628571D01*
X232323809Y-94533333D01*
X232419047Y-94485714D01*
X232561904Y-94485714D01*
X232657142Y-94533333D01*
X232704761Y-94580952D01*
X230752380Y-94152380D02*
X230752380Y-94866666D01*
X230800000Y-95009523D01*
X230895238Y-95104761D01*
X231038095Y-95152380D01*
X231133333Y-95152380D01*
X230133333Y-95152380D02*
X230228571Y-95104761D01*
X230276190Y-95057142D01*
X230323809Y-94961904D01*
X230323809Y-94676190D01*
X230276190Y-94580952D01*
X230228571Y-94533333D01*
X230133333Y-94485714D01*
X229990476Y-94485714D01*
X229895238Y-94533333D01*
X229847619Y-94580952D01*
X229800000Y-94676190D01*
X229800000Y-94961904D01*
X229847619Y-95057142D01*
X229895238Y-95104761D01*
X229990476Y-95152380D01*
X230133333Y-95152380D01*
X229371428Y-95152380D02*
X229371428Y-94152380D01*
X228942857Y-95152380D02*
X228942857Y-94628571D01*
X228990476Y-94533333D01*
X229085714Y-94485714D01*
X229228571Y-94485714D01*
X229323809Y-94533333D01*
X229371428Y-94580952D01*
X228466666Y-94485714D02*
X228466666Y-95152380D01*
X228466666Y-94580952D02*
X228419047Y-94533333D01*
X228323809Y-94485714D01*
X228180952Y-94485714D01*
X228085714Y-94533333D01*
X228038095Y-94628571D01*
X228038095Y-95152380D01*
X227609523Y-95104761D02*
X227514285Y-95152380D01*
X227323809Y-95152380D01*
X227228571Y-95104761D01*
X227180952Y-95009523D01*
X227180952Y-94961904D01*
X227228571Y-94866666D01*
X227323809Y-94819047D01*
X227466666Y-94819047D01*
X227561904Y-94771428D01*
X227609523Y-94676190D01*
X227609523Y-94628571D01*
X227561904Y-94533333D01*
X227466666Y-94485714D01*
X227323809Y-94485714D01*
X227228571Y-94533333D01*
X226609523Y-95152380D02*
X226704761Y-95104761D01*
X226752380Y-95057142D01*
X226800000Y-94961904D01*
X226800000Y-94676190D01*
X226752380Y-94580952D01*
X226704761Y-94533333D01*
X226609523Y-94485714D01*
X226466666Y-94485714D01*
X226371428Y-94533333D01*
X226323809Y-94580952D01*
X226276190Y-94676190D01*
X226276190Y-94961904D01*
X226323809Y-95057142D01*
X226371428Y-95104761D01*
X226466666Y-95152380D01*
X226609523Y-95152380D01*
X225847619Y-94485714D02*
X225847619Y-95152380D01*
X225847619Y-94580952D02*
X225800000Y-94533333D01*
X225704761Y-94485714D01*
X225561904Y-94485714D01*
X225466666Y-94533333D01*
X225419047Y-94628571D01*
X225419047Y-95152380D01*
G04 #@! TD*
M02*
