M48
;DRILL file {KiCad (5.0.2)-1} date 19/01/2019 10:46:18
;FORMAT={-:-/ absolute / inch / decimal}
FMAT,2
INCH,TZ
T1C0.0118
T2C0.0197
T3C0.1260
%
G90
G05
T1
X7.7717Y-2.5433
X7.7717Y-2.7953
X7.7717Y-2.9646
X7.7717Y-3.2165
X7.7717Y-3.3819
X7.7717Y-3.6339
X7.7992Y-2.5433
X7.7992Y-2.7953
X7.7992Y-2.9646
X7.7992Y-3.2165
X7.7992Y-3.3819
X7.7992Y-3.6339
X7.8268Y-2.5433
X7.8268Y-2.7953
X7.8268Y-2.9646
X7.8268Y-3.2165
X7.8268Y-3.3819
X7.8268Y-3.6339
X7.8543Y-2.5433
X7.8543Y-2.7953
X7.8543Y-2.9646
X7.8543Y-3.2165
X7.8543Y-3.3819
X7.8543Y-3.6339
X7.8819Y-2.5433
X7.8819Y-2.7953
X7.8819Y-2.9646
X7.8819Y-3.2165
X7.8819Y-3.3819
X7.8819Y-3.6339
X7.9094Y-2.5433
X7.9094Y-2.7953
X7.9094Y-2.9646
X7.9094Y-3.2165
X7.9094Y-3.3819
X7.9094Y-3.6339
X7.9331Y-3.0472
X7.9331Y-3.1299
X7.937Y-2.6299
X7.937Y-2.7087
X7.9409Y-3.4685
X7.9449Y-3.5512
X7.9606Y-3.0472
X7.9606Y-3.1299
X7.9646Y-2.6299
X7.9646Y-2.7087
X7.9685Y-3.4685
X7.9724Y-3.5512
X7.9882Y-3.0472
X7.9882Y-3.1299
X7.9921Y-2.6299
X7.9921Y-2.7087
X7.9961Y-3.4685
X8.Y-3.5512
X8.0157Y-3.0472
X8.0157Y-3.1299
X8.0197Y-2.6299
X8.0197Y-2.7087
X8.0236Y-3.4685
X8.0276Y-3.5512
X8.0433Y-3.0472
X8.0433Y-3.1299
X8.0472Y-2.6299
X8.0472Y-2.7087
X8.0512Y-3.4685
X8.0551Y-3.5512
X8.0709Y-3.0472
X8.0709Y-3.1299
X8.0748Y-2.6299
X8.0748Y-2.7087
X8.0787Y-3.4685
X8.0827Y-3.5512
X8.0984Y-3.0472
X8.0984Y-3.1299
X8.1024Y-2.6299
X8.1024Y-2.7087
X8.1063Y-3.4685
X8.1102Y-3.5512
X8.126Y-3.0472
X8.126Y-3.1299
X8.1299Y-2.6299
X8.1299Y-2.7087
X8.1339Y-3.4685
X8.1378Y-3.5512
X8.1535Y-3.0472
X8.1535Y-3.1299
X8.1575Y-2.6299
X8.1575Y-2.7087
X8.1614Y-3.4685
X8.1654Y-3.5512
X8.1811Y-3.0472
X8.1811Y-3.1299
X8.185Y-2.6299
X8.185Y-2.7087
X8.189Y-3.4685
X8.1929Y-3.5512
X8.2087Y-3.0472
X8.2087Y-3.1299
X8.2126Y-2.6299
X8.2126Y-2.7087
X8.2165Y-3.4685
X8.2205Y-3.5512
X8.2362Y-3.0472
X8.2362Y-3.1299
X8.2402Y-2.6299
X8.2402Y-2.7087
X8.2441Y-3.4685
X8.248Y-3.5512
X8.2638Y-3.0472
X8.2638Y-3.1299
X8.2677Y-2.6299
X8.2677Y-2.7087
X8.2717Y-3.4685
X8.2756Y-3.5512
X8.2913Y-3.0472
X8.2913Y-3.1299
X8.2953Y-2.6299
X8.2953Y-2.7087
X8.2992Y-3.4685
X8.3031Y-3.5512
X8.3189Y-3.0472
X8.3189Y-3.1299
X8.3228Y-2.6299
X8.3228Y-2.7087
X8.3268Y-3.4685
X8.3307Y-3.5512
X8.3465Y-3.0472
X8.3465Y-3.1299
X8.3504Y-2.6299
X8.3504Y-2.7087
X8.3543Y-3.4685
X8.3583Y-3.5512
X8.374Y-3.0472
X8.374Y-3.1299
X8.378Y-2.6299
X8.378Y-2.7087
X8.3819Y-3.4685
X8.3858Y-3.5512
X8.4016Y-3.0472
X8.4016Y-3.1299
X8.4025Y-3.8974
X8.4025Y-3.9249
X8.4025Y-3.9525
X8.4025Y-3.9801
X8.4025Y-4.0076
X8.4025Y-4.0354
X8.4055Y-2.6299
X8.4055Y-2.7087
X8.4094Y-3.4685
X8.4134Y-3.5512
X8.4291Y-3.0472
X8.4291Y-3.1299
X8.4331Y-2.6299
X8.4331Y-2.7087
X8.437Y-3.4685
X8.4409Y-3.5512
X8.4567Y-3.0472
X8.4567Y-3.1299
X8.4606Y-2.6299
X8.4606Y-2.7087
X8.4646Y-3.4685
X8.4685Y-3.5512
X8.4843Y-3.0472
X8.4843Y-3.1299
X8.4882Y-2.6299
X8.4882Y-2.7087
X8.4882Y-3.748
X8.4882Y-3.7756
X8.4882Y-3.8031
X8.4882Y-3.8307
X8.4882Y-3.8583
X8.4921Y-3.4685
X8.4961Y-3.5512
X8.5079Y-3.7283
X8.5118Y-3.0472
X8.5118Y-3.1299
X8.5157Y-2.6299
X8.5157Y-2.7087
X8.5197Y-3.4685
X8.5236Y-3.5512
X8.5276Y-3.7087
X8.5394Y-3.0472
X8.5394Y-3.1299
X8.5433Y-2.6299
X8.5433Y-2.7087
X8.5472Y-3.4685
X8.5472Y-3.689
X8.5512Y-3.5512
X8.5669Y-3.0472
X8.5669Y-3.1299
X8.5669Y-3.6693
X8.5669Y-3.7874
X8.5669Y-3.815
X8.5669Y-3.8425
X8.5669Y-3.8701
X8.5709Y-2.6299
X8.5709Y-2.7087
X8.5748Y-3.4685
X8.5787Y-3.5512
X8.5866Y-3.7677
X8.5945Y-3.0472
X8.5945Y-3.1299
X8.5945Y-3.6654
X8.5984Y-2.6299
X8.5984Y-2.7087
X8.6024Y-3.4685
X8.6063Y-3.5512
X8.6063Y-3.748
X8.622Y-3.0472
X8.622Y-3.1299
X8.622Y-3.6654
X8.626Y-2.6299
X8.626Y-2.7087
X8.6299Y-3.4685
X8.6339Y-3.5512
X8.6339Y-3.748
X8.6496Y-3.0472
X8.6496Y-3.1299
X8.6496Y-3.6654
X8.6535Y-2.6299
X8.6535Y-2.7087
X8.6553Y-3.8971
X8.6553Y-3.9247
X8.6553Y-3.9523
X8.6553Y-3.9798
X8.6553Y-4.0074
X8.6553Y-4.0354
X8.6575Y-3.4685
X8.6614Y-3.5512
X8.6614Y-3.748
X8.6772Y-3.0472
X8.6772Y-3.1299
X8.6772Y-3.6654
X8.6811Y-2.6299
X8.6811Y-2.7087
X8.685Y-3.4685
X8.689Y-3.5512
X8.689Y-3.748
X8.7047Y-3.0472
X8.7047Y-3.1299
X8.7047Y-3.6654
X8.7087Y-2.6299
X8.7087Y-2.7087
X8.7126Y-3.4685
X8.7165Y-3.5512
X8.7165Y-3.748
X8.7323Y-3.0472
X8.7323Y-3.1299
X8.7323Y-3.6654
X8.7362Y-2.6299
X8.7362Y-2.7087
X8.7402Y-3.4685
X8.7441Y-3.5512
X8.7441Y-3.748
X8.7598Y-3.0472
X8.7598Y-3.1299
X8.7638Y-2.6299
X8.7638Y-2.7087
X8.7874Y-3.0472
X8.7874Y-3.1299
X8.7913Y-2.6299
X8.7913Y-2.7087
X8.815Y-3.0472
X8.815Y-3.1299
X8.8189Y-2.6299
X8.8189Y-2.7087
X8.8425Y-3.0472
X8.8425Y-3.1299
X8.8465Y-2.6299
X8.8465Y-2.7087
X8.8701Y-3.0472
X8.8701Y-3.1299
X8.874Y-2.6299
X8.874Y-2.7087
X8.8976Y-3.0472
X8.8976Y-3.1299
X8.9016Y-2.6299
X8.9016Y-2.7087
X8.9252Y-3.0472
X8.9252Y-3.1299
X8.9291Y-2.6299
X8.9291Y-2.7087
X8.9331Y-3.4882
X8.9331Y-3.5472
X8.9331Y-3.6063
X8.9331Y-3.6654
X8.9331Y-3.7244
X8.9528Y-3.0472
X8.9528Y-3.1299
X8.9567Y-2.6299
X8.9567Y-2.7087
X8.9803Y-3.0472
X8.9803Y-3.1299
X8.9843Y-2.6299
X8.9843Y-2.7087
X9.0079Y-3.0472
X9.0079Y-3.1299
X9.0118Y-2.6299
X9.0118Y-2.7087
X9.0354Y-3.0472
X9.0354Y-3.1299
X9.0394Y-2.6299
X9.0394Y-2.7087
X9.063Y-3.0472
X9.063Y-3.1299
X9.0669Y-2.6299
X9.0669Y-2.7087
X9.0906Y-3.0472
X9.0906Y-3.1299
X9.0945Y-2.6299
X9.0945Y-2.7087
X9.1181Y-3.0472
X9.1181Y-3.1299
X9.122Y-2.6299
X9.122Y-2.7087
X9.126Y-3.4685
X9.126Y-3.5512
X9.1457Y-3.0472
X9.1457Y-3.1299
X9.1496Y-2.6299
X9.1496Y-2.7087
X9.1535Y-3.4685
X9.1535Y-3.5512
X9.1732Y-3.0472
X9.1732Y-3.1299
X9.1772Y-2.6299
X9.1772Y-2.7087
X9.1811Y-3.4685
X9.1811Y-3.5512
X9.2008Y-3.0472
X9.2008Y-3.1299
X9.2047Y-2.6299
X9.2047Y-2.7087
X9.2087Y-3.4685
X9.2087Y-3.5512
X9.2283Y-3.0472
X9.2283Y-3.1299
X9.2323Y-2.6299
X9.2323Y-2.7087
X9.2362Y-3.4685
X9.2362Y-3.5512
X9.2559Y-3.0472
X9.2559Y-3.1299
X9.2598Y-2.6299
X9.2598Y-2.7087
X9.2638Y-3.4685
X9.2638Y-3.5512
X9.2835Y-3.0472
X9.2835Y-3.1299
X9.2874Y-2.6299
X9.2874Y-2.7087
X9.2913Y-3.4685
X9.2913Y-3.5512
X9.311Y-3.0472
X9.311Y-3.1299
X9.315Y-2.6299
X9.315Y-2.7087
X9.3189Y-3.4685
X9.3189Y-3.5512
X9.3386Y-3.0472
X9.3386Y-3.1299
X9.3425Y-2.6299
X9.3425Y-2.7087
X9.3465Y-3.4685
X9.3465Y-3.5512
X9.3661Y-3.0472
X9.3661Y-3.1299
X9.3701Y-2.6299
X9.3701Y-2.7087
X9.374Y-3.4685
X9.374Y-3.5512
X9.3937Y-3.0472
X9.3937Y-3.1299
X9.3976Y-2.6299
X9.3976Y-2.7087
X9.4016Y-3.4685
X9.4016Y-3.5512
X9.4213Y-3.0472
X9.4213Y-3.1299
X9.4252Y-2.6299
X9.4252Y-2.7087
X9.4291Y-3.4685
X9.4291Y-3.5512
X9.4488Y-3.0472
X9.4488Y-3.1299
X9.4528Y-2.6299
X9.4528Y-2.7087
X9.4567Y-3.4685
X9.4567Y-3.5512
X9.4882Y-3.3819
X9.4882Y-3.6339
X9.4921Y-2.5433
X9.4921Y-2.7953
X9.4921Y-2.9646
X9.4921Y-3.2165
X9.5157Y-3.3819
X9.5157Y-3.6339
X9.5197Y-2.5433
X9.5197Y-2.7953
X9.5197Y-2.9646
X9.5197Y-3.2165
X9.5433Y-3.3819
X9.5433Y-3.6339
X9.5472Y-2.5433
X9.5472Y-2.7953
X9.5472Y-2.9646
X9.5472Y-3.2165
X9.5709Y-3.3819
X9.5709Y-3.6339
X9.5748Y-2.5433
X9.5748Y-2.7953
X9.5748Y-2.9646
X9.5748Y-3.2165
X9.5984Y-3.3819
X9.5984Y-3.6339
X9.6024Y-2.5433
X9.6024Y-2.7953
X9.6024Y-2.9646
X9.6024Y-3.2165
X9.626Y-3.3819
X9.626Y-3.6339
X9.6299Y-2.5433
X9.6299Y-2.7953
X9.6299Y-2.9646
X9.6299Y-3.2165
T2
X7.8583Y-3.8583
X7.8859Y-3.7915
X7.8859Y-3.9251
X7.9528Y-3.7638
X7.9528Y-3.9528
X8.0196Y-3.7915
X8.0196Y-3.9251
X8.0472Y-3.8583
X7.8583Y-2.3622
X7.8859Y-2.2954
X7.8859Y-2.429
X7.9528Y-2.2677
X7.9528Y-2.4567
X8.0196Y-2.2954
X8.0196Y-2.429
X8.0472Y-2.3622
X9.3543Y-3.8583
X9.382Y-3.7915
X9.382Y-3.9251
X9.4488Y-3.7638
X9.4488Y-3.9528
X9.5156Y-3.7915
X9.5156Y-3.9251
X9.5433Y-3.8583
X9.3543Y-2.3622
X9.382Y-2.2954
X9.382Y-2.429
X9.4488Y-2.2677
X9.4488Y-2.4567
X9.5156Y-2.2954
X9.5156Y-2.429
X9.5433Y-2.3622
T3
X7.9528Y-2.3622
X9.4488Y-3.8583
X9.4488Y-2.3622
X7.9528Y-3.8583
T0
M30
