G04 #@! TF.GenerationSoftware,KiCad,Pcbnew,(5.0.2)-1*
G04 #@! TF.CreationDate,2019-01-19T10:46:15+11:00*
G04 #@! TF.ProjectId,ADC-15-4_Dev_Rev_1,4144432d-3135-42d3-945f-4465765f5265,1*
G04 #@! TF.SameCoordinates,Original*
G04 #@! TF.FileFunction,Soldermask,Bot*
G04 #@! TF.FilePolarity,Negative*
%FSLAX46Y46*%
G04 Gerber Fmt 4.6, Leading zero omitted, Abs format (unit mm)*
G04 Created by KiCad (PCBNEW (5.0.2)-1) date 19/01/2019 10:46:15*
%MOMM*%
%LPD*%
G01*
G04 APERTURE LIST*
%ADD10C,0.150000*%
%ADD11C,0.100000*%
G04 APERTURE END LIST*
D10*
G04 #@! TO.C,REF\002A\002A*
G36*
X206050000Y-99250000D02*
X212050000Y-99250000D01*
X212050000Y-101500000D01*
X206050000Y-101500000D01*
X206050000Y-99250000D01*
G37*
X206050000Y-99250000D02*
X212050000Y-99250000D01*
X212050000Y-101500000D01*
X206050000Y-101500000D01*
X206050000Y-99250000D01*
D11*
G36*
X220151000Y-102951000D02*
X218699000Y-102951000D01*
X218699000Y-98649000D01*
X220151000Y-98649000D01*
X220151000Y-102951000D01*
X220151000Y-102951000D01*
G37*
G36*
X214501000Y-102951000D02*
X213049000Y-102951000D01*
X213049000Y-98649000D01*
X214501000Y-98649000D01*
X214501000Y-102951000D01*
X214501000Y-102951000D01*
G37*
G36*
X240634239Y-94811467D02*
X240948282Y-94873934D01*
X241539926Y-95119001D01*
X241829523Y-95312504D01*
X242072395Y-95474786D01*
X242525214Y-95927605D01*
X242525216Y-95927608D01*
X242880999Y-96460074D01*
X243002724Y-96753944D01*
X243126066Y-97051719D01*
X243251000Y-97679803D01*
X243251000Y-98320197D01*
X243188533Y-98634239D01*
X243126066Y-98948282D01*
X242880999Y-99539926D01*
X242633265Y-99910685D01*
X242525214Y-100072395D01*
X242072395Y-100525214D01*
X242072392Y-100525216D01*
X241539926Y-100880999D01*
X240948282Y-101126066D01*
X240634239Y-101188533D01*
X240320197Y-101251000D01*
X239679803Y-101251000D01*
X239365761Y-101188533D01*
X239051718Y-101126066D01*
X238460074Y-100880999D01*
X237927608Y-100525216D01*
X237927605Y-100525214D01*
X237474786Y-100072395D01*
X237366735Y-99910685D01*
X237119001Y-99539926D01*
X236873934Y-98948282D01*
X236811467Y-98634239D01*
X236749000Y-98320197D01*
X236749000Y-97679803D01*
X236873934Y-97051719D01*
X236997276Y-96753944D01*
X237119001Y-96460074D01*
X237474784Y-95927608D01*
X237474786Y-95927605D01*
X237927605Y-95474786D01*
X238170477Y-95312504D01*
X238460074Y-95119001D01*
X239051718Y-94873934D01*
X239365761Y-94811467D01*
X239679803Y-94749000D01*
X240320197Y-94749000D01*
X240634239Y-94811467D01*
X240634239Y-94811467D01*
G37*
G36*
X202634239Y-94811467D02*
X202948282Y-94873934D01*
X203539926Y-95119001D01*
X203829523Y-95312504D01*
X204072395Y-95474786D01*
X204525214Y-95927605D01*
X204525216Y-95927608D01*
X204880999Y-96460074D01*
X205002724Y-96753944D01*
X205126066Y-97051719D01*
X205251000Y-97679803D01*
X205251000Y-98320197D01*
X205188533Y-98634239D01*
X205126066Y-98948282D01*
X204880999Y-99539926D01*
X204633265Y-99910685D01*
X204525214Y-100072395D01*
X204072395Y-100525214D01*
X204072392Y-100525216D01*
X203539926Y-100880999D01*
X202948282Y-101126066D01*
X202634239Y-101188533D01*
X202320197Y-101251000D01*
X201679803Y-101251000D01*
X201365761Y-101188533D01*
X201051718Y-101126066D01*
X200460074Y-100880999D01*
X199927608Y-100525216D01*
X199927605Y-100525214D01*
X199474786Y-100072395D01*
X199366735Y-99910685D01*
X199119001Y-99539926D01*
X198873934Y-98948282D01*
X198811467Y-98634239D01*
X198749000Y-98320197D01*
X198749000Y-97679803D01*
X198873934Y-97051719D01*
X198997276Y-96753944D01*
X199119001Y-96460074D01*
X199474784Y-95927608D01*
X199474786Y-95927605D01*
X199927605Y-95474786D01*
X200170477Y-95312504D01*
X200460074Y-95119001D01*
X201051718Y-94873934D01*
X201365761Y-94811467D01*
X201679803Y-94749000D01*
X202320197Y-94749000D01*
X202634239Y-94811467D01*
X202634239Y-94811467D01*
G37*
G36*
X244951000Y-92651000D02*
X240649000Y-92651000D01*
X240649000Y-91199000D01*
X244951000Y-91199000D01*
X244951000Y-92651000D01*
X244951000Y-92651000D01*
G37*
G36*
X201351000Y-92651000D02*
X197049000Y-92651000D01*
X197049000Y-91199000D01*
X201351000Y-91199000D01*
X201351000Y-92651000D01*
X201351000Y-92651000D01*
G37*
G36*
X201351000Y-87001000D02*
X197049000Y-87001000D01*
X197049000Y-85549000D01*
X201351000Y-85549000D01*
X201351000Y-87001000D01*
X201351000Y-87001000D01*
G37*
G36*
X244951000Y-87001000D02*
X240649000Y-87001000D01*
X240649000Y-85549000D01*
X244951000Y-85549000D01*
X244951000Y-87001000D01*
X244951000Y-87001000D01*
G37*
G36*
X244951000Y-82051000D02*
X240649000Y-82051000D01*
X240649000Y-80599000D01*
X244951000Y-80599000D01*
X244951000Y-82051000D01*
X244951000Y-82051000D01*
G37*
G36*
X201351000Y-82051000D02*
X197049000Y-82051000D01*
X197049000Y-80599000D01*
X201351000Y-80599000D01*
X201351000Y-82051000D01*
X201351000Y-82051000D01*
G37*
G36*
X244951000Y-76401000D02*
X240649000Y-76401000D01*
X240649000Y-74949000D01*
X244951000Y-74949000D01*
X244951000Y-76401000D01*
X244951000Y-76401000D01*
G37*
G36*
X201351000Y-76401000D02*
X197049000Y-76401000D01*
X197049000Y-74949000D01*
X201351000Y-74949000D01*
X201351000Y-76401000D01*
X201351000Y-76401000D01*
G37*
G36*
X244951000Y-71351000D02*
X240649000Y-71351000D01*
X240649000Y-69899000D01*
X244951000Y-69899000D01*
X244951000Y-71351000D01*
X244951000Y-71351000D01*
G37*
G36*
X201351000Y-71351000D02*
X197049000Y-71351000D01*
X197049000Y-69899000D01*
X201351000Y-69899000D01*
X201351000Y-71351000D01*
X201351000Y-71351000D01*
G37*
G36*
X244951000Y-65701000D02*
X240649000Y-65701000D01*
X240649000Y-64249000D01*
X244951000Y-64249000D01*
X244951000Y-65701000D01*
X244951000Y-65701000D01*
G37*
G36*
X201351000Y-65701000D02*
X197049000Y-65701000D01*
X197049000Y-64249000D01*
X201351000Y-64249000D01*
X201351000Y-65701000D01*
X201351000Y-65701000D01*
G37*
G36*
X240634239Y-56811467D02*
X240948282Y-56873934D01*
X241539926Y-57119001D01*
X241829523Y-57312504D01*
X242072395Y-57474786D01*
X242525214Y-57927605D01*
X242525216Y-57927608D01*
X242880999Y-58460074D01*
X243002724Y-58753944D01*
X243126066Y-59051719D01*
X243251000Y-59679803D01*
X243251000Y-60320197D01*
X243188533Y-60634239D01*
X243126066Y-60948282D01*
X242880999Y-61539926D01*
X242633265Y-61910685D01*
X242525214Y-62072395D01*
X242072395Y-62525214D01*
X242072392Y-62525216D01*
X241539926Y-62880999D01*
X240948282Y-63126066D01*
X240634239Y-63188533D01*
X240320197Y-63251000D01*
X239679803Y-63251000D01*
X239365761Y-63188533D01*
X239051718Y-63126066D01*
X238460074Y-62880999D01*
X237927608Y-62525216D01*
X237927605Y-62525214D01*
X237474786Y-62072395D01*
X237366735Y-61910685D01*
X237119001Y-61539926D01*
X236873934Y-60948282D01*
X236811467Y-60634239D01*
X236749000Y-60320197D01*
X236749000Y-59679803D01*
X236873934Y-59051719D01*
X236997276Y-58753944D01*
X237119001Y-58460074D01*
X237474784Y-57927608D01*
X237474786Y-57927605D01*
X237927605Y-57474786D01*
X238170477Y-57312504D01*
X238460074Y-57119001D01*
X239051718Y-56873934D01*
X239365761Y-56811467D01*
X239679803Y-56749000D01*
X240320197Y-56749000D01*
X240634239Y-56811467D01*
X240634239Y-56811467D01*
G37*
G36*
X202634239Y-56811467D02*
X202948282Y-56873934D01*
X203539926Y-57119001D01*
X203829523Y-57312504D01*
X204072395Y-57474786D01*
X204525214Y-57927605D01*
X204525216Y-57927608D01*
X204880999Y-58460074D01*
X205002724Y-58753944D01*
X205126066Y-59051719D01*
X205251000Y-59679803D01*
X205251000Y-60320197D01*
X205188533Y-60634239D01*
X205126066Y-60948282D01*
X204880999Y-61539926D01*
X204633265Y-61910685D01*
X204525214Y-62072395D01*
X204072395Y-62525214D01*
X204072392Y-62525216D01*
X203539926Y-62880999D01*
X202948282Y-63126066D01*
X202634239Y-63188533D01*
X202320197Y-63251000D01*
X201679803Y-63251000D01*
X201365761Y-63188533D01*
X201051718Y-63126066D01*
X200460074Y-62880999D01*
X199927608Y-62525216D01*
X199927605Y-62525214D01*
X199474786Y-62072395D01*
X199366735Y-61910685D01*
X199119001Y-61539926D01*
X198873934Y-60948282D01*
X198811467Y-60634239D01*
X198749000Y-60320197D01*
X198749000Y-59679803D01*
X198873934Y-59051719D01*
X198997276Y-58753944D01*
X199119001Y-58460074D01*
X199474784Y-57927608D01*
X199474786Y-57927605D01*
X199927605Y-57474786D01*
X200170477Y-57312504D01*
X200460074Y-57119001D01*
X201051718Y-56873934D01*
X201365761Y-56811467D01*
X201679803Y-56749000D01*
X202320197Y-56749000D01*
X202634239Y-56811467D01*
X202634239Y-56811467D01*
G37*
M02*
