<?xml version="1.0" encoding="UTF-8" standalone="no"?>
<!-- Created with Inkscape (http://www.inkscape.org/) -->

<svg
   xmlns:dc="http://purl.org/dc/elements/1.1/"
   xmlns:cc="http://creativecommons.org/ns#"
   xmlns:rdf="http://www.w3.org/1999/02/22-rdf-syntax-ns#"
   xmlns:svg="http://www.w3.org/2000/svg"
   xmlns="http://www.w3.org/2000/svg"
   xmlns:sodipodi="http://sodipodi.sourceforge.net/DTD/sodipodi-0.dtd"
   xmlns:inkscape="http://www.inkscape.org/namespaces/inkscape"
   width="30"
   height="30"
   id="svg2"
   sodipodi:version="0.32"
   inkscape:version="0.47pre4 r22446"
   version="1.0"
   sodipodi:docname="dc_feed.svg"
   inkscape:output_extension="org.inkscape.output.svg.inkscape"
   sodipodi:modified="true">
  <defs
     id="defs4" />
  <sodipodi:namedview
     id="base"
     pagecolor="#ffffff"
     bordercolor="#666666"
     borderopacity="1.0"
     gridtolerance="10000"
     guidetolerance="10"
     objecttolerance="10"
     inkscape:pageopacity="0.0"
     inkscape:pageshadow="2"
     inkscape:zoom="11.2"
     inkscape:cx="27.287005"
     inkscape:cy="9.0235168"
     inkscape:document-units="px"
     inkscape:current-layer="layer1"
     width="33px"
     height="33px"
     units="mm"
     showgrid="true"
     inkscape:grid-points="true"
     inkscape:grid-bbox="false"
     inkscape:window-width="1280"
     inkscape:window-height="975"
     inkscape:window-x="112"
     inkscape:window-y="25"
     inkscape:window-maximized="0">
    <inkscape:grid
       type="xygrid"
       id="grid2384"
       visible="true"
       enabled="true"
       empspacing="5"
       snapvisiblegridlinesonly="true" />
  </sodipodi:namedview>
  <metadata
     id="metadata7">
    <rdf:RDF>
      <cc:Work
         rdf:about="">
        <dc:format>image/svg+xml</dc:format>
        <dc:type
           rdf:resource="http://purl.org/dc/dcmitype/StillImage" />
      </cc:Work>
    </rdf:RDF>
  </metadata>
  <g
     inkscape:label="Layer 1"
     inkscape:groupmode="layer"
     id="layer1"
     transform="translate(-160,-58.18108)">
    <rect
       rx="12.5"
       style="fill:#0000ff;fill-rule:evenodd;stroke:#000000;stroke-width:1px;stroke-linecap:butt;stroke-linejoin:miter;stroke-opacity:1"
       ry="1"
       y="134.68109"
       x="566.5"
       height="1"
       width="0"
       id="rect2190" />
    <path
       sodipodi:nodetypes="ccccc"
       id="rect2252"
       d="m 160,58.18109 30,0 0,29.99999 -30,0 0,-29.99999 z"
       style="fill:none;stroke:#000000;stroke-width:1;stroke-linecap:butt;stroke-miterlimit:4;stroke-opacity:1;stroke-dashoffset:0" />
    <path
       d="m 160,73.181079 c 0,0 5,0 5,0 0,0 0,-3 2.5,-3 2.5,0 2.5,3 2.5,3 0,0 0,-3 2.5,-3 2.5,0 2.5,3 2.5,3 0,0 0,-3 2.5,-3 2.5,0 2.5,3 2.5,3 0,0 0,-3 2.5,-3 2.5,0 2.49999,3 2.5,3 0,0 5,0 5,0"
       sodipodi:nodetypes="ccccccccccc"
       id="path3387"
       style="fill:none;stroke:#000000;stroke-width:1.00000012px;stroke-linecap:butt;stroke-linejoin:miter;stroke-opacity:1" />
    <rect
       id="rect26128"
       width="0"
       height="0.58287871"
       x="473.80002"
       y="89.793137"
       ry="0.58287871"
       style="fill:#0000ff;fill-rule:evenodd;stroke:#000000;stroke-width:1.00000012px;stroke-linecap:butt;stroke-linejoin:miter;stroke-opacity:1"
       rx="7.2859836" />
  </g>
</svg>
