<?xml version="1.0" encoding="UTF-8" standalone="no"?>
<!-- Created with Inkscape (http://www.inkscape.org/) -->

<svg
   xmlns:dc="http://purl.org/dc/elements/1.1/"
   xmlns:cc="http://creativecommons.org/ns#"
   xmlns:rdf="http://www.w3.org/1999/02/22-rdf-syntax-ns#"
   xmlns:svg="http://www.w3.org/2000/svg"
   xmlns="http://www.w3.org/2000/svg"
   xmlns:sodipodi="http://sodipodi.sourceforge.net/DTD/sodipodi-0.dtd"
   xmlns:inkscape="http://www.inkscape.org/namespaces/inkscape"
   width="20"
   height="20"
   id="svg2"
   sodipodi:version="0.32"
   inkscape:version="0.47pre4 r22446"
   version="1.0"
   sodipodi:docname="filter-lp-boxed-20px.svg"
   inkscape:output_extension="org.inkscape.output.svg.inkscape"
   sodipodi:modified="true">
  <defs
     id="defs4" />
  <sodipodi:namedview
     id="base"
     pagecolor="#ffffff"
     bordercolor="#666666"
     borderopacity="1.0"
     gridtolerance="10000"
     guidetolerance="10"
     objecttolerance="10"
     inkscape:pageopacity="0.0"
     inkscape:pageshadow="2"
     inkscape:zoom="16.000001"
     inkscape:cx="13.270718"
     inkscape:cy="9.3340454"
     inkscape:document-units="px"
     inkscape:current-layer="layer1"
     width="23px"
     height="23px"
     units="mm"
     showgrid="true"
     inkscape:grid-points="true"
     inkscape:grid-bbox="false"
     inkscape:window-width="1400"
     inkscape:window-height="975"
     inkscape:window-x="0"
     inkscape:window-y="25"
     inkscape:window-maximized="0">
    <inkscape:grid
       type="xygrid"
       id="grid2388"
       visible="true"
       enabled="true"
       empspacing="5"
       snapvisiblegridlinesonly="true" />
  </sodipodi:namedview>
  <metadata
     id="metadata7">
    <rdf:RDF>
      <cc:Work
         rdf:about="">
        <dc:format>image/svg+xml</dc:format>
        <dc:type
           rdf:resource="http://purl.org/dc/dcmitype/StillImage" />
      </cc:Work>
    </rdf:RDF>
  </metadata>
  <g
     inkscape:label="Layer 1"
     inkscape:groupmode="layer"
     id="layer1"
     transform="translate(-159,-40.217205)">
    <rect
       rx="12.5"
       style="fill:#0000ff;fill-rule:evenodd;stroke:#000000;stroke-width:1px;stroke-linecap:butt;stroke-linejoin:miter;stroke-opacity:1"
       ry="1"
       y="134.68109"
       x="566.5"
       height="1"
       width="0"
       id="rect2190" />
    <path
       style="fill:none;stroke:#000000;stroke-width:1.00000024;stroke-linecap:butt;stroke-miterlimit:4;stroke-opacity:1;stroke-dashoffset:0"
       d="m 159,40.217205 20,0 0,20 -20,0 0,-20 z"
       id="rect2252"
       sodipodi:nodetypes="ccccc" />
    <path
       style="fill:none;stroke:#000000;stroke-width:1.00000024;stroke-linecap:butt;stroke-miterlimit:4;stroke-opacity:1;stroke-dasharray:none;stroke-dashoffset:0"
       d="m 162,45.217205 c 1,-1 2,-2 3.5,-2 1.5,0 2.5,1 3.5,2 1,1 2,2 3.5,2 1.5,0 2.5,-1 3.5,-2"
       id="path2254"
       sodipodi:nodetypes="ccscc" />
    <path
       style="fill:none;stroke:#000000;stroke-width:1.00000024;stroke-linecap:butt;stroke-miterlimit:4;stroke-opacity:1;stroke-dasharray:none;stroke-dashoffset:0"
       d="m 167,46.217205 4,-2"
       id="path2264"
       sodipodi:nodetypes="cc" />
    <path
       style="fill:none;stroke:#000000;stroke-width:1.00000024;stroke-linecap:butt;stroke-miterlimit:4;stroke-opacity:1;stroke-dasharray:none;stroke-dashoffset:0"
       d="m 162,50.217205 c 1,-1 2,-2 3.5,-2 1.5,0 2.5,1 3.5,2 1,1 2,2 3.5,2 1.5,0 2.5,-1 3.5,-2"
       id="path2397"
       sodipodi:nodetypes="ccscc" />
    <path
       style="fill:none;stroke:#000000;stroke-width:1.00000024;stroke-linecap:butt;stroke-miterlimit:4;stroke-opacity:1;stroke-dasharray:none;stroke-dashoffset:0"
       d="m 162,55.217205 c 1,-1 2,-2 3.5,-2 1.5,0 2.5,1 3.5,2 1,1 2,2 3.5,2 1.5,0 2.5,-1 3.5,-2"
       id="path2399"
       sodipodi:nodetypes="ccscc" />
    <path
       style="fill:none;stroke:#000000;stroke-width:1.00000024;stroke-linecap:butt;stroke-miterlimit:4;stroke-opacity:1;stroke-dasharray:none;stroke-dashoffset:0"
       d="m 167,51.217205 4,-2"
       id="path2393"
       sodipodi:nodetypes="cc" />
  </g>
</svg>
