<?xml version="1.0" encoding="UTF-8" standalone="no"?>
<!-- Created with Inkscape (http://www.inkscape.org/) -->

<svg
   xmlns:dc="http://purl.org/dc/elements/1.1/"
   xmlns:cc="http://creativecommons.org/ns#"
   xmlns:rdf="http://www.w3.org/1999/02/22-rdf-syntax-ns#"
   xmlns:svg="http://www.w3.org/2000/svg"
   xmlns="http://www.w3.org/2000/svg"
   xmlns:sodipodi="http://sodipodi.sourceforge.net/DTD/sodipodi-0.dtd"
   xmlns:inkscape="http://www.inkscape.org/namespaces/inkscape"
   width="20"
   height="20"
   id="svg2"
   sodipodi:version="0.32"
   inkscape:version="0.47pre4 r22446"
   version="1.0"
   sodipodi:docname="wilkinson_combiner_splitter-30px.svg"
   inkscape:output_extension="org.inkscape.output.svg.inkscape"
   sodipodi:modified="true">
  <defs
     id="defs4" />
  <sodipodi:namedview
     id="base"
     pagecolor="#ffffff"
     bordercolor="#666666"
     borderopacity="1.0"
     gridtolerance="10000"
     guidetolerance="10"
     objecttolerance="10"
     inkscape:pageopacity="0.0"
     inkscape:pageshadow="2"
     inkscape:zoom="13.303571"
     inkscape:cx="17.54163"
     inkscape:cy="1.0968597"
     inkscape:document-units="px"
     inkscape:current-layer="layer1"
     width="33px"
     height="33px"
     units="mm"
     showgrid="true"
     inkscape:grid-points="true"
     inkscape:grid-bbox="false"
     inkscape:window-width="1280"
     inkscape:window-height="975"
     inkscape:window-x="0"
     inkscape:window-y="25"
     inkscape:window-maximized="0">
    <inkscape:grid
       type="xygrid"
       id="grid2384"
       visible="true"
       enabled="true"
       empspacing="5"
       snapvisiblegridlinesonly="true" />
  </sodipodi:namedview>
  <metadata
     id="metadata7">
    <rdf:RDF>
      <cc:Work
         rdf:about="">
        <dc:format>image/svg+xml</dc:format>
        <dc:type
           rdf:resource="http://purl.org/dc/dcmitype/StillImage" />
        <dc:title></dc:title>
      </cc:Work>
    </rdf:RDF>
  </metadata>
  <g
     inkscape:label="Layer 1"
     inkscape:groupmode="layer"
     id="layer1"
     transform="translate(-159.5,-37.681091)">
    <rect
       rx="12.5"
       style="fill:#0000ff;fill-rule:evenodd;stroke:#000000;stroke-width:1px;stroke-linecap:butt;stroke-linejoin:miter;stroke-opacity:1"
       ry="1"
       y="134.68109"
       x="566.5"
       height="1"
       width="0"
       id="rect2190" />
    <path
       sodipodi:nodetypes="ccccc"
       id="rect2252"
       d="m 179.5,37.681091 -20,0 0,19.999999 20,0 0,-19.999999 z"
       style="fill:none;stroke:#000000;stroke-width:1;stroke-linecap:butt;stroke-miterlimit:4;stroke-opacity:1;stroke-dashoffset:0" />
    <path
       d="m 173.5,41.681091 c 0,0 0,1.2 0,1.2 0,0 -1.66667,0.8 -1.66667,0.8 0,0 3.33334,1.333333 3.33334,1.333333 0,0 -3.33334,1.333333 -3.33334,1.333333 0,0 3.33334,1.333333 3.33334,1.333333 0,0 -3.33334,1.333333 -3.33334,1.333333 0,0 3.33334,1.333334 3.33334,1.333334 0,0 -3.33334,1.333333 -3.33334,1.333333 0,0 1.66667,0.8 1.66667,0.8 0,0 0,1.2 0,1.2"
       sodipodi:nodetypes="ccccccccccc"
       id="path3381"
       style="fill:none;stroke:#000000;stroke-width:1px;stroke-linecap:butt;stroke-linejoin:miter;stroke-opacity:1" />
    <rect
       transform="matrix(0,1,1,0,0,0)"
       id="rect26128"
       width="0"
       height="1"
       x="268.45886"
       y="233.5"
       ry="2.25"
       style="fill:#0000ff;fill-rule:evenodd;stroke:#000000;stroke-width:1px;stroke-linecap:butt;stroke-linejoin:miter;stroke-opacity:1"
       rx="5.5555553" />
    <path
       style="fill:none;stroke:#000000;stroke-width:1;stroke-linecap:butt;stroke-linejoin:miter;stroke-miterlimit:10;stroke-opacity:1;stroke-dasharray:none;stroke-dashoffset:0"
       d="m 159.5,46.681091 4,0 6,-7 10,0 0,2 -9,0 -5,6 5,6 9,0 0,2 -10,0 -6,-7 -4,0 0,-2 z"
       id="path2820"
       sodipodi:nodetypes="cccccccccccccc" />
  </g>
</svg>
