G04 #@! TF.GenerationSoftware,KiCad,Pcbnew,(5.0.2)-1*
G04 #@! TF.CreationDate,2019-01-19T11:17:49+11:00*
G04 #@! TF.ProjectId,Filter_Bank_Dev_Rev_0,46696c74-6572-45f4-9261-6e6b5f446576,0*
G04 #@! TF.SameCoordinates,Original*
G04 #@! TF.FileFunction,Copper,L1,Top*
G04 #@! TF.FilePolarity,Positive*
%FSLAX46Y46*%
G04 Gerber Fmt 4.6, Leading zero omitted, Abs format (unit mm)*
G04 Created by KiCad (PCBNEW (5.0.2)-1) date 19/01/2019 11:17:49*
%MOMM*%
%LPD*%
G01*
G04 APERTURE LIST*
%ADD10C,0.200000*%
G04 #@! TA.AperFunction,ViaPad*
%ADD11C,0.600000*%
G04 #@! TD*
G04 #@! TA.AperFunction,SMDPad,CuDef*
%ADD12R,1.800000X1.800000*%
G04 #@! TD*
G04 #@! TA.AperFunction,SMDPad,CuDef*
%ADD13O,0.300000X0.750000*%
G04 #@! TD*
G04 #@! TA.AperFunction,SMDPad,CuDef*
%ADD14O,0.750000X0.300000*%
G04 #@! TD*
G04 #@! TA.AperFunction,SMDPad,CuDef*
%ADD15R,1.100000X1.500000*%
G04 #@! TD*
G04 #@! TA.AperFunction,SMDPad,CuDef*
%ADD16R,1.040000X1.800000*%
G04 #@! TD*
G04 #@! TA.AperFunction,SMDPad,CuDef*
%ADD17R,0.610000X1.245000*%
G04 #@! TD*
G04 #@! TA.AperFunction,ComponentPad*
%ADD18C,0.600000*%
G04 #@! TD*
G04 #@! TA.AperFunction,Conductor*
%ADD19C,0.100000*%
G04 #@! TD*
G04 #@! TA.AperFunction,SMDPad,CuDef*
%ADD20C,0.975000*%
G04 #@! TD*
G04 #@! TA.AperFunction,SMDPad,CuDef*
%ADD21C,0.590000*%
G04 #@! TD*
G04 #@! TA.AperFunction,SMDPad,CuDef*
%ADD22C,1.350000*%
G04 #@! TD*
G04 #@! TA.AperFunction,ComponentPad*
%ADD23C,6.400000*%
G04 #@! TD*
G04 #@! TA.AperFunction,ComponentPad*
%ADD24C,0.800000*%
G04 #@! TD*
G04 #@! TA.AperFunction,SMDPad,CuDef*
%ADD25R,1.900000X1.900000*%
G04 #@! TD*
G04 #@! TA.AperFunction,SMDPad,CuDef*
%ADD26R,1.350000X1.000000*%
G04 #@! TD*
G04 #@! TA.AperFunction,SMDPad,CuDef*
%ADD27R,0.400000X1.350000*%
G04 #@! TD*
G04 #@! TA.AperFunction,SMDPad,CuDef*
%ADD28R,4.200000X1.350000*%
G04 #@! TD*
G04 #@! TA.AperFunction,SMDPad,CuDef*
%ADD29R,3.600000X1.270000*%
G04 #@! TD*
G04 #@! TA.AperFunction,SMDPad,CuDef*
%ADD30R,0.650000X0.400000*%
G04 #@! TD*
G04 #@! TA.AperFunction,SMDPad,CuDef*
%ADD31R,2.000000X3.800000*%
G04 #@! TD*
G04 #@! TA.AperFunction,SMDPad,CuDef*
%ADD32R,2.000000X1.500000*%
G04 #@! TD*
G04 #@! TA.AperFunction,ViaPad*
%ADD33C,0.450000*%
G04 #@! TD*
G04 #@! TA.AperFunction,ViaPad*
%ADD34C,0.800000*%
G04 #@! TD*
G04 #@! TA.AperFunction,Conductor*
%ADD35C,0.250000*%
G04 #@! TD*
G04 #@! TA.AperFunction,Conductor*
%ADD36C,0.310000*%
G04 #@! TD*
G04 #@! TA.AperFunction,Conductor*
%ADD37C,0.800000*%
G04 #@! TD*
G04 #@! TA.AperFunction,Conductor*
%ADD38C,0.400000*%
G04 #@! TD*
G04 #@! TA.AperFunction,Conductor*
%ADD39C,0.500000*%
G04 #@! TD*
G04 #@! TA.AperFunction,Conductor*
%ADD40C,0.200000*%
G04 #@! TD*
G04 #@! TA.AperFunction,Conductor*
%ADD41C,1.000000*%
G04 #@! TD*
G04 #@! TA.AperFunction,Conductor*
%ADD42C,0.600000*%
G04 #@! TD*
G04 #@! TA.AperFunction,Conductor*
%ADD43C,0.300000*%
G04 #@! TD*
G04 #@! TA.AperFunction,Conductor*
%ADD44C,0.254000*%
G04 #@! TD*
G04 APERTURE END LIST*
G04 #@! TO.C,REF\002A\002A*
D10*
X129628571Y-87628571D02*
X128771428Y-87628571D01*
X129200000Y-87628571D02*
X129200000Y-86128571D01*
X129057142Y-86342857D01*
X128914285Y-86485714D01*
X128771428Y-86557142D01*
G04 #@! TD*
D11*
G04 #@! TO.N,GND*
G04 #@! TO.C,U1*
X112650000Y-64250000D03*
X111650000Y-64250000D03*
X111650000Y-65250000D03*
X112650000Y-65250000D03*
X112150000Y-64750000D03*
D12*
G04 #@! TD*
G04 #@! TO.P,U1,17*
G04 #@! TO.N,GND*
X112150000Y-64750000D03*
D13*
G04 #@! TO.P,U1,16*
G04 #@! TO.N,Net-(U1-Pad16)*
X112900000Y-66225000D03*
G04 #@! TO.P,U1,15*
G04 #@! TO.N,/SW_1_RF_2*
X112400000Y-66225000D03*
G04 #@! TO.P,U1,14*
G04 #@! TO.N,GND*
X111900000Y-66225000D03*
G04 #@! TO.P,U1,13*
G04 #@! TO.N,/SW_1_RF_1*
X111400000Y-66225000D03*
D14*
G04 #@! TO.P,U1,12*
G04 #@! TO.N,GND*
X110675000Y-65500000D03*
G04 #@! TO.P,U1,11*
G04 #@! TO.N,Net-(C1-Pad1)*
X110675000Y-65000000D03*
G04 #@! TO.P,U1,10*
G04 #@! TO.N,GND*
X110675000Y-64500000D03*
G04 #@! TO.P,U1,9*
X110675000Y-64000000D03*
D13*
G04 #@! TO.P,U1,8*
G04 #@! TO.N,/SW_1_RF_3*
X111400000Y-63275000D03*
G04 #@! TO.P,U1,7*
G04 #@! TO.N,GND*
X111900000Y-63275000D03*
G04 #@! TO.P,U1,6*
G04 #@! TO.N,/SW_1_RF_4*
X112400000Y-63275000D03*
G04 #@! TO.P,U1,5*
G04 #@! TO.N,GND*
X112900000Y-63275000D03*
D14*
G04 #@! TO.P,U1,4*
G04 #@! TO.N,/SW_1_CTRL_1*
X113625000Y-64000000D03*
G04 #@! TO.P,U1,3*
G04 #@! TO.N,/SW_1_CTRL_2*
X113625000Y-64500000D03*
G04 #@! TO.P,U1,2*
G04 #@! TO.N,+3V3*
X113625000Y-65000000D03*
G04 #@! TO.P,U1,1*
G04 #@! TO.N,GND*
X113625000Y-65500000D03*
G04 #@! TD*
D11*
G04 #@! TO.N,GND*
G04 #@! TO.C,U4*
X127750000Y-65750000D03*
X128750000Y-65750000D03*
X128750000Y-64750000D03*
X127750000Y-64750000D03*
X128250000Y-65250000D03*
D12*
G04 #@! TD*
G04 #@! TO.P,U4,17*
G04 #@! TO.N,GND*
X128250000Y-65250000D03*
D13*
G04 #@! TO.P,U4,16*
G04 #@! TO.N,Net-(U4-Pad16)*
X127500000Y-63775000D03*
G04 #@! TO.P,U4,15*
G04 #@! TO.N,/SW_2_RF_2*
X128000000Y-63775000D03*
G04 #@! TO.P,U4,14*
G04 #@! TO.N,GND*
X128500000Y-63775000D03*
G04 #@! TO.P,U4,13*
G04 #@! TO.N,/SW_2_RF_1*
X129000000Y-63775000D03*
D14*
G04 #@! TO.P,U4,12*
G04 #@! TO.N,GND*
X129725000Y-64500000D03*
G04 #@! TO.P,U4,11*
G04 #@! TO.N,Net-(C6-Pad2)*
X129725000Y-65000000D03*
G04 #@! TO.P,U4,10*
G04 #@! TO.N,GND*
X129725000Y-65500000D03*
G04 #@! TO.P,U4,9*
X129725000Y-66000000D03*
D13*
G04 #@! TO.P,U4,8*
G04 #@! TO.N,/SW_2_RF_3*
X129000000Y-66725000D03*
G04 #@! TO.P,U4,7*
G04 #@! TO.N,GND*
X128500000Y-66725000D03*
G04 #@! TO.P,U4,6*
G04 #@! TO.N,/SW_2_RF_4*
X128000000Y-66725000D03*
G04 #@! TO.P,U4,5*
G04 #@! TO.N,GND*
X127500000Y-66725000D03*
D14*
G04 #@! TO.P,U4,4*
G04 #@! TO.N,/SW_2_CTRL_1*
X126775000Y-66000000D03*
G04 #@! TO.P,U4,3*
G04 #@! TO.N,/SW_1_CTRL_2*
X126775000Y-65500000D03*
G04 #@! TO.P,U4,2*
G04 #@! TO.N,+3V3*
X126775000Y-65000000D03*
G04 #@! TO.P,U4,1*
G04 #@! TO.N,GND*
X126775000Y-64500000D03*
G04 #@! TD*
D15*
G04 #@! TO.P,SW1,4*
G04 #@! TO.N,/SW_1_CTRL_1*
X109530000Y-77650000D03*
G04 #@! TO.P,SW1,3*
G04 #@! TO.N,/SW_1_CTRL_2*
X112070000Y-77650000D03*
G04 #@! TO.P,SW1,2*
G04 #@! TO.N,+3V3*
X112070000Y-86550000D03*
G04 #@! TO.P,SW1,1*
X109530000Y-86550000D03*
G04 #@! TD*
D16*
G04 #@! TO.P,FL1,3*
G04 #@! TO.N,/SW_2_RF_3*
X121825000Y-72172500D03*
G04 #@! TO.P,FL1,1*
G04 #@! TO.N,/SW_1_RF_1*
X118575000Y-72172500D03*
D17*
G04 #@! TO.P,FL1,2*
G04 #@! TO.N,GND*
X120200000Y-71250000D03*
G04 #@! TO.P,FL1,4*
X120200000Y-73095000D03*
D18*
X120200000Y-73372500D03*
G04 #@! TO.P,FL1,2*
X120200000Y-70972500D03*
G04 #@! TD*
D16*
G04 #@! TO.P,FL2,3*
G04 #@! TO.N,/SW_2_RF_4*
X121825000Y-68250000D03*
G04 #@! TO.P,FL2,1*
G04 #@! TO.N,/SW_1_RF_2*
X118575000Y-68250000D03*
D17*
G04 #@! TO.P,FL2,2*
G04 #@! TO.N,GND*
X120200000Y-67327500D03*
G04 #@! TO.P,FL2,4*
X120200000Y-69172500D03*
D18*
X120200000Y-69450000D03*
G04 #@! TO.P,FL2,2*
X120200000Y-67050000D03*
G04 #@! TD*
D16*
G04 #@! TO.P,FL3,3*
G04 #@! TO.N,/SW_2_RF_2*
X121875000Y-62250000D03*
G04 #@! TO.P,FL3,1*
G04 #@! TO.N,/SW_1_RF_4*
X118625000Y-62250000D03*
D17*
G04 #@! TO.P,FL3,2*
G04 #@! TO.N,GND*
X120250000Y-61327500D03*
G04 #@! TO.P,FL3,4*
X120250000Y-63172500D03*
D18*
X120250000Y-63450000D03*
G04 #@! TO.P,FL3,2*
X120250000Y-61050000D03*
G04 #@! TD*
D16*
G04 #@! TO.P,FL4,3*
G04 #@! TO.N,/SW_2_RF_1*
X121825000Y-58250000D03*
G04 #@! TO.P,FL4,1*
G04 #@! TO.N,/SW_1_RF_3*
X118575000Y-58250000D03*
D17*
G04 #@! TO.P,FL4,2*
G04 #@! TO.N,GND*
X120200000Y-57327500D03*
G04 #@! TO.P,FL4,4*
X120200000Y-59172500D03*
D18*
X120200000Y-59450000D03*
G04 #@! TO.P,FL4,2*
X120200000Y-57050000D03*
G04 #@! TD*
D19*
G04 #@! TO.N,+5V*
G04 #@! TO.C,C2*
G36*
X139230142Y-51751174D02*
X139253803Y-51754684D01*
X139277007Y-51760496D01*
X139299529Y-51768554D01*
X139321153Y-51778782D01*
X139341670Y-51791079D01*
X139360883Y-51805329D01*
X139378607Y-51821393D01*
X139394671Y-51839117D01*
X139408921Y-51858330D01*
X139421218Y-51878847D01*
X139431446Y-51900471D01*
X139439504Y-51922993D01*
X139445316Y-51946197D01*
X139448826Y-51969858D01*
X139450000Y-51993750D01*
X139450000Y-52906250D01*
X139448826Y-52930142D01*
X139445316Y-52953803D01*
X139439504Y-52977007D01*
X139431446Y-52999529D01*
X139421218Y-53021153D01*
X139408921Y-53041670D01*
X139394671Y-53060883D01*
X139378607Y-53078607D01*
X139360883Y-53094671D01*
X139341670Y-53108921D01*
X139321153Y-53121218D01*
X139299529Y-53131446D01*
X139277007Y-53139504D01*
X139253803Y-53145316D01*
X139230142Y-53148826D01*
X139206250Y-53150000D01*
X138718750Y-53150000D01*
X138694858Y-53148826D01*
X138671197Y-53145316D01*
X138647993Y-53139504D01*
X138625471Y-53131446D01*
X138603847Y-53121218D01*
X138583330Y-53108921D01*
X138564117Y-53094671D01*
X138546393Y-53078607D01*
X138530329Y-53060883D01*
X138516079Y-53041670D01*
X138503782Y-53021153D01*
X138493554Y-52999529D01*
X138485496Y-52977007D01*
X138479684Y-52953803D01*
X138476174Y-52930142D01*
X138475000Y-52906250D01*
X138475000Y-51993750D01*
X138476174Y-51969858D01*
X138479684Y-51946197D01*
X138485496Y-51922993D01*
X138493554Y-51900471D01*
X138503782Y-51878847D01*
X138516079Y-51858330D01*
X138530329Y-51839117D01*
X138546393Y-51821393D01*
X138564117Y-51805329D01*
X138583330Y-51791079D01*
X138603847Y-51778782D01*
X138625471Y-51768554D01*
X138647993Y-51760496D01*
X138671197Y-51754684D01*
X138694858Y-51751174D01*
X138718750Y-51750000D01*
X139206250Y-51750000D01*
X139230142Y-51751174D01*
X139230142Y-51751174D01*
G37*
D20*
G04 #@! TD*
G04 #@! TO.P,C2,1*
G04 #@! TO.N,+5V*
X138962500Y-52450000D03*
D19*
G04 #@! TO.N,GND*
G04 #@! TO.C,C2*
G36*
X141105142Y-51751174D02*
X141128803Y-51754684D01*
X141152007Y-51760496D01*
X141174529Y-51768554D01*
X141196153Y-51778782D01*
X141216670Y-51791079D01*
X141235883Y-51805329D01*
X141253607Y-51821393D01*
X141269671Y-51839117D01*
X141283921Y-51858330D01*
X141296218Y-51878847D01*
X141306446Y-51900471D01*
X141314504Y-51922993D01*
X141320316Y-51946197D01*
X141323826Y-51969858D01*
X141325000Y-51993750D01*
X141325000Y-52906250D01*
X141323826Y-52930142D01*
X141320316Y-52953803D01*
X141314504Y-52977007D01*
X141306446Y-52999529D01*
X141296218Y-53021153D01*
X141283921Y-53041670D01*
X141269671Y-53060883D01*
X141253607Y-53078607D01*
X141235883Y-53094671D01*
X141216670Y-53108921D01*
X141196153Y-53121218D01*
X141174529Y-53131446D01*
X141152007Y-53139504D01*
X141128803Y-53145316D01*
X141105142Y-53148826D01*
X141081250Y-53150000D01*
X140593750Y-53150000D01*
X140569858Y-53148826D01*
X140546197Y-53145316D01*
X140522993Y-53139504D01*
X140500471Y-53131446D01*
X140478847Y-53121218D01*
X140458330Y-53108921D01*
X140439117Y-53094671D01*
X140421393Y-53078607D01*
X140405329Y-53060883D01*
X140391079Y-53041670D01*
X140378782Y-53021153D01*
X140368554Y-52999529D01*
X140360496Y-52977007D01*
X140354684Y-52953803D01*
X140351174Y-52930142D01*
X140350000Y-52906250D01*
X140350000Y-51993750D01*
X140351174Y-51969858D01*
X140354684Y-51946197D01*
X140360496Y-51922993D01*
X140368554Y-51900471D01*
X140378782Y-51878847D01*
X140391079Y-51858330D01*
X140405329Y-51839117D01*
X140421393Y-51821393D01*
X140439117Y-51805329D01*
X140458330Y-51791079D01*
X140478847Y-51778782D01*
X140500471Y-51768554D01*
X140522993Y-51760496D01*
X140546197Y-51754684D01*
X140569858Y-51751174D01*
X140593750Y-51750000D01*
X141081250Y-51750000D01*
X141105142Y-51751174D01*
X141105142Y-51751174D01*
G37*
D20*
G04 #@! TD*
G04 #@! TO.P,C2,2*
G04 #@! TO.N,GND*
X140837500Y-52450000D03*
D19*
G04 #@! TO.N,GND*
G04 #@! TO.C,C3*
G36*
X125436958Y-63470710D02*
X125451276Y-63472834D01*
X125465317Y-63476351D01*
X125478946Y-63481228D01*
X125492031Y-63487417D01*
X125504447Y-63494858D01*
X125516073Y-63503481D01*
X125526798Y-63513202D01*
X125536519Y-63523927D01*
X125545142Y-63535553D01*
X125552583Y-63547969D01*
X125558772Y-63561054D01*
X125563649Y-63574683D01*
X125567166Y-63588724D01*
X125569290Y-63603042D01*
X125570000Y-63617500D01*
X125570000Y-63912500D01*
X125569290Y-63926958D01*
X125567166Y-63941276D01*
X125563649Y-63955317D01*
X125558772Y-63968946D01*
X125552583Y-63982031D01*
X125545142Y-63994447D01*
X125536519Y-64006073D01*
X125526798Y-64016798D01*
X125516073Y-64026519D01*
X125504447Y-64035142D01*
X125492031Y-64042583D01*
X125478946Y-64048772D01*
X125465317Y-64053649D01*
X125451276Y-64057166D01*
X125436958Y-64059290D01*
X125422500Y-64060000D01*
X125077500Y-64060000D01*
X125063042Y-64059290D01*
X125048724Y-64057166D01*
X125034683Y-64053649D01*
X125021054Y-64048772D01*
X125007969Y-64042583D01*
X124995553Y-64035142D01*
X124983927Y-64026519D01*
X124973202Y-64016798D01*
X124963481Y-64006073D01*
X124954858Y-63994447D01*
X124947417Y-63982031D01*
X124941228Y-63968946D01*
X124936351Y-63955317D01*
X124932834Y-63941276D01*
X124930710Y-63926958D01*
X124930000Y-63912500D01*
X124930000Y-63617500D01*
X124930710Y-63603042D01*
X124932834Y-63588724D01*
X124936351Y-63574683D01*
X124941228Y-63561054D01*
X124947417Y-63547969D01*
X124954858Y-63535553D01*
X124963481Y-63523927D01*
X124973202Y-63513202D01*
X124983927Y-63503481D01*
X124995553Y-63494858D01*
X125007969Y-63487417D01*
X125021054Y-63481228D01*
X125034683Y-63476351D01*
X125048724Y-63472834D01*
X125063042Y-63470710D01*
X125077500Y-63470000D01*
X125422500Y-63470000D01*
X125436958Y-63470710D01*
X125436958Y-63470710D01*
G37*
D21*
G04 #@! TD*
G04 #@! TO.P,C3,1*
G04 #@! TO.N,GND*
X125250000Y-63765000D03*
D19*
G04 #@! TO.N,+3V3*
G04 #@! TO.C,C3*
G36*
X125436958Y-64440710D02*
X125451276Y-64442834D01*
X125465317Y-64446351D01*
X125478946Y-64451228D01*
X125492031Y-64457417D01*
X125504447Y-64464858D01*
X125516073Y-64473481D01*
X125526798Y-64483202D01*
X125536519Y-64493927D01*
X125545142Y-64505553D01*
X125552583Y-64517969D01*
X125558772Y-64531054D01*
X125563649Y-64544683D01*
X125567166Y-64558724D01*
X125569290Y-64573042D01*
X125570000Y-64587500D01*
X125570000Y-64882500D01*
X125569290Y-64896958D01*
X125567166Y-64911276D01*
X125563649Y-64925317D01*
X125558772Y-64938946D01*
X125552583Y-64952031D01*
X125545142Y-64964447D01*
X125536519Y-64976073D01*
X125526798Y-64986798D01*
X125516073Y-64996519D01*
X125504447Y-65005142D01*
X125492031Y-65012583D01*
X125478946Y-65018772D01*
X125465317Y-65023649D01*
X125451276Y-65027166D01*
X125436958Y-65029290D01*
X125422500Y-65030000D01*
X125077500Y-65030000D01*
X125063042Y-65029290D01*
X125048724Y-65027166D01*
X125034683Y-65023649D01*
X125021054Y-65018772D01*
X125007969Y-65012583D01*
X124995553Y-65005142D01*
X124983927Y-64996519D01*
X124973202Y-64986798D01*
X124963481Y-64976073D01*
X124954858Y-64964447D01*
X124947417Y-64952031D01*
X124941228Y-64938946D01*
X124936351Y-64925317D01*
X124932834Y-64911276D01*
X124930710Y-64896958D01*
X124930000Y-64882500D01*
X124930000Y-64587500D01*
X124930710Y-64573042D01*
X124932834Y-64558724D01*
X124936351Y-64544683D01*
X124941228Y-64531054D01*
X124947417Y-64517969D01*
X124954858Y-64505553D01*
X124963481Y-64493927D01*
X124973202Y-64483202D01*
X124983927Y-64473481D01*
X124995553Y-64464858D01*
X125007969Y-64457417D01*
X125021054Y-64451228D01*
X125034683Y-64446351D01*
X125048724Y-64442834D01*
X125063042Y-64440710D01*
X125077500Y-64440000D01*
X125422500Y-64440000D01*
X125436958Y-64440710D01*
X125436958Y-64440710D01*
G37*
D21*
G04 #@! TD*
G04 #@! TO.P,C3,2*
G04 #@! TO.N,+3V3*
X125250000Y-64735000D03*
D19*
G04 #@! TO.N,+3V3*
G04 #@! TO.C,C4*
G36*
X130199730Y-56451203D02*
X130223974Y-56454799D01*
X130247749Y-56460754D01*
X130270825Y-56469011D01*
X130292981Y-56479490D01*
X130314004Y-56492090D01*
X130333690Y-56506691D01*
X130351850Y-56523150D01*
X130368309Y-56541310D01*
X130382910Y-56560996D01*
X130395510Y-56582019D01*
X130405989Y-56604175D01*
X130414246Y-56627251D01*
X130420201Y-56651026D01*
X130423797Y-56675270D01*
X130425000Y-56699750D01*
X130425000Y-57600250D01*
X130423797Y-57624730D01*
X130420201Y-57648974D01*
X130414246Y-57672749D01*
X130405989Y-57695825D01*
X130395510Y-57717981D01*
X130382910Y-57739004D01*
X130368309Y-57758690D01*
X130351850Y-57776850D01*
X130333690Y-57793309D01*
X130314004Y-57807910D01*
X130292981Y-57820510D01*
X130270825Y-57830989D01*
X130247749Y-57839246D01*
X130223974Y-57845201D01*
X130199730Y-57848797D01*
X130175250Y-57850000D01*
X129324750Y-57850000D01*
X129300270Y-57848797D01*
X129276026Y-57845201D01*
X129252251Y-57839246D01*
X129229175Y-57830989D01*
X129207019Y-57820510D01*
X129185996Y-57807910D01*
X129166310Y-57793309D01*
X129148150Y-57776850D01*
X129131691Y-57758690D01*
X129117090Y-57739004D01*
X129104490Y-57717981D01*
X129094011Y-57695825D01*
X129085754Y-57672749D01*
X129079799Y-57648974D01*
X129076203Y-57624730D01*
X129075000Y-57600250D01*
X129075000Y-56699750D01*
X129076203Y-56675270D01*
X129079799Y-56651026D01*
X129085754Y-56627251D01*
X129094011Y-56604175D01*
X129104490Y-56582019D01*
X129117090Y-56560996D01*
X129131691Y-56541310D01*
X129148150Y-56523150D01*
X129166310Y-56506691D01*
X129185996Y-56492090D01*
X129207019Y-56479490D01*
X129229175Y-56469011D01*
X129252251Y-56460754D01*
X129276026Y-56454799D01*
X129300270Y-56451203D01*
X129324750Y-56450000D01*
X130175250Y-56450000D01*
X130199730Y-56451203D01*
X130199730Y-56451203D01*
G37*
D22*
G04 #@! TD*
G04 #@! TO.P,C4,1*
G04 #@! TO.N,+3V3*
X129750000Y-57150000D03*
D19*
G04 #@! TO.N,GND*
G04 #@! TO.C,C4*
G36*
X130199505Y-59151204D02*
X130223773Y-59154804D01*
X130247572Y-59160765D01*
X130270671Y-59169030D01*
X130292850Y-59179520D01*
X130313893Y-59192132D01*
X130333599Y-59206747D01*
X130351777Y-59223223D01*
X130368253Y-59241401D01*
X130382868Y-59261107D01*
X130395480Y-59282150D01*
X130405970Y-59304329D01*
X130414235Y-59327428D01*
X130420196Y-59351227D01*
X130423796Y-59375495D01*
X130425000Y-59399999D01*
X130425000Y-60300001D01*
X130423796Y-60324505D01*
X130420196Y-60348773D01*
X130414235Y-60372572D01*
X130405970Y-60395671D01*
X130395480Y-60417850D01*
X130382868Y-60438893D01*
X130368253Y-60458599D01*
X130351777Y-60476777D01*
X130333599Y-60493253D01*
X130313893Y-60507868D01*
X130292850Y-60520480D01*
X130270671Y-60530970D01*
X130247572Y-60539235D01*
X130223773Y-60545196D01*
X130199505Y-60548796D01*
X130175001Y-60550000D01*
X129324999Y-60550000D01*
X129300495Y-60548796D01*
X129276227Y-60545196D01*
X129252428Y-60539235D01*
X129229329Y-60530970D01*
X129207150Y-60520480D01*
X129186107Y-60507868D01*
X129166401Y-60493253D01*
X129148223Y-60476777D01*
X129131747Y-60458599D01*
X129117132Y-60438893D01*
X129104520Y-60417850D01*
X129094030Y-60395671D01*
X129085765Y-60372572D01*
X129079804Y-60348773D01*
X129076204Y-60324505D01*
X129075000Y-60300001D01*
X129075000Y-59399999D01*
X129076204Y-59375495D01*
X129079804Y-59351227D01*
X129085765Y-59327428D01*
X129094030Y-59304329D01*
X129104520Y-59282150D01*
X129117132Y-59261107D01*
X129131747Y-59241401D01*
X129148223Y-59223223D01*
X129166401Y-59206747D01*
X129186107Y-59192132D01*
X129207150Y-59179520D01*
X129229329Y-59169030D01*
X129252428Y-59160765D01*
X129276227Y-59154804D01*
X129300495Y-59151204D01*
X129324999Y-59150000D01*
X130175001Y-59150000D01*
X130199505Y-59151204D01*
X130199505Y-59151204D01*
G37*
D22*
G04 #@! TD*
G04 #@! TO.P,C4,2*
G04 #@! TO.N,GND*
X129750000Y-59850000D03*
D19*
G04 #@! TO.N,+3V3*
G04 #@! TO.C,C5*
G36*
X114986958Y-65220710D02*
X115001276Y-65222834D01*
X115015317Y-65226351D01*
X115028946Y-65231228D01*
X115042031Y-65237417D01*
X115054447Y-65244858D01*
X115066073Y-65253481D01*
X115076798Y-65263202D01*
X115086519Y-65273927D01*
X115095142Y-65285553D01*
X115102583Y-65297969D01*
X115108772Y-65311054D01*
X115113649Y-65324683D01*
X115117166Y-65338724D01*
X115119290Y-65353042D01*
X115120000Y-65367500D01*
X115120000Y-65662500D01*
X115119290Y-65676958D01*
X115117166Y-65691276D01*
X115113649Y-65705317D01*
X115108772Y-65718946D01*
X115102583Y-65732031D01*
X115095142Y-65744447D01*
X115086519Y-65756073D01*
X115076798Y-65766798D01*
X115066073Y-65776519D01*
X115054447Y-65785142D01*
X115042031Y-65792583D01*
X115028946Y-65798772D01*
X115015317Y-65803649D01*
X115001276Y-65807166D01*
X114986958Y-65809290D01*
X114972500Y-65810000D01*
X114627500Y-65810000D01*
X114613042Y-65809290D01*
X114598724Y-65807166D01*
X114584683Y-65803649D01*
X114571054Y-65798772D01*
X114557969Y-65792583D01*
X114545553Y-65785142D01*
X114533927Y-65776519D01*
X114523202Y-65766798D01*
X114513481Y-65756073D01*
X114504858Y-65744447D01*
X114497417Y-65732031D01*
X114491228Y-65718946D01*
X114486351Y-65705317D01*
X114482834Y-65691276D01*
X114480710Y-65676958D01*
X114480000Y-65662500D01*
X114480000Y-65367500D01*
X114480710Y-65353042D01*
X114482834Y-65338724D01*
X114486351Y-65324683D01*
X114491228Y-65311054D01*
X114497417Y-65297969D01*
X114504858Y-65285553D01*
X114513481Y-65273927D01*
X114523202Y-65263202D01*
X114533927Y-65253481D01*
X114545553Y-65244858D01*
X114557969Y-65237417D01*
X114571054Y-65231228D01*
X114584683Y-65226351D01*
X114598724Y-65222834D01*
X114613042Y-65220710D01*
X114627500Y-65220000D01*
X114972500Y-65220000D01*
X114986958Y-65220710D01*
X114986958Y-65220710D01*
G37*
D21*
G04 #@! TD*
G04 #@! TO.P,C5,2*
G04 #@! TO.N,+3V3*
X114800000Y-65515000D03*
D19*
G04 #@! TO.N,GND*
G04 #@! TO.C,C5*
G36*
X114986958Y-66190710D02*
X115001276Y-66192834D01*
X115015317Y-66196351D01*
X115028946Y-66201228D01*
X115042031Y-66207417D01*
X115054447Y-66214858D01*
X115066073Y-66223481D01*
X115076798Y-66233202D01*
X115086519Y-66243927D01*
X115095142Y-66255553D01*
X115102583Y-66267969D01*
X115108772Y-66281054D01*
X115113649Y-66294683D01*
X115117166Y-66308724D01*
X115119290Y-66323042D01*
X115120000Y-66337500D01*
X115120000Y-66632500D01*
X115119290Y-66646958D01*
X115117166Y-66661276D01*
X115113649Y-66675317D01*
X115108772Y-66688946D01*
X115102583Y-66702031D01*
X115095142Y-66714447D01*
X115086519Y-66726073D01*
X115076798Y-66736798D01*
X115066073Y-66746519D01*
X115054447Y-66755142D01*
X115042031Y-66762583D01*
X115028946Y-66768772D01*
X115015317Y-66773649D01*
X115001276Y-66777166D01*
X114986958Y-66779290D01*
X114972500Y-66780000D01*
X114627500Y-66780000D01*
X114613042Y-66779290D01*
X114598724Y-66777166D01*
X114584683Y-66773649D01*
X114571054Y-66768772D01*
X114557969Y-66762583D01*
X114545553Y-66755142D01*
X114533927Y-66746519D01*
X114523202Y-66736798D01*
X114513481Y-66726073D01*
X114504858Y-66714447D01*
X114497417Y-66702031D01*
X114491228Y-66688946D01*
X114486351Y-66675317D01*
X114482834Y-66661276D01*
X114480710Y-66646958D01*
X114480000Y-66632500D01*
X114480000Y-66337500D01*
X114480710Y-66323042D01*
X114482834Y-66308724D01*
X114486351Y-66294683D01*
X114491228Y-66281054D01*
X114497417Y-66267969D01*
X114504858Y-66255553D01*
X114513481Y-66243927D01*
X114523202Y-66233202D01*
X114533927Y-66223481D01*
X114545553Y-66214858D01*
X114557969Y-66207417D01*
X114571054Y-66201228D01*
X114584683Y-66196351D01*
X114598724Y-66192834D01*
X114613042Y-66190710D01*
X114627500Y-66190000D01*
X114972500Y-66190000D01*
X114986958Y-66190710D01*
X114986958Y-66190710D01*
G37*
D21*
G04 #@! TD*
G04 #@! TO.P,C5,1*
G04 #@! TO.N,GND*
X114800000Y-66485000D03*
D23*
G04 #@! TO.P,H1,1*
G04 #@! TO.N,GND*
X101000000Y-85000000D03*
D24*
X103400000Y-85000000D03*
X102697056Y-86697056D03*
X101000000Y-87400000D03*
X99302944Y-86697056D03*
X98600000Y-85000000D03*
X99302944Y-83302944D03*
X101000000Y-82600000D03*
X102697056Y-83302944D03*
G04 #@! TD*
G04 #@! TO.P,H2,1*
G04 #@! TO.N,GND*
X140697056Y-45302944D03*
X139000000Y-44600000D03*
X137302944Y-45302944D03*
X136600000Y-47000000D03*
X137302944Y-48697056D03*
X139000000Y-49400000D03*
X140697056Y-48697056D03*
X141400000Y-47000000D03*
D23*
X139000000Y-47000000D03*
G04 #@! TD*
G04 #@! TO.P,H3,1*
G04 #@! TO.N,GND*
X101000000Y-47000000D03*
D24*
X103400000Y-47000000D03*
X102697056Y-48697056D03*
X101000000Y-49400000D03*
X99302944Y-48697056D03*
X98600000Y-47000000D03*
X99302944Y-45302944D03*
X101000000Y-44600000D03*
X102697056Y-45302944D03*
G04 #@! TD*
G04 #@! TO.P,H4,1*
G04 #@! TO.N,GND*
X140697056Y-83302944D03*
X139000000Y-82600000D03*
X137302944Y-83302944D03*
X136600000Y-85000000D03*
X137302944Y-86697056D03*
X139000000Y-87400000D03*
X140697056Y-86697056D03*
X141400000Y-85000000D03*
D23*
X139000000Y-85000000D03*
G04 #@! TD*
D25*
G04 #@! TO.P,J1,6*
G04 #@! TO.N,GND*
X118850000Y-43450000D03*
X121150000Y-43450000D03*
X123950000Y-43450000D03*
X116050000Y-43450000D03*
D26*
X116900000Y-45700000D03*
X123100000Y-45700000D03*
D27*
G04 #@! TO.P,J1,3*
G04 #@! TO.N,Net-(J1-Pad3)*
X120000000Y-46125000D03*
G04 #@! TO.P,J1,5*
G04 #@! TO.N,GND*
X118700000Y-46125000D03*
G04 #@! TO.P,J1,4*
G04 #@! TO.N,Net-(J1-Pad4)*
X119350000Y-46125000D03*
G04 #@! TO.P,J1,1*
G04 #@! TO.N,+5V*
X121300000Y-46125000D03*
G04 #@! TO.P,J1,2*
G04 #@! TO.N,Net-(J1-Pad2)*
X120650000Y-46125000D03*
G04 #@! TD*
D28*
G04 #@! TO.P,J2,2*
G04 #@! TO.N,GND*
X98200000Y-62175000D03*
X98200000Y-67825000D03*
D29*
G04 #@! TO.P,J2,1*
G04 #@! TO.N,Net-(C1-Pad2)*
X98000000Y-65000000D03*
G04 #@! TD*
G04 #@! TO.P,J3,1*
G04 #@! TO.N,Net-(C6-Pad1)*
X142000000Y-65000000D03*
D28*
G04 #@! TO.P,J3,2*
G04 #@! TO.N,GND*
X141800000Y-62175000D03*
X141800000Y-67825000D03*
G04 #@! TD*
D19*
G04 #@! TO.N,/SW_1_CTRL_1*
G04 #@! TO.C,R1*
G36*
X109767642Y-74601174D02*
X109791303Y-74604684D01*
X109814507Y-74610496D01*
X109837029Y-74618554D01*
X109858653Y-74628782D01*
X109879170Y-74641079D01*
X109898383Y-74655329D01*
X109916107Y-74671393D01*
X109932171Y-74689117D01*
X109946421Y-74708330D01*
X109958718Y-74728847D01*
X109968946Y-74750471D01*
X109977004Y-74772993D01*
X109982816Y-74796197D01*
X109986326Y-74819858D01*
X109987500Y-74843750D01*
X109987500Y-75756250D01*
X109986326Y-75780142D01*
X109982816Y-75803803D01*
X109977004Y-75827007D01*
X109968946Y-75849529D01*
X109958718Y-75871153D01*
X109946421Y-75891670D01*
X109932171Y-75910883D01*
X109916107Y-75928607D01*
X109898383Y-75944671D01*
X109879170Y-75958921D01*
X109858653Y-75971218D01*
X109837029Y-75981446D01*
X109814507Y-75989504D01*
X109791303Y-75995316D01*
X109767642Y-75998826D01*
X109743750Y-76000000D01*
X109256250Y-76000000D01*
X109232358Y-75998826D01*
X109208697Y-75995316D01*
X109185493Y-75989504D01*
X109162971Y-75981446D01*
X109141347Y-75971218D01*
X109120830Y-75958921D01*
X109101617Y-75944671D01*
X109083893Y-75928607D01*
X109067829Y-75910883D01*
X109053579Y-75891670D01*
X109041282Y-75871153D01*
X109031054Y-75849529D01*
X109022996Y-75827007D01*
X109017184Y-75803803D01*
X109013674Y-75780142D01*
X109012500Y-75756250D01*
X109012500Y-74843750D01*
X109013674Y-74819858D01*
X109017184Y-74796197D01*
X109022996Y-74772993D01*
X109031054Y-74750471D01*
X109041282Y-74728847D01*
X109053579Y-74708330D01*
X109067829Y-74689117D01*
X109083893Y-74671393D01*
X109101617Y-74655329D01*
X109120830Y-74641079D01*
X109141347Y-74628782D01*
X109162971Y-74618554D01*
X109185493Y-74610496D01*
X109208697Y-74604684D01*
X109232358Y-74601174D01*
X109256250Y-74600000D01*
X109743750Y-74600000D01*
X109767642Y-74601174D01*
X109767642Y-74601174D01*
G37*
D20*
G04 #@! TD*
G04 #@! TO.P,R1,1*
G04 #@! TO.N,/SW_1_CTRL_1*
X109500000Y-75300000D03*
D19*
G04 #@! TO.N,GND*
G04 #@! TO.C,R1*
G36*
X107892642Y-74601174D02*
X107916303Y-74604684D01*
X107939507Y-74610496D01*
X107962029Y-74618554D01*
X107983653Y-74628782D01*
X108004170Y-74641079D01*
X108023383Y-74655329D01*
X108041107Y-74671393D01*
X108057171Y-74689117D01*
X108071421Y-74708330D01*
X108083718Y-74728847D01*
X108093946Y-74750471D01*
X108102004Y-74772993D01*
X108107816Y-74796197D01*
X108111326Y-74819858D01*
X108112500Y-74843750D01*
X108112500Y-75756250D01*
X108111326Y-75780142D01*
X108107816Y-75803803D01*
X108102004Y-75827007D01*
X108093946Y-75849529D01*
X108083718Y-75871153D01*
X108071421Y-75891670D01*
X108057171Y-75910883D01*
X108041107Y-75928607D01*
X108023383Y-75944671D01*
X108004170Y-75958921D01*
X107983653Y-75971218D01*
X107962029Y-75981446D01*
X107939507Y-75989504D01*
X107916303Y-75995316D01*
X107892642Y-75998826D01*
X107868750Y-76000000D01*
X107381250Y-76000000D01*
X107357358Y-75998826D01*
X107333697Y-75995316D01*
X107310493Y-75989504D01*
X107287971Y-75981446D01*
X107266347Y-75971218D01*
X107245830Y-75958921D01*
X107226617Y-75944671D01*
X107208893Y-75928607D01*
X107192829Y-75910883D01*
X107178579Y-75891670D01*
X107166282Y-75871153D01*
X107156054Y-75849529D01*
X107147996Y-75827007D01*
X107142184Y-75803803D01*
X107138674Y-75780142D01*
X107137500Y-75756250D01*
X107137500Y-74843750D01*
X107138674Y-74819858D01*
X107142184Y-74796197D01*
X107147996Y-74772993D01*
X107156054Y-74750471D01*
X107166282Y-74728847D01*
X107178579Y-74708330D01*
X107192829Y-74689117D01*
X107208893Y-74671393D01*
X107226617Y-74655329D01*
X107245830Y-74641079D01*
X107266347Y-74628782D01*
X107287971Y-74618554D01*
X107310493Y-74610496D01*
X107333697Y-74604684D01*
X107357358Y-74601174D01*
X107381250Y-74600000D01*
X107868750Y-74600000D01*
X107892642Y-74601174D01*
X107892642Y-74601174D01*
G37*
D20*
G04 #@! TD*
G04 #@! TO.P,R1,2*
G04 #@! TO.N,GND*
X107625000Y-75300000D03*
D19*
G04 #@! TO.N,GND*
G04 #@! TO.C,R2*
G36*
X114205142Y-74501174D02*
X114228803Y-74504684D01*
X114252007Y-74510496D01*
X114274529Y-74518554D01*
X114296153Y-74528782D01*
X114316670Y-74541079D01*
X114335883Y-74555329D01*
X114353607Y-74571393D01*
X114369671Y-74589117D01*
X114383921Y-74608330D01*
X114396218Y-74628847D01*
X114406446Y-74650471D01*
X114414504Y-74672993D01*
X114420316Y-74696197D01*
X114423826Y-74719858D01*
X114425000Y-74743750D01*
X114425000Y-75656250D01*
X114423826Y-75680142D01*
X114420316Y-75703803D01*
X114414504Y-75727007D01*
X114406446Y-75749529D01*
X114396218Y-75771153D01*
X114383921Y-75791670D01*
X114369671Y-75810883D01*
X114353607Y-75828607D01*
X114335883Y-75844671D01*
X114316670Y-75858921D01*
X114296153Y-75871218D01*
X114274529Y-75881446D01*
X114252007Y-75889504D01*
X114228803Y-75895316D01*
X114205142Y-75898826D01*
X114181250Y-75900000D01*
X113693750Y-75900000D01*
X113669858Y-75898826D01*
X113646197Y-75895316D01*
X113622993Y-75889504D01*
X113600471Y-75881446D01*
X113578847Y-75871218D01*
X113558330Y-75858921D01*
X113539117Y-75844671D01*
X113521393Y-75828607D01*
X113505329Y-75810883D01*
X113491079Y-75791670D01*
X113478782Y-75771153D01*
X113468554Y-75749529D01*
X113460496Y-75727007D01*
X113454684Y-75703803D01*
X113451174Y-75680142D01*
X113450000Y-75656250D01*
X113450000Y-74743750D01*
X113451174Y-74719858D01*
X113454684Y-74696197D01*
X113460496Y-74672993D01*
X113468554Y-74650471D01*
X113478782Y-74628847D01*
X113491079Y-74608330D01*
X113505329Y-74589117D01*
X113521393Y-74571393D01*
X113539117Y-74555329D01*
X113558330Y-74541079D01*
X113578847Y-74528782D01*
X113600471Y-74518554D01*
X113622993Y-74510496D01*
X113646197Y-74504684D01*
X113669858Y-74501174D01*
X113693750Y-74500000D01*
X114181250Y-74500000D01*
X114205142Y-74501174D01*
X114205142Y-74501174D01*
G37*
D20*
G04 #@! TD*
G04 #@! TO.P,R2,2*
G04 #@! TO.N,GND*
X113937500Y-75200000D03*
D19*
G04 #@! TO.N,/SW_1_CTRL_2*
G04 #@! TO.C,R2*
G36*
X112330142Y-74501174D02*
X112353803Y-74504684D01*
X112377007Y-74510496D01*
X112399529Y-74518554D01*
X112421153Y-74528782D01*
X112441670Y-74541079D01*
X112460883Y-74555329D01*
X112478607Y-74571393D01*
X112494671Y-74589117D01*
X112508921Y-74608330D01*
X112521218Y-74628847D01*
X112531446Y-74650471D01*
X112539504Y-74672993D01*
X112545316Y-74696197D01*
X112548826Y-74719858D01*
X112550000Y-74743750D01*
X112550000Y-75656250D01*
X112548826Y-75680142D01*
X112545316Y-75703803D01*
X112539504Y-75727007D01*
X112531446Y-75749529D01*
X112521218Y-75771153D01*
X112508921Y-75791670D01*
X112494671Y-75810883D01*
X112478607Y-75828607D01*
X112460883Y-75844671D01*
X112441670Y-75858921D01*
X112421153Y-75871218D01*
X112399529Y-75881446D01*
X112377007Y-75889504D01*
X112353803Y-75895316D01*
X112330142Y-75898826D01*
X112306250Y-75900000D01*
X111818750Y-75900000D01*
X111794858Y-75898826D01*
X111771197Y-75895316D01*
X111747993Y-75889504D01*
X111725471Y-75881446D01*
X111703847Y-75871218D01*
X111683330Y-75858921D01*
X111664117Y-75844671D01*
X111646393Y-75828607D01*
X111630329Y-75810883D01*
X111616079Y-75791670D01*
X111603782Y-75771153D01*
X111593554Y-75749529D01*
X111585496Y-75727007D01*
X111579684Y-75703803D01*
X111576174Y-75680142D01*
X111575000Y-75656250D01*
X111575000Y-74743750D01*
X111576174Y-74719858D01*
X111579684Y-74696197D01*
X111585496Y-74672993D01*
X111593554Y-74650471D01*
X111603782Y-74628847D01*
X111616079Y-74608330D01*
X111630329Y-74589117D01*
X111646393Y-74571393D01*
X111664117Y-74555329D01*
X111683330Y-74541079D01*
X111703847Y-74528782D01*
X111725471Y-74518554D01*
X111747993Y-74510496D01*
X111771197Y-74504684D01*
X111794858Y-74501174D01*
X111818750Y-74500000D01*
X112306250Y-74500000D01*
X112330142Y-74501174D01*
X112330142Y-74501174D01*
G37*
D20*
G04 #@! TD*
G04 #@! TO.P,R2,1*
G04 #@! TO.N,/SW_1_CTRL_2*
X112062500Y-75200000D03*
D30*
G04 #@! TO.P,U2,1*
G04 #@! TO.N,N/C*
X107550000Y-71850000D03*
G04 #@! TO.P,U2,3*
G04 #@! TO.N,GND*
X107550000Y-73150000D03*
G04 #@! TO.P,U2,2*
G04 #@! TO.N,/SW_1_CTRL_1*
X107550000Y-72500000D03*
G04 #@! TO.P,U2,4*
G04 #@! TO.N,/SW_2_CTRL_1*
X109450000Y-73150000D03*
G04 #@! TO.P,U2,5*
G04 #@! TO.N,+3V3*
X109450000Y-71850000D03*
G04 #@! TD*
D31*
G04 #@! TO.P,U3,2*
G04 #@! TO.N,+3V3*
X132650000Y-57150000D03*
D32*
X138950000Y-57150000D03*
G04 #@! TO.P,U3,3*
G04 #@! TO.N,+5V*
X138950000Y-54850000D03*
G04 #@! TO.P,U3,1*
G04 #@! TO.N,GND*
X138950000Y-59450000D03*
G04 #@! TD*
D19*
G04 #@! TO.N,Net-(C1-Pad2)*
G04 #@! TO.C,C1*
G36*
X108626958Y-64680710D02*
X108641276Y-64682834D01*
X108655317Y-64686351D01*
X108668946Y-64691228D01*
X108682031Y-64697417D01*
X108694447Y-64704858D01*
X108706073Y-64713481D01*
X108716798Y-64723202D01*
X108726519Y-64733927D01*
X108735142Y-64745553D01*
X108742583Y-64757969D01*
X108748772Y-64771054D01*
X108753649Y-64784683D01*
X108757166Y-64798724D01*
X108759290Y-64813042D01*
X108760000Y-64827500D01*
X108760000Y-65172500D01*
X108759290Y-65186958D01*
X108757166Y-65201276D01*
X108753649Y-65215317D01*
X108748772Y-65228946D01*
X108742583Y-65242031D01*
X108735142Y-65254447D01*
X108726519Y-65266073D01*
X108716798Y-65276798D01*
X108706073Y-65286519D01*
X108694447Y-65295142D01*
X108682031Y-65302583D01*
X108668946Y-65308772D01*
X108655317Y-65313649D01*
X108641276Y-65317166D01*
X108626958Y-65319290D01*
X108612500Y-65320000D01*
X108317500Y-65320000D01*
X108303042Y-65319290D01*
X108288724Y-65317166D01*
X108274683Y-65313649D01*
X108261054Y-65308772D01*
X108247969Y-65302583D01*
X108235553Y-65295142D01*
X108223927Y-65286519D01*
X108213202Y-65276798D01*
X108203481Y-65266073D01*
X108194858Y-65254447D01*
X108187417Y-65242031D01*
X108181228Y-65228946D01*
X108176351Y-65215317D01*
X108172834Y-65201276D01*
X108170710Y-65186958D01*
X108170000Y-65172500D01*
X108170000Y-64827500D01*
X108170710Y-64813042D01*
X108172834Y-64798724D01*
X108176351Y-64784683D01*
X108181228Y-64771054D01*
X108187417Y-64757969D01*
X108194858Y-64745553D01*
X108203481Y-64733927D01*
X108213202Y-64723202D01*
X108223927Y-64713481D01*
X108235553Y-64704858D01*
X108247969Y-64697417D01*
X108261054Y-64691228D01*
X108274683Y-64686351D01*
X108288724Y-64682834D01*
X108303042Y-64680710D01*
X108317500Y-64680000D01*
X108612500Y-64680000D01*
X108626958Y-64680710D01*
X108626958Y-64680710D01*
G37*
D21*
G04 #@! TD*
G04 #@! TO.P,C1,2*
G04 #@! TO.N,Net-(C1-Pad2)*
X108465000Y-65000000D03*
D19*
G04 #@! TO.N,Net-(C1-Pad1)*
G04 #@! TO.C,C1*
G36*
X109596958Y-64680710D02*
X109611276Y-64682834D01*
X109625317Y-64686351D01*
X109638946Y-64691228D01*
X109652031Y-64697417D01*
X109664447Y-64704858D01*
X109676073Y-64713481D01*
X109686798Y-64723202D01*
X109696519Y-64733927D01*
X109705142Y-64745553D01*
X109712583Y-64757969D01*
X109718772Y-64771054D01*
X109723649Y-64784683D01*
X109727166Y-64798724D01*
X109729290Y-64813042D01*
X109730000Y-64827500D01*
X109730000Y-65172500D01*
X109729290Y-65186958D01*
X109727166Y-65201276D01*
X109723649Y-65215317D01*
X109718772Y-65228946D01*
X109712583Y-65242031D01*
X109705142Y-65254447D01*
X109696519Y-65266073D01*
X109686798Y-65276798D01*
X109676073Y-65286519D01*
X109664447Y-65295142D01*
X109652031Y-65302583D01*
X109638946Y-65308772D01*
X109625317Y-65313649D01*
X109611276Y-65317166D01*
X109596958Y-65319290D01*
X109582500Y-65320000D01*
X109287500Y-65320000D01*
X109273042Y-65319290D01*
X109258724Y-65317166D01*
X109244683Y-65313649D01*
X109231054Y-65308772D01*
X109217969Y-65302583D01*
X109205553Y-65295142D01*
X109193927Y-65286519D01*
X109183202Y-65276798D01*
X109173481Y-65266073D01*
X109164858Y-65254447D01*
X109157417Y-65242031D01*
X109151228Y-65228946D01*
X109146351Y-65215317D01*
X109142834Y-65201276D01*
X109140710Y-65186958D01*
X109140000Y-65172500D01*
X109140000Y-64827500D01*
X109140710Y-64813042D01*
X109142834Y-64798724D01*
X109146351Y-64784683D01*
X109151228Y-64771054D01*
X109157417Y-64757969D01*
X109164858Y-64745553D01*
X109173481Y-64733927D01*
X109183202Y-64723202D01*
X109193927Y-64713481D01*
X109205553Y-64704858D01*
X109217969Y-64697417D01*
X109231054Y-64691228D01*
X109244683Y-64686351D01*
X109258724Y-64682834D01*
X109273042Y-64680710D01*
X109287500Y-64680000D01*
X109582500Y-64680000D01*
X109596958Y-64680710D01*
X109596958Y-64680710D01*
G37*
D21*
G04 #@! TD*
G04 #@! TO.P,C1,1*
G04 #@! TO.N,Net-(C1-Pad1)*
X109435000Y-65000000D03*
D19*
G04 #@! TO.N,Net-(C6-Pad1)*
G04 #@! TO.C,C6*
G36*
X132096958Y-64680710D02*
X132111276Y-64682834D01*
X132125317Y-64686351D01*
X132138946Y-64691228D01*
X132152031Y-64697417D01*
X132164447Y-64704858D01*
X132176073Y-64713481D01*
X132186798Y-64723202D01*
X132196519Y-64733927D01*
X132205142Y-64745553D01*
X132212583Y-64757969D01*
X132218772Y-64771054D01*
X132223649Y-64784683D01*
X132227166Y-64798724D01*
X132229290Y-64813042D01*
X132230000Y-64827500D01*
X132230000Y-65172500D01*
X132229290Y-65186958D01*
X132227166Y-65201276D01*
X132223649Y-65215317D01*
X132218772Y-65228946D01*
X132212583Y-65242031D01*
X132205142Y-65254447D01*
X132196519Y-65266073D01*
X132186798Y-65276798D01*
X132176073Y-65286519D01*
X132164447Y-65295142D01*
X132152031Y-65302583D01*
X132138946Y-65308772D01*
X132125317Y-65313649D01*
X132111276Y-65317166D01*
X132096958Y-65319290D01*
X132082500Y-65320000D01*
X131787500Y-65320000D01*
X131773042Y-65319290D01*
X131758724Y-65317166D01*
X131744683Y-65313649D01*
X131731054Y-65308772D01*
X131717969Y-65302583D01*
X131705553Y-65295142D01*
X131693927Y-65286519D01*
X131683202Y-65276798D01*
X131673481Y-65266073D01*
X131664858Y-65254447D01*
X131657417Y-65242031D01*
X131651228Y-65228946D01*
X131646351Y-65215317D01*
X131642834Y-65201276D01*
X131640710Y-65186958D01*
X131640000Y-65172500D01*
X131640000Y-64827500D01*
X131640710Y-64813042D01*
X131642834Y-64798724D01*
X131646351Y-64784683D01*
X131651228Y-64771054D01*
X131657417Y-64757969D01*
X131664858Y-64745553D01*
X131673481Y-64733927D01*
X131683202Y-64723202D01*
X131693927Y-64713481D01*
X131705553Y-64704858D01*
X131717969Y-64697417D01*
X131731054Y-64691228D01*
X131744683Y-64686351D01*
X131758724Y-64682834D01*
X131773042Y-64680710D01*
X131787500Y-64680000D01*
X132082500Y-64680000D01*
X132096958Y-64680710D01*
X132096958Y-64680710D01*
G37*
D21*
G04 #@! TD*
G04 #@! TO.P,C6,1*
G04 #@! TO.N,Net-(C6-Pad1)*
X131935000Y-65000000D03*
D19*
G04 #@! TO.N,Net-(C6-Pad2)*
G04 #@! TO.C,C6*
G36*
X131126958Y-64680710D02*
X131141276Y-64682834D01*
X131155317Y-64686351D01*
X131168946Y-64691228D01*
X131182031Y-64697417D01*
X131194447Y-64704858D01*
X131206073Y-64713481D01*
X131216798Y-64723202D01*
X131226519Y-64733927D01*
X131235142Y-64745553D01*
X131242583Y-64757969D01*
X131248772Y-64771054D01*
X131253649Y-64784683D01*
X131257166Y-64798724D01*
X131259290Y-64813042D01*
X131260000Y-64827500D01*
X131260000Y-65172500D01*
X131259290Y-65186958D01*
X131257166Y-65201276D01*
X131253649Y-65215317D01*
X131248772Y-65228946D01*
X131242583Y-65242031D01*
X131235142Y-65254447D01*
X131226519Y-65266073D01*
X131216798Y-65276798D01*
X131206073Y-65286519D01*
X131194447Y-65295142D01*
X131182031Y-65302583D01*
X131168946Y-65308772D01*
X131155317Y-65313649D01*
X131141276Y-65317166D01*
X131126958Y-65319290D01*
X131112500Y-65320000D01*
X130817500Y-65320000D01*
X130803042Y-65319290D01*
X130788724Y-65317166D01*
X130774683Y-65313649D01*
X130761054Y-65308772D01*
X130747969Y-65302583D01*
X130735553Y-65295142D01*
X130723927Y-65286519D01*
X130713202Y-65276798D01*
X130703481Y-65266073D01*
X130694858Y-65254447D01*
X130687417Y-65242031D01*
X130681228Y-65228946D01*
X130676351Y-65215317D01*
X130672834Y-65201276D01*
X130670710Y-65186958D01*
X130670000Y-65172500D01*
X130670000Y-64827500D01*
X130670710Y-64813042D01*
X130672834Y-64798724D01*
X130676351Y-64784683D01*
X130681228Y-64771054D01*
X130687417Y-64757969D01*
X130694858Y-64745553D01*
X130703481Y-64733927D01*
X130713202Y-64723202D01*
X130723927Y-64713481D01*
X130735553Y-64704858D01*
X130747969Y-64697417D01*
X130761054Y-64691228D01*
X130774683Y-64686351D01*
X130788724Y-64682834D01*
X130803042Y-64680710D01*
X130817500Y-64680000D01*
X131112500Y-64680000D01*
X131126958Y-64680710D01*
X131126958Y-64680710D01*
G37*
D21*
G04 #@! TD*
G04 #@! TO.P,C6,2*
G04 #@! TO.N,Net-(C6-Pad2)*
X130965000Y-65000000D03*
D33*
G04 #@! TO.N,GND*
X123100000Y-45700000D03*
X116900000Y-45700000D03*
X116100000Y-43400000D03*
X118900000Y-43400000D03*
X121200000Y-43400000D03*
X124000000Y-43500000D03*
X99800000Y-61700000D03*
X99300000Y-61700000D03*
X98800000Y-61700000D03*
X98300000Y-61700000D03*
X97800000Y-61700000D03*
X97300000Y-61700000D03*
X96800000Y-61700000D03*
X96300000Y-61700000D03*
D34*
X129800000Y-61100000D03*
D33*
X106900000Y-73200000D03*
X140200000Y-61700000D03*
X140700000Y-61700000D03*
X143700000Y-61700000D03*
X141700000Y-61700000D03*
X142200000Y-61700000D03*
X143200000Y-61700000D03*
X142700000Y-61700000D03*
X141200000Y-61700000D03*
X98300000Y-68200000D03*
X99800000Y-68200000D03*
X96800000Y-68200000D03*
X97300000Y-68200000D03*
X99300000Y-68200000D03*
X98800000Y-68200000D03*
X96300000Y-68200000D03*
X97800000Y-68200000D03*
X142200000Y-68300000D03*
X143700000Y-68300000D03*
X140700000Y-68300000D03*
X141200000Y-68300000D03*
X143200000Y-68300000D03*
X142700000Y-68300000D03*
X140200000Y-68300000D03*
X141700000Y-68300000D03*
D34*
X140700000Y-59500000D03*
X141900000Y-52400000D03*
D33*
X132700000Y-64100000D03*
X133200000Y-64100000D03*
X133700000Y-64100000D03*
X133700000Y-64100000D03*
X133700000Y-64100000D03*
X134200000Y-64100000D03*
X134700000Y-64100000D03*
X135200000Y-64100000D03*
X135700000Y-64100000D03*
X136200000Y-64100000D03*
X136700000Y-64100000D03*
X137200000Y-64100000D03*
X137700000Y-64100000D03*
X138200000Y-64100000D03*
X138700000Y-64100000D03*
X139200000Y-64100000D03*
X138700000Y-64100000D03*
X139200000Y-64100000D03*
X132700000Y-65900000D03*
X133700000Y-65900000D03*
X134700000Y-65900000D03*
X134200000Y-65900000D03*
X134200000Y-65900000D03*
X137700000Y-65900000D03*
X138200000Y-65900000D03*
X135200000Y-65900000D03*
X134200000Y-65900000D03*
X137200000Y-65900000D03*
X136700000Y-65900000D03*
X139200000Y-65900000D03*
X138700000Y-65900000D03*
X136200000Y-65900000D03*
X135700000Y-65900000D03*
X139200000Y-65900000D03*
X101500000Y-65900000D03*
X102000000Y-65900000D03*
X104500000Y-65900000D03*
X101000000Y-65900000D03*
X106500000Y-65900000D03*
X105500000Y-65900000D03*
X106000000Y-65900000D03*
X102500000Y-65900000D03*
X101500000Y-65900000D03*
X100500000Y-65900000D03*
X105000000Y-65900000D03*
X103500000Y-65900000D03*
X101500000Y-65900000D03*
X103000000Y-65900000D03*
X104000000Y-65900000D03*
X101500000Y-64100000D03*
X102500000Y-64100000D03*
X101500000Y-64100000D03*
X101000000Y-64100000D03*
X106000000Y-64100000D03*
X101500000Y-64100000D03*
X100500000Y-64100000D03*
X105000000Y-64100000D03*
X103500000Y-64100000D03*
X104000000Y-64100000D03*
X106500000Y-64100000D03*
X104500000Y-64100000D03*
X103000000Y-64100000D03*
X105500000Y-64100000D03*
X102000000Y-64100000D03*
X132200000Y-64000000D03*
X132200000Y-66100000D03*
X117200000Y-57200000D03*
X116700000Y-57200000D03*
X116200000Y-57200000D03*
X115700000Y-57200000D03*
X115200000Y-57350000D03*
X114700000Y-57850000D03*
X114250000Y-58350000D03*
X113800000Y-58850000D03*
X113300000Y-59300000D03*
X112850000Y-59800000D03*
X112350000Y-60250000D03*
X111850000Y-60800000D03*
X111350000Y-61250000D03*
X110850000Y-61700000D03*
X110500000Y-62300000D03*
X113950000Y-61250000D03*
X114500000Y-61250000D03*
X115050000Y-61250000D03*
X115600000Y-61250000D03*
X116100000Y-61250000D03*
X116600000Y-61250000D03*
X117100000Y-61250000D03*
X115800000Y-63100000D03*
X116300000Y-63100000D03*
X116800000Y-63100000D03*
X117300000Y-63100000D03*
X113750000Y-66950000D03*
X116250000Y-70550000D03*
X116800000Y-71000000D03*
X123750000Y-67350000D03*
X123150000Y-67350000D03*
X123600000Y-69100000D03*
X124100000Y-69100000D03*
X124600000Y-69100000D03*
X125100000Y-69100000D03*
X125600000Y-69100000D03*
X126100000Y-69100000D03*
X123100000Y-69100000D03*
X123100000Y-71300000D03*
X123600000Y-71300000D03*
X124100000Y-71200000D03*
X124600000Y-70850000D03*
X125100000Y-70350000D03*
X125100000Y-70350000D03*
X125100000Y-70350000D03*
X125600000Y-69850000D03*
X112350000Y-69200000D03*
X115050000Y-71850000D03*
X115950000Y-72850000D03*
X116550000Y-73200000D03*
X115500000Y-72350000D03*
X113300000Y-70150000D03*
X110800000Y-67600000D03*
X111350000Y-68150000D03*
X111850000Y-68700000D03*
X124950000Y-60300000D03*
X125850000Y-61150000D03*
X124500000Y-59800000D03*
X125350000Y-60700000D03*
X124050000Y-59300000D03*
X124100000Y-73100000D03*
X125600000Y-72450000D03*
X127450000Y-70500000D03*
X123600000Y-73100000D03*
X128450000Y-69500000D03*
X125100000Y-72950000D03*
X129450000Y-68600000D03*
X129800000Y-68000000D03*
X128950000Y-69050000D03*
X126050000Y-71950000D03*
X123100000Y-73100000D03*
X127950000Y-70050000D03*
X124600000Y-73100000D03*
X126500000Y-71450000D03*
X127000000Y-71000000D03*
X129950000Y-63450000D03*
X125900000Y-58600000D03*
X129950000Y-62950000D03*
X127850000Y-60550000D03*
X128300000Y-61050000D03*
X125000000Y-57700000D03*
X129300000Y-61950000D03*
X126350000Y-59100000D03*
X128800000Y-61500000D03*
X126900000Y-59600000D03*
X125450000Y-58100000D03*
X129800000Y-62450000D03*
X127350000Y-60100000D03*
X123250000Y-57300000D03*
X123850000Y-57300000D03*
X124450000Y-57300000D03*
X123500000Y-59150000D03*
X123100000Y-63100000D03*
X123600000Y-63100000D03*
X124150000Y-63100000D03*
X115950000Y-59200000D03*
X115500000Y-59700000D03*
X115050000Y-60200000D03*
X114550000Y-60650000D03*
X116500000Y-59150000D03*
X117000000Y-59150000D03*
X114200000Y-71050000D03*
X115400000Y-69700000D03*
X116000000Y-69150000D03*
X117300000Y-69350000D03*
D34*
X114758051Y-67258051D03*
D33*
X123200000Y-61250000D03*
X123700000Y-61250000D03*
X124250000Y-61250000D03*
X124750000Y-61250000D03*
X125300000Y-61250000D03*
D34*
X125250000Y-63000000D03*
X126600000Y-63100000D03*
D33*
X105000000Y-44500000D03*
X110000000Y-44500000D03*
X107500000Y-47000000D03*
X107500000Y-50000000D03*
X107500000Y-55000000D03*
X107500000Y-60000000D03*
X105000000Y-49500000D03*
X110000000Y-49500000D03*
X115000000Y-49500000D03*
X112500000Y-47000000D03*
X120000000Y-49500000D03*
X125000000Y-49500000D03*
X130000000Y-49500000D03*
X130000000Y-53500000D03*
X125000000Y-52500000D03*
X120000000Y-52500000D03*
X115000000Y-52500000D03*
X110000000Y-52500000D03*
X105000000Y-52500000D03*
X100000000Y-52500000D03*
X100000000Y-57500000D03*
X105000000Y-57500000D03*
X110000000Y-57500000D03*
X112500000Y-55000000D03*
X117500000Y-50000000D03*
X112500000Y-50000000D03*
X97500000Y-55000000D03*
X97500000Y-50000000D03*
X97500000Y-60000000D03*
X102500000Y-55000000D03*
X102500000Y-60000000D03*
X106000000Y-62500000D03*
X122500000Y-50000000D03*
X127500000Y-50000000D03*
X132500000Y-50000000D03*
X122500000Y-55000000D03*
X117500000Y-55000000D03*
X132500000Y-47000000D03*
X135000000Y-44500000D03*
X130000000Y-44500000D03*
X127500000Y-47000000D03*
X135000000Y-53500000D03*
X135000000Y-61000000D03*
X137500000Y-62500000D03*
X132500000Y-62500000D03*
X101000000Y-62500000D03*
X101000000Y-67500000D03*
X100000000Y-72500000D03*
X100000000Y-77500000D03*
X97500000Y-75000000D03*
X97500000Y-70000000D03*
X102500000Y-70000000D03*
X107500000Y-70000000D03*
X102500000Y-75000000D03*
X106000000Y-67500000D03*
X105000000Y-72500000D03*
X105000000Y-77500000D03*
X105000000Y-82500000D03*
X102500000Y-80000000D03*
X110000000Y-82500000D03*
X115000000Y-82500000D03*
X120000000Y-82500000D03*
X125000000Y-82500000D03*
X135000000Y-77500000D03*
X135000000Y-72500000D03*
X135000000Y-67500000D03*
X132500000Y-70000000D03*
X137500000Y-70000000D03*
X142500000Y-70000000D03*
X142500000Y-75000000D03*
X142500000Y-80000000D03*
X140000000Y-77500000D03*
X140000000Y-72500000D03*
X137500000Y-75000000D03*
X137500000Y-80000000D03*
X132500000Y-80000000D03*
X132500000Y-75000000D03*
X130000000Y-72500000D03*
X130000000Y-77500000D03*
X127500000Y-80000000D03*
X127500000Y-75000000D03*
X125000000Y-77500000D03*
X122500000Y-75000000D03*
X122500000Y-80000000D03*
X122500000Y-85000000D03*
X117500000Y-85000000D03*
X117500000Y-80000000D03*
X117500000Y-75000000D03*
X120000000Y-77500000D03*
X124000000Y-87500000D03*
X120000000Y-87500000D03*
X115000000Y-87500000D03*
X107500000Y-80000000D03*
X107500000Y-85000000D03*
X112500000Y-80000000D03*
X115000000Y-77500000D03*
X97500000Y-80000000D03*
X105000000Y-87500000D03*
X142500000Y-60000000D03*
X142500000Y-55000000D03*
X142500000Y-50000000D03*
X107000000Y-64100000D03*
X107500000Y-64100000D03*
X107500000Y-65900000D03*
X107000000Y-65900000D03*
X133200000Y-65900000D03*
X117200000Y-67700000D03*
D34*
G04 #@! TO.N,+3V3*
X129900000Y-56000000D03*
X128600000Y-57300000D03*
X128600000Y-56000000D03*
X109600000Y-85200000D03*
X112200000Y-85200000D03*
D33*
X108700000Y-71900000D03*
D34*
X115700000Y-65500000D03*
X124300000Y-64700000D03*
G04 #@! TO.N,/SW_1_CTRL_1*
X114800000Y-63775000D03*
X110750000Y-71400000D03*
G04 #@! TO.N,/SW_1_CTRL_2*
X125200000Y-65700000D03*
X112099161Y-72099161D03*
X117425006Y-65097443D03*
G04 #@! TO.N,/SW_2_CTRL_1*
X110600000Y-73200000D03*
X124500000Y-66500000D03*
G04 #@! TD*
D35*
G04 #@! TO.N,Net-(C1-Pad1)*
X110675000Y-65000000D02*
X110050000Y-65000000D01*
D36*
X109435000Y-65000000D02*
X110050000Y-65000000D01*
G04 #@! TO.N,Net-(C1-Pad2)*
X106310402Y-65000000D02*
X108465000Y-65000000D01*
X98000000Y-65000000D02*
X106310402Y-65000000D01*
D37*
G04 #@! TO.N,+5V*
X139050000Y-54750000D02*
X138950000Y-54850000D01*
X138950000Y-52437500D02*
X139037500Y-52350000D01*
X138950000Y-54850000D02*
X138950000Y-52437500D01*
D38*
X121300000Y-46125000D02*
X121300000Y-47100000D01*
D39*
X122200000Y-48400000D02*
X122400000Y-48600000D01*
X121300000Y-47100000D02*
X121300000Y-47500000D01*
X121300000Y-47500000D02*
X122200000Y-48400000D01*
X137000000Y-52450000D02*
X138962500Y-52450000D01*
X136150000Y-52450000D02*
X137000000Y-52450000D01*
X132500000Y-48800000D02*
X136150000Y-52450000D01*
X122600000Y-48800000D02*
X132500000Y-48800000D01*
X122200000Y-48400000D02*
X122600000Y-48800000D01*
D40*
G04 #@! TO.N,GND*
X128500000Y-65000000D02*
X128250000Y-65250000D01*
X128500000Y-63775000D02*
X128500000Y-65000000D01*
X127500000Y-64500000D02*
X128250000Y-65250000D01*
X126775000Y-64500000D02*
X127500000Y-64500000D01*
X127500000Y-66000000D02*
X127750000Y-65750000D01*
X127500000Y-66725000D02*
X127500000Y-66000000D01*
X128500000Y-66725000D02*
X128500000Y-65500000D01*
X129000000Y-66000000D02*
X128250000Y-65250000D01*
X129725000Y-66000000D02*
X129000000Y-66000000D01*
X128500000Y-65500000D02*
X128250000Y-65250000D01*
X129725000Y-65500000D02*
X128500000Y-65500000D01*
X129000000Y-64500000D02*
X128250000Y-65250000D01*
X129725000Y-64500000D02*
X129000000Y-64500000D01*
D38*
X129750000Y-59850000D02*
X129750000Y-61050000D01*
X129750000Y-61050000D02*
X129800000Y-61100000D01*
D35*
X107550000Y-73150000D02*
X106950000Y-73150000D01*
X106950000Y-73150000D02*
X106900000Y-73200000D01*
D37*
X138950000Y-59450000D02*
X140650000Y-59450000D01*
X140650000Y-59450000D02*
X140700000Y-59500000D01*
D35*
X140837500Y-52450000D02*
X141850000Y-52450000D01*
D40*
X111900000Y-63275000D02*
X111900000Y-64500000D01*
X112900000Y-64000000D02*
X112150000Y-64750000D01*
X112900000Y-63275000D02*
X112900000Y-64000000D01*
X112900000Y-65500000D02*
X112150000Y-64750000D01*
X113625000Y-65500000D02*
X112900000Y-65500000D01*
X111400000Y-65500000D02*
X112150000Y-64750000D01*
X110675000Y-65500000D02*
X111400000Y-65500000D01*
X111900000Y-64500000D02*
X112150000Y-64750000D01*
X110675000Y-64500000D02*
X111900000Y-64500000D01*
X111400000Y-64000000D02*
X112150000Y-64750000D01*
X110675000Y-64000000D02*
X111400000Y-64000000D01*
D38*
X118700000Y-46125000D02*
X118700000Y-48100000D01*
D35*
X111900000Y-65500000D02*
X111650000Y-65250000D01*
X111900000Y-66225000D02*
X111900000Y-65500000D01*
X114800000Y-67216102D02*
X114758051Y-67258051D01*
X114800000Y-66485000D02*
X114800000Y-67216102D01*
X125250000Y-63765000D02*
X125250000Y-63250000D01*
X125250000Y-63250000D02*
X125250000Y-63000000D01*
D41*
G04 #@! TO.N,+3V3*
X129750000Y-57150000D02*
X132650000Y-57150000D01*
X138950000Y-57150000D02*
X132650000Y-57150000D01*
D35*
X114785000Y-65500000D02*
X114800000Y-65515000D01*
D42*
X129750000Y-57150000D02*
X129750000Y-55950000D01*
X129750000Y-55950000D02*
X129700000Y-55900000D01*
X129750000Y-57150000D02*
X128550000Y-57150000D01*
X128550000Y-57150000D02*
X128500000Y-57100000D01*
X128500000Y-56000000D02*
X128500000Y-56000000D01*
X129700000Y-55900000D02*
X128600000Y-55900000D01*
X128600000Y-55900000D02*
X128500000Y-56000000D01*
X128500000Y-56000000D02*
X128500000Y-57100000D01*
D43*
X109530000Y-86550000D02*
X109530000Y-85270000D01*
X109530000Y-85270000D02*
X109600000Y-85200000D01*
X112070000Y-86550000D02*
X112070000Y-85330000D01*
X112070000Y-85330000D02*
X112200000Y-85200000D01*
D35*
X109450000Y-71850000D02*
X108750000Y-71850000D01*
X108750000Y-71850000D02*
X108700000Y-71900000D01*
X114800000Y-65515000D02*
X115685000Y-65515000D01*
X115685000Y-65515000D02*
X115700000Y-65500000D01*
X126760000Y-65015000D02*
X126775000Y-65000000D01*
X126300000Y-65000000D02*
X126775000Y-65000000D01*
X114800000Y-65100000D02*
X114800000Y-65515000D01*
X113625000Y-65000000D02*
X114700000Y-65000000D01*
X114700000Y-65000000D02*
X114800000Y-65100000D01*
X126035000Y-64735000D02*
X125250000Y-64735000D01*
X126300000Y-65000000D02*
X126035000Y-64735000D01*
D38*
X125250000Y-64735000D02*
X124335000Y-64735000D01*
X124335000Y-64735000D02*
X124300000Y-64700000D01*
D35*
G04 #@! TO.N,Net-(C6-Pad2)*
X129725000Y-65000000D02*
X130300000Y-65000000D01*
D36*
X130300000Y-65000000D02*
X130965000Y-65000000D01*
G04 #@! TO.N,Net-(C6-Pad1)*
X131935000Y-65000000D02*
X142000000Y-65000000D01*
D35*
G04 #@! TO.N,/SW_1_RF_1*
X111400000Y-66225000D02*
X111400000Y-66800000D01*
D36*
X116572500Y-72172500D02*
X118575000Y-72172500D01*
X111400000Y-66800000D02*
X111400000Y-67000000D01*
X111400000Y-67000000D02*
X116572500Y-72172500D01*
D35*
G04 #@! TO.N,/SW_2_RF_1*
X129000000Y-63775000D02*
X129000000Y-63250000D01*
D36*
X124200000Y-58200000D02*
X121825000Y-58200000D01*
X129005010Y-63005010D02*
X124200000Y-58200000D01*
X129000000Y-63250000D02*
X129005010Y-63244990D01*
X129005010Y-63244990D02*
X129005010Y-63005010D01*
D35*
G04 #@! TO.N,/SW_2_RF_2*
X128000000Y-63775000D02*
X128000000Y-63250000D01*
D36*
X127050000Y-62200000D02*
X121825000Y-62200000D01*
X128000000Y-63250000D02*
X128000000Y-63150000D01*
X128000000Y-63150000D02*
X127050000Y-62200000D01*
D35*
G04 #@! TO.N,/SW_1_RF_2*
X112400000Y-66225000D02*
X112400000Y-66800000D01*
D36*
X113750000Y-68250000D02*
X118575000Y-68250000D01*
X112400000Y-66800000D02*
X112400000Y-66900000D01*
X112400000Y-66900000D02*
X113750000Y-68250000D01*
D35*
G04 #@! TO.N,/SW_2_RF_3*
X129000000Y-66725000D02*
X129000000Y-67350000D01*
D36*
X129000000Y-67650000D02*
X129000000Y-67350000D01*
X124477500Y-72172500D02*
X121825000Y-72172500D01*
X129000000Y-67650000D02*
X124477500Y-72172500D01*
D35*
G04 #@! TO.N,/SW_1_RF_3*
X111400000Y-63275000D02*
X111400000Y-62700000D01*
D36*
X111400000Y-62500000D02*
X111400000Y-62700000D01*
X118575000Y-58200000D02*
X115700000Y-58200000D01*
X115700000Y-58200000D02*
X111400000Y-62500000D01*
D35*
G04 #@! TO.N,/SW_1_RF_4*
X112400000Y-63275000D02*
X112400000Y-62700000D01*
D36*
X112650000Y-62450000D02*
X112400000Y-62700000D01*
X118575000Y-62200000D02*
X112900000Y-62200000D01*
X112900000Y-62200000D02*
X112650000Y-62450000D01*
D35*
G04 #@! TO.N,/SW_2_RF_4*
X128000000Y-66725000D02*
X128000000Y-67350000D01*
D36*
X122655000Y-68250000D02*
X121825000Y-68250000D01*
X128000000Y-67350000D02*
X127100000Y-68250000D01*
X127100000Y-68250000D02*
X122655000Y-68250000D01*
D43*
G04 #@! TO.N,/SW_1_CTRL_1*
X109530000Y-75330000D02*
X109500000Y-75300000D01*
X109530000Y-77650000D02*
X109530000Y-75330000D01*
D35*
X113625000Y-64000000D02*
X114100000Y-64000000D01*
X114100000Y-64000000D02*
X114575000Y-64000000D01*
X114575000Y-64000000D02*
X114800000Y-63775000D01*
X108600000Y-75100000D02*
X108600000Y-72600000D01*
X108255000Y-72500000D02*
X107550000Y-72500000D01*
X110750000Y-71400000D02*
X109650000Y-72500000D01*
X109650000Y-72500000D02*
X108255000Y-72500000D01*
X108800000Y-75300000D02*
X109500000Y-75300000D01*
X108600000Y-75100000D02*
X108800000Y-75300000D01*
D43*
G04 #@! TO.N,/SW_1_CTRL_2*
X112070000Y-75207500D02*
X112062500Y-75200000D01*
X112070000Y-77650000D02*
X112070000Y-75207500D01*
D35*
X125400000Y-65500000D02*
X125200000Y-65700000D01*
X126775000Y-65500000D02*
X125400000Y-65500000D01*
X112062500Y-75200000D02*
X112062500Y-72135822D01*
X112062500Y-72135822D02*
X112099161Y-72099161D01*
X116827563Y-64500000D02*
X117025007Y-64697444D01*
X117025007Y-64697444D02*
X117425006Y-65097443D01*
X113625000Y-64500000D02*
X116827563Y-64500000D01*
G04 #@! TO.N,/SW_2_CTRL_1*
X126775000Y-66000000D02*
X126555568Y-66000000D01*
X109450000Y-73150000D02*
X110550000Y-73150000D01*
X110550000Y-73150000D02*
X110600000Y-73200000D01*
X125065685Y-66500000D02*
X124500000Y-66500000D01*
X125650000Y-66500000D02*
X125065685Y-66500000D01*
X126150000Y-66000000D02*
X125650000Y-66500000D01*
X126775000Y-66000000D02*
X126150000Y-66000000D01*
G04 #@! TD*
D44*
G04 #@! TO.N,GND*
G36*
X114465000Y-43164250D02*
X114623750Y-43323000D01*
X115923000Y-43323000D01*
X115923000Y-43303000D01*
X116177000Y-43303000D01*
X116177000Y-43323000D01*
X118723000Y-43323000D01*
X118723000Y-43303000D01*
X118977000Y-43303000D01*
X118977000Y-43323000D01*
X121023000Y-43323000D01*
X121023000Y-43303000D01*
X121277000Y-43303000D01*
X121277000Y-43323000D01*
X123823000Y-43323000D01*
X123823000Y-43303000D01*
X124077000Y-43303000D01*
X124077000Y-43323000D01*
X125376250Y-43323000D01*
X125535000Y-43164250D01*
X125535000Y-42702000D01*
X138968734Y-42702000D01*
X139760619Y-42772674D01*
X140497187Y-42974176D01*
X141186439Y-43302932D01*
X141806581Y-43748550D01*
X142338003Y-44296934D01*
X142763921Y-44930768D01*
X143070863Y-45629999D01*
X143250429Y-46377944D01*
X143298000Y-47025744D01*
X143298000Y-63725717D01*
X140200000Y-63725717D01*
X139955357Y-63774380D01*
X139747959Y-63912959D01*
X139609380Y-64120357D01*
X139589957Y-64218000D01*
X132559280Y-64218000D01*
X132383589Y-64100607D01*
X132082500Y-64040717D01*
X131787500Y-64040717D01*
X131486411Y-64100607D01*
X131450000Y-64124936D01*
X131413589Y-64100607D01*
X131112500Y-64040717D01*
X130817500Y-64040717D01*
X130612468Y-64081500D01*
X130533845Y-63954676D01*
X130280716Y-63772759D01*
X129977239Y-63701557D01*
X129852002Y-63865873D01*
X129852002Y-63715000D01*
X129777000Y-63715000D01*
X129777000Y-63473474D01*
X129766941Y-63422904D01*
X129787010Y-63322009D01*
X129787010Y-63322005D01*
X129802329Y-63244991D01*
X129787010Y-63167977D01*
X129787010Y-63082023D01*
X129802329Y-63005009D01*
X129787010Y-62927995D01*
X129787010Y-62927992D01*
X129741638Y-62699889D01*
X129568800Y-62441220D01*
X129503508Y-62397593D01*
X127241665Y-60135750D01*
X128440000Y-60135750D01*
X128440000Y-60676309D01*
X128536673Y-60909698D01*
X128715301Y-61088327D01*
X128948690Y-61185000D01*
X129464250Y-61185000D01*
X129623000Y-61026250D01*
X129623000Y-59977000D01*
X129877000Y-59977000D01*
X129877000Y-61026250D01*
X130035750Y-61185000D01*
X130551310Y-61185000D01*
X130784699Y-61088327D01*
X130963327Y-60909698D01*
X131060000Y-60676309D01*
X131060000Y-60135750D01*
X130901250Y-59977000D01*
X129877000Y-59977000D01*
X129623000Y-59977000D01*
X128598750Y-59977000D01*
X128440000Y-60135750D01*
X127241665Y-60135750D01*
X126841665Y-59735750D01*
X137315000Y-59735750D01*
X137315000Y-60326310D01*
X137411673Y-60559699D01*
X137590302Y-60738327D01*
X137823691Y-60835000D01*
X138664250Y-60835000D01*
X138823000Y-60676250D01*
X138823000Y-59577000D01*
X139077000Y-59577000D01*
X139077000Y-60676250D01*
X139235750Y-60835000D01*
X140076309Y-60835000D01*
X140309698Y-60738327D01*
X140488327Y-60559699D01*
X140585000Y-60326310D01*
X140585000Y-59735750D01*
X140426250Y-59577000D01*
X139077000Y-59577000D01*
X138823000Y-59577000D01*
X137473750Y-59577000D01*
X137315000Y-59735750D01*
X126841665Y-59735750D01*
X126129606Y-59023691D01*
X128440000Y-59023691D01*
X128440000Y-59564250D01*
X128598750Y-59723000D01*
X129623000Y-59723000D01*
X129623000Y-58673750D01*
X129464250Y-58515000D01*
X128948690Y-58515000D01*
X128715301Y-58611673D01*
X128536673Y-58790302D01*
X128440000Y-59023691D01*
X126129606Y-59023691D01*
X124807419Y-57701505D01*
X124763790Y-57636210D01*
X124505121Y-57463372D01*
X124277019Y-57418000D01*
X124277014Y-57418000D01*
X124200000Y-57402681D01*
X124122986Y-57418000D01*
X122984283Y-57418000D01*
X122984283Y-57350000D01*
X122935620Y-57105357D01*
X122797041Y-56897959D01*
X122589643Y-56759380D01*
X122345000Y-56710717D01*
X121305000Y-56710717D01*
X121060357Y-56759380D01*
X120852959Y-56897959D01*
X120714380Y-57105357D01*
X120665717Y-57350000D01*
X120665717Y-59150000D01*
X120714380Y-59394643D01*
X120852959Y-59602041D01*
X121060357Y-59740620D01*
X121305000Y-59789283D01*
X122345000Y-59789283D01*
X122589643Y-59740620D01*
X122797041Y-59602041D01*
X122935620Y-59394643D01*
X122984283Y-59150000D01*
X122984283Y-58982000D01*
X123876086Y-58982000D01*
X126312085Y-61418000D01*
X123034283Y-61418000D01*
X123034283Y-61350000D01*
X122985620Y-61105357D01*
X122847041Y-60897959D01*
X122639643Y-60759380D01*
X122395000Y-60710717D01*
X121355000Y-60710717D01*
X121110357Y-60759380D01*
X120902959Y-60897959D01*
X120764380Y-61105357D01*
X120715717Y-61350000D01*
X120715717Y-63150000D01*
X120764380Y-63394643D01*
X120902959Y-63602041D01*
X121110357Y-63740620D01*
X121355000Y-63789283D01*
X122395000Y-63789283D01*
X122639643Y-63740620D01*
X122847041Y-63602041D01*
X122985620Y-63394643D01*
X123034283Y-63150000D01*
X123034283Y-62982000D01*
X124519974Y-62982000D01*
X124391673Y-63110302D01*
X124295000Y-63343691D01*
X124295000Y-63479250D01*
X124453748Y-63637998D01*
X124295000Y-63637998D01*
X124295000Y-63673000D01*
X124095717Y-63673000D01*
X123718251Y-63829352D01*
X123429352Y-64118251D01*
X123273000Y-64495717D01*
X123273000Y-64904283D01*
X123429352Y-65281749D01*
X123718251Y-65570648D01*
X123901182Y-65646421D01*
X123629352Y-65918251D01*
X123473000Y-66295717D01*
X123473000Y-66704283D01*
X123629352Y-67081749D01*
X123918251Y-67370648D01*
X124153279Y-67468000D01*
X122984283Y-67468000D01*
X122984283Y-67350000D01*
X122935620Y-67105357D01*
X122797041Y-66897959D01*
X122589643Y-66759380D01*
X122345000Y-66710717D01*
X121305000Y-66710717D01*
X121060357Y-66759380D01*
X120852959Y-66897959D01*
X120714380Y-67105357D01*
X120665717Y-67350000D01*
X120665717Y-69150000D01*
X120714380Y-69394643D01*
X120852959Y-69602041D01*
X121060357Y-69740620D01*
X121305000Y-69789283D01*
X122345000Y-69789283D01*
X122589643Y-69740620D01*
X122797041Y-69602041D01*
X122935620Y-69394643D01*
X122984283Y-69150000D01*
X122984283Y-69032000D01*
X126512085Y-69032000D01*
X124153586Y-71390500D01*
X122984283Y-71390500D01*
X122984283Y-71272500D01*
X122935620Y-71027857D01*
X122797041Y-70820459D01*
X122589643Y-70681880D01*
X122345000Y-70633217D01*
X121305000Y-70633217D01*
X121060357Y-70681880D01*
X120852959Y-70820459D01*
X120714380Y-71027857D01*
X120665717Y-71272500D01*
X120665717Y-73072500D01*
X120714380Y-73317143D01*
X120852959Y-73524541D01*
X121060357Y-73663120D01*
X121305000Y-73711783D01*
X122345000Y-73711783D01*
X122589643Y-73663120D01*
X122797041Y-73524541D01*
X122935620Y-73317143D01*
X122984283Y-73072500D01*
X122984283Y-72954500D01*
X124400486Y-72954500D01*
X124477500Y-72969819D01*
X124554514Y-72954500D01*
X124554519Y-72954500D01*
X124782621Y-72909128D01*
X125041290Y-72736290D01*
X125084919Y-72670995D01*
X129498499Y-68257416D01*
X129563790Y-68213790D01*
X129628643Y-68116732D01*
X129736627Y-67955122D01*
X129736628Y-67955121D01*
X129782000Y-67727019D01*
X129782000Y-67727014D01*
X129797319Y-67650000D01*
X129782000Y-67572986D01*
X129782000Y-67272982D01*
X129754989Y-67137185D01*
X129777000Y-67026526D01*
X129777000Y-66785000D01*
X129852002Y-66785000D01*
X129852002Y-66634127D01*
X129977239Y-66798443D01*
X130280716Y-66727241D01*
X130533845Y-66545324D01*
X130698089Y-66280386D01*
X130710056Y-66196316D01*
X130571743Y-66075000D01*
X130492552Y-66075000D01*
X130533845Y-66045324D01*
X130612468Y-65918500D01*
X130817500Y-65959283D01*
X131112500Y-65959283D01*
X131413589Y-65899393D01*
X131450000Y-65875064D01*
X131486411Y-65899393D01*
X131787500Y-65959283D01*
X132082500Y-65959283D01*
X132383589Y-65899393D01*
X132559280Y-65782000D01*
X139589957Y-65782000D01*
X139609380Y-65879643D01*
X139747959Y-66087041D01*
X139955357Y-66225620D01*
X140200000Y-66274283D01*
X143298001Y-66274283D01*
X143298001Y-84968723D01*
X143227326Y-85760619D01*
X143025824Y-86497187D01*
X142697068Y-87186439D01*
X142251452Y-87806578D01*
X141703066Y-88338003D01*
X141069232Y-88763921D01*
X140369997Y-89070864D01*
X139622056Y-89250429D01*
X138974256Y-89298000D01*
X101031266Y-89298000D01*
X100239381Y-89227326D01*
X99502813Y-89025824D01*
X98813561Y-88697068D01*
X98193422Y-88251452D01*
X97698671Y-87740910D01*
X98438695Y-87740910D01*
X98805640Y-88236343D01*
X100211171Y-88829736D01*
X101736793Y-88840087D01*
X103150246Y-88265819D01*
X103194360Y-88236343D01*
X103561305Y-87740910D01*
X101000000Y-85179605D01*
X98438695Y-87740910D01*
X97698671Y-87740910D01*
X97661997Y-87703066D01*
X97236079Y-87069232D01*
X96929136Y-86369997D01*
X96777117Y-85736793D01*
X97159913Y-85736793D01*
X97734181Y-87150246D01*
X97763657Y-87194360D01*
X98259090Y-87561305D01*
X100820395Y-85000000D01*
X101179605Y-85000000D01*
X103740910Y-87561305D01*
X104236343Y-87194360D01*
X104825019Y-85800000D01*
X108340717Y-85800000D01*
X108340717Y-87300000D01*
X108389380Y-87544643D01*
X108527959Y-87752041D01*
X108735357Y-87890620D01*
X108980000Y-87939283D01*
X110080000Y-87939283D01*
X110324643Y-87890620D01*
X110532041Y-87752041D01*
X110670620Y-87544643D01*
X110719283Y-87300000D01*
X110719283Y-85800000D01*
X110880717Y-85800000D01*
X110880717Y-87300000D01*
X110929380Y-87544643D01*
X111067959Y-87752041D01*
X111275357Y-87890620D01*
X111520000Y-87939283D01*
X112620000Y-87939283D01*
X112864643Y-87890620D01*
X113072041Y-87752041D01*
X113210620Y-87544643D01*
X113259283Y-87300000D01*
X113259283Y-85800000D01*
X113239392Y-85700000D01*
X128273000Y-85700000D01*
X128273000Y-88000000D01*
X128282667Y-88048601D01*
X128310197Y-88089803D01*
X128351399Y-88117333D01*
X128400000Y-88127000D01*
X134500000Y-88127000D01*
X134548601Y-88117333D01*
X134589803Y-88089803D01*
X134617333Y-88048601D01*
X134627000Y-88000000D01*
X134627000Y-87740910D01*
X136438695Y-87740910D01*
X136805640Y-88236343D01*
X138211171Y-88829736D01*
X139736793Y-88840087D01*
X141150246Y-88265819D01*
X141194360Y-88236343D01*
X141561305Y-87740910D01*
X139000000Y-85179605D01*
X136438695Y-87740910D01*
X134627000Y-87740910D01*
X134627000Y-85736793D01*
X135159913Y-85736793D01*
X135734181Y-87150246D01*
X135763657Y-87194360D01*
X136259090Y-87561305D01*
X138820395Y-85000000D01*
X139179605Y-85000000D01*
X141740910Y-87561305D01*
X142236343Y-87194360D01*
X142829736Y-85788829D01*
X142840087Y-84263207D01*
X142265819Y-82849754D01*
X142236343Y-82805640D01*
X141740910Y-82438695D01*
X139179605Y-85000000D01*
X138820395Y-85000000D01*
X136259090Y-82438695D01*
X135763657Y-82805640D01*
X135170264Y-84211171D01*
X135159913Y-85736793D01*
X134627000Y-85736793D01*
X134627000Y-85700000D01*
X134617333Y-85651399D01*
X134589803Y-85610197D01*
X134548601Y-85582667D01*
X134500000Y-85573000D01*
X128400000Y-85573000D01*
X128351399Y-85582667D01*
X128310197Y-85610197D01*
X128282667Y-85651399D01*
X128273000Y-85700000D01*
X113239392Y-85700000D01*
X113210620Y-85555357D01*
X113182102Y-85512677D01*
X113227000Y-85404283D01*
X113227000Y-84995717D01*
X113070648Y-84618251D01*
X112781749Y-84329352D01*
X112404283Y-84173000D01*
X111995717Y-84173000D01*
X111618251Y-84329352D01*
X111329352Y-84618251D01*
X111173000Y-84995717D01*
X111173000Y-85277773D01*
X111067959Y-85347959D01*
X110929380Y-85555357D01*
X110880717Y-85800000D01*
X110719283Y-85800000D01*
X110670620Y-85555357D01*
X110605063Y-85457244D01*
X110627000Y-85404283D01*
X110627000Y-84995717D01*
X110470648Y-84618251D01*
X110181749Y-84329352D01*
X109804283Y-84173000D01*
X109395717Y-84173000D01*
X109018251Y-84329352D01*
X108729352Y-84618251D01*
X108573000Y-84995717D01*
X108573000Y-85317864D01*
X108527959Y-85347959D01*
X108389380Y-85555357D01*
X108340717Y-85800000D01*
X104825019Y-85800000D01*
X104829736Y-85788829D01*
X104840087Y-84263207D01*
X104265819Y-82849754D01*
X104236343Y-82805640D01*
X103740910Y-82438695D01*
X101179605Y-85000000D01*
X100820395Y-85000000D01*
X98259090Y-82438695D01*
X97763657Y-82805640D01*
X97170264Y-84211171D01*
X97159913Y-85736793D01*
X96777117Y-85736793D01*
X96749571Y-85622056D01*
X96702000Y-84974256D01*
X96702000Y-82259090D01*
X98438695Y-82259090D01*
X101000000Y-84820395D01*
X103561305Y-82259090D01*
X136438695Y-82259090D01*
X139000000Y-84820395D01*
X141561305Y-82259090D01*
X141194360Y-81763657D01*
X139788829Y-81170264D01*
X138263207Y-81159913D01*
X136849754Y-81734181D01*
X136805640Y-81763657D01*
X136438695Y-82259090D01*
X103561305Y-82259090D01*
X103194360Y-81763657D01*
X101788829Y-81170264D01*
X100263207Y-81159913D01*
X98849754Y-81734181D01*
X98805640Y-81763657D01*
X98438695Y-82259090D01*
X96702000Y-82259090D01*
X96702000Y-75585750D01*
X106502500Y-75585750D01*
X106502500Y-76126310D01*
X106599173Y-76359699D01*
X106777802Y-76538327D01*
X107011191Y-76635000D01*
X107339250Y-76635000D01*
X107498000Y-76476250D01*
X107498000Y-75427000D01*
X106661250Y-75427000D01*
X106502500Y-75585750D01*
X96702000Y-75585750D01*
X96702000Y-74473690D01*
X106502500Y-74473690D01*
X106502500Y-75014250D01*
X106661250Y-75173000D01*
X107498000Y-75173000D01*
X107498000Y-74123750D01*
X107339250Y-73965000D01*
X107284250Y-73965000D01*
X107423000Y-73826250D01*
X107423000Y-73339283D01*
X107677000Y-73339283D01*
X107677000Y-73826250D01*
X107835750Y-73985000D01*
X107848000Y-73985000D01*
X107848000Y-74027750D01*
X107752000Y-74123750D01*
X107752000Y-75173000D01*
X107772000Y-75173000D01*
X107772000Y-75427000D01*
X107752000Y-75427000D01*
X107752000Y-76476250D01*
X107910750Y-76635000D01*
X108238809Y-76635000D01*
X108465809Y-76540974D01*
X108389380Y-76655357D01*
X108340717Y-76900000D01*
X108340717Y-78400000D01*
X108389380Y-78644643D01*
X108527959Y-78852041D01*
X108735357Y-78990620D01*
X108980000Y-79039283D01*
X110080000Y-79039283D01*
X110324643Y-78990620D01*
X110532041Y-78852041D01*
X110670620Y-78644643D01*
X110719283Y-78400000D01*
X110719283Y-76900000D01*
X110670620Y-76655357D01*
X110532041Y-76447959D01*
X110387642Y-76351475D01*
X110559566Y-76094172D01*
X110626783Y-75756250D01*
X110626783Y-74843750D01*
X110559566Y-74505828D01*
X110368149Y-74219351D01*
X110353304Y-74209432D01*
X110395717Y-74227000D01*
X110804283Y-74227000D01*
X111181749Y-74070648D01*
X111310500Y-73941897D01*
X111310500Y-74041743D01*
X111194351Y-74119351D01*
X111002934Y-74405828D01*
X110935717Y-74743750D01*
X110935717Y-75656250D01*
X111002934Y-75994172D01*
X111194351Y-76280649D01*
X111256354Y-76322078D01*
X111067959Y-76447959D01*
X110929380Y-76655357D01*
X110880717Y-76900000D01*
X110880717Y-78400000D01*
X110929380Y-78644643D01*
X111067959Y-78852041D01*
X111275357Y-78990620D01*
X111520000Y-79039283D01*
X112620000Y-79039283D01*
X112864643Y-78990620D01*
X113072041Y-78852041D01*
X113210620Y-78644643D01*
X113259283Y-78400000D01*
X113259283Y-76900000D01*
X113210620Y-76655357D01*
X113072041Y-76447959D01*
X112876146Y-76317066D01*
X112930649Y-76280649D01*
X112931440Y-76279466D01*
X113090302Y-76438327D01*
X113323691Y-76535000D01*
X113651750Y-76535000D01*
X113810500Y-76376250D01*
X113810500Y-75327000D01*
X114064500Y-75327000D01*
X114064500Y-76376250D01*
X114223250Y-76535000D01*
X114551309Y-76535000D01*
X114784698Y-76438327D01*
X114963327Y-76259699D01*
X115060000Y-76026310D01*
X115060000Y-75485750D01*
X114901250Y-75327000D01*
X114064500Y-75327000D01*
X113810500Y-75327000D01*
X113790500Y-75327000D01*
X113790500Y-75073000D01*
X113810500Y-75073000D01*
X113810500Y-74023750D01*
X114064500Y-74023750D01*
X114064500Y-75073000D01*
X114901250Y-75073000D01*
X115060000Y-74914250D01*
X115060000Y-74373690D01*
X114963327Y-74140301D01*
X114784698Y-73961673D01*
X114551309Y-73865000D01*
X114223250Y-73865000D01*
X114064500Y-74023750D01*
X113810500Y-74023750D01*
X113651750Y-73865000D01*
X113323691Y-73865000D01*
X113090302Y-73961673D01*
X112931440Y-74120534D01*
X112930649Y-74119351D01*
X112814500Y-74041743D01*
X112814500Y-72836219D01*
X112969809Y-72680910D01*
X113126161Y-72303444D01*
X113126161Y-71894878D01*
X112969809Y-71517412D01*
X112680910Y-71228513D01*
X112303444Y-71072161D01*
X111894878Y-71072161D01*
X111750579Y-71131932D01*
X111620648Y-70818251D01*
X111331749Y-70529352D01*
X110954283Y-70373000D01*
X110545717Y-70373000D01*
X110168251Y-70529352D01*
X109879352Y-70818251D01*
X109797755Y-71015243D01*
X109775000Y-71010717D01*
X109125000Y-71010717D01*
X108891565Y-71057151D01*
X108869473Y-71048000D01*
X108530527Y-71048000D01*
X108266367Y-71157418D01*
X108119643Y-71059380D01*
X107875000Y-71010717D01*
X107225000Y-71010717D01*
X106980357Y-71059380D01*
X106772959Y-71197959D01*
X106634380Y-71405357D01*
X106585717Y-71650000D01*
X106585717Y-72050000D01*
X106610581Y-72175000D01*
X106585717Y-72300000D01*
X106585717Y-72700000D01*
X106603728Y-72790547D01*
X106590000Y-72823690D01*
X106590000Y-72891250D01*
X106632142Y-72933392D01*
X106634380Y-72944643D01*
X106772959Y-73152041D01*
X106919565Y-73250000D01*
X106748750Y-73250000D01*
X106590000Y-73408750D01*
X106590000Y-73476310D01*
X106686673Y-73709699D01*
X106865302Y-73888327D01*
X107050407Y-73965000D01*
X107011191Y-73965000D01*
X106777802Y-74061673D01*
X106599173Y-74240301D01*
X106502500Y-74473690D01*
X96702000Y-74473690D01*
X96702000Y-66274283D01*
X99800000Y-66274283D01*
X100044643Y-66225620D01*
X100252041Y-66087041D01*
X100390620Y-65879643D01*
X100410043Y-65782000D01*
X107840720Y-65782000D01*
X108016411Y-65899393D01*
X108317500Y-65959283D01*
X108612500Y-65959283D01*
X108913589Y-65899393D01*
X108950000Y-65875064D01*
X108986411Y-65899393D01*
X109287500Y-65959283D01*
X109582500Y-65959283D01*
X109787532Y-65918500D01*
X109866155Y-66045324D01*
X110119284Y-66227241D01*
X110422761Y-66298443D01*
X110547998Y-66134127D01*
X110547998Y-66285000D01*
X110623000Y-66285000D01*
X110623000Y-66526525D01*
X110640039Y-66612185D01*
X110618000Y-66722982D01*
X110618000Y-66922986D01*
X110602681Y-67000000D01*
X110618000Y-67077014D01*
X110618000Y-67077019D01*
X110663372Y-67305121D01*
X110836210Y-67563790D01*
X110901504Y-67607418D01*
X115965083Y-72670998D01*
X116008710Y-72736290D01*
X116074002Y-72779917D01*
X116074003Y-72779918D01*
X116267378Y-72909128D01*
X116321266Y-72919847D01*
X116495481Y-72954500D01*
X116495484Y-72954500D01*
X116572500Y-72969819D01*
X116649516Y-72954500D01*
X117415717Y-72954500D01*
X117415717Y-73072500D01*
X117464380Y-73317143D01*
X117602959Y-73524541D01*
X117810357Y-73663120D01*
X118055000Y-73711783D01*
X119095000Y-73711783D01*
X119339643Y-73663120D01*
X119547041Y-73524541D01*
X119685620Y-73317143D01*
X119734283Y-73072500D01*
X119734283Y-71272500D01*
X119685620Y-71027857D01*
X119547041Y-70820459D01*
X119339643Y-70681880D01*
X119095000Y-70633217D01*
X118055000Y-70633217D01*
X117810357Y-70681880D01*
X117602959Y-70820459D01*
X117464380Y-71027857D01*
X117415717Y-71272500D01*
X117415717Y-71390500D01*
X116896415Y-71390500D01*
X114537914Y-69032000D01*
X117415717Y-69032000D01*
X117415717Y-69150000D01*
X117464380Y-69394643D01*
X117602959Y-69602041D01*
X117810357Y-69740620D01*
X118055000Y-69789283D01*
X119095000Y-69789283D01*
X119339643Y-69740620D01*
X119547041Y-69602041D01*
X119685620Y-69394643D01*
X119734283Y-69150000D01*
X119734283Y-67350000D01*
X119685620Y-67105357D01*
X119547041Y-66897959D01*
X119339643Y-66759380D01*
X119095000Y-66710717D01*
X118055000Y-66710717D01*
X117810357Y-66759380D01*
X117602959Y-66897959D01*
X117464380Y-67105357D01*
X117415717Y-67350000D01*
X117415717Y-67468000D01*
X114073915Y-67468000D01*
X113522636Y-66916722D01*
X113620171Y-66770750D01*
X113845000Y-66770750D01*
X113845000Y-66906309D01*
X113941673Y-67139698D01*
X114120301Y-67318327D01*
X114353690Y-67415000D01*
X114514250Y-67415000D01*
X114673000Y-67256250D01*
X114673000Y-66612000D01*
X114003750Y-66612000D01*
X113845000Y-66770750D01*
X113620171Y-66770750D01*
X113631918Y-66753170D01*
X113677000Y-66526526D01*
X113677000Y-66285000D01*
X113752002Y-66285000D01*
X113752002Y-66134127D01*
X113877239Y-66298443D01*
X113931469Y-66285719D01*
X114003750Y-66358000D01*
X114279428Y-66358000D01*
X114326411Y-66389393D01*
X114627500Y-66449283D01*
X114947000Y-66449283D01*
X114947000Y-66612000D01*
X114927000Y-66612000D01*
X114927000Y-67256250D01*
X115085750Y-67415000D01*
X115246310Y-67415000D01*
X115479699Y-67318327D01*
X115658327Y-67139698D01*
X115755000Y-66906309D01*
X115755000Y-66770750D01*
X115596252Y-66612002D01*
X115755000Y-66612002D01*
X115755000Y-66527000D01*
X115904283Y-66527000D01*
X116281749Y-66370648D01*
X116570648Y-66081749D01*
X116683783Y-65808617D01*
X116843257Y-65968091D01*
X117220723Y-66124443D01*
X117629289Y-66124443D01*
X118006755Y-65968091D01*
X118295654Y-65679192D01*
X118452006Y-65301726D01*
X118452006Y-64893160D01*
X118295654Y-64515694D01*
X118006755Y-64226795D01*
X117629289Y-64070443D01*
X117461493Y-64070443D01*
X117411679Y-64020629D01*
X117369724Y-63957839D01*
X117120979Y-63791632D01*
X116901626Y-63748000D01*
X116901622Y-63748000D01*
X116827563Y-63733269D01*
X116753504Y-63748000D01*
X115827000Y-63748000D01*
X115827000Y-63570717D01*
X115670648Y-63193251D01*
X115459397Y-62982000D01*
X117465717Y-62982000D01*
X117465717Y-63150000D01*
X117514380Y-63394643D01*
X117652959Y-63602041D01*
X117860357Y-63740620D01*
X118105000Y-63789283D01*
X119145000Y-63789283D01*
X119389643Y-63740620D01*
X119597041Y-63602041D01*
X119735620Y-63394643D01*
X119784283Y-63150000D01*
X119784283Y-61350000D01*
X119735620Y-61105357D01*
X119597041Y-60897959D01*
X119389643Y-60759380D01*
X119145000Y-60710717D01*
X118105000Y-60710717D01*
X117860357Y-60759380D01*
X117652959Y-60897959D01*
X117514380Y-61105357D01*
X117465717Y-61350000D01*
X117465717Y-61418000D01*
X113587914Y-61418000D01*
X116023915Y-58982000D01*
X117415717Y-58982000D01*
X117415717Y-59150000D01*
X117464380Y-59394643D01*
X117602959Y-59602041D01*
X117810357Y-59740620D01*
X118055000Y-59789283D01*
X119095000Y-59789283D01*
X119339643Y-59740620D01*
X119547041Y-59602041D01*
X119685620Y-59394643D01*
X119734283Y-59150000D01*
X119734283Y-57350000D01*
X119685620Y-57105357D01*
X119547041Y-56897959D01*
X119339643Y-56759380D01*
X119095000Y-56710717D01*
X118055000Y-56710717D01*
X117810357Y-56759380D01*
X117602959Y-56897959D01*
X117464380Y-57105357D01*
X117415717Y-57350000D01*
X117415717Y-57418000D01*
X115777013Y-57418000D01*
X115699999Y-57402681D01*
X115622985Y-57418000D01*
X115622981Y-57418000D01*
X115394879Y-57463372D01*
X115228232Y-57574723D01*
X115201504Y-57592582D01*
X115136210Y-57636210D01*
X115092583Y-57701502D01*
X110901505Y-61892581D01*
X110836210Y-61936210D01*
X110663372Y-62194880D01*
X110618000Y-62422982D01*
X110618000Y-62422986D01*
X110602681Y-62500000D01*
X110618000Y-62577014D01*
X110618000Y-62777019D01*
X110640039Y-62887815D01*
X110623000Y-62973474D01*
X110623000Y-63215000D01*
X110547998Y-63215000D01*
X110547998Y-63365873D01*
X110422761Y-63201557D01*
X110119284Y-63272759D01*
X109866155Y-63454676D01*
X109701911Y-63719614D01*
X109689944Y-63803684D01*
X109828257Y-63925000D01*
X109907448Y-63925000D01*
X109866155Y-63954676D01*
X109787532Y-64081500D01*
X109582500Y-64040717D01*
X109287500Y-64040717D01*
X108986411Y-64100607D01*
X108950000Y-64124936D01*
X108913589Y-64100607D01*
X108612500Y-64040717D01*
X108317500Y-64040717D01*
X108016411Y-64100607D01*
X107840720Y-64218000D01*
X100410043Y-64218000D01*
X100390620Y-64120357D01*
X100252041Y-63912959D01*
X100044643Y-63774380D01*
X99800000Y-63725717D01*
X96702000Y-63725717D01*
X96702000Y-49740910D01*
X98438695Y-49740910D01*
X98805640Y-50236343D01*
X100211171Y-50829736D01*
X101736793Y-50840087D01*
X103150246Y-50265819D01*
X103194360Y-50236343D01*
X103561305Y-49740910D01*
X101000000Y-47179605D01*
X98438695Y-49740910D01*
X96702000Y-49740910D01*
X96702000Y-47736793D01*
X97159913Y-47736793D01*
X97734181Y-49150246D01*
X97763657Y-49194360D01*
X98259090Y-49561305D01*
X100820395Y-47000000D01*
X101179605Y-47000000D01*
X103740910Y-49561305D01*
X104236343Y-49194360D01*
X104829736Y-47788829D01*
X104840087Y-46263207D01*
X104727360Y-45985750D01*
X115590000Y-45985750D01*
X115590000Y-46326310D01*
X115686673Y-46559699D01*
X115865302Y-46738327D01*
X116098691Y-46835000D01*
X116614250Y-46835000D01*
X116773000Y-46676250D01*
X116773000Y-45827000D01*
X115748750Y-45827000D01*
X115590000Y-45985750D01*
X104727360Y-45985750D01*
X104265819Y-44849754D01*
X104236343Y-44805640D01*
X103740910Y-44438695D01*
X101179605Y-47000000D01*
X100820395Y-47000000D01*
X98259090Y-44438695D01*
X97763657Y-44805640D01*
X97170264Y-46211171D01*
X97159913Y-47736793D01*
X96702000Y-47736793D01*
X96702000Y-47031266D01*
X96772674Y-46239381D01*
X96974176Y-45502813D01*
X97302932Y-44813561D01*
X97701360Y-44259090D01*
X98438695Y-44259090D01*
X101000000Y-46820395D01*
X103561305Y-44259090D01*
X103194360Y-43763657D01*
X103128259Y-43735750D01*
X114465000Y-43735750D01*
X114465000Y-44526310D01*
X114561673Y-44759699D01*
X114740302Y-44938327D01*
X114973691Y-45035000D01*
X115606026Y-45035000D01*
X115590000Y-45073690D01*
X115590000Y-45414250D01*
X115748750Y-45573000D01*
X116773000Y-45573000D01*
X116773000Y-45553000D01*
X117027000Y-45553000D01*
X117027000Y-45573000D01*
X117047000Y-45573000D01*
X117047000Y-45827000D01*
X117027000Y-45827000D01*
X117027000Y-46676250D01*
X117185750Y-46835000D01*
X117701309Y-46835000D01*
X117865000Y-46767197D01*
X117865000Y-46926310D01*
X117961673Y-47159699D01*
X118140302Y-47338327D01*
X118373691Y-47435000D01*
X118441250Y-47435000D01*
X118600000Y-47276250D01*
X118600000Y-47105435D01*
X118697959Y-47252041D01*
X118905357Y-47390620D01*
X118916608Y-47392858D01*
X118958750Y-47435000D01*
X119026309Y-47435000D01*
X119059452Y-47421272D01*
X119150000Y-47439283D01*
X119550000Y-47439283D01*
X119675000Y-47414419D01*
X119800000Y-47439283D01*
X120200000Y-47439283D01*
X120325000Y-47414419D01*
X120419119Y-47433140D01*
X120405820Y-47500000D01*
X120423000Y-47586370D01*
X120423000Y-47586375D01*
X120473884Y-47842188D01*
X120667720Y-48132281D01*
X120740944Y-48181208D01*
X121640943Y-49081208D01*
X121640945Y-49081209D01*
X121840944Y-49281209D01*
X121840947Y-49281211D01*
X121918790Y-49359054D01*
X121967719Y-49432281D01*
X122100599Y-49521069D01*
X122257810Y-49626115D01*
X122257811Y-49626115D01*
X122257812Y-49626116D01*
X122513625Y-49677000D01*
X122513629Y-49677000D01*
X122599999Y-49694180D01*
X122686369Y-49677000D01*
X132136736Y-49677000D01*
X135468792Y-53009057D01*
X135517719Y-53082281D01*
X135590943Y-53131208D01*
X135590944Y-53131209D01*
X135807811Y-53276116D01*
X135868051Y-53288098D01*
X136063625Y-53327000D01*
X136063628Y-53327000D01*
X136150000Y-53344180D01*
X136236372Y-53327000D01*
X137923001Y-53327000D01*
X137923001Y-53466088D01*
X137705357Y-53509380D01*
X137497959Y-53647959D01*
X137359380Y-53855357D01*
X137310717Y-54100000D01*
X137310717Y-55600000D01*
X137359380Y-55844643D01*
X137463186Y-56000000D01*
X137447818Y-56023000D01*
X134289283Y-56023000D01*
X134289283Y-55250000D01*
X134240620Y-55005357D01*
X134102041Y-54797959D01*
X133894643Y-54659380D01*
X133650000Y-54610717D01*
X131650000Y-54610717D01*
X131405357Y-54659380D01*
X131197959Y-54797959D01*
X131059380Y-55005357D01*
X131010717Y-55250000D01*
X131010717Y-56023000D01*
X130927000Y-56023000D01*
X130927000Y-55795717D01*
X130770648Y-55418251D01*
X130481749Y-55129352D01*
X130104283Y-54973000D01*
X129791300Y-54973000D01*
X129700000Y-54954839D01*
X129608700Y-54973000D01*
X128691300Y-54973000D01*
X128599999Y-54954839D01*
X128508699Y-54973000D01*
X128395717Y-54973000D01*
X128291336Y-55016236D01*
X128238303Y-55026785D01*
X128193343Y-55056826D01*
X128018251Y-55129352D01*
X127729352Y-55418251D01*
X127656826Y-55593343D01*
X127626785Y-55638303D01*
X127616236Y-55691336D01*
X127573000Y-55795717D01*
X127573000Y-55908698D01*
X127554839Y-56000000D01*
X127573000Y-56091302D01*
X127573001Y-57008695D01*
X127554839Y-57100000D01*
X127573000Y-57191300D01*
X127573000Y-57504283D01*
X127729352Y-57881749D01*
X128018251Y-58170648D01*
X128395717Y-58327000D01*
X128804283Y-58327000D01*
X128828146Y-58317115D01*
X128984532Y-58421609D01*
X129324750Y-58489283D01*
X130175250Y-58489283D01*
X130515468Y-58421609D01*
X130731891Y-58277000D01*
X131010717Y-58277000D01*
X131010717Y-58904711D01*
X130963327Y-58790302D01*
X130784699Y-58611673D01*
X130551310Y-58515000D01*
X130035750Y-58515000D01*
X129877000Y-58673750D01*
X129877000Y-59723000D01*
X130901250Y-59723000D01*
X131060000Y-59564250D01*
X131060000Y-59295571D01*
X131197959Y-59502041D01*
X131405357Y-59640620D01*
X131650000Y-59689283D01*
X133650000Y-59689283D01*
X133894643Y-59640620D01*
X134102041Y-59502041D01*
X134240620Y-59294643D01*
X134289283Y-59050000D01*
X134289283Y-58277000D01*
X137447818Y-58277000D01*
X137458695Y-58293279D01*
X137411673Y-58340301D01*
X137315000Y-58573690D01*
X137315000Y-59164250D01*
X137473750Y-59323000D01*
X138823000Y-59323000D01*
X138823000Y-59303000D01*
X139077000Y-59303000D01*
X139077000Y-59323000D01*
X140426250Y-59323000D01*
X140585000Y-59164250D01*
X140585000Y-58573690D01*
X140488327Y-58340301D01*
X140441305Y-58293279D01*
X140540620Y-58144643D01*
X140589283Y-57900000D01*
X140589283Y-56400000D01*
X140540620Y-56155357D01*
X140436814Y-56000000D01*
X140540620Y-55844643D01*
X140589283Y-55600000D01*
X140589283Y-54100000D01*
X140540620Y-53855357D01*
X140493609Y-53785000D01*
X140551750Y-53785000D01*
X140710500Y-53626250D01*
X140710500Y-52577000D01*
X140964500Y-52577000D01*
X140964500Y-53626250D01*
X141123250Y-53785000D01*
X141451309Y-53785000D01*
X141684698Y-53688327D01*
X141863327Y-53509699D01*
X141960000Y-53276310D01*
X141960000Y-52735750D01*
X141801250Y-52577000D01*
X140964500Y-52577000D01*
X140710500Y-52577000D01*
X140690500Y-52577000D01*
X140690500Y-52323000D01*
X140710500Y-52323000D01*
X140710500Y-51273750D01*
X140964500Y-51273750D01*
X140964500Y-52323000D01*
X141801250Y-52323000D01*
X141960000Y-52164250D01*
X141960000Y-51623690D01*
X141863327Y-51390301D01*
X141684698Y-51211673D01*
X141451309Y-51115000D01*
X141123250Y-51115000D01*
X140964500Y-51273750D01*
X140710500Y-51273750D01*
X140551750Y-51115000D01*
X140223691Y-51115000D01*
X139990302Y-51211673D01*
X139831440Y-51370534D01*
X139830649Y-51369351D01*
X139544172Y-51177934D01*
X139206250Y-51110717D01*
X138718750Y-51110717D01*
X138380828Y-51177934D01*
X138094351Y-51369351D01*
X137958278Y-51573000D01*
X136513265Y-51573000D01*
X134681175Y-49740910D01*
X136438695Y-49740910D01*
X136805640Y-50236343D01*
X138211171Y-50829736D01*
X139736793Y-50840087D01*
X141150246Y-50265819D01*
X141194360Y-50236343D01*
X141561305Y-49740910D01*
X139000000Y-47179605D01*
X136438695Y-49740910D01*
X134681175Y-49740910D01*
X133181210Y-48240946D01*
X133132281Y-48167719D01*
X132842188Y-47973884D01*
X132586375Y-47923000D01*
X132586370Y-47923000D01*
X132500000Y-47905820D01*
X132413630Y-47923000D01*
X122963265Y-47923000D01*
X122881209Y-47840945D01*
X122881208Y-47840943D01*
X122777058Y-47736793D01*
X135159913Y-47736793D01*
X135734181Y-49150246D01*
X135763657Y-49194360D01*
X136259090Y-49561305D01*
X138820395Y-47000000D01*
X139179605Y-47000000D01*
X141740910Y-49561305D01*
X142236343Y-49194360D01*
X142829736Y-47788829D01*
X142840087Y-46263207D01*
X142265819Y-44849754D01*
X142236343Y-44805640D01*
X141740910Y-44438695D01*
X139179605Y-47000000D01*
X138820395Y-47000000D01*
X136259090Y-44438695D01*
X135763657Y-44805640D01*
X135170264Y-46211171D01*
X135159913Y-47736793D01*
X122777058Y-47736793D01*
X122177000Y-47136736D01*
X122177000Y-47013625D01*
X122136895Y-46812004D01*
X122139283Y-46800000D01*
X122139283Y-46768971D01*
X122298691Y-46835000D01*
X122814250Y-46835000D01*
X122973000Y-46676250D01*
X122973000Y-45827000D01*
X123227000Y-45827000D01*
X123227000Y-46676250D01*
X123385750Y-46835000D01*
X123901309Y-46835000D01*
X124134698Y-46738327D01*
X124313327Y-46559699D01*
X124410000Y-46326310D01*
X124410000Y-45985750D01*
X124251250Y-45827000D01*
X123227000Y-45827000D01*
X122973000Y-45827000D01*
X122953000Y-45827000D01*
X122953000Y-45573000D01*
X122973000Y-45573000D01*
X122973000Y-45553000D01*
X123227000Y-45553000D01*
X123227000Y-45573000D01*
X124251250Y-45573000D01*
X124410000Y-45414250D01*
X124410000Y-45073690D01*
X124393974Y-45035000D01*
X125026309Y-45035000D01*
X125259698Y-44938327D01*
X125438327Y-44759699D01*
X125535000Y-44526310D01*
X125535000Y-44259090D01*
X136438695Y-44259090D01*
X139000000Y-46820395D01*
X141561305Y-44259090D01*
X141194360Y-43763657D01*
X139788829Y-43170264D01*
X138263207Y-43159913D01*
X136849754Y-43734181D01*
X136805640Y-43763657D01*
X136438695Y-44259090D01*
X125535000Y-44259090D01*
X125535000Y-43735750D01*
X125376250Y-43577000D01*
X124077000Y-43577000D01*
X124077000Y-43597000D01*
X123823000Y-43597000D01*
X123823000Y-43577000D01*
X121277000Y-43577000D01*
X121277000Y-43597000D01*
X121023000Y-43597000D01*
X121023000Y-43577000D01*
X118977000Y-43577000D01*
X118977000Y-43597000D01*
X118723000Y-43597000D01*
X118723000Y-43577000D01*
X116177000Y-43577000D01*
X116177000Y-43597000D01*
X115923000Y-43597000D01*
X115923000Y-43577000D01*
X114623750Y-43577000D01*
X114465000Y-43735750D01*
X103128259Y-43735750D01*
X101788829Y-43170264D01*
X100263207Y-43159913D01*
X98849754Y-43734181D01*
X98805640Y-43763657D01*
X98438695Y-44259090D01*
X97701360Y-44259090D01*
X97748550Y-44193419D01*
X98296934Y-43661997D01*
X98930768Y-43236079D01*
X99629999Y-42929137D01*
X100377944Y-42749571D01*
X101025744Y-42702000D01*
X114465000Y-42702000D01*
X114465000Y-43164250D01*
X114465000Y-43164250D01*
G37*
X114465000Y-43164250D02*
X114623750Y-43323000D01*
X115923000Y-43323000D01*
X115923000Y-43303000D01*
X116177000Y-43303000D01*
X116177000Y-43323000D01*
X118723000Y-43323000D01*
X118723000Y-43303000D01*
X118977000Y-43303000D01*
X118977000Y-43323000D01*
X121023000Y-43323000D01*
X121023000Y-43303000D01*
X121277000Y-43303000D01*
X121277000Y-43323000D01*
X123823000Y-43323000D01*
X123823000Y-43303000D01*
X124077000Y-43303000D01*
X124077000Y-43323000D01*
X125376250Y-43323000D01*
X125535000Y-43164250D01*
X125535000Y-42702000D01*
X138968734Y-42702000D01*
X139760619Y-42772674D01*
X140497187Y-42974176D01*
X141186439Y-43302932D01*
X141806581Y-43748550D01*
X142338003Y-44296934D01*
X142763921Y-44930768D01*
X143070863Y-45629999D01*
X143250429Y-46377944D01*
X143298000Y-47025744D01*
X143298000Y-63725717D01*
X140200000Y-63725717D01*
X139955357Y-63774380D01*
X139747959Y-63912959D01*
X139609380Y-64120357D01*
X139589957Y-64218000D01*
X132559280Y-64218000D01*
X132383589Y-64100607D01*
X132082500Y-64040717D01*
X131787500Y-64040717D01*
X131486411Y-64100607D01*
X131450000Y-64124936D01*
X131413589Y-64100607D01*
X131112500Y-64040717D01*
X130817500Y-64040717D01*
X130612468Y-64081500D01*
X130533845Y-63954676D01*
X130280716Y-63772759D01*
X129977239Y-63701557D01*
X129852002Y-63865873D01*
X129852002Y-63715000D01*
X129777000Y-63715000D01*
X129777000Y-63473474D01*
X129766941Y-63422904D01*
X129787010Y-63322009D01*
X129787010Y-63322005D01*
X129802329Y-63244991D01*
X129787010Y-63167977D01*
X129787010Y-63082023D01*
X129802329Y-63005009D01*
X129787010Y-62927995D01*
X129787010Y-62927992D01*
X129741638Y-62699889D01*
X129568800Y-62441220D01*
X129503508Y-62397593D01*
X127241665Y-60135750D01*
X128440000Y-60135750D01*
X128440000Y-60676309D01*
X128536673Y-60909698D01*
X128715301Y-61088327D01*
X128948690Y-61185000D01*
X129464250Y-61185000D01*
X129623000Y-61026250D01*
X129623000Y-59977000D01*
X129877000Y-59977000D01*
X129877000Y-61026250D01*
X130035750Y-61185000D01*
X130551310Y-61185000D01*
X130784699Y-61088327D01*
X130963327Y-60909698D01*
X131060000Y-60676309D01*
X131060000Y-60135750D01*
X130901250Y-59977000D01*
X129877000Y-59977000D01*
X129623000Y-59977000D01*
X128598750Y-59977000D01*
X128440000Y-60135750D01*
X127241665Y-60135750D01*
X126841665Y-59735750D01*
X137315000Y-59735750D01*
X137315000Y-60326310D01*
X137411673Y-60559699D01*
X137590302Y-60738327D01*
X137823691Y-60835000D01*
X138664250Y-60835000D01*
X138823000Y-60676250D01*
X138823000Y-59577000D01*
X139077000Y-59577000D01*
X139077000Y-60676250D01*
X139235750Y-60835000D01*
X140076309Y-60835000D01*
X140309698Y-60738327D01*
X140488327Y-60559699D01*
X140585000Y-60326310D01*
X140585000Y-59735750D01*
X140426250Y-59577000D01*
X139077000Y-59577000D01*
X138823000Y-59577000D01*
X137473750Y-59577000D01*
X137315000Y-59735750D01*
X126841665Y-59735750D01*
X126129606Y-59023691D01*
X128440000Y-59023691D01*
X128440000Y-59564250D01*
X128598750Y-59723000D01*
X129623000Y-59723000D01*
X129623000Y-58673750D01*
X129464250Y-58515000D01*
X128948690Y-58515000D01*
X128715301Y-58611673D01*
X128536673Y-58790302D01*
X128440000Y-59023691D01*
X126129606Y-59023691D01*
X124807419Y-57701505D01*
X124763790Y-57636210D01*
X124505121Y-57463372D01*
X124277019Y-57418000D01*
X124277014Y-57418000D01*
X124200000Y-57402681D01*
X124122986Y-57418000D01*
X122984283Y-57418000D01*
X122984283Y-57350000D01*
X122935620Y-57105357D01*
X122797041Y-56897959D01*
X122589643Y-56759380D01*
X122345000Y-56710717D01*
X121305000Y-56710717D01*
X121060357Y-56759380D01*
X120852959Y-56897959D01*
X120714380Y-57105357D01*
X120665717Y-57350000D01*
X120665717Y-59150000D01*
X120714380Y-59394643D01*
X120852959Y-59602041D01*
X121060357Y-59740620D01*
X121305000Y-59789283D01*
X122345000Y-59789283D01*
X122589643Y-59740620D01*
X122797041Y-59602041D01*
X122935620Y-59394643D01*
X122984283Y-59150000D01*
X122984283Y-58982000D01*
X123876086Y-58982000D01*
X126312085Y-61418000D01*
X123034283Y-61418000D01*
X123034283Y-61350000D01*
X122985620Y-61105357D01*
X122847041Y-60897959D01*
X122639643Y-60759380D01*
X122395000Y-60710717D01*
X121355000Y-60710717D01*
X121110357Y-60759380D01*
X120902959Y-60897959D01*
X120764380Y-61105357D01*
X120715717Y-61350000D01*
X120715717Y-63150000D01*
X120764380Y-63394643D01*
X120902959Y-63602041D01*
X121110357Y-63740620D01*
X121355000Y-63789283D01*
X122395000Y-63789283D01*
X122639643Y-63740620D01*
X122847041Y-63602041D01*
X122985620Y-63394643D01*
X123034283Y-63150000D01*
X123034283Y-62982000D01*
X124519974Y-62982000D01*
X124391673Y-63110302D01*
X124295000Y-63343691D01*
X124295000Y-63479250D01*
X124453748Y-63637998D01*
X124295000Y-63637998D01*
X124295000Y-63673000D01*
X124095717Y-63673000D01*
X123718251Y-63829352D01*
X123429352Y-64118251D01*
X123273000Y-64495717D01*
X123273000Y-64904283D01*
X123429352Y-65281749D01*
X123718251Y-65570648D01*
X123901182Y-65646421D01*
X123629352Y-65918251D01*
X123473000Y-66295717D01*
X123473000Y-66704283D01*
X123629352Y-67081749D01*
X123918251Y-67370648D01*
X124153279Y-67468000D01*
X122984283Y-67468000D01*
X122984283Y-67350000D01*
X122935620Y-67105357D01*
X122797041Y-66897959D01*
X122589643Y-66759380D01*
X122345000Y-66710717D01*
X121305000Y-66710717D01*
X121060357Y-66759380D01*
X120852959Y-66897959D01*
X120714380Y-67105357D01*
X120665717Y-67350000D01*
X120665717Y-69150000D01*
X120714380Y-69394643D01*
X120852959Y-69602041D01*
X121060357Y-69740620D01*
X121305000Y-69789283D01*
X122345000Y-69789283D01*
X122589643Y-69740620D01*
X122797041Y-69602041D01*
X122935620Y-69394643D01*
X122984283Y-69150000D01*
X122984283Y-69032000D01*
X126512085Y-69032000D01*
X124153586Y-71390500D01*
X122984283Y-71390500D01*
X122984283Y-71272500D01*
X122935620Y-71027857D01*
X122797041Y-70820459D01*
X122589643Y-70681880D01*
X122345000Y-70633217D01*
X121305000Y-70633217D01*
X121060357Y-70681880D01*
X120852959Y-70820459D01*
X120714380Y-71027857D01*
X120665717Y-71272500D01*
X120665717Y-73072500D01*
X120714380Y-73317143D01*
X120852959Y-73524541D01*
X121060357Y-73663120D01*
X121305000Y-73711783D01*
X122345000Y-73711783D01*
X122589643Y-73663120D01*
X122797041Y-73524541D01*
X122935620Y-73317143D01*
X122984283Y-73072500D01*
X122984283Y-72954500D01*
X124400486Y-72954500D01*
X124477500Y-72969819D01*
X124554514Y-72954500D01*
X124554519Y-72954500D01*
X124782621Y-72909128D01*
X125041290Y-72736290D01*
X125084919Y-72670995D01*
X129498499Y-68257416D01*
X129563790Y-68213790D01*
X129628643Y-68116732D01*
X129736627Y-67955122D01*
X129736628Y-67955121D01*
X129782000Y-67727019D01*
X129782000Y-67727014D01*
X129797319Y-67650000D01*
X129782000Y-67572986D01*
X129782000Y-67272982D01*
X129754989Y-67137185D01*
X129777000Y-67026526D01*
X129777000Y-66785000D01*
X129852002Y-66785000D01*
X129852002Y-66634127D01*
X129977239Y-66798443D01*
X130280716Y-66727241D01*
X130533845Y-66545324D01*
X130698089Y-66280386D01*
X130710056Y-66196316D01*
X130571743Y-66075000D01*
X130492552Y-66075000D01*
X130533845Y-66045324D01*
X130612468Y-65918500D01*
X130817500Y-65959283D01*
X131112500Y-65959283D01*
X131413589Y-65899393D01*
X131450000Y-65875064D01*
X131486411Y-65899393D01*
X131787500Y-65959283D01*
X132082500Y-65959283D01*
X132383589Y-65899393D01*
X132559280Y-65782000D01*
X139589957Y-65782000D01*
X139609380Y-65879643D01*
X139747959Y-66087041D01*
X139955357Y-66225620D01*
X140200000Y-66274283D01*
X143298001Y-66274283D01*
X143298001Y-84968723D01*
X143227326Y-85760619D01*
X143025824Y-86497187D01*
X142697068Y-87186439D01*
X142251452Y-87806578D01*
X141703066Y-88338003D01*
X141069232Y-88763921D01*
X140369997Y-89070864D01*
X139622056Y-89250429D01*
X138974256Y-89298000D01*
X101031266Y-89298000D01*
X100239381Y-89227326D01*
X99502813Y-89025824D01*
X98813561Y-88697068D01*
X98193422Y-88251452D01*
X97698671Y-87740910D01*
X98438695Y-87740910D01*
X98805640Y-88236343D01*
X100211171Y-88829736D01*
X101736793Y-88840087D01*
X103150246Y-88265819D01*
X103194360Y-88236343D01*
X103561305Y-87740910D01*
X101000000Y-85179605D01*
X98438695Y-87740910D01*
X97698671Y-87740910D01*
X97661997Y-87703066D01*
X97236079Y-87069232D01*
X96929136Y-86369997D01*
X96777117Y-85736793D01*
X97159913Y-85736793D01*
X97734181Y-87150246D01*
X97763657Y-87194360D01*
X98259090Y-87561305D01*
X100820395Y-85000000D01*
X101179605Y-85000000D01*
X103740910Y-87561305D01*
X104236343Y-87194360D01*
X104825019Y-85800000D01*
X108340717Y-85800000D01*
X108340717Y-87300000D01*
X108389380Y-87544643D01*
X108527959Y-87752041D01*
X108735357Y-87890620D01*
X108980000Y-87939283D01*
X110080000Y-87939283D01*
X110324643Y-87890620D01*
X110532041Y-87752041D01*
X110670620Y-87544643D01*
X110719283Y-87300000D01*
X110719283Y-85800000D01*
X110880717Y-85800000D01*
X110880717Y-87300000D01*
X110929380Y-87544643D01*
X111067959Y-87752041D01*
X111275357Y-87890620D01*
X111520000Y-87939283D01*
X112620000Y-87939283D01*
X112864643Y-87890620D01*
X113072041Y-87752041D01*
X113210620Y-87544643D01*
X113259283Y-87300000D01*
X113259283Y-85800000D01*
X113239392Y-85700000D01*
X128273000Y-85700000D01*
X128273000Y-88000000D01*
X128282667Y-88048601D01*
X128310197Y-88089803D01*
X128351399Y-88117333D01*
X128400000Y-88127000D01*
X134500000Y-88127000D01*
X134548601Y-88117333D01*
X134589803Y-88089803D01*
X134617333Y-88048601D01*
X134627000Y-88000000D01*
X134627000Y-87740910D01*
X136438695Y-87740910D01*
X136805640Y-88236343D01*
X138211171Y-88829736D01*
X139736793Y-88840087D01*
X141150246Y-88265819D01*
X141194360Y-88236343D01*
X141561305Y-87740910D01*
X139000000Y-85179605D01*
X136438695Y-87740910D01*
X134627000Y-87740910D01*
X134627000Y-85736793D01*
X135159913Y-85736793D01*
X135734181Y-87150246D01*
X135763657Y-87194360D01*
X136259090Y-87561305D01*
X138820395Y-85000000D01*
X139179605Y-85000000D01*
X141740910Y-87561305D01*
X142236343Y-87194360D01*
X142829736Y-85788829D01*
X142840087Y-84263207D01*
X142265819Y-82849754D01*
X142236343Y-82805640D01*
X141740910Y-82438695D01*
X139179605Y-85000000D01*
X138820395Y-85000000D01*
X136259090Y-82438695D01*
X135763657Y-82805640D01*
X135170264Y-84211171D01*
X135159913Y-85736793D01*
X134627000Y-85736793D01*
X134627000Y-85700000D01*
X134617333Y-85651399D01*
X134589803Y-85610197D01*
X134548601Y-85582667D01*
X134500000Y-85573000D01*
X128400000Y-85573000D01*
X128351399Y-85582667D01*
X128310197Y-85610197D01*
X128282667Y-85651399D01*
X128273000Y-85700000D01*
X113239392Y-85700000D01*
X113210620Y-85555357D01*
X113182102Y-85512677D01*
X113227000Y-85404283D01*
X113227000Y-84995717D01*
X113070648Y-84618251D01*
X112781749Y-84329352D01*
X112404283Y-84173000D01*
X111995717Y-84173000D01*
X111618251Y-84329352D01*
X111329352Y-84618251D01*
X111173000Y-84995717D01*
X111173000Y-85277773D01*
X111067959Y-85347959D01*
X110929380Y-85555357D01*
X110880717Y-85800000D01*
X110719283Y-85800000D01*
X110670620Y-85555357D01*
X110605063Y-85457244D01*
X110627000Y-85404283D01*
X110627000Y-84995717D01*
X110470648Y-84618251D01*
X110181749Y-84329352D01*
X109804283Y-84173000D01*
X109395717Y-84173000D01*
X109018251Y-84329352D01*
X108729352Y-84618251D01*
X108573000Y-84995717D01*
X108573000Y-85317864D01*
X108527959Y-85347959D01*
X108389380Y-85555357D01*
X108340717Y-85800000D01*
X104825019Y-85800000D01*
X104829736Y-85788829D01*
X104840087Y-84263207D01*
X104265819Y-82849754D01*
X104236343Y-82805640D01*
X103740910Y-82438695D01*
X101179605Y-85000000D01*
X100820395Y-85000000D01*
X98259090Y-82438695D01*
X97763657Y-82805640D01*
X97170264Y-84211171D01*
X97159913Y-85736793D01*
X96777117Y-85736793D01*
X96749571Y-85622056D01*
X96702000Y-84974256D01*
X96702000Y-82259090D01*
X98438695Y-82259090D01*
X101000000Y-84820395D01*
X103561305Y-82259090D01*
X136438695Y-82259090D01*
X139000000Y-84820395D01*
X141561305Y-82259090D01*
X141194360Y-81763657D01*
X139788829Y-81170264D01*
X138263207Y-81159913D01*
X136849754Y-81734181D01*
X136805640Y-81763657D01*
X136438695Y-82259090D01*
X103561305Y-82259090D01*
X103194360Y-81763657D01*
X101788829Y-81170264D01*
X100263207Y-81159913D01*
X98849754Y-81734181D01*
X98805640Y-81763657D01*
X98438695Y-82259090D01*
X96702000Y-82259090D01*
X96702000Y-75585750D01*
X106502500Y-75585750D01*
X106502500Y-76126310D01*
X106599173Y-76359699D01*
X106777802Y-76538327D01*
X107011191Y-76635000D01*
X107339250Y-76635000D01*
X107498000Y-76476250D01*
X107498000Y-75427000D01*
X106661250Y-75427000D01*
X106502500Y-75585750D01*
X96702000Y-75585750D01*
X96702000Y-74473690D01*
X106502500Y-74473690D01*
X106502500Y-75014250D01*
X106661250Y-75173000D01*
X107498000Y-75173000D01*
X107498000Y-74123750D01*
X107339250Y-73965000D01*
X107284250Y-73965000D01*
X107423000Y-73826250D01*
X107423000Y-73339283D01*
X107677000Y-73339283D01*
X107677000Y-73826250D01*
X107835750Y-73985000D01*
X107848000Y-73985000D01*
X107848000Y-74027750D01*
X107752000Y-74123750D01*
X107752000Y-75173000D01*
X107772000Y-75173000D01*
X107772000Y-75427000D01*
X107752000Y-75427000D01*
X107752000Y-76476250D01*
X107910750Y-76635000D01*
X108238809Y-76635000D01*
X108465809Y-76540974D01*
X108389380Y-76655357D01*
X108340717Y-76900000D01*
X108340717Y-78400000D01*
X108389380Y-78644643D01*
X108527959Y-78852041D01*
X108735357Y-78990620D01*
X108980000Y-79039283D01*
X110080000Y-79039283D01*
X110324643Y-78990620D01*
X110532041Y-78852041D01*
X110670620Y-78644643D01*
X110719283Y-78400000D01*
X110719283Y-76900000D01*
X110670620Y-76655357D01*
X110532041Y-76447959D01*
X110387642Y-76351475D01*
X110559566Y-76094172D01*
X110626783Y-75756250D01*
X110626783Y-74843750D01*
X110559566Y-74505828D01*
X110368149Y-74219351D01*
X110353304Y-74209432D01*
X110395717Y-74227000D01*
X110804283Y-74227000D01*
X111181749Y-74070648D01*
X111310500Y-73941897D01*
X111310500Y-74041743D01*
X111194351Y-74119351D01*
X111002934Y-74405828D01*
X110935717Y-74743750D01*
X110935717Y-75656250D01*
X111002934Y-75994172D01*
X111194351Y-76280649D01*
X111256354Y-76322078D01*
X111067959Y-76447959D01*
X110929380Y-76655357D01*
X110880717Y-76900000D01*
X110880717Y-78400000D01*
X110929380Y-78644643D01*
X111067959Y-78852041D01*
X111275357Y-78990620D01*
X111520000Y-79039283D01*
X112620000Y-79039283D01*
X112864643Y-78990620D01*
X113072041Y-78852041D01*
X113210620Y-78644643D01*
X113259283Y-78400000D01*
X113259283Y-76900000D01*
X113210620Y-76655357D01*
X113072041Y-76447959D01*
X112876146Y-76317066D01*
X112930649Y-76280649D01*
X112931440Y-76279466D01*
X113090302Y-76438327D01*
X113323691Y-76535000D01*
X113651750Y-76535000D01*
X113810500Y-76376250D01*
X113810500Y-75327000D01*
X114064500Y-75327000D01*
X114064500Y-76376250D01*
X114223250Y-76535000D01*
X114551309Y-76535000D01*
X114784698Y-76438327D01*
X114963327Y-76259699D01*
X115060000Y-76026310D01*
X115060000Y-75485750D01*
X114901250Y-75327000D01*
X114064500Y-75327000D01*
X113810500Y-75327000D01*
X113790500Y-75327000D01*
X113790500Y-75073000D01*
X113810500Y-75073000D01*
X113810500Y-74023750D01*
X114064500Y-74023750D01*
X114064500Y-75073000D01*
X114901250Y-75073000D01*
X115060000Y-74914250D01*
X115060000Y-74373690D01*
X114963327Y-74140301D01*
X114784698Y-73961673D01*
X114551309Y-73865000D01*
X114223250Y-73865000D01*
X114064500Y-74023750D01*
X113810500Y-74023750D01*
X113651750Y-73865000D01*
X113323691Y-73865000D01*
X113090302Y-73961673D01*
X112931440Y-74120534D01*
X112930649Y-74119351D01*
X112814500Y-74041743D01*
X112814500Y-72836219D01*
X112969809Y-72680910D01*
X113126161Y-72303444D01*
X113126161Y-71894878D01*
X112969809Y-71517412D01*
X112680910Y-71228513D01*
X112303444Y-71072161D01*
X111894878Y-71072161D01*
X111750579Y-71131932D01*
X111620648Y-70818251D01*
X111331749Y-70529352D01*
X110954283Y-70373000D01*
X110545717Y-70373000D01*
X110168251Y-70529352D01*
X109879352Y-70818251D01*
X109797755Y-71015243D01*
X109775000Y-71010717D01*
X109125000Y-71010717D01*
X108891565Y-71057151D01*
X108869473Y-71048000D01*
X108530527Y-71048000D01*
X108266367Y-71157418D01*
X108119643Y-71059380D01*
X107875000Y-71010717D01*
X107225000Y-71010717D01*
X106980357Y-71059380D01*
X106772959Y-71197959D01*
X106634380Y-71405357D01*
X106585717Y-71650000D01*
X106585717Y-72050000D01*
X106610581Y-72175000D01*
X106585717Y-72300000D01*
X106585717Y-72700000D01*
X106603728Y-72790547D01*
X106590000Y-72823690D01*
X106590000Y-72891250D01*
X106632142Y-72933392D01*
X106634380Y-72944643D01*
X106772959Y-73152041D01*
X106919565Y-73250000D01*
X106748750Y-73250000D01*
X106590000Y-73408750D01*
X106590000Y-73476310D01*
X106686673Y-73709699D01*
X106865302Y-73888327D01*
X107050407Y-73965000D01*
X107011191Y-73965000D01*
X106777802Y-74061673D01*
X106599173Y-74240301D01*
X106502500Y-74473690D01*
X96702000Y-74473690D01*
X96702000Y-66274283D01*
X99800000Y-66274283D01*
X100044643Y-66225620D01*
X100252041Y-66087041D01*
X100390620Y-65879643D01*
X100410043Y-65782000D01*
X107840720Y-65782000D01*
X108016411Y-65899393D01*
X108317500Y-65959283D01*
X108612500Y-65959283D01*
X108913589Y-65899393D01*
X108950000Y-65875064D01*
X108986411Y-65899393D01*
X109287500Y-65959283D01*
X109582500Y-65959283D01*
X109787532Y-65918500D01*
X109866155Y-66045324D01*
X110119284Y-66227241D01*
X110422761Y-66298443D01*
X110547998Y-66134127D01*
X110547998Y-66285000D01*
X110623000Y-66285000D01*
X110623000Y-66526525D01*
X110640039Y-66612185D01*
X110618000Y-66722982D01*
X110618000Y-66922986D01*
X110602681Y-67000000D01*
X110618000Y-67077014D01*
X110618000Y-67077019D01*
X110663372Y-67305121D01*
X110836210Y-67563790D01*
X110901504Y-67607418D01*
X115965083Y-72670998D01*
X116008710Y-72736290D01*
X116074002Y-72779917D01*
X116074003Y-72779918D01*
X116267378Y-72909128D01*
X116321266Y-72919847D01*
X116495481Y-72954500D01*
X116495484Y-72954500D01*
X116572500Y-72969819D01*
X116649516Y-72954500D01*
X117415717Y-72954500D01*
X117415717Y-73072500D01*
X117464380Y-73317143D01*
X117602959Y-73524541D01*
X117810357Y-73663120D01*
X118055000Y-73711783D01*
X119095000Y-73711783D01*
X119339643Y-73663120D01*
X119547041Y-73524541D01*
X119685620Y-73317143D01*
X119734283Y-73072500D01*
X119734283Y-71272500D01*
X119685620Y-71027857D01*
X119547041Y-70820459D01*
X119339643Y-70681880D01*
X119095000Y-70633217D01*
X118055000Y-70633217D01*
X117810357Y-70681880D01*
X117602959Y-70820459D01*
X117464380Y-71027857D01*
X117415717Y-71272500D01*
X117415717Y-71390500D01*
X116896415Y-71390500D01*
X114537914Y-69032000D01*
X117415717Y-69032000D01*
X117415717Y-69150000D01*
X117464380Y-69394643D01*
X117602959Y-69602041D01*
X117810357Y-69740620D01*
X118055000Y-69789283D01*
X119095000Y-69789283D01*
X119339643Y-69740620D01*
X119547041Y-69602041D01*
X119685620Y-69394643D01*
X119734283Y-69150000D01*
X119734283Y-67350000D01*
X119685620Y-67105357D01*
X119547041Y-66897959D01*
X119339643Y-66759380D01*
X119095000Y-66710717D01*
X118055000Y-66710717D01*
X117810357Y-66759380D01*
X117602959Y-66897959D01*
X117464380Y-67105357D01*
X117415717Y-67350000D01*
X117415717Y-67468000D01*
X114073915Y-67468000D01*
X113522636Y-66916722D01*
X113620171Y-66770750D01*
X113845000Y-66770750D01*
X113845000Y-66906309D01*
X113941673Y-67139698D01*
X114120301Y-67318327D01*
X114353690Y-67415000D01*
X114514250Y-67415000D01*
X114673000Y-67256250D01*
X114673000Y-66612000D01*
X114003750Y-66612000D01*
X113845000Y-66770750D01*
X113620171Y-66770750D01*
X113631918Y-66753170D01*
X113677000Y-66526526D01*
X113677000Y-66285000D01*
X113752002Y-66285000D01*
X113752002Y-66134127D01*
X113877239Y-66298443D01*
X113931469Y-66285719D01*
X114003750Y-66358000D01*
X114279428Y-66358000D01*
X114326411Y-66389393D01*
X114627500Y-66449283D01*
X114947000Y-66449283D01*
X114947000Y-66612000D01*
X114927000Y-66612000D01*
X114927000Y-67256250D01*
X115085750Y-67415000D01*
X115246310Y-67415000D01*
X115479699Y-67318327D01*
X115658327Y-67139698D01*
X115755000Y-66906309D01*
X115755000Y-66770750D01*
X115596252Y-66612002D01*
X115755000Y-66612002D01*
X115755000Y-66527000D01*
X115904283Y-66527000D01*
X116281749Y-66370648D01*
X116570648Y-66081749D01*
X116683783Y-65808617D01*
X116843257Y-65968091D01*
X117220723Y-66124443D01*
X117629289Y-66124443D01*
X118006755Y-65968091D01*
X118295654Y-65679192D01*
X118452006Y-65301726D01*
X118452006Y-64893160D01*
X118295654Y-64515694D01*
X118006755Y-64226795D01*
X117629289Y-64070443D01*
X117461493Y-64070443D01*
X117411679Y-64020629D01*
X117369724Y-63957839D01*
X117120979Y-63791632D01*
X116901626Y-63748000D01*
X116901622Y-63748000D01*
X116827563Y-63733269D01*
X116753504Y-63748000D01*
X115827000Y-63748000D01*
X115827000Y-63570717D01*
X115670648Y-63193251D01*
X115459397Y-62982000D01*
X117465717Y-62982000D01*
X117465717Y-63150000D01*
X117514380Y-63394643D01*
X117652959Y-63602041D01*
X117860357Y-63740620D01*
X118105000Y-63789283D01*
X119145000Y-63789283D01*
X119389643Y-63740620D01*
X119597041Y-63602041D01*
X119735620Y-63394643D01*
X119784283Y-63150000D01*
X119784283Y-61350000D01*
X119735620Y-61105357D01*
X119597041Y-60897959D01*
X119389643Y-60759380D01*
X119145000Y-60710717D01*
X118105000Y-60710717D01*
X117860357Y-60759380D01*
X117652959Y-60897959D01*
X117514380Y-61105357D01*
X117465717Y-61350000D01*
X117465717Y-61418000D01*
X113587914Y-61418000D01*
X116023915Y-58982000D01*
X117415717Y-58982000D01*
X117415717Y-59150000D01*
X117464380Y-59394643D01*
X117602959Y-59602041D01*
X117810357Y-59740620D01*
X118055000Y-59789283D01*
X119095000Y-59789283D01*
X119339643Y-59740620D01*
X119547041Y-59602041D01*
X119685620Y-59394643D01*
X119734283Y-59150000D01*
X119734283Y-57350000D01*
X119685620Y-57105357D01*
X119547041Y-56897959D01*
X119339643Y-56759380D01*
X119095000Y-56710717D01*
X118055000Y-56710717D01*
X117810357Y-56759380D01*
X117602959Y-56897959D01*
X117464380Y-57105357D01*
X117415717Y-57350000D01*
X117415717Y-57418000D01*
X115777013Y-57418000D01*
X115699999Y-57402681D01*
X115622985Y-57418000D01*
X115622981Y-57418000D01*
X115394879Y-57463372D01*
X115228232Y-57574723D01*
X115201504Y-57592582D01*
X115136210Y-57636210D01*
X115092583Y-57701502D01*
X110901505Y-61892581D01*
X110836210Y-61936210D01*
X110663372Y-62194880D01*
X110618000Y-62422982D01*
X110618000Y-62422986D01*
X110602681Y-62500000D01*
X110618000Y-62577014D01*
X110618000Y-62777019D01*
X110640039Y-62887815D01*
X110623000Y-62973474D01*
X110623000Y-63215000D01*
X110547998Y-63215000D01*
X110547998Y-63365873D01*
X110422761Y-63201557D01*
X110119284Y-63272759D01*
X109866155Y-63454676D01*
X109701911Y-63719614D01*
X109689944Y-63803684D01*
X109828257Y-63925000D01*
X109907448Y-63925000D01*
X109866155Y-63954676D01*
X109787532Y-64081500D01*
X109582500Y-64040717D01*
X109287500Y-64040717D01*
X108986411Y-64100607D01*
X108950000Y-64124936D01*
X108913589Y-64100607D01*
X108612500Y-64040717D01*
X108317500Y-64040717D01*
X108016411Y-64100607D01*
X107840720Y-64218000D01*
X100410043Y-64218000D01*
X100390620Y-64120357D01*
X100252041Y-63912959D01*
X100044643Y-63774380D01*
X99800000Y-63725717D01*
X96702000Y-63725717D01*
X96702000Y-49740910D01*
X98438695Y-49740910D01*
X98805640Y-50236343D01*
X100211171Y-50829736D01*
X101736793Y-50840087D01*
X103150246Y-50265819D01*
X103194360Y-50236343D01*
X103561305Y-49740910D01*
X101000000Y-47179605D01*
X98438695Y-49740910D01*
X96702000Y-49740910D01*
X96702000Y-47736793D01*
X97159913Y-47736793D01*
X97734181Y-49150246D01*
X97763657Y-49194360D01*
X98259090Y-49561305D01*
X100820395Y-47000000D01*
X101179605Y-47000000D01*
X103740910Y-49561305D01*
X104236343Y-49194360D01*
X104829736Y-47788829D01*
X104840087Y-46263207D01*
X104727360Y-45985750D01*
X115590000Y-45985750D01*
X115590000Y-46326310D01*
X115686673Y-46559699D01*
X115865302Y-46738327D01*
X116098691Y-46835000D01*
X116614250Y-46835000D01*
X116773000Y-46676250D01*
X116773000Y-45827000D01*
X115748750Y-45827000D01*
X115590000Y-45985750D01*
X104727360Y-45985750D01*
X104265819Y-44849754D01*
X104236343Y-44805640D01*
X103740910Y-44438695D01*
X101179605Y-47000000D01*
X100820395Y-47000000D01*
X98259090Y-44438695D01*
X97763657Y-44805640D01*
X97170264Y-46211171D01*
X97159913Y-47736793D01*
X96702000Y-47736793D01*
X96702000Y-47031266D01*
X96772674Y-46239381D01*
X96974176Y-45502813D01*
X97302932Y-44813561D01*
X97701360Y-44259090D01*
X98438695Y-44259090D01*
X101000000Y-46820395D01*
X103561305Y-44259090D01*
X103194360Y-43763657D01*
X103128259Y-43735750D01*
X114465000Y-43735750D01*
X114465000Y-44526310D01*
X114561673Y-44759699D01*
X114740302Y-44938327D01*
X114973691Y-45035000D01*
X115606026Y-45035000D01*
X115590000Y-45073690D01*
X115590000Y-45414250D01*
X115748750Y-45573000D01*
X116773000Y-45573000D01*
X116773000Y-45553000D01*
X117027000Y-45553000D01*
X117027000Y-45573000D01*
X117047000Y-45573000D01*
X117047000Y-45827000D01*
X117027000Y-45827000D01*
X117027000Y-46676250D01*
X117185750Y-46835000D01*
X117701309Y-46835000D01*
X117865000Y-46767197D01*
X117865000Y-46926310D01*
X117961673Y-47159699D01*
X118140302Y-47338327D01*
X118373691Y-47435000D01*
X118441250Y-47435000D01*
X118600000Y-47276250D01*
X118600000Y-47105435D01*
X118697959Y-47252041D01*
X118905357Y-47390620D01*
X118916608Y-47392858D01*
X118958750Y-47435000D01*
X119026309Y-47435000D01*
X119059452Y-47421272D01*
X119150000Y-47439283D01*
X119550000Y-47439283D01*
X119675000Y-47414419D01*
X119800000Y-47439283D01*
X120200000Y-47439283D01*
X120325000Y-47414419D01*
X120419119Y-47433140D01*
X120405820Y-47500000D01*
X120423000Y-47586370D01*
X120423000Y-47586375D01*
X120473884Y-47842188D01*
X120667720Y-48132281D01*
X120740944Y-48181208D01*
X121640943Y-49081208D01*
X121640945Y-49081209D01*
X121840944Y-49281209D01*
X121840947Y-49281211D01*
X121918790Y-49359054D01*
X121967719Y-49432281D01*
X122100599Y-49521069D01*
X122257810Y-49626115D01*
X122257811Y-49626115D01*
X122257812Y-49626116D01*
X122513625Y-49677000D01*
X122513629Y-49677000D01*
X122599999Y-49694180D01*
X122686369Y-49677000D01*
X132136736Y-49677000D01*
X135468792Y-53009057D01*
X135517719Y-53082281D01*
X135590943Y-53131208D01*
X135590944Y-53131209D01*
X135807811Y-53276116D01*
X135868051Y-53288098D01*
X136063625Y-53327000D01*
X136063628Y-53327000D01*
X136150000Y-53344180D01*
X136236372Y-53327000D01*
X137923001Y-53327000D01*
X137923001Y-53466088D01*
X137705357Y-53509380D01*
X137497959Y-53647959D01*
X137359380Y-53855357D01*
X137310717Y-54100000D01*
X137310717Y-55600000D01*
X137359380Y-55844643D01*
X137463186Y-56000000D01*
X137447818Y-56023000D01*
X134289283Y-56023000D01*
X134289283Y-55250000D01*
X134240620Y-55005357D01*
X134102041Y-54797959D01*
X133894643Y-54659380D01*
X133650000Y-54610717D01*
X131650000Y-54610717D01*
X131405357Y-54659380D01*
X131197959Y-54797959D01*
X131059380Y-55005357D01*
X131010717Y-55250000D01*
X131010717Y-56023000D01*
X130927000Y-56023000D01*
X130927000Y-55795717D01*
X130770648Y-55418251D01*
X130481749Y-55129352D01*
X130104283Y-54973000D01*
X129791300Y-54973000D01*
X129700000Y-54954839D01*
X129608700Y-54973000D01*
X128691300Y-54973000D01*
X128599999Y-54954839D01*
X128508699Y-54973000D01*
X128395717Y-54973000D01*
X128291336Y-55016236D01*
X128238303Y-55026785D01*
X128193343Y-55056826D01*
X128018251Y-55129352D01*
X127729352Y-55418251D01*
X127656826Y-55593343D01*
X127626785Y-55638303D01*
X127616236Y-55691336D01*
X127573000Y-55795717D01*
X127573000Y-55908698D01*
X127554839Y-56000000D01*
X127573000Y-56091302D01*
X127573001Y-57008695D01*
X127554839Y-57100000D01*
X127573000Y-57191300D01*
X127573000Y-57504283D01*
X127729352Y-57881749D01*
X128018251Y-58170648D01*
X128395717Y-58327000D01*
X128804283Y-58327000D01*
X128828146Y-58317115D01*
X128984532Y-58421609D01*
X129324750Y-58489283D01*
X130175250Y-58489283D01*
X130515468Y-58421609D01*
X130731891Y-58277000D01*
X131010717Y-58277000D01*
X131010717Y-58904711D01*
X130963327Y-58790302D01*
X130784699Y-58611673D01*
X130551310Y-58515000D01*
X130035750Y-58515000D01*
X129877000Y-58673750D01*
X129877000Y-59723000D01*
X130901250Y-59723000D01*
X131060000Y-59564250D01*
X131060000Y-59295571D01*
X131197959Y-59502041D01*
X131405357Y-59640620D01*
X131650000Y-59689283D01*
X133650000Y-59689283D01*
X133894643Y-59640620D01*
X134102041Y-59502041D01*
X134240620Y-59294643D01*
X134289283Y-59050000D01*
X134289283Y-58277000D01*
X137447818Y-58277000D01*
X137458695Y-58293279D01*
X137411673Y-58340301D01*
X137315000Y-58573690D01*
X137315000Y-59164250D01*
X137473750Y-59323000D01*
X138823000Y-59323000D01*
X138823000Y-59303000D01*
X139077000Y-59303000D01*
X139077000Y-59323000D01*
X140426250Y-59323000D01*
X140585000Y-59164250D01*
X140585000Y-58573690D01*
X140488327Y-58340301D01*
X140441305Y-58293279D01*
X140540620Y-58144643D01*
X140589283Y-57900000D01*
X140589283Y-56400000D01*
X140540620Y-56155357D01*
X140436814Y-56000000D01*
X140540620Y-55844643D01*
X140589283Y-55600000D01*
X140589283Y-54100000D01*
X140540620Y-53855357D01*
X140493609Y-53785000D01*
X140551750Y-53785000D01*
X140710500Y-53626250D01*
X140710500Y-52577000D01*
X140964500Y-52577000D01*
X140964500Y-53626250D01*
X141123250Y-53785000D01*
X141451309Y-53785000D01*
X141684698Y-53688327D01*
X141863327Y-53509699D01*
X141960000Y-53276310D01*
X141960000Y-52735750D01*
X141801250Y-52577000D01*
X140964500Y-52577000D01*
X140710500Y-52577000D01*
X140690500Y-52577000D01*
X140690500Y-52323000D01*
X140710500Y-52323000D01*
X140710500Y-51273750D01*
X140964500Y-51273750D01*
X140964500Y-52323000D01*
X141801250Y-52323000D01*
X141960000Y-52164250D01*
X141960000Y-51623690D01*
X141863327Y-51390301D01*
X141684698Y-51211673D01*
X141451309Y-51115000D01*
X141123250Y-51115000D01*
X140964500Y-51273750D01*
X140710500Y-51273750D01*
X140551750Y-51115000D01*
X140223691Y-51115000D01*
X139990302Y-51211673D01*
X139831440Y-51370534D01*
X139830649Y-51369351D01*
X139544172Y-51177934D01*
X139206250Y-51110717D01*
X138718750Y-51110717D01*
X138380828Y-51177934D01*
X138094351Y-51369351D01*
X137958278Y-51573000D01*
X136513265Y-51573000D01*
X134681175Y-49740910D01*
X136438695Y-49740910D01*
X136805640Y-50236343D01*
X138211171Y-50829736D01*
X139736793Y-50840087D01*
X141150246Y-50265819D01*
X141194360Y-50236343D01*
X141561305Y-49740910D01*
X139000000Y-47179605D01*
X136438695Y-49740910D01*
X134681175Y-49740910D01*
X133181210Y-48240946D01*
X133132281Y-48167719D01*
X132842188Y-47973884D01*
X132586375Y-47923000D01*
X132586370Y-47923000D01*
X132500000Y-47905820D01*
X132413630Y-47923000D01*
X122963265Y-47923000D01*
X122881209Y-47840945D01*
X122881208Y-47840943D01*
X122777058Y-47736793D01*
X135159913Y-47736793D01*
X135734181Y-49150246D01*
X135763657Y-49194360D01*
X136259090Y-49561305D01*
X138820395Y-47000000D01*
X139179605Y-47000000D01*
X141740910Y-49561305D01*
X142236343Y-49194360D01*
X142829736Y-47788829D01*
X142840087Y-46263207D01*
X142265819Y-44849754D01*
X142236343Y-44805640D01*
X141740910Y-44438695D01*
X139179605Y-47000000D01*
X138820395Y-47000000D01*
X136259090Y-44438695D01*
X135763657Y-44805640D01*
X135170264Y-46211171D01*
X135159913Y-47736793D01*
X122777058Y-47736793D01*
X122177000Y-47136736D01*
X122177000Y-47013625D01*
X122136895Y-46812004D01*
X122139283Y-46800000D01*
X122139283Y-46768971D01*
X122298691Y-46835000D01*
X122814250Y-46835000D01*
X122973000Y-46676250D01*
X122973000Y-45827000D01*
X123227000Y-45827000D01*
X123227000Y-46676250D01*
X123385750Y-46835000D01*
X123901309Y-46835000D01*
X124134698Y-46738327D01*
X124313327Y-46559699D01*
X124410000Y-46326310D01*
X124410000Y-45985750D01*
X124251250Y-45827000D01*
X123227000Y-45827000D01*
X122973000Y-45827000D01*
X122953000Y-45827000D01*
X122953000Y-45573000D01*
X122973000Y-45573000D01*
X122973000Y-45553000D01*
X123227000Y-45553000D01*
X123227000Y-45573000D01*
X124251250Y-45573000D01*
X124410000Y-45414250D01*
X124410000Y-45073690D01*
X124393974Y-45035000D01*
X125026309Y-45035000D01*
X125259698Y-44938327D01*
X125438327Y-44759699D01*
X125535000Y-44526310D01*
X125535000Y-44259090D01*
X136438695Y-44259090D01*
X139000000Y-46820395D01*
X141561305Y-44259090D01*
X141194360Y-43763657D01*
X139788829Y-43170264D01*
X138263207Y-43159913D01*
X136849754Y-43734181D01*
X136805640Y-43763657D01*
X136438695Y-44259090D01*
X125535000Y-44259090D01*
X125535000Y-43735750D01*
X125376250Y-43577000D01*
X124077000Y-43577000D01*
X124077000Y-43597000D01*
X123823000Y-43597000D01*
X123823000Y-43577000D01*
X121277000Y-43577000D01*
X121277000Y-43597000D01*
X121023000Y-43597000D01*
X121023000Y-43577000D01*
X118977000Y-43577000D01*
X118977000Y-43597000D01*
X118723000Y-43597000D01*
X118723000Y-43577000D01*
X116177000Y-43577000D01*
X116177000Y-43597000D01*
X115923000Y-43597000D01*
X115923000Y-43577000D01*
X114623750Y-43577000D01*
X114465000Y-43735750D01*
X103128259Y-43735750D01*
X101788829Y-43170264D01*
X100263207Y-43159913D01*
X98849754Y-43734181D01*
X98805640Y-43763657D01*
X98438695Y-44259090D01*
X97701360Y-44259090D01*
X97748550Y-44193419D01*
X98296934Y-43661997D01*
X98930768Y-43236079D01*
X99629999Y-42929137D01*
X100377944Y-42749571D01*
X101025744Y-42702000D01*
X114465000Y-42702000D01*
X114465000Y-43164250D01*
G36*
X128377000Y-65123000D02*
X128397000Y-65123000D01*
X128397000Y-65377000D01*
X128377000Y-65377000D01*
X128377000Y-65397000D01*
X128123000Y-65397000D01*
X128123000Y-65377000D01*
X128103000Y-65377000D01*
X128103000Y-65123000D01*
X128123000Y-65123000D01*
X128123000Y-65103000D01*
X128377000Y-65103000D01*
X128377000Y-65123000D01*
X128377000Y-65123000D01*
G37*
X128377000Y-65123000D02*
X128397000Y-65123000D01*
X128397000Y-65377000D01*
X128377000Y-65377000D01*
X128377000Y-65397000D01*
X128123000Y-65397000D01*
X128123000Y-65377000D01*
X128103000Y-65377000D01*
X128103000Y-65123000D01*
X128123000Y-65123000D01*
X128123000Y-65103000D01*
X128377000Y-65103000D01*
X128377000Y-65123000D01*
G36*
X112277000Y-64623000D02*
X112297000Y-64623000D01*
X112297000Y-64877000D01*
X112277000Y-64877000D01*
X112277000Y-64897000D01*
X112023000Y-64897000D01*
X112023000Y-64877000D01*
X112003000Y-64877000D01*
X112003000Y-64623000D01*
X112023000Y-64623000D01*
X112023000Y-64603000D01*
X112277000Y-64603000D01*
X112277000Y-64623000D01*
X112277000Y-64623000D01*
G37*
X112277000Y-64623000D02*
X112297000Y-64623000D01*
X112297000Y-64877000D01*
X112277000Y-64877000D01*
X112277000Y-64897000D01*
X112023000Y-64897000D01*
X112023000Y-64877000D01*
X112003000Y-64877000D01*
X112003000Y-64623000D01*
X112023000Y-64623000D01*
X112023000Y-64603000D01*
X112277000Y-64603000D01*
X112277000Y-64623000D01*
G36*
X126857337Y-63113251D02*
X126768082Y-63246831D01*
X126723000Y-63473475D01*
X126723000Y-63715000D01*
X126647998Y-63715000D01*
X126647998Y-63865873D01*
X126522761Y-63701557D01*
X126219284Y-63772759D01*
X126049225Y-63894975D01*
X126046250Y-63892000D01*
X125770572Y-63892000D01*
X125723589Y-63860607D01*
X125422500Y-63800717D01*
X125103000Y-63800717D01*
X125103000Y-63638000D01*
X125123000Y-63638000D01*
X125123000Y-63618000D01*
X125377000Y-63618000D01*
X125377000Y-63638000D01*
X126046250Y-63638000D01*
X126205000Y-63479250D01*
X126205000Y-63343691D01*
X126108327Y-63110302D01*
X125980026Y-62982000D01*
X126726086Y-62982000D01*
X126857337Y-63113251D01*
X126857337Y-63113251D01*
G37*
X126857337Y-63113251D02*
X126768082Y-63246831D01*
X126723000Y-63473475D01*
X126723000Y-63715000D01*
X126647998Y-63715000D01*
X126647998Y-63865873D01*
X126522761Y-63701557D01*
X126219284Y-63772759D01*
X126049225Y-63894975D01*
X126046250Y-63892000D01*
X125770572Y-63892000D01*
X125723589Y-63860607D01*
X125422500Y-63800717D01*
X125103000Y-63800717D01*
X125103000Y-63638000D01*
X125123000Y-63638000D01*
X125123000Y-63618000D01*
X125377000Y-63618000D01*
X125377000Y-63638000D01*
X126046250Y-63638000D01*
X126205000Y-63479250D01*
X126205000Y-63343691D01*
X126108327Y-63110302D01*
X125980026Y-62982000D01*
X126726086Y-62982000D01*
X126857337Y-63113251D01*
G36*
X125377002Y-62993748D02*
X125377002Y-62982000D01*
X125388750Y-62982000D01*
X125377002Y-62993748D01*
X125377002Y-62993748D01*
G37*
X125377002Y-62993748D02*
X125377002Y-62982000D01*
X125388750Y-62982000D01*
X125377002Y-62993748D01*
G36*
X125122998Y-62993748D02*
X125111250Y-62982000D01*
X125122998Y-62982000D01*
X125122998Y-62993748D01*
X125122998Y-62993748D01*
G37*
X125122998Y-62993748D02*
X125111250Y-62982000D01*
X125122998Y-62982000D01*
X125122998Y-62993748D01*
G04 #@! TO.N,+3V3*
G36*
X129584259Y-56180852D02*
X129719148Y-56315741D01*
X129773000Y-56516721D01*
X129773000Y-56783279D01*
X129719148Y-56984259D01*
X129584259Y-57119148D01*
X129383279Y-57173000D01*
X129116721Y-57173000D01*
X128915741Y-57119148D01*
X128780852Y-56984259D01*
X128727000Y-56783279D01*
X128727000Y-56516721D01*
X128780852Y-56315741D01*
X128915741Y-56180852D01*
X129116721Y-56127000D01*
X129383279Y-56127000D01*
X129584259Y-56180852D01*
X129584259Y-56180852D01*
G37*
X129584259Y-56180852D02*
X129719148Y-56315741D01*
X129773000Y-56516721D01*
X129773000Y-56783279D01*
X129719148Y-56984259D01*
X129584259Y-57119148D01*
X129383279Y-57173000D01*
X129116721Y-57173000D01*
X128915741Y-57119148D01*
X128780852Y-56984259D01*
X128727000Y-56783279D01*
X128727000Y-56516721D01*
X128780852Y-56315741D01*
X128915741Y-56180852D01*
X129116721Y-56127000D01*
X129383279Y-56127000D01*
X129584259Y-56180852D01*
G04 #@! TD*
M02*
