G04 #@! TF.GenerationSoftware,KiCad,Pcbnew,(5.0.2)-1*
G04 #@! TF.CreationDate,2019-01-19T11:17:50+11:00*
G04 #@! TF.ProjectId,Filter_Bank_Dev_Rev_0,46696c74-6572-45f4-9261-6e6b5f446576,0*
G04 #@! TF.SameCoordinates,Original*
G04 #@! TF.FileFunction,Soldermask,Bot*
G04 #@! TF.FilePolarity,Negative*
%FSLAX46Y46*%
G04 Gerber Fmt 4.6, Leading zero omitted, Abs format (unit mm)*
G04 Created by KiCad (PCBNEW (5.0.2)-1) date 19/01/2019 11:17:50*
%MOMM*%
%LPD*%
G01*
G04 APERTURE LIST*
%ADD10C,0.150000*%
%ADD11C,0.100000*%
G04 APERTURE END LIST*
D10*
G04 #@! TO.C,REF\002A\002A*
G36*
X128450000Y-85700000D02*
X134450000Y-85700000D01*
X134450000Y-87950000D01*
X128450000Y-87950000D01*
X128450000Y-85700000D01*
G37*
X128450000Y-85700000D02*
X134450000Y-85700000D01*
X134450000Y-87950000D01*
X128450000Y-87950000D01*
X128450000Y-85700000D01*
D11*
G36*
X139634239Y-81811467D02*
X139948282Y-81873934D01*
X140539926Y-82119001D01*
X140829523Y-82312504D01*
X141072395Y-82474786D01*
X141525214Y-82927605D01*
X141525216Y-82927608D01*
X141880999Y-83460074D01*
X142002724Y-83753944D01*
X142126066Y-84051719D01*
X142251000Y-84679803D01*
X142251000Y-85320197D01*
X142188533Y-85634239D01*
X142126066Y-85948282D01*
X141880999Y-86539926D01*
X141633265Y-86910685D01*
X141525214Y-87072395D01*
X141072395Y-87525214D01*
X141072392Y-87525216D01*
X140539926Y-87880999D01*
X139948282Y-88126066D01*
X139634239Y-88188533D01*
X139320197Y-88251000D01*
X138679803Y-88251000D01*
X138365761Y-88188533D01*
X138051718Y-88126066D01*
X137460074Y-87880999D01*
X136927608Y-87525216D01*
X136927605Y-87525214D01*
X136474786Y-87072395D01*
X136366735Y-86910685D01*
X136119001Y-86539926D01*
X135873934Y-85948282D01*
X135811467Y-85634239D01*
X135749000Y-85320197D01*
X135749000Y-84679803D01*
X135873934Y-84051719D01*
X135997276Y-83753944D01*
X136119001Y-83460074D01*
X136474784Y-82927608D01*
X136474786Y-82927605D01*
X136927605Y-82474786D01*
X137170477Y-82312504D01*
X137460074Y-82119001D01*
X138051718Y-81873934D01*
X138365761Y-81811467D01*
X138679803Y-81749000D01*
X139320197Y-81749000D01*
X139634239Y-81811467D01*
X139634239Y-81811467D01*
G37*
G36*
X101634239Y-81811467D02*
X101948282Y-81873934D01*
X102539926Y-82119001D01*
X102829523Y-82312504D01*
X103072395Y-82474786D01*
X103525214Y-82927605D01*
X103525216Y-82927608D01*
X103880999Y-83460074D01*
X104002724Y-83753944D01*
X104126066Y-84051719D01*
X104251000Y-84679803D01*
X104251000Y-85320197D01*
X104188533Y-85634239D01*
X104126066Y-85948282D01*
X103880999Y-86539926D01*
X103633265Y-86910685D01*
X103525214Y-87072395D01*
X103072395Y-87525214D01*
X103072392Y-87525216D01*
X102539926Y-87880999D01*
X101948282Y-88126066D01*
X101634239Y-88188533D01*
X101320197Y-88251000D01*
X100679803Y-88251000D01*
X100365761Y-88188533D01*
X100051718Y-88126066D01*
X99460074Y-87880999D01*
X98927608Y-87525216D01*
X98927605Y-87525214D01*
X98474786Y-87072395D01*
X98366735Y-86910685D01*
X98119001Y-86539926D01*
X97873934Y-85948282D01*
X97811467Y-85634239D01*
X97749000Y-85320197D01*
X97749000Y-84679803D01*
X97873934Y-84051719D01*
X97997276Y-83753944D01*
X98119001Y-83460074D01*
X98474784Y-82927608D01*
X98474786Y-82927605D01*
X98927605Y-82474786D01*
X99170477Y-82312504D01*
X99460074Y-82119001D01*
X100051718Y-81873934D01*
X100365761Y-81811467D01*
X100679803Y-81749000D01*
X101320197Y-81749000D01*
X101634239Y-81811467D01*
X101634239Y-81811467D01*
G37*
G36*
X120302383Y-73034989D02*
X120366261Y-73061448D01*
X120423750Y-73099861D01*
X120472639Y-73148750D01*
X120511052Y-73206239D01*
X120537511Y-73270117D01*
X120551000Y-73337930D01*
X120551000Y-73407070D01*
X120537511Y-73474883D01*
X120511052Y-73538761D01*
X120472639Y-73596250D01*
X120423750Y-73645139D01*
X120366261Y-73683552D01*
X120302383Y-73710011D01*
X120234570Y-73723500D01*
X120165430Y-73723500D01*
X120097617Y-73710011D01*
X120033739Y-73683552D01*
X119976250Y-73645139D01*
X119927361Y-73596250D01*
X119888948Y-73538761D01*
X119862489Y-73474883D01*
X119849000Y-73407070D01*
X119849000Y-73337930D01*
X119862489Y-73270117D01*
X119888948Y-73206239D01*
X119927361Y-73148750D01*
X119976250Y-73099861D01*
X120033739Y-73061448D01*
X120097617Y-73034989D01*
X120165430Y-73021500D01*
X120234570Y-73021500D01*
X120302383Y-73034989D01*
X120302383Y-73034989D01*
G37*
G36*
X120302383Y-70634989D02*
X120366261Y-70661448D01*
X120423750Y-70699861D01*
X120472639Y-70748750D01*
X120511052Y-70806239D01*
X120537511Y-70870117D01*
X120551000Y-70937930D01*
X120551000Y-71007070D01*
X120537511Y-71074883D01*
X120511052Y-71138761D01*
X120472639Y-71196250D01*
X120423750Y-71245139D01*
X120366261Y-71283552D01*
X120302383Y-71310011D01*
X120234570Y-71323500D01*
X120165430Y-71323500D01*
X120097617Y-71310011D01*
X120033739Y-71283552D01*
X119976250Y-71245139D01*
X119927361Y-71196250D01*
X119888948Y-71138761D01*
X119862489Y-71074883D01*
X119849000Y-71007070D01*
X119849000Y-70937930D01*
X119862489Y-70870117D01*
X119888948Y-70806239D01*
X119927361Y-70748750D01*
X119976250Y-70699861D01*
X120033739Y-70661448D01*
X120097617Y-70634989D01*
X120165430Y-70621500D01*
X120234570Y-70621500D01*
X120302383Y-70634989D01*
X120302383Y-70634989D01*
G37*
G36*
X120302383Y-69112489D02*
X120366261Y-69138948D01*
X120423750Y-69177361D01*
X120472639Y-69226250D01*
X120511052Y-69283739D01*
X120537511Y-69347617D01*
X120551000Y-69415430D01*
X120551000Y-69484570D01*
X120537511Y-69552383D01*
X120511052Y-69616261D01*
X120472639Y-69673750D01*
X120423750Y-69722639D01*
X120366261Y-69761052D01*
X120302383Y-69787511D01*
X120234570Y-69801000D01*
X120165430Y-69801000D01*
X120097617Y-69787511D01*
X120033739Y-69761052D01*
X119976250Y-69722639D01*
X119927361Y-69673750D01*
X119888948Y-69616261D01*
X119862489Y-69552383D01*
X119849000Y-69484570D01*
X119849000Y-69415430D01*
X119862489Y-69347617D01*
X119888948Y-69283739D01*
X119927361Y-69226250D01*
X119976250Y-69177361D01*
X120033739Y-69138948D01*
X120097617Y-69112489D01*
X120165430Y-69099000D01*
X120234570Y-69099000D01*
X120302383Y-69112489D01*
X120302383Y-69112489D01*
G37*
G36*
X143951000Y-68551000D02*
X139649000Y-68551000D01*
X139649000Y-67099000D01*
X143951000Y-67099000D01*
X143951000Y-68551000D01*
X143951000Y-68551000D01*
G37*
G36*
X100351000Y-68551000D02*
X96049000Y-68551000D01*
X96049000Y-67099000D01*
X100351000Y-67099000D01*
X100351000Y-68551000D01*
X100351000Y-68551000D01*
G37*
G36*
X120302383Y-66712489D02*
X120366261Y-66738948D01*
X120423750Y-66777361D01*
X120472639Y-66826250D01*
X120511052Y-66883739D01*
X120537511Y-66947617D01*
X120551000Y-67015430D01*
X120551000Y-67084570D01*
X120537511Y-67152383D01*
X120511052Y-67216261D01*
X120472639Y-67273750D01*
X120423750Y-67322639D01*
X120366261Y-67361052D01*
X120302383Y-67387511D01*
X120234570Y-67401000D01*
X120165430Y-67401000D01*
X120097617Y-67387511D01*
X120033739Y-67361052D01*
X119976250Y-67322639D01*
X119927361Y-67273750D01*
X119888948Y-67216261D01*
X119862489Y-67152383D01*
X119849000Y-67084570D01*
X119849000Y-67015430D01*
X119862489Y-66947617D01*
X119888948Y-66883739D01*
X119927361Y-66826250D01*
X119976250Y-66777361D01*
X120033739Y-66738948D01*
X120097617Y-66712489D01*
X120165430Y-66699000D01*
X120234570Y-66699000D01*
X120302383Y-66712489D01*
X120302383Y-66712489D01*
G37*
G36*
X120352383Y-63112489D02*
X120416261Y-63138948D01*
X120473750Y-63177361D01*
X120522639Y-63226250D01*
X120561052Y-63283739D01*
X120587511Y-63347617D01*
X120601000Y-63415430D01*
X120601000Y-63484570D01*
X120587511Y-63552383D01*
X120561052Y-63616261D01*
X120522639Y-63673750D01*
X120473750Y-63722639D01*
X120416261Y-63761052D01*
X120352383Y-63787511D01*
X120284570Y-63801000D01*
X120215430Y-63801000D01*
X120147617Y-63787511D01*
X120083739Y-63761052D01*
X120026250Y-63722639D01*
X119977361Y-63673750D01*
X119938948Y-63616261D01*
X119912489Y-63552383D01*
X119899000Y-63484570D01*
X119899000Y-63415430D01*
X119912489Y-63347617D01*
X119938948Y-63283739D01*
X119977361Y-63226250D01*
X120026250Y-63177361D01*
X120083739Y-63138948D01*
X120147617Y-63112489D01*
X120215430Y-63099000D01*
X120284570Y-63099000D01*
X120352383Y-63112489D01*
X120352383Y-63112489D01*
G37*
G36*
X143951000Y-62901000D02*
X139649000Y-62901000D01*
X139649000Y-61449000D01*
X143951000Y-61449000D01*
X143951000Y-62901000D01*
X143951000Y-62901000D01*
G37*
G36*
X100351000Y-62901000D02*
X96049000Y-62901000D01*
X96049000Y-61449000D01*
X100351000Y-61449000D01*
X100351000Y-62901000D01*
X100351000Y-62901000D01*
G37*
G36*
X120352383Y-60712489D02*
X120416261Y-60738948D01*
X120473750Y-60777361D01*
X120522639Y-60826250D01*
X120561052Y-60883739D01*
X120587511Y-60947617D01*
X120601000Y-61015430D01*
X120601000Y-61084570D01*
X120587511Y-61152383D01*
X120561052Y-61216261D01*
X120522639Y-61273750D01*
X120473750Y-61322639D01*
X120416261Y-61361052D01*
X120352383Y-61387511D01*
X120284570Y-61401000D01*
X120215430Y-61401000D01*
X120147617Y-61387511D01*
X120083739Y-61361052D01*
X120026250Y-61322639D01*
X119977361Y-61273750D01*
X119938948Y-61216261D01*
X119912489Y-61152383D01*
X119899000Y-61084570D01*
X119899000Y-61015430D01*
X119912489Y-60947617D01*
X119938948Y-60883739D01*
X119977361Y-60826250D01*
X120026250Y-60777361D01*
X120083739Y-60738948D01*
X120147617Y-60712489D01*
X120215430Y-60699000D01*
X120284570Y-60699000D01*
X120352383Y-60712489D01*
X120352383Y-60712489D01*
G37*
G36*
X120302383Y-59112489D02*
X120366261Y-59138948D01*
X120423750Y-59177361D01*
X120472639Y-59226250D01*
X120511052Y-59283739D01*
X120537511Y-59347617D01*
X120551000Y-59415430D01*
X120551000Y-59484570D01*
X120537511Y-59552383D01*
X120511052Y-59616261D01*
X120472639Y-59673750D01*
X120423750Y-59722639D01*
X120366261Y-59761052D01*
X120302383Y-59787511D01*
X120234570Y-59801000D01*
X120165430Y-59801000D01*
X120097617Y-59787511D01*
X120033739Y-59761052D01*
X119976250Y-59722639D01*
X119927361Y-59673750D01*
X119888948Y-59616261D01*
X119862489Y-59552383D01*
X119849000Y-59484570D01*
X119849000Y-59415430D01*
X119862489Y-59347617D01*
X119888948Y-59283739D01*
X119927361Y-59226250D01*
X119976250Y-59177361D01*
X120033739Y-59138948D01*
X120097617Y-59112489D01*
X120165430Y-59099000D01*
X120234570Y-59099000D01*
X120302383Y-59112489D01*
X120302383Y-59112489D01*
G37*
G36*
X120302383Y-56712489D02*
X120366261Y-56738948D01*
X120423750Y-56777361D01*
X120472639Y-56826250D01*
X120511052Y-56883739D01*
X120537511Y-56947617D01*
X120551000Y-57015430D01*
X120551000Y-57084570D01*
X120537511Y-57152383D01*
X120511052Y-57216261D01*
X120472639Y-57273750D01*
X120423750Y-57322639D01*
X120366261Y-57361052D01*
X120302383Y-57387511D01*
X120234570Y-57401000D01*
X120165430Y-57401000D01*
X120097617Y-57387511D01*
X120033739Y-57361052D01*
X119976250Y-57322639D01*
X119927361Y-57273750D01*
X119888948Y-57216261D01*
X119862489Y-57152383D01*
X119849000Y-57084570D01*
X119849000Y-57015430D01*
X119862489Y-56947617D01*
X119888948Y-56883739D01*
X119927361Y-56826250D01*
X119976250Y-56777361D01*
X120033739Y-56738948D01*
X120097617Y-56712489D01*
X120165430Y-56699000D01*
X120234570Y-56699000D01*
X120302383Y-56712489D01*
X120302383Y-56712489D01*
G37*
G36*
X139634239Y-43811467D02*
X139948282Y-43873934D01*
X140539926Y-44119001D01*
X140829523Y-44312504D01*
X141072395Y-44474786D01*
X141525214Y-44927605D01*
X141525216Y-44927608D01*
X141880999Y-45460074D01*
X142076063Y-45931000D01*
X142126066Y-46051719D01*
X142251000Y-46679803D01*
X142251000Y-47320197D01*
X142188533Y-47634239D01*
X142126066Y-47948282D01*
X141880999Y-48539926D01*
X141633265Y-48910685D01*
X141525214Y-49072395D01*
X141072395Y-49525214D01*
X141072392Y-49525216D01*
X140539926Y-49880999D01*
X139948282Y-50126066D01*
X139634239Y-50188533D01*
X139320197Y-50251000D01*
X138679803Y-50251000D01*
X138365761Y-50188533D01*
X138051718Y-50126066D01*
X137460074Y-49880999D01*
X136927608Y-49525216D01*
X136927605Y-49525214D01*
X136474786Y-49072395D01*
X136366735Y-48910685D01*
X136119001Y-48539926D01*
X135873934Y-47948282D01*
X135811467Y-47634239D01*
X135749000Y-47320197D01*
X135749000Y-46679803D01*
X135873934Y-46051719D01*
X135923937Y-45931000D01*
X136119001Y-45460074D01*
X136474784Y-44927608D01*
X136474786Y-44927605D01*
X136927605Y-44474786D01*
X137170477Y-44312504D01*
X137460074Y-44119001D01*
X138051718Y-43873934D01*
X138365761Y-43811467D01*
X138679803Y-43749000D01*
X139320197Y-43749000D01*
X139634239Y-43811467D01*
X139634239Y-43811467D01*
G37*
G36*
X101634239Y-43811467D02*
X101948282Y-43873934D01*
X102539926Y-44119001D01*
X102829523Y-44312504D01*
X103072395Y-44474786D01*
X103525214Y-44927605D01*
X103525216Y-44927608D01*
X103880999Y-45460074D01*
X104076063Y-45931000D01*
X104126066Y-46051719D01*
X104251000Y-46679803D01*
X104251000Y-47320197D01*
X104188533Y-47634239D01*
X104126066Y-47948282D01*
X103880999Y-48539926D01*
X103633265Y-48910685D01*
X103525214Y-49072395D01*
X103072395Y-49525214D01*
X103072392Y-49525216D01*
X102539926Y-49880999D01*
X101948282Y-50126066D01*
X101634239Y-50188533D01*
X101320197Y-50251000D01*
X100679803Y-50251000D01*
X100365761Y-50188533D01*
X100051718Y-50126066D01*
X99460074Y-49880999D01*
X98927608Y-49525216D01*
X98927605Y-49525214D01*
X98474786Y-49072395D01*
X98366735Y-48910685D01*
X98119001Y-48539926D01*
X97873934Y-47948282D01*
X97811467Y-47634239D01*
X97749000Y-47320197D01*
X97749000Y-46679803D01*
X97873934Y-46051719D01*
X97923937Y-45931000D01*
X98119001Y-45460074D01*
X98474784Y-44927608D01*
X98474786Y-44927605D01*
X98927605Y-44474786D01*
X99170477Y-44312504D01*
X99460074Y-44119001D01*
X100051718Y-43873934D01*
X100365761Y-43811467D01*
X100679803Y-43749000D01*
X101320197Y-43749000D01*
X101634239Y-43811467D01*
X101634239Y-43811467D01*
G37*
G36*
X122102383Y-45242489D02*
X122166261Y-45268948D01*
X122223750Y-45307361D01*
X122272639Y-45356250D01*
X122311052Y-45413739D01*
X122337511Y-45477617D01*
X122351000Y-45545430D01*
X122351000Y-45614570D01*
X122337511Y-45682383D01*
X122311052Y-45746261D01*
X122272639Y-45803750D01*
X122223750Y-45852639D01*
X122166261Y-45891052D01*
X122102383Y-45917511D01*
X122034570Y-45931000D01*
X121965430Y-45931000D01*
X121897617Y-45917511D01*
X121833739Y-45891052D01*
X121776250Y-45852639D01*
X121727361Y-45803750D01*
X121688948Y-45746261D01*
X121662489Y-45682383D01*
X121649000Y-45614570D01*
X121649000Y-45545430D01*
X121662489Y-45477617D01*
X121688948Y-45413739D01*
X121727361Y-45356250D01*
X121776250Y-45307361D01*
X121833739Y-45268948D01*
X121897617Y-45242489D01*
X121965430Y-45229000D01*
X122034570Y-45229000D01*
X122102383Y-45242489D01*
X122102383Y-45242489D01*
G37*
G36*
X118102383Y-45242489D02*
X118166261Y-45268948D01*
X118223750Y-45307361D01*
X118272639Y-45356250D01*
X118311052Y-45413739D01*
X118337511Y-45477617D01*
X118351000Y-45545430D01*
X118351000Y-45614570D01*
X118337511Y-45682383D01*
X118311052Y-45746261D01*
X118272639Y-45803750D01*
X118223750Y-45852639D01*
X118166261Y-45891052D01*
X118102383Y-45917511D01*
X118034570Y-45931000D01*
X117965430Y-45931000D01*
X117897617Y-45917511D01*
X117833739Y-45891052D01*
X117776250Y-45852639D01*
X117727361Y-45803750D01*
X117688948Y-45746261D01*
X117662489Y-45682383D01*
X117649000Y-45614570D01*
X117649000Y-45545430D01*
X117662489Y-45477617D01*
X117688948Y-45413739D01*
X117727361Y-45356250D01*
X117776250Y-45307361D01*
X117833739Y-45268948D01*
X117897617Y-45242489D01*
X117965430Y-45229000D01*
X118034570Y-45229000D01*
X118102383Y-45242489D01*
X118102383Y-45242489D01*
G37*
M02*
