G04 #@! TF.GenerationSoftware,KiCad,Pcbnew,(5.0.2)-1*
G04 #@! TF.CreationDate,2019-01-06T12:14:53+11:00*
G04 #@! TF.ProjectId,Filter_Bank_Dev_Rev_0,46696c74-6572-45f4-9261-6e6b5f446576,0*
G04 #@! TF.SameCoordinates,Original*
G04 #@! TF.FileFunction,Legend,Bot*
G04 #@! TF.FilePolarity,Positive*
%FSLAX46Y46*%
G04 Gerber Fmt 4.6, Leading zero omitted, Abs format (unit mm)*
G04 Created by KiCad (PCBNEW (5.0.2)-1) date 6/01/2019 12:14:53*
%MOMM*%
%LPD*%
G01*
G04 APERTURE LIST*
%ADD10C,0.150000*%
G04 APERTURE END LIST*
G04 #@! TO.C,REF\002A\002A*
D10*
X134340476Y-84235714D02*
X134340476Y-85045238D01*
X134388095Y-85140476D01*
X134435714Y-85188095D01*
X134530952Y-85235714D01*
X134673809Y-85235714D01*
X134769047Y-85188095D01*
X134340476Y-84854761D02*
X134435714Y-84902380D01*
X134626190Y-84902380D01*
X134721428Y-84854761D01*
X134769047Y-84807142D01*
X134816666Y-84711904D01*
X134816666Y-84426190D01*
X134769047Y-84330952D01*
X134721428Y-84283333D01*
X134626190Y-84235714D01*
X134435714Y-84235714D01*
X134340476Y-84283333D01*
X133864285Y-84902380D02*
X133864285Y-84235714D01*
X133864285Y-83902380D02*
X133911904Y-83950000D01*
X133864285Y-83997619D01*
X133816666Y-83950000D01*
X133864285Y-83902380D01*
X133864285Y-83997619D01*
X133530952Y-84235714D02*
X133150000Y-84235714D01*
X133388095Y-83902380D02*
X133388095Y-84759523D01*
X133340476Y-84854761D01*
X133245238Y-84902380D01*
X133150000Y-84902380D01*
X132816666Y-84902380D02*
X132816666Y-83902380D01*
X132388095Y-84902380D02*
X132388095Y-84378571D01*
X132435714Y-84283333D01*
X132530952Y-84235714D01*
X132673809Y-84235714D01*
X132769047Y-84283333D01*
X132816666Y-84330952D01*
X131483333Y-84235714D02*
X131483333Y-84902380D01*
X131911904Y-84235714D02*
X131911904Y-84759523D01*
X131864285Y-84854761D01*
X131769047Y-84902380D01*
X131626190Y-84902380D01*
X131530952Y-84854761D01*
X131483333Y-84807142D01*
X131007142Y-84902380D02*
X131007142Y-83902380D01*
X131007142Y-84283333D02*
X130911904Y-84235714D01*
X130721428Y-84235714D01*
X130626190Y-84283333D01*
X130578571Y-84330952D01*
X130530952Y-84426190D01*
X130530952Y-84711904D01*
X130578571Y-84807142D01*
X130626190Y-84854761D01*
X130721428Y-84902380D01*
X130911904Y-84902380D01*
X131007142Y-84854761D01*
X130102380Y-84807142D02*
X130054761Y-84854761D01*
X130102380Y-84902380D01*
X130150000Y-84854761D01*
X130102380Y-84807142D01*
X130102380Y-84902380D01*
X129197619Y-84854761D02*
X129292857Y-84902380D01*
X129483333Y-84902380D01*
X129578571Y-84854761D01*
X129626190Y-84807142D01*
X129673809Y-84711904D01*
X129673809Y-84426190D01*
X129626190Y-84330952D01*
X129578571Y-84283333D01*
X129483333Y-84235714D01*
X129292857Y-84235714D01*
X129197619Y-84283333D01*
X128626190Y-84902380D02*
X128721428Y-84854761D01*
X128769047Y-84807142D01*
X128816666Y-84711904D01*
X128816666Y-84426190D01*
X128769047Y-84330952D01*
X128721428Y-84283333D01*
X128626190Y-84235714D01*
X128483333Y-84235714D01*
X128388095Y-84283333D01*
X128340476Y-84330952D01*
X128292857Y-84426190D01*
X128292857Y-84711904D01*
X128340476Y-84807142D01*
X128388095Y-84854761D01*
X128483333Y-84902380D01*
X128626190Y-84902380D01*
X127864285Y-84902380D02*
X127864285Y-84235714D01*
X127864285Y-84330952D02*
X127816666Y-84283333D01*
X127721428Y-84235714D01*
X127578571Y-84235714D01*
X127483333Y-84283333D01*
X127435714Y-84378571D01*
X127435714Y-84902380D01*
X127435714Y-84378571D02*
X127388095Y-84283333D01*
X127292857Y-84235714D01*
X127150000Y-84235714D01*
X127054761Y-84283333D01*
X127007142Y-84378571D01*
X127007142Y-84902380D01*
X125816666Y-83854761D02*
X126673809Y-85140476D01*
X125483333Y-84235714D02*
X125483333Y-85092857D01*
X125530952Y-85188095D01*
X125626190Y-85235714D01*
X125673809Y-85235714D01*
X125483333Y-83902380D02*
X125530952Y-83950000D01*
X125483333Y-83997619D01*
X125435714Y-83950000D01*
X125483333Y-83902380D01*
X125483333Y-83997619D01*
X124864285Y-84902380D02*
X124959523Y-84854761D01*
X125007142Y-84807142D01*
X125054761Y-84711904D01*
X125054761Y-84426190D01*
X125007142Y-84330952D01*
X124959523Y-84283333D01*
X124864285Y-84235714D01*
X124721428Y-84235714D01*
X124626190Y-84283333D01*
X124578571Y-84330952D01*
X124530952Y-84426190D01*
X124530952Y-84711904D01*
X124578571Y-84807142D01*
X124626190Y-84854761D01*
X124721428Y-84902380D01*
X124864285Y-84902380D01*
X124150000Y-84854761D02*
X124054761Y-84902380D01*
X123864285Y-84902380D01*
X123769047Y-84854761D01*
X123721428Y-84759523D01*
X123721428Y-84711904D01*
X123769047Y-84616666D01*
X123864285Y-84569047D01*
X124007142Y-84569047D01*
X124102380Y-84521428D01*
X124150000Y-84426190D01*
X124150000Y-84378571D01*
X124102380Y-84283333D01*
X124007142Y-84235714D01*
X123864285Y-84235714D01*
X123769047Y-84283333D01*
X123292857Y-84902380D02*
X123292857Y-83902380D01*
X122864285Y-84902380D02*
X122864285Y-84378571D01*
X122911904Y-84283333D01*
X123007142Y-84235714D01*
X123150000Y-84235714D01*
X123245238Y-84283333D01*
X123292857Y-84330952D01*
X121959523Y-84902380D02*
X121959523Y-84378571D01*
X122007142Y-84283333D01*
X122102380Y-84235714D01*
X122292857Y-84235714D01*
X122388095Y-84283333D01*
X121959523Y-84854761D02*
X122054761Y-84902380D01*
X122292857Y-84902380D01*
X122388095Y-84854761D01*
X122435714Y-84759523D01*
X122435714Y-84664285D01*
X122388095Y-84569047D01*
X122292857Y-84521428D01*
X122054761Y-84521428D01*
X121959523Y-84473809D01*
X121483333Y-84235714D02*
X121483333Y-85092857D01*
X121530952Y-85188095D01*
X121626190Y-85235714D01*
X121673809Y-85235714D01*
X121483333Y-83902380D02*
X121530952Y-83950000D01*
X121483333Y-83997619D01*
X121435714Y-83950000D01*
X121483333Y-83902380D01*
X121483333Y-83997619D01*
X120864285Y-84902380D02*
X120959523Y-84854761D01*
X121007142Y-84807142D01*
X121054761Y-84711904D01*
X121054761Y-84426190D01*
X121007142Y-84330952D01*
X120959523Y-84283333D01*
X120864285Y-84235714D01*
X120721428Y-84235714D01*
X120626190Y-84283333D01*
X120578571Y-84330952D01*
X120530952Y-84426190D01*
X120530952Y-84711904D01*
X120578571Y-84807142D01*
X120626190Y-84854761D01*
X120721428Y-84902380D01*
X120864285Y-84902380D01*
X120102380Y-84902380D02*
X120102380Y-83902380D01*
X119673809Y-84902380D02*
X119673809Y-84378571D01*
X119721428Y-84283333D01*
X119816666Y-84235714D01*
X119959523Y-84235714D01*
X120054761Y-84283333D01*
X120102380Y-84330952D01*
X119197619Y-84235714D02*
X119197619Y-84902380D01*
X119197619Y-84330952D02*
X119150000Y-84283333D01*
X119054761Y-84235714D01*
X118911904Y-84235714D01*
X118816666Y-84283333D01*
X118769047Y-84378571D01*
X118769047Y-84902380D01*
X118340476Y-84854761D02*
X118245238Y-84902380D01*
X118054761Y-84902380D01*
X117959523Y-84854761D01*
X117911904Y-84759523D01*
X117911904Y-84711904D01*
X117959523Y-84616666D01*
X118054761Y-84569047D01*
X118197619Y-84569047D01*
X118292857Y-84521428D01*
X118340476Y-84426190D01*
X118340476Y-84378571D01*
X118292857Y-84283333D01*
X118197619Y-84235714D01*
X118054761Y-84235714D01*
X117959523Y-84283333D01*
X117340476Y-84902380D02*
X117435714Y-84854761D01*
X117483333Y-84807142D01*
X117530952Y-84711904D01*
X117530952Y-84426190D01*
X117483333Y-84330952D01*
X117435714Y-84283333D01*
X117340476Y-84235714D01*
X117197619Y-84235714D01*
X117102380Y-84283333D01*
X117054761Y-84330952D01*
X117007142Y-84426190D01*
X117007142Y-84711904D01*
X117054761Y-84807142D01*
X117102380Y-84854761D01*
X117197619Y-84902380D01*
X117340476Y-84902380D01*
X116578571Y-84235714D02*
X116578571Y-84902380D01*
X116578571Y-84330952D02*
X116530952Y-84283333D01*
X116435714Y-84235714D01*
X116292857Y-84235714D01*
X116197619Y-84283333D01*
X116150000Y-84378571D01*
X116150000Y-84902380D01*
X114959523Y-83854761D02*
X115816666Y-85140476D01*
X114721428Y-84235714D02*
X114483333Y-84902380D01*
X114245238Y-84235714D01*
X113864285Y-84235714D02*
X113864285Y-84902380D01*
X113864285Y-84330952D02*
X113816666Y-84283333D01*
X113721428Y-84235714D01*
X113578571Y-84235714D01*
X113483333Y-84283333D01*
X113435714Y-84378571D01*
X113435714Y-84902380D01*
X112530952Y-84902380D02*
X112530952Y-84378571D01*
X112578571Y-84283333D01*
X112673809Y-84235714D01*
X112864285Y-84235714D01*
X112959523Y-84283333D01*
X112530952Y-84854761D02*
X112626190Y-84902380D01*
X112864285Y-84902380D01*
X112959523Y-84854761D01*
X113007142Y-84759523D01*
X113007142Y-84664285D01*
X112959523Y-84569047D01*
X112864285Y-84521428D01*
X112626190Y-84521428D01*
X112530952Y-84473809D01*
X134602380Y-82735714D02*
X134602380Y-83592857D01*
X134650000Y-83688095D01*
X134745238Y-83735714D01*
X134792857Y-83735714D01*
X134602380Y-82402380D02*
X134650000Y-82450000D01*
X134602380Y-82497619D01*
X134554761Y-82450000D01*
X134602380Y-82402380D01*
X134602380Y-82497619D01*
X133983333Y-83402380D02*
X134078571Y-83354761D01*
X134126190Y-83307142D01*
X134173809Y-83211904D01*
X134173809Y-82926190D01*
X134126190Y-82830952D01*
X134078571Y-82783333D01*
X133983333Y-82735714D01*
X133840476Y-82735714D01*
X133745238Y-82783333D01*
X133697619Y-82830952D01*
X133650000Y-82926190D01*
X133650000Y-83211904D01*
X133697619Y-83307142D01*
X133745238Y-83354761D01*
X133840476Y-83402380D01*
X133983333Y-83402380D01*
X133269047Y-83354761D02*
X133173809Y-83402380D01*
X132983333Y-83402380D01*
X132888095Y-83354761D01*
X132840476Y-83259523D01*
X132840476Y-83211904D01*
X132888095Y-83116666D01*
X132983333Y-83069047D01*
X133126190Y-83069047D01*
X133221428Y-83021428D01*
X133269047Y-82926190D01*
X133269047Y-82878571D01*
X133221428Y-82783333D01*
X133126190Y-82735714D01*
X132983333Y-82735714D01*
X132888095Y-82783333D01*
X132411904Y-83402380D02*
X132411904Y-82402380D01*
X131983333Y-83402380D02*
X131983333Y-82878571D01*
X132030952Y-82783333D01*
X132126190Y-82735714D01*
X132269047Y-82735714D01*
X132364285Y-82783333D01*
X132411904Y-82830952D01*
X131078571Y-83402380D02*
X131078571Y-82878571D01*
X131126190Y-82783333D01*
X131221428Y-82735714D01*
X131411904Y-82735714D01*
X131507142Y-82783333D01*
X131078571Y-83354761D02*
X131173809Y-83402380D01*
X131411904Y-83402380D01*
X131507142Y-83354761D01*
X131554761Y-83259523D01*
X131554761Y-83164285D01*
X131507142Y-83069047D01*
X131411904Y-83021428D01*
X131173809Y-83021428D01*
X131078571Y-82973809D01*
X130602380Y-82735714D02*
X130602380Y-83592857D01*
X130650000Y-83688095D01*
X130745238Y-83735714D01*
X130792857Y-83735714D01*
X130602380Y-82402380D02*
X130650000Y-82450000D01*
X130602380Y-82497619D01*
X130554761Y-82450000D01*
X130602380Y-82402380D01*
X130602380Y-82497619D01*
X129983333Y-83402380D02*
X130078571Y-83354761D01*
X130126190Y-83307142D01*
X130173809Y-83211904D01*
X130173809Y-82926190D01*
X130126190Y-82830952D01*
X130078571Y-82783333D01*
X129983333Y-82735714D01*
X129840476Y-82735714D01*
X129745238Y-82783333D01*
X129697619Y-82830952D01*
X129650000Y-82926190D01*
X129650000Y-83211904D01*
X129697619Y-83307142D01*
X129745238Y-83354761D01*
X129840476Y-83402380D01*
X129983333Y-83402380D01*
X129221428Y-83402380D02*
X129221428Y-82402380D01*
X128792857Y-83402380D02*
X128792857Y-82878571D01*
X128840476Y-82783333D01*
X128935714Y-82735714D01*
X129078571Y-82735714D01*
X129173809Y-82783333D01*
X129221428Y-82830952D01*
X128316666Y-82735714D02*
X128316666Y-83402380D01*
X128316666Y-82830952D02*
X128269047Y-82783333D01*
X128173809Y-82735714D01*
X128030952Y-82735714D01*
X127935714Y-82783333D01*
X127888095Y-82878571D01*
X127888095Y-83402380D01*
X127459523Y-83354761D02*
X127364285Y-83402380D01*
X127173809Y-83402380D01*
X127078571Y-83354761D01*
X127030952Y-83259523D01*
X127030952Y-83211904D01*
X127078571Y-83116666D01*
X127173809Y-83069047D01*
X127316666Y-83069047D01*
X127411904Y-83021428D01*
X127459523Y-82926190D01*
X127459523Y-82878571D01*
X127411904Y-82783333D01*
X127316666Y-82735714D01*
X127173809Y-82735714D01*
X127078571Y-82783333D01*
X126459523Y-83402380D02*
X126554761Y-83354761D01*
X126602380Y-83307142D01*
X126650000Y-83211904D01*
X126650000Y-82926190D01*
X126602380Y-82830952D01*
X126554761Y-82783333D01*
X126459523Y-82735714D01*
X126316666Y-82735714D01*
X126221428Y-82783333D01*
X126173809Y-82830952D01*
X126126190Y-82926190D01*
X126126190Y-83211904D01*
X126173809Y-83307142D01*
X126221428Y-83354761D01*
X126316666Y-83402380D01*
X126459523Y-83402380D01*
X125697619Y-82735714D02*
X125697619Y-83402380D01*
X125697619Y-82830952D02*
X125650000Y-82783333D01*
X125554761Y-82735714D01*
X125411904Y-82735714D01*
X125316666Y-82783333D01*
X125269047Y-82878571D01*
X125269047Y-83402380D01*
X124792857Y-83307142D02*
X124745238Y-83354761D01*
X124792857Y-83402380D01*
X124840476Y-83354761D01*
X124792857Y-83307142D01*
X124792857Y-83402380D01*
X123888095Y-83354761D02*
X123983333Y-83402380D01*
X124173809Y-83402380D01*
X124269047Y-83354761D01*
X124316666Y-83307142D01*
X124364285Y-83211904D01*
X124364285Y-82926190D01*
X124316666Y-82830952D01*
X124269047Y-82783333D01*
X124173809Y-82735714D01*
X123983333Y-82735714D01*
X123888095Y-82783333D01*
X123316666Y-83402380D02*
X123411904Y-83354761D01*
X123459523Y-83307142D01*
X123507142Y-83211904D01*
X123507142Y-82926190D01*
X123459523Y-82830952D01*
X123411904Y-82783333D01*
X123316666Y-82735714D01*
X123173809Y-82735714D01*
X123078571Y-82783333D01*
X123030952Y-82830952D01*
X122983333Y-82926190D01*
X122983333Y-83211904D01*
X123030952Y-83307142D01*
X123078571Y-83354761D01*
X123173809Y-83402380D01*
X123316666Y-83402380D01*
X122554761Y-83402380D02*
X122554761Y-82735714D01*
X122554761Y-82830952D02*
X122507142Y-82783333D01*
X122411904Y-82735714D01*
X122269047Y-82735714D01*
X122173809Y-82783333D01*
X122126190Y-82878571D01*
X122126190Y-83402380D01*
X122126190Y-82878571D02*
X122078571Y-82783333D01*
X121983333Y-82735714D01*
X121840476Y-82735714D01*
X121745238Y-82783333D01*
X121697619Y-82878571D01*
X121697619Y-83402380D01*
X134545238Y-80902380D02*
X134545238Y-81616666D01*
X134592857Y-81759523D01*
X134688095Y-81854761D01*
X134830952Y-81902380D01*
X134926190Y-81902380D01*
X133926190Y-81902380D02*
X134021428Y-81854761D01*
X134069047Y-81807142D01*
X134116666Y-81711904D01*
X134116666Y-81426190D01*
X134069047Y-81330952D01*
X134021428Y-81283333D01*
X133926190Y-81235714D01*
X133783333Y-81235714D01*
X133688095Y-81283333D01*
X133640476Y-81330952D01*
X133592857Y-81426190D01*
X133592857Y-81711904D01*
X133640476Y-81807142D01*
X133688095Y-81854761D01*
X133783333Y-81902380D01*
X133926190Y-81902380D01*
X133211904Y-81854761D02*
X133116666Y-81902380D01*
X132926190Y-81902380D01*
X132830952Y-81854761D01*
X132783333Y-81759523D01*
X132783333Y-81711904D01*
X132830952Y-81616666D01*
X132926190Y-81569047D01*
X133069047Y-81569047D01*
X133164285Y-81521428D01*
X133211904Y-81426190D01*
X133211904Y-81378571D01*
X133164285Y-81283333D01*
X133069047Y-81235714D01*
X132926190Y-81235714D01*
X132830952Y-81283333D01*
X132354761Y-81902380D02*
X132354761Y-80902380D01*
X131926190Y-81902380D02*
X131926190Y-81378571D01*
X131973809Y-81283333D01*
X132069047Y-81235714D01*
X132211904Y-81235714D01*
X132307142Y-81283333D01*
X132354761Y-81330952D01*
X130402380Y-80902380D02*
X130402380Y-81616666D01*
X130450000Y-81759523D01*
X130545238Y-81854761D01*
X130688095Y-81902380D01*
X130783333Y-81902380D01*
X129783333Y-81902380D02*
X129878571Y-81854761D01*
X129926190Y-81807142D01*
X129973809Y-81711904D01*
X129973809Y-81426190D01*
X129926190Y-81330952D01*
X129878571Y-81283333D01*
X129783333Y-81235714D01*
X129640476Y-81235714D01*
X129545238Y-81283333D01*
X129497619Y-81330952D01*
X129450000Y-81426190D01*
X129450000Y-81711904D01*
X129497619Y-81807142D01*
X129545238Y-81854761D01*
X129640476Y-81902380D01*
X129783333Y-81902380D01*
X129021428Y-81902380D02*
X129021428Y-80902380D01*
X128592857Y-81902380D02*
X128592857Y-81378571D01*
X128640476Y-81283333D01*
X128735714Y-81235714D01*
X128878571Y-81235714D01*
X128973809Y-81283333D01*
X129021428Y-81330952D01*
X128116666Y-81235714D02*
X128116666Y-81902380D01*
X128116666Y-81330952D02*
X128069047Y-81283333D01*
X127973809Y-81235714D01*
X127830952Y-81235714D01*
X127735714Y-81283333D01*
X127688095Y-81378571D01*
X127688095Y-81902380D01*
X127259523Y-81854761D02*
X127164285Y-81902380D01*
X126973809Y-81902380D01*
X126878571Y-81854761D01*
X126830952Y-81759523D01*
X126830952Y-81711904D01*
X126878571Y-81616666D01*
X126973809Y-81569047D01*
X127116666Y-81569047D01*
X127211904Y-81521428D01*
X127259523Y-81426190D01*
X127259523Y-81378571D01*
X127211904Y-81283333D01*
X127116666Y-81235714D01*
X126973809Y-81235714D01*
X126878571Y-81283333D01*
X126259523Y-81902380D02*
X126354761Y-81854761D01*
X126402380Y-81807142D01*
X126450000Y-81711904D01*
X126450000Y-81426190D01*
X126402380Y-81330952D01*
X126354761Y-81283333D01*
X126259523Y-81235714D01*
X126116666Y-81235714D01*
X126021428Y-81283333D01*
X125973809Y-81330952D01*
X125926190Y-81426190D01*
X125926190Y-81711904D01*
X125973809Y-81807142D01*
X126021428Y-81854761D01*
X126116666Y-81902380D01*
X126259523Y-81902380D01*
X125497619Y-81235714D02*
X125497619Y-81902380D01*
X125497619Y-81330952D02*
X125450000Y-81283333D01*
X125354761Y-81235714D01*
X125211904Y-81235714D01*
X125116666Y-81283333D01*
X125069047Y-81378571D01*
X125069047Y-81902380D01*
G04 #@! TD*
M02*
