G04 #@! TF.GenerationSoftware,KiCad,Pcbnew,(5.0.2)-1*
G04 #@! TF.CreationDate,2019-01-06T12:14:53+11:00*
G04 #@! TF.ProjectId,Filter_Bank_Dev_Rev_0,46696c74-6572-45f4-9261-6e6b5f446576,0*
G04 #@! TF.SameCoordinates,Original*
G04 #@! TF.FileFunction,Legend,Top*
G04 #@! TF.FilePolarity,Positive*
%FSLAX46Y46*%
G04 Gerber Fmt 4.6, Leading zero omitted, Abs format (unit mm)*
G04 Created by KiCad (PCBNEW (5.0.2)-1) date 6/01/2019 12:14:53*
%MOMM*%
%LPD*%
G01*
G04 APERTURE LIST*
%ADD10C,0.150000*%
%ADD11C,0.120000*%
%ADD12C,0.200000*%
G04 APERTURE END LIST*
D10*
G04 #@! TO.C,U1*
X110525000Y-66375000D02*
X111025000Y-66375000D01*
X110525000Y-63125000D02*
X111025000Y-63125000D01*
X113775000Y-63125000D02*
X113275000Y-63125000D01*
X113775000Y-66375000D02*
X113275000Y-66375000D01*
X110525000Y-63125000D02*
X110525000Y-63625000D01*
X113775000Y-63125000D02*
X113775000Y-63625000D01*
X110525000Y-66375000D02*
X110525000Y-65875000D01*
G04 #@! TO.C,U4*
X129875000Y-63625000D02*
X129375000Y-63625000D01*
X129875000Y-66875000D02*
X129375000Y-66875000D01*
X126625000Y-66875000D02*
X127125000Y-66875000D01*
X126625000Y-63625000D02*
X127125000Y-63625000D01*
X129875000Y-66875000D02*
X129875000Y-66375000D01*
X126625000Y-66875000D02*
X126625000Y-66375000D01*
X129875000Y-63625000D02*
X129875000Y-64125000D01*
D11*
G04 #@! TO.C,SW1*
X111435000Y-82703333D02*
X112705000Y-82703333D01*
X112635000Y-83910000D02*
X112635000Y-82703333D01*
X112515000Y-83910000D02*
X112515000Y-82703333D01*
X112395000Y-83910000D02*
X112395000Y-82703333D01*
X112275000Y-83910000D02*
X112275000Y-82703333D01*
X112155000Y-83910000D02*
X112155000Y-82703333D01*
X112035000Y-83910000D02*
X112035000Y-82703333D01*
X111915000Y-83910000D02*
X111915000Y-82703333D01*
X111795000Y-83910000D02*
X111795000Y-82703333D01*
X111675000Y-83910000D02*
X111675000Y-82703333D01*
X111555000Y-83910000D02*
X111555000Y-82703333D01*
X111435000Y-80290000D02*
X111435000Y-83910000D01*
X112705000Y-80290000D02*
X111435000Y-80290000D01*
X112705000Y-83910000D02*
X112705000Y-80290000D01*
X111435000Y-83910000D02*
X112705000Y-83910000D01*
X108895000Y-82703333D02*
X110165000Y-82703333D01*
X110095000Y-83910000D02*
X110095000Y-82703333D01*
X109975000Y-83910000D02*
X109975000Y-82703333D01*
X109855000Y-83910000D02*
X109855000Y-82703333D01*
X109735000Y-83910000D02*
X109735000Y-82703333D01*
X109615000Y-83910000D02*
X109615000Y-82703333D01*
X109495000Y-83910000D02*
X109495000Y-82703333D01*
X109375000Y-83910000D02*
X109375000Y-82703333D01*
X109255000Y-83910000D02*
X109255000Y-82703333D01*
X109135000Y-83910000D02*
X109135000Y-82703333D01*
X109015000Y-83910000D02*
X109015000Y-82703333D01*
X108895000Y-80290000D02*
X108895000Y-83910000D01*
X110165000Y-80290000D02*
X108895000Y-80290000D01*
X110165000Y-83910000D02*
X110165000Y-80290000D01*
X108895000Y-83910000D02*
X110165000Y-83910000D01*
X107130000Y-87750000D02*
X108513000Y-87750000D01*
X107130000Y-87750000D02*
X107130000Y-86367000D01*
X110330000Y-76740000D02*
X111270000Y-76740000D01*
X107400000Y-76740000D02*
X108710000Y-76740000D01*
X112840000Y-76740000D02*
X114150000Y-76740000D01*
X112820000Y-87510000D02*
X114130000Y-87510000D01*
X110280000Y-87510000D02*
X111220000Y-87510000D01*
X107370000Y-87510000D02*
X108680000Y-87510000D01*
X114130000Y-87510000D02*
X114150000Y-76750000D01*
X107370000Y-87510000D02*
X107400000Y-76750000D01*
G04 #@! TO.C,C2*
X139641422Y-51740000D02*
X140158578Y-51740000D01*
X139641422Y-53160000D02*
X140158578Y-53160000D01*
G04 #@! TO.C,C4*
X130685000Y-60100000D02*
X130685000Y-56190000D01*
X130685000Y-56190000D02*
X128815000Y-56190000D01*
X128815000Y-56190000D02*
X128815000Y-60100000D01*
G04 #@! TO.C,R1*
X108821078Y-76010000D02*
X108303922Y-76010000D01*
X108821078Y-74590000D02*
X108303922Y-74590000D01*
G04 #@! TO.C,R2*
X112741422Y-75910000D02*
X113258578Y-75910000D01*
X112741422Y-74490000D02*
X113258578Y-74490000D01*
G04 #@! TO.C,U2*
X109200000Y-71340000D02*
X107300000Y-71340000D01*
X107800000Y-73660000D02*
X109200000Y-73660000D01*
G04 #@! TO.C,U3*
X133890000Y-53740000D02*
X133890000Y-55000000D01*
X133890000Y-60560000D02*
X133890000Y-59300000D01*
X137650000Y-53740000D02*
X133890000Y-53740000D01*
X139900000Y-60560000D02*
X133890000Y-60560000D01*
G04 #@! TO.C,U1*
D10*
X108338095Y-62652380D02*
X108338095Y-63461904D01*
X108385714Y-63557142D01*
X108433333Y-63604761D01*
X108528571Y-63652380D01*
X108719047Y-63652380D01*
X108814285Y-63604761D01*
X108861904Y-63557142D01*
X108909523Y-63461904D01*
X108909523Y-62652380D01*
X109909523Y-63652380D02*
X109338095Y-63652380D01*
X109623809Y-63652380D02*
X109623809Y-62652380D01*
X109528571Y-62795238D01*
X109433333Y-62890476D01*
X109338095Y-62938095D01*
G04 #@! TO.C,U4*
X130588095Y-62502380D02*
X130588095Y-63311904D01*
X130635714Y-63407142D01*
X130683333Y-63454761D01*
X130778571Y-63502380D01*
X130969047Y-63502380D01*
X131064285Y-63454761D01*
X131111904Y-63407142D01*
X131159523Y-63311904D01*
X131159523Y-62502380D01*
X132064285Y-62835714D02*
X132064285Y-63502380D01*
X131826190Y-62454761D02*
X131588095Y-63169047D01*
X132207142Y-63169047D01*
G04 #@! TO.C,SW1*
X106824761Y-83433333D02*
X106872380Y-83290476D01*
X106872380Y-83052380D01*
X106824761Y-82957142D01*
X106777142Y-82909523D01*
X106681904Y-82861904D01*
X106586666Y-82861904D01*
X106491428Y-82909523D01*
X106443809Y-82957142D01*
X106396190Y-83052380D01*
X106348571Y-83242857D01*
X106300952Y-83338095D01*
X106253333Y-83385714D01*
X106158095Y-83433333D01*
X106062857Y-83433333D01*
X105967619Y-83385714D01*
X105920000Y-83338095D01*
X105872380Y-83242857D01*
X105872380Y-83004761D01*
X105920000Y-82861904D01*
X105872380Y-82528571D02*
X106872380Y-82290476D01*
X106158095Y-82100000D01*
X106872380Y-81909523D01*
X105872380Y-81671428D01*
X106872380Y-80766666D02*
X106872380Y-81338095D01*
X106872380Y-81052380D02*
X105872380Y-81052380D01*
X106015238Y-81147619D01*
X106110476Y-81242857D01*
X106158095Y-81338095D01*
G04 #@! TO.C,FL1*
X119511904Y-79428571D02*
X119178571Y-79428571D01*
X119178571Y-79952380D02*
X119178571Y-78952380D01*
X119654761Y-78952380D01*
X120511904Y-79952380D02*
X120035714Y-79952380D01*
X120035714Y-78952380D01*
X121369047Y-79952380D02*
X120797619Y-79952380D01*
X121083333Y-79952380D02*
X121083333Y-78952380D01*
X120988095Y-79095238D01*
X120892857Y-79190476D01*
X120797619Y-79238095D01*
G04 #@! TO.C,FL2*
X119511904Y-77928571D02*
X119178571Y-77928571D01*
X119178571Y-78452380D02*
X119178571Y-77452380D01*
X119654761Y-77452380D01*
X120511904Y-78452380D02*
X120035714Y-78452380D01*
X120035714Y-77452380D01*
X120797619Y-77547619D02*
X120845238Y-77500000D01*
X120940476Y-77452380D01*
X121178571Y-77452380D01*
X121273809Y-77500000D01*
X121321428Y-77547619D01*
X121369047Y-77642857D01*
X121369047Y-77738095D01*
X121321428Y-77880952D01*
X120750000Y-78452380D01*
X121369047Y-78452380D01*
G04 #@! TO.C,FL3*
X119511904Y-76428571D02*
X119178571Y-76428571D01*
X119178571Y-76952380D02*
X119178571Y-75952380D01*
X119654761Y-75952380D01*
X120511904Y-76952380D02*
X120035714Y-76952380D01*
X120035714Y-75952380D01*
X120750000Y-75952380D02*
X121369047Y-75952380D01*
X121035714Y-76333333D01*
X121178571Y-76333333D01*
X121273809Y-76380952D01*
X121321428Y-76428571D01*
X121369047Y-76523809D01*
X121369047Y-76761904D01*
X121321428Y-76857142D01*
X121273809Y-76904761D01*
X121178571Y-76952380D01*
X120892857Y-76952380D01*
X120797619Y-76904761D01*
X120750000Y-76857142D01*
G04 #@! TO.C,FL4*
X119511904Y-74928571D02*
X119178571Y-74928571D01*
X119178571Y-75452380D02*
X119178571Y-74452380D01*
X119654761Y-74452380D01*
X120511904Y-75452380D02*
X120035714Y-75452380D01*
X120035714Y-74452380D01*
X121273809Y-74785714D02*
X121273809Y-75452380D01*
X121035714Y-74404761D02*
X120797619Y-75119047D01*
X121416666Y-75119047D01*
G04 #@! TO.C,C2*
X136933333Y-52757142D02*
X136885714Y-52804761D01*
X136742857Y-52852380D01*
X136647619Y-52852380D01*
X136504761Y-52804761D01*
X136409523Y-52709523D01*
X136361904Y-52614285D01*
X136314285Y-52423809D01*
X136314285Y-52280952D01*
X136361904Y-52090476D01*
X136409523Y-51995238D01*
X136504761Y-51900000D01*
X136647619Y-51852380D01*
X136742857Y-51852380D01*
X136885714Y-51900000D01*
X136933333Y-51947619D01*
X137314285Y-51947619D02*
X137361904Y-51900000D01*
X137457142Y-51852380D01*
X137695238Y-51852380D01*
X137790476Y-51900000D01*
X137838095Y-51947619D01*
X137885714Y-52042857D01*
X137885714Y-52138095D01*
X137838095Y-52280952D01*
X137266666Y-52852380D01*
X137885714Y-52852380D01*
G04 #@! TO.C,C3*
X123583333Y-64857142D02*
X123535714Y-64904761D01*
X123392857Y-64952380D01*
X123297619Y-64952380D01*
X123154761Y-64904761D01*
X123059523Y-64809523D01*
X123011904Y-64714285D01*
X122964285Y-64523809D01*
X122964285Y-64380952D01*
X123011904Y-64190476D01*
X123059523Y-64095238D01*
X123154761Y-64000000D01*
X123297619Y-63952380D01*
X123392857Y-63952380D01*
X123535714Y-64000000D01*
X123583333Y-64047619D01*
X123916666Y-63952380D02*
X124535714Y-63952380D01*
X124202380Y-64333333D01*
X124345238Y-64333333D01*
X124440476Y-64380952D01*
X124488095Y-64428571D01*
X124535714Y-64523809D01*
X124535714Y-64761904D01*
X124488095Y-64857142D01*
X124440476Y-64904761D01*
X124345238Y-64952380D01*
X124059523Y-64952380D01*
X123964285Y-64904761D01*
X123916666Y-64857142D01*
G04 #@! TO.C,C4*
X127333333Y-58857142D02*
X127285714Y-58904761D01*
X127142857Y-58952380D01*
X127047619Y-58952380D01*
X126904761Y-58904761D01*
X126809523Y-58809523D01*
X126761904Y-58714285D01*
X126714285Y-58523809D01*
X126714285Y-58380952D01*
X126761904Y-58190476D01*
X126809523Y-58095238D01*
X126904761Y-58000000D01*
X127047619Y-57952380D01*
X127142857Y-57952380D01*
X127285714Y-58000000D01*
X127333333Y-58047619D01*
X128190476Y-58285714D02*
X128190476Y-58952380D01*
X127952380Y-57904761D02*
X127714285Y-58619047D01*
X128333333Y-58619047D01*
G04 #@! TO.C,C5*
X116583333Y-66857142D02*
X116535714Y-66904761D01*
X116392857Y-66952380D01*
X116297619Y-66952380D01*
X116154761Y-66904761D01*
X116059523Y-66809523D01*
X116011904Y-66714285D01*
X115964285Y-66523809D01*
X115964285Y-66380952D01*
X116011904Y-66190476D01*
X116059523Y-66095238D01*
X116154761Y-66000000D01*
X116297619Y-65952380D01*
X116392857Y-65952380D01*
X116535714Y-66000000D01*
X116583333Y-66047619D01*
X117488095Y-65952380D02*
X117011904Y-65952380D01*
X116964285Y-66428571D01*
X117011904Y-66380952D01*
X117107142Y-66333333D01*
X117345238Y-66333333D01*
X117440476Y-66380952D01*
X117488095Y-66428571D01*
X117535714Y-66523809D01*
X117535714Y-66761904D01*
X117488095Y-66857142D01*
X117440476Y-66904761D01*
X117345238Y-66952380D01*
X117107142Y-66952380D01*
X117011904Y-66904761D01*
X116964285Y-66857142D01*
G04 #@! TO.C,J1*
X119666666Y-47702380D02*
X119666666Y-48416666D01*
X119619047Y-48559523D01*
X119523809Y-48654761D01*
X119380952Y-48702380D01*
X119285714Y-48702380D01*
X120666666Y-48702380D02*
X120095238Y-48702380D01*
X120380952Y-48702380D02*
X120380952Y-47702380D01*
X120285714Y-47845238D01*
X120190476Y-47940476D01*
X120095238Y-47988095D01*
G04 #@! TO.C,R1*
X105733333Y-75752380D02*
X105400000Y-75276190D01*
X105161904Y-75752380D02*
X105161904Y-74752380D01*
X105542857Y-74752380D01*
X105638095Y-74800000D01*
X105685714Y-74847619D01*
X105733333Y-74942857D01*
X105733333Y-75085714D01*
X105685714Y-75180952D01*
X105638095Y-75228571D01*
X105542857Y-75276190D01*
X105161904Y-75276190D01*
X106685714Y-75752380D02*
X106114285Y-75752380D01*
X106400000Y-75752380D02*
X106400000Y-74752380D01*
X106304761Y-74895238D01*
X106209523Y-74990476D01*
X106114285Y-75038095D01*
G04 #@! TO.C,R2*
X115533333Y-75752380D02*
X115200000Y-75276190D01*
X114961904Y-75752380D02*
X114961904Y-74752380D01*
X115342857Y-74752380D01*
X115438095Y-74800000D01*
X115485714Y-74847619D01*
X115533333Y-74942857D01*
X115533333Y-75085714D01*
X115485714Y-75180952D01*
X115438095Y-75228571D01*
X115342857Y-75276190D01*
X114961904Y-75276190D01*
X115914285Y-74847619D02*
X115961904Y-74800000D01*
X116057142Y-74752380D01*
X116295238Y-74752380D01*
X116390476Y-74800000D01*
X116438095Y-74847619D01*
X116485714Y-74942857D01*
X116485714Y-75038095D01*
X116438095Y-75180952D01*
X115866666Y-75752380D01*
X116485714Y-75752380D01*
G04 #@! TO.C,U2*
X107738095Y-69952380D02*
X107738095Y-70761904D01*
X107785714Y-70857142D01*
X107833333Y-70904761D01*
X107928571Y-70952380D01*
X108119047Y-70952380D01*
X108214285Y-70904761D01*
X108261904Y-70857142D01*
X108309523Y-70761904D01*
X108309523Y-69952380D01*
X108738095Y-70047619D02*
X108785714Y-70000000D01*
X108880952Y-69952380D01*
X109119047Y-69952380D01*
X109214285Y-70000000D01*
X109261904Y-70047619D01*
X109309523Y-70142857D01*
X109309523Y-70238095D01*
X109261904Y-70380952D01*
X108690476Y-70952380D01*
X109309523Y-70952380D01*
G04 #@! TO.C,U3*
X135038095Y-61102380D02*
X135038095Y-61911904D01*
X135085714Y-62007142D01*
X135133333Y-62054761D01*
X135228571Y-62102380D01*
X135419047Y-62102380D01*
X135514285Y-62054761D01*
X135561904Y-62007142D01*
X135609523Y-61911904D01*
X135609523Y-61102380D01*
X135990476Y-61102380D02*
X136609523Y-61102380D01*
X136276190Y-61483333D01*
X136419047Y-61483333D01*
X136514285Y-61530952D01*
X136561904Y-61578571D01*
X136609523Y-61673809D01*
X136609523Y-61911904D01*
X136561904Y-62007142D01*
X136514285Y-62054761D01*
X136419047Y-62102380D01*
X136133333Y-62102380D01*
X136038095Y-62054761D01*
X135990476Y-62007142D01*
G04 #@! TO.C,C1*
X108833333Y-66857142D02*
X108785714Y-66904761D01*
X108642857Y-66952380D01*
X108547619Y-66952380D01*
X108404761Y-66904761D01*
X108309523Y-66809523D01*
X108261904Y-66714285D01*
X108214285Y-66523809D01*
X108214285Y-66380952D01*
X108261904Y-66190476D01*
X108309523Y-66095238D01*
X108404761Y-66000000D01*
X108547619Y-65952380D01*
X108642857Y-65952380D01*
X108785714Y-66000000D01*
X108833333Y-66047619D01*
X109785714Y-66952380D02*
X109214285Y-66952380D01*
X109500000Y-66952380D02*
X109500000Y-65952380D01*
X109404761Y-66095238D01*
X109309523Y-66190476D01*
X109214285Y-66238095D01*
G04 #@! TO.C,C6*
X131083333Y-66857142D02*
X131035714Y-66904761D01*
X130892857Y-66952380D01*
X130797619Y-66952380D01*
X130654761Y-66904761D01*
X130559523Y-66809523D01*
X130511904Y-66714285D01*
X130464285Y-66523809D01*
X130464285Y-66380952D01*
X130511904Y-66190476D01*
X130559523Y-66095238D01*
X130654761Y-66000000D01*
X130797619Y-65952380D01*
X130892857Y-65952380D01*
X131035714Y-66000000D01*
X131083333Y-66047619D01*
X131940476Y-65952380D02*
X131750000Y-65952380D01*
X131654761Y-66000000D01*
X131607142Y-66047619D01*
X131511904Y-66190476D01*
X131464285Y-66380952D01*
X131464285Y-66761904D01*
X131511904Y-66857142D01*
X131559523Y-66904761D01*
X131654761Y-66952380D01*
X131845238Y-66952380D01*
X131940476Y-66904761D01*
X131988095Y-66857142D01*
X132035714Y-66761904D01*
X132035714Y-66523809D01*
X131988095Y-66428571D01*
X131940476Y-66380952D01*
X131845238Y-66333333D01*
X131654761Y-66333333D01*
X131559523Y-66380952D01*
X131511904Y-66428571D01*
X131464285Y-66523809D01*
G04 #@! TO.C,REF\002A\002A*
X128642857Y-52902380D02*
X128309523Y-52426190D01*
X128071428Y-52902380D02*
X128071428Y-51902380D01*
X128452380Y-51902380D01*
X128547619Y-51950000D01*
X128595238Y-51997619D01*
X128642857Y-52092857D01*
X128642857Y-52235714D01*
X128595238Y-52330952D01*
X128547619Y-52378571D01*
X128452380Y-52426190D01*
X128071428Y-52426190D01*
X129452380Y-52854761D02*
X129357142Y-52902380D01*
X129166666Y-52902380D01*
X129071428Y-52854761D01*
X129023809Y-52759523D01*
X129023809Y-52378571D01*
X129071428Y-52283333D01*
X129166666Y-52235714D01*
X129357142Y-52235714D01*
X129452380Y-52283333D01*
X129500000Y-52378571D01*
X129500000Y-52473809D01*
X129023809Y-52569047D01*
X129833333Y-52235714D02*
X130071428Y-52902380D01*
X130309523Y-52235714D01*
X131642857Y-51902380D02*
X131738095Y-51902380D01*
X131833333Y-51950000D01*
X131880952Y-51997619D01*
X131928571Y-52092857D01*
X131976190Y-52283333D01*
X131976190Y-52521428D01*
X131928571Y-52711904D01*
X131880952Y-52807142D01*
X131833333Y-52854761D01*
X131738095Y-52902380D01*
X131642857Y-52902380D01*
X131547619Y-52854761D01*
X131500000Y-52807142D01*
X131452380Y-52711904D01*
X131404761Y-52521428D01*
X131404761Y-52283333D01*
X131452380Y-52092857D01*
X131500000Y-51997619D01*
X131547619Y-51950000D01*
X131642857Y-51902380D01*
D12*
X107985714Y-50842857D02*
X107485714Y-50842857D01*
X107485714Y-51628571D02*
X107485714Y-50128571D01*
X108200000Y-50128571D01*
X108771428Y-51628571D02*
X108771428Y-50628571D01*
X108771428Y-50128571D02*
X108700000Y-50200000D01*
X108771428Y-50271428D01*
X108842857Y-50200000D01*
X108771428Y-50128571D01*
X108771428Y-50271428D01*
X109700000Y-51628571D02*
X109557142Y-51557142D01*
X109485714Y-51414285D01*
X109485714Y-50128571D01*
X110057142Y-50628571D02*
X110628571Y-50628571D01*
X110271428Y-50128571D02*
X110271428Y-51414285D01*
X110342857Y-51557142D01*
X110485714Y-51628571D01*
X110628571Y-51628571D01*
X111700000Y-51557142D02*
X111557142Y-51628571D01*
X111271428Y-51628571D01*
X111128571Y-51557142D01*
X111057142Y-51414285D01*
X111057142Y-50842857D01*
X111128571Y-50700000D01*
X111271428Y-50628571D01*
X111557142Y-50628571D01*
X111700000Y-50700000D01*
X111771428Y-50842857D01*
X111771428Y-50985714D01*
X111057142Y-51128571D01*
X112414285Y-51628571D02*
X112414285Y-50628571D01*
X112414285Y-50914285D02*
X112485714Y-50771428D01*
X112557142Y-50700000D01*
X112700000Y-50628571D01*
X112842857Y-50628571D01*
X114985714Y-50842857D02*
X115200000Y-50914285D01*
X115271428Y-50985714D01*
X115342857Y-51128571D01*
X115342857Y-51342857D01*
X115271428Y-51485714D01*
X115200000Y-51557142D01*
X115057142Y-51628571D01*
X114485714Y-51628571D01*
X114485714Y-50128571D01*
X114985714Y-50128571D01*
X115128571Y-50200000D01*
X115200000Y-50271428D01*
X115271428Y-50414285D01*
X115271428Y-50557142D01*
X115200000Y-50700000D01*
X115128571Y-50771428D01*
X114985714Y-50842857D01*
X114485714Y-50842857D01*
X116628571Y-51628571D02*
X116628571Y-50842857D01*
X116557142Y-50700000D01*
X116414285Y-50628571D01*
X116128571Y-50628571D01*
X115985714Y-50700000D01*
X116628571Y-51557142D02*
X116485714Y-51628571D01*
X116128571Y-51628571D01*
X115985714Y-51557142D01*
X115914285Y-51414285D01*
X115914285Y-51271428D01*
X115985714Y-51128571D01*
X116128571Y-51057142D01*
X116485714Y-51057142D01*
X116628571Y-50985714D01*
X117342857Y-50628571D02*
X117342857Y-51628571D01*
X117342857Y-50771428D02*
X117414285Y-50700000D01*
X117557142Y-50628571D01*
X117771428Y-50628571D01*
X117914285Y-50700000D01*
X117985714Y-50842857D01*
X117985714Y-51628571D01*
X118700000Y-51628571D02*
X118700000Y-50128571D01*
X118842857Y-51057142D02*
X119271428Y-51628571D01*
X119271428Y-50628571D02*
X118700000Y-51200000D01*
X121057142Y-51628571D02*
X121057142Y-50128571D01*
X121414285Y-50128571D01*
X121628571Y-50200000D01*
X121771428Y-50342857D01*
X121842857Y-50485714D01*
X121914285Y-50771428D01*
X121914285Y-50985714D01*
X121842857Y-51271428D01*
X121771428Y-51414285D01*
X121628571Y-51557142D01*
X121414285Y-51628571D01*
X121057142Y-51628571D01*
X123128571Y-51557142D02*
X122985714Y-51628571D01*
X122700000Y-51628571D01*
X122557142Y-51557142D01*
X122485714Y-51414285D01*
X122485714Y-50842857D01*
X122557142Y-50700000D01*
X122700000Y-50628571D01*
X122985714Y-50628571D01*
X123128571Y-50700000D01*
X123200000Y-50842857D01*
X123200000Y-50985714D01*
X122485714Y-51128571D01*
X123700000Y-50628571D02*
X124057142Y-51628571D01*
X124414285Y-50628571D01*
X126628571Y-50842857D02*
X126842857Y-50914285D01*
X126914285Y-50985714D01*
X126985714Y-51128571D01*
X126985714Y-51342857D01*
X126914285Y-51485714D01*
X126842857Y-51557142D01*
X126700000Y-51628571D01*
X126128571Y-51628571D01*
X126128571Y-50128571D01*
X126628571Y-50128571D01*
X126771428Y-50200000D01*
X126842857Y-50271428D01*
X126914285Y-50414285D01*
X126914285Y-50557142D01*
X126842857Y-50700000D01*
X126771428Y-50771428D01*
X126628571Y-50842857D01*
X126128571Y-50842857D01*
X127842857Y-51628571D02*
X127700000Y-51557142D01*
X127628571Y-51485714D01*
X127557142Y-51342857D01*
X127557142Y-50914285D01*
X127628571Y-50771428D01*
X127700000Y-50700000D01*
X127842857Y-50628571D01*
X128057142Y-50628571D01*
X128200000Y-50700000D01*
X128271428Y-50771428D01*
X128342857Y-50914285D01*
X128342857Y-51342857D01*
X128271428Y-51485714D01*
X128200000Y-51557142D01*
X128057142Y-51628571D01*
X127842857Y-51628571D01*
X129628571Y-51628571D02*
X129628571Y-50842857D01*
X129557142Y-50700000D01*
X129414285Y-50628571D01*
X129128571Y-50628571D01*
X128985714Y-50700000D01*
X129628571Y-51557142D02*
X129485714Y-51628571D01*
X129128571Y-51628571D01*
X128985714Y-51557142D01*
X128914285Y-51414285D01*
X128914285Y-51271428D01*
X128985714Y-51128571D01*
X129128571Y-51057142D01*
X129485714Y-51057142D01*
X129628571Y-50985714D01*
X130342857Y-51628571D02*
X130342857Y-50628571D01*
X130342857Y-50914285D02*
X130414285Y-50771428D01*
X130485714Y-50700000D01*
X130628571Y-50628571D01*
X130771428Y-50628571D01*
X131914285Y-51628571D02*
X131914285Y-50128571D01*
X131914285Y-51557142D02*
X131771428Y-51628571D01*
X131485714Y-51628571D01*
X131342857Y-51557142D01*
X131271428Y-51485714D01*
X131200000Y-51342857D01*
X131200000Y-50914285D01*
X131271428Y-50771428D01*
X131342857Y-50700000D01*
X131485714Y-50628571D01*
X131771428Y-50628571D01*
X131914285Y-50700000D01*
G04 #@! TD*
M02*
