G04 #@! TF.GenerationSoftware,KiCad,Pcbnew,(5.0.2)-1*
G04 #@! TF.CreationDate,2019-01-06T12:14:53+11:00*
G04 #@! TF.ProjectId,Filter_Bank_Dev_Rev_0,46696c74-6572-45f4-9261-6e6b5f446576,0*
G04 #@! TF.SameCoordinates,Original*
G04 #@! TF.FileFunction,Soldermask,Top*
G04 #@! TF.FilePolarity,Negative*
%FSLAX46Y46*%
G04 Gerber Fmt 4.6, Leading zero omitted, Abs format (unit mm)*
G04 Created by KiCad (PCBNEW (5.0.2)-1) date 6/01/2019 12:14:53*
%MOMM*%
%LPD*%
G01*
G04 APERTURE LIST*
%ADD10C,0.150000*%
%ADD11C,0.010000*%
%ADD12C,0.100000*%
G04 APERTURE END LIST*
D10*
G04 #@! TO.C,REF\002A\002A*
G36*
X128450000Y-85700000D02*
X134450000Y-85700000D01*
X134450000Y-87950000D01*
X128450000Y-87950000D01*
X128450000Y-85700000D01*
G37*
X128450000Y-85700000D02*
X134450000Y-85700000D01*
X134450000Y-87950000D01*
X128450000Y-87950000D01*
X128450000Y-85700000D01*
D11*
G04 #@! TO.C,G\002A\002A\002A*
G36*
X126296025Y-85463358D02*
X126337086Y-85463668D01*
X126373939Y-85464144D01*
X126405448Y-85464763D01*
X126430478Y-85465502D01*
X126447893Y-85466337D01*
X126456557Y-85467244D01*
X126457210Y-85467471D01*
X126459787Y-85473471D01*
X126463922Y-85488787D01*
X126469466Y-85512721D01*
X126476268Y-85544573D01*
X126484179Y-85583644D01*
X126493047Y-85629237D01*
X126500901Y-85670850D01*
X126509151Y-85714601D01*
X126517001Y-85755265D01*
X126524225Y-85791748D01*
X126530599Y-85822957D01*
X126535898Y-85847798D01*
X126539897Y-85865177D01*
X126542372Y-85874000D01*
X126542802Y-85874834D01*
X126549048Y-85878371D01*
X126563151Y-85884916D01*
X126583676Y-85893889D01*
X126609190Y-85904710D01*
X126638258Y-85916800D01*
X126669446Y-85929578D01*
X126701320Y-85942466D01*
X126732447Y-85954882D01*
X126761392Y-85966248D01*
X126786721Y-85975983D01*
X126806999Y-85983508D01*
X126820794Y-85988242D01*
X126826671Y-85989607D01*
X126826678Y-85989605D01*
X126831988Y-85986333D01*
X126844724Y-85977928D01*
X126863948Y-85965025D01*
X126888724Y-85948257D01*
X126918114Y-85928260D01*
X126951180Y-85905669D01*
X126986986Y-85881119D01*
X126995656Y-85875162D01*
X127032085Y-85850277D01*
X127066148Y-85827306D01*
X127096886Y-85806874D01*
X127123339Y-85789606D01*
X127144549Y-85776126D01*
X127159556Y-85767059D01*
X127167401Y-85763028D01*
X127168086Y-85762879D01*
X127173807Y-85766391D01*
X127185602Y-85776292D01*
X127202520Y-85791632D01*
X127223609Y-85811458D01*
X127247919Y-85834820D01*
X127274500Y-85860767D01*
X127302400Y-85888347D01*
X127330669Y-85916609D01*
X127358355Y-85944603D01*
X127384508Y-85971376D01*
X127408178Y-85995978D01*
X127428412Y-86017458D01*
X127444261Y-86034864D01*
X127454774Y-86047246D01*
X127458999Y-86053651D01*
X127459040Y-86053938D01*
X127456243Y-86060058D01*
X127448279Y-86073530D01*
X127435789Y-86093372D01*
X127419410Y-86118598D01*
X127399783Y-86148226D01*
X127377547Y-86181269D01*
X127353341Y-86216745D01*
X127351788Y-86219005D01*
X127327294Y-86254726D01*
X127304499Y-86288139D01*
X127284080Y-86318244D01*
X127266708Y-86344038D01*
X127253060Y-86364521D01*
X127243807Y-86378692D01*
X127239626Y-86385550D01*
X127239568Y-86385670D01*
X127238784Y-86390391D01*
X127239912Y-86398231D01*
X127243299Y-86410143D01*
X127249292Y-86427084D01*
X127258241Y-86450007D01*
X127270491Y-86479867D01*
X127286390Y-86517619D01*
X127294749Y-86537252D01*
X127311018Y-86574852D01*
X127326011Y-86608510D01*
X127339231Y-86637168D01*
X127350175Y-86659772D01*
X127358346Y-86675265D01*
X127363243Y-86682592D01*
X127363710Y-86682948D01*
X127370560Y-86684928D01*
X127386248Y-86688502D01*
X127409616Y-86693434D01*
X127439508Y-86699491D01*
X127474767Y-86706439D01*
X127514236Y-86714044D01*
X127556757Y-86722071D01*
X127561409Y-86722940D01*
X127610146Y-86732180D01*
X127653053Y-86740621D01*
X127689390Y-86748102D01*
X127718418Y-86754463D01*
X127739397Y-86759544D01*
X127751585Y-86763184D01*
X127754451Y-86764714D01*
X127755372Y-86771096D01*
X127756225Y-86786503D01*
X127756989Y-86809798D01*
X127757638Y-86839847D01*
X127758151Y-86875514D01*
X127758503Y-86915663D01*
X127758671Y-86959159D01*
X127758682Y-86970027D01*
X127758649Y-87021548D01*
X127758486Y-87063801D01*
X127758162Y-87097680D01*
X127757647Y-87124077D01*
X127756908Y-87143884D01*
X127755916Y-87157996D01*
X127754639Y-87167303D01*
X127753046Y-87172699D01*
X127751595Y-87174741D01*
X127745095Y-87176999D01*
X127729763Y-87180799D01*
X127706765Y-87185898D01*
X127677271Y-87192050D01*
X127642450Y-87199013D01*
X127603470Y-87206543D01*
X127562365Y-87214236D01*
X127516210Y-87222897D01*
X127474798Y-87230981D01*
X127439062Y-87238286D01*
X127409937Y-87244611D01*
X127388354Y-87249758D01*
X127375249Y-87253525D01*
X127371726Y-87255133D01*
X127367704Y-87261585D01*
X127360714Y-87275987D01*
X127351314Y-87296948D01*
X127340063Y-87323082D01*
X127327519Y-87353000D01*
X127314240Y-87385313D01*
X127300785Y-87418634D01*
X127287712Y-87451575D01*
X127275580Y-87482747D01*
X127264946Y-87510763D01*
X127256369Y-87534233D01*
X127250408Y-87551771D01*
X127247620Y-87561987D01*
X127247556Y-87563842D01*
X127250901Y-87569358D01*
X127259348Y-87582262D01*
X127272236Y-87601573D01*
X127288906Y-87626312D01*
X127308697Y-87655498D01*
X127330948Y-87688151D01*
X127354512Y-87722582D01*
X127378487Y-87757797D01*
X127400526Y-87790662D01*
X127419982Y-87820174D01*
X127436209Y-87845331D01*
X127448558Y-87865130D01*
X127456383Y-87878568D01*
X127459040Y-87884588D01*
X127455537Y-87890258D01*
X127445662Y-87902017D01*
X127430363Y-87918914D01*
X127410590Y-87939997D01*
X127387290Y-87964314D01*
X127361414Y-87990912D01*
X127333908Y-88018838D01*
X127305723Y-88047142D01*
X127277807Y-88074870D01*
X127251109Y-88101071D01*
X127226578Y-88124792D01*
X127205162Y-88145081D01*
X127187810Y-88160985D01*
X127175471Y-88171554D01*
X127169094Y-88175834D01*
X127168792Y-88175880D01*
X127162917Y-88173089D01*
X127149690Y-88165148D01*
X127130102Y-88152705D01*
X127105147Y-88136406D01*
X127075814Y-88116900D01*
X127043098Y-88094834D01*
X127009274Y-88071740D01*
X126974192Y-88047807D01*
X126941493Y-88025813D01*
X126912179Y-88006405D01*
X126887247Y-87990232D01*
X126867696Y-87977942D01*
X126854527Y-87970183D01*
X126848812Y-87967600D01*
X126841386Y-87969920D01*
X126826894Y-87976305D01*
X126807157Y-87985890D01*
X126783991Y-87997810D01*
X126773350Y-88003481D01*
X126747800Y-88016747D01*
X126725514Y-88027375D01*
X126708172Y-88034622D01*
X126697456Y-88037744D01*
X126695823Y-88037771D01*
X126693235Y-88036377D01*
X126689874Y-88032452D01*
X126685467Y-88025381D01*
X126679738Y-88014547D01*
X126672414Y-87999334D01*
X126663220Y-87979125D01*
X126651884Y-87953305D01*
X126638129Y-87921257D01*
X126621684Y-87882365D01*
X126602272Y-87836012D01*
X126579620Y-87781582D01*
X126553454Y-87718459D01*
X126548860Y-87707359D01*
X126526257Y-87652528D01*
X126504911Y-87600342D01*
X126485128Y-87551575D01*
X126467213Y-87506998D01*
X126451473Y-87467386D01*
X126438212Y-87433510D01*
X126427736Y-87406143D01*
X126420352Y-87386060D01*
X126416364Y-87374031D01*
X126415760Y-87370809D01*
X126420949Y-87364897D01*
X126432723Y-87354827D01*
X126449234Y-87342102D01*
X126465173Y-87330629D01*
X126507327Y-87299570D01*
X126541753Y-87270231D01*
X126570203Y-87240682D01*
X126594432Y-87208997D01*
X126616194Y-87173247D01*
X126626863Y-87152918D01*
X126650756Y-87094488D01*
X126665076Y-87034158D01*
X126669979Y-86972953D01*
X126665623Y-86911898D01*
X126652163Y-86852019D01*
X126629756Y-86794342D01*
X126598559Y-86739891D01*
X126558727Y-86689692D01*
X126555664Y-86686411D01*
X126508017Y-86642833D01*
X126454808Y-86607422D01*
X126395354Y-86579755D01*
X126366660Y-86569807D01*
X126349933Y-86564974D01*
X126334165Y-86561632D01*
X126316854Y-86559519D01*
X126295497Y-86558373D01*
X126267593Y-86557935D01*
X126252540Y-86557900D01*
X126220915Y-86558110D01*
X126196936Y-86558916D01*
X126178093Y-86560578D01*
X126161877Y-86563357D01*
X126145778Y-86567516D01*
X126138240Y-86569802D01*
X126076246Y-86594205D01*
X126019961Y-86626690D01*
X125969969Y-86666763D01*
X125926854Y-86713933D01*
X125891201Y-86767707D01*
X125881329Y-86786500D01*
X125860756Y-86833357D01*
X125847234Y-86877726D01*
X125839860Y-86923443D01*
X125837727Y-86971920D01*
X125842586Y-87036989D01*
X125856992Y-87099065D01*
X125880688Y-87157510D01*
X125913416Y-87211687D01*
X125953955Y-87259975D01*
X125972140Y-87276971D01*
X125995762Y-87296791D01*
X126021748Y-87317052D01*
X126047023Y-87335368D01*
X126068514Y-87349354D01*
X126071139Y-87350883D01*
X126082832Y-87359785D01*
X126089872Y-87369264D01*
X126090325Y-87370648D01*
X126088872Y-87377322D01*
X126083641Y-87392833D01*
X126074832Y-87416671D01*
X126062647Y-87448326D01*
X126047287Y-87487287D01*
X126028953Y-87533043D01*
X126007846Y-87585085D01*
X125984166Y-87642901D01*
X125960728Y-87699679D01*
X125938300Y-87753781D01*
X125916914Y-87805286D01*
X125896903Y-87853399D01*
X125878599Y-87897325D01*
X125862334Y-87936268D01*
X125848442Y-87969433D01*
X125837253Y-87996026D01*
X125829102Y-88015249D01*
X125824319Y-88026309D01*
X125823253Y-88028609D01*
X125815020Y-88036716D01*
X125808211Y-88038720D01*
X125800498Y-88036394D01*
X125785745Y-88029995D01*
X125765790Y-88020387D01*
X125742470Y-88008437D01*
X125731642Y-88002672D01*
X125701834Y-87987192D01*
X125678316Y-87976189D01*
X125661875Y-87970007D01*
X125653822Y-87968837D01*
X125646680Y-87972269D01*
X125632538Y-87980700D01*
X125612709Y-87993286D01*
X125588506Y-88009184D01*
X125561241Y-88027551D01*
X125543880Y-88039461D01*
X125496962Y-88071822D01*
X125457682Y-88098815D01*
X125425352Y-88120892D01*
X125399281Y-88138506D01*
X125378781Y-88152109D01*
X125363163Y-88162155D01*
X125351739Y-88169097D01*
X125343819Y-88173388D01*
X125338714Y-88175480D01*
X125336387Y-88175880D01*
X125331121Y-88172399D01*
X125319535Y-88162478D01*
X125302460Y-88146897D01*
X125280721Y-88126437D01*
X125255148Y-88101880D01*
X125226568Y-88074006D01*
X125195809Y-88043597D01*
X125189731Y-88037541D01*
X125158736Y-88006470D01*
X125130010Y-87977382D01*
X125104357Y-87951112D01*
X125082577Y-87928494D01*
X125065473Y-87910363D01*
X125053847Y-87897552D01*
X125048501Y-87890896D01*
X125048266Y-87890413D01*
X125047367Y-87887436D01*
X125047052Y-87884393D01*
X125047835Y-87880460D01*
X125050226Y-87874812D01*
X125054737Y-87866624D01*
X125061879Y-87855072D01*
X125072165Y-87839330D01*
X125086105Y-87818575D01*
X125104212Y-87791980D01*
X125126996Y-87758721D01*
X125154969Y-87717973D01*
X125157515Y-87714266D01*
X125181161Y-87679625D01*
X125202865Y-87647438D01*
X125221973Y-87618706D01*
X125237831Y-87594428D01*
X125249785Y-87575605D01*
X125257181Y-87563237D01*
X125259400Y-87558469D01*
X125257571Y-87552070D01*
X125252390Y-87537455D01*
X125244314Y-87515826D01*
X125233802Y-87488385D01*
X125221312Y-87456333D01*
X125207300Y-87420874D01*
X125200294Y-87403307D01*
X125182557Y-87359314D01*
X125168005Y-87324051D01*
X125156276Y-87296727D01*
X125147006Y-87276551D01*
X125139833Y-87262734D01*
X125134394Y-87254485D01*
X125130444Y-87251059D01*
X125123085Y-87249121D01*
X125106936Y-87245609D01*
X125083202Y-87240762D01*
X125053091Y-87234819D01*
X125017809Y-87228018D01*
X124978562Y-87220597D01*
X124939921Y-87213414D01*
X124898281Y-87205616D01*
X124859669Y-87198154D01*
X124825261Y-87191273D01*
X124796230Y-87185217D01*
X124773751Y-87180232D01*
X124758998Y-87176560D01*
X124753231Y-87174531D01*
X124751433Y-87171360D01*
X124749961Y-87164541D01*
X124748785Y-87153211D01*
X124747877Y-87136509D01*
X124747207Y-87113571D01*
X124746746Y-87083536D01*
X124746465Y-87045541D01*
X124746336Y-86998724D01*
X124746320Y-86968875D01*
X124746320Y-86768954D01*
X124757750Y-86761902D01*
X124765237Y-86759400D01*
X124781536Y-86755372D01*
X124805455Y-86750066D01*
X124835802Y-86743732D01*
X124871384Y-86736617D01*
X124911009Y-86728971D01*
X124953486Y-86721042D01*
X124954600Y-86720838D01*
X124996876Y-86712950D01*
X125036108Y-86705374D01*
X125071145Y-86698352D01*
X125100836Y-86692126D01*
X125124030Y-86686937D01*
X125139576Y-86683026D01*
X125146323Y-86680637D01*
X125146405Y-86680566D01*
X125150090Y-86674301D01*
X125157022Y-86660106D01*
X125166577Y-86639428D01*
X125178134Y-86613713D01*
X125191070Y-86584406D01*
X125204763Y-86552954D01*
X125218591Y-86520802D01*
X125231931Y-86489397D01*
X125244161Y-86460185D01*
X125254659Y-86434611D01*
X125262803Y-86414123D01*
X125267969Y-86400165D01*
X125269560Y-86394394D01*
X125266767Y-86388575D01*
X125258811Y-86375372D01*
X125246319Y-86355749D01*
X125229924Y-86330667D01*
X125210254Y-86301089D01*
X125187939Y-86267976D01*
X125163611Y-86232293D01*
X125159742Y-86226655D01*
X125135048Y-86190538D01*
X125112155Y-86156750D01*
X125091713Y-86126274D01*
X125074371Y-86100088D01*
X125060778Y-86079175D01*
X125051583Y-86064516D01*
X125047434Y-86057090D01*
X125047293Y-86056684D01*
X125048054Y-86052579D01*
X125052214Y-86045668D01*
X125060317Y-86035355D01*
X125072905Y-86021048D01*
X125090521Y-86002154D01*
X125113708Y-85978078D01*
X125143008Y-85948226D01*
X125178964Y-85912005D01*
X125186199Y-85904749D01*
X125222218Y-85868889D01*
X125254356Y-85837378D01*
X125282068Y-85810731D01*
X125304806Y-85789461D01*
X125322023Y-85774081D01*
X125333174Y-85765105D01*
X125337325Y-85762880D01*
X125343560Y-85765672D01*
X125357156Y-85773627D01*
X125377133Y-85786110D01*
X125402508Y-85802487D01*
X125432300Y-85822122D01*
X125465526Y-85844382D01*
X125501205Y-85868631D01*
X125505086Y-85871289D01*
X125541100Y-85895928D01*
X125574822Y-85918914D01*
X125605253Y-85939573D01*
X125631395Y-85957230D01*
X125652248Y-85971211D01*
X125666815Y-85980841D01*
X125674096Y-85985446D01*
X125674352Y-85985587D01*
X125678805Y-85986941D01*
X125685339Y-85986744D01*
X125695059Y-85984631D01*
X125709068Y-85980234D01*
X125728471Y-85973187D01*
X125754373Y-85963124D01*
X125787877Y-85949677D01*
X125811512Y-85940068D01*
X125853366Y-85922981D01*
X125886788Y-85909243D01*
X125912760Y-85898382D01*
X125932264Y-85889926D01*
X125946281Y-85883403D01*
X125955795Y-85878340D01*
X125961786Y-85874266D01*
X125965236Y-85870708D01*
X125967128Y-85867193D01*
X125967945Y-85864840D01*
X125969560Y-85857736D01*
X125972793Y-85841805D01*
X125977420Y-85818215D01*
X125983216Y-85788129D01*
X125989958Y-85752714D01*
X125997420Y-85713135D01*
X126005378Y-85670558D01*
X126006195Y-85666168D01*
X126014252Y-85623481D01*
X126021968Y-85583799D01*
X126029104Y-85548266D01*
X126035420Y-85518028D01*
X126040676Y-85494228D01*
X126044633Y-85478012D01*
X126047050Y-85470524D01*
X126047212Y-85470283D01*
X126050242Y-85468437D01*
X126056563Y-85466928D01*
X126067063Y-85465727D01*
X126082633Y-85464801D01*
X126104159Y-85464121D01*
X126132532Y-85463657D01*
X126168639Y-85463376D01*
X126213370Y-85463250D01*
X126251892Y-85463237D01*
X126296025Y-85463358D01*
X126296025Y-85463358D01*
G37*
X126296025Y-85463358D02*
X126337086Y-85463668D01*
X126373939Y-85464144D01*
X126405448Y-85464763D01*
X126430478Y-85465502D01*
X126447893Y-85466337D01*
X126456557Y-85467244D01*
X126457210Y-85467471D01*
X126459787Y-85473471D01*
X126463922Y-85488787D01*
X126469466Y-85512721D01*
X126476268Y-85544573D01*
X126484179Y-85583644D01*
X126493047Y-85629237D01*
X126500901Y-85670850D01*
X126509151Y-85714601D01*
X126517001Y-85755265D01*
X126524225Y-85791748D01*
X126530599Y-85822957D01*
X126535898Y-85847798D01*
X126539897Y-85865177D01*
X126542372Y-85874000D01*
X126542802Y-85874834D01*
X126549048Y-85878371D01*
X126563151Y-85884916D01*
X126583676Y-85893889D01*
X126609190Y-85904710D01*
X126638258Y-85916800D01*
X126669446Y-85929578D01*
X126701320Y-85942466D01*
X126732447Y-85954882D01*
X126761392Y-85966248D01*
X126786721Y-85975983D01*
X126806999Y-85983508D01*
X126820794Y-85988242D01*
X126826671Y-85989607D01*
X126826678Y-85989605D01*
X126831988Y-85986333D01*
X126844724Y-85977928D01*
X126863948Y-85965025D01*
X126888724Y-85948257D01*
X126918114Y-85928260D01*
X126951180Y-85905669D01*
X126986986Y-85881119D01*
X126995656Y-85875162D01*
X127032085Y-85850277D01*
X127066148Y-85827306D01*
X127096886Y-85806874D01*
X127123339Y-85789606D01*
X127144549Y-85776126D01*
X127159556Y-85767059D01*
X127167401Y-85763028D01*
X127168086Y-85762879D01*
X127173807Y-85766391D01*
X127185602Y-85776292D01*
X127202520Y-85791632D01*
X127223609Y-85811458D01*
X127247919Y-85834820D01*
X127274500Y-85860767D01*
X127302400Y-85888347D01*
X127330669Y-85916609D01*
X127358355Y-85944603D01*
X127384508Y-85971376D01*
X127408178Y-85995978D01*
X127428412Y-86017458D01*
X127444261Y-86034864D01*
X127454774Y-86047246D01*
X127458999Y-86053651D01*
X127459040Y-86053938D01*
X127456243Y-86060058D01*
X127448279Y-86073530D01*
X127435789Y-86093372D01*
X127419410Y-86118598D01*
X127399783Y-86148226D01*
X127377547Y-86181269D01*
X127353341Y-86216745D01*
X127351788Y-86219005D01*
X127327294Y-86254726D01*
X127304499Y-86288139D01*
X127284080Y-86318244D01*
X127266708Y-86344038D01*
X127253060Y-86364521D01*
X127243807Y-86378692D01*
X127239626Y-86385550D01*
X127239568Y-86385670D01*
X127238784Y-86390391D01*
X127239912Y-86398231D01*
X127243299Y-86410143D01*
X127249292Y-86427084D01*
X127258241Y-86450007D01*
X127270491Y-86479867D01*
X127286390Y-86517619D01*
X127294749Y-86537252D01*
X127311018Y-86574852D01*
X127326011Y-86608510D01*
X127339231Y-86637168D01*
X127350175Y-86659772D01*
X127358346Y-86675265D01*
X127363243Y-86682592D01*
X127363710Y-86682948D01*
X127370560Y-86684928D01*
X127386248Y-86688502D01*
X127409616Y-86693434D01*
X127439508Y-86699491D01*
X127474767Y-86706439D01*
X127514236Y-86714044D01*
X127556757Y-86722071D01*
X127561409Y-86722940D01*
X127610146Y-86732180D01*
X127653053Y-86740621D01*
X127689390Y-86748102D01*
X127718418Y-86754463D01*
X127739397Y-86759544D01*
X127751585Y-86763184D01*
X127754451Y-86764714D01*
X127755372Y-86771096D01*
X127756225Y-86786503D01*
X127756989Y-86809798D01*
X127757638Y-86839847D01*
X127758151Y-86875514D01*
X127758503Y-86915663D01*
X127758671Y-86959159D01*
X127758682Y-86970027D01*
X127758649Y-87021548D01*
X127758486Y-87063801D01*
X127758162Y-87097680D01*
X127757647Y-87124077D01*
X127756908Y-87143884D01*
X127755916Y-87157996D01*
X127754639Y-87167303D01*
X127753046Y-87172699D01*
X127751595Y-87174741D01*
X127745095Y-87176999D01*
X127729763Y-87180799D01*
X127706765Y-87185898D01*
X127677271Y-87192050D01*
X127642450Y-87199013D01*
X127603470Y-87206543D01*
X127562365Y-87214236D01*
X127516210Y-87222897D01*
X127474798Y-87230981D01*
X127439062Y-87238286D01*
X127409937Y-87244611D01*
X127388354Y-87249758D01*
X127375249Y-87253525D01*
X127371726Y-87255133D01*
X127367704Y-87261585D01*
X127360714Y-87275987D01*
X127351314Y-87296948D01*
X127340063Y-87323082D01*
X127327519Y-87353000D01*
X127314240Y-87385313D01*
X127300785Y-87418634D01*
X127287712Y-87451575D01*
X127275580Y-87482747D01*
X127264946Y-87510763D01*
X127256369Y-87534233D01*
X127250408Y-87551771D01*
X127247620Y-87561987D01*
X127247556Y-87563842D01*
X127250901Y-87569358D01*
X127259348Y-87582262D01*
X127272236Y-87601573D01*
X127288906Y-87626312D01*
X127308697Y-87655498D01*
X127330948Y-87688151D01*
X127354512Y-87722582D01*
X127378487Y-87757797D01*
X127400526Y-87790662D01*
X127419982Y-87820174D01*
X127436209Y-87845331D01*
X127448558Y-87865130D01*
X127456383Y-87878568D01*
X127459040Y-87884588D01*
X127455537Y-87890258D01*
X127445662Y-87902017D01*
X127430363Y-87918914D01*
X127410590Y-87939997D01*
X127387290Y-87964314D01*
X127361414Y-87990912D01*
X127333908Y-88018838D01*
X127305723Y-88047142D01*
X127277807Y-88074870D01*
X127251109Y-88101071D01*
X127226578Y-88124792D01*
X127205162Y-88145081D01*
X127187810Y-88160985D01*
X127175471Y-88171554D01*
X127169094Y-88175834D01*
X127168792Y-88175880D01*
X127162917Y-88173089D01*
X127149690Y-88165148D01*
X127130102Y-88152705D01*
X127105147Y-88136406D01*
X127075814Y-88116900D01*
X127043098Y-88094834D01*
X127009274Y-88071740D01*
X126974192Y-88047807D01*
X126941493Y-88025813D01*
X126912179Y-88006405D01*
X126887247Y-87990232D01*
X126867696Y-87977942D01*
X126854527Y-87970183D01*
X126848812Y-87967600D01*
X126841386Y-87969920D01*
X126826894Y-87976305D01*
X126807157Y-87985890D01*
X126783991Y-87997810D01*
X126773350Y-88003481D01*
X126747800Y-88016747D01*
X126725514Y-88027375D01*
X126708172Y-88034622D01*
X126697456Y-88037744D01*
X126695823Y-88037771D01*
X126693235Y-88036377D01*
X126689874Y-88032452D01*
X126685467Y-88025381D01*
X126679738Y-88014547D01*
X126672414Y-87999334D01*
X126663220Y-87979125D01*
X126651884Y-87953305D01*
X126638129Y-87921257D01*
X126621684Y-87882365D01*
X126602272Y-87836012D01*
X126579620Y-87781582D01*
X126553454Y-87718459D01*
X126548860Y-87707359D01*
X126526257Y-87652528D01*
X126504911Y-87600342D01*
X126485128Y-87551575D01*
X126467213Y-87506998D01*
X126451473Y-87467386D01*
X126438212Y-87433510D01*
X126427736Y-87406143D01*
X126420352Y-87386060D01*
X126416364Y-87374031D01*
X126415760Y-87370809D01*
X126420949Y-87364897D01*
X126432723Y-87354827D01*
X126449234Y-87342102D01*
X126465173Y-87330629D01*
X126507327Y-87299570D01*
X126541753Y-87270231D01*
X126570203Y-87240682D01*
X126594432Y-87208997D01*
X126616194Y-87173247D01*
X126626863Y-87152918D01*
X126650756Y-87094488D01*
X126665076Y-87034158D01*
X126669979Y-86972953D01*
X126665623Y-86911898D01*
X126652163Y-86852019D01*
X126629756Y-86794342D01*
X126598559Y-86739891D01*
X126558727Y-86689692D01*
X126555664Y-86686411D01*
X126508017Y-86642833D01*
X126454808Y-86607422D01*
X126395354Y-86579755D01*
X126366660Y-86569807D01*
X126349933Y-86564974D01*
X126334165Y-86561632D01*
X126316854Y-86559519D01*
X126295497Y-86558373D01*
X126267593Y-86557935D01*
X126252540Y-86557900D01*
X126220915Y-86558110D01*
X126196936Y-86558916D01*
X126178093Y-86560578D01*
X126161877Y-86563357D01*
X126145778Y-86567516D01*
X126138240Y-86569802D01*
X126076246Y-86594205D01*
X126019961Y-86626690D01*
X125969969Y-86666763D01*
X125926854Y-86713933D01*
X125891201Y-86767707D01*
X125881329Y-86786500D01*
X125860756Y-86833357D01*
X125847234Y-86877726D01*
X125839860Y-86923443D01*
X125837727Y-86971920D01*
X125842586Y-87036989D01*
X125856992Y-87099065D01*
X125880688Y-87157510D01*
X125913416Y-87211687D01*
X125953955Y-87259975D01*
X125972140Y-87276971D01*
X125995762Y-87296791D01*
X126021748Y-87317052D01*
X126047023Y-87335368D01*
X126068514Y-87349354D01*
X126071139Y-87350883D01*
X126082832Y-87359785D01*
X126089872Y-87369264D01*
X126090325Y-87370648D01*
X126088872Y-87377322D01*
X126083641Y-87392833D01*
X126074832Y-87416671D01*
X126062647Y-87448326D01*
X126047287Y-87487287D01*
X126028953Y-87533043D01*
X126007846Y-87585085D01*
X125984166Y-87642901D01*
X125960728Y-87699679D01*
X125938300Y-87753781D01*
X125916914Y-87805286D01*
X125896903Y-87853399D01*
X125878599Y-87897325D01*
X125862334Y-87936268D01*
X125848442Y-87969433D01*
X125837253Y-87996026D01*
X125829102Y-88015249D01*
X125824319Y-88026309D01*
X125823253Y-88028609D01*
X125815020Y-88036716D01*
X125808211Y-88038720D01*
X125800498Y-88036394D01*
X125785745Y-88029995D01*
X125765790Y-88020387D01*
X125742470Y-88008437D01*
X125731642Y-88002672D01*
X125701834Y-87987192D01*
X125678316Y-87976189D01*
X125661875Y-87970007D01*
X125653822Y-87968837D01*
X125646680Y-87972269D01*
X125632538Y-87980700D01*
X125612709Y-87993286D01*
X125588506Y-88009184D01*
X125561241Y-88027551D01*
X125543880Y-88039461D01*
X125496962Y-88071822D01*
X125457682Y-88098815D01*
X125425352Y-88120892D01*
X125399281Y-88138506D01*
X125378781Y-88152109D01*
X125363163Y-88162155D01*
X125351739Y-88169097D01*
X125343819Y-88173388D01*
X125338714Y-88175480D01*
X125336387Y-88175880D01*
X125331121Y-88172399D01*
X125319535Y-88162478D01*
X125302460Y-88146897D01*
X125280721Y-88126437D01*
X125255148Y-88101880D01*
X125226568Y-88074006D01*
X125195809Y-88043597D01*
X125189731Y-88037541D01*
X125158736Y-88006470D01*
X125130010Y-87977382D01*
X125104357Y-87951112D01*
X125082577Y-87928494D01*
X125065473Y-87910363D01*
X125053847Y-87897552D01*
X125048501Y-87890896D01*
X125048266Y-87890413D01*
X125047367Y-87887436D01*
X125047052Y-87884393D01*
X125047835Y-87880460D01*
X125050226Y-87874812D01*
X125054737Y-87866624D01*
X125061879Y-87855072D01*
X125072165Y-87839330D01*
X125086105Y-87818575D01*
X125104212Y-87791980D01*
X125126996Y-87758721D01*
X125154969Y-87717973D01*
X125157515Y-87714266D01*
X125181161Y-87679625D01*
X125202865Y-87647438D01*
X125221973Y-87618706D01*
X125237831Y-87594428D01*
X125249785Y-87575605D01*
X125257181Y-87563237D01*
X125259400Y-87558469D01*
X125257571Y-87552070D01*
X125252390Y-87537455D01*
X125244314Y-87515826D01*
X125233802Y-87488385D01*
X125221312Y-87456333D01*
X125207300Y-87420874D01*
X125200294Y-87403307D01*
X125182557Y-87359314D01*
X125168005Y-87324051D01*
X125156276Y-87296727D01*
X125147006Y-87276551D01*
X125139833Y-87262734D01*
X125134394Y-87254485D01*
X125130444Y-87251059D01*
X125123085Y-87249121D01*
X125106936Y-87245609D01*
X125083202Y-87240762D01*
X125053091Y-87234819D01*
X125017809Y-87228018D01*
X124978562Y-87220597D01*
X124939921Y-87213414D01*
X124898281Y-87205616D01*
X124859669Y-87198154D01*
X124825261Y-87191273D01*
X124796230Y-87185217D01*
X124773751Y-87180232D01*
X124758998Y-87176560D01*
X124753231Y-87174531D01*
X124751433Y-87171360D01*
X124749961Y-87164541D01*
X124748785Y-87153211D01*
X124747877Y-87136509D01*
X124747207Y-87113571D01*
X124746746Y-87083536D01*
X124746465Y-87045541D01*
X124746336Y-86998724D01*
X124746320Y-86968875D01*
X124746320Y-86768954D01*
X124757750Y-86761902D01*
X124765237Y-86759400D01*
X124781536Y-86755372D01*
X124805455Y-86750066D01*
X124835802Y-86743732D01*
X124871384Y-86736617D01*
X124911009Y-86728971D01*
X124953486Y-86721042D01*
X124954600Y-86720838D01*
X124996876Y-86712950D01*
X125036108Y-86705374D01*
X125071145Y-86698352D01*
X125100836Y-86692126D01*
X125124030Y-86686937D01*
X125139576Y-86683026D01*
X125146323Y-86680637D01*
X125146405Y-86680566D01*
X125150090Y-86674301D01*
X125157022Y-86660106D01*
X125166577Y-86639428D01*
X125178134Y-86613713D01*
X125191070Y-86584406D01*
X125204763Y-86552954D01*
X125218591Y-86520802D01*
X125231931Y-86489397D01*
X125244161Y-86460185D01*
X125254659Y-86434611D01*
X125262803Y-86414123D01*
X125267969Y-86400165D01*
X125269560Y-86394394D01*
X125266767Y-86388575D01*
X125258811Y-86375372D01*
X125246319Y-86355749D01*
X125229924Y-86330667D01*
X125210254Y-86301089D01*
X125187939Y-86267976D01*
X125163611Y-86232293D01*
X125159742Y-86226655D01*
X125135048Y-86190538D01*
X125112155Y-86156750D01*
X125091713Y-86126274D01*
X125074371Y-86100088D01*
X125060778Y-86079175D01*
X125051583Y-86064516D01*
X125047434Y-86057090D01*
X125047293Y-86056684D01*
X125048054Y-86052579D01*
X125052214Y-86045668D01*
X125060317Y-86035355D01*
X125072905Y-86021048D01*
X125090521Y-86002154D01*
X125113708Y-85978078D01*
X125143008Y-85948226D01*
X125178964Y-85912005D01*
X125186199Y-85904749D01*
X125222218Y-85868889D01*
X125254356Y-85837378D01*
X125282068Y-85810731D01*
X125304806Y-85789461D01*
X125322023Y-85774081D01*
X125333174Y-85765105D01*
X125337325Y-85762880D01*
X125343560Y-85765672D01*
X125357156Y-85773627D01*
X125377133Y-85786110D01*
X125402508Y-85802487D01*
X125432300Y-85822122D01*
X125465526Y-85844382D01*
X125501205Y-85868631D01*
X125505086Y-85871289D01*
X125541100Y-85895928D01*
X125574822Y-85918914D01*
X125605253Y-85939573D01*
X125631395Y-85957230D01*
X125652248Y-85971211D01*
X125666815Y-85980841D01*
X125674096Y-85985446D01*
X125674352Y-85985587D01*
X125678805Y-85986941D01*
X125685339Y-85986744D01*
X125695059Y-85984631D01*
X125709068Y-85980234D01*
X125728471Y-85973187D01*
X125754373Y-85963124D01*
X125787877Y-85949677D01*
X125811512Y-85940068D01*
X125853366Y-85922981D01*
X125886788Y-85909243D01*
X125912760Y-85898382D01*
X125932264Y-85889926D01*
X125946281Y-85883403D01*
X125955795Y-85878340D01*
X125961786Y-85874266D01*
X125965236Y-85870708D01*
X125967128Y-85867193D01*
X125967945Y-85864840D01*
X125969560Y-85857736D01*
X125972793Y-85841805D01*
X125977420Y-85818215D01*
X125983216Y-85788129D01*
X125989958Y-85752714D01*
X125997420Y-85713135D01*
X126005378Y-85670558D01*
X126006195Y-85666168D01*
X126014252Y-85623481D01*
X126021968Y-85583799D01*
X126029104Y-85548266D01*
X126035420Y-85518028D01*
X126040676Y-85494228D01*
X126044633Y-85478012D01*
X126047050Y-85470524D01*
X126047212Y-85470283D01*
X126050242Y-85468437D01*
X126056563Y-85466928D01*
X126067063Y-85465727D01*
X126082633Y-85464801D01*
X126104159Y-85464121D01*
X126132532Y-85463657D01*
X126168639Y-85463376D01*
X126213370Y-85463250D01*
X126251892Y-85463237D01*
X126296025Y-85463358D01*
D12*
G36*
X139634239Y-81811467D02*
X139948282Y-81873934D01*
X140539926Y-82119001D01*
X140829523Y-82312504D01*
X141072395Y-82474786D01*
X141525214Y-82927605D01*
X141525216Y-82927608D01*
X141880999Y-83460074D01*
X142002724Y-83753944D01*
X142126066Y-84051719D01*
X142251000Y-84679803D01*
X142251000Y-85320197D01*
X142188533Y-85634239D01*
X142126066Y-85948282D01*
X141880999Y-86539926D01*
X141633265Y-86910685D01*
X141525214Y-87072395D01*
X141072395Y-87525214D01*
X141072392Y-87525216D01*
X140539926Y-87880999D01*
X139948282Y-88126066D01*
X139634239Y-88188533D01*
X139320197Y-88251000D01*
X138679803Y-88251000D01*
X138365761Y-88188533D01*
X138051718Y-88126066D01*
X137460074Y-87880999D01*
X136927608Y-87525216D01*
X136927605Y-87525214D01*
X136474786Y-87072395D01*
X136366735Y-86910685D01*
X136119001Y-86539926D01*
X135873934Y-85948282D01*
X135811467Y-85634239D01*
X135749000Y-85320197D01*
X135749000Y-84679803D01*
X135873934Y-84051719D01*
X135997276Y-83753944D01*
X136119001Y-83460074D01*
X136474784Y-82927608D01*
X136474786Y-82927605D01*
X136927605Y-82474786D01*
X137170477Y-82312504D01*
X137460074Y-82119001D01*
X138051718Y-81873934D01*
X138365761Y-81811467D01*
X138679803Y-81749000D01*
X139320197Y-81749000D01*
X139634239Y-81811467D01*
X139634239Y-81811467D01*
G37*
G36*
X101634239Y-81811467D02*
X101948282Y-81873934D01*
X102539926Y-82119001D01*
X102829523Y-82312504D01*
X103072395Y-82474786D01*
X103525214Y-82927605D01*
X103525216Y-82927608D01*
X103880999Y-83460074D01*
X104002724Y-83753944D01*
X104126066Y-84051719D01*
X104251000Y-84679803D01*
X104251000Y-85320197D01*
X104188533Y-85634239D01*
X104126066Y-85948282D01*
X103880999Y-86539926D01*
X103633265Y-86910685D01*
X103525214Y-87072395D01*
X103072395Y-87525214D01*
X103072392Y-87525216D01*
X102539926Y-87880999D01*
X101948282Y-88126066D01*
X101634239Y-88188533D01*
X101320197Y-88251000D01*
X100679803Y-88251000D01*
X100365761Y-88188533D01*
X100051718Y-88126066D01*
X99460074Y-87880999D01*
X98927608Y-87525216D01*
X98927605Y-87525214D01*
X98474786Y-87072395D01*
X98366735Y-86910685D01*
X98119001Y-86539926D01*
X97873934Y-85948282D01*
X97811467Y-85634239D01*
X97749000Y-85320197D01*
X97749000Y-84679803D01*
X97873934Y-84051719D01*
X97997276Y-83753944D01*
X98119001Y-83460074D01*
X98474784Y-82927608D01*
X98474786Y-82927605D01*
X98927605Y-82474786D01*
X99170477Y-82312504D01*
X99460074Y-82119001D01*
X100051718Y-81873934D01*
X100365761Y-81811467D01*
X100679803Y-81749000D01*
X101320197Y-81749000D01*
X101634239Y-81811467D01*
X101634239Y-81811467D01*
G37*
G36*
X112671000Y-87351000D02*
X111469000Y-87351000D01*
X111469000Y-85749000D01*
X112671000Y-85749000D01*
X112671000Y-87351000D01*
X112671000Y-87351000D01*
G37*
G36*
X110131000Y-87351000D02*
X108929000Y-87351000D01*
X108929000Y-85749000D01*
X110131000Y-85749000D01*
X110131000Y-87351000D01*
X110131000Y-87351000D01*
G37*
G36*
X112671000Y-78451000D02*
X111469000Y-78451000D01*
X111469000Y-76849000D01*
X112671000Y-76849000D01*
X112671000Y-78451000D01*
X112671000Y-78451000D01*
G37*
G36*
X110131000Y-78451000D02*
X108929000Y-78451000D01*
X108929000Y-76849000D01*
X110131000Y-76849000D01*
X110131000Y-78451000D01*
X110131000Y-78451000D01*
G37*
G36*
X109871966Y-74553565D02*
X109910637Y-74565296D01*
X109946279Y-74584348D01*
X109977517Y-74609983D01*
X110003152Y-74641221D01*
X110022204Y-74676863D01*
X110033935Y-74715534D01*
X110038500Y-74761888D01*
X110038500Y-75838112D01*
X110033935Y-75884466D01*
X110022204Y-75923137D01*
X110003152Y-75958779D01*
X109977517Y-75990017D01*
X109946279Y-76015652D01*
X109910637Y-76034704D01*
X109871966Y-76046435D01*
X109825612Y-76051000D01*
X109174388Y-76051000D01*
X109128034Y-76046435D01*
X109089363Y-76034704D01*
X109053721Y-76015652D01*
X109022483Y-75990017D01*
X108996848Y-75958779D01*
X108977796Y-75923137D01*
X108966065Y-75884466D01*
X108961500Y-75838112D01*
X108961500Y-74761888D01*
X108966065Y-74715534D01*
X108977796Y-74676863D01*
X108996848Y-74641221D01*
X109022483Y-74609983D01*
X109053721Y-74584348D01*
X109089363Y-74565296D01*
X109128034Y-74553565D01*
X109174388Y-74549000D01*
X109825612Y-74549000D01*
X109871966Y-74553565D01*
X109871966Y-74553565D01*
G37*
G36*
X107996966Y-74553565D02*
X108035637Y-74565296D01*
X108071279Y-74584348D01*
X108102517Y-74609983D01*
X108128152Y-74641221D01*
X108147204Y-74676863D01*
X108158935Y-74715534D01*
X108163500Y-74761888D01*
X108163500Y-75838112D01*
X108158935Y-75884466D01*
X108147204Y-75923137D01*
X108128152Y-75958779D01*
X108102517Y-75990017D01*
X108071279Y-76015652D01*
X108035637Y-76034704D01*
X107996966Y-76046435D01*
X107950612Y-76051000D01*
X107299388Y-76051000D01*
X107253034Y-76046435D01*
X107214363Y-76034704D01*
X107178721Y-76015652D01*
X107147483Y-75990017D01*
X107121848Y-75958779D01*
X107102796Y-75923137D01*
X107091065Y-75884466D01*
X107086500Y-75838112D01*
X107086500Y-74761888D01*
X107091065Y-74715534D01*
X107102796Y-74676863D01*
X107121848Y-74641221D01*
X107147483Y-74609983D01*
X107178721Y-74584348D01*
X107214363Y-74565296D01*
X107253034Y-74553565D01*
X107299388Y-74549000D01*
X107950612Y-74549000D01*
X107996966Y-74553565D01*
X107996966Y-74553565D01*
G37*
G36*
X114309466Y-74453565D02*
X114348137Y-74465296D01*
X114383779Y-74484348D01*
X114415017Y-74509983D01*
X114440652Y-74541221D01*
X114459704Y-74576863D01*
X114471435Y-74615534D01*
X114476000Y-74661888D01*
X114476000Y-75738112D01*
X114471435Y-75784466D01*
X114459704Y-75823137D01*
X114440652Y-75858779D01*
X114415017Y-75890017D01*
X114383779Y-75915652D01*
X114348137Y-75934704D01*
X114309466Y-75946435D01*
X114263112Y-75951000D01*
X113611888Y-75951000D01*
X113565534Y-75946435D01*
X113526863Y-75934704D01*
X113491221Y-75915652D01*
X113459983Y-75890017D01*
X113434348Y-75858779D01*
X113415296Y-75823137D01*
X113403565Y-75784466D01*
X113399000Y-75738112D01*
X113399000Y-74661888D01*
X113403565Y-74615534D01*
X113415296Y-74576863D01*
X113434348Y-74541221D01*
X113459983Y-74509983D01*
X113491221Y-74484348D01*
X113526863Y-74465296D01*
X113565534Y-74453565D01*
X113611888Y-74449000D01*
X114263112Y-74449000D01*
X114309466Y-74453565D01*
X114309466Y-74453565D01*
G37*
G36*
X112434466Y-74453565D02*
X112473137Y-74465296D01*
X112508779Y-74484348D01*
X112540017Y-74509983D01*
X112565652Y-74541221D01*
X112584704Y-74576863D01*
X112596435Y-74615534D01*
X112601000Y-74661888D01*
X112601000Y-75738112D01*
X112596435Y-75784466D01*
X112584704Y-75823137D01*
X112565652Y-75858779D01*
X112540017Y-75890017D01*
X112508779Y-75915652D01*
X112473137Y-75934704D01*
X112434466Y-75946435D01*
X112388112Y-75951000D01*
X111736888Y-75951000D01*
X111690534Y-75946435D01*
X111651863Y-75934704D01*
X111616221Y-75915652D01*
X111584983Y-75890017D01*
X111559348Y-75858779D01*
X111540296Y-75823137D01*
X111528565Y-75784466D01*
X111524000Y-75738112D01*
X111524000Y-74661888D01*
X111528565Y-74615534D01*
X111540296Y-74576863D01*
X111559348Y-74541221D01*
X111584983Y-74509983D01*
X111616221Y-74484348D01*
X111651863Y-74465296D01*
X111690534Y-74453565D01*
X111736888Y-74449000D01*
X112388112Y-74449000D01*
X112434466Y-74453565D01*
X112434466Y-74453565D01*
G37*
G36*
X120556000Y-73768500D02*
X119844000Y-73768500D01*
X119844000Y-72421500D01*
X120556000Y-72421500D01*
X120556000Y-73768500D01*
X120556000Y-73768500D01*
G37*
G36*
X109826000Y-73401000D02*
X109074000Y-73401000D01*
X109074000Y-72899000D01*
X109826000Y-72899000D01*
X109826000Y-73401000D01*
X109826000Y-73401000D01*
G37*
G36*
X107926000Y-73401000D02*
X107174000Y-73401000D01*
X107174000Y-71599000D01*
X107926000Y-71599000D01*
X107926000Y-73401000D01*
X107926000Y-73401000D01*
G37*
G36*
X122396000Y-73123500D02*
X121254000Y-73123500D01*
X121254000Y-71221500D01*
X122396000Y-71221500D01*
X122396000Y-73123500D01*
X122396000Y-73123500D01*
G37*
G36*
X119146000Y-73123500D02*
X118004000Y-73123500D01*
X118004000Y-71221500D01*
X119146000Y-71221500D01*
X119146000Y-73123500D01*
X119146000Y-73123500D01*
G37*
G36*
X109826000Y-72101000D02*
X109074000Y-72101000D01*
X109074000Y-71599000D01*
X109826000Y-71599000D01*
X109826000Y-72101000D01*
X109826000Y-72101000D01*
G37*
G36*
X120556000Y-71923500D02*
X119844000Y-71923500D01*
X119844000Y-70576500D01*
X120556000Y-70576500D01*
X120556000Y-71923500D01*
X120556000Y-71923500D01*
G37*
G36*
X120556000Y-69846000D02*
X119844000Y-69846000D01*
X119844000Y-68499000D01*
X120556000Y-68499000D01*
X120556000Y-69846000D01*
X120556000Y-69846000D01*
G37*
G36*
X122396000Y-69201000D02*
X121254000Y-69201000D01*
X121254000Y-67299000D01*
X122396000Y-67299000D01*
X122396000Y-69201000D01*
X122396000Y-69201000D01*
G37*
G36*
X119146000Y-69201000D02*
X118004000Y-69201000D01*
X118004000Y-67299000D01*
X119146000Y-67299000D01*
X119146000Y-69201000D01*
X119146000Y-69201000D01*
G37*
G36*
X100351000Y-68551000D02*
X96049000Y-68551000D01*
X96049000Y-67099000D01*
X100351000Y-67099000D01*
X100351000Y-68551000D01*
X100351000Y-68551000D01*
G37*
G36*
X143951000Y-68551000D02*
X139649000Y-68551000D01*
X139649000Y-67099000D01*
X143951000Y-67099000D01*
X143951000Y-68551000D01*
X143951000Y-68551000D01*
G37*
G36*
X120556000Y-68001000D02*
X119844000Y-68001000D01*
X119844000Y-66654000D01*
X120556000Y-66654000D01*
X120556000Y-68001000D01*
X120556000Y-68001000D01*
G37*
G36*
X129039398Y-63351908D02*
X129039401Y-63351909D01*
X129039402Y-63351909D01*
X129077290Y-63363402D01*
X129112209Y-63382066D01*
X129142816Y-63407184D01*
X129167934Y-63437790D01*
X129186598Y-63472709D01*
X129195952Y-63503545D01*
X129198092Y-63510600D01*
X129201000Y-63540127D01*
X129201000Y-64009873D01*
X129198092Y-64039400D01*
X129198091Y-64039403D01*
X129186598Y-64077291D01*
X129167934Y-64112210D01*
X129167932Y-64112212D01*
X129166402Y-64115075D01*
X129157025Y-64137714D01*
X129152244Y-64161747D01*
X129152244Y-64186252D01*
X129157024Y-64210285D01*
X129166402Y-64232924D01*
X129180015Y-64253299D01*
X129197342Y-64270626D01*
X129217362Y-64284003D01*
X129222066Y-64292804D01*
X129237612Y-64311746D01*
X129256554Y-64327292D01*
X129278165Y-64338843D01*
X129301614Y-64345956D01*
X129326000Y-64348358D01*
X129350386Y-64345956D01*
X129373835Y-64338843D01*
X129384925Y-64333598D01*
X129387788Y-64332068D01*
X129387790Y-64332066D01*
X129422709Y-64313402D01*
X129460597Y-64301909D01*
X129460600Y-64301908D01*
X129490127Y-64299000D01*
X129959873Y-64299000D01*
X129989400Y-64301908D01*
X129989403Y-64301909D01*
X130027291Y-64313402D01*
X130062210Y-64332066D01*
X130092816Y-64357184D01*
X130117934Y-64387790D01*
X130125619Y-64402169D01*
X130136597Y-64422707D01*
X130148092Y-64460600D01*
X130151972Y-64500000D01*
X130148092Y-64539400D01*
X130148091Y-64539403D01*
X130136598Y-64577291D01*
X130117934Y-64612210D01*
X130093347Y-64642169D01*
X130092814Y-64642818D01*
X130079952Y-64653373D01*
X130062625Y-64670700D01*
X130049011Y-64691074D01*
X130039633Y-64713713D01*
X130034852Y-64737746D01*
X130034852Y-64762251D01*
X130039632Y-64786284D01*
X130049009Y-64808923D01*
X130062623Y-64829298D01*
X130079950Y-64846625D01*
X130092816Y-64857184D01*
X130117934Y-64887790D01*
X130128736Y-64908000D01*
X130136597Y-64922707D01*
X130148092Y-64960600D01*
X130151972Y-65000000D01*
X130148092Y-65039400D01*
X130148091Y-65039403D01*
X130136598Y-65077291D01*
X130117934Y-65112210D01*
X130092816Y-65142816D01*
X130092814Y-65142818D01*
X130079952Y-65153373D01*
X130062625Y-65170700D01*
X130049011Y-65191074D01*
X130039633Y-65213713D01*
X130034852Y-65237746D01*
X130034852Y-65262251D01*
X130039632Y-65286284D01*
X130049009Y-65308923D01*
X130062623Y-65329298D01*
X130079950Y-65346625D01*
X130092816Y-65357184D01*
X130117934Y-65387790D01*
X130135466Y-65420590D01*
X130136597Y-65422707D01*
X130148092Y-65460600D01*
X130151972Y-65500000D01*
X130148092Y-65539400D01*
X130148091Y-65539403D01*
X130136598Y-65577291D01*
X130117934Y-65612210D01*
X130092816Y-65642816D01*
X130082062Y-65651642D01*
X130079952Y-65653373D01*
X130062625Y-65670700D01*
X130049011Y-65691074D01*
X130039633Y-65713713D01*
X130034852Y-65737746D01*
X130034852Y-65762251D01*
X130039632Y-65786284D01*
X130049009Y-65808923D01*
X130062623Y-65829298D01*
X130079950Y-65846625D01*
X130092816Y-65857184D01*
X130117934Y-65887790D01*
X130135466Y-65920590D01*
X130136597Y-65922707D01*
X130148092Y-65960600D01*
X130151972Y-66000000D01*
X130148092Y-66039400D01*
X130148091Y-66039403D01*
X130136598Y-66077291D01*
X130117934Y-66112210D01*
X130092816Y-66142816D01*
X130062210Y-66167934D01*
X130027291Y-66186598D01*
X129996455Y-66195952D01*
X129989400Y-66198092D01*
X129959873Y-66201000D01*
X129490127Y-66201000D01*
X129460600Y-66198092D01*
X129453545Y-66195952D01*
X129422709Y-66186598D01*
X129387790Y-66167934D01*
X129387788Y-66167932D01*
X129384925Y-66166402D01*
X129362286Y-66157025D01*
X129338253Y-66152244D01*
X129313748Y-66152244D01*
X129289715Y-66157024D01*
X129267076Y-66166402D01*
X129246701Y-66180015D01*
X129229374Y-66197342D01*
X129215997Y-66217362D01*
X129207196Y-66222066D01*
X129188254Y-66237612D01*
X129172708Y-66256554D01*
X129161157Y-66278165D01*
X129154044Y-66301614D01*
X129151642Y-66326000D01*
X129154044Y-66350386D01*
X129161157Y-66373835D01*
X129166402Y-66384925D01*
X129167932Y-66387788D01*
X129167934Y-66387790D01*
X129184723Y-66419201D01*
X129186597Y-66422707D01*
X129198092Y-66460600D01*
X129201000Y-66490127D01*
X129201000Y-66959873D01*
X129198092Y-66989400D01*
X129198091Y-66989403D01*
X129186598Y-67027291D01*
X129167934Y-67062210D01*
X129142816Y-67092816D01*
X129112210Y-67117934D01*
X129077291Y-67136598D01*
X129046455Y-67145952D01*
X129039400Y-67148092D01*
X129000000Y-67151972D01*
X128960602Y-67148092D01*
X128960599Y-67148091D01*
X128960598Y-67148091D01*
X128922710Y-67136598D01*
X128887791Y-67117934D01*
X128857185Y-67092816D01*
X128846625Y-67079949D01*
X128829301Y-67062625D01*
X128808927Y-67049011D01*
X128786288Y-67039633D01*
X128762255Y-67034852D01*
X128737750Y-67034852D01*
X128713717Y-67039632D01*
X128691078Y-67049009D01*
X128670703Y-67062623D01*
X128653376Y-67079949D01*
X128649584Y-67084570D01*
X128642816Y-67092816D01*
X128612210Y-67117934D01*
X128577291Y-67136598D01*
X128546455Y-67145952D01*
X128539400Y-67148092D01*
X128500000Y-67151972D01*
X128460602Y-67148092D01*
X128460599Y-67148091D01*
X128460598Y-67148091D01*
X128422710Y-67136598D01*
X128387791Y-67117934D01*
X128357185Y-67092816D01*
X128346625Y-67079949D01*
X128329301Y-67062625D01*
X128308927Y-67049011D01*
X128286288Y-67039633D01*
X128262255Y-67034852D01*
X128237750Y-67034852D01*
X128213717Y-67039632D01*
X128191078Y-67049009D01*
X128170703Y-67062623D01*
X128153376Y-67079949D01*
X128149584Y-67084570D01*
X128142816Y-67092816D01*
X128112210Y-67117934D01*
X128077291Y-67136598D01*
X128046455Y-67145952D01*
X128039400Y-67148092D01*
X128000000Y-67151972D01*
X127960602Y-67148092D01*
X127960599Y-67148091D01*
X127960598Y-67148091D01*
X127922710Y-67136598D01*
X127887791Y-67117934D01*
X127857185Y-67092816D01*
X127846625Y-67079949D01*
X127829301Y-67062625D01*
X127808927Y-67049011D01*
X127786288Y-67039633D01*
X127762255Y-67034852D01*
X127737750Y-67034852D01*
X127713717Y-67039632D01*
X127691078Y-67049009D01*
X127670703Y-67062623D01*
X127653376Y-67079949D01*
X127649584Y-67084570D01*
X127642816Y-67092816D01*
X127612210Y-67117934D01*
X127577291Y-67136598D01*
X127546455Y-67145952D01*
X127539400Y-67148092D01*
X127500000Y-67151972D01*
X127460602Y-67148092D01*
X127460599Y-67148091D01*
X127460598Y-67148091D01*
X127422710Y-67136598D01*
X127387791Y-67117934D01*
X127357185Y-67092816D01*
X127332067Y-67062210D01*
X127313403Y-67027291D01*
X127301910Y-66989403D01*
X127301910Y-66989402D01*
X127301909Y-66989399D01*
X127299000Y-66959869D01*
X127299000Y-66490128D01*
X127301908Y-66460601D01*
X127313403Y-66422706D01*
X127326084Y-66398984D01*
X127332066Y-66387791D01*
X127332068Y-66387789D01*
X127333598Y-66384926D01*
X127342976Y-66362287D01*
X127347757Y-66338254D01*
X127347757Y-66313749D01*
X127342977Y-66289716D01*
X127333600Y-66267077D01*
X127319986Y-66246702D01*
X127302659Y-66229375D01*
X127282638Y-66215997D01*
X127277934Y-66207196D01*
X127262388Y-66188254D01*
X127243446Y-66172708D01*
X127221835Y-66161157D01*
X127198386Y-66154044D01*
X127174000Y-66151642D01*
X127149614Y-66154044D01*
X127126165Y-66161157D01*
X127115075Y-66166402D01*
X127112212Y-66167932D01*
X127112210Y-66167934D01*
X127077291Y-66186598D01*
X127046455Y-66195952D01*
X127039400Y-66198092D01*
X127009873Y-66201000D01*
X126540127Y-66201000D01*
X126510600Y-66198092D01*
X126503545Y-66195952D01*
X126472709Y-66186598D01*
X126437790Y-66167934D01*
X126407184Y-66142816D01*
X126382066Y-66112210D01*
X126363402Y-66077291D01*
X126351909Y-66039403D01*
X126351908Y-66039400D01*
X126348028Y-66000000D01*
X126351908Y-65960600D01*
X126363403Y-65922707D01*
X126364534Y-65920590D01*
X126382066Y-65887790D01*
X126407184Y-65857184D01*
X126420050Y-65846625D01*
X126437375Y-65829300D01*
X126450989Y-65808926D01*
X126460367Y-65786287D01*
X126465148Y-65762254D01*
X126465148Y-65737749D01*
X126460368Y-65713716D01*
X126450991Y-65691077D01*
X126437377Y-65670702D01*
X126420048Y-65653373D01*
X126417939Y-65651642D01*
X126407184Y-65642816D01*
X126382066Y-65612210D01*
X126363402Y-65577291D01*
X126351909Y-65539403D01*
X126351908Y-65539400D01*
X126348028Y-65500000D01*
X126351908Y-65460600D01*
X126363403Y-65422707D01*
X126364534Y-65420590D01*
X126382066Y-65387790D01*
X126407184Y-65357184D01*
X126420050Y-65346625D01*
X126437375Y-65329300D01*
X126450989Y-65308926D01*
X126460367Y-65286287D01*
X126465148Y-65262254D01*
X126465148Y-65237749D01*
X126460368Y-65213716D01*
X126450991Y-65191077D01*
X126437377Y-65170702D01*
X126420048Y-65153373D01*
X126407186Y-65142818D01*
X126407184Y-65142816D01*
X126382066Y-65112210D01*
X126363402Y-65077291D01*
X126351909Y-65039403D01*
X126351908Y-65039400D01*
X126348028Y-65000000D01*
X126351908Y-64960600D01*
X126363403Y-64922707D01*
X126371264Y-64908000D01*
X126382066Y-64887790D01*
X126407184Y-64857184D01*
X126420050Y-64846625D01*
X126437375Y-64829300D01*
X126450989Y-64808926D01*
X126460367Y-64786287D01*
X126465148Y-64762254D01*
X126465148Y-64737749D01*
X126460368Y-64713716D01*
X126450991Y-64691077D01*
X126437377Y-64670702D01*
X126420048Y-64653373D01*
X126407186Y-64642818D01*
X126406653Y-64642169D01*
X126382066Y-64612210D01*
X126363402Y-64577291D01*
X126351909Y-64539403D01*
X126351908Y-64539400D01*
X126348028Y-64500000D01*
X126351908Y-64460600D01*
X126363403Y-64422707D01*
X126374381Y-64402169D01*
X126382066Y-64387790D01*
X126407184Y-64357184D01*
X126437790Y-64332066D01*
X126472709Y-64313402D01*
X126510597Y-64301909D01*
X126510600Y-64301908D01*
X126540127Y-64299000D01*
X127009873Y-64299000D01*
X127039400Y-64301908D01*
X127039403Y-64301909D01*
X127077291Y-64313402D01*
X127112210Y-64332066D01*
X127112212Y-64332068D01*
X127115075Y-64333598D01*
X127137714Y-64342975D01*
X127161747Y-64347756D01*
X127186252Y-64347756D01*
X127210285Y-64342976D01*
X127232924Y-64333598D01*
X127253299Y-64319985D01*
X127270626Y-64302658D01*
X127284002Y-64282639D01*
X127292805Y-64277934D01*
X127311747Y-64262388D01*
X127327293Y-64243446D01*
X127338844Y-64221835D01*
X127345957Y-64198386D01*
X127348359Y-64174000D01*
X127345957Y-64149614D01*
X127338844Y-64126165D01*
X127333599Y-64115075D01*
X127332069Y-64112212D01*
X127332067Y-64112210D01*
X127313403Y-64077291D01*
X127301910Y-64039403D01*
X127301910Y-64039402D01*
X127301909Y-64039399D01*
X127299000Y-64009869D01*
X127299000Y-63540128D01*
X127301908Y-63510601D01*
X127308933Y-63487444D01*
X127313402Y-63472710D01*
X127332066Y-63437791D01*
X127357184Y-63407184D01*
X127387790Y-63382066D01*
X127422709Y-63363402D01*
X127460597Y-63351909D01*
X127460600Y-63351908D01*
X127500000Y-63348028D01*
X127539398Y-63351908D01*
X127539401Y-63351909D01*
X127539402Y-63351909D01*
X127577290Y-63363402D01*
X127612209Y-63382066D01*
X127642816Y-63407184D01*
X127642819Y-63407187D01*
X127653373Y-63420048D01*
X127670700Y-63437375D01*
X127691074Y-63450989D01*
X127713713Y-63460367D01*
X127737746Y-63465148D01*
X127762251Y-63465148D01*
X127786284Y-63460368D01*
X127808923Y-63450991D01*
X127829298Y-63437377D01*
X127846627Y-63420048D01*
X127857182Y-63407186D01*
X127857184Y-63407184D01*
X127887790Y-63382066D01*
X127922709Y-63363402D01*
X127960597Y-63351909D01*
X127960600Y-63351908D01*
X128000000Y-63348028D01*
X128039398Y-63351908D01*
X128039401Y-63351909D01*
X128039402Y-63351909D01*
X128077290Y-63363402D01*
X128112209Y-63382066D01*
X128142816Y-63407184D01*
X128142819Y-63407187D01*
X128153373Y-63420048D01*
X128170700Y-63437375D01*
X128191074Y-63450989D01*
X128213713Y-63460367D01*
X128237746Y-63465148D01*
X128262251Y-63465148D01*
X128286284Y-63460368D01*
X128308923Y-63450991D01*
X128329298Y-63437377D01*
X128346627Y-63420048D01*
X128357182Y-63407186D01*
X128357184Y-63407184D01*
X128387790Y-63382066D01*
X128422709Y-63363402D01*
X128460597Y-63351909D01*
X128460600Y-63351908D01*
X128500000Y-63348028D01*
X128539398Y-63351908D01*
X128539401Y-63351909D01*
X128539402Y-63351909D01*
X128577290Y-63363402D01*
X128612209Y-63382066D01*
X128642816Y-63407184D01*
X128642819Y-63407187D01*
X128653373Y-63420048D01*
X128670700Y-63437375D01*
X128691074Y-63450989D01*
X128713713Y-63460367D01*
X128737746Y-63465148D01*
X128762251Y-63465148D01*
X128786284Y-63460368D01*
X128808923Y-63450991D01*
X128829298Y-63437377D01*
X128846627Y-63420048D01*
X128857182Y-63407186D01*
X128857184Y-63407184D01*
X128887790Y-63382066D01*
X128922709Y-63363402D01*
X128960597Y-63351909D01*
X128960600Y-63351908D01*
X129000000Y-63348028D01*
X129039398Y-63351908D01*
X129039398Y-63351908D01*
G37*
G36*
X115081938Y-66141716D02*
X115102556Y-66147970D01*
X115121556Y-66158126D01*
X115138208Y-66171792D01*
X115151874Y-66188444D01*
X115162030Y-66207444D01*
X115168284Y-66228062D01*
X115171000Y-66255640D01*
X115171000Y-66714360D01*
X115168284Y-66741938D01*
X115162030Y-66762556D01*
X115151874Y-66781556D01*
X115138208Y-66798208D01*
X115121556Y-66811874D01*
X115102556Y-66822030D01*
X115081938Y-66828284D01*
X115054360Y-66831000D01*
X114545640Y-66831000D01*
X114518062Y-66828284D01*
X114497444Y-66822030D01*
X114478444Y-66811874D01*
X114461792Y-66798208D01*
X114448126Y-66781556D01*
X114437970Y-66762556D01*
X114431716Y-66741938D01*
X114429000Y-66714360D01*
X114429000Y-66255640D01*
X114431716Y-66228062D01*
X114437970Y-66207444D01*
X114448126Y-66188444D01*
X114461792Y-66171792D01*
X114478444Y-66158126D01*
X114497444Y-66147970D01*
X114518062Y-66141716D01*
X114545640Y-66139000D01*
X115054360Y-66139000D01*
X115081938Y-66141716D01*
X115081938Y-66141716D01*
G37*
G36*
X112939400Y-62851908D02*
X112939403Y-62851909D01*
X112977291Y-62863402D01*
X113012210Y-62882066D01*
X113042816Y-62907184D01*
X113067934Y-62937790D01*
X113082557Y-62965148D01*
X113086597Y-62972707D01*
X113098092Y-63010600D01*
X113101000Y-63040127D01*
X113101000Y-63509873D01*
X113098092Y-63539400D01*
X113098091Y-63539402D01*
X113098091Y-63539403D01*
X113086598Y-63577291D01*
X113067934Y-63612210D01*
X113067932Y-63612212D01*
X113066402Y-63615075D01*
X113057025Y-63637714D01*
X113052244Y-63661747D01*
X113052244Y-63686252D01*
X113057024Y-63710285D01*
X113066402Y-63732924D01*
X113080015Y-63753299D01*
X113097342Y-63770626D01*
X113117362Y-63784003D01*
X113122066Y-63792804D01*
X113137612Y-63811746D01*
X113156554Y-63827292D01*
X113178165Y-63838843D01*
X113201614Y-63845956D01*
X113226000Y-63848358D01*
X113250386Y-63845956D01*
X113273835Y-63838843D01*
X113284925Y-63833598D01*
X113287788Y-63832068D01*
X113287790Y-63832066D01*
X113322709Y-63813402D01*
X113360597Y-63801909D01*
X113360600Y-63801908D01*
X113390127Y-63799000D01*
X113859873Y-63799000D01*
X113889400Y-63801908D01*
X113889403Y-63801909D01*
X113927291Y-63813402D01*
X113962210Y-63832066D01*
X113992816Y-63857184D01*
X114017934Y-63887790D01*
X114035466Y-63920590D01*
X114036597Y-63922707D01*
X114048092Y-63960600D01*
X114051972Y-64000000D01*
X114048092Y-64039400D01*
X114048091Y-64039403D01*
X114036598Y-64077291D01*
X114017934Y-64112210D01*
X113997003Y-64137714D01*
X113992814Y-64142818D01*
X113979952Y-64153373D01*
X113962625Y-64170700D01*
X113949011Y-64191074D01*
X113939633Y-64213713D01*
X113934852Y-64237746D01*
X113934852Y-64262251D01*
X113939632Y-64286284D01*
X113949009Y-64308923D01*
X113962623Y-64329298D01*
X113979950Y-64346625D01*
X113992816Y-64357184D01*
X114017934Y-64387790D01*
X114025619Y-64402169D01*
X114036597Y-64422707D01*
X114048092Y-64460600D01*
X114051972Y-64500000D01*
X114048092Y-64539400D01*
X114048091Y-64539403D01*
X114036598Y-64577291D01*
X114017934Y-64612210D01*
X113993347Y-64642169D01*
X113992814Y-64642818D01*
X113979952Y-64653373D01*
X113962625Y-64670700D01*
X113949011Y-64691074D01*
X113939633Y-64713713D01*
X113934852Y-64737746D01*
X113934852Y-64762251D01*
X113939632Y-64786284D01*
X113949009Y-64808923D01*
X113962623Y-64829298D01*
X113979950Y-64846625D01*
X113992816Y-64857184D01*
X114017934Y-64887790D01*
X114028736Y-64908000D01*
X114036597Y-64922707D01*
X114048092Y-64960600D01*
X114051972Y-65000000D01*
X114048092Y-65039400D01*
X114048091Y-65039403D01*
X114036598Y-65077291D01*
X114017934Y-65112210D01*
X113992816Y-65142816D01*
X113992814Y-65142818D01*
X113979952Y-65153373D01*
X113962625Y-65170700D01*
X113949011Y-65191074D01*
X113939633Y-65213713D01*
X113934852Y-65237746D01*
X113934852Y-65262251D01*
X113939632Y-65286284D01*
X113949009Y-65308923D01*
X113962623Y-65329298D01*
X113979950Y-65346625D01*
X113992816Y-65357184D01*
X114017934Y-65387790D01*
X114035466Y-65420590D01*
X114036597Y-65422707D01*
X114048092Y-65460600D01*
X114051972Y-65500000D01*
X114048092Y-65539400D01*
X114048091Y-65539403D01*
X114036598Y-65577291D01*
X114017934Y-65612210D01*
X113992816Y-65642816D01*
X113962210Y-65667934D01*
X113927291Y-65686598D01*
X113912535Y-65691074D01*
X113889400Y-65698092D01*
X113859873Y-65701000D01*
X113390127Y-65701000D01*
X113360600Y-65698092D01*
X113337465Y-65691074D01*
X113322709Y-65686598D01*
X113287790Y-65667934D01*
X113287788Y-65667932D01*
X113284925Y-65666402D01*
X113262286Y-65657025D01*
X113238253Y-65652244D01*
X113213748Y-65652244D01*
X113189715Y-65657024D01*
X113167076Y-65666402D01*
X113146701Y-65680015D01*
X113129374Y-65697342D01*
X113115997Y-65717362D01*
X113107196Y-65722066D01*
X113088254Y-65737612D01*
X113072708Y-65756554D01*
X113061157Y-65778165D01*
X113054044Y-65801614D01*
X113051642Y-65826000D01*
X113054044Y-65850386D01*
X113061157Y-65873835D01*
X113066402Y-65884925D01*
X113067932Y-65887788D01*
X113067934Y-65887790D01*
X113084723Y-65919201D01*
X113086597Y-65922707D01*
X113098092Y-65960600D01*
X113101000Y-65990127D01*
X113101000Y-66459873D01*
X113098092Y-66489400D01*
X113098091Y-66489402D01*
X113098091Y-66489403D01*
X113086598Y-66527291D01*
X113067934Y-66562210D01*
X113042816Y-66592816D01*
X113012209Y-66617934D01*
X112977290Y-66636598D01*
X112939402Y-66648091D01*
X112939401Y-66648091D01*
X112939398Y-66648092D01*
X112900000Y-66651972D01*
X112860600Y-66648092D01*
X112853545Y-66645952D01*
X112822709Y-66636598D01*
X112787790Y-66617934D01*
X112757184Y-66592816D01*
X112757182Y-66592813D01*
X112746627Y-66579952D01*
X112729300Y-66562625D01*
X112708926Y-66549011D01*
X112686287Y-66539633D01*
X112662254Y-66534852D01*
X112637749Y-66534852D01*
X112613716Y-66539632D01*
X112591077Y-66549009D01*
X112570702Y-66562623D01*
X112553373Y-66579952D01*
X112542819Y-66592813D01*
X112542817Y-66592814D01*
X112542816Y-66592816D01*
X112512209Y-66617934D01*
X112477290Y-66636598D01*
X112439402Y-66648091D01*
X112439401Y-66648091D01*
X112439398Y-66648092D01*
X112400000Y-66651972D01*
X112360600Y-66648092D01*
X112353545Y-66645952D01*
X112322709Y-66636598D01*
X112287790Y-66617934D01*
X112257184Y-66592816D01*
X112257182Y-66592813D01*
X112246627Y-66579952D01*
X112229300Y-66562625D01*
X112208926Y-66549011D01*
X112186287Y-66539633D01*
X112162254Y-66534852D01*
X112137749Y-66534852D01*
X112113716Y-66539632D01*
X112091077Y-66549009D01*
X112070702Y-66562623D01*
X112053373Y-66579952D01*
X112042819Y-66592813D01*
X112042817Y-66592814D01*
X112042816Y-66592816D01*
X112012209Y-66617934D01*
X111977290Y-66636598D01*
X111939402Y-66648091D01*
X111939401Y-66648091D01*
X111939398Y-66648092D01*
X111900000Y-66651972D01*
X111860600Y-66648092D01*
X111853545Y-66645952D01*
X111822709Y-66636598D01*
X111787790Y-66617934D01*
X111757184Y-66592816D01*
X111757182Y-66592813D01*
X111746627Y-66579952D01*
X111729300Y-66562625D01*
X111708926Y-66549011D01*
X111686287Y-66539633D01*
X111662254Y-66534852D01*
X111637749Y-66534852D01*
X111613716Y-66539632D01*
X111591077Y-66549009D01*
X111570702Y-66562623D01*
X111553373Y-66579952D01*
X111542819Y-66592813D01*
X111542817Y-66592814D01*
X111542816Y-66592816D01*
X111512209Y-66617934D01*
X111477290Y-66636598D01*
X111439402Y-66648091D01*
X111439401Y-66648091D01*
X111439398Y-66648092D01*
X111400000Y-66651972D01*
X111360600Y-66648092D01*
X111353545Y-66645952D01*
X111322709Y-66636598D01*
X111287790Y-66617934D01*
X111257184Y-66592816D01*
X111232066Y-66562209D01*
X111213402Y-66527290D01*
X111201909Y-66489402D01*
X111201908Y-66489399D01*
X111199000Y-66459872D01*
X111199000Y-65990131D01*
X111201909Y-65960601D01*
X111213404Y-65922707D01*
X111215278Y-65919201D01*
X111232067Y-65887790D01*
X111232069Y-65887788D01*
X111233599Y-65884925D01*
X111242976Y-65862286D01*
X111247757Y-65838253D01*
X111247757Y-65813748D01*
X111242977Y-65789715D01*
X111233599Y-65767076D01*
X111219986Y-65746701D01*
X111202659Y-65729374D01*
X111182638Y-65715996D01*
X111177934Y-65707196D01*
X111162388Y-65688254D01*
X111143446Y-65672708D01*
X111121835Y-65661157D01*
X111098386Y-65654044D01*
X111074000Y-65651642D01*
X111049614Y-65654044D01*
X111026165Y-65661157D01*
X111015075Y-65666402D01*
X111012212Y-65667932D01*
X111012210Y-65667934D01*
X110977291Y-65686598D01*
X110962535Y-65691074D01*
X110939400Y-65698092D01*
X110909873Y-65701000D01*
X110440127Y-65701000D01*
X110410600Y-65698092D01*
X110387465Y-65691074D01*
X110372709Y-65686598D01*
X110337790Y-65667934D01*
X110307184Y-65642816D01*
X110282066Y-65612210D01*
X110263402Y-65577291D01*
X110251909Y-65539403D01*
X110251908Y-65539400D01*
X110248028Y-65500000D01*
X110251908Y-65460600D01*
X110263403Y-65422707D01*
X110264534Y-65420590D01*
X110282066Y-65387790D01*
X110307184Y-65357184D01*
X110320050Y-65346625D01*
X110337375Y-65329300D01*
X110350989Y-65308926D01*
X110360367Y-65286287D01*
X110365148Y-65262254D01*
X110365148Y-65237749D01*
X110360368Y-65213716D01*
X110350991Y-65191077D01*
X110337377Y-65170702D01*
X110320048Y-65153373D01*
X110307186Y-65142818D01*
X110307184Y-65142816D01*
X110282066Y-65112210D01*
X110263402Y-65077291D01*
X110251909Y-65039403D01*
X110251908Y-65039400D01*
X110248028Y-65000000D01*
X110251908Y-64960600D01*
X110263403Y-64922707D01*
X110271264Y-64908000D01*
X110282066Y-64887790D01*
X110307184Y-64857184D01*
X110320050Y-64846625D01*
X110337375Y-64829300D01*
X110350989Y-64808926D01*
X110360367Y-64786287D01*
X110365148Y-64762254D01*
X110365148Y-64737749D01*
X110360368Y-64713716D01*
X110350991Y-64691077D01*
X110337377Y-64670702D01*
X110320048Y-64653373D01*
X110307186Y-64642818D01*
X110306653Y-64642169D01*
X110282066Y-64612210D01*
X110263402Y-64577291D01*
X110251909Y-64539403D01*
X110251908Y-64539400D01*
X110248028Y-64500000D01*
X110251908Y-64460600D01*
X110263403Y-64422707D01*
X110274381Y-64402169D01*
X110282066Y-64387790D01*
X110307184Y-64357184D01*
X110320050Y-64346625D01*
X110337375Y-64329300D01*
X110350989Y-64308926D01*
X110360367Y-64286287D01*
X110365148Y-64262254D01*
X110365148Y-64237749D01*
X110360368Y-64213716D01*
X110350991Y-64191077D01*
X110337377Y-64170702D01*
X110320048Y-64153373D01*
X110307186Y-64142818D01*
X110302997Y-64137714D01*
X110282066Y-64112210D01*
X110263402Y-64077291D01*
X110251909Y-64039403D01*
X110251908Y-64039400D01*
X110248028Y-64000000D01*
X110251908Y-63960600D01*
X110263403Y-63922707D01*
X110264534Y-63920590D01*
X110282066Y-63887790D01*
X110307184Y-63857184D01*
X110337790Y-63832066D01*
X110372709Y-63813402D01*
X110410597Y-63801909D01*
X110410600Y-63801908D01*
X110440127Y-63799000D01*
X110909873Y-63799000D01*
X110939400Y-63801908D01*
X110939403Y-63801909D01*
X110977291Y-63813402D01*
X111012210Y-63832066D01*
X111012212Y-63832068D01*
X111015075Y-63833598D01*
X111037714Y-63842975D01*
X111061747Y-63847756D01*
X111086252Y-63847756D01*
X111110285Y-63842976D01*
X111132924Y-63833598D01*
X111153299Y-63819985D01*
X111170626Y-63802658D01*
X111184002Y-63782639D01*
X111192805Y-63777934D01*
X111211747Y-63762388D01*
X111227293Y-63743446D01*
X111238844Y-63721835D01*
X111245957Y-63698386D01*
X111248359Y-63674000D01*
X111245957Y-63649614D01*
X111238844Y-63626165D01*
X111233598Y-63615074D01*
X111232067Y-63612210D01*
X111232066Y-63612209D01*
X111221264Y-63592000D01*
X111213403Y-63577294D01*
X111201908Y-63539399D01*
X111199000Y-63509872D01*
X111199000Y-63040131D01*
X111201909Y-63010601D01*
X111213404Y-62972707D01*
X111217444Y-62965148D01*
X111232067Y-62937790D01*
X111257185Y-62907184D01*
X111287791Y-62882066D01*
X111322710Y-62863402D01*
X111360598Y-62851909D01*
X111360599Y-62851909D01*
X111360602Y-62851908D01*
X111400000Y-62848028D01*
X111439400Y-62851908D01*
X111439403Y-62851909D01*
X111477291Y-62863402D01*
X111512210Y-62882066D01*
X111542816Y-62907184D01*
X111542818Y-62907186D01*
X111553376Y-62920051D01*
X111570703Y-62937378D01*
X111591078Y-62950991D01*
X111613717Y-62960368D01*
X111637751Y-62965148D01*
X111662255Y-62965148D01*
X111686288Y-62960367D01*
X111708927Y-62950989D01*
X111729302Y-62937375D01*
X111746628Y-62920048D01*
X111757183Y-62907186D01*
X111757185Y-62907184D01*
X111787791Y-62882066D01*
X111822710Y-62863402D01*
X111860598Y-62851909D01*
X111860599Y-62851909D01*
X111860602Y-62851908D01*
X111900000Y-62848028D01*
X111939400Y-62851908D01*
X111939403Y-62851909D01*
X111977291Y-62863402D01*
X112012210Y-62882066D01*
X112042816Y-62907184D01*
X112042818Y-62907186D01*
X112053376Y-62920051D01*
X112070703Y-62937378D01*
X112091078Y-62950991D01*
X112113717Y-62960368D01*
X112137751Y-62965148D01*
X112162255Y-62965148D01*
X112186288Y-62960367D01*
X112208927Y-62950989D01*
X112229302Y-62937375D01*
X112246628Y-62920048D01*
X112257183Y-62907186D01*
X112257185Y-62907184D01*
X112287791Y-62882066D01*
X112322710Y-62863402D01*
X112360598Y-62851909D01*
X112360599Y-62851909D01*
X112360602Y-62851908D01*
X112400000Y-62848028D01*
X112439400Y-62851908D01*
X112439403Y-62851909D01*
X112477291Y-62863402D01*
X112512210Y-62882066D01*
X112542816Y-62907184D01*
X112542818Y-62907186D01*
X112553376Y-62920051D01*
X112570703Y-62937378D01*
X112591078Y-62950991D01*
X112613717Y-62960368D01*
X112637751Y-62965148D01*
X112662255Y-62965148D01*
X112686288Y-62960367D01*
X112708927Y-62950989D01*
X112729302Y-62937375D01*
X112746628Y-62920048D01*
X112757183Y-62907186D01*
X112757185Y-62907184D01*
X112787791Y-62882066D01*
X112822710Y-62863402D01*
X112860598Y-62851909D01*
X112860599Y-62851909D01*
X112860602Y-62851908D01*
X112900000Y-62848028D01*
X112939400Y-62851908D01*
X112939400Y-62851908D01*
G37*
G36*
X115081938Y-65171716D02*
X115102556Y-65177970D01*
X115121556Y-65188126D01*
X115138208Y-65201792D01*
X115151874Y-65218444D01*
X115162030Y-65237444D01*
X115168284Y-65258062D01*
X115171000Y-65285640D01*
X115171000Y-65744360D01*
X115168284Y-65771938D01*
X115162030Y-65792556D01*
X115151874Y-65811556D01*
X115138208Y-65828208D01*
X115121556Y-65841874D01*
X115102556Y-65852030D01*
X115081938Y-65858284D01*
X115054360Y-65861000D01*
X114545640Y-65861000D01*
X114518062Y-65858284D01*
X114497444Y-65852030D01*
X114478444Y-65841874D01*
X114461792Y-65828208D01*
X114448126Y-65811556D01*
X114437970Y-65792556D01*
X114431716Y-65771938D01*
X114429000Y-65744360D01*
X114429000Y-65285640D01*
X114431716Y-65258062D01*
X114437970Y-65237444D01*
X114448126Y-65218444D01*
X114461792Y-65201792D01*
X114478444Y-65188126D01*
X114497444Y-65177970D01*
X114518062Y-65171716D01*
X114545640Y-65169000D01*
X115054360Y-65169000D01*
X115081938Y-65171716D01*
X115081938Y-65171716D01*
G37*
G36*
X99851000Y-65686000D02*
X96149000Y-65686000D01*
X96149000Y-64314000D01*
X99851000Y-64314000D01*
X99851000Y-65686000D01*
X99851000Y-65686000D01*
G37*
G36*
X143851000Y-65686000D02*
X140149000Y-65686000D01*
X140149000Y-64314000D01*
X143851000Y-64314000D01*
X143851000Y-65686000D01*
X143851000Y-65686000D01*
G37*
G36*
X131221938Y-64631716D02*
X131242556Y-64637970D01*
X131261556Y-64648126D01*
X131278208Y-64661792D01*
X131291874Y-64678444D01*
X131302030Y-64697444D01*
X131308284Y-64718062D01*
X131311000Y-64745640D01*
X131311000Y-65254360D01*
X131308284Y-65281938D01*
X131302030Y-65302556D01*
X131291874Y-65321556D01*
X131278208Y-65338208D01*
X131261556Y-65351874D01*
X131242556Y-65362030D01*
X131221938Y-65368284D01*
X131194360Y-65371000D01*
X130735640Y-65371000D01*
X130708062Y-65368284D01*
X130687444Y-65362030D01*
X130668444Y-65351874D01*
X130651792Y-65338208D01*
X130638126Y-65321556D01*
X130627970Y-65302556D01*
X130621716Y-65281938D01*
X130619000Y-65254360D01*
X130619000Y-64745640D01*
X130621716Y-64718062D01*
X130627970Y-64697444D01*
X130638126Y-64678444D01*
X130651792Y-64661792D01*
X130668444Y-64648126D01*
X130687444Y-64637970D01*
X130708062Y-64631716D01*
X130735640Y-64629000D01*
X131194360Y-64629000D01*
X131221938Y-64631716D01*
X131221938Y-64631716D01*
G37*
G36*
X109691938Y-64631716D02*
X109712556Y-64637970D01*
X109731556Y-64648126D01*
X109748208Y-64661792D01*
X109761874Y-64678444D01*
X109772030Y-64697444D01*
X109778284Y-64718062D01*
X109781000Y-64745640D01*
X109781000Y-65254360D01*
X109778284Y-65281938D01*
X109772030Y-65302556D01*
X109761874Y-65321556D01*
X109748208Y-65338208D01*
X109731556Y-65351874D01*
X109712556Y-65362030D01*
X109691938Y-65368284D01*
X109664360Y-65371000D01*
X109205640Y-65371000D01*
X109178062Y-65368284D01*
X109157444Y-65362030D01*
X109138444Y-65351874D01*
X109121792Y-65338208D01*
X109108126Y-65321556D01*
X109097970Y-65302556D01*
X109091716Y-65281938D01*
X109089000Y-65254360D01*
X109089000Y-64745640D01*
X109091716Y-64718062D01*
X109097970Y-64697444D01*
X109108126Y-64678444D01*
X109121792Y-64661792D01*
X109138444Y-64648126D01*
X109157444Y-64637970D01*
X109178062Y-64631716D01*
X109205640Y-64629000D01*
X109664360Y-64629000D01*
X109691938Y-64631716D01*
X109691938Y-64631716D01*
G37*
G36*
X108721938Y-64631716D02*
X108742556Y-64637970D01*
X108761556Y-64648126D01*
X108778208Y-64661792D01*
X108791874Y-64678444D01*
X108802030Y-64697444D01*
X108808284Y-64718062D01*
X108811000Y-64745640D01*
X108811000Y-65254360D01*
X108808284Y-65281938D01*
X108802030Y-65302556D01*
X108791874Y-65321556D01*
X108778208Y-65338208D01*
X108761556Y-65351874D01*
X108742556Y-65362030D01*
X108721938Y-65368284D01*
X108694360Y-65371000D01*
X108235640Y-65371000D01*
X108208062Y-65368284D01*
X108187444Y-65362030D01*
X108168444Y-65351874D01*
X108151792Y-65338208D01*
X108138126Y-65321556D01*
X108127970Y-65302556D01*
X108121716Y-65281938D01*
X108119000Y-65254360D01*
X108119000Y-64745640D01*
X108121716Y-64718062D01*
X108127970Y-64697444D01*
X108138126Y-64678444D01*
X108151792Y-64661792D01*
X108168444Y-64648126D01*
X108187444Y-64637970D01*
X108208062Y-64631716D01*
X108235640Y-64629000D01*
X108694360Y-64629000D01*
X108721938Y-64631716D01*
X108721938Y-64631716D01*
G37*
G36*
X132191938Y-64631716D02*
X132212556Y-64637970D01*
X132231556Y-64648126D01*
X132248208Y-64661792D01*
X132261874Y-64678444D01*
X132272030Y-64697444D01*
X132278284Y-64718062D01*
X132281000Y-64745640D01*
X132281000Y-65254360D01*
X132278284Y-65281938D01*
X132272030Y-65302556D01*
X132261874Y-65321556D01*
X132248208Y-65338208D01*
X132231556Y-65351874D01*
X132212556Y-65362030D01*
X132191938Y-65368284D01*
X132164360Y-65371000D01*
X131705640Y-65371000D01*
X131678062Y-65368284D01*
X131657444Y-65362030D01*
X131638444Y-65351874D01*
X131621792Y-65338208D01*
X131608126Y-65321556D01*
X131597970Y-65302556D01*
X131591716Y-65281938D01*
X131589000Y-65254360D01*
X131589000Y-64745640D01*
X131591716Y-64718062D01*
X131597970Y-64697444D01*
X131608126Y-64678444D01*
X131621792Y-64661792D01*
X131638444Y-64648126D01*
X131657444Y-64637970D01*
X131678062Y-64631716D01*
X131705640Y-64629000D01*
X132164360Y-64629000D01*
X132191938Y-64631716D01*
X132191938Y-64631716D01*
G37*
G36*
X125531938Y-64391716D02*
X125552556Y-64397970D01*
X125571556Y-64408126D01*
X125588208Y-64421792D01*
X125601874Y-64438444D01*
X125612030Y-64457444D01*
X125618284Y-64478062D01*
X125621000Y-64505640D01*
X125621000Y-64964360D01*
X125618284Y-64991938D01*
X125612030Y-65012556D01*
X125601874Y-65031556D01*
X125588208Y-65048208D01*
X125571556Y-65061874D01*
X125552556Y-65072030D01*
X125531938Y-65078284D01*
X125504360Y-65081000D01*
X124995640Y-65081000D01*
X124968062Y-65078284D01*
X124947444Y-65072030D01*
X124928444Y-65061874D01*
X124911792Y-65048208D01*
X124898126Y-65031556D01*
X124887970Y-65012556D01*
X124881716Y-64991938D01*
X124879000Y-64964360D01*
X124879000Y-64505640D01*
X124881716Y-64478062D01*
X124887970Y-64457444D01*
X124898126Y-64438444D01*
X124911792Y-64421792D01*
X124928444Y-64408126D01*
X124947444Y-64397970D01*
X124968062Y-64391716D01*
X124995640Y-64389000D01*
X125504360Y-64389000D01*
X125531938Y-64391716D01*
X125531938Y-64391716D01*
G37*
G36*
X125531938Y-63421716D02*
X125552556Y-63427970D01*
X125571556Y-63438126D01*
X125588208Y-63451792D01*
X125601874Y-63468444D01*
X125612030Y-63487444D01*
X125618284Y-63508062D01*
X125621000Y-63535640D01*
X125621000Y-63994360D01*
X125618284Y-64021938D01*
X125612030Y-64042556D01*
X125601874Y-64061556D01*
X125588208Y-64078208D01*
X125571556Y-64091874D01*
X125552556Y-64102030D01*
X125531938Y-64108284D01*
X125504360Y-64111000D01*
X124995640Y-64111000D01*
X124968062Y-64108284D01*
X124947444Y-64102030D01*
X124928444Y-64091874D01*
X124911792Y-64078208D01*
X124898126Y-64061556D01*
X124887970Y-64042556D01*
X124881716Y-64021938D01*
X124879000Y-63994360D01*
X124879000Y-63535640D01*
X124881716Y-63508062D01*
X124887970Y-63487444D01*
X124898126Y-63468444D01*
X124911792Y-63451792D01*
X124928444Y-63438126D01*
X124947444Y-63427970D01*
X124968062Y-63421716D01*
X124995640Y-63419000D01*
X125504360Y-63419000D01*
X125531938Y-63421716D01*
X125531938Y-63421716D01*
G37*
G36*
X120606000Y-63846000D02*
X119894000Y-63846000D01*
X119894000Y-62499000D01*
X120606000Y-62499000D01*
X120606000Y-63846000D01*
X120606000Y-63846000D01*
G37*
G36*
X122446000Y-63201000D02*
X121304000Y-63201000D01*
X121304000Y-61299000D01*
X122446000Y-61299000D01*
X122446000Y-63201000D01*
X122446000Y-63201000D01*
G37*
G36*
X119196000Y-63201000D02*
X118054000Y-63201000D01*
X118054000Y-61299000D01*
X119196000Y-61299000D01*
X119196000Y-63201000D01*
X119196000Y-63201000D01*
G37*
G36*
X100351000Y-62901000D02*
X96049000Y-62901000D01*
X96049000Y-61449000D01*
X100351000Y-61449000D01*
X100351000Y-62901000D01*
X100351000Y-62901000D01*
G37*
G36*
X143951000Y-62901000D02*
X139649000Y-62901000D01*
X139649000Y-61449000D01*
X143951000Y-61449000D01*
X143951000Y-62901000D01*
X143951000Y-62901000D01*
G37*
G36*
X120606000Y-62001000D02*
X119894000Y-62001000D01*
X119894000Y-60654000D01*
X120606000Y-60654000D01*
X120606000Y-62001000D01*
X120606000Y-62001000D01*
G37*
G36*
X130322797Y-59103247D02*
X130358367Y-59114037D01*
X130391139Y-59131554D01*
X130419869Y-59155131D01*
X130443446Y-59183861D01*
X130460963Y-59216633D01*
X130471753Y-59252203D01*
X130476000Y-59295324D01*
X130476000Y-60404676D01*
X130471753Y-60447797D01*
X130460963Y-60483367D01*
X130443446Y-60516139D01*
X130419869Y-60544869D01*
X130391139Y-60568446D01*
X130358367Y-60585963D01*
X130322797Y-60596753D01*
X130279676Y-60601000D01*
X129220324Y-60601000D01*
X129177203Y-60596753D01*
X129141633Y-60585963D01*
X129108861Y-60568446D01*
X129080131Y-60544869D01*
X129056554Y-60516139D01*
X129039037Y-60483367D01*
X129028247Y-60447797D01*
X129024000Y-60404676D01*
X129024000Y-59295324D01*
X129028247Y-59252203D01*
X129039037Y-59216633D01*
X129056554Y-59183861D01*
X129080131Y-59155131D01*
X129108861Y-59131554D01*
X129141633Y-59114037D01*
X129177203Y-59103247D01*
X129220324Y-59099000D01*
X130279676Y-59099000D01*
X130322797Y-59103247D01*
X130322797Y-59103247D01*
G37*
G36*
X140001000Y-60251000D02*
X137899000Y-60251000D01*
X137899000Y-58649000D01*
X140001000Y-58649000D01*
X140001000Y-60251000D01*
X140001000Y-60251000D01*
G37*
G36*
X120556000Y-59846000D02*
X119844000Y-59846000D01*
X119844000Y-58499000D01*
X120556000Y-58499000D01*
X120556000Y-59846000D01*
X120556000Y-59846000D01*
G37*
G36*
X122396000Y-59201000D02*
X121254000Y-59201000D01*
X121254000Y-57299000D01*
X122396000Y-57299000D01*
X122396000Y-59201000D01*
X122396000Y-59201000D01*
G37*
G36*
X119146000Y-59201000D02*
X118004000Y-59201000D01*
X118004000Y-57299000D01*
X119146000Y-57299000D01*
X119146000Y-59201000D01*
X119146000Y-59201000D01*
G37*
G36*
X133701000Y-59101000D02*
X131599000Y-59101000D01*
X131599000Y-55199000D01*
X133701000Y-55199000D01*
X133701000Y-59101000D01*
X133701000Y-59101000D01*
G37*
G36*
X120556000Y-58001000D02*
X119844000Y-58001000D01*
X119844000Y-56654000D01*
X120556000Y-56654000D01*
X120556000Y-58001000D01*
X120556000Y-58001000D01*
G37*
G36*
X140001000Y-57951000D02*
X137899000Y-57951000D01*
X137899000Y-56349000D01*
X140001000Y-56349000D01*
X140001000Y-57951000D01*
X140001000Y-57951000D01*
G37*
G36*
X130323052Y-56403241D02*
X130358560Y-56414012D01*
X130391281Y-56431502D01*
X130419961Y-56455039D01*
X130443498Y-56483719D01*
X130460988Y-56516440D01*
X130471759Y-56551948D01*
X130476000Y-56595010D01*
X130476000Y-57704990D01*
X130471759Y-57748052D01*
X130460988Y-57783560D01*
X130443498Y-57816281D01*
X130419961Y-57844961D01*
X130391281Y-57868498D01*
X130358560Y-57885988D01*
X130323052Y-57896759D01*
X130279990Y-57901000D01*
X129220010Y-57901000D01*
X129176948Y-57896759D01*
X129141440Y-57885988D01*
X129108719Y-57868498D01*
X129080039Y-57844961D01*
X129056502Y-57816281D01*
X129039012Y-57783560D01*
X129028241Y-57748052D01*
X129024000Y-57704990D01*
X129024000Y-56595010D01*
X129028241Y-56551948D01*
X129039012Y-56516440D01*
X129056502Y-56483719D01*
X129080039Y-56455039D01*
X129108719Y-56431502D01*
X129141440Y-56414012D01*
X129176948Y-56403241D01*
X129220010Y-56399000D01*
X130279990Y-56399000D01*
X130323052Y-56403241D01*
X130323052Y-56403241D01*
G37*
G36*
X140001000Y-55651000D02*
X137899000Y-55651000D01*
X137899000Y-54049000D01*
X140001000Y-54049000D01*
X140001000Y-55651000D01*
X140001000Y-55651000D01*
G37*
G36*
X141209466Y-51703565D02*
X141248137Y-51715296D01*
X141283779Y-51734348D01*
X141315017Y-51759983D01*
X141340652Y-51791221D01*
X141359704Y-51826863D01*
X141371435Y-51865534D01*
X141376000Y-51911888D01*
X141376000Y-52988112D01*
X141371435Y-53034466D01*
X141359704Y-53073137D01*
X141340652Y-53108779D01*
X141315017Y-53140017D01*
X141283779Y-53165652D01*
X141248137Y-53184704D01*
X141209466Y-53196435D01*
X141163112Y-53201000D01*
X140511888Y-53201000D01*
X140465534Y-53196435D01*
X140426863Y-53184704D01*
X140391221Y-53165652D01*
X140359983Y-53140017D01*
X140334348Y-53108779D01*
X140315296Y-53073137D01*
X140303565Y-53034466D01*
X140299000Y-52988112D01*
X140299000Y-51911888D01*
X140303565Y-51865534D01*
X140315296Y-51826863D01*
X140334348Y-51791221D01*
X140359983Y-51759983D01*
X140391221Y-51734348D01*
X140426863Y-51715296D01*
X140465534Y-51703565D01*
X140511888Y-51699000D01*
X141163112Y-51699000D01*
X141209466Y-51703565D01*
X141209466Y-51703565D01*
G37*
G36*
X139334466Y-51703565D02*
X139373137Y-51715296D01*
X139408779Y-51734348D01*
X139440017Y-51759983D01*
X139465652Y-51791221D01*
X139484704Y-51826863D01*
X139496435Y-51865534D01*
X139501000Y-51911888D01*
X139501000Y-52988112D01*
X139496435Y-53034466D01*
X139484704Y-53073137D01*
X139465652Y-53108779D01*
X139440017Y-53140017D01*
X139408779Y-53165652D01*
X139373137Y-53184704D01*
X139334466Y-53196435D01*
X139288112Y-53201000D01*
X138636888Y-53201000D01*
X138590534Y-53196435D01*
X138551863Y-53184704D01*
X138516221Y-53165652D01*
X138484983Y-53140017D01*
X138459348Y-53108779D01*
X138440296Y-53073137D01*
X138428565Y-53034466D01*
X138424000Y-52988112D01*
X138424000Y-51911888D01*
X138428565Y-51865534D01*
X138440296Y-51826863D01*
X138459348Y-51791221D01*
X138484983Y-51759983D01*
X138516221Y-51734348D01*
X138551863Y-51715296D01*
X138590534Y-51703565D01*
X138636888Y-51699000D01*
X139288112Y-51699000D01*
X139334466Y-51703565D01*
X139334466Y-51703565D01*
G37*
G36*
X139634239Y-43811467D02*
X139948282Y-43873934D01*
X140539926Y-44119001D01*
X140829523Y-44312504D01*
X141072395Y-44474786D01*
X141525214Y-44927605D01*
X141525216Y-44927608D01*
X141880999Y-45460074D01*
X142126066Y-46051718D01*
X142126066Y-46051719D01*
X142251000Y-46679803D01*
X142251000Y-47320197D01*
X142188533Y-47634239D01*
X142126066Y-47948282D01*
X141880999Y-48539926D01*
X141633265Y-48910685D01*
X141525214Y-49072395D01*
X141072395Y-49525214D01*
X141072392Y-49525216D01*
X140539926Y-49880999D01*
X139948282Y-50126066D01*
X139634239Y-50188533D01*
X139320197Y-50251000D01*
X138679803Y-50251000D01*
X138365761Y-50188533D01*
X138051718Y-50126066D01*
X137460074Y-49880999D01*
X136927608Y-49525216D01*
X136927605Y-49525214D01*
X136474786Y-49072395D01*
X136366735Y-48910685D01*
X136119001Y-48539926D01*
X135873934Y-47948282D01*
X135811467Y-47634239D01*
X135749000Y-47320197D01*
X135749000Y-46679803D01*
X135873934Y-46051719D01*
X135873934Y-46051718D01*
X136119001Y-45460074D01*
X136474784Y-44927608D01*
X136474786Y-44927605D01*
X136927605Y-44474786D01*
X137170477Y-44312504D01*
X137460074Y-44119001D01*
X138051718Y-43873934D01*
X138365761Y-43811467D01*
X138679803Y-43749000D01*
X139320197Y-43749000D01*
X139634239Y-43811467D01*
X139634239Y-43811467D01*
G37*
G36*
X101634239Y-43811467D02*
X101948282Y-43873934D01*
X102539926Y-44119001D01*
X102829523Y-44312504D01*
X103072395Y-44474786D01*
X103525214Y-44927605D01*
X103525216Y-44927608D01*
X103880999Y-45460074D01*
X104126066Y-46051718D01*
X104126066Y-46051719D01*
X104251000Y-46679803D01*
X104251000Y-47320197D01*
X104188533Y-47634239D01*
X104126066Y-47948282D01*
X103880999Y-48539926D01*
X103633265Y-48910685D01*
X103525214Y-49072395D01*
X103072395Y-49525214D01*
X103072392Y-49525216D01*
X102539926Y-49880999D01*
X101948282Y-50126066D01*
X101634239Y-50188533D01*
X101320197Y-50251000D01*
X100679803Y-50251000D01*
X100365761Y-50188533D01*
X100051718Y-50126066D01*
X99460074Y-49880999D01*
X98927608Y-49525216D01*
X98927605Y-49525214D01*
X98474786Y-49072395D01*
X98366735Y-48910685D01*
X98119001Y-48539926D01*
X97873934Y-47948282D01*
X97811467Y-47634239D01*
X97749000Y-47320197D01*
X97749000Y-46679803D01*
X97873934Y-46051719D01*
X97873934Y-46051718D01*
X98119001Y-45460074D01*
X98474784Y-44927608D01*
X98474786Y-44927605D01*
X98927605Y-44474786D01*
X99170477Y-44312504D01*
X99460074Y-44119001D01*
X100051718Y-43873934D01*
X100365761Y-43811467D01*
X100679803Y-43749000D01*
X101320197Y-43749000D01*
X101634239Y-43811467D01*
X101634239Y-43811467D01*
G37*
G36*
X117626000Y-45173896D02*
X117628402Y-45198282D01*
X117635515Y-45221731D01*
X117647066Y-45243342D01*
X117662612Y-45262284D01*
X117681554Y-45277830D01*
X117703165Y-45289381D01*
X117726614Y-45296494D01*
X117751000Y-45298896D01*
X117775386Y-45296494D01*
X117798835Y-45289381D01*
X117820446Y-45277830D01*
X117833740Y-45268947D01*
X117897617Y-45242489D01*
X117965430Y-45229000D01*
X118034570Y-45229000D01*
X118102383Y-45242489D01*
X118166261Y-45268948D01*
X118223750Y-45307361D01*
X118278777Y-45362388D01*
X118297719Y-45377934D01*
X118319330Y-45389485D01*
X118342779Y-45396598D01*
X118367165Y-45399000D01*
X121632835Y-45399000D01*
X121657221Y-45396598D01*
X121680670Y-45389485D01*
X121702281Y-45377934D01*
X121721223Y-45362388D01*
X121776250Y-45307361D01*
X121833739Y-45268948D01*
X121897617Y-45242489D01*
X121965430Y-45229000D01*
X122034570Y-45229000D01*
X122102383Y-45242489D01*
X122166260Y-45268947D01*
X122179554Y-45277830D01*
X122201165Y-45289381D01*
X122224615Y-45296494D01*
X122249001Y-45298896D01*
X122273387Y-45296494D01*
X122296836Y-45289381D01*
X122318447Y-45277829D01*
X122337389Y-45262284D01*
X122352934Y-45243342D01*
X122364485Y-45221731D01*
X122371598Y-45198281D01*
X122374000Y-45173896D01*
X122374000Y-45149000D01*
X123826000Y-45149000D01*
X123826000Y-46251000D01*
X122374000Y-46251000D01*
X122374000Y-45986104D01*
X122371598Y-45961718D01*
X122364485Y-45938269D01*
X122352934Y-45916658D01*
X122337388Y-45897716D01*
X122318446Y-45882170D01*
X122296835Y-45870619D01*
X122273386Y-45863506D01*
X122249000Y-45861104D01*
X122224614Y-45863506D01*
X122201165Y-45870619D01*
X122179554Y-45882170D01*
X122166260Y-45891053D01*
X122104442Y-45916658D01*
X122102383Y-45917511D01*
X122034570Y-45931000D01*
X121965430Y-45931000D01*
X121897617Y-45917511D01*
X121833739Y-45891052D01*
X121792514Y-45863506D01*
X121776250Y-45852639D01*
X121764388Y-45840777D01*
X121745446Y-45825231D01*
X121723835Y-45813680D01*
X121700386Y-45806567D01*
X121676000Y-45804165D01*
X121651614Y-45806567D01*
X121628165Y-45813680D01*
X121606554Y-45825231D01*
X121587612Y-45840777D01*
X121572066Y-45859719D01*
X121560515Y-45881330D01*
X121553402Y-45904779D01*
X121551000Y-45929165D01*
X121551000Y-46851000D01*
X118449000Y-46851000D01*
X118449000Y-45929165D01*
X118446598Y-45904779D01*
X118439485Y-45881330D01*
X118427934Y-45859719D01*
X118412388Y-45840777D01*
X118393446Y-45825231D01*
X118371835Y-45813680D01*
X118348386Y-45806567D01*
X118324000Y-45804165D01*
X118299614Y-45806567D01*
X118276165Y-45813680D01*
X118254554Y-45825231D01*
X118235612Y-45840777D01*
X118223750Y-45852639D01*
X118207486Y-45863506D01*
X118166261Y-45891052D01*
X118102383Y-45917511D01*
X118034570Y-45931000D01*
X117965430Y-45931000D01*
X117897617Y-45917511D01*
X117895558Y-45916658D01*
X117833740Y-45891053D01*
X117820446Y-45882170D01*
X117798835Y-45870619D01*
X117775385Y-45863506D01*
X117750999Y-45861104D01*
X117726613Y-45863506D01*
X117703164Y-45870619D01*
X117681553Y-45882171D01*
X117662611Y-45897716D01*
X117647066Y-45916658D01*
X117635515Y-45938269D01*
X117628402Y-45961719D01*
X117626000Y-45986104D01*
X117626000Y-46251000D01*
X116174000Y-46251000D01*
X116174000Y-45149000D01*
X117626000Y-45149000D01*
X117626000Y-45173896D01*
X117626000Y-45173896D01*
G37*
G36*
X124951000Y-44451000D02*
X122949000Y-44451000D01*
X122949000Y-42449000D01*
X124951000Y-42449000D01*
X124951000Y-44451000D01*
X124951000Y-44451000D01*
G37*
G36*
X122151000Y-44451000D02*
X120149000Y-44451000D01*
X120149000Y-42449000D01*
X122151000Y-42449000D01*
X122151000Y-44451000D01*
X122151000Y-44451000D01*
G37*
G36*
X119851000Y-44451000D02*
X117849000Y-44451000D01*
X117849000Y-42449000D01*
X119851000Y-42449000D01*
X119851000Y-44451000D01*
X119851000Y-44451000D01*
G37*
G36*
X117051000Y-44451000D02*
X115049000Y-44451000D01*
X115049000Y-42449000D01*
X117051000Y-42449000D01*
X117051000Y-44451000D01*
X117051000Y-44451000D01*
G37*
M02*
