M48
;DRILL file {KiCad (5.0.2)-1} date 19/01/2019 11:17:52
;FORMAT={-:-/ absolute / inch / decimal}
FMAT,2
INCH,TZ
T1C0.0079
T2C0.0118
T3C0.0157
T4C0.0197
T5C0.1260
T6C0.0236
%
G90
G05
T1
X3.7913Y-2.4291
X3.7913Y-2.685
X3.811Y-2.4291
X3.811Y-2.685
X3.8307Y-2.4291
X3.8307Y-2.685
X3.8386Y-1.9685
X3.8386Y-2.1654
X3.8386Y-2.3622
X3.8386Y-2.7559
X3.8386Y-2.9528
X3.8386Y-3.1496
X3.8504Y-2.4291
X3.8504Y-2.685
X3.8701Y-2.4291
X3.8701Y-2.685
X3.8898Y-2.4291
X3.8898Y-2.685
X3.9094Y-2.4291
X3.9094Y-2.685
X3.9291Y-2.4291
X3.9291Y-2.685
X3.937Y-2.0669
X3.937Y-2.2638
X3.937Y-2.8543
X3.937Y-3.0512
X3.9567Y-2.5236
X3.9567Y-2.5945
X3.9764Y-2.4606
X3.9764Y-2.5236
X3.9764Y-2.5945
X3.9764Y-2.6575
X3.9961Y-2.5236
X3.9961Y-2.5236
X3.9961Y-2.5236
X3.9961Y-2.5945
X3.9961Y-2.5945
X3.9961Y-2.5945
X4.0157Y-2.5236
X4.0157Y-2.5945
X4.0354Y-2.1654
X4.0354Y-2.3622
X4.0354Y-2.5236
X4.0354Y-2.5945
X4.0354Y-2.7559
X4.0354Y-2.9528
X4.0354Y-3.1496
X4.0551Y-2.5236
X4.0551Y-2.5945
X4.0748Y-2.5236
X4.0748Y-2.5945
X4.0945Y-2.5236
X4.0945Y-2.5945
X4.1142Y-2.5236
X4.1142Y-2.5945
X4.1339Y-1.752
X4.1339Y-1.9488
X4.1339Y-2.0669
X4.1339Y-2.2638
X4.1339Y-2.5236
X4.1339Y-2.5945
X4.1339Y-2.8543
X4.1339Y-3.0512
X4.1339Y-3.248
X4.1339Y-3.4449
X4.1535Y-2.5236
X4.1535Y-2.5945
X4.1732Y-2.4606
X4.1732Y-2.5236
X4.1732Y-2.5945
X4.1732Y-2.6575
X4.1929Y-2.5236
X4.1929Y-2.5945
X4.2087Y-2.8819
X4.2126Y-2.5236
X4.2126Y-2.5945
X4.2323Y-1.8504
X4.2323Y-1.9685
X4.2323Y-2.1654
X4.2323Y-2.3622
X4.2323Y-2.5236
X4.2323Y-2.5945
X4.2323Y-2.7559
X4.2323Y-3.1496
X4.2323Y-3.3465
X4.2795Y-2.8307
X4.3307Y-1.752
X4.3307Y-1.9488
X4.3307Y-2.0669
X4.3307Y-2.2638
X4.3307Y-3.248
X4.3504Y-2.4528
X4.3622Y-2.6614
X4.3642Y-2.4291
X4.3839Y-2.4114
X4.3839Y-2.6831
X4.4035Y-2.3937
X4.4035Y-2.7047
X4.4232Y-2.372
X4.4232Y-2.7244
X4.4291Y-1.8504
X4.4291Y-1.9685
X4.4291Y-2.1654
X4.4291Y-3.1496
X4.4429Y-2.3543
X4.4606Y-2.3346
X4.4606Y-2.7618
X4.4783Y-2.6358
X4.4803Y-2.3169
X4.4862Y-2.4114
X4.4961Y-2.7972
X4.498Y-2.2972
X4.5079Y-2.4114
X4.5098Y-2.3878
X4.5157Y-2.2776
X4.5276Y-1.9488
X4.5276Y-2.0669
X4.5276Y-3.0512
X4.5276Y-3.248
X4.5276Y-3.4449
X4.5295Y-2.3701
X4.5295Y-2.4114
X4.5295Y-2.8287
X4.5354Y-2.2579
X4.5433Y-2.7441
X4.5472Y-2.3504
X4.5472Y-2.8484
X4.5512Y-2.4114
X4.5551Y-2.252
X4.5591Y-2.4843
X4.565Y-2.3307
X4.565Y-2.8681
X4.5669Y-2.7224
X4.5709Y-1.7087
X4.5709Y-2.4114
X4.5748Y-2.252
X4.5768Y-2.7776
X4.5787Y-2.4843
X4.5866Y-2.3287
X4.5886Y-2.8819
X4.5906Y-2.4114
X4.5945Y-2.252
X4.5984Y-2.4843
X4.5984Y-2.7953
X4.6024Y-1.7992
X4.6063Y-2.3287
X4.6102Y-2.4114
X4.6142Y-2.252
X4.6142Y-2.6654
X4.6181Y-2.4843
X4.6181Y-2.7303
X4.626Y-1.9685
X4.626Y-2.1654
X4.626Y-2.9528
X4.626Y-3.1496
X4.626Y-3.3465
X4.6811Y-1.7087
X4.7244Y-1.9488
X4.7244Y-2.0669
X4.7244Y-3.0512
X4.7244Y-3.248
X4.7244Y-3.4449
X4.7717Y-1.7087
X4.8228Y-1.9685
X4.8228Y-2.1654
X4.8228Y-2.9528
X4.8228Y-3.1496
X4.8228Y-3.3465
X4.8465Y-1.7992
X4.8465Y-2.4843
X4.8465Y-2.7205
X4.8465Y-2.8071
X4.8465Y-2.878
X4.8484Y-2.6516
X4.8504Y-2.4114
X4.8524Y-2.2559
X4.8622Y-2.3287
X4.8661Y-2.4843
X4.8661Y-2.7205
X4.8661Y-2.8071
X4.8661Y-2.878
X4.8701Y-2.4114
X4.872Y-2.6516
X4.876Y-2.2559
X4.8819Y-1.7126
X4.8819Y-3.4449
X4.8839Y-2.3346
X4.8858Y-2.7205
X4.8858Y-2.8031
X4.8858Y-2.878
X4.8878Y-2.4843
X4.8917Y-2.4114
X4.8996Y-2.2559
X4.9016Y-2.3543
X4.9055Y-2.7205
X4.9055Y-2.7894
X4.9055Y-2.878
X4.9114Y-2.4114
X4.9193Y-2.374
X4.9213Y-1.9488
X4.9213Y-2.0669
X4.9213Y-2.2717
X4.9213Y-3.0512
X4.9213Y-3.248
X4.9252Y-2.7205
X4.9252Y-2.7697
X4.9252Y-2.7697
X4.9252Y-2.7697
X4.9252Y-2.872
X4.9331Y-2.4114
X4.935Y-2.3898
X4.939Y-2.2874
X4.9449Y-2.7205
X4.9449Y-2.75
X4.9449Y-2.8524
X4.9547Y-2.4075
X4.9567Y-2.3071
X4.9626Y-2.8327
X4.9646Y-2.7205
X4.9744Y-2.3268
X4.9803Y-2.813
X4.9961Y-2.3465
X5.Y-2.7953
X5.0138Y-2.3661
X5.0177Y-2.7756
X5.0197Y-1.8504
X5.0197Y-1.9685
X5.0197Y-2.9528
X5.0197Y-3.1496
X5.0335Y-2.3839
X5.0374Y-2.7579
X5.0512Y-2.4035
X5.0571Y-2.7362
X5.0709Y-2.4213
X5.0768Y-2.7185
X5.0906Y-2.439
X5.0965Y-2.7008
X5.1102Y-2.4587
X5.1102Y-2.6772
X5.1161Y-2.4783
X5.1161Y-2.498
X5.1181Y-1.752
X5.1181Y-1.9488
X5.1181Y-2.1063
X5.1181Y-2.8543
X5.1181Y-3.0512
X5.2047Y-2.5197
X5.2047Y-2.6024
X5.2165Y-1.8504
X5.2165Y-1.9685
X5.2165Y-2.4606
X5.2165Y-2.7559
X5.2165Y-2.9528
X5.2165Y-3.1496
X5.2244Y-2.5236
X5.2244Y-2.5945
X5.2441Y-2.5236
X5.2441Y-2.5945
X5.2638Y-2.5236
X5.2638Y-2.5236
X5.2638Y-2.5236
X5.2638Y-2.5945
X5.2835Y-2.5236
X5.2835Y-2.5945
X5.2835Y-2.5945
X5.2835Y-2.5945
X5.3031Y-2.5236
X5.3031Y-2.5945
X5.315Y-1.752
X5.315Y-2.1063
X5.315Y-2.4016
X5.315Y-2.6575
X5.315Y-2.8543
X5.315Y-3.0512
X5.3228Y-2.5236
X5.3228Y-2.5945
X5.3425Y-2.5236
X5.3425Y-2.5945
X5.3622Y-2.5236
X5.3622Y-2.5945
X5.3819Y-2.5236
X5.3819Y-2.5945
X5.4016Y-2.5236
X5.4016Y-2.5945
X5.4134Y-2.4606
X5.4134Y-2.7559
X5.4134Y-2.9528
X5.4134Y-3.1496
X5.4213Y-2.5236
X5.4213Y-2.5945
X5.4409Y-2.5236
X5.4409Y-2.5945
X5.4606Y-2.5236
X5.4606Y-2.5236
X5.4606Y-2.5945
X5.4803Y-2.5236
X5.4803Y-2.5236
X5.4803Y-2.5945
X5.4803Y-2.5945
X5.5118Y-2.8543
X5.5118Y-3.0512
X5.5197Y-2.4291
X5.5197Y-2.689
X5.5394Y-2.4291
X5.5394Y-2.689
X5.5591Y-2.4291
X5.5591Y-2.689
X5.5787Y-2.4291
X5.5787Y-2.689
X5.5984Y-2.4291
X5.5984Y-2.689
X5.6102Y-1.9685
X5.6102Y-2.1654
X5.6102Y-2.3622
X5.6102Y-2.7559
X5.6102Y-2.9528
X5.6102Y-3.1496
X5.6181Y-2.4291
X5.6181Y-2.689
X5.6378Y-2.4291
X5.6378Y-2.689
X5.6575Y-2.4291
X5.6575Y-2.689
T2
X4.7343Y-2.4035
X4.7343Y-2.498
X4.7323Y-2.2461
X4.7323Y-2.3406
X5.0295Y-2.5492
X5.0295Y-2.5886
X5.0492Y-2.5689
X5.0689Y-2.5492
X5.0689Y-2.5886
X4.3957Y-2.5295
X4.3957Y-2.5689
X4.4154Y-2.5492
X4.435Y-2.5295
X4.435Y-2.5689
X4.7323Y-2.6398
X4.7323Y-2.7343
X4.7323Y-2.7942
X4.7323Y-2.8887
T3
X4.315Y-3.3543
X4.3543Y-2.8819
X4.3602Y-2.811
X4.4134Y-2.8385
X4.4173Y-3.3543
X4.518Y-2.648
X4.5197Y-2.5108
X4.5551Y-2.5787
X4.623Y-2.5629
X4.8937Y-2.5472
X4.9016Y-2.6181
X4.9291Y-2.5866
X4.9311Y-2.4803
X4.9843Y-2.4843
X5.063Y-2.2047
X5.063Y-2.2559
X5.1102Y-2.4055
X5.1142Y-2.2047
X5.5394Y-2.3425
X5.5866Y-2.063
T4
X3.8819Y-1.8504
X3.9096Y-1.7836
X3.9096Y-1.9172
X3.9764Y-1.7559
X3.9764Y-1.9449
X4.0432Y-1.7836
X4.0432Y-1.9172
X4.0709Y-1.8504
X3.8819Y-3.3465
X3.9096Y-3.2796
X3.9096Y-3.4133
X3.9764Y-3.252
X3.9764Y-3.4409
X4.0432Y-3.2796
X4.0432Y-3.4133
X4.0709Y-3.3465
X5.378Y-3.3465
X5.4056Y-3.2796
X5.4056Y-3.4133
X5.4724Y-3.252
X5.4724Y-3.4409
X5.5393Y-3.2796
X5.5393Y-3.4133
X5.5669Y-3.3465
X5.378Y-1.8504
X5.4056Y-1.7836
X5.4056Y-1.9172
X5.4724Y-1.7559
X5.4724Y-1.9449
X5.5393Y-1.7836
X5.5393Y-1.9172
X5.5669Y-1.8504
T5
X3.9764Y-1.8504
X3.9764Y-3.3465
X5.4724Y-3.3465
X5.4724Y-1.8504
T6
X4.6457Y-1.7945
X4.8031Y-1.7945
T0
M30
