M48
; DRILL file {KiCad (5.1.2)-1} date 19/06/2019 11:16:07
; FORMAT={-:-/ absolute / inch / decimal}
; #@! TF.CreationDate,2019-06-19T11:16:07+10:00
; #@! TF.GenerationSoftware,Kicad,Pcbnew,(5.1.2)-1
FMAT,2
INCH
T1C0.0118
T2C0.0157
T3C0.0197
T4C0.1260
T5C0.0236
%
G90
G05
T1
X3.3661Y-4.626
X3.3661Y-4.8228
X3.3957Y-4.626
X3.3957Y-4.8228
X3.4252Y-4.626
X3.4252Y-4.8228
X3.4547Y-4.626
X3.4547Y-4.8228
X3.4646Y-4.5276
X3.4843Y-4.626
X3.4843Y-4.8228
X3.5138Y-4.626
X3.5138Y-4.8228
X3.5827Y-4.5276
X3.5827Y-4.6457
X3.5827Y-4.8819
X3.7008Y-4.2913
X3.7008Y-4.4094
X3.7008Y-4.5276
X3.7008Y-4.8819
X3.7008Y-5.0
X3.7008Y-5.1181
X3.7008Y-5.2362
X3.7303Y-4.8228
X3.7421Y-4.5374
X3.7598Y-4.8465
X3.8189Y-4.4094
X3.8189Y-4.8819
X3.8189Y-5.0
X3.8189Y-5.1181
X3.8189Y-5.2362
X3.8583Y-4.7736
X3.8583Y-4.8622
X3.8819Y-4.5866
X3.8858Y-4.3465
X3.8878Y-4.7736
X3.8878Y-4.8622
X3.9134Y-4.7697
X3.9173Y-4.4685
X3.9173Y-4.8622
X3.9213Y-4.6181
X3.9331Y-4.75
X3.937Y-4.8819
X3.937Y-5.0
X3.937Y-5.1181
X3.937Y-5.2362
X3.9469Y-4.8524
X3.9528Y-4.7303
X3.9646Y-4.4685
X3.9724Y-4.7106
X3.9744Y-4.8406
X3.9921Y-4.6909
X3.9941Y-4.8209
X4.0138Y-4.8012
X4.0197Y-4.5315
X4.0197Y-4.5709
X4.0197Y-4.6142
X4.0256Y-4.685
X4.0335Y-4.7815
X4.0551Y-4.685
X4.0551Y-4.7638
X4.0551Y-4.8819
X4.0551Y-5.0
X4.0551Y-5.1181
X4.0551Y-5.2362
X4.0846Y-4.685
X4.0846Y-4.7638
X4.1142Y-4.685
X4.1142Y-4.7638
X4.1339Y-4.5354
X4.1437Y-4.685
X4.1437Y-4.7638
X4.1732Y-4.2913
X4.1732Y-4.4094
X4.1732Y-4.685
X4.1732Y-4.7638
X4.1732Y-4.8819
X4.1732Y-5.0
X4.1732Y-5.1181
X4.1732Y-5.2362
X4.2028Y-4.685
X4.2028Y-4.7638
X4.2323Y-4.685
X4.2323Y-4.7638
X4.2618Y-4.685
X4.2618Y-4.7638
X4.2913Y-4.5276
X4.2913Y-4.685
X4.2913Y-4.7638
X4.2913Y-4.8819
X4.3209Y-4.685
X4.3209Y-4.7638
X4.3504Y-4.685
X4.3504Y-4.7638
X4.3602Y-4.626
X4.3602Y-4.8228
X4.3898Y-4.626
X4.3898Y-4.8228
X4.4094Y-4.5276
X4.4193Y-4.626
X4.4193Y-4.8228
X4.4488Y-4.626
X4.4488Y-4.8228
X4.4783Y-4.626
X4.4783Y-4.8228
X4.5079Y-4.626
X4.5079Y-4.8228
X3.7126Y-4.6949
X3.7126Y-4.7343
X3.7323Y-4.7146
X3.752Y-4.6949
X3.752Y-4.7343
T2
X3.7795Y-4.1969
X3.8898Y-4.1969
X3.9843Y-4.1969
X4.0945Y-4.1969
T3
X3.4488Y-4.3307
X3.4765Y-4.2639
X3.4765Y-4.3975
X3.5433Y-4.2362
X3.5433Y-4.4252
X3.6101Y-4.2639
X3.6101Y-4.3975
X3.6378Y-4.3307
X4.2362Y-4.3307
X4.2639Y-4.2639
X4.2639Y-4.3975
X4.3307Y-4.2362
X4.3307Y-4.4252
X4.3975Y-4.2639
X4.3975Y-4.3975
X4.4252Y-4.3307
X4.2362Y-5.1181
X4.2639Y-5.0513
X4.2639Y-5.1849
X4.3307Y-5.0236
X4.3307Y-5.2126
X4.3975Y-5.0513
X4.3975Y-5.1849
X4.4252Y-5.1181
X3.4488Y-5.1181
X3.4765Y-5.0513
X3.4765Y-5.1849
X3.5433Y-5.0236
X3.5433Y-5.2126
X3.6101Y-5.0513
X3.6101Y-5.1849
X3.6378Y-5.1181
T4
X3.5433Y-4.3307
X4.3307Y-4.3307
X4.3307Y-5.1181
X3.5433Y-5.1181
T5
X3.8583Y-4.2787
X4.0157Y-4.2787
T0
M30
