G04 #@! TF.GenerationSoftware,KiCad,Pcbnew,(5.1.2)-1*
G04 #@! TF.CreationDate,2019-06-19T11:16:05+10:00*
G04 #@! TF.ProjectId,Ecal,4563616c-2e6b-4696-9361-645f70636258,rev?*
G04 #@! TF.SameCoordinates,Original*
G04 #@! TF.FileFunction,Copper,L2,Bot*
G04 #@! TF.FilePolarity,Positive*
%FSLAX46Y46*%
G04 Gerber Fmt 4.6, Leading zero omitted, Abs format (unit mm)*
G04 Created by KiCad (PCBNEW (5.1.2)-1) date 2019-06-19 11:16:05*
%MOMM*%
%LPD*%
G04 APERTURE LIST*
%ADD10C,0.600000*%
%ADD11R,4.200000X1.350000*%
%ADD12C,0.800000*%
%ADD13C,6.400000*%
%ADD14C,0.250000*%
G04 APERTURE END LIST*
D10*
X95300000Y-119250000D03*
X94300000Y-119250000D03*
X94300000Y-120250000D03*
X95300000Y-120250000D03*
X94800000Y-119750000D03*
D11*
X112800000Y-122825000D03*
X112800000Y-117175000D03*
X87300000Y-117175000D03*
X87300000Y-122825000D03*
D12*
X111697056Y-128302944D03*
X110000000Y-127600000D03*
X108302944Y-128302944D03*
X107600000Y-130000000D03*
X108302944Y-131697056D03*
X110000000Y-132400000D03*
X111697056Y-131697056D03*
X112400000Y-130000000D03*
D13*
X110000000Y-130000000D03*
D12*
X91697056Y-128302944D03*
X90000000Y-127600000D03*
X88302944Y-128302944D03*
X87600000Y-130000000D03*
X88302944Y-131697056D03*
X90000000Y-132400000D03*
X91697056Y-131697056D03*
X92400000Y-130000000D03*
D13*
X90000000Y-130000000D03*
D12*
X91697056Y-108302944D03*
X90000000Y-107600000D03*
X88302944Y-108302944D03*
X87600000Y-110000000D03*
X88302944Y-111697056D03*
X90000000Y-112400000D03*
X91697056Y-111697056D03*
X92400000Y-110000000D03*
D13*
X90000000Y-110000000D03*
D12*
X111697056Y-108302944D03*
X110000000Y-107600000D03*
X108302944Y-108302944D03*
X107600000Y-110000000D03*
X108302944Y-111697056D03*
X110000000Y-112400000D03*
X111697056Y-111697056D03*
X112400000Y-110000000D03*
D13*
X110000000Y-110000000D03*
D12*
X104000000Y-106600000D03*
X101200000Y-106600000D03*
X98800000Y-106600000D03*
X96000000Y-106600000D03*
D10*
X94000000Y-133000000D03*
X97000000Y-133000000D03*
X100000000Y-133000000D03*
X103000000Y-133000000D03*
X106000000Y-133000000D03*
X100000000Y-127000000D03*
X97000000Y-127000000D03*
X94000000Y-127000000D03*
X103000000Y-127000000D03*
X106000000Y-127000000D03*
X97000000Y-130000000D03*
X106000000Y-130000000D03*
X103000000Y-130000000D03*
X100000000Y-130000000D03*
X94000000Y-130000000D03*
X106000000Y-124000000D03*
X103000000Y-124000000D03*
X100000000Y-124000000D03*
X97000000Y-124000000D03*
X94000000Y-124000000D03*
X94000000Y-115000000D03*
X94000000Y-112000000D03*
X97000000Y-112000000D03*
X91000000Y-115000000D03*
X88000000Y-115000000D03*
X91000000Y-118000000D03*
X91000000Y-124000000D03*
X109000000Y-124000000D03*
X109000000Y-115000000D03*
X112000000Y-115000000D03*
X110500000Y-121000000D03*
X109750000Y-121000000D03*
X109000000Y-121000000D03*
X108250000Y-121000000D03*
X107500000Y-121000000D03*
X106750000Y-121000000D03*
X106000000Y-121000000D03*
X105250000Y-121000000D03*
X103000000Y-121000000D03*
X103750000Y-121000000D03*
X104500000Y-121000000D03*
X105250000Y-119000000D03*
X103000000Y-119000000D03*
X110500000Y-119000000D03*
X108250000Y-119000000D03*
X109000000Y-119000000D03*
X104500000Y-119000000D03*
X103750000Y-119000000D03*
X109750000Y-119000000D03*
X107500000Y-119000000D03*
X106750000Y-119000000D03*
X106000000Y-119000000D03*
X102250000Y-119000000D03*
X101400000Y-119150000D03*
X100900000Y-119650000D03*
X100400000Y-120150000D03*
X99900000Y-120650000D03*
X99400000Y-121150000D03*
X102450000Y-121450000D03*
X101950000Y-121950000D03*
X101450000Y-122450000D03*
X100950000Y-122950000D03*
X100250000Y-123250000D03*
X99500000Y-123500000D03*
X98750000Y-123500000D03*
X98000000Y-123500000D03*
X98750000Y-121250000D03*
X98000000Y-121250000D03*
X95500000Y-123100000D03*
X94750000Y-122500000D03*
X113750000Y-117500000D03*
X112250000Y-117500000D03*
X110750000Y-117500000D03*
X111500000Y-117500000D03*
X113000000Y-117500000D03*
X95050000Y-115250000D03*
X105000000Y-115200000D03*
X98700000Y-110400000D03*
X99600000Y-117300000D03*
X102100000Y-115100000D03*
X102100000Y-116100000D03*
X100700000Y-113500000D03*
X99500000Y-113500000D03*
X102100000Y-117200000D03*
X114500000Y-117500000D03*
X110750000Y-122500000D03*
X113000000Y-122500000D03*
X114500000Y-122500000D03*
X112250000Y-122500000D03*
X111500000Y-122500000D03*
X113750000Y-122500000D03*
X85500000Y-122500000D03*
X88500000Y-122500000D03*
X89250000Y-122500000D03*
X87000000Y-122500000D03*
X87750000Y-122500000D03*
X86250000Y-122500000D03*
X87000000Y-117500000D03*
X88500000Y-117500000D03*
X87750000Y-117500000D03*
X89250000Y-117500000D03*
X85500000Y-117500000D03*
X86250000Y-117500000D03*
X98600000Y-116500000D03*
X106000000Y-112000000D03*
X106000000Y-109000000D03*
X94000000Y-109000000D03*
D14*
G36*
X110769864Y-105721292D02*
G01*
X111515389Y-105925245D01*
X112213013Y-106257995D01*
X112840689Y-106709026D01*
X113378579Y-107264085D01*
X113809671Y-107905618D01*
X114120345Y-108613354D01*
X114301980Y-109369917D01*
X114350000Y-110023829D01*
X114350001Y-129971038D01*
X114278708Y-130769865D01*
X114074755Y-131515389D01*
X113742005Y-132213013D01*
X113290972Y-132840692D01*
X112735916Y-133378579D01*
X112094383Y-133809670D01*
X111386650Y-134120344D01*
X110630083Y-134301980D01*
X109976171Y-134350000D01*
X90028951Y-134350000D01*
X89230135Y-134278708D01*
X88484611Y-134074755D01*
X87786987Y-133742005D01*
X87159308Y-133290972D01*
X86621421Y-132735916D01*
X86448300Y-132478283D01*
X87525253Y-132478283D01*
X87887570Y-132911763D01*
X88496217Y-133267929D01*
X89162653Y-133498510D01*
X89861267Y-133594645D01*
X90565213Y-133552640D01*
X91247438Y-133374110D01*
X91881725Y-133065914D01*
X92112430Y-132911763D01*
X92474747Y-132478283D01*
X107525253Y-132478283D01*
X107887570Y-132911763D01*
X108496217Y-133267929D01*
X109162653Y-133498510D01*
X109861267Y-133594645D01*
X110565213Y-133552640D01*
X111247438Y-133374110D01*
X111881725Y-133065914D01*
X112112430Y-132911763D01*
X112474747Y-132478283D01*
X110000000Y-130003536D01*
X107525253Y-132478283D01*
X92474747Y-132478283D01*
X90000000Y-130003536D01*
X87525253Y-132478283D01*
X86448300Y-132478283D01*
X86190330Y-132094383D01*
X85879656Y-131386650D01*
X85698020Y-130630083D01*
X85650000Y-129976171D01*
X85650000Y-129861267D01*
X86405355Y-129861267D01*
X86447360Y-130565213D01*
X86625890Y-131247438D01*
X86934086Y-131881725D01*
X87088237Y-132112430D01*
X87521717Y-132474747D01*
X89996464Y-130000000D01*
X90003536Y-130000000D01*
X92478283Y-132474747D01*
X92911763Y-132112430D01*
X93267929Y-131503783D01*
X93498510Y-130837347D01*
X93594645Y-130138733D01*
X93578089Y-129861267D01*
X106405355Y-129861267D01*
X106447360Y-130565213D01*
X106625890Y-131247438D01*
X106934086Y-131881725D01*
X107088237Y-132112430D01*
X107521717Y-132474747D01*
X109996464Y-130000000D01*
X110003536Y-130000000D01*
X112478283Y-132474747D01*
X112911763Y-132112430D01*
X113267929Y-131503783D01*
X113498510Y-130837347D01*
X113594645Y-130138733D01*
X113552640Y-129434787D01*
X113374110Y-128752562D01*
X113065914Y-128118275D01*
X112911763Y-127887570D01*
X112478283Y-127525253D01*
X110003536Y-130000000D01*
X109996464Y-130000000D01*
X107521717Y-127525253D01*
X107088237Y-127887570D01*
X106732071Y-128496217D01*
X106501490Y-129162653D01*
X106405355Y-129861267D01*
X93578089Y-129861267D01*
X93552640Y-129434787D01*
X93374110Y-128752562D01*
X93065914Y-128118275D01*
X92911763Y-127887570D01*
X92478283Y-127525253D01*
X90003536Y-130000000D01*
X89996464Y-130000000D01*
X87521717Y-127525253D01*
X87088237Y-127887570D01*
X86732071Y-128496217D01*
X86501490Y-129162653D01*
X86405355Y-129861267D01*
X85650000Y-129861267D01*
X85650000Y-127521717D01*
X87525253Y-127521717D01*
X90000000Y-129996464D01*
X92474747Y-127521717D01*
X107525253Y-127521717D01*
X110000000Y-129996464D01*
X112474747Y-127521717D01*
X112112430Y-127088237D01*
X111503783Y-126732071D01*
X110837347Y-126501490D01*
X110138733Y-126405355D01*
X109434787Y-126447360D01*
X108752562Y-126625890D01*
X108118275Y-126934086D01*
X107887570Y-127088237D01*
X107525253Y-127521717D01*
X92474747Y-127521717D01*
X92112430Y-127088237D01*
X91503783Y-126732071D01*
X90837347Y-126501490D01*
X90138733Y-126405355D01*
X89434787Y-126447360D01*
X88752562Y-126625890D01*
X88118275Y-126934086D01*
X87887570Y-127088237D01*
X87525253Y-127521717D01*
X85650000Y-127521717D01*
X85650000Y-112478283D01*
X87525253Y-112478283D01*
X87887570Y-112911763D01*
X88496217Y-113267929D01*
X89162653Y-113498510D01*
X89861267Y-113594645D01*
X90565213Y-113552640D01*
X91247438Y-113374110D01*
X91881725Y-113065914D01*
X92112430Y-112911763D01*
X92474747Y-112478283D01*
X107525253Y-112478283D01*
X107887570Y-112911763D01*
X108496217Y-113267929D01*
X109162653Y-113498510D01*
X109861267Y-113594645D01*
X110565213Y-113552640D01*
X111247438Y-113374110D01*
X111881725Y-113065914D01*
X112112430Y-112911763D01*
X112474747Y-112478283D01*
X110000000Y-110003536D01*
X107525253Y-112478283D01*
X92474747Y-112478283D01*
X90000000Y-110003536D01*
X87525253Y-112478283D01*
X85650000Y-112478283D01*
X85650000Y-110028951D01*
X85664965Y-109861267D01*
X86405355Y-109861267D01*
X86447360Y-110565213D01*
X86625890Y-111247438D01*
X86934086Y-111881725D01*
X87088237Y-112112430D01*
X87521717Y-112474747D01*
X89996464Y-110000000D01*
X90003536Y-110000000D01*
X92478283Y-112474747D01*
X92911763Y-112112430D01*
X93267929Y-111503783D01*
X93498510Y-110837347D01*
X93594645Y-110138733D01*
X93578089Y-109861267D01*
X106405355Y-109861267D01*
X106447360Y-110565213D01*
X106625890Y-111247438D01*
X106934086Y-111881725D01*
X107088237Y-112112430D01*
X107521717Y-112474747D01*
X109996464Y-110000000D01*
X110003536Y-110000000D01*
X112478283Y-112474747D01*
X112911763Y-112112430D01*
X113267929Y-111503783D01*
X113498510Y-110837347D01*
X113594645Y-110138733D01*
X113552640Y-109434787D01*
X113374110Y-108752562D01*
X113065914Y-108118275D01*
X112911763Y-107887570D01*
X112478283Y-107525253D01*
X110003536Y-110000000D01*
X109996464Y-110000000D01*
X107521717Y-107525253D01*
X107088237Y-107887570D01*
X106732071Y-108496217D01*
X106501490Y-109162653D01*
X106405355Y-109861267D01*
X93578089Y-109861267D01*
X93552640Y-109434787D01*
X93374110Y-108752562D01*
X93294586Y-108588895D01*
X97075000Y-108588895D01*
X97075000Y-108771105D01*
X97110547Y-108949813D01*
X97180275Y-109118152D01*
X97281505Y-109269653D01*
X97410347Y-109398495D01*
X97561848Y-109499725D01*
X97730187Y-109569453D01*
X97908895Y-109605000D01*
X98091105Y-109605000D01*
X98269813Y-109569453D01*
X98438152Y-109499725D01*
X98589653Y-109398495D01*
X98718495Y-109269653D01*
X98819725Y-109118152D01*
X98889453Y-108949813D01*
X98925000Y-108771105D01*
X98925000Y-108588895D01*
X101075000Y-108588895D01*
X101075000Y-108771105D01*
X101110547Y-108949813D01*
X101180275Y-109118152D01*
X101281505Y-109269653D01*
X101410347Y-109398495D01*
X101561848Y-109499725D01*
X101730187Y-109569453D01*
X101908895Y-109605000D01*
X102091105Y-109605000D01*
X102269813Y-109569453D01*
X102438152Y-109499725D01*
X102589653Y-109398495D01*
X102718495Y-109269653D01*
X102819725Y-109118152D01*
X102889453Y-108949813D01*
X102925000Y-108771105D01*
X102925000Y-108588895D01*
X102889453Y-108410187D01*
X102819725Y-108241848D01*
X102718495Y-108090347D01*
X102589653Y-107961505D01*
X102438152Y-107860275D01*
X102269813Y-107790547D01*
X102091105Y-107755000D01*
X101908895Y-107755000D01*
X101730187Y-107790547D01*
X101561848Y-107860275D01*
X101410347Y-107961505D01*
X101281505Y-108090347D01*
X101180275Y-108241848D01*
X101110547Y-108410187D01*
X101075000Y-108588895D01*
X98925000Y-108588895D01*
X98889453Y-108410187D01*
X98819725Y-108241848D01*
X98718495Y-108090347D01*
X98589653Y-107961505D01*
X98438152Y-107860275D01*
X98269813Y-107790547D01*
X98091105Y-107755000D01*
X97908895Y-107755000D01*
X97730187Y-107790547D01*
X97561848Y-107860275D01*
X97410347Y-107961505D01*
X97281505Y-108090347D01*
X97180275Y-108241848D01*
X97110547Y-108410187D01*
X97075000Y-108588895D01*
X93294586Y-108588895D01*
X93065914Y-108118275D01*
X92911763Y-107887570D01*
X92478283Y-107525253D01*
X90003536Y-110000000D01*
X89996464Y-110000000D01*
X87521717Y-107525253D01*
X87088237Y-107887570D01*
X86732071Y-108496217D01*
X86501490Y-109162653D01*
X86405355Y-109861267D01*
X85664965Y-109861267D01*
X85721292Y-109230136D01*
X85925245Y-108484611D01*
X86257995Y-107786987D01*
X86448610Y-107521717D01*
X87525253Y-107521717D01*
X90000000Y-109996464D01*
X92474747Y-107521717D01*
X107525253Y-107521717D01*
X110000000Y-109996464D01*
X112474747Y-107521717D01*
X112112430Y-107088237D01*
X111503783Y-106732071D01*
X110837347Y-106501490D01*
X110138733Y-106405355D01*
X109434787Y-106447360D01*
X108752562Y-106625890D01*
X108118275Y-106934086D01*
X107887570Y-107088237D01*
X107525253Y-107521717D01*
X92474747Y-107521717D01*
X92112430Y-107088237D01*
X91503783Y-106732071D01*
X90837347Y-106501490D01*
X90138733Y-106405355D01*
X89434787Y-106447360D01*
X88752562Y-106625890D01*
X88118275Y-106934086D01*
X87887570Y-107088237D01*
X87525253Y-107521717D01*
X86448610Y-107521717D01*
X86709026Y-107159311D01*
X87264085Y-106621421D01*
X87905618Y-106190329D01*
X88613354Y-105879655D01*
X89369917Y-105698020D01*
X90023829Y-105650000D01*
X109971049Y-105650000D01*
X110769864Y-105721292D01*
X110769864Y-105721292D01*
G37*
X110769864Y-105721292D02*
X111515389Y-105925245D01*
X112213013Y-106257995D01*
X112840689Y-106709026D01*
X113378579Y-107264085D01*
X113809671Y-107905618D01*
X114120345Y-108613354D01*
X114301980Y-109369917D01*
X114350000Y-110023829D01*
X114350001Y-129971038D01*
X114278708Y-130769865D01*
X114074755Y-131515389D01*
X113742005Y-132213013D01*
X113290972Y-132840692D01*
X112735916Y-133378579D01*
X112094383Y-133809670D01*
X111386650Y-134120344D01*
X110630083Y-134301980D01*
X109976171Y-134350000D01*
X90028951Y-134350000D01*
X89230135Y-134278708D01*
X88484611Y-134074755D01*
X87786987Y-133742005D01*
X87159308Y-133290972D01*
X86621421Y-132735916D01*
X86448300Y-132478283D01*
X87525253Y-132478283D01*
X87887570Y-132911763D01*
X88496217Y-133267929D01*
X89162653Y-133498510D01*
X89861267Y-133594645D01*
X90565213Y-133552640D01*
X91247438Y-133374110D01*
X91881725Y-133065914D01*
X92112430Y-132911763D01*
X92474747Y-132478283D01*
X107525253Y-132478283D01*
X107887570Y-132911763D01*
X108496217Y-133267929D01*
X109162653Y-133498510D01*
X109861267Y-133594645D01*
X110565213Y-133552640D01*
X111247438Y-133374110D01*
X111881725Y-133065914D01*
X112112430Y-132911763D01*
X112474747Y-132478283D01*
X110000000Y-130003536D01*
X107525253Y-132478283D01*
X92474747Y-132478283D01*
X90000000Y-130003536D01*
X87525253Y-132478283D01*
X86448300Y-132478283D01*
X86190330Y-132094383D01*
X85879656Y-131386650D01*
X85698020Y-130630083D01*
X85650000Y-129976171D01*
X85650000Y-129861267D01*
X86405355Y-129861267D01*
X86447360Y-130565213D01*
X86625890Y-131247438D01*
X86934086Y-131881725D01*
X87088237Y-132112430D01*
X87521717Y-132474747D01*
X89996464Y-130000000D01*
X90003536Y-130000000D01*
X92478283Y-132474747D01*
X92911763Y-132112430D01*
X93267929Y-131503783D01*
X93498510Y-130837347D01*
X93594645Y-130138733D01*
X93578089Y-129861267D01*
X106405355Y-129861267D01*
X106447360Y-130565213D01*
X106625890Y-131247438D01*
X106934086Y-131881725D01*
X107088237Y-132112430D01*
X107521717Y-132474747D01*
X109996464Y-130000000D01*
X110003536Y-130000000D01*
X112478283Y-132474747D01*
X112911763Y-132112430D01*
X113267929Y-131503783D01*
X113498510Y-130837347D01*
X113594645Y-130138733D01*
X113552640Y-129434787D01*
X113374110Y-128752562D01*
X113065914Y-128118275D01*
X112911763Y-127887570D01*
X112478283Y-127525253D01*
X110003536Y-130000000D01*
X109996464Y-130000000D01*
X107521717Y-127525253D01*
X107088237Y-127887570D01*
X106732071Y-128496217D01*
X106501490Y-129162653D01*
X106405355Y-129861267D01*
X93578089Y-129861267D01*
X93552640Y-129434787D01*
X93374110Y-128752562D01*
X93065914Y-128118275D01*
X92911763Y-127887570D01*
X92478283Y-127525253D01*
X90003536Y-130000000D01*
X89996464Y-130000000D01*
X87521717Y-127525253D01*
X87088237Y-127887570D01*
X86732071Y-128496217D01*
X86501490Y-129162653D01*
X86405355Y-129861267D01*
X85650000Y-129861267D01*
X85650000Y-127521717D01*
X87525253Y-127521717D01*
X90000000Y-129996464D01*
X92474747Y-127521717D01*
X107525253Y-127521717D01*
X110000000Y-129996464D01*
X112474747Y-127521717D01*
X112112430Y-127088237D01*
X111503783Y-126732071D01*
X110837347Y-126501490D01*
X110138733Y-126405355D01*
X109434787Y-126447360D01*
X108752562Y-126625890D01*
X108118275Y-126934086D01*
X107887570Y-127088237D01*
X107525253Y-127521717D01*
X92474747Y-127521717D01*
X92112430Y-127088237D01*
X91503783Y-126732071D01*
X90837347Y-126501490D01*
X90138733Y-126405355D01*
X89434787Y-126447360D01*
X88752562Y-126625890D01*
X88118275Y-126934086D01*
X87887570Y-127088237D01*
X87525253Y-127521717D01*
X85650000Y-127521717D01*
X85650000Y-112478283D01*
X87525253Y-112478283D01*
X87887570Y-112911763D01*
X88496217Y-113267929D01*
X89162653Y-113498510D01*
X89861267Y-113594645D01*
X90565213Y-113552640D01*
X91247438Y-113374110D01*
X91881725Y-113065914D01*
X92112430Y-112911763D01*
X92474747Y-112478283D01*
X107525253Y-112478283D01*
X107887570Y-112911763D01*
X108496217Y-113267929D01*
X109162653Y-113498510D01*
X109861267Y-113594645D01*
X110565213Y-113552640D01*
X111247438Y-113374110D01*
X111881725Y-113065914D01*
X112112430Y-112911763D01*
X112474747Y-112478283D01*
X110000000Y-110003536D01*
X107525253Y-112478283D01*
X92474747Y-112478283D01*
X90000000Y-110003536D01*
X87525253Y-112478283D01*
X85650000Y-112478283D01*
X85650000Y-110028951D01*
X85664965Y-109861267D01*
X86405355Y-109861267D01*
X86447360Y-110565213D01*
X86625890Y-111247438D01*
X86934086Y-111881725D01*
X87088237Y-112112430D01*
X87521717Y-112474747D01*
X89996464Y-110000000D01*
X90003536Y-110000000D01*
X92478283Y-112474747D01*
X92911763Y-112112430D01*
X93267929Y-111503783D01*
X93498510Y-110837347D01*
X93594645Y-110138733D01*
X93578089Y-109861267D01*
X106405355Y-109861267D01*
X106447360Y-110565213D01*
X106625890Y-111247438D01*
X106934086Y-111881725D01*
X107088237Y-112112430D01*
X107521717Y-112474747D01*
X109996464Y-110000000D01*
X110003536Y-110000000D01*
X112478283Y-112474747D01*
X112911763Y-112112430D01*
X113267929Y-111503783D01*
X113498510Y-110837347D01*
X113594645Y-110138733D01*
X113552640Y-109434787D01*
X113374110Y-108752562D01*
X113065914Y-108118275D01*
X112911763Y-107887570D01*
X112478283Y-107525253D01*
X110003536Y-110000000D01*
X109996464Y-110000000D01*
X107521717Y-107525253D01*
X107088237Y-107887570D01*
X106732071Y-108496217D01*
X106501490Y-109162653D01*
X106405355Y-109861267D01*
X93578089Y-109861267D01*
X93552640Y-109434787D01*
X93374110Y-108752562D01*
X93294586Y-108588895D01*
X97075000Y-108588895D01*
X97075000Y-108771105D01*
X97110547Y-108949813D01*
X97180275Y-109118152D01*
X97281505Y-109269653D01*
X97410347Y-109398495D01*
X97561848Y-109499725D01*
X97730187Y-109569453D01*
X97908895Y-109605000D01*
X98091105Y-109605000D01*
X98269813Y-109569453D01*
X98438152Y-109499725D01*
X98589653Y-109398495D01*
X98718495Y-109269653D01*
X98819725Y-109118152D01*
X98889453Y-108949813D01*
X98925000Y-108771105D01*
X98925000Y-108588895D01*
X101075000Y-108588895D01*
X101075000Y-108771105D01*
X101110547Y-108949813D01*
X101180275Y-109118152D01*
X101281505Y-109269653D01*
X101410347Y-109398495D01*
X101561848Y-109499725D01*
X101730187Y-109569453D01*
X101908895Y-109605000D01*
X102091105Y-109605000D01*
X102269813Y-109569453D01*
X102438152Y-109499725D01*
X102589653Y-109398495D01*
X102718495Y-109269653D01*
X102819725Y-109118152D01*
X102889453Y-108949813D01*
X102925000Y-108771105D01*
X102925000Y-108588895D01*
X102889453Y-108410187D01*
X102819725Y-108241848D01*
X102718495Y-108090347D01*
X102589653Y-107961505D01*
X102438152Y-107860275D01*
X102269813Y-107790547D01*
X102091105Y-107755000D01*
X101908895Y-107755000D01*
X101730187Y-107790547D01*
X101561848Y-107860275D01*
X101410347Y-107961505D01*
X101281505Y-108090347D01*
X101180275Y-108241848D01*
X101110547Y-108410187D01*
X101075000Y-108588895D01*
X98925000Y-108588895D01*
X98889453Y-108410187D01*
X98819725Y-108241848D01*
X98718495Y-108090347D01*
X98589653Y-107961505D01*
X98438152Y-107860275D01*
X98269813Y-107790547D01*
X98091105Y-107755000D01*
X97908895Y-107755000D01*
X97730187Y-107790547D01*
X97561848Y-107860275D01*
X97410347Y-107961505D01*
X97281505Y-108090347D01*
X97180275Y-108241848D01*
X97110547Y-108410187D01*
X97075000Y-108588895D01*
X93294586Y-108588895D01*
X93065914Y-108118275D01*
X92911763Y-107887570D01*
X92478283Y-107525253D01*
X90003536Y-110000000D01*
X89996464Y-110000000D01*
X87521717Y-107525253D01*
X87088237Y-107887570D01*
X86732071Y-108496217D01*
X86501490Y-109162653D01*
X86405355Y-109861267D01*
X85664965Y-109861267D01*
X85721292Y-109230136D01*
X85925245Y-108484611D01*
X86257995Y-107786987D01*
X86448610Y-107521717D01*
X87525253Y-107521717D01*
X90000000Y-109996464D01*
X92474747Y-107521717D01*
X107525253Y-107521717D01*
X110000000Y-109996464D01*
X112474747Y-107521717D01*
X112112430Y-107088237D01*
X111503783Y-106732071D01*
X110837347Y-106501490D01*
X110138733Y-106405355D01*
X109434787Y-106447360D01*
X108752562Y-106625890D01*
X108118275Y-106934086D01*
X107887570Y-107088237D01*
X107525253Y-107521717D01*
X92474747Y-107521717D01*
X92112430Y-107088237D01*
X91503783Y-106732071D01*
X90837347Y-106501490D01*
X90138733Y-106405355D01*
X89434787Y-106447360D01*
X88752562Y-106625890D01*
X88118275Y-106934086D01*
X87887570Y-107088237D01*
X87525253Y-107521717D01*
X86448610Y-107521717D01*
X86709026Y-107159311D01*
X87264085Y-106621421D01*
X87905618Y-106190329D01*
X88613354Y-105879655D01*
X89369917Y-105698020D01*
X90023829Y-105650000D01*
X109971049Y-105650000D01*
X110769864Y-105721292D01*
M02*
