G04 #@! TF.GenerationSoftware,KiCad,Pcbnew,(5.1.2)-1*
G04 #@! TF.CreationDate,2019-06-19T11:16:05+10:00*
G04 #@! TF.ProjectId,Ecal,4563616c-2e6b-4696-9361-645f70636258,rev?*
G04 #@! TF.SameCoordinates,Original*
G04 #@! TF.FileFunction,Copper,L1,Top*
G04 #@! TF.FilePolarity,Positive*
%FSLAX46Y46*%
G04 Gerber Fmt 4.6, Leading zero omitted, Abs format (unit mm)*
G04 Created by KiCad (PCBNEW (5.1.2)-1) date 2019-06-19 11:16:05*
%MOMM*%
%LPD*%
G04 APERTURE LIST*
%ADD10C,0.600000*%
%ADD11R,1.800000X1.800000*%
%ADD12O,0.300000X0.750000*%
%ADD13O,0.750000X0.300000*%
%ADD14R,1.000000X1.600000*%
%ADD15R,0.650000X0.350000*%
%ADD16C,0.100000*%
%ADD17C,0.590000*%
%ADD18C,0.875000*%
%ADD19R,4.200000X1.350000*%
%ADD20R,3.600000X1.270000*%
%ADD21R,0.400000X1.350000*%
%ADD22R,1.350000X1.000000*%
%ADD23R,1.900000X1.900000*%
%ADD24C,0.800000*%
%ADD25C,6.400000*%
%ADD26C,0.975000*%
%ADD27C,0.250000*%
%ADD28C,0.300000*%
%ADD29C,1.000000*%
%ADD30C,0.210000*%
%ADD31C,0.050000*%
G04 APERTURE END LIST*
D10*
X95300000Y-119250000D03*
X94300000Y-119250000D03*
X94300000Y-120250000D03*
X95300000Y-120250000D03*
X94800000Y-119750000D03*
D11*
X94800000Y-119750000D03*
D12*
X95550000Y-121225000D03*
X95050000Y-121225000D03*
X94550000Y-121225000D03*
X94050000Y-121225000D03*
D13*
X93325000Y-120500000D03*
X93325000Y-120000000D03*
X93325000Y-119500000D03*
X93325000Y-119000000D03*
D12*
X94050000Y-118275000D03*
X94550000Y-118275000D03*
X95050000Y-118275000D03*
X95550000Y-118275000D03*
D13*
X96275000Y-119000000D03*
X96275000Y-119500000D03*
X96275000Y-120000000D03*
X96275000Y-120500000D03*
D14*
X102100000Y-115600000D03*
D15*
X103150000Y-114950000D03*
X103150000Y-115600000D03*
X103150000Y-116250000D03*
X101050000Y-116250000D03*
X101050000Y-115600000D03*
X101050000Y-114950000D03*
D16*
G36*
X95236958Y-115605710D02*
G01*
X95251276Y-115607834D01*
X95265317Y-115611351D01*
X95278946Y-115616228D01*
X95292031Y-115622417D01*
X95304447Y-115629858D01*
X95316073Y-115638481D01*
X95326798Y-115648202D01*
X95336519Y-115658927D01*
X95345142Y-115670553D01*
X95352583Y-115682969D01*
X95358772Y-115696054D01*
X95363649Y-115709683D01*
X95367166Y-115723724D01*
X95369290Y-115738042D01*
X95370000Y-115752500D01*
X95370000Y-116047500D01*
X95369290Y-116061958D01*
X95367166Y-116076276D01*
X95363649Y-116090317D01*
X95358772Y-116103946D01*
X95352583Y-116117031D01*
X95345142Y-116129447D01*
X95336519Y-116141073D01*
X95326798Y-116151798D01*
X95316073Y-116161519D01*
X95304447Y-116170142D01*
X95292031Y-116177583D01*
X95278946Y-116183772D01*
X95265317Y-116188649D01*
X95251276Y-116192166D01*
X95236958Y-116194290D01*
X95222500Y-116195000D01*
X94877500Y-116195000D01*
X94863042Y-116194290D01*
X94848724Y-116192166D01*
X94834683Y-116188649D01*
X94821054Y-116183772D01*
X94807969Y-116177583D01*
X94795553Y-116170142D01*
X94783927Y-116161519D01*
X94773202Y-116151798D01*
X94763481Y-116141073D01*
X94754858Y-116129447D01*
X94747417Y-116117031D01*
X94741228Y-116103946D01*
X94736351Y-116090317D01*
X94732834Y-116076276D01*
X94730710Y-116061958D01*
X94730000Y-116047500D01*
X94730000Y-115752500D01*
X94730710Y-115738042D01*
X94732834Y-115723724D01*
X94736351Y-115709683D01*
X94741228Y-115696054D01*
X94747417Y-115682969D01*
X94754858Y-115670553D01*
X94763481Y-115658927D01*
X94773202Y-115648202D01*
X94783927Y-115638481D01*
X94795553Y-115629858D01*
X94807969Y-115622417D01*
X94821054Y-115616228D01*
X94834683Y-115611351D01*
X94848724Y-115607834D01*
X94863042Y-115605710D01*
X94877500Y-115605000D01*
X95222500Y-115605000D01*
X95236958Y-115605710D01*
X95236958Y-115605710D01*
G37*
D17*
X95050000Y-115900000D03*
D16*
G36*
X95236958Y-116575710D02*
G01*
X95251276Y-116577834D01*
X95265317Y-116581351D01*
X95278946Y-116586228D01*
X95292031Y-116592417D01*
X95304447Y-116599858D01*
X95316073Y-116608481D01*
X95326798Y-116618202D01*
X95336519Y-116628927D01*
X95345142Y-116640553D01*
X95352583Y-116652969D01*
X95358772Y-116666054D01*
X95363649Y-116679683D01*
X95367166Y-116693724D01*
X95369290Y-116708042D01*
X95370000Y-116722500D01*
X95370000Y-117017500D01*
X95369290Y-117031958D01*
X95367166Y-117046276D01*
X95363649Y-117060317D01*
X95358772Y-117073946D01*
X95352583Y-117087031D01*
X95345142Y-117099447D01*
X95336519Y-117111073D01*
X95326798Y-117121798D01*
X95316073Y-117131519D01*
X95304447Y-117140142D01*
X95292031Y-117147583D01*
X95278946Y-117153772D01*
X95265317Y-117158649D01*
X95251276Y-117162166D01*
X95236958Y-117164290D01*
X95222500Y-117165000D01*
X94877500Y-117165000D01*
X94863042Y-117164290D01*
X94848724Y-117162166D01*
X94834683Y-117158649D01*
X94821054Y-117153772D01*
X94807969Y-117147583D01*
X94795553Y-117140142D01*
X94783927Y-117131519D01*
X94773202Y-117121798D01*
X94763481Y-117111073D01*
X94754858Y-117099447D01*
X94747417Y-117087031D01*
X94741228Y-117073946D01*
X94736351Y-117060317D01*
X94732834Y-117046276D01*
X94730710Y-117031958D01*
X94730000Y-117017500D01*
X94730000Y-116722500D01*
X94730710Y-116708042D01*
X94732834Y-116693724D01*
X94736351Y-116679683D01*
X94741228Y-116666054D01*
X94747417Y-116652969D01*
X94754858Y-116640553D01*
X94763481Y-116628927D01*
X94773202Y-116618202D01*
X94783927Y-116608481D01*
X94795553Y-116599858D01*
X94807969Y-116592417D01*
X94821054Y-116586228D01*
X94834683Y-116581351D01*
X94848724Y-116577834D01*
X94863042Y-116575710D01*
X94877500Y-116575000D01*
X95222500Y-116575000D01*
X95236958Y-116575710D01*
X95236958Y-116575710D01*
G37*
D17*
X95050000Y-116870000D03*
D16*
G36*
X107627691Y-116326053D02*
G01*
X107648926Y-116329203D01*
X107669750Y-116334419D01*
X107689962Y-116341651D01*
X107709368Y-116350830D01*
X107727781Y-116361866D01*
X107745024Y-116374654D01*
X107760930Y-116389070D01*
X107775346Y-116404976D01*
X107788134Y-116422219D01*
X107799170Y-116440632D01*
X107808349Y-116460038D01*
X107815581Y-116480250D01*
X107820797Y-116501074D01*
X107823947Y-116522309D01*
X107825000Y-116543750D01*
X107825000Y-117056250D01*
X107823947Y-117077691D01*
X107820797Y-117098926D01*
X107815581Y-117119750D01*
X107808349Y-117139962D01*
X107799170Y-117159368D01*
X107788134Y-117177781D01*
X107775346Y-117195024D01*
X107760930Y-117210930D01*
X107745024Y-117225346D01*
X107727781Y-117238134D01*
X107709368Y-117249170D01*
X107689962Y-117258349D01*
X107669750Y-117265581D01*
X107648926Y-117270797D01*
X107627691Y-117273947D01*
X107606250Y-117275000D01*
X107168750Y-117275000D01*
X107147309Y-117273947D01*
X107126074Y-117270797D01*
X107105250Y-117265581D01*
X107085038Y-117258349D01*
X107065632Y-117249170D01*
X107047219Y-117238134D01*
X107029976Y-117225346D01*
X107014070Y-117210930D01*
X106999654Y-117195024D01*
X106986866Y-117177781D01*
X106975830Y-117159368D01*
X106966651Y-117139962D01*
X106959419Y-117119750D01*
X106954203Y-117098926D01*
X106951053Y-117077691D01*
X106950000Y-117056250D01*
X106950000Y-116543750D01*
X106951053Y-116522309D01*
X106954203Y-116501074D01*
X106959419Y-116480250D01*
X106966651Y-116460038D01*
X106975830Y-116440632D01*
X106986866Y-116422219D01*
X106999654Y-116404976D01*
X107014070Y-116389070D01*
X107029976Y-116374654D01*
X107047219Y-116361866D01*
X107065632Y-116350830D01*
X107085038Y-116341651D01*
X107105250Y-116334419D01*
X107126074Y-116329203D01*
X107147309Y-116326053D01*
X107168750Y-116325000D01*
X107606250Y-116325000D01*
X107627691Y-116326053D01*
X107627691Y-116326053D01*
G37*
D18*
X107387500Y-116800000D03*
D16*
G36*
X106052691Y-116326053D02*
G01*
X106073926Y-116329203D01*
X106094750Y-116334419D01*
X106114962Y-116341651D01*
X106134368Y-116350830D01*
X106152781Y-116361866D01*
X106170024Y-116374654D01*
X106185930Y-116389070D01*
X106200346Y-116404976D01*
X106213134Y-116422219D01*
X106224170Y-116440632D01*
X106233349Y-116460038D01*
X106240581Y-116480250D01*
X106245797Y-116501074D01*
X106248947Y-116522309D01*
X106250000Y-116543750D01*
X106250000Y-117056250D01*
X106248947Y-117077691D01*
X106245797Y-117098926D01*
X106240581Y-117119750D01*
X106233349Y-117139962D01*
X106224170Y-117159368D01*
X106213134Y-117177781D01*
X106200346Y-117195024D01*
X106185930Y-117210930D01*
X106170024Y-117225346D01*
X106152781Y-117238134D01*
X106134368Y-117249170D01*
X106114962Y-117258349D01*
X106094750Y-117265581D01*
X106073926Y-117270797D01*
X106052691Y-117273947D01*
X106031250Y-117275000D01*
X105593750Y-117275000D01*
X105572309Y-117273947D01*
X105551074Y-117270797D01*
X105530250Y-117265581D01*
X105510038Y-117258349D01*
X105490632Y-117249170D01*
X105472219Y-117238134D01*
X105454976Y-117225346D01*
X105439070Y-117210930D01*
X105424654Y-117195024D01*
X105411866Y-117177781D01*
X105400830Y-117159368D01*
X105391651Y-117139962D01*
X105384419Y-117119750D01*
X105379203Y-117098926D01*
X105376053Y-117077691D01*
X105375000Y-117056250D01*
X105375000Y-116543750D01*
X105376053Y-116522309D01*
X105379203Y-116501074D01*
X105384419Y-116480250D01*
X105391651Y-116460038D01*
X105400830Y-116440632D01*
X105411866Y-116422219D01*
X105424654Y-116404976D01*
X105439070Y-116389070D01*
X105454976Y-116374654D01*
X105472219Y-116361866D01*
X105490632Y-116350830D01*
X105510038Y-116341651D01*
X105530250Y-116334419D01*
X105551074Y-116329203D01*
X105572309Y-116326053D01*
X105593750Y-116325000D01*
X106031250Y-116325000D01*
X106052691Y-116326053D01*
X106052691Y-116326053D01*
G37*
D18*
X105812500Y-116800000D03*
D19*
X112800000Y-122825000D03*
X112800000Y-117175000D03*
D20*
X113000000Y-120000000D03*
D19*
X87300000Y-117175000D03*
X87300000Y-122825000D03*
D20*
X87100000Y-120000000D03*
D21*
X100650000Y-109225000D03*
X101300000Y-109225000D03*
X99350000Y-109225000D03*
X98700000Y-109225000D03*
X100000000Y-109225000D03*
D22*
X103100000Y-108800000D03*
X96900000Y-108800000D03*
D23*
X96050000Y-106550000D03*
X103950000Y-106550000D03*
X101150000Y-106550000D03*
X98850000Y-106550000D03*
D24*
X111697056Y-128302944D03*
X110000000Y-127600000D03*
X108302944Y-128302944D03*
X107600000Y-130000000D03*
X108302944Y-131697056D03*
X110000000Y-132400000D03*
X111697056Y-131697056D03*
X112400000Y-130000000D03*
D25*
X110000000Y-130000000D03*
D24*
X91697056Y-128302944D03*
X90000000Y-127600000D03*
X88302944Y-128302944D03*
X87600000Y-130000000D03*
X88302944Y-131697056D03*
X90000000Y-132400000D03*
X91697056Y-131697056D03*
X92400000Y-130000000D03*
D25*
X90000000Y-130000000D03*
D24*
X91697056Y-108302944D03*
X90000000Y-107600000D03*
X88302944Y-108302944D03*
X87600000Y-110000000D03*
X88302944Y-111697056D03*
X90000000Y-112400000D03*
X91697056Y-111697056D03*
X92400000Y-110000000D03*
D25*
X90000000Y-110000000D03*
D24*
X111697056Y-108302944D03*
X110000000Y-107600000D03*
X108302944Y-108302944D03*
X107600000Y-110000000D03*
X108302944Y-111697056D03*
X110000000Y-112400000D03*
X111697056Y-111697056D03*
X112400000Y-110000000D03*
D25*
X110000000Y-110000000D03*
D16*
G36*
X101530142Y-111101174D02*
G01*
X101553803Y-111104684D01*
X101577007Y-111110496D01*
X101599529Y-111118554D01*
X101621153Y-111128782D01*
X101641670Y-111141079D01*
X101660883Y-111155329D01*
X101678607Y-111171393D01*
X101694671Y-111189117D01*
X101708921Y-111208330D01*
X101721218Y-111228847D01*
X101731446Y-111250471D01*
X101739504Y-111272993D01*
X101745316Y-111296197D01*
X101748826Y-111319858D01*
X101750000Y-111343750D01*
X101750000Y-112256250D01*
X101748826Y-112280142D01*
X101745316Y-112303803D01*
X101739504Y-112327007D01*
X101731446Y-112349529D01*
X101721218Y-112371153D01*
X101708921Y-112391670D01*
X101694671Y-112410883D01*
X101678607Y-112428607D01*
X101660883Y-112444671D01*
X101641670Y-112458921D01*
X101621153Y-112471218D01*
X101599529Y-112481446D01*
X101577007Y-112489504D01*
X101553803Y-112495316D01*
X101530142Y-112498826D01*
X101506250Y-112500000D01*
X101018750Y-112500000D01*
X100994858Y-112498826D01*
X100971197Y-112495316D01*
X100947993Y-112489504D01*
X100925471Y-112481446D01*
X100903847Y-112471218D01*
X100883330Y-112458921D01*
X100864117Y-112444671D01*
X100846393Y-112428607D01*
X100830329Y-112410883D01*
X100816079Y-112391670D01*
X100803782Y-112371153D01*
X100793554Y-112349529D01*
X100785496Y-112327007D01*
X100779684Y-112303803D01*
X100776174Y-112280142D01*
X100775000Y-112256250D01*
X100775000Y-111343750D01*
X100776174Y-111319858D01*
X100779684Y-111296197D01*
X100785496Y-111272993D01*
X100793554Y-111250471D01*
X100803782Y-111228847D01*
X100816079Y-111208330D01*
X100830329Y-111189117D01*
X100846393Y-111171393D01*
X100864117Y-111155329D01*
X100883330Y-111141079D01*
X100903847Y-111128782D01*
X100925471Y-111118554D01*
X100947993Y-111110496D01*
X100971197Y-111104684D01*
X100994858Y-111101174D01*
X101018750Y-111100000D01*
X101506250Y-111100000D01*
X101530142Y-111101174D01*
X101530142Y-111101174D01*
G37*
D26*
X101262500Y-111800000D03*
D16*
G36*
X103405142Y-111101174D02*
G01*
X103428803Y-111104684D01*
X103452007Y-111110496D01*
X103474529Y-111118554D01*
X103496153Y-111128782D01*
X103516670Y-111141079D01*
X103535883Y-111155329D01*
X103553607Y-111171393D01*
X103569671Y-111189117D01*
X103583921Y-111208330D01*
X103596218Y-111228847D01*
X103606446Y-111250471D01*
X103614504Y-111272993D01*
X103620316Y-111296197D01*
X103623826Y-111319858D01*
X103625000Y-111343750D01*
X103625000Y-112256250D01*
X103623826Y-112280142D01*
X103620316Y-112303803D01*
X103614504Y-112327007D01*
X103606446Y-112349529D01*
X103596218Y-112371153D01*
X103583921Y-112391670D01*
X103569671Y-112410883D01*
X103553607Y-112428607D01*
X103535883Y-112444671D01*
X103516670Y-112458921D01*
X103496153Y-112471218D01*
X103474529Y-112481446D01*
X103452007Y-112489504D01*
X103428803Y-112495316D01*
X103405142Y-112498826D01*
X103381250Y-112500000D01*
X102893750Y-112500000D01*
X102869858Y-112498826D01*
X102846197Y-112495316D01*
X102822993Y-112489504D01*
X102800471Y-112481446D01*
X102778847Y-112471218D01*
X102758330Y-112458921D01*
X102739117Y-112444671D01*
X102721393Y-112428607D01*
X102705329Y-112410883D01*
X102691079Y-112391670D01*
X102678782Y-112371153D01*
X102668554Y-112349529D01*
X102660496Y-112327007D01*
X102654684Y-112303803D01*
X102651174Y-112280142D01*
X102650000Y-112256250D01*
X102650000Y-111343750D01*
X102651174Y-111319858D01*
X102654684Y-111296197D01*
X102660496Y-111272993D01*
X102668554Y-111250471D01*
X102678782Y-111228847D01*
X102691079Y-111208330D01*
X102705329Y-111189117D01*
X102721393Y-111171393D01*
X102739117Y-111155329D01*
X102758330Y-111141079D01*
X102778847Y-111128782D01*
X102800471Y-111118554D01*
X102822993Y-111110496D01*
X102846197Y-111104684D01*
X102869858Y-111101174D01*
X102893750Y-111100000D01*
X103381250Y-111100000D01*
X103405142Y-111101174D01*
X103405142Y-111101174D01*
G37*
D26*
X103137500Y-111800000D03*
D16*
G36*
X107627691Y-114726053D02*
G01*
X107648926Y-114729203D01*
X107669750Y-114734419D01*
X107689962Y-114741651D01*
X107709368Y-114750830D01*
X107727781Y-114761866D01*
X107745024Y-114774654D01*
X107760930Y-114789070D01*
X107775346Y-114804976D01*
X107788134Y-114822219D01*
X107799170Y-114840632D01*
X107808349Y-114860038D01*
X107815581Y-114880250D01*
X107820797Y-114901074D01*
X107823947Y-114922309D01*
X107825000Y-114943750D01*
X107825000Y-115456250D01*
X107823947Y-115477691D01*
X107820797Y-115498926D01*
X107815581Y-115519750D01*
X107808349Y-115539962D01*
X107799170Y-115559368D01*
X107788134Y-115577781D01*
X107775346Y-115595024D01*
X107760930Y-115610930D01*
X107745024Y-115625346D01*
X107727781Y-115638134D01*
X107709368Y-115649170D01*
X107689962Y-115658349D01*
X107669750Y-115665581D01*
X107648926Y-115670797D01*
X107627691Y-115673947D01*
X107606250Y-115675000D01*
X107168750Y-115675000D01*
X107147309Y-115673947D01*
X107126074Y-115670797D01*
X107105250Y-115665581D01*
X107085038Y-115658349D01*
X107065632Y-115649170D01*
X107047219Y-115638134D01*
X107029976Y-115625346D01*
X107014070Y-115610930D01*
X106999654Y-115595024D01*
X106986866Y-115577781D01*
X106975830Y-115559368D01*
X106966651Y-115539962D01*
X106959419Y-115519750D01*
X106954203Y-115498926D01*
X106951053Y-115477691D01*
X106950000Y-115456250D01*
X106950000Y-114943750D01*
X106951053Y-114922309D01*
X106954203Y-114901074D01*
X106959419Y-114880250D01*
X106966651Y-114860038D01*
X106975830Y-114840632D01*
X106986866Y-114822219D01*
X106999654Y-114804976D01*
X107014070Y-114789070D01*
X107029976Y-114774654D01*
X107047219Y-114761866D01*
X107065632Y-114750830D01*
X107085038Y-114741651D01*
X107105250Y-114734419D01*
X107126074Y-114729203D01*
X107147309Y-114726053D01*
X107168750Y-114725000D01*
X107606250Y-114725000D01*
X107627691Y-114726053D01*
X107627691Y-114726053D01*
G37*
D18*
X107387500Y-115200000D03*
D16*
G36*
X106052691Y-114726053D02*
G01*
X106073926Y-114729203D01*
X106094750Y-114734419D01*
X106114962Y-114741651D01*
X106134368Y-114750830D01*
X106152781Y-114761866D01*
X106170024Y-114774654D01*
X106185930Y-114789070D01*
X106200346Y-114804976D01*
X106213134Y-114822219D01*
X106224170Y-114840632D01*
X106233349Y-114860038D01*
X106240581Y-114880250D01*
X106245797Y-114901074D01*
X106248947Y-114922309D01*
X106250000Y-114943750D01*
X106250000Y-115456250D01*
X106248947Y-115477691D01*
X106245797Y-115498926D01*
X106240581Y-115519750D01*
X106233349Y-115539962D01*
X106224170Y-115559368D01*
X106213134Y-115577781D01*
X106200346Y-115595024D01*
X106185930Y-115610930D01*
X106170024Y-115625346D01*
X106152781Y-115638134D01*
X106134368Y-115649170D01*
X106114962Y-115658349D01*
X106094750Y-115665581D01*
X106073926Y-115670797D01*
X106052691Y-115673947D01*
X106031250Y-115675000D01*
X105593750Y-115675000D01*
X105572309Y-115673947D01*
X105551074Y-115670797D01*
X105530250Y-115665581D01*
X105510038Y-115658349D01*
X105490632Y-115649170D01*
X105472219Y-115638134D01*
X105454976Y-115625346D01*
X105439070Y-115610930D01*
X105424654Y-115595024D01*
X105411866Y-115577781D01*
X105400830Y-115559368D01*
X105391651Y-115539962D01*
X105384419Y-115519750D01*
X105379203Y-115498926D01*
X105376053Y-115477691D01*
X105375000Y-115456250D01*
X105375000Y-114943750D01*
X105376053Y-114922309D01*
X105379203Y-114901074D01*
X105384419Y-114880250D01*
X105391651Y-114860038D01*
X105400830Y-114840632D01*
X105411866Y-114822219D01*
X105424654Y-114804976D01*
X105439070Y-114789070D01*
X105454976Y-114774654D01*
X105472219Y-114761866D01*
X105490632Y-114750830D01*
X105510038Y-114741651D01*
X105530250Y-114734419D01*
X105551074Y-114729203D01*
X105572309Y-114726053D01*
X105593750Y-114725000D01*
X106031250Y-114725000D01*
X106052691Y-114726053D01*
X106052691Y-114726053D01*
G37*
D18*
X105812500Y-115200000D03*
D16*
G36*
X96576958Y-122080710D02*
G01*
X96591276Y-122082834D01*
X96605317Y-122086351D01*
X96618946Y-122091228D01*
X96632031Y-122097417D01*
X96644447Y-122104858D01*
X96656073Y-122113481D01*
X96666798Y-122123202D01*
X96676519Y-122133927D01*
X96685142Y-122145553D01*
X96692583Y-122157969D01*
X96698772Y-122171054D01*
X96703649Y-122184683D01*
X96707166Y-122198724D01*
X96709290Y-122213042D01*
X96710000Y-122227500D01*
X96710000Y-122572500D01*
X96709290Y-122586958D01*
X96707166Y-122601276D01*
X96703649Y-122615317D01*
X96698772Y-122628946D01*
X96692583Y-122642031D01*
X96685142Y-122654447D01*
X96676519Y-122666073D01*
X96666798Y-122676798D01*
X96656073Y-122686519D01*
X96644447Y-122695142D01*
X96632031Y-122702583D01*
X96618946Y-122708772D01*
X96605317Y-122713649D01*
X96591276Y-122717166D01*
X96576958Y-122719290D01*
X96562500Y-122720000D01*
X96267500Y-122720000D01*
X96253042Y-122719290D01*
X96238724Y-122717166D01*
X96224683Y-122713649D01*
X96211054Y-122708772D01*
X96197969Y-122702583D01*
X96185553Y-122695142D01*
X96173927Y-122686519D01*
X96163202Y-122676798D01*
X96153481Y-122666073D01*
X96144858Y-122654447D01*
X96137417Y-122642031D01*
X96131228Y-122628946D01*
X96126351Y-122615317D01*
X96122834Y-122601276D01*
X96120710Y-122586958D01*
X96120000Y-122572500D01*
X96120000Y-122227500D01*
X96120710Y-122213042D01*
X96122834Y-122198724D01*
X96126351Y-122184683D01*
X96131228Y-122171054D01*
X96137417Y-122157969D01*
X96144858Y-122145553D01*
X96153481Y-122133927D01*
X96163202Y-122123202D01*
X96173927Y-122113481D01*
X96185553Y-122104858D01*
X96197969Y-122097417D01*
X96211054Y-122091228D01*
X96224683Y-122086351D01*
X96238724Y-122082834D01*
X96253042Y-122080710D01*
X96267500Y-122080000D01*
X96562500Y-122080000D01*
X96576958Y-122080710D01*
X96576958Y-122080710D01*
G37*
D17*
X96415000Y-122400000D03*
D16*
G36*
X97546958Y-122080710D02*
G01*
X97561276Y-122082834D01*
X97575317Y-122086351D01*
X97588946Y-122091228D01*
X97602031Y-122097417D01*
X97614447Y-122104858D01*
X97626073Y-122113481D01*
X97636798Y-122123202D01*
X97646519Y-122133927D01*
X97655142Y-122145553D01*
X97662583Y-122157969D01*
X97668772Y-122171054D01*
X97673649Y-122184683D01*
X97677166Y-122198724D01*
X97679290Y-122213042D01*
X97680000Y-122227500D01*
X97680000Y-122572500D01*
X97679290Y-122586958D01*
X97677166Y-122601276D01*
X97673649Y-122615317D01*
X97668772Y-122628946D01*
X97662583Y-122642031D01*
X97655142Y-122654447D01*
X97646519Y-122666073D01*
X97636798Y-122676798D01*
X97626073Y-122686519D01*
X97614447Y-122695142D01*
X97602031Y-122702583D01*
X97588946Y-122708772D01*
X97575317Y-122713649D01*
X97561276Y-122717166D01*
X97546958Y-122719290D01*
X97532500Y-122720000D01*
X97237500Y-122720000D01*
X97223042Y-122719290D01*
X97208724Y-122717166D01*
X97194683Y-122713649D01*
X97181054Y-122708772D01*
X97167969Y-122702583D01*
X97155553Y-122695142D01*
X97143927Y-122686519D01*
X97133202Y-122676798D01*
X97123481Y-122666073D01*
X97114858Y-122654447D01*
X97107417Y-122642031D01*
X97101228Y-122628946D01*
X97096351Y-122615317D01*
X97092834Y-122601276D01*
X97090710Y-122586958D01*
X97090000Y-122572500D01*
X97090000Y-122227500D01*
X97090710Y-122213042D01*
X97092834Y-122198724D01*
X97096351Y-122184683D01*
X97101228Y-122171054D01*
X97107417Y-122157969D01*
X97114858Y-122145553D01*
X97123481Y-122133927D01*
X97133202Y-122123202D01*
X97143927Y-122113481D01*
X97155553Y-122104858D01*
X97167969Y-122097417D01*
X97181054Y-122091228D01*
X97194683Y-122086351D01*
X97208724Y-122082834D01*
X97223042Y-122080710D01*
X97237500Y-122080000D01*
X97532500Y-122080000D01*
X97546958Y-122080710D01*
X97546958Y-122080710D01*
G37*
D17*
X97385000Y-122400000D03*
D16*
G36*
X97776958Y-119680710D02*
G01*
X97791276Y-119682834D01*
X97805317Y-119686351D01*
X97818946Y-119691228D01*
X97832031Y-119697417D01*
X97844447Y-119704858D01*
X97856073Y-119713481D01*
X97866798Y-119723202D01*
X97876519Y-119733927D01*
X97885142Y-119745553D01*
X97892583Y-119757969D01*
X97898772Y-119771054D01*
X97903649Y-119784683D01*
X97907166Y-119798724D01*
X97909290Y-119813042D01*
X97910000Y-119827500D01*
X97910000Y-120172500D01*
X97909290Y-120186958D01*
X97907166Y-120201276D01*
X97903649Y-120215317D01*
X97898772Y-120228946D01*
X97892583Y-120242031D01*
X97885142Y-120254447D01*
X97876519Y-120266073D01*
X97866798Y-120276798D01*
X97856073Y-120286519D01*
X97844447Y-120295142D01*
X97832031Y-120302583D01*
X97818946Y-120308772D01*
X97805317Y-120313649D01*
X97791276Y-120317166D01*
X97776958Y-120319290D01*
X97762500Y-120320000D01*
X97467500Y-120320000D01*
X97453042Y-120319290D01*
X97438724Y-120317166D01*
X97424683Y-120313649D01*
X97411054Y-120308772D01*
X97397969Y-120302583D01*
X97385553Y-120295142D01*
X97373927Y-120286519D01*
X97363202Y-120276798D01*
X97353481Y-120266073D01*
X97344858Y-120254447D01*
X97337417Y-120242031D01*
X97331228Y-120228946D01*
X97326351Y-120215317D01*
X97322834Y-120201276D01*
X97320710Y-120186958D01*
X97320000Y-120172500D01*
X97320000Y-119827500D01*
X97320710Y-119813042D01*
X97322834Y-119798724D01*
X97326351Y-119784683D01*
X97331228Y-119771054D01*
X97337417Y-119757969D01*
X97344858Y-119745553D01*
X97353481Y-119733927D01*
X97363202Y-119723202D01*
X97373927Y-119713481D01*
X97385553Y-119704858D01*
X97397969Y-119697417D01*
X97411054Y-119691228D01*
X97424683Y-119686351D01*
X97438724Y-119682834D01*
X97453042Y-119680710D01*
X97467500Y-119680000D01*
X97762500Y-119680000D01*
X97776958Y-119680710D01*
X97776958Y-119680710D01*
G37*
D17*
X97615000Y-120000000D03*
D16*
G36*
X98746958Y-119680710D02*
G01*
X98761276Y-119682834D01*
X98775317Y-119686351D01*
X98788946Y-119691228D01*
X98802031Y-119697417D01*
X98814447Y-119704858D01*
X98826073Y-119713481D01*
X98836798Y-119723202D01*
X98846519Y-119733927D01*
X98855142Y-119745553D01*
X98862583Y-119757969D01*
X98868772Y-119771054D01*
X98873649Y-119784683D01*
X98877166Y-119798724D01*
X98879290Y-119813042D01*
X98880000Y-119827500D01*
X98880000Y-120172500D01*
X98879290Y-120186958D01*
X98877166Y-120201276D01*
X98873649Y-120215317D01*
X98868772Y-120228946D01*
X98862583Y-120242031D01*
X98855142Y-120254447D01*
X98846519Y-120266073D01*
X98836798Y-120276798D01*
X98826073Y-120286519D01*
X98814447Y-120295142D01*
X98802031Y-120302583D01*
X98788946Y-120308772D01*
X98775317Y-120313649D01*
X98761276Y-120317166D01*
X98746958Y-120319290D01*
X98732500Y-120320000D01*
X98437500Y-120320000D01*
X98423042Y-120319290D01*
X98408724Y-120317166D01*
X98394683Y-120313649D01*
X98381054Y-120308772D01*
X98367969Y-120302583D01*
X98355553Y-120295142D01*
X98343927Y-120286519D01*
X98333202Y-120276798D01*
X98323481Y-120266073D01*
X98314858Y-120254447D01*
X98307417Y-120242031D01*
X98301228Y-120228946D01*
X98296351Y-120215317D01*
X98292834Y-120201276D01*
X98290710Y-120186958D01*
X98290000Y-120172500D01*
X98290000Y-119827500D01*
X98290710Y-119813042D01*
X98292834Y-119798724D01*
X98296351Y-119784683D01*
X98301228Y-119771054D01*
X98307417Y-119757969D01*
X98314858Y-119745553D01*
X98323481Y-119733927D01*
X98333202Y-119723202D01*
X98343927Y-119713481D01*
X98355553Y-119704858D01*
X98367969Y-119697417D01*
X98381054Y-119691228D01*
X98394683Y-119686351D01*
X98408724Y-119682834D01*
X98423042Y-119680710D01*
X98437500Y-119680000D01*
X98732500Y-119680000D01*
X98746958Y-119680710D01*
X98746958Y-119680710D01*
G37*
D17*
X98585000Y-120000000D03*
D16*
G36*
X90776958Y-119680710D02*
G01*
X90791276Y-119682834D01*
X90805317Y-119686351D01*
X90818946Y-119691228D01*
X90832031Y-119697417D01*
X90844447Y-119704858D01*
X90856073Y-119713481D01*
X90866798Y-119723202D01*
X90876519Y-119733927D01*
X90885142Y-119745553D01*
X90892583Y-119757969D01*
X90898772Y-119771054D01*
X90903649Y-119784683D01*
X90907166Y-119798724D01*
X90909290Y-119813042D01*
X90910000Y-119827500D01*
X90910000Y-120172500D01*
X90909290Y-120186958D01*
X90907166Y-120201276D01*
X90903649Y-120215317D01*
X90898772Y-120228946D01*
X90892583Y-120242031D01*
X90885142Y-120254447D01*
X90876519Y-120266073D01*
X90866798Y-120276798D01*
X90856073Y-120286519D01*
X90844447Y-120295142D01*
X90832031Y-120302583D01*
X90818946Y-120308772D01*
X90805317Y-120313649D01*
X90791276Y-120317166D01*
X90776958Y-120319290D01*
X90762500Y-120320000D01*
X90467500Y-120320000D01*
X90453042Y-120319290D01*
X90438724Y-120317166D01*
X90424683Y-120313649D01*
X90411054Y-120308772D01*
X90397969Y-120302583D01*
X90385553Y-120295142D01*
X90373927Y-120286519D01*
X90363202Y-120276798D01*
X90353481Y-120266073D01*
X90344858Y-120254447D01*
X90337417Y-120242031D01*
X90331228Y-120228946D01*
X90326351Y-120215317D01*
X90322834Y-120201276D01*
X90320710Y-120186958D01*
X90320000Y-120172500D01*
X90320000Y-119827500D01*
X90320710Y-119813042D01*
X90322834Y-119798724D01*
X90326351Y-119784683D01*
X90331228Y-119771054D01*
X90337417Y-119757969D01*
X90344858Y-119745553D01*
X90353481Y-119733927D01*
X90363202Y-119723202D01*
X90373927Y-119713481D01*
X90385553Y-119704858D01*
X90397969Y-119697417D01*
X90411054Y-119691228D01*
X90424683Y-119686351D01*
X90438724Y-119682834D01*
X90453042Y-119680710D01*
X90467500Y-119680000D01*
X90762500Y-119680000D01*
X90776958Y-119680710D01*
X90776958Y-119680710D01*
G37*
D17*
X90615000Y-120000000D03*
D16*
G36*
X91746958Y-119680710D02*
G01*
X91761276Y-119682834D01*
X91775317Y-119686351D01*
X91788946Y-119691228D01*
X91802031Y-119697417D01*
X91814447Y-119704858D01*
X91826073Y-119713481D01*
X91836798Y-119723202D01*
X91846519Y-119733927D01*
X91855142Y-119745553D01*
X91862583Y-119757969D01*
X91868772Y-119771054D01*
X91873649Y-119784683D01*
X91877166Y-119798724D01*
X91879290Y-119813042D01*
X91880000Y-119827500D01*
X91880000Y-120172500D01*
X91879290Y-120186958D01*
X91877166Y-120201276D01*
X91873649Y-120215317D01*
X91868772Y-120228946D01*
X91862583Y-120242031D01*
X91855142Y-120254447D01*
X91846519Y-120266073D01*
X91836798Y-120276798D01*
X91826073Y-120286519D01*
X91814447Y-120295142D01*
X91802031Y-120302583D01*
X91788946Y-120308772D01*
X91775317Y-120313649D01*
X91761276Y-120317166D01*
X91746958Y-120319290D01*
X91732500Y-120320000D01*
X91437500Y-120320000D01*
X91423042Y-120319290D01*
X91408724Y-120317166D01*
X91394683Y-120313649D01*
X91381054Y-120308772D01*
X91367969Y-120302583D01*
X91355553Y-120295142D01*
X91343927Y-120286519D01*
X91333202Y-120276798D01*
X91323481Y-120266073D01*
X91314858Y-120254447D01*
X91307417Y-120242031D01*
X91301228Y-120228946D01*
X91296351Y-120215317D01*
X91292834Y-120201276D01*
X91290710Y-120186958D01*
X91290000Y-120172500D01*
X91290000Y-119827500D01*
X91290710Y-119813042D01*
X91292834Y-119798724D01*
X91296351Y-119784683D01*
X91301228Y-119771054D01*
X91307417Y-119757969D01*
X91314858Y-119745553D01*
X91323481Y-119733927D01*
X91333202Y-119723202D01*
X91343927Y-119713481D01*
X91355553Y-119704858D01*
X91367969Y-119697417D01*
X91381054Y-119691228D01*
X91394683Y-119686351D01*
X91408724Y-119682834D01*
X91423042Y-119680710D01*
X91437500Y-119680000D01*
X91732500Y-119680000D01*
X91746958Y-119680710D01*
X91746958Y-119680710D01*
G37*
D17*
X91585000Y-120000000D03*
D16*
G36*
X99877691Y-116051053D02*
G01*
X99898926Y-116054203D01*
X99919750Y-116059419D01*
X99939962Y-116066651D01*
X99959368Y-116075830D01*
X99977781Y-116086866D01*
X99995024Y-116099654D01*
X100010930Y-116114070D01*
X100025346Y-116129976D01*
X100038134Y-116147219D01*
X100049170Y-116165632D01*
X100058349Y-116185038D01*
X100065581Y-116205250D01*
X100070797Y-116226074D01*
X100073947Y-116247309D01*
X100075000Y-116268750D01*
X100075000Y-116706250D01*
X100073947Y-116727691D01*
X100070797Y-116748926D01*
X100065581Y-116769750D01*
X100058349Y-116789962D01*
X100049170Y-116809368D01*
X100038134Y-116827781D01*
X100025346Y-116845024D01*
X100010930Y-116860930D01*
X99995024Y-116875346D01*
X99977781Y-116888134D01*
X99959368Y-116899170D01*
X99939962Y-116908349D01*
X99919750Y-116915581D01*
X99898926Y-116920797D01*
X99877691Y-116923947D01*
X99856250Y-116925000D01*
X99343750Y-116925000D01*
X99322309Y-116923947D01*
X99301074Y-116920797D01*
X99280250Y-116915581D01*
X99260038Y-116908349D01*
X99240632Y-116899170D01*
X99222219Y-116888134D01*
X99204976Y-116875346D01*
X99189070Y-116860930D01*
X99174654Y-116845024D01*
X99161866Y-116827781D01*
X99150830Y-116809368D01*
X99141651Y-116789962D01*
X99134419Y-116769750D01*
X99129203Y-116748926D01*
X99126053Y-116727691D01*
X99125000Y-116706250D01*
X99125000Y-116268750D01*
X99126053Y-116247309D01*
X99129203Y-116226074D01*
X99134419Y-116205250D01*
X99141651Y-116185038D01*
X99150830Y-116165632D01*
X99161866Y-116147219D01*
X99174654Y-116129976D01*
X99189070Y-116114070D01*
X99204976Y-116099654D01*
X99222219Y-116086866D01*
X99240632Y-116075830D01*
X99260038Y-116066651D01*
X99280250Y-116059419D01*
X99301074Y-116054203D01*
X99322309Y-116051053D01*
X99343750Y-116050000D01*
X99856250Y-116050000D01*
X99877691Y-116051053D01*
X99877691Y-116051053D01*
G37*
D18*
X99600000Y-116487500D03*
D16*
G36*
X99877691Y-114476053D02*
G01*
X99898926Y-114479203D01*
X99919750Y-114484419D01*
X99939962Y-114491651D01*
X99959368Y-114500830D01*
X99977781Y-114511866D01*
X99995024Y-114524654D01*
X100010930Y-114539070D01*
X100025346Y-114554976D01*
X100038134Y-114572219D01*
X100049170Y-114590632D01*
X100058349Y-114610038D01*
X100065581Y-114630250D01*
X100070797Y-114651074D01*
X100073947Y-114672309D01*
X100075000Y-114693750D01*
X100075000Y-115131250D01*
X100073947Y-115152691D01*
X100070797Y-115173926D01*
X100065581Y-115194750D01*
X100058349Y-115214962D01*
X100049170Y-115234368D01*
X100038134Y-115252781D01*
X100025346Y-115270024D01*
X100010930Y-115285930D01*
X99995024Y-115300346D01*
X99977781Y-115313134D01*
X99959368Y-115324170D01*
X99939962Y-115333349D01*
X99919750Y-115340581D01*
X99898926Y-115345797D01*
X99877691Y-115348947D01*
X99856250Y-115350000D01*
X99343750Y-115350000D01*
X99322309Y-115348947D01*
X99301074Y-115345797D01*
X99280250Y-115340581D01*
X99260038Y-115333349D01*
X99240632Y-115324170D01*
X99222219Y-115313134D01*
X99204976Y-115300346D01*
X99189070Y-115285930D01*
X99174654Y-115270024D01*
X99161866Y-115252781D01*
X99150830Y-115234368D01*
X99141651Y-115214962D01*
X99134419Y-115194750D01*
X99129203Y-115173926D01*
X99126053Y-115152691D01*
X99125000Y-115131250D01*
X99125000Y-114693750D01*
X99126053Y-114672309D01*
X99129203Y-114651074D01*
X99134419Y-114630250D01*
X99141651Y-114610038D01*
X99150830Y-114590632D01*
X99161866Y-114572219D01*
X99174654Y-114554976D01*
X99189070Y-114539070D01*
X99204976Y-114524654D01*
X99222219Y-114511866D01*
X99240632Y-114500830D01*
X99260038Y-114491651D01*
X99280250Y-114484419D01*
X99301074Y-114479203D01*
X99322309Y-114476053D01*
X99343750Y-114475000D01*
X99856250Y-114475000D01*
X99877691Y-114476053D01*
X99877691Y-114476053D01*
G37*
D18*
X99600000Y-114912500D03*
D16*
G36*
X101802691Y-113026053D02*
G01*
X101823926Y-113029203D01*
X101844750Y-113034419D01*
X101864962Y-113041651D01*
X101884368Y-113050830D01*
X101902781Y-113061866D01*
X101920024Y-113074654D01*
X101935930Y-113089070D01*
X101950346Y-113104976D01*
X101963134Y-113122219D01*
X101974170Y-113140632D01*
X101983349Y-113160038D01*
X101990581Y-113180250D01*
X101995797Y-113201074D01*
X101998947Y-113222309D01*
X102000000Y-113243750D01*
X102000000Y-113756250D01*
X101998947Y-113777691D01*
X101995797Y-113798926D01*
X101990581Y-113819750D01*
X101983349Y-113839962D01*
X101974170Y-113859368D01*
X101963134Y-113877781D01*
X101950346Y-113895024D01*
X101935930Y-113910930D01*
X101920024Y-113925346D01*
X101902781Y-113938134D01*
X101884368Y-113949170D01*
X101864962Y-113958349D01*
X101844750Y-113965581D01*
X101823926Y-113970797D01*
X101802691Y-113973947D01*
X101781250Y-113975000D01*
X101343750Y-113975000D01*
X101322309Y-113973947D01*
X101301074Y-113970797D01*
X101280250Y-113965581D01*
X101260038Y-113958349D01*
X101240632Y-113949170D01*
X101222219Y-113938134D01*
X101204976Y-113925346D01*
X101189070Y-113910930D01*
X101174654Y-113895024D01*
X101161866Y-113877781D01*
X101150830Y-113859368D01*
X101141651Y-113839962D01*
X101134419Y-113819750D01*
X101129203Y-113798926D01*
X101126053Y-113777691D01*
X101125000Y-113756250D01*
X101125000Y-113243750D01*
X101126053Y-113222309D01*
X101129203Y-113201074D01*
X101134419Y-113180250D01*
X101141651Y-113160038D01*
X101150830Y-113140632D01*
X101161866Y-113122219D01*
X101174654Y-113104976D01*
X101189070Y-113089070D01*
X101204976Y-113074654D01*
X101222219Y-113061866D01*
X101240632Y-113050830D01*
X101260038Y-113041651D01*
X101280250Y-113034419D01*
X101301074Y-113029203D01*
X101322309Y-113026053D01*
X101343750Y-113025000D01*
X101781250Y-113025000D01*
X101802691Y-113026053D01*
X101802691Y-113026053D01*
G37*
D18*
X101562500Y-113500000D03*
D16*
G36*
X103377691Y-113026053D02*
G01*
X103398926Y-113029203D01*
X103419750Y-113034419D01*
X103439962Y-113041651D01*
X103459368Y-113050830D01*
X103477781Y-113061866D01*
X103495024Y-113074654D01*
X103510930Y-113089070D01*
X103525346Y-113104976D01*
X103538134Y-113122219D01*
X103549170Y-113140632D01*
X103558349Y-113160038D01*
X103565581Y-113180250D01*
X103570797Y-113201074D01*
X103573947Y-113222309D01*
X103575000Y-113243750D01*
X103575000Y-113756250D01*
X103573947Y-113777691D01*
X103570797Y-113798926D01*
X103565581Y-113819750D01*
X103558349Y-113839962D01*
X103549170Y-113859368D01*
X103538134Y-113877781D01*
X103525346Y-113895024D01*
X103510930Y-113910930D01*
X103495024Y-113925346D01*
X103477781Y-113938134D01*
X103459368Y-113949170D01*
X103439962Y-113958349D01*
X103419750Y-113965581D01*
X103398926Y-113970797D01*
X103377691Y-113973947D01*
X103356250Y-113975000D01*
X102918750Y-113975000D01*
X102897309Y-113973947D01*
X102876074Y-113970797D01*
X102855250Y-113965581D01*
X102835038Y-113958349D01*
X102815632Y-113949170D01*
X102797219Y-113938134D01*
X102779976Y-113925346D01*
X102764070Y-113910930D01*
X102749654Y-113895024D01*
X102736866Y-113877781D01*
X102725830Y-113859368D01*
X102716651Y-113839962D01*
X102709419Y-113819750D01*
X102704203Y-113798926D01*
X102701053Y-113777691D01*
X102700000Y-113756250D01*
X102700000Y-113243750D01*
X102701053Y-113222309D01*
X102704203Y-113201074D01*
X102709419Y-113180250D01*
X102716651Y-113160038D01*
X102725830Y-113140632D01*
X102736866Y-113122219D01*
X102749654Y-113104976D01*
X102764070Y-113089070D01*
X102779976Y-113074654D01*
X102797219Y-113061866D01*
X102815632Y-113050830D01*
X102835038Y-113041651D01*
X102855250Y-113034419D01*
X102876074Y-113029203D01*
X102897309Y-113026053D01*
X102918750Y-113025000D01*
X103356250Y-113025000D01*
X103377691Y-113026053D01*
X103377691Y-113026053D01*
G37*
D18*
X103137500Y-113500000D03*
D24*
X104000000Y-106600000D03*
X101200000Y-106600000D03*
X98800000Y-106600000D03*
X96000000Y-106600000D03*
D10*
X94000000Y-133000000D03*
X97000000Y-133000000D03*
X100000000Y-133000000D03*
X103000000Y-133000000D03*
X106000000Y-133000000D03*
X100000000Y-127000000D03*
X97000000Y-127000000D03*
X94000000Y-127000000D03*
X103000000Y-127000000D03*
X106000000Y-127000000D03*
X97000000Y-130000000D03*
X106000000Y-130000000D03*
X103000000Y-130000000D03*
X100000000Y-130000000D03*
X94000000Y-130000000D03*
X106000000Y-124000000D03*
X103000000Y-124000000D03*
X100000000Y-124000000D03*
X97000000Y-124000000D03*
X94000000Y-124000000D03*
X94000000Y-115000000D03*
X94000000Y-112000000D03*
X97000000Y-112000000D03*
X91000000Y-115000000D03*
X88000000Y-115000000D03*
X91000000Y-118000000D03*
X91000000Y-124000000D03*
X109000000Y-124000000D03*
X109000000Y-115000000D03*
X112000000Y-115000000D03*
X110500000Y-121000000D03*
X109750000Y-121000000D03*
X109000000Y-121000000D03*
X108250000Y-121000000D03*
X107500000Y-121000000D03*
X106750000Y-121000000D03*
X106000000Y-121000000D03*
X105250000Y-121000000D03*
X103000000Y-121000000D03*
X103750000Y-121000000D03*
X104500000Y-121000000D03*
X105250000Y-119000000D03*
X103000000Y-119000000D03*
X110500000Y-119000000D03*
X108250000Y-119000000D03*
X109000000Y-119000000D03*
X104500000Y-119000000D03*
X103750000Y-119000000D03*
X109750000Y-119000000D03*
X107500000Y-119000000D03*
X106750000Y-119000000D03*
X106000000Y-119000000D03*
X102250000Y-119000000D03*
X101400000Y-119150000D03*
X100900000Y-119650000D03*
X100400000Y-120150000D03*
X99900000Y-120650000D03*
X99400000Y-121150000D03*
X102450000Y-121450000D03*
X101950000Y-121950000D03*
X101450000Y-122450000D03*
X100950000Y-122950000D03*
X100250000Y-123250000D03*
X99500000Y-123500000D03*
X98750000Y-123500000D03*
X98000000Y-123500000D03*
X98750000Y-121250000D03*
X98000000Y-121250000D03*
X95500000Y-123100000D03*
X94750000Y-122500000D03*
X113750000Y-117500000D03*
X112250000Y-117500000D03*
X110750000Y-117500000D03*
X111500000Y-117500000D03*
X113000000Y-117500000D03*
X95050000Y-115250000D03*
X105000000Y-115200000D03*
X98700000Y-110400000D03*
X99600000Y-117300000D03*
X102100000Y-115100000D03*
X102100000Y-116100000D03*
X100700000Y-113500000D03*
X99500000Y-113500000D03*
X102100000Y-117200000D03*
X114500000Y-117500000D03*
X110750000Y-122500000D03*
X113000000Y-122500000D03*
X114500000Y-122500000D03*
X112250000Y-122500000D03*
X111500000Y-122500000D03*
X113750000Y-122500000D03*
X85500000Y-122500000D03*
X88500000Y-122500000D03*
X89250000Y-122500000D03*
X87000000Y-122500000D03*
X87750000Y-122500000D03*
X86250000Y-122500000D03*
X87000000Y-117500000D03*
X88500000Y-117500000D03*
X87750000Y-117500000D03*
X89250000Y-117500000D03*
X85500000Y-117500000D03*
X86250000Y-117500000D03*
X98600000Y-116500000D03*
X106000000Y-112000000D03*
X106000000Y-109000000D03*
X94000000Y-109000000D03*
D27*
X94550000Y-120000000D02*
X94800000Y-119750000D01*
X94550000Y-121225000D02*
X94550000Y-120000000D01*
X94050000Y-120500000D02*
X94800000Y-119750000D01*
X93325000Y-120500000D02*
X94050000Y-120500000D01*
X93325000Y-119500000D02*
X94550000Y-119500000D01*
X93325000Y-119000000D02*
X94050000Y-119000000D01*
X95550000Y-120500000D02*
X94800000Y-119750000D01*
X96275000Y-120500000D02*
X95550000Y-120500000D01*
X95550000Y-119000000D02*
X94800000Y-119750000D01*
X95550000Y-118275000D02*
X95550000Y-119000000D01*
X94550000Y-119500000D02*
X94800000Y-119750000D01*
X94550000Y-118275000D02*
X94550000Y-119500000D01*
X94050000Y-119000000D02*
X94800000Y-119750000D01*
X94050000Y-118275000D02*
X94050000Y-119000000D01*
D28*
X95050000Y-115900000D02*
X95050000Y-115250000D01*
X95050000Y-115250000D02*
X95050000Y-115250000D01*
D27*
X105812500Y-115200000D02*
X105000000Y-115200000D01*
X98700000Y-109225000D02*
X98700000Y-110400000D01*
X99600000Y-116487500D02*
X99600000Y-117300000D01*
X101050000Y-115600000D02*
X102100000Y-115600000D01*
X103150000Y-115600000D02*
X102100000Y-115600000D01*
X101562500Y-113500000D02*
X100700000Y-113500000D01*
D28*
X103775000Y-114950000D02*
X103150000Y-114950000D01*
X103900000Y-115075000D02*
X103775000Y-114950000D01*
X103900000Y-116125000D02*
X103900000Y-115075000D01*
X103150000Y-116250000D02*
X103775000Y-116250000D01*
X103775000Y-116250000D02*
X103900000Y-116125000D01*
X103150000Y-113512500D02*
X103137500Y-113500000D01*
X103150000Y-114950000D02*
X103150000Y-113512500D01*
X103137500Y-113500000D02*
X103137500Y-111800000D01*
X97615000Y-120000000D02*
X96275000Y-120000000D01*
X97615000Y-119400000D02*
X97949168Y-119065832D01*
X98487500Y-114912500D02*
X99600000Y-114912500D01*
X97949168Y-115450832D02*
X98487500Y-114912500D01*
X97615000Y-119400000D02*
X97615000Y-120000000D01*
X99637500Y-114950000D02*
X99600000Y-114912500D01*
X101050000Y-114950000D02*
X99637500Y-114950000D01*
X97949168Y-119065832D02*
X97949168Y-117550832D01*
X97949168Y-117550832D02*
X97949168Y-115450832D01*
D27*
X104900000Y-116800000D02*
X105812500Y-116800000D01*
X103749168Y-117950832D02*
X104900000Y-116800000D01*
X97949168Y-117550832D02*
X97949168Y-117950832D01*
X97949168Y-117950832D02*
X103749168Y-117950832D01*
D28*
X87100000Y-120000000D02*
X90615000Y-120000000D01*
D27*
X95050000Y-121225000D02*
X95050000Y-121650000D01*
D28*
X95050000Y-121650000D02*
X95050000Y-121850000D01*
X95600000Y-122400000D02*
X96415000Y-122400000D01*
X95050000Y-121850000D02*
X95600000Y-122400000D01*
X98285000Y-122400000D02*
X97385000Y-122400000D01*
D29*
X102100000Y-120000000D02*
X113000000Y-120000000D01*
X98285000Y-122400000D02*
X99700000Y-122400000D01*
X99700000Y-122400000D02*
X102100000Y-120000000D01*
D27*
X107387500Y-116800000D02*
X107387500Y-115200000D01*
D28*
X95050000Y-118275000D02*
X95050000Y-116870000D01*
X101300000Y-111762500D02*
X101262500Y-111800000D01*
X101300000Y-109225000D02*
X101300000Y-111762500D01*
D27*
X100650000Y-110529075D02*
X100650000Y-110150000D01*
X100650000Y-110150000D02*
X100650000Y-109225000D01*
X97450011Y-113729064D02*
X100650000Y-110529075D01*
X97450011Y-118893223D02*
X97450011Y-113729064D01*
X96843234Y-119500000D02*
X97450011Y-118893223D01*
X96275000Y-119500000D02*
X96843234Y-119500000D01*
X100000000Y-110500000D02*
X100000000Y-109225000D01*
X97000000Y-113500000D02*
X100000000Y-110500000D01*
X97000000Y-118700000D02*
X97000000Y-113500000D01*
X96275000Y-119000000D02*
X96700000Y-119000000D01*
X96700000Y-119000000D02*
X97000000Y-118700000D01*
D28*
X91585000Y-120000000D02*
X93325000Y-120000000D01*
D27*
G36*
X90036642Y-120817325D02*
G01*
X90170720Y-120888991D01*
X90316203Y-120933123D01*
X90467500Y-120948024D01*
X90762500Y-120948024D01*
X90913797Y-120933123D01*
X91059280Y-120888991D01*
X91100000Y-120867226D01*
X91140720Y-120888991D01*
X91286203Y-120933123D01*
X91437500Y-120948024D01*
X91732500Y-120948024D01*
X91883797Y-120933123D01*
X92029280Y-120888991D01*
X92163358Y-120817325D01*
X92214931Y-120775000D01*
X92648752Y-120775000D01*
X92657933Y-120792374D01*
X92723466Y-120872999D01*
X92803469Y-120939290D01*
X92894868Y-120988699D01*
X92994150Y-121019328D01*
X93097500Y-121030000D01*
X93275000Y-121030000D01*
X93275000Y-121488064D01*
X93286214Y-121601925D01*
X93330530Y-121748013D01*
X93402494Y-121882649D01*
X93499341Y-122000659D01*
X93617350Y-122097506D01*
X93751986Y-122169470D01*
X93898074Y-122213786D01*
X94050000Y-122228749D01*
X94201925Y-122213786D01*
X94342838Y-122171040D01*
X94402494Y-122282650D01*
X94499341Y-122400659D01*
X94528916Y-122424931D01*
X95025076Y-122921092D01*
X95049341Y-122950659D01*
X95167350Y-123047506D01*
X95301986Y-123119470D01*
X95448074Y-123163786D01*
X95561935Y-123175000D01*
X95561936Y-123175000D01*
X95599999Y-123178749D01*
X95638062Y-123175000D01*
X95785069Y-123175000D01*
X95836642Y-123217325D01*
X95970720Y-123288991D01*
X96116203Y-123333123D01*
X96267500Y-123348024D01*
X96562500Y-123348024D01*
X96713797Y-123333123D01*
X96859280Y-123288991D01*
X96900000Y-123267226D01*
X96940720Y-123288991D01*
X97086203Y-123333123D01*
X97237500Y-123348024D01*
X97515155Y-123348024D01*
X97810016Y-123421739D01*
X97852398Y-123444393D01*
X98064462Y-123508722D01*
X98229736Y-123525000D01*
X99644739Y-123525000D01*
X99700000Y-123530443D01*
X99755261Y-123525000D01*
X99755264Y-123525000D01*
X99920538Y-123508722D01*
X100132602Y-123444393D01*
X100328040Y-123339929D01*
X100499344Y-123199344D01*
X100534578Y-123156411D01*
X102565990Y-121125000D01*
X110811874Y-121125000D01*
X110851089Y-121157183D01*
X110959666Y-121215219D01*
X111077479Y-121250957D01*
X111200000Y-121263024D01*
X114350001Y-121263024D01*
X114350001Y-129971038D01*
X114278708Y-130769865D01*
X114074755Y-131515389D01*
X113742005Y-132213013D01*
X113290972Y-132840692D01*
X112735916Y-133378579D01*
X112094383Y-133809670D01*
X111386650Y-134120344D01*
X110630083Y-134301980D01*
X109976171Y-134350000D01*
X90028951Y-134350000D01*
X89230135Y-134278708D01*
X88484611Y-134074755D01*
X87786987Y-133742005D01*
X87159308Y-133290972D01*
X86621421Y-132735916D01*
X86448300Y-132478283D01*
X87525253Y-132478283D01*
X87887570Y-132911763D01*
X88496217Y-133267929D01*
X89162653Y-133498510D01*
X89861267Y-133594645D01*
X90565213Y-133552640D01*
X91247438Y-133374110D01*
X91881725Y-133065914D01*
X92112430Y-132911763D01*
X92474747Y-132478283D01*
X107525253Y-132478283D01*
X107887570Y-132911763D01*
X108496217Y-133267929D01*
X109162653Y-133498510D01*
X109861267Y-133594645D01*
X110565213Y-133552640D01*
X111247438Y-133374110D01*
X111881725Y-133065914D01*
X112112430Y-132911763D01*
X112474747Y-132478283D01*
X110000000Y-130003536D01*
X107525253Y-132478283D01*
X92474747Y-132478283D01*
X90000000Y-130003536D01*
X87525253Y-132478283D01*
X86448300Y-132478283D01*
X86190330Y-132094383D01*
X85879656Y-131386650D01*
X85698020Y-130630083D01*
X85650000Y-129976171D01*
X85650000Y-129861267D01*
X86405355Y-129861267D01*
X86447360Y-130565213D01*
X86625890Y-131247438D01*
X86934086Y-131881725D01*
X87088237Y-132112430D01*
X87521717Y-132474747D01*
X89996464Y-130000000D01*
X90003536Y-130000000D01*
X92478283Y-132474747D01*
X92911763Y-132112430D01*
X93267929Y-131503783D01*
X93498510Y-130837347D01*
X93594645Y-130138733D01*
X93578089Y-129861267D01*
X106405355Y-129861267D01*
X106447360Y-130565213D01*
X106625890Y-131247438D01*
X106934086Y-131881725D01*
X107088237Y-132112430D01*
X107521717Y-132474747D01*
X109996464Y-130000000D01*
X110003536Y-130000000D01*
X112478283Y-132474747D01*
X112911763Y-132112430D01*
X113267929Y-131503783D01*
X113498510Y-130837347D01*
X113594645Y-130138733D01*
X113552640Y-129434787D01*
X113374110Y-128752562D01*
X113065914Y-128118275D01*
X112911763Y-127887570D01*
X112478283Y-127525253D01*
X110003536Y-130000000D01*
X109996464Y-130000000D01*
X107521717Y-127525253D01*
X107088237Y-127887570D01*
X106732071Y-128496217D01*
X106501490Y-129162653D01*
X106405355Y-129861267D01*
X93578089Y-129861267D01*
X93552640Y-129434787D01*
X93374110Y-128752562D01*
X93065914Y-128118275D01*
X92911763Y-127887570D01*
X92478283Y-127525253D01*
X90003536Y-130000000D01*
X89996464Y-130000000D01*
X87521717Y-127525253D01*
X87088237Y-127887570D01*
X86732071Y-128496217D01*
X86501490Y-129162653D01*
X86405355Y-129861267D01*
X85650000Y-129861267D01*
X85650000Y-127521717D01*
X87525253Y-127521717D01*
X90000000Y-129996464D01*
X92474747Y-127521717D01*
X107525253Y-127521717D01*
X110000000Y-129996464D01*
X112474747Y-127521717D01*
X112112430Y-127088237D01*
X111503783Y-126732071D01*
X110837347Y-126501490D01*
X110138733Y-126405355D01*
X109434787Y-126447360D01*
X108752562Y-126625890D01*
X108118275Y-126934086D01*
X107887570Y-127088237D01*
X107525253Y-127521717D01*
X92474747Y-127521717D01*
X92112430Y-127088237D01*
X91503783Y-126732071D01*
X90837347Y-126501490D01*
X90138733Y-126405355D01*
X89434787Y-126447360D01*
X88752562Y-126625890D01*
X88118275Y-126934086D01*
X87887570Y-127088237D01*
X87525253Y-127521717D01*
X85650000Y-127521717D01*
X85650000Y-121263024D01*
X88900000Y-121263024D01*
X89022521Y-121250957D01*
X89140334Y-121215219D01*
X89248911Y-121157183D01*
X89344080Y-121079080D01*
X89422183Y-120983911D01*
X89480219Y-120875334D01*
X89510655Y-120775000D01*
X89985069Y-120775000D01*
X90036642Y-120817325D01*
X90036642Y-120817325D01*
G37*
X90036642Y-120817325D02*
X90170720Y-120888991D01*
X90316203Y-120933123D01*
X90467500Y-120948024D01*
X90762500Y-120948024D01*
X90913797Y-120933123D01*
X91059280Y-120888991D01*
X91100000Y-120867226D01*
X91140720Y-120888991D01*
X91286203Y-120933123D01*
X91437500Y-120948024D01*
X91732500Y-120948024D01*
X91883797Y-120933123D01*
X92029280Y-120888991D01*
X92163358Y-120817325D01*
X92214931Y-120775000D01*
X92648752Y-120775000D01*
X92657933Y-120792374D01*
X92723466Y-120872999D01*
X92803469Y-120939290D01*
X92894868Y-120988699D01*
X92994150Y-121019328D01*
X93097500Y-121030000D01*
X93275000Y-121030000D01*
X93275000Y-121488064D01*
X93286214Y-121601925D01*
X93330530Y-121748013D01*
X93402494Y-121882649D01*
X93499341Y-122000659D01*
X93617350Y-122097506D01*
X93751986Y-122169470D01*
X93898074Y-122213786D01*
X94050000Y-122228749D01*
X94201925Y-122213786D01*
X94342838Y-122171040D01*
X94402494Y-122282650D01*
X94499341Y-122400659D01*
X94528916Y-122424931D01*
X95025076Y-122921092D01*
X95049341Y-122950659D01*
X95167350Y-123047506D01*
X95301986Y-123119470D01*
X95448074Y-123163786D01*
X95561935Y-123175000D01*
X95561936Y-123175000D01*
X95599999Y-123178749D01*
X95638062Y-123175000D01*
X95785069Y-123175000D01*
X95836642Y-123217325D01*
X95970720Y-123288991D01*
X96116203Y-123333123D01*
X96267500Y-123348024D01*
X96562500Y-123348024D01*
X96713797Y-123333123D01*
X96859280Y-123288991D01*
X96900000Y-123267226D01*
X96940720Y-123288991D01*
X97086203Y-123333123D01*
X97237500Y-123348024D01*
X97515155Y-123348024D01*
X97810016Y-123421739D01*
X97852398Y-123444393D01*
X98064462Y-123508722D01*
X98229736Y-123525000D01*
X99644739Y-123525000D01*
X99700000Y-123530443D01*
X99755261Y-123525000D01*
X99755264Y-123525000D01*
X99920538Y-123508722D01*
X100132602Y-123444393D01*
X100328040Y-123339929D01*
X100499344Y-123199344D01*
X100534578Y-123156411D01*
X102565990Y-121125000D01*
X110811874Y-121125000D01*
X110851089Y-121157183D01*
X110959666Y-121215219D01*
X111077479Y-121250957D01*
X111200000Y-121263024D01*
X114350001Y-121263024D01*
X114350001Y-129971038D01*
X114278708Y-130769865D01*
X114074755Y-131515389D01*
X113742005Y-132213013D01*
X113290972Y-132840692D01*
X112735916Y-133378579D01*
X112094383Y-133809670D01*
X111386650Y-134120344D01*
X110630083Y-134301980D01*
X109976171Y-134350000D01*
X90028951Y-134350000D01*
X89230135Y-134278708D01*
X88484611Y-134074755D01*
X87786987Y-133742005D01*
X87159308Y-133290972D01*
X86621421Y-132735916D01*
X86448300Y-132478283D01*
X87525253Y-132478283D01*
X87887570Y-132911763D01*
X88496217Y-133267929D01*
X89162653Y-133498510D01*
X89861267Y-133594645D01*
X90565213Y-133552640D01*
X91247438Y-133374110D01*
X91881725Y-133065914D01*
X92112430Y-132911763D01*
X92474747Y-132478283D01*
X107525253Y-132478283D01*
X107887570Y-132911763D01*
X108496217Y-133267929D01*
X109162653Y-133498510D01*
X109861267Y-133594645D01*
X110565213Y-133552640D01*
X111247438Y-133374110D01*
X111881725Y-133065914D01*
X112112430Y-132911763D01*
X112474747Y-132478283D01*
X110000000Y-130003536D01*
X107525253Y-132478283D01*
X92474747Y-132478283D01*
X90000000Y-130003536D01*
X87525253Y-132478283D01*
X86448300Y-132478283D01*
X86190330Y-132094383D01*
X85879656Y-131386650D01*
X85698020Y-130630083D01*
X85650000Y-129976171D01*
X85650000Y-129861267D01*
X86405355Y-129861267D01*
X86447360Y-130565213D01*
X86625890Y-131247438D01*
X86934086Y-131881725D01*
X87088237Y-132112430D01*
X87521717Y-132474747D01*
X89996464Y-130000000D01*
X90003536Y-130000000D01*
X92478283Y-132474747D01*
X92911763Y-132112430D01*
X93267929Y-131503783D01*
X93498510Y-130837347D01*
X93594645Y-130138733D01*
X93578089Y-129861267D01*
X106405355Y-129861267D01*
X106447360Y-130565213D01*
X106625890Y-131247438D01*
X106934086Y-131881725D01*
X107088237Y-132112430D01*
X107521717Y-132474747D01*
X109996464Y-130000000D01*
X110003536Y-130000000D01*
X112478283Y-132474747D01*
X112911763Y-132112430D01*
X113267929Y-131503783D01*
X113498510Y-130837347D01*
X113594645Y-130138733D01*
X113552640Y-129434787D01*
X113374110Y-128752562D01*
X113065914Y-128118275D01*
X112911763Y-127887570D01*
X112478283Y-127525253D01*
X110003536Y-130000000D01*
X109996464Y-130000000D01*
X107521717Y-127525253D01*
X107088237Y-127887570D01*
X106732071Y-128496217D01*
X106501490Y-129162653D01*
X106405355Y-129861267D01*
X93578089Y-129861267D01*
X93552640Y-129434787D01*
X93374110Y-128752562D01*
X93065914Y-128118275D01*
X92911763Y-127887570D01*
X92478283Y-127525253D01*
X90003536Y-130000000D01*
X89996464Y-130000000D01*
X87521717Y-127525253D01*
X87088237Y-127887570D01*
X86732071Y-128496217D01*
X86501490Y-129162653D01*
X86405355Y-129861267D01*
X85650000Y-129861267D01*
X85650000Y-127521717D01*
X87525253Y-127521717D01*
X90000000Y-129996464D01*
X92474747Y-127521717D01*
X107525253Y-127521717D01*
X110000000Y-129996464D01*
X112474747Y-127521717D01*
X112112430Y-127088237D01*
X111503783Y-126732071D01*
X110837347Y-126501490D01*
X110138733Y-126405355D01*
X109434787Y-126447360D01*
X108752562Y-126625890D01*
X108118275Y-126934086D01*
X107887570Y-127088237D01*
X107525253Y-127521717D01*
X92474747Y-127521717D01*
X92112430Y-127088237D01*
X91503783Y-126732071D01*
X90837347Y-126501490D01*
X90138733Y-126405355D01*
X89434787Y-126447360D01*
X88752562Y-126625890D01*
X88118275Y-126934086D01*
X87887570Y-127088237D01*
X87525253Y-127521717D01*
X85650000Y-127521717D01*
X85650000Y-121263024D01*
X88900000Y-121263024D01*
X89022521Y-121250957D01*
X89140334Y-121215219D01*
X89248911Y-121157183D01*
X89344080Y-121079080D01*
X89422183Y-120983911D01*
X89480219Y-120875334D01*
X89510655Y-120775000D01*
X89985069Y-120775000D01*
X90036642Y-120817325D01*
G36*
X94720000Y-106452500D02*
G01*
X94815000Y-106547500D01*
X96047500Y-106547500D01*
X96047500Y-106527500D01*
X96052500Y-106527500D01*
X96052500Y-106547500D01*
X97285000Y-106547500D01*
X97380000Y-106452500D01*
X97381731Y-105650000D01*
X97518269Y-105650000D01*
X97520000Y-106452500D01*
X97615000Y-106547500D01*
X98847500Y-106547500D01*
X98847500Y-106527500D01*
X98852500Y-106527500D01*
X98852500Y-106547500D01*
X101147500Y-106547500D01*
X101147500Y-106527500D01*
X101152500Y-106527500D01*
X101152500Y-106547500D01*
X102385000Y-106547500D01*
X102480000Y-106452500D01*
X102481731Y-105650000D01*
X102618269Y-105650000D01*
X102620000Y-106452500D01*
X102715000Y-106547500D01*
X103947500Y-106547500D01*
X103947500Y-106527500D01*
X103952500Y-106527500D01*
X103952500Y-106547500D01*
X105185000Y-106547500D01*
X105280000Y-106452500D01*
X105281731Y-105650000D01*
X109971049Y-105650000D01*
X110769864Y-105721292D01*
X111515389Y-105925245D01*
X112213013Y-106257995D01*
X112840689Y-106709026D01*
X113378579Y-107264085D01*
X113809671Y-107905618D01*
X114120345Y-108613354D01*
X114301980Y-109369917D01*
X114350000Y-110023829D01*
X114350000Y-118736976D01*
X111200000Y-118736976D01*
X111077479Y-118749043D01*
X110959666Y-118784781D01*
X110851089Y-118842817D01*
X110811874Y-118875000D01*
X102155262Y-118875000D01*
X102100000Y-118869557D01*
X102044738Y-118875000D01*
X102044736Y-118875000D01*
X101879462Y-118891278D01*
X101688054Y-118949341D01*
X101667398Y-118955607D01*
X101471959Y-119060071D01*
X101393250Y-119124666D01*
X101300656Y-119200656D01*
X101265426Y-119243584D01*
X99234011Y-121275000D01*
X98229736Y-121275000D01*
X98064462Y-121291278D01*
X97852398Y-121355607D01*
X97810016Y-121378261D01*
X97515155Y-121451976D01*
X97237500Y-121451976D01*
X97086203Y-121466877D01*
X96940720Y-121511009D01*
X96900000Y-121532774D01*
X96859280Y-121511009D01*
X96713797Y-121466877D01*
X96562500Y-121451976D01*
X96325000Y-121451976D01*
X96325000Y-121030000D01*
X96502500Y-121030000D01*
X96605850Y-121019328D01*
X96705132Y-120988699D01*
X96796531Y-120939290D01*
X96876534Y-120872999D01*
X96942067Y-120792374D01*
X96951248Y-120775000D01*
X96985069Y-120775000D01*
X97036642Y-120817325D01*
X97170720Y-120888991D01*
X97316203Y-120933123D01*
X97467500Y-120948024D01*
X97762500Y-120948024D01*
X97913797Y-120933123D01*
X98059280Y-120888991D01*
X98193358Y-120817325D01*
X98310878Y-120720878D01*
X98326784Y-120701496D01*
X98487500Y-120700000D01*
X98582500Y-120605000D01*
X98582500Y-120002500D01*
X98587500Y-120002500D01*
X98587500Y-120605000D01*
X98682500Y-120700000D01*
X98880000Y-120701839D01*
X98954493Y-120694502D01*
X99026123Y-120672773D01*
X99092138Y-120637488D01*
X99150001Y-120590001D01*
X99197488Y-120532138D01*
X99232773Y-120466123D01*
X99254502Y-120394493D01*
X99261839Y-120320000D01*
X99260000Y-120097500D01*
X99165000Y-120002500D01*
X98587500Y-120002500D01*
X98582500Y-120002500D01*
X98562500Y-120002500D01*
X98562500Y-119997500D01*
X98582500Y-119997500D01*
X98582500Y-119977500D01*
X98587500Y-119977500D01*
X98587500Y-119997500D01*
X99165000Y-119997500D01*
X99260000Y-119902500D01*
X99261839Y-119680000D01*
X99254502Y-119605507D01*
X99232773Y-119533877D01*
X99197488Y-119467862D01*
X99150001Y-119409999D01*
X99092138Y-119362512D01*
X99026123Y-119327227D01*
X98954493Y-119305498D01*
X98880000Y-119298161D01*
X98688021Y-119299949D01*
X98712954Y-119217758D01*
X98724168Y-119103897D01*
X98724168Y-119103895D01*
X98727917Y-119065832D01*
X98724168Y-119027769D01*
X98724168Y-118700832D01*
X103712341Y-118700832D01*
X103749168Y-118704459D01*
X103785995Y-118700832D01*
X103786003Y-118700832D01*
X103896194Y-118689979D01*
X104037569Y-118647093D01*
X104167861Y-118577451D01*
X104282063Y-118483727D01*
X104305546Y-118455113D01*
X105055770Y-117704890D01*
X105123308Y-117760317D01*
X105269704Y-117838567D01*
X105428553Y-117886753D01*
X105593750Y-117903024D01*
X106031250Y-117903024D01*
X106196447Y-117886753D01*
X106355296Y-117838567D01*
X106501692Y-117760317D01*
X106600000Y-117679638D01*
X106698308Y-117760317D01*
X106844704Y-117838567D01*
X107003553Y-117886753D01*
X107168750Y-117903024D01*
X107606250Y-117903024D01*
X107771447Y-117886753D01*
X107930296Y-117838567D01*
X108076692Y-117760317D01*
X108205010Y-117655010D01*
X108310317Y-117526692D01*
X108388567Y-117380296D01*
X108436753Y-117221447D01*
X108453024Y-117056250D01*
X108453024Y-116543750D01*
X108436753Y-116378553D01*
X108388567Y-116219704D01*
X108310317Y-116073308D01*
X108250155Y-116000000D01*
X108310317Y-115926692D01*
X108388567Y-115780296D01*
X108436753Y-115621447D01*
X108453024Y-115456250D01*
X108453024Y-114943750D01*
X108436753Y-114778553D01*
X108388567Y-114619704D01*
X108310317Y-114473308D01*
X108205010Y-114344990D01*
X108076692Y-114239683D01*
X107930296Y-114161433D01*
X107771447Y-114113247D01*
X107606250Y-114096976D01*
X107168750Y-114096976D01*
X107003553Y-114113247D01*
X106844704Y-114161433D01*
X106698308Y-114239683D01*
X106569990Y-114344990D01*
X106495924Y-114435240D01*
X106462138Y-114407512D01*
X106396123Y-114372227D01*
X106324493Y-114350498D01*
X106250000Y-114343161D01*
X105910000Y-114345000D01*
X105815000Y-114440000D01*
X105815000Y-115197500D01*
X105835000Y-115197500D01*
X105835000Y-115202500D01*
X105815000Y-115202500D01*
X105815000Y-115222500D01*
X105810000Y-115222500D01*
X105810000Y-115202500D01*
X105090000Y-115202500D01*
X104995000Y-115297500D01*
X104993161Y-115675000D01*
X105000498Y-115749493D01*
X105022227Y-115821123D01*
X105057512Y-115887138D01*
X105060720Y-115891047D01*
X104994990Y-115944990D01*
X104910906Y-116047447D01*
X104899999Y-116046373D01*
X104863171Y-116050000D01*
X104863165Y-116050000D01*
X104767817Y-116059391D01*
X104752973Y-116060853D01*
X104675000Y-116084506D01*
X104675000Y-115113063D01*
X104678749Y-115075000D01*
X104673153Y-115018182D01*
X104663786Y-114923074D01*
X104619470Y-114776986D01*
X104591684Y-114725000D01*
X104993161Y-114725000D01*
X104995000Y-115102500D01*
X105090000Y-115197500D01*
X105810000Y-115197500D01*
X105810000Y-114440000D01*
X105715000Y-114345000D01*
X105375000Y-114343161D01*
X105300507Y-114350498D01*
X105228877Y-114372227D01*
X105162862Y-114407512D01*
X105104999Y-114454999D01*
X105057512Y-114512862D01*
X105022227Y-114578877D01*
X105000498Y-114650507D01*
X104993161Y-114725000D01*
X104591684Y-114725000D01*
X104547506Y-114642350D01*
X104450659Y-114524341D01*
X104421081Y-114500067D01*
X104349933Y-114428919D01*
X104325659Y-114399341D01*
X104207650Y-114302494D01*
X104073014Y-114230530D01*
X104060323Y-114226680D01*
X104138567Y-114080296D01*
X104186753Y-113921447D01*
X104203024Y-113756250D01*
X104203024Y-113243750D01*
X104186753Y-113078553D01*
X104138567Y-112919704D01*
X104067783Y-112787276D01*
X104106104Y-112740582D01*
X104186664Y-112589863D01*
X104220511Y-112478283D01*
X107525253Y-112478283D01*
X107887570Y-112911763D01*
X108496217Y-113267929D01*
X109162653Y-113498510D01*
X109861267Y-113594645D01*
X110565213Y-113552640D01*
X111247438Y-113374110D01*
X111881725Y-113065914D01*
X112112430Y-112911763D01*
X112474747Y-112478283D01*
X110000000Y-110003536D01*
X107525253Y-112478283D01*
X104220511Y-112478283D01*
X104236273Y-112426325D01*
X104253024Y-112256250D01*
X104253024Y-111343750D01*
X104236273Y-111173675D01*
X104186664Y-111010137D01*
X104106104Y-110859418D01*
X103997687Y-110727313D01*
X103865582Y-110618896D01*
X103714863Y-110538336D01*
X103551325Y-110488727D01*
X103381250Y-110471976D01*
X102893750Y-110471976D01*
X102723675Y-110488727D01*
X102560137Y-110538336D01*
X102409418Y-110618896D01*
X102277313Y-110727313D01*
X102200000Y-110821518D01*
X102122687Y-110727313D01*
X102075000Y-110688177D01*
X102075000Y-110150098D01*
X102080219Y-110140334D01*
X102115957Y-110022521D01*
X102128024Y-109900000D01*
X102128024Y-109861267D01*
X106405355Y-109861267D01*
X106447360Y-110565213D01*
X106625890Y-111247438D01*
X106934086Y-111881725D01*
X107088237Y-112112430D01*
X107521717Y-112474747D01*
X109996464Y-110000000D01*
X110003536Y-110000000D01*
X112478283Y-112474747D01*
X112911763Y-112112430D01*
X113267929Y-111503783D01*
X113498510Y-110837347D01*
X113594645Y-110138733D01*
X113552640Y-109434787D01*
X113374110Y-108752562D01*
X113065914Y-108118275D01*
X112911763Y-107887570D01*
X112478283Y-107525253D01*
X110003536Y-110000000D01*
X109996464Y-110000000D01*
X107521717Y-107525253D01*
X107088237Y-107887570D01*
X106732071Y-108496217D01*
X106501490Y-109162653D01*
X106405355Y-109861267D01*
X102128024Y-109861267D01*
X102128024Y-109597656D01*
X102176860Y-109587942D01*
X102212862Y-109617488D01*
X102278877Y-109652773D01*
X102350507Y-109674502D01*
X102425000Y-109681839D01*
X103002500Y-109680000D01*
X103097500Y-109585000D01*
X103097500Y-108802500D01*
X103102500Y-108802500D01*
X103102500Y-109585000D01*
X103197500Y-109680000D01*
X103775000Y-109681839D01*
X103849493Y-109674502D01*
X103921123Y-109652773D01*
X103987138Y-109617488D01*
X104045001Y-109570001D01*
X104092488Y-109512138D01*
X104127773Y-109446123D01*
X104149502Y-109374493D01*
X104156839Y-109300000D01*
X104155000Y-108897500D01*
X104060000Y-108802500D01*
X103102500Y-108802500D01*
X103097500Y-108802500D01*
X103077500Y-108802500D01*
X103077500Y-108797500D01*
X103097500Y-108797500D01*
X103097500Y-108015000D01*
X103102500Y-108015000D01*
X103102500Y-108797500D01*
X104060000Y-108797500D01*
X104155000Y-108702500D01*
X104156839Y-108300000D01*
X104149502Y-108225507D01*
X104127773Y-108153877D01*
X104092488Y-108087862D01*
X104045001Y-108029999D01*
X103987138Y-107982512D01*
X103921123Y-107947227D01*
X103849493Y-107925498D01*
X103775000Y-107918161D01*
X103197500Y-107920000D01*
X103102500Y-108015000D01*
X103097500Y-108015000D01*
X103002500Y-107920000D01*
X102525262Y-107918480D01*
X102438152Y-107860275D01*
X102319758Y-107811235D01*
X102370001Y-107770001D01*
X102417488Y-107712138D01*
X102452773Y-107646123D01*
X102474502Y-107574493D01*
X102481839Y-107500000D01*
X102618161Y-107500000D01*
X102625498Y-107574493D01*
X102647227Y-107646123D01*
X102682512Y-107712138D01*
X102729999Y-107770001D01*
X102787862Y-107817488D01*
X102853877Y-107852773D01*
X102925507Y-107874502D01*
X103000000Y-107881839D01*
X103852500Y-107880000D01*
X103947500Y-107785000D01*
X103947500Y-106552500D01*
X103952500Y-106552500D01*
X103952500Y-107785000D01*
X104047500Y-107880000D01*
X104900000Y-107881839D01*
X104974493Y-107874502D01*
X105046123Y-107852773D01*
X105112138Y-107817488D01*
X105170001Y-107770001D01*
X105217488Y-107712138D01*
X105252773Y-107646123D01*
X105274502Y-107574493D01*
X105279700Y-107521717D01*
X107525253Y-107521717D01*
X110000000Y-109996464D01*
X112474747Y-107521717D01*
X112112430Y-107088237D01*
X111503783Y-106732071D01*
X110837347Y-106501490D01*
X110138733Y-106405355D01*
X109434787Y-106447360D01*
X108752562Y-106625890D01*
X108118275Y-106934086D01*
X107887570Y-107088237D01*
X107525253Y-107521717D01*
X105279700Y-107521717D01*
X105281839Y-107500000D01*
X105280000Y-106647500D01*
X105185000Y-106552500D01*
X103952500Y-106552500D01*
X103947500Y-106552500D01*
X102715000Y-106552500D01*
X102620000Y-106647500D01*
X102618161Y-107500000D01*
X102481839Y-107500000D01*
X102480000Y-106647500D01*
X102385000Y-106552500D01*
X101152500Y-106552500D01*
X101152500Y-107785000D01*
X101247500Y-107880000D01*
X101531411Y-107880612D01*
X101469506Y-107921976D01*
X101100000Y-107921976D01*
X100977479Y-107934043D01*
X100975000Y-107934795D01*
X100972521Y-107934043D01*
X100850000Y-107921976D01*
X100450000Y-107921976D01*
X100327479Y-107934043D01*
X100325000Y-107934795D01*
X100322521Y-107934043D01*
X100200000Y-107921976D01*
X99800000Y-107921976D01*
X99677479Y-107934043D01*
X99675000Y-107934795D01*
X99672521Y-107934043D01*
X99550000Y-107921976D01*
X99150000Y-107921976D01*
X99027479Y-107934043D01*
X98909666Y-107969781D01*
X98801089Y-108027817D01*
X98720762Y-108093740D01*
X98718495Y-108090347D01*
X98589653Y-107961505D01*
X98468589Y-107880612D01*
X98752500Y-107880000D01*
X98847500Y-107785000D01*
X98847500Y-106552500D01*
X98852500Y-106552500D01*
X98852500Y-107785000D01*
X98947500Y-107880000D01*
X99800000Y-107881839D01*
X99874493Y-107874502D01*
X99946123Y-107852773D01*
X100000000Y-107823976D01*
X100053877Y-107852773D01*
X100125507Y-107874502D01*
X100200000Y-107881839D01*
X101052500Y-107880000D01*
X101147500Y-107785000D01*
X101147500Y-106552500D01*
X98852500Y-106552500D01*
X98847500Y-106552500D01*
X97615000Y-106552500D01*
X97520000Y-106647500D01*
X97518161Y-107500000D01*
X97525498Y-107574493D01*
X97547227Y-107646123D01*
X97582512Y-107712138D01*
X97629999Y-107770001D01*
X97680242Y-107811235D01*
X97561848Y-107860275D01*
X97474738Y-107918480D01*
X96997500Y-107920000D01*
X96902500Y-108015000D01*
X96902500Y-108797500D01*
X96922500Y-108797500D01*
X96922500Y-108802500D01*
X96902500Y-108802500D01*
X96902500Y-109585000D01*
X96997500Y-109680000D01*
X97575000Y-109681839D01*
X97649493Y-109674502D01*
X97721123Y-109652773D01*
X97787138Y-109617488D01*
X97823140Y-109587942D01*
X97908895Y-109605000D01*
X98091105Y-109605000D01*
X98119118Y-109599428D01*
X98118161Y-109900000D01*
X98125498Y-109974493D01*
X98147227Y-110046123D01*
X98182512Y-110112138D01*
X98229999Y-110170001D01*
X98287862Y-110217488D01*
X98353877Y-110252773D01*
X98425507Y-110274502D01*
X98500000Y-110281839D01*
X98602500Y-110280000D01*
X98630419Y-110252081D01*
X98705920Y-110344080D01*
X98801089Y-110422183D01*
X98909666Y-110480219D01*
X98947611Y-110491729D01*
X96495715Y-112943626D01*
X96467106Y-112967105D01*
X96443627Y-112995714D01*
X96443624Y-112995717D01*
X96419592Y-113025000D01*
X96373382Y-113081307D01*
X96344971Y-113134461D01*
X96303739Y-113211600D01*
X96260853Y-113352975D01*
X96246373Y-113500000D01*
X96250001Y-113536837D01*
X96250000Y-118225000D01*
X96080000Y-118225000D01*
X96080000Y-118047500D01*
X96069328Y-117944150D01*
X96038699Y-117844868D01*
X95989290Y-117753469D01*
X95922999Y-117673466D01*
X95842374Y-117607933D01*
X95825000Y-117598752D01*
X95825000Y-117499931D01*
X95867325Y-117448358D01*
X95938991Y-117314280D01*
X95983123Y-117168797D01*
X95998024Y-117017500D01*
X95998024Y-116722500D01*
X95983123Y-116571203D01*
X95938991Y-116425720D01*
X95867325Y-116291642D01*
X95770878Y-116174122D01*
X95751496Y-116158216D01*
X95750000Y-115997500D01*
X95655000Y-115902500D01*
X95052500Y-115902500D01*
X95052500Y-115922500D01*
X95047500Y-115922500D01*
X95047500Y-115902500D01*
X94445000Y-115902500D01*
X94350000Y-115997500D01*
X94348504Y-116158216D01*
X94329122Y-116174122D01*
X94232675Y-116291642D01*
X94161009Y-116425720D01*
X94116877Y-116571203D01*
X94101976Y-116722500D01*
X94101976Y-117017500D01*
X94116877Y-117168797D01*
X94161009Y-117314280D01*
X94232675Y-117448358D01*
X94275001Y-117499931D01*
X94275001Y-117572329D01*
X94250513Y-117559388D01*
X94150947Y-117529697D01*
X94135379Y-117526922D01*
X94052500Y-117615007D01*
X94052500Y-117873396D01*
X94047500Y-117889603D01*
X94047500Y-117615007D01*
X93964621Y-117526922D01*
X93949053Y-117529697D01*
X93849487Y-117559388D01*
X93757626Y-117607933D01*
X93677001Y-117673466D01*
X93610710Y-117753469D01*
X93561301Y-117844868D01*
X93530672Y-117944150D01*
X93520000Y-118047500D01*
X93520000Y-118272500D01*
X94072500Y-118272500D01*
X94072500Y-118277500D01*
X93520000Y-118277500D01*
X93520000Y-118470000D01*
X93327500Y-118470000D01*
X93327500Y-119022500D01*
X93322500Y-119022500D01*
X93322500Y-118470000D01*
X93097500Y-118470000D01*
X92994150Y-118480672D01*
X92894868Y-118511301D01*
X92803469Y-118560710D01*
X92723466Y-118627001D01*
X92657933Y-118707626D01*
X92609388Y-118799487D01*
X92579697Y-118899053D01*
X92576922Y-118914621D01*
X92665007Y-118997500D01*
X92939603Y-118997500D01*
X92923396Y-119002500D01*
X92665007Y-119002500D01*
X92576922Y-119085379D01*
X92579697Y-119100947D01*
X92609388Y-119200513D01*
X92622328Y-119225000D01*
X92214931Y-119225000D01*
X92163358Y-119182675D01*
X92029280Y-119111009D01*
X91883797Y-119066877D01*
X91732500Y-119051976D01*
X91437500Y-119051976D01*
X91286203Y-119066877D01*
X91140720Y-119111009D01*
X91100000Y-119132774D01*
X91059280Y-119111009D01*
X90913797Y-119066877D01*
X90762500Y-119051976D01*
X90467500Y-119051976D01*
X90316203Y-119066877D01*
X90170720Y-119111009D01*
X90036642Y-119182675D01*
X89985069Y-119225000D01*
X89510655Y-119225000D01*
X89480219Y-119124666D01*
X89422183Y-119016089D01*
X89344080Y-118920920D01*
X89248911Y-118842817D01*
X89140334Y-118784781D01*
X89022521Y-118749043D01*
X88900000Y-118736976D01*
X85650000Y-118736976D01*
X85650000Y-115605000D01*
X94348161Y-115605000D01*
X94350000Y-115802500D01*
X94445000Y-115897500D01*
X95047500Y-115897500D01*
X95047500Y-115320000D01*
X95052500Y-115320000D01*
X95052500Y-115897500D01*
X95655000Y-115897500D01*
X95750000Y-115802500D01*
X95751839Y-115605000D01*
X95744502Y-115530507D01*
X95722773Y-115458877D01*
X95687488Y-115392862D01*
X95640001Y-115334999D01*
X95582138Y-115287512D01*
X95516123Y-115252227D01*
X95444493Y-115230498D01*
X95370000Y-115223161D01*
X95147500Y-115225000D01*
X95052500Y-115320000D01*
X95047500Y-115320000D01*
X94952500Y-115225000D01*
X94730000Y-115223161D01*
X94655507Y-115230498D01*
X94583877Y-115252227D01*
X94517862Y-115287512D01*
X94459999Y-115334999D01*
X94412512Y-115392862D01*
X94377227Y-115458877D01*
X94355498Y-115530507D01*
X94348161Y-115605000D01*
X85650000Y-115605000D01*
X85650000Y-112478283D01*
X87525253Y-112478283D01*
X87887570Y-112911763D01*
X88496217Y-113267929D01*
X89162653Y-113498510D01*
X89861267Y-113594645D01*
X90565213Y-113552640D01*
X91247438Y-113374110D01*
X91881725Y-113065914D01*
X92112430Y-112911763D01*
X92474747Y-112478283D01*
X90000000Y-110003536D01*
X87525253Y-112478283D01*
X85650000Y-112478283D01*
X85650000Y-110028951D01*
X85664965Y-109861267D01*
X86405355Y-109861267D01*
X86447360Y-110565213D01*
X86625890Y-111247438D01*
X86934086Y-111881725D01*
X87088237Y-112112430D01*
X87521717Y-112474747D01*
X89996464Y-110000000D01*
X90003536Y-110000000D01*
X92478283Y-112474747D01*
X92911763Y-112112430D01*
X93267929Y-111503783D01*
X93498510Y-110837347D01*
X93594645Y-110138733D01*
X93552640Y-109434787D01*
X93517368Y-109300000D01*
X95843161Y-109300000D01*
X95850498Y-109374493D01*
X95872227Y-109446123D01*
X95907512Y-109512138D01*
X95954999Y-109570001D01*
X96012862Y-109617488D01*
X96078877Y-109652773D01*
X96150507Y-109674502D01*
X96225000Y-109681839D01*
X96802500Y-109680000D01*
X96897500Y-109585000D01*
X96897500Y-108802500D01*
X95940000Y-108802500D01*
X95845000Y-108897500D01*
X95843161Y-109300000D01*
X93517368Y-109300000D01*
X93374110Y-108752562D01*
X93154214Y-108300000D01*
X95843161Y-108300000D01*
X95845000Y-108702500D01*
X95940000Y-108797500D01*
X96897500Y-108797500D01*
X96897500Y-108015000D01*
X96802500Y-107920000D01*
X96225000Y-107918161D01*
X96150507Y-107925498D01*
X96078877Y-107947227D01*
X96012862Y-107982512D01*
X95954999Y-108029999D01*
X95907512Y-108087862D01*
X95872227Y-108153877D01*
X95850498Y-108225507D01*
X95843161Y-108300000D01*
X93154214Y-108300000D01*
X93065914Y-108118275D01*
X92911763Y-107887570D01*
X92478283Y-107525253D01*
X90003536Y-110000000D01*
X89996464Y-110000000D01*
X87521717Y-107525253D01*
X87088237Y-107887570D01*
X86732071Y-108496217D01*
X86501490Y-109162653D01*
X86405355Y-109861267D01*
X85664965Y-109861267D01*
X85721292Y-109230136D01*
X85925245Y-108484611D01*
X86257995Y-107786987D01*
X86448610Y-107521717D01*
X87525253Y-107521717D01*
X90000000Y-109996464D01*
X92474747Y-107521717D01*
X92456596Y-107500000D01*
X94718161Y-107500000D01*
X94725498Y-107574493D01*
X94747227Y-107646123D01*
X94782512Y-107712138D01*
X94829999Y-107770001D01*
X94887862Y-107817488D01*
X94953877Y-107852773D01*
X95025507Y-107874502D01*
X95100000Y-107881839D01*
X95952500Y-107880000D01*
X96047500Y-107785000D01*
X96047500Y-106552500D01*
X96052500Y-106552500D01*
X96052500Y-107785000D01*
X96147500Y-107880000D01*
X97000000Y-107881839D01*
X97074493Y-107874502D01*
X97146123Y-107852773D01*
X97212138Y-107817488D01*
X97270001Y-107770001D01*
X97317488Y-107712138D01*
X97352773Y-107646123D01*
X97374502Y-107574493D01*
X97381839Y-107500000D01*
X97380000Y-106647500D01*
X97285000Y-106552500D01*
X96052500Y-106552500D01*
X96047500Y-106552500D01*
X94815000Y-106552500D01*
X94720000Y-106647500D01*
X94718161Y-107500000D01*
X92456596Y-107500000D01*
X92112430Y-107088237D01*
X91503783Y-106732071D01*
X90837347Y-106501490D01*
X90138733Y-106405355D01*
X89434787Y-106447360D01*
X88752562Y-106625890D01*
X88118275Y-106934086D01*
X87887570Y-107088237D01*
X87525253Y-107521717D01*
X86448610Y-107521717D01*
X86709026Y-107159311D01*
X87264085Y-106621421D01*
X87905618Y-106190329D01*
X88613354Y-105879655D01*
X89369917Y-105698020D01*
X90023829Y-105650000D01*
X94718269Y-105650000D01*
X94720000Y-106452500D01*
X94720000Y-106452500D01*
G37*
X94720000Y-106452500D02*
X94815000Y-106547500D01*
X96047500Y-106547500D01*
X96047500Y-106527500D01*
X96052500Y-106527500D01*
X96052500Y-106547500D01*
X97285000Y-106547500D01*
X97380000Y-106452500D01*
X97381731Y-105650000D01*
X97518269Y-105650000D01*
X97520000Y-106452500D01*
X97615000Y-106547500D01*
X98847500Y-106547500D01*
X98847500Y-106527500D01*
X98852500Y-106527500D01*
X98852500Y-106547500D01*
X101147500Y-106547500D01*
X101147500Y-106527500D01*
X101152500Y-106527500D01*
X101152500Y-106547500D01*
X102385000Y-106547500D01*
X102480000Y-106452500D01*
X102481731Y-105650000D01*
X102618269Y-105650000D01*
X102620000Y-106452500D01*
X102715000Y-106547500D01*
X103947500Y-106547500D01*
X103947500Y-106527500D01*
X103952500Y-106527500D01*
X103952500Y-106547500D01*
X105185000Y-106547500D01*
X105280000Y-106452500D01*
X105281731Y-105650000D01*
X109971049Y-105650000D01*
X110769864Y-105721292D01*
X111515389Y-105925245D01*
X112213013Y-106257995D01*
X112840689Y-106709026D01*
X113378579Y-107264085D01*
X113809671Y-107905618D01*
X114120345Y-108613354D01*
X114301980Y-109369917D01*
X114350000Y-110023829D01*
X114350000Y-118736976D01*
X111200000Y-118736976D01*
X111077479Y-118749043D01*
X110959666Y-118784781D01*
X110851089Y-118842817D01*
X110811874Y-118875000D01*
X102155262Y-118875000D01*
X102100000Y-118869557D01*
X102044738Y-118875000D01*
X102044736Y-118875000D01*
X101879462Y-118891278D01*
X101688054Y-118949341D01*
X101667398Y-118955607D01*
X101471959Y-119060071D01*
X101393250Y-119124666D01*
X101300656Y-119200656D01*
X101265426Y-119243584D01*
X99234011Y-121275000D01*
X98229736Y-121275000D01*
X98064462Y-121291278D01*
X97852398Y-121355607D01*
X97810016Y-121378261D01*
X97515155Y-121451976D01*
X97237500Y-121451976D01*
X97086203Y-121466877D01*
X96940720Y-121511009D01*
X96900000Y-121532774D01*
X96859280Y-121511009D01*
X96713797Y-121466877D01*
X96562500Y-121451976D01*
X96325000Y-121451976D01*
X96325000Y-121030000D01*
X96502500Y-121030000D01*
X96605850Y-121019328D01*
X96705132Y-120988699D01*
X96796531Y-120939290D01*
X96876534Y-120872999D01*
X96942067Y-120792374D01*
X96951248Y-120775000D01*
X96985069Y-120775000D01*
X97036642Y-120817325D01*
X97170720Y-120888991D01*
X97316203Y-120933123D01*
X97467500Y-120948024D01*
X97762500Y-120948024D01*
X97913797Y-120933123D01*
X98059280Y-120888991D01*
X98193358Y-120817325D01*
X98310878Y-120720878D01*
X98326784Y-120701496D01*
X98487500Y-120700000D01*
X98582500Y-120605000D01*
X98582500Y-120002500D01*
X98587500Y-120002500D01*
X98587500Y-120605000D01*
X98682500Y-120700000D01*
X98880000Y-120701839D01*
X98954493Y-120694502D01*
X99026123Y-120672773D01*
X99092138Y-120637488D01*
X99150001Y-120590001D01*
X99197488Y-120532138D01*
X99232773Y-120466123D01*
X99254502Y-120394493D01*
X99261839Y-120320000D01*
X99260000Y-120097500D01*
X99165000Y-120002500D01*
X98587500Y-120002500D01*
X98582500Y-120002500D01*
X98562500Y-120002500D01*
X98562500Y-119997500D01*
X98582500Y-119997500D01*
X98582500Y-119977500D01*
X98587500Y-119977500D01*
X98587500Y-119997500D01*
X99165000Y-119997500D01*
X99260000Y-119902500D01*
X99261839Y-119680000D01*
X99254502Y-119605507D01*
X99232773Y-119533877D01*
X99197488Y-119467862D01*
X99150001Y-119409999D01*
X99092138Y-119362512D01*
X99026123Y-119327227D01*
X98954493Y-119305498D01*
X98880000Y-119298161D01*
X98688021Y-119299949D01*
X98712954Y-119217758D01*
X98724168Y-119103897D01*
X98724168Y-119103895D01*
X98727917Y-119065832D01*
X98724168Y-119027769D01*
X98724168Y-118700832D01*
X103712341Y-118700832D01*
X103749168Y-118704459D01*
X103785995Y-118700832D01*
X103786003Y-118700832D01*
X103896194Y-118689979D01*
X104037569Y-118647093D01*
X104167861Y-118577451D01*
X104282063Y-118483727D01*
X104305546Y-118455113D01*
X105055770Y-117704890D01*
X105123308Y-117760317D01*
X105269704Y-117838567D01*
X105428553Y-117886753D01*
X105593750Y-117903024D01*
X106031250Y-117903024D01*
X106196447Y-117886753D01*
X106355296Y-117838567D01*
X106501692Y-117760317D01*
X106600000Y-117679638D01*
X106698308Y-117760317D01*
X106844704Y-117838567D01*
X107003553Y-117886753D01*
X107168750Y-117903024D01*
X107606250Y-117903024D01*
X107771447Y-117886753D01*
X107930296Y-117838567D01*
X108076692Y-117760317D01*
X108205010Y-117655010D01*
X108310317Y-117526692D01*
X108388567Y-117380296D01*
X108436753Y-117221447D01*
X108453024Y-117056250D01*
X108453024Y-116543750D01*
X108436753Y-116378553D01*
X108388567Y-116219704D01*
X108310317Y-116073308D01*
X108250155Y-116000000D01*
X108310317Y-115926692D01*
X108388567Y-115780296D01*
X108436753Y-115621447D01*
X108453024Y-115456250D01*
X108453024Y-114943750D01*
X108436753Y-114778553D01*
X108388567Y-114619704D01*
X108310317Y-114473308D01*
X108205010Y-114344990D01*
X108076692Y-114239683D01*
X107930296Y-114161433D01*
X107771447Y-114113247D01*
X107606250Y-114096976D01*
X107168750Y-114096976D01*
X107003553Y-114113247D01*
X106844704Y-114161433D01*
X106698308Y-114239683D01*
X106569990Y-114344990D01*
X106495924Y-114435240D01*
X106462138Y-114407512D01*
X106396123Y-114372227D01*
X106324493Y-114350498D01*
X106250000Y-114343161D01*
X105910000Y-114345000D01*
X105815000Y-114440000D01*
X105815000Y-115197500D01*
X105835000Y-115197500D01*
X105835000Y-115202500D01*
X105815000Y-115202500D01*
X105815000Y-115222500D01*
X105810000Y-115222500D01*
X105810000Y-115202500D01*
X105090000Y-115202500D01*
X104995000Y-115297500D01*
X104993161Y-115675000D01*
X105000498Y-115749493D01*
X105022227Y-115821123D01*
X105057512Y-115887138D01*
X105060720Y-115891047D01*
X104994990Y-115944990D01*
X104910906Y-116047447D01*
X104899999Y-116046373D01*
X104863171Y-116050000D01*
X104863165Y-116050000D01*
X104767817Y-116059391D01*
X104752973Y-116060853D01*
X104675000Y-116084506D01*
X104675000Y-115113063D01*
X104678749Y-115075000D01*
X104673153Y-115018182D01*
X104663786Y-114923074D01*
X104619470Y-114776986D01*
X104591684Y-114725000D01*
X104993161Y-114725000D01*
X104995000Y-115102500D01*
X105090000Y-115197500D01*
X105810000Y-115197500D01*
X105810000Y-114440000D01*
X105715000Y-114345000D01*
X105375000Y-114343161D01*
X105300507Y-114350498D01*
X105228877Y-114372227D01*
X105162862Y-114407512D01*
X105104999Y-114454999D01*
X105057512Y-114512862D01*
X105022227Y-114578877D01*
X105000498Y-114650507D01*
X104993161Y-114725000D01*
X104591684Y-114725000D01*
X104547506Y-114642350D01*
X104450659Y-114524341D01*
X104421081Y-114500067D01*
X104349933Y-114428919D01*
X104325659Y-114399341D01*
X104207650Y-114302494D01*
X104073014Y-114230530D01*
X104060323Y-114226680D01*
X104138567Y-114080296D01*
X104186753Y-113921447D01*
X104203024Y-113756250D01*
X104203024Y-113243750D01*
X104186753Y-113078553D01*
X104138567Y-112919704D01*
X104067783Y-112787276D01*
X104106104Y-112740582D01*
X104186664Y-112589863D01*
X104220511Y-112478283D01*
X107525253Y-112478283D01*
X107887570Y-112911763D01*
X108496217Y-113267929D01*
X109162653Y-113498510D01*
X109861267Y-113594645D01*
X110565213Y-113552640D01*
X111247438Y-113374110D01*
X111881725Y-113065914D01*
X112112430Y-112911763D01*
X112474747Y-112478283D01*
X110000000Y-110003536D01*
X107525253Y-112478283D01*
X104220511Y-112478283D01*
X104236273Y-112426325D01*
X104253024Y-112256250D01*
X104253024Y-111343750D01*
X104236273Y-111173675D01*
X104186664Y-111010137D01*
X104106104Y-110859418D01*
X103997687Y-110727313D01*
X103865582Y-110618896D01*
X103714863Y-110538336D01*
X103551325Y-110488727D01*
X103381250Y-110471976D01*
X102893750Y-110471976D01*
X102723675Y-110488727D01*
X102560137Y-110538336D01*
X102409418Y-110618896D01*
X102277313Y-110727313D01*
X102200000Y-110821518D01*
X102122687Y-110727313D01*
X102075000Y-110688177D01*
X102075000Y-110150098D01*
X102080219Y-110140334D01*
X102115957Y-110022521D01*
X102128024Y-109900000D01*
X102128024Y-109861267D01*
X106405355Y-109861267D01*
X106447360Y-110565213D01*
X106625890Y-111247438D01*
X106934086Y-111881725D01*
X107088237Y-112112430D01*
X107521717Y-112474747D01*
X109996464Y-110000000D01*
X110003536Y-110000000D01*
X112478283Y-112474747D01*
X112911763Y-112112430D01*
X113267929Y-111503783D01*
X113498510Y-110837347D01*
X113594645Y-110138733D01*
X113552640Y-109434787D01*
X113374110Y-108752562D01*
X113065914Y-108118275D01*
X112911763Y-107887570D01*
X112478283Y-107525253D01*
X110003536Y-110000000D01*
X109996464Y-110000000D01*
X107521717Y-107525253D01*
X107088237Y-107887570D01*
X106732071Y-108496217D01*
X106501490Y-109162653D01*
X106405355Y-109861267D01*
X102128024Y-109861267D01*
X102128024Y-109597656D01*
X102176860Y-109587942D01*
X102212862Y-109617488D01*
X102278877Y-109652773D01*
X102350507Y-109674502D01*
X102425000Y-109681839D01*
X103002500Y-109680000D01*
X103097500Y-109585000D01*
X103097500Y-108802500D01*
X103102500Y-108802500D01*
X103102500Y-109585000D01*
X103197500Y-109680000D01*
X103775000Y-109681839D01*
X103849493Y-109674502D01*
X103921123Y-109652773D01*
X103987138Y-109617488D01*
X104045001Y-109570001D01*
X104092488Y-109512138D01*
X104127773Y-109446123D01*
X104149502Y-109374493D01*
X104156839Y-109300000D01*
X104155000Y-108897500D01*
X104060000Y-108802500D01*
X103102500Y-108802500D01*
X103097500Y-108802500D01*
X103077500Y-108802500D01*
X103077500Y-108797500D01*
X103097500Y-108797500D01*
X103097500Y-108015000D01*
X103102500Y-108015000D01*
X103102500Y-108797500D01*
X104060000Y-108797500D01*
X104155000Y-108702500D01*
X104156839Y-108300000D01*
X104149502Y-108225507D01*
X104127773Y-108153877D01*
X104092488Y-108087862D01*
X104045001Y-108029999D01*
X103987138Y-107982512D01*
X103921123Y-107947227D01*
X103849493Y-107925498D01*
X103775000Y-107918161D01*
X103197500Y-107920000D01*
X103102500Y-108015000D01*
X103097500Y-108015000D01*
X103002500Y-107920000D01*
X102525262Y-107918480D01*
X102438152Y-107860275D01*
X102319758Y-107811235D01*
X102370001Y-107770001D01*
X102417488Y-107712138D01*
X102452773Y-107646123D01*
X102474502Y-107574493D01*
X102481839Y-107500000D01*
X102618161Y-107500000D01*
X102625498Y-107574493D01*
X102647227Y-107646123D01*
X102682512Y-107712138D01*
X102729999Y-107770001D01*
X102787862Y-107817488D01*
X102853877Y-107852773D01*
X102925507Y-107874502D01*
X103000000Y-107881839D01*
X103852500Y-107880000D01*
X103947500Y-107785000D01*
X103947500Y-106552500D01*
X103952500Y-106552500D01*
X103952500Y-107785000D01*
X104047500Y-107880000D01*
X104900000Y-107881839D01*
X104974493Y-107874502D01*
X105046123Y-107852773D01*
X105112138Y-107817488D01*
X105170001Y-107770001D01*
X105217488Y-107712138D01*
X105252773Y-107646123D01*
X105274502Y-107574493D01*
X105279700Y-107521717D01*
X107525253Y-107521717D01*
X110000000Y-109996464D01*
X112474747Y-107521717D01*
X112112430Y-107088237D01*
X111503783Y-106732071D01*
X110837347Y-106501490D01*
X110138733Y-106405355D01*
X109434787Y-106447360D01*
X108752562Y-106625890D01*
X108118275Y-106934086D01*
X107887570Y-107088237D01*
X107525253Y-107521717D01*
X105279700Y-107521717D01*
X105281839Y-107500000D01*
X105280000Y-106647500D01*
X105185000Y-106552500D01*
X103952500Y-106552500D01*
X103947500Y-106552500D01*
X102715000Y-106552500D01*
X102620000Y-106647500D01*
X102618161Y-107500000D01*
X102481839Y-107500000D01*
X102480000Y-106647500D01*
X102385000Y-106552500D01*
X101152500Y-106552500D01*
X101152500Y-107785000D01*
X101247500Y-107880000D01*
X101531411Y-107880612D01*
X101469506Y-107921976D01*
X101100000Y-107921976D01*
X100977479Y-107934043D01*
X100975000Y-107934795D01*
X100972521Y-107934043D01*
X100850000Y-107921976D01*
X100450000Y-107921976D01*
X100327479Y-107934043D01*
X100325000Y-107934795D01*
X100322521Y-107934043D01*
X100200000Y-107921976D01*
X99800000Y-107921976D01*
X99677479Y-107934043D01*
X99675000Y-107934795D01*
X99672521Y-107934043D01*
X99550000Y-107921976D01*
X99150000Y-107921976D01*
X99027479Y-107934043D01*
X98909666Y-107969781D01*
X98801089Y-108027817D01*
X98720762Y-108093740D01*
X98718495Y-108090347D01*
X98589653Y-107961505D01*
X98468589Y-107880612D01*
X98752500Y-107880000D01*
X98847500Y-107785000D01*
X98847500Y-106552500D01*
X98852500Y-106552500D01*
X98852500Y-107785000D01*
X98947500Y-107880000D01*
X99800000Y-107881839D01*
X99874493Y-107874502D01*
X99946123Y-107852773D01*
X100000000Y-107823976D01*
X100053877Y-107852773D01*
X100125507Y-107874502D01*
X100200000Y-107881839D01*
X101052500Y-107880000D01*
X101147500Y-107785000D01*
X101147500Y-106552500D01*
X98852500Y-106552500D01*
X98847500Y-106552500D01*
X97615000Y-106552500D01*
X97520000Y-106647500D01*
X97518161Y-107500000D01*
X97525498Y-107574493D01*
X97547227Y-107646123D01*
X97582512Y-107712138D01*
X97629999Y-107770001D01*
X97680242Y-107811235D01*
X97561848Y-107860275D01*
X97474738Y-107918480D01*
X96997500Y-107920000D01*
X96902500Y-108015000D01*
X96902500Y-108797500D01*
X96922500Y-108797500D01*
X96922500Y-108802500D01*
X96902500Y-108802500D01*
X96902500Y-109585000D01*
X96997500Y-109680000D01*
X97575000Y-109681839D01*
X97649493Y-109674502D01*
X97721123Y-109652773D01*
X97787138Y-109617488D01*
X97823140Y-109587942D01*
X97908895Y-109605000D01*
X98091105Y-109605000D01*
X98119118Y-109599428D01*
X98118161Y-109900000D01*
X98125498Y-109974493D01*
X98147227Y-110046123D01*
X98182512Y-110112138D01*
X98229999Y-110170001D01*
X98287862Y-110217488D01*
X98353877Y-110252773D01*
X98425507Y-110274502D01*
X98500000Y-110281839D01*
X98602500Y-110280000D01*
X98630419Y-110252081D01*
X98705920Y-110344080D01*
X98801089Y-110422183D01*
X98909666Y-110480219D01*
X98947611Y-110491729D01*
X96495715Y-112943626D01*
X96467106Y-112967105D01*
X96443627Y-112995714D01*
X96443624Y-112995717D01*
X96419592Y-113025000D01*
X96373382Y-113081307D01*
X96344971Y-113134461D01*
X96303739Y-113211600D01*
X96260853Y-113352975D01*
X96246373Y-113500000D01*
X96250001Y-113536837D01*
X96250000Y-118225000D01*
X96080000Y-118225000D01*
X96080000Y-118047500D01*
X96069328Y-117944150D01*
X96038699Y-117844868D01*
X95989290Y-117753469D01*
X95922999Y-117673466D01*
X95842374Y-117607933D01*
X95825000Y-117598752D01*
X95825000Y-117499931D01*
X95867325Y-117448358D01*
X95938991Y-117314280D01*
X95983123Y-117168797D01*
X95998024Y-117017500D01*
X95998024Y-116722500D01*
X95983123Y-116571203D01*
X95938991Y-116425720D01*
X95867325Y-116291642D01*
X95770878Y-116174122D01*
X95751496Y-116158216D01*
X95750000Y-115997500D01*
X95655000Y-115902500D01*
X95052500Y-115902500D01*
X95052500Y-115922500D01*
X95047500Y-115922500D01*
X95047500Y-115902500D01*
X94445000Y-115902500D01*
X94350000Y-115997500D01*
X94348504Y-116158216D01*
X94329122Y-116174122D01*
X94232675Y-116291642D01*
X94161009Y-116425720D01*
X94116877Y-116571203D01*
X94101976Y-116722500D01*
X94101976Y-117017500D01*
X94116877Y-117168797D01*
X94161009Y-117314280D01*
X94232675Y-117448358D01*
X94275001Y-117499931D01*
X94275001Y-117572329D01*
X94250513Y-117559388D01*
X94150947Y-117529697D01*
X94135379Y-117526922D01*
X94052500Y-117615007D01*
X94052500Y-117873396D01*
X94047500Y-117889603D01*
X94047500Y-117615007D01*
X93964621Y-117526922D01*
X93949053Y-117529697D01*
X93849487Y-117559388D01*
X93757626Y-117607933D01*
X93677001Y-117673466D01*
X93610710Y-117753469D01*
X93561301Y-117844868D01*
X93530672Y-117944150D01*
X93520000Y-118047500D01*
X93520000Y-118272500D01*
X94072500Y-118272500D01*
X94072500Y-118277500D01*
X93520000Y-118277500D01*
X93520000Y-118470000D01*
X93327500Y-118470000D01*
X93327500Y-119022500D01*
X93322500Y-119022500D01*
X93322500Y-118470000D01*
X93097500Y-118470000D01*
X92994150Y-118480672D01*
X92894868Y-118511301D01*
X92803469Y-118560710D01*
X92723466Y-118627001D01*
X92657933Y-118707626D01*
X92609388Y-118799487D01*
X92579697Y-118899053D01*
X92576922Y-118914621D01*
X92665007Y-118997500D01*
X92939603Y-118997500D01*
X92923396Y-119002500D01*
X92665007Y-119002500D01*
X92576922Y-119085379D01*
X92579697Y-119100947D01*
X92609388Y-119200513D01*
X92622328Y-119225000D01*
X92214931Y-119225000D01*
X92163358Y-119182675D01*
X92029280Y-119111009D01*
X91883797Y-119066877D01*
X91732500Y-119051976D01*
X91437500Y-119051976D01*
X91286203Y-119066877D01*
X91140720Y-119111009D01*
X91100000Y-119132774D01*
X91059280Y-119111009D01*
X90913797Y-119066877D01*
X90762500Y-119051976D01*
X90467500Y-119051976D01*
X90316203Y-119066877D01*
X90170720Y-119111009D01*
X90036642Y-119182675D01*
X89985069Y-119225000D01*
X89510655Y-119225000D01*
X89480219Y-119124666D01*
X89422183Y-119016089D01*
X89344080Y-118920920D01*
X89248911Y-118842817D01*
X89140334Y-118784781D01*
X89022521Y-118749043D01*
X88900000Y-118736976D01*
X85650000Y-118736976D01*
X85650000Y-115605000D01*
X94348161Y-115605000D01*
X94350000Y-115802500D01*
X94445000Y-115897500D01*
X95047500Y-115897500D01*
X95047500Y-115320000D01*
X95052500Y-115320000D01*
X95052500Y-115897500D01*
X95655000Y-115897500D01*
X95750000Y-115802500D01*
X95751839Y-115605000D01*
X95744502Y-115530507D01*
X95722773Y-115458877D01*
X95687488Y-115392862D01*
X95640001Y-115334999D01*
X95582138Y-115287512D01*
X95516123Y-115252227D01*
X95444493Y-115230498D01*
X95370000Y-115223161D01*
X95147500Y-115225000D01*
X95052500Y-115320000D01*
X95047500Y-115320000D01*
X94952500Y-115225000D01*
X94730000Y-115223161D01*
X94655507Y-115230498D01*
X94583877Y-115252227D01*
X94517862Y-115287512D01*
X94459999Y-115334999D01*
X94412512Y-115392862D01*
X94377227Y-115458877D01*
X94355498Y-115530507D01*
X94348161Y-115605000D01*
X85650000Y-115605000D01*
X85650000Y-112478283D01*
X87525253Y-112478283D01*
X87887570Y-112911763D01*
X88496217Y-113267929D01*
X89162653Y-113498510D01*
X89861267Y-113594645D01*
X90565213Y-113552640D01*
X91247438Y-113374110D01*
X91881725Y-113065914D01*
X92112430Y-112911763D01*
X92474747Y-112478283D01*
X90000000Y-110003536D01*
X87525253Y-112478283D01*
X85650000Y-112478283D01*
X85650000Y-110028951D01*
X85664965Y-109861267D01*
X86405355Y-109861267D01*
X86447360Y-110565213D01*
X86625890Y-111247438D01*
X86934086Y-111881725D01*
X87088237Y-112112430D01*
X87521717Y-112474747D01*
X89996464Y-110000000D01*
X90003536Y-110000000D01*
X92478283Y-112474747D01*
X92911763Y-112112430D01*
X93267929Y-111503783D01*
X93498510Y-110837347D01*
X93594645Y-110138733D01*
X93552640Y-109434787D01*
X93517368Y-109300000D01*
X95843161Y-109300000D01*
X95850498Y-109374493D01*
X95872227Y-109446123D01*
X95907512Y-109512138D01*
X95954999Y-109570001D01*
X96012862Y-109617488D01*
X96078877Y-109652773D01*
X96150507Y-109674502D01*
X96225000Y-109681839D01*
X96802500Y-109680000D01*
X96897500Y-109585000D01*
X96897500Y-108802500D01*
X95940000Y-108802500D01*
X95845000Y-108897500D01*
X95843161Y-109300000D01*
X93517368Y-109300000D01*
X93374110Y-108752562D01*
X93154214Y-108300000D01*
X95843161Y-108300000D01*
X95845000Y-108702500D01*
X95940000Y-108797500D01*
X96897500Y-108797500D01*
X96897500Y-108015000D01*
X96802500Y-107920000D01*
X96225000Y-107918161D01*
X96150507Y-107925498D01*
X96078877Y-107947227D01*
X96012862Y-107982512D01*
X95954999Y-108029999D01*
X95907512Y-108087862D01*
X95872227Y-108153877D01*
X95850498Y-108225507D01*
X95843161Y-108300000D01*
X93154214Y-108300000D01*
X93065914Y-108118275D01*
X92911763Y-107887570D01*
X92478283Y-107525253D01*
X90003536Y-110000000D01*
X89996464Y-110000000D01*
X87521717Y-107525253D01*
X87088237Y-107887570D01*
X86732071Y-108496217D01*
X86501490Y-109162653D01*
X86405355Y-109861267D01*
X85664965Y-109861267D01*
X85721292Y-109230136D01*
X85925245Y-108484611D01*
X86257995Y-107786987D01*
X86448610Y-107521717D01*
X87525253Y-107521717D01*
X90000000Y-109996464D01*
X92474747Y-107521717D01*
X92456596Y-107500000D01*
X94718161Y-107500000D01*
X94725498Y-107574493D01*
X94747227Y-107646123D01*
X94782512Y-107712138D01*
X94829999Y-107770001D01*
X94887862Y-107817488D01*
X94953877Y-107852773D01*
X95025507Y-107874502D01*
X95100000Y-107881839D01*
X95952500Y-107880000D01*
X96047500Y-107785000D01*
X96047500Y-106552500D01*
X96052500Y-106552500D01*
X96052500Y-107785000D01*
X96147500Y-107880000D01*
X97000000Y-107881839D01*
X97074493Y-107874502D01*
X97146123Y-107852773D01*
X97212138Y-107817488D01*
X97270001Y-107770001D01*
X97317488Y-107712138D01*
X97352773Y-107646123D01*
X97374502Y-107574493D01*
X97381839Y-107500000D01*
X97380000Y-106647500D01*
X97285000Y-106552500D01*
X96052500Y-106552500D01*
X96047500Y-106552500D01*
X94815000Y-106552500D01*
X94720000Y-106647500D01*
X94718161Y-107500000D01*
X92456596Y-107500000D01*
X92112430Y-107088237D01*
X91503783Y-106732071D01*
X90837347Y-106501490D01*
X90138733Y-106405355D01*
X89434787Y-106447360D01*
X88752562Y-106625890D01*
X88118275Y-106934086D01*
X87887570Y-107088237D01*
X87525253Y-107521717D01*
X86448610Y-107521717D01*
X86709026Y-107159311D01*
X87264085Y-106621421D01*
X87905618Y-106190329D01*
X88613354Y-105879655D01*
X89369917Y-105698020D01*
X90023829Y-105650000D01*
X94718269Y-105650000D01*
X94720000Y-106452500D01*
G36*
X94802500Y-119747500D02*
G01*
X94822500Y-119747500D01*
X94822500Y-119752500D01*
X94802500Y-119752500D01*
X94802500Y-119772500D01*
X94797500Y-119772500D01*
X94797500Y-119752500D01*
X94777500Y-119752500D01*
X94777500Y-119747500D01*
X94797500Y-119747500D01*
X94797500Y-119727500D01*
X94802500Y-119727500D01*
X94802500Y-119747500D01*
X94802500Y-119747500D01*
G37*
X94802500Y-119747500D02*
X94822500Y-119747500D01*
X94822500Y-119752500D01*
X94802500Y-119752500D01*
X94802500Y-119772500D01*
X94797500Y-119772500D01*
X94797500Y-119752500D01*
X94777500Y-119752500D01*
X94777500Y-119747500D01*
X94797500Y-119747500D01*
X94797500Y-119727500D01*
X94802500Y-119727500D01*
X94802500Y-119747500D01*
G36*
X102319990Y-114355010D02*
G01*
X102344585Y-114375194D01*
X102308229Y-114419494D01*
X102197500Y-114420000D01*
X102102500Y-114515000D01*
X102102500Y-115597500D01*
X102122500Y-115597500D01*
X102122500Y-115602500D01*
X102102500Y-115602500D01*
X102102500Y-116685000D01*
X102197500Y-116780000D01*
X102308229Y-116780506D01*
X102380920Y-116869080D01*
X102476089Y-116947183D01*
X102584666Y-117005219D01*
X102702479Y-117040957D01*
X102825000Y-117053024D01*
X103475000Y-117053024D01*
X103597521Y-117040957D01*
X103598759Y-117040581D01*
X103438509Y-117200832D01*
X100337896Y-117200832D01*
X100345001Y-117195001D01*
X100392488Y-117137138D01*
X100427773Y-117071123D01*
X100449502Y-116999493D01*
X100450725Y-116987077D01*
X100484666Y-117005219D01*
X100602479Y-117040957D01*
X100725000Y-117053024D01*
X101375000Y-117053024D01*
X101497521Y-117040957D01*
X101615334Y-117005219D01*
X101723911Y-116947183D01*
X101819080Y-116869080D01*
X101891771Y-116780506D01*
X102002500Y-116780000D01*
X102097500Y-116685000D01*
X102097500Y-115602500D01*
X102077500Y-115602500D01*
X102077500Y-115597500D01*
X102097500Y-115597500D01*
X102097500Y-114515000D01*
X102002500Y-114420000D01*
X101891771Y-114419494D01*
X101839639Y-114355972D01*
X102000000Y-114356839D01*
X102074493Y-114349502D01*
X102146123Y-114327773D01*
X102212138Y-114292488D01*
X102245924Y-114264760D01*
X102319990Y-114355010D01*
X102319990Y-114355010D01*
G37*
X102319990Y-114355010D02*
X102344585Y-114375194D01*
X102308229Y-114419494D01*
X102197500Y-114420000D01*
X102102500Y-114515000D01*
X102102500Y-115597500D01*
X102122500Y-115597500D01*
X102122500Y-115602500D01*
X102102500Y-115602500D01*
X102102500Y-116685000D01*
X102197500Y-116780000D01*
X102308229Y-116780506D01*
X102380920Y-116869080D01*
X102476089Y-116947183D01*
X102584666Y-117005219D01*
X102702479Y-117040957D01*
X102825000Y-117053024D01*
X103475000Y-117053024D01*
X103597521Y-117040957D01*
X103598759Y-117040581D01*
X103438509Y-117200832D01*
X100337896Y-117200832D01*
X100345001Y-117195001D01*
X100392488Y-117137138D01*
X100427773Y-117071123D01*
X100449502Y-116999493D01*
X100450725Y-116987077D01*
X100484666Y-117005219D01*
X100602479Y-117040957D01*
X100725000Y-117053024D01*
X101375000Y-117053024D01*
X101497521Y-117040957D01*
X101615334Y-117005219D01*
X101723911Y-116947183D01*
X101819080Y-116869080D01*
X101891771Y-116780506D01*
X102002500Y-116780000D01*
X102097500Y-116685000D01*
X102097500Y-115602500D01*
X102077500Y-115602500D01*
X102077500Y-115597500D01*
X102097500Y-115597500D01*
X102097500Y-114515000D01*
X102002500Y-114420000D01*
X101891771Y-114419494D01*
X101839639Y-114355972D01*
X102000000Y-114356839D01*
X102074493Y-114349502D01*
X102146123Y-114327773D01*
X102212138Y-114292488D01*
X102245924Y-114264760D01*
X102319990Y-114355010D01*
G36*
X98835240Y-115804076D02*
G01*
X98807512Y-115837862D01*
X98772227Y-115903877D01*
X98750498Y-115975507D01*
X98743161Y-116050000D01*
X98745000Y-116390000D01*
X98840000Y-116485000D01*
X99597500Y-116485000D01*
X99597500Y-116465000D01*
X99602500Y-116465000D01*
X99602500Y-116485000D01*
X99622500Y-116485000D01*
X99622500Y-116490000D01*
X99602500Y-116490000D01*
X99602500Y-116510000D01*
X99597500Y-116510000D01*
X99597500Y-116490000D01*
X98840000Y-116490000D01*
X98745000Y-116585000D01*
X98743161Y-116925000D01*
X98750498Y-116999493D01*
X98772227Y-117071123D01*
X98807512Y-117137138D01*
X98854999Y-117195001D01*
X98862104Y-117200832D01*
X98724168Y-117200832D01*
X98724168Y-115771847D01*
X98756532Y-115739483D01*
X98835240Y-115804076D01*
X98835240Y-115804076D01*
G37*
X98835240Y-115804076D02*
X98807512Y-115837862D01*
X98772227Y-115903877D01*
X98750498Y-115975507D01*
X98743161Y-116050000D01*
X98745000Y-116390000D01*
X98840000Y-116485000D01*
X99597500Y-116485000D01*
X99597500Y-116465000D01*
X99602500Y-116465000D01*
X99602500Y-116485000D01*
X99622500Y-116485000D01*
X99622500Y-116490000D01*
X99602500Y-116490000D01*
X99602500Y-116510000D01*
X99597500Y-116510000D01*
X99597500Y-116490000D01*
X98840000Y-116490000D01*
X98745000Y-116585000D01*
X98743161Y-116925000D01*
X98750498Y-116999493D01*
X98772227Y-117071123D01*
X98807512Y-117137138D01*
X98854999Y-117195001D01*
X98862104Y-117200832D01*
X98724168Y-117200832D01*
X98724168Y-115771847D01*
X98756532Y-115739483D01*
X98835240Y-115804076D01*
G36*
X100146976Y-112256250D02*
G01*
X100163727Y-112426325D01*
X100213336Y-112589863D01*
X100293896Y-112740582D01*
X100402313Y-112872687D01*
X100534418Y-112981104D01*
X100685137Y-113061664D01*
X100743426Y-113079346D01*
X100745000Y-113402500D01*
X100840000Y-113497500D01*
X101560000Y-113497500D01*
X101560000Y-113477500D01*
X101565000Y-113477500D01*
X101565000Y-113497500D01*
X101585000Y-113497500D01*
X101585000Y-113502500D01*
X101565000Y-113502500D01*
X101565000Y-113522500D01*
X101560000Y-113522500D01*
X101560000Y-113502500D01*
X100840000Y-113502500D01*
X100745000Y-113597500D01*
X100743161Y-113975000D01*
X100750498Y-114049493D01*
X100772227Y-114121123D01*
X100786045Y-114146976D01*
X100725000Y-114146976D01*
X100602479Y-114159043D01*
X100549876Y-114175000D01*
X100520672Y-114175000D01*
X100455010Y-114094990D01*
X100326692Y-113989683D01*
X100180296Y-113911433D01*
X100021447Y-113863247D01*
X99856250Y-113846976D01*
X99343750Y-113846976D01*
X99178553Y-113863247D01*
X99019704Y-113911433D01*
X98873308Y-113989683D01*
X98744990Y-114094990D01*
X98710103Y-114137500D01*
X98525562Y-114137500D01*
X98487499Y-114133751D01*
X98449436Y-114137500D01*
X98449435Y-114137500D01*
X98335574Y-114148714D01*
X98200011Y-114189837D01*
X98200011Y-114039723D01*
X100146976Y-112092759D01*
X100146976Y-112256250D01*
X100146976Y-112256250D01*
G37*
X100146976Y-112256250D02*
X100163727Y-112426325D01*
X100213336Y-112589863D01*
X100293896Y-112740582D01*
X100402313Y-112872687D01*
X100534418Y-112981104D01*
X100685137Y-113061664D01*
X100743426Y-113079346D01*
X100745000Y-113402500D01*
X100840000Y-113497500D01*
X101560000Y-113497500D01*
X101560000Y-113477500D01*
X101565000Y-113477500D01*
X101565000Y-113497500D01*
X101585000Y-113497500D01*
X101585000Y-113502500D01*
X101565000Y-113502500D01*
X101565000Y-113522500D01*
X101560000Y-113522500D01*
X101560000Y-113502500D01*
X100840000Y-113502500D01*
X100745000Y-113597500D01*
X100743161Y-113975000D01*
X100750498Y-114049493D01*
X100772227Y-114121123D01*
X100786045Y-114146976D01*
X100725000Y-114146976D01*
X100602479Y-114159043D01*
X100549876Y-114175000D01*
X100520672Y-114175000D01*
X100455010Y-114094990D01*
X100326692Y-113989683D01*
X100180296Y-113911433D01*
X100021447Y-113863247D01*
X99856250Y-113846976D01*
X99343750Y-113846976D01*
X99178553Y-113863247D01*
X99019704Y-113911433D01*
X98873308Y-113989683D01*
X98744990Y-114094990D01*
X98710103Y-114137500D01*
X98525562Y-114137500D01*
X98487499Y-114133751D01*
X98449436Y-114137500D01*
X98449435Y-114137500D01*
X98335574Y-114148714D01*
X98200011Y-114189837D01*
X98200011Y-114039723D01*
X100146976Y-112092759D01*
X100146976Y-112256250D01*
D30*
G36*
X110895000Y-123895000D02*
G01*
X97105000Y-123895000D01*
X97105000Y-123004425D01*
X97148934Y-123017752D01*
X97237500Y-123026475D01*
X97532500Y-123026475D01*
X97543874Y-123025355D01*
X97925984Y-123120882D01*
X97975449Y-123147322D01*
X98127192Y-123193352D01*
X98245454Y-123205000D01*
X99660462Y-123205000D01*
X99700000Y-123208894D01*
X99739538Y-123205000D01*
X99739546Y-123205000D01*
X99857808Y-123193352D01*
X100009551Y-123147322D01*
X100149398Y-123072572D01*
X100271975Y-122971975D01*
X100297188Y-122941253D01*
X102433442Y-120805000D01*
X110895000Y-120805000D01*
X110895000Y-123895000D01*
X110895000Y-123895000D01*
G37*
X110895000Y-123895000D02*
X97105000Y-123895000D01*
X97105000Y-123004425D01*
X97148934Y-123017752D01*
X97237500Y-123026475D01*
X97532500Y-123026475D01*
X97543874Y-123025355D01*
X97925984Y-123120882D01*
X97975449Y-123147322D01*
X98127192Y-123193352D01*
X98245454Y-123205000D01*
X99660462Y-123205000D01*
X99700000Y-123208894D01*
X99739538Y-123205000D01*
X99739546Y-123205000D01*
X99857808Y-123193352D01*
X100009551Y-123147322D01*
X100149398Y-123072572D01*
X100271975Y-122971975D01*
X100297188Y-122941253D01*
X102433442Y-120805000D01*
X110895000Y-120805000D01*
X110895000Y-123895000D01*
G36*
X110895000Y-119195000D02*
G01*
X102139546Y-119195000D01*
X102100000Y-119191105D01*
X102060454Y-119195000D01*
X101942192Y-119206648D01*
X101790449Y-119252678D01*
X101650602Y-119327428D01*
X101528025Y-119428025D01*
X101502816Y-119458742D01*
X99366559Y-121595000D01*
X98245454Y-121595000D01*
X98127192Y-121606648D01*
X97975449Y-121652678D01*
X97925984Y-121679118D01*
X97543874Y-121774645D01*
X97532500Y-121773525D01*
X97237500Y-121773525D01*
X97148934Y-121782248D01*
X97105000Y-121795575D01*
X97105000Y-120455000D01*
X97114888Y-120455000D01*
X97146491Y-120493509D01*
X97215285Y-120549966D01*
X97293771Y-120591918D01*
X97378934Y-120617752D01*
X97467500Y-120626475D01*
X97762500Y-120626475D01*
X97851066Y-120617752D01*
X97936229Y-120591918D01*
X98014715Y-120549966D01*
X98083509Y-120493509D01*
X98139966Y-120424715D01*
X98181918Y-120346229D01*
X98207752Y-120261066D01*
X98216475Y-120172500D01*
X98216475Y-119827500D01*
X98207752Y-119738934D01*
X98181918Y-119653771D01*
X98139966Y-119575285D01*
X98114370Y-119544096D01*
X98255099Y-119403368D01*
X98272458Y-119389122D01*
X98329317Y-119319839D01*
X98371567Y-119240795D01*
X98397584Y-119155027D01*
X98399727Y-119133274D01*
X98406369Y-119065832D01*
X98404168Y-119043485D01*
X98404168Y-118380832D01*
X103728051Y-118380832D01*
X103749168Y-118382912D01*
X103770285Y-118380832D01*
X103770287Y-118380832D01*
X103833463Y-118374610D01*
X103914518Y-118350022D01*
X103989219Y-118310093D01*
X104054695Y-118256359D01*
X104068163Y-118239948D01*
X104203111Y-118105000D01*
X110895000Y-118105000D01*
X110895000Y-119195000D01*
X110895000Y-119195000D01*
G37*
X110895000Y-119195000D02*
X102139546Y-119195000D01*
X102100000Y-119191105D01*
X102060454Y-119195000D01*
X101942192Y-119206648D01*
X101790449Y-119252678D01*
X101650602Y-119327428D01*
X101528025Y-119428025D01*
X101502816Y-119458742D01*
X99366559Y-121595000D01*
X98245454Y-121595000D01*
X98127192Y-121606648D01*
X97975449Y-121652678D01*
X97925984Y-121679118D01*
X97543874Y-121774645D01*
X97532500Y-121773525D01*
X97237500Y-121773525D01*
X97148934Y-121782248D01*
X97105000Y-121795575D01*
X97105000Y-120455000D01*
X97114888Y-120455000D01*
X97146491Y-120493509D01*
X97215285Y-120549966D01*
X97293771Y-120591918D01*
X97378934Y-120617752D01*
X97467500Y-120626475D01*
X97762500Y-120626475D01*
X97851066Y-120617752D01*
X97936229Y-120591918D01*
X98014715Y-120549966D01*
X98083509Y-120493509D01*
X98139966Y-120424715D01*
X98181918Y-120346229D01*
X98207752Y-120261066D01*
X98216475Y-120172500D01*
X98216475Y-119827500D01*
X98207752Y-119738934D01*
X98181918Y-119653771D01*
X98139966Y-119575285D01*
X98114370Y-119544096D01*
X98255099Y-119403368D01*
X98272458Y-119389122D01*
X98329317Y-119319839D01*
X98371567Y-119240795D01*
X98397584Y-119155027D01*
X98399727Y-119133274D01*
X98406369Y-119065832D01*
X98404168Y-119043485D01*
X98404168Y-118380832D01*
X103728051Y-118380832D01*
X103749168Y-118382912D01*
X103770285Y-118380832D01*
X103770287Y-118380832D01*
X103833463Y-118374610D01*
X103914518Y-118350022D01*
X103989219Y-118310093D01*
X104054695Y-118256359D01*
X104068163Y-118239948D01*
X104203111Y-118105000D01*
X110895000Y-118105000D01*
X110895000Y-119195000D01*
D31*
G36*
X98275000Y-122867980D02*
G01*
X97525000Y-122680480D01*
X97525000Y-122119520D01*
X98275000Y-121932020D01*
X98275000Y-122867980D01*
X98275000Y-122867980D01*
G37*
X98275000Y-122867980D02*
X97525000Y-122680480D01*
X97525000Y-122119520D01*
X98275000Y-121932020D01*
X98275000Y-122867980D01*
M02*
