G04 #@! TF.GenerationSoftware,KiCad,Pcbnew,(5.1.2)-1*
G04 #@! TF.CreationDate,2019-06-19T11:16:05+10:00*
G04 #@! TF.ProjectId,Ecal,4563616c-2e6b-4696-9361-645f70636258,rev?*
G04 #@! TF.SameCoordinates,Original*
G04 #@! TF.FileFunction,Paste,Top*
G04 #@! TF.FilePolarity,Positive*
%FSLAX46Y46*%
G04 Gerber Fmt 4.6, Leading zero omitted, Abs format (unit mm)*
G04 Created by KiCad (PCBNEW (5.1.2)-1) date 2019-06-19 11:16:05*
%MOMM*%
%LPD*%
G04 APERTURE LIST*
%ADD10R,0.730000X0.730000*%
%ADD11O,0.300000X0.750000*%
%ADD12O,0.750000X0.300000*%
%ADD13R,0.820000X0.630000*%
%ADD14R,0.650000X0.350000*%
%ADD15C,0.100000*%
%ADD16C,0.590000*%
%ADD17C,0.875000*%
%ADD18R,0.400000X1.350000*%
%ADD19R,1.350000X1.000000*%
%ADD20R,1.900000X1.900000*%
%ADD21C,0.975000*%
G04 APERTURE END LIST*
D10*
X94300000Y-119250000D03*
X95300000Y-119250000D03*
X95300000Y-120250000D03*
X94300000Y-120250000D03*
D11*
X95550000Y-121225000D03*
X95050000Y-121225000D03*
X94550000Y-121225000D03*
X94050000Y-121225000D03*
D12*
X93325000Y-120500000D03*
X93325000Y-120000000D03*
X93325000Y-119500000D03*
X93325000Y-119000000D03*
D11*
X94050000Y-118275000D03*
X94550000Y-118275000D03*
X95050000Y-118275000D03*
X95550000Y-118275000D03*
D12*
X96275000Y-119000000D03*
X96275000Y-119500000D03*
X96275000Y-120000000D03*
X96275000Y-120500000D03*
D13*
X102100000Y-116000000D03*
X102100000Y-115200000D03*
D14*
X103150000Y-114950000D03*
X103150000Y-115600000D03*
X103150000Y-116250000D03*
X101050000Y-116250000D03*
X101050000Y-115600000D03*
X101050000Y-114950000D03*
D15*
G36*
X95236958Y-115605710D02*
G01*
X95251276Y-115607834D01*
X95265317Y-115611351D01*
X95278946Y-115616228D01*
X95292031Y-115622417D01*
X95304447Y-115629858D01*
X95316073Y-115638481D01*
X95326798Y-115648202D01*
X95336519Y-115658927D01*
X95345142Y-115670553D01*
X95352583Y-115682969D01*
X95358772Y-115696054D01*
X95363649Y-115709683D01*
X95367166Y-115723724D01*
X95369290Y-115738042D01*
X95370000Y-115752500D01*
X95370000Y-116047500D01*
X95369290Y-116061958D01*
X95367166Y-116076276D01*
X95363649Y-116090317D01*
X95358772Y-116103946D01*
X95352583Y-116117031D01*
X95345142Y-116129447D01*
X95336519Y-116141073D01*
X95326798Y-116151798D01*
X95316073Y-116161519D01*
X95304447Y-116170142D01*
X95292031Y-116177583D01*
X95278946Y-116183772D01*
X95265317Y-116188649D01*
X95251276Y-116192166D01*
X95236958Y-116194290D01*
X95222500Y-116195000D01*
X94877500Y-116195000D01*
X94863042Y-116194290D01*
X94848724Y-116192166D01*
X94834683Y-116188649D01*
X94821054Y-116183772D01*
X94807969Y-116177583D01*
X94795553Y-116170142D01*
X94783927Y-116161519D01*
X94773202Y-116151798D01*
X94763481Y-116141073D01*
X94754858Y-116129447D01*
X94747417Y-116117031D01*
X94741228Y-116103946D01*
X94736351Y-116090317D01*
X94732834Y-116076276D01*
X94730710Y-116061958D01*
X94730000Y-116047500D01*
X94730000Y-115752500D01*
X94730710Y-115738042D01*
X94732834Y-115723724D01*
X94736351Y-115709683D01*
X94741228Y-115696054D01*
X94747417Y-115682969D01*
X94754858Y-115670553D01*
X94763481Y-115658927D01*
X94773202Y-115648202D01*
X94783927Y-115638481D01*
X94795553Y-115629858D01*
X94807969Y-115622417D01*
X94821054Y-115616228D01*
X94834683Y-115611351D01*
X94848724Y-115607834D01*
X94863042Y-115605710D01*
X94877500Y-115605000D01*
X95222500Y-115605000D01*
X95236958Y-115605710D01*
X95236958Y-115605710D01*
G37*
D16*
X95050000Y-115900000D03*
D15*
G36*
X95236958Y-116575710D02*
G01*
X95251276Y-116577834D01*
X95265317Y-116581351D01*
X95278946Y-116586228D01*
X95292031Y-116592417D01*
X95304447Y-116599858D01*
X95316073Y-116608481D01*
X95326798Y-116618202D01*
X95336519Y-116628927D01*
X95345142Y-116640553D01*
X95352583Y-116652969D01*
X95358772Y-116666054D01*
X95363649Y-116679683D01*
X95367166Y-116693724D01*
X95369290Y-116708042D01*
X95370000Y-116722500D01*
X95370000Y-117017500D01*
X95369290Y-117031958D01*
X95367166Y-117046276D01*
X95363649Y-117060317D01*
X95358772Y-117073946D01*
X95352583Y-117087031D01*
X95345142Y-117099447D01*
X95336519Y-117111073D01*
X95326798Y-117121798D01*
X95316073Y-117131519D01*
X95304447Y-117140142D01*
X95292031Y-117147583D01*
X95278946Y-117153772D01*
X95265317Y-117158649D01*
X95251276Y-117162166D01*
X95236958Y-117164290D01*
X95222500Y-117165000D01*
X94877500Y-117165000D01*
X94863042Y-117164290D01*
X94848724Y-117162166D01*
X94834683Y-117158649D01*
X94821054Y-117153772D01*
X94807969Y-117147583D01*
X94795553Y-117140142D01*
X94783927Y-117131519D01*
X94773202Y-117121798D01*
X94763481Y-117111073D01*
X94754858Y-117099447D01*
X94747417Y-117087031D01*
X94741228Y-117073946D01*
X94736351Y-117060317D01*
X94732834Y-117046276D01*
X94730710Y-117031958D01*
X94730000Y-117017500D01*
X94730000Y-116722500D01*
X94730710Y-116708042D01*
X94732834Y-116693724D01*
X94736351Y-116679683D01*
X94741228Y-116666054D01*
X94747417Y-116652969D01*
X94754858Y-116640553D01*
X94763481Y-116628927D01*
X94773202Y-116618202D01*
X94783927Y-116608481D01*
X94795553Y-116599858D01*
X94807969Y-116592417D01*
X94821054Y-116586228D01*
X94834683Y-116581351D01*
X94848724Y-116577834D01*
X94863042Y-116575710D01*
X94877500Y-116575000D01*
X95222500Y-116575000D01*
X95236958Y-116575710D01*
X95236958Y-116575710D01*
G37*
D16*
X95050000Y-116870000D03*
D15*
G36*
X107627691Y-116326053D02*
G01*
X107648926Y-116329203D01*
X107669750Y-116334419D01*
X107689962Y-116341651D01*
X107709368Y-116350830D01*
X107727781Y-116361866D01*
X107745024Y-116374654D01*
X107760930Y-116389070D01*
X107775346Y-116404976D01*
X107788134Y-116422219D01*
X107799170Y-116440632D01*
X107808349Y-116460038D01*
X107815581Y-116480250D01*
X107820797Y-116501074D01*
X107823947Y-116522309D01*
X107825000Y-116543750D01*
X107825000Y-117056250D01*
X107823947Y-117077691D01*
X107820797Y-117098926D01*
X107815581Y-117119750D01*
X107808349Y-117139962D01*
X107799170Y-117159368D01*
X107788134Y-117177781D01*
X107775346Y-117195024D01*
X107760930Y-117210930D01*
X107745024Y-117225346D01*
X107727781Y-117238134D01*
X107709368Y-117249170D01*
X107689962Y-117258349D01*
X107669750Y-117265581D01*
X107648926Y-117270797D01*
X107627691Y-117273947D01*
X107606250Y-117275000D01*
X107168750Y-117275000D01*
X107147309Y-117273947D01*
X107126074Y-117270797D01*
X107105250Y-117265581D01*
X107085038Y-117258349D01*
X107065632Y-117249170D01*
X107047219Y-117238134D01*
X107029976Y-117225346D01*
X107014070Y-117210930D01*
X106999654Y-117195024D01*
X106986866Y-117177781D01*
X106975830Y-117159368D01*
X106966651Y-117139962D01*
X106959419Y-117119750D01*
X106954203Y-117098926D01*
X106951053Y-117077691D01*
X106950000Y-117056250D01*
X106950000Y-116543750D01*
X106951053Y-116522309D01*
X106954203Y-116501074D01*
X106959419Y-116480250D01*
X106966651Y-116460038D01*
X106975830Y-116440632D01*
X106986866Y-116422219D01*
X106999654Y-116404976D01*
X107014070Y-116389070D01*
X107029976Y-116374654D01*
X107047219Y-116361866D01*
X107065632Y-116350830D01*
X107085038Y-116341651D01*
X107105250Y-116334419D01*
X107126074Y-116329203D01*
X107147309Y-116326053D01*
X107168750Y-116325000D01*
X107606250Y-116325000D01*
X107627691Y-116326053D01*
X107627691Y-116326053D01*
G37*
D17*
X107387500Y-116800000D03*
D15*
G36*
X106052691Y-116326053D02*
G01*
X106073926Y-116329203D01*
X106094750Y-116334419D01*
X106114962Y-116341651D01*
X106134368Y-116350830D01*
X106152781Y-116361866D01*
X106170024Y-116374654D01*
X106185930Y-116389070D01*
X106200346Y-116404976D01*
X106213134Y-116422219D01*
X106224170Y-116440632D01*
X106233349Y-116460038D01*
X106240581Y-116480250D01*
X106245797Y-116501074D01*
X106248947Y-116522309D01*
X106250000Y-116543750D01*
X106250000Y-117056250D01*
X106248947Y-117077691D01*
X106245797Y-117098926D01*
X106240581Y-117119750D01*
X106233349Y-117139962D01*
X106224170Y-117159368D01*
X106213134Y-117177781D01*
X106200346Y-117195024D01*
X106185930Y-117210930D01*
X106170024Y-117225346D01*
X106152781Y-117238134D01*
X106134368Y-117249170D01*
X106114962Y-117258349D01*
X106094750Y-117265581D01*
X106073926Y-117270797D01*
X106052691Y-117273947D01*
X106031250Y-117275000D01*
X105593750Y-117275000D01*
X105572309Y-117273947D01*
X105551074Y-117270797D01*
X105530250Y-117265581D01*
X105510038Y-117258349D01*
X105490632Y-117249170D01*
X105472219Y-117238134D01*
X105454976Y-117225346D01*
X105439070Y-117210930D01*
X105424654Y-117195024D01*
X105411866Y-117177781D01*
X105400830Y-117159368D01*
X105391651Y-117139962D01*
X105384419Y-117119750D01*
X105379203Y-117098926D01*
X105376053Y-117077691D01*
X105375000Y-117056250D01*
X105375000Y-116543750D01*
X105376053Y-116522309D01*
X105379203Y-116501074D01*
X105384419Y-116480250D01*
X105391651Y-116460038D01*
X105400830Y-116440632D01*
X105411866Y-116422219D01*
X105424654Y-116404976D01*
X105439070Y-116389070D01*
X105454976Y-116374654D01*
X105472219Y-116361866D01*
X105490632Y-116350830D01*
X105510038Y-116341651D01*
X105530250Y-116334419D01*
X105551074Y-116329203D01*
X105572309Y-116326053D01*
X105593750Y-116325000D01*
X106031250Y-116325000D01*
X106052691Y-116326053D01*
X106052691Y-116326053D01*
G37*
D17*
X105812500Y-116800000D03*
D18*
X100650000Y-109225000D03*
X101300000Y-109225000D03*
X99350000Y-109225000D03*
X98700000Y-109225000D03*
X100000000Y-109225000D03*
D19*
X103100000Y-108800000D03*
X96900000Y-108800000D03*
D20*
X96050000Y-106550000D03*
X103950000Y-106550000D03*
X101150000Y-106550000D03*
X98850000Y-106550000D03*
D15*
G36*
X101530142Y-111101174D02*
G01*
X101553803Y-111104684D01*
X101577007Y-111110496D01*
X101599529Y-111118554D01*
X101621153Y-111128782D01*
X101641670Y-111141079D01*
X101660883Y-111155329D01*
X101678607Y-111171393D01*
X101694671Y-111189117D01*
X101708921Y-111208330D01*
X101721218Y-111228847D01*
X101731446Y-111250471D01*
X101739504Y-111272993D01*
X101745316Y-111296197D01*
X101748826Y-111319858D01*
X101750000Y-111343750D01*
X101750000Y-112256250D01*
X101748826Y-112280142D01*
X101745316Y-112303803D01*
X101739504Y-112327007D01*
X101731446Y-112349529D01*
X101721218Y-112371153D01*
X101708921Y-112391670D01*
X101694671Y-112410883D01*
X101678607Y-112428607D01*
X101660883Y-112444671D01*
X101641670Y-112458921D01*
X101621153Y-112471218D01*
X101599529Y-112481446D01*
X101577007Y-112489504D01*
X101553803Y-112495316D01*
X101530142Y-112498826D01*
X101506250Y-112500000D01*
X101018750Y-112500000D01*
X100994858Y-112498826D01*
X100971197Y-112495316D01*
X100947993Y-112489504D01*
X100925471Y-112481446D01*
X100903847Y-112471218D01*
X100883330Y-112458921D01*
X100864117Y-112444671D01*
X100846393Y-112428607D01*
X100830329Y-112410883D01*
X100816079Y-112391670D01*
X100803782Y-112371153D01*
X100793554Y-112349529D01*
X100785496Y-112327007D01*
X100779684Y-112303803D01*
X100776174Y-112280142D01*
X100775000Y-112256250D01*
X100775000Y-111343750D01*
X100776174Y-111319858D01*
X100779684Y-111296197D01*
X100785496Y-111272993D01*
X100793554Y-111250471D01*
X100803782Y-111228847D01*
X100816079Y-111208330D01*
X100830329Y-111189117D01*
X100846393Y-111171393D01*
X100864117Y-111155329D01*
X100883330Y-111141079D01*
X100903847Y-111128782D01*
X100925471Y-111118554D01*
X100947993Y-111110496D01*
X100971197Y-111104684D01*
X100994858Y-111101174D01*
X101018750Y-111100000D01*
X101506250Y-111100000D01*
X101530142Y-111101174D01*
X101530142Y-111101174D01*
G37*
D21*
X101262500Y-111800000D03*
D15*
G36*
X103405142Y-111101174D02*
G01*
X103428803Y-111104684D01*
X103452007Y-111110496D01*
X103474529Y-111118554D01*
X103496153Y-111128782D01*
X103516670Y-111141079D01*
X103535883Y-111155329D01*
X103553607Y-111171393D01*
X103569671Y-111189117D01*
X103583921Y-111208330D01*
X103596218Y-111228847D01*
X103606446Y-111250471D01*
X103614504Y-111272993D01*
X103620316Y-111296197D01*
X103623826Y-111319858D01*
X103625000Y-111343750D01*
X103625000Y-112256250D01*
X103623826Y-112280142D01*
X103620316Y-112303803D01*
X103614504Y-112327007D01*
X103606446Y-112349529D01*
X103596218Y-112371153D01*
X103583921Y-112391670D01*
X103569671Y-112410883D01*
X103553607Y-112428607D01*
X103535883Y-112444671D01*
X103516670Y-112458921D01*
X103496153Y-112471218D01*
X103474529Y-112481446D01*
X103452007Y-112489504D01*
X103428803Y-112495316D01*
X103405142Y-112498826D01*
X103381250Y-112500000D01*
X102893750Y-112500000D01*
X102869858Y-112498826D01*
X102846197Y-112495316D01*
X102822993Y-112489504D01*
X102800471Y-112481446D01*
X102778847Y-112471218D01*
X102758330Y-112458921D01*
X102739117Y-112444671D01*
X102721393Y-112428607D01*
X102705329Y-112410883D01*
X102691079Y-112391670D01*
X102678782Y-112371153D01*
X102668554Y-112349529D01*
X102660496Y-112327007D01*
X102654684Y-112303803D01*
X102651174Y-112280142D01*
X102650000Y-112256250D01*
X102650000Y-111343750D01*
X102651174Y-111319858D01*
X102654684Y-111296197D01*
X102660496Y-111272993D01*
X102668554Y-111250471D01*
X102678782Y-111228847D01*
X102691079Y-111208330D01*
X102705329Y-111189117D01*
X102721393Y-111171393D01*
X102739117Y-111155329D01*
X102758330Y-111141079D01*
X102778847Y-111128782D01*
X102800471Y-111118554D01*
X102822993Y-111110496D01*
X102846197Y-111104684D01*
X102869858Y-111101174D01*
X102893750Y-111100000D01*
X103381250Y-111100000D01*
X103405142Y-111101174D01*
X103405142Y-111101174D01*
G37*
D21*
X103137500Y-111800000D03*
D15*
G36*
X107627691Y-114726053D02*
G01*
X107648926Y-114729203D01*
X107669750Y-114734419D01*
X107689962Y-114741651D01*
X107709368Y-114750830D01*
X107727781Y-114761866D01*
X107745024Y-114774654D01*
X107760930Y-114789070D01*
X107775346Y-114804976D01*
X107788134Y-114822219D01*
X107799170Y-114840632D01*
X107808349Y-114860038D01*
X107815581Y-114880250D01*
X107820797Y-114901074D01*
X107823947Y-114922309D01*
X107825000Y-114943750D01*
X107825000Y-115456250D01*
X107823947Y-115477691D01*
X107820797Y-115498926D01*
X107815581Y-115519750D01*
X107808349Y-115539962D01*
X107799170Y-115559368D01*
X107788134Y-115577781D01*
X107775346Y-115595024D01*
X107760930Y-115610930D01*
X107745024Y-115625346D01*
X107727781Y-115638134D01*
X107709368Y-115649170D01*
X107689962Y-115658349D01*
X107669750Y-115665581D01*
X107648926Y-115670797D01*
X107627691Y-115673947D01*
X107606250Y-115675000D01*
X107168750Y-115675000D01*
X107147309Y-115673947D01*
X107126074Y-115670797D01*
X107105250Y-115665581D01*
X107085038Y-115658349D01*
X107065632Y-115649170D01*
X107047219Y-115638134D01*
X107029976Y-115625346D01*
X107014070Y-115610930D01*
X106999654Y-115595024D01*
X106986866Y-115577781D01*
X106975830Y-115559368D01*
X106966651Y-115539962D01*
X106959419Y-115519750D01*
X106954203Y-115498926D01*
X106951053Y-115477691D01*
X106950000Y-115456250D01*
X106950000Y-114943750D01*
X106951053Y-114922309D01*
X106954203Y-114901074D01*
X106959419Y-114880250D01*
X106966651Y-114860038D01*
X106975830Y-114840632D01*
X106986866Y-114822219D01*
X106999654Y-114804976D01*
X107014070Y-114789070D01*
X107029976Y-114774654D01*
X107047219Y-114761866D01*
X107065632Y-114750830D01*
X107085038Y-114741651D01*
X107105250Y-114734419D01*
X107126074Y-114729203D01*
X107147309Y-114726053D01*
X107168750Y-114725000D01*
X107606250Y-114725000D01*
X107627691Y-114726053D01*
X107627691Y-114726053D01*
G37*
D17*
X107387500Y-115200000D03*
D15*
G36*
X106052691Y-114726053D02*
G01*
X106073926Y-114729203D01*
X106094750Y-114734419D01*
X106114962Y-114741651D01*
X106134368Y-114750830D01*
X106152781Y-114761866D01*
X106170024Y-114774654D01*
X106185930Y-114789070D01*
X106200346Y-114804976D01*
X106213134Y-114822219D01*
X106224170Y-114840632D01*
X106233349Y-114860038D01*
X106240581Y-114880250D01*
X106245797Y-114901074D01*
X106248947Y-114922309D01*
X106250000Y-114943750D01*
X106250000Y-115456250D01*
X106248947Y-115477691D01*
X106245797Y-115498926D01*
X106240581Y-115519750D01*
X106233349Y-115539962D01*
X106224170Y-115559368D01*
X106213134Y-115577781D01*
X106200346Y-115595024D01*
X106185930Y-115610930D01*
X106170024Y-115625346D01*
X106152781Y-115638134D01*
X106134368Y-115649170D01*
X106114962Y-115658349D01*
X106094750Y-115665581D01*
X106073926Y-115670797D01*
X106052691Y-115673947D01*
X106031250Y-115675000D01*
X105593750Y-115675000D01*
X105572309Y-115673947D01*
X105551074Y-115670797D01*
X105530250Y-115665581D01*
X105510038Y-115658349D01*
X105490632Y-115649170D01*
X105472219Y-115638134D01*
X105454976Y-115625346D01*
X105439070Y-115610930D01*
X105424654Y-115595024D01*
X105411866Y-115577781D01*
X105400830Y-115559368D01*
X105391651Y-115539962D01*
X105384419Y-115519750D01*
X105379203Y-115498926D01*
X105376053Y-115477691D01*
X105375000Y-115456250D01*
X105375000Y-114943750D01*
X105376053Y-114922309D01*
X105379203Y-114901074D01*
X105384419Y-114880250D01*
X105391651Y-114860038D01*
X105400830Y-114840632D01*
X105411866Y-114822219D01*
X105424654Y-114804976D01*
X105439070Y-114789070D01*
X105454976Y-114774654D01*
X105472219Y-114761866D01*
X105490632Y-114750830D01*
X105510038Y-114741651D01*
X105530250Y-114734419D01*
X105551074Y-114729203D01*
X105572309Y-114726053D01*
X105593750Y-114725000D01*
X106031250Y-114725000D01*
X106052691Y-114726053D01*
X106052691Y-114726053D01*
G37*
D17*
X105812500Y-115200000D03*
D15*
G36*
X96576958Y-122080710D02*
G01*
X96591276Y-122082834D01*
X96605317Y-122086351D01*
X96618946Y-122091228D01*
X96632031Y-122097417D01*
X96644447Y-122104858D01*
X96656073Y-122113481D01*
X96666798Y-122123202D01*
X96676519Y-122133927D01*
X96685142Y-122145553D01*
X96692583Y-122157969D01*
X96698772Y-122171054D01*
X96703649Y-122184683D01*
X96707166Y-122198724D01*
X96709290Y-122213042D01*
X96710000Y-122227500D01*
X96710000Y-122572500D01*
X96709290Y-122586958D01*
X96707166Y-122601276D01*
X96703649Y-122615317D01*
X96698772Y-122628946D01*
X96692583Y-122642031D01*
X96685142Y-122654447D01*
X96676519Y-122666073D01*
X96666798Y-122676798D01*
X96656073Y-122686519D01*
X96644447Y-122695142D01*
X96632031Y-122702583D01*
X96618946Y-122708772D01*
X96605317Y-122713649D01*
X96591276Y-122717166D01*
X96576958Y-122719290D01*
X96562500Y-122720000D01*
X96267500Y-122720000D01*
X96253042Y-122719290D01*
X96238724Y-122717166D01*
X96224683Y-122713649D01*
X96211054Y-122708772D01*
X96197969Y-122702583D01*
X96185553Y-122695142D01*
X96173927Y-122686519D01*
X96163202Y-122676798D01*
X96153481Y-122666073D01*
X96144858Y-122654447D01*
X96137417Y-122642031D01*
X96131228Y-122628946D01*
X96126351Y-122615317D01*
X96122834Y-122601276D01*
X96120710Y-122586958D01*
X96120000Y-122572500D01*
X96120000Y-122227500D01*
X96120710Y-122213042D01*
X96122834Y-122198724D01*
X96126351Y-122184683D01*
X96131228Y-122171054D01*
X96137417Y-122157969D01*
X96144858Y-122145553D01*
X96153481Y-122133927D01*
X96163202Y-122123202D01*
X96173927Y-122113481D01*
X96185553Y-122104858D01*
X96197969Y-122097417D01*
X96211054Y-122091228D01*
X96224683Y-122086351D01*
X96238724Y-122082834D01*
X96253042Y-122080710D01*
X96267500Y-122080000D01*
X96562500Y-122080000D01*
X96576958Y-122080710D01*
X96576958Y-122080710D01*
G37*
D16*
X96415000Y-122400000D03*
D15*
G36*
X97546958Y-122080710D02*
G01*
X97561276Y-122082834D01*
X97575317Y-122086351D01*
X97588946Y-122091228D01*
X97602031Y-122097417D01*
X97614447Y-122104858D01*
X97626073Y-122113481D01*
X97636798Y-122123202D01*
X97646519Y-122133927D01*
X97655142Y-122145553D01*
X97662583Y-122157969D01*
X97668772Y-122171054D01*
X97673649Y-122184683D01*
X97677166Y-122198724D01*
X97679290Y-122213042D01*
X97680000Y-122227500D01*
X97680000Y-122572500D01*
X97679290Y-122586958D01*
X97677166Y-122601276D01*
X97673649Y-122615317D01*
X97668772Y-122628946D01*
X97662583Y-122642031D01*
X97655142Y-122654447D01*
X97646519Y-122666073D01*
X97636798Y-122676798D01*
X97626073Y-122686519D01*
X97614447Y-122695142D01*
X97602031Y-122702583D01*
X97588946Y-122708772D01*
X97575317Y-122713649D01*
X97561276Y-122717166D01*
X97546958Y-122719290D01*
X97532500Y-122720000D01*
X97237500Y-122720000D01*
X97223042Y-122719290D01*
X97208724Y-122717166D01*
X97194683Y-122713649D01*
X97181054Y-122708772D01*
X97167969Y-122702583D01*
X97155553Y-122695142D01*
X97143927Y-122686519D01*
X97133202Y-122676798D01*
X97123481Y-122666073D01*
X97114858Y-122654447D01*
X97107417Y-122642031D01*
X97101228Y-122628946D01*
X97096351Y-122615317D01*
X97092834Y-122601276D01*
X97090710Y-122586958D01*
X97090000Y-122572500D01*
X97090000Y-122227500D01*
X97090710Y-122213042D01*
X97092834Y-122198724D01*
X97096351Y-122184683D01*
X97101228Y-122171054D01*
X97107417Y-122157969D01*
X97114858Y-122145553D01*
X97123481Y-122133927D01*
X97133202Y-122123202D01*
X97143927Y-122113481D01*
X97155553Y-122104858D01*
X97167969Y-122097417D01*
X97181054Y-122091228D01*
X97194683Y-122086351D01*
X97208724Y-122082834D01*
X97223042Y-122080710D01*
X97237500Y-122080000D01*
X97532500Y-122080000D01*
X97546958Y-122080710D01*
X97546958Y-122080710D01*
G37*
D16*
X97385000Y-122400000D03*
D15*
G36*
X97776958Y-119680710D02*
G01*
X97791276Y-119682834D01*
X97805317Y-119686351D01*
X97818946Y-119691228D01*
X97832031Y-119697417D01*
X97844447Y-119704858D01*
X97856073Y-119713481D01*
X97866798Y-119723202D01*
X97876519Y-119733927D01*
X97885142Y-119745553D01*
X97892583Y-119757969D01*
X97898772Y-119771054D01*
X97903649Y-119784683D01*
X97907166Y-119798724D01*
X97909290Y-119813042D01*
X97910000Y-119827500D01*
X97910000Y-120172500D01*
X97909290Y-120186958D01*
X97907166Y-120201276D01*
X97903649Y-120215317D01*
X97898772Y-120228946D01*
X97892583Y-120242031D01*
X97885142Y-120254447D01*
X97876519Y-120266073D01*
X97866798Y-120276798D01*
X97856073Y-120286519D01*
X97844447Y-120295142D01*
X97832031Y-120302583D01*
X97818946Y-120308772D01*
X97805317Y-120313649D01*
X97791276Y-120317166D01*
X97776958Y-120319290D01*
X97762500Y-120320000D01*
X97467500Y-120320000D01*
X97453042Y-120319290D01*
X97438724Y-120317166D01*
X97424683Y-120313649D01*
X97411054Y-120308772D01*
X97397969Y-120302583D01*
X97385553Y-120295142D01*
X97373927Y-120286519D01*
X97363202Y-120276798D01*
X97353481Y-120266073D01*
X97344858Y-120254447D01*
X97337417Y-120242031D01*
X97331228Y-120228946D01*
X97326351Y-120215317D01*
X97322834Y-120201276D01*
X97320710Y-120186958D01*
X97320000Y-120172500D01*
X97320000Y-119827500D01*
X97320710Y-119813042D01*
X97322834Y-119798724D01*
X97326351Y-119784683D01*
X97331228Y-119771054D01*
X97337417Y-119757969D01*
X97344858Y-119745553D01*
X97353481Y-119733927D01*
X97363202Y-119723202D01*
X97373927Y-119713481D01*
X97385553Y-119704858D01*
X97397969Y-119697417D01*
X97411054Y-119691228D01*
X97424683Y-119686351D01*
X97438724Y-119682834D01*
X97453042Y-119680710D01*
X97467500Y-119680000D01*
X97762500Y-119680000D01*
X97776958Y-119680710D01*
X97776958Y-119680710D01*
G37*
D16*
X97615000Y-120000000D03*
D15*
G36*
X98746958Y-119680710D02*
G01*
X98761276Y-119682834D01*
X98775317Y-119686351D01*
X98788946Y-119691228D01*
X98802031Y-119697417D01*
X98814447Y-119704858D01*
X98826073Y-119713481D01*
X98836798Y-119723202D01*
X98846519Y-119733927D01*
X98855142Y-119745553D01*
X98862583Y-119757969D01*
X98868772Y-119771054D01*
X98873649Y-119784683D01*
X98877166Y-119798724D01*
X98879290Y-119813042D01*
X98880000Y-119827500D01*
X98880000Y-120172500D01*
X98879290Y-120186958D01*
X98877166Y-120201276D01*
X98873649Y-120215317D01*
X98868772Y-120228946D01*
X98862583Y-120242031D01*
X98855142Y-120254447D01*
X98846519Y-120266073D01*
X98836798Y-120276798D01*
X98826073Y-120286519D01*
X98814447Y-120295142D01*
X98802031Y-120302583D01*
X98788946Y-120308772D01*
X98775317Y-120313649D01*
X98761276Y-120317166D01*
X98746958Y-120319290D01*
X98732500Y-120320000D01*
X98437500Y-120320000D01*
X98423042Y-120319290D01*
X98408724Y-120317166D01*
X98394683Y-120313649D01*
X98381054Y-120308772D01*
X98367969Y-120302583D01*
X98355553Y-120295142D01*
X98343927Y-120286519D01*
X98333202Y-120276798D01*
X98323481Y-120266073D01*
X98314858Y-120254447D01*
X98307417Y-120242031D01*
X98301228Y-120228946D01*
X98296351Y-120215317D01*
X98292834Y-120201276D01*
X98290710Y-120186958D01*
X98290000Y-120172500D01*
X98290000Y-119827500D01*
X98290710Y-119813042D01*
X98292834Y-119798724D01*
X98296351Y-119784683D01*
X98301228Y-119771054D01*
X98307417Y-119757969D01*
X98314858Y-119745553D01*
X98323481Y-119733927D01*
X98333202Y-119723202D01*
X98343927Y-119713481D01*
X98355553Y-119704858D01*
X98367969Y-119697417D01*
X98381054Y-119691228D01*
X98394683Y-119686351D01*
X98408724Y-119682834D01*
X98423042Y-119680710D01*
X98437500Y-119680000D01*
X98732500Y-119680000D01*
X98746958Y-119680710D01*
X98746958Y-119680710D01*
G37*
D16*
X98585000Y-120000000D03*
D15*
G36*
X90776958Y-119680710D02*
G01*
X90791276Y-119682834D01*
X90805317Y-119686351D01*
X90818946Y-119691228D01*
X90832031Y-119697417D01*
X90844447Y-119704858D01*
X90856073Y-119713481D01*
X90866798Y-119723202D01*
X90876519Y-119733927D01*
X90885142Y-119745553D01*
X90892583Y-119757969D01*
X90898772Y-119771054D01*
X90903649Y-119784683D01*
X90907166Y-119798724D01*
X90909290Y-119813042D01*
X90910000Y-119827500D01*
X90910000Y-120172500D01*
X90909290Y-120186958D01*
X90907166Y-120201276D01*
X90903649Y-120215317D01*
X90898772Y-120228946D01*
X90892583Y-120242031D01*
X90885142Y-120254447D01*
X90876519Y-120266073D01*
X90866798Y-120276798D01*
X90856073Y-120286519D01*
X90844447Y-120295142D01*
X90832031Y-120302583D01*
X90818946Y-120308772D01*
X90805317Y-120313649D01*
X90791276Y-120317166D01*
X90776958Y-120319290D01*
X90762500Y-120320000D01*
X90467500Y-120320000D01*
X90453042Y-120319290D01*
X90438724Y-120317166D01*
X90424683Y-120313649D01*
X90411054Y-120308772D01*
X90397969Y-120302583D01*
X90385553Y-120295142D01*
X90373927Y-120286519D01*
X90363202Y-120276798D01*
X90353481Y-120266073D01*
X90344858Y-120254447D01*
X90337417Y-120242031D01*
X90331228Y-120228946D01*
X90326351Y-120215317D01*
X90322834Y-120201276D01*
X90320710Y-120186958D01*
X90320000Y-120172500D01*
X90320000Y-119827500D01*
X90320710Y-119813042D01*
X90322834Y-119798724D01*
X90326351Y-119784683D01*
X90331228Y-119771054D01*
X90337417Y-119757969D01*
X90344858Y-119745553D01*
X90353481Y-119733927D01*
X90363202Y-119723202D01*
X90373927Y-119713481D01*
X90385553Y-119704858D01*
X90397969Y-119697417D01*
X90411054Y-119691228D01*
X90424683Y-119686351D01*
X90438724Y-119682834D01*
X90453042Y-119680710D01*
X90467500Y-119680000D01*
X90762500Y-119680000D01*
X90776958Y-119680710D01*
X90776958Y-119680710D01*
G37*
D16*
X90615000Y-120000000D03*
D15*
G36*
X91746958Y-119680710D02*
G01*
X91761276Y-119682834D01*
X91775317Y-119686351D01*
X91788946Y-119691228D01*
X91802031Y-119697417D01*
X91814447Y-119704858D01*
X91826073Y-119713481D01*
X91836798Y-119723202D01*
X91846519Y-119733927D01*
X91855142Y-119745553D01*
X91862583Y-119757969D01*
X91868772Y-119771054D01*
X91873649Y-119784683D01*
X91877166Y-119798724D01*
X91879290Y-119813042D01*
X91880000Y-119827500D01*
X91880000Y-120172500D01*
X91879290Y-120186958D01*
X91877166Y-120201276D01*
X91873649Y-120215317D01*
X91868772Y-120228946D01*
X91862583Y-120242031D01*
X91855142Y-120254447D01*
X91846519Y-120266073D01*
X91836798Y-120276798D01*
X91826073Y-120286519D01*
X91814447Y-120295142D01*
X91802031Y-120302583D01*
X91788946Y-120308772D01*
X91775317Y-120313649D01*
X91761276Y-120317166D01*
X91746958Y-120319290D01*
X91732500Y-120320000D01*
X91437500Y-120320000D01*
X91423042Y-120319290D01*
X91408724Y-120317166D01*
X91394683Y-120313649D01*
X91381054Y-120308772D01*
X91367969Y-120302583D01*
X91355553Y-120295142D01*
X91343927Y-120286519D01*
X91333202Y-120276798D01*
X91323481Y-120266073D01*
X91314858Y-120254447D01*
X91307417Y-120242031D01*
X91301228Y-120228946D01*
X91296351Y-120215317D01*
X91292834Y-120201276D01*
X91290710Y-120186958D01*
X91290000Y-120172500D01*
X91290000Y-119827500D01*
X91290710Y-119813042D01*
X91292834Y-119798724D01*
X91296351Y-119784683D01*
X91301228Y-119771054D01*
X91307417Y-119757969D01*
X91314858Y-119745553D01*
X91323481Y-119733927D01*
X91333202Y-119723202D01*
X91343927Y-119713481D01*
X91355553Y-119704858D01*
X91367969Y-119697417D01*
X91381054Y-119691228D01*
X91394683Y-119686351D01*
X91408724Y-119682834D01*
X91423042Y-119680710D01*
X91437500Y-119680000D01*
X91732500Y-119680000D01*
X91746958Y-119680710D01*
X91746958Y-119680710D01*
G37*
D16*
X91585000Y-120000000D03*
D15*
G36*
X99877691Y-116051053D02*
G01*
X99898926Y-116054203D01*
X99919750Y-116059419D01*
X99939962Y-116066651D01*
X99959368Y-116075830D01*
X99977781Y-116086866D01*
X99995024Y-116099654D01*
X100010930Y-116114070D01*
X100025346Y-116129976D01*
X100038134Y-116147219D01*
X100049170Y-116165632D01*
X100058349Y-116185038D01*
X100065581Y-116205250D01*
X100070797Y-116226074D01*
X100073947Y-116247309D01*
X100075000Y-116268750D01*
X100075000Y-116706250D01*
X100073947Y-116727691D01*
X100070797Y-116748926D01*
X100065581Y-116769750D01*
X100058349Y-116789962D01*
X100049170Y-116809368D01*
X100038134Y-116827781D01*
X100025346Y-116845024D01*
X100010930Y-116860930D01*
X99995024Y-116875346D01*
X99977781Y-116888134D01*
X99959368Y-116899170D01*
X99939962Y-116908349D01*
X99919750Y-116915581D01*
X99898926Y-116920797D01*
X99877691Y-116923947D01*
X99856250Y-116925000D01*
X99343750Y-116925000D01*
X99322309Y-116923947D01*
X99301074Y-116920797D01*
X99280250Y-116915581D01*
X99260038Y-116908349D01*
X99240632Y-116899170D01*
X99222219Y-116888134D01*
X99204976Y-116875346D01*
X99189070Y-116860930D01*
X99174654Y-116845024D01*
X99161866Y-116827781D01*
X99150830Y-116809368D01*
X99141651Y-116789962D01*
X99134419Y-116769750D01*
X99129203Y-116748926D01*
X99126053Y-116727691D01*
X99125000Y-116706250D01*
X99125000Y-116268750D01*
X99126053Y-116247309D01*
X99129203Y-116226074D01*
X99134419Y-116205250D01*
X99141651Y-116185038D01*
X99150830Y-116165632D01*
X99161866Y-116147219D01*
X99174654Y-116129976D01*
X99189070Y-116114070D01*
X99204976Y-116099654D01*
X99222219Y-116086866D01*
X99240632Y-116075830D01*
X99260038Y-116066651D01*
X99280250Y-116059419D01*
X99301074Y-116054203D01*
X99322309Y-116051053D01*
X99343750Y-116050000D01*
X99856250Y-116050000D01*
X99877691Y-116051053D01*
X99877691Y-116051053D01*
G37*
D17*
X99600000Y-116487500D03*
D15*
G36*
X99877691Y-114476053D02*
G01*
X99898926Y-114479203D01*
X99919750Y-114484419D01*
X99939962Y-114491651D01*
X99959368Y-114500830D01*
X99977781Y-114511866D01*
X99995024Y-114524654D01*
X100010930Y-114539070D01*
X100025346Y-114554976D01*
X100038134Y-114572219D01*
X100049170Y-114590632D01*
X100058349Y-114610038D01*
X100065581Y-114630250D01*
X100070797Y-114651074D01*
X100073947Y-114672309D01*
X100075000Y-114693750D01*
X100075000Y-115131250D01*
X100073947Y-115152691D01*
X100070797Y-115173926D01*
X100065581Y-115194750D01*
X100058349Y-115214962D01*
X100049170Y-115234368D01*
X100038134Y-115252781D01*
X100025346Y-115270024D01*
X100010930Y-115285930D01*
X99995024Y-115300346D01*
X99977781Y-115313134D01*
X99959368Y-115324170D01*
X99939962Y-115333349D01*
X99919750Y-115340581D01*
X99898926Y-115345797D01*
X99877691Y-115348947D01*
X99856250Y-115350000D01*
X99343750Y-115350000D01*
X99322309Y-115348947D01*
X99301074Y-115345797D01*
X99280250Y-115340581D01*
X99260038Y-115333349D01*
X99240632Y-115324170D01*
X99222219Y-115313134D01*
X99204976Y-115300346D01*
X99189070Y-115285930D01*
X99174654Y-115270024D01*
X99161866Y-115252781D01*
X99150830Y-115234368D01*
X99141651Y-115214962D01*
X99134419Y-115194750D01*
X99129203Y-115173926D01*
X99126053Y-115152691D01*
X99125000Y-115131250D01*
X99125000Y-114693750D01*
X99126053Y-114672309D01*
X99129203Y-114651074D01*
X99134419Y-114630250D01*
X99141651Y-114610038D01*
X99150830Y-114590632D01*
X99161866Y-114572219D01*
X99174654Y-114554976D01*
X99189070Y-114539070D01*
X99204976Y-114524654D01*
X99222219Y-114511866D01*
X99240632Y-114500830D01*
X99260038Y-114491651D01*
X99280250Y-114484419D01*
X99301074Y-114479203D01*
X99322309Y-114476053D01*
X99343750Y-114475000D01*
X99856250Y-114475000D01*
X99877691Y-114476053D01*
X99877691Y-114476053D01*
G37*
D17*
X99600000Y-114912500D03*
D15*
G36*
X101802691Y-113026053D02*
G01*
X101823926Y-113029203D01*
X101844750Y-113034419D01*
X101864962Y-113041651D01*
X101884368Y-113050830D01*
X101902781Y-113061866D01*
X101920024Y-113074654D01*
X101935930Y-113089070D01*
X101950346Y-113104976D01*
X101963134Y-113122219D01*
X101974170Y-113140632D01*
X101983349Y-113160038D01*
X101990581Y-113180250D01*
X101995797Y-113201074D01*
X101998947Y-113222309D01*
X102000000Y-113243750D01*
X102000000Y-113756250D01*
X101998947Y-113777691D01*
X101995797Y-113798926D01*
X101990581Y-113819750D01*
X101983349Y-113839962D01*
X101974170Y-113859368D01*
X101963134Y-113877781D01*
X101950346Y-113895024D01*
X101935930Y-113910930D01*
X101920024Y-113925346D01*
X101902781Y-113938134D01*
X101884368Y-113949170D01*
X101864962Y-113958349D01*
X101844750Y-113965581D01*
X101823926Y-113970797D01*
X101802691Y-113973947D01*
X101781250Y-113975000D01*
X101343750Y-113975000D01*
X101322309Y-113973947D01*
X101301074Y-113970797D01*
X101280250Y-113965581D01*
X101260038Y-113958349D01*
X101240632Y-113949170D01*
X101222219Y-113938134D01*
X101204976Y-113925346D01*
X101189070Y-113910930D01*
X101174654Y-113895024D01*
X101161866Y-113877781D01*
X101150830Y-113859368D01*
X101141651Y-113839962D01*
X101134419Y-113819750D01*
X101129203Y-113798926D01*
X101126053Y-113777691D01*
X101125000Y-113756250D01*
X101125000Y-113243750D01*
X101126053Y-113222309D01*
X101129203Y-113201074D01*
X101134419Y-113180250D01*
X101141651Y-113160038D01*
X101150830Y-113140632D01*
X101161866Y-113122219D01*
X101174654Y-113104976D01*
X101189070Y-113089070D01*
X101204976Y-113074654D01*
X101222219Y-113061866D01*
X101240632Y-113050830D01*
X101260038Y-113041651D01*
X101280250Y-113034419D01*
X101301074Y-113029203D01*
X101322309Y-113026053D01*
X101343750Y-113025000D01*
X101781250Y-113025000D01*
X101802691Y-113026053D01*
X101802691Y-113026053D01*
G37*
D17*
X101562500Y-113500000D03*
D15*
G36*
X103377691Y-113026053D02*
G01*
X103398926Y-113029203D01*
X103419750Y-113034419D01*
X103439962Y-113041651D01*
X103459368Y-113050830D01*
X103477781Y-113061866D01*
X103495024Y-113074654D01*
X103510930Y-113089070D01*
X103525346Y-113104976D01*
X103538134Y-113122219D01*
X103549170Y-113140632D01*
X103558349Y-113160038D01*
X103565581Y-113180250D01*
X103570797Y-113201074D01*
X103573947Y-113222309D01*
X103575000Y-113243750D01*
X103575000Y-113756250D01*
X103573947Y-113777691D01*
X103570797Y-113798926D01*
X103565581Y-113819750D01*
X103558349Y-113839962D01*
X103549170Y-113859368D01*
X103538134Y-113877781D01*
X103525346Y-113895024D01*
X103510930Y-113910930D01*
X103495024Y-113925346D01*
X103477781Y-113938134D01*
X103459368Y-113949170D01*
X103439962Y-113958349D01*
X103419750Y-113965581D01*
X103398926Y-113970797D01*
X103377691Y-113973947D01*
X103356250Y-113975000D01*
X102918750Y-113975000D01*
X102897309Y-113973947D01*
X102876074Y-113970797D01*
X102855250Y-113965581D01*
X102835038Y-113958349D01*
X102815632Y-113949170D01*
X102797219Y-113938134D01*
X102779976Y-113925346D01*
X102764070Y-113910930D01*
X102749654Y-113895024D01*
X102736866Y-113877781D01*
X102725830Y-113859368D01*
X102716651Y-113839962D01*
X102709419Y-113819750D01*
X102704203Y-113798926D01*
X102701053Y-113777691D01*
X102700000Y-113756250D01*
X102700000Y-113243750D01*
X102701053Y-113222309D01*
X102704203Y-113201074D01*
X102709419Y-113180250D01*
X102716651Y-113160038D01*
X102725830Y-113140632D01*
X102736866Y-113122219D01*
X102749654Y-113104976D01*
X102764070Y-113089070D01*
X102779976Y-113074654D01*
X102797219Y-113061866D01*
X102815632Y-113050830D01*
X102835038Y-113041651D01*
X102855250Y-113034419D01*
X102876074Y-113029203D01*
X102897309Y-113026053D01*
X102918750Y-113025000D01*
X103356250Y-113025000D01*
X103377691Y-113026053D01*
X103377691Y-113026053D01*
G37*
D17*
X103137500Y-113500000D03*
M02*
