G04 #@! TF.GenerationSoftware,KiCad,Pcbnew,(5.1.2)-1*
G04 #@! TF.CreationDate,2019-06-19T11:16:05+10:00*
G04 #@! TF.ProjectId,Ecal,4563616c-2e6b-4696-9361-645f70636258,rev?*
G04 #@! TF.SameCoordinates,Original*
G04 #@! TF.FileFunction,Legend,Top*
G04 #@! TF.FilePolarity,Positive*
%FSLAX46Y46*%
G04 Gerber Fmt 4.6, Leading zero omitted, Abs format (unit mm)*
G04 Created by KiCad (PCBNEW (5.1.2)-1) date 2019-06-19 11:16:05*
%MOMM*%
%LPD*%
G04 APERTURE LIST*
%ADD10C,0.150000*%
%ADD11C,0.120000*%
%ADD12C,0.200000*%
G04 APERTURE END LIST*
D10*
X108976190Y-125452380D02*
X108976190Y-124452380D01*
X109357142Y-124452380D01*
X109452380Y-124500000D01*
X109500000Y-124547619D01*
X109547619Y-124642857D01*
X109547619Y-124785714D01*
X109500000Y-124880952D01*
X109452380Y-124928571D01*
X109357142Y-124976190D01*
X108976190Y-124976190D01*
X110166666Y-124452380D02*
X110357142Y-124452380D01*
X110452380Y-124500000D01*
X110547619Y-124595238D01*
X110595238Y-124785714D01*
X110595238Y-125119047D01*
X110547619Y-125309523D01*
X110452380Y-125404761D01*
X110357142Y-125452380D01*
X110166666Y-125452380D01*
X110071428Y-125404761D01*
X109976190Y-125309523D01*
X109928571Y-125119047D01*
X109928571Y-124785714D01*
X109976190Y-124595238D01*
X110071428Y-124500000D01*
X110166666Y-124452380D01*
X111595238Y-125452380D02*
X111261904Y-124976190D01*
X111023809Y-125452380D02*
X111023809Y-124452380D01*
X111404761Y-124452380D01*
X111500000Y-124500000D01*
X111547619Y-124547619D01*
X111595238Y-124642857D01*
X111595238Y-124785714D01*
X111547619Y-124880952D01*
X111500000Y-124928571D01*
X111404761Y-124976190D01*
X111023809Y-124976190D01*
X111880952Y-124452380D02*
X112452380Y-124452380D01*
X112166666Y-125452380D02*
X112166666Y-124452380D01*
X113500000Y-124547619D02*
X113547619Y-124500000D01*
X113642857Y-124452380D01*
X113880952Y-124452380D01*
X113976190Y-124500000D01*
X114023809Y-124547619D01*
X114071428Y-124642857D01*
X114071428Y-124738095D01*
X114023809Y-124880952D01*
X113452380Y-125452380D01*
X114071428Y-125452380D01*
X85976190Y-125452380D02*
X85976190Y-124452380D01*
X86357142Y-124452380D01*
X86452380Y-124500000D01*
X86500000Y-124547619D01*
X86547619Y-124642857D01*
X86547619Y-124785714D01*
X86500000Y-124880952D01*
X86452380Y-124928571D01*
X86357142Y-124976190D01*
X85976190Y-124976190D01*
X87166666Y-124452380D02*
X87357142Y-124452380D01*
X87452380Y-124500000D01*
X87547619Y-124595238D01*
X87595238Y-124785714D01*
X87595238Y-125119047D01*
X87547619Y-125309523D01*
X87452380Y-125404761D01*
X87357142Y-125452380D01*
X87166666Y-125452380D01*
X87071428Y-125404761D01*
X86976190Y-125309523D01*
X86928571Y-125119047D01*
X86928571Y-124785714D01*
X86976190Y-124595238D01*
X87071428Y-124500000D01*
X87166666Y-124452380D01*
X88595238Y-125452380D02*
X88261904Y-124976190D01*
X88023809Y-125452380D02*
X88023809Y-124452380D01*
X88404761Y-124452380D01*
X88500000Y-124500000D01*
X88547619Y-124547619D01*
X88595238Y-124642857D01*
X88595238Y-124785714D01*
X88547619Y-124880952D01*
X88500000Y-124928571D01*
X88404761Y-124976190D01*
X88023809Y-124976190D01*
X88880952Y-124452380D02*
X89452380Y-124452380D01*
X89166666Y-125452380D02*
X89166666Y-124452380D01*
X91071428Y-125452380D02*
X90500000Y-125452380D01*
X90785714Y-125452380D02*
X90785714Y-124452380D01*
X90690476Y-124595238D01*
X90595238Y-124690476D01*
X90500000Y-124738095D01*
X93175000Y-121375000D02*
X93675000Y-121375000D01*
X93175000Y-118125000D02*
X93675000Y-118125000D01*
X96425000Y-118125000D02*
X95925000Y-118125000D01*
X96425000Y-121375000D02*
X95925000Y-121375000D01*
X93175000Y-118125000D02*
X93175000Y-118625000D01*
X96425000Y-118125000D02*
X96425000Y-118625000D01*
X93175000Y-121375000D02*
X93175000Y-120875000D01*
X100650000Y-114500000D02*
X102825000Y-114500000D01*
X101375000Y-116700000D02*
X102825000Y-116700000D01*
D11*
X106437221Y-117310000D02*
X106762779Y-117310000D01*
X106437221Y-116290000D02*
X106762779Y-116290000D01*
X102458578Y-111090000D02*
X101941422Y-111090000D01*
X102458578Y-112510000D02*
X101941422Y-112510000D01*
X105115000Y-115935000D02*
X107400000Y-115935000D01*
X105115000Y-114465000D02*
X105115000Y-115935000D01*
X107400000Y-114465000D02*
X105115000Y-114465000D01*
X99090000Y-115537221D02*
X99090000Y-115862779D01*
X100110000Y-115537221D02*
X100110000Y-115862779D01*
X102512779Y-112990000D02*
X102187221Y-112990000D01*
X102512779Y-114010000D02*
X102187221Y-114010000D01*
D10*
X101642857Y-131452380D02*
X101309523Y-130976190D01*
X101071428Y-131452380D02*
X101071428Y-130452380D01*
X101452380Y-130452380D01*
X101547619Y-130500000D01*
X101595238Y-130547619D01*
X101642857Y-130642857D01*
X101642857Y-130785714D01*
X101595238Y-130880952D01*
X101547619Y-130928571D01*
X101452380Y-130976190D01*
X101071428Y-130976190D01*
X102452380Y-131404761D02*
X102357142Y-131452380D01*
X102166666Y-131452380D01*
X102071428Y-131404761D01*
X102023809Y-131309523D01*
X102023809Y-130928571D01*
X102071428Y-130833333D01*
X102166666Y-130785714D01*
X102357142Y-130785714D01*
X102452380Y-130833333D01*
X102500000Y-130928571D01*
X102500000Y-131023809D01*
X102023809Y-131119047D01*
X102833333Y-130785714D02*
X103071428Y-131452380D01*
X103309523Y-130785714D01*
X104642857Y-130452380D02*
X104738095Y-130452380D01*
X104833333Y-130500000D01*
X104880952Y-130547619D01*
X104928571Y-130642857D01*
X104976190Y-130833333D01*
X104976190Y-131071428D01*
X104928571Y-131261904D01*
X104880952Y-131357142D01*
X104833333Y-131404761D01*
X104738095Y-131452380D01*
X104642857Y-131452380D01*
X104547619Y-131404761D01*
X104500000Y-131357142D01*
X104452380Y-131261904D01*
X104404761Y-131071428D01*
X104404761Y-130833333D01*
X104452380Y-130642857D01*
X104500000Y-130547619D01*
X104547619Y-130500000D01*
X104642857Y-130452380D01*
D12*
X95000000Y-128478571D02*
X95500000Y-129978571D01*
X96000000Y-128478571D01*
X96500000Y-129978571D02*
X96500000Y-128478571D01*
X97357142Y-129978571D01*
X97357142Y-128478571D01*
X98000000Y-129550000D02*
X98714285Y-129550000D01*
X97857142Y-129978571D02*
X98357142Y-128478571D01*
X98857142Y-129978571D01*
X100500000Y-129192857D02*
X101000000Y-129192857D01*
X101214285Y-129978571D02*
X100500000Y-129978571D01*
X100500000Y-128478571D01*
X101214285Y-128478571D01*
X102714285Y-129835714D02*
X102642857Y-129907142D01*
X102428571Y-129978571D01*
X102285714Y-129978571D01*
X102071428Y-129907142D01*
X101928571Y-129764285D01*
X101857142Y-129621428D01*
X101785714Y-129335714D01*
X101785714Y-129121428D01*
X101857142Y-128835714D01*
X101928571Y-128692857D01*
X102071428Y-128550000D01*
X102285714Y-128478571D01*
X102428571Y-128478571D01*
X102642857Y-128550000D01*
X102714285Y-128621428D01*
X104000000Y-129978571D02*
X104000000Y-129192857D01*
X103928571Y-129050000D01*
X103785714Y-128978571D01*
X103500000Y-128978571D01*
X103357142Y-129050000D01*
X104000000Y-129907142D02*
X103857142Y-129978571D01*
X103500000Y-129978571D01*
X103357142Y-129907142D01*
X103285714Y-129764285D01*
X103285714Y-129621428D01*
X103357142Y-129478571D01*
X103500000Y-129407142D01*
X103857142Y-129407142D01*
X104000000Y-129335714D01*
X104928571Y-129978571D02*
X104785714Y-129907142D01*
X104714285Y-129764285D01*
X104714285Y-128478571D01*
D10*
X92738095Y-121952380D02*
X92738095Y-122761904D01*
X92785714Y-122857142D01*
X92833333Y-122904761D01*
X92928571Y-122952380D01*
X93119047Y-122952380D01*
X93214285Y-122904761D01*
X93261904Y-122857142D01*
X93309523Y-122761904D01*
X93309523Y-121952380D01*
X93738095Y-122047619D02*
X93785714Y-122000000D01*
X93880952Y-121952380D01*
X94119047Y-121952380D01*
X94214285Y-122000000D01*
X94261904Y-122047619D01*
X94309523Y-122142857D01*
X94309523Y-122238095D01*
X94261904Y-122380952D01*
X93690476Y-122952380D01*
X94309523Y-122952380D01*
X101338095Y-117052380D02*
X101338095Y-117861904D01*
X101385714Y-117957142D01*
X101433333Y-118004761D01*
X101528571Y-118052380D01*
X101719047Y-118052380D01*
X101814285Y-118004761D01*
X101861904Y-117957142D01*
X101909523Y-117861904D01*
X101909523Y-117052380D01*
X102909523Y-118052380D02*
X102338095Y-118052380D01*
X102623809Y-118052380D02*
X102623809Y-117052380D01*
X102528571Y-117195238D01*
X102433333Y-117290476D01*
X102338095Y-117338095D01*
X94332380Y-116551666D02*
X93856190Y-116885000D01*
X94332380Y-117123095D02*
X93332380Y-117123095D01*
X93332380Y-116742142D01*
X93380000Y-116646904D01*
X93427619Y-116599285D01*
X93522857Y-116551666D01*
X93665714Y-116551666D01*
X93760952Y-116599285D01*
X93808571Y-116646904D01*
X93856190Y-116742142D01*
X93856190Y-117123095D01*
X93332380Y-116218333D02*
X93332380Y-115599285D01*
X93713333Y-115932619D01*
X93713333Y-115789761D01*
X93760952Y-115694523D01*
X93808571Y-115646904D01*
X93903809Y-115599285D01*
X94141904Y-115599285D01*
X94237142Y-115646904D01*
X94284761Y-115694523D01*
X94332380Y-115789761D01*
X94332380Y-116075476D01*
X94284761Y-116170714D01*
X94237142Y-116218333D01*
X108833333Y-117252380D02*
X108500000Y-116776190D01*
X108261904Y-117252380D02*
X108261904Y-116252380D01*
X108642857Y-116252380D01*
X108738095Y-116300000D01*
X108785714Y-116347619D01*
X108833333Y-116442857D01*
X108833333Y-116585714D01*
X108785714Y-116680952D01*
X108738095Y-116728571D01*
X108642857Y-116776190D01*
X108261904Y-116776190D01*
X109214285Y-116347619D02*
X109261904Y-116300000D01*
X109357142Y-116252380D01*
X109595238Y-116252380D01*
X109690476Y-116300000D01*
X109738095Y-116347619D01*
X109785714Y-116442857D01*
X109785714Y-116538095D01*
X109738095Y-116680952D01*
X109166666Y-117252380D01*
X109785714Y-117252380D01*
X104466666Y-111728571D02*
X104133333Y-111728571D01*
X104133333Y-112252380D02*
X104133333Y-111252380D01*
X104609523Y-111252380D01*
X105514285Y-112252380D02*
X104942857Y-112252380D01*
X105228571Y-112252380D02*
X105228571Y-111252380D01*
X105133333Y-111395238D01*
X105038095Y-111490476D01*
X104942857Y-111538095D01*
X108261904Y-115652380D02*
X108261904Y-114652380D01*
X108500000Y-114652380D01*
X108642857Y-114700000D01*
X108738095Y-114795238D01*
X108785714Y-114890476D01*
X108833333Y-115080952D01*
X108833333Y-115223809D01*
X108785714Y-115414285D01*
X108738095Y-115509523D01*
X108642857Y-115604761D01*
X108500000Y-115652380D01*
X108261904Y-115652380D01*
X109214285Y-114747619D02*
X109261904Y-114700000D01*
X109357142Y-114652380D01*
X109595238Y-114652380D01*
X109690476Y-114700000D01*
X109738095Y-114747619D01*
X109785714Y-114842857D01*
X109785714Y-114938095D01*
X109738095Y-115080952D01*
X109166666Y-115652380D01*
X109785714Y-115652380D01*
X96733333Y-123927142D02*
X96685714Y-123974761D01*
X96542857Y-124022380D01*
X96447619Y-124022380D01*
X96304761Y-123974761D01*
X96209523Y-123879523D01*
X96161904Y-123784285D01*
X96114285Y-123593809D01*
X96114285Y-123450952D01*
X96161904Y-123260476D01*
X96209523Y-123165238D01*
X96304761Y-123070000D01*
X96447619Y-123022380D01*
X96542857Y-123022380D01*
X96685714Y-123070000D01*
X96733333Y-123117619D01*
X97638095Y-123022380D02*
X97161904Y-123022380D01*
X97114285Y-123498571D01*
X97161904Y-123450952D01*
X97257142Y-123403333D01*
X97495238Y-123403333D01*
X97590476Y-123450952D01*
X97638095Y-123498571D01*
X97685714Y-123593809D01*
X97685714Y-123831904D01*
X97638095Y-123927142D01*
X97590476Y-123974761D01*
X97495238Y-124022380D01*
X97257142Y-124022380D01*
X97161904Y-123974761D01*
X97114285Y-123927142D01*
X97933333Y-121557142D02*
X97885714Y-121604761D01*
X97742857Y-121652380D01*
X97647619Y-121652380D01*
X97504761Y-121604761D01*
X97409523Y-121509523D01*
X97361904Y-121414285D01*
X97314285Y-121223809D01*
X97314285Y-121080952D01*
X97361904Y-120890476D01*
X97409523Y-120795238D01*
X97504761Y-120700000D01*
X97647619Y-120652380D01*
X97742857Y-120652380D01*
X97885714Y-120700000D01*
X97933333Y-120747619D01*
X98790476Y-120985714D02*
X98790476Y-121652380D01*
X98552380Y-120604761D02*
X98314285Y-121319047D01*
X98933333Y-121319047D01*
X90933333Y-121527142D02*
X90885714Y-121574761D01*
X90742857Y-121622380D01*
X90647619Y-121622380D01*
X90504761Y-121574761D01*
X90409523Y-121479523D01*
X90361904Y-121384285D01*
X90314285Y-121193809D01*
X90314285Y-121050952D01*
X90361904Y-120860476D01*
X90409523Y-120765238D01*
X90504761Y-120670000D01*
X90647619Y-120622380D01*
X90742857Y-120622380D01*
X90885714Y-120670000D01*
X90933333Y-120717619D01*
X91266666Y-120622380D02*
X91885714Y-120622380D01*
X91552380Y-121003333D01*
X91695238Y-121003333D01*
X91790476Y-121050952D01*
X91838095Y-121098571D01*
X91885714Y-121193809D01*
X91885714Y-121431904D01*
X91838095Y-121527142D01*
X91790476Y-121574761D01*
X91695238Y-121622380D01*
X91409523Y-121622380D01*
X91314285Y-121574761D01*
X91266666Y-121527142D01*
X99957142Y-113466666D02*
X100004761Y-113514285D01*
X100052380Y-113657142D01*
X100052380Y-113752380D01*
X100004761Y-113895238D01*
X99909523Y-113990476D01*
X99814285Y-114038095D01*
X99623809Y-114085714D01*
X99480952Y-114085714D01*
X99290476Y-114038095D01*
X99195238Y-113990476D01*
X99100000Y-113895238D01*
X99052380Y-113752380D01*
X99052380Y-113657142D01*
X99100000Y-113514285D01*
X99147619Y-113466666D01*
X99147619Y-113085714D02*
X99100000Y-113038095D01*
X99052380Y-112942857D01*
X99052380Y-112704761D01*
X99100000Y-112609523D01*
X99147619Y-112561904D01*
X99242857Y-112514285D01*
X99338095Y-112514285D01*
X99480952Y-112561904D01*
X100052380Y-113133333D01*
X100052380Y-112514285D01*
X104633333Y-113857142D02*
X104585714Y-113904761D01*
X104442857Y-113952380D01*
X104347619Y-113952380D01*
X104204761Y-113904761D01*
X104109523Y-113809523D01*
X104061904Y-113714285D01*
X104014285Y-113523809D01*
X104014285Y-113380952D01*
X104061904Y-113190476D01*
X104109523Y-113095238D01*
X104204761Y-113000000D01*
X104347619Y-112952380D01*
X104442857Y-112952380D01*
X104585714Y-113000000D01*
X104633333Y-113047619D01*
X105585714Y-113952380D02*
X105014285Y-113952380D01*
X105300000Y-113952380D02*
X105300000Y-112952380D01*
X105204761Y-113095238D01*
X105109523Y-113190476D01*
X105014285Y-113238095D01*
M02*
