G04 #@! TF.GenerationSoftware,KiCad,Pcbnew,(5.1.2)-1*
G04 #@! TF.CreationDate,2019-06-19T11:16:05+10:00*
G04 #@! TF.ProjectId,Ecal,4563616c-2e6b-4696-9361-645f70636258,rev?*
G04 #@! TF.SameCoordinates,Original*
G04 #@! TF.FileFunction,Soldermask,Top*
G04 #@! TF.FilePolarity,Negative*
%FSLAX46Y46*%
G04 Gerber Fmt 4.6, Leading zero omitted, Abs format (unit mm)*
G04 Created by KiCad (PCBNEW (5.1.2)-1) date 2019-06-19 11:16:05*
%MOMM*%
%LPD*%
G04 APERTURE LIST*
%ADD10R,1.902000X1.902000*%
%ADD11O,0.402000X0.852000*%
%ADD12O,0.852000X0.402000*%
%ADD13R,1.102000X1.702000*%
%ADD14R,0.752000X0.452000*%
%ADD15C,0.100000*%
%ADD16C,0.692000*%
%ADD17C,0.977000*%
%ADD18R,4.302000X1.452000*%
%ADD19R,3.702000X1.372000*%
%ADD20R,0.502000X1.452000*%
%ADD21C,0.702000*%
%ADD22R,1.452000X1.102000*%
%ADD23R,2.002000X2.002000*%
%ADD24C,0.902000*%
%ADD25C,6.502000*%
%ADD26C,1.077000*%
G04 APERTURE END LIST*
D10*
X94800000Y-119750000D03*
D11*
X95550000Y-121225000D03*
X95050000Y-121225000D03*
X94550000Y-121225000D03*
X94050000Y-121225000D03*
D12*
X93325000Y-120500000D03*
X93325000Y-120000000D03*
X93325000Y-119500000D03*
X93325000Y-119000000D03*
D11*
X94050000Y-118275000D03*
X94550000Y-118275000D03*
X95050000Y-118275000D03*
X95550000Y-118275000D03*
D12*
X96275000Y-119000000D03*
X96275000Y-119500000D03*
X96275000Y-120000000D03*
X96275000Y-120500000D03*
D13*
X102100000Y-115600000D03*
D14*
X103150000Y-114950000D03*
X103150000Y-115600000D03*
X103150000Y-116250000D03*
X101050000Y-116250000D03*
X101050000Y-115600000D03*
X101050000Y-114950000D03*
D15*
G36*
X95264957Y-115554833D02*
G01*
X95281751Y-115557324D01*
X95298219Y-115561449D01*
X95314204Y-115567169D01*
X95329552Y-115574428D01*
X95344114Y-115583156D01*
X95357750Y-115593269D01*
X95370329Y-115604671D01*
X95381731Y-115617250D01*
X95391844Y-115630886D01*
X95400572Y-115645448D01*
X95407831Y-115660796D01*
X95413551Y-115676781D01*
X95417676Y-115693249D01*
X95420167Y-115710043D01*
X95421000Y-115727000D01*
X95421000Y-116073000D01*
X95420167Y-116089957D01*
X95417676Y-116106751D01*
X95413551Y-116123219D01*
X95407831Y-116139204D01*
X95400572Y-116154552D01*
X95391844Y-116169114D01*
X95381731Y-116182750D01*
X95370329Y-116195329D01*
X95357750Y-116206731D01*
X95344114Y-116216844D01*
X95329552Y-116225572D01*
X95314204Y-116232831D01*
X95298219Y-116238551D01*
X95281751Y-116242676D01*
X95264957Y-116245167D01*
X95248000Y-116246000D01*
X94852000Y-116246000D01*
X94835043Y-116245167D01*
X94818249Y-116242676D01*
X94801781Y-116238551D01*
X94785796Y-116232831D01*
X94770448Y-116225572D01*
X94755886Y-116216844D01*
X94742250Y-116206731D01*
X94729671Y-116195329D01*
X94718269Y-116182750D01*
X94708156Y-116169114D01*
X94699428Y-116154552D01*
X94692169Y-116139204D01*
X94686449Y-116123219D01*
X94682324Y-116106751D01*
X94679833Y-116089957D01*
X94679000Y-116073000D01*
X94679000Y-115727000D01*
X94679833Y-115710043D01*
X94682324Y-115693249D01*
X94686449Y-115676781D01*
X94692169Y-115660796D01*
X94699428Y-115645448D01*
X94708156Y-115630886D01*
X94718269Y-115617250D01*
X94729671Y-115604671D01*
X94742250Y-115593269D01*
X94755886Y-115583156D01*
X94770448Y-115574428D01*
X94785796Y-115567169D01*
X94801781Y-115561449D01*
X94818249Y-115557324D01*
X94835043Y-115554833D01*
X94852000Y-115554000D01*
X95248000Y-115554000D01*
X95264957Y-115554833D01*
X95264957Y-115554833D01*
G37*
D16*
X95050000Y-115900000D03*
D15*
G36*
X95264957Y-116524833D02*
G01*
X95281751Y-116527324D01*
X95298219Y-116531449D01*
X95314204Y-116537169D01*
X95329552Y-116544428D01*
X95344114Y-116553156D01*
X95357750Y-116563269D01*
X95370329Y-116574671D01*
X95381731Y-116587250D01*
X95391844Y-116600886D01*
X95400572Y-116615448D01*
X95407831Y-116630796D01*
X95413551Y-116646781D01*
X95417676Y-116663249D01*
X95420167Y-116680043D01*
X95421000Y-116697000D01*
X95421000Y-117043000D01*
X95420167Y-117059957D01*
X95417676Y-117076751D01*
X95413551Y-117093219D01*
X95407831Y-117109204D01*
X95400572Y-117124552D01*
X95391844Y-117139114D01*
X95381731Y-117152750D01*
X95370329Y-117165329D01*
X95357750Y-117176731D01*
X95344114Y-117186844D01*
X95329552Y-117195572D01*
X95314204Y-117202831D01*
X95298219Y-117208551D01*
X95281751Y-117212676D01*
X95264957Y-117215167D01*
X95248000Y-117216000D01*
X94852000Y-117216000D01*
X94835043Y-117215167D01*
X94818249Y-117212676D01*
X94801781Y-117208551D01*
X94785796Y-117202831D01*
X94770448Y-117195572D01*
X94755886Y-117186844D01*
X94742250Y-117176731D01*
X94729671Y-117165329D01*
X94718269Y-117152750D01*
X94708156Y-117139114D01*
X94699428Y-117124552D01*
X94692169Y-117109204D01*
X94686449Y-117093219D01*
X94682324Y-117076751D01*
X94679833Y-117059957D01*
X94679000Y-117043000D01*
X94679000Y-116697000D01*
X94679833Y-116680043D01*
X94682324Y-116663249D01*
X94686449Y-116646781D01*
X94692169Y-116630796D01*
X94699428Y-116615448D01*
X94708156Y-116600886D01*
X94718269Y-116587250D01*
X94729671Y-116574671D01*
X94742250Y-116563269D01*
X94755886Y-116553156D01*
X94770448Y-116544428D01*
X94785796Y-116537169D01*
X94801781Y-116531449D01*
X94818249Y-116527324D01*
X94835043Y-116524833D01*
X94852000Y-116524000D01*
X95248000Y-116524000D01*
X95264957Y-116524833D01*
X95264957Y-116524833D01*
G37*
D16*
X95050000Y-116870000D03*
D15*
G36*
X107655691Y-116275176D02*
G01*
X107679401Y-116278693D01*
X107702652Y-116284517D01*
X107725220Y-116292592D01*
X107746889Y-116302841D01*
X107767448Y-116315164D01*
X107786701Y-116329442D01*
X107804461Y-116345539D01*
X107820558Y-116363299D01*
X107834836Y-116382552D01*
X107847159Y-116403111D01*
X107857408Y-116424780D01*
X107865483Y-116447348D01*
X107871307Y-116470599D01*
X107874824Y-116494309D01*
X107876000Y-116518250D01*
X107876000Y-117081750D01*
X107874824Y-117105691D01*
X107871307Y-117129401D01*
X107865483Y-117152652D01*
X107857408Y-117175220D01*
X107847159Y-117196889D01*
X107834836Y-117217448D01*
X107820558Y-117236701D01*
X107804461Y-117254461D01*
X107786701Y-117270558D01*
X107767448Y-117284836D01*
X107746889Y-117297159D01*
X107725220Y-117307408D01*
X107702652Y-117315483D01*
X107679401Y-117321307D01*
X107655691Y-117324824D01*
X107631750Y-117326000D01*
X107143250Y-117326000D01*
X107119309Y-117324824D01*
X107095599Y-117321307D01*
X107072348Y-117315483D01*
X107049780Y-117307408D01*
X107028111Y-117297159D01*
X107007552Y-117284836D01*
X106988299Y-117270558D01*
X106970539Y-117254461D01*
X106954442Y-117236701D01*
X106940164Y-117217448D01*
X106927841Y-117196889D01*
X106917592Y-117175220D01*
X106909517Y-117152652D01*
X106903693Y-117129401D01*
X106900176Y-117105691D01*
X106899000Y-117081750D01*
X106899000Y-116518250D01*
X106900176Y-116494309D01*
X106903693Y-116470599D01*
X106909517Y-116447348D01*
X106917592Y-116424780D01*
X106927841Y-116403111D01*
X106940164Y-116382552D01*
X106954442Y-116363299D01*
X106970539Y-116345539D01*
X106988299Y-116329442D01*
X107007552Y-116315164D01*
X107028111Y-116302841D01*
X107049780Y-116292592D01*
X107072348Y-116284517D01*
X107095599Y-116278693D01*
X107119309Y-116275176D01*
X107143250Y-116274000D01*
X107631750Y-116274000D01*
X107655691Y-116275176D01*
X107655691Y-116275176D01*
G37*
D17*
X107387500Y-116800000D03*
D15*
G36*
X106080691Y-116275176D02*
G01*
X106104401Y-116278693D01*
X106127652Y-116284517D01*
X106150220Y-116292592D01*
X106171889Y-116302841D01*
X106192448Y-116315164D01*
X106211701Y-116329442D01*
X106229461Y-116345539D01*
X106245558Y-116363299D01*
X106259836Y-116382552D01*
X106272159Y-116403111D01*
X106282408Y-116424780D01*
X106290483Y-116447348D01*
X106296307Y-116470599D01*
X106299824Y-116494309D01*
X106301000Y-116518250D01*
X106301000Y-117081750D01*
X106299824Y-117105691D01*
X106296307Y-117129401D01*
X106290483Y-117152652D01*
X106282408Y-117175220D01*
X106272159Y-117196889D01*
X106259836Y-117217448D01*
X106245558Y-117236701D01*
X106229461Y-117254461D01*
X106211701Y-117270558D01*
X106192448Y-117284836D01*
X106171889Y-117297159D01*
X106150220Y-117307408D01*
X106127652Y-117315483D01*
X106104401Y-117321307D01*
X106080691Y-117324824D01*
X106056750Y-117326000D01*
X105568250Y-117326000D01*
X105544309Y-117324824D01*
X105520599Y-117321307D01*
X105497348Y-117315483D01*
X105474780Y-117307408D01*
X105453111Y-117297159D01*
X105432552Y-117284836D01*
X105413299Y-117270558D01*
X105395539Y-117254461D01*
X105379442Y-117236701D01*
X105365164Y-117217448D01*
X105352841Y-117196889D01*
X105342592Y-117175220D01*
X105334517Y-117152652D01*
X105328693Y-117129401D01*
X105325176Y-117105691D01*
X105324000Y-117081750D01*
X105324000Y-116518250D01*
X105325176Y-116494309D01*
X105328693Y-116470599D01*
X105334517Y-116447348D01*
X105342592Y-116424780D01*
X105352841Y-116403111D01*
X105365164Y-116382552D01*
X105379442Y-116363299D01*
X105395539Y-116345539D01*
X105413299Y-116329442D01*
X105432552Y-116315164D01*
X105453111Y-116302841D01*
X105474780Y-116292592D01*
X105497348Y-116284517D01*
X105520599Y-116278693D01*
X105544309Y-116275176D01*
X105568250Y-116274000D01*
X106056750Y-116274000D01*
X106080691Y-116275176D01*
X106080691Y-116275176D01*
G37*
D17*
X105812500Y-116800000D03*
D18*
X112800000Y-122825000D03*
X112800000Y-117175000D03*
D19*
X113000000Y-120000000D03*
D18*
X87300000Y-117175000D03*
X87300000Y-122825000D03*
D19*
X87100000Y-120000000D03*
D20*
X100650000Y-109225000D03*
X101300000Y-109225000D03*
X99350000Y-109225000D03*
X98700000Y-109225000D03*
D21*
X98000000Y-108680000D03*
X102000000Y-108680000D03*
D20*
X100000000Y-109225000D03*
D22*
X103100000Y-108800000D03*
X96900000Y-108800000D03*
D23*
X96050000Y-106550000D03*
X103950000Y-106550000D03*
X101150000Y-106550000D03*
X98850000Y-106550000D03*
D24*
X111697056Y-128302944D03*
X110000000Y-127600000D03*
X108302944Y-128302944D03*
X107600000Y-130000000D03*
X108302944Y-131697056D03*
X110000000Y-132400000D03*
X111697056Y-131697056D03*
X112400000Y-130000000D03*
D25*
X110000000Y-130000000D03*
D24*
X91697056Y-128302944D03*
X90000000Y-127600000D03*
X88302944Y-128302944D03*
X87600000Y-130000000D03*
X88302944Y-131697056D03*
X90000000Y-132400000D03*
X91697056Y-131697056D03*
X92400000Y-130000000D03*
D25*
X90000000Y-130000000D03*
D24*
X91697056Y-108302944D03*
X90000000Y-107600000D03*
X88302944Y-108302944D03*
X87600000Y-110000000D03*
X88302944Y-111697056D03*
X90000000Y-112400000D03*
X91697056Y-111697056D03*
X92400000Y-110000000D03*
D25*
X90000000Y-110000000D03*
D24*
X111697056Y-108302944D03*
X110000000Y-107600000D03*
X108302944Y-108302944D03*
X107600000Y-110000000D03*
X108302944Y-111697056D03*
X110000000Y-112400000D03*
X111697056Y-111697056D03*
X112400000Y-110000000D03*
D25*
X110000000Y-110000000D03*
D15*
G36*
X101558141Y-111050297D02*
G01*
X101584278Y-111054174D01*
X101609909Y-111060594D01*
X101634788Y-111069495D01*
X101658674Y-111080793D01*
X101681337Y-111094377D01*
X101702560Y-111110117D01*
X101722139Y-111127861D01*
X101739883Y-111147440D01*
X101755623Y-111168663D01*
X101769207Y-111191326D01*
X101780505Y-111215212D01*
X101789406Y-111240091D01*
X101795826Y-111265722D01*
X101799703Y-111291859D01*
X101801000Y-111318250D01*
X101801000Y-112281750D01*
X101799703Y-112308141D01*
X101795826Y-112334278D01*
X101789406Y-112359909D01*
X101780505Y-112384788D01*
X101769207Y-112408674D01*
X101755623Y-112431337D01*
X101739883Y-112452560D01*
X101722139Y-112472139D01*
X101702560Y-112489883D01*
X101681337Y-112505623D01*
X101658674Y-112519207D01*
X101634788Y-112530505D01*
X101609909Y-112539406D01*
X101584278Y-112545826D01*
X101558141Y-112549703D01*
X101531750Y-112551000D01*
X100993250Y-112551000D01*
X100966859Y-112549703D01*
X100940722Y-112545826D01*
X100915091Y-112539406D01*
X100890212Y-112530505D01*
X100866326Y-112519207D01*
X100843663Y-112505623D01*
X100822440Y-112489883D01*
X100802861Y-112472139D01*
X100785117Y-112452560D01*
X100769377Y-112431337D01*
X100755793Y-112408674D01*
X100744495Y-112384788D01*
X100735594Y-112359909D01*
X100729174Y-112334278D01*
X100725297Y-112308141D01*
X100724000Y-112281750D01*
X100724000Y-111318250D01*
X100725297Y-111291859D01*
X100729174Y-111265722D01*
X100735594Y-111240091D01*
X100744495Y-111215212D01*
X100755793Y-111191326D01*
X100769377Y-111168663D01*
X100785117Y-111147440D01*
X100802861Y-111127861D01*
X100822440Y-111110117D01*
X100843663Y-111094377D01*
X100866326Y-111080793D01*
X100890212Y-111069495D01*
X100915091Y-111060594D01*
X100940722Y-111054174D01*
X100966859Y-111050297D01*
X100993250Y-111049000D01*
X101531750Y-111049000D01*
X101558141Y-111050297D01*
X101558141Y-111050297D01*
G37*
D26*
X101262500Y-111800000D03*
D15*
G36*
X103433141Y-111050297D02*
G01*
X103459278Y-111054174D01*
X103484909Y-111060594D01*
X103509788Y-111069495D01*
X103533674Y-111080793D01*
X103556337Y-111094377D01*
X103577560Y-111110117D01*
X103597139Y-111127861D01*
X103614883Y-111147440D01*
X103630623Y-111168663D01*
X103644207Y-111191326D01*
X103655505Y-111215212D01*
X103664406Y-111240091D01*
X103670826Y-111265722D01*
X103674703Y-111291859D01*
X103676000Y-111318250D01*
X103676000Y-112281750D01*
X103674703Y-112308141D01*
X103670826Y-112334278D01*
X103664406Y-112359909D01*
X103655505Y-112384788D01*
X103644207Y-112408674D01*
X103630623Y-112431337D01*
X103614883Y-112452560D01*
X103597139Y-112472139D01*
X103577560Y-112489883D01*
X103556337Y-112505623D01*
X103533674Y-112519207D01*
X103509788Y-112530505D01*
X103484909Y-112539406D01*
X103459278Y-112545826D01*
X103433141Y-112549703D01*
X103406750Y-112551000D01*
X102868250Y-112551000D01*
X102841859Y-112549703D01*
X102815722Y-112545826D01*
X102790091Y-112539406D01*
X102765212Y-112530505D01*
X102741326Y-112519207D01*
X102718663Y-112505623D01*
X102697440Y-112489883D01*
X102677861Y-112472139D01*
X102660117Y-112452560D01*
X102644377Y-112431337D01*
X102630793Y-112408674D01*
X102619495Y-112384788D01*
X102610594Y-112359909D01*
X102604174Y-112334278D01*
X102600297Y-112308141D01*
X102599000Y-112281750D01*
X102599000Y-111318250D01*
X102600297Y-111291859D01*
X102604174Y-111265722D01*
X102610594Y-111240091D01*
X102619495Y-111215212D01*
X102630793Y-111191326D01*
X102644377Y-111168663D01*
X102660117Y-111147440D01*
X102677861Y-111127861D01*
X102697440Y-111110117D01*
X102718663Y-111094377D01*
X102741326Y-111080793D01*
X102765212Y-111069495D01*
X102790091Y-111060594D01*
X102815722Y-111054174D01*
X102841859Y-111050297D01*
X102868250Y-111049000D01*
X103406750Y-111049000D01*
X103433141Y-111050297D01*
X103433141Y-111050297D01*
G37*
D26*
X103137500Y-111800000D03*
D15*
G36*
X107655691Y-114675176D02*
G01*
X107679401Y-114678693D01*
X107702652Y-114684517D01*
X107725220Y-114692592D01*
X107746889Y-114702841D01*
X107767448Y-114715164D01*
X107786701Y-114729442D01*
X107804461Y-114745539D01*
X107820558Y-114763299D01*
X107834836Y-114782552D01*
X107847159Y-114803111D01*
X107857408Y-114824780D01*
X107865483Y-114847348D01*
X107871307Y-114870599D01*
X107874824Y-114894309D01*
X107876000Y-114918250D01*
X107876000Y-115481750D01*
X107874824Y-115505691D01*
X107871307Y-115529401D01*
X107865483Y-115552652D01*
X107857408Y-115575220D01*
X107847159Y-115596889D01*
X107834836Y-115617448D01*
X107820558Y-115636701D01*
X107804461Y-115654461D01*
X107786701Y-115670558D01*
X107767448Y-115684836D01*
X107746889Y-115697159D01*
X107725220Y-115707408D01*
X107702652Y-115715483D01*
X107679401Y-115721307D01*
X107655691Y-115724824D01*
X107631750Y-115726000D01*
X107143250Y-115726000D01*
X107119309Y-115724824D01*
X107095599Y-115721307D01*
X107072348Y-115715483D01*
X107049780Y-115707408D01*
X107028111Y-115697159D01*
X107007552Y-115684836D01*
X106988299Y-115670558D01*
X106970539Y-115654461D01*
X106954442Y-115636701D01*
X106940164Y-115617448D01*
X106927841Y-115596889D01*
X106917592Y-115575220D01*
X106909517Y-115552652D01*
X106903693Y-115529401D01*
X106900176Y-115505691D01*
X106899000Y-115481750D01*
X106899000Y-114918250D01*
X106900176Y-114894309D01*
X106903693Y-114870599D01*
X106909517Y-114847348D01*
X106917592Y-114824780D01*
X106927841Y-114803111D01*
X106940164Y-114782552D01*
X106954442Y-114763299D01*
X106970539Y-114745539D01*
X106988299Y-114729442D01*
X107007552Y-114715164D01*
X107028111Y-114702841D01*
X107049780Y-114692592D01*
X107072348Y-114684517D01*
X107095599Y-114678693D01*
X107119309Y-114675176D01*
X107143250Y-114674000D01*
X107631750Y-114674000D01*
X107655691Y-114675176D01*
X107655691Y-114675176D01*
G37*
D17*
X107387500Y-115200000D03*
D15*
G36*
X106080691Y-114675176D02*
G01*
X106104401Y-114678693D01*
X106127652Y-114684517D01*
X106150220Y-114692592D01*
X106171889Y-114702841D01*
X106192448Y-114715164D01*
X106211701Y-114729442D01*
X106229461Y-114745539D01*
X106245558Y-114763299D01*
X106259836Y-114782552D01*
X106272159Y-114803111D01*
X106282408Y-114824780D01*
X106290483Y-114847348D01*
X106296307Y-114870599D01*
X106299824Y-114894309D01*
X106301000Y-114918250D01*
X106301000Y-115481750D01*
X106299824Y-115505691D01*
X106296307Y-115529401D01*
X106290483Y-115552652D01*
X106282408Y-115575220D01*
X106272159Y-115596889D01*
X106259836Y-115617448D01*
X106245558Y-115636701D01*
X106229461Y-115654461D01*
X106211701Y-115670558D01*
X106192448Y-115684836D01*
X106171889Y-115697159D01*
X106150220Y-115707408D01*
X106127652Y-115715483D01*
X106104401Y-115721307D01*
X106080691Y-115724824D01*
X106056750Y-115726000D01*
X105568250Y-115726000D01*
X105544309Y-115724824D01*
X105520599Y-115721307D01*
X105497348Y-115715483D01*
X105474780Y-115707408D01*
X105453111Y-115697159D01*
X105432552Y-115684836D01*
X105413299Y-115670558D01*
X105395539Y-115654461D01*
X105379442Y-115636701D01*
X105365164Y-115617448D01*
X105352841Y-115596889D01*
X105342592Y-115575220D01*
X105334517Y-115552652D01*
X105328693Y-115529401D01*
X105325176Y-115505691D01*
X105324000Y-115481750D01*
X105324000Y-114918250D01*
X105325176Y-114894309D01*
X105328693Y-114870599D01*
X105334517Y-114847348D01*
X105342592Y-114824780D01*
X105352841Y-114803111D01*
X105365164Y-114782552D01*
X105379442Y-114763299D01*
X105395539Y-114745539D01*
X105413299Y-114729442D01*
X105432552Y-114715164D01*
X105453111Y-114702841D01*
X105474780Y-114692592D01*
X105497348Y-114684517D01*
X105520599Y-114678693D01*
X105544309Y-114675176D01*
X105568250Y-114674000D01*
X106056750Y-114674000D01*
X106080691Y-114675176D01*
X106080691Y-114675176D01*
G37*
D17*
X105812500Y-115200000D03*
D15*
G36*
X96604957Y-122029833D02*
G01*
X96621751Y-122032324D01*
X96638219Y-122036449D01*
X96654204Y-122042169D01*
X96669552Y-122049428D01*
X96684114Y-122058156D01*
X96697750Y-122068269D01*
X96710329Y-122079671D01*
X96721731Y-122092250D01*
X96731844Y-122105886D01*
X96740572Y-122120448D01*
X96747831Y-122135796D01*
X96753551Y-122151781D01*
X96757676Y-122168249D01*
X96760167Y-122185043D01*
X96761000Y-122202000D01*
X96761000Y-122598000D01*
X96760167Y-122614957D01*
X96757676Y-122631751D01*
X96753551Y-122648219D01*
X96747831Y-122664204D01*
X96740572Y-122679552D01*
X96731844Y-122694114D01*
X96721731Y-122707750D01*
X96710329Y-122720329D01*
X96697750Y-122731731D01*
X96684114Y-122741844D01*
X96669552Y-122750572D01*
X96654204Y-122757831D01*
X96638219Y-122763551D01*
X96621751Y-122767676D01*
X96604957Y-122770167D01*
X96588000Y-122771000D01*
X96242000Y-122771000D01*
X96225043Y-122770167D01*
X96208249Y-122767676D01*
X96191781Y-122763551D01*
X96175796Y-122757831D01*
X96160448Y-122750572D01*
X96145886Y-122741844D01*
X96132250Y-122731731D01*
X96119671Y-122720329D01*
X96108269Y-122707750D01*
X96098156Y-122694114D01*
X96089428Y-122679552D01*
X96082169Y-122664204D01*
X96076449Y-122648219D01*
X96072324Y-122631751D01*
X96069833Y-122614957D01*
X96069000Y-122598000D01*
X96069000Y-122202000D01*
X96069833Y-122185043D01*
X96072324Y-122168249D01*
X96076449Y-122151781D01*
X96082169Y-122135796D01*
X96089428Y-122120448D01*
X96098156Y-122105886D01*
X96108269Y-122092250D01*
X96119671Y-122079671D01*
X96132250Y-122068269D01*
X96145886Y-122058156D01*
X96160448Y-122049428D01*
X96175796Y-122042169D01*
X96191781Y-122036449D01*
X96208249Y-122032324D01*
X96225043Y-122029833D01*
X96242000Y-122029000D01*
X96588000Y-122029000D01*
X96604957Y-122029833D01*
X96604957Y-122029833D01*
G37*
D16*
X96415000Y-122400000D03*
D15*
G36*
X97574957Y-122029833D02*
G01*
X97591751Y-122032324D01*
X97608219Y-122036449D01*
X97624204Y-122042169D01*
X97639552Y-122049428D01*
X97654114Y-122058156D01*
X97667750Y-122068269D01*
X97680329Y-122079671D01*
X97691731Y-122092250D01*
X97701844Y-122105886D01*
X97710572Y-122120448D01*
X97717831Y-122135796D01*
X97723551Y-122151781D01*
X97727676Y-122168249D01*
X97730167Y-122185043D01*
X97731000Y-122202000D01*
X97731000Y-122598000D01*
X97730167Y-122614957D01*
X97727676Y-122631751D01*
X97723551Y-122648219D01*
X97717831Y-122664204D01*
X97710572Y-122679552D01*
X97701844Y-122694114D01*
X97691731Y-122707750D01*
X97680329Y-122720329D01*
X97667750Y-122731731D01*
X97654114Y-122741844D01*
X97639552Y-122750572D01*
X97624204Y-122757831D01*
X97608219Y-122763551D01*
X97591751Y-122767676D01*
X97574957Y-122770167D01*
X97558000Y-122771000D01*
X97212000Y-122771000D01*
X97195043Y-122770167D01*
X97178249Y-122767676D01*
X97161781Y-122763551D01*
X97145796Y-122757831D01*
X97130448Y-122750572D01*
X97115886Y-122741844D01*
X97102250Y-122731731D01*
X97089671Y-122720329D01*
X97078269Y-122707750D01*
X97068156Y-122694114D01*
X97059428Y-122679552D01*
X97052169Y-122664204D01*
X97046449Y-122648219D01*
X97042324Y-122631751D01*
X97039833Y-122614957D01*
X97039000Y-122598000D01*
X97039000Y-122202000D01*
X97039833Y-122185043D01*
X97042324Y-122168249D01*
X97046449Y-122151781D01*
X97052169Y-122135796D01*
X97059428Y-122120448D01*
X97068156Y-122105886D01*
X97078269Y-122092250D01*
X97089671Y-122079671D01*
X97102250Y-122068269D01*
X97115886Y-122058156D01*
X97130448Y-122049428D01*
X97145796Y-122042169D01*
X97161781Y-122036449D01*
X97178249Y-122032324D01*
X97195043Y-122029833D01*
X97212000Y-122029000D01*
X97558000Y-122029000D01*
X97574957Y-122029833D01*
X97574957Y-122029833D01*
G37*
D16*
X97385000Y-122400000D03*
D15*
G36*
X97804957Y-119629833D02*
G01*
X97821751Y-119632324D01*
X97838219Y-119636449D01*
X97854204Y-119642169D01*
X97869552Y-119649428D01*
X97884114Y-119658156D01*
X97897750Y-119668269D01*
X97910329Y-119679671D01*
X97921731Y-119692250D01*
X97931844Y-119705886D01*
X97940572Y-119720448D01*
X97947831Y-119735796D01*
X97953551Y-119751781D01*
X97957676Y-119768249D01*
X97960167Y-119785043D01*
X97961000Y-119802000D01*
X97961000Y-120198000D01*
X97960167Y-120214957D01*
X97957676Y-120231751D01*
X97953551Y-120248219D01*
X97947831Y-120264204D01*
X97940572Y-120279552D01*
X97931844Y-120294114D01*
X97921731Y-120307750D01*
X97910329Y-120320329D01*
X97897750Y-120331731D01*
X97884114Y-120341844D01*
X97869552Y-120350572D01*
X97854204Y-120357831D01*
X97838219Y-120363551D01*
X97821751Y-120367676D01*
X97804957Y-120370167D01*
X97788000Y-120371000D01*
X97442000Y-120371000D01*
X97425043Y-120370167D01*
X97408249Y-120367676D01*
X97391781Y-120363551D01*
X97375796Y-120357831D01*
X97360448Y-120350572D01*
X97345886Y-120341844D01*
X97332250Y-120331731D01*
X97319671Y-120320329D01*
X97308269Y-120307750D01*
X97298156Y-120294114D01*
X97289428Y-120279552D01*
X97282169Y-120264204D01*
X97276449Y-120248219D01*
X97272324Y-120231751D01*
X97269833Y-120214957D01*
X97269000Y-120198000D01*
X97269000Y-119802000D01*
X97269833Y-119785043D01*
X97272324Y-119768249D01*
X97276449Y-119751781D01*
X97282169Y-119735796D01*
X97289428Y-119720448D01*
X97298156Y-119705886D01*
X97308269Y-119692250D01*
X97319671Y-119679671D01*
X97332250Y-119668269D01*
X97345886Y-119658156D01*
X97360448Y-119649428D01*
X97375796Y-119642169D01*
X97391781Y-119636449D01*
X97408249Y-119632324D01*
X97425043Y-119629833D01*
X97442000Y-119629000D01*
X97788000Y-119629000D01*
X97804957Y-119629833D01*
X97804957Y-119629833D01*
G37*
D16*
X97615000Y-120000000D03*
D15*
G36*
X98774957Y-119629833D02*
G01*
X98791751Y-119632324D01*
X98808219Y-119636449D01*
X98824204Y-119642169D01*
X98839552Y-119649428D01*
X98854114Y-119658156D01*
X98867750Y-119668269D01*
X98880329Y-119679671D01*
X98891731Y-119692250D01*
X98901844Y-119705886D01*
X98910572Y-119720448D01*
X98917831Y-119735796D01*
X98923551Y-119751781D01*
X98927676Y-119768249D01*
X98930167Y-119785043D01*
X98931000Y-119802000D01*
X98931000Y-120198000D01*
X98930167Y-120214957D01*
X98927676Y-120231751D01*
X98923551Y-120248219D01*
X98917831Y-120264204D01*
X98910572Y-120279552D01*
X98901844Y-120294114D01*
X98891731Y-120307750D01*
X98880329Y-120320329D01*
X98867750Y-120331731D01*
X98854114Y-120341844D01*
X98839552Y-120350572D01*
X98824204Y-120357831D01*
X98808219Y-120363551D01*
X98791751Y-120367676D01*
X98774957Y-120370167D01*
X98758000Y-120371000D01*
X98412000Y-120371000D01*
X98395043Y-120370167D01*
X98378249Y-120367676D01*
X98361781Y-120363551D01*
X98345796Y-120357831D01*
X98330448Y-120350572D01*
X98315886Y-120341844D01*
X98302250Y-120331731D01*
X98289671Y-120320329D01*
X98278269Y-120307750D01*
X98268156Y-120294114D01*
X98259428Y-120279552D01*
X98252169Y-120264204D01*
X98246449Y-120248219D01*
X98242324Y-120231751D01*
X98239833Y-120214957D01*
X98239000Y-120198000D01*
X98239000Y-119802000D01*
X98239833Y-119785043D01*
X98242324Y-119768249D01*
X98246449Y-119751781D01*
X98252169Y-119735796D01*
X98259428Y-119720448D01*
X98268156Y-119705886D01*
X98278269Y-119692250D01*
X98289671Y-119679671D01*
X98302250Y-119668269D01*
X98315886Y-119658156D01*
X98330448Y-119649428D01*
X98345796Y-119642169D01*
X98361781Y-119636449D01*
X98378249Y-119632324D01*
X98395043Y-119629833D01*
X98412000Y-119629000D01*
X98758000Y-119629000D01*
X98774957Y-119629833D01*
X98774957Y-119629833D01*
G37*
D16*
X98585000Y-120000000D03*
D15*
G36*
X90804957Y-119629833D02*
G01*
X90821751Y-119632324D01*
X90838219Y-119636449D01*
X90854204Y-119642169D01*
X90869552Y-119649428D01*
X90884114Y-119658156D01*
X90897750Y-119668269D01*
X90910329Y-119679671D01*
X90921731Y-119692250D01*
X90931844Y-119705886D01*
X90940572Y-119720448D01*
X90947831Y-119735796D01*
X90953551Y-119751781D01*
X90957676Y-119768249D01*
X90960167Y-119785043D01*
X90961000Y-119802000D01*
X90961000Y-120198000D01*
X90960167Y-120214957D01*
X90957676Y-120231751D01*
X90953551Y-120248219D01*
X90947831Y-120264204D01*
X90940572Y-120279552D01*
X90931844Y-120294114D01*
X90921731Y-120307750D01*
X90910329Y-120320329D01*
X90897750Y-120331731D01*
X90884114Y-120341844D01*
X90869552Y-120350572D01*
X90854204Y-120357831D01*
X90838219Y-120363551D01*
X90821751Y-120367676D01*
X90804957Y-120370167D01*
X90788000Y-120371000D01*
X90442000Y-120371000D01*
X90425043Y-120370167D01*
X90408249Y-120367676D01*
X90391781Y-120363551D01*
X90375796Y-120357831D01*
X90360448Y-120350572D01*
X90345886Y-120341844D01*
X90332250Y-120331731D01*
X90319671Y-120320329D01*
X90308269Y-120307750D01*
X90298156Y-120294114D01*
X90289428Y-120279552D01*
X90282169Y-120264204D01*
X90276449Y-120248219D01*
X90272324Y-120231751D01*
X90269833Y-120214957D01*
X90269000Y-120198000D01*
X90269000Y-119802000D01*
X90269833Y-119785043D01*
X90272324Y-119768249D01*
X90276449Y-119751781D01*
X90282169Y-119735796D01*
X90289428Y-119720448D01*
X90298156Y-119705886D01*
X90308269Y-119692250D01*
X90319671Y-119679671D01*
X90332250Y-119668269D01*
X90345886Y-119658156D01*
X90360448Y-119649428D01*
X90375796Y-119642169D01*
X90391781Y-119636449D01*
X90408249Y-119632324D01*
X90425043Y-119629833D01*
X90442000Y-119629000D01*
X90788000Y-119629000D01*
X90804957Y-119629833D01*
X90804957Y-119629833D01*
G37*
D16*
X90615000Y-120000000D03*
D15*
G36*
X91774957Y-119629833D02*
G01*
X91791751Y-119632324D01*
X91808219Y-119636449D01*
X91824204Y-119642169D01*
X91839552Y-119649428D01*
X91854114Y-119658156D01*
X91867750Y-119668269D01*
X91880329Y-119679671D01*
X91891731Y-119692250D01*
X91901844Y-119705886D01*
X91910572Y-119720448D01*
X91917831Y-119735796D01*
X91923551Y-119751781D01*
X91927676Y-119768249D01*
X91930167Y-119785043D01*
X91931000Y-119802000D01*
X91931000Y-120198000D01*
X91930167Y-120214957D01*
X91927676Y-120231751D01*
X91923551Y-120248219D01*
X91917831Y-120264204D01*
X91910572Y-120279552D01*
X91901844Y-120294114D01*
X91891731Y-120307750D01*
X91880329Y-120320329D01*
X91867750Y-120331731D01*
X91854114Y-120341844D01*
X91839552Y-120350572D01*
X91824204Y-120357831D01*
X91808219Y-120363551D01*
X91791751Y-120367676D01*
X91774957Y-120370167D01*
X91758000Y-120371000D01*
X91412000Y-120371000D01*
X91395043Y-120370167D01*
X91378249Y-120367676D01*
X91361781Y-120363551D01*
X91345796Y-120357831D01*
X91330448Y-120350572D01*
X91315886Y-120341844D01*
X91302250Y-120331731D01*
X91289671Y-120320329D01*
X91278269Y-120307750D01*
X91268156Y-120294114D01*
X91259428Y-120279552D01*
X91252169Y-120264204D01*
X91246449Y-120248219D01*
X91242324Y-120231751D01*
X91239833Y-120214957D01*
X91239000Y-120198000D01*
X91239000Y-119802000D01*
X91239833Y-119785043D01*
X91242324Y-119768249D01*
X91246449Y-119751781D01*
X91252169Y-119735796D01*
X91259428Y-119720448D01*
X91268156Y-119705886D01*
X91278269Y-119692250D01*
X91289671Y-119679671D01*
X91302250Y-119668269D01*
X91315886Y-119658156D01*
X91330448Y-119649428D01*
X91345796Y-119642169D01*
X91361781Y-119636449D01*
X91378249Y-119632324D01*
X91395043Y-119629833D01*
X91412000Y-119629000D01*
X91758000Y-119629000D01*
X91774957Y-119629833D01*
X91774957Y-119629833D01*
G37*
D16*
X91585000Y-120000000D03*
D15*
G36*
X99905691Y-116000176D02*
G01*
X99929401Y-116003693D01*
X99952652Y-116009517D01*
X99975220Y-116017592D01*
X99996889Y-116027841D01*
X100017448Y-116040164D01*
X100036701Y-116054442D01*
X100054461Y-116070539D01*
X100070558Y-116088299D01*
X100084836Y-116107552D01*
X100097159Y-116128111D01*
X100107408Y-116149780D01*
X100115483Y-116172348D01*
X100121307Y-116195599D01*
X100124824Y-116219309D01*
X100126000Y-116243250D01*
X100126000Y-116731750D01*
X100124824Y-116755691D01*
X100121307Y-116779401D01*
X100115483Y-116802652D01*
X100107408Y-116825220D01*
X100097159Y-116846889D01*
X100084836Y-116867448D01*
X100070558Y-116886701D01*
X100054461Y-116904461D01*
X100036701Y-116920558D01*
X100017448Y-116934836D01*
X99996889Y-116947159D01*
X99975220Y-116957408D01*
X99952652Y-116965483D01*
X99929401Y-116971307D01*
X99905691Y-116974824D01*
X99881750Y-116976000D01*
X99318250Y-116976000D01*
X99294309Y-116974824D01*
X99270599Y-116971307D01*
X99247348Y-116965483D01*
X99224780Y-116957408D01*
X99203111Y-116947159D01*
X99182552Y-116934836D01*
X99163299Y-116920558D01*
X99145539Y-116904461D01*
X99129442Y-116886701D01*
X99115164Y-116867448D01*
X99102841Y-116846889D01*
X99092592Y-116825220D01*
X99084517Y-116802652D01*
X99078693Y-116779401D01*
X99075176Y-116755691D01*
X99074000Y-116731750D01*
X99074000Y-116243250D01*
X99075176Y-116219309D01*
X99078693Y-116195599D01*
X99084517Y-116172348D01*
X99092592Y-116149780D01*
X99102841Y-116128111D01*
X99115164Y-116107552D01*
X99129442Y-116088299D01*
X99145539Y-116070539D01*
X99163299Y-116054442D01*
X99182552Y-116040164D01*
X99203111Y-116027841D01*
X99224780Y-116017592D01*
X99247348Y-116009517D01*
X99270599Y-116003693D01*
X99294309Y-116000176D01*
X99318250Y-115999000D01*
X99881750Y-115999000D01*
X99905691Y-116000176D01*
X99905691Y-116000176D01*
G37*
D17*
X99600000Y-116487500D03*
D15*
G36*
X99905691Y-114425176D02*
G01*
X99929401Y-114428693D01*
X99952652Y-114434517D01*
X99975220Y-114442592D01*
X99996889Y-114452841D01*
X100017448Y-114465164D01*
X100036701Y-114479442D01*
X100054461Y-114495539D01*
X100070558Y-114513299D01*
X100084836Y-114532552D01*
X100097159Y-114553111D01*
X100107408Y-114574780D01*
X100115483Y-114597348D01*
X100121307Y-114620599D01*
X100124824Y-114644309D01*
X100126000Y-114668250D01*
X100126000Y-115156750D01*
X100124824Y-115180691D01*
X100121307Y-115204401D01*
X100115483Y-115227652D01*
X100107408Y-115250220D01*
X100097159Y-115271889D01*
X100084836Y-115292448D01*
X100070558Y-115311701D01*
X100054461Y-115329461D01*
X100036701Y-115345558D01*
X100017448Y-115359836D01*
X99996889Y-115372159D01*
X99975220Y-115382408D01*
X99952652Y-115390483D01*
X99929401Y-115396307D01*
X99905691Y-115399824D01*
X99881750Y-115401000D01*
X99318250Y-115401000D01*
X99294309Y-115399824D01*
X99270599Y-115396307D01*
X99247348Y-115390483D01*
X99224780Y-115382408D01*
X99203111Y-115372159D01*
X99182552Y-115359836D01*
X99163299Y-115345558D01*
X99145539Y-115329461D01*
X99129442Y-115311701D01*
X99115164Y-115292448D01*
X99102841Y-115271889D01*
X99092592Y-115250220D01*
X99084517Y-115227652D01*
X99078693Y-115204401D01*
X99075176Y-115180691D01*
X99074000Y-115156750D01*
X99074000Y-114668250D01*
X99075176Y-114644309D01*
X99078693Y-114620599D01*
X99084517Y-114597348D01*
X99092592Y-114574780D01*
X99102841Y-114553111D01*
X99115164Y-114532552D01*
X99129442Y-114513299D01*
X99145539Y-114495539D01*
X99163299Y-114479442D01*
X99182552Y-114465164D01*
X99203111Y-114452841D01*
X99224780Y-114442592D01*
X99247348Y-114434517D01*
X99270599Y-114428693D01*
X99294309Y-114425176D01*
X99318250Y-114424000D01*
X99881750Y-114424000D01*
X99905691Y-114425176D01*
X99905691Y-114425176D01*
G37*
D17*
X99600000Y-114912500D03*
D15*
G36*
X101830691Y-112975176D02*
G01*
X101854401Y-112978693D01*
X101877652Y-112984517D01*
X101900220Y-112992592D01*
X101921889Y-113002841D01*
X101942448Y-113015164D01*
X101961701Y-113029442D01*
X101979461Y-113045539D01*
X101995558Y-113063299D01*
X102009836Y-113082552D01*
X102022159Y-113103111D01*
X102032408Y-113124780D01*
X102040483Y-113147348D01*
X102046307Y-113170599D01*
X102049824Y-113194309D01*
X102051000Y-113218250D01*
X102051000Y-113781750D01*
X102049824Y-113805691D01*
X102046307Y-113829401D01*
X102040483Y-113852652D01*
X102032408Y-113875220D01*
X102022159Y-113896889D01*
X102009836Y-113917448D01*
X101995558Y-113936701D01*
X101979461Y-113954461D01*
X101961701Y-113970558D01*
X101942448Y-113984836D01*
X101921889Y-113997159D01*
X101900220Y-114007408D01*
X101877652Y-114015483D01*
X101854401Y-114021307D01*
X101830691Y-114024824D01*
X101806750Y-114026000D01*
X101318250Y-114026000D01*
X101294309Y-114024824D01*
X101270599Y-114021307D01*
X101247348Y-114015483D01*
X101224780Y-114007408D01*
X101203111Y-113997159D01*
X101182552Y-113984836D01*
X101163299Y-113970558D01*
X101145539Y-113954461D01*
X101129442Y-113936701D01*
X101115164Y-113917448D01*
X101102841Y-113896889D01*
X101092592Y-113875220D01*
X101084517Y-113852652D01*
X101078693Y-113829401D01*
X101075176Y-113805691D01*
X101074000Y-113781750D01*
X101074000Y-113218250D01*
X101075176Y-113194309D01*
X101078693Y-113170599D01*
X101084517Y-113147348D01*
X101092592Y-113124780D01*
X101102841Y-113103111D01*
X101115164Y-113082552D01*
X101129442Y-113063299D01*
X101145539Y-113045539D01*
X101163299Y-113029442D01*
X101182552Y-113015164D01*
X101203111Y-113002841D01*
X101224780Y-112992592D01*
X101247348Y-112984517D01*
X101270599Y-112978693D01*
X101294309Y-112975176D01*
X101318250Y-112974000D01*
X101806750Y-112974000D01*
X101830691Y-112975176D01*
X101830691Y-112975176D01*
G37*
D17*
X101562500Y-113500000D03*
D15*
G36*
X103405691Y-112975176D02*
G01*
X103429401Y-112978693D01*
X103452652Y-112984517D01*
X103475220Y-112992592D01*
X103496889Y-113002841D01*
X103517448Y-113015164D01*
X103536701Y-113029442D01*
X103554461Y-113045539D01*
X103570558Y-113063299D01*
X103584836Y-113082552D01*
X103597159Y-113103111D01*
X103607408Y-113124780D01*
X103615483Y-113147348D01*
X103621307Y-113170599D01*
X103624824Y-113194309D01*
X103626000Y-113218250D01*
X103626000Y-113781750D01*
X103624824Y-113805691D01*
X103621307Y-113829401D01*
X103615483Y-113852652D01*
X103607408Y-113875220D01*
X103597159Y-113896889D01*
X103584836Y-113917448D01*
X103570558Y-113936701D01*
X103554461Y-113954461D01*
X103536701Y-113970558D01*
X103517448Y-113984836D01*
X103496889Y-113997159D01*
X103475220Y-114007408D01*
X103452652Y-114015483D01*
X103429401Y-114021307D01*
X103405691Y-114024824D01*
X103381750Y-114026000D01*
X102893250Y-114026000D01*
X102869309Y-114024824D01*
X102845599Y-114021307D01*
X102822348Y-114015483D01*
X102799780Y-114007408D01*
X102778111Y-113997159D01*
X102757552Y-113984836D01*
X102738299Y-113970558D01*
X102720539Y-113954461D01*
X102704442Y-113936701D01*
X102690164Y-113917448D01*
X102677841Y-113896889D01*
X102667592Y-113875220D01*
X102659517Y-113852652D01*
X102653693Y-113829401D01*
X102650176Y-113805691D01*
X102649000Y-113781750D01*
X102649000Y-113218250D01*
X102650176Y-113194309D01*
X102653693Y-113170599D01*
X102659517Y-113147348D01*
X102667592Y-113124780D01*
X102677841Y-113103111D01*
X102690164Y-113082552D01*
X102704442Y-113063299D01*
X102720539Y-113045539D01*
X102738299Y-113029442D01*
X102757552Y-113015164D01*
X102778111Y-113002841D01*
X102799780Y-112992592D01*
X102822348Y-112984517D01*
X102845599Y-112978693D01*
X102869309Y-112975176D01*
X102893250Y-112974000D01*
X103381750Y-112974000D01*
X103405691Y-112975176D01*
X103405691Y-112975176D01*
G37*
D17*
X103137500Y-113500000D03*
M02*
