%MOIN*%
%OFA0B0*%
%FSLAX44Y44*%
%IPPOS*%
%LPD*%
%ADD10C,0*%
D10*
X00026470Y00018897D02*
X00026470Y00018897D01*
X00026440Y00018898D01*
X00026409Y00018902D01*
X00026378Y00018908D01*
X00026349Y00018916D01*
X00026320Y00018927D01*
X00026292Y00018940D01*
X00026265Y00018955D01*
X00026239Y00018972D01*
X00026215Y00018991D01*
X00026192Y00019012D01*
X00026171Y00019035D01*
X00026152Y00019059D01*
X00026135Y00019085D01*
X00026120Y00019112D01*
X00026107Y00019140D01*
X00026096Y00019169D01*
X00026088Y00019199D01*
X00026082Y00019229D01*
X00026078Y00019260D01*
X00026077Y00019291D01*
X00026077Y00020078D01*
X00026078Y00020109D01*
X00026082Y00020140D01*
X00026088Y00020170D01*
X00026096Y00020200D01*
X00026107Y00020229D01*
X00026120Y00020257D01*
X00026135Y00020284D01*
X00026152Y00020310D01*
X00026171Y00020334D01*
X00026192Y00020357D01*
X00026215Y00020378D01*
X00026239Y00020397D01*
X00026265Y00020414D01*
X00026292Y00020429D01*
X00026320Y00020442D01*
X00026349Y00020453D01*
X00026378Y00020461D01*
X00026409Y00020467D01*
X00026440Y00020471D01*
X00026470Y00020472D01*
X00032584Y00020472D01*
X00032615Y00020471D01*
X00032645Y00020467D01*
X00032676Y00020461D01*
X00032705Y00020453D01*
X00032734Y00020442D01*
X00032762Y00020429D01*
X00032789Y00020414D01*
X00032815Y00020397D01*
X00032839Y00020378D01*
X00032862Y00020357D01*
X00032883Y00020334D01*
X00032902Y00020310D01*
X00032919Y00020284D01*
X00032935Y00020257D01*
X00032947Y00020229D01*
X00032958Y00020200D01*
X00032967Y00020170D01*
X00032973Y00020140D01*
X00032976Y00020109D01*
X00032977Y00020078D01*
X00032977Y00019291D01*
X00032976Y00019260D01*
X00032973Y00019229D01*
X00032967Y00019199D01*
X00032958Y00019169D01*
X00032947Y00019140D01*
X00032935Y00019112D01*
X00032919Y00019085D01*
X00032902Y00019059D01*
X00032883Y00019035D01*
X00032862Y00019012D01*
X00032839Y00018991D01*
X00032815Y00018972D01*
X00032789Y00018955D01*
X00032762Y00018940D01*
X00032734Y00018927D01*
X00032705Y00018916D01*
X00032676Y00018908D01*
X00032645Y00018902D01*
X00032615Y00018898D01*
X00032584Y00018897D01*
X00026470Y00018897D01*
X00018893Y00001879D02*
X00018893Y00001879D01*
X00018896Y00001909D01*
X00018900Y00001938D01*
X00018907Y00001967D01*
X00018917Y00001996D01*
X00018928Y00002024D01*
X00018941Y00002051D01*
X00018957Y00002077D01*
X00018974Y00002101D01*
X00018993Y00002124D01*
X00019014Y00002146D01*
X00019037Y00002166D01*
X00019061Y00002184D01*
X00019086Y00002200D01*
X00019112Y00002214D01*
X00019140Y00002227D01*
X00019168Y00002237D01*
X00019197Y00002245D01*
X00019227Y00002251D01*
X00019257Y00002254D01*
X00019287Y00002255D01*
X00020083Y00002255D01*
X00020113Y00002254D01*
X00020142Y00002251D01*
X00020172Y00002245D01*
X00020201Y00002237D01*
X00020229Y00002227D01*
X00020257Y00002215D01*
X00020283Y00002200D01*
X00020308Y00002184D01*
X00020332Y00002166D01*
X00020355Y00002146D01*
X00020376Y00002124D01*
X00020395Y00002101D01*
X00020412Y00002077D01*
X00020428Y00002051D01*
X00020441Y00002024D01*
X00020452Y00001996D01*
X00020462Y00001967D01*
X00020469Y00001938D01*
X00020473Y00001909D01*
X00020476Y00001879D01*
X00020479Y00001796D01*
X00020502Y00001626D01*
X00020539Y00001459D01*
X00020591Y00001295D01*
X00020656Y00001136D01*
X00020736Y00000984D01*
X00020828Y00000839D01*
X00020932Y00000703D01*
X00021049Y00000576D01*
X00021175Y00000460D01*
X00021311Y00000356D01*
X00021456Y00000263D01*
X00021609Y00000184D01*
X00021767Y00000118D01*
X00021931Y00000067D01*
X00022099Y00000029D01*
X00022269Y00000007D01*
X00022440Y00000000D01*
X00037401Y00000000D01*
X00037573Y00000007D01*
X00037743Y00000029D01*
X00037911Y00000067D01*
X00038074Y00000118D01*
X00038233Y00000184D01*
X00038385Y00000263D01*
X00038530Y00000356D01*
X00038666Y00000460D01*
X00038793Y00000576D01*
X00038909Y00000703D01*
X00039014Y00000839D01*
X00039106Y00000984D01*
X00039185Y00001136D01*
X00039251Y00001295D01*
X00039303Y00001459D01*
X00039340Y00001626D01*
X00039362Y00001796D01*
X00039370Y00001968D01*
X00039370Y00016929D01*
X00039362Y00017100D01*
X00039340Y00017270D01*
X00039303Y00017438D01*
X00039251Y00017602D01*
X00039185Y00017761D01*
X00039106Y00017913D01*
X00039014Y00018058D01*
X00038909Y00018194D01*
X00038793Y00018321D01*
X00038666Y00018437D01*
X00038530Y00018541D01*
X00038385Y00018633D01*
X00038233Y00018713D01*
X00038074Y00018778D01*
X00037911Y00018830D01*
X00037743Y00018867D01*
X00037573Y00018890D01*
X00037401Y00018897D01*
X00034344Y00018897D01*
X00034314Y00018898D01*
X00034283Y00018902D01*
X00034253Y00018908D01*
X00034223Y00018916D01*
X00034194Y00018927D01*
X00034166Y00018940D01*
X00034139Y00018955D01*
X00034113Y00018972D01*
X00034089Y00018991D01*
X00034066Y00019012D01*
X00034045Y00019035D01*
X00034026Y00019059D01*
X00034009Y00019085D01*
X00033994Y00019112D01*
X00033981Y00019140D01*
X00033970Y00019169D01*
X00033962Y00019199D01*
X00033956Y00019229D01*
X00033952Y00019260D01*
X00033951Y00019291D01*
X00033951Y00020078D01*
X00033952Y00020109D01*
X00033956Y00020140D01*
X00033962Y00020170D01*
X00033970Y00020200D01*
X00033981Y00020229D01*
X00033994Y00020257D01*
X00034009Y00020284D01*
X00034026Y00020310D01*
X00034045Y00020334D01*
X00034066Y00020357D01*
X00034089Y00020378D01*
X00034113Y00020397D01*
X00034139Y00020414D01*
X00034166Y00020429D01*
X00034194Y00020442D01*
X00034223Y00020453D01*
X00034253Y00020461D01*
X00034283Y00020467D01*
X00034314Y00020471D01*
X00034344Y00020472D01*
X00037401Y00020472D01*
X00037573Y00020479D01*
X00037743Y00020502D01*
X00037911Y00020539D01*
X00038074Y00020591D01*
X00038233Y00020656D01*
X00038385Y00020736D01*
X00038530Y00020828D01*
X00038666Y00020932D01*
X00038793Y00021049D01*
X00038909Y00021175D01*
X00039014Y00021311D01*
X00039106Y00021456D01*
X00039185Y00021609D01*
X00039251Y00021767D01*
X00039303Y00021931D01*
X00039340Y00022099D01*
X00039362Y00022269D01*
X00039370Y00022440D01*
X00039370Y00037401D01*
X00039362Y00037573D01*
X00039340Y00037743D01*
X00039303Y00037911D01*
X00039251Y00038074D01*
X00039185Y00038233D01*
X00039106Y00038385D01*
X00039014Y00038530D01*
X00038909Y00038666D01*
X00038793Y00038793D01*
X00038666Y00038909D01*
X00038530Y00039014D01*
X00038385Y00039106D01*
X00038233Y00039185D01*
X00038074Y00039251D01*
X00037911Y00039303D01*
X00037743Y00039340D01*
X00037573Y00039362D01*
X00037401Y00039370D01*
X00022440Y00039370D01*
X00022269Y00039362D01*
X00022099Y00039340D01*
X00021931Y00039303D01*
X00021767Y00039251D01*
X00021609Y00039185D01*
X00021456Y00039106D01*
X00021311Y00039014D01*
X00021175Y00038909D01*
X00021049Y00038793D01*
X00020932Y00038666D01*
X00020828Y00038530D01*
X00020736Y00038385D01*
X00020656Y00038233D01*
X00020591Y00038074D01*
X00020539Y00037911D01*
X00020502Y00037743D01*
X00020479Y00037573D01*
X00020472Y00037401D01*
X00020472Y00035919D01*
X00020471Y00035888D01*
X00020467Y00035858D01*
X00020461Y00035827D01*
X00020453Y00035798D01*
X00020442Y00035769D01*
X00020429Y00035740D01*
X00020414Y00035714D01*
X00020397Y00035688D01*
X00020378Y00035664D01*
X00020357Y00035641D01*
X00020334Y00035620D01*
X00020310Y00035601D01*
X00020284Y00035584D01*
X00020257Y00035568D01*
X00020229Y00035555D01*
X00020200Y00035545D01*
X00020170Y00035536D01*
X00020140Y00035530D01*
X00020109Y00035527D01*
X00020078Y00035526D01*
X00019291Y00035526D01*
X00019260Y00035527D01*
X00019229Y00035530D01*
X00019199Y00035536D01*
X00019169Y00035545D01*
X00019140Y00035555D01*
X00019112Y00035568D01*
X00019085Y00035584D01*
X00019059Y00035601D01*
X00019035Y00035620D01*
X00019012Y00035641D01*
X00018991Y00035664D01*
X00018972Y00035688D01*
X00018955Y00035714D01*
X00018940Y00035740D01*
X00018927Y00035769D01*
X00018916Y00035798D01*
X00018908Y00035827D01*
X00018902Y00035858D01*
X00018898Y00035888D01*
X00018897Y00035919D01*
X00018897Y00037401D01*
X00018890Y00037573D01*
X00018867Y00037743D01*
X00018830Y00037911D01*
X00018778Y00038074D01*
X00018713Y00038233D01*
X00018633Y00038385D01*
X00018541Y00038530D01*
X00018437Y00038666D01*
X00018321Y00038793D01*
X00018194Y00038909D01*
X00018058Y00039014D01*
X00017913Y00039106D01*
X00017761Y00039185D01*
X00017602Y00039251D01*
X00017438Y00039303D01*
X00017270Y00039340D01*
X00017100Y00039362D01*
X00016929Y00039370D01*
X00001968Y00039370D01*
X00001796Y00039362D01*
X00001626Y00039340D01*
X00001459Y00039303D01*
X00001295Y00039251D01*
X00001136Y00039185D01*
X00000984Y00039106D01*
X00000839Y00039014D01*
X00000703Y00038909D01*
X00000576Y00038793D01*
X00000460Y00038666D01*
X00000355Y00038530D01*
X00000263Y00038385D01*
X00000184Y00038233D01*
X00000118Y00038074D01*
X00000067Y00037911D01*
X00000029Y00037743D01*
X00000007Y00037573D01*
X00000000Y00037401D01*
X00000000Y00022440D01*
X00000007Y00022269D01*
X00000029Y00022099D01*
X00000067Y00021931D01*
X00000118Y00021767D01*
X00000184Y00021609D01*
X00000263Y00021456D01*
X00000355Y00021311D01*
X00000460Y00021175D01*
X00000576Y00021049D01*
X00000703Y00020932D01*
X00000839Y00020828D01*
X00000984Y00020736D01*
X00001136Y00020656D01*
X00001295Y00020591D01*
X00001459Y00020539D01*
X00001626Y00020502D01*
X00001796Y00020479D01*
X00001968Y00020472D01*
X00004237Y00020472D01*
X00004268Y00020471D01*
X00004299Y00020467D01*
X00004329Y00020461D01*
X00004359Y00020453D01*
X00004388Y00020442D01*
X00004416Y00020429D01*
X00004443Y00020414D01*
X00004469Y00020397D01*
X00004493Y00020378D01*
X00004516Y00020357D01*
X00004537Y00020334D01*
X00004556Y00020310D01*
X00004573Y00020284D01*
X00004588Y00020257D01*
X00004601Y00020229D01*
X00004612Y00020200D01*
X00004620Y00020170D01*
X00004626Y00020140D01*
X00004630Y00020109D01*
X00004631Y00020078D01*
X00004631Y00019291D01*
X00004630Y00019260D01*
X00004626Y00019229D01*
X00004620Y00019199D01*
X00004612Y00019169D01*
X00004601Y00019140D01*
X00004588Y00019112D01*
X00004573Y00019085D01*
X00004556Y00019059D01*
X00004537Y00019035D01*
X00004516Y00019012D01*
X00004493Y00018991D01*
X00004469Y00018972D01*
X00004443Y00018955D01*
X00004416Y00018940D01*
X00004388Y00018927D01*
X00004359Y00018916D01*
X00004329Y00018908D01*
X00004299Y00018902D01*
X00004268Y00018898D01*
X00004237Y00018897D01*
X00001968Y00018897D01*
X00001796Y00018890D01*
X00001626Y00018867D01*
X00001459Y00018830D01*
X00001295Y00018778D01*
X00001136Y00018713D01*
X00000984Y00018633D01*
X00000839Y00018541D01*
X00000703Y00018437D01*
X00000576Y00018321D01*
X00000460Y00018194D01*
X00000355Y00018058D01*
X00000263Y00017913D01*
X00000184Y00017761D01*
X00000118Y00017602D01*
X00000067Y00017438D01*
X00000029Y00017270D01*
X00000007Y00017100D01*
X00000000Y00016929D01*
X00000000Y00001968D01*
X00000007Y00001796D01*
X00000029Y00001626D01*
X00000067Y00001459D01*
X00000118Y00001295D01*
X00000184Y00001136D01*
X00000263Y00000984D01*
X00000355Y00000839D01*
X00000460Y00000703D01*
X00000576Y00000576D01*
X00000703Y00000460D01*
X00000839Y00000356D01*
X00000984Y00000263D01*
X00001136Y00000184D01*
X00001295Y00000118D01*
X00001459Y00000067D01*
X00001626Y00000029D01*
X00001796Y00000007D01*
X00001968Y00000000D01*
X00016929Y00000000D01*
X00017100Y00000007D01*
X00017270Y00000029D01*
X00017438Y00000067D01*
X00017602Y00000118D01*
X00017761Y00000184D01*
X00017913Y00000263D01*
X00018058Y00000356D01*
X00018194Y00000460D01*
X00018321Y00000576D01*
X00018437Y00000703D01*
X00018541Y00000839D01*
X00018633Y00000984D01*
X00018713Y00001136D01*
X00018778Y00001295D01*
X00018830Y00001459D01*
X00018867Y00001626D01*
X00018890Y00001796D01*
X00018893Y00001879D01*
X00020472Y00003636D02*
X00020472Y00003636D01*
X00020471Y00003605D01*
X00020467Y00003574D01*
X00020461Y00003544D01*
X00020453Y00003514D01*
X00020442Y00003485D01*
X00020429Y00003457D01*
X00020414Y00003430D01*
X00020397Y00003404D01*
X00020378Y00003380D01*
X00020357Y00003357D01*
X00020334Y00003336D01*
X00020310Y00003317D01*
X00020284Y00003300D01*
X00020257Y00003285D01*
X00020229Y00003272D01*
X00020200Y00003261D01*
X00020170Y00003253D01*
X00020140Y00003247D01*
X00020109Y00003243D01*
X00020078Y00003242D01*
X00019291Y00003242D01*
X00019260Y00003243D01*
X00019229Y00003247D01*
X00019199Y00003253D01*
X00019169Y00003261D01*
X00019140Y00003272D01*
X00019112Y00003285D01*
X00019085Y00003300D01*
X00019059Y00003317D01*
X00019035Y00003336D01*
X00019012Y00003357D01*
X00018991Y00003380D01*
X00018972Y00003404D01*
X00018955Y00003430D01*
X00018940Y00003457D01*
X00018927Y00003485D01*
X00018916Y00003514D01*
X00018908Y00003544D01*
X00018902Y00003574D01*
X00018898Y00003605D01*
X00018897Y00003636D01*
X00018897Y00015261D01*
X00018898Y00015292D01*
X00018902Y00015322D01*
X00018908Y00015353D01*
X00018916Y00015383D01*
X00018927Y00015412D01*
X00018940Y00015440D01*
X00018955Y00015467D01*
X00018972Y00015492D01*
X00018991Y00015517D01*
X00019012Y00015539D01*
X00019035Y00015560D01*
X00019059Y00015579D01*
X00019085Y00015597D01*
X00019112Y00015612D01*
X00019140Y00015625D01*
X00019169Y00015635D01*
X00019199Y00015644D01*
X00019229Y00015650D01*
X00019260Y00015653D01*
X00019291Y00015655D01*
X00020078Y00015655D01*
X00020109Y00015653D01*
X00020140Y00015650D01*
X00020170Y00015644D01*
X00020200Y00015635D01*
X00020229Y00015625D01*
X00020257Y00015612D01*
X00020284Y00015597D01*
X00020310Y00015579D01*
X00020334Y00015560D01*
X00020357Y00015539D01*
X00020378Y00015517D01*
X00020397Y00015492D01*
X00020414Y00015467D01*
X00020429Y00015440D01*
X00020442Y00015412D01*
X00020453Y00015383D01*
X00020461Y00015353D01*
X00020467Y00015322D01*
X00020471Y00015292D01*
X00020472Y00015261D01*
X00020472Y00003636D01*
X00020476Y00017018D02*
X00020476Y00017018D01*
X00020473Y00016988D01*
X00020469Y00016958D01*
X00020462Y00016929D01*
X00020452Y00016901D01*
X00020441Y00016873D01*
X00020428Y00016846D01*
X00020412Y00016820D01*
X00020395Y00016796D01*
X00020376Y00016772D01*
X00020355Y00016751D01*
X00020332Y00016731D01*
X00020308Y00016713D01*
X00020283Y00016696D01*
X00020257Y00016682D01*
X00020229Y00016670D01*
X00020201Y00016660D01*
X00020172Y00016652D01*
X00020142Y00016646D01*
X00020113Y00016643D01*
X00020083Y00016642D01*
X00019287Y00016642D01*
X00019257Y00016643D01*
X00019227Y00016646D01*
X00019197Y00016652D01*
X00019168Y00016660D01*
X00019140Y00016670D01*
X00019112Y00016682D01*
X00019086Y00016696D01*
X00019061Y00016713D01*
X00019037Y00016731D01*
X00019014Y00016751D01*
X00018993Y00016772D01*
X00018974Y00016796D01*
X00018957Y00016820D01*
X00018941Y00016846D01*
X00018928Y00016873D01*
X00018917Y00016901D01*
X00018907Y00016929D01*
X00018900Y00016958D01*
X00018896Y00016988D01*
X00018893Y00017018D01*
X00018890Y00017100D01*
X00018867Y00017270D01*
X00018830Y00017438D01*
X00018778Y00017602D01*
X00018713Y00017761D01*
X00018633Y00017913D01*
X00018541Y00018058D01*
X00018437Y00018194D01*
X00018321Y00018321D01*
X00018194Y00018437D01*
X00018058Y00018541D01*
X00017913Y00018633D01*
X00017761Y00018713D01*
X00017602Y00018778D01*
X00017438Y00018830D01*
X00017270Y00018867D01*
X00017100Y00018890D01*
X00016929Y00018897D01*
X00014659Y00018897D01*
X00014628Y00018898D01*
X00014598Y00018902D01*
X00014567Y00018908D01*
X00014538Y00018916D01*
X00014509Y00018927D01*
X00014481Y00018940D01*
X00014454Y00018955D01*
X00014428Y00018972D01*
X00014404Y00018991D01*
X00014381Y00019012D01*
X00014360Y00019035D01*
X00014341Y00019059D01*
X00014324Y00019085D01*
X00014309Y00019112D01*
X00014296Y00019140D01*
X00014285Y00019169D01*
X00014277Y00019199D01*
X00014271Y00019229D01*
X00014267Y00019260D01*
X00014266Y00019291D01*
X00014266Y00020078D01*
X00014267Y00020109D01*
X00014271Y00020140D01*
X00014277Y00020170D01*
X00014285Y00020200D01*
X00014296Y00020229D01*
X00014309Y00020257D01*
X00014324Y00020284D01*
X00014341Y00020310D01*
X00014360Y00020334D01*
X00014381Y00020357D01*
X00014404Y00020378D01*
X00014428Y00020397D01*
X00014454Y00020414D01*
X00014481Y00020429D01*
X00014509Y00020442D01*
X00014538Y00020453D01*
X00014567Y00020461D01*
X00014598Y00020467D01*
X00014628Y00020471D01*
X00014659Y00020472D01*
X00016929Y00020472D01*
X00017100Y00020479D01*
X00017270Y00020502D01*
X00017438Y00020539D01*
X00017602Y00020591D01*
X00017761Y00020656D01*
X00017913Y00020736D01*
X00018058Y00020828D01*
X00018194Y00020932D01*
X00018321Y00021049D01*
X00018437Y00021175D01*
X00018541Y00021311D01*
X00018633Y00021456D01*
X00018713Y00021609D01*
X00018778Y00021767D01*
X00018830Y00021931D01*
X00018867Y00022099D01*
X00018890Y00022269D01*
X00018897Y00022440D01*
X00018897Y00024710D01*
X00018898Y00024741D01*
X00018902Y00024771D01*
X00018908Y00024802D01*
X00018916Y00024831D01*
X00018927Y00024860D01*
X00018940Y00024888D01*
X00018955Y00024915D01*
X00018972Y00024941D01*
X00018991Y00024965D01*
X00019012Y00024988D01*
X00019035Y00025009D01*
X00019059Y00025028D01*
X00019085Y00025045D01*
X00019112Y00025060D01*
X00019140Y00025073D01*
X00019169Y00025084D01*
X00019199Y00025093D01*
X00019229Y00025099D01*
X00019260Y00025102D01*
X00019291Y00025103D01*
X00020078Y00025103D01*
X00020109Y00025102D01*
X00020140Y00025099D01*
X00020170Y00025093D01*
X00020200Y00025084D01*
X00020229Y00025073D01*
X00020257Y00025060D01*
X00020284Y00025045D01*
X00020310Y00025028D01*
X00020334Y00025009D01*
X00020357Y00024988D01*
X00020378Y00024965D01*
X00020397Y00024941D01*
X00020414Y00024915D01*
X00020429Y00024888D01*
X00020442Y00024860D01*
X00020453Y00024831D01*
X00020461Y00024802D01*
X00020467Y00024771D01*
X00020471Y00024741D01*
X00020472Y00024710D01*
X00020472Y00022440D01*
X00020479Y00022269D01*
X00020502Y00022099D01*
X00020539Y00021931D01*
X00020591Y00021767D01*
X00020656Y00021609D01*
X00020736Y00021456D01*
X00020828Y00021311D01*
X00020932Y00021175D01*
X00021049Y00021049D01*
X00021175Y00020932D01*
X00021311Y00020828D01*
X00021456Y00020736D01*
X00021609Y00020656D01*
X00021767Y00020591D01*
X00021931Y00020539D01*
X00022099Y00020502D01*
X00022269Y00020479D01*
X00022440Y00020472D01*
X00024710Y00020472D01*
X00024741Y00020471D01*
X00024771Y00020467D01*
X00024802Y00020461D01*
X00024831Y00020453D01*
X00024860Y00020442D01*
X00024888Y00020429D01*
X00024915Y00020414D01*
X00024941Y00020397D01*
X00024965Y00020378D01*
X00024988Y00020357D01*
X00025009Y00020334D01*
X00025028Y00020310D01*
X00025045Y00020284D01*
X00025060Y00020257D01*
X00025073Y00020229D01*
X00025084Y00020200D01*
X00025093Y00020170D01*
X00025099Y00020140D01*
X00025102Y00020109D01*
X00025103Y00020078D01*
X00025103Y00019291D01*
X00025102Y00019260D01*
X00025099Y00019229D01*
X00025093Y00019199D01*
X00025084Y00019169D01*
X00025073Y00019140D01*
X00025060Y00019112D01*
X00025045Y00019085D01*
X00025028Y00019059D01*
X00025009Y00019035D01*
X00024988Y00019012D01*
X00024965Y00018991D01*
X00024941Y00018972D01*
X00024915Y00018955D01*
X00024888Y00018940D01*
X00024860Y00018927D01*
X00024831Y00018916D01*
X00024802Y00018908D01*
X00024771Y00018902D01*
X00024741Y00018898D01*
X00024710Y00018897D01*
X00022440Y00018897D01*
X00022269Y00018890D01*
X00022099Y00018867D01*
X00021931Y00018830D01*
X00021767Y00018778D01*
X00021609Y00018713D01*
X00021456Y00018633D01*
X00021311Y00018541D01*
X00021175Y00018437D01*
X00021049Y00018321D01*
X00020932Y00018194D01*
X00020828Y00018058D01*
X00020736Y00017913D01*
X00020656Y00017761D01*
X00020591Y00017602D01*
X00020539Y00017438D01*
X00020502Y00017270D01*
X00020479Y00017100D01*
X00020476Y00017018D01*
X00005998Y00018897D02*
X00005998Y00018897D01*
X00005967Y00018898D01*
X00005936Y00018902D01*
X00005906Y00018908D01*
X00005876Y00018916D01*
X00005847Y00018927D01*
X00005819Y00018940D01*
X00005792Y00018955D01*
X00005767Y00018972D01*
X00005742Y00018991D01*
X00005720Y00019012D01*
X00005699Y00019035D01*
X00005679Y00019059D01*
X00005662Y00019085D01*
X00005647Y00019112D01*
X00005634Y00019140D01*
X00005624Y00019169D01*
X00005615Y00019199D01*
X00005609Y00019229D01*
X00005605Y00019260D01*
X00005604Y00019291D01*
X00005604Y00020078D01*
X00005605Y00020109D01*
X00005609Y00020140D01*
X00005615Y00020170D01*
X00005624Y00020200D01*
X00005634Y00020229D01*
X00005647Y00020257D01*
X00005662Y00020284D01*
X00005679Y00020310D01*
X00005699Y00020334D01*
X00005720Y00020357D01*
X00005742Y00020378D01*
X00005767Y00020397D01*
X00005792Y00020414D01*
X00005819Y00020429D01*
X00005847Y00020442D01*
X00005876Y00020453D01*
X00005906Y00020461D01*
X00005936Y00020467D01*
X00005967Y00020471D01*
X00005998Y00020472D01*
X00012899Y00020472D01*
X00012930Y00020471D01*
X00012960Y00020467D01*
X00012991Y00020461D01*
X00013020Y00020453D01*
X00013049Y00020442D01*
X00013077Y00020429D01*
X00013104Y00020414D01*
X00013130Y00020397D01*
X00013154Y00020378D01*
X00013177Y00020357D01*
X00013198Y00020334D01*
X00013217Y00020310D01*
X00013234Y00020284D01*
X00013249Y00020257D01*
X00013262Y00020229D01*
X00013273Y00020200D01*
X00013282Y00020170D01*
X00013288Y00020140D01*
X00013291Y00020109D01*
X00013292Y00020078D01*
X00013292Y00019291D01*
X00013291Y00019260D01*
X00013288Y00019229D01*
X00013282Y00019199D01*
X00013273Y00019169D01*
X00013262Y00019140D01*
X00013249Y00019112D01*
X00013234Y00019085D01*
X00013217Y00019059D01*
X00013198Y00019035D01*
X00013177Y00019012D01*
X00013154Y00018991D01*
X00013130Y00018972D01*
X00013104Y00018955D01*
X00013077Y00018940D01*
X00013049Y00018927D01*
X00013020Y00018916D01*
X00012991Y00018908D01*
X00012960Y00018902D01*
X00012930Y00018898D01*
X00012899Y00018897D01*
X00005998Y00018897D01*
X00018897Y00034159D02*
X00018897Y00034159D01*
X00018898Y00034189D01*
X00018902Y00034220D01*
X00018908Y00034250D01*
X00018916Y00034280D01*
X00018927Y00034309D01*
X00018940Y00034337D01*
X00018955Y00034364D01*
X00018972Y00034390D01*
X00018991Y00034414D01*
X00019012Y00034437D01*
X00019035Y00034458D01*
X00019059Y00034477D01*
X00019085Y00034494D01*
X00019112Y00034509D01*
X00019140Y00034522D01*
X00019169Y00034533D01*
X00019199Y00034541D01*
X00019229Y00034547D01*
X00019260Y00034551D01*
X00019291Y00034552D01*
X00020078Y00034552D01*
X00020109Y00034551D01*
X00020140Y00034547D01*
X00020170Y00034541D01*
X00020200Y00034533D01*
X00020229Y00034522D01*
X00020257Y00034509D01*
X00020284Y00034494D01*
X00020310Y00034477D01*
X00020334Y00034458D01*
X00020357Y00034437D01*
X00020378Y00034414D01*
X00020397Y00034390D01*
X00020414Y00034364D01*
X00020429Y00034337D01*
X00020442Y00034309D01*
X00020453Y00034280D01*
X00020461Y00034250D01*
X00020467Y00034220D01*
X00020471Y00034189D01*
X00020472Y00034159D01*
X00020472Y00026470D01*
X00020471Y00026440D01*
X00020467Y00026409D01*
X00020461Y00026378D01*
X00020453Y00026349D01*
X00020442Y00026320D01*
X00020429Y00026292D01*
X00020414Y00026265D01*
X00020397Y00026239D01*
X00020378Y00026215D01*
X00020357Y00026192D01*
X00020334Y00026171D01*
X00020310Y00026152D01*
X00020284Y00026135D01*
X00020257Y00026120D01*
X00020229Y00026107D01*
X00020200Y00026096D01*
X00020170Y00026088D01*
X00020140Y00026082D01*
X00020109Y00026078D01*
X00020078Y00026077D01*
X00019291Y00026077D01*
X00019260Y00026078D01*
X00019229Y00026082D01*
X00019199Y00026088D01*
X00019169Y00026096D01*
X00019140Y00026107D01*
X00019112Y00026120D01*
X00019085Y00026135D01*
X00019059Y00026152D01*
X00019035Y00026171D01*
X00019012Y00026192D01*
X00018991Y00026215D01*
X00018972Y00026239D01*
X00018955Y00026265D01*
X00018940Y00026292D01*
X00018927Y00026320D01*
X00018916Y00026349D01*
X00018908Y00026378D01*
X00018902Y00026409D01*
X00018898Y00026440D01*
X00018897Y00026470D01*
X00018897Y00034159D01*
M02*