%
M48
METRIC,000.000
T01C0.30
T02C0.50
T03C3.20
T10C0.20
T11C0.40
T12C0.60
T13C0.80
T14C1.00
%
T01
X000401Y038400
X000401Y031999
X000401Y027699
X000401Y021300
X000401Y017099
X000401Y010698
X001099Y038400
X001099Y031999
X001099Y027699
X001099Y021300
X001099Y017099
X001099Y010698
X001800Y038400
X001800Y031999
X001800Y027699
X001800Y021300
X001800Y017099
X001800Y010698
X002499Y038400
X002499Y031999
X002499Y027699
X002499Y021300
X002499Y017099
X002499Y010698
X003200Y038400
X003200Y031999
X003200Y027699
X003200Y021300
X003200Y017099
X003200Y010698
X003898Y038400
X003898Y031999
X003898Y027699
X003898Y021300
X003898Y017099
X003898Y010698
X004500Y025601
X004500Y023500
X004599Y036200
X004599Y034199
X004698Y014900
X004800Y012799
X005199Y025601
X005199Y023500
X005300Y036200
X005300Y034199
X005399Y014900
X005498Y012799
X005900Y025601
X005900Y023500
X005999Y036200
X005999Y034199
X006100Y014900
X006199Y012799
X006598Y025601
X006598Y023500
X006700Y036200
X006700Y034199
X006799Y014900
X006901Y012799
X007299Y025601
X007299Y023500
X007398Y036200
X007398Y034199
X007500Y014900
X007599Y012799
X008000Y025601
X008000Y023500
X008099Y036200
X008099Y034199
X008198Y014900
X008300Y012799
X008699Y025601
X008699Y023500
X008800Y036200
X008800Y034199
X008900Y014900
X008999Y012799
X009400Y025601
X009400Y023500
X009499Y036200
X009499Y034199
X009601Y014900
X009700Y012799
X010098Y025601
X010098Y023500
X010200Y036200
X010200Y034199
X010299Y014900
X010401Y012799
X010799Y025601
X010799Y023500
X010899Y036200
X010899Y034199
X011000Y014900
X011099Y012799
X011500Y025601
X011500Y023500
X011600Y036200
X011600Y034199
X011699Y014900
X011800Y012799
X012199Y025601
X012199Y023500
X012301Y036200
X012301Y034199
X012400Y014900
X012499Y012799
X012900Y025601
X012900Y023500
X012999Y036200
X012999Y034199
X013101Y014900
X013200Y012799
X013599Y025601
X013599Y023500
X013700Y036200
X013700Y034199
X013799Y014900
X013898Y012799
X014300Y025601
X014300Y023500
X014399Y036200
X014399Y034199
X014500Y014900
X014599Y012799
X015001Y025601
X015001Y023500
X015100Y036200
X015100Y034199
X015199Y014900
X015300Y012799
X015699Y025601
X015699Y023500
X015801Y036200
X015801Y034199
X015900Y014900
X015999Y012799
X016400Y025601
X016400Y023500
X016423Y004006
X016423Y003307
X016423Y002606
X016423Y001905
X016423Y001206
X016423Y000500
X016499Y036200
X016499Y034199
X016598Y014900
X016700Y012799
X017099Y025601
X017099Y023500
X017200Y036200
X017200Y034199
X017299Y014900
X017398Y012799
X017800Y025601
X017800Y023500
X017899Y036200
X017899Y034199
X018000Y014900
X018099Y012799
X018501Y025601
X018501Y023500
X018600Y036200
X018600Y034199
X018600Y007800
X018600Y007099
X018600Y006401
X018600Y005700
X018600Y004999
X018699Y014900
X018800Y012799
X019100Y008301
X019199Y025601
X019199Y023500
X019298Y036200
X019298Y034199
X019400Y014900
X019499Y012799
X019601Y008799
X019900Y025601
X019900Y023500
X019999Y036200
X019999Y034199
X020098Y014900
X020098Y009299
X020200Y012799
X020599Y025601
X020599Y023500
X020599Y009799
X020599Y006800
X020599Y006099
X020599Y005400
X020599Y004699
X020700Y036200
X020700Y034199
X020799Y014900
X020898Y012799
X021099Y007300
X021300Y025601
X021300Y023500
X021300Y009898
X021399Y036200
X021399Y034199
X021500Y014900
X021600Y012799
X021600Y007800
X021998Y025601
X021998Y023500
X021998Y009898
X022100Y036200
X022100Y034199
X022199Y014900
X022301Y012799
X022301Y007800
X022699Y025601
X022699Y023500
X022699Y009898
X022798Y036200
X022798Y034199
X022844Y004013
X022844Y003312
X022844Y002611
X022844Y001913
X022844Y001212
X022844Y000500
X022900Y014900
X022999Y012799
X022999Y007800
X023400Y025601
X023400Y023500
X023400Y009898
X023499Y036200
X023499Y034199
X023598Y014900
X023700Y012799
X023700Y007800
X024099Y025601
X024099Y023500
X024099Y009898
X024200Y036200
X024200Y034199
X024300Y014900
X024399Y012799
X024399Y007800
X024800Y025601
X024800Y023500
X024800Y009898
X024899Y036200
X024899Y034199
X025001Y014900
X025100Y012799
X025100Y007800
X025498Y025601
X025498Y023500
X025600Y036200
X025600Y034199
X026199Y025601
X026199Y023500
X026299Y036200
X026299Y034199
X026900Y025601
X026900Y023500
X027000Y036200
X027000Y034199
X027599Y025601
X027599Y023500
X027701Y036200
X027701Y034199
X028300Y025601
X028300Y023500
X028399Y036200
X028399Y034199
X028999Y025601
X028999Y023500
X029100Y036200
X029100Y034199
X029700Y025601
X029700Y023500
X029799Y036200
X029799Y034199
X029900Y014399
X029900Y012901
X029900Y011399
X029900Y009898
X029900Y008400
X030401Y025601
X030401Y023500
X030500Y036200
X030500Y034199
X031099Y025601
X031099Y023500
X031201Y036200
X031201Y034199
X031800Y025601
X031800Y023500
X031899Y036200
X031899Y034199
X032499Y025601
X032499Y023500
X032600Y036200
X032600Y034199
X033200Y025601
X033200Y023500
X033299Y036200
X033299Y034199
X033901Y025601
X033901Y023500
X034000Y036200
X034000Y034199
X034599Y025601
X034599Y023500
X034698Y036200
X034698Y034199
X034800Y014900
X034800Y012799
X035300Y025601
X035300Y023500
X035399Y036200
X035399Y034199
X035498Y014900
X035498Y012799
X035999Y025601
X035999Y023500
X036100Y036200
X036100Y034199
X036199Y014900
X036199Y012799
X036700Y025601
X036700Y023500
X036799Y036200
X036799Y034199
X036900Y014900
X036900Y012799
X037398Y025601
X037398Y023500
X037500Y036200
X037500Y034199
X037599Y014900
X037599Y012799
X038099Y025601
X038099Y023500
X038198Y036200
X038198Y034199
X038300Y014900
X038300Y012799
X038800Y025601
X038800Y023500
X038899Y036200
X038899Y034199
X038999Y014900
X038999Y012799
X039499Y025601
X039499Y023500
X039600Y036200
X039600Y034199
X039700Y014900
X039700Y012799
X040200Y025601
X040200Y023500
X040299Y036200
X040299Y034199
X040401Y014900
X040401Y012799
X040898Y025601
X040898Y023500
X041000Y036200
X041000Y034199
X041099Y014900
X041099Y012799
X041599Y025601
X041599Y023500
X041699Y036200
X041699Y034199
X041800Y014900
X041800Y012799
X042301Y025601
X042301Y023500
X042400Y036200
X042400Y034199
X042499Y014900
X042499Y012799
X042999Y025601
X042999Y023500
X043101Y036200
X043101Y034199
X043200Y014900
X043200Y012799
X044000Y017099
X044000Y010698
X044099Y038400
X044099Y031999
X044099Y027699
X044099Y021300
X044698Y017099
X044698Y010698
X044800Y038400
X044800Y031999
X044800Y027699
X044800Y021300
X045399Y017099
X045399Y010698
X045498Y038400
X045498Y031999
X045498Y027699
X045498Y021300
X046100Y017099
X046100Y010698
X046199Y038400
X046199Y031999
X046199Y027699
X046199Y021300
X046799Y017099
X046799Y010698
X046900Y038400
X046900Y031999
X046900Y027699
X046900Y021300
X047500Y017099
X047500Y010698
X047599Y038400
X047599Y031999
X047599Y027699
X047599Y021300
X076251Y028951
X076251Y026550
X076200Y032949
X076200Y030548
X083749Y025250
X083749Y024249
X084249Y024749
X084750Y025250
X084750Y024249
X076200Y022949
X076200Y020548
X067650Y025750
X067650Y024749
X068151Y025250
X068648Y025750
X068648Y024749
X076200Y019027
X076200Y016627
X014749Y075189
X016450Y080120
X017980Y084049
X023458Y079492
X023580Y073820
X024551Y079492
X024690Y073820
X025671Y076520
X025760Y079040
X025813Y078466
X026260Y082820
X026626Y074874
X026999Y073325
X026999Y072274
X027339Y082820
X027418Y074224
X027995Y074222
X028320Y084890
X028490Y082370
X028571Y074247
X029110Y074044
X029420Y084890
X030474Y070523
X030580Y083419
X030649Y073409
X031670Y083429
X032950Y083419
X034040Y083399
X036199Y076099
X036798Y077950
X036798Y076099
X037400Y077950
X037400Y076099
X038000Y077950
X038000Y076099
X038599Y077950
X038599Y076099
X039199Y077950
X039199Y076099
X039801Y077950
X039801Y076099
X040400Y077950
X040400Y076099
X041000Y077950
X041000Y076099
X041599Y077950
X041599Y076099
X042099Y077950
X042099Y076099
X042699Y077950
X042699Y076099
X043298Y077950
X043298Y076099
X043849Y079500
X043900Y077950
X043900Y076099
X043949Y074699
X044299Y079500
X044401Y074699
X044749Y079500
X044850Y074699
X045201Y079500
X045300Y074699
X045650Y079500
X045749Y074699
X046100Y079500
X046199Y074699
X046549Y079500
X046649Y074699
X046999Y079500
X047101Y074699
X047449Y079500
X047550Y074699
X027786Y078263
X027786Y077262
X027786Y076261
X028787Y078263
X028787Y077262
X028787Y076261
X029788Y078263
X029788Y077262
X029788Y076261
T02
X002600Y004999
X003301Y006695
X003301Y003302
X005001Y007399
X005001Y002598
X006697Y006695
X006697Y003302
X007398Y004999
X002600Y043000
X003301Y044696
X003301Y041303
X005001Y045400
X005001Y040599
X006697Y044696
X006697Y041303
X007398Y043000
X040599Y043000
X041302Y044696
X041302Y041303
X042999Y045400
X042999Y040599
X044696Y044696
X044696Y041303
X045399Y043000
X040599Y004999
X041302Y006695
X041302Y003302
X042999Y007399
X042999Y002598
X044696Y006695
X044696Y003302
X045399Y004999
X092601Y004998
X093302Y006698
X093302Y003302
X094998Y007399
X094998Y002601
X096698Y006698
X096698Y003302
X097399Y004998
X092601Y042999
X093302Y044696
X093302Y041303
X094998Y045400
X094998Y040599
X096698Y044696
X096698Y041303
X097399Y042999
X054600Y004998
X055303Y006698
X055303Y003302
X057000Y007399
X057000Y002601
X058697Y006698
X058697Y003302
X059400Y004998
X054600Y042999
X055303Y044696
X055303Y041303
X057000Y045400
X057000Y040599
X058697Y044696
X058697Y041303
X059400Y042999
X054599Y057000
X055303Y058697
X055303Y055303
X056999Y059400
X056999Y054600
X058696Y058697
X058696Y055303
X059400Y057000
X092600Y057000
X093303Y058697
X093303Y055303
X095000Y059400
X095000Y054600
X096697Y058697
X096697Y055303
X097401Y057000
X092600Y094998
X093303Y096698
X093303Y093302
X095000Y097399
X095000Y092601
X096697Y096698
X096697Y093302
X097401Y094998
X054599Y094998
X055303Y096698
X055303Y093302
X056999Y097399
X056999Y092601
X058696Y096698
X058696Y093302
X059400Y094998
X040598Y094999
X041302Y096696
X041302Y093302
X042999Y097399
X042999Y092599
X044698Y096696
X044698Y093302
X045399Y094999
X002600Y094999
X003303Y096696
X003303Y093302
X005000Y097399
X005000Y092599
X006697Y096696
X006697Y093302
X007400Y094999
X040598Y057000
X041302Y058697
X041302Y055301
X042999Y059398
X042999Y054600
X044698Y058697
X044698Y055301
X045399Y057000
X002600Y057000
X003303Y058697
X003303Y055301
X005000Y059398
X005000Y054600
X006697Y058697
X006697Y055301
X007400Y057000
T03
X005001Y043000
X042999Y043000
X042999Y004999
X005001Y004999
X094998Y004998
X094998Y042999
X057000Y004998
X057000Y042999
X056999Y057000
X095000Y057000
X095000Y094998
X056999Y094998
X005000Y094999
X042999Y057000
X005000Y057000
X042999Y094999
T10
X052299Y028300
X052299Y021801
X052799Y028300
X052799Y021801
X053299Y028300
X053299Y021801
X053500Y040000
X053500Y034998
X053500Y030000
X053500Y020000
X053500Y014998
X053500Y010000
X053800Y028300
X053800Y021801
X054300Y028300
X054300Y021801
X054800Y028300
X054800Y021801
X055298Y028300
X055298Y021801
X055799Y028300
X055799Y021801
X055999Y037500
X055999Y032499
X055999Y017500
X055999Y012499
X056500Y025900
X056500Y024099
X057000Y027500
X057000Y025900
X057000Y024099
X057000Y022499
X057500Y025900
X057500Y025900
X057500Y025900
X057500Y024099
X057500Y024099
X057500Y024099
X057998Y025900
X057998Y024099
X058499Y040000
X058499Y034998
X058499Y030000
X058499Y025900
X058499Y024099
X058499Y020000
X058499Y014998
X058499Y010000
X058999Y025900
X058999Y024099
X059499Y025900
X059499Y024099
X060000Y025900
X060000Y024099
X060500Y025900
X060500Y024099
X061001Y045499
X061001Y040500
X061001Y037500
X061001Y032499
X061001Y025900
X061001Y024099
X061001Y017500
X061001Y012499
X061001Y007500
X061001Y002499
X061498Y025900
X061498Y024099
X061999Y027500
X061999Y025900
X061999Y024099
X061999Y022499
X062499Y025900
X062499Y024099
X062900Y016799
X063000Y025900
X063000Y024099
X063500Y042999
X063500Y040000
X063500Y034998
X063500Y030000
X063500Y025900
X063500Y024099
X063500Y020000
X063500Y010000
X063500Y004998
X064699Y018100
X065999Y045499
X065999Y040500
X065999Y037500
X065999Y032499
X065999Y007500
X066500Y027698
X066799Y022400
X066850Y028300
X067351Y028750
X067351Y021849
X067848Y029200
X067848Y021300
X068349Y029751
X068349Y020800
X068499Y042999
X068499Y040000
X068499Y034998
X068499Y010000
X068849Y030200
X069299Y030701
X069299Y019850
X069748Y023050
X069799Y031150
X069949Y028750
X070200Y018951
X070249Y031651
X070500Y028750
X070548Y029349
X070698Y032148
X071001Y040500
X071001Y037500
X071001Y012499
X071001Y007500
X071001Y002499
X071049Y029799
X071049Y028750
X071049Y018151
X071199Y032649
X071399Y020299
X071498Y030299
X071498Y017650
X071600Y028750
X071699Y032799
X071801Y026898
X071951Y030800
X071951Y017150
X071999Y020851
X072100Y046599
X072100Y028750
X072199Y032799
X072250Y019448
X072298Y026898
X072499Y030851
X072550Y016799
X072601Y028750
X072700Y032799
X072799Y026898
X072799Y018999
X072900Y044300
X073000Y030851
X073099Y028750
X073200Y032799
X073299Y026898
X073299Y020650
X073500Y040000
X073500Y034998
X073500Y014998
X073500Y010000
X073500Y004998
X074899Y046599
X075999Y040500
X075999Y037500
X075999Y012499
X075999Y007500
X075999Y002499
X077201Y046599
X078499Y040000
X078499Y034998
X078499Y014998
X078499Y010000
X078499Y004998
X079101Y044300
X079101Y026898
X079101Y020899
X079101Y018699
X079101Y016898
X079149Y022649
X079200Y028750
X079250Y032700
X079499Y030851
X079598Y026898
X079598Y020899
X079598Y018699
X079598Y016898
X079700Y028750
X079748Y022649
X079850Y032700
X080000Y046499
X080000Y002499
X080051Y030701
X080099Y020899
X080099Y018801
X080099Y016898
X080150Y026898
X080249Y028750
X080449Y032700
X080500Y030200
X080599Y020899
X080599Y019149
X080599Y016898
X080749Y028750
X080950Y029700
X081001Y040500
X081001Y037500
X081001Y032298
X081001Y012499
X081001Y007500
X081100Y020899
X081100Y019649
X081100Y019649
X081100Y019649
X081100Y017051
X081300Y028750
X081348Y029299
X081450Y031900
X081600Y020899
X081600Y020150
X081600Y017549
X081849Y028849
X081900Y031399
X082050Y018049
X082100Y020899
X082349Y030899
X082499Y018549
X082900Y030398
X083000Y018999
X083350Y029901
X083449Y019499
X083500Y042999
X083500Y040000
X083500Y014998
X083500Y010000
X083850Y029448
X083949Y019949
X084300Y028951
X084450Y020500
X084800Y028498
X084950Y020950
X085301Y028049
X085451Y021399
X085799Y027549
X085799Y021999
X085948Y027051
X085948Y026550
X085948Y025550
X085999Y045499
X085999Y040500
X085999Y036499
X085999Y017500
X085999Y012499
X088199Y025999
X088199Y023899
X088499Y042999
X088499Y040000
X088499Y027500
X088499Y020000
X088499Y014998
X088499Y010000
X088699Y025900
X088699Y024099
X089200Y025900
X089200Y024099
X089700Y025900
X089700Y025900
X089700Y025900
X089700Y024099
X090200Y025900
X090200Y024099
X090200Y024099
X090200Y024099
X090698Y025900
X090698Y024099
X091001Y045499
X091001Y036499
X091001Y028999
X091001Y022499
X091001Y017500
X091001Y012499
X091199Y025900
X091199Y024099
X091699Y025900
X091699Y024099
X092199Y025900
X092199Y024099
X092700Y025900
X092700Y024099
X093200Y025900
X093200Y024099
X093500Y040000
X093500Y027500
X093500Y020000
X093500Y014998
X093500Y010000
X093701Y025900
X093701Y024099
X094198Y025900
X094198Y024099
X094699Y025900
X094699Y025900
X094699Y024099
X095199Y025900
X095199Y025900
X095199Y024099
X095199Y024099
X095999Y017500
X095999Y012499
X096200Y028300
X096200Y021699
X096700Y028300
X096700Y021699
X097201Y028300
X097201Y021699
X097698Y028300
X097698Y021699
X098199Y028300
X098199Y021699
X098499Y040000
X098499Y034998
X098499Y030000
X098499Y020000
X098499Y014998
X098499Y010000
X098699Y028300
X098699Y021699
X099200Y028300
X099200Y021699
X099700Y028300
X099700Y021699
X052199Y078199
X052199Y071600
X052699Y078199
X052699Y071600
X053199Y078199
X053199Y071600
X053700Y078199
X053700Y071600
X054200Y078199
X054200Y071600
X054500Y084998
X054500Y080000
X054500Y070000
X054500Y067500
X054500Y062499
X054701Y078199
X054701Y071600
X055198Y078199
X055198Y071600
X055699Y078199
X055699Y071600
X056199Y075900
X056400Y074000
X056700Y075900
X056900Y074000
X056999Y087500
X056999Y082499
X056999Y077500
X056999Y072499
X056999Y064998
X057200Y075900
X057200Y075900
X057200Y075900
X057401Y074000
X057700Y075900
X057898Y074000
X058399Y074000
X058699Y076401
X058899Y074000
X059349Y078049
X059349Y075799
X059400Y074000
X059499Y090000
X059499Y084998
X059499Y070000
X059499Y060000
X059900Y074000
X060400Y078049
X060649Y075499
X061175Y077450
X062001Y097500
X062001Y092499
X062001Y087500
X062001Y067500
X062001Y062499
X062001Y057500
X062552Y078806
X063126Y078499
X063649Y078986
X064175Y078600
X064500Y094998
X064500Y090000
X064500Y064998
X064500Y060000
X064500Y054998
X064623Y079093
X065150Y079499
X066301Y066299
X066900Y074000
X066999Y097500
X066999Y092499
X066999Y072499
X067401Y074000
X067898Y074000
X068201Y075799
X068399Y074000
X068699Y075799
X068899Y074000
X068950Y066149
X069199Y075699
X069400Y074000
X069499Y094998
X069499Y090000
X069499Y084998
X069499Y080000
X069499Y070000
X069699Y075900
X070200Y075999
X070700Y075999
X071249Y075849
X071500Y066063
X071800Y075999
X072001Y092499
X072001Y087500
X072249Y098549
X072300Y075999
X072801Y075999
X073100Y096299
X073100Y074000
X073298Y075699
X074000Y066200
X074500Y074000
X074500Y070000
X075000Y074000
X075049Y098549
X075501Y074000
X075750Y078450
X075998Y073899
X076600Y066098
X076799Y075900
X077299Y075900
X077350Y098549
X077799Y075799
X078300Y075699
X078698Y074000
X078800Y075699
X079199Y074000
X079199Y065999
X079300Y096299
X079300Y075799
X079699Y073800
X079798Y075900
X080149Y098549
X080200Y073800
X080299Y075900
X080700Y073800
X080799Y075900
X081150Y080449
X081200Y073700
X081299Y076299
X081599Y073200
X081599Y073200
X081599Y073200
X081650Y066098
X081800Y076700
X081950Y082100
X082001Y094998
X082001Y090000
X082001Y072700
X082300Y077201
X082498Y072400
X082699Y080449
X082801Y077500
X082999Y075301
X082999Y074800
X083100Y072298
X083250Y085900
X083298Y077800
X083499Y075301
X083601Y075900
X083601Y072601
X083700Y080449
X083799Y077800
X083900Y073099
X084099Y075699
X084200Y076200
X084200Y066050
X084299Y077800
X084299Y073599
X084500Y097500
X084500Y092499
X084701Y075699
X084749Y080449
X084800Y076200
X084800Y074000
X084800Y074000
X084800Y074000
X085249Y078648
X085300Y075900
X085300Y074000
X085800Y075900
X085800Y074000
X086199Y078001
X086301Y075900
X086301Y074000
X086699Y078001
X086699Y078001
X086699Y078001
X086799Y075900
X086799Y074000
X086999Y094998
X086999Y090000
X086999Y070000
X086999Y064998
X087200Y078001
X087299Y075900
X087299Y074000
X087700Y078001
X087799Y075900
X087799Y074000
X088300Y081900
X088300Y075900
X088300Y074000
X088500Y078699
X088800Y075900
X088800Y074000
X088899Y081900
X089199Y077899
X089300Y083474
X089300Y075900
X089300Y074000
X089499Y097500
X089499Y092499
X089499Y081801
X089499Y072499
X089499Y067500
X089499Y062499
X089499Y057500
X089750Y086400
X089798Y078001
X089798Y075900
X089798Y074000
X089999Y081699
X090299Y075900
X090299Y074000
X090400Y078300
X090598Y081699
X090799Y078798
X090799Y075900
X090799Y074000
X090850Y086400
X091000Y076599
X091200Y081801
X091200Y081300
X091200Y080800
X091200Y080299
X091200Y079799
X091200Y079299
X091299Y075900
X091299Y074000
X091500Y077000
X091800Y075900
X091800Y074000
X092000Y090000
X092000Y084998
X092000Y077500
X092000Y070000
X092000Y064998
X092000Y060000
X092300Y075900
X092300Y074000
X092498Y078001
X092801Y075900
X092801Y074000
X092999Y078499
X093085Y083500
X093100Y081999
X093100Y081498
X093100Y081000
X093100Y080500
X093100Y080000
X093100Y079499
X093100Y078999
X093298Y075900
X093298Y074000
X093799Y075900
X093799Y074000
X094299Y075900
X094299Y074000
X094500Y087500
X094500Y082499
X094500Y077500
X094500Y072499
X094500Y067500
X094500Y062499
X094800Y075900
X094800Y074000
X095300Y075900
X095300Y074000
X096100Y078199
X096100Y071600
X096600Y078199
X096600Y071600
X096999Y090000
X096999Y084998
X096999Y080000
X096999Y070000
X096999Y064998
X097098Y078199
X097098Y071600
X097599Y078199
X097599Y071600
X098099Y078199
X098099Y071600
X098599Y078199
X098599Y071600
X099100Y078199
X099100Y071600
X099600Y078199
X099600Y071600
X062801Y076700
X062801Y075649
X062801Y074600
X063900Y076700
X063900Y075649
X063900Y074600
X065000Y076700
X065000Y075649
X065000Y074600
T11
X065601Y004800
X066599Y016799
X066749Y018600
X068100Y017902
X068199Y004800
X070757Y022740
X070800Y026225
X071699Y024501
X073424Y024902
X080299Y025301
X080500Y023500
X081199Y024300
X081249Y027000
X082601Y026898
X084600Y034000
X084600Y032700
X085799Y028900
X085900Y034000
X096700Y030500
X097899Y037599
X070273Y073675
X072173Y073675
X074701Y089598
X074899Y094198
X077599Y087000
X080200Y088798
X080200Y086200
X081099Y088001
X087375Y085674
X087375Y081849
X003999Y090998
X003999Y063500
X004500Y087000
X006499Y066000
X006499Y060998
X009001Y093500
X009001Y068499
X009001Y063500
X009001Y058499
X011071Y063841
X011500Y090998
X011500Y080998
X011500Y076000
X011500Y073500
X011500Y066000
X011599Y089800
X011599Y087199
X012501Y089800
X012501Y088900
X013570Y066769
X013999Y093500
X013999Y088499
X013999Y083500
X013999Y073500
X013999Y068499
X013999Y058499
X013999Y058499
X013999Y058499
X015500Y068169
X015709Y082169
X016499Y090998
X016499Y086000
X016499Y073500
X016499Y060998
X016499Y056000
X018820Y082309
X019001Y093500
X019001Y088499
X019001Y083500
X019001Y073500
X019001Y058499
X019440Y075540
X021500Y090998
X021500Y086000
X021500Y080998
X021500Y066000
X021500Y060998
X021500Y056000
X022219Y077750
X022229Y075520
X023999Y093500
X023999Y088499
X023999Y083500
X023999Y068499
X023999Y063500
X023999Y058499
X026499Y090998
X026499Y086000
X026499Y066000
X026499Y060998
X026499Y056000
X029001Y093500
X029001Y088499
X029001Y068499
X029001Y063500
X029001Y058499
X031500Y090998
X031500Y086000
X031500Y066000
X031500Y060998
X031500Y056000
X031749Y071575
X032500Y074250
X033126Y070523
X033575Y074250
X033999Y093500
X033999Y088499
X033999Y068499
X033999Y063500
X033999Y058499
X035208Y074049
X035970Y079360
X035991Y080460
X036499Y090998
X036499Y086000
X036499Y070998
X036499Y066000
X036499Y060998
X036499Y056000
X036930Y072809
X037748Y081710
X038000Y074874
X039001Y093500
X039001Y088499
X039001Y083500
X039001Y074999
X039001Y073500
X039001Y068499
X039001Y063500
X039100Y078875
X039999Y078999
X039999Y074999
X041000Y078999
X041000Y074999
X041500Y090998
X041500Y086000
X041500Y080998
X041500Y073500
X041500Y070998
X041500Y066000
X041500Y060998
X042000Y078999
X042000Y074999
X042999Y081999
X042999Y080998
X042999Y080000
X042999Y078999
X042999Y074999
X042999Y074001
X042999Y073000
X042999Y071999
X043999Y088499
X043999Y083500
X043999Y081999
X043999Y071999
X043999Y070998
X043999Y068499
X043999Y063500
X045000Y081999
X045000Y071999
X045998Y081999
X045998Y071999
X046999Y081999
X046999Y071999
T12
X074000Y044419
X077998Y044419
X074200Y096418
X078201Y096418
T13
X067700Y062545
X067700Y054625
X070240Y062545
X070240Y054625
X072780Y062545
X072780Y054625
X075320Y062545
X075320Y054625
X077860Y062545
X077860Y054625
X080400Y062545
X080400Y054625
X082940Y062545
X082940Y054625
X085480Y062545
X085480Y054625
T14
X064299Y087899
X064299Y085359
X064299Y082819
X066839Y087899
X066839Y085359
X066839Y082819
X006379Y082080
X006379Y079540
X006379Y077000
X006379Y074460
X006379Y071920
X008919Y082080
X008919Y079540
X008919Y077000
X008919Y074460
X008919Y071920
M30