%MOIN*%
%OFA0B0*%
%FSLAX46Y46*%
%IPPOS*%
%LPD*%
%ADD10C,0.0078740157480314977*%
%ADD11R,0.16535433070866143X0.053149606299212608*%
%ADD12R,0.053149606299212608X0.16535433070866143*%
%ADD13C,0.031496062992125991*%
%ADD14C,0.25196850393700793*%
%ADD15C,0.023622047244094488*%
%ADD16C,0.01*%
%ADD27C,0.0078740157480314977*%
%ADD28C,0.023622047244094488*%
%ADD29C,0.023622047244094488*%
%ADD30C,0.25196850393700793*%
%ADD31C,0.031496062992125991*%
%ADD32R,0.16535433070866143X0.053149606299212608*%
%ADD33C,0.017716535433070866*%
%ADD34C,0.031496062992125991*%
%ADD35C,0.00984251968503937*%
%ADD36C,0.01*%
%ADD37C,0.0078740157480314977*%
%ADD38C,0.01968503937007874*%
%ADD39R,0.16535433070866143X0.053149606299212608*%
%ADD40R,0.062992125984251982X0.062992125984251982*%
%ADD41O,0.062992125984251982X0.062992125984251982*%
%ADD42C,0.031496062992125991*%
%ADD43C,0.25196850393700793*%
%ADD44R,0.066929133858267723X0.066929133858267723*%
%ADD45O,0.066929133858267723X0.066929133858267723*%
%ADD46C,0.017716535433070866*%
%ADD47C,0.031496062992125991*%
%ADD48C,0.00984251968503937*%
%ADD49C,0.012204724409448819*%
%ADD50C,0.0078740157480314977*%
%ADD51C,0.01*%
%ADD52C,0.0078740157480314977*%
%ADD53R,0.16535433070866143X0.053149606299212608*%
%ADD54C,0.023622047244094488*%
%ADD55C,0.031496062992125991*%
%ADD56C,0.25196850393700793*%
%ADD57R,0.066929133858267723X0.066929133858267723*%
%ADD58O,0.066929133858267723X0.066929133858267723*%
%ADD59C,0.031496062992125991*%
%ADD60C,0.017716535433070866*%
%ADD61C,0.015748031496062995*%
%ADD62C,0.00984251968503937*%
%ADD63C,0.0078740157480314977*%
%ADD64C,0.01*%
G01*
D10*
X0000574240Y0000111079D02*
X0000574240Y0000071709D01*
X0000560179Y0000133577D02*
X0000546119Y0000091394D01*
X0000582677Y0000091394D01*
D11*
X0000086614Y0000658464D03*
X0000086614Y0000436023D03*
X0000086614Y0001497047D03*
X0000086614Y0001274606D03*
D12*
X0000660433Y0000086614D03*
X0000882874Y0000086614D03*
D11*
X0001803149Y0001274606D03*
X0001803149Y0001497047D03*
X0001803149Y0000436023D03*
X0001803149Y0000658464D03*
D13*
X0000263663Y0000263663D03*
X0000196850Y0000291338D03*
X0000130037Y0000263663D03*
X0000102362Y0000196850D03*
X0000130037Y0000130037D03*
X0000196850Y0000102362D03*
X0000263663Y0000130037D03*
X0000291338Y0000196850D03*
D14*
X0000196850Y0000196850D03*
D13*
X0001759726Y0000263663D03*
X0001692913Y0000291338D03*
X0001626100Y0000263663D03*
X0001598425Y0000196850D03*
X0001626100Y0000130037D03*
X0001692913Y0000102362D03*
X0001759726Y0000130037D03*
X0001787401Y0000196850D03*
D14*
X0001692913Y0000196850D03*
X0001692913Y0001692913D03*
D13*
X0001787401Y0001692913D03*
X0001759726Y0001626100D03*
X0001692913Y0001598425D03*
X0001626100Y0001626100D03*
X0001598425Y0001692913D03*
X0001626100Y0001759726D03*
X0001692913Y0001787401D03*
X0001759726Y0001759726D03*
D14*
X0000196850Y0001692913D03*
D13*
X0000291338Y0001692913D03*
X0000263663Y0001626100D03*
X0000196850Y0001598425D03*
X0000130037Y0001626100D03*
X0000102362Y0001692913D03*
X0000130037Y0001759726D03*
X0000196850Y0001787401D03*
X0000263663Y0001759726D03*
D11*
X0000086614Y0000853346D03*
X0000086614Y0001075787D03*
X0001803149Y0000853346D03*
X0001803149Y0001075787D03*
D15*
X0000015748Y0001511811D03*
X0000015748Y0001259842D03*
X0001874015Y0001259842D03*
X0001874015Y0001511811D03*
X0001842519Y0000673228D03*
X0001814960Y0000673228D03*
X0001787401Y0000673228D03*
X0001759842Y0000673228D03*
X0001732283Y0000673228D03*
X0001787401Y0000421259D03*
X0001814960Y0000421259D03*
X0001759842Y0000421259D03*
X0001842519Y0000421259D03*
X0001732283Y0000421259D03*
X0000646556Y0000047491D03*
X0000646556Y0000102609D03*
X0000646556Y0000157727D03*
X0000646556Y0000075050D03*
X0000646556Y0000130168D03*
X0000899412Y0000047738D03*
X0000899412Y0000075297D03*
X0000899412Y0000102856D03*
X0000899412Y0000130415D03*
X0000899412Y0000157974D03*
X0000070866Y0000673228D03*
X0000098425Y0000673228D03*
X0000043307Y0000673228D03*
X0000125984Y0000673228D03*
X0000015748Y0000673228D03*
X0000043307Y0000421259D03*
X0000098425Y0000421259D03*
X0000015748Y0000421259D03*
X0000125984Y0000421259D03*
X0000070866Y0000421259D03*
X0001177165Y0000448818D03*
X0001177165Y0000507874D03*
X0001177165Y0000566929D03*
X0001177165Y0000389763D03*
X0001177165Y0000330708D03*
X0000893700Y0000389763D03*
X0000751968Y0000326771D03*
X0000771653Y0000346456D03*
X0000791338Y0000366141D03*
X0000811023Y0000385826D03*
X0000866141Y0000389763D03*
X0000921259Y0000389763D03*
X0000948818Y0000389763D03*
X0000976377Y0000389763D03*
X0000838582Y0000389763D03*
X0001874015Y0001090551D03*
X0001791338Y0001090551D03*
X0001818897Y0001090551D03*
X0001846456Y0001090551D03*
X0001763779Y0001090551D03*
X0001763779Y0000838582D03*
X0001874015Y0000838582D03*
X0001846456Y0000838582D03*
X0001818897Y0000838582D03*
X0001791338Y0000838582D03*
X0000015748Y0000838582D03*
X0000125984Y0000838582D03*
X0000098425Y0000838582D03*
X0000070866Y0000838582D03*
X0000043307Y0000838582D03*
X0000015748Y0001090551D03*
X0000070866Y0001090551D03*
X0000043307Y0001090551D03*
X0000098425Y0001090551D03*
X0000125984Y0001090551D03*
X0000153543Y0001090551D03*
X0000153543Y0000673228D03*
X0000153543Y0000421259D03*
X0000899412Y0000019685D03*
X0000646556Y0000019685D03*
X0000153543Y0000838582D03*
X0001736220Y0001090551D03*
X0001736220Y0000838582D03*
X0001736220Y0001511811D03*
X0000153543Y0001259842D03*
X0001736220Y0001259842D03*
X0000153543Y0001511811D03*
X0000125984Y0001259842D03*
X0001846456Y0001511811D03*
X0001791338Y0001511811D03*
X0000125984Y0001511811D03*
X0000043307Y0001259842D03*
X0001763779Y0001259842D03*
X0001846456Y0001259842D03*
X0000098425Y0001511811D03*
X0001818897Y0001511811D03*
X0001818897Y0001259842D03*
X0000043307Y0001511811D03*
X0001791338Y0001259842D03*
X0000098425Y0001259842D03*
X0000070866Y0001511811D03*
X0000070866Y0001259842D03*
X0001763779Y0001511811D03*
X0000181102Y0001425196D03*
X0000236220Y0001425196D03*
X0000208661Y0001425196D03*
X0000263779Y0001425196D03*
X0000291338Y0001425196D03*
X0000318897Y0001425196D03*
X0000484251Y0001425196D03*
X0000456692Y0001425196D03*
X0000374015Y0001425196D03*
X0000346456Y0001425196D03*
X0000429133Y0001425196D03*
X0000401574Y0001425196D03*
X0000566929Y0001425196D03*
X0000539370Y0001425196D03*
X0000511811Y0001425196D03*
X0000649606Y0001425196D03*
X0000622047Y0001425196D03*
X0000594488Y0001425196D03*
X0000787401Y0001425196D03*
X0000980314Y0001425196D03*
X0000870078Y0001425196D03*
X0001062992Y0001425196D03*
X0000759842Y0001425196D03*
X0000677165Y0001425196D03*
X0000842519Y0001425196D03*
X0001090551Y0001425196D03*
X0001118110Y0001425196D03*
X0001035433Y0001425196D03*
X0000814960Y0001425196D03*
X0000952755Y0001425196D03*
X0000732283Y0001425196D03*
X0000704724Y0001425196D03*
X0000925196Y0001425196D03*
X0000897637Y0001425196D03*
X0001007873Y0001425196D03*
X0001366141Y0001425196D03*
X0001559055Y0001425196D03*
X0001173228Y0001425196D03*
X0001255905Y0001425196D03*
X0001448818Y0001425196D03*
X0001200787Y0001425196D03*
X0001421259Y0001425196D03*
X0001311023Y0001425196D03*
X0001145669Y0001425196D03*
X0001393700Y0001425196D03*
X0001476377Y0001425196D03*
X0001283464Y0001425196D03*
X0001586614Y0001425196D03*
X0001531496Y0001425196D03*
X0001503936Y0001425196D03*
X0001228346Y0001425196D03*
X0001338582Y0001425196D03*
X0001669291Y0001425196D03*
X0001641732Y0001425196D03*
X0001614173Y0001425196D03*
X0001696850Y0001425196D03*
X0001283464Y0001346456D03*
X0001531496Y0001346456D03*
X0001503936Y0001346456D03*
X0001228346Y0001346456D03*
X0001338582Y0001346456D03*
X0001586614Y0001346456D03*
X0001421259Y0001346456D03*
X0001200787Y0001346456D03*
X0001311023Y0001346456D03*
X0001393700Y0001346456D03*
X0001476377Y0001346456D03*
X0001559055Y0001346456D03*
X0001448818Y0001346456D03*
X0001145669Y0001346456D03*
X0001255905Y0001346456D03*
X0001366141Y0001346456D03*
X0001173228Y0001346456D03*
X0000897637Y0001346456D03*
X0000318897Y0001346456D03*
X0000511811Y0001346456D03*
X0001090551Y0001346456D03*
X0000401574Y0001346456D03*
X0000704724Y0001346456D03*
X0000594488Y0001346456D03*
X0000291338Y0001346456D03*
X0000208661Y0001346456D03*
X0000374015Y0001346456D03*
X0000622047Y0001346456D03*
X0000787401Y0001346456D03*
X0000980314Y0001346456D03*
X0000732283Y0001346456D03*
X0000952755Y0001346456D03*
X0000842519Y0001346456D03*
X0001641732Y0001346456D03*
X0001614173Y0001346456D03*
X0000677165Y0001346456D03*
X0000925196Y0001346456D03*
X0001007873Y0001346456D03*
X0001696850Y0001346456D03*
X0000649606Y0001346456D03*
X0000814960Y0001346456D03*
X0001118110Y0001346456D03*
X0001062992Y0001346456D03*
X0000566929Y0001346456D03*
X0001669291Y0001346456D03*
X0000346456Y0001346456D03*
X0001035433Y0001346456D03*
X0000484251Y0001346456D03*
X0000759842Y0001346456D03*
X0000870078Y0001346456D03*
X0000263779Y0001346456D03*
X0000236220Y0001346456D03*
X0000456692Y0001346456D03*
X0000429133Y0001346456D03*
X0000539370Y0001346456D03*
X0001527559Y0001007873D03*
X0001582677Y0001007873D03*
X0001307086Y0001007873D03*
X0001224409Y0001007873D03*
X0001334645Y0001007873D03*
X0001279527Y0001007873D03*
X0001196850Y0001007873D03*
X0001389763Y0001007873D03*
X0001555118Y0001007873D03*
X0001444881Y0001007873D03*
X0001472440Y0001007873D03*
X0001141732Y0001007873D03*
X0001251968Y0001007873D03*
X0001362204Y0001007873D03*
X0000893700Y0001007873D03*
X0001417322Y0001007873D03*
X0001499999Y0001007873D03*
X0000314960Y0001007873D03*
X0000507874Y0001007873D03*
X0001086614Y0001007873D03*
X0000397637Y0001007873D03*
X0001169291Y0001007873D03*
X0000783464Y0001007873D03*
X0000700787Y0001007873D03*
X0000590551Y0001007873D03*
X0000204724Y0001007873D03*
X0000287401Y0001007873D03*
X0000618110Y0001007873D03*
X0000976377Y0001007873D03*
X0000728346Y0001007873D03*
X0000838582Y0001007873D03*
X0000370078Y0001007873D03*
X0001637795Y0001007873D03*
X0001610236Y0001007873D03*
X0000673228Y0001007873D03*
X0000921259Y0001007873D03*
X0000948818Y0001007873D03*
X0001003937Y0001007873D03*
X0001692913Y0001007873D03*
X0000562992Y0001007873D03*
X0000342519Y0001007873D03*
X0001031496Y0001007873D03*
X0000755905Y0001007873D03*
X0000866141Y0001007873D03*
X0000259842Y0001007873D03*
X0000645669Y0001007873D03*
X0000480314Y0001007873D03*
X0000811023Y0001007873D03*
X0001114173Y0001007873D03*
X0001059055Y0001007873D03*
X0001665354Y0001007873D03*
X0000535433Y0001007873D03*
X0000425196Y0001007873D03*
X0000232283Y0001007873D03*
X0000452755Y0001007873D03*
X0001003937Y0000925196D03*
X0000618110Y0000925196D03*
X0000370078Y0000925196D03*
X0001086614Y0000925196D03*
X0000811023Y0000925196D03*
X0000838582Y0000925196D03*
X0000700787Y0000925196D03*
X0000535433Y0000925196D03*
X0000452755Y0000925196D03*
X0000590551Y0000925196D03*
X0001665354Y0000925196D03*
X0000673228Y0000925196D03*
X0000507874Y0000925196D03*
X0001637795Y0000925196D03*
X0000783464Y0000925196D03*
X0000232283Y0000925196D03*
X0001692913Y0000925196D03*
X0000397637Y0000925196D03*
X0001114173Y0000925196D03*
X0000921259Y0000925196D03*
X0000342519Y0000925196D03*
X0001610236Y0000925196D03*
X0000204724Y0000925196D03*
X0000728346Y0000925196D03*
X0000755905Y0000925196D03*
X0001059055Y0000925196D03*
X0001169291Y0000925196D03*
X0000645669Y0000925196D03*
X0000480314Y0000925196D03*
X0000866141Y0000925196D03*
X0000425196Y0000925196D03*
X0000562992Y0000925196D03*
X0000259842Y0000925196D03*
X0000948818Y0000925196D03*
X0000287401Y0000925196D03*
X0000976377Y0000925196D03*
X0001031496Y0000925196D03*
X0000314960Y0000925196D03*
X0000893700Y0000925196D03*
X0001417322Y0000925196D03*
X0001499999Y0000925196D03*
X0001472440Y0000925196D03*
X0001141732Y0000925196D03*
X0001251968Y0000925196D03*
X0001362204Y0000925196D03*
X0001279527Y0000925196D03*
X0001224409Y0000925196D03*
X0001389763Y0000925196D03*
X0001555118Y0000925196D03*
X0001334645Y0000925196D03*
X0001582677Y0000925196D03*
X0001444881Y0000925196D03*
X0001307086Y0000925196D03*
X0001527559Y0000925196D03*
X0001196850Y0000925196D03*
X0000350393Y0000586614D03*
X0000708661Y0000586614D03*
X0000405511Y0000586614D03*
X0000543307Y0000586614D03*
X0000295275Y0000586614D03*
X0000763779Y0000586614D03*
X0000212598Y0000586614D03*
X0000929133Y0000586614D03*
X0001618110Y0000586614D03*
X0000240157Y0000586614D03*
X0001397637Y0000586614D03*
X0000984251Y0000586614D03*
X0000322834Y0000586614D03*
X0000736220Y0000586614D03*
X0001370078Y0000586614D03*
X0000653543Y0000586614D03*
X0000488188Y0000586614D03*
X0001425196Y0000586614D03*
X0000791338Y0000586614D03*
X0000433070Y0000586614D03*
X0001535433Y0000586614D03*
X0000267716Y0000586614D03*
X0000460629Y0000586614D03*
X0001673228Y0000586614D03*
X0000681102Y0000586614D03*
X0000625984Y0000586614D03*
X0000598425Y0000586614D03*
X0000515747Y0000586614D03*
X0000846456Y0000586614D03*
X0001452755Y0000586614D03*
X0000874015Y0000586614D03*
X0000901574Y0000586614D03*
X0001590551Y0000586614D03*
X0000570866Y0000586614D03*
X0001562992Y0000586614D03*
X0001507874Y0000586614D03*
X0000818897Y0000586614D03*
X0000185039Y0000586614D03*
X0000377952Y0000586614D03*
X0000956692Y0000586614D03*
X0001480314Y0000586614D03*
X0001645669Y0000586614D03*
X0000181102Y0001346456D03*
X0000177165Y0000925196D03*
X0000177165Y0001007873D03*
X0001700787Y0000586614D03*
X0001425196Y0000503936D03*
X0001535433Y0000503936D03*
X0001480314Y0000503936D03*
X0001562992Y0000503936D03*
X0001673228Y0000503936D03*
X0001645669Y0000503936D03*
X0001452755Y0000503936D03*
X0001507874Y0000503936D03*
X0001590551Y0000503936D03*
X0001397637Y0000503936D03*
X0001370078Y0000503936D03*
X0001618110Y0000503936D03*
X0001700787Y0000503936D03*
X0000795275Y0000503936D03*
X0000933070Y0000503936D03*
X0000822834Y0000503936D03*
X0000905511Y0000503936D03*
X0000712598Y0000503936D03*
X0000740157Y0000503936D03*
X0000960629Y0000503936D03*
X0000850393Y0000503936D03*
X0000877952Y0000503936D03*
X0000657480Y0000503936D03*
X0000767716Y0000503936D03*
X0000988188Y0000503936D03*
X0000685039Y0000503936D03*
X0000326771Y0000503936D03*
X0000299212Y0000503936D03*
X0000409448Y0000503936D03*
X0000492125Y0000503936D03*
X0000519685Y0000503936D03*
X0000547244Y0000503936D03*
X0000464566Y0000503936D03*
X0000437007Y0000503936D03*
X0000381889Y0000503936D03*
X0000602362Y0000503936D03*
X0000574803Y0000503936D03*
X0000354330Y0000503936D03*
X0000629921Y0000503936D03*
X0000271653Y0000503936D03*
X0000188976Y0000503936D03*
X0000244094Y0000503936D03*
X0000216535Y0000503936D03*
X0000732283Y0000307086D03*
X0000732283Y0000279527D03*
X0000732283Y0000224409D03*
X0000732283Y0000196850D03*
X0000732283Y0000251968D03*
X0000830708Y0000287401D03*
X0000850393Y0000307086D03*
X0000811023Y0000240157D03*
X0000811023Y0000212598D03*
X0000811023Y0000185039D03*
X0000811023Y0000267716D03*
X0000933070Y0000307086D03*
X0000905511Y0000307086D03*
X0000960629Y0000307086D03*
X0000877952Y0000307086D03*
X0000988188Y0000307086D03*
X0001870078Y0000673228D03*
X0001870078Y0000421259D03*
D16*
G36*
X0001722683Y0001858371D02*
X0001751513Y0001850484D01*
X0001778490Y0001837616D01*
X0001802762Y0001820175D01*
X0001823563Y0001798711D01*
X0001840233Y0001773903D01*
X0001852247Y0001746535D01*
X0001859277Y0001717251D01*
X0001861141Y0001691863D01*
X0001861141Y0000198125D01*
X0001858370Y0000167079D01*
X0001850484Y0000138250D01*
X0001837616Y0000111273D01*
X0001820175Y0000087000D01*
X0001798711Y0000066200D01*
X0001773903Y0000049530D01*
X0001746535Y0000037516D01*
X0001717251Y0000030486D01*
X0001691863Y0000028622D01*
X0000198125Y0000028622D01*
X0000167079Y0000031392D01*
X0000138250Y0000039279D01*
X0000111273Y0000052147D01*
X0000087000Y0000069588D01*
X0000068247Y0000088940D01*
X0000096011Y0000088940D01*
X0000110458Y0000069435D01*
X0000165794Y0000046073D01*
X0000225857Y0000045665D01*
X0000281505Y0000068274D01*
X0000283242Y0000069435D01*
X0000297689Y0000088940D01*
X0000196850Y0000189779D01*
X0000096011Y0000088940D01*
X0000068247Y0000088940D01*
X0000066200Y0000091052D01*
X0000049530Y0000115860D01*
X0000037516Y0000143228D01*
X0000031607Y0000167842D01*
X0000045665Y0000167842D01*
X0000068274Y0000112195D01*
X0000069435Y0000110458D01*
X0000088940Y0000096011D01*
X0000189779Y0000196850D01*
X0000203921Y0000196850D01*
X0000304760Y0000096011D01*
X0000324265Y0000110458D01*
X0000340793Y0000149606D01*
X0000349330Y0000149606D01*
X0000349330Y0000057086D01*
X0000349711Y0000055173D01*
X0000350795Y0000053551D01*
X0000352417Y0000052467D01*
X0000354330Y0000052086D01*
X0000594488Y0000052086D01*
X0000596401Y0000052467D01*
X0000598023Y0000053551D01*
X0000599107Y0000055173D01*
X0000599488Y0000057086D01*
X0000599488Y0000088940D01*
X0001592074Y0000088940D01*
X0001606521Y0000069435D01*
X0001661857Y0000046073D01*
X0001721920Y0000045665D01*
X0001777568Y0000068274D01*
X0001779305Y0000069435D01*
X0001793752Y0000088940D01*
X0001692913Y0000189779D01*
X0001592074Y0000088940D01*
X0000599488Y0000088940D01*
X0000599488Y0000149606D01*
X0000599107Y0000151519D01*
X0000598023Y0000153141D01*
X0000596401Y0000154225D01*
X0000594488Y0000154606D01*
X0000354330Y0000154606D01*
X0000352417Y0000154225D01*
X0000350795Y0000153141D01*
X0000349711Y0000151519D01*
X0000349330Y0000149606D01*
X0000340793Y0000149606D01*
X0000347627Y0000165794D01*
X0000347641Y0000167842D01*
X0001541728Y0000167842D01*
X0001564337Y0000112195D01*
X0001565498Y0000110458D01*
X0001585003Y0000096011D01*
X0001685842Y0000196850D01*
X0001699984Y0000196850D01*
X0001800823Y0000096011D01*
X0001820328Y0000110458D01*
X0001843690Y0000165794D01*
X0001844097Y0000225857D01*
X0001821488Y0000281505D01*
X0001820328Y0000283242D01*
X0001800823Y0000297689D01*
X0001699984Y0000196850D01*
X0001685842Y0000196850D01*
X0001585003Y0000297689D01*
X0001565498Y0000283242D01*
X0001542136Y0000227906D01*
X0001541728Y0000167842D01*
X0000347641Y0000167842D01*
X0000348034Y0000225857D01*
X0000325425Y0000281505D01*
X0000324265Y0000283242D01*
X0000304760Y0000297689D01*
X0000203921Y0000196850D01*
X0000189779Y0000196850D01*
X0000088940Y0000297689D01*
X0000069435Y0000283242D01*
X0000046073Y0000227906D01*
X0000045665Y0000167842D01*
X0000031607Y0000167842D01*
X0000030486Y0000172511D01*
X0000028622Y0000197900D01*
X0000028622Y0000304760D01*
X0000096011Y0000304760D01*
X0000196850Y0000203921D01*
X0000297689Y0000304760D01*
X0001592074Y0000304760D01*
X0001692913Y0000203921D01*
X0001793752Y0000304760D01*
X0001779305Y0000324265D01*
X0001723969Y0000347627D01*
X0001663905Y0000348034D01*
X0001608257Y0000325425D01*
X0001606521Y0000324265D01*
X0001592074Y0000304760D01*
X0000297689Y0000304760D01*
X0000283242Y0000324265D01*
X0000227906Y0000347627D01*
X0000167842Y0000348034D01*
X0000112195Y0000325425D01*
X0000110458Y0000324265D01*
X0000096011Y0000304760D01*
X0000028622Y0000304760D01*
X0000028622Y0001585003D01*
X0000096011Y0001585003D01*
X0000110458Y0001565498D01*
X0000165794Y0001542136D01*
X0000225857Y0001541728D01*
X0000281505Y0001564337D01*
X0000283242Y0001565498D01*
X0000297689Y0001585003D01*
X0001592074Y0001585003D01*
X0001606521Y0001565498D01*
X0001661857Y0001542136D01*
X0001721920Y0001541728D01*
X0001777568Y0001564337D01*
X0001779305Y0001565498D01*
X0001793752Y0001585003D01*
X0001692913Y0001685842D01*
X0001592074Y0001585003D01*
X0000297689Y0001585003D01*
X0000196850Y0001685842D01*
X0000096011Y0001585003D01*
X0000028622Y0001585003D01*
X0000028622Y0001663905D01*
X0000045665Y0001663905D01*
X0000068274Y0001608258D01*
X0000069435Y0001606521D01*
X0000088940Y0001592074D01*
X0000189779Y0001692913D01*
X0000203921Y0001692913D01*
X0000304760Y0001592074D01*
X0000324265Y0001606521D01*
X0000347627Y0001661857D01*
X0000347641Y0001663905D01*
X0001541728Y0001663905D01*
X0001564337Y0001608258D01*
X0001565498Y0001606521D01*
X0001585003Y0001592074D01*
X0001685842Y0001692913D01*
X0001699984Y0001692913D01*
X0001800823Y0001592074D01*
X0001820328Y0001606521D01*
X0001843690Y0001661857D01*
X0001844097Y0001721920D01*
X0001821488Y0001777568D01*
X0001820328Y0001779305D01*
X0001800823Y0001793752D01*
X0001699984Y0001692913D01*
X0001685842Y0001692913D01*
X0001585003Y0001793752D01*
X0001565498Y0001779305D01*
X0001542136Y0001723969D01*
X0001541728Y0001663905D01*
X0000347641Y0001663905D01*
X0000348034Y0001721920D01*
X0000325425Y0001777568D01*
X0000324265Y0001779305D01*
X0000304760Y0001793752D01*
X0000203921Y0001692913D01*
X0000189779Y0001692913D01*
X0000088940Y0001793752D01*
X0000069435Y0001779305D01*
X0000046073Y0001723969D01*
X0000045665Y0001663905D01*
X0000028622Y0001663905D01*
X0000028622Y0001691638D01*
X0000031392Y0001722683D01*
X0000039279Y0001751513D01*
X0000052146Y0001778490D01*
X0000068194Y0001800823D01*
X0000096011Y0001800823D01*
X0000196850Y0001699984D01*
X0000297689Y0001800823D01*
X0001592074Y0001800823D01*
X0001692913Y0001699984D01*
X0001793752Y0001800823D01*
X0001779305Y0001820328D01*
X0001723969Y0001843690D01*
X0001663905Y0001844097D01*
X0001608257Y0001821488D01*
X0001606521Y0001820328D01*
X0001592074Y0001800823D01*
X0000297689Y0001800823D01*
X0000283242Y0001820328D01*
X0000227906Y0001843690D01*
X0000167842Y0001844097D01*
X0000112195Y0001821488D01*
X0000110458Y0001820328D01*
X0000096011Y0001800823D01*
X0000068194Y0001800823D01*
X0000069588Y0001802762D01*
X0000091052Y0001823563D01*
X0000115860Y0001840233D01*
X0000143228Y0001852247D01*
X0000172511Y0001859277D01*
X0000197900Y0001861141D01*
X0001691638Y0001861141D01*
X0001722683Y0001858371D01*
X0001722683Y0001858371D01*
G37*
X0001722683Y0001858371D02*
X0001751513Y0001850484D01*
X0001778490Y0001837616D01*
X0001802762Y0001820175D01*
X0001823563Y0001798711D01*
X0001840233Y0001773903D01*
X0001852247Y0001746535D01*
X0001859277Y0001717251D01*
X0001861141Y0001691863D01*
X0001861141Y0000198125D01*
X0001858370Y0000167079D01*
X0001850484Y0000138250D01*
X0001837616Y0000111273D01*
X0001820175Y0000087000D01*
X0001798711Y0000066200D01*
X0001773903Y0000049530D01*
X0001746535Y0000037516D01*
X0001717251Y0000030486D01*
X0001691863Y0000028622D01*
X0000198125Y0000028622D01*
X0000167079Y0000031392D01*
X0000138250Y0000039279D01*
X0000111273Y0000052147D01*
X0000087000Y0000069588D01*
X0000068247Y0000088940D01*
X0000096011Y0000088940D01*
X0000110458Y0000069435D01*
X0000165794Y0000046073D01*
X0000225857Y0000045665D01*
X0000281505Y0000068274D01*
X0000283242Y0000069435D01*
X0000297689Y0000088940D01*
X0000196850Y0000189779D01*
X0000096011Y0000088940D01*
X0000068247Y0000088940D01*
X0000066200Y0000091052D01*
X0000049530Y0000115860D01*
X0000037516Y0000143228D01*
X0000031607Y0000167842D01*
X0000045665Y0000167842D01*
X0000068274Y0000112195D01*
X0000069435Y0000110458D01*
X0000088940Y0000096011D01*
X0000189779Y0000196850D01*
X0000203921Y0000196850D01*
X0000304760Y0000096011D01*
X0000324265Y0000110458D01*
X0000340793Y0000149606D01*
X0000349330Y0000149606D01*
X0000349330Y0000057086D01*
X0000349711Y0000055173D01*
X0000350795Y0000053551D01*
X0000352417Y0000052467D01*
X0000354330Y0000052086D01*
X0000594488Y0000052086D01*
X0000596401Y0000052467D01*
X0000598023Y0000053551D01*
X0000599107Y0000055173D01*
X0000599488Y0000057086D01*
X0000599488Y0000088940D01*
X0001592074Y0000088940D01*
X0001606521Y0000069435D01*
X0001661857Y0000046073D01*
X0001721920Y0000045665D01*
X0001777568Y0000068274D01*
X0001779305Y0000069435D01*
X0001793752Y0000088940D01*
X0001692913Y0000189779D01*
X0001592074Y0000088940D01*
X0000599488Y0000088940D01*
X0000599488Y0000149606D01*
X0000599107Y0000151519D01*
X0000598023Y0000153141D01*
X0000596401Y0000154225D01*
X0000594488Y0000154606D01*
X0000354330Y0000154606D01*
X0000352417Y0000154225D01*
X0000350795Y0000153141D01*
X0000349711Y0000151519D01*
X0000349330Y0000149606D01*
X0000340793Y0000149606D01*
X0000347627Y0000165794D01*
X0000347641Y0000167842D01*
X0001541728Y0000167842D01*
X0001564337Y0000112195D01*
X0001565498Y0000110458D01*
X0001585003Y0000096011D01*
X0001685842Y0000196850D01*
X0001699984Y0000196850D01*
X0001800823Y0000096011D01*
X0001820328Y0000110458D01*
X0001843690Y0000165794D01*
X0001844097Y0000225857D01*
X0001821488Y0000281505D01*
X0001820328Y0000283242D01*
X0001800823Y0000297689D01*
X0001699984Y0000196850D01*
X0001685842Y0000196850D01*
X0001585003Y0000297689D01*
X0001565498Y0000283242D01*
X0001542136Y0000227906D01*
X0001541728Y0000167842D01*
X0000347641Y0000167842D01*
X0000348034Y0000225857D01*
X0000325425Y0000281505D01*
X0000324265Y0000283242D01*
X0000304760Y0000297689D01*
X0000203921Y0000196850D01*
X0000189779Y0000196850D01*
X0000088940Y0000297689D01*
X0000069435Y0000283242D01*
X0000046073Y0000227906D01*
X0000045665Y0000167842D01*
X0000031607Y0000167842D01*
X0000030486Y0000172511D01*
X0000028622Y0000197900D01*
X0000028622Y0000304760D01*
X0000096011Y0000304760D01*
X0000196850Y0000203921D01*
X0000297689Y0000304760D01*
X0001592074Y0000304760D01*
X0001692913Y0000203921D01*
X0001793752Y0000304760D01*
X0001779305Y0000324265D01*
X0001723969Y0000347627D01*
X0001663905Y0000348034D01*
X0001608257Y0000325425D01*
X0001606521Y0000324265D01*
X0001592074Y0000304760D01*
X0000297689Y0000304760D01*
X0000283242Y0000324265D01*
X0000227906Y0000347627D01*
X0000167842Y0000348034D01*
X0000112195Y0000325425D01*
X0000110458Y0000324265D01*
X0000096011Y0000304760D01*
X0000028622Y0000304760D01*
X0000028622Y0001585003D01*
X0000096011Y0001585003D01*
X0000110458Y0001565498D01*
X0000165794Y0001542136D01*
X0000225857Y0001541728D01*
X0000281505Y0001564337D01*
X0000283242Y0001565498D01*
X0000297689Y0001585003D01*
X0001592074Y0001585003D01*
X0001606521Y0001565498D01*
X0001661857Y0001542136D01*
X0001721920Y0001541728D01*
X0001777568Y0001564337D01*
X0001779305Y0001565498D01*
X0001793752Y0001585003D01*
X0001692913Y0001685842D01*
X0001592074Y0001585003D01*
X0000297689Y0001585003D01*
X0000196850Y0001685842D01*
X0000096011Y0001585003D01*
X0000028622Y0001585003D01*
X0000028622Y0001663905D01*
X0000045665Y0001663905D01*
X0000068274Y0001608258D01*
X0000069435Y0001606521D01*
X0000088940Y0001592074D01*
X0000189779Y0001692913D01*
X0000203921Y0001692913D01*
X0000304760Y0001592074D01*
X0000324265Y0001606521D01*
X0000347627Y0001661857D01*
X0000347641Y0001663905D01*
X0001541728Y0001663905D01*
X0001564337Y0001608258D01*
X0001565498Y0001606521D01*
X0001585003Y0001592074D01*
X0001685842Y0001692913D01*
X0001699984Y0001692913D01*
X0001800823Y0001592074D01*
X0001820328Y0001606521D01*
X0001843690Y0001661857D01*
X0001844097Y0001721920D01*
X0001821488Y0001777568D01*
X0001820328Y0001779305D01*
X0001800823Y0001793752D01*
X0001699984Y0001692913D01*
X0001685842Y0001692913D01*
X0001585003Y0001793752D01*
X0001565498Y0001779305D01*
X0001542136Y0001723969D01*
X0001541728Y0001663905D01*
X0000347641Y0001663905D01*
X0000348034Y0001721920D01*
X0000325425Y0001777568D01*
X0000324265Y0001779305D01*
X0000304760Y0001793752D01*
X0000203921Y0001692913D01*
X0000189779Y0001692913D01*
X0000088940Y0001793752D01*
X0000069435Y0001779305D01*
X0000046073Y0001723969D01*
X0000045665Y0001663905D01*
X0000028622Y0001663905D01*
X0000028622Y0001691638D01*
X0000031392Y0001722683D01*
X0000039279Y0001751513D01*
X0000052146Y0001778490D01*
X0000068194Y0001800823D01*
X0000096011Y0001800823D01*
X0000196850Y0001699984D01*
X0000297689Y0001800823D01*
X0001592074Y0001800823D01*
X0001692913Y0001699984D01*
X0001793752Y0001800823D01*
X0001779305Y0001820328D01*
X0001723969Y0001843690D01*
X0001663905Y0001844097D01*
X0001608257Y0001821488D01*
X0001606521Y0001820328D01*
X0001592074Y0001800823D01*
X0000297689Y0001800823D01*
X0000283242Y0001820328D01*
X0000227906Y0001843690D01*
X0000167842Y0001844097D01*
X0000112195Y0001821488D01*
X0000110458Y0001820328D01*
X0000096011Y0001800823D01*
X0000068194Y0001800823D01*
X0000069588Y0001802762D01*
X0000091052Y0001823563D01*
X0000115860Y0001840233D01*
X0000143228Y0001852247D01*
X0000172511Y0001859277D01*
X0000197900Y0001861141D01*
X0001691638Y0001861141D01*
X0001722683Y0001858371D01*
G04 next file*
G04 #@! TF.GenerationSoftware,KiCad,Pcbnew,(5.0.2)-1*
G04 #@! TF.CreationDate,2019-01-06T12:14:53+11:00*
G04 #@! TF.ProjectId,Filter_Bank_Dev_Rev_0,46696c74-6572-45f4-9261-6e6b5f446576,0*
G04 #@! TF.SameCoordinates,Original*
G04 #@! TF.FileFunction,Copper,L4,Bot*
G04 #@! TF.FilePolarity,Positive*
G04 Gerber Fmt 4.6, Leading zero omitted, Abs format (unit mm)*
G04 Created by KiCad (PCBNEW (5.0.2)-1) date 6/01/2019 12:14:53*
G01*
G04 APERTURE LIST*
G04 #@! TA.AperFunction,ViaPad*
G04 #@! TD*
G04 #@! TA.AperFunction,ComponentPad*
G04 #@! TD*
G04 #@! TA.AperFunction,ComponentPad*
G04 #@! TD*
G04 #@! TA.AperFunction,ComponentPad*
G04 #@! TD*
G04 #@! TA.AperFunction,SMDPad,CuDef*
G04 #@! TD*
G04 #@! TA.AperFunction,ViaPad*
G04 #@! TD*
G04 #@! TA.AperFunction,ViaPad*
G04 #@! TD*
G04 #@! TA.AperFunction,Conductor*
G04 #@! TD*
G04 #@! TA.AperFunction,Conductor*
G04 #@! TD*
G04 APERTURE END LIST*
G04 #@! TO.C,REF\002A\002A*
D27*
X0003542744Y0000132733D02*
X0003542744Y0000093363D01*
X0003528683Y0000155230D02*
X0003514623Y0000113048D01*
X0003551181Y0000113048D01*
G04 #@! TD*
D28*
G04 #@! TO.N,GND*
G04 #@! TO.C,U1*
X0002702755Y0001013779D03*
X0002663385Y0001013779D03*
X0002663385Y0000974409D03*
X0002702755Y0000974409D03*
X0002683070Y0000994094D03*
G04 #@! TD*
G04 #@! TO.N,GND*
G04 #@! TO.C,U4*
X0003297244Y0000954724D03*
X0003336614Y0000954724D03*
X0003336614Y0000994094D03*
X0003297244Y0000994094D03*
X0003316929Y0000974409D03*
G04 #@! TD*
D29*
G04 #@! TO.P,FL1,4*
G04 #@! TO.N,GND*
X0003000000Y0000654625D03*
G04 #@! TO.P,FL1,2*
X0003000000Y0000749114D03*
G04 #@! TD*
G04 #@! TO.P,FL2,4*
G04 #@! TO.N,GND*
X0003000000Y0000809055D03*
G04 #@! TO.P,FL2,2*
X0003000000Y0000903543D03*
G04 #@! TD*
G04 #@! TO.P,FL3,4*
G04 #@! TO.N,GND*
X0003001968Y0001045275D03*
G04 #@! TO.P,FL3,2*
X0003001968Y0001139763D03*
G04 #@! TD*
G04 #@! TO.P,FL4,4*
G04 #@! TO.N,GND*
X0003000000Y0001202755D03*
G04 #@! TO.P,FL4,2*
X0003000000Y0001297244D03*
G04 #@! TD*
D30*
G04 #@! TO.P,H1,1*
G04 #@! TO.N,GND*
X0002244094Y0000196850D03*
D31*
X0002338582Y0000196850D03*
X0002310907Y0000130037D03*
X0002244094Y0000102362D03*
X0002177281Y0000130037D03*
X0002149606Y0000196850D03*
X0002177281Y0000263663D03*
X0002244094Y0000291338D03*
X0002310907Y0000263663D03*
G04 #@! TD*
G04 #@! TO.P,H2,1*
G04 #@! TO.N,GND*
X0003806970Y0001759726D03*
X0003740157Y0001787401D03*
X0003673344Y0001759726D03*
X0003645669Y0001692913D03*
X0003673344Y0001626100D03*
X0003740157Y0001598425D03*
X0003806970Y0001626100D03*
X0003834645Y0001692913D03*
D30*
X0003740157Y0001692913D03*
G04 #@! TD*
G04 #@! TO.P,H3,1*
G04 #@! TO.N,GND*
X0002244094Y0001692913D03*
D31*
X0002338582Y0001692913D03*
X0002310907Y0001626100D03*
X0002244094Y0001598425D03*
X0002177281Y0001626100D03*
X0002149606Y0001692913D03*
X0002177281Y0001759726D03*
X0002244094Y0001787401D03*
X0002310907Y0001759726D03*
G04 #@! TD*
G04 #@! TO.P,H4,1*
G04 #@! TO.N,GND*
X0003806970Y0000263663D03*
X0003740157Y0000291338D03*
X0003673344Y0000263663D03*
X0003645669Y0000196850D03*
X0003673344Y0000130037D03*
X0003740157Y0000102362D03*
X0003806970Y0000130037D03*
X0003834645Y0000196850D03*
D30*
X0003740157Y0000196850D03*
G04 #@! TD*
D32*
G04 #@! TO.P,J2,2*
G04 #@! TO.N,GND*
X0002133858Y0001095472D03*
X0002133858Y0000873031D03*
G04 #@! TD*
G04 #@! TO.P,J3,2*
G04 #@! TO.N,GND*
X0003850393Y0001095472D03*
X0003850393Y0000873031D03*
G04 #@! TD*
D33*
G04 #@! TO.N,GND*
X0003114173Y0001744094D03*
X0002870078Y0001744094D03*
X0002838582Y0001834645D03*
X0002948818Y0001834645D03*
X0003039370Y0001834645D03*
X0003149606Y0001830708D03*
X0002196850Y0001114173D03*
X0002177165Y0001114173D03*
X0002157480Y0001114173D03*
X0002137795Y0001114173D03*
X0002118110Y0001114173D03*
X0002098425Y0001114173D03*
X0002078740Y0001114173D03*
X0002059055Y0001114173D03*
D34*
X0003377952Y0001137795D03*
D33*
X0002476377Y0000661417D03*
X0003787401Y0001114173D03*
X0003807086Y0001114173D03*
X0003925196Y0001114173D03*
X0003846456Y0001114173D03*
X0003866141Y0001114173D03*
X0003905511Y0001114173D03*
X0003885826Y0001114173D03*
X0003826771Y0001114173D03*
X0002137795Y0000858267D03*
X0002196850Y0000858267D03*
X0002078740Y0000858267D03*
X0002098425Y0000858267D03*
X0002177165Y0000858267D03*
X0002157480Y0000858267D03*
X0002059055Y0000858267D03*
X0002118110Y0000858267D03*
X0003866141Y0000854330D03*
X0003925196Y0000854330D03*
X0003807086Y0000854330D03*
X0003826771Y0000854330D03*
X0003905511Y0000854330D03*
X0003885826Y0000854330D03*
X0003787401Y0000854330D03*
X0003846456Y0000854330D03*
D34*
X0003807086Y0001200787D03*
X0003854330Y0001480314D03*
D33*
X0003492125Y0001019685D03*
X0003511810Y0001019685D03*
X0003531496Y0001019685D03*
X0003531496Y0001019685D03*
X0003531496Y0001019685D03*
X0003551181Y0001019685D03*
X0003570866Y0001019685D03*
X0003590551Y0001019685D03*
X0003610236Y0001019685D03*
X0003629921Y0001019685D03*
X0003649606Y0001019685D03*
X0003669291Y0001019685D03*
X0003688976Y0001019685D03*
X0003708661Y0001019685D03*
X0003728346Y0001019685D03*
X0003748031Y0001019685D03*
X0003728346Y0001019685D03*
X0003748031Y0001019685D03*
X0003492125Y0000948818D03*
X0003531496Y0000948818D03*
X0003570866Y0000948818D03*
X0003551181Y0000948818D03*
X0003551181Y0000948818D03*
X0003688976Y0000948818D03*
X0003708661Y0000948818D03*
X0003590551Y0000948818D03*
X0003551181Y0000948818D03*
X0003669291Y0000948818D03*
X0003649606Y0000948818D03*
X0003748031Y0000948818D03*
X0003728346Y0000948818D03*
X0003629921Y0000948818D03*
X0003610236Y0000948818D03*
X0003748031Y0000948818D03*
X0002263779Y0000948818D03*
X0002283464Y0000948818D03*
X0002381889Y0000948818D03*
X0002244094Y0000948818D03*
X0002460629Y0000948818D03*
X0002421259Y0000948818D03*
X0002440944Y0000948818D03*
X0002303149Y0000948818D03*
X0002263779Y0000948818D03*
X0002224409Y0000948818D03*
X0002401574Y0000948818D03*
X0002342519Y0000948818D03*
X0002263779Y0000948818D03*
X0002322834Y0000948818D03*
X0002362204Y0000948818D03*
X0002263779Y0001019685D03*
X0002303149Y0001019685D03*
X0002263779Y0001019685D03*
X0002244094Y0001019685D03*
X0002440944Y0001019685D03*
X0002263779Y0001019685D03*
X0002224409Y0001019685D03*
X0002401574Y0001019685D03*
X0002342519Y0001019685D03*
X0002362204Y0001019685D03*
X0002460629Y0001019685D03*
X0002381889Y0001019685D03*
X0002322834Y0001019685D03*
X0002421259Y0001019685D03*
X0002283464Y0001019685D03*
X0003472440Y0001023622D03*
X0003472440Y0000940944D03*
X0002881889Y0001291338D03*
X0002862204Y0001291338D03*
X0002842519Y0001291338D03*
X0002822834Y0001291338D03*
X0002803149Y0001285433D03*
X0002783464Y0001265748D03*
X0002765748Y0001246062D03*
X0002748031Y0001226377D03*
X0002728346Y0001208661D03*
X0002710629Y0001188976D03*
X0002690944Y0001171259D03*
X0002671259Y0001149606D03*
X0002651574Y0001131889D03*
X0002631889Y0001114173D03*
X0002618110Y0001090551D03*
X0002753937Y0001131889D03*
X0002775590Y0001131889D03*
X0002797244Y0001131889D03*
X0002818897Y0001131889D03*
X0002838582Y0001131889D03*
X0002858267Y0001131889D03*
X0002877952Y0001131889D03*
X0002826771Y0001059055D03*
X0002846456Y0001059055D03*
X0002866141Y0001059055D03*
X0002885826Y0001059055D03*
X0002746062Y0000907480D03*
X0002844488Y0000765748D03*
X0002866141Y0000748031D03*
X0003139763Y0000891732D03*
X0003116141Y0000891732D03*
X0003133858Y0000822834D03*
X0003153543Y0000822834D03*
X0003173228Y0000822834D03*
X0003192913Y0000822834D03*
X0003212598Y0000822834D03*
X0003232283Y0000822834D03*
X0003114173Y0000822834D03*
X0003114173Y0000736220D03*
X0003133858Y0000736220D03*
X0003153543Y0000740157D03*
X0003173228Y0000753937D03*
X0003192913Y0000773622D03*
X0003192913Y0000773622D03*
X0003192913Y0000773622D03*
X0003212598Y0000793307D03*
X0002690944Y0000818897D03*
X0002797244Y0000714566D03*
X0002832677Y0000675196D03*
X0002856299Y0000661417D03*
X0002814960Y0000694881D03*
X0002728346Y0000781496D03*
X0002629921Y0000881889D03*
X0002651574Y0000860236D03*
X0002671259Y0000838582D03*
X0003187007Y0001169291D03*
X0003222440Y0001135826D03*
X0003169291Y0001188976D03*
X0003202755Y0001153543D03*
X0003151574Y0001208661D03*
X0003153543Y0000665354D03*
X0003212598Y0000690944D03*
X0003285433Y0000767716D03*
X0003133858Y0000665354D03*
X0003324803Y0000807086D03*
X0003192913Y0000671259D03*
X0003364173Y0000842519D03*
X0003377952Y0000866141D03*
X0003344488Y0000824803D03*
X0003230314Y0000710629D03*
X0003114173Y0000665354D03*
X0003305118Y0000785433D03*
X0003173228Y0000665354D03*
X0003248031Y0000730314D03*
X0003267716Y0000748031D03*
X0003383858Y0001045275D03*
X0003224409Y0001236220D03*
X0003383858Y0001064960D03*
X0003301181Y0001159448D03*
X0003318897Y0001139763D03*
X0003188976Y0001271653D03*
X0003358267Y0001104330D03*
X0003242125Y0001216535D03*
X0003338582Y0001122047D03*
X0003263779Y0001196850D03*
X0003206692Y0001255905D03*
X0003377952Y0001084645D03*
X0003281496Y0001177165D03*
X0003383858Y0001005905D03*
X0003120078Y0001287401D03*
X0003143700Y0001287401D03*
X0003167322Y0001287401D03*
X0003129921Y0001214566D03*
X0003114173Y0001059055D03*
X0003133858Y0001059055D03*
X0003155511Y0001059055D03*
X0002832677Y0001212598D03*
X0002814960Y0001192913D03*
X0002797244Y0001173228D03*
X0002777559Y0001155511D03*
X0002854330Y0001214566D03*
X0002874015Y0001214566D03*
X0002763779Y0000746062D03*
X0002811023Y0000799212D03*
X0002834645Y0000820866D03*
X0002885826Y0000812992D03*
D34*
X0002785750Y0000895352D03*
D33*
X0003118110Y0001131889D03*
X0003137795Y0001131889D03*
X0003159448Y0001131889D03*
X0003179133Y0001131889D03*
X0003200787Y0001131889D03*
D34*
X0003198818Y0001062992D03*
X0003251968Y0001059055D03*
D33*
X0002401574Y0001791338D03*
X0002598425Y0001791338D03*
X0002500000Y0001692913D03*
X0002500000Y0001574803D03*
X0002500000Y0001377952D03*
X0002500000Y0001181102D03*
X0002401574Y0001594488D03*
X0002598425Y0001594488D03*
X0002795275Y0001594488D03*
X0002696850Y0001692913D03*
X0002992125Y0001594488D03*
X0003188976Y0001594488D03*
X0003385826Y0001594488D03*
X0003385826Y0001437007D03*
X0003188976Y0001476377D03*
X0002992125Y0001476377D03*
X0002795275Y0001476377D03*
X0002598425Y0001476377D03*
X0002401574Y0001476377D03*
X0002204724Y0001476377D03*
X0002204724Y0001279527D03*
X0002401574Y0001279527D03*
X0002598425Y0001279527D03*
X0002696850Y0001377952D03*
X0002893700Y0001574803D03*
X0002696850Y0001574803D03*
X0002303149Y0001574803D03*
X0002106299Y0001377952D03*
X0002106299Y0001574803D03*
X0002106299Y0001181102D03*
X0002303149Y0001377952D03*
X0002303149Y0001181102D03*
X0002440944Y0001082677D03*
X0003090551Y0001574803D03*
X0003287401Y0001574803D03*
X0003484251Y0001574803D03*
X0003090551Y0001377952D03*
X0002893700Y0001377952D03*
X0003484251Y0001692913D03*
X0003582677Y0001791338D03*
X0003385826Y0001791338D03*
X0003287401Y0001692913D03*
X0003582677Y0001437007D03*
X0003582677Y0001141732D03*
X0003681102Y0001082677D03*
X0003484251Y0001082677D03*
X0002244094Y0001082677D03*
X0002244094Y0000885826D03*
X0002204724Y0000688976D03*
X0002204724Y0000492125D03*
X0002106299Y0000590551D03*
X0002106299Y0000787401D03*
X0002303149Y0000787401D03*
X0002500000Y0000787401D03*
X0002303149Y0000590551D03*
X0002440944Y0000885826D03*
X0002401574Y0000688976D03*
X0002401574Y0000492125D03*
X0002401574Y0000295275D03*
X0002303149Y0000393700D03*
X0002598425Y0000295275D03*
X0002795275Y0000295275D03*
X0002992125Y0000295275D03*
X0003188976Y0000295275D03*
X0003582677Y0000492125D03*
X0003582677Y0000688976D03*
X0003582677Y0000885826D03*
X0003484251Y0000787401D03*
X0003681102Y0000787401D03*
X0003877952Y0000787401D03*
X0003877952Y0000590551D03*
X0003877952Y0000393700D03*
X0003779527Y0000492125D03*
X0003779527Y0000688976D03*
X0003681102Y0000590551D03*
X0003681102Y0000393700D03*
X0003484251Y0000393700D03*
X0003484251Y0000590551D03*
X0003385826Y0000688976D03*
X0003385826Y0000492125D03*
X0003287401Y0000393700D03*
X0003287401Y0000590551D03*
X0003188976Y0000492125D03*
X0003090551Y0000590551D03*
X0003090551Y0000393700D03*
X0003090551Y0000196850D03*
X0002893700Y0000196850D03*
X0002893700Y0000393700D03*
X0002893700Y0000590551D03*
X0002992125Y0000492125D03*
X0003149606Y0000098425D03*
X0002992125Y0000098425D03*
X0002795275Y0000098425D03*
X0002500000Y0000393700D03*
X0002500000Y0000196850D03*
X0002696850Y0000393700D03*
X0002795275Y0000492125D03*
X0002106299Y0000393700D03*
X0002401574Y0000098425D03*
X0003877952Y0001181102D03*
X0003877952Y0001377952D03*
X0003681102Y0001574803D03*
X0003877952Y0001574803D03*
X0002480314Y0001019685D03*
X0002500000Y0001019685D03*
X0002500000Y0000948818D03*
X0002480314Y0000948818D03*
X0003511810Y0000948818D03*
D34*
G04 #@! TO.N,+3V3*
X0003381889Y0001338582D03*
X0003330708Y0001287401D03*
X0003330708Y0001338582D03*
X0002582677Y0000188976D03*
X0002685039Y0000188976D03*
D33*
X0002547244Y0000712598D03*
D34*
X0002822834Y0000964566D03*
X0003161417Y0000996062D03*
G04 #@! TO.N,/SW_1_CTRL_1*
X0002787401Y0001032480D03*
X0002627952Y0000732283D03*
G04 #@! TO.N,/SW_1_CTRL_2*
X0003196850Y0000956692D03*
X0002681069Y0000704757D03*
X0002890748Y0000980415D03*
G04 #@! TO.N,/SW_2_CTRL_1*
X0002622047Y0000661417D03*
X0003169291Y0000925196D03*
G04 #@! TD*
D35*
G04 #@! TO.N,/SW_1_CTRL_1*
X0002787401Y0001032480D02*
X0002809672Y0001032480D01*
X0002809672Y0001032480D02*
X0002860236Y0000981916D01*
X0002860236Y0000944881D02*
X0002860236Y0000935039D01*
X0002860236Y0000981916D02*
X0002860236Y0000944881D01*
X0002860236Y0000923228D02*
X0002860236Y0000944881D01*
X0002801181Y0000864173D02*
X0002860236Y0000923228D01*
X0002779527Y0000864173D02*
X0002801181Y0000864173D01*
X0002657480Y0000742125D02*
X0002779527Y0000864173D01*
X0002627952Y0000732283D02*
X0002637795Y0000742125D01*
X0002637795Y0000742125D02*
X0002657480Y0000742125D01*
G04 #@! TO.N,/SW_1_CTRL_2*
X0003196850Y0000956692D02*
X0002932074Y0000956692D01*
X0002932074Y0000956692D02*
X0002921259Y0000945878D01*
X0002921259Y0000949904D02*
X0002906496Y0000964667D01*
X0002906496Y0000964667D02*
X0002890748Y0000980415D01*
X0002921259Y0000945878D02*
X0002921259Y0000949904D01*
X0002696817Y0000720505D02*
X0002681069Y0000704757D01*
X0002921259Y0000945878D02*
X0002921259Y0000944947D01*
X0002921259Y0000944947D02*
X0002696817Y0000720505D01*
G04 #@! TO.N,/SW_2_CTRL_1*
X0002706692Y0000661417D02*
X0002644318Y0000661417D01*
X0002644318Y0000661417D02*
X0002622047Y0000661417D01*
X0003135209Y0000937007D02*
X0002982283Y0000937007D01*
X0003147020Y0000925196D02*
X0003135209Y0000937007D01*
X0003169291Y0000925196D02*
X0003147020Y0000925196D01*
X0002982283Y0000937007D02*
X0002706692Y0000661417D01*
G04 #@! TD*
D36*
G04 #@! TO.N,GND*
G36*
X0003770103Y0001859343D02*
X0003799101Y0001851410D01*
X0003826237Y0001838467D01*
X0003850652Y0001820923D01*
X0003871574Y0001799333D01*
X0003888343Y0001774379D01*
X0003900427Y0001746850D01*
X0003907497Y0001717403D01*
X0003909370Y0001691899D01*
X0003909370Y0000198081D01*
X0003906587Y0000166904D01*
X0003898654Y0000137906D01*
X0003885711Y0000110770D01*
X0003868167Y0000086355D01*
X0003846577Y0000065432D01*
X0003821623Y0000048664D01*
X0003794094Y0000036580D01*
X0003764647Y0000029510D01*
X0003739143Y0000027637D01*
X0002245325Y0000027637D01*
X0002214148Y0000030420D01*
X0002185150Y0000038353D01*
X0002158014Y0000051296D01*
X0002133599Y0000068840D01*
X0002114120Y0000088940D01*
X0002143255Y0000088940D01*
X0002157702Y0000069435D01*
X0002213038Y0000046073D01*
X0002273102Y0000045665D01*
X0002328749Y0000068274D01*
X0002330486Y0000069435D01*
X0002344933Y0000088940D01*
X0002244094Y0000189779D01*
X0002143255Y0000088940D01*
X0002114120Y0000088940D01*
X0002112677Y0000090430D01*
X0002095908Y0000115384D01*
X0002083824Y0000142913D01*
X0002077839Y0000167842D01*
X0002092909Y0000167842D01*
X0002115518Y0000112195D01*
X0002116679Y0000110458D01*
X0002136184Y0000096011D01*
X0002237023Y0000196850D01*
X0002251165Y0000196850D01*
X0002352004Y0000096011D01*
X0002371509Y0000110458D01*
X0002394871Y0000165794D01*
X0002395083Y0000197019D01*
X0002542244Y0000197019D01*
X0002542244Y0000180933D01*
X0002548399Y0000166072D01*
X0002559773Y0000154698D01*
X0002574634Y0000148543D01*
X0002590719Y0000148543D01*
X0002605580Y0000154698D01*
X0002616954Y0000166072D01*
X0002623110Y0000180933D01*
X0002623110Y0000197019D01*
X0002644606Y0000197019D01*
X0002644606Y0000180933D01*
X0002650761Y0000166072D01*
X0002662135Y0000154698D01*
X0002676996Y0000148543D01*
X0002693082Y0000148543D01*
X0002707942Y0000154698D01*
X0002719316Y0000166072D01*
X0002720649Y0000169291D01*
X0003317834Y0000169291D01*
X0003317834Y0000078740D01*
X0003318215Y0000076826D01*
X0003319299Y0000075204D01*
X0003320921Y0000074120D01*
X0003322834Y0000073740D01*
X0003562992Y0000073740D01*
X0003564905Y0000074120D01*
X0003566527Y0000075204D01*
X0003567611Y0000076826D01*
X0003567992Y0000078740D01*
X0003567992Y0000088940D01*
X0003639318Y0000088940D01*
X0003653765Y0000069435D01*
X0003709101Y0000046073D01*
X0003769165Y0000045665D01*
X0003824812Y0000068274D01*
X0003826549Y0000069435D01*
X0003840996Y0000088940D01*
X0003740157Y0000189779D01*
X0003639318Y0000088940D01*
X0003567992Y0000088940D01*
X0003567992Y0000167842D01*
X0003588972Y0000167842D01*
X0003611581Y0000112195D01*
X0003612742Y0000110458D01*
X0003632247Y0000096011D01*
X0003733086Y0000196850D01*
X0003747228Y0000196850D01*
X0003848067Y0000096011D01*
X0003867572Y0000110458D01*
X0003890934Y0000165794D01*
X0003891342Y0000225857D01*
X0003868733Y0000281505D01*
X0003867572Y0000283242D01*
X0003848067Y0000297689D01*
X0003747228Y0000196850D01*
X0003733086Y0000196850D01*
X0003632247Y0000297689D01*
X0003612742Y0000283242D01*
X0003589380Y0000227906D01*
X0003588972Y0000167842D01*
X0003567992Y0000167842D01*
X0003567992Y0000169291D01*
X0003567611Y0000171204D01*
X0003566527Y0000172826D01*
X0003564905Y0000173910D01*
X0003562992Y0000174291D01*
X0003322834Y0000174291D01*
X0003320921Y0000173910D01*
X0003319299Y0000172826D01*
X0003318215Y0000171204D01*
X0003317834Y0000169291D01*
X0002720649Y0000169291D01*
X0002725472Y0000180933D01*
X0002725472Y0000197019D01*
X0002719316Y0000211879D01*
X0002707942Y0000223253D01*
X0002693082Y0000229409D01*
X0002676996Y0000229409D01*
X0002662135Y0000223253D01*
X0002650761Y0000211879D01*
X0002644606Y0000197019D01*
X0002623110Y0000197019D01*
X0002616954Y0000211879D01*
X0002605580Y0000223253D01*
X0002590719Y0000229409D01*
X0002574634Y0000229409D01*
X0002559773Y0000223253D01*
X0002548399Y0000211879D01*
X0002542244Y0000197019D01*
X0002395083Y0000197019D01*
X0002395279Y0000225857D01*
X0002372670Y0000281505D01*
X0002371509Y0000283242D01*
X0002352004Y0000297689D01*
X0002251165Y0000196850D01*
X0002237023Y0000196850D01*
X0002136184Y0000297689D01*
X0002116679Y0000283242D01*
X0002093317Y0000227906D01*
X0002092909Y0000167842D01*
X0002077839Y0000167842D01*
X0002076754Y0000172359D01*
X0002074881Y0000197863D01*
X0002074881Y0000304760D01*
X0002143255Y0000304760D01*
X0002244094Y0000203921D01*
X0002344933Y0000304760D01*
X0003639318Y0000304760D01*
X0003740157Y0000203921D01*
X0003840996Y0000304760D01*
X0003826549Y0000324265D01*
X0003771213Y0000347627D01*
X0003711149Y0000348034D01*
X0003655502Y0000325425D01*
X0003653765Y0000324265D01*
X0003639318Y0000304760D01*
X0002344933Y0000304760D01*
X0002330486Y0000324265D01*
X0002275150Y0000347627D01*
X0002215086Y0000348034D01*
X0002159439Y0000325425D01*
X0002157702Y0000324265D01*
X0002143255Y0000304760D01*
X0002074881Y0000304760D01*
X0002074881Y0000669459D01*
X0002581614Y0000669459D01*
X0002581614Y0000653374D01*
X0002587769Y0000638513D01*
X0002599143Y0000627139D01*
X0002614004Y0000620984D01*
X0002630089Y0000620984D01*
X0002644950Y0000627139D01*
X0002649621Y0000631811D01*
X0002703777Y0000631811D01*
X0002706692Y0000631231D01*
X0002709608Y0000631811D01*
X0002709608Y0000631811D01*
X0002718244Y0000633528D01*
X0002728037Y0000640072D01*
X0002729689Y0000642544D01*
X0002994546Y0000907401D01*
X0003122945Y0000907401D01*
X0003124023Y0000906323D01*
X0003125675Y0000903851D01*
X0003135468Y0000897308D01*
X0003141123Y0000896183D01*
X0003146387Y0000890919D01*
X0003161248Y0000884763D01*
X0003177333Y0000884763D01*
X0003192194Y0000890919D01*
X0003203568Y0000902293D01*
X0003209724Y0000917154D01*
X0003209724Y0000918261D01*
X0003219753Y0000922415D01*
X0003231127Y0000933789D01*
X0003237283Y0000948650D01*
X0003237283Y0000964735D01*
X0003231127Y0000979596D01*
X0003219753Y0000990970D01*
X0003204893Y0000997125D01*
X0003201850Y0000997125D01*
X0003201850Y0001004105D01*
X0003195694Y0001018966D01*
X0003184320Y0001030340D01*
X0003169459Y0001036496D01*
X0003153374Y0001036496D01*
X0003138513Y0001030340D01*
X0003127139Y0001018966D01*
X0003120984Y0001004105D01*
X0003120984Y0000988020D01*
X0003121697Y0000986299D01*
X0002934989Y0000986299D01*
X0002932073Y0000986879D01*
X0002931181Y0000986701D01*
X0002931181Y0000988458D01*
X0002925025Y0001003319D01*
X0002913651Y0001014693D01*
X0002898790Y0001020848D01*
X0002882705Y0001020848D01*
X0002868894Y0001015127D01*
X0002832669Y0001051353D01*
X0002831017Y0001053825D01*
X0002821224Y0001060368D01*
X0002815569Y0001061493D01*
X0002810305Y0001066757D01*
X0002795444Y0001072913D01*
X0002779358Y0001072913D01*
X0002764498Y0001066757D01*
X0002753124Y0001055383D01*
X0002746968Y0001040522D01*
X0002746968Y0001024437D01*
X0002753124Y0001009576D01*
X0002764498Y0000998202D01*
X0002779358Y0000992047D01*
X0002793133Y0000992047D01*
X0002788557Y0000987470D01*
X0002782401Y0000972609D01*
X0002782401Y0000956524D01*
X0002788557Y0000941663D01*
X0002799931Y0000930289D01*
X0002814792Y0000924133D01*
X0002819272Y0000924133D01*
X0002788917Y0000893779D01*
X0002782443Y0000893779D01*
X0002779527Y0000894359D01*
X0002776611Y0000893779D01*
X0002776611Y0000893779D01*
X0002767975Y0000892061D01*
X0002758182Y0000885518D01*
X0002756530Y0000883046D01*
X0002645217Y0000771732D01*
X0002640710Y0000771732D01*
X0002637795Y0000772312D01*
X0002637238Y0000772201D01*
X0002635995Y0000772716D01*
X0002619910Y0000772716D01*
X0002605049Y0000766560D01*
X0002593675Y0000755186D01*
X0002587519Y0000740326D01*
X0002587519Y0000724240D01*
X0002593675Y0000709379D01*
X0002604953Y0000698101D01*
X0002599143Y0000695694D01*
X0002587769Y0000684320D01*
X0002581614Y0000669459D01*
X0002074881Y0000669459D01*
X0002074881Y0000719270D01*
X0002513700Y0000719270D01*
X0002513700Y0000705926D01*
X0002518807Y0000693597D01*
X0002528243Y0000684161D01*
X0002540571Y0000679055D01*
X0002553916Y0000679055D01*
X0002566244Y0000684161D01*
X0002575680Y0000693597D01*
X0002580787Y0000705926D01*
X0002580787Y0000719270D01*
X0002575680Y0000731599D01*
X0002566244Y0000741035D01*
X0002553916Y0000746141D01*
X0002540571Y0000746141D01*
X0002528243Y0000741035D01*
X0002518807Y0000731599D01*
X0002513700Y0000719270D01*
X0002074881Y0000719270D01*
X0002074881Y0001346625D01*
X0003290275Y0001346625D01*
X0003290275Y0001330540D01*
X0003296431Y0001315679D01*
X0003299118Y0001312992D01*
X0003296431Y0001310305D01*
X0003290275Y0001295444D01*
X0003290275Y0001279358D01*
X0003296431Y0001264498D01*
X0003307805Y0001253124D01*
X0003322665Y0001246968D01*
X0003338751Y0001246968D01*
X0003353612Y0001253124D01*
X0003364986Y0001264498D01*
X0003371141Y0001279358D01*
X0003371141Y0001295444D01*
X0003369228Y0001300062D01*
X0003373847Y0001298149D01*
X0003389932Y0001298149D01*
X0003404793Y0001304305D01*
X0003416167Y0001315679D01*
X0003422322Y0001330540D01*
X0003422322Y0001346625D01*
X0003416167Y0001361486D01*
X0003404793Y0001372860D01*
X0003389932Y0001379015D01*
X0003373847Y0001379015D01*
X0003358986Y0001372860D01*
X0003356299Y0001370173D01*
X0003353612Y0001372860D01*
X0003338751Y0001379015D01*
X0003322665Y0001379015D01*
X0003307805Y0001372860D01*
X0003296431Y0001361486D01*
X0003290275Y0001346625D01*
X0002074881Y0001346625D01*
X0002074881Y0001585003D01*
X0002143255Y0001585003D01*
X0002157702Y0001565498D01*
X0002213038Y0001542136D01*
X0002273102Y0001541728D01*
X0002328749Y0001564337D01*
X0002330486Y0001565498D01*
X0002344933Y0001585003D01*
X0003639318Y0001585003D01*
X0003653765Y0001565498D01*
X0003709101Y0001542136D01*
X0003769165Y0001541728D01*
X0003824812Y0001564337D01*
X0003826549Y0001565498D01*
X0003840996Y0001585003D01*
X0003740157Y0001685842D01*
X0003639318Y0001585003D01*
X0002344933Y0001585003D01*
X0002244094Y0001685842D01*
X0002143255Y0001585003D01*
X0002074881Y0001585003D01*
X0002074881Y0001663905D01*
X0002092909Y0001663905D01*
X0002115518Y0001608258D01*
X0002116679Y0001606521D01*
X0002136184Y0001592074D01*
X0002237023Y0001692913D01*
X0002251165Y0001692913D01*
X0002352004Y0001592074D01*
X0002371509Y0001606521D01*
X0002394871Y0001661857D01*
X0002394885Y0001663905D01*
X0003588972Y0001663905D01*
X0003611581Y0001608258D01*
X0003612742Y0001606521D01*
X0003632247Y0001592074D01*
X0003733086Y0001692913D01*
X0003747228Y0001692913D01*
X0003848067Y0001592074D01*
X0003867572Y0001606521D01*
X0003890934Y0001661857D01*
X0003891342Y0001721920D01*
X0003868733Y0001777568D01*
X0003867572Y0001779305D01*
X0003848067Y0001793752D01*
X0003747228Y0001692913D01*
X0003733086Y0001692913D01*
X0003632247Y0001793752D01*
X0003612742Y0001779305D01*
X0003589380Y0001723969D01*
X0003588972Y0001663905D01*
X0002394885Y0001663905D01*
X0002395279Y0001721920D01*
X0002381401Y0001756078D01*
X0002876889Y0001756078D01*
X0002876889Y0001741559D01*
X0002882445Y0001728145D01*
X0002892712Y0001717879D01*
X0002906126Y0001712322D01*
X0002920645Y0001712322D01*
X0002934059Y0001717879D01*
X0002944325Y0001728145D01*
X0002949881Y0001741559D01*
X0002949881Y0001756078D01*
X0003034370Y0001756078D01*
X0003034370Y0001741559D01*
X0003039926Y0001728145D01*
X0003050192Y0001717879D01*
X0003063606Y0001712322D01*
X0003078125Y0001712322D01*
X0003091539Y0001717879D01*
X0003101806Y0001728145D01*
X0003107362Y0001741559D01*
X0003107362Y0001756078D01*
X0003101806Y0001769492D01*
X0003091539Y0001779758D01*
X0003078125Y0001785314D01*
X0003063606Y0001785314D01*
X0003050192Y0001779758D01*
X0003039926Y0001769492D01*
X0003034370Y0001756078D01*
X0002949881Y0001756078D01*
X0002944325Y0001769492D01*
X0002934059Y0001779758D01*
X0002920645Y0001785314D01*
X0002906126Y0001785314D01*
X0002892712Y0001779758D01*
X0002882445Y0001769492D01*
X0002876889Y0001756078D01*
X0002381401Y0001756078D01*
X0002372670Y0001777568D01*
X0002371509Y0001779305D01*
X0002352004Y0001793752D01*
X0002251165Y0001692913D01*
X0002237023Y0001692913D01*
X0002136184Y0001793752D01*
X0002116679Y0001779305D01*
X0002093317Y0001723969D01*
X0002092909Y0001663905D01*
X0002074881Y0001663905D01*
X0002074881Y0001691682D01*
X0002077664Y0001722859D01*
X0002085597Y0001751857D01*
X0002098540Y0001778993D01*
X0002114226Y0001800823D01*
X0002143255Y0001800823D01*
X0002244094Y0001699984D01*
X0002344933Y0001800823D01*
X0003639318Y0001800823D01*
X0003740157Y0001699984D01*
X0003840996Y0001800823D01*
X0003826549Y0001820328D01*
X0003771213Y0001843690D01*
X0003711149Y0001844097D01*
X0003655502Y0001821488D01*
X0003653765Y0001820328D01*
X0003639318Y0001800823D01*
X0002344933Y0001800823D01*
X0002330486Y0001820328D01*
X0002275150Y0001843690D01*
X0002215086Y0001844097D01*
X0002159439Y0001821488D01*
X0002157702Y0001820328D01*
X0002143255Y0001800823D01*
X0002114226Y0001800823D01*
X0002116084Y0001803408D01*
X0002137674Y0001824330D01*
X0002162628Y0001841099D01*
X0002190157Y0001853183D01*
X0002219604Y0001860253D01*
X0002245108Y0001862125D01*
X0003738926Y0001862125D01*
X0003770103Y0001859343D01*
X0003770103Y0001859343D01*
G37*
X0003770103Y0001859343D02*
X0003799101Y0001851410D01*
X0003826237Y0001838467D01*
X0003850652Y0001820923D01*
X0003871574Y0001799333D01*
X0003888343Y0001774379D01*
X0003900427Y0001746850D01*
X0003907497Y0001717403D01*
X0003909370Y0001691899D01*
X0003909370Y0000198081D01*
X0003906587Y0000166904D01*
X0003898654Y0000137906D01*
X0003885711Y0000110770D01*
X0003868167Y0000086355D01*
X0003846577Y0000065432D01*
X0003821623Y0000048664D01*
X0003794094Y0000036580D01*
X0003764647Y0000029510D01*
X0003739143Y0000027637D01*
X0002245325Y0000027637D01*
X0002214148Y0000030420D01*
X0002185150Y0000038353D01*
X0002158014Y0000051296D01*
X0002133599Y0000068840D01*
X0002114120Y0000088940D01*
X0002143255Y0000088940D01*
X0002157702Y0000069435D01*
X0002213038Y0000046073D01*
X0002273102Y0000045665D01*
X0002328749Y0000068274D01*
X0002330486Y0000069435D01*
X0002344933Y0000088940D01*
X0002244094Y0000189779D01*
X0002143255Y0000088940D01*
X0002114120Y0000088940D01*
X0002112677Y0000090430D01*
X0002095908Y0000115384D01*
X0002083824Y0000142913D01*
X0002077839Y0000167842D01*
X0002092909Y0000167842D01*
X0002115518Y0000112195D01*
X0002116679Y0000110458D01*
X0002136184Y0000096011D01*
X0002237023Y0000196850D01*
X0002251165Y0000196850D01*
X0002352004Y0000096011D01*
X0002371509Y0000110458D01*
X0002394871Y0000165794D01*
X0002395083Y0000197019D01*
X0002542244Y0000197019D01*
X0002542244Y0000180933D01*
X0002548399Y0000166072D01*
X0002559773Y0000154698D01*
X0002574634Y0000148543D01*
X0002590719Y0000148543D01*
X0002605580Y0000154698D01*
X0002616954Y0000166072D01*
X0002623110Y0000180933D01*
X0002623110Y0000197019D01*
X0002644606Y0000197019D01*
X0002644606Y0000180933D01*
X0002650761Y0000166072D01*
X0002662135Y0000154698D01*
X0002676996Y0000148543D01*
X0002693082Y0000148543D01*
X0002707942Y0000154698D01*
X0002719316Y0000166072D01*
X0002720649Y0000169291D01*
X0003317834Y0000169291D01*
X0003317834Y0000078740D01*
X0003318215Y0000076826D01*
X0003319299Y0000075204D01*
X0003320921Y0000074120D01*
X0003322834Y0000073740D01*
X0003562992Y0000073740D01*
X0003564905Y0000074120D01*
X0003566527Y0000075204D01*
X0003567611Y0000076826D01*
X0003567992Y0000078740D01*
X0003567992Y0000088940D01*
X0003639318Y0000088940D01*
X0003653765Y0000069435D01*
X0003709101Y0000046073D01*
X0003769165Y0000045665D01*
X0003824812Y0000068274D01*
X0003826549Y0000069435D01*
X0003840996Y0000088940D01*
X0003740157Y0000189779D01*
X0003639318Y0000088940D01*
X0003567992Y0000088940D01*
X0003567992Y0000167842D01*
X0003588972Y0000167842D01*
X0003611581Y0000112195D01*
X0003612742Y0000110458D01*
X0003632247Y0000096011D01*
X0003733086Y0000196850D01*
X0003747228Y0000196850D01*
X0003848067Y0000096011D01*
X0003867572Y0000110458D01*
X0003890934Y0000165794D01*
X0003891342Y0000225857D01*
X0003868733Y0000281505D01*
X0003867572Y0000283242D01*
X0003848067Y0000297689D01*
X0003747228Y0000196850D01*
X0003733086Y0000196850D01*
X0003632247Y0000297689D01*
X0003612742Y0000283242D01*
X0003589380Y0000227906D01*
X0003588972Y0000167842D01*
X0003567992Y0000167842D01*
X0003567992Y0000169291D01*
X0003567611Y0000171204D01*
X0003566527Y0000172826D01*
X0003564905Y0000173910D01*
X0003562992Y0000174291D01*
X0003322834Y0000174291D01*
X0003320921Y0000173910D01*
X0003319299Y0000172826D01*
X0003318215Y0000171204D01*
X0003317834Y0000169291D01*
X0002720649Y0000169291D01*
X0002725472Y0000180933D01*
X0002725472Y0000197019D01*
X0002719316Y0000211879D01*
X0002707942Y0000223253D01*
X0002693082Y0000229409D01*
X0002676996Y0000229409D01*
X0002662135Y0000223253D01*
X0002650761Y0000211879D01*
X0002644606Y0000197019D01*
X0002623110Y0000197019D01*
X0002616954Y0000211879D01*
X0002605580Y0000223253D01*
X0002590719Y0000229409D01*
X0002574634Y0000229409D01*
X0002559773Y0000223253D01*
X0002548399Y0000211879D01*
X0002542244Y0000197019D01*
X0002395083Y0000197019D01*
X0002395279Y0000225857D01*
X0002372670Y0000281505D01*
X0002371509Y0000283242D01*
X0002352004Y0000297689D01*
X0002251165Y0000196850D01*
X0002237023Y0000196850D01*
X0002136184Y0000297689D01*
X0002116679Y0000283242D01*
X0002093317Y0000227906D01*
X0002092909Y0000167842D01*
X0002077839Y0000167842D01*
X0002076754Y0000172359D01*
X0002074881Y0000197863D01*
X0002074881Y0000304760D01*
X0002143255Y0000304760D01*
X0002244094Y0000203921D01*
X0002344933Y0000304760D01*
X0003639318Y0000304760D01*
X0003740157Y0000203921D01*
X0003840996Y0000304760D01*
X0003826549Y0000324265D01*
X0003771213Y0000347627D01*
X0003711149Y0000348034D01*
X0003655502Y0000325425D01*
X0003653765Y0000324265D01*
X0003639318Y0000304760D01*
X0002344933Y0000304760D01*
X0002330486Y0000324265D01*
X0002275150Y0000347627D01*
X0002215086Y0000348034D01*
X0002159439Y0000325425D01*
X0002157702Y0000324265D01*
X0002143255Y0000304760D01*
X0002074881Y0000304760D01*
X0002074881Y0000669459D01*
X0002581614Y0000669459D01*
X0002581614Y0000653374D01*
X0002587769Y0000638513D01*
X0002599143Y0000627139D01*
X0002614004Y0000620984D01*
X0002630089Y0000620984D01*
X0002644950Y0000627139D01*
X0002649621Y0000631811D01*
X0002703777Y0000631811D01*
X0002706692Y0000631231D01*
X0002709608Y0000631811D01*
X0002709608Y0000631811D01*
X0002718244Y0000633528D01*
X0002728037Y0000640072D01*
X0002729689Y0000642544D01*
X0002994546Y0000907401D01*
X0003122945Y0000907401D01*
X0003124023Y0000906323D01*
X0003125675Y0000903851D01*
X0003135468Y0000897308D01*
X0003141123Y0000896183D01*
X0003146387Y0000890919D01*
X0003161248Y0000884763D01*
X0003177333Y0000884763D01*
X0003192194Y0000890919D01*
X0003203568Y0000902293D01*
X0003209724Y0000917154D01*
X0003209724Y0000918261D01*
X0003219753Y0000922415D01*
X0003231127Y0000933789D01*
X0003237283Y0000948650D01*
X0003237283Y0000964735D01*
X0003231127Y0000979596D01*
X0003219753Y0000990970D01*
X0003204893Y0000997125D01*
X0003201850Y0000997125D01*
X0003201850Y0001004105D01*
X0003195694Y0001018966D01*
X0003184320Y0001030340D01*
X0003169459Y0001036496D01*
X0003153374Y0001036496D01*
X0003138513Y0001030340D01*
X0003127139Y0001018966D01*
X0003120984Y0001004105D01*
X0003120984Y0000988020D01*
X0003121697Y0000986299D01*
X0002934989Y0000986299D01*
X0002932073Y0000986879D01*
X0002931181Y0000986701D01*
X0002931181Y0000988458D01*
X0002925025Y0001003319D01*
X0002913651Y0001014693D01*
X0002898790Y0001020848D01*
X0002882705Y0001020848D01*
X0002868894Y0001015127D01*
X0002832669Y0001051353D01*
X0002831017Y0001053825D01*
X0002821224Y0001060368D01*
X0002815569Y0001061493D01*
X0002810305Y0001066757D01*
X0002795444Y0001072913D01*
X0002779358Y0001072913D01*
X0002764498Y0001066757D01*
X0002753124Y0001055383D01*
X0002746968Y0001040522D01*
X0002746968Y0001024437D01*
X0002753124Y0001009576D01*
X0002764498Y0000998202D01*
X0002779358Y0000992047D01*
X0002793133Y0000992047D01*
X0002788557Y0000987470D01*
X0002782401Y0000972609D01*
X0002782401Y0000956524D01*
X0002788557Y0000941663D01*
X0002799931Y0000930289D01*
X0002814792Y0000924133D01*
X0002819272Y0000924133D01*
X0002788917Y0000893779D01*
X0002782443Y0000893779D01*
X0002779527Y0000894359D01*
X0002776611Y0000893779D01*
X0002776611Y0000893779D01*
X0002767975Y0000892061D01*
X0002758182Y0000885518D01*
X0002756530Y0000883046D01*
X0002645217Y0000771732D01*
X0002640710Y0000771732D01*
X0002637795Y0000772312D01*
X0002637238Y0000772201D01*
X0002635995Y0000772716D01*
X0002619910Y0000772716D01*
X0002605049Y0000766560D01*
X0002593675Y0000755186D01*
X0002587519Y0000740326D01*
X0002587519Y0000724240D01*
X0002593675Y0000709379D01*
X0002604953Y0000698101D01*
X0002599143Y0000695694D01*
X0002587769Y0000684320D01*
X0002581614Y0000669459D01*
X0002074881Y0000669459D01*
X0002074881Y0000719270D01*
X0002513700Y0000719270D01*
X0002513700Y0000705926D01*
X0002518807Y0000693597D01*
X0002528243Y0000684161D01*
X0002540571Y0000679055D01*
X0002553916Y0000679055D01*
X0002566244Y0000684161D01*
X0002575680Y0000693597D01*
X0002580787Y0000705926D01*
X0002580787Y0000719270D01*
X0002575680Y0000731599D01*
X0002566244Y0000741035D01*
X0002553916Y0000746141D01*
X0002540571Y0000746141D01*
X0002528243Y0000741035D01*
X0002518807Y0000731599D01*
X0002513700Y0000719270D01*
X0002074881Y0000719270D01*
X0002074881Y0001346625D01*
X0003290275Y0001346625D01*
X0003290275Y0001330540D01*
X0003296431Y0001315679D01*
X0003299118Y0001312992D01*
X0003296431Y0001310305D01*
X0003290275Y0001295444D01*
X0003290275Y0001279358D01*
X0003296431Y0001264498D01*
X0003307805Y0001253124D01*
X0003322665Y0001246968D01*
X0003338751Y0001246968D01*
X0003353612Y0001253124D01*
X0003364986Y0001264498D01*
X0003371141Y0001279358D01*
X0003371141Y0001295444D01*
X0003369228Y0001300062D01*
X0003373847Y0001298149D01*
X0003389932Y0001298149D01*
X0003404793Y0001304305D01*
X0003416167Y0001315679D01*
X0003422322Y0001330540D01*
X0003422322Y0001346625D01*
X0003416167Y0001361486D01*
X0003404793Y0001372860D01*
X0003389932Y0001379015D01*
X0003373847Y0001379015D01*
X0003358986Y0001372860D01*
X0003356299Y0001370173D01*
X0003353612Y0001372860D01*
X0003338751Y0001379015D01*
X0003322665Y0001379015D01*
X0003307805Y0001372860D01*
X0003296431Y0001361486D01*
X0003290275Y0001346625D01*
X0002074881Y0001346625D01*
X0002074881Y0001585003D01*
X0002143255Y0001585003D01*
X0002157702Y0001565498D01*
X0002213038Y0001542136D01*
X0002273102Y0001541728D01*
X0002328749Y0001564337D01*
X0002330486Y0001565498D01*
X0002344933Y0001585003D01*
X0003639318Y0001585003D01*
X0003653765Y0001565498D01*
X0003709101Y0001542136D01*
X0003769165Y0001541728D01*
X0003824812Y0001564337D01*
X0003826549Y0001565498D01*
X0003840996Y0001585003D01*
X0003740157Y0001685842D01*
X0003639318Y0001585003D01*
X0002344933Y0001585003D01*
X0002244094Y0001685842D01*
X0002143255Y0001585003D01*
X0002074881Y0001585003D01*
X0002074881Y0001663905D01*
X0002092909Y0001663905D01*
X0002115518Y0001608258D01*
X0002116679Y0001606521D01*
X0002136184Y0001592074D01*
X0002237023Y0001692913D01*
X0002251165Y0001692913D01*
X0002352004Y0001592074D01*
X0002371509Y0001606521D01*
X0002394871Y0001661857D01*
X0002394885Y0001663905D01*
X0003588972Y0001663905D01*
X0003611581Y0001608258D01*
X0003612742Y0001606521D01*
X0003632247Y0001592074D01*
X0003733086Y0001692913D01*
X0003747228Y0001692913D01*
X0003848067Y0001592074D01*
X0003867572Y0001606521D01*
X0003890934Y0001661857D01*
X0003891342Y0001721920D01*
X0003868733Y0001777568D01*
X0003867572Y0001779305D01*
X0003848067Y0001793752D01*
X0003747228Y0001692913D01*
X0003733086Y0001692913D01*
X0003632247Y0001793752D01*
X0003612742Y0001779305D01*
X0003589380Y0001723969D01*
X0003588972Y0001663905D01*
X0002394885Y0001663905D01*
X0002395279Y0001721920D01*
X0002381401Y0001756078D01*
X0002876889Y0001756078D01*
X0002876889Y0001741559D01*
X0002882445Y0001728145D01*
X0002892712Y0001717879D01*
X0002906126Y0001712322D01*
X0002920645Y0001712322D01*
X0002934059Y0001717879D01*
X0002944325Y0001728145D01*
X0002949881Y0001741559D01*
X0002949881Y0001756078D01*
X0003034370Y0001756078D01*
X0003034370Y0001741559D01*
X0003039926Y0001728145D01*
X0003050192Y0001717879D01*
X0003063606Y0001712322D01*
X0003078125Y0001712322D01*
X0003091539Y0001717879D01*
X0003101806Y0001728145D01*
X0003107362Y0001741559D01*
X0003107362Y0001756078D01*
X0003101806Y0001769492D01*
X0003091539Y0001779758D01*
X0003078125Y0001785314D01*
X0003063606Y0001785314D01*
X0003050192Y0001779758D01*
X0003039926Y0001769492D01*
X0003034370Y0001756078D01*
X0002949881Y0001756078D01*
X0002944325Y0001769492D01*
X0002934059Y0001779758D01*
X0002920645Y0001785314D01*
X0002906126Y0001785314D01*
X0002892712Y0001779758D01*
X0002882445Y0001769492D01*
X0002876889Y0001756078D01*
X0002381401Y0001756078D01*
X0002372670Y0001777568D01*
X0002371509Y0001779305D01*
X0002352004Y0001793752D01*
X0002251165Y0001692913D01*
X0002237023Y0001692913D01*
X0002136184Y0001793752D01*
X0002116679Y0001779305D01*
X0002093317Y0001723969D01*
X0002092909Y0001663905D01*
X0002074881Y0001663905D01*
X0002074881Y0001691682D01*
X0002077664Y0001722859D01*
X0002085597Y0001751857D01*
X0002098540Y0001778993D01*
X0002114226Y0001800823D01*
X0002143255Y0001800823D01*
X0002244094Y0001699984D01*
X0002344933Y0001800823D01*
X0003639318Y0001800823D01*
X0003740157Y0001699984D01*
X0003840996Y0001800823D01*
X0003826549Y0001820328D01*
X0003771213Y0001843690D01*
X0003711149Y0001844097D01*
X0003655502Y0001821488D01*
X0003653765Y0001820328D01*
X0003639318Y0001800823D01*
X0002344933Y0001800823D01*
X0002330486Y0001820328D01*
X0002275150Y0001843690D01*
X0002215086Y0001844097D01*
X0002159439Y0001821488D01*
X0002157702Y0001820328D01*
X0002143255Y0001800823D01*
X0002114226Y0001800823D01*
X0002116084Y0001803408D01*
X0002137674Y0001824330D01*
X0002162628Y0001841099D01*
X0002190157Y0001853183D01*
X0002219604Y0001860253D01*
X0002245108Y0001862125D01*
X0003738926Y0001862125D01*
X0003770103Y0001859343D01*
G04 #@! TD*
G04 next file*
G04 #@! TF.GenerationSoftware,KiCad,Pcbnew,(5.0.2)-1*
G04 #@! TF.CreationDate,2019-01-06T11:55:21+11:00*
G04 #@! TF.ProjectId,Gain_Block_Dev_Rev_0,4761696e-5f42-46c6-9f63-6b5f4465765f,rev?*
G04 #@! TF.SameCoordinates,Original*
G04 #@! TF.FileFunction,Copper,L4,Bot*
G04 #@! TF.FilePolarity,Positive*
G04 Gerber Fmt 4.6, Leading zero omitted, Abs format (unit mm)*
G04 Created by KiCad (PCBNEW (5.0.2)-1) date 6/01/2019 11:55:21*
G01*
G04 APERTURE LIST*
G04 #@! TA.AperFunction,ViaPad*
G04 #@! TD*
G04 #@! TA.AperFunction,SMDPad,CuDef*
G04 #@! TD*
G04 #@! TA.AperFunction,ComponentPad*
G04 #@! TD*
G04 #@! TA.AperFunction,ComponentPad*
G04 #@! TD*
G04 #@! TA.AperFunction,ComponentPad*
G04 #@! TD*
G04 #@! TA.AperFunction,ComponentPad*
G04 #@! TD*
G04 #@! TA.AperFunction,ComponentPad*
G04 #@! TD*
G04 #@! TA.AperFunction,ComponentPad*
G04 #@! TD*
G04 #@! TA.AperFunction,ViaPad*
G04 #@! TD*
G04 #@! TA.AperFunction,ViaPad*
G04 #@! TD*
G04 #@! TA.AperFunction,Conductor*
G04 #@! TD*
G04 #@! TA.AperFunction,Conductor*
G04 #@! TD*
G04 #@! TA.AperFunction,Conductor*
G04 #@! TD*
G04 #@! TA.AperFunction,Conductor*
G04 #@! TD*
G04 APERTURE END LIST*
G04 #@! TO.C,REF\002A\002A*
D37*
X0002381327Y0002496906D02*
X0002381327Y0002457536D01*
X0002367266Y0002519403D02*
X0002353205Y0002477221D01*
X0002389763Y0002477221D01*
G04 #@! TD*
D38*
G04 #@! TO.N,GND*
G04 #@! TO.C,U1*
X0002472440Y0003019685D03*
X0002515748Y0003019685D03*
X0002559055Y0003019685D03*
X0002472440Y0002978346D03*
X0002515748Y0002978346D03*
X0002559055Y0002978346D03*
X0002472440Y0002937007D03*
X0002515748Y0002937007D03*
X0002559055Y0002937007D03*
G04 #@! TD*
D39*
G04 #@! TO.P,J2,2*
G04 #@! TO.N,GND*
X0002129921Y0002837598D03*
X0002129921Y0003060039D03*
G04 #@! TD*
G04 #@! TO.P,J4,2*
G04 #@! TO.N,GND*
X0003846456Y0002837598D03*
X0003846456Y0003060039D03*
G04 #@! TD*
D40*
G04 #@! TO.P,SW1,1*
G04 #@! TO.N,/nP_S*
X0003365354Y0002462401D03*
D41*
G04 #@! TO.P,SW1,9*
G04 #@! TO.N,+3.3VA*
X0002665354Y0002150590D03*
G04 #@! TO.P,SW1,2*
G04 #@! TO.N,Net-(R7-Pad1)*
X0003265354Y0002462401D03*
G04 #@! TO.P,SW1,10*
G04 #@! TO.N,+3.3VA*
X0002765354Y0002150590D03*
G04 #@! TO.P,SW1,3*
G04 #@! TO.N,Net-(R6-Pad1)*
X0003165354Y0002462401D03*
G04 #@! TO.P,SW1,11*
G04 #@! TO.N,+3.3VA*
X0002865354Y0002150590D03*
G04 #@! TO.P,SW1,4*
G04 #@! TO.N,Net-(R5-Pad1)*
X0003065354Y0002462401D03*
G04 #@! TO.P,SW1,12*
G04 #@! TO.N,+3.3VA*
X0002965354Y0002150590D03*
G04 #@! TO.P,SW1,5*
G04 #@! TO.N,Net-(R4-Pad1)*
X0002965354Y0002462401D03*
G04 #@! TO.P,SW1,13*
G04 #@! TO.N,+3.3VA*
X0003065354Y0002150590D03*
G04 #@! TO.P,SW1,6*
G04 #@! TO.N,Net-(R3-Pad1)*
X0002865354Y0002462401D03*
G04 #@! TO.P,SW1,14*
G04 #@! TO.N,+3.3VA*
X0003165354Y0002150590D03*
G04 #@! TO.P,SW1,7*
G04 #@! TO.N,Net-(R2-Pad1)*
X0002765354Y0002462401D03*
G04 #@! TO.P,SW1,15*
G04 #@! TO.N,+3.3VA*
X0003265354Y0002150590D03*
G04 #@! TO.P,SW1,8*
G04 #@! TO.N,Net-(R1-Pad1)*
X0002665354Y0002462401D03*
G04 #@! TO.P,SW1,16*
G04 #@! TO.N,+3.3VA*
X0003365354Y0002150590D03*
G04 #@! TD*
D42*
G04 #@! TO.P,H1,1*
G04 #@! TO.N,GND*
X0002310907Y0003806970D03*
X0002244094Y0003834645D03*
X0002177281Y0003806970D03*
X0002149606Y0003740157D03*
X0002177281Y0003673344D03*
X0002244094Y0003645669D03*
X0002310907Y0003673344D03*
X0002338582Y0003740157D03*
D43*
X0002244094Y0003740157D03*
G04 #@! TD*
G04 #@! TO.P,H2,1*
G04 #@! TO.N,GND*
X0003740157Y0002244094D03*
D42*
X0003834645Y0002244094D03*
X0003806970Y0002177281D03*
X0003740157Y0002149606D03*
X0003673344Y0002177281D03*
X0003645669Y0002244094D03*
X0003673344Y0002310907D03*
X0003740157Y0002338582D03*
X0003806970Y0002310907D03*
G04 #@! TD*
D43*
G04 #@! TO.P,H3,1*
G04 #@! TO.N,GND*
X0002244094Y0002244094D03*
D42*
X0002338582Y0002244094D03*
X0002310907Y0002177281D03*
X0002244094Y0002149606D03*
X0002177281Y0002177281D03*
X0002149606Y0002244094D03*
X0002177281Y0002310907D03*
X0002244094Y0002338582D03*
X0002310907Y0002310907D03*
G04 #@! TD*
G04 #@! TO.P,H4,1*
G04 #@! TO.N,GND*
X0003806970Y0003806970D03*
X0003740157Y0003834645D03*
X0003673344Y0003806970D03*
X0003645669Y0003740157D03*
X0003673344Y0003673344D03*
X0003740157Y0003645669D03*
X0003806970Y0003673344D03*
X0003834645Y0003740157D03*
D43*
X0003740157Y0003740157D03*
G04 #@! TD*
D44*
G04 #@! TO.P,J3,1*
G04 #@! TO.N,/SI*
X0002531496Y0003460629D03*
D45*
G04 #@! TO.P,J3,2*
G04 #@! TO.N,+5V*
X0002631496Y0003460629D03*
G04 #@! TO.P,J3,3*
G04 #@! TO.N,/LE*
X0002531496Y0003360629D03*
G04 #@! TO.P,J3,4*
G04 #@! TO.N,GND*
X0002631496Y0003360629D03*
G04 #@! TO.P,J3,5*
G04 #@! TO.N,/CLK*
X0002531496Y0003260629D03*
G04 #@! TO.P,J3,6*
G04 #@! TO.N,/RF_PWR*
X0002631496Y0003260629D03*
G04 #@! TD*
D46*
G04 #@! TO.N,GND*
X0002192913Y0003078740D03*
X0002173228Y0003078740D03*
X0002153543Y0003078740D03*
X0002133858Y0003078740D03*
X0002114173Y0003078740D03*
X0002094488Y0003078740D03*
X0002074803Y0003078740D03*
X0002055118Y0003078740D03*
X0002877952Y0003791338D03*
X0003122047Y0003791338D03*
X0003155511Y0003879921D03*
X0003045275Y0003879921D03*
X0002954724Y0003879921D03*
X0002844488Y0003879921D03*
X0002377952Y0003072834D03*
X0002336614Y0003072834D03*
D47*
X0002766732Y0002900590D03*
X0002841535Y0002900590D03*
D46*
X0003515748Y0003286417D03*
D47*
X0003439960Y0003373031D03*
X0003439960Y0003222440D03*
X0003157480Y0003393700D03*
D46*
X0003664763Y0003287401D03*
X0003533464Y0003401574D03*
X0003576771Y0003401574D03*
X0003336614Y0003167322D03*
X0003295275Y0003167322D03*
X0003255905Y0003167322D03*
X0003194881Y0003167322D03*
X0003356299Y0003096456D03*
X0003484251Y0003098425D03*
X0002805118Y0002986220D03*
X0002982283Y0003088582D03*
D47*
X0003055118Y0003425196D03*
D46*
X0002133858Y0002818897D03*
X0002074803Y0002818897D03*
X0002094488Y0002818897D03*
X0002153543Y0002818897D03*
X0002173228Y0002818897D03*
X0002114173Y0002818897D03*
X0002192913Y0002818897D03*
X0002055118Y0002818897D03*
X0003862204Y0002818897D03*
X0003822834Y0002818897D03*
X0003842519Y0002818897D03*
X0003921259Y0002818897D03*
X0003783464Y0002818897D03*
X0003881889Y0002818897D03*
X0003901574Y0002818897D03*
X0003803149Y0002818897D03*
X0003842519Y0003078740D03*
X0003921259Y0003078740D03*
X0003803149Y0003078740D03*
X0003783464Y0003078740D03*
X0003901574Y0003078740D03*
X0003862204Y0003078740D03*
X0003822834Y0003078740D03*
X0003881889Y0003078740D03*
D47*
X0002940944Y0003527559D03*
X0002948818Y0003708661D03*
D46*
X0002251968Y0002988188D03*
X0002251968Y0002988188D03*
X0002251968Y0002988188D03*
X0002271653Y0002988188D03*
X0002232283Y0002988188D03*
X0002212598Y0002988188D03*
X0002220472Y0002913385D03*
X0002240157Y0002913385D03*
X0002259842Y0002913385D03*
X0002279527Y0002913385D03*
X0002299212Y0002913385D03*
X0002318897Y0002913385D03*
X0002338582Y0002913385D03*
X0002358267Y0002913385D03*
X0002633858Y0002913385D03*
X0002653543Y0002913385D03*
X0002673228Y0002913385D03*
X0002692913Y0002913385D03*
X0002712598Y0002913385D03*
X0002732283Y0002913385D03*
X0002744094Y0002988188D03*
X0002724409Y0002980314D03*
X0002704724Y0002984251D03*
X0002685039Y0002984251D03*
X0002763779Y0002992125D03*
X0002783464Y0002992125D03*
X0002826771Y0002992125D03*
X0002846456Y0002992125D03*
X0002866141Y0002992125D03*
X0002885826Y0002980314D03*
X0002877952Y0002913385D03*
X0002933070Y0002913385D03*
X0002952755Y0002913385D03*
X0002972440Y0002913385D03*
X0002992125Y0002909448D03*
X0003023622Y0002988188D03*
X0003043307Y0002988188D03*
X0003062992Y0002984251D03*
X0003082677Y0002980314D03*
X0003102362Y0002980314D03*
X0003122047Y0002984251D03*
X0003141732Y0002988188D03*
X0003161417Y0002988188D03*
X0003181102Y0002988188D03*
X0003200787Y0003003937D03*
X0003220472Y0003019685D03*
X0003240157Y0003039370D03*
X0003259842Y0003051181D03*
X0003279527Y0003062992D03*
X0003299212Y0003062992D03*
X0003318897Y0003062992D03*
X0003267716Y0002944881D03*
X0003287401Y0002964566D03*
X0003311023Y0002980314D03*
X0003334645Y0002980314D03*
X0003291338Y0002988188D03*
X0003267716Y0002964566D03*
X0003314960Y0003000000D03*
X0003338582Y0003000000D03*
X0003358267Y0002988188D03*
X0003377952Y0002988188D03*
X0003397637Y0002988188D03*
X0003417322Y0002988188D03*
X0003437007Y0002988188D03*
X0003456692Y0002988188D03*
X0003476377Y0002988188D03*
X0003515748Y0002988188D03*
X0003535433Y0002988188D03*
X0003496062Y0002988188D03*
X0003574803Y0002988188D03*
X0003555118Y0002988188D03*
X0003614173Y0002988188D03*
X0003594488Y0002988188D03*
X0003653543Y0002988188D03*
X0003633858Y0002988188D03*
X0003732283Y0002988188D03*
X0003712598Y0002988188D03*
X0003751968Y0002988188D03*
X0003692913Y0002988188D03*
X0003673228Y0002988188D03*
X0003377952Y0002913385D03*
X0003397637Y0002913385D03*
X0003358267Y0002913385D03*
X0003732283Y0002913385D03*
X0003515748Y0002913385D03*
X0003496062Y0002913385D03*
X0003594488Y0002913385D03*
X0003437007Y0002913385D03*
X0003574803Y0002913385D03*
X0003653543Y0002913385D03*
X0003614173Y0002913385D03*
X0003555118Y0002913385D03*
X0003535433Y0002913385D03*
X0003417322Y0002913385D03*
X0003692913Y0002913385D03*
X0003633858Y0002913385D03*
X0003476377Y0002913385D03*
X0003673228Y0002913385D03*
X0003712598Y0002913385D03*
X0003751968Y0002913385D03*
X0003456692Y0002913385D03*
X0003338582Y0002913385D03*
X0003338582Y0002913385D03*
X0003338582Y0002913385D03*
X0003318897Y0002897637D03*
X0003303149Y0002877952D03*
X0003291338Y0002858267D03*
X0003271653Y0002846456D03*
X0003248031Y0002850393D03*
X0003228346Y0002862204D03*
X0003212598Y0002881889D03*
X0003212598Y0002881889D03*
X0003212598Y0002881889D03*
X0003196850Y0002901574D03*
X0003177165Y0002905511D03*
X0003157480Y0002905511D03*
X0003137795Y0002905511D03*
X0003118110Y0002913385D03*
X0003098425Y0002913385D03*
X0003665354Y0003208661D03*
X0003665354Y0003129921D03*
X0003665354Y0003169291D03*
X0003665354Y0003110236D03*
X0003665354Y0003149606D03*
X0003665354Y0003188976D03*
X0003665354Y0003228346D03*
X0003590551Y0003220472D03*
X0003590551Y0003200787D03*
X0003590551Y0003181102D03*
X0003590551Y0003141732D03*
X0003590551Y0003122047D03*
X0003590551Y0003161417D03*
X0003574803Y0003102362D03*
X0003559055Y0003082677D03*
X0003535433Y0003070866D03*
X0003511810Y0003066929D03*
X0003452755Y0003070866D03*
X0003433070Y0003070866D03*
X0003413385Y0003070866D03*
X0003413385Y0003070866D03*
X0003413385Y0003070866D03*
X0003393700Y0003070866D03*
X0003661417Y0003090551D03*
X0003641732Y0003070866D03*
X0003622047Y0003051181D03*
X0003602362Y0003031496D03*
X0003582677Y0003015748D03*
X0003566929Y0003216535D03*
X0003543307Y0003216535D03*
X0003523622Y0003220472D03*
X0003500000Y0003224409D03*
X0003476377Y0003224409D03*
X0002440944Y0003838582D03*
X0002637795Y0003838582D03*
X0002539370Y0003740157D03*
X0002539370Y0003543307D03*
X0002440944Y0003641732D03*
X0002637795Y0003641732D03*
X0002342519Y0003543307D03*
X0002244094Y0003444881D03*
X0002145669Y0003346456D03*
X0002244094Y0003248031D03*
X0002145669Y0003149606D03*
X0002342519Y0003346456D03*
X0002440944Y0003444881D03*
X0002736220Y0003740157D03*
X0002736220Y0003543307D03*
X0002834645Y0003444881D03*
X0002736220Y0003149606D03*
X0002736220Y0003346456D03*
X0003228346Y0003740157D03*
X0003425196Y0003740157D03*
X0003326771Y0003838582D03*
X0003523622Y0003838582D03*
X0003523622Y0003641732D03*
X0003326771Y0003641732D03*
X0003228346Y0003543307D03*
X0003425196Y0003543307D03*
X0003622047Y0003543307D03*
X0003818897Y0003543307D03*
X0003720472Y0003444881D03*
X0003818897Y0003346456D03*
X0003622047Y0003346456D03*
X0003720472Y0003248031D03*
X0003720472Y0003051181D03*
X0003818897Y0003149606D03*
X0003720472Y0002854330D03*
X0003720472Y0002657480D03*
X0003720472Y0002460629D03*
X0003818897Y0002559055D03*
X0003818897Y0002755905D03*
X0003622047Y0002755905D03*
X0003622047Y0002559055D03*
X0003622047Y0002362204D03*
X0003523622Y0002460629D03*
X0003523622Y0002657480D03*
X0003523622Y0002854330D03*
X0003425196Y0002755905D03*
X0003425196Y0002559055D03*
X0002244094Y0003051181D03*
X0002244094Y0002854330D03*
X0002145669Y0002755905D03*
X0002342519Y0002755905D03*
X0002440944Y0002657480D03*
X0002539370Y0002559055D03*
X0002440944Y0002460629D03*
X0002342519Y0002362204D03*
X0002244094Y0002559055D03*
X0002145669Y0002657480D03*
X0002145669Y0002460629D03*
X0002440944Y0002263779D03*
X0002539370Y0002165354D03*
X0002539370Y0002362204D03*
X0002736220Y0002755905D03*
X0002637795Y0002854330D03*
X0002933070Y0002755905D03*
X0003523622Y0002263779D03*
X0002834645Y0003641732D03*
G04 #@! TO.N,+3.3VA*
X0002336614Y0002984251D03*
X0002311023Y0003007874D03*
X0003226377Y0003232283D03*
D47*
X0003192913Y0003464566D03*
X0003157480Y0003496062D03*
D46*
G04 #@! TO.N,/RF_PWR*
X0003277559Y0003381889D03*
G04 #@! TO.N,Net-(R1-Pad1)*
X0002408464Y0003049212D03*
X0002610236Y0002610236D03*
G04 #@! TO.N,Net-(R2-Pad1)*
X0002462656Y0003102593D03*
X0002714569Y0002604330D03*
G04 #@! TO.N,Net-(R3-Pad1)*
X0002485236Y0003090551D03*
X0002814960Y0002600885D03*
G04 #@! TO.N,Net-(R4-Pad1)*
X0002913385Y0002606299D03*
X0002505905Y0003109706D03*
G04 #@! TO.N,Net-(R5-Pad1)*
X0003015748Y0002602362D03*
X0002526575Y0003094488D03*
G04 #@! TO.N,Net-(R6-Pad1)*
X0003118110Y0002598425D03*
X0002544291Y0003113934D03*
G04 #@! TO.N,Net-(R7-Pad1)*
X0003214566Y0002602362D03*
X0002564960Y0003129921D03*
G04 #@! TO.N,/nP_S*
X0002387794Y0002972440D03*
X0003314960Y0002600393D03*
G04 #@! TD*
D48*
G04 #@! TO.N,/RF_PWR*
X0002794094Y0003260629D02*
X0002631496Y0003260629D01*
X0003277559Y0003381889D02*
X0003156299Y0003260629D01*
X0003156299Y0003260629D02*
X0002794094Y0003260629D01*
D49*
G04 #@! TO.N,Net-(R1-Pad1)*
X0002688188Y0002462401D02*
X0002665354Y0002462401D01*
D50*
X0002408464Y0003049212D02*
X0002408464Y0002873031D01*
X0002408464Y0002873031D02*
X0002610236Y0002671259D01*
X0002610236Y0002610236D02*
X0002610236Y0002671259D01*
G04 #@! TO.N,Net-(R2-Pad1)*
X0002429133Y0003069071D02*
X0002429133Y0002889766D01*
X0002429133Y0002889766D02*
X0002705710Y0002613188D01*
X0002705710Y0002613188D02*
X0002714569Y0002604330D01*
X0002462656Y0003102593D02*
X0002429133Y0003069071D01*
G04 #@! TO.N,Net-(R3-Pad1)*
X0002814469Y0002600885D02*
X0002814960Y0002600885D01*
X0002485236Y0003071850D02*
X0002444881Y0003031496D01*
X0002485236Y0003090551D02*
X0002485236Y0003071850D01*
X0002444881Y0003031496D02*
X0002444881Y0002911417D01*
X0002444881Y0002911417D02*
X0002732283Y0002624015D01*
X0002732283Y0002624015D02*
X0002791338Y0002624015D01*
X0002791338Y0002624015D02*
X0002814469Y0002600885D01*
D49*
G04 #@! TO.N,Net-(R4-Pad1)*
X0002979330Y0002448425D02*
X0002965354Y0002462401D01*
D50*
X0002913385Y0002988188D02*
X0002838582Y0003062991D01*
X0002913385Y0002606299D02*
X0002913385Y0002988188D01*
X0002838582Y0003062991D02*
X0002526842Y0003062991D01*
X0002526842Y0003062991D02*
X0002505905Y0003083929D01*
X0002505905Y0003109706D02*
X0002505905Y0003083929D01*
D49*
G04 #@! TO.N,Net-(R5-Pad1)*
X0003058070Y0002455118D02*
X0003065354Y0002462401D01*
D50*
X0003015748Y0002881889D02*
X0003015748Y0002602362D01*
X0003015748Y0002913385D02*
X0003015748Y0002881889D01*
X0002850393Y0003078740D02*
X0003015748Y0002913385D01*
X0002526575Y0003094488D02*
X0002542323Y0003078740D01*
X0002542323Y0003078740D02*
X0002850393Y0003078740D01*
G04 #@! TO.N,Net-(R6-Pad1)*
X0002549958Y0003108267D02*
X0002544291Y0003113934D01*
X0002578740Y0003108267D02*
X0002549958Y0003108267D01*
X0002592519Y0003094488D02*
X0002578740Y0003108267D01*
X0002858267Y0003094488D02*
X0002592519Y0003094488D01*
X0003118110Y0002598425D02*
X0003118110Y0002834645D01*
X0003118110Y0002834645D02*
X0002858267Y0003094488D01*
G04 #@! TO.N,Net-(R7-Pad1)*
X0002866928Y0003111418D02*
X0003214566Y0002763779D01*
X0002609054Y0003111418D02*
X0002866928Y0003111418D01*
X0002564960Y0003129921D02*
X0002590551Y0003129921D01*
X0002590551Y0003129921D02*
X0002609054Y0003111418D01*
X0003214566Y0002763779D02*
X0003214566Y0002602362D01*
G04 #@! TO.N,/nP_S*
X0003279387Y0002529387D02*
X0003314960Y0002564960D01*
X0002602502Y0002529387D02*
X0003279387Y0002529387D01*
X0002580708Y0002551181D02*
X0002602502Y0002529387D01*
X0002580708Y0002659448D02*
X0002580708Y0002551181D01*
X0002387794Y0002972440D02*
X0002387794Y0002852362D01*
X0002387794Y0002852362D02*
X0002580708Y0002659448D01*
X0003314960Y0002600393D02*
X0003314960Y0002564960D01*
G04 #@! TD*
D51*
G04 #@! TO.N,GND*
G36*
X0003770103Y0003906587D02*
X0003799101Y0003898654D01*
X0003826237Y0003885711D01*
X0003850652Y0003868167D01*
X0003871574Y0003846577D01*
X0003888343Y0003821623D01*
X0003900427Y0003794094D01*
X0003907497Y0003764647D01*
X0003909370Y0003739143D01*
X0003909370Y0002245325D01*
X0003906587Y0002214148D01*
X0003898654Y0002185150D01*
X0003885711Y0002158014D01*
X0003868167Y0002133599D01*
X0003846577Y0002112677D01*
X0003821623Y0002095908D01*
X0003794094Y0002083824D01*
X0003764647Y0002076754D01*
X0003739143Y0002074881D01*
X0002245325Y0002074881D01*
X0002214148Y0002077664D01*
X0002185150Y0002085597D01*
X0002158014Y0002098540D01*
X0002133599Y0002116084D01*
X0002113954Y0002136356D01*
X0002143427Y0002136356D01*
X0002157891Y0002116939D01*
X0002213113Y0002093629D01*
X0002273051Y0002093227D01*
X0002328581Y0002115792D01*
X0002330297Y0002116939D01*
X0002344761Y0002136356D01*
X0002244094Y0002237023D01*
X0002143427Y0002136356D01*
X0002113954Y0002136356D01*
X0002112677Y0002137674D01*
X0002095908Y0002162628D01*
X0002083824Y0002190157D01*
X0002077827Y0002215137D01*
X0002093227Y0002215137D01*
X0002115792Y0002159607D01*
X0002116939Y0002157891D01*
X0002136356Y0002143427D01*
X0002237023Y0002244094D01*
X0002251165Y0002244094D01*
X0002351832Y0002143427D01*
X0002361448Y0002150590D01*
X0002608072Y0002150590D01*
X0002612432Y0002128669D01*
X0002624850Y0002110086D01*
X0002643433Y0002097669D01*
X0002659821Y0002094409D01*
X0002670887Y0002094409D01*
X0002687275Y0002097669D01*
X0002705858Y0002110086D01*
X0002715354Y0002124297D01*
X0002724850Y0002110086D01*
X0002743433Y0002097669D01*
X0002759821Y0002094409D01*
X0002770887Y0002094409D01*
X0002787275Y0002097669D01*
X0002805858Y0002110086D01*
X0002815354Y0002124297D01*
X0002824850Y0002110086D01*
X0002843433Y0002097669D01*
X0002859821Y0002094409D01*
X0002870887Y0002094409D01*
X0002887275Y0002097669D01*
X0002905858Y0002110086D01*
X0002915354Y0002124297D01*
X0002924850Y0002110086D01*
X0002943433Y0002097669D01*
X0002959821Y0002094409D01*
X0002970887Y0002094409D01*
X0002987275Y0002097669D01*
X0003005858Y0002110086D01*
X0003015354Y0002124297D01*
X0003024850Y0002110086D01*
X0003043433Y0002097669D01*
X0003059821Y0002094409D01*
X0003070887Y0002094409D01*
X0003087275Y0002097669D01*
X0003105858Y0002110086D01*
X0003115354Y0002124297D01*
X0003124850Y0002110086D01*
X0003143433Y0002097669D01*
X0003159821Y0002094409D01*
X0003170887Y0002094409D01*
X0003187275Y0002097669D01*
X0003205858Y0002110086D01*
X0003215354Y0002124297D01*
X0003224850Y0002110086D01*
X0003243433Y0002097669D01*
X0003259821Y0002094409D01*
X0003270887Y0002094409D01*
X0003287275Y0002097669D01*
X0003305858Y0002110086D01*
X0003315354Y0002124297D01*
X0003324850Y0002110086D01*
X0003343433Y0002097669D01*
X0003359821Y0002094409D01*
X0003370887Y0002094409D01*
X0003387275Y0002097669D01*
X0003405858Y0002110086D01*
X0003418275Y0002128669D01*
X0003419804Y0002136356D01*
X0003639490Y0002136356D01*
X0003653954Y0002116939D01*
X0003709176Y0002093629D01*
X0003769114Y0002093227D01*
X0003824644Y0002115792D01*
X0003826360Y0002116939D01*
X0003840824Y0002136356D01*
X0003740157Y0002237023D01*
X0003639490Y0002136356D01*
X0003419804Y0002136356D01*
X0003422636Y0002150590D01*
X0003418275Y0002172511D01*
X0003405858Y0002191094D01*
X0003387275Y0002203511D01*
X0003370887Y0002206771D01*
X0003359821Y0002206771D01*
X0003343433Y0002203511D01*
X0003324850Y0002191094D01*
X0003315354Y0002176883D01*
X0003305858Y0002191094D01*
X0003287275Y0002203511D01*
X0003270887Y0002206771D01*
X0003259821Y0002206771D01*
X0003243433Y0002203511D01*
X0003224850Y0002191094D01*
X0003215354Y0002176883D01*
X0003205858Y0002191094D01*
X0003187275Y0002203511D01*
X0003170887Y0002206771D01*
X0003159821Y0002206771D01*
X0003143433Y0002203511D01*
X0003124850Y0002191094D01*
X0003115354Y0002176883D01*
X0003105858Y0002191094D01*
X0003087275Y0002203511D01*
X0003070887Y0002206771D01*
X0003059821Y0002206771D01*
X0003043433Y0002203511D01*
X0003024850Y0002191094D01*
X0003015354Y0002176883D01*
X0003005858Y0002191094D01*
X0002987275Y0002203511D01*
X0002970887Y0002206771D01*
X0002959821Y0002206771D01*
X0002943433Y0002203511D01*
X0002924850Y0002191094D01*
X0002915354Y0002176883D01*
X0002905858Y0002191094D01*
X0002887275Y0002203511D01*
X0002870887Y0002206771D01*
X0002859821Y0002206771D01*
X0002843433Y0002203511D01*
X0002824850Y0002191094D01*
X0002815354Y0002176883D01*
X0002805858Y0002191094D01*
X0002787275Y0002203511D01*
X0002770887Y0002206771D01*
X0002759821Y0002206771D01*
X0002743433Y0002203511D01*
X0002724850Y0002191094D01*
X0002715354Y0002176883D01*
X0002705858Y0002191094D01*
X0002687275Y0002203511D01*
X0002670887Y0002206771D01*
X0002659821Y0002206771D01*
X0002643433Y0002203511D01*
X0002624850Y0002191094D01*
X0002612432Y0002172511D01*
X0002608072Y0002150590D01*
X0002361448Y0002150590D01*
X0002371249Y0002157891D01*
X0002394559Y0002213113D01*
X0002394572Y0002215137D01*
X0003589290Y0002215137D01*
X0003611855Y0002159607D01*
X0003613002Y0002157891D01*
X0003632419Y0002143427D01*
X0003733086Y0002244094D01*
X0003747228Y0002244094D01*
X0003847895Y0002143427D01*
X0003867312Y0002157891D01*
X0003890622Y0002213113D01*
X0003891024Y0002273051D01*
X0003868459Y0002328581D01*
X0003867312Y0002330297D01*
X0003847895Y0002344761D01*
X0003747228Y0002244094D01*
X0003733086Y0002244094D01*
X0003632419Y0002344761D01*
X0003613002Y0002330297D01*
X0003589692Y0002275075D01*
X0003589290Y0002215137D01*
X0002394572Y0002215137D01*
X0002394961Y0002273051D01*
X0002372396Y0002328581D01*
X0002371249Y0002330297D01*
X0002351832Y0002344761D01*
X0002251165Y0002244094D01*
X0002237023Y0002244094D01*
X0002136356Y0002344761D01*
X0002116939Y0002330297D01*
X0002093629Y0002275075D01*
X0002093227Y0002215137D01*
X0002077827Y0002215137D01*
X0002076754Y0002219604D01*
X0002074881Y0002245108D01*
X0002074881Y0002351832D01*
X0002143427Y0002351832D01*
X0002244094Y0002251165D01*
X0002344761Y0002351832D01*
X0003639490Y0002351832D01*
X0003740157Y0002251165D01*
X0003840824Y0002351832D01*
X0003826360Y0002371249D01*
X0003771138Y0002394559D01*
X0003711200Y0002394961D01*
X0003655670Y0002372396D01*
X0003653954Y0002371249D01*
X0003639490Y0002351832D01*
X0002344761Y0002351832D01*
X0002330297Y0002371249D01*
X0002275075Y0002394559D01*
X0002215137Y0002394961D01*
X0002159607Y0002372396D01*
X0002157891Y0002371249D01*
X0002143427Y0002351832D01*
X0002074881Y0002351832D01*
X0002074881Y0002535433D01*
X0002156417Y0002535433D01*
X0002156417Y0002442913D01*
X0002156797Y0002440999D01*
X0002157881Y0002439377D01*
X0002159503Y0002438293D01*
X0002161417Y0002437913D01*
X0002401574Y0002437913D01*
X0002403488Y0002438293D01*
X0002405110Y0002439377D01*
X0002406194Y0002440999D01*
X0002406574Y0002442913D01*
X0002406574Y0002535433D01*
X0002406194Y0002537346D01*
X0002405110Y0002538968D01*
X0002403488Y0002540052D01*
X0002401574Y0002540433D01*
X0002161417Y0002540433D01*
X0002159503Y0002540052D01*
X0002157881Y0002538968D01*
X0002156797Y0002537346D01*
X0002156417Y0002535433D01*
X0002074881Y0002535433D01*
X0002074881Y0003014546D01*
X0002277480Y0003014546D01*
X0002277480Y0003001201D01*
X0002282586Y0002988873D01*
X0002292022Y0002979437D01*
X0002304351Y0002974330D01*
X0002304416Y0002974330D01*
X0002308177Y0002965251D01*
X0002317613Y0002955815D01*
X0002329942Y0002950708D01*
X0002343286Y0002950708D01*
X0002355614Y0002955815D01*
X0002357566Y0002957766D01*
X0002359172Y0002953887D01*
X0002359172Y0002855181D01*
X0002358612Y0002852362D01*
X0002360833Y0002841194D01*
X0002360833Y0002841194D01*
X0002367159Y0002831727D01*
X0002369549Y0002830130D01*
X0002552086Y0002647593D01*
X0002552086Y0002554000D01*
X0002551525Y0002551181D01*
X0002553747Y0002540013D01*
X0002555093Y0002537999D01*
X0002560073Y0002530545D01*
X0002562463Y0002528949D01*
X0002580269Y0002511142D01*
X0002581866Y0002508752D01*
X0002591334Y0002502426D01*
X0002599683Y0002500765D01*
X0002599683Y0002500765D01*
X0002602502Y0002500205D01*
X0002605320Y0002500765D01*
X0002623420Y0002500765D01*
X0002612432Y0002484322D01*
X0002608072Y0002462401D01*
X0002612432Y0002440480D01*
X0002624850Y0002421897D01*
X0002643433Y0002409480D01*
X0002659821Y0002406220D01*
X0002670887Y0002406220D01*
X0002687275Y0002409480D01*
X0002705858Y0002421897D01*
X0002715354Y0002436108D01*
X0002724850Y0002421897D01*
X0002743433Y0002409480D01*
X0002759821Y0002406220D01*
X0002770887Y0002406220D01*
X0002787275Y0002409480D01*
X0002805858Y0002421897D01*
X0002815354Y0002436108D01*
X0002824850Y0002421897D01*
X0002843433Y0002409480D01*
X0002859821Y0002406220D01*
X0002870887Y0002406220D01*
X0002887275Y0002409480D01*
X0002905858Y0002421897D01*
X0002915354Y0002436108D01*
X0002924850Y0002421897D01*
X0002943433Y0002409480D01*
X0002959821Y0002406220D01*
X0002970887Y0002406220D01*
X0002987275Y0002409480D01*
X0003005858Y0002421897D01*
X0003015354Y0002436108D01*
X0003024850Y0002421897D01*
X0003043433Y0002409480D01*
X0003059821Y0002406220D01*
X0003070887Y0002406220D01*
X0003087275Y0002409480D01*
X0003105858Y0002421897D01*
X0003115354Y0002436108D01*
X0003124850Y0002421897D01*
X0003143433Y0002409480D01*
X0003159821Y0002406220D01*
X0003170887Y0002406220D01*
X0003187275Y0002409480D01*
X0003205858Y0002421897D01*
X0003215354Y0002436108D01*
X0003224850Y0002421897D01*
X0003243433Y0002409480D01*
X0003259821Y0002406220D01*
X0003270887Y0002406220D01*
X0003287275Y0002409480D01*
X0003305858Y0002421897D01*
X0003309421Y0002427228D01*
X0003310605Y0002421273D01*
X0003316061Y0002413108D01*
X0003324226Y0002407652D01*
X0003333858Y0002405736D01*
X0003396850Y0002405736D01*
X0003406482Y0002407652D01*
X0003414647Y0002413108D01*
X0003420103Y0002421273D01*
X0003422019Y0002430905D01*
X0003422019Y0002493897D01*
X0003420103Y0002503529D01*
X0003414647Y0002511694D01*
X0003406482Y0002517150D01*
X0003396850Y0002519066D01*
X0003333858Y0002519066D01*
X0003324226Y0002517150D01*
X0003316061Y0002511694D01*
X0003310605Y0002503529D01*
X0003309421Y0002497574D01*
X0003305858Y0002502905D01*
X0003298565Y0002507778D01*
X0003300023Y0002508752D01*
X0003301619Y0002511142D01*
X0003333206Y0002542728D01*
X0003335595Y0002544325D01*
X0003341921Y0002553792D01*
X0003343582Y0002562141D01*
X0003343582Y0002562141D01*
X0003344143Y0002564960D01*
X0003343582Y0002567779D01*
X0003343582Y0002581840D01*
X0003348503Y0002593721D01*
X0003348503Y0002607065D01*
X0003343397Y0002619394D01*
X0003333961Y0002628830D01*
X0003321632Y0002633937D01*
X0003308288Y0002633937D01*
X0003295959Y0002628830D01*
X0003286523Y0002619394D01*
X0003281417Y0002607065D01*
X0003281417Y0002593721D01*
X0003286338Y0002581840D01*
X0003286338Y0002576816D01*
X0003267532Y0002558009D01*
X0002614357Y0002558009D01*
X0002609330Y0002563036D01*
X0002609330Y0002576692D01*
X0002616908Y0002576692D01*
X0002629236Y0002581799D01*
X0002638672Y0002591235D01*
X0002643779Y0002603564D01*
X0002643779Y0002616908D01*
X0002638858Y0002628789D01*
X0002638858Y0002639563D01*
X0002681211Y0002597210D01*
X0002686132Y0002585329D01*
X0002695568Y0002575894D01*
X0002707896Y0002570787D01*
X0002721241Y0002570787D01*
X0002733569Y0002575894D01*
X0002743005Y0002585329D01*
X0002747174Y0002595393D01*
X0002779482Y0002595393D01*
X0002781950Y0002592926D01*
X0002786523Y0002581884D01*
X0002795959Y0002572448D01*
X0002808288Y0002567341D01*
X0002821632Y0002567341D01*
X0002833961Y0002572448D01*
X0002843397Y0002581884D01*
X0002848503Y0002594213D01*
X0002848503Y0002607557D01*
X0002843397Y0002619886D01*
X0002833961Y0002629321D01*
X0002821632Y0002634428D01*
X0002821403Y0002634428D01*
X0002813570Y0002642261D01*
X0002811973Y0002644651D01*
X0002802506Y0002650977D01*
X0002794157Y0002652637D01*
X0002794157Y0002652637D01*
X0002791338Y0002653198D01*
X0002788519Y0002652637D01*
X0002744139Y0002652637D01*
X0002473503Y0002923272D01*
X0002473503Y0003019640D01*
X0002501610Y0003047746D01*
X0002504610Y0003044746D01*
X0002506207Y0003042356D01*
X0002515675Y0003036030D01*
X0002524024Y0003034369D01*
X0002524024Y0003034369D01*
X0002526842Y0003033809D01*
X0002529661Y0003034369D01*
X0002826726Y0003034369D01*
X0002884763Y0002976332D01*
X0002884763Y0002624852D01*
X0002879842Y0002612971D01*
X0002879842Y0002599627D01*
X0002884949Y0002587298D01*
X0002894385Y0002577862D01*
X0002906713Y0002572755D01*
X0002920057Y0002572755D01*
X0002932386Y0002577862D01*
X0002941822Y0002587298D01*
X0002946929Y0002599627D01*
X0002946929Y0002612971D01*
X0002942007Y0002624852D01*
X0002942007Y0002946648D01*
X0002987125Y0002901530D01*
X0002987125Y0002884708D01*
X0002987125Y0002620915D01*
X0002982204Y0002609034D01*
X0002982204Y0002595690D01*
X0002987311Y0002583361D01*
X0002996747Y0002573925D01*
X0003009075Y0002568818D01*
X0003022420Y0002568818D01*
X0003034748Y0002573925D01*
X0003044184Y0002583361D01*
X0003049291Y0002595690D01*
X0003049291Y0002609034D01*
X0003044370Y0002620915D01*
X0003044370Y0002867908D01*
X0003089488Y0002822789D01*
X0003089488Y0002616978D01*
X0003084566Y0002605097D01*
X0003084566Y0002591753D01*
X0003089673Y0002579424D01*
X0003099109Y0002569988D01*
X0003111438Y0002564881D01*
X0003124782Y0002564881D01*
X0003137110Y0002569988D01*
X0003146546Y0002579424D01*
X0003151653Y0002591753D01*
X0003151653Y0002605097D01*
X0003146732Y0002616978D01*
X0003146732Y0002791136D01*
X0003185944Y0002751923D01*
X0003185944Y0002620915D01*
X0003181023Y0002609034D01*
X0003181023Y0002595690D01*
X0003186130Y0002583361D01*
X0003195566Y0002573925D01*
X0003207894Y0002568818D01*
X0003221239Y0002568818D01*
X0003233567Y0002573925D01*
X0003243003Y0002583361D01*
X0003248110Y0002595690D01*
X0003248110Y0002609034D01*
X0003243188Y0002620915D01*
X0003243188Y0002760960D01*
X0003243749Y0002763779D01*
X0003243188Y0002766598D01*
X0003243188Y0002766598D01*
X0003241528Y0002774947D01*
X0003238612Y0002779310D01*
X0003236798Y0002782025D01*
X0003236798Y0002782025D01*
X0003235202Y0002784414D01*
X0003232812Y0002786011D01*
X0002889160Y0003129663D01*
X0002887563Y0003132053D01*
X0002878095Y0003138379D01*
X0002869747Y0003140040D01*
X0002869746Y0003140040D01*
X0002866928Y0003140601D01*
X0002864109Y0003140040D01*
X0002620909Y0003140040D01*
X0002612783Y0003148166D01*
X0002611186Y0003150556D01*
X0002601718Y0003156882D01*
X0002593370Y0003158543D01*
X0002593369Y0003158543D01*
X0002590551Y0003159103D01*
X0002587732Y0003158543D01*
X0002583513Y0003158543D01*
X0002571632Y0003163464D01*
X0002558288Y0003163464D01*
X0002545959Y0003158357D01*
X0002536523Y0003148922D01*
X0002535575Y0003146631D01*
X0002525290Y0003142371D01*
X0002522188Y0003139269D01*
X0002512577Y0003143250D01*
X0002499233Y0003143250D01*
X0002486904Y0003138143D01*
X0002480338Y0003131576D01*
X0002469328Y0003136137D01*
X0002455984Y0003136137D01*
X0002443655Y0003131030D01*
X0002434219Y0003121594D01*
X0002429298Y0003109713D01*
X0002410887Y0003091303D01*
X0002408498Y0003089706D01*
X0002403853Y0003082755D01*
X0002401792Y0003082755D01*
X0002389463Y0003077649D01*
X0002380027Y0003068213D01*
X0002374920Y0003055884D01*
X0002374920Y0003042540D01*
X0002379842Y0003030659D01*
X0002379842Y0003005453D01*
X0002368794Y0003000877D01*
X0002366842Y0002998926D01*
X0002365050Y0003003252D01*
X0002355614Y0003012688D01*
X0002343286Y0003017795D01*
X0002343221Y0003017795D01*
X0002339460Y0003026874D01*
X0002330024Y0003036310D01*
X0002317695Y0003041417D01*
X0002304351Y0003041417D01*
X0002292022Y0003036310D01*
X0002282586Y0003026874D01*
X0002277480Y0003014546D01*
X0002074881Y0003014546D01*
X0002074881Y0003360629D01*
X0002472207Y0003360629D01*
X0002476720Y0003337941D01*
X0002489572Y0003318706D01*
X0002501659Y0003310629D01*
X0002489572Y0003302553D01*
X0002476720Y0003283318D01*
X0002472207Y0003260629D01*
X0002476720Y0003237941D01*
X0002489572Y0003218706D01*
X0002508807Y0003205854D01*
X0002525768Y0003202480D01*
X0002537223Y0003202480D01*
X0002554184Y0003205854D01*
X0002573419Y0003218706D01*
X0002581496Y0003230793D01*
X0002589572Y0003218706D01*
X0002608807Y0003205854D01*
X0002625768Y0003202480D01*
X0002637223Y0003202480D01*
X0002654184Y0003205854D01*
X0002673419Y0003218706D01*
X0002681649Y0003231023D01*
X0003153383Y0003231023D01*
X0003156299Y0003230443D01*
X0003159214Y0003231023D01*
X0003159215Y0003231023D01*
X0003167851Y0003232741D01*
X0003177151Y0003238955D01*
X0003192834Y0003238955D01*
X0003192834Y0003225611D01*
X0003197941Y0003213282D01*
X0003207377Y0003203846D01*
X0003219705Y0003198740D01*
X0003233050Y0003198740D01*
X0003245378Y0003203846D01*
X0003254814Y0003213282D01*
X0003259921Y0003225611D01*
X0003259921Y0003238955D01*
X0003254814Y0003251284D01*
X0003245378Y0003260720D01*
X0003233050Y0003265826D01*
X0003219705Y0003265826D01*
X0003207377Y0003260720D01*
X0003197941Y0003251284D01*
X0003192834Y0003238955D01*
X0003177151Y0003238955D01*
X0003177644Y0003239285D01*
X0003179295Y0003241757D01*
X0003287055Y0003349516D01*
X0003296559Y0003353453D01*
X0003305995Y0003362889D01*
X0003311102Y0003375217D01*
X0003311102Y0003388561D01*
X0003305995Y0003400890D01*
X0003296559Y0003410326D01*
X0003284231Y0003415433D01*
X0003270886Y0003415433D01*
X0003258558Y0003410326D01*
X0003249122Y0003400890D01*
X0003245185Y0003391385D01*
X0003144035Y0003290236D01*
X0002681649Y0003290236D01*
X0002673419Y0003302553D01*
X0002660448Y0003311220D01*
X0002666030Y0003313845D01*
X0002681305Y0003330621D01*
X0002687934Y0003346628D01*
X0002683233Y0003355629D01*
X0002636496Y0003355629D01*
X0002636496Y0003354842D01*
X0002626496Y0003354842D01*
X0002626496Y0003355629D01*
X0002625708Y0003355629D01*
X0002625708Y0003365629D01*
X0002626496Y0003365629D01*
X0002626496Y0003366417D01*
X0002636496Y0003366417D01*
X0002636496Y0003365629D01*
X0002683233Y0003365629D01*
X0002687934Y0003374631D01*
X0002681305Y0003390637D01*
X0002666030Y0003407414D01*
X0002660448Y0003410039D01*
X0002673419Y0003418706D01*
X0002686271Y0003437941D01*
X0002690784Y0003460629D01*
X0002686271Y0003483318D01*
X0002673419Y0003502553D01*
X0002671096Y0003504105D01*
X0003117047Y0003504105D01*
X0003117047Y0003488020D01*
X0003123202Y0003473159D01*
X0003134576Y0003461785D01*
X0003149437Y0003455629D01*
X0003152850Y0003455629D01*
X0003158635Y0003441663D01*
X0003170009Y0003430289D01*
X0003184870Y0003424133D01*
X0003200956Y0003424133D01*
X0003215816Y0003430289D01*
X0003227190Y0003441663D01*
X0003233346Y0003456524D01*
X0003233346Y0003472609D01*
X0003227190Y0003487470D01*
X0003215816Y0003498844D01*
X0003200956Y0003505000D01*
X0003197542Y0003505000D01*
X0003191757Y0003518966D01*
X0003180383Y0003530340D01*
X0003165522Y0003536496D01*
X0003149437Y0003536496D01*
X0003134576Y0003530340D01*
X0003123202Y0003518966D01*
X0003117047Y0003504105D01*
X0002671096Y0003504105D01*
X0002654184Y0003515405D01*
X0002637223Y0003518779D01*
X0002625768Y0003518779D01*
X0002608807Y0003515405D01*
X0002589572Y0003502553D01*
X0002588704Y0003501255D01*
X0002588213Y0003503726D01*
X0002582757Y0003511891D01*
X0002574592Y0003517347D01*
X0002564960Y0003519263D01*
X0002498031Y0003519263D01*
X0002488399Y0003517347D01*
X0002480234Y0003511891D01*
X0002474778Y0003503726D01*
X0002472862Y0003494094D01*
X0002472862Y0003427165D01*
X0002474778Y0003417533D01*
X0002480234Y0003409368D01*
X0002488399Y0003403912D01*
X0002490870Y0003403421D01*
X0002489572Y0003402553D01*
X0002476720Y0003383318D01*
X0002472207Y0003360629D01*
X0002074881Y0003360629D01*
X0002074881Y0003632419D01*
X0002143427Y0003632419D01*
X0002157891Y0003613002D01*
X0002213113Y0003589692D01*
X0002273051Y0003589290D01*
X0002328581Y0003611855D01*
X0002330297Y0003613002D01*
X0002344761Y0003632419D01*
X0003639490Y0003632419D01*
X0003653954Y0003613002D01*
X0003709176Y0003589692D01*
X0003769114Y0003589290D01*
X0003824644Y0003611855D01*
X0003826360Y0003613002D01*
X0003840824Y0003632419D01*
X0003740157Y0003733086D01*
X0003639490Y0003632419D01*
X0002344761Y0003632419D01*
X0002244094Y0003733086D01*
X0002143427Y0003632419D01*
X0002074881Y0003632419D01*
X0002074881Y0003711200D01*
X0002093227Y0003711200D01*
X0002115792Y0003655670D01*
X0002116939Y0003653954D01*
X0002136356Y0003639490D01*
X0002237023Y0003740157D01*
X0002251165Y0003740157D01*
X0002351832Y0003639490D01*
X0002371249Y0003653954D01*
X0002394559Y0003709176D01*
X0002394572Y0003711200D01*
X0003589290Y0003711200D01*
X0003611855Y0003655670D01*
X0003613002Y0003653954D01*
X0003632419Y0003639490D01*
X0003733086Y0003740157D01*
X0003747228Y0003740157D01*
X0003847895Y0003639490D01*
X0003867312Y0003653954D01*
X0003890622Y0003709176D01*
X0003891024Y0003769114D01*
X0003868459Y0003824644D01*
X0003867312Y0003826360D01*
X0003847895Y0003840824D01*
X0003747228Y0003740157D01*
X0003733086Y0003740157D01*
X0003632419Y0003840824D01*
X0003613002Y0003826360D01*
X0003589692Y0003771138D01*
X0003589290Y0003711200D01*
X0002394572Y0003711200D01*
X0002394961Y0003769114D01*
X0002381060Y0003803322D01*
X0002884763Y0003803322D01*
X0002884763Y0003788803D01*
X0002890319Y0003775389D01*
X0002900586Y0003765123D01*
X0002914000Y0003759566D01*
X0002928519Y0003759566D01*
X0002941933Y0003765123D01*
X0002952199Y0003775389D01*
X0002957755Y0003788803D01*
X0002957755Y0003803322D01*
X0003042244Y0003803322D01*
X0003042244Y0003788803D01*
X0003047800Y0003775389D01*
X0003058066Y0003765123D01*
X0003071480Y0003759566D01*
X0003085999Y0003759566D01*
X0003099413Y0003765123D01*
X0003109680Y0003775389D01*
X0003115236Y0003788803D01*
X0003115236Y0003803322D01*
X0003109680Y0003816736D01*
X0003099413Y0003827002D01*
X0003085999Y0003832559D01*
X0003071480Y0003832559D01*
X0003058066Y0003827002D01*
X0003047800Y0003816736D01*
X0003042244Y0003803322D01*
X0002957755Y0003803322D01*
X0002952199Y0003816736D01*
X0002941933Y0003827002D01*
X0002928519Y0003832559D01*
X0002914000Y0003832559D01*
X0002900586Y0003827002D01*
X0002890319Y0003816736D01*
X0002884763Y0003803322D01*
X0002381060Y0003803322D01*
X0002372396Y0003824644D01*
X0002371249Y0003826360D01*
X0002351832Y0003840824D01*
X0002251165Y0003740157D01*
X0002237023Y0003740157D01*
X0002136356Y0003840824D01*
X0002116939Y0003826360D01*
X0002093629Y0003771138D01*
X0002093227Y0003711200D01*
X0002074881Y0003711200D01*
X0002074881Y0003738926D01*
X0002077664Y0003770103D01*
X0002085597Y0003799101D01*
X0002098540Y0003826237D01*
X0002114103Y0003847895D01*
X0002143427Y0003847895D01*
X0002244094Y0003747228D01*
X0002344761Y0003847895D01*
X0003639490Y0003847895D01*
X0003740157Y0003747228D01*
X0003840824Y0003847895D01*
X0003826360Y0003867312D01*
X0003771138Y0003890622D01*
X0003711200Y0003891024D01*
X0003655670Y0003868459D01*
X0003653954Y0003867312D01*
X0003639490Y0003847895D01*
X0002344761Y0003847895D01*
X0002330297Y0003867312D01*
X0002275075Y0003890622D01*
X0002215137Y0003891024D01*
X0002159607Y0003868459D01*
X0002157891Y0003867312D01*
X0002143427Y0003847895D01*
X0002114103Y0003847895D01*
X0002116084Y0003850652D01*
X0002137674Y0003871574D01*
X0002162628Y0003888343D01*
X0002190157Y0003900427D01*
X0002219604Y0003907497D01*
X0002245108Y0003909370D01*
X0003738926Y0003909370D01*
X0003770103Y0003906587D01*
X0003770103Y0003906587D01*
G37*
X0003770103Y0003906587D02*
X0003799101Y0003898654D01*
X0003826237Y0003885711D01*
X0003850652Y0003868167D01*
X0003871574Y0003846577D01*
X0003888343Y0003821623D01*
X0003900427Y0003794094D01*
X0003907497Y0003764647D01*
X0003909370Y0003739143D01*
X0003909370Y0002245325D01*
X0003906587Y0002214148D01*
X0003898654Y0002185150D01*
X0003885711Y0002158014D01*
X0003868167Y0002133599D01*
X0003846577Y0002112677D01*
X0003821623Y0002095908D01*
X0003794094Y0002083824D01*
X0003764647Y0002076754D01*
X0003739143Y0002074881D01*
X0002245325Y0002074881D01*
X0002214148Y0002077664D01*
X0002185150Y0002085597D01*
X0002158014Y0002098540D01*
X0002133599Y0002116084D01*
X0002113954Y0002136356D01*
X0002143427Y0002136356D01*
X0002157891Y0002116939D01*
X0002213113Y0002093629D01*
X0002273051Y0002093227D01*
X0002328581Y0002115792D01*
X0002330297Y0002116939D01*
X0002344761Y0002136356D01*
X0002244094Y0002237023D01*
X0002143427Y0002136356D01*
X0002113954Y0002136356D01*
X0002112677Y0002137674D01*
X0002095908Y0002162628D01*
X0002083824Y0002190157D01*
X0002077827Y0002215137D01*
X0002093227Y0002215137D01*
X0002115792Y0002159607D01*
X0002116939Y0002157891D01*
X0002136356Y0002143427D01*
X0002237023Y0002244094D01*
X0002251165Y0002244094D01*
X0002351832Y0002143427D01*
X0002361448Y0002150590D01*
X0002608072Y0002150590D01*
X0002612432Y0002128669D01*
X0002624850Y0002110086D01*
X0002643433Y0002097669D01*
X0002659821Y0002094409D01*
X0002670887Y0002094409D01*
X0002687275Y0002097669D01*
X0002705858Y0002110086D01*
X0002715354Y0002124297D01*
X0002724850Y0002110086D01*
X0002743433Y0002097669D01*
X0002759821Y0002094409D01*
X0002770887Y0002094409D01*
X0002787275Y0002097669D01*
X0002805858Y0002110086D01*
X0002815354Y0002124297D01*
X0002824850Y0002110086D01*
X0002843433Y0002097669D01*
X0002859821Y0002094409D01*
X0002870887Y0002094409D01*
X0002887275Y0002097669D01*
X0002905858Y0002110086D01*
X0002915354Y0002124297D01*
X0002924850Y0002110086D01*
X0002943433Y0002097669D01*
X0002959821Y0002094409D01*
X0002970887Y0002094409D01*
X0002987275Y0002097669D01*
X0003005858Y0002110086D01*
X0003015354Y0002124297D01*
X0003024850Y0002110086D01*
X0003043433Y0002097669D01*
X0003059821Y0002094409D01*
X0003070887Y0002094409D01*
X0003087275Y0002097669D01*
X0003105858Y0002110086D01*
X0003115354Y0002124297D01*
X0003124850Y0002110086D01*
X0003143433Y0002097669D01*
X0003159821Y0002094409D01*
X0003170887Y0002094409D01*
X0003187275Y0002097669D01*
X0003205858Y0002110086D01*
X0003215354Y0002124297D01*
X0003224850Y0002110086D01*
X0003243433Y0002097669D01*
X0003259821Y0002094409D01*
X0003270887Y0002094409D01*
X0003287275Y0002097669D01*
X0003305858Y0002110086D01*
X0003315354Y0002124297D01*
X0003324850Y0002110086D01*
X0003343433Y0002097669D01*
X0003359821Y0002094409D01*
X0003370887Y0002094409D01*
X0003387275Y0002097669D01*
X0003405858Y0002110086D01*
X0003418275Y0002128669D01*
X0003419804Y0002136356D01*
X0003639490Y0002136356D01*
X0003653954Y0002116939D01*
X0003709176Y0002093629D01*
X0003769114Y0002093227D01*
X0003824644Y0002115792D01*
X0003826360Y0002116939D01*
X0003840824Y0002136356D01*
X0003740157Y0002237023D01*
X0003639490Y0002136356D01*
X0003419804Y0002136356D01*
X0003422636Y0002150590D01*
X0003418275Y0002172511D01*
X0003405858Y0002191094D01*
X0003387275Y0002203511D01*
X0003370887Y0002206771D01*
X0003359821Y0002206771D01*
X0003343433Y0002203511D01*
X0003324850Y0002191094D01*
X0003315354Y0002176883D01*
X0003305858Y0002191094D01*
X0003287275Y0002203511D01*
X0003270887Y0002206771D01*
X0003259821Y0002206771D01*
X0003243433Y0002203511D01*
X0003224850Y0002191094D01*
X0003215354Y0002176883D01*
X0003205858Y0002191094D01*
X0003187275Y0002203511D01*
X0003170887Y0002206771D01*
X0003159821Y0002206771D01*
X0003143433Y0002203511D01*
X0003124850Y0002191094D01*
X0003115354Y0002176883D01*
X0003105858Y0002191094D01*
X0003087275Y0002203511D01*
X0003070887Y0002206771D01*
X0003059821Y0002206771D01*
X0003043433Y0002203511D01*
X0003024850Y0002191094D01*
X0003015354Y0002176883D01*
X0003005858Y0002191094D01*
X0002987275Y0002203511D01*
X0002970887Y0002206771D01*
X0002959821Y0002206771D01*
X0002943433Y0002203511D01*
X0002924850Y0002191094D01*
X0002915354Y0002176883D01*
X0002905858Y0002191094D01*
X0002887275Y0002203511D01*
X0002870887Y0002206771D01*
X0002859821Y0002206771D01*
X0002843433Y0002203511D01*
X0002824850Y0002191094D01*
X0002815354Y0002176883D01*
X0002805858Y0002191094D01*
X0002787275Y0002203511D01*
X0002770887Y0002206771D01*
X0002759821Y0002206771D01*
X0002743433Y0002203511D01*
X0002724850Y0002191094D01*
X0002715354Y0002176883D01*
X0002705858Y0002191094D01*
X0002687275Y0002203511D01*
X0002670887Y0002206771D01*
X0002659821Y0002206771D01*
X0002643433Y0002203511D01*
X0002624850Y0002191094D01*
X0002612432Y0002172511D01*
X0002608072Y0002150590D01*
X0002361448Y0002150590D01*
X0002371249Y0002157891D01*
X0002394559Y0002213113D01*
X0002394572Y0002215137D01*
X0003589290Y0002215137D01*
X0003611855Y0002159607D01*
X0003613002Y0002157891D01*
X0003632419Y0002143427D01*
X0003733086Y0002244094D01*
X0003747228Y0002244094D01*
X0003847895Y0002143427D01*
X0003867312Y0002157891D01*
X0003890622Y0002213113D01*
X0003891024Y0002273051D01*
X0003868459Y0002328581D01*
X0003867312Y0002330297D01*
X0003847895Y0002344761D01*
X0003747228Y0002244094D01*
X0003733086Y0002244094D01*
X0003632419Y0002344761D01*
X0003613002Y0002330297D01*
X0003589692Y0002275075D01*
X0003589290Y0002215137D01*
X0002394572Y0002215137D01*
X0002394961Y0002273051D01*
X0002372396Y0002328581D01*
X0002371249Y0002330297D01*
X0002351832Y0002344761D01*
X0002251165Y0002244094D01*
X0002237023Y0002244094D01*
X0002136356Y0002344761D01*
X0002116939Y0002330297D01*
X0002093629Y0002275075D01*
X0002093227Y0002215137D01*
X0002077827Y0002215137D01*
X0002076754Y0002219604D01*
X0002074881Y0002245108D01*
X0002074881Y0002351832D01*
X0002143427Y0002351832D01*
X0002244094Y0002251165D01*
X0002344761Y0002351832D01*
X0003639490Y0002351832D01*
X0003740157Y0002251165D01*
X0003840824Y0002351832D01*
X0003826360Y0002371249D01*
X0003771138Y0002394559D01*
X0003711200Y0002394961D01*
X0003655670Y0002372396D01*
X0003653954Y0002371249D01*
X0003639490Y0002351832D01*
X0002344761Y0002351832D01*
X0002330297Y0002371249D01*
X0002275075Y0002394559D01*
X0002215137Y0002394961D01*
X0002159607Y0002372396D01*
X0002157891Y0002371249D01*
X0002143427Y0002351832D01*
X0002074881Y0002351832D01*
X0002074881Y0002535433D01*
X0002156417Y0002535433D01*
X0002156417Y0002442913D01*
X0002156797Y0002440999D01*
X0002157881Y0002439377D01*
X0002159503Y0002438293D01*
X0002161417Y0002437913D01*
X0002401574Y0002437913D01*
X0002403488Y0002438293D01*
X0002405110Y0002439377D01*
X0002406194Y0002440999D01*
X0002406574Y0002442913D01*
X0002406574Y0002535433D01*
X0002406194Y0002537346D01*
X0002405110Y0002538968D01*
X0002403488Y0002540052D01*
X0002401574Y0002540433D01*
X0002161417Y0002540433D01*
X0002159503Y0002540052D01*
X0002157881Y0002538968D01*
X0002156797Y0002537346D01*
X0002156417Y0002535433D01*
X0002074881Y0002535433D01*
X0002074881Y0003014546D01*
X0002277480Y0003014546D01*
X0002277480Y0003001201D01*
X0002282586Y0002988873D01*
X0002292022Y0002979437D01*
X0002304351Y0002974330D01*
X0002304416Y0002974330D01*
X0002308177Y0002965251D01*
X0002317613Y0002955815D01*
X0002329942Y0002950708D01*
X0002343286Y0002950708D01*
X0002355614Y0002955815D01*
X0002357566Y0002957766D01*
X0002359172Y0002953887D01*
X0002359172Y0002855181D01*
X0002358612Y0002852362D01*
X0002360833Y0002841194D01*
X0002360833Y0002841194D01*
X0002367159Y0002831727D01*
X0002369549Y0002830130D01*
X0002552086Y0002647593D01*
X0002552086Y0002554000D01*
X0002551525Y0002551181D01*
X0002553747Y0002540013D01*
X0002555093Y0002537999D01*
X0002560073Y0002530545D01*
X0002562463Y0002528949D01*
X0002580269Y0002511142D01*
X0002581866Y0002508752D01*
X0002591334Y0002502426D01*
X0002599683Y0002500765D01*
X0002599683Y0002500765D01*
X0002602502Y0002500205D01*
X0002605320Y0002500765D01*
X0002623420Y0002500765D01*
X0002612432Y0002484322D01*
X0002608072Y0002462401D01*
X0002612432Y0002440480D01*
X0002624850Y0002421897D01*
X0002643433Y0002409480D01*
X0002659821Y0002406220D01*
X0002670887Y0002406220D01*
X0002687275Y0002409480D01*
X0002705858Y0002421897D01*
X0002715354Y0002436108D01*
X0002724850Y0002421897D01*
X0002743433Y0002409480D01*
X0002759821Y0002406220D01*
X0002770887Y0002406220D01*
X0002787275Y0002409480D01*
X0002805858Y0002421897D01*
X0002815354Y0002436108D01*
X0002824850Y0002421897D01*
X0002843433Y0002409480D01*
X0002859821Y0002406220D01*
X0002870887Y0002406220D01*
X0002887275Y0002409480D01*
X0002905858Y0002421897D01*
X0002915354Y0002436108D01*
X0002924850Y0002421897D01*
X0002943433Y0002409480D01*
X0002959821Y0002406220D01*
X0002970887Y0002406220D01*
X0002987275Y0002409480D01*
X0003005858Y0002421897D01*
X0003015354Y0002436108D01*
X0003024850Y0002421897D01*
X0003043433Y0002409480D01*
X0003059821Y0002406220D01*
X0003070887Y0002406220D01*
X0003087275Y0002409480D01*
X0003105858Y0002421897D01*
X0003115354Y0002436108D01*
X0003124850Y0002421897D01*
X0003143433Y0002409480D01*
X0003159821Y0002406220D01*
X0003170887Y0002406220D01*
X0003187275Y0002409480D01*
X0003205858Y0002421897D01*
X0003215354Y0002436108D01*
X0003224850Y0002421897D01*
X0003243433Y0002409480D01*
X0003259821Y0002406220D01*
X0003270887Y0002406220D01*
X0003287275Y0002409480D01*
X0003305858Y0002421897D01*
X0003309421Y0002427228D01*
X0003310605Y0002421273D01*
X0003316061Y0002413108D01*
X0003324226Y0002407652D01*
X0003333858Y0002405736D01*
X0003396850Y0002405736D01*
X0003406482Y0002407652D01*
X0003414647Y0002413108D01*
X0003420103Y0002421273D01*
X0003422019Y0002430905D01*
X0003422019Y0002493897D01*
X0003420103Y0002503529D01*
X0003414647Y0002511694D01*
X0003406482Y0002517150D01*
X0003396850Y0002519066D01*
X0003333858Y0002519066D01*
X0003324226Y0002517150D01*
X0003316061Y0002511694D01*
X0003310605Y0002503529D01*
X0003309421Y0002497574D01*
X0003305858Y0002502905D01*
X0003298565Y0002507778D01*
X0003300023Y0002508752D01*
X0003301619Y0002511142D01*
X0003333206Y0002542728D01*
X0003335595Y0002544325D01*
X0003341921Y0002553792D01*
X0003343582Y0002562141D01*
X0003343582Y0002562141D01*
X0003344143Y0002564960D01*
X0003343582Y0002567779D01*
X0003343582Y0002581840D01*
X0003348503Y0002593721D01*
X0003348503Y0002607065D01*
X0003343397Y0002619394D01*
X0003333961Y0002628830D01*
X0003321632Y0002633937D01*
X0003308288Y0002633937D01*
X0003295959Y0002628830D01*
X0003286523Y0002619394D01*
X0003281417Y0002607065D01*
X0003281417Y0002593721D01*
X0003286338Y0002581840D01*
X0003286338Y0002576816D01*
X0003267532Y0002558009D01*
X0002614357Y0002558009D01*
X0002609330Y0002563036D01*
X0002609330Y0002576692D01*
X0002616908Y0002576692D01*
X0002629236Y0002581799D01*
X0002638672Y0002591235D01*
X0002643779Y0002603564D01*
X0002643779Y0002616908D01*
X0002638858Y0002628789D01*
X0002638858Y0002639563D01*
X0002681211Y0002597210D01*
X0002686132Y0002585329D01*
X0002695568Y0002575894D01*
X0002707896Y0002570787D01*
X0002721241Y0002570787D01*
X0002733569Y0002575894D01*
X0002743005Y0002585329D01*
X0002747174Y0002595393D01*
X0002779482Y0002595393D01*
X0002781950Y0002592926D01*
X0002786523Y0002581884D01*
X0002795959Y0002572448D01*
X0002808288Y0002567341D01*
X0002821632Y0002567341D01*
X0002833961Y0002572448D01*
X0002843397Y0002581884D01*
X0002848503Y0002594213D01*
X0002848503Y0002607557D01*
X0002843397Y0002619886D01*
X0002833961Y0002629321D01*
X0002821632Y0002634428D01*
X0002821403Y0002634428D01*
X0002813570Y0002642261D01*
X0002811973Y0002644651D01*
X0002802506Y0002650977D01*
X0002794157Y0002652637D01*
X0002794157Y0002652637D01*
X0002791338Y0002653198D01*
X0002788519Y0002652637D01*
X0002744139Y0002652637D01*
X0002473503Y0002923272D01*
X0002473503Y0003019640D01*
X0002501610Y0003047746D01*
X0002504610Y0003044746D01*
X0002506207Y0003042356D01*
X0002515675Y0003036030D01*
X0002524024Y0003034369D01*
X0002524024Y0003034369D01*
X0002526842Y0003033809D01*
X0002529661Y0003034369D01*
X0002826726Y0003034369D01*
X0002884763Y0002976332D01*
X0002884763Y0002624852D01*
X0002879842Y0002612971D01*
X0002879842Y0002599627D01*
X0002884949Y0002587298D01*
X0002894385Y0002577862D01*
X0002906713Y0002572755D01*
X0002920057Y0002572755D01*
X0002932386Y0002577862D01*
X0002941822Y0002587298D01*
X0002946929Y0002599627D01*
X0002946929Y0002612971D01*
X0002942007Y0002624852D01*
X0002942007Y0002946648D01*
X0002987125Y0002901530D01*
X0002987125Y0002884708D01*
X0002987125Y0002620915D01*
X0002982204Y0002609034D01*
X0002982204Y0002595690D01*
X0002987311Y0002583361D01*
X0002996747Y0002573925D01*
X0003009075Y0002568818D01*
X0003022420Y0002568818D01*
X0003034748Y0002573925D01*
X0003044184Y0002583361D01*
X0003049291Y0002595690D01*
X0003049291Y0002609034D01*
X0003044370Y0002620915D01*
X0003044370Y0002867908D01*
X0003089488Y0002822789D01*
X0003089488Y0002616978D01*
X0003084566Y0002605097D01*
X0003084566Y0002591753D01*
X0003089673Y0002579424D01*
X0003099109Y0002569988D01*
X0003111438Y0002564881D01*
X0003124782Y0002564881D01*
X0003137110Y0002569988D01*
X0003146546Y0002579424D01*
X0003151653Y0002591753D01*
X0003151653Y0002605097D01*
X0003146732Y0002616978D01*
X0003146732Y0002791136D01*
X0003185944Y0002751923D01*
X0003185944Y0002620915D01*
X0003181023Y0002609034D01*
X0003181023Y0002595690D01*
X0003186130Y0002583361D01*
X0003195566Y0002573925D01*
X0003207894Y0002568818D01*
X0003221239Y0002568818D01*
X0003233567Y0002573925D01*
X0003243003Y0002583361D01*
X0003248110Y0002595690D01*
X0003248110Y0002609034D01*
X0003243188Y0002620915D01*
X0003243188Y0002760960D01*
X0003243749Y0002763779D01*
X0003243188Y0002766598D01*
X0003243188Y0002766598D01*
X0003241528Y0002774947D01*
X0003238612Y0002779310D01*
X0003236798Y0002782025D01*
X0003236798Y0002782025D01*
X0003235202Y0002784414D01*
X0003232812Y0002786011D01*
X0002889160Y0003129663D01*
X0002887563Y0003132053D01*
X0002878095Y0003138379D01*
X0002869747Y0003140040D01*
X0002869746Y0003140040D01*
X0002866928Y0003140601D01*
X0002864109Y0003140040D01*
X0002620909Y0003140040D01*
X0002612783Y0003148166D01*
X0002611186Y0003150556D01*
X0002601718Y0003156882D01*
X0002593370Y0003158543D01*
X0002593369Y0003158543D01*
X0002590551Y0003159103D01*
X0002587732Y0003158543D01*
X0002583513Y0003158543D01*
X0002571632Y0003163464D01*
X0002558288Y0003163464D01*
X0002545959Y0003158357D01*
X0002536523Y0003148922D01*
X0002535575Y0003146631D01*
X0002525290Y0003142371D01*
X0002522188Y0003139269D01*
X0002512577Y0003143250D01*
X0002499233Y0003143250D01*
X0002486904Y0003138143D01*
X0002480338Y0003131576D01*
X0002469328Y0003136137D01*
X0002455984Y0003136137D01*
X0002443655Y0003131030D01*
X0002434219Y0003121594D01*
X0002429298Y0003109713D01*
X0002410887Y0003091303D01*
X0002408498Y0003089706D01*
X0002403853Y0003082755D01*
X0002401792Y0003082755D01*
X0002389463Y0003077649D01*
X0002380027Y0003068213D01*
X0002374920Y0003055884D01*
X0002374920Y0003042540D01*
X0002379842Y0003030659D01*
X0002379842Y0003005453D01*
X0002368794Y0003000877D01*
X0002366842Y0002998926D01*
X0002365050Y0003003252D01*
X0002355614Y0003012688D01*
X0002343286Y0003017795D01*
X0002343221Y0003017795D01*
X0002339460Y0003026874D01*
X0002330024Y0003036310D01*
X0002317695Y0003041417D01*
X0002304351Y0003041417D01*
X0002292022Y0003036310D01*
X0002282586Y0003026874D01*
X0002277480Y0003014546D01*
X0002074881Y0003014546D01*
X0002074881Y0003360629D01*
X0002472207Y0003360629D01*
X0002476720Y0003337941D01*
X0002489572Y0003318706D01*
X0002501659Y0003310629D01*
X0002489572Y0003302553D01*
X0002476720Y0003283318D01*
X0002472207Y0003260629D01*
X0002476720Y0003237941D01*
X0002489572Y0003218706D01*
X0002508807Y0003205854D01*
X0002525768Y0003202480D01*
X0002537223Y0003202480D01*
X0002554184Y0003205854D01*
X0002573419Y0003218706D01*
X0002581496Y0003230793D01*
X0002589572Y0003218706D01*
X0002608807Y0003205854D01*
X0002625768Y0003202480D01*
X0002637223Y0003202480D01*
X0002654184Y0003205854D01*
X0002673419Y0003218706D01*
X0002681649Y0003231023D01*
X0003153383Y0003231023D01*
X0003156299Y0003230443D01*
X0003159214Y0003231023D01*
X0003159215Y0003231023D01*
X0003167851Y0003232741D01*
X0003177151Y0003238955D01*
X0003192834Y0003238955D01*
X0003192834Y0003225611D01*
X0003197941Y0003213282D01*
X0003207377Y0003203846D01*
X0003219705Y0003198740D01*
X0003233050Y0003198740D01*
X0003245378Y0003203846D01*
X0003254814Y0003213282D01*
X0003259921Y0003225611D01*
X0003259921Y0003238955D01*
X0003254814Y0003251284D01*
X0003245378Y0003260720D01*
X0003233050Y0003265826D01*
X0003219705Y0003265826D01*
X0003207377Y0003260720D01*
X0003197941Y0003251284D01*
X0003192834Y0003238955D01*
X0003177151Y0003238955D01*
X0003177644Y0003239285D01*
X0003179295Y0003241757D01*
X0003287055Y0003349516D01*
X0003296559Y0003353453D01*
X0003305995Y0003362889D01*
X0003311102Y0003375217D01*
X0003311102Y0003388561D01*
X0003305995Y0003400890D01*
X0003296559Y0003410326D01*
X0003284231Y0003415433D01*
X0003270886Y0003415433D01*
X0003258558Y0003410326D01*
X0003249122Y0003400890D01*
X0003245185Y0003391385D01*
X0003144035Y0003290236D01*
X0002681649Y0003290236D01*
X0002673419Y0003302553D01*
X0002660448Y0003311220D01*
X0002666030Y0003313845D01*
X0002681305Y0003330621D01*
X0002687934Y0003346628D01*
X0002683233Y0003355629D01*
X0002636496Y0003355629D01*
X0002636496Y0003354842D01*
X0002626496Y0003354842D01*
X0002626496Y0003355629D01*
X0002625708Y0003355629D01*
X0002625708Y0003365629D01*
X0002626496Y0003365629D01*
X0002626496Y0003366417D01*
X0002636496Y0003366417D01*
X0002636496Y0003365629D01*
X0002683233Y0003365629D01*
X0002687934Y0003374631D01*
X0002681305Y0003390637D01*
X0002666030Y0003407414D01*
X0002660448Y0003410039D01*
X0002673419Y0003418706D01*
X0002686271Y0003437941D01*
X0002690784Y0003460629D01*
X0002686271Y0003483318D01*
X0002673419Y0003502553D01*
X0002671096Y0003504105D01*
X0003117047Y0003504105D01*
X0003117047Y0003488020D01*
X0003123202Y0003473159D01*
X0003134576Y0003461785D01*
X0003149437Y0003455629D01*
X0003152850Y0003455629D01*
X0003158635Y0003441663D01*
X0003170009Y0003430289D01*
X0003184870Y0003424133D01*
X0003200956Y0003424133D01*
X0003215816Y0003430289D01*
X0003227190Y0003441663D01*
X0003233346Y0003456524D01*
X0003233346Y0003472609D01*
X0003227190Y0003487470D01*
X0003215816Y0003498844D01*
X0003200956Y0003505000D01*
X0003197542Y0003505000D01*
X0003191757Y0003518966D01*
X0003180383Y0003530340D01*
X0003165522Y0003536496D01*
X0003149437Y0003536496D01*
X0003134576Y0003530340D01*
X0003123202Y0003518966D01*
X0003117047Y0003504105D01*
X0002671096Y0003504105D01*
X0002654184Y0003515405D01*
X0002637223Y0003518779D01*
X0002625768Y0003518779D01*
X0002608807Y0003515405D01*
X0002589572Y0003502553D01*
X0002588704Y0003501255D01*
X0002588213Y0003503726D01*
X0002582757Y0003511891D01*
X0002574592Y0003517347D01*
X0002564960Y0003519263D01*
X0002498031Y0003519263D01*
X0002488399Y0003517347D01*
X0002480234Y0003511891D01*
X0002474778Y0003503726D01*
X0002472862Y0003494094D01*
X0002472862Y0003427165D01*
X0002474778Y0003417533D01*
X0002480234Y0003409368D01*
X0002488399Y0003403912D01*
X0002490870Y0003403421D01*
X0002489572Y0003402553D01*
X0002476720Y0003383318D01*
X0002472207Y0003360629D01*
X0002074881Y0003360629D01*
X0002074881Y0003632419D01*
X0002143427Y0003632419D01*
X0002157891Y0003613002D01*
X0002213113Y0003589692D01*
X0002273051Y0003589290D01*
X0002328581Y0003611855D01*
X0002330297Y0003613002D01*
X0002344761Y0003632419D01*
X0003639490Y0003632419D01*
X0003653954Y0003613002D01*
X0003709176Y0003589692D01*
X0003769114Y0003589290D01*
X0003824644Y0003611855D01*
X0003826360Y0003613002D01*
X0003840824Y0003632419D01*
X0003740157Y0003733086D01*
X0003639490Y0003632419D01*
X0002344761Y0003632419D01*
X0002244094Y0003733086D01*
X0002143427Y0003632419D01*
X0002074881Y0003632419D01*
X0002074881Y0003711200D01*
X0002093227Y0003711200D01*
X0002115792Y0003655670D01*
X0002116939Y0003653954D01*
X0002136356Y0003639490D01*
X0002237023Y0003740157D01*
X0002251165Y0003740157D01*
X0002351832Y0003639490D01*
X0002371249Y0003653954D01*
X0002394559Y0003709176D01*
X0002394572Y0003711200D01*
X0003589290Y0003711200D01*
X0003611855Y0003655670D01*
X0003613002Y0003653954D01*
X0003632419Y0003639490D01*
X0003733086Y0003740157D01*
X0003747228Y0003740157D01*
X0003847895Y0003639490D01*
X0003867312Y0003653954D01*
X0003890622Y0003709176D01*
X0003891024Y0003769114D01*
X0003868459Y0003824644D01*
X0003867312Y0003826360D01*
X0003847895Y0003840824D01*
X0003747228Y0003740157D01*
X0003733086Y0003740157D01*
X0003632419Y0003840824D01*
X0003613002Y0003826360D01*
X0003589692Y0003771138D01*
X0003589290Y0003711200D01*
X0002394572Y0003711200D01*
X0002394961Y0003769114D01*
X0002381060Y0003803322D01*
X0002884763Y0003803322D01*
X0002884763Y0003788803D01*
X0002890319Y0003775389D01*
X0002900586Y0003765123D01*
X0002914000Y0003759566D01*
X0002928519Y0003759566D01*
X0002941933Y0003765123D01*
X0002952199Y0003775389D01*
X0002957755Y0003788803D01*
X0002957755Y0003803322D01*
X0003042244Y0003803322D01*
X0003042244Y0003788803D01*
X0003047800Y0003775389D01*
X0003058066Y0003765123D01*
X0003071480Y0003759566D01*
X0003085999Y0003759566D01*
X0003099413Y0003765123D01*
X0003109680Y0003775389D01*
X0003115236Y0003788803D01*
X0003115236Y0003803322D01*
X0003109680Y0003816736D01*
X0003099413Y0003827002D01*
X0003085999Y0003832559D01*
X0003071480Y0003832559D01*
X0003058066Y0003827002D01*
X0003047800Y0003816736D01*
X0003042244Y0003803322D01*
X0002957755Y0003803322D01*
X0002952199Y0003816736D01*
X0002941933Y0003827002D01*
X0002928519Y0003832559D01*
X0002914000Y0003832559D01*
X0002900586Y0003827002D01*
X0002890319Y0003816736D01*
X0002884763Y0003803322D01*
X0002381060Y0003803322D01*
X0002372396Y0003824644D01*
X0002371249Y0003826360D01*
X0002351832Y0003840824D01*
X0002251165Y0003740157D01*
X0002237023Y0003740157D01*
X0002136356Y0003840824D01*
X0002116939Y0003826360D01*
X0002093629Y0003771138D01*
X0002093227Y0003711200D01*
X0002074881Y0003711200D01*
X0002074881Y0003738926D01*
X0002077664Y0003770103D01*
X0002085597Y0003799101D01*
X0002098540Y0003826237D01*
X0002114103Y0003847895D01*
X0002143427Y0003847895D01*
X0002244094Y0003747228D01*
X0002344761Y0003847895D01*
X0003639490Y0003847895D01*
X0003740157Y0003747228D01*
X0003840824Y0003847895D01*
X0003826360Y0003867312D01*
X0003771138Y0003890622D01*
X0003711200Y0003891024D01*
X0003655670Y0003868459D01*
X0003653954Y0003867312D01*
X0003639490Y0003847895D01*
X0002344761Y0003847895D01*
X0002330297Y0003867312D01*
X0002275075Y0003890622D01*
X0002215137Y0003891024D01*
X0002159607Y0003868459D01*
X0002157891Y0003867312D01*
X0002143427Y0003847895D01*
X0002114103Y0003847895D01*
X0002116084Y0003850652D01*
X0002137674Y0003871574D01*
X0002162628Y0003888343D01*
X0002190157Y0003900427D01*
X0002219604Y0003907497D01*
X0002245108Y0003909370D01*
X0003738926Y0003909370D01*
X0003770103Y0003906587D01*
G04 #@! TD*
G04 next file*
G04 #@! TF.GenerationSoftware,KiCad,Pcbnew,(5.0.2)-1*
G04 #@! TF.CreationDate,2019-01-06T11:57:03+11:00*
G04 #@! TF.ProjectId,MAX2870_Dev_Rev_0,4d415832-3837-4305-9f44-65765f526576,rev?*
G04 #@! TF.SameCoordinates,Original*
G04 #@! TF.FileFunction,Copper,L4,Bot*
G04 #@! TF.FilePolarity,Positive*
G04 Gerber Fmt 4.6, Leading zero omitted, Abs format (unit mm)*
G04 Created by KiCad (PCBNEW (5.0.2)-1) date 6/01/2019 11:57:03*
G01*
G04 APERTURE LIST*
G04 #@! TA.AperFunction,SMDPad,CuDef*
G04 #@! TD*
G04 #@! TA.AperFunction,ViaPad*
G04 #@! TD*
G04 #@! TA.AperFunction,ComponentPad*
G04 #@! TD*
G04 #@! TA.AperFunction,ComponentPad*
G04 #@! TD*
G04 #@! TA.AperFunction,ComponentPad*
G04 #@! TD*
G04 #@! TA.AperFunction,ComponentPad*
G04 #@! TD*
G04 #@! TA.AperFunction,ViaPad*
G04 #@! TD*
G04 #@! TA.AperFunction,ViaPad*
G04 #@! TD*
G04 #@! TA.AperFunction,Conductor*
G04 #@! TD*
G04 #@! TA.AperFunction,Conductor*
G04 #@! TD*
G04 #@! TA.AperFunction,Conductor*
G04 #@! TD*
G04 #@! TA.AperFunction,Conductor*
G04 #@! TD*
G04 APERTURE END LIST*
G04 #@! TO.C,REF\002A\002A*
D52*
X0000586051Y0002225253D02*
X0000586051Y0002185883D01*
X0000571990Y0002247750D02*
X0000557930Y0002205568D01*
X0000594488Y0002205568D01*
G04 #@! TD*
D53*
G04 #@! TO.P,J2,2*
G04 #@! TO.N,GND*
X0001803149Y0003146653D03*
X0001803149Y0002924212D03*
G04 #@! TD*
D54*
G04 #@! TO.N,GND*
G04 #@! TO.C,U3*
X0001093996Y0003002460D03*
X0001093996Y0003041830D03*
X0001093996Y0003081200D03*
X0001133366Y0003002460D03*
X0001133366Y0003041830D03*
X0001133366Y0003081200D03*
X0001172736Y0003002460D03*
X0001172736Y0003041830D03*
X0001172736Y0003081200D03*
G04 #@! TD*
D55*
G04 #@! TO.P,H1,1*
G04 #@! TO.N,GND*
X0000263663Y0003806970D03*
X0000196850Y0003834645D03*
X0000130037Y0003806970D03*
X0000102362Y0003740157D03*
X0000130037Y0003673344D03*
X0000196850Y0003645669D03*
X0000263663Y0003673344D03*
X0000291338Y0003740157D03*
D56*
X0000196850Y0003740157D03*
G04 #@! TD*
G04 #@! TO.P,H2,1*
G04 #@! TO.N,GND*
X0000196850Y0002244094D03*
D55*
X0000291338Y0002244094D03*
X0000263663Y0002177281D03*
X0000196850Y0002149606D03*
X0000130037Y0002177281D03*
X0000102362Y0002244094D03*
X0000130037Y0002310907D03*
X0000196850Y0002338582D03*
X0000263663Y0002310907D03*
G04 #@! TD*
G04 #@! TO.P,H3,1*
G04 #@! TO.N,GND*
X0001759726Y0002310907D03*
X0001692913Y0002338582D03*
X0001626100Y0002310907D03*
X0001598425Y0002244094D03*
X0001626100Y0002177281D03*
X0001692913Y0002149606D03*
X0001759726Y0002177281D03*
X0001787401Y0002244094D03*
D56*
X0001692913Y0002244094D03*
G04 #@! TD*
G04 #@! TO.P,H4,1*
G04 #@! TO.N,GND*
X0001692913Y0003740157D03*
D55*
X0001787401Y0003740157D03*
X0001759726Y0003673344D03*
X0001692913Y0003645669D03*
X0001626100Y0003673344D03*
X0001598425Y0003740157D03*
X0001626100Y0003806970D03*
X0001692913Y0003834645D03*
X0001759726Y0003806970D03*
G04 #@! TD*
D57*
G04 #@! TO.P,J1,1*
G04 #@! TO.N,+5V*
X0000251181Y0003231496D03*
D58*
G04 #@! TO.P,J1,2*
G04 #@! TO.N,GND*
X0000351181Y0003231496D03*
G04 #@! TO.P,J1,3*
G04 #@! TO.N,/CE*
X0000251181Y0003131496D03*
G04 #@! TO.P,J1,4*
G04 #@! TO.N,/LD*
X0000351181Y0003131496D03*
G04 #@! TO.P,J1,5*
G04 #@! TO.N,/LE*
X0000251181Y0003031496D03*
G04 #@! TO.P,J1,6*
G04 #@! TO.N,/RFOUT_EN*
X0000351181Y0003031496D03*
G04 #@! TO.P,J1,7*
G04 #@! TO.N,/DATA*
X0000251181Y0002931496D03*
G04 #@! TO.P,J1,8*
G04 #@! TO.N,/MUX_OUT*
X0000351181Y0002931496D03*
G04 #@! TO.P,J1,9*
G04 #@! TO.N,/CLK*
X0000251181Y0002831496D03*
G04 #@! TO.P,J1,10*
G04 #@! TO.N,Net-(J1-Pad10)*
X0000351181Y0002831496D03*
G04 #@! TD*
D59*
G04 #@! TO.N,GND*
X0001496062Y0002947834D03*
X0001539370Y0003105314D03*
X0001250000Y0002817913D03*
X0001304133Y0002776574D03*
D60*
X0001297244Y0003284251D03*
X0001340157Y0003283464D03*
X0001246850Y0003284645D03*
X0001203937Y0003284251D03*
X0001114960Y0003342125D03*
X0001121653Y0003242913D03*
X0001076377Y0003260629D03*
X0001033858Y0003260629D03*
D59*
X0000765354Y0002974015D03*
D60*
X0000647637Y0003154330D03*
D59*
X0000618503Y0003235039D03*
D60*
X0000707874Y0003309055D03*
X0000580708Y0002960236D03*
X0000928346Y0002906299D03*
X0000972047Y0002906299D03*
D59*
X0000177165Y0003425196D03*
X0000435826Y0002513385D03*
X0000534251Y0002628740D03*
X0000610236Y0002683858D03*
D60*
X0000966535Y0003129607D03*
X0000923622Y0003129607D03*
X0001637795Y0003068897D03*
X0001614173Y0003068897D03*
X0001590551Y0003068897D03*
X0001566929Y0003068897D03*
X0001637795Y0002996062D03*
X0001614173Y0002996062D03*
X0001590551Y0002996062D03*
X0001566929Y0002996062D03*
X0001543307Y0002996062D03*
X0001519685Y0002996062D03*
X0001496062Y0002996062D03*
X0001472440Y0002996062D03*
X0001448818Y0002996062D03*
X0001425196Y0002996062D03*
X0001543307Y0003068897D03*
X0001519685Y0003068897D03*
X0001496062Y0003068897D03*
X0001472440Y0003068897D03*
X0001448818Y0003068897D03*
D59*
X0001321850Y0002923228D03*
X0001279527Y0002923228D03*
D60*
X0001062992Y0002845472D03*
X0001062992Y0002886811D03*
X0001728346Y0003068897D03*
X0001681102Y0003068897D03*
X0001657480Y0003068897D03*
X0001704724Y0003068897D03*
X0001704724Y0002996062D03*
X0001681102Y0002996062D03*
X0001657480Y0002996062D03*
X0001728346Y0002996062D03*
X0001744094Y0003129921D03*
X0001726377Y0003129921D03*
X0001779527Y0003129921D03*
X0001761811Y0003129921D03*
X0001797244Y0003129921D03*
X0001814960Y0003129921D03*
X0001832677Y0003129921D03*
X0001850393Y0003129921D03*
X0001868110Y0003129921D03*
X0001872047Y0002940944D03*
X0001765747Y0002940944D03*
X0001801181Y0002940944D03*
X0001836614Y0002940944D03*
X0001783464Y0002940944D03*
X0001818897Y0002940944D03*
X0001854330Y0002940944D03*
X0001748031Y0002940944D03*
X0001730314Y0002940944D03*
D59*
X0001850393Y0002834645D03*
X0001850393Y0003228346D03*
X0001811023Y0003228346D03*
X0001771653Y0003228346D03*
X0001732283Y0003228346D03*
X0001692913Y0003228346D03*
X0001692913Y0003188976D03*
X0001692913Y0003149606D03*
X0001692913Y0003110236D03*
X0001653543Y0003110236D03*
X0001614173Y0003110236D03*
X0001574803Y0003110236D03*
X0001535433Y0002952755D03*
X0001574803Y0002952755D03*
X0001614173Y0002952755D03*
X0001653543Y0002952755D03*
X0001692913Y0002952755D03*
X0001692913Y0002913385D03*
X0001692913Y0002874015D03*
X0001692913Y0002834645D03*
X0001732283Y0002834645D03*
X0001771653Y0002834645D03*
X0001811023Y0002834645D03*
X0000354330Y0003681102D03*
X0000551181Y0003681102D03*
X0000748031Y0003681102D03*
X0000944881Y0003681102D03*
X0001141732Y0003681102D03*
X0001338582Y0003681102D03*
X0001535433Y0003681102D03*
X0001535433Y0003484251D03*
X0001535433Y0003287401D03*
X0001437007Y0003385826D03*
X0001437007Y0003582677D03*
X0001338582Y0003484251D03*
X0001240157Y0003582677D03*
X0001141732Y0003484251D03*
X0001043307Y0003582677D03*
X0000944881Y0003484251D03*
X0001043307Y0003385826D03*
X0000944881Y0003287401D03*
X0000846456Y0003385826D03*
X0000649606Y0003385826D03*
X0000846456Y0003188976D03*
X0000452755Y0003188976D03*
X0001633858Y0003582677D03*
X0001732283Y0003287401D03*
X0001732283Y0003484251D03*
X0001633858Y0003385826D03*
X0001633858Y0003188976D03*
X0000157480Y0002500000D03*
X0000255905Y0002598425D03*
X0000354330Y0002500000D03*
X0000255905Y0002401574D03*
X0000354330Y0002303149D03*
X0000944881Y0002500000D03*
X0000944881Y0002303149D03*
X0001043307Y0002401574D03*
X0001043307Y0002598425D03*
X0001141732Y0002500000D03*
X0001240157Y0002401574D03*
X0001437007Y0002401574D03*
X0001633858Y0002401574D03*
X0001732283Y0002500000D03*
X0001732283Y0002696850D03*
X0001633858Y0002795275D03*
X0001535433Y0002696850D03*
X0001535433Y0002500000D03*
X0001633858Y0002598425D03*
X0001437007Y0002598425D03*
X0001240157Y0002598425D03*
X0001338582Y0002500000D03*
X0000748031Y0002303149D03*
X0000846456Y0002598425D03*
X0000551181Y0002893700D03*
X0000452755Y0002893700D03*
X0000452755Y0002992125D03*
X0000748031Y0002893700D03*
X0000649606Y0002893700D03*
X0001240157Y0003385826D03*
X0001633858Y0002893700D03*
X0001437007Y0002795275D03*
X0001338582Y0002696850D03*
X0001141732Y0002696850D03*
X0000846456Y0002401574D03*
X0000354330Y0002696850D03*
X0000452755Y0002598425D03*
X0000551181Y0002696850D03*
X0000944881Y0002696850D03*
X0001141732Y0002303149D03*
X0001338582Y0002303149D03*
X0001437007Y0002204724D03*
X0001240157Y0002204724D03*
X0001043307Y0002204724D03*
X0000846456Y0002204724D03*
X0000649606Y0002204724D03*
X0000551181Y0002303149D03*
X0000551181Y0002303149D03*
X0000551181Y0002303149D03*
X0001732283Y0002795275D03*
X0000748031Y0003287401D03*
X0001535433Y0002893700D03*
X0000649606Y0002401574D03*
X0000456692Y0003433070D03*
X0000649606Y0003582677D03*
X0000748031Y0003484251D03*
X0000846456Y0003582677D03*
X0000157480Y0003582677D03*
X0000452755Y0003582677D03*
X0000551181Y0003484251D03*
X0000551181Y0003287401D03*
G04 #@! TO.N,+3V3*
X0000875196Y0002973228D03*
X0000874803Y0003061023D03*
G04 #@! TO.N,+3.3VA*
X0001416929Y0003167716D03*
X0001416141Y0003124409D03*
X0001486220Y0003216929D03*
X0000740944Y0003240551D03*
X0001386220Y0002915354D03*
X0001453937Y0002866535D03*
X0000492125Y0003500000D03*
X0000456692Y0003535433D03*
X0000492125Y0003535433D03*
D60*
G04 #@! TO.N,Net-(C24-Pad2)*
X0001158267Y0003342125D03*
X0001206692Y0002890157D03*
G04 #@! TO.N,/LD*
X0001014173Y0003111811D03*
G04 #@! TO.N,/MUX_OUT*
X0001010629Y0003012598D03*
G04 #@! TO.N,/RFOUT_EN*
X0001016268Y0003089191D03*
G04 #@! TO.N,/CE*
X0001124840Y0002923174D03*
G04 #@! TO.N,/LE*
X0001102145Y0002922176D03*
G04 #@! TO.N,/DATA*
X0001079428Y0002922244D03*
G04 #@! TO.N,/CLK*
X0001048228Y0002947834D03*
G04 #@! TO.N,Net-(R4-Pad1)*
X0001199803Y0002776574D03*
X0001146082Y0002915122D03*
G04 #@! TD*
D61*
G04 #@! TO.N,+3V3*
X0000874803Y0002973622D02*
X0000875196Y0002973228D01*
X0000874803Y0003061023D02*
X0000874803Y0002973622D01*
D62*
G04 #@! TO.N,Net-(C24-Pad2)*
X0001223228Y0002906692D02*
X0001206692Y0002890157D01*
X0001223228Y0003213385D02*
X0001223228Y0002906692D01*
X0001222716Y0003213897D02*
X0001223228Y0003213385D01*
X0001222716Y0003293425D02*
X0001222716Y0003213897D01*
X0001158267Y0003342125D02*
X0001174015Y0003342125D01*
X0001174015Y0003342125D02*
X0001222716Y0003293425D01*
D63*
G04 #@! TO.N,/LD*
X0001001645Y0003111811D02*
X0001014173Y0003111811D01*
X0000422440Y0003111811D02*
X0001001645Y0003111811D01*
X0000351181Y0003131496D02*
X0000402755Y0003131496D01*
X0000402755Y0003131496D02*
X0000422440Y0003111811D01*
D62*
G04 #@! TO.N,/MUX_OUT*
X0000351574Y0002931102D02*
X0000351181Y0002931496D01*
X0000898818Y0002931102D02*
X0000351574Y0002931102D01*
X0001010629Y0003012598D02*
X0000980314Y0003012598D01*
X0000980314Y0003012598D02*
X0000898818Y0002931102D01*
D63*
G04 #@! TO.N,/RFOUT_EN*
X0001003740Y0003089191D02*
X0001016268Y0003089191D01*
X0000451002Y0003089191D02*
X0001003740Y0003089191D01*
X0000351181Y0003031496D02*
X0000393307Y0003031496D01*
X0000393307Y0003031496D02*
X0000451002Y0003089191D01*
D62*
G04 #@! TO.N,/CE*
X0001124840Y0002910646D02*
X0001124840Y0002923174D01*
X0000251181Y0003131496D02*
X0000161417Y0003041732D01*
X0000161417Y0002789370D02*
X0000208661Y0002742125D01*
X0001028543Y0002742125D02*
X0001124840Y0002838422D01*
X0000161417Y0003041732D02*
X0000161417Y0002789370D01*
X0000208661Y0002742125D02*
X0001028543Y0002742125D01*
X0001124840Y0002838422D02*
X0001124840Y0002910646D01*
D63*
G04 #@! TO.N,/LE*
X0001102145Y0002920027D02*
X0001102145Y0002922176D01*
X0001103149Y0002919023D02*
X0001102145Y0002920027D01*
D62*
X0000183070Y0002963385D02*
X0000183070Y0002795275D01*
X0000251181Y0003031496D02*
X0000183070Y0002963385D01*
X0000183070Y0002795275D02*
X0000214566Y0002763779D01*
X0000214566Y0002763779D02*
X0001024606Y0002763779D01*
X0001024606Y0002763779D02*
X0001102145Y0002841318D01*
X0001102145Y0002909649D02*
X0001102145Y0002922176D01*
X0001102145Y0002841318D02*
X0001102145Y0002909649D01*
G04 #@! TO.N,/DATA*
X0001066900Y0002922244D02*
X0001079428Y0002922244D01*
X0000202755Y0002883070D02*
X0000202755Y0002803149D01*
X0000251181Y0002931496D02*
X0000202755Y0002883070D01*
X0000202755Y0002803149D02*
X0000222440Y0002783464D01*
X0000222440Y0002783464D02*
X0000927952Y0002783464D01*
X0000927952Y0002783464D02*
X0001066733Y0002922244D01*
X0001066733Y0002922244D02*
X0001066900Y0002922244D01*
G04 #@! TO.N,/CLK*
X0000301574Y0002881889D02*
X0000251181Y0002831496D01*
X0000381889Y0002881889D02*
X0000301574Y0002881889D01*
X0000411417Y0002852362D02*
X0000381889Y0002881889D01*
X0001048228Y0002947834D02*
X0000952755Y0002852362D01*
X0000952755Y0002852362D02*
X0000411417Y0002852362D01*
D63*
G04 #@! TO.N,Net-(R4-Pad1)*
X0001146082Y0002902594D02*
X0001146082Y0002915122D01*
X0001146082Y0002830295D02*
X0001146082Y0002902594D01*
X0001199803Y0002776574D02*
X0001146082Y0002830295D01*
G04 #@! TD*
D64*
G04 #@! TO.N,GND*
G36*
X0001722802Y0003906276D02*
X0001751747Y0003898358D01*
X0001778832Y0003885439D01*
X0001803202Y0003867928D01*
X0001824085Y0003846378D01*
X0001840822Y0003821470D01*
X0001852883Y0003793993D01*
X0001859940Y0003764599D01*
X0001861811Y0003739132D01*
X0001861811Y0002245339D01*
X0001859032Y0002214205D01*
X0001851113Y0002185260D01*
X0001838194Y0002158175D01*
X0001820684Y0002133805D01*
X0001799134Y0002112922D01*
X0001774226Y0002096185D01*
X0001746749Y0002084123D01*
X0001717355Y0002077066D01*
X0001691888Y0002075196D01*
X0000198095Y0002075196D01*
X0000166960Y0002077975D01*
X0000138016Y0002085893D01*
X0000110930Y0002098812D01*
X0000086561Y0002116323D01*
X0000067315Y0002136184D01*
X0000096011Y0002136184D01*
X0000110458Y0002116679D01*
X0000165794Y0002093317D01*
X0000225857Y0002092909D01*
X0000281505Y0002115518D01*
X0000283242Y0002116679D01*
X0000297689Y0002136184D01*
X0001592074Y0002136184D01*
X0001606521Y0002116679D01*
X0001661857Y0002093317D01*
X0001721920Y0002092909D01*
X0001777568Y0002115518D01*
X0001779305Y0002116679D01*
X0001793752Y0002136184D01*
X0001692913Y0002237023D01*
X0001592074Y0002136184D01*
X0000297689Y0002136184D01*
X0000196850Y0002237023D01*
X0000096011Y0002136184D01*
X0000067315Y0002136184D01*
X0000065678Y0002137873D01*
X0000048941Y0002162781D01*
X0000036879Y0002190258D01*
X0000030919Y0002215086D01*
X0000045665Y0002215086D01*
X0000068274Y0002159439D01*
X0000069435Y0002157702D01*
X0000088940Y0002143255D01*
X0000189779Y0002244094D01*
X0000203921Y0002244094D01*
X0000304760Y0002143255D01*
X0000324265Y0002157702D01*
X0000347627Y0002213038D01*
X0000347958Y0002261811D01*
X0000363110Y0002261811D01*
X0000363110Y0002173228D01*
X0000363490Y0002171314D01*
X0000364574Y0002169692D01*
X0000366196Y0002168608D01*
X0000368110Y0002168228D01*
X0000604330Y0002168228D01*
X0000606244Y0002168608D01*
X0000607866Y0002169692D01*
X0000608950Y0002171314D01*
X0000609330Y0002173228D01*
X0000609330Y0002215086D01*
X0001541728Y0002215086D01*
X0001564337Y0002159439D01*
X0001565498Y0002157702D01*
X0001585003Y0002143255D01*
X0001685842Y0002244094D01*
X0001699984Y0002244094D01*
X0001800823Y0002143255D01*
X0001820328Y0002157702D01*
X0001843690Y0002213038D01*
X0001844097Y0002273102D01*
X0001821488Y0002328749D01*
X0001820328Y0002330486D01*
X0001800823Y0002344933D01*
X0001699984Y0002244094D01*
X0001685842Y0002244094D01*
X0001585003Y0002344933D01*
X0001565498Y0002330486D01*
X0001542136Y0002275150D01*
X0001541728Y0002215086D01*
X0000609330Y0002215086D01*
X0000609330Y0002261811D01*
X0000608950Y0002263724D01*
X0000607866Y0002265346D01*
X0000606244Y0002266430D01*
X0000604330Y0002266811D01*
X0000368110Y0002266811D01*
X0000366196Y0002266430D01*
X0000364574Y0002265346D01*
X0000363490Y0002263724D01*
X0000363110Y0002261811D01*
X0000347958Y0002261811D01*
X0000348034Y0002273102D01*
X0000325425Y0002328749D01*
X0000324265Y0002330486D01*
X0000304760Y0002344933D01*
X0000203921Y0002244094D01*
X0000189779Y0002244094D01*
X0000088940Y0002344933D01*
X0000069435Y0002330486D01*
X0000046073Y0002275150D01*
X0000045665Y0002215086D01*
X0000030919Y0002215086D01*
X0000029822Y0002219652D01*
X0000027952Y0002245119D01*
X0000027952Y0002352004D01*
X0000096011Y0002352004D01*
X0000196850Y0002251165D01*
X0000297689Y0002352004D01*
X0001592074Y0002352004D01*
X0001692913Y0002251165D01*
X0001793752Y0002352004D01*
X0001779305Y0002371509D01*
X0001723969Y0002394871D01*
X0001663905Y0002395279D01*
X0001608258Y0002372670D01*
X0001606521Y0002371509D01*
X0001592074Y0002352004D01*
X0000297689Y0002352004D01*
X0000283242Y0002371509D01*
X0000227906Y0002394871D01*
X0000167842Y0002395279D01*
X0000112195Y0002372670D01*
X0000110458Y0002371509D01*
X0000096011Y0002352004D01*
X0000027952Y0002352004D01*
X0000027952Y0003041732D01*
X0000130909Y0003041732D01*
X0000131496Y0003038785D01*
X0000131496Y0002792317D01*
X0000130909Y0002789370D01*
X0000133232Y0002777695D01*
X0000136348Y0002773031D01*
X0000139845Y0002767798D01*
X0000142343Y0002766128D01*
X0000185420Y0002723052D01*
X0000187089Y0002720553D01*
X0000196986Y0002713940D01*
X0000205714Y0002712204D01*
X0000205714Y0002712204D01*
X0000208661Y0002711618D01*
X0000211608Y0002712204D01*
X0001025596Y0002712204D01*
X0001028543Y0002711618D01*
X0001031490Y0002712204D01*
X0001031490Y0002712204D01*
X0001040217Y0002713940D01*
X0001050115Y0002720553D01*
X0001051784Y0002723052D01*
X0001132093Y0002803361D01*
X0001166178Y0002769276D01*
X0001171099Y0002757395D01*
X0001180623Y0002747871D01*
X0001193068Y0002742716D01*
X0001206537Y0002742716D01*
X0001218982Y0002747871D01*
X0001228506Y0002757395D01*
X0001233661Y0002769839D01*
X0001233661Y0002783309D01*
X0001228506Y0002795753D01*
X0001218982Y0002805278D01*
X0001207101Y0002810199D01*
X0001175019Y0002842281D01*
X0001175019Y0002878148D01*
X0001177989Y0002870978D01*
X0001187513Y0002861453D01*
X0001199958Y0002856299D01*
X0001213427Y0002856299D01*
X0001225872Y0002861453D01*
X0001235396Y0002870978D01*
X0001239333Y0002880483D01*
X0001242301Y0002883451D01*
X0001244800Y0002885120D01*
X0001250426Y0002893541D01*
X0001251413Y0002895018D01*
X0001252353Y0002899745D01*
X0001253149Y0002903745D01*
X0001253149Y0002903746D01*
X0001253735Y0002906692D01*
X0001253149Y0002909639D01*
X0001253149Y0002923459D01*
X0001345472Y0002923459D01*
X0001345472Y0002907249D01*
X0001351675Y0002892272D01*
X0001363138Y0002880809D01*
X0001378115Y0002874606D01*
X0001394325Y0002874606D01*
X0001394408Y0002874640D01*
X0001413188Y0002874640D01*
X0001413188Y0002858430D01*
X0001419392Y0002843453D01*
X0001430855Y0002831990D01*
X0001445831Y0002825787D01*
X0001462042Y0002825787D01*
X0001477018Y0002831990D01*
X0001488481Y0002843453D01*
X0001494685Y0002858430D01*
X0001494685Y0002874640D01*
X0001488481Y0002889617D01*
X0001477018Y0002901079D01*
X0001462042Y0002907283D01*
X0001445831Y0002907283D01*
X0001430855Y0002901079D01*
X0001419392Y0002889617D01*
X0001413188Y0002874640D01*
X0001394408Y0002874640D01*
X0001409302Y0002880809D01*
X0001420764Y0002892272D01*
X0001426968Y0002907249D01*
X0001426968Y0002923459D01*
X0001420764Y0002938436D01*
X0001409302Y0002949898D01*
X0001394325Y0002956102D01*
X0001378115Y0002956102D01*
X0001363138Y0002949898D01*
X0001351675Y0002938436D01*
X0001345472Y0002923459D01*
X0001253149Y0002923459D01*
X0001253149Y0003132514D01*
X0001375393Y0003132514D01*
X0001375393Y0003116304D01*
X0001381597Y0003101327D01*
X0001393059Y0003089864D01*
X0001408036Y0003083661D01*
X0001424246Y0003083661D01*
X0001439223Y0003089864D01*
X0001450686Y0003101327D01*
X0001456889Y0003116304D01*
X0001456889Y0003132514D01*
X0001451671Y0003145112D01*
X0001457677Y0003159611D01*
X0001457677Y0003175821D01*
X0001451473Y0003190798D01*
X0001440011Y0003202261D01*
X0001425034Y0003208464D01*
X0001408823Y0003208464D01*
X0001393847Y0003202261D01*
X0001382384Y0003190798D01*
X0001376181Y0003175821D01*
X0001376181Y0003159611D01*
X0001381399Y0003147013D01*
X0001375393Y0003132514D01*
X0001253149Y0003132514D01*
X0001253149Y0003210439D01*
X0001253735Y0003213385D01*
X0001253149Y0003216332D01*
X0001253149Y0003216332D01*
X0001252637Y0003218905D01*
X0001252637Y0003225034D01*
X0001445472Y0003225034D01*
X0001445472Y0003208823D01*
X0001451675Y0003193847D01*
X0001463138Y0003182384D01*
X0001478115Y0003176181D01*
X0001494325Y0003176181D01*
X0001509302Y0003182384D01*
X0001520765Y0003193847D01*
X0001526968Y0003208823D01*
X0001526968Y0003225034D01*
X0001520765Y0003240011D01*
X0001509302Y0003251473D01*
X0001494325Y0003257677D01*
X0001478115Y0003257677D01*
X0001463138Y0003251473D01*
X0001451675Y0003240011D01*
X0001445472Y0003225034D01*
X0001252637Y0003225034D01*
X0001252637Y0003290478D01*
X0001253223Y0003293425D01*
X0001252637Y0003296371D01*
X0001252637Y0003296372D01*
X0001250901Y0003305099D01*
X0001244288Y0003314997D01*
X0001241790Y0003316666D01*
X0001197257Y0003361199D01*
X0001195587Y0003363697D01*
X0001185690Y0003370311D01*
X0001176962Y0003372047D01*
X0001176962Y0003372047D01*
X0001174015Y0003372633D01*
X0001173391Y0003372509D01*
X0001165002Y0003375984D01*
X0001151532Y0003375984D01*
X0001139088Y0003370829D01*
X0001129564Y0003361304D01*
X0001124409Y0003348860D01*
X0001124409Y0003335390D01*
X0001129564Y0003322946D01*
X0001139088Y0003313422D01*
X0001151532Y0003308267D01*
X0001165002Y0003308267D01*
X0001165396Y0003308430D01*
X0001192795Y0003281031D01*
X0001192795Y0003216844D01*
X0001192209Y0003213897D01*
X0001192795Y0003210950D01*
X0001193307Y0003208378D01*
X0001193307Y0002921260D01*
X0001187513Y0002918861D01*
X0001179940Y0002911287D01*
X0001179940Y0002921857D01*
X0001174785Y0002934301D01*
X0001165261Y0002943826D01*
X0001152817Y0002948980D01*
X0001146916Y0002948980D01*
X0001144019Y0002951878D01*
X0001131575Y0002957032D01*
X0001118105Y0002957032D01*
X0001112288Y0002954623D01*
X0001108879Y0002956035D01*
X0001095410Y0002956035D01*
X0001090868Y0002954154D01*
X0001086163Y0002956103D01*
X0001081451Y0002956103D01*
X0001076931Y0002967013D01*
X0001067407Y0002976538D01*
X0001054963Y0002981692D01*
X0001041493Y0002981692D01*
X0001029049Y0002976538D01*
X0001019524Y0002967013D01*
X0001015587Y0002957509D01*
X0000940362Y0002882283D01*
X0000423811Y0002882283D01*
X0000405131Y0002900963D01*
X0000404985Y0002901181D01*
X0000895872Y0002901181D01*
X0000898818Y0002900594D01*
X0000901765Y0002901181D01*
X0000901765Y0002901181D01*
X0000910493Y0002902917D01*
X0000920390Y0002909530D01*
X0000922060Y0002912028D01*
X0000992708Y0002982677D01*
X0000994390Y0002982677D01*
X0001003895Y0002978740D01*
X0001017364Y0002978740D01*
X0001029809Y0002983894D01*
X0001039333Y0002993419D01*
X0001044488Y0003005863D01*
X0001044488Y0003019333D01*
X0001039333Y0003031777D01*
X0001029809Y0003041302D01*
X0001017364Y0003046456D01*
X0001003895Y0003046456D01*
X0000994390Y0003042519D01*
X0000983261Y0003042519D01*
X0000980314Y0003043105D01*
X0000977368Y0003042519D01*
X0000977368Y0003042519D01*
X0000968640Y0003040783D01*
X0000958742Y0003034170D01*
X0000957073Y0003031672D01*
X0000913247Y0002987845D01*
X0000909741Y0002996310D01*
X0000907677Y0002998374D01*
X0000907677Y0003036271D01*
X0000909347Y0003037941D01*
X0000915551Y0003052918D01*
X0000915551Y0003060254D01*
X0000997652Y0003060254D01*
X0001009533Y0003055333D01*
X0001023003Y0003055333D01*
X0001035447Y0003060487D01*
X0001044971Y0003070012D01*
X0001050126Y0003082456D01*
X0001050126Y0003095926D01*
X0001047183Y0003103030D01*
X0001048031Y0003105076D01*
X0001048031Y0003118546D01*
X0001042876Y0003130990D01*
X0001033352Y0003140515D01*
X0001020908Y0003145669D01*
X0001007438Y0003145669D01*
X0000995557Y0003140748D01*
X0000434426Y0003140748D01*
X0000425232Y0003149942D01*
X0000423618Y0003152358D01*
X0000414046Y0003158754D01*
X0000405605Y0003160433D01*
X0000405605Y0003160433D01*
X0000402755Y0003160999D01*
X0000401896Y0003160828D01*
X0000393331Y0003173646D01*
X0000380768Y0003182041D01*
X0000385880Y0003184441D01*
X0000401245Y0003201302D01*
X0000407932Y0003217445D01*
X0000403155Y0003226496D01*
X0000356181Y0003226496D01*
X0000356181Y0003225708D01*
X0000346181Y0003225708D01*
X0000346181Y0003226496D01*
X0000345393Y0003226496D01*
X0000345393Y0003236496D01*
X0000346181Y0003236496D01*
X0000346181Y0003283496D01*
X0000356181Y0003283496D01*
X0000356181Y0003236496D01*
X0000403155Y0003236496D01*
X0000407932Y0003245546D01*
X0000406644Y0003248656D01*
X0000700196Y0003248656D01*
X0000700196Y0003232445D01*
X0000706400Y0003217469D01*
X0000717862Y0003206006D01*
X0000732839Y0003199803D01*
X0000749050Y0003199803D01*
X0000764026Y0003206006D01*
X0000775489Y0003217469D01*
X0000781692Y0003232445D01*
X0000781692Y0003248656D01*
X0000775489Y0003263633D01*
X0000764026Y0003275095D01*
X0000749050Y0003281299D01*
X0000732839Y0003281299D01*
X0000717862Y0003275095D01*
X0000706400Y0003263633D01*
X0000700196Y0003248656D01*
X0000406644Y0003248656D01*
X0000401245Y0003261689D01*
X0000385880Y0003278550D01*
X0000365231Y0003288247D01*
X0000356181Y0003283496D01*
X0000346181Y0003283496D01*
X0000337130Y0003288247D01*
X0000316481Y0003278550D01*
X0000309053Y0003270399D01*
X0000308195Y0003274715D01*
X0000302669Y0003282984D01*
X0000294400Y0003288510D01*
X0000284645Y0003290450D01*
X0000217716Y0003290450D01*
X0000207962Y0003288510D01*
X0000199692Y0003282984D01*
X0000194167Y0003274715D01*
X0000192226Y0003264960D01*
X0000192226Y0003198031D01*
X0000194167Y0003188276D01*
X0000199692Y0003180007D01*
X0000207962Y0003174482D01*
X0000209748Y0003174126D01*
X0000209030Y0003173646D01*
X0000196108Y0003154307D01*
X0000191571Y0003131496D01*
X0000194440Y0003117070D01*
X0000142343Y0003064973D01*
X0000139845Y0003063304D01*
X0000133232Y0003053406D01*
X0000131496Y0003044679D01*
X0000131496Y0003044679D01*
X0000130909Y0003041732D01*
X0000027952Y0003041732D01*
X0000027952Y0003543538D01*
X0000415944Y0003543538D01*
X0000415944Y0003527327D01*
X0000422148Y0003512351D01*
X0000433611Y0003500888D01*
X0000448587Y0003494685D01*
X0000451377Y0003494685D01*
X0000451377Y0003491894D01*
X0000457581Y0003476918D01*
X0000469044Y0003465455D01*
X0000484020Y0003459251D01*
X0000500231Y0003459251D01*
X0000515207Y0003465455D01*
X0000526670Y0003476918D01*
X0000532873Y0003491894D01*
X0000532873Y0003508105D01*
X0000528892Y0003517716D01*
X0000532873Y0003527327D01*
X0000532873Y0003543538D01*
X0000526670Y0003558514D01*
X0000515207Y0003569977D01*
X0000500231Y0003576181D01*
X0000484020Y0003576181D01*
X0000474409Y0003572200D01*
X0000464798Y0003576181D01*
X0000448587Y0003576181D01*
X0000433611Y0003569977D01*
X0000422148Y0003558514D01*
X0000415944Y0003543538D01*
X0000027952Y0003543538D01*
X0000027952Y0003632247D01*
X0000096011Y0003632247D01*
X0000110458Y0003612742D01*
X0000165794Y0003589380D01*
X0000225857Y0003588972D01*
X0000281505Y0003611581D01*
X0000283242Y0003612742D01*
X0000297689Y0003632247D01*
X0001592074Y0003632247D01*
X0001606521Y0003612742D01*
X0001661857Y0003589380D01*
X0001721920Y0003588972D01*
X0001777568Y0003611581D01*
X0001779305Y0003612742D01*
X0001793752Y0003632247D01*
X0001692913Y0003733086D01*
X0001592074Y0003632247D01*
X0000297689Y0003632247D01*
X0000196850Y0003733086D01*
X0000096011Y0003632247D01*
X0000027952Y0003632247D01*
X0000027952Y0003711149D01*
X0000045665Y0003711149D01*
X0000068274Y0003655502D01*
X0000069435Y0003653765D01*
X0000088940Y0003639318D01*
X0000189779Y0003740157D01*
X0000203921Y0003740157D01*
X0000304760Y0003639318D01*
X0000324265Y0003653765D01*
X0000347627Y0003709101D01*
X0000347641Y0003711149D01*
X0001541728Y0003711149D01*
X0001564337Y0003655502D01*
X0001565498Y0003653765D01*
X0001585003Y0003639318D01*
X0001685842Y0003740157D01*
X0001699984Y0003740157D01*
X0001800823Y0003639318D01*
X0001820328Y0003653765D01*
X0001843690Y0003709101D01*
X0001844097Y0003769165D01*
X0001821488Y0003824812D01*
X0001820328Y0003826549D01*
X0001800823Y0003840996D01*
X0001699984Y0003740157D01*
X0001685842Y0003740157D01*
X0001585003Y0003840996D01*
X0001565498Y0003826549D01*
X0001542136Y0003771213D01*
X0001541728Y0003711149D01*
X0000347641Y0003711149D01*
X0000348034Y0003769165D01*
X0000325425Y0003824812D01*
X0000324265Y0003826549D01*
X0000304760Y0003840996D01*
X0000203921Y0003740157D01*
X0000189779Y0003740157D01*
X0000088940Y0003840996D01*
X0000069435Y0003826549D01*
X0000046073Y0003771213D01*
X0000045665Y0003711149D01*
X0000027952Y0003711149D01*
X0000027952Y0003738912D01*
X0000030731Y0003770046D01*
X0000038649Y0003798991D01*
X0000051568Y0003826076D01*
X0000067370Y0003848067D01*
X0000096011Y0003848067D01*
X0000196850Y0003747228D01*
X0000297689Y0003848067D01*
X0001592074Y0003848067D01*
X0001692913Y0003747228D01*
X0001793752Y0003848067D01*
X0001779305Y0003867572D01*
X0001723969Y0003890934D01*
X0001663905Y0003891342D01*
X0001608258Y0003868733D01*
X0001606521Y0003867572D01*
X0001592074Y0003848067D01*
X0000297689Y0003848067D01*
X0000283242Y0003867572D01*
X0000227906Y0003890934D01*
X0000167842Y0003891342D01*
X0000112195Y0003868733D01*
X0000110458Y0003867572D01*
X0000096011Y0003848067D01*
X0000067370Y0003848067D01*
X0000069079Y0003850446D01*
X0000090629Y0003871329D01*
X0000115536Y0003888066D01*
X0000143014Y0003900127D01*
X0000172408Y0003907185D01*
X0000197875Y0003909055D01*
X0001691668Y0003909055D01*
X0001722802Y0003906276D01*
X0001722802Y0003906276D01*
G37*
X0001722802Y0003906276D02*
X0001751747Y0003898358D01*
X0001778832Y0003885439D01*
X0001803202Y0003867928D01*
X0001824085Y0003846378D01*
X0001840822Y0003821470D01*
X0001852883Y0003793993D01*
X0001859940Y0003764599D01*
X0001861811Y0003739132D01*
X0001861811Y0002245339D01*
X0001859032Y0002214205D01*
X0001851113Y0002185260D01*
X0001838194Y0002158175D01*
X0001820684Y0002133805D01*
X0001799134Y0002112922D01*
X0001774226Y0002096185D01*
X0001746749Y0002084123D01*
X0001717355Y0002077066D01*
X0001691888Y0002075196D01*
X0000198095Y0002075196D01*
X0000166960Y0002077975D01*
X0000138016Y0002085893D01*
X0000110930Y0002098812D01*
X0000086561Y0002116323D01*
X0000067315Y0002136184D01*
X0000096011Y0002136184D01*
X0000110458Y0002116679D01*
X0000165794Y0002093317D01*
X0000225857Y0002092909D01*
X0000281505Y0002115518D01*
X0000283242Y0002116679D01*
X0000297689Y0002136184D01*
X0001592074Y0002136184D01*
X0001606521Y0002116679D01*
X0001661857Y0002093317D01*
X0001721920Y0002092909D01*
X0001777568Y0002115518D01*
X0001779305Y0002116679D01*
X0001793752Y0002136184D01*
X0001692913Y0002237023D01*
X0001592074Y0002136184D01*
X0000297689Y0002136184D01*
X0000196850Y0002237023D01*
X0000096011Y0002136184D01*
X0000067315Y0002136184D01*
X0000065678Y0002137873D01*
X0000048941Y0002162781D01*
X0000036879Y0002190258D01*
X0000030919Y0002215086D01*
X0000045665Y0002215086D01*
X0000068274Y0002159439D01*
X0000069435Y0002157702D01*
X0000088940Y0002143255D01*
X0000189779Y0002244094D01*
X0000203921Y0002244094D01*
X0000304760Y0002143255D01*
X0000324265Y0002157702D01*
X0000347627Y0002213038D01*
X0000347958Y0002261811D01*
X0000363110Y0002261811D01*
X0000363110Y0002173228D01*
X0000363490Y0002171314D01*
X0000364574Y0002169692D01*
X0000366196Y0002168608D01*
X0000368110Y0002168228D01*
X0000604330Y0002168228D01*
X0000606244Y0002168608D01*
X0000607866Y0002169692D01*
X0000608950Y0002171314D01*
X0000609330Y0002173228D01*
X0000609330Y0002215086D01*
X0001541728Y0002215086D01*
X0001564337Y0002159439D01*
X0001565498Y0002157702D01*
X0001585003Y0002143255D01*
X0001685842Y0002244094D01*
X0001699984Y0002244094D01*
X0001800823Y0002143255D01*
X0001820328Y0002157702D01*
X0001843690Y0002213038D01*
X0001844097Y0002273102D01*
X0001821488Y0002328749D01*
X0001820328Y0002330486D01*
X0001800823Y0002344933D01*
X0001699984Y0002244094D01*
X0001685842Y0002244094D01*
X0001585003Y0002344933D01*
X0001565498Y0002330486D01*
X0001542136Y0002275150D01*
X0001541728Y0002215086D01*
X0000609330Y0002215086D01*
X0000609330Y0002261811D01*
X0000608950Y0002263724D01*
X0000607866Y0002265346D01*
X0000606244Y0002266430D01*
X0000604330Y0002266811D01*
X0000368110Y0002266811D01*
X0000366196Y0002266430D01*
X0000364574Y0002265346D01*
X0000363490Y0002263724D01*
X0000363110Y0002261811D01*
X0000347958Y0002261811D01*
X0000348034Y0002273102D01*
X0000325425Y0002328749D01*
X0000324265Y0002330486D01*
X0000304760Y0002344933D01*
X0000203921Y0002244094D01*
X0000189779Y0002244094D01*
X0000088940Y0002344933D01*
X0000069435Y0002330486D01*
X0000046073Y0002275150D01*
X0000045665Y0002215086D01*
X0000030919Y0002215086D01*
X0000029822Y0002219652D01*
X0000027952Y0002245119D01*
X0000027952Y0002352004D01*
X0000096011Y0002352004D01*
X0000196850Y0002251165D01*
X0000297689Y0002352004D01*
X0001592074Y0002352004D01*
X0001692913Y0002251165D01*
X0001793752Y0002352004D01*
X0001779305Y0002371509D01*
X0001723969Y0002394871D01*
X0001663905Y0002395279D01*
X0001608258Y0002372670D01*
X0001606521Y0002371509D01*
X0001592074Y0002352004D01*
X0000297689Y0002352004D01*
X0000283242Y0002371509D01*
X0000227906Y0002394871D01*
X0000167842Y0002395279D01*
X0000112195Y0002372670D01*
X0000110458Y0002371509D01*
X0000096011Y0002352004D01*
X0000027952Y0002352004D01*
X0000027952Y0003041732D01*
X0000130909Y0003041732D01*
X0000131496Y0003038785D01*
X0000131496Y0002792317D01*
X0000130909Y0002789370D01*
X0000133232Y0002777695D01*
X0000136348Y0002773031D01*
X0000139845Y0002767798D01*
X0000142343Y0002766128D01*
X0000185420Y0002723052D01*
X0000187089Y0002720553D01*
X0000196986Y0002713940D01*
X0000205714Y0002712204D01*
X0000205714Y0002712204D01*
X0000208661Y0002711618D01*
X0000211608Y0002712204D01*
X0001025596Y0002712204D01*
X0001028543Y0002711618D01*
X0001031490Y0002712204D01*
X0001031490Y0002712204D01*
X0001040217Y0002713940D01*
X0001050115Y0002720553D01*
X0001051784Y0002723052D01*
X0001132093Y0002803361D01*
X0001166178Y0002769276D01*
X0001171099Y0002757395D01*
X0001180623Y0002747871D01*
X0001193068Y0002742716D01*
X0001206537Y0002742716D01*
X0001218982Y0002747871D01*
X0001228506Y0002757395D01*
X0001233661Y0002769839D01*
X0001233661Y0002783309D01*
X0001228506Y0002795753D01*
X0001218982Y0002805278D01*
X0001207101Y0002810199D01*
X0001175019Y0002842281D01*
X0001175019Y0002878148D01*
X0001177989Y0002870978D01*
X0001187513Y0002861453D01*
X0001199958Y0002856299D01*
X0001213427Y0002856299D01*
X0001225872Y0002861453D01*
X0001235396Y0002870978D01*
X0001239333Y0002880483D01*
X0001242301Y0002883451D01*
X0001244800Y0002885120D01*
X0001250426Y0002893541D01*
X0001251413Y0002895018D01*
X0001252353Y0002899745D01*
X0001253149Y0002903745D01*
X0001253149Y0002903746D01*
X0001253735Y0002906692D01*
X0001253149Y0002909639D01*
X0001253149Y0002923459D01*
X0001345472Y0002923459D01*
X0001345472Y0002907249D01*
X0001351675Y0002892272D01*
X0001363138Y0002880809D01*
X0001378115Y0002874606D01*
X0001394325Y0002874606D01*
X0001394408Y0002874640D01*
X0001413188Y0002874640D01*
X0001413188Y0002858430D01*
X0001419392Y0002843453D01*
X0001430855Y0002831990D01*
X0001445831Y0002825787D01*
X0001462042Y0002825787D01*
X0001477018Y0002831990D01*
X0001488481Y0002843453D01*
X0001494685Y0002858430D01*
X0001494685Y0002874640D01*
X0001488481Y0002889617D01*
X0001477018Y0002901079D01*
X0001462042Y0002907283D01*
X0001445831Y0002907283D01*
X0001430855Y0002901079D01*
X0001419392Y0002889617D01*
X0001413188Y0002874640D01*
X0001394408Y0002874640D01*
X0001409302Y0002880809D01*
X0001420764Y0002892272D01*
X0001426968Y0002907249D01*
X0001426968Y0002923459D01*
X0001420764Y0002938436D01*
X0001409302Y0002949898D01*
X0001394325Y0002956102D01*
X0001378115Y0002956102D01*
X0001363138Y0002949898D01*
X0001351675Y0002938436D01*
X0001345472Y0002923459D01*
X0001253149Y0002923459D01*
X0001253149Y0003132514D01*
X0001375393Y0003132514D01*
X0001375393Y0003116304D01*
X0001381597Y0003101327D01*
X0001393059Y0003089864D01*
X0001408036Y0003083661D01*
X0001424246Y0003083661D01*
X0001439223Y0003089864D01*
X0001450686Y0003101327D01*
X0001456889Y0003116304D01*
X0001456889Y0003132514D01*
X0001451671Y0003145112D01*
X0001457677Y0003159611D01*
X0001457677Y0003175821D01*
X0001451473Y0003190798D01*
X0001440011Y0003202261D01*
X0001425034Y0003208464D01*
X0001408823Y0003208464D01*
X0001393847Y0003202261D01*
X0001382384Y0003190798D01*
X0001376181Y0003175821D01*
X0001376181Y0003159611D01*
X0001381399Y0003147013D01*
X0001375393Y0003132514D01*
X0001253149Y0003132514D01*
X0001253149Y0003210439D01*
X0001253735Y0003213385D01*
X0001253149Y0003216332D01*
X0001253149Y0003216332D01*
X0001252637Y0003218905D01*
X0001252637Y0003225034D01*
X0001445472Y0003225034D01*
X0001445472Y0003208823D01*
X0001451675Y0003193847D01*
X0001463138Y0003182384D01*
X0001478115Y0003176181D01*
X0001494325Y0003176181D01*
X0001509302Y0003182384D01*
X0001520765Y0003193847D01*
X0001526968Y0003208823D01*
X0001526968Y0003225034D01*
X0001520765Y0003240011D01*
X0001509302Y0003251473D01*
X0001494325Y0003257677D01*
X0001478115Y0003257677D01*
X0001463138Y0003251473D01*
X0001451675Y0003240011D01*
X0001445472Y0003225034D01*
X0001252637Y0003225034D01*
X0001252637Y0003290478D01*
X0001253223Y0003293425D01*
X0001252637Y0003296371D01*
X0001252637Y0003296372D01*
X0001250901Y0003305099D01*
X0001244288Y0003314997D01*
X0001241790Y0003316666D01*
X0001197257Y0003361199D01*
X0001195587Y0003363697D01*
X0001185690Y0003370311D01*
X0001176962Y0003372047D01*
X0001176962Y0003372047D01*
X0001174015Y0003372633D01*
X0001173391Y0003372509D01*
X0001165002Y0003375984D01*
X0001151532Y0003375984D01*
X0001139088Y0003370829D01*
X0001129564Y0003361304D01*
X0001124409Y0003348860D01*
X0001124409Y0003335390D01*
X0001129564Y0003322946D01*
X0001139088Y0003313422D01*
X0001151532Y0003308267D01*
X0001165002Y0003308267D01*
X0001165396Y0003308430D01*
X0001192795Y0003281031D01*
X0001192795Y0003216844D01*
X0001192209Y0003213897D01*
X0001192795Y0003210950D01*
X0001193307Y0003208378D01*
X0001193307Y0002921260D01*
X0001187513Y0002918861D01*
X0001179940Y0002911287D01*
X0001179940Y0002921857D01*
X0001174785Y0002934301D01*
X0001165261Y0002943826D01*
X0001152817Y0002948980D01*
X0001146916Y0002948980D01*
X0001144019Y0002951878D01*
X0001131575Y0002957032D01*
X0001118105Y0002957032D01*
X0001112288Y0002954623D01*
X0001108879Y0002956035D01*
X0001095410Y0002956035D01*
X0001090868Y0002954154D01*
X0001086163Y0002956103D01*
X0001081451Y0002956103D01*
X0001076931Y0002967013D01*
X0001067407Y0002976538D01*
X0001054963Y0002981692D01*
X0001041493Y0002981692D01*
X0001029049Y0002976538D01*
X0001019524Y0002967013D01*
X0001015587Y0002957509D01*
X0000940362Y0002882283D01*
X0000423811Y0002882283D01*
X0000405131Y0002900963D01*
X0000404985Y0002901181D01*
X0000895872Y0002901181D01*
X0000898818Y0002900594D01*
X0000901765Y0002901181D01*
X0000901765Y0002901181D01*
X0000910493Y0002902917D01*
X0000920390Y0002909530D01*
X0000922060Y0002912028D01*
X0000992708Y0002982677D01*
X0000994390Y0002982677D01*
X0001003895Y0002978740D01*
X0001017364Y0002978740D01*
X0001029809Y0002983894D01*
X0001039333Y0002993419D01*
X0001044488Y0003005863D01*
X0001044488Y0003019333D01*
X0001039333Y0003031777D01*
X0001029809Y0003041302D01*
X0001017364Y0003046456D01*
X0001003895Y0003046456D01*
X0000994390Y0003042519D01*
X0000983261Y0003042519D01*
X0000980314Y0003043105D01*
X0000977368Y0003042519D01*
X0000977368Y0003042519D01*
X0000968640Y0003040783D01*
X0000958742Y0003034170D01*
X0000957073Y0003031672D01*
X0000913247Y0002987845D01*
X0000909741Y0002996310D01*
X0000907677Y0002998374D01*
X0000907677Y0003036271D01*
X0000909347Y0003037941D01*
X0000915551Y0003052918D01*
X0000915551Y0003060254D01*
X0000997652Y0003060254D01*
X0001009533Y0003055333D01*
X0001023003Y0003055333D01*
X0001035447Y0003060487D01*
X0001044971Y0003070012D01*
X0001050126Y0003082456D01*
X0001050126Y0003095926D01*
X0001047183Y0003103030D01*
X0001048031Y0003105076D01*
X0001048031Y0003118546D01*
X0001042876Y0003130990D01*
X0001033352Y0003140515D01*
X0001020908Y0003145669D01*
X0001007438Y0003145669D01*
X0000995557Y0003140748D01*
X0000434426Y0003140748D01*
X0000425232Y0003149942D01*
X0000423618Y0003152358D01*
X0000414046Y0003158754D01*
X0000405605Y0003160433D01*
X0000405605Y0003160433D01*
X0000402755Y0003160999D01*
X0000401896Y0003160828D01*
X0000393331Y0003173646D01*
X0000380768Y0003182041D01*
X0000385880Y0003184441D01*
X0000401245Y0003201302D01*
X0000407932Y0003217445D01*
X0000403155Y0003226496D01*
X0000356181Y0003226496D01*
X0000356181Y0003225708D01*
X0000346181Y0003225708D01*
X0000346181Y0003226496D01*
X0000345393Y0003226496D01*
X0000345393Y0003236496D01*
X0000346181Y0003236496D01*
X0000346181Y0003283496D01*
X0000356181Y0003283496D01*
X0000356181Y0003236496D01*
X0000403155Y0003236496D01*
X0000407932Y0003245546D01*
X0000406644Y0003248656D01*
X0000700196Y0003248656D01*
X0000700196Y0003232445D01*
X0000706400Y0003217469D01*
X0000717862Y0003206006D01*
X0000732839Y0003199803D01*
X0000749050Y0003199803D01*
X0000764026Y0003206006D01*
X0000775489Y0003217469D01*
X0000781692Y0003232445D01*
X0000781692Y0003248656D01*
X0000775489Y0003263633D01*
X0000764026Y0003275095D01*
X0000749050Y0003281299D01*
X0000732839Y0003281299D01*
X0000717862Y0003275095D01*
X0000706400Y0003263633D01*
X0000700196Y0003248656D01*
X0000406644Y0003248656D01*
X0000401245Y0003261689D01*
X0000385880Y0003278550D01*
X0000365231Y0003288247D01*
X0000356181Y0003283496D01*
X0000346181Y0003283496D01*
X0000337130Y0003288247D01*
X0000316481Y0003278550D01*
X0000309053Y0003270399D01*
X0000308195Y0003274715D01*
X0000302669Y0003282984D01*
X0000294400Y0003288510D01*
X0000284645Y0003290450D01*
X0000217716Y0003290450D01*
X0000207962Y0003288510D01*
X0000199692Y0003282984D01*
X0000194167Y0003274715D01*
X0000192226Y0003264960D01*
X0000192226Y0003198031D01*
X0000194167Y0003188276D01*
X0000199692Y0003180007D01*
X0000207962Y0003174482D01*
X0000209748Y0003174126D01*
X0000209030Y0003173646D01*
X0000196108Y0003154307D01*
X0000191571Y0003131496D01*
X0000194440Y0003117070D01*
X0000142343Y0003064973D01*
X0000139845Y0003063304D01*
X0000133232Y0003053406D01*
X0000131496Y0003044679D01*
X0000131496Y0003044679D01*
X0000130909Y0003041732D01*
X0000027952Y0003041732D01*
X0000027952Y0003543538D01*
X0000415944Y0003543538D01*
X0000415944Y0003527327D01*
X0000422148Y0003512351D01*
X0000433611Y0003500888D01*
X0000448587Y0003494685D01*
X0000451377Y0003494685D01*
X0000451377Y0003491894D01*
X0000457581Y0003476918D01*
X0000469044Y0003465455D01*
X0000484020Y0003459251D01*
X0000500231Y0003459251D01*
X0000515207Y0003465455D01*
X0000526670Y0003476918D01*
X0000532873Y0003491894D01*
X0000532873Y0003508105D01*
X0000528892Y0003517716D01*
X0000532873Y0003527327D01*
X0000532873Y0003543538D01*
X0000526670Y0003558514D01*
X0000515207Y0003569977D01*
X0000500231Y0003576181D01*
X0000484020Y0003576181D01*
X0000474409Y0003572200D01*
X0000464798Y0003576181D01*
X0000448587Y0003576181D01*
X0000433611Y0003569977D01*
X0000422148Y0003558514D01*
X0000415944Y0003543538D01*
X0000027952Y0003543538D01*
X0000027952Y0003632247D01*
X0000096011Y0003632247D01*
X0000110458Y0003612742D01*
X0000165794Y0003589380D01*
X0000225857Y0003588972D01*
X0000281505Y0003611581D01*
X0000283242Y0003612742D01*
X0000297689Y0003632247D01*
X0001592074Y0003632247D01*
X0001606521Y0003612742D01*
X0001661857Y0003589380D01*
X0001721920Y0003588972D01*
X0001777568Y0003611581D01*
X0001779305Y0003612742D01*
X0001793752Y0003632247D01*
X0001692913Y0003733086D01*
X0001592074Y0003632247D01*
X0000297689Y0003632247D01*
X0000196850Y0003733086D01*
X0000096011Y0003632247D01*
X0000027952Y0003632247D01*
X0000027952Y0003711149D01*
X0000045665Y0003711149D01*
X0000068274Y0003655502D01*
X0000069435Y0003653765D01*
X0000088940Y0003639318D01*
X0000189779Y0003740157D01*
X0000203921Y0003740157D01*
X0000304760Y0003639318D01*
X0000324265Y0003653765D01*
X0000347627Y0003709101D01*
X0000347641Y0003711149D01*
X0001541728Y0003711149D01*
X0001564337Y0003655502D01*
X0001565498Y0003653765D01*
X0001585003Y0003639318D01*
X0001685842Y0003740157D01*
X0001699984Y0003740157D01*
X0001800823Y0003639318D01*
X0001820328Y0003653765D01*
X0001843690Y0003709101D01*
X0001844097Y0003769165D01*
X0001821488Y0003824812D01*
X0001820328Y0003826549D01*
X0001800823Y0003840996D01*
X0001699984Y0003740157D01*
X0001685842Y0003740157D01*
X0001585003Y0003840996D01*
X0001565498Y0003826549D01*
X0001542136Y0003771213D01*
X0001541728Y0003711149D01*
X0000347641Y0003711149D01*
X0000348034Y0003769165D01*
X0000325425Y0003824812D01*
X0000324265Y0003826549D01*
X0000304760Y0003840996D01*
X0000203921Y0003740157D01*
X0000189779Y0003740157D01*
X0000088940Y0003840996D01*
X0000069435Y0003826549D01*
X0000046073Y0003771213D01*
X0000045665Y0003711149D01*
X0000027952Y0003711149D01*
X0000027952Y0003738912D01*
X0000030731Y0003770046D01*
X0000038649Y0003798991D01*
X0000051568Y0003826076D01*
X0000067370Y0003848067D01*
X0000096011Y0003848067D01*
X0000196850Y0003747228D01*
X0000297689Y0003848067D01*
X0001592074Y0003848067D01*
X0001692913Y0003747228D01*
X0001793752Y0003848067D01*
X0001779305Y0003867572D01*
X0001723969Y0003890934D01*
X0001663905Y0003891342D01*
X0001608258Y0003868733D01*
X0001606521Y0003867572D01*
X0001592074Y0003848067D01*
X0000297689Y0003848067D01*
X0000283242Y0003867572D01*
X0000227906Y0003890934D01*
X0000167842Y0003891342D01*
X0000112195Y0003868733D01*
X0000110458Y0003867572D01*
X0000096011Y0003848067D01*
X0000067370Y0003848067D01*
X0000069079Y0003850446D01*
X0000090629Y0003871329D01*
X0000115536Y0003888066D01*
X0000143014Y0003900127D01*
X0000172408Y0003907185D01*
X0000197875Y0003909055D01*
X0001691668Y0003909055D01*
X0001722802Y0003906276D01*
G36*
X0001072223Y0002853712D02*
X0001012212Y0002793700D01*
X0000980503Y0002793700D01*
X0001072223Y0002885420D01*
X0001072223Y0002853712D01*
X0001072223Y0002853712D01*
G37*
X0001072223Y0002853712D02*
X0001012212Y0002793700D01*
X0000980503Y0002793700D01*
X0001072223Y0002885420D01*
X0001072223Y0002853712D01*
G36*
X0000834055Y0003052918D02*
X0000840258Y0003037941D01*
X0000841929Y0003036271D01*
X0000841929Y0002997587D01*
X0000840652Y0002996310D01*
X0000834448Y0002981333D01*
X0000834448Y0002965123D01*
X0000836146Y0002961023D01*
X0000401766Y0002961023D01*
X0000393331Y0002973646D01*
X0000381584Y0002981496D01*
X0000393331Y0002989345D01*
X0000403080Y0003003936D01*
X0000404597Y0003004238D01*
X0000414169Y0003010633D01*
X0000415783Y0003013049D01*
X0000462988Y0003060254D01*
X0000834055Y0003060254D01*
X0000834055Y0003052918D01*
X0000834055Y0003052918D01*
G37*
X0000834055Y0003052918D02*
X0000840258Y0003037941D01*
X0000841929Y0003036271D01*
X0000841929Y0002997587D01*
X0000840652Y0002996310D01*
X0000834448Y0002981333D01*
X0000834448Y0002965123D01*
X0000836146Y0002961023D01*
X0000401766Y0002961023D01*
X0000393331Y0002973646D01*
X0000381584Y0002981496D01*
X0000393331Y0002989345D01*
X0000403080Y0003003936D01*
X0000404597Y0003004238D01*
X0000414169Y0003010633D01*
X0000415783Y0003013049D01*
X0000462988Y0003060254D01*
X0000834055Y0003060254D01*
X0000834055Y0003052918D01*
G04 #@! TD*
M02*