%MOIN*%
%OFA0B0*%
%FSLAX46Y46*%
%IPPOS*%
%LPD*%
%ADD10C,0.005905511811023622*%
%ADD11C,0.0039370078740157488*%
%ADD22C,0.005905511811023622*%
%ADD23C,0.0039370078740157488*%
%ADD24C,0.005905511811023622*%
%ADD25C,0.0039370078740157488*%
%ADD26C,0.005905511811023622*%
%ADD27C,0.0039370078740157488*%
G01*
D10*
G36*
X0000356299Y0000147637D02*
X0000592519Y0000147637D01*
X0000592519Y0000059055D01*
X0000356299Y0000059055D01*
X0000356299Y0000147637D01*
G37*
X0000356299Y0000147637D02*
X0000592519Y0000147637D01*
X0000592519Y0000059055D01*
X0000356299Y0000059055D01*
X0000356299Y0000147637D01*
D11*
G36*
X0000911456Y0000001929D02*
X0000854291Y0000001929D01*
X0000854291Y0000171299D01*
X0000911456Y0000171299D01*
X0000911456Y0000001929D01*
X0000911456Y0000001929D01*
G37*
G36*
X0000689015Y0000001929D02*
X0000631850Y0000001929D01*
X0000631850Y0000171299D01*
X0000689015Y0000171299D01*
X0000689015Y0000001929D01*
X0000689015Y0000001929D01*
G37*
G36*
X0001717883Y0000322383D02*
X0001730247Y0000319923D01*
X0001753540Y0000310275D01*
X0001764941Y0000302657D01*
X0001774503Y0000296268D01*
X0001792331Y0000278440D01*
X0001792331Y0000278440D01*
X0001806338Y0000257477D01*
X0001811130Y0000245907D01*
X0001815986Y0000234184D01*
X0001820905Y0000209456D01*
X0001820905Y0000184244D01*
X0001818446Y0000171880D01*
X0001815986Y0000159516D01*
X0001806338Y0000136223D01*
X0001796585Y0000121626D01*
X0001792331Y0000115260D01*
X0001774503Y0000097432D01*
X0001774503Y0000097432D01*
X0001753540Y0000083425D01*
X0001730247Y0000073776D01*
X0001717883Y0000071317D01*
X0001705519Y0000068858D01*
X0001680307Y0000068858D01*
X0001667943Y0000071317D01*
X0001655579Y0000073776D01*
X0001632286Y0000083425D01*
X0001611323Y0000097432D01*
X0001611323Y0000097432D01*
X0001593495Y0000115260D01*
X0001589241Y0000121626D01*
X0001579488Y0000136223D01*
X0001569839Y0000159516D01*
X0001567380Y0000171880D01*
X0001564921Y0000184244D01*
X0001564921Y0000209456D01*
X0001569839Y0000234184D01*
X0001574695Y0000245907D01*
X0001579488Y0000257477D01*
X0001593495Y0000278440D01*
X0001593495Y0000278440D01*
X0001611323Y0000296268D01*
X0001620884Y0000302657D01*
X0001632286Y0000310275D01*
X0001655579Y0000319923D01*
X0001667943Y0000322383D01*
X0001680307Y0000324842D01*
X0001705519Y0000324842D01*
X0001717883Y0000322383D01*
X0001717883Y0000322383D01*
G37*
G36*
X0000221820Y0000322383D02*
X0000234184Y0000319923D01*
X0000257477Y0000310275D01*
X0000268878Y0000302657D01*
X0000278440Y0000296268D01*
X0000296268Y0000278440D01*
X0000296268Y0000278440D01*
X0000310275Y0000257477D01*
X0000315067Y0000245907D01*
X0000319923Y0000234184D01*
X0000324842Y0000209456D01*
X0000324842Y0000184244D01*
X0000322383Y0000171880D01*
X0000319923Y0000159516D01*
X0000310275Y0000136223D01*
X0000300522Y0000121626D01*
X0000296268Y0000115260D01*
X0000278440Y0000097432D01*
X0000278440Y0000097432D01*
X0000257477Y0000083425D01*
X0000234184Y0000073776D01*
X0000221820Y0000071317D01*
X0000209456Y0000068858D01*
X0000184244Y0000068858D01*
X0000171880Y0000071317D01*
X0000159516Y0000073776D01*
X0000136223Y0000083425D01*
X0000115260Y0000097432D01*
X0000115260Y0000097432D01*
X0000097432Y0000115260D01*
X0000093178Y0000121626D01*
X0000083425Y0000136223D01*
X0000073776Y0000159516D01*
X0000071317Y0000171880D01*
X0000068858Y0000184244D01*
X0000068858Y0000209456D01*
X0000073776Y0000234184D01*
X0000078632Y0000245907D01*
X0000083425Y0000257477D01*
X0000097432Y0000278440D01*
X0000097432Y0000278440D01*
X0000115260Y0000296268D01*
X0000124821Y0000302657D01*
X0000136223Y0000310275D01*
X0000159516Y0000319923D01*
X0000171880Y0000322383D01*
X0000184244Y0000324842D01*
X0000209456Y0000324842D01*
X0000221820Y0000322383D01*
X0000221820Y0000322383D01*
G37*
G36*
X0001887834Y0000407440D02*
X0001718464Y0000407440D01*
X0001718464Y0000464606D01*
X0001887834Y0000464606D01*
X0001887834Y0000407440D01*
X0001887834Y0000407440D01*
G37*
G36*
X0000171299Y0000407440D02*
X0000001929Y0000407440D01*
X0000001929Y0000464606D01*
X0000171299Y0000464606D01*
X0000171299Y0000407440D01*
X0000171299Y0000407440D01*
G37*
G36*
X0000171299Y0000629881D02*
X0000001929Y0000629881D01*
X0000001929Y0000687047D01*
X0000171299Y0000687047D01*
X0000171299Y0000629881D01*
X0000171299Y0000629881D01*
G37*
G36*
X0001887834Y0000629881D02*
X0001718464Y0000629881D01*
X0001718464Y0000687047D01*
X0001887834Y0000687047D01*
X0001887834Y0000629881D01*
X0001887834Y0000629881D01*
G37*
G36*
X0001887834Y0000824763D02*
X0001718464Y0000824763D01*
X0001718464Y0000881929D01*
X0001887834Y0000881929D01*
X0001887834Y0000824763D01*
X0001887834Y0000824763D01*
G37*
G36*
X0000171299Y0000824763D02*
X0000001929Y0000824763D01*
X0000001929Y0000881929D01*
X0000171299Y0000881929D01*
X0000171299Y0000824763D01*
X0000171299Y0000824763D01*
G37*
G36*
X0001887834Y0001047204D02*
X0001718464Y0001047204D01*
X0001718464Y0001104370D01*
X0001887834Y0001104370D01*
X0001887834Y0001047204D01*
X0001887834Y0001047204D01*
G37*
G36*
X0000171299Y0001047204D02*
X0000001929Y0001047204D01*
X0000001929Y0001104370D01*
X0000171299Y0001104370D01*
X0000171299Y0001047204D01*
X0000171299Y0001047204D01*
G37*
G36*
X0001887834Y0001246023D02*
X0001718464Y0001246023D01*
X0001718464Y0001303188D01*
X0001887834Y0001303188D01*
X0001887834Y0001246023D01*
X0001887834Y0001246023D01*
G37*
G36*
X0000171299Y0001246023D02*
X0000001929Y0001246023D01*
X0000001929Y0001303188D01*
X0000171299Y0001303188D01*
X0000171299Y0001246023D01*
X0000171299Y0001246023D01*
G37*
G36*
X0001887834Y0001468464D02*
X0001718464Y0001468464D01*
X0001718464Y0001525629D01*
X0001887834Y0001525629D01*
X0001887834Y0001468464D01*
X0001887834Y0001468464D01*
G37*
G36*
X0000171299Y0001468464D02*
X0000001929Y0001468464D01*
X0000001929Y0001525629D01*
X0000171299Y0001525629D01*
X0000171299Y0001468464D01*
X0000171299Y0001468464D01*
G37*
G36*
X0001717883Y0001818446D02*
X0001730247Y0001815986D01*
X0001753540Y0001806338D01*
X0001764941Y0001798720D01*
X0001774503Y0001792331D01*
X0001792331Y0001774503D01*
X0001792331Y0001774503D01*
X0001806338Y0001753540D01*
X0001811130Y0001741970D01*
X0001815986Y0001730247D01*
X0001820905Y0001705519D01*
X0001820905Y0001680307D01*
X0001818446Y0001667943D01*
X0001815986Y0001655579D01*
X0001806338Y0001632286D01*
X0001796585Y0001617689D01*
X0001792331Y0001611323D01*
X0001774503Y0001593495D01*
X0001774503Y0001593495D01*
X0001753540Y0001579488D01*
X0001730247Y0001569839D01*
X0001717883Y0001567380D01*
X0001705519Y0001564921D01*
X0001680307Y0001564921D01*
X0001667943Y0001567380D01*
X0001655579Y0001569839D01*
X0001632286Y0001579488D01*
X0001611323Y0001593495D01*
X0001611323Y0001593495D01*
X0001593495Y0001611323D01*
X0001589241Y0001617689D01*
X0001579488Y0001632286D01*
X0001569839Y0001655579D01*
X0001567380Y0001667943D01*
X0001564921Y0001680307D01*
X0001564921Y0001705519D01*
X0001569839Y0001730247D01*
X0001574695Y0001741970D01*
X0001579488Y0001753540D01*
X0001593495Y0001774503D01*
X0001593495Y0001774503D01*
X0001611323Y0001792331D01*
X0001620884Y0001798720D01*
X0001632286Y0001806338D01*
X0001655579Y0001815986D01*
X0001667943Y0001818446D01*
X0001680307Y0001820905D01*
X0001705519Y0001820905D01*
X0001717883Y0001818446D01*
X0001717883Y0001818446D01*
G37*
G36*
X0000221820Y0001818446D02*
X0000234184Y0001815986D01*
X0000257477Y0001806338D01*
X0000268878Y0001798720D01*
X0000278440Y0001792331D01*
X0000296268Y0001774503D01*
X0000296268Y0001774503D01*
X0000310275Y0001753540D01*
X0000315067Y0001741970D01*
X0000319923Y0001730247D01*
X0000324842Y0001705519D01*
X0000324842Y0001680307D01*
X0000322383Y0001667943D01*
X0000319923Y0001655579D01*
X0000310275Y0001632286D01*
X0000300522Y0001617689D01*
X0000296268Y0001611323D01*
X0000278440Y0001593495D01*
X0000278440Y0001593495D01*
X0000257477Y0001579488D01*
X0000234184Y0001569839D01*
X0000221820Y0001567380D01*
X0000209456Y0001564921D01*
X0000184244Y0001564921D01*
X0000171880Y0001567380D01*
X0000159516Y0001569839D01*
X0000136223Y0001579488D01*
X0000115260Y0001593495D01*
X0000115260Y0001593495D01*
X0000097432Y0001611323D01*
X0000093178Y0001617689D01*
X0000083425Y0001632286D01*
X0000073776Y0001655579D01*
X0000071317Y0001667943D01*
X0000068858Y0001680307D01*
X0000068858Y0001705519D01*
X0000073776Y0001730247D01*
X0000078632Y0001741970D01*
X0000083425Y0001753540D01*
X0000097432Y0001774503D01*
X0000097432Y0001774503D01*
X0000115260Y0001792331D01*
X0000124821Y0001798720D01*
X0000136223Y0001806338D01*
X0000159516Y0001815986D01*
X0000171880Y0001818446D01*
X0000184244Y0001820905D01*
X0000209456Y0001820905D01*
X0000221820Y0001818446D01*
X0000221820Y0001818446D01*
G37*
G04 next file*
G04 #@! TF.GenerationSoftware,KiCad,Pcbnew,(5.0.2)-1*
G04 #@! TF.CreationDate,2019-01-06T12:14:53+11:00*
G04 #@! TF.ProjectId,Filter_Bank_Dev_Rev_0,46696c74-6572-45f4-9261-6e6b5f446576,0*
G04 #@! TF.SameCoordinates,Original*
G04 #@! TF.FileFunction,Soldermask,Bot*
G04 #@! TF.FilePolarity,Negative*
G04 Gerber Fmt 4.6, Leading zero omitted, Abs format (unit mm)*
G04 Created by KiCad (PCBNEW (5.0.2)-1) date 6/01/2019 12:14:53*
G01*
G04 APERTURE LIST*
G04 APERTURE END LIST*
D22*
G04 #@! TO.C,REF\002A\002A*
G36*
X0003324803Y0000169291D02*
X0003561023Y0000169291D01*
X0003561023Y0000080708D01*
X0003324803Y0000080708D01*
X0003324803Y0000169291D01*
G37*
X0003324803Y0000169291D02*
X0003561023Y0000169291D01*
X0003561023Y0000080708D01*
X0003324803Y0000080708D01*
X0003324803Y0000169291D01*
D23*
G36*
X0003765127Y0000322383D02*
X0003777491Y0000319923D01*
X0003800784Y0000310275D01*
X0003812185Y0000302657D01*
X0003821747Y0000296268D01*
X0003839575Y0000278440D01*
X0003839575Y0000278440D01*
X0003853582Y0000257477D01*
X0003858374Y0000245907D01*
X0003863230Y0000234184D01*
X0003868149Y0000209456D01*
X0003868149Y0000184244D01*
X0003865690Y0000171880D01*
X0003863230Y0000159516D01*
X0003853582Y0000136223D01*
X0003843829Y0000121626D01*
X0003839575Y0000115260D01*
X0003821747Y0000097432D01*
X0003821747Y0000097432D01*
X0003800784Y0000083425D01*
X0003777491Y0000073776D01*
X0003765127Y0000071317D01*
X0003752763Y0000068858D01*
X0003727551Y0000068858D01*
X0003715187Y0000071317D01*
X0003702823Y0000073776D01*
X0003679530Y0000083425D01*
X0003658567Y0000097432D01*
X0003658567Y0000097432D01*
X0003640739Y0000115260D01*
X0003636485Y0000121626D01*
X0003626732Y0000136223D01*
X0003617083Y0000159516D01*
X0003614624Y0000171880D01*
X0003612165Y0000184244D01*
X0003612165Y0000209456D01*
X0003617083Y0000234184D01*
X0003621940Y0000245907D01*
X0003626732Y0000257477D01*
X0003640739Y0000278440D01*
X0003640739Y0000278440D01*
X0003658567Y0000296268D01*
X0003668129Y0000302657D01*
X0003679530Y0000310275D01*
X0003702823Y0000319923D01*
X0003715187Y0000322383D01*
X0003727551Y0000324842D01*
X0003752763Y0000324842D01*
X0003765127Y0000322383D01*
X0003765127Y0000322383D01*
G37*
G36*
X0002269064Y0000322383D02*
X0002281428Y0000319923D01*
X0002304721Y0000310275D01*
X0002316122Y0000302657D01*
X0002325684Y0000296268D01*
X0002343512Y0000278440D01*
X0002343512Y0000278440D01*
X0002357519Y0000257477D01*
X0002362311Y0000245907D01*
X0002367167Y0000234184D01*
X0002372086Y0000209456D01*
X0002372086Y0000184244D01*
X0002369627Y0000171880D01*
X0002367167Y0000159516D01*
X0002357519Y0000136223D01*
X0002347766Y0000121626D01*
X0002343512Y0000115260D01*
X0002325684Y0000097432D01*
X0002325684Y0000097432D01*
X0002304721Y0000083425D01*
X0002281428Y0000073776D01*
X0002269064Y0000071317D01*
X0002256700Y0000068858D01*
X0002231488Y0000068858D01*
X0002219124Y0000071317D01*
X0002206760Y0000073776D01*
X0002183467Y0000083425D01*
X0002162504Y0000097432D01*
X0002162504Y0000097432D01*
X0002144676Y0000115260D01*
X0002140422Y0000121626D01*
X0002130669Y0000136223D01*
X0002121021Y0000159516D01*
X0002118561Y0000171880D01*
X0002116102Y0000184244D01*
X0002116102Y0000209456D01*
X0002121021Y0000234184D01*
X0002125877Y0000245907D01*
X0002130669Y0000257477D01*
X0002144676Y0000278440D01*
X0002144676Y0000278440D01*
X0002162504Y0000296268D01*
X0002172066Y0000302657D01*
X0002183467Y0000310275D01*
X0002206760Y0000319923D01*
X0002219124Y0000322383D01*
X0002231488Y0000324842D01*
X0002256700Y0000324842D01*
X0002269064Y0000322383D01*
X0002269064Y0000322383D01*
G37*
G36*
X0003004030Y0000667913D02*
X0003006545Y0000666872D01*
X0003008809Y0000665359D01*
X0003010733Y0000663435D01*
X0003012246Y0000661171D01*
X0003013287Y0000658656D01*
X0003013818Y0000655987D01*
X0003013818Y0000653264D01*
X0003013287Y0000650595D01*
X0003012246Y0000648080D01*
X0003010733Y0000645816D01*
X0003008809Y0000643892D01*
X0003006545Y0000642379D01*
X0003004030Y0000641338D01*
X0003001361Y0000640807D01*
X0002998638Y0000640807D01*
X0002995969Y0000641338D01*
X0002993454Y0000642379D01*
X0002991190Y0000643892D01*
X0002989266Y0000645816D01*
X0002987753Y0000648080D01*
X0002986712Y0000650595D01*
X0002986181Y0000653264D01*
X0002986181Y0000655987D01*
X0002986712Y0000658656D01*
X0002987753Y0000661171D01*
X0002989266Y0000663435D01*
X0002991190Y0000665359D01*
X0002993454Y0000666872D01*
X0002995969Y0000667913D01*
X0002998638Y0000668444D01*
X0003001361Y0000668444D01*
X0003004030Y0000667913D01*
X0003004030Y0000667913D01*
G37*
G36*
X0003004030Y0000762401D02*
X0003006545Y0000761360D01*
X0003008809Y0000759847D01*
X0003010733Y0000757923D01*
X0003012246Y0000755659D01*
X0003013287Y0000753145D01*
X0003013818Y0000750475D01*
X0003013818Y0000747753D01*
X0003013287Y0000745083D01*
X0003012246Y0000742568D01*
X0003010733Y0000740305D01*
X0003008809Y0000738380D01*
X0003006545Y0000736868D01*
X0003004030Y0000735826D01*
X0003001361Y0000735295D01*
X0002998638Y0000735295D01*
X0002995969Y0000735826D01*
X0002993454Y0000736868D01*
X0002991190Y0000738380D01*
X0002989266Y0000740305D01*
X0002987753Y0000742568D01*
X0002986712Y0000745083D01*
X0002986181Y0000747753D01*
X0002986181Y0000750475D01*
X0002986712Y0000753145D01*
X0002987753Y0000755659D01*
X0002989266Y0000757923D01*
X0002991190Y0000759847D01*
X0002993454Y0000761360D01*
X0002995969Y0000762401D01*
X0002998638Y0000762933D01*
X0003001361Y0000762933D01*
X0003004030Y0000762401D01*
X0003004030Y0000762401D01*
G37*
G36*
X0003004030Y0000822342D02*
X0003006545Y0000821301D01*
X0003008809Y0000819788D01*
X0003010733Y0000817864D01*
X0003012246Y0000815600D01*
X0003013287Y0000813085D01*
X0003013818Y0000810416D01*
X0003013818Y0000807694D01*
X0003013287Y0000805024D01*
X0003012246Y0000802509D01*
X0003010733Y0000800246D01*
X0003008809Y0000798321D01*
X0003006545Y0000796808D01*
X0003004030Y0000795767D01*
X0003001361Y0000795236D01*
X0002998638Y0000795236D01*
X0002995969Y0000795767D01*
X0002993454Y0000796808D01*
X0002991190Y0000798321D01*
X0002989266Y0000800246D01*
X0002987753Y0000802509D01*
X0002986712Y0000805024D01*
X0002986181Y0000807694D01*
X0002986181Y0000810416D01*
X0002986712Y0000813085D01*
X0002987753Y0000815600D01*
X0002989266Y0000817864D01*
X0002991190Y0000819788D01*
X0002993454Y0000821301D01*
X0002995969Y0000822342D01*
X0002998638Y0000822873D01*
X0003001361Y0000822873D01*
X0003004030Y0000822342D01*
X0003004030Y0000822342D01*
G37*
G36*
X0003935078Y0000844448D02*
X0003765708Y0000844448D01*
X0003765708Y0000901614D01*
X0003935078Y0000901614D01*
X0003935078Y0000844448D01*
X0003935078Y0000844448D01*
G37*
G36*
X0002218543Y0000844448D02*
X0002049173Y0000844448D01*
X0002049173Y0000901614D01*
X0002218543Y0000901614D01*
X0002218543Y0000844448D01*
X0002218543Y0000844448D01*
G37*
G36*
X0003004030Y0000916831D02*
X0003006545Y0000915789D01*
X0003008809Y0000914277D01*
X0003010733Y0000912352D01*
X0003012246Y0000910088D01*
X0003013287Y0000907574D01*
X0003013818Y0000904904D01*
X0003013818Y0000902182D01*
X0003013287Y0000899512D01*
X0003012246Y0000896997D01*
X0003010733Y0000894734D01*
X0003008809Y0000892809D01*
X0003006545Y0000891297D01*
X0003004030Y0000890255D01*
X0003001361Y0000889724D01*
X0002998638Y0000889724D01*
X0002995969Y0000890255D01*
X0002993454Y0000891297D01*
X0002991190Y0000892809D01*
X0002989266Y0000894734D01*
X0002987753Y0000896997D01*
X0002986712Y0000899512D01*
X0002986181Y0000902182D01*
X0002986181Y0000904904D01*
X0002986712Y0000907574D01*
X0002987753Y0000910088D01*
X0002989266Y0000912352D01*
X0002991190Y0000914277D01*
X0002993454Y0000915789D01*
X0002995969Y0000916831D01*
X0002998638Y0000917362D01*
X0003001361Y0000917362D01*
X0003004030Y0000916831D01*
X0003004030Y0000916831D01*
G37*
G36*
X0003005999Y0001058563D02*
X0003008514Y0001057521D01*
X0003010777Y0001056009D01*
X0003012702Y0001054084D01*
X0003014214Y0001051821D01*
X0003015256Y0001049306D01*
X0003015787Y0001046636D01*
X0003015787Y0001043914D01*
X0003015256Y0001041244D01*
X0003014214Y0001038729D01*
X0003012702Y0001036466D01*
X0003010777Y0001034541D01*
X0003008514Y0001033029D01*
X0003005999Y0001031987D01*
X0003003329Y0001031456D01*
X0003000607Y0001031456D01*
X0002997937Y0001031987D01*
X0002995422Y0001033029D01*
X0002993159Y0001034541D01*
X0002991234Y0001036466D01*
X0002989722Y0001038729D01*
X0002988680Y0001041244D01*
X0002988149Y0001043914D01*
X0002988149Y0001046636D01*
X0002988680Y0001049306D01*
X0002989722Y0001051821D01*
X0002991234Y0001054084D01*
X0002993159Y0001056009D01*
X0002995422Y0001057521D01*
X0002997937Y0001058563D01*
X0003000607Y0001059094D01*
X0003003329Y0001059094D01*
X0003005999Y0001058563D01*
X0003005999Y0001058563D01*
G37*
G36*
X0003935078Y0001066889D02*
X0003765708Y0001066889D01*
X0003765708Y0001124055D01*
X0003935078Y0001124055D01*
X0003935078Y0001066889D01*
X0003935078Y0001066889D01*
G37*
G36*
X0002218543Y0001066889D02*
X0002049173Y0001066889D01*
X0002049173Y0001124055D01*
X0002218543Y0001124055D01*
X0002218543Y0001066889D01*
X0002218543Y0001066889D01*
G37*
G36*
X0003005999Y0001153051D02*
X0003008514Y0001152009D01*
X0003010777Y0001150497D01*
X0003012702Y0001148572D01*
X0003014214Y0001146309D01*
X0003015256Y0001143794D01*
X0003015787Y0001141124D01*
X0003015787Y0001138402D01*
X0003015256Y0001135732D01*
X0003014214Y0001133218D01*
X0003012702Y0001130954D01*
X0003010777Y0001129029D01*
X0003008514Y0001127517D01*
X0003005999Y0001126475D01*
X0003003329Y0001125944D01*
X0003000607Y0001125944D01*
X0002997937Y0001126475D01*
X0002995422Y0001127517D01*
X0002993159Y0001129029D01*
X0002991234Y0001130954D01*
X0002989722Y0001133218D01*
X0002988680Y0001135732D01*
X0002988149Y0001138402D01*
X0002988149Y0001141124D01*
X0002988680Y0001143794D01*
X0002989722Y0001146309D01*
X0002991234Y0001148572D01*
X0002993159Y0001150497D01*
X0002995422Y0001152009D01*
X0002997937Y0001153051D01*
X0003000607Y0001153582D01*
X0003003329Y0001153582D01*
X0003005999Y0001153051D01*
X0003005999Y0001153051D01*
G37*
G36*
X0003004030Y0001216043D02*
X0003006545Y0001215002D01*
X0003008809Y0001213489D01*
X0003010733Y0001211564D01*
X0003012246Y0001209301D01*
X0003013287Y0001206786D01*
X0003013818Y0001204116D01*
X0003013818Y0001201394D01*
X0003013287Y0001198725D01*
X0003012246Y0001196210D01*
X0003010733Y0001193946D01*
X0003008809Y0001192022D01*
X0003006545Y0001190509D01*
X0003004030Y0001189468D01*
X0003001361Y0001188936D01*
X0002998638Y0001188936D01*
X0002995969Y0001189468D01*
X0002993454Y0001190509D01*
X0002991190Y0001192022D01*
X0002989266Y0001193946D01*
X0002987753Y0001196210D01*
X0002986712Y0001198725D01*
X0002986181Y0001201394D01*
X0002986181Y0001204116D01*
X0002986712Y0001206786D01*
X0002987753Y0001209301D01*
X0002989266Y0001211564D01*
X0002991190Y0001213489D01*
X0002993454Y0001215002D01*
X0002995969Y0001216043D01*
X0002998638Y0001216574D01*
X0003001361Y0001216574D01*
X0003004030Y0001216043D01*
X0003004030Y0001216043D01*
G37*
G36*
X0003004030Y0001310531D02*
X0003006545Y0001309490D01*
X0003008809Y0001307977D01*
X0003010733Y0001306053D01*
X0003012246Y0001303789D01*
X0003013287Y0001301274D01*
X0003013818Y0001298605D01*
X0003013818Y0001295883D01*
X0003013287Y0001293213D01*
X0003012246Y0001290698D01*
X0003010733Y0001288435D01*
X0003008809Y0001286510D01*
X0003006545Y0001284997D01*
X0003004030Y0001283956D01*
X0003001361Y0001283425D01*
X0002998638Y0001283425D01*
X0002995969Y0001283956D01*
X0002993454Y0001284997D01*
X0002991190Y0001286510D01*
X0002989266Y0001288435D01*
X0002987753Y0001290698D01*
X0002986712Y0001293213D01*
X0002986181Y0001295883D01*
X0002986181Y0001298605D01*
X0002986712Y0001301274D01*
X0002987753Y0001303789D01*
X0002989266Y0001306053D01*
X0002991190Y0001307977D01*
X0002993454Y0001309490D01*
X0002995969Y0001310531D01*
X0002998638Y0001311062D01*
X0003001361Y0001311062D01*
X0003004030Y0001310531D01*
X0003004030Y0001310531D01*
G37*
G36*
X0003765127Y0001818446D02*
X0003777491Y0001815986D01*
X0003800784Y0001806338D01*
X0003812185Y0001798720D01*
X0003821747Y0001792331D01*
X0003839575Y0001774503D01*
X0003839575Y0001774503D01*
X0003853582Y0001753540D01*
X0003861262Y0001735000D01*
X0003863230Y0001730247D01*
X0003868149Y0001705519D01*
X0003868149Y0001680307D01*
X0003865690Y0001667943D01*
X0003863230Y0001655579D01*
X0003853582Y0001632286D01*
X0003843829Y0001617689D01*
X0003839575Y0001611323D01*
X0003821747Y0001593495D01*
X0003821747Y0001593495D01*
X0003800784Y0001579488D01*
X0003777491Y0001569839D01*
X0003765127Y0001567380D01*
X0003752763Y0001564921D01*
X0003727551Y0001564921D01*
X0003715187Y0001567380D01*
X0003702823Y0001569839D01*
X0003679530Y0001579488D01*
X0003658567Y0001593495D01*
X0003658567Y0001593495D01*
X0003640739Y0001611323D01*
X0003636485Y0001617689D01*
X0003626732Y0001632286D01*
X0003617083Y0001655579D01*
X0003614624Y0001667943D01*
X0003612165Y0001680307D01*
X0003612165Y0001705519D01*
X0003617083Y0001730247D01*
X0003619052Y0001735000D01*
X0003626732Y0001753540D01*
X0003640739Y0001774503D01*
X0003640739Y0001774503D01*
X0003658567Y0001792331D01*
X0003668129Y0001798720D01*
X0003679530Y0001806338D01*
X0003702823Y0001815986D01*
X0003715187Y0001818446D01*
X0003727551Y0001820905D01*
X0003752763Y0001820905D01*
X0003765127Y0001818446D01*
X0003765127Y0001818446D01*
G37*
G36*
X0002269064Y0001818446D02*
X0002281428Y0001815986D01*
X0002304721Y0001806338D01*
X0002316122Y0001798720D01*
X0002325684Y0001792331D01*
X0002343512Y0001774503D01*
X0002343512Y0001774503D01*
X0002357519Y0001753540D01*
X0002365199Y0001735000D01*
X0002367167Y0001730247D01*
X0002372086Y0001705519D01*
X0002372086Y0001680307D01*
X0002369627Y0001667943D01*
X0002367167Y0001655579D01*
X0002357519Y0001632286D01*
X0002347766Y0001617689D01*
X0002343512Y0001611323D01*
X0002325684Y0001593495D01*
X0002325684Y0001593495D01*
X0002304721Y0001579488D01*
X0002281428Y0001569839D01*
X0002269064Y0001567380D01*
X0002256700Y0001564921D01*
X0002231488Y0001564921D01*
X0002219124Y0001567380D01*
X0002206760Y0001569839D01*
X0002183467Y0001579488D01*
X0002162504Y0001593495D01*
X0002162504Y0001593495D01*
X0002144676Y0001611323D01*
X0002140422Y0001617689D01*
X0002130669Y0001632286D01*
X0002121021Y0001655579D01*
X0002118561Y0001667943D01*
X0002116102Y0001680307D01*
X0002116102Y0001705519D01*
X0002121021Y0001730247D01*
X0002122989Y0001735000D01*
X0002130669Y0001753540D01*
X0002144676Y0001774503D01*
X0002144676Y0001774503D01*
X0002162504Y0001792331D01*
X0002172066Y0001798720D01*
X0002183467Y0001806338D01*
X0002206760Y0001815986D01*
X0002219124Y0001818446D01*
X0002231488Y0001820905D01*
X0002256700Y0001820905D01*
X0002269064Y0001818446D01*
X0002269064Y0001818446D01*
G37*
G36*
X0003074896Y0001762106D02*
X0003077411Y0001761065D01*
X0003079675Y0001759552D01*
X0003081599Y0001757627D01*
X0003083112Y0001755364D01*
X0003084153Y0001752849D01*
X0003084685Y0001750179D01*
X0003084685Y0001747457D01*
X0003084153Y0001744788D01*
X0003083112Y0001742273D01*
X0003081599Y0001740009D01*
X0003079675Y0001738085D01*
X0003077411Y0001736572D01*
X0003074896Y0001735531D01*
X0003072227Y0001735000D01*
X0003069505Y0001735000D01*
X0003066835Y0001735531D01*
X0003064320Y0001736572D01*
X0003062057Y0001738085D01*
X0003060132Y0001740009D01*
X0003058620Y0001742273D01*
X0003057578Y0001744788D01*
X0003057047Y0001747457D01*
X0003057047Y0001750179D01*
X0003057578Y0001752849D01*
X0003058620Y0001755364D01*
X0003060132Y0001757627D01*
X0003062057Y0001759552D01*
X0003064320Y0001761065D01*
X0003066835Y0001762106D01*
X0003069505Y0001762637D01*
X0003072227Y0001762637D01*
X0003074896Y0001762106D01*
X0003074896Y0001762106D01*
G37*
G36*
X0002917416Y0001762106D02*
X0002919931Y0001761065D01*
X0002922194Y0001759552D01*
X0002924119Y0001757627D01*
X0002925631Y0001755364D01*
X0002926673Y0001752849D01*
X0002927204Y0001750179D01*
X0002927204Y0001747457D01*
X0002926673Y0001744788D01*
X0002925631Y0001742273D01*
X0002924119Y0001740009D01*
X0002922194Y0001738085D01*
X0002919931Y0001736572D01*
X0002917416Y0001735531D01*
X0002914746Y0001735000D01*
X0002912024Y0001735000D01*
X0002909355Y0001735531D01*
X0002906840Y0001736572D01*
X0002904576Y0001738085D01*
X0002902652Y0001740009D01*
X0002901139Y0001742273D01*
X0002900097Y0001744788D01*
X0002899566Y0001747457D01*
X0002899566Y0001750179D01*
X0002900097Y0001752849D01*
X0002901139Y0001755364D01*
X0002902652Y0001757627D01*
X0002904576Y0001759552D01*
X0002906840Y0001761065D01*
X0002909355Y0001762106D01*
X0002912024Y0001762637D01*
X0002914746Y0001762637D01*
X0002917416Y0001762106D01*
X0002917416Y0001762106D01*
G37*
G04 next file*
G04 #@! TF.GenerationSoftware,KiCad,Pcbnew,(5.0.2)-1*
G04 #@! TF.CreationDate,2019-01-06T11:55:21+11:00*
G04 #@! TF.ProjectId,Gain_Block_Dev_Rev_0,4761696e-5f42-46c6-9f63-6b5f4465765f,rev?*
G04 #@! TF.SameCoordinates,Original*
G04 #@! TF.FileFunction,Soldermask,Bot*
G04 #@! TF.FilePolarity,Negative*
G04 Gerber Fmt 4.6, Leading zero omitted, Abs format (unit mm)*
G04 Created by KiCad (PCBNEW (5.0.2)-1) date 6/01/2019 11:55:21*
G01*
G04 APERTURE LIST*
G04 APERTURE END LIST*
D24*
G04 #@! TO.C,REF\002A\002A*
G36*
X0002163385Y0002533464D02*
X0002399606Y0002533464D01*
X0002399606Y0002444881D01*
X0002163385Y0002444881D01*
X0002163385Y0002533464D01*
G37*
X0002163385Y0002533464D02*
X0002399606Y0002533464D01*
X0002399606Y0002444881D01*
X0002163385Y0002444881D01*
X0002163385Y0002533464D01*
D25*
G36*
X0003765127Y0002369627D02*
X0003777491Y0002367167D01*
X0003800784Y0002357519D01*
X0003812185Y0002349901D01*
X0003821747Y0002343512D01*
X0003839575Y0002325684D01*
X0003839575Y0002325684D01*
X0003853582Y0002304721D01*
X0003858374Y0002293151D01*
X0003863230Y0002281428D01*
X0003868149Y0002256700D01*
X0003868149Y0002231488D01*
X0003865690Y0002219124D01*
X0003863230Y0002206760D01*
X0003853582Y0002183467D01*
X0003844112Y0002169294D01*
X0003839575Y0002162504D01*
X0003821747Y0002144676D01*
X0003821747Y0002144676D01*
X0003800784Y0002130669D01*
X0003777491Y0002121021D01*
X0003765127Y0002118561D01*
X0003752763Y0002116102D01*
X0003727551Y0002116102D01*
X0003715187Y0002118561D01*
X0003702823Y0002121021D01*
X0003679530Y0002130669D01*
X0003658567Y0002144676D01*
X0003658567Y0002144676D01*
X0003640739Y0002162504D01*
X0003636202Y0002169294D01*
X0003626732Y0002183467D01*
X0003617083Y0002206760D01*
X0003614624Y0002219124D01*
X0003612165Y0002231488D01*
X0003612165Y0002256700D01*
X0003617083Y0002281428D01*
X0003621940Y0002293151D01*
X0003626732Y0002304721D01*
X0003640739Y0002325684D01*
X0003640739Y0002325684D01*
X0003658567Y0002343512D01*
X0003668129Y0002349901D01*
X0003679530Y0002357519D01*
X0003702823Y0002367167D01*
X0003715187Y0002369627D01*
X0003727551Y0002372086D01*
X0003752763Y0002372086D01*
X0003765127Y0002369627D01*
X0003765127Y0002369627D01*
G37*
G36*
X0002269064Y0002369627D02*
X0002281428Y0002367167D01*
X0002304721Y0002357519D01*
X0002316122Y0002349901D01*
X0002325684Y0002343512D01*
X0002343512Y0002325684D01*
X0002343512Y0002325684D01*
X0002357519Y0002304721D01*
X0002362311Y0002293151D01*
X0002367167Y0002281428D01*
X0002372086Y0002256700D01*
X0002372086Y0002231488D01*
X0002369627Y0002219124D01*
X0002367167Y0002206760D01*
X0002357519Y0002183467D01*
X0002348049Y0002169294D01*
X0002343512Y0002162504D01*
X0002325684Y0002144676D01*
X0002325684Y0002144676D01*
X0002304721Y0002130669D01*
X0002281428Y0002121021D01*
X0002269064Y0002118561D01*
X0002256700Y0002116102D01*
X0002231488Y0002116102D01*
X0002219124Y0002118561D01*
X0002206760Y0002121021D01*
X0002183467Y0002130669D01*
X0002162504Y0002144676D01*
X0002162504Y0002144676D01*
X0002144676Y0002162504D01*
X0002140139Y0002169294D01*
X0002130669Y0002183467D01*
X0002121021Y0002206760D01*
X0002118561Y0002219124D01*
X0002116102Y0002231488D01*
X0002116102Y0002256700D01*
X0002121021Y0002281428D01*
X0002125877Y0002293151D01*
X0002130669Y0002304721D01*
X0002144676Y0002325684D01*
X0002144676Y0002325684D01*
X0002162504Y0002343512D01*
X0002172066Y0002349901D01*
X0002183467Y0002357519D01*
X0002206760Y0002367167D01*
X0002219124Y0002369627D01*
X0002231488Y0002372086D01*
X0002256700Y0002372086D01*
X0002269064Y0002369627D01*
X0002269064Y0002369627D01*
G37*
G36*
X0002771922Y0002183609D02*
X0002771922Y0002183609D01*
X0002771922Y0002183609D01*
X0002778237Y0002181693D01*
X0002778237Y0002181693D01*
X0002778237Y0002181693D01*
X0002784058Y0002178582D01*
X0002789159Y0002174396D01*
X0002793346Y0002169294D01*
X0002796457Y0002163474D01*
X0002796457Y0002163474D01*
X0002796457Y0002163473D01*
X0002797655Y0002159525D01*
X0002798373Y0002157158D01*
X0002799020Y0002150590D01*
X0002798373Y0002144022D01*
X0002798373Y0002144022D01*
X0002798373Y0002144022D01*
X0002797515Y0002141195D01*
X0002796457Y0002137706D01*
X0002793346Y0002131886D01*
X0002789159Y0002126785D01*
X0002784058Y0002122598D01*
X0002778237Y0002119487D01*
X0002778237Y0002119487D01*
X0002778237Y0002119487D01*
X0002771922Y0002117571D01*
X0002771922Y0002117571D01*
X0002771922Y0002117571D01*
X0002767000Y0002117086D01*
X0002763708Y0002117086D01*
X0002758786Y0002117571D01*
X0002758786Y0002117571D01*
X0002758786Y0002117571D01*
X0002752470Y0002119487D01*
X0002752470Y0002119487D01*
X0002752470Y0002119487D01*
X0002746650Y0002122598D01*
X0002741548Y0002126785D01*
X0002737362Y0002131886D01*
X0002734251Y0002137706D01*
X0002733192Y0002141195D01*
X0002732335Y0002144022D01*
X0002732335Y0002144022D01*
X0002732335Y0002144022D01*
X0002731688Y0002150590D01*
X0002732335Y0002157158D01*
X0002733053Y0002159525D01*
X0002734250Y0002163473D01*
X0002734251Y0002163474D01*
X0002734251Y0002163474D01*
X0002737362Y0002169294D01*
X0002741548Y0002174396D01*
X0002746650Y0002178582D01*
X0002752470Y0002181693D01*
X0002752470Y0002181693D01*
X0002752470Y0002181693D01*
X0002758786Y0002183609D01*
X0002758786Y0002183609D01*
X0002758786Y0002183609D01*
X0002763708Y0002184094D01*
X0002767000Y0002184094D01*
X0002771922Y0002183609D01*
X0002771922Y0002183609D01*
G37*
G36*
X0002671922Y0002183609D02*
X0002671922Y0002183609D01*
X0002671922Y0002183609D01*
X0002678237Y0002181693D01*
X0002678237Y0002181693D01*
X0002678237Y0002181693D01*
X0002684058Y0002178582D01*
X0002689159Y0002174396D01*
X0002693346Y0002169294D01*
X0002696457Y0002163474D01*
X0002696457Y0002163474D01*
X0002696457Y0002163473D01*
X0002697655Y0002159525D01*
X0002698373Y0002157158D01*
X0002699020Y0002150590D01*
X0002698373Y0002144022D01*
X0002698373Y0002144022D01*
X0002698373Y0002144022D01*
X0002697515Y0002141195D01*
X0002696457Y0002137706D01*
X0002693346Y0002131886D01*
X0002689159Y0002126785D01*
X0002684058Y0002122598D01*
X0002678237Y0002119487D01*
X0002678237Y0002119487D01*
X0002678237Y0002119487D01*
X0002671922Y0002117571D01*
X0002671922Y0002117571D01*
X0002671922Y0002117571D01*
X0002667000Y0002117086D01*
X0002663708Y0002117086D01*
X0002658786Y0002117571D01*
X0002658786Y0002117571D01*
X0002658786Y0002117571D01*
X0002652470Y0002119487D01*
X0002652470Y0002119487D01*
X0002652470Y0002119487D01*
X0002646650Y0002122598D01*
X0002641548Y0002126785D01*
X0002637362Y0002131886D01*
X0002634251Y0002137706D01*
X0002633192Y0002141195D01*
X0002632335Y0002144022D01*
X0002632335Y0002144022D01*
X0002632335Y0002144022D01*
X0002631688Y0002150590D01*
X0002632335Y0002157158D01*
X0002633053Y0002159525D01*
X0002634250Y0002163473D01*
X0002634251Y0002163474D01*
X0002634251Y0002163474D01*
X0002637362Y0002169294D01*
X0002641548Y0002174396D01*
X0002646650Y0002178582D01*
X0002652470Y0002181693D01*
X0002652470Y0002181693D01*
X0002652470Y0002181693D01*
X0002658786Y0002183609D01*
X0002658786Y0002183609D01*
X0002658786Y0002183609D01*
X0002663708Y0002184094D01*
X0002667000Y0002184094D01*
X0002671922Y0002183609D01*
X0002671922Y0002183609D01*
G37*
G36*
X0002871922Y0002183609D02*
X0002871922Y0002183609D01*
X0002871922Y0002183609D01*
X0002878237Y0002181693D01*
X0002878237Y0002181693D01*
X0002878237Y0002181693D01*
X0002884058Y0002178582D01*
X0002889159Y0002174396D01*
X0002893346Y0002169294D01*
X0002896457Y0002163474D01*
X0002896457Y0002163474D01*
X0002896457Y0002163473D01*
X0002897655Y0002159525D01*
X0002898373Y0002157158D01*
X0002899020Y0002150590D01*
X0002898373Y0002144022D01*
X0002898373Y0002144022D01*
X0002898373Y0002144022D01*
X0002897515Y0002141195D01*
X0002896457Y0002137706D01*
X0002893346Y0002131886D01*
X0002889159Y0002126785D01*
X0002884058Y0002122598D01*
X0002878237Y0002119487D01*
X0002878237Y0002119487D01*
X0002878237Y0002119487D01*
X0002871922Y0002117571D01*
X0002871922Y0002117571D01*
X0002871922Y0002117571D01*
X0002867000Y0002117086D01*
X0002863708Y0002117086D01*
X0002858786Y0002117571D01*
X0002858786Y0002117571D01*
X0002858786Y0002117571D01*
X0002852470Y0002119487D01*
X0002852470Y0002119487D01*
X0002852470Y0002119487D01*
X0002846650Y0002122598D01*
X0002841548Y0002126785D01*
X0002837362Y0002131886D01*
X0002834251Y0002137706D01*
X0002833192Y0002141195D01*
X0002832335Y0002144022D01*
X0002832335Y0002144022D01*
X0002832335Y0002144022D01*
X0002831688Y0002150590D01*
X0002832335Y0002157158D01*
X0002833053Y0002159525D01*
X0002834250Y0002163473D01*
X0002834251Y0002163474D01*
X0002834251Y0002163474D01*
X0002837362Y0002169294D01*
X0002841548Y0002174396D01*
X0002846650Y0002178582D01*
X0002852470Y0002181693D01*
X0002852470Y0002181693D01*
X0002852470Y0002181693D01*
X0002858786Y0002183609D01*
X0002858786Y0002183609D01*
X0002858786Y0002183609D01*
X0002863708Y0002184094D01*
X0002867000Y0002184094D01*
X0002871922Y0002183609D01*
X0002871922Y0002183609D01*
G37*
G36*
X0002971922Y0002183609D02*
X0002971922Y0002183609D01*
X0002971922Y0002183609D01*
X0002978237Y0002181693D01*
X0002978237Y0002181693D01*
X0002978237Y0002181693D01*
X0002984058Y0002178582D01*
X0002989159Y0002174396D01*
X0002993346Y0002169294D01*
X0002996457Y0002163474D01*
X0002996457Y0002163474D01*
X0002996457Y0002163473D01*
X0002997655Y0002159525D01*
X0002998373Y0002157158D01*
X0002999020Y0002150590D01*
X0002998373Y0002144022D01*
X0002998373Y0002144022D01*
X0002998373Y0002144022D01*
X0002997515Y0002141195D01*
X0002996457Y0002137706D01*
X0002993346Y0002131886D01*
X0002989159Y0002126785D01*
X0002984058Y0002122598D01*
X0002978237Y0002119487D01*
X0002978237Y0002119487D01*
X0002978237Y0002119487D01*
X0002971922Y0002117571D01*
X0002971922Y0002117571D01*
X0002971922Y0002117571D01*
X0002967000Y0002117086D01*
X0002963708Y0002117086D01*
X0002958786Y0002117571D01*
X0002958786Y0002117571D01*
X0002958786Y0002117571D01*
X0002952470Y0002119487D01*
X0002952470Y0002119487D01*
X0002952470Y0002119487D01*
X0002946650Y0002122598D01*
X0002941548Y0002126785D01*
X0002937362Y0002131886D01*
X0002934251Y0002137706D01*
X0002933192Y0002141195D01*
X0002932335Y0002144022D01*
X0002932335Y0002144022D01*
X0002932335Y0002144022D01*
X0002931688Y0002150590D01*
X0002932335Y0002157158D01*
X0002933053Y0002159525D01*
X0002934250Y0002163473D01*
X0002934251Y0002163474D01*
X0002934251Y0002163474D01*
X0002937362Y0002169294D01*
X0002941548Y0002174396D01*
X0002946650Y0002178582D01*
X0002952470Y0002181693D01*
X0002952470Y0002181693D01*
X0002952470Y0002181693D01*
X0002958786Y0002183609D01*
X0002958786Y0002183609D01*
X0002958786Y0002183609D01*
X0002963708Y0002184094D01*
X0002967000Y0002184094D01*
X0002971922Y0002183609D01*
X0002971922Y0002183609D01*
G37*
G36*
X0003071922Y0002183609D02*
X0003071922Y0002183609D01*
X0003071922Y0002183609D01*
X0003078237Y0002181693D01*
X0003078237Y0002181693D01*
X0003078237Y0002181693D01*
X0003084058Y0002178582D01*
X0003089159Y0002174396D01*
X0003093346Y0002169294D01*
X0003096457Y0002163474D01*
X0003096457Y0002163474D01*
X0003096457Y0002163473D01*
X0003097655Y0002159525D01*
X0003098373Y0002157158D01*
X0003099020Y0002150590D01*
X0003098373Y0002144022D01*
X0003098373Y0002144022D01*
X0003098373Y0002144022D01*
X0003097515Y0002141195D01*
X0003096457Y0002137706D01*
X0003093346Y0002131886D01*
X0003089159Y0002126785D01*
X0003084058Y0002122598D01*
X0003078237Y0002119487D01*
X0003078237Y0002119487D01*
X0003078237Y0002119487D01*
X0003071922Y0002117571D01*
X0003071922Y0002117571D01*
X0003071922Y0002117571D01*
X0003067000Y0002117086D01*
X0003063708Y0002117086D01*
X0003058786Y0002117571D01*
X0003058786Y0002117571D01*
X0003058786Y0002117571D01*
X0003052470Y0002119487D01*
X0003052470Y0002119487D01*
X0003052470Y0002119487D01*
X0003046650Y0002122598D01*
X0003041548Y0002126785D01*
X0003037362Y0002131886D01*
X0003034251Y0002137706D01*
X0003033192Y0002141195D01*
X0003032335Y0002144022D01*
X0003032335Y0002144022D01*
X0003032335Y0002144022D01*
X0003031688Y0002150590D01*
X0003032335Y0002157158D01*
X0003033053Y0002159525D01*
X0003034250Y0002163473D01*
X0003034251Y0002163474D01*
X0003034251Y0002163474D01*
X0003037362Y0002169294D01*
X0003041548Y0002174396D01*
X0003046650Y0002178582D01*
X0003052470Y0002181693D01*
X0003052470Y0002181693D01*
X0003052470Y0002181693D01*
X0003058786Y0002183609D01*
X0003058786Y0002183609D01*
X0003058786Y0002183609D01*
X0003063708Y0002184094D01*
X0003067000Y0002184094D01*
X0003071922Y0002183609D01*
X0003071922Y0002183609D01*
G37*
G36*
X0003171922Y0002183609D02*
X0003171922Y0002183609D01*
X0003171922Y0002183609D01*
X0003178237Y0002181693D01*
X0003178237Y0002181693D01*
X0003178237Y0002181693D01*
X0003184058Y0002178582D01*
X0003189159Y0002174396D01*
X0003193346Y0002169294D01*
X0003196457Y0002163474D01*
X0003196457Y0002163474D01*
X0003196457Y0002163473D01*
X0003197655Y0002159525D01*
X0003198373Y0002157158D01*
X0003199020Y0002150590D01*
X0003198373Y0002144022D01*
X0003198373Y0002144022D01*
X0003198373Y0002144022D01*
X0003197515Y0002141195D01*
X0003196457Y0002137706D01*
X0003193346Y0002131886D01*
X0003189159Y0002126785D01*
X0003184058Y0002122598D01*
X0003178237Y0002119487D01*
X0003178237Y0002119487D01*
X0003178237Y0002119487D01*
X0003171922Y0002117571D01*
X0003171922Y0002117571D01*
X0003171922Y0002117571D01*
X0003167000Y0002117086D01*
X0003163708Y0002117086D01*
X0003158786Y0002117571D01*
X0003158786Y0002117571D01*
X0003158786Y0002117571D01*
X0003152470Y0002119487D01*
X0003152470Y0002119487D01*
X0003152470Y0002119487D01*
X0003146650Y0002122598D01*
X0003141548Y0002126785D01*
X0003137362Y0002131886D01*
X0003134251Y0002137706D01*
X0003133192Y0002141195D01*
X0003132335Y0002144022D01*
X0003132335Y0002144022D01*
X0003132335Y0002144022D01*
X0003131688Y0002150590D01*
X0003132335Y0002157158D01*
X0003133053Y0002159525D01*
X0003134250Y0002163473D01*
X0003134250Y0002163474D01*
X0003134251Y0002163474D01*
X0003137362Y0002169294D01*
X0003141548Y0002174396D01*
X0003146650Y0002178582D01*
X0003152470Y0002181693D01*
X0003152470Y0002181693D01*
X0003152470Y0002181693D01*
X0003158786Y0002183609D01*
X0003158786Y0002183609D01*
X0003158786Y0002183609D01*
X0003163708Y0002184094D01*
X0003167000Y0002184094D01*
X0003171922Y0002183609D01*
X0003171922Y0002183609D01*
G37*
G36*
X0003271922Y0002183609D02*
X0003271922Y0002183609D01*
X0003271922Y0002183609D01*
X0003278237Y0002181693D01*
X0003278237Y0002181693D01*
X0003278237Y0002181693D01*
X0003284058Y0002178582D01*
X0003289159Y0002174396D01*
X0003293346Y0002169294D01*
X0003296457Y0002163474D01*
X0003296457Y0002163474D01*
X0003296457Y0002163473D01*
X0003297655Y0002159525D01*
X0003298373Y0002157158D01*
X0003299020Y0002150590D01*
X0003298373Y0002144022D01*
X0003298373Y0002144022D01*
X0003298373Y0002144022D01*
X0003297515Y0002141195D01*
X0003296457Y0002137706D01*
X0003293346Y0002131886D01*
X0003289159Y0002126785D01*
X0003284058Y0002122598D01*
X0003278237Y0002119487D01*
X0003278237Y0002119487D01*
X0003278237Y0002119487D01*
X0003271922Y0002117571D01*
X0003271922Y0002117571D01*
X0003271922Y0002117571D01*
X0003267000Y0002117086D01*
X0003263708Y0002117086D01*
X0003258786Y0002117571D01*
X0003258786Y0002117571D01*
X0003258786Y0002117571D01*
X0003252470Y0002119487D01*
X0003252470Y0002119487D01*
X0003252470Y0002119487D01*
X0003246650Y0002122598D01*
X0003241548Y0002126785D01*
X0003237362Y0002131886D01*
X0003234251Y0002137706D01*
X0003233192Y0002141195D01*
X0003232335Y0002144022D01*
X0003232335Y0002144022D01*
X0003232335Y0002144022D01*
X0003231688Y0002150590D01*
X0003232335Y0002157158D01*
X0003233053Y0002159525D01*
X0003234250Y0002163473D01*
X0003234251Y0002163474D01*
X0003234251Y0002163474D01*
X0003237362Y0002169294D01*
X0003241548Y0002174396D01*
X0003246650Y0002178582D01*
X0003252470Y0002181693D01*
X0003252470Y0002181693D01*
X0003252470Y0002181693D01*
X0003258786Y0002183609D01*
X0003258786Y0002183609D01*
X0003258786Y0002183609D01*
X0003263708Y0002184094D01*
X0003267000Y0002184094D01*
X0003271922Y0002183609D01*
X0003271922Y0002183609D01*
G37*
G36*
X0003371922Y0002183609D02*
X0003371922Y0002183609D01*
X0003371922Y0002183609D01*
X0003378237Y0002181693D01*
X0003378237Y0002181693D01*
X0003378237Y0002181693D01*
X0003384058Y0002178582D01*
X0003389159Y0002174396D01*
X0003393346Y0002169294D01*
X0003396457Y0002163474D01*
X0003396457Y0002163474D01*
X0003396457Y0002163473D01*
X0003397655Y0002159525D01*
X0003398373Y0002157158D01*
X0003399020Y0002150590D01*
X0003398373Y0002144022D01*
X0003398373Y0002144022D01*
X0003398373Y0002144022D01*
X0003397515Y0002141195D01*
X0003396457Y0002137706D01*
X0003393346Y0002131886D01*
X0003389159Y0002126785D01*
X0003384058Y0002122598D01*
X0003378237Y0002119487D01*
X0003378237Y0002119487D01*
X0003378237Y0002119487D01*
X0003371922Y0002117571D01*
X0003371922Y0002117571D01*
X0003371922Y0002117571D01*
X0003367000Y0002117086D01*
X0003363708Y0002117086D01*
X0003358786Y0002117571D01*
X0003358786Y0002117571D01*
X0003358786Y0002117571D01*
X0003352470Y0002119487D01*
X0003352470Y0002119487D01*
X0003352470Y0002119487D01*
X0003346650Y0002122598D01*
X0003341548Y0002126785D01*
X0003337361Y0002131886D01*
X0003334251Y0002137706D01*
X0003333192Y0002141195D01*
X0003332335Y0002144022D01*
X0003332335Y0002144022D01*
X0003332335Y0002144022D01*
X0003331688Y0002150590D01*
X0003332335Y0002157158D01*
X0003333053Y0002159525D01*
X0003334250Y0002163473D01*
X0003334251Y0002163474D01*
X0003334251Y0002163474D01*
X0003337361Y0002169294D01*
X0003341548Y0002174396D01*
X0003346650Y0002178582D01*
X0003352470Y0002181693D01*
X0003352470Y0002181693D01*
X0003352470Y0002181693D01*
X0003358786Y0002183609D01*
X0003358786Y0002183609D01*
X0003358786Y0002183609D01*
X0003363708Y0002184094D01*
X0003367000Y0002184094D01*
X0003371922Y0002183609D01*
X0003371922Y0002183609D01*
G37*
G36*
X0003398858Y0002428897D02*
X0003331850Y0002428897D01*
X0003331850Y0002495905D01*
X0003398858Y0002495905D01*
X0003398858Y0002428897D01*
X0003398858Y0002428897D01*
G37*
G36*
X0003271922Y0002495420D02*
X0003271922Y0002495420D01*
X0003271922Y0002495420D01*
X0003278237Y0002493504D01*
X0003278237Y0002493504D01*
X0003278237Y0002493504D01*
X0003284058Y0002490393D01*
X0003289159Y0002486207D01*
X0003293346Y0002481105D01*
X0003296457Y0002475285D01*
X0003298373Y0002468969D01*
X0003299020Y0002462401D01*
X0003298373Y0002455833D01*
X0003296457Y0002449517D01*
X0003293346Y0002443697D01*
X0003289159Y0002438596D01*
X0003284058Y0002434409D01*
X0003278237Y0002431298D01*
X0003278237Y0002431298D01*
X0003278237Y0002431298D01*
X0003271922Y0002429382D01*
X0003271922Y0002429382D01*
X0003271922Y0002429382D01*
X0003267000Y0002428897D01*
X0003263708Y0002428897D01*
X0003258786Y0002429382D01*
X0003258786Y0002429382D01*
X0003258786Y0002429382D01*
X0003252470Y0002431298D01*
X0003252470Y0002431298D01*
X0003252470Y0002431298D01*
X0003246650Y0002434409D01*
X0003241548Y0002438596D01*
X0003237362Y0002443697D01*
X0003234251Y0002449517D01*
X0003232335Y0002455833D01*
X0003231688Y0002462401D01*
X0003232335Y0002468969D01*
X0003234251Y0002475285D01*
X0003237362Y0002481105D01*
X0003241548Y0002486207D01*
X0003246650Y0002490393D01*
X0003252470Y0002493504D01*
X0003252470Y0002493504D01*
X0003252470Y0002493504D01*
X0003258786Y0002495420D01*
X0003258786Y0002495420D01*
X0003258786Y0002495420D01*
X0003263708Y0002495905D01*
X0003267000Y0002495905D01*
X0003271922Y0002495420D01*
X0003271922Y0002495420D01*
G37*
G36*
X0002871922Y0002495420D02*
X0002871922Y0002495420D01*
X0002871922Y0002495420D01*
X0002878237Y0002493504D01*
X0002878237Y0002493504D01*
X0002878237Y0002493504D01*
X0002884058Y0002490393D01*
X0002889159Y0002486207D01*
X0002893346Y0002481105D01*
X0002896457Y0002475285D01*
X0002898373Y0002468969D01*
X0002899020Y0002462401D01*
X0002898373Y0002455833D01*
X0002896457Y0002449517D01*
X0002893346Y0002443697D01*
X0002889159Y0002438596D01*
X0002884058Y0002434409D01*
X0002878237Y0002431298D01*
X0002878237Y0002431298D01*
X0002878237Y0002431298D01*
X0002871922Y0002429382D01*
X0002871922Y0002429382D01*
X0002871922Y0002429382D01*
X0002867000Y0002428897D01*
X0002863708Y0002428897D01*
X0002858786Y0002429382D01*
X0002858786Y0002429382D01*
X0002858786Y0002429382D01*
X0002852470Y0002431298D01*
X0002852470Y0002431298D01*
X0002852470Y0002431298D01*
X0002846650Y0002434409D01*
X0002841548Y0002438596D01*
X0002837362Y0002443697D01*
X0002834251Y0002449517D01*
X0002832335Y0002455833D01*
X0002831688Y0002462401D01*
X0002832335Y0002468969D01*
X0002834251Y0002475285D01*
X0002837362Y0002481105D01*
X0002841548Y0002486207D01*
X0002846650Y0002490393D01*
X0002852470Y0002493504D01*
X0002852470Y0002493504D01*
X0002852470Y0002493504D01*
X0002858786Y0002495420D01*
X0002858786Y0002495420D01*
X0002858786Y0002495420D01*
X0002863708Y0002495905D01*
X0002867000Y0002495905D01*
X0002871922Y0002495420D01*
X0002871922Y0002495420D01*
G37*
G36*
X0003171922Y0002495420D02*
X0003171922Y0002495420D01*
X0003171922Y0002495420D01*
X0003178237Y0002493504D01*
X0003178237Y0002493504D01*
X0003178237Y0002493504D01*
X0003184058Y0002490393D01*
X0003189159Y0002486207D01*
X0003193346Y0002481105D01*
X0003196457Y0002475285D01*
X0003198373Y0002468969D01*
X0003199020Y0002462401D01*
X0003198373Y0002455833D01*
X0003196457Y0002449517D01*
X0003193346Y0002443697D01*
X0003189159Y0002438596D01*
X0003184058Y0002434409D01*
X0003178237Y0002431298D01*
X0003178237Y0002431298D01*
X0003178237Y0002431298D01*
X0003171922Y0002429382D01*
X0003171922Y0002429382D01*
X0003171922Y0002429382D01*
X0003167000Y0002428897D01*
X0003163708Y0002428897D01*
X0003158786Y0002429382D01*
X0003158786Y0002429382D01*
X0003158786Y0002429382D01*
X0003152470Y0002431298D01*
X0003152470Y0002431298D01*
X0003152470Y0002431298D01*
X0003146650Y0002434409D01*
X0003141548Y0002438596D01*
X0003137362Y0002443697D01*
X0003134251Y0002449517D01*
X0003132335Y0002455833D01*
X0003131688Y0002462401D01*
X0003132335Y0002468969D01*
X0003134251Y0002475285D01*
X0003137362Y0002481105D01*
X0003141548Y0002486207D01*
X0003146650Y0002490393D01*
X0003152470Y0002493504D01*
X0003152470Y0002493504D01*
X0003152470Y0002493504D01*
X0003158786Y0002495420D01*
X0003158786Y0002495420D01*
X0003158786Y0002495420D01*
X0003163708Y0002495905D01*
X0003167000Y0002495905D01*
X0003171922Y0002495420D01*
X0003171922Y0002495420D01*
G37*
G36*
X0002971922Y0002495420D02*
X0002971922Y0002495420D01*
X0002971922Y0002495420D01*
X0002978237Y0002493504D01*
X0002978237Y0002493504D01*
X0002978237Y0002493504D01*
X0002984058Y0002490393D01*
X0002989159Y0002486207D01*
X0002993346Y0002481105D01*
X0002996457Y0002475285D01*
X0002998373Y0002468969D01*
X0002999020Y0002462401D01*
X0002998373Y0002455833D01*
X0002996457Y0002449517D01*
X0002993346Y0002443697D01*
X0002989159Y0002438596D01*
X0002984058Y0002434409D01*
X0002978237Y0002431298D01*
X0002978237Y0002431298D01*
X0002978237Y0002431298D01*
X0002971922Y0002429382D01*
X0002971922Y0002429382D01*
X0002971922Y0002429382D01*
X0002967000Y0002428897D01*
X0002963708Y0002428897D01*
X0002958786Y0002429382D01*
X0002958786Y0002429382D01*
X0002958786Y0002429382D01*
X0002952470Y0002431298D01*
X0002952470Y0002431298D01*
X0002952470Y0002431298D01*
X0002946650Y0002434409D01*
X0002941548Y0002438596D01*
X0002937362Y0002443697D01*
X0002934251Y0002449517D01*
X0002932335Y0002455833D01*
X0002931688Y0002462401D01*
X0002932335Y0002468969D01*
X0002934251Y0002475285D01*
X0002937362Y0002481105D01*
X0002941548Y0002486207D01*
X0002946650Y0002490393D01*
X0002952470Y0002493504D01*
X0002952470Y0002493504D01*
X0002952470Y0002493504D01*
X0002958786Y0002495420D01*
X0002958786Y0002495420D01*
X0002958786Y0002495420D01*
X0002963708Y0002495905D01*
X0002967000Y0002495905D01*
X0002971922Y0002495420D01*
X0002971922Y0002495420D01*
G37*
G36*
X0002671922Y0002495420D02*
X0002671922Y0002495420D01*
X0002671922Y0002495420D01*
X0002678237Y0002493504D01*
X0002678237Y0002493504D01*
X0002678237Y0002493504D01*
X0002684058Y0002490393D01*
X0002689159Y0002486207D01*
X0002693346Y0002481105D01*
X0002696457Y0002475285D01*
X0002698373Y0002468969D01*
X0002699020Y0002462401D01*
X0002698373Y0002455833D01*
X0002696457Y0002449517D01*
X0002693346Y0002443697D01*
X0002689159Y0002438596D01*
X0002684058Y0002434409D01*
X0002678237Y0002431298D01*
X0002678237Y0002431298D01*
X0002678237Y0002431298D01*
X0002671922Y0002429382D01*
X0002671922Y0002429382D01*
X0002671922Y0002429382D01*
X0002667000Y0002428897D01*
X0002663708Y0002428897D01*
X0002658786Y0002429382D01*
X0002658786Y0002429382D01*
X0002658786Y0002429382D01*
X0002652470Y0002431298D01*
X0002652470Y0002431298D01*
X0002652470Y0002431298D01*
X0002646650Y0002434409D01*
X0002641548Y0002438596D01*
X0002637362Y0002443697D01*
X0002634251Y0002449517D01*
X0002632335Y0002455833D01*
X0002631688Y0002462401D01*
X0002632335Y0002468969D01*
X0002634251Y0002475285D01*
X0002637362Y0002481105D01*
X0002641548Y0002486207D01*
X0002646650Y0002490393D01*
X0002652470Y0002493504D01*
X0002652470Y0002493504D01*
X0002652470Y0002493504D01*
X0002658786Y0002495420D01*
X0002658786Y0002495420D01*
X0002658786Y0002495420D01*
X0002663708Y0002495905D01*
X0002667000Y0002495905D01*
X0002671922Y0002495420D01*
X0002671922Y0002495420D01*
G37*
G36*
X0002771922Y0002495420D02*
X0002771922Y0002495420D01*
X0002771922Y0002495420D01*
X0002778237Y0002493504D01*
X0002778237Y0002493504D01*
X0002778237Y0002493504D01*
X0002784058Y0002490393D01*
X0002789159Y0002486207D01*
X0002793346Y0002481105D01*
X0002796457Y0002475285D01*
X0002798373Y0002468969D01*
X0002799020Y0002462401D01*
X0002798373Y0002455833D01*
X0002796457Y0002449517D01*
X0002793346Y0002443697D01*
X0002789159Y0002438596D01*
X0002784058Y0002434409D01*
X0002778237Y0002431298D01*
X0002778237Y0002431298D01*
X0002778237Y0002431298D01*
X0002771922Y0002429382D01*
X0002771922Y0002429382D01*
X0002771922Y0002429382D01*
X0002767000Y0002428897D01*
X0002763708Y0002428897D01*
X0002758786Y0002429382D01*
X0002758786Y0002429382D01*
X0002758786Y0002429382D01*
X0002752470Y0002431298D01*
X0002752470Y0002431298D01*
X0002752470Y0002431298D01*
X0002746650Y0002434409D01*
X0002741548Y0002438596D01*
X0002737362Y0002443697D01*
X0002734251Y0002449517D01*
X0002732335Y0002455833D01*
X0002731688Y0002462401D01*
X0002732335Y0002468969D01*
X0002734251Y0002475285D01*
X0002737362Y0002481105D01*
X0002741548Y0002486207D01*
X0002746650Y0002490393D01*
X0002752470Y0002493504D01*
X0002752470Y0002493504D01*
X0002752470Y0002493504D01*
X0002758786Y0002495420D01*
X0002758786Y0002495420D01*
X0002758786Y0002495420D01*
X0002763708Y0002495905D01*
X0002767000Y0002495905D01*
X0002771922Y0002495420D01*
X0002771922Y0002495420D01*
G37*
G36*
X0003071922Y0002495420D02*
X0003071922Y0002495420D01*
X0003071922Y0002495420D01*
X0003078237Y0002493504D01*
X0003078237Y0002493504D01*
X0003078237Y0002493504D01*
X0003084058Y0002490393D01*
X0003089159Y0002486207D01*
X0003093346Y0002481105D01*
X0003096457Y0002475285D01*
X0003098373Y0002468969D01*
X0003099020Y0002462401D01*
X0003098373Y0002455833D01*
X0003096457Y0002449517D01*
X0003093346Y0002443697D01*
X0003089159Y0002438596D01*
X0003084058Y0002434409D01*
X0003078237Y0002431298D01*
X0003078237Y0002431298D01*
X0003078237Y0002431298D01*
X0003071922Y0002429382D01*
X0003071922Y0002429382D01*
X0003071922Y0002429382D01*
X0003067000Y0002428897D01*
X0003063708Y0002428897D01*
X0003058786Y0002429382D01*
X0003058786Y0002429382D01*
X0003058786Y0002429382D01*
X0003052470Y0002431298D01*
X0003052470Y0002431298D01*
X0003052470Y0002431298D01*
X0003046650Y0002434409D01*
X0003041548Y0002438596D01*
X0003037362Y0002443697D01*
X0003034251Y0002449517D01*
X0003032335Y0002455833D01*
X0003031688Y0002462401D01*
X0003032335Y0002468969D01*
X0003034251Y0002475285D01*
X0003037362Y0002481105D01*
X0003041548Y0002486207D01*
X0003046650Y0002490393D01*
X0003052470Y0002493504D01*
X0003052470Y0002493504D01*
X0003052470Y0002493504D01*
X0003058786Y0002495420D01*
X0003058786Y0002495420D01*
X0003058786Y0002495420D01*
X0003063708Y0002495905D01*
X0003067000Y0002495905D01*
X0003071922Y0002495420D01*
X0003071922Y0002495420D01*
G37*
G36*
X0003931141Y0002809015D02*
X0003761771Y0002809015D01*
X0003761771Y0002866181D01*
X0003931141Y0002866181D01*
X0003931141Y0002809015D01*
X0003931141Y0002809015D01*
G37*
G36*
X0002214606Y0002809015D02*
X0002045236Y0002809015D01*
X0002045236Y0002866181D01*
X0002214606Y0002866181D01*
X0002214606Y0002809015D01*
X0002214606Y0002809015D01*
G37*
G36*
X0002214606Y0003031456D02*
X0002045236Y0003031456D01*
X0002045236Y0003088622D01*
X0002214606Y0003088622D01*
X0002214606Y0003031456D01*
X0002214606Y0003031456D01*
G37*
G36*
X0003931141Y0003031456D02*
X0003761771Y0003031456D01*
X0003761771Y0003088622D01*
X0003931141Y0003088622D01*
X0003931141Y0003031456D01*
X0003931141Y0003031456D01*
G37*
G36*
X0002535844Y0003295845D02*
X0002538449Y0003295589D01*
X0002542907Y0003294236D01*
X0002545136Y0003293560D01*
X0002550593Y0003290643D01*
X0002551298Y0003290266D01*
X0002552705Y0003289112D01*
X0002556700Y0003285834D01*
X0002559978Y0003281839D01*
X0002561132Y0003280432D01*
X0002561133Y0003280432D01*
X0002564426Y0003274270D01*
X0002564426Y0003274270D01*
X0002566455Y0003267583D01*
X0002567140Y0003260629D01*
X0002566455Y0003253676D01*
X0002565102Y0003249218D01*
X0002564426Y0003246989D01*
X0002561509Y0003241532D01*
X0002561132Y0003240827D01*
X0002559978Y0003239420D01*
X0002556700Y0003235425D01*
X0002552705Y0003232147D01*
X0002551298Y0003230992D01*
X0002551298Y0003230992D01*
X0002545136Y0003227699D01*
X0002542907Y0003227022D01*
X0002538449Y0003225670D01*
X0002535844Y0003225414D01*
X0002533238Y0003225157D01*
X0002529753Y0003225157D01*
X0002527147Y0003225414D01*
X0002524542Y0003225670D01*
X0002520084Y0003227022D01*
X0002517855Y0003227699D01*
X0002511693Y0003230992D01*
X0002511693Y0003230992D01*
X0002510286Y0003232147D01*
X0002506291Y0003235425D01*
X0002503013Y0003239420D01*
X0002501859Y0003240827D01*
X0002501482Y0003241532D01*
X0002498565Y0003246989D01*
X0002497889Y0003249218D01*
X0002496536Y0003253676D01*
X0002495851Y0003260629D01*
X0002496536Y0003267583D01*
X0002498565Y0003274270D01*
X0002498565Y0003274270D01*
X0002501859Y0003280432D01*
X0002501859Y0003280432D01*
X0002503013Y0003281839D01*
X0002506291Y0003285834D01*
X0002510286Y0003289112D01*
X0002511693Y0003290266D01*
X0002512398Y0003290643D01*
X0002517855Y0003293560D01*
X0002520084Y0003294236D01*
X0002524542Y0003295589D01*
X0002527147Y0003295845D01*
X0002529753Y0003296102D01*
X0002533238Y0003296102D01*
X0002535844Y0003295845D01*
X0002535844Y0003295845D01*
G37*
G36*
X0002635844Y0003295845D02*
X0002638449Y0003295589D01*
X0002642907Y0003294236D01*
X0002645136Y0003293560D01*
X0002650593Y0003290643D01*
X0002651298Y0003290266D01*
X0002652705Y0003289112D01*
X0002656700Y0003285834D01*
X0002659978Y0003281839D01*
X0002661132Y0003280432D01*
X0002661133Y0003280432D01*
X0002664426Y0003274270D01*
X0002664426Y0003274270D01*
X0002666455Y0003267583D01*
X0002667140Y0003260629D01*
X0002666455Y0003253676D01*
X0002665102Y0003249218D01*
X0002664426Y0003246989D01*
X0002661509Y0003241532D01*
X0002661132Y0003240827D01*
X0002659978Y0003239420D01*
X0002656700Y0003235425D01*
X0002652705Y0003232147D01*
X0002651298Y0003230992D01*
X0002651298Y0003230992D01*
X0002645136Y0003227699D01*
X0002642907Y0003227022D01*
X0002638449Y0003225670D01*
X0002635844Y0003225414D01*
X0002633238Y0003225157D01*
X0002629753Y0003225157D01*
X0002627147Y0003225414D01*
X0002624542Y0003225670D01*
X0002620084Y0003227022D01*
X0002617855Y0003227699D01*
X0002611693Y0003230992D01*
X0002611693Y0003230992D01*
X0002610286Y0003232147D01*
X0002606291Y0003235425D01*
X0002603013Y0003239420D01*
X0002601859Y0003240827D01*
X0002601482Y0003241532D01*
X0002598565Y0003246989D01*
X0002597889Y0003249218D01*
X0002596536Y0003253676D01*
X0002595852Y0003260629D01*
X0002596536Y0003267583D01*
X0002598565Y0003274270D01*
X0002598565Y0003274270D01*
X0002601859Y0003280432D01*
X0002601859Y0003280432D01*
X0002603013Y0003281839D01*
X0002606291Y0003285834D01*
X0002610286Y0003289112D01*
X0002611693Y0003290266D01*
X0002612398Y0003290643D01*
X0002617855Y0003293560D01*
X0002620084Y0003294236D01*
X0002624542Y0003295589D01*
X0002627147Y0003295845D01*
X0002629753Y0003296102D01*
X0002633238Y0003296102D01*
X0002635844Y0003295845D01*
X0002635844Y0003295845D01*
G37*
G36*
X0002535844Y0003395845D02*
X0002538449Y0003395589D01*
X0002542907Y0003394236D01*
X0002545136Y0003393560D01*
X0002550593Y0003390643D01*
X0002551298Y0003390266D01*
X0002552705Y0003389112D01*
X0002556700Y0003385834D01*
X0002559978Y0003381839D01*
X0002561132Y0003380432D01*
X0002561133Y0003380432D01*
X0002564426Y0003374270D01*
X0002564426Y0003374270D01*
X0002566455Y0003367583D01*
X0002567140Y0003360629D01*
X0002566455Y0003353676D01*
X0002565102Y0003349218D01*
X0002564426Y0003346989D01*
X0002561509Y0003341532D01*
X0002561132Y0003340827D01*
X0002559978Y0003339420D01*
X0002556700Y0003335425D01*
X0002552705Y0003332147D01*
X0002551298Y0003330992D01*
X0002551298Y0003330992D01*
X0002545136Y0003327699D01*
X0002542907Y0003327022D01*
X0002538449Y0003325670D01*
X0002535844Y0003325414D01*
X0002533238Y0003325157D01*
X0002529753Y0003325157D01*
X0002527147Y0003325414D01*
X0002524542Y0003325670D01*
X0002520084Y0003327022D01*
X0002517855Y0003327699D01*
X0002511693Y0003330992D01*
X0002511693Y0003330992D01*
X0002510286Y0003332147D01*
X0002506291Y0003335425D01*
X0002503013Y0003339420D01*
X0002501859Y0003340827D01*
X0002501482Y0003341532D01*
X0002498565Y0003346989D01*
X0002497889Y0003349218D01*
X0002496536Y0003353676D01*
X0002495851Y0003360629D01*
X0002496536Y0003367583D01*
X0002498565Y0003374270D01*
X0002498565Y0003374270D01*
X0002501859Y0003380432D01*
X0002501859Y0003380432D01*
X0002503013Y0003381839D01*
X0002506291Y0003385834D01*
X0002510286Y0003389112D01*
X0002511693Y0003390266D01*
X0002512398Y0003390643D01*
X0002517855Y0003393560D01*
X0002520084Y0003394236D01*
X0002524542Y0003395589D01*
X0002527147Y0003395845D01*
X0002529753Y0003396102D01*
X0002533238Y0003396102D01*
X0002535844Y0003395845D01*
X0002535844Y0003395845D01*
G37*
G36*
X0002635844Y0003395845D02*
X0002638449Y0003395589D01*
X0002642907Y0003394236D01*
X0002645136Y0003393560D01*
X0002650593Y0003390643D01*
X0002651298Y0003390266D01*
X0002652705Y0003389112D01*
X0002656700Y0003385834D01*
X0002659978Y0003381839D01*
X0002661132Y0003380432D01*
X0002661133Y0003380432D01*
X0002664426Y0003374270D01*
X0002664426Y0003374270D01*
X0002666455Y0003367583D01*
X0002667140Y0003360629D01*
X0002666455Y0003353676D01*
X0002665102Y0003349218D01*
X0002664426Y0003346989D01*
X0002661509Y0003341532D01*
X0002661132Y0003340827D01*
X0002659978Y0003339420D01*
X0002656700Y0003335425D01*
X0002652705Y0003332147D01*
X0002651298Y0003330992D01*
X0002651298Y0003330992D01*
X0002645136Y0003327699D01*
X0002642907Y0003327022D01*
X0002638449Y0003325670D01*
X0002635844Y0003325414D01*
X0002633238Y0003325157D01*
X0002629753Y0003325157D01*
X0002627147Y0003325414D01*
X0002624542Y0003325670D01*
X0002620084Y0003327022D01*
X0002617855Y0003327699D01*
X0002611693Y0003330992D01*
X0002611693Y0003330992D01*
X0002610286Y0003332147D01*
X0002606291Y0003335425D01*
X0002603013Y0003339420D01*
X0002601859Y0003340827D01*
X0002601482Y0003341532D01*
X0002598565Y0003346989D01*
X0002597889Y0003349218D01*
X0002596536Y0003353676D01*
X0002595852Y0003360629D01*
X0002596536Y0003367583D01*
X0002598565Y0003374270D01*
X0002598565Y0003374270D01*
X0002601859Y0003380432D01*
X0002601859Y0003380432D01*
X0002603013Y0003381839D01*
X0002606291Y0003385834D01*
X0002610286Y0003389112D01*
X0002611693Y0003390266D01*
X0002612398Y0003390643D01*
X0002617855Y0003393560D01*
X0002620084Y0003394236D01*
X0002624542Y0003395589D01*
X0002627147Y0003395845D01*
X0002629753Y0003396102D01*
X0002633238Y0003396102D01*
X0002635844Y0003395845D01*
X0002635844Y0003395845D01*
G37*
G36*
X0002566968Y0003425157D02*
X0002496023Y0003425157D01*
X0002496023Y0003496102D01*
X0002566968Y0003496102D01*
X0002566968Y0003425157D01*
X0002566968Y0003425157D01*
G37*
G36*
X0002635844Y0003495845D02*
X0002638449Y0003495589D01*
X0002642907Y0003494236D01*
X0002645136Y0003493560D01*
X0002650593Y0003490643D01*
X0002651298Y0003490266D01*
X0002652705Y0003489112D01*
X0002656700Y0003485834D01*
X0002659978Y0003481839D01*
X0002661132Y0003480432D01*
X0002661133Y0003480432D01*
X0002664426Y0003474270D01*
X0002664426Y0003474270D01*
X0002666455Y0003467583D01*
X0002667140Y0003460629D01*
X0002666455Y0003453676D01*
X0002665102Y0003449218D01*
X0002664426Y0003446989D01*
X0002661509Y0003441532D01*
X0002661132Y0003440827D01*
X0002659978Y0003439420D01*
X0002656700Y0003435425D01*
X0002652705Y0003432147D01*
X0002651298Y0003430992D01*
X0002651298Y0003430992D01*
X0002645136Y0003427699D01*
X0002642907Y0003427022D01*
X0002638449Y0003425670D01*
X0002635844Y0003425414D01*
X0002633238Y0003425157D01*
X0002629753Y0003425157D01*
X0002627147Y0003425414D01*
X0002624542Y0003425670D01*
X0002620084Y0003427022D01*
X0002617855Y0003427699D01*
X0002611693Y0003430992D01*
X0002611693Y0003430992D01*
X0002610286Y0003432147D01*
X0002606291Y0003435425D01*
X0002603013Y0003439420D01*
X0002601859Y0003440827D01*
X0002601482Y0003441532D01*
X0002598565Y0003446989D01*
X0002597889Y0003449218D01*
X0002596536Y0003453676D01*
X0002595852Y0003460629D01*
X0002596536Y0003467583D01*
X0002598565Y0003474270D01*
X0002598565Y0003474270D01*
X0002601859Y0003480432D01*
X0002601859Y0003480432D01*
X0002603013Y0003481839D01*
X0002606291Y0003485834D01*
X0002610286Y0003489112D01*
X0002611693Y0003490266D01*
X0002612398Y0003490643D01*
X0002617855Y0003493560D01*
X0002620084Y0003494236D01*
X0002624542Y0003495589D01*
X0002627147Y0003495845D01*
X0002629753Y0003496102D01*
X0002633238Y0003496102D01*
X0002635844Y0003495845D01*
X0002635844Y0003495845D01*
G37*
G36*
X0002269064Y0003865690D02*
X0002281428Y0003863230D01*
X0002304721Y0003853582D01*
X0002316122Y0003845964D01*
X0002325684Y0003839575D01*
X0002343512Y0003821747D01*
X0002343512Y0003821747D01*
X0002357519Y0003800784D01*
X0002365199Y0003782244D01*
X0002367167Y0003777491D01*
X0002372086Y0003752763D01*
X0002372086Y0003727551D01*
X0002369627Y0003715187D01*
X0002367167Y0003702823D01*
X0002357519Y0003679530D01*
X0002347766Y0003664933D01*
X0002343512Y0003658567D01*
X0002325684Y0003640739D01*
X0002325684Y0003640739D01*
X0002304721Y0003626732D01*
X0002281428Y0003617084D01*
X0002269064Y0003614624D01*
X0002256700Y0003612165D01*
X0002231488Y0003612165D01*
X0002219124Y0003614624D01*
X0002206760Y0003617084D01*
X0002183467Y0003626732D01*
X0002162504Y0003640739D01*
X0002162504Y0003640739D01*
X0002144676Y0003658567D01*
X0002140422Y0003664933D01*
X0002130669Y0003679530D01*
X0002121021Y0003702823D01*
X0002118561Y0003715187D01*
X0002116102Y0003727551D01*
X0002116102Y0003752763D01*
X0002121021Y0003777491D01*
X0002122989Y0003782244D01*
X0002130669Y0003800784D01*
X0002144676Y0003821747D01*
X0002144676Y0003821747D01*
X0002162504Y0003839575D01*
X0002172066Y0003845964D01*
X0002183467Y0003853582D01*
X0002206760Y0003863230D01*
X0002219124Y0003865690D01*
X0002231488Y0003868149D01*
X0002256700Y0003868149D01*
X0002269064Y0003865690D01*
X0002269064Y0003865690D01*
G37*
G36*
X0003765127Y0003865690D02*
X0003777491Y0003863230D01*
X0003800784Y0003853582D01*
X0003812185Y0003845964D01*
X0003821747Y0003839575D01*
X0003839575Y0003821747D01*
X0003839575Y0003821747D01*
X0003853582Y0003800784D01*
X0003861262Y0003782244D01*
X0003863230Y0003777491D01*
X0003868149Y0003752763D01*
X0003868149Y0003727551D01*
X0003865690Y0003715187D01*
X0003863230Y0003702823D01*
X0003853582Y0003679530D01*
X0003843829Y0003664933D01*
X0003839575Y0003658567D01*
X0003821747Y0003640739D01*
X0003821747Y0003640739D01*
X0003800784Y0003626732D01*
X0003777491Y0003617084D01*
X0003765127Y0003614624D01*
X0003752763Y0003612165D01*
X0003727551Y0003612165D01*
X0003715187Y0003614624D01*
X0003702823Y0003617084D01*
X0003679530Y0003626732D01*
X0003658567Y0003640739D01*
X0003658567Y0003640739D01*
X0003640739Y0003658567D01*
X0003636485Y0003664933D01*
X0003626732Y0003679530D01*
X0003617083Y0003702823D01*
X0003614624Y0003715187D01*
X0003612165Y0003727551D01*
X0003612165Y0003752763D01*
X0003617083Y0003777491D01*
X0003619052Y0003782244D01*
X0003626732Y0003800784D01*
X0003640739Y0003821747D01*
X0003640739Y0003821747D01*
X0003658567Y0003839575D01*
X0003668129Y0003845964D01*
X0003679530Y0003853582D01*
X0003702823Y0003863230D01*
X0003715187Y0003865690D01*
X0003727551Y0003868149D01*
X0003752763Y0003868149D01*
X0003765127Y0003865690D01*
X0003765127Y0003865690D01*
G37*
G36*
X0003082770Y0003809350D02*
X0003085285Y0003808309D01*
X0003087549Y0003806796D01*
X0003089473Y0003804872D01*
X0003090986Y0003802608D01*
X0003092027Y0003800093D01*
X0003092559Y0003797424D01*
X0003092559Y0003794701D01*
X0003092027Y0003792032D01*
X0003090986Y0003789517D01*
X0003089473Y0003787253D01*
X0003087549Y0003785329D01*
X0003085285Y0003783816D01*
X0003082770Y0003782775D01*
X0003080101Y0003782244D01*
X0003077379Y0003782244D01*
X0003074709Y0003782775D01*
X0003072194Y0003783816D01*
X0003069931Y0003785329D01*
X0003068006Y0003787253D01*
X0003066494Y0003789517D01*
X0003065452Y0003792032D01*
X0003064921Y0003794701D01*
X0003064921Y0003797424D01*
X0003065452Y0003800093D01*
X0003066494Y0003802608D01*
X0003068006Y0003804872D01*
X0003069931Y0003806796D01*
X0003072194Y0003808309D01*
X0003074709Y0003809350D01*
X0003077379Y0003809881D01*
X0003080101Y0003809881D01*
X0003082770Y0003809350D01*
X0003082770Y0003809350D01*
G37*
G36*
X0002925290Y0003809350D02*
X0002927805Y0003808309D01*
X0002930068Y0003806796D01*
X0002931993Y0003804872D01*
X0002933505Y0003802608D01*
X0002934547Y0003800093D01*
X0002935078Y0003797424D01*
X0002935078Y0003794701D01*
X0002934547Y0003792032D01*
X0002933505Y0003789517D01*
X0002931993Y0003787253D01*
X0002930068Y0003785329D01*
X0002927805Y0003783816D01*
X0002925290Y0003782775D01*
X0002922620Y0003782244D01*
X0002919898Y0003782244D01*
X0002917229Y0003782775D01*
X0002914714Y0003783816D01*
X0002912450Y0003785329D01*
X0002910526Y0003787253D01*
X0002909013Y0003789517D01*
X0002907972Y0003792032D01*
X0002907440Y0003794701D01*
X0002907440Y0003797424D01*
X0002907972Y0003800093D01*
X0002909013Y0003802608D01*
X0002910526Y0003804872D01*
X0002912450Y0003806796D01*
X0002914714Y0003808309D01*
X0002917229Y0003809350D01*
X0002919898Y0003809881D01*
X0002922620Y0003809881D01*
X0002925290Y0003809350D01*
X0002925290Y0003809350D01*
G37*
G04 next file*
G04 #@! TF.GenerationSoftware,KiCad,Pcbnew,(5.0.2)-1*
G04 #@! TF.CreationDate,2019-01-06T11:57:04+11:00*
G04 #@! TF.ProjectId,MAX2870_Dev_Rev_0,4d415832-3837-4305-9f44-65765f526576,rev?*
G04 #@! TF.SameCoordinates,Original*
G04 #@! TF.FileFunction,Soldermask,Bot*
G04 #@! TF.FilePolarity,Negative*
G04 Gerber Fmt 4.6, Leading zero omitted, Abs format (unit mm)*
G04 Created by KiCad (PCBNEW (5.0.2)-1) date 6/01/2019 11:57:04*
G01*
G04 APERTURE LIST*
G04 APERTURE END LIST*
D26*
G04 #@! TO.C,REF\002A\002A*
G36*
X0000368110Y0002261811D02*
X0000604330Y0002261811D01*
X0000604330Y0002173228D01*
X0000368110Y0002173228D01*
X0000368110Y0002261811D01*
G37*
X0000368110Y0002261811D02*
X0000604330Y0002261811D01*
X0000604330Y0002173228D01*
X0000368110Y0002173228D01*
X0000368110Y0002261811D01*
D27*
G36*
X0000221820Y0002369627D02*
X0000234184Y0002367167D01*
X0000257477Y0002357519D01*
X0000268878Y0002349901D01*
X0000278440Y0002343512D01*
X0000296268Y0002325684D01*
X0000296268Y0002325684D01*
X0000310275Y0002304721D01*
X0000315067Y0002293151D01*
X0000319923Y0002281428D01*
X0000324842Y0002256700D01*
X0000324842Y0002231488D01*
X0000322383Y0002219124D01*
X0000319923Y0002206760D01*
X0000310275Y0002183467D01*
X0000300522Y0002168870D01*
X0000296268Y0002162504D01*
X0000278440Y0002144676D01*
X0000278440Y0002144676D01*
X0000257477Y0002130669D01*
X0000234184Y0002121021D01*
X0000221820Y0002118561D01*
X0000209456Y0002116102D01*
X0000184244Y0002116102D01*
X0000171880Y0002118561D01*
X0000159516Y0002121021D01*
X0000136223Y0002130669D01*
X0000115260Y0002144676D01*
X0000115260Y0002144676D01*
X0000097432Y0002162504D01*
X0000093178Y0002168870D01*
X0000083425Y0002183467D01*
X0000073776Y0002206760D01*
X0000071317Y0002219124D01*
X0000068858Y0002231488D01*
X0000068858Y0002256700D01*
X0000073776Y0002281428D01*
X0000078632Y0002293151D01*
X0000083425Y0002304721D01*
X0000097432Y0002325684D01*
X0000097432Y0002325684D01*
X0000115260Y0002343512D01*
X0000124821Y0002349901D01*
X0000136223Y0002357519D01*
X0000159516Y0002367167D01*
X0000171880Y0002369627D01*
X0000184244Y0002372086D01*
X0000209456Y0002372086D01*
X0000221820Y0002369627D01*
X0000221820Y0002369627D01*
G37*
G36*
X0001717883Y0002369627D02*
X0001730247Y0002367167D01*
X0001753540Y0002357519D01*
X0001764941Y0002349901D01*
X0001774503Y0002343512D01*
X0001792331Y0002325684D01*
X0001792331Y0002325684D01*
X0001806338Y0002304721D01*
X0001811130Y0002293151D01*
X0001815986Y0002281428D01*
X0001820905Y0002256700D01*
X0001820905Y0002231488D01*
X0001818446Y0002219124D01*
X0001815986Y0002206760D01*
X0001806338Y0002183467D01*
X0001796585Y0002168870D01*
X0001792331Y0002162504D01*
X0001774503Y0002144676D01*
X0001774503Y0002144676D01*
X0001753540Y0002130669D01*
X0001730247Y0002121021D01*
X0001717883Y0002118561D01*
X0001705519Y0002116102D01*
X0001680307Y0002116102D01*
X0001667943Y0002118561D01*
X0001655579Y0002121021D01*
X0001632286Y0002130669D01*
X0001611323Y0002144676D01*
X0001611323Y0002144676D01*
X0001593495Y0002162504D01*
X0001589241Y0002168870D01*
X0001579488Y0002183467D01*
X0001569839Y0002206760D01*
X0001567380Y0002219124D01*
X0001564921Y0002231488D01*
X0001564921Y0002256700D01*
X0001569839Y0002281428D01*
X0001574695Y0002293151D01*
X0001579488Y0002304721D01*
X0001593495Y0002325684D01*
X0001593495Y0002325684D01*
X0001611323Y0002343512D01*
X0001620884Y0002349901D01*
X0001632286Y0002357519D01*
X0001655579Y0002367167D01*
X0001667943Y0002369627D01*
X0001680307Y0002372086D01*
X0001705519Y0002372086D01*
X0001717883Y0002369627D01*
X0001717883Y0002369627D01*
G37*
G36*
X0000255529Y0002866711D02*
X0000258134Y0002866455D01*
X0000262592Y0002865102D01*
X0000264821Y0002864426D01*
X0000270279Y0002861509D01*
X0000270983Y0002861132D01*
X0000272390Y0002859978D01*
X0000276385Y0002856700D01*
X0000279663Y0002852705D01*
X0000280818Y0002851298D01*
X0000280818Y0002851298D01*
X0000284111Y0002845136D01*
X0000284111Y0002845136D01*
X0000286140Y0002838449D01*
X0000286825Y0002831496D01*
X0000286140Y0002824542D01*
X0000284787Y0002820084D01*
X0000284111Y0002817855D01*
X0000281194Y0002812398D01*
X0000280818Y0002811693D01*
X0000279663Y0002810286D01*
X0000276385Y0002806291D01*
X0000272390Y0002803013D01*
X0000270983Y0002801859D01*
X0000270983Y0002801859D01*
X0000264821Y0002798565D01*
X0000262592Y0002797889D01*
X0000258134Y0002796536D01*
X0000255529Y0002796280D01*
X0000252923Y0002796023D01*
X0000249438Y0002796023D01*
X0000246832Y0002796280D01*
X0000244227Y0002796536D01*
X0000239769Y0002797889D01*
X0000237540Y0002798565D01*
X0000231378Y0002801859D01*
X0000231378Y0002801859D01*
X0000229971Y0002803013D01*
X0000225976Y0002806291D01*
X0000222698Y0002810286D01*
X0000221544Y0002811693D01*
X0000221167Y0002812398D01*
X0000218250Y0002817855D01*
X0000217574Y0002820084D01*
X0000216221Y0002824542D01*
X0000215537Y0002831496D01*
X0000216221Y0002838449D01*
X0000218250Y0002845136D01*
X0000218250Y0002845136D01*
X0000221544Y0002851298D01*
X0000221544Y0002851298D01*
X0000222698Y0002852705D01*
X0000225976Y0002856700D01*
X0000229971Y0002859978D01*
X0000231378Y0002861132D01*
X0000232083Y0002861509D01*
X0000237540Y0002864426D01*
X0000239769Y0002865102D01*
X0000244227Y0002866455D01*
X0000246832Y0002866711D01*
X0000249438Y0002866968D01*
X0000252923Y0002866968D01*
X0000255529Y0002866711D01*
X0000255529Y0002866711D01*
G37*
G36*
X0000355529Y0002866711D02*
X0000358134Y0002866455D01*
X0000362592Y0002865102D01*
X0000364821Y0002864426D01*
X0000370278Y0002861509D01*
X0000370983Y0002861132D01*
X0000372390Y0002859978D01*
X0000376385Y0002856700D01*
X0000379663Y0002852705D01*
X0000380817Y0002851298D01*
X0000380818Y0002851298D01*
X0000384111Y0002845136D01*
X0000384111Y0002845136D01*
X0000386140Y0002838449D01*
X0000386825Y0002831496D01*
X0000386140Y0002824542D01*
X0000384788Y0002820084D01*
X0000384111Y0002817855D01*
X0000381194Y0002812398D01*
X0000380817Y0002811693D01*
X0000379663Y0002810286D01*
X0000376385Y0002806291D01*
X0000372390Y0002803013D01*
X0000370983Y0002801859D01*
X0000370983Y0002801859D01*
X0000364821Y0002798565D01*
X0000362592Y0002797889D01*
X0000358134Y0002796536D01*
X0000355529Y0002796280D01*
X0000352923Y0002796023D01*
X0000349438Y0002796023D01*
X0000346832Y0002796280D01*
X0000344227Y0002796536D01*
X0000339769Y0002797889D01*
X0000337540Y0002798565D01*
X0000331378Y0002801859D01*
X0000331378Y0002801859D01*
X0000329971Y0002803013D01*
X0000325976Y0002806291D01*
X0000322698Y0002810286D01*
X0000321544Y0002811693D01*
X0000321167Y0002812398D01*
X0000318250Y0002817855D01*
X0000317574Y0002820084D01*
X0000316221Y0002824542D01*
X0000315537Y0002831496D01*
X0000316221Y0002838449D01*
X0000318250Y0002845136D01*
X0000318250Y0002845136D01*
X0000321544Y0002851298D01*
X0000321544Y0002851298D01*
X0000322698Y0002852705D01*
X0000325976Y0002856700D01*
X0000329971Y0002859978D01*
X0000331378Y0002861132D01*
X0000332083Y0002861509D01*
X0000337540Y0002864426D01*
X0000339769Y0002865102D01*
X0000344227Y0002866455D01*
X0000346832Y0002866711D01*
X0000349438Y0002866968D01*
X0000352923Y0002866968D01*
X0000355529Y0002866711D01*
X0000355529Y0002866711D01*
G37*
G36*
X0001887834Y0002895629D02*
X0001718464Y0002895629D01*
X0001718464Y0002952795D01*
X0001887834Y0002952795D01*
X0001887834Y0002895629D01*
X0001887834Y0002895629D01*
G37*
G36*
X0000355529Y0002966711D02*
X0000358134Y0002966455D01*
X0000362592Y0002965102D01*
X0000364821Y0002964426D01*
X0000370278Y0002961509D01*
X0000370983Y0002961132D01*
X0000372390Y0002959978D01*
X0000376385Y0002956700D01*
X0000379589Y0002952795D01*
X0000380817Y0002951298D01*
X0000380818Y0002951298D01*
X0000384111Y0002945136D01*
X0000384111Y0002945136D01*
X0000386140Y0002938449D01*
X0000386825Y0002931496D01*
X0000386140Y0002924542D01*
X0000384788Y0002920084D01*
X0000384111Y0002917855D01*
X0000381194Y0002912398D01*
X0000380817Y0002911693D01*
X0000379663Y0002910286D01*
X0000376385Y0002906291D01*
X0000372390Y0002903013D01*
X0000370983Y0002901859D01*
X0000370983Y0002901859D01*
X0000364821Y0002898565D01*
X0000362592Y0002897889D01*
X0000358134Y0002896536D01*
X0000355529Y0002896280D01*
X0000352923Y0002896023D01*
X0000349438Y0002896023D01*
X0000346832Y0002896280D01*
X0000344227Y0002896536D01*
X0000339769Y0002897889D01*
X0000337540Y0002898565D01*
X0000331378Y0002901859D01*
X0000331378Y0002901859D01*
X0000329971Y0002903013D01*
X0000325976Y0002906291D01*
X0000322698Y0002910286D01*
X0000321544Y0002911693D01*
X0000321167Y0002912398D01*
X0000318250Y0002917855D01*
X0000317574Y0002920084D01*
X0000316221Y0002924542D01*
X0000315537Y0002931496D01*
X0000316221Y0002938449D01*
X0000318250Y0002945136D01*
X0000318250Y0002945136D01*
X0000321544Y0002951298D01*
X0000321544Y0002951298D01*
X0000322772Y0002952795D01*
X0000325976Y0002956700D01*
X0000329971Y0002959978D01*
X0000331378Y0002961132D01*
X0000332083Y0002961509D01*
X0000337540Y0002964426D01*
X0000339769Y0002965102D01*
X0000344227Y0002966455D01*
X0000346832Y0002966711D01*
X0000349438Y0002966968D01*
X0000352923Y0002966968D01*
X0000355529Y0002966711D01*
X0000355529Y0002966711D01*
G37*
G36*
X0000255529Y0002966711D02*
X0000258134Y0002966455D01*
X0000262592Y0002965102D01*
X0000264821Y0002964426D01*
X0000270279Y0002961509D01*
X0000270983Y0002961132D01*
X0000272390Y0002959978D01*
X0000276385Y0002956700D01*
X0000279589Y0002952795D01*
X0000280818Y0002951298D01*
X0000280818Y0002951298D01*
X0000284111Y0002945136D01*
X0000284111Y0002945136D01*
X0000286140Y0002938449D01*
X0000286825Y0002931496D01*
X0000286140Y0002924542D01*
X0000284787Y0002920084D01*
X0000284111Y0002917855D01*
X0000281194Y0002912398D01*
X0000280818Y0002911693D01*
X0000279663Y0002910286D01*
X0000276385Y0002906291D01*
X0000272390Y0002903013D01*
X0000270983Y0002901859D01*
X0000270983Y0002901859D01*
X0000264821Y0002898565D01*
X0000262592Y0002897889D01*
X0000258134Y0002896536D01*
X0000255529Y0002896280D01*
X0000252923Y0002896023D01*
X0000249438Y0002896023D01*
X0000246832Y0002896280D01*
X0000244227Y0002896536D01*
X0000239769Y0002897889D01*
X0000237540Y0002898565D01*
X0000231378Y0002901859D01*
X0000231378Y0002901859D01*
X0000229971Y0002903013D01*
X0000225976Y0002906291D01*
X0000222698Y0002910286D01*
X0000221544Y0002911693D01*
X0000221167Y0002912398D01*
X0000218250Y0002917855D01*
X0000217574Y0002920084D01*
X0000216221Y0002924542D01*
X0000215537Y0002931496D01*
X0000216221Y0002938449D01*
X0000218250Y0002945136D01*
X0000218250Y0002945136D01*
X0000221544Y0002951298D01*
X0000221544Y0002951298D01*
X0000222772Y0002952795D01*
X0000225976Y0002956700D01*
X0000229971Y0002959978D01*
X0000231378Y0002961132D01*
X0000232083Y0002961509D01*
X0000237540Y0002964426D01*
X0000239769Y0002965102D01*
X0000244227Y0002966455D01*
X0000246832Y0002966711D01*
X0000249438Y0002966968D01*
X0000252923Y0002966968D01*
X0000255529Y0002966711D01*
X0000255529Y0002966711D01*
G37*
G36*
X0000255529Y0003066711D02*
X0000258134Y0003066455D01*
X0000262592Y0003065102D01*
X0000264821Y0003064426D01*
X0000270279Y0003061509D01*
X0000270983Y0003061132D01*
X0000272390Y0003059978D01*
X0000276385Y0003056700D01*
X0000279663Y0003052705D01*
X0000280818Y0003051298D01*
X0000280818Y0003051298D01*
X0000284111Y0003045136D01*
X0000284111Y0003045136D01*
X0000286140Y0003038449D01*
X0000286825Y0003031496D01*
X0000286140Y0003024542D01*
X0000284787Y0003020084D01*
X0000284111Y0003017855D01*
X0000281194Y0003012398D01*
X0000280818Y0003011693D01*
X0000279663Y0003010286D01*
X0000276385Y0003006291D01*
X0000272390Y0003003013D01*
X0000270983Y0003001859D01*
X0000270983Y0003001859D01*
X0000264821Y0002998565D01*
X0000262592Y0002997889D01*
X0000258134Y0002996536D01*
X0000255529Y0002996280D01*
X0000252923Y0002996023D01*
X0000249438Y0002996023D01*
X0000246832Y0002996280D01*
X0000244227Y0002996536D01*
X0000239769Y0002997889D01*
X0000237540Y0002998565D01*
X0000231378Y0003001859D01*
X0000231378Y0003001859D01*
X0000229971Y0003003013D01*
X0000225976Y0003006291D01*
X0000222698Y0003010286D01*
X0000221544Y0003011693D01*
X0000221167Y0003012398D01*
X0000218250Y0003017855D01*
X0000217574Y0003020084D01*
X0000216221Y0003024542D01*
X0000215537Y0003031496D01*
X0000216221Y0003038449D01*
X0000218250Y0003045136D01*
X0000218250Y0003045136D01*
X0000221544Y0003051298D01*
X0000221544Y0003051298D01*
X0000222698Y0003052705D01*
X0000225976Y0003056700D01*
X0000229971Y0003059978D01*
X0000231378Y0003061132D01*
X0000232083Y0003061509D01*
X0000237540Y0003064426D01*
X0000239769Y0003065102D01*
X0000244227Y0003066455D01*
X0000246832Y0003066711D01*
X0000249438Y0003066968D01*
X0000252923Y0003066968D01*
X0000255529Y0003066711D01*
X0000255529Y0003066711D01*
G37*
G36*
X0000355529Y0003066711D02*
X0000358134Y0003066455D01*
X0000362592Y0003065102D01*
X0000364821Y0003064426D01*
X0000370278Y0003061509D01*
X0000370983Y0003061132D01*
X0000372390Y0003059978D01*
X0000376385Y0003056700D01*
X0000379663Y0003052705D01*
X0000380817Y0003051298D01*
X0000380818Y0003051298D01*
X0000384111Y0003045136D01*
X0000384111Y0003045136D01*
X0000386140Y0003038449D01*
X0000386825Y0003031496D01*
X0000386140Y0003024542D01*
X0000384788Y0003020084D01*
X0000384111Y0003017855D01*
X0000381194Y0003012398D01*
X0000380817Y0003011693D01*
X0000379663Y0003010286D01*
X0000376385Y0003006291D01*
X0000372390Y0003003013D01*
X0000370983Y0003001859D01*
X0000370983Y0003001859D01*
X0000364821Y0002998565D01*
X0000362592Y0002997889D01*
X0000358134Y0002996536D01*
X0000355529Y0002996280D01*
X0000352923Y0002996023D01*
X0000349438Y0002996023D01*
X0000346832Y0002996280D01*
X0000344227Y0002996536D01*
X0000339769Y0002997889D01*
X0000337540Y0002998565D01*
X0000331378Y0003001859D01*
X0000331378Y0003001859D01*
X0000329971Y0003003013D01*
X0000325976Y0003006291D01*
X0000322698Y0003010286D01*
X0000321544Y0003011693D01*
X0000321167Y0003012398D01*
X0000318250Y0003017855D01*
X0000317574Y0003020084D01*
X0000316221Y0003024542D01*
X0000315537Y0003031496D01*
X0000316221Y0003038449D01*
X0000318250Y0003045136D01*
X0000318250Y0003045136D01*
X0000321544Y0003051298D01*
X0000321544Y0003051298D01*
X0000322698Y0003052705D01*
X0000325976Y0003056700D01*
X0000329971Y0003059978D01*
X0000331378Y0003061132D01*
X0000332083Y0003061509D01*
X0000337540Y0003064426D01*
X0000339769Y0003065102D01*
X0000344227Y0003066455D01*
X0000346832Y0003066711D01*
X0000349438Y0003066968D01*
X0000352923Y0003066968D01*
X0000355529Y0003066711D01*
X0000355529Y0003066711D01*
G37*
G36*
X0000355529Y0003166711D02*
X0000358134Y0003166455D01*
X0000362592Y0003165102D01*
X0000364821Y0003164426D01*
X0000370278Y0003161509D01*
X0000370983Y0003161132D01*
X0000372390Y0003159978D01*
X0000376385Y0003156700D01*
X0000379663Y0003152705D01*
X0000380817Y0003151298D01*
X0000380818Y0003151298D01*
X0000384111Y0003145136D01*
X0000384111Y0003145136D01*
X0000386140Y0003138449D01*
X0000386825Y0003131496D01*
X0000386140Y0003124542D01*
X0000384788Y0003120084D01*
X0000384111Y0003117855D01*
X0000381194Y0003112398D01*
X0000380817Y0003111693D01*
X0000379663Y0003110286D01*
X0000376385Y0003106291D01*
X0000372390Y0003103013D01*
X0000370983Y0003101859D01*
X0000370983Y0003101859D01*
X0000364821Y0003098565D01*
X0000362592Y0003097889D01*
X0000358134Y0003096536D01*
X0000355529Y0003096280D01*
X0000352923Y0003096023D01*
X0000349438Y0003096023D01*
X0000346832Y0003096280D01*
X0000344227Y0003096536D01*
X0000339769Y0003097889D01*
X0000337540Y0003098565D01*
X0000331378Y0003101859D01*
X0000331378Y0003101859D01*
X0000329971Y0003103013D01*
X0000325976Y0003106291D01*
X0000322698Y0003110286D01*
X0000321544Y0003111693D01*
X0000321167Y0003112398D01*
X0000318250Y0003117855D01*
X0000317574Y0003120084D01*
X0000316221Y0003124542D01*
X0000315537Y0003131496D01*
X0000316221Y0003138449D01*
X0000318250Y0003145136D01*
X0000318250Y0003145136D01*
X0000321544Y0003151298D01*
X0000321544Y0003151298D01*
X0000322698Y0003152705D01*
X0000325976Y0003156700D01*
X0000329971Y0003159978D01*
X0000331378Y0003161132D01*
X0000332083Y0003161509D01*
X0000337540Y0003164426D01*
X0000339769Y0003165102D01*
X0000344227Y0003166455D01*
X0000346832Y0003166711D01*
X0000349438Y0003166968D01*
X0000352923Y0003166968D01*
X0000355529Y0003166711D01*
X0000355529Y0003166711D01*
G37*
G36*
X0000255529Y0003166711D02*
X0000258134Y0003166455D01*
X0000262592Y0003165102D01*
X0000264821Y0003164426D01*
X0000270279Y0003161509D01*
X0000270983Y0003161132D01*
X0000272390Y0003159978D01*
X0000276385Y0003156700D01*
X0000279663Y0003152705D01*
X0000280818Y0003151298D01*
X0000280818Y0003151298D01*
X0000284111Y0003145136D01*
X0000284111Y0003145136D01*
X0000286140Y0003138449D01*
X0000286825Y0003131496D01*
X0000286140Y0003124542D01*
X0000284787Y0003120084D01*
X0000284111Y0003117855D01*
X0000281194Y0003112398D01*
X0000280818Y0003111693D01*
X0000279663Y0003110286D01*
X0000276385Y0003106291D01*
X0000272390Y0003103013D01*
X0000270983Y0003101859D01*
X0000270983Y0003101859D01*
X0000264821Y0003098565D01*
X0000262592Y0003097889D01*
X0000258134Y0003096536D01*
X0000255529Y0003096280D01*
X0000252923Y0003096023D01*
X0000249438Y0003096023D01*
X0000246832Y0003096280D01*
X0000244227Y0003096536D01*
X0000239769Y0003097889D01*
X0000237540Y0003098565D01*
X0000231378Y0003101859D01*
X0000231378Y0003101859D01*
X0000229971Y0003103013D01*
X0000225976Y0003106291D01*
X0000222698Y0003110286D01*
X0000221544Y0003111693D01*
X0000221167Y0003112398D01*
X0000218250Y0003117855D01*
X0000217574Y0003120084D01*
X0000216221Y0003124542D01*
X0000215537Y0003131496D01*
X0000216221Y0003138449D01*
X0000218250Y0003145136D01*
X0000218250Y0003145136D01*
X0000221544Y0003151298D01*
X0000221544Y0003151298D01*
X0000222698Y0003152705D01*
X0000225976Y0003156700D01*
X0000229971Y0003159978D01*
X0000231378Y0003161132D01*
X0000232083Y0003161509D01*
X0000237540Y0003164426D01*
X0000239769Y0003165102D01*
X0000244227Y0003166455D01*
X0000246832Y0003166711D01*
X0000249438Y0003166968D01*
X0000252923Y0003166968D01*
X0000255529Y0003166711D01*
X0000255529Y0003166711D01*
G37*
G36*
X0001887834Y0003118070D02*
X0001718464Y0003118070D01*
X0001718464Y0003175236D01*
X0001887834Y0003175236D01*
X0001887834Y0003118070D01*
X0001887834Y0003118070D01*
G37*
G36*
X0000355529Y0003266711D02*
X0000358134Y0003266455D01*
X0000362592Y0003265102D01*
X0000364821Y0003264426D01*
X0000370278Y0003261509D01*
X0000370983Y0003261132D01*
X0000372390Y0003259978D01*
X0000376385Y0003256700D01*
X0000379663Y0003252705D01*
X0000380817Y0003251298D01*
X0000380818Y0003251298D01*
X0000384111Y0003245136D01*
X0000384111Y0003245136D01*
X0000386140Y0003238449D01*
X0000386825Y0003231496D01*
X0000386140Y0003224542D01*
X0000384788Y0003220084D01*
X0000384111Y0003217855D01*
X0000381194Y0003212398D01*
X0000380817Y0003211693D01*
X0000379663Y0003210286D01*
X0000376385Y0003206291D01*
X0000372390Y0003203013D01*
X0000370983Y0003201859D01*
X0000370983Y0003201859D01*
X0000364821Y0003198565D01*
X0000362592Y0003197889D01*
X0000358134Y0003196536D01*
X0000355529Y0003196280D01*
X0000352923Y0003196023D01*
X0000349438Y0003196023D01*
X0000346832Y0003196280D01*
X0000344227Y0003196536D01*
X0000339769Y0003197889D01*
X0000337540Y0003198565D01*
X0000331378Y0003201859D01*
X0000331378Y0003201859D01*
X0000329971Y0003203013D01*
X0000325976Y0003206291D01*
X0000322698Y0003210286D01*
X0000321544Y0003211693D01*
X0000321167Y0003212398D01*
X0000318250Y0003217855D01*
X0000317574Y0003220084D01*
X0000316221Y0003224542D01*
X0000315537Y0003231496D01*
X0000316221Y0003238449D01*
X0000318250Y0003245136D01*
X0000318250Y0003245136D01*
X0000321544Y0003251298D01*
X0000321544Y0003251298D01*
X0000322698Y0003252705D01*
X0000325976Y0003256700D01*
X0000329971Y0003259978D01*
X0000331378Y0003261132D01*
X0000332083Y0003261509D01*
X0000337540Y0003264426D01*
X0000339769Y0003265102D01*
X0000344227Y0003266455D01*
X0000346832Y0003266711D01*
X0000349438Y0003266968D01*
X0000352923Y0003266968D01*
X0000355529Y0003266711D01*
X0000355529Y0003266711D01*
G37*
G36*
X0000286653Y0003196023D02*
X0000215708Y0003196023D01*
X0000215708Y0003266968D01*
X0000286653Y0003266968D01*
X0000286653Y0003196023D01*
X0000286653Y0003196023D01*
G37*
G36*
X0000221820Y0003865690D02*
X0000234184Y0003863230D01*
X0000257477Y0003853582D01*
X0000268878Y0003845964D01*
X0000278440Y0003839575D01*
X0000296268Y0003821747D01*
X0000296268Y0003821747D01*
X0000310275Y0003800784D01*
X0000315067Y0003789214D01*
X0000319923Y0003777491D01*
X0000324842Y0003752763D01*
X0000324842Y0003727551D01*
X0000322383Y0003715187D01*
X0000319923Y0003702823D01*
X0000310275Y0003679530D01*
X0000300522Y0003664933D01*
X0000296268Y0003658567D01*
X0000278440Y0003640739D01*
X0000278440Y0003640739D01*
X0000257477Y0003626732D01*
X0000234184Y0003617084D01*
X0000221820Y0003614624D01*
X0000209456Y0003612165D01*
X0000184244Y0003612165D01*
X0000171880Y0003614624D01*
X0000159516Y0003617084D01*
X0000136223Y0003626732D01*
X0000115260Y0003640739D01*
X0000115260Y0003640739D01*
X0000097432Y0003658567D01*
X0000093178Y0003664933D01*
X0000083425Y0003679530D01*
X0000073776Y0003702823D01*
X0000071317Y0003715187D01*
X0000068858Y0003727551D01*
X0000068858Y0003752763D01*
X0000073776Y0003777491D01*
X0000078632Y0003789214D01*
X0000083425Y0003800784D01*
X0000097432Y0003821747D01*
X0000097432Y0003821747D01*
X0000115260Y0003839575D01*
X0000124821Y0003845964D01*
X0000136223Y0003853582D01*
X0000159516Y0003863230D01*
X0000171880Y0003865690D01*
X0000184244Y0003868149D01*
X0000209456Y0003868149D01*
X0000221820Y0003865690D01*
X0000221820Y0003865690D01*
G37*
G36*
X0001717883Y0003865690D02*
X0001730247Y0003863230D01*
X0001753540Y0003853582D01*
X0001764941Y0003845964D01*
X0001774503Y0003839575D01*
X0001792331Y0003821747D01*
X0001792331Y0003821747D01*
X0001806338Y0003800784D01*
X0001811130Y0003789214D01*
X0001815986Y0003777491D01*
X0001820905Y0003752763D01*
X0001820905Y0003727551D01*
X0001818446Y0003715187D01*
X0001815986Y0003702823D01*
X0001806338Y0003679530D01*
X0001796585Y0003664933D01*
X0001792331Y0003658567D01*
X0001774503Y0003640739D01*
X0001774503Y0003640739D01*
X0001753540Y0003626732D01*
X0001730247Y0003617084D01*
X0001717883Y0003614624D01*
X0001705519Y0003612165D01*
X0001680307Y0003612165D01*
X0001667943Y0003614624D01*
X0001655579Y0003617084D01*
X0001632286Y0003626732D01*
X0001611323Y0003640739D01*
X0001611323Y0003640739D01*
X0001593495Y0003658567D01*
X0001589241Y0003664933D01*
X0001579488Y0003679530D01*
X0001569839Y0003702823D01*
X0001567380Y0003715187D01*
X0001564921Y0003727551D01*
X0001564921Y0003752763D01*
X0001569839Y0003777491D01*
X0001574695Y0003789214D01*
X0001579488Y0003800784D01*
X0001593495Y0003821747D01*
X0001593495Y0003821747D01*
X0001611323Y0003839575D01*
X0001620884Y0003845964D01*
X0001632286Y0003853582D01*
X0001655579Y0003863230D01*
X0001667943Y0003865690D01*
X0001680307Y0003868149D01*
X0001705519Y0003868149D01*
X0001717883Y0003865690D01*
X0001717883Y0003865690D01*
G37*
M02*