%MOIN*%
%OFA0B0*%
%FSLAX46Y46*%
%IPPOS*%
%LPD*%
%ADD10C,0.005905511811023622*%
%ADD11C,0.011811023622047244*%
%ADD12C,0.0078740157480314977*%
%ADD13C,0.0047244094488188976*%
%ADD24C,0.005905511811023622*%
%ADD25C,0.0047244094488188976*%
%ADD26C,0.0078740157480314977*%
%ADD27C,0.005905511811023622*%
%ADD28C,0.0047244094488188976*%
%ADD29C,0.0078740157480314977*%
%ADD30C,0.005905511811023622*%
%ADD31C,0.0078740157480314977*%
%ADD32C,0.0047244094488188976*%
G01*
D10*
X0000678993Y0001325787D02*
X0000676181Y0001327193D01*
X0000671962Y0001327193D01*
X0000667744Y0001325787D01*
X0000664932Y0001322975D01*
X0000663526Y0001320163D01*
X0000662120Y0001314538D01*
X0000662120Y0001310320D01*
X0000663526Y0001304696D01*
X0000664932Y0001301884D01*
X0000667744Y0001299072D01*
X0000671962Y0001297665D01*
X0000674775Y0001297665D01*
X0000678993Y0001299072D01*
X0000680399Y0001300478D01*
X0000680399Y0001310320D01*
X0000674775Y0001310320D01*
X0000693053Y0001297665D02*
X0000693053Y0001317350D01*
X0000693053Y0001311726D02*
X0000694460Y0001314538D01*
X0000695866Y0001315944D01*
X0000698678Y0001317350D01*
X0000701490Y0001317350D01*
X0000715551Y0001297665D02*
X0000712738Y0001299072D01*
X0000711332Y0001300478D01*
X0000709926Y0001303290D01*
X0000709926Y0001311726D01*
X0000711332Y0001314538D01*
X0000712738Y0001315944D01*
X0000715551Y0001317350D01*
X0000719769Y0001317350D01*
X0000722581Y0001315944D01*
X0000723987Y0001314538D01*
X0000725393Y0001311726D01*
X0000725393Y0001303290D01*
X0000723987Y0001300478D01*
X0000722581Y0001299072D01*
X0000719769Y0001297665D01*
X0000715551Y0001297665D01*
X0000750703Y0001317350D02*
X0000750703Y0001297665D01*
X0000738048Y0001317350D02*
X0000738048Y0001301884D01*
X0000739454Y0001299072D01*
X0000742266Y0001297665D01*
X0000746484Y0001297665D01*
X0000749296Y0001299072D01*
X0000750703Y0001300478D01*
X0000764763Y0001317350D02*
X0000764763Y0001297665D01*
X0000764763Y0001314538D02*
X0000766169Y0001315944D01*
X0000768981Y0001317350D01*
X0000773200Y0001317350D01*
X0000776012Y0001315944D01*
X0000777418Y0001313132D01*
X0000777418Y0001297665D01*
X0000804133Y0001297665D02*
X0000804133Y0001327193D01*
X0000804133Y0001299072D02*
X0000801321Y0001297665D01*
X0000795697Y0001297665D01*
X0000792885Y0001299072D01*
X0000791479Y0001300478D01*
X0000790073Y0001303290D01*
X0000790073Y0001311726D01*
X0000791479Y0001314538D01*
X0000792885Y0001315944D01*
X0000795697Y0001317350D01*
X0000801321Y0001317350D01*
X0000804133Y0001315944D01*
X0000857564Y0001300478D02*
X0000856158Y0001299072D01*
X0000851940Y0001297665D01*
X0000849128Y0001297665D01*
X0000844909Y0001299072D01*
X0000842097Y0001301884D01*
X0000840691Y0001304696D01*
X0000839285Y0001310320D01*
X0000839285Y0001314538D01*
X0000840691Y0001320163D01*
X0000842097Y0001322975D01*
X0000844909Y0001325787D01*
X0000849128Y0001327193D01*
X0000851940Y0001327193D01*
X0000856158Y0001325787D01*
X0000857564Y0001324381D01*
X0000882874Y0001317350D02*
X0000882874Y0001297665D01*
X0000870219Y0001317350D02*
X0000870219Y0001301884D01*
X0000871625Y0001299072D01*
X0000874437Y0001297665D01*
X0000878655Y0001297665D01*
X0000881467Y0001299072D01*
X0000882874Y0001300478D01*
X0000892716Y0001317350D02*
X0000903965Y0001317350D01*
X0000896934Y0001327193D02*
X0000896934Y0001301884D01*
X0000898340Y0001299072D01*
X0000901152Y0001297665D01*
X0000903965Y0001297665D01*
X0000918025Y0001297665D02*
X0000915213Y0001299072D01*
X0000913807Y0001300478D01*
X0000912401Y0001303290D01*
X0000912401Y0001311726D01*
X0000913807Y0001314538D01*
X0000915213Y0001315944D01*
X0000918025Y0001317350D01*
X0000922244Y0001317350D01*
X0000925056Y0001315944D01*
X0000926462Y0001314538D01*
X0000927868Y0001311726D01*
X0000927868Y0001303290D01*
X0000926462Y0001300478D01*
X0000925056Y0001299072D01*
X0000922244Y0001297665D01*
X0000918025Y0001297665D01*
X0000953177Y0001317350D02*
X0000953177Y0001297665D01*
X0000940523Y0001317350D02*
X0000940523Y0001301884D01*
X0000941929Y0001299072D01*
X0000944741Y0001297665D01*
X0000948959Y0001297665D01*
X0000951771Y0001299072D01*
X0000953177Y0001300478D01*
X0000963020Y0001317350D02*
X0000974268Y0001317350D01*
X0000967238Y0001327193D02*
X0000967238Y0001301884D01*
X0000968644Y0001299072D01*
X0000971456Y0001297665D01*
X0000974268Y0001297665D01*
X0000982705Y0001299072D02*
X0000985517Y0001297665D01*
X0000991141Y0001297665D01*
X0000993953Y0001299072D01*
X0000995359Y0001301884D01*
X0000995359Y0001303290D01*
X0000993953Y0001306102D01*
X0000991141Y0001307508D01*
X0000986923Y0001307508D01*
X0000984111Y0001308914D01*
X0000982705Y0001311726D01*
X0000982705Y0001313132D01*
X0000984111Y0001315944D01*
X0000986923Y0001317350D01*
X0000991141Y0001317350D01*
X0000993953Y0001315944D01*
X0001043166Y0001317350D02*
X0001043166Y0001297665D01*
X0001030511Y0001317350D02*
X0001030511Y0001301884D01*
X0001031917Y0001299072D01*
X0001034729Y0001297665D01*
X0001038948Y0001297665D01*
X0001041760Y0001299072D01*
X0001043166Y0001300478D01*
X0001057227Y0001317350D02*
X0001057227Y0001297665D01*
X0001057227Y0001314538D02*
X0001058633Y0001315944D01*
X0001061445Y0001317350D01*
X0001065663Y0001317350D01*
X0001068475Y0001315944D01*
X0001069881Y0001313132D01*
X0001069881Y0001297665D01*
X0001096597Y0001297665D02*
X0001096597Y0001327193D01*
X0001096597Y0001299072D02*
X0001093785Y0001297665D01*
X0001088160Y0001297665D01*
X0001085348Y0001299072D01*
X0001083942Y0001300478D01*
X0001082536Y0001303290D01*
X0001082536Y0001311726D01*
X0001083942Y0001314538D01*
X0001085348Y0001315944D01*
X0001088160Y0001317350D01*
X0001093785Y0001317350D01*
X0001096597Y0001315944D01*
X0001121906Y0001299072D02*
X0001119094Y0001297665D01*
X0001113470Y0001297665D01*
X0001110657Y0001299072D01*
X0001109251Y0001301884D01*
X0001109251Y0001313132D01*
X0001110657Y0001315944D01*
X0001113470Y0001317350D01*
X0001119094Y0001317350D01*
X0001121906Y0001315944D01*
X0001123312Y0001313132D01*
X0001123312Y0001310320D01*
X0001109251Y0001307508D01*
X0001135967Y0001297665D02*
X0001135967Y0001317350D01*
X0001135967Y0001311726D02*
X0001137373Y0001314538D01*
X0001138779Y0001315944D01*
X0001141591Y0001317350D01*
X0001144403Y0001317350D01*
X0001175337Y0001299072D02*
X0001179555Y0001297665D01*
X0001186586Y0001297665D01*
X0001189398Y0001299072D01*
X0001190804Y0001300478D01*
X0001192210Y0001303290D01*
X0001192210Y0001306102D01*
X0001190804Y0001308914D01*
X0001189398Y0001310320D01*
X0001186586Y0001311726D01*
X0001180961Y0001313132D01*
X0001178149Y0001314538D01*
X0001176743Y0001315944D01*
X0001175337Y0001318757D01*
X0001175337Y0001321569D01*
X0001176743Y0001324381D01*
X0001178149Y0001325787D01*
X0001180961Y0001327193D01*
X0001187992Y0001327193D01*
X0001192210Y0001325787D01*
X0001204864Y0001297665D02*
X0001204864Y0001327193D01*
X0001214707Y0001306102D01*
X0001224550Y0001327193D01*
X0001224550Y0001297665D01*
X0001237204Y0001306102D02*
X0001251265Y0001306102D01*
X0001234392Y0001297665D02*
X0001244235Y0001327193D01*
X0001254077Y0001297665D01*
D11*
X0000757030Y0001508717D02*
X0000790776Y0001508717D01*
X0000773903Y0001449662D02*
X0000773903Y0001508717D01*
X0000810461Y0001449662D02*
X0000810461Y0001508717D01*
X0000810461Y0001480596D02*
X0000844206Y0001480596D01*
X0000844206Y0001449662D02*
X0000844206Y0001508717D01*
X0000906074Y0001449662D02*
X0000886389Y0001477784D01*
X0000872328Y0001449662D02*
X0000872328Y0001508717D01*
X0000894825Y0001508717D01*
X0000900449Y0001505905D01*
X0000903262Y0001503093D01*
X0000906074Y0001497469D01*
X0000906074Y0001489032D01*
X0000903262Y0001483408D01*
X0000900449Y0001480596D01*
X0000894825Y0001477784D01*
X0000872328Y0001477784D01*
X0000942632Y0001508717D02*
X0000953880Y0001508717D01*
X0000959505Y0001505905D01*
X0000965129Y0001500281D01*
X0000967941Y0001489032D01*
X0000967941Y0001469347D01*
X0000965129Y0001458098D01*
X0000959505Y0001452474D01*
X0000953880Y0001449662D01*
X0000942632Y0001449662D01*
X0000937007Y0001452474D01*
X0000931383Y0001458098D01*
X0000928571Y0001469347D01*
X0000928571Y0001489032D01*
X0000931383Y0001500281D01*
X0000937007Y0001505905D01*
X0000942632Y0001508717D01*
X0000993250Y0001508717D02*
X0000993250Y0001460911D01*
X0000996062Y0001455286D01*
X0000998875Y0001452474D01*
X0001004499Y0001449662D01*
X0001015748Y0001449662D01*
X0001021372Y0001452474D01*
X0001024184Y0001455286D01*
X0001026996Y0001460911D01*
X0001026996Y0001508717D01*
X0001086051Y0001505905D02*
X0001080427Y0001508717D01*
X0001071990Y0001508717D01*
X0001063554Y0001505905D01*
X0001057930Y0001500281D01*
X0001055118Y0001494656D01*
X0001052305Y0001483408D01*
X0001052305Y0001474971D01*
X0001055118Y0001463723D01*
X0001057930Y0001458098D01*
X0001063554Y0001452474D01*
X0001071990Y0001449662D01*
X0001077615Y0001449662D01*
X0001086051Y0001452474D01*
X0001088863Y0001455286D01*
X0001088863Y0001474971D01*
X0001077615Y0001474971D01*
X0001114173Y0001449662D02*
X0001114173Y0001508717D01*
X0001114173Y0001480596D02*
X0001147918Y0001480596D01*
X0001147918Y0001449662D02*
X0001147918Y0001508717D01*
X0000753093Y0001091394D02*
X0000786839Y0001091394D01*
X0000769966Y0001032339D02*
X0000769966Y0001091394D01*
X0000806524Y0001032339D02*
X0000806524Y0001091394D01*
X0000806524Y0001063273D02*
X0000840269Y0001063273D01*
X0000840269Y0001032339D02*
X0000840269Y0001091394D01*
X0000902137Y0001032339D02*
X0000882452Y0001060461D01*
X0000868391Y0001032339D02*
X0000868391Y0001091394D01*
X0000890888Y0001091394D01*
X0000896512Y0001088582D01*
X0000899325Y0001085770D01*
X0000902137Y0001080146D01*
X0000902137Y0001071709D01*
X0000899325Y0001066085D01*
X0000896512Y0001063273D01*
X0000890888Y0001060461D01*
X0000868391Y0001060461D01*
X0000938695Y0001091394D02*
X0000949943Y0001091394D01*
X0000955567Y0001088582D01*
X0000961192Y0001082958D01*
X0000964004Y0001071709D01*
X0000964004Y0001052024D01*
X0000961192Y0001040776D01*
X0000955567Y0001035151D01*
X0000949943Y0001032339D01*
X0000938695Y0001032339D01*
X0000933070Y0001035151D01*
X0000927446Y0001040776D01*
X0000924634Y0001052024D01*
X0000924634Y0001071709D01*
X0000927446Y0001082958D01*
X0000933070Y0001088582D01*
X0000938695Y0001091394D01*
X0000989313Y0001091394D02*
X0000989313Y0001043588D01*
X0000992125Y0001037964D01*
X0000994938Y0001035151D01*
X0001000562Y0001032339D01*
X0001011810Y0001032339D01*
X0001017435Y0001035151D01*
X0001020247Y0001037964D01*
X0001023059Y0001043588D01*
X0001023059Y0001091394D01*
X0001082114Y0001088582D02*
X0001076490Y0001091394D01*
X0001068053Y0001091394D01*
X0001059617Y0001088582D01*
X0001053993Y0001082958D01*
X0001051181Y0001077334D01*
X0001048368Y0001066085D01*
X0001048368Y0001057649D01*
X0001051181Y0001046400D01*
X0001053993Y0001040776D01*
X0001059617Y0001035151D01*
X0001068053Y0001032339D01*
X0001073678Y0001032339D01*
X0001082114Y0001035151D01*
X0001084926Y0001037964D01*
X0001084926Y0001057649D01*
X0001073678Y0001057649D01*
X0001110236Y0001032339D02*
X0001110236Y0001091394D01*
X0001110236Y0001063273D02*
X0001143981Y0001063273D01*
X0001143981Y0001032339D02*
X0001143981Y0001091394D01*
D10*
X0000619516Y0000872469D02*
X0000619516Y0000901996D01*
X0000636389Y0000872469D01*
X0000636389Y0000901996D01*
X0000654668Y0000872469D02*
X0000651855Y0000873875D01*
X0000650449Y0000875281D01*
X0000649043Y0000878093D01*
X0000649043Y0000886529D01*
X0000650449Y0000889341D01*
X0000651855Y0000890748D01*
X0000654668Y0000892154D01*
X0000658886Y0000892154D01*
X0000661698Y0000890748D01*
X0000663104Y0000889341D01*
X0000664510Y0000886529D01*
X0000664510Y0000878093D01*
X0000663104Y0000875281D01*
X0000661698Y0000873875D01*
X0000658886Y0000872469D01*
X0000654668Y0000872469D01*
X0000715129Y0000900590D02*
X0000712317Y0000901996D01*
X0000708098Y0000901996D01*
X0000703880Y0000900590D01*
X0000701068Y0000897778D01*
X0000699662Y0000894966D01*
X0000698256Y0000889341D01*
X0000698256Y0000885123D01*
X0000699662Y0000879499D01*
X0000701068Y0000876687D01*
X0000703880Y0000873875D01*
X0000708098Y0000872469D01*
X0000710911Y0000872469D01*
X0000715129Y0000873875D01*
X0000716535Y0000875281D01*
X0000716535Y0000885123D01*
X0000710911Y0000885123D01*
X0000729190Y0000872469D02*
X0000729190Y0000892154D01*
X0000729190Y0000886529D02*
X0000730596Y0000889341D01*
X0000732002Y0000890748D01*
X0000734814Y0000892154D01*
X0000737626Y0000892154D01*
X0000751687Y0000872469D02*
X0000748875Y0000873875D01*
X0000747469Y0000875281D01*
X0000746062Y0000878093D01*
X0000746062Y0000886529D01*
X0000747469Y0000889341D01*
X0000748875Y0000890748D01*
X0000751687Y0000892154D01*
X0000755905Y0000892154D01*
X0000758717Y0000890748D01*
X0000760123Y0000889341D01*
X0000761529Y0000886529D01*
X0000761529Y0000878093D01*
X0000760123Y0000875281D01*
X0000758717Y0000873875D01*
X0000755905Y0000872469D01*
X0000751687Y0000872469D01*
X0000786839Y0000892154D02*
X0000786839Y0000872469D01*
X0000774184Y0000892154D02*
X0000774184Y0000876687D01*
X0000775590Y0000873875D01*
X0000778402Y0000872469D01*
X0000782620Y0000872469D01*
X0000785433Y0000873875D01*
X0000786839Y0000875281D01*
X0000800899Y0000892154D02*
X0000800899Y0000872469D01*
X0000800899Y0000889341D02*
X0000802305Y0000890748D01*
X0000805118Y0000892154D01*
X0000809336Y0000892154D01*
X0000812148Y0000890748D01*
X0000813554Y0000887935D01*
X0000813554Y0000872469D01*
X0000840269Y0000872469D02*
X0000840269Y0000901996D01*
X0000840269Y0000873875D02*
X0000837457Y0000872469D01*
X0000831833Y0000872469D01*
X0000829021Y0000873875D01*
X0000827615Y0000875281D01*
X0000826209Y0000878093D01*
X0000826209Y0000886529D01*
X0000827615Y0000889341D01*
X0000829021Y0000890748D01*
X0000831833Y0000892154D01*
X0000837457Y0000892154D01*
X0000840269Y0000890748D01*
X0000893700Y0000875281D02*
X0000892294Y0000873875D01*
X0000888076Y0000872469D01*
X0000885264Y0000872469D01*
X0000881046Y0000873875D01*
X0000878233Y0000876687D01*
X0000876827Y0000879499D01*
X0000875421Y0000885123D01*
X0000875421Y0000889341D01*
X0000876827Y0000894966D01*
X0000878233Y0000897778D01*
X0000881046Y0000900590D01*
X0000885264Y0000901996D01*
X0000888076Y0000901996D01*
X0000892294Y0000900590D01*
X0000893700Y0000899184D01*
X0000919010Y0000892154D02*
X0000919010Y0000872469D01*
X0000906355Y0000892154D02*
X0000906355Y0000876687D01*
X0000907761Y0000873875D01*
X0000910573Y0000872469D01*
X0000914791Y0000872469D01*
X0000917604Y0000873875D01*
X0000919010Y0000875281D01*
X0000928852Y0000892154D02*
X0000940101Y0000892154D01*
X0000933070Y0000901996D02*
X0000933070Y0000876687D01*
X0000934476Y0000873875D01*
X0000937289Y0000872469D01*
X0000940101Y0000872469D01*
X0000954161Y0000872469D02*
X0000951349Y0000873875D01*
X0000949943Y0000875281D01*
X0000948537Y0000878093D01*
X0000948537Y0000886529D01*
X0000949943Y0000889341D01*
X0000951349Y0000890748D01*
X0000954161Y0000892154D01*
X0000958380Y0000892154D01*
X0000961192Y0000890748D01*
X0000962598Y0000889341D01*
X0000964004Y0000886529D01*
X0000964004Y0000878093D01*
X0000962598Y0000875281D01*
X0000961192Y0000873875D01*
X0000958380Y0000872469D01*
X0000954161Y0000872469D01*
X0000989313Y0000892154D02*
X0000989313Y0000872469D01*
X0000976659Y0000892154D02*
X0000976659Y0000876687D01*
X0000978065Y0000873875D01*
X0000980877Y0000872469D01*
X0000985095Y0000872469D01*
X0000987907Y0000873875D01*
X0000989313Y0000875281D01*
X0000999156Y0000892154D02*
X0001010404Y0000892154D01*
X0001003374Y0000901996D02*
X0001003374Y0000876687D01*
X0001004780Y0000873875D01*
X0001007592Y0000872469D01*
X0001010404Y0000872469D01*
X0001018841Y0000873875D02*
X0001021653Y0000872469D01*
X0001027277Y0000872469D01*
X0001030089Y0000873875D01*
X0001031496Y0000876687D01*
X0001031496Y0000878093D01*
X0001030089Y0000880905D01*
X0001027277Y0000882311D01*
X0001023059Y0000882311D01*
X0001020247Y0000883717D01*
X0001018841Y0000886529D01*
X0001018841Y0000887935D01*
X0001020247Y0000890748D01*
X0001023059Y0000892154D01*
X0001027277Y0000892154D01*
X0001030089Y0000890748D01*
X0001079302Y0000892154D02*
X0001079302Y0000872469D01*
X0001066647Y0000892154D02*
X0001066647Y0000876687D01*
X0001068053Y0000873875D01*
X0001070866Y0000872469D01*
X0001075084Y0000872469D01*
X0001077896Y0000873875D01*
X0001079302Y0000875281D01*
X0001093363Y0000892154D02*
X0001093363Y0000872469D01*
X0001093363Y0000889341D02*
X0001094769Y0000890748D01*
X0001097581Y0000892154D01*
X0001101799Y0000892154D01*
X0001104611Y0000890748D01*
X0001106017Y0000887935D01*
X0001106017Y0000872469D01*
X0001132733Y0000872469D02*
X0001132733Y0000901996D01*
X0001132733Y0000873875D02*
X0001129921Y0000872469D01*
X0001124296Y0000872469D01*
X0001121484Y0000873875D01*
X0001120078Y0000875281D01*
X0001118672Y0000878093D01*
X0001118672Y0000886529D01*
X0001120078Y0000889341D01*
X0001121484Y0000890748D01*
X0001124296Y0000892154D01*
X0001129921Y0000892154D01*
X0001132733Y0000890748D01*
X0001158042Y0000873875D02*
X0001155230Y0000872469D01*
X0001149606Y0000872469D01*
X0001146794Y0000873875D01*
X0001145388Y0000876687D01*
X0001145388Y0000887935D01*
X0001146794Y0000890748D01*
X0001149606Y0000892154D01*
X0001155230Y0000892154D01*
X0001158042Y0000890748D01*
X0001159448Y0000887935D01*
X0001159448Y0000885123D01*
X0001145388Y0000882311D01*
X0001172103Y0000872469D02*
X0001172103Y0000892154D01*
X0001172103Y0000886529D02*
X0001173509Y0000889341D01*
X0001174915Y0000890748D01*
X0001177727Y0000892154D01*
X0001180539Y0000892154D01*
X0001211473Y0000873875D02*
X0001215691Y0000872469D01*
X0001222722Y0000872469D01*
X0001225534Y0000873875D01*
X0001226940Y0000875281D01*
X0001228346Y0000878093D01*
X0001228346Y0000880905D01*
X0001226940Y0000883717D01*
X0001225534Y0000885123D01*
X0001222722Y0000886529D01*
X0001217097Y0000887935D01*
X0001214285Y0000889341D01*
X0001212879Y0000890748D01*
X0001211473Y0000893560D01*
X0001211473Y0000896372D01*
X0001212879Y0000899184D01*
X0001214285Y0000900590D01*
X0001217097Y0000901996D01*
X0001224128Y0000901996D01*
X0001228346Y0000900590D01*
X0001241001Y0000872469D02*
X0001241001Y0000901996D01*
X0001250843Y0000880905D01*
X0001260686Y0000901996D01*
X0001260686Y0000872469D01*
X0001273340Y0000880905D02*
X0001287401Y0000880905D01*
X0001270528Y0000872469D02*
X0001280371Y0000901996D01*
X0001290213Y0000872469D01*
X0001322553Y0001637701D02*
X0001309430Y0001656449D01*
X0001300056Y0001637701D02*
X0001300056Y0001677071D01*
X0001315054Y0001677071D01*
X0001318803Y0001675196D01*
X0001320678Y0001673322D01*
X0001322553Y0001669572D01*
X0001322553Y0001663948D01*
X0001320678Y0001660198D01*
X0001318803Y0001658323D01*
X0001315054Y0001656449D01*
X0001300056Y0001656449D01*
X0001354424Y0001639576D02*
X0001350674Y0001637701D01*
X0001343175Y0001637701D01*
X0001339426Y0001639576D01*
X0001337551Y0001643325D01*
X0001337551Y0001658323D01*
X0001339426Y0001662073D01*
X0001343175Y0001663948D01*
X0001350674Y0001663948D01*
X0001354424Y0001662073D01*
X0001356299Y0001658323D01*
X0001356299Y0001654574D01*
X0001337551Y0001650824D01*
X0001369422Y0001663948D02*
X0001378796Y0001637701D01*
X0001388170Y0001663948D01*
X0001453786Y0001637701D02*
X0001431289Y0001637701D01*
X0001442538Y0001637701D02*
X0001442538Y0001677071D01*
X0001438788Y0001671447D01*
X0001435039Y0001667697D01*
X0001431289Y0001665823D01*
D12*
X0000415635Y0001714566D02*
X0000443756Y0001714566D01*
X0000410011Y0001697694D02*
X0000429696Y0001756749D01*
X0000449381Y0001697694D01*
X0000469066Y0001697694D02*
X0000469066Y0001756749D01*
X0000483127Y0001756749D01*
X0000491563Y0001753937D01*
X0000497187Y0001748312D01*
X0000499999Y0001742688D01*
X0000502812Y0001731439D01*
X0000502812Y0001723003D01*
X0000499999Y0001711754D01*
X0000497187Y0001706130D01*
X0000491563Y0001700506D01*
X0000483127Y0001697694D01*
X0000469066Y0001697694D01*
X0000561867Y0001703318D02*
X0000559055Y0001700506D01*
X0000550618Y0001697694D01*
X0000544994Y0001697694D01*
X0000536557Y0001700506D01*
X0000530933Y0001706130D01*
X0000528121Y0001711754D01*
X0000525309Y0001723003D01*
X0000525309Y0001731439D01*
X0000528121Y0001742688D01*
X0000530933Y0001748312D01*
X0000536557Y0001753937D01*
X0000544994Y0001756749D01*
X0000550618Y0001756749D01*
X0000559055Y0001753937D01*
X0000561867Y0001751124D01*
X0000587176Y0001720191D02*
X0000632170Y0001720191D01*
X0000691226Y0001697694D02*
X0000657480Y0001697694D01*
X0000674353Y0001697694D02*
X0000674353Y0001756749D01*
X0000668728Y0001748312D01*
X0000663104Y0001742688D01*
X0000657480Y0001739876D01*
X0000744656Y0001756749D02*
X0000716535Y0001756749D01*
X0000713723Y0001728627D01*
X0000716535Y0001731439D01*
X0000722159Y0001734251D01*
X0000736220Y0001734251D01*
X0000741844Y0001731439D01*
X0000744656Y0001728627D01*
X0000747469Y0001723003D01*
X0000747469Y0001708942D01*
X0000744656Y0001703318D01*
X0000741844Y0001700506D01*
X0000736220Y0001697694D01*
X0000722159Y0001697694D01*
X0000716535Y0001700506D01*
X0000713723Y0001703318D01*
X0000772778Y0001720191D02*
X0000817772Y0001720191D01*
X0000871203Y0001737064D02*
X0000871203Y0001697694D01*
X0000857142Y0001759561D02*
X0000843082Y0001717379D01*
X0000879640Y0001717379D01*
X0000902137Y0001720191D02*
X0000947131Y0001720191D01*
X0000924634Y0001697694D02*
X0000924634Y0001742688D01*
X0001020247Y0001697694D02*
X0001020247Y0001756749D01*
X0001034308Y0001756749D01*
X0001042744Y0001753937D01*
X0001048368Y0001748312D01*
X0001051181Y0001742688D01*
X0001053993Y0001731439D01*
X0001053993Y0001723003D01*
X0001051181Y0001711754D01*
X0001048368Y0001706130D01*
X0001042744Y0001700506D01*
X0001034308Y0001697694D01*
X0001020247Y0001697694D01*
X0001101799Y0001700506D02*
X0001096175Y0001697694D01*
X0001084926Y0001697694D01*
X0001079302Y0001700506D01*
X0001076490Y0001706130D01*
X0001076490Y0001728627D01*
X0001079302Y0001734251D01*
X0001084926Y0001737064D01*
X0001096175Y0001737064D01*
X0001101799Y0001734251D01*
X0001104611Y0001728627D01*
X0001104611Y0001723003D01*
X0001076490Y0001717379D01*
X0001124296Y0001737064D02*
X0001138357Y0001697694D01*
X0001152418Y0001737064D01*
X0001239595Y0001728627D02*
X0001248031Y0001725815D01*
X0001250843Y0001723003D01*
X0001253655Y0001717379D01*
X0001253655Y0001708942D01*
X0001250843Y0001703318D01*
X0001248031Y0001700506D01*
X0001242407Y0001697694D01*
X0001219910Y0001697694D01*
X0001219910Y0001756749D01*
X0001239595Y0001756749D01*
X0001245219Y0001753937D01*
X0001248031Y0001751124D01*
X0001250843Y0001745500D01*
X0001250843Y0001739876D01*
X0001248031Y0001734251D01*
X0001245219Y0001731439D01*
X0001239595Y0001728627D01*
X0001219910Y0001728627D01*
X0001287401Y0001697694D02*
X0001281777Y0001700506D01*
X0001278965Y0001703318D01*
X0001276152Y0001708942D01*
X0001276152Y0001725815D01*
X0001278965Y0001731439D01*
X0001281777Y0001734251D01*
X0001287401Y0001737064D01*
X0001295837Y0001737064D01*
X0001301462Y0001734251D01*
X0001304274Y0001731439D01*
X0001307086Y0001725815D01*
X0001307086Y0001708942D01*
X0001304274Y0001703318D01*
X0001301462Y0001700506D01*
X0001295837Y0001697694D01*
X0001287401Y0001697694D01*
X0001357705Y0001697694D02*
X0001357705Y0001728627D01*
X0001354893Y0001734251D01*
X0001349268Y0001737064D01*
X0001338020Y0001737064D01*
X0001332395Y0001734251D01*
X0001357705Y0001700506D02*
X0001352080Y0001697694D01*
X0001338020Y0001697694D01*
X0001332395Y0001700506D01*
X0001329583Y0001706130D01*
X0001329583Y0001711754D01*
X0001332395Y0001717379D01*
X0001338020Y0001720191D01*
X0001352080Y0001720191D01*
X0001357705Y0001723003D01*
X0001385826Y0001697694D02*
X0001385826Y0001737064D01*
X0001385826Y0001725815D02*
X0001388638Y0001731439D01*
X0001391451Y0001734251D01*
X0001397075Y0001737064D01*
X0001402699Y0001737064D01*
X0001447693Y0001697694D02*
X0001447693Y0001756749D01*
X0001447693Y0001700506D02*
X0001442069Y0001697694D01*
X0001430821Y0001697694D01*
X0001425196Y0001700506D01*
X0001422384Y0001703318D01*
X0001419572Y0001708942D01*
X0001419572Y0001725815D01*
X0001422384Y0001731439D01*
X0001425196Y0001734251D01*
X0001430821Y0001737064D01*
X0001442069Y0001737064D01*
X0001447693Y0001734251D01*
D11*
X0000980596Y0000061586D02*
X0000977783Y0000058773D01*
X0000969347Y0000055961D01*
X0000963723Y0000055961D01*
X0000955286Y0000058773D01*
X0000949662Y0000064398D01*
X0000946850Y0000070022D01*
X0000944038Y0000081271D01*
X0000944038Y0000089707D01*
X0000946850Y0000100956D01*
X0000949662Y0000106580D01*
X0000955286Y0000112204D01*
X0000963723Y0000115016D01*
X0000969347Y0000115016D01*
X0000977783Y0000112204D01*
X0000980596Y0000109392D01*
X0001017154Y0000115016D02*
X0001028402Y0000115016D01*
X0001034026Y0000112204D01*
X0001039651Y0000106580D01*
X0001042463Y0000095331D01*
X0001042463Y0000075646D01*
X0001039651Y0000064398D01*
X0001034026Y0000058773D01*
X0001028402Y0000055961D01*
X0001017154Y0000055961D01*
X0001011529Y0000058773D01*
X0001005905Y0000064398D01*
X0001003093Y0000075646D01*
X0001003093Y0000095331D01*
X0001005905Y0000106580D01*
X0001011529Y0000112204D01*
X0001017154Y0000115016D01*
X0001067772Y0000115016D02*
X0001067772Y0000067210D01*
X0001070584Y0000061586D01*
X0001073397Y0000058773D01*
X0001079021Y0000055961D01*
X0001090269Y0000055961D01*
X0001095894Y0000058773D01*
X0001098706Y0000061586D01*
X0001101518Y0000067210D01*
X0001101518Y0000115016D01*
X0001129640Y0000055961D02*
X0001129640Y0000115016D01*
X0001152137Y0000115016D01*
X0001157761Y0000112204D01*
X0001160573Y0000109392D01*
X0001163385Y0000103768D01*
X0001163385Y0000095331D01*
X0001160573Y0000089707D01*
X0001157761Y0000086895D01*
X0001152137Y0000084083D01*
X0001129640Y0000084083D01*
X0001216816Y0000055961D02*
X0001188695Y0000055961D01*
X0001188695Y0000115016D01*
X0001236501Y0000086895D02*
X0001256186Y0000086895D01*
X0001264623Y0000055961D02*
X0001236501Y0000055961D01*
X0001236501Y0000115016D01*
X0001264623Y0000115016D01*
X0001289932Y0000055961D02*
X0001289932Y0000115016D01*
X0001303993Y0000115016D01*
X0001312429Y0000112204D01*
X0001318053Y0000106580D01*
X0001320866Y0000100956D01*
X0001323678Y0000089707D01*
X0001323678Y0000081271D01*
X0001320866Y0000070022D01*
X0001318053Y0000064398D01*
X0001312429Y0000058773D01*
X0001303993Y0000055961D01*
X0001289932Y0000055961D01*
X0001389482Y0000685883D02*
X0001400731Y0000685883D01*
X0001406355Y0000683070D01*
X0001411979Y0000677446D01*
X0001414791Y0000666197D01*
X0001414791Y0000646512D01*
X0001411979Y0000635264D01*
X0001406355Y0000629640D01*
X0001400731Y0000626827D01*
X0001389482Y0000626827D01*
X0001383858Y0000629640D01*
X0001378233Y0000635264D01*
X0001375421Y0000646512D01*
X0001375421Y0000666197D01*
X0001378233Y0000677446D01*
X0001383858Y0000683070D01*
X0001389482Y0000685883D01*
X0001440101Y0000685883D02*
X0001440101Y0000638076D01*
X0001442913Y0000632452D01*
X0001445725Y0000629640D01*
X0001451349Y0000626827D01*
X0001462598Y0000626827D01*
X0001468222Y0000629640D01*
X0001471034Y0000632452D01*
X0001473846Y0000638076D01*
X0001473846Y0000685883D01*
X0001493532Y0000685883D02*
X0001527277Y0000685883D01*
X0001510404Y0000626827D02*
X0001510404Y0000685883D01*
X0001546962Y0000626827D02*
X0001546962Y0000685883D01*
X0001569460Y0000685883D01*
X0001575084Y0000683070D01*
X0001577896Y0000680258D01*
X0001580708Y0000674634D01*
X0001580708Y0000666197D01*
X0001577896Y0000660573D01*
X0001575084Y0000657761D01*
X0001569460Y0000654949D01*
X0001546962Y0000654949D01*
X0001606017Y0000685883D02*
X0001606017Y0000638076D01*
X0001608830Y0000632452D01*
X0001611642Y0000629640D01*
X0001617266Y0000626827D01*
X0001628515Y0000626827D01*
X0001634139Y0000629640D01*
X0001636951Y0000632452D01*
X0001639763Y0000638076D01*
X0001639763Y0000685883D01*
X0001659448Y0000685883D02*
X0001693194Y0000685883D01*
X0001676321Y0000626827D02*
X0001676321Y0000685883D01*
X0000201068Y0000630764D02*
X0000201068Y0000689820D01*
X0000229190Y0000630764D02*
X0000229190Y0000689820D01*
X0000262935Y0000630764D01*
X0000262935Y0000689820D01*
X0000291057Y0000630764D02*
X0000291057Y0000689820D01*
X0000313554Y0000689820D01*
X0000319178Y0000687007D01*
X0000321990Y0000684195D01*
X0000324803Y0000678571D01*
X0000324803Y0000670134D01*
X0000321990Y0000664510D01*
X0000319178Y0000661698D01*
X0000313554Y0000658886D01*
X0000291057Y0000658886D01*
X0000350112Y0000689820D02*
X0000350112Y0000642013D01*
X0000352924Y0000636389D01*
X0000355736Y0000633577D01*
X0000361361Y0000630764D01*
X0000372609Y0000630764D01*
X0000378233Y0000633577D01*
X0000381046Y0000636389D01*
X0000383858Y0000642013D01*
X0000383858Y0000689820D01*
X0000403543Y0000689820D02*
X0000437289Y0000689820D01*
X0000420416Y0000630764D02*
X0000420416Y0000689820D01*
D10*
X0001143022Y0000567086D02*
X0001173337Y0000597401D01*
X0001173337Y0000597401D02*
X0001203652Y0000597401D01*
X0001203652Y0000597401D02*
X0001203652Y0000293070D01*
X0001203652Y0000293070D02*
X0001143022Y0000293070D01*
X0001143022Y0000293070D02*
X0001143022Y0000567086D01*
D13*
X0001421653Y0000371544D02*
X0001421653Y0000384361D01*
X0001381496Y0000371544D02*
X0001381496Y0000384361D01*
D10*
X0001144278Y0000639583D02*
X0001131155Y0000639583D01*
X0001131155Y0000618960D02*
X0001131155Y0000658331D01*
X0001149903Y0000658331D01*
X0001183648Y0000618960D02*
X0001164901Y0000618960D01*
X0001164901Y0000658331D01*
X0001217394Y0000618960D02*
X0001194897Y0000618960D01*
X0001206146Y0000618960D02*
X0001206146Y0000658331D01*
X0001202396Y0000652706D01*
X0001198647Y0000648957D01*
X0001194897Y0000647082D01*
X0001396981Y0000263685D02*
X0001383858Y0000282433D01*
X0001374484Y0000263685D02*
X0001374484Y0000303055D01*
X0001389482Y0000303055D01*
X0001393232Y0000301181D01*
X0001395106Y0000299306D01*
X0001396981Y0000295556D01*
X0001396981Y0000289932D01*
X0001395106Y0000286182D01*
X0001393232Y0000284308D01*
X0001389482Y0000282433D01*
X0001374484Y0000282433D01*
X0001434476Y0000263685D02*
X0001411979Y0000263685D01*
X0001423228Y0000263685D02*
X0001423228Y0000303055D01*
X0001419478Y0000297431D01*
X0001415729Y0000293682D01*
X0001411979Y0000291807D01*
G04 next file*
G04 #@! TF.GenerationSoftware,KiCad,Pcbnew,(5.0.2)-1*
G04 #@! TF.CreationDate,2019-01-06T12:14:53+11:00*
G04 #@! TF.ProjectId,Filter_Bank_Dev_Rev_0,46696c74-6572-45f4-9261-6e6b5f446576,0*
G04 #@! TF.SameCoordinates,Original*
G04 #@! TF.FileFunction,Legend,Top*
G04 #@! TF.FilePolarity,Positive*
G04 Gerber Fmt 4.6, Leading zero omitted, Abs format (unit mm)*
G04 Created by KiCad (PCBNEW (5.0.2)-1) date 6/01/2019 12:14:53*
G01*
G04 APERTURE LIST*
G04 APERTURE END LIST*
D24*
G04 #@! TO.C,U1*
X0002619094Y0000930118D02*
X0002638779Y0000930118D01*
X0002619094Y0001058070D02*
X0002638779Y0001058070D01*
X0002747047Y0001058070D02*
X0002727362Y0001058070D01*
X0002747047Y0000930118D02*
X0002727362Y0000930118D01*
X0002619094Y0001058070D02*
X0002619094Y0001038385D01*
X0002747047Y0001058070D02*
X0002747047Y0001038385D01*
X0002619094Y0000930118D02*
X0002619094Y0000949803D01*
G04 #@! TO.C,U4*
X0003380905Y0001038385D02*
X0003361220Y0001038385D01*
X0003380905Y0000910433D02*
X0003361220Y0000910433D01*
X0003252952Y0000910433D02*
X0003272637Y0000910433D01*
X0003252952Y0001038385D02*
X0003272637Y0001038385D01*
X0003380905Y0000910433D02*
X0003380905Y0000930118D01*
X0003252952Y0000910433D02*
X0003252952Y0000930118D01*
X0003380905Y0001038385D02*
X0003380905Y0001018700D01*
D25*
G04 #@! TO.C,SW1*
X0002654921Y0000287270D02*
X0002704921Y0000287270D01*
X0002702165Y0000239763D02*
X0002702165Y0000287270D01*
X0002697440Y0000239763D02*
X0002697440Y0000287270D01*
X0002692716Y0000239763D02*
X0002692716Y0000287270D01*
X0002687992Y0000239763D02*
X0002687992Y0000287270D01*
X0002683267Y0000239763D02*
X0002683267Y0000287270D01*
X0002678543Y0000239763D02*
X0002678543Y0000287270D01*
X0002673818Y0000239763D02*
X0002673818Y0000287270D01*
X0002669094Y0000239763D02*
X0002669094Y0000287270D01*
X0002664370Y0000239763D02*
X0002664370Y0000287270D01*
X0002659645Y0000239763D02*
X0002659645Y0000287270D01*
X0002654921Y0000382283D02*
X0002654921Y0000239763D01*
X0002704921Y0000382283D02*
X0002654921Y0000382283D01*
X0002704921Y0000239763D02*
X0002704921Y0000382283D01*
X0002654921Y0000239763D02*
X0002704921Y0000239763D01*
X0002554921Y0000287270D02*
X0002604921Y0000287270D01*
X0002602165Y0000239763D02*
X0002602165Y0000287270D01*
X0002597440Y0000239763D02*
X0002597440Y0000287270D01*
X0002592716Y0000239763D02*
X0002592716Y0000287270D01*
X0002587992Y0000239763D02*
X0002587992Y0000287270D01*
X0002583267Y0000239763D02*
X0002583267Y0000287270D01*
X0002578543Y0000239763D02*
X0002578543Y0000287270D01*
X0002573818Y0000239763D02*
X0002573818Y0000287270D01*
X0002569094Y0000239763D02*
X0002569094Y0000287270D01*
X0002564370Y0000239763D02*
X0002564370Y0000287270D01*
X0002559645Y0000239763D02*
X0002559645Y0000287270D01*
X0002554921Y0000382283D02*
X0002554921Y0000239763D01*
X0002604921Y0000382283D02*
X0002554921Y0000382283D01*
X0002604921Y0000239763D02*
X0002604921Y0000382283D01*
X0002554921Y0000239763D02*
X0002604921Y0000239763D01*
X0002485433Y0000088582D02*
X0002539881Y0000088582D01*
X0002485433Y0000088582D02*
X0002485433Y0000143031D01*
X0002611417Y0000522047D02*
X0002648425Y0000522047D01*
X0002496062Y0000522047D02*
X0002547637Y0000522047D01*
X0002710236Y0000522047D02*
X0002761811Y0000522047D01*
X0002709448Y0000098031D02*
X0002761023Y0000098031D01*
X0002609448Y0000098031D02*
X0002646456Y0000098031D01*
X0002494881Y0000098031D02*
X0002546456Y0000098031D01*
X0002761023Y0000098031D02*
X0002761811Y0000521653D01*
X0002494881Y0000098031D02*
X0002496062Y0000521653D01*
G04 #@! TO.C,C2*
X0003765410Y0001506299D02*
X0003785770Y0001506299D01*
X0003765410Y0001450393D02*
X0003785770Y0001450393D01*
G04 #@! TO.C,C4*
X0003412795Y0001177165D02*
X0003412795Y0001331102D01*
X0003412795Y0001331102D02*
X0003339173Y0001331102D01*
X0003339173Y0001331102D02*
X0003339173Y0001177165D01*
G04 #@! TO.C,R1*
X0002552010Y0000550787D02*
X0002531650Y0000550787D01*
X0002552010Y0000606692D02*
X0002531650Y0000606692D01*
G04 #@! TO.C,R2*
X0002706355Y0000554724D02*
X0002726715Y0000554724D01*
X0002706355Y0000610629D02*
X0002726715Y0000610629D01*
G04 #@! TO.C,U2*
X0002566929Y0000734645D02*
X0002492125Y0000734645D01*
X0002511811Y0000643307D02*
X0002566929Y0000643307D01*
G04 #@! TO.C,U3*
X0003538976Y0001427559D02*
X0003538976Y0001377952D01*
X0003538976Y0001159055D02*
X0003538976Y0001208661D01*
X0003687007Y0001427559D02*
X0003538976Y0001427559D01*
X0003775590Y0001159055D02*
X0003538976Y0001159055D01*
G04 #@! TO.C,U1*
D24*
X0002532995Y0001076677D02*
X0002532995Y0001044806D01*
X0002534870Y0001041057D01*
X0002536745Y0001039182D01*
X0002540494Y0001037307D01*
X0002547993Y0001037307D01*
X0002551743Y0001039182D01*
X0002553618Y0001041057D01*
X0002555492Y0001044806D01*
X0002555492Y0001076677D01*
X0002594863Y0001037307D02*
X0002572365Y0001037307D01*
X0002583614Y0001037307D02*
X0002583614Y0001076677D01*
X0002579865Y0001071053D01*
X0002576115Y0001067304D01*
X0002572365Y0001065429D01*
G04 #@! TO.C,U4*
X0003408980Y0001082583D02*
X0003408980Y0001050712D01*
X0003410854Y0001046962D01*
X0003412729Y0001045088D01*
X0003416479Y0001043213D01*
X0003423978Y0001043213D01*
X0003427727Y0001045088D01*
X0003429602Y0001046962D01*
X0003431477Y0001050712D01*
X0003431477Y0001082583D01*
X0003467097Y0001069460D02*
X0003467097Y0001043213D01*
X0003457724Y0001084458D02*
X0003448350Y0001056336D01*
X0003472722Y0001056336D01*
G04 #@! TO.C,SW1*
X0002473415Y0000258530D02*
X0002475290Y0000264154D01*
X0002475290Y0000273528D01*
X0002473415Y0000277277D01*
X0002471541Y0000279152D01*
X0002467791Y0000281027D01*
X0002464041Y0000281027D01*
X0002460292Y0000279152D01*
X0002458417Y0000277277D01*
X0002456542Y0000273528D01*
X0002454668Y0000266029D01*
X0002452793Y0000262279D01*
X0002450918Y0000260404D01*
X0002447169Y0000258530D01*
X0002443419Y0000258530D01*
X0002439670Y0000260404D01*
X0002437795Y0000262279D01*
X0002435920Y0000266029D01*
X0002435920Y0000275403D01*
X0002437795Y0000281027D01*
X0002435920Y0000294150D02*
X0002475290Y0000303524D01*
X0002447169Y0000311023D01*
X0002475290Y0000318522D01*
X0002435920Y0000327896D01*
X0002475290Y0000363517D02*
X0002475290Y0000341019D01*
X0002475290Y0000352268D02*
X0002435920Y0000352268D01*
X0002441544Y0000348518D01*
X0002445294Y0000344769D01*
X0002447169Y0000341019D01*
G04 #@! TO.C,FL1*
X0002972909Y0000416197D02*
X0002959786Y0000416197D01*
X0002959786Y0000395575D02*
X0002959786Y0000434945D01*
X0002978533Y0000434945D01*
X0003012279Y0000395575D02*
X0002993532Y0000395575D01*
X0002993532Y0000434945D01*
X0003046025Y0000395575D02*
X0003023528Y0000395575D01*
X0003034776Y0000395575D02*
X0003034776Y0000434945D01*
X0003031027Y0000429321D01*
X0003027277Y0000425571D01*
X0003023528Y0000423697D01*
G04 #@! TO.C,FL2*
X0002972909Y0000475253D02*
X0002959786Y0000475253D01*
X0002959786Y0000454630D02*
X0002959786Y0000494000D01*
X0002978533Y0000494000D01*
X0003012279Y0000454630D02*
X0002993532Y0000454630D01*
X0002993532Y0000494000D01*
X0003023528Y0000490251D02*
X0003025403Y0000492125D01*
X0003029152Y0000494000D01*
X0003038526Y0000494000D01*
X0003042275Y0000492125D01*
X0003044150Y0000490251D01*
X0003046025Y0000486501D01*
X0003046025Y0000482752D01*
X0003044150Y0000477127D01*
X0003021653Y0000454630D01*
X0003046025Y0000454630D01*
G04 #@! TO.C,FL3*
X0002972909Y0000534308D02*
X0002959786Y0000534308D01*
X0002959786Y0000513685D02*
X0002959786Y0000553055D01*
X0002978533Y0000553055D01*
X0003012279Y0000513685D02*
X0002993532Y0000513685D01*
X0002993532Y0000553055D01*
X0003021653Y0000553055D02*
X0003046025Y0000553055D01*
X0003032902Y0000538057D01*
X0003038526Y0000538057D01*
X0003042275Y0000536182D01*
X0003044150Y0000534308D01*
X0003046025Y0000530558D01*
X0003046025Y0000521184D01*
X0003044150Y0000517435D01*
X0003042275Y0000515560D01*
X0003038526Y0000513685D01*
X0003027277Y0000513685D01*
X0003023528Y0000515560D01*
X0003021653Y0000517435D01*
G04 #@! TO.C,FL4*
X0002972909Y0000593363D02*
X0002959786Y0000593363D01*
X0002959786Y0000572740D02*
X0002959786Y0000612110D01*
X0002978533Y0000612110D01*
X0003012279Y0000572740D02*
X0002993532Y0000572740D01*
X0002993532Y0000612110D01*
X0003042275Y0000598987D02*
X0003042275Y0000572740D01*
X0003032902Y0000613985D02*
X0003023528Y0000585864D01*
X0003047900Y0000585864D01*
G04 #@! TO.C,C2*
X0003658792Y0001466254D02*
X0003656917Y0001464379D01*
X0003651293Y0001462504D01*
X0003647544Y0001462504D01*
X0003641919Y0001464379D01*
X0003638170Y0001468129D01*
X0003636295Y0001471878D01*
X0003634420Y0001479377D01*
X0003634420Y0001485001D01*
X0003636295Y0001492500D01*
X0003638170Y0001496250D01*
X0003641919Y0001500000D01*
X0003647544Y0001501874D01*
X0003651293Y0001501874D01*
X0003656917Y0001500000D01*
X0003658792Y0001498125D01*
X0003673790Y0001498125D02*
X0003675665Y0001500000D01*
X0003679415Y0001501874D01*
X0003688788Y0001501874D01*
X0003692538Y0001500000D01*
X0003694413Y0001498125D01*
X0003696287Y0001494375D01*
X0003696287Y0001490626D01*
X0003694413Y0001485001D01*
X0003671915Y0001462504D01*
X0003696287Y0001462504D01*
G04 #@! TO.C,C3*
X0003133202Y0000989876D02*
X0003131327Y0000988001D01*
X0003125703Y0000986126D01*
X0003121953Y0000986126D01*
X0003116329Y0000988001D01*
X0003112579Y0000991751D01*
X0003110704Y0000995500D01*
X0003108830Y0001002999D01*
X0003108830Y0001008623D01*
X0003110704Y0001016122D01*
X0003112579Y0001019872D01*
X0003116329Y0001023622D01*
X0003121953Y0001025496D01*
X0003125703Y0001025496D01*
X0003131327Y0001023622D01*
X0003133202Y0001021747D01*
X0003146325Y0001025496D02*
X0003170697Y0001025496D01*
X0003157574Y0001010498D01*
X0003163198Y0001010498D01*
X0003166947Y0001008623D01*
X0003168822Y0001006749D01*
X0003170697Y0001002999D01*
X0003170697Y0000993625D01*
X0003168822Y0000989876D01*
X0003166947Y0000988001D01*
X0003163198Y0000986126D01*
X0003151949Y0000986126D01*
X0003148200Y0000988001D01*
X0003146325Y0000989876D01*
G04 #@! TO.C,C4*
X0003280839Y0001226096D02*
X0003278965Y0001224222D01*
X0003273340Y0001222347D01*
X0003269591Y0001222347D01*
X0003263966Y0001224222D01*
X0003260217Y0001227971D01*
X0003258342Y0001231721D01*
X0003256467Y0001239220D01*
X0003256467Y0001244844D01*
X0003258342Y0001252343D01*
X0003260217Y0001256092D01*
X0003263966Y0001259842D01*
X0003269591Y0001261717D01*
X0003273340Y0001261717D01*
X0003278965Y0001259842D01*
X0003280839Y0001257967D01*
X0003314585Y0001248593D02*
X0003314585Y0001222347D01*
X0003305211Y0001263592D02*
X0003295837Y0001235470D01*
X0003320209Y0001235470D01*
G04 #@! TO.C,C5*
X0002857611Y0000911136D02*
X0002855736Y0000909261D01*
X0002850112Y0000907386D01*
X0002846362Y0000907386D01*
X0002840738Y0000909261D01*
X0002836989Y0000913010D01*
X0002835114Y0000916760D01*
X0002833239Y0000924259D01*
X0002833239Y0000929883D01*
X0002835114Y0000937382D01*
X0002836989Y0000941132D01*
X0002840738Y0000944881D01*
X0002846362Y0000946756D01*
X0002850112Y0000946756D01*
X0002855736Y0000944881D01*
X0002857611Y0000943007D01*
X0002893232Y0000946756D02*
X0002874484Y0000946756D01*
X0002872609Y0000928008D01*
X0002874484Y0000929883D01*
X0002878233Y0000931758D01*
X0002887607Y0000931758D01*
X0002891357Y0000929883D01*
X0002893232Y0000928008D01*
X0002895106Y0000924259D01*
X0002895106Y0000914885D01*
X0002893232Y0000911136D01*
X0002891357Y0000909261D01*
X0002887607Y0000907386D01*
X0002878233Y0000907386D01*
X0002874484Y0000909261D01*
X0002872609Y0000911136D01*
G04 #@! TO.C,J1*
X0002979002Y0001665260D02*
X0002979002Y0001637139D01*
X0002977127Y0001631514D01*
X0002973378Y0001627765D01*
X0002967754Y0001625890D01*
X0002964004Y0001625890D01*
X0003018372Y0001625890D02*
X0002995875Y0001625890D01*
X0003007124Y0001625890D02*
X0003007124Y0001665260D01*
X0003003374Y0001659636D01*
X0002999625Y0001655886D01*
X0002995875Y0001654012D01*
G04 #@! TO.C,R1*
X0002430446Y0000560929D02*
X0002417322Y0000579677D01*
X0002407948Y0000560929D02*
X0002407948Y0000600299D01*
X0002422947Y0000600299D01*
X0002426696Y0000598425D01*
X0002428571Y0000596550D01*
X0002430446Y0000592800D01*
X0002430446Y0000587176D01*
X0002428571Y0000583427D01*
X0002426696Y0000581552D01*
X0002422947Y0000579677D01*
X0002407948Y0000579677D01*
X0002467941Y0000560929D02*
X0002445444Y0000560929D01*
X0002456692Y0000560929D02*
X0002456692Y0000600299D01*
X0002452943Y0000594675D01*
X0002449193Y0000590926D01*
X0002445444Y0000589051D01*
G04 #@! TO.C,R2*
X0002816272Y0000560929D02*
X0002803149Y0000579677D01*
X0002793775Y0000560929D02*
X0002793775Y0000600299D01*
X0002808773Y0000600299D01*
X0002812523Y0000598425D01*
X0002814398Y0000596550D01*
X0002816272Y0000592800D01*
X0002816272Y0000587176D01*
X0002814398Y0000583427D01*
X0002812523Y0000581552D01*
X0002808773Y0000579677D01*
X0002793775Y0000579677D01*
X0002831271Y0000596550D02*
X0002833145Y0000598425D01*
X0002836895Y0000600299D01*
X0002846269Y0000600299D01*
X0002850018Y0000598425D01*
X0002851893Y0000596550D01*
X0002853768Y0000592800D01*
X0002853768Y0000589051D01*
X0002851893Y0000583427D01*
X0002829396Y0000560929D01*
X0002853768Y0000560929D01*
G04 #@! TO.C,U2*
X0002509373Y0000789276D02*
X0002509373Y0000757405D01*
X0002511248Y0000753655D01*
X0002513123Y0000751781D01*
X0002516872Y0000749906D01*
X0002524371Y0000749906D01*
X0002528121Y0000751781D01*
X0002529996Y0000753655D01*
X0002531870Y0000757405D01*
X0002531870Y0000789276D01*
X0002548743Y0000785526D02*
X0002550618Y0000787401D01*
X0002554368Y0000789276D01*
X0002563741Y0000789276D01*
X0002567491Y0000787401D01*
X0002569366Y0000785526D01*
X0002571241Y0000781777D01*
X0002571241Y0000778027D01*
X0002569366Y0000772403D01*
X0002546869Y0000749906D01*
X0002571241Y0000749906D01*
G04 #@! TO.C,U3*
X0003584176Y0001137701D02*
X0003584176Y0001105830D01*
X0003586051Y0001102081D01*
X0003587926Y0001100206D01*
X0003591675Y0001098331D01*
X0003599175Y0001098331D01*
X0003602924Y0001100206D01*
X0003604799Y0001102081D01*
X0003606674Y0001105830D01*
X0003606674Y0001137701D01*
X0003621672Y0001137701D02*
X0003646044Y0001137701D01*
X0003632920Y0001122703D01*
X0003638545Y0001122703D01*
X0003642294Y0001120828D01*
X0003644169Y0001118953D01*
X0003646044Y0001115204D01*
X0003646044Y0001105830D01*
X0003644169Y0001102081D01*
X0003642294Y0001100206D01*
X0003638545Y0001098331D01*
X0003627296Y0001098331D01*
X0003623547Y0001100206D01*
X0003621672Y0001102081D01*
G04 #@! TO.C,C1*
X0002552493Y0000911136D02*
X0002550618Y0000909261D01*
X0002544994Y0000907386D01*
X0002541244Y0000907386D01*
X0002535620Y0000909261D01*
X0002531870Y0000913010D01*
X0002529996Y0000916760D01*
X0002528121Y0000924259D01*
X0002528121Y0000929883D01*
X0002529996Y0000937382D01*
X0002531870Y0000941132D01*
X0002535620Y0000944881D01*
X0002541244Y0000946756D01*
X0002544994Y0000946756D01*
X0002550618Y0000944881D01*
X0002552493Y0000943007D01*
X0002589988Y0000907386D02*
X0002567491Y0000907386D01*
X0002578740Y0000907386D02*
X0002578740Y0000946756D01*
X0002574990Y0000941132D01*
X0002571241Y0000937382D01*
X0002567491Y0000935508D01*
G04 #@! TO.C,C6*
X0003428477Y0000911136D02*
X0003426602Y0000909261D01*
X0003420978Y0000907386D01*
X0003417229Y0000907386D01*
X0003411604Y0000909261D01*
X0003407855Y0000913010D01*
X0003405980Y0000916760D01*
X0003404105Y0000924259D01*
X0003404105Y0000929883D01*
X0003405980Y0000937382D01*
X0003407855Y0000941132D01*
X0003411604Y0000944881D01*
X0003417229Y0000946756D01*
X0003420978Y0000946756D01*
X0003426602Y0000944881D01*
X0003428477Y0000943007D01*
X0003462223Y0000946756D02*
X0003454724Y0000946756D01*
X0003450974Y0000944881D01*
X0003449100Y0000943007D01*
X0003445350Y0000937382D01*
X0003443475Y0000929883D01*
X0003443475Y0000914885D01*
X0003445350Y0000911136D01*
X0003447225Y0000909261D01*
X0003450974Y0000907386D01*
X0003458473Y0000907386D01*
X0003462223Y0000909261D01*
X0003464098Y0000911136D01*
X0003465972Y0000914885D01*
X0003465972Y0000924259D01*
X0003464098Y0000928008D01*
X0003462223Y0000929883D01*
X0003458473Y0000931758D01*
X0003450974Y0000931758D01*
X0003447225Y0000929883D01*
X0003445350Y0000928008D01*
X0003443475Y0000924259D01*
G04 #@! TO.C,REF\002A\002A*
X0003332395Y0001460536D02*
X0003319272Y0001479283D01*
X0003309898Y0001460536D02*
X0003309898Y0001499906D01*
X0003324896Y0001499906D01*
X0003328646Y0001498031D01*
X0003330521Y0001496156D01*
X0003332395Y0001492407D01*
X0003332395Y0001486782D01*
X0003330521Y0001483033D01*
X0003328646Y0001481158D01*
X0003324896Y0001479283D01*
X0003309898Y0001479283D01*
X0003364266Y0001462410D02*
X0003360517Y0001460536D01*
X0003353018Y0001460536D01*
X0003349268Y0001462410D01*
X0003347394Y0001466160D01*
X0003347394Y0001481158D01*
X0003349268Y0001484908D01*
X0003353018Y0001486782D01*
X0003360517Y0001486782D01*
X0003364266Y0001484908D01*
X0003366141Y0001481158D01*
X0003366141Y0001477409D01*
X0003347394Y0001473659D01*
X0003379265Y0001486782D02*
X0003388638Y0001460536D01*
X0003398012Y0001486782D01*
X0003450506Y0001499906D02*
X0003454255Y0001499906D01*
X0003458005Y0001498031D01*
X0003459880Y0001496156D01*
X0003461754Y0001492407D01*
X0003463629Y0001484908D01*
X0003463629Y0001475534D01*
X0003461754Y0001468035D01*
X0003459880Y0001464285D01*
X0003458005Y0001462410D01*
X0003454255Y0001460536D01*
X0003450506Y0001460536D01*
X0003446756Y0001462410D01*
X0003444881Y0001464285D01*
X0003443007Y0001468035D01*
X0003441132Y0001475534D01*
X0003441132Y0001484908D01*
X0003443007Y0001492407D01*
X0003444881Y0001496156D01*
X0003446756Y0001498031D01*
X0003450506Y0001499906D01*
D26*
X0002519122Y0001541619D02*
X0002499437Y0001541619D01*
X0002499437Y0001510686D02*
X0002499437Y0001569741D01*
X0002527559Y0001569741D01*
X0002550056Y0001510686D02*
X0002550056Y0001550056D01*
X0002550056Y0001569741D02*
X0002547244Y0001566929D01*
X0002550056Y0001564117D01*
X0002552868Y0001566929D01*
X0002550056Y0001569741D01*
X0002550056Y0001564117D01*
X0002586614Y0001510686D02*
X0002580989Y0001513498D01*
X0002578177Y0001519122D01*
X0002578177Y0001569741D01*
X0002600674Y0001550056D02*
X0002623172Y0001550056D01*
X0002609111Y0001569741D02*
X0002609111Y0001519122D01*
X0002611923Y0001513498D01*
X0002617547Y0001510686D01*
X0002623172Y0001510686D01*
X0002665354Y0001513498D02*
X0002659730Y0001510686D01*
X0002648481Y0001510686D01*
X0002642857Y0001513498D01*
X0002640044Y0001519122D01*
X0002640044Y0001541619D01*
X0002642857Y0001547244D01*
X0002648481Y0001550056D01*
X0002659730Y0001550056D01*
X0002665354Y0001547244D01*
X0002668166Y0001541619D01*
X0002668166Y0001535995D01*
X0002640044Y0001530371D01*
X0002693475Y0001510686D02*
X0002693475Y0001550056D01*
X0002693475Y0001538807D02*
X0002696287Y0001544431D01*
X0002699100Y0001547244D01*
X0002704724Y0001550056D01*
X0002710348Y0001550056D01*
X0002794713Y0001541619D02*
X0002803149Y0001538807D01*
X0002805961Y0001535995D01*
X0002808773Y0001530371D01*
X0002808773Y0001521934D01*
X0002805961Y0001516310D01*
X0002803149Y0001513498D01*
X0002797525Y0001510686D01*
X0002775028Y0001510686D01*
X0002775028Y0001569741D01*
X0002794713Y0001569741D01*
X0002800337Y0001566929D01*
X0002803149Y0001564117D01*
X0002805961Y0001558492D01*
X0002805961Y0001552868D01*
X0002803149Y0001547244D01*
X0002800337Y0001544431D01*
X0002794713Y0001541619D01*
X0002775028Y0001541619D01*
X0002859392Y0001510686D02*
X0002859392Y0001541619D01*
X0002856580Y0001547244D01*
X0002850956Y0001550056D01*
X0002839707Y0001550056D01*
X0002834083Y0001547244D01*
X0002859392Y0001513498D02*
X0002853768Y0001510686D01*
X0002839707Y0001510686D01*
X0002834083Y0001513498D01*
X0002831271Y0001519122D01*
X0002831271Y0001524746D01*
X0002834083Y0001530371D01*
X0002839707Y0001533183D01*
X0002853768Y0001533183D01*
X0002859392Y0001535995D01*
X0002887514Y0001550056D02*
X0002887514Y0001510686D01*
X0002887514Y0001544431D02*
X0002890326Y0001547244D01*
X0002895950Y0001550056D01*
X0002904386Y0001550056D01*
X0002910011Y0001547244D01*
X0002912823Y0001541619D01*
X0002912823Y0001510686D01*
X0002940944Y0001510686D02*
X0002940944Y0001569741D01*
X0002946569Y0001533183D02*
X0002963442Y0001510686D01*
X0002963442Y0001550056D02*
X0002940944Y0001527559D01*
X0003033745Y0001510686D02*
X0003033745Y0001569741D01*
X0003047806Y0001569741D01*
X0003056242Y0001566929D01*
X0003061867Y0001561304D01*
X0003064679Y0001555680D01*
X0003067491Y0001544431D01*
X0003067491Y0001535995D01*
X0003064679Y0001524746D01*
X0003061867Y0001519122D01*
X0003056242Y0001513498D01*
X0003047806Y0001510686D01*
X0003033745Y0001510686D01*
X0003115298Y0001513498D02*
X0003109673Y0001510686D01*
X0003098425Y0001510686D01*
X0003092800Y0001513498D01*
X0003089988Y0001519122D01*
X0003089988Y0001541619D01*
X0003092800Y0001547244D01*
X0003098425Y0001550056D01*
X0003109673Y0001550056D01*
X0003115298Y0001547244D01*
X0003118110Y0001541619D01*
X0003118110Y0001535995D01*
X0003089988Y0001530371D01*
X0003137795Y0001550056D02*
X0003151855Y0001510686D01*
X0003165916Y0001550056D01*
X0003253093Y0001541619D02*
X0003261529Y0001538807D01*
X0003264341Y0001535995D01*
X0003267154Y0001530371D01*
X0003267154Y0001521934D01*
X0003264341Y0001516310D01*
X0003261529Y0001513498D01*
X0003255905Y0001510686D01*
X0003233408Y0001510686D01*
X0003233408Y0001569741D01*
X0003253093Y0001569741D01*
X0003258717Y0001566929D01*
X0003261529Y0001564117D01*
X0003264341Y0001558492D01*
X0003264341Y0001552868D01*
X0003261529Y0001547244D01*
X0003258717Y0001544431D01*
X0003253093Y0001541619D01*
X0003233408Y0001541619D01*
X0003300899Y0001510686D02*
X0003295275Y0001513498D01*
X0003292463Y0001516310D01*
X0003289651Y0001521934D01*
X0003289651Y0001538807D01*
X0003292463Y0001544431D01*
X0003295275Y0001547244D01*
X0003300899Y0001550056D01*
X0003309336Y0001550056D01*
X0003314960Y0001547244D01*
X0003317772Y0001544431D01*
X0003320584Y0001538807D01*
X0003320584Y0001521934D01*
X0003317772Y0001516310D01*
X0003314960Y0001513498D01*
X0003309336Y0001510686D01*
X0003300899Y0001510686D01*
X0003371203Y0001510686D02*
X0003371203Y0001541619D01*
X0003368391Y0001547244D01*
X0003362767Y0001550056D01*
X0003351518Y0001550056D01*
X0003345894Y0001547244D01*
X0003371203Y0001513498D02*
X0003365579Y0001510686D01*
X0003351518Y0001510686D01*
X0003345894Y0001513498D01*
X0003343082Y0001519122D01*
X0003343082Y0001524746D01*
X0003345894Y0001530371D01*
X0003351518Y0001533183D01*
X0003365579Y0001533183D01*
X0003371203Y0001535995D01*
X0003399325Y0001510686D02*
X0003399325Y0001550056D01*
X0003399325Y0001538807D02*
X0003402137Y0001544431D01*
X0003404949Y0001547244D01*
X0003410573Y0001550056D01*
X0003416197Y0001550056D01*
X0003461192Y0001510686D02*
X0003461192Y0001569741D01*
X0003461192Y0001513498D02*
X0003455567Y0001510686D01*
X0003444319Y0001510686D01*
X0003438695Y0001513498D01*
X0003435882Y0001516310D01*
X0003433070Y0001521934D01*
X0003433070Y0001538807D01*
X0003435882Y0001544431D01*
X0003438695Y0001547244D01*
X0003444319Y0001550056D01*
X0003455567Y0001550056D01*
X0003461192Y0001547244D01*
G04 #@! TD*
G04 next file*
G04 #@! TF.GenerationSoftware,KiCad,Pcbnew,(5.0.2)-1*
G04 #@! TF.CreationDate,2019-01-06T11:55:21+11:00*
G04 #@! TF.ProjectId,Gain_Block_Dev_Rev_0,4761696e-5f42-46c6-9f63-6b5f4465765f,rev?*
G04 #@! TF.SameCoordinates,Original*
G04 #@! TF.FileFunction,Legend,Top*
G04 #@! TF.FilePolarity,Positive*
G04 Gerber Fmt 4.6, Leading zero omitted, Abs format (unit mm)*
G04 Created by KiCad (PCBNEW (5.0.2)-1) date 6/01/2019 11:55:21*
G01*
G04 APERTURE LIST*
G04 APERTURE END LIST*
D27*
X0002368250Y0003245359D02*
X0002366844Y0003243953D01*
X0002362626Y0003242547D01*
X0002359814Y0003242547D01*
X0002355596Y0003243953D01*
X0002352783Y0003246766D01*
X0002351377Y0003249578D01*
X0002349971Y0003255202D01*
X0002349971Y0003259420D01*
X0002351377Y0003265045D01*
X0002352783Y0003267857D01*
X0002355596Y0003270669D01*
X0002359814Y0003272075D01*
X0002362626Y0003272075D01*
X0002366844Y0003270669D01*
X0002368250Y0003269263D01*
X0002394966Y0003242547D02*
X0002380905Y0003242547D01*
X0002380905Y0003272075D01*
X0002404808Y0003242547D02*
X0002404808Y0003272075D01*
X0002421681Y0003242547D02*
X0002409026Y0003259420D01*
X0002421681Y0003272075D02*
X0002404808Y0003255202D01*
X0002381608Y0003344910D02*
X0002367547Y0003344910D01*
X0002367547Y0003374437D01*
X0002391451Y0003360376D02*
X0002401293Y0003360376D01*
X0002405511Y0003344910D02*
X0002391451Y0003344910D01*
X0002391451Y0003374437D01*
X0002405511Y0003374437D01*
X0002374296Y0003448678D02*
X0002378515Y0003447272D01*
X0002385545Y0003447272D01*
X0002388357Y0003448678D01*
X0002389763Y0003450084D01*
X0002391169Y0003452896D01*
X0002391169Y0003455708D01*
X0002389763Y0003458520D01*
X0002388357Y0003459926D01*
X0002385545Y0003461332D01*
X0002379921Y0003462739D01*
X0002377109Y0003464145D01*
X0002375702Y0003465551D01*
X0002374296Y0003468363D01*
X0002374296Y0003471175D01*
X0002375702Y0003473987D01*
X0002377109Y0003475393D01*
X0002379921Y0003476799D01*
X0002386951Y0003476799D01*
X0002391169Y0003475393D01*
X0002403824Y0003447272D02*
X0002403824Y0003476799D01*
X0002741985Y0003246484D02*
X0002732142Y0003260545D01*
X0002725112Y0003246484D02*
X0002725112Y0003276012D01*
X0002736361Y0003276012D01*
X0002739173Y0003274606D01*
X0002740579Y0003273200D01*
X0002741985Y0003270388D01*
X0002741985Y0003266169D01*
X0002740579Y0003263357D01*
X0002739173Y0003261951D01*
X0002736361Y0003260545D01*
X0002725112Y0003260545D01*
X0002764482Y0003261951D02*
X0002754640Y0003261951D01*
X0002754640Y0003246484D02*
X0002754640Y0003276012D01*
X0002768700Y0003276012D01*
X0002772918Y0003243672D02*
X0002795416Y0003243672D01*
X0002802446Y0003246484D02*
X0002802446Y0003276012D01*
X0002813695Y0003276012D01*
X0002816507Y0003274606D01*
X0002817913Y0003273200D01*
X0002819319Y0003270388D01*
X0002819319Y0003266169D01*
X0002817913Y0003263357D01*
X0002816507Y0003261951D01*
X0002813695Y0003260545D01*
X0002802446Y0003260545D01*
X0002829161Y0003276012D02*
X0002836192Y0003246484D01*
X0002841816Y0003267575D01*
X0002847440Y0003246484D01*
X0002854471Y0003276012D01*
X0002882592Y0003246484D02*
X0002872750Y0003260545D01*
X0002865719Y0003246484D02*
X0002865719Y0003276012D01*
X0002876968Y0003276012D01*
X0002879780Y0003274606D01*
X0002881186Y0003273200D01*
X0002882592Y0003270388D01*
X0002882592Y0003266169D01*
X0002881186Y0003263357D01*
X0002879780Y0003261951D01*
X0002876968Y0003260545D01*
X0002865719Y0003260545D01*
X0002737345Y0003376968D02*
X0002734533Y0003378374D01*
X0002730314Y0003378374D01*
X0002726096Y0003376968D01*
X0002723284Y0003374156D01*
X0002721878Y0003371344D01*
X0002720472Y0003365719D01*
X0002720472Y0003361501D01*
X0002721878Y0003355877D01*
X0002723284Y0003353065D01*
X0002726096Y0003350253D01*
X0002730314Y0003348847D01*
X0002733127Y0003348847D01*
X0002737345Y0003350253D01*
X0002738751Y0003351659D01*
X0002738751Y0003361501D01*
X0002733127Y0003361501D01*
X0002751406Y0003348847D02*
X0002751406Y0003378374D01*
X0002768278Y0003348847D01*
X0002768278Y0003378374D01*
X0002782339Y0003348847D02*
X0002782339Y0003378374D01*
X0002789370Y0003378374D01*
X0002793588Y0003376968D01*
X0002796400Y0003374156D01*
X0002797806Y0003371344D01*
X0002799212Y0003365719D01*
X0002799212Y0003361501D01*
X0002797806Y0003355877D01*
X0002796400Y0003353065D01*
X0002793588Y0003350253D01*
X0002789370Y0003348847D01*
X0002782339Y0003348847D01*
X0002725815Y0003462457D02*
X0002748312Y0003462457D01*
X0002737064Y0003451209D02*
X0002737064Y0003473706D01*
X0002776434Y0003480736D02*
X0002762373Y0003480736D01*
X0002760967Y0003466676D01*
X0002762373Y0003468082D01*
X0002765185Y0003469488D01*
X0002772215Y0003469488D01*
X0002775028Y0003468082D01*
X0002776434Y0003466676D01*
X0002777840Y0003463863D01*
X0002777840Y0003456833D01*
X0002776434Y0003454021D01*
X0002775028Y0003452615D01*
X0002772215Y0003451209D01*
X0002765185Y0003451209D01*
X0002762373Y0003452615D01*
X0002760967Y0003454021D01*
X0002786276Y0003480736D02*
X0002796119Y0003451209D01*
X0002805961Y0003480736D01*
D28*
G04 #@! TO.C,U1*
X0002580118Y0003061417D02*
X0002598818Y0003061417D01*
X0002598818Y0003061417D02*
X0002598818Y0003042716D01*
X0002451377Y0002895275D02*
X0002432677Y0002895275D01*
X0002432677Y0002895275D02*
X0002432677Y0002913976D01*
X0002580118Y0002895275D02*
X0002598818Y0002895275D01*
X0002598818Y0002895275D02*
X0002598818Y0002913976D01*
X0002451377Y0003061417D02*
X0002432677Y0003061417D01*
G04 #@! TO.C,R1*
X0002637401Y0002615804D02*
X0002637401Y0002636164D01*
X0002693307Y0002615804D02*
X0002693307Y0002636164D01*
G04 #@! TO.C,R2*
X0002791732Y0002615804D02*
X0002791732Y0002636164D01*
X0002735826Y0002615804D02*
X0002735826Y0002636164D01*
G04 #@! TO.C,R3*
X0002838188Y0002615804D02*
X0002838188Y0002636164D01*
X0002894094Y0002615804D02*
X0002894094Y0002636164D01*
G04 #@! TO.C,R4*
X0002992519Y0002615804D02*
X0002992519Y0002636164D01*
X0002936614Y0002615804D02*
X0002936614Y0002636164D01*
G04 #@! TO.C,R5*
X0003038976Y0002615804D02*
X0003038976Y0002636164D01*
X0003094881Y0002615804D02*
X0003094881Y0002636164D01*
G04 #@! TO.C,R6*
X0003193307Y0002615804D02*
X0003193307Y0002636164D01*
X0003137401Y0002615804D02*
X0003137401Y0002636164D01*
G04 #@! TO.C,R7*
X0003235826Y0002615804D02*
X0003235826Y0002636164D01*
X0003291732Y0002615804D02*
X0003291732Y0002636164D01*
G04 #@! TO.C,R8*
X0003393110Y0002615804D02*
X0003393110Y0002636164D01*
X0003337204Y0002615804D02*
X0003337204Y0002636164D01*
G04 #@! TO.C,SW1*
X0003460629Y0002491535D02*
X0003460629Y0002101771D01*
X0002570039Y0002507283D02*
X0002570078Y0002102165D01*
X0003460629Y0002507283D02*
X0002570039Y0002507283D01*
X0003460629Y0002101771D02*
X0002570039Y0002101771D01*
X0003470078Y0002516732D02*
X0003470078Y0002462244D01*
X0003470078Y0002516732D02*
X0003415629Y0002516732D01*
X0003390354Y0002392322D02*
X0003340354Y0002392322D01*
X0003340354Y0002392322D02*
X0003340354Y0002232480D01*
X0003340354Y0002232480D02*
X0003390354Y0002232480D01*
X0003390354Y0002232480D02*
X0003390354Y0002392322D01*
X0003385629Y0002392322D02*
X0003385629Y0002339041D01*
X0003380905Y0002392322D02*
X0003380905Y0002339041D01*
X0003376181Y0002392322D02*
X0003376181Y0002339041D01*
X0003371456Y0002392322D02*
X0003371456Y0002339041D01*
X0003366732Y0002392322D02*
X0003366732Y0002339041D01*
X0003362007Y0002392322D02*
X0003362007Y0002339041D01*
X0003357283Y0002392322D02*
X0003357283Y0002339041D01*
X0003352559Y0002392322D02*
X0003352559Y0002339041D01*
X0003347834Y0002392322D02*
X0003347834Y0002339041D01*
X0003343110Y0002392322D02*
X0003343110Y0002339041D01*
X0003390354Y0002339041D02*
X0003340354Y0002339041D01*
X0003290354Y0002392322D02*
X0003240354Y0002392322D01*
X0003240354Y0002392322D02*
X0003240354Y0002232480D01*
X0003240354Y0002232480D02*
X0003290354Y0002232480D01*
X0003290354Y0002232480D02*
X0003290354Y0002392322D01*
X0003285629Y0002392322D02*
X0003285629Y0002339041D01*
X0003280905Y0002392322D02*
X0003280905Y0002339041D01*
X0003276181Y0002392322D02*
X0003276181Y0002339041D01*
X0003271456Y0002392322D02*
X0003271456Y0002339041D01*
X0003266732Y0002392322D02*
X0003266732Y0002339041D01*
X0003262007Y0002392322D02*
X0003262007Y0002339041D01*
X0003257283Y0002392322D02*
X0003257283Y0002339041D01*
X0003252559Y0002392322D02*
X0003252559Y0002339041D01*
X0003247834Y0002392322D02*
X0003247834Y0002339041D01*
X0003243110Y0002392322D02*
X0003243110Y0002339041D01*
X0003290354Y0002339041D02*
X0003240354Y0002339041D01*
X0003190354Y0002392322D02*
X0003140354Y0002392322D01*
X0003140354Y0002392322D02*
X0003140354Y0002232480D01*
X0003140354Y0002232480D02*
X0003190354Y0002232480D01*
X0003190354Y0002232480D02*
X0003190354Y0002392322D01*
X0003185629Y0002392322D02*
X0003185629Y0002339041D01*
X0003180905Y0002392322D02*
X0003180905Y0002339041D01*
X0003176181Y0002392322D02*
X0003176181Y0002339041D01*
X0003171456Y0002392322D02*
X0003171456Y0002339041D01*
X0003166732Y0002392322D02*
X0003166732Y0002339041D01*
X0003162007Y0002392322D02*
X0003162007Y0002339041D01*
X0003157283Y0002392322D02*
X0003157283Y0002339041D01*
X0003152559Y0002392322D02*
X0003152559Y0002339041D01*
X0003147834Y0002392322D02*
X0003147834Y0002339041D01*
X0003143110Y0002392322D02*
X0003143110Y0002339041D01*
X0003190354Y0002339041D02*
X0003140354Y0002339041D01*
X0003090354Y0002392322D02*
X0003040354Y0002392322D01*
X0003040354Y0002392322D02*
X0003040354Y0002232480D01*
X0003040354Y0002232480D02*
X0003090354Y0002232480D01*
X0003090354Y0002232480D02*
X0003090354Y0002392322D01*
X0003085629Y0002392322D02*
X0003085629Y0002339041D01*
X0003080905Y0002392322D02*
X0003080905Y0002339041D01*
X0003076181Y0002392322D02*
X0003076181Y0002339041D01*
X0003071456Y0002392322D02*
X0003071456Y0002339041D01*
X0003066732Y0002392322D02*
X0003066732Y0002339041D01*
X0003062007Y0002392322D02*
X0003062007Y0002339041D01*
X0003057283Y0002392322D02*
X0003057283Y0002339041D01*
X0003052559Y0002392322D02*
X0003052559Y0002339041D01*
X0003047834Y0002392322D02*
X0003047834Y0002339041D01*
X0003043110Y0002392322D02*
X0003043110Y0002339041D01*
X0003090354Y0002339041D02*
X0003040354Y0002339041D01*
X0002990354Y0002392322D02*
X0002940354Y0002392322D01*
X0002940354Y0002392322D02*
X0002940354Y0002232480D01*
X0002940354Y0002232480D02*
X0002990354Y0002232480D01*
X0002990354Y0002232480D02*
X0002990354Y0002392322D01*
X0002985629Y0002392322D02*
X0002985629Y0002339041D01*
X0002980905Y0002392322D02*
X0002980905Y0002339041D01*
X0002976181Y0002392322D02*
X0002976181Y0002339041D01*
X0002971456Y0002392322D02*
X0002971456Y0002339041D01*
X0002966732Y0002392322D02*
X0002966732Y0002339041D01*
X0002962007Y0002392322D02*
X0002962007Y0002339041D01*
X0002957283Y0002392322D02*
X0002957283Y0002339041D01*
X0002952559Y0002392322D02*
X0002952559Y0002339041D01*
X0002947834Y0002392322D02*
X0002947834Y0002339041D01*
X0002943110Y0002392322D02*
X0002943110Y0002339041D01*
X0002990354Y0002339041D02*
X0002940354Y0002339041D01*
X0002890354Y0002392322D02*
X0002840354Y0002392322D01*
X0002840354Y0002392322D02*
X0002840354Y0002232480D01*
X0002840354Y0002232480D02*
X0002890354Y0002232480D01*
X0002890354Y0002232480D02*
X0002890354Y0002392322D01*
X0002885629Y0002392322D02*
X0002885629Y0002339041D01*
X0002880905Y0002392322D02*
X0002880905Y0002339041D01*
X0002876181Y0002392322D02*
X0002876181Y0002339041D01*
X0002871456Y0002392322D02*
X0002871456Y0002339041D01*
X0002866732Y0002392322D02*
X0002866732Y0002339041D01*
X0002862007Y0002392322D02*
X0002862007Y0002339041D01*
X0002857283Y0002392322D02*
X0002857283Y0002339041D01*
X0002852559Y0002392322D02*
X0002852559Y0002339041D01*
X0002847834Y0002392322D02*
X0002847834Y0002339041D01*
X0002843110Y0002392322D02*
X0002843110Y0002339041D01*
X0002890354Y0002339041D02*
X0002840354Y0002339041D01*
X0002790354Y0002392322D02*
X0002740354Y0002392322D01*
X0002740354Y0002392322D02*
X0002740354Y0002232480D01*
X0002740354Y0002232480D02*
X0002790354Y0002232480D01*
X0002790354Y0002232480D02*
X0002790354Y0002392322D01*
X0002785629Y0002392322D02*
X0002785629Y0002339041D01*
X0002780905Y0002392322D02*
X0002780905Y0002339041D01*
X0002776181Y0002392322D02*
X0002776181Y0002339041D01*
X0002771456Y0002392322D02*
X0002771456Y0002339041D01*
X0002766732Y0002392322D02*
X0002766732Y0002339041D01*
X0002762007Y0002392322D02*
X0002762007Y0002339041D01*
X0002757283Y0002392322D02*
X0002757283Y0002339041D01*
X0002752559Y0002392322D02*
X0002752559Y0002339041D01*
X0002747834Y0002392322D02*
X0002747834Y0002339041D01*
X0002743110Y0002392322D02*
X0002743110Y0002339041D01*
X0002790354Y0002339041D02*
X0002740354Y0002339041D01*
X0002690354Y0002392322D02*
X0002640354Y0002392322D01*
X0002640354Y0002392322D02*
X0002640354Y0002232480D01*
X0002640354Y0002232480D02*
X0002690354Y0002232480D01*
X0002690354Y0002232480D02*
X0002690354Y0002392322D01*
X0002685629Y0002392322D02*
X0002685629Y0002339041D01*
X0002680905Y0002392322D02*
X0002680905Y0002339041D01*
X0002676181Y0002392322D02*
X0002676181Y0002339041D01*
X0002671456Y0002392322D02*
X0002671456Y0002339041D01*
X0002666732Y0002392322D02*
X0002666732Y0002339041D01*
X0002662007Y0002392322D02*
X0002662007Y0002339041D01*
X0002657283Y0002392322D02*
X0002657283Y0002339041D01*
X0002652559Y0002392322D02*
X0002652559Y0002339041D01*
X0002647834Y0002392322D02*
X0002647834Y0002339041D01*
X0002643110Y0002392322D02*
X0002643110Y0002339041D01*
X0002690354Y0002339041D02*
X0002640354Y0002339041D01*
G04 #@! TO.C,U3*
X0003019685Y0003361811D02*
X0003090551Y0003361811D01*
X0003090551Y0003488582D02*
X0002994094Y0003488582D01*
D27*
G04 #@! TO.C,U4*
X0003462598Y0003354330D02*
X0003417322Y0003354330D01*
X0003493110Y0003226377D02*
X0003417322Y0003226377D01*
D28*
G04 #@! TO.C,J3*
X0002479133Y0003208267D02*
X0002683858Y0003208267D01*
X0002479133Y0003410629D02*
X0002479133Y0003208267D01*
X0002683858Y0003512992D02*
X0002683858Y0003208267D01*
X0002479133Y0003410629D02*
X0002581496Y0003410629D01*
X0002581496Y0003410629D02*
X0002581496Y0003512992D01*
X0002581496Y0003512992D02*
X0002683858Y0003512992D01*
X0002479133Y0003460629D02*
X0002479133Y0003512992D01*
X0002479133Y0003512992D02*
X0002531496Y0003512992D01*
G04 #@! TO.C,U5*
X0002740748Y0002939960D02*
X0002740748Y0002869094D01*
X0002867519Y0002869094D02*
X0002867519Y0002965551D01*
G04 #@! TO.C,U1*
D27*
X0002485751Y0003131796D02*
X0002485751Y0003099925D01*
X0002487626Y0003096175D01*
X0002489501Y0003094300D01*
X0002493250Y0003092425D01*
X0002500749Y0003092425D01*
X0002504499Y0003094300D01*
X0002506374Y0003096175D01*
X0002508248Y0003099925D01*
X0002508248Y0003131796D01*
X0002547619Y0003092425D02*
X0002525121Y0003092425D01*
X0002536370Y0003092425D02*
X0002536370Y0003131796D01*
X0002532620Y0003126171D01*
X0002528871Y0003122422D01*
X0002525121Y0003120547D01*
G04 #@! TO.C,C2*
X0002340832Y0003113517D02*
X0002342707Y0003111642D01*
X0002344581Y0003106018D01*
X0002344581Y0003102268D01*
X0002342707Y0003096644D01*
X0002338957Y0003092894D01*
X0002335208Y0003091019D01*
X0002327708Y0003089145D01*
X0002322084Y0003089145D01*
X0002314585Y0003091019D01*
X0002310836Y0003092894D01*
X0002307086Y0003096644D01*
X0002305211Y0003102268D01*
X0002305211Y0003106018D01*
X0002307086Y0003111642D01*
X0002308961Y0003113517D01*
X0002308961Y0003128515D02*
X0002307086Y0003130389D01*
X0002305211Y0003134139D01*
X0002305211Y0003143513D01*
X0002307086Y0003147262D01*
X0002308961Y0003149137D01*
X0002312710Y0003151012D01*
X0002316460Y0003151012D01*
X0002322084Y0003149137D01*
X0002344581Y0003126640D01*
X0002344581Y0003151012D01*
G04 #@! TO.C,C3*
X0002395950Y0003113517D02*
X0002397825Y0003111642D01*
X0002399700Y0003106018D01*
X0002399700Y0003102268D01*
X0002397825Y0003096644D01*
X0002394075Y0003092894D01*
X0002390326Y0003091019D01*
X0002382827Y0003089145D01*
X0002377202Y0003089145D01*
X0002369703Y0003091019D01*
X0002365954Y0003092894D01*
X0002362204Y0003096644D01*
X0002360329Y0003102268D01*
X0002360329Y0003106018D01*
X0002362204Y0003111642D01*
X0002364079Y0003113517D01*
X0002360329Y0003126640D02*
X0002360329Y0003151012D01*
X0002375328Y0003137889D01*
X0002375328Y0003143513D01*
X0002377202Y0003147262D01*
X0002379077Y0003149137D01*
X0002382827Y0003151012D01*
X0002392200Y0003151012D01*
X0002395950Y0003149137D01*
X0002397825Y0003147262D01*
X0002399700Y0003143513D01*
X0002399700Y0003132264D01*
X0002397825Y0003128515D01*
X0002395950Y0003126640D01*
G04 #@! TO.C,C5*
X0002678477Y0002879640D02*
X0002676602Y0002877765D01*
X0002670978Y0002875890D01*
X0002667229Y0002875890D01*
X0002661604Y0002877765D01*
X0002657855Y0002881514D01*
X0002655980Y0002885264D01*
X0002654105Y0002892763D01*
X0002654105Y0002898387D01*
X0002655980Y0002905886D01*
X0002657855Y0002909636D01*
X0002661604Y0002913385D01*
X0002667229Y0002915260D01*
X0002670978Y0002915260D01*
X0002676602Y0002913385D01*
X0002678477Y0002911511D01*
X0002714098Y0002915260D02*
X0002695350Y0002915260D01*
X0002693475Y0002896512D01*
X0002695350Y0002898387D01*
X0002699100Y0002900262D01*
X0002708473Y0002900262D01*
X0002712223Y0002898387D01*
X0002714098Y0002896512D01*
X0002715972Y0002892763D01*
X0002715972Y0002883389D01*
X0002714098Y0002879640D01*
X0002712223Y0002877765D01*
X0002708473Y0002875890D01*
X0002699100Y0002875890D01*
X0002695350Y0002877765D01*
X0002693475Y0002879640D01*
G04 #@! TO.C,C6*
X0002879265Y0003513498D02*
X0002877390Y0003511623D01*
X0002871766Y0003509748D01*
X0002868016Y0003509748D01*
X0002862392Y0003511623D01*
X0002858642Y0003515373D01*
X0002856767Y0003519122D01*
X0002854893Y0003526621D01*
X0002854893Y0003532245D01*
X0002856767Y0003539745D01*
X0002858642Y0003543494D01*
X0002862392Y0003547244D01*
X0002868016Y0003549118D01*
X0002871766Y0003549118D01*
X0002877390Y0003547244D01*
X0002879265Y0003545369D01*
X0002913010Y0003549118D02*
X0002905511Y0003549118D01*
X0002901762Y0003547244D01*
X0002899887Y0003545369D01*
X0002896137Y0003539745D01*
X0002894263Y0003532245D01*
X0002894263Y0003517247D01*
X0002896137Y0003513498D01*
X0002898012Y0003511623D01*
X0002901762Y0003509748D01*
X0002909261Y0003509748D01*
X0002913010Y0003511623D01*
X0002914885Y0003513498D01*
X0002916760Y0003517247D01*
X0002916760Y0003526621D01*
X0002914885Y0003530371D01*
X0002913010Y0003532245D01*
X0002909261Y0003534120D01*
X0002901762Y0003534120D01*
X0002898012Y0003532245D01*
X0002896137Y0003530371D01*
X0002894263Y0003526621D01*
G04 #@! TO.C,C7*
X0003158792Y0003525309D02*
X0003156917Y0003523434D01*
X0003151293Y0003521559D01*
X0003147544Y0003521559D01*
X0003141919Y0003523434D01*
X0003138170Y0003527184D01*
X0003136295Y0003530933D01*
X0003134420Y0003538432D01*
X0003134420Y0003544057D01*
X0003136295Y0003551556D01*
X0003138170Y0003555305D01*
X0003141919Y0003559055D01*
X0003147544Y0003560929D01*
X0003151293Y0003560929D01*
X0003156917Y0003559055D01*
X0003158792Y0003557180D01*
X0003171915Y0003560929D02*
X0003198162Y0003560929D01*
X0003181289Y0003521559D01*
G04 #@! TO.C,C8*
X0003020997Y0003075506D02*
X0003019122Y0003073631D01*
X0003013498Y0003071756D01*
X0003009748Y0003071756D01*
X0003004124Y0003073631D01*
X0003000374Y0003077380D01*
X0002998500Y0003081130D01*
X0002996625Y0003088629D01*
X0002996625Y0003094253D01*
X0002998500Y0003101752D01*
X0003000374Y0003105502D01*
X0003004124Y0003109251D01*
X0003009748Y0003111126D01*
X0003013498Y0003111126D01*
X0003019122Y0003109251D01*
X0003020997Y0003107377D01*
X0003043494Y0003094253D02*
X0003039744Y0003096128D01*
X0003037870Y0003098003D01*
X0003035995Y0003101752D01*
X0003035995Y0003103627D01*
X0003037870Y0003107377D01*
X0003039744Y0003109251D01*
X0003043494Y0003111126D01*
X0003050993Y0003111126D01*
X0003054743Y0003109251D01*
X0003056617Y0003107377D01*
X0003058492Y0003103627D01*
X0003058492Y0003101752D01*
X0003056617Y0003098003D01*
X0003054743Y0003096128D01*
X0003050993Y0003094253D01*
X0003043494Y0003094253D01*
X0003039744Y0003092379D01*
X0003037870Y0003090504D01*
X0003035995Y0003086754D01*
X0003035995Y0003079255D01*
X0003037870Y0003075506D01*
X0003039744Y0003073631D01*
X0003043494Y0003071756D01*
X0003050993Y0003071756D01*
X0003054743Y0003073631D01*
X0003056617Y0003075506D01*
X0003058492Y0003079255D01*
X0003058492Y0003086754D01*
X0003056617Y0003090504D01*
X0003054743Y0003092379D01*
X0003050993Y0003094253D01*
G04 #@! TO.C,C9*
X0003016076Y0002878655D02*
X0003014201Y0002876781D01*
X0003008577Y0002874906D01*
X0003004827Y0002874906D01*
X0002999203Y0002876781D01*
X0002995453Y0002880530D01*
X0002993578Y0002884280D01*
X0002991704Y0002891779D01*
X0002991704Y0002897403D01*
X0002993578Y0002904902D01*
X0002995453Y0002908652D01*
X0002999203Y0002912401D01*
X0003004827Y0002914276D01*
X0003008577Y0002914276D01*
X0003014201Y0002912401D01*
X0003016076Y0002910526D01*
X0003034823Y0002874906D02*
X0003042322Y0002874906D01*
X0003046072Y0002876781D01*
X0003047947Y0002878655D01*
X0003051696Y0002884280D01*
X0003053571Y0002891779D01*
X0003053571Y0002906777D01*
X0003051696Y0002910526D01*
X0003049821Y0002912401D01*
X0003046072Y0002914276D01*
X0003038573Y0002914276D01*
X0003034823Y0002912401D01*
X0003032948Y0002910526D01*
X0003031074Y0002906777D01*
X0003031074Y0002897403D01*
X0003032948Y0002893653D01*
X0003034823Y0002891779D01*
X0003038573Y0002889904D01*
X0003046072Y0002889904D01*
X0003049821Y0002891779D01*
X0003051696Y0002893653D01*
X0003053571Y0002897403D01*
G04 #@! TO.C,C10*
X0003595753Y0003443194D02*
X0003597628Y0003441319D01*
X0003599503Y0003435695D01*
X0003599503Y0003431946D01*
X0003597628Y0003426321D01*
X0003593878Y0003422572D01*
X0003590129Y0003420697D01*
X0003582630Y0003418822D01*
X0003577005Y0003418822D01*
X0003569506Y0003420697D01*
X0003565757Y0003422572D01*
X0003562007Y0003426321D01*
X0003560133Y0003431946D01*
X0003560133Y0003435695D01*
X0003562007Y0003441319D01*
X0003563882Y0003443194D01*
X0003599503Y0003480689D02*
X0003599503Y0003458192D01*
X0003599503Y0003469441D02*
X0003560133Y0003469441D01*
X0003565757Y0003465691D01*
X0003569506Y0003461942D01*
X0003571381Y0003458192D01*
X0003560133Y0003505061D02*
X0003560133Y0003508811D01*
X0003562007Y0003512560D01*
X0003563882Y0003514435D01*
X0003567632Y0003516310D01*
X0003575131Y0003518185D01*
X0003584505Y0003518185D01*
X0003592004Y0003516310D01*
X0003595753Y0003514435D01*
X0003597628Y0003512560D01*
X0003599503Y0003508811D01*
X0003599503Y0003505061D01*
X0003597628Y0003501312D01*
X0003595753Y0003499437D01*
X0003592004Y0003497562D01*
X0003584505Y0003495688D01*
X0003575131Y0003495688D01*
X0003567632Y0003497562D01*
X0003563882Y0003499437D01*
X0003562007Y0003501312D01*
X0003560133Y0003505061D01*
G04 #@! TO.C,C11*
X0003569178Y0003155793D02*
X0003571053Y0003153918D01*
X0003572928Y0003148293D01*
X0003572928Y0003144544D01*
X0003571053Y0003138920D01*
X0003567304Y0003135170D01*
X0003563554Y0003133295D01*
X0003556055Y0003131421D01*
X0003550431Y0003131421D01*
X0003542932Y0003133295D01*
X0003539182Y0003135170D01*
X0003535433Y0003138920D01*
X0003533558Y0003144544D01*
X0003533558Y0003148293D01*
X0003535433Y0003153918D01*
X0003537307Y0003155793D01*
X0003572928Y0003193288D02*
X0003572928Y0003170791D01*
X0003572928Y0003182039D02*
X0003533558Y0003182039D01*
X0003539182Y0003178290D01*
X0003542932Y0003174540D01*
X0003544806Y0003170791D01*
X0003572928Y0003230783D02*
X0003572928Y0003208286D01*
X0003572928Y0003219535D02*
X0003533558Y0003219535D01*
X0003539182Y0003215785D01*
X0003542932Y0003212036D01*
X0003544806Y0003208286D01*
G04 #@! TO.C,C12*
X0003159729Y0003187289D02*
X0003161604Y0003185414D01*
X0003163479Y0003179790D01*
X0003163479Y0003176040D01*
X0003161604Y0003170416D01*
X0003157855Y0003166666D01*
X0003154105Y0003164791D01*
X0003146606Y0003162917D01*
X0003140982Y0003162917D01*
X0003133483Y0003164791D01*
X0003129733Y0003166666D01*
X0003125984Y0003170416D01*
X0003124109Y0003176040D01*
X0003124109Y0003179790D01*
X0003125984Y0003185414D01*
X0003127859Y0003187289D01*
X0003163479Y0003224784D02*
X0003163479Y0003202287D01*
X0003163479Y0003213535D02*
X0003124109Y0003213535D01*
X0003129733Y0003209786D01*
X0003133483Y0003206036D01*
X0003135358Y0003202287D01*
X0003127859Y0003239782D02*
X0003125984Y0003241657D01*
X0003124109Y0003245406D01*
X0003124109Y0003254780D01*
X0003125984Y0003258530D01*
X0003127859Y0003260404D01*
X0003131608Y0003262279D01*
X0003135358Y0003262279D01*
X0003140982Y0003260404D01*
X0003163479Y0003237907D01*
X0003163479Y0003262279D01*
G04 #@! TO.C,J1*
X0002729002Y0003850300D02*
X0002729002Y0003822178D01*
X0002727127Y0003816554D01*
X0002723378Y0003812804D01*
X0002717754Y0003810929D01*
X0002714004Y0003810929D01*
X0002768372Y0003810929D02*
X0002745875Y0003810929D01*
X0002757124Y0003810929D02*
X0002757124Y0003850300D01*
X0002753374Y0003844675D01*
X0002749625Y0003840926D01*
X0002745875Y0003839051D01*
G04 #@! TO.C,L1*
X0002964895Y0002998922D02*
X0002946147Y0002998922D01*
X0002946147Y0003038292D01*
X0002998640Y0002998922D02*
X0002976143Y0002998922D01*
X0002987392Y0002998922D02*
X0002987392Y0003038292D01*
X0002983642Y0003032667D01*
X0002979893Y0003028918D01*
X0002976143Y0003027043D01*
G04 #@! TO.C,R1*
X0002683164Y0002725721D02*
X0002664416Y0002712598D01*
X0002683164Y0002703224D02*
X0002643794Y0002703224D01*
X0002643794Y0002718222D01*
X0002645669Y0002721972D01*
X0002647544Y0002723847D01*
X0002651293Y0002725721D01*
X0002656917Y0002725721D01*
X0002660667Y0002723847D01*
X0002662542Y0002721972D01*
X0002664416Y0002718222D01*
X0002664416Y0002703224D01*
X0002683164Y0002763217D02*
X0002683164Y0002740719D01*
X0002683164Y0002751968D02*
X0002643794Y0002751968D01*
X0002649418Y0002748218D01*
X0002653168Y0002744469D01*
X0002655043Y0002740719D01*
G04 #@! TO.C,R2*
X0002785526Y0002725721D02*
X0002766779Y0002712598D01*
X0002785526Y0002703224D02*
X0002746156Y0002703224D01*
X0002746156Y0002718222D01*
X0002748031Y0002721972D01*
X0002749906Y0002723847D01*
X0002753655Y0002725721D01*
X0002759280Y0002725721D01*
X0002763029Y0002723847D01*
X0002764904Y0002721972D01*
X0002766779Y0002718222D01*
X0002766779Y0002703224D01*
X0002749906Y0002740719D02*
X0002748031Y0002742594D01*
X0002746156Y0002746344D01*
X0002746156Y0002755718D01*
X0002748031Y0002759467D01*
X0002749906Y0002761342D01*
X0002753655Y0002763217D01*
X0002757405Y0002763217D01*
X0002763029Y0002761342D01*
X0002785526Y0002738845D01*
X0002785526Y0002763217D01*
G04 #@! TO.C,R3*
X0002883951Y0002725721D02*
X0002865204Y0002712598D01*
X0002883951Y0002703224D02*
X0002844581Y0002703224D01*
X0002844581Y0002718222D01*
X0002846456Y0002721972D01*
X0002848331Y0002723847D01*
X0002852080Y0002725721D01*
X0002857705Y0002725721D01*
X0002861454Y0002723847D01*
X0002863329Y0002721972D01*
X0002865204Y0002718222D01*
X0002865204Y0002703224D01*
X0002844581Y0002738845D02*
X0002844581Y0002763217D01*
X0002859580Y0002750093D01*
X0002859580Y0002755718D01*
X0002861454Y0002759467D01*
X0002863329Y0002761342D01*
X0002867079Y0002763217D01*
X0002876452Y0002763217D01*
X0002880202Y0002761342D01*
X0002882077Y0002759467D01*
X0002883951Y0002755718D01*
X0002883951Y0002744469D01*
X0002882077Y0002740719D01*
X0002880202Y0002738845D01*
G04 #@! TO.C,R4*
X0002986314Y0002725721D02*
X0002967566Y0002712598D01*
X0002986314Y0002703224D02*
X0002946944Y0002703224D01*
X0002946944Y0002718222D01*
X0002948818Y0002721972D01*
X0002950693Y0002723847D01*
X0002954443Y0002725721D01*
X0002960067Y0002725721D01*
X0002963817Y0002723847D01*
X0002965691Y0002721972D01*
X0002967566Y0002718222D01*
X0002967566Y0002703224D01*
X0002960067Y0002759467D02*
X0002986314Y0002759467D01*
X0002945069Y0002750093D02*
X0002973190Y0002740719D01*
X0002973190Y0002765091D01*
G04 #@! TO.C,R5*
X0003084739Y0002725721D02*
X0003065991Y0002712598D01*
X0003084739Y0002703224D02*
X0003045369Y0002703224D01*
X0003045369Y0002718222D01*
X0003047244Y0002721972D01*
X0003049118Y0002723847D01*
X0003052868Y0002725721D01*
X0003058492Y0002725721D01*
X0003062242Y0002723847D01*
X0003064116Y0002721972D01*
X0003065991Y0002718222D01*
X0003065991Y0002703224D01*
X0003045369Y0002761342D02*
X0003045369Y0002742594D01*
X0003064116Y0002740719D01*
X0003062242Y0002742594D01*
X0003060367Y0002746344D01*
X0003060367Y0002755718D01*
X0003062242Y0002759467D01*
X0003064116Y0002761342D01*
X0003067866Y0002763217D01*
X0003077240Y0002763217D01*
X0003080989Y0002761342D01*
X0003082864Y0002759467D01*
X0003084739Y0002755718D01*
X0003084739Y0002746344D01*
X0003082864Y0002742594D01*
X0003080989Y0002740719D01*
G04 #@! TO.C,R6*
X0003183164Y0002725721D02*
X0003164416Y0002712598D01*
X0003183164Y0002703224D02*
X0003143794Y0002703224D01*
X0003143794Y0002718222D01*
X0003145669Y0002721972D01*
X0003147544Y0002723847D01*
X0003151293Y0002725721D01*
X0003156917Y0002725721D01*
X0003160667Y0002723847D01*
X0003162542Y0002721972D01*
X0003164416Y0002718222D01*
X0003164416Y0002703224D01*
X0003143794Y0002759467D02*
X0003143794Y0002751968D01*
X0003145669Y0002748218D01*
X0003147544Y0002746344D01*
X0003153168Y0002742594D01*
X0003160667Y0002740719D01*
X0003175665Y0002740719D01*
X0003179415Y0002742594D01*
X0003181289Y0002744469D01*
X0003183164Y0002748218D01*
X0003183164Y0002755718D01*
X0003181289Y0002759467D01*
X0003179415Y0002761342D01*
X0003175665Y0002763217D01*
X0003166291Y0002763217D01*
X0003162542Y0002761342D01*
X0003160667Y0002759467D01*
X0003158792Y0002755718D01*
X0003158792Y0002748218D01*
X0003160667Y0002744469D01*
X0003162542Y0002742594D01*
X0003166291Y0002740719D01*
G04 #@! TO.C,R7*
X0003281589Y0002725721D02*
X0003262842Y0002712598D01*
X0003281589Y0002703224D02*
X0003242219Y0002703224D01*
X0003242219Y0002718222D01*
X0003244094Y0002721972D01*
X0003245969Y0002723847D01*
X0003249718Y0002725721D01*
X0003255343Y0002725721D01*
X0003259092Y0002723847D01*
X0003260967Y0002721972D01*
X0003262842Y0002718222D01*
X0003262842Y0002703224D01*
X0003242219Y0002738845D02*
X0003242219Y0002765091D01*
X0003281589Y0002748218D01*
G04 #@! TO.C,R8*
X0003382967Y0002725721D02*
X0003364220Y0002712598D01*
X0003382967Y0002703224D02*
X0003343597Y0002703224D01*
X0003343597Y0002718222D01*
X0003345472Y0002721972D01*
X0003347347Y0002723847D01*
X0003351096Y0002725721D01*
X0003356721Y0002725721D01*
X0003360470Y0002723847D01*
X0003362345Y0002721972D01*
X0003364220Y0002718222D01*
X0003364220Y0002703224D01*
X0003360470Y0002748218D02*
X0003358595Y0002744469D01*
X0003356721Y0002742594D01*
X0003352971Y0002740719D01*
X0003351096Y0002740719D01*
X0003347347Y0002742594D01*
X0003345472Y0002744469D01*
X0003343597Y0002748218D01*
X0003343597Y0002755718D01*
X0003345472Y0002759467D01*
X0003347347Y0002761342D01*
X0003351096Y0002763217D01*
X0003352971Y0002763217D01*
X0003356721Y0002761342D01*
X0003358595Y0002759467D01*
X0003360470Y0002755718D01*
X0003360470Y0002748218D01*
X0003362345Y0002744469D01*
X0003364220Y0002742594D01*
X0003367969Y0002740719D01*
X0003375468Y0002740719D01*
X0003379218Y0002742594D01*
X0003381092Y0002744469D01*
X0003382967Y0002748218D01*
X0003382967Y0002755718D01*
X0003381092Y0002759467D01*
X0003379218Y0002761342D01*
X0003375468Y0002763217D01*
X0003367969Y0002763217D01*
X0003364220Y0002761342D01*
X0003362345Y0002759467D01*
X0003360470Y0002755718D01*
G04 #@! TO.C,R9*
X0003150918Y0002874906D02*
X0003137795Y0002893653D01*
X0003128421Y0002874906D02*
X0003128421Y0002914276D01*
X0003143419Y0002914276D01*
X0003147169Y0002912401D01*
X0003149043Y0002910526D01*
X0003150918Y0002906777D01*
X0003150918Y0002901152D01*
X0003149043Y0002897403D01*
X0003147169Y0002895528D01*
X0003143419Y0002893653D01*
X0003128421Y0002893653D01*
X0003169666Y0002874906D02*
X0003177165Y0002874906D01*
X0003180914Y0002876781D01*
X0003182789Y0002878655D01*
X0003186539Y0002884280D01*
X0003188413Y0002891779D01*
X0003188413Y0002906777D01*
X0003186539Y0002910526D01*
X0003184664Y0002912401D01*
X0003180914Y0002914276D01*
X0003173415Y0002914276D01*
X0003169666Y0002912401D01*
X0003167791Y0002910526D01*
X0003165916Y0002906777D01*
X0003165916Y0002897403D01*
X0003167791Y0002893653D01*
X0003169666Y0002891779D01*
X0003173415Y0002889904D01*
X0003180914Y0002889904D01*
X0003184664Y0002891779D01*
X0003186539Y0002893653D01*
X0003188413Y0002897403D01*
G04 #@! TO.C,R10*
X0003226659Y0003053055D02*
X0003213535Y0003071803D01*
X0003204161Y0003053055D02*
X0003204161Y0003092425D01*
X0003219160Y0003092425D01*
X0003222909Y0003090551D01*
X0003224784Y0003088676D01*
X0003226659Y0003084926D01*
X0003226659Y0003079302D01*
X0003224784Y0003075553D01*
X0003222909Y0003073678D01*
X0003219160Y0003071803D01*
X0003204161Y0003071803D01*
X0003264154Y0003053055D02*
X0003241657Y0003053055D01*
X0003252905Y0003053055D02*
X0003252905Y0003092425D01*
X0003249156Y0003086801D01*
X0003245406Y0003083052D01*
X0003241657Y0003081177D01*
X0003288526Y0003092425D02*
X0003292275Y0003092425D01*
X0003296025Y0003090551D01*
X0003297900Y0003088676D01*
X0003299775Y0003084926D01*
X0003301649Y0003077427D01*
X0003301649Y0003068054D01*
X0003299775Y0003060554D01*
X0003297900Y0003056805D01*
X0003296025Y0003054930D01*
X0003292275Y0003053055D01*
X0003288526Y0003053055D01*
X0003284776Y0003054930D01*
X0003282902Y0003056805D01*
X0003281027Y0003060554D01*
X0003279152Y0003068054D01*
X0003279152Y0003077427D01*
X0003281027Y0003084926D01*
X0003282902Y0003088676D01*
X0003284776Y0003090551D01*
X0003288526Y0003092425D01*
G04 #@! TO.C,R11*
X0003230596Y0002803055D02*
X0003217472Y0002821803D01*
X0003208098Y0002803055D02*
X0003208098Y0002842425D01*
X0003223097Y0002842425D01*
X0003226846Y0002840551D01*
X0003228721Y0002838676D01*
X0003230596Y0002834926D01*
X0003230596Y0002829302D01*
X0003228721Y0002825553D01*
X0003226846Y0002823678D01*
X0003223097Y0002821803D01*
X0003208098Y0002821803D01*
X0003268091Y0002803055D02*
X0003245594Y0002803055D01*
X0003256842Y0002803055D02*
X0003256842Y0002842425D01*
X0003253093Y0002836801D01*
X0003249343Y0002833052D01*
X0003245594Y0002831177D01*
X0003305586Y0002803055D02*
X0003283089Y0002803055D01*
X0003294338Y0002803055D02*
X0003294338Y0002842425D01*
X0003290588Y0002836801D01*
X0003286839Y0002833052D01*
X0003283089Y0002831177D01*
G04 #@! TO.C,R12*
X0003368203Y0002817210D02*
X0003349456Y0002804087D01*
X0003368203Y0002794713D02*
X0003328833Y0002794713D01*
X0003328833Y0002809711D01*
X0003330708Y0002813460D01*
X0003332583Y0002815335D01*
X0003336332Y0002817210D01*
X0003341957Y0002817210D01*
X0003345706Y0002815335D01*
X0003347581Y0002813460D01*
X0003349456Y0002809711D01*
X0003349456Y0002794713D01*
X0003368203Y0002854705D02*
X0003368203Y0002832208D01*
X0003368203Y0002843457D02*
X0003328833Y0002843457D01*
X0003334458Y0002839707D01*
X0003338207Y0002835958D01*
X0003340082Y0002832208D01*
X0003332583Y0002869703D02*
X0003330708Y0002871578D01*
X0003328833Y0002875328D01*
X0003328833Y0002884701D01*
X0003330708Y0002888451D01*
X0003332583Y0002890326D01*
X0003336332Y0002892200D01*
X0003340082Y0002892200D01*
X0003345706Y0002890326D01*
X0003368203Y0002867829D01*
X0003368203Y0002892200D01*
G04 #@! TO.C,R13*
X0003403824Y0002793213D02*
X0003390701Y0002811961D01*
X0003381327Y0002793213D02*
X0003381327Y0002832583D01*
X0003396325Y0002832583D01*
X0003400074Y0002830708D01*
X0003401949Y0002828833D01*
X0003403824Y0002825084D01*
X0003403824Y0002819460D01*
X0003401949Y0002815710D01*
X0003400074Y0002813835D01*
X0003396325Y0002811961D01*
X0003381327Y0002811961D01*
X0003441319Y0002793213D02*
X0003418822Y0002793213D01*
X0003430071Y0002793213D02*
X0003430071Y0002832583D01*
X0003426321Y0002826959D01*
X0003422572Y0002823209D01*
X0003418822Y0002821334D01*
X0003454443Y0002832583D02*
X0003478815Y0002832583D01*
X0003465691Y0002817585D01*
X0003471316Y0002817585D01*
X0003475065Y0002815710D01*
X0003476940Y0002813835D01*
X0003478815Y0002810086D01*
X0003478815Y0002800712D01*
X0003476940Y0002796962D01*
X0003475065Y0002795088D01*
X0003471316Y0002793213D01*
X0003460067Y0002793213D01*
X0003456317Y0002795088D01*
X0003454443Y0002796962D01*
G04 #@! TO.C,R14*
X0003529621Y0002815241D02*
X0003510873Y0002802118D01*
X0003529621Y0002792744D02*
X0003490251Y0002792744D01*
X0003490251Y0002807742D01*
X0003492125Y0002811492D01*
X0003494000Y0002813367D01*
X0003497750Y0002815241D01*
X0003503374Y0002815241D01*
X0003507124Y0002813367D01*
X0003508998Y0002811492D01*
X0003510873Y0002807742D01*
X0003510873Y0002792744D01*
X0003529621Y0002852737D02*
X0003529621Y0002830240D01*
X0003529621Y0002841488D02*
X0003490251Y0002841488D01*
X0003495875Y0002837739D01*
X0003499625Y0002833989D01*
X0003501499Y0002830240D01*
X0003503374Y0002886482D02*
X0003529621Y0002886482D01*
X0003488376Y0002877109D02*
X0003516497Y0002867735D01*
X0003516497Y0002892107D01*
G04 #@! TO.C,R15*
X0003009936Y0003187289D02*
X0002991188Y0003174165D01*
X0003009936Y0003164791D02*
X0002970566Y0003164791D01*
X0002970566Y0003179790D01*
X0002972440Y0003183539D01*
X0002974315Y0003185414D01*
X0002978065Y0003187289D01*
X0002983689Y0003187289D01*
X0002987439Y0003185414D01*
X0002989313Y0003183539D01*
X0002991188Y0003179790D01*
X0002991188Y0003164791D01*
X0003009936Y0003224784D02*
X0003009936Y0003202287D01*
X0003009936Y0003213535D02*
X0002970566Y0003213535D01*
X0002976190Y0003209786D01*
X0002979939Y0003206036D01*
X0002981814Y0003202287D01*
X0002970566Y0003260404D02*
X0002970566Y0003241657D01*
X0002989313Y0003239782D01*
X0002987439Y0003241657D01*
X0002985564Y0003245406D01*
X0002985564Y0003254780D01*
X0002987439Y0003258530D01*
X0002989313Y0003260404D01*
X0002993063Y0003262279D01*
X0003002437Y0003262279D01*
X0003006186Y0003260404D01*
X0003008061Y0003258530D01*
X0003009936Y0003254780D01*
X0003009936Y0003245406D01*
X0003008061Y0003241657D01*
X0003006186Y0003239782D01*
G04 #@! TO.C,R16*
X0003714848Y0003242032D02*
X0003701724Y0003260779D01*
X0003692350Y0003242032D02*
X0003692350Y0003281402D01*
X0003707349Y0003281402D01*
X0003711098Y0003279527D01*
X0003712973Y0003277652D01*
X0003714848Y0003273903D01*
X0003714848Y0003268278D01*
X0003712973Y0003264529D01*
X0003711098Y0003262654D01*
X0003707349Y0003260779D01*
X0003692350Y0003260779D01*
X0003752343Y0003242032D02*
X0003729846Y0003242032D01*
X0003741094Y0003242032D02*
X0003741094Y0003281402D01*
X0003737345Y0003275778D01*
X0003733595Y0003272028D01*
X0003729846Y0003270153D01*
X0003786089Y0003281402D02*
X0003778590Y0003281402D01*
X0003774840Y0003279527D01*
X0003772965Y0003277652D01*
X0003769216Y0003272028D01*
X0003767341Y0003264529D01*
X0003767341Y0003249531D01*
X0003769216Y0003245781D01*
X0003771091Y0003243907D01*
X0003774840Y0003242032D01*
X0003782339Y0003242032D01*
X0003786089Y0003243907D01*
X0003787963Y0003245781D01*
X0003789838Y0003249531D01*
X0003789838Y0003258905D01*
X0003787963Y0003262654D01*
X0003786089Y0003264529D01*
X0003782339Y0003266404D01*
X0003774840Y0003266404D01*
X0003771091Y0003264529D01*
X0003769216Y0003262654D01*
X0003767341Y0003258905D01*
G04 #@! TO.C,R17*
X0003370172Y0003435320D02*
X0003351424Y0003422197D01*
X0003370172Y0003412823D02*
X0003330802Y0003412823D01*
X0003330802Y0003427821D01*
X0003332677Y0003431571D01*
X0003334551Y0003433445D01*
X0003338301Y0003435320D01*
X0003343925Y0003435320D01*
X0003347675Y0003433445D01*
X0003349550Y0003431571D01*
X0003351424Y0003427821D01*
X0003351424Y0003412823D01*
X0003370172Y0003472815D02*
X0003370172Y0003450318D01*
X0003370172Y0003461567D02*
X0003330802Y0003461567D01*
X0003336426Y0003457817D01*
X0003340176Y0003454068D01*
X0003342050Y0003450318D01*
X0003330802Y0003485939D02*
X0003330802Y0003512185D01*
X0003370172Y0003495313D01*
G04 #@! TO.C,R18*
X0003550290Y0003443194D02*
X0003531542Y0003430071D01*
X0003550290Y0003420697D02*
X0003510920Y0003420697D01*
X0003510920Y0003435695D01*
X0003512795Y0003439445D01*
X0003514670Y0003441319D01*
X0003518419Y0003443194D01*
X0003524043Y0003443194D01*
X0003527793Y0003441319D01*
X0003529668Y0003439445D01*
X0003531542Y0003435695D01*
X0003531542Y0003420697D01*
X0003550290Y0003480689D02*
X0003550290Y0003458192D01*
X0003550290Y0003469441D02*
X0003510920Y0003469441D01*
X0003516544Y0003465691D01*
X0003520294Y0003461942D01*
X0003522169Y0003458192D01*
X0003527793Y0003503187D02*
X0003525918Y0003499437D01*
X0003524043Y0003497562D01*
X0003520294Y0003495688D01*
X0003518419Y0003495688D01*
X0003514670Y0003497562D01*
X0003512795Y0003499437D01*
X0003510920Y0003503187D01*
X0003510920Y0003510686D01*
X0003512795Y0003514435D01*
X0003514670Y0003516310D01*
X0003518419Y0003518185D01*
X0003520294Y0003518185D01*
X0003524043Y0003516310D01*
X0003525918Y0003514435D01*
X0003527793Y0003510686D01*
X0003527793Y0003503187D01*
X0003529668Y0003499437D01*
X0003531542Y0003497562D01*
X0003535292Y0003495688D01*
X0003542791Y0003495688D01*
X0003546541Y0003497562D01*
X0003548415Y0003499437D01*
X0003550290Y0003503187D01*
X0003550290Y0003510686D01*
X0003548415Y0003514435D01*
X0003546541Y0003516310D01*
X0003542791Y0003518185D01*
X0003535292Y0003518185D01*
X0003531542Y0003516310D01*
X0003529668Y0003514435D01*
X0003527793Y0003510686D01*
G04 #@! TO.C,R19*
X0003321944Y0003434336D02*
X0003303196Y0003421212D01*
X0003321944Y0003411839D02*
X0003282573Y0003411839D01*
X0003282573Y0003426837D01*
X0003284448Y0003430586D01*
X0003286323Y0003432461D01*
X0003290073Y0003434336D01*
X0003295697Y0003434336D01*
X0003299446Y0003432461D01*
X0003301321Y0003430586D01*
X0003303196Y0003426837D01*
X0003303196Y0003411839D01*
X0003321944Y0003471831D02*
X0003321944Y0003449334D01*
X0003321944Y0003460583D02*
X0003282573Y0003460583D01*
X0003288198Y0003456833D01*
X0003291947Y0003453084D01*
X0003293822Y0003449334D01*
X0003321944Y0003490579D02*
X0003321944Y0003498078D01*
X0003320069Y0003501827D01*
X0003318194Y0003503702D01*
X0003312570Y0003507452D01*
X0003305071Y0003509326D01*
X0003290073Y0003509326D01*
X0003286323Y0003507452D01*
X0003284448Y0003505577D01*
X0003282573Y0003501827D01*
X0003282573Y0003494328D01*
X0003284448Y0003490579D01*
X0003286323Y0003488704D01*
X0003290073Y0003486829D01*
X0003299446Y0003486829D01*
X0003303196Y0003488704D01*
X0003305071Y0003490579D01*
X0003306945Y0003494328D01*
X0003306945Y0003501827D01*
X0003305071Y0003505577D01*
X0003303196Y0003507452D01*
X0003299446Y0003509326D01*
G04 #@! TO.C,SW1*
X0003515935Y0002259908D02*
X0003517810Y0002265532D01*
X0003517810Y0002274906D01*
X0003515935Y0002278655D01*
X0003514060Y0002280530D01*
X0003510311Y0002282405D01*
X0003506561Y0002282405D01*
X0003502812Y0002280530D01*
X0003500937Y0002278655D01*
X0003499062Y0002274906D01*
X0003497187Y0002267407D01*
X0003495313Y0002263657D01*
X0003493438Y0002261782D01*
X0003489688Y0002259908D01*
X0003485939Y0002259908D01*
X0003482189Y0002261782D01*
X0003480314Y0002263657D01*
X0003478440Y0002267407D01*
X0003478440Y0002276781D01*
X0003480314Y0002282405D01*
X0003478440Y0002295528D02*
X0003517810Y0002304902D01*
X0003489688Y0002312401D01*
X0003517810Y0002319900D01*
X0003478440Y0002329274D01*
X0003517810Y0002364895D02*
X0003517810Y0002342397D01*
X0003517810Y0002353646D02*
X0003478440Y0002353646D01*
X0003484064Y0002349896D01*
X0003487814Y0002346147D01*
X0003489688Y0002342397D01*
G04 #@! TO.C,U3*
X0003029058Y0003340457D02*
X0003029058Y0003308586D01*
X0003030933Y0003304836D01*
X0003032808Y0003302962D01*
X0003036557Y0003301087D01*
X0003044056Y0003301087D01*
X0003047806Y0003302962D01*
X0003049681Y0003304836D01*
X0003051556Y0003308586D01*
X0003051556Y0003340457D01*
X0003066554Y0003340457D02*
X0003090926Y0003340457D01*
X0003077802Y0003325459D01*
X0003083427Y0003325459D01*
X0003087176Y0003323584D01*
X0003089051Y0003321709D01*
X0003090926Y0003317960D01*
X0003090926Y0003308586D01*
X0003089051Y0003304836D01*
X0003087176Y0003302962D01*
X0003083427Y0003301087D01*
X0003072178Y0003301087D01*
X0003068428Y0003302962D01*
X0003066554Y0003304836D01*
G04 #@! TO.C,U4*
X0003408980Y0003460536D02*
X0003408980Y0003428665D01*
X0003410854Y0003424915D01*
X0003412729Y0003423040D01*
X0003416479Y0003421166D01*
X0003423978Y0003421166D01*
X0003427727Y0003423040D01*
X0003429602Y0003424915D01*
X0003431477Y0003428665D01*
X0003431477Y0003460536D01*
X0003467097Y0003447412D02*
X0003467097Y0003421166D01*
X0003457724Y0003462410D02*
X0003448350Y0003434289D01*
X0003472722Y0003434289D01*
G04 #@! TO.C,C13*
X0003057367Y0003187289D02*
X0003059242Y0003185414D01*
X0003061117Y0003179790D01*
X0003061117Y0003176040D01*
X0003059242Y0003170416D01*
X0003055493Y0003166666D01*
X0003051743Y0003164791D01*
X0003044244Y0003162917D01*
X0003038620Y0003162917D01*
X0003031121Y0003164791D01*
X0003027371Y0003166666D01*
X0003023622Y0003170416D01*
X0003021747Y0003176040D01*
X0003021747Y0003179790D01*
X0003023622Y0003185414D01*
X0003025496Y0003187289D01*
X0003061117Y0003224784D02*
X0003061117Y0003202287D01*
X0003061117Y0003213535D02*
X0003021747Y0003213535D01*
X0003027371Y0003209786D01*
X0003031121Y0003206036D01*
X0003032995Y0003202287D01*
X0003021747Y0003237907D02*
X0003021747Y0003262279D01*
X0003036745Y0003249156D01*
X0003036745Y0003254780D01*
X0003038620Y0003258530D01*
X0003040494Y0003260404D01*
X0003044244Y0003262279D01*
X0003053618Y0003262279D01*
X0003057367Y0003260404D01*
X0003059242Y0003258530D01*
X0003061117Y0003254780D01*
X0003061117Y0003243532D01*
X0003059242Y0003239782D01*
X0003057367Y0003237907D01*
G04 #@! TO.C,C14*
X0003108548Y0003187289D02*
X0003110423Y0003185414D01*
X0003112298Y0003179790D01*
X0003112298Y0003176040D01*
X0003110423Y0003170416D01*
X0003106674Y0003166666D01*
X0003102924Y0003164791D01*
X0003095425Y0003162917D01*
X0003089801Y0003162917D01*
X0003082302Y0003164791D01*
X0003078552Y0003166666D01*
X0003074803Y0003170416D01*
X0003072928Y0003176040D01*
X0003072928Y0003179790D01*
X0003074803Y0003185414D01*
X0003076677Y0003187289D01*
X0003112298Y0003224784D02*
X0003112298Y0003202287D01*
X0003112298Y0003213535D02*
X0003072928Y0003213535D01*
X0003078552Y0003209786D01*
X0003082302Y0003206036D01*
X0003084176Y0003202287D01*
X0003086051Y0003258530D02*
X0003112298Y0003258530D01*
X0003071053Y0003249156D02*
X0003099175Y0003239782D01*
X0003099175Y0003264154D01*
G04 #@! TO.C,J3*
X0002561679Y0003588488D02*
X0002561679Y0003560367D01*
X0002559805Y0003554743D01*
X0002556055Y0003550993D01*
X0002550431Y0003549118D01*
X0002546681Y0003549118D01*
X0002576677Y0003588488D02*
X0002601049Y0003588488D01*
X0002587926Y0003573490D01*
X0002593550Y0003573490D01*
X0002597300Y0003571616D01*
X0002599175Y0003569741D01*
X0002601049Y0003565991D01*
X0002601049Y0003556617D01*
X0002599175Y0003552868D01*
X0002597300Y0003550993D01*
X0002593550Y0003549118D01*
X0002582302Y0003549118D01*
X0002578552Y0003550993D01*
X0002576677Y0003552868D01*
G04 #@! TO.C,U5*
X0002774137Y0003064866D02*
X0002774137Y0003032995D01*
X0002776012Y0003029246D01*
X0002777887Y0003027371D01*
X0002781636Y0003025496D01*
X0002789135Y0003025496D01*
X0002792885Y0003027371D01*
X0002794760Y0003029246D01*
X0002796634Y0003032995D01*
X0002796634Y0003064866D01*
X0002834130Y0003064866D02*
X0002815382Y0003064866D01*
X0002813507Y0003046119D01*
X0002815382Y0003047994D01*
X0002819131Y0003049868D01*
X0002828505Y0003049868D01*
X0002832255Y0003047994D01*
X0002834130Y0003046119D01*
X0002836004Y0003042369D01*
X0002836004Y0003032995D01*
X0002834130Y0003029246D01*
X0002832255Y0003027371D01*
X0002828505Y0003025496D01*
X0002819131Y0003025496D01*
X0002815382Y0003027371D01*
X0002813507Y0003029246D01*
G04 #@! TO.C,REF\002A\002A*
X0003411136Y0003576677D02*
X0003398012Y0003595425D01*
X0003388638Y0003576677D02*
X0003388638Y0003616048D01*
X0003403637Y0003616048D01*
X0003407386Y0003614173D01*
X0003409261Y0003612298D01*
X0003411136Y0003608548D01*
X0003411136Y0003602924D01*
X0003409261Y0003599175D01*
X0003407386Y0003597300D01*
X0003403637Y0003595425D01*
X0003388638Y0003595425D01*
X0003443007Y0003578552D02*
X0003439257Y0003576677D01*
X0003431758Y0003576677D01*
X0003428008Y0003578552D01*
X0003426134Y0003582302D01*
X0003426134Y0003597300D01*
X0003428008Y0003601049D01*
X0003431758Y0003602924D01*
X0003439257Y0003602924D01*
X0003443007Y0003601049D01*
X0003444881Y0003597300D01*
X0003444881Y0003593550D01*
X0003426134Y0003589801D01*
X0003458005Y0003602924D02*
X0003467379Y0003576677D01*
X0003476752Y0003602924D01*
X0003529246Y0003616048D02*
X0003532995Y0003616048D01*
X0003536745Y0003614173D01*
X0003538620Y0003612298D01*
X0003540494Y0003608548D01*
X0003542369Y0003601049D01*
X0003542369Y0003591676D01*
X0003540494Y0003584177D01*
X0003538620Y0003580427D01*
X0003536745Y0003578552D01*
X0003532995Y0003576677D01*
X0003529246Y0003576677D01*
X0003525496Y0003578552D01*
X0003523622Y0003580427D01*
X0003521747Y0003584177D01*
X0003519872Y0003591676D01*
X0003519872Y0003601049D01*
X0003521747Y0003608548D01*
X0003523622Y0003612298D01*
X0003525496Y0003614173D01*
X0003529246Y0003616048D01*
D29*
X0002613329Y0003683070D02*
X0002607705Y0003685883D01*
X0002599268Y0003685883D01*
X0002590832Y0003683070D01*
X0002585208Y0003677446D01*
X0002582395Y0003671822D01*
X0002579583Y0003660573D01*
X0002579583Y0003652137D01*
X0002582395Y0003640888D01*
X0002585208Y0003635264D01*
X0002590832Y0003629640D01*
X0002599268Y0003626827D01*
X0002604893Y0003626827D01*
X0002613329Y0003629640D01*
X0002616141Y0003632452D01*
X0002616141Y0003652137D01*
X0002604893Y0003652137D01*
X0002666760Y0003626827D02*
X0002666760Y0003657761D01*
X0002663948Y0003663385D01*
X0002658323Y0003666197D01*
X0002647075Y0003666197D01*
X0002641451Y0003663385D01*
X0002666760Y0003629640D02*
X0002661136Y0003626827D01*
X0002647075Y0003626827D01*
X0002641451Y0003629640D01*
X0002638638Y0003635264D01*
X0002638638Y0003640888D01*
X0002641451Y0003646512D01*
X0002647075Y0003649325D01*
X0002661136Y0003649325D01*
X0002666760Y0003652137D01*
X0002694881Y0003626827D02*
X0002694881Y0003666197D01*
X0002694881Y0003685883D02*
X0002692069Y0003683070D01*
X0002694881Y0003680258D01*
X0002697694Y0003683070D01*
X0002694881Y0003685883D01*
X0002694881Y0003680258D01*
X0002723003Y0003666197D02*
X0002723003Y0003626827D01*
X0002723003Y0003660573D02*
X0002725815Y0003663385D01*
X0002731439Y0003666197D01*
X0002739876Y0003666197D01*
X0002745500Y0003663385D01*
X0002748312Y0003657761D01*
X0002748312Y0003626827D01*
X0002841113Y0003657761D02*
X0002849550Y0003654949D01*
X0002852362Y0003652137D01*
X0002855174Y0003646512D01*
X0002855174Y0003638076D01*
X0002852362Y0003632452D01*
X0002849550Y0003629640D01*
X0002843925Y0003626827D01*
X0002821428Y0003626827D01*
X0002821428Y0003685883D01*
X0002841113Y0003685883D01*
X0002846737Y0003683070D01*
X0002849550Y0003680258D01*
X0002852362Y0003674634D01*
X0002852362Y0003669010D01*
X0002849550Y0003663385D01*
X0002846737Y0003660573D01*
X0002841113Y0003657761D01*
X0002821428Y0003657761D01*
X0002888920Y0003626827D02*
X0002883295Y0003629640D01*
X0002880483Y0003635264D01*
X0002880483Y0003685883D01*
X0002919853Y0003626827D02*
X0002914229Y0003629640D01*
X0002911417Y0003632452D01*
X0002908605Y0003638076D01*
X0002908605Y0003654949D01*
X0002911417Y0003660573D01*
X0002914229Y0003663385D01*
X0002919853Y0003666197D01*
X0002928290Y0003666197D01*
X0002933914Y0003663385D01*
X0002936726Y0003660573D01*
X0002939538Y0003654949D01*
X0002939538Y0003638076D01*
X0002936726Y0003632452D01*
X0002933914Y0003629640D01*
X0002928290Y0003626827D01*
X0002919853Y0003626827D01*
X0002990157Y0003629640D02*
X0002984533Y0003626827D01*
X0002973284Y0003626827D01*
X0002967660Y0003629640D01*
X0002964848Y0003632452D01*
X0002962035Y0003638076D01*
X0002962035Y0003654949D01*
X0002964848Y0003660573D01*
X0002967660Y0003663385D01*
X0002973284Y0003666197D01*
X0002984533Y0003666197D01*
X0002990157Y0003663385D01*
X0003015466Y0003626827D02*
X0003015466Y0003685883D01*
X0003021091Y0003649325D02*
X0003037963Y0003626827D01*
X0003037963Y0003666197D02*
X0003015466Y0003643700D01*
X0003108267Y0003626827D02*
X0003108267Y0003685883D01*
X0003122328Y0003685883D01*
X0003130764Y0003683070D01*
X0003136389Y0003677446D01*
X0003139201Y0003671822D01*
X0003142013Y0003660573D01*
X0003142013Y0003652137D01*
X0003139201Y0003640888D01*
X0003136389Y0003635264D01*
X0003130764Y0003629640D01*
X0003122328Y0003626827D01*
X0003108267Y0003626827D01*
X0003189819Y0003629640D02*
X0003184195Y0003626827D01*
X0003172947Y0003626827D01*
X0003167322Y0003629640D01*
X0003164510Y0003635264D01*
X0003164510Y0003657761D01*
X0003167322Y0003663385D01*
X0003172947Y0003666197D01*
X0003184195Y0003666197D01*
X0003189819Y0003663385D01*
X0003192632Y0003657761D01*
X0003192632Y0003652137D01*
X0003164510Y0003646512D01*
X0003212317Y0003666197D02*
X0003226377Y0003626827D01*
X0003240438Y0003666197D01*
X0003327615Y0003657761D02*
X0003336051Y0003654949D01*
X0003338863Y0003652137D01*
X0003341676Y0003646512D01*
X0003341676Y0003638076D01*
X0003338863Y0003632452D01*
X0003336051Y0003629640D01*
X0003330427Y0003626827D01*
X0003307930Y0003626827D01*
X0003307930Y0003685883D01*
X0003327615Y0003685883D01*
X0003333239Y0003683070D01*
X0003336051Y0003680258D01*
X0003338863Y0003674634D01*
X0003338863Y0003669010D01*
X0003336051Y0003663385D01*
X0003333239Y0003660573D01*
X0003327615Y0003657761D01*
X0003307930Y0003657761D01*
X0003375421Y0003626827D02*
X0003369797Y0003629640D01*
X0003366985Y0003632452D01*
X0003364173Y0003638076D01*
X0003364173Y0003654949D01*
X0003366985Y0003660573D01*
X0003369797Y0003663385D01*
X0003375421Y0003666197D01*
X0003383858Y0003666197D01*
X0003389482Y0003663385D01*
X0003392294Y0003660573D01*
X0003395106Y0003654949D01*
X0003395106Y0003638076D01*
X0003392294Y0003632452D01*
X0003389482Y0003629640D01*
X0003383858Y0003626827D01*
X0003375421Y0003626827D01*
X0003445725Y0003626827D02*
X0003445725Y0003657761D01*
X0003442913Y0003663385D01*
X0003437289Y0003666197D01*
X0003426040Y0003666197D01*
X0003420416Y0003663385D01*
X0003445725Y0003629640D02*
X0003440101Y0003626827D01*
X0003426040Y0003626827D01*
X0003420416Y0003629640D01*
X0003417604Y0003635264D01*
X0003417604Y0003640888D01*
X0003420416Y0003646512D01*
X0003426040Y0003649325D01*
X0003440101Y0003649325D01*
X0003445725Y0003652137D01*
X0003473847Y0003626827D02*
X0003473847Y0003666197D01*
X0003473847Y0003654949D02*
X0003476659Y0003660573D01*
X0003479471Y0003663385D01*
X0003485095Y0003666197D01*
X0003490719Y0003666197D01*
X0003535714Y0003626827D02*
X0003535714Y0003685883D01*
X0003535714Y0003629640D02*
X0003530089Y0003626827D01*
X0003518841Y0003626827D01*
X0003513217Y0003629640D01*
X0003510404Y0003632452D01*
X0003507592Y0003638076D01*
X0003507592Y0003654949D01*
X0003510404Y0003660573D01*
X0003513217Y0003663385D01*
X0003518841Y0003666197D01*
X0003530089Y0003666197D01*
X0003535714Y0003663385D01*
G04 #@! TD*
G04 next file*
G04 #@! TF.GenerationSoftware,KiCad,Pcbnew,(5.0.2)-1*
G04 #@! TF.CreationDate,2019-01-06T11:57:04+11:00*
G04 #@! TF.ProjectId,MAX2870_Dev_Rev_0,4d415832-3837-4305-9f44-65765f526576,rev?*
G04 #@! TF.SameCoordinates,Original*
G04 #@! TF.FileFunction,Legend,Top*
G04 #@! TF.FilePolarity,Positive*
G04 Gerber Fmt 4.6, Leading zero omitted, Abs format (unit mm)*
G04 Created by KiCad (PCBNEW (5.0.2)-1) date 6/01/2019 11:57:04*
G01*
G04 APERTURE LIST*
G04 APERTURE END LIST*
D30*
X0001393419Y0003702662D02*
X0001380296Y0003721409D01*
X0001370922Y0003702662D02*
X0001370922Y0003742032D01*
X0001385920Y0003742032D01*
X0001389670Y0003740157D01*
X0001391544Y0003738282D01*
X0001393419Y0003734533D01*
X0001393419Y0003728908D01*
X0001391544Y0003725159D01*
X0001389670Y0003723284D01*
X0001385920Y0003721409D01*
X0001370922Y0003721409D01*
X0001425290Y0003704536D02*
X0001421540Y0003702662D01*
X0001414041Y0003702662D01*
X0001410292Y0003704536D01*
X0001408417Y0003708286D01*
X0001408417Y0003723284D01*
X0001410292Y0003727034D01*
X0001414041Y0003728908D01*
X0001421540Y0003728908D01*
X0001425290Y0003727034D01*
X0001427165Y0003723284D01*
X0001427165Y0003719535D01*
X0001408417Y0003715785D01*
X0001440288Y0003728908D02*
X0001449662Y0003702662D01*
X0001459036Y0003728908D01*
X0001511529Y0003742032D02*
X0001515279Y0003742032D01*
X0001519028Y0003740157D01*
X0001520903Y0003738282D01*
X0001522778Y0003734533D01*
X0001524653Y0003727034D01*
X0001524653Y0003717660D01*
X0001522778Y0003710161D01*
X0001520903Y0003706411D01*
X0001519028Y0003704536D01*
X0001515279Y0003702662D01*
X0001511529Y0003702662D01*
X0001507780Y0003704536D01*
X0001505905Y0003706411D01*
X0001504030Y0003710161D01*
X0001502155Y0003717660D01*
X0001502155Y0003727034D01*
X0001504030Y0003734533D01*
X0001505905Y0003738282D01*
X0001507780Y0003740157D01*
X0001511529Y0003742032D01*
X0000089988Y0003226237D02*
X0000112485Y0003226237D01*
X0000101237Y0003214988D02*
X0000101237Y0003237485D01*
X0000140607Y0003244516D02*
X0000126546Y0003244516D01*
X0000125140Y0003230455D01*
X0000126546Y0003231861D01*
X0000129358Y0003233267D01*
X0000136389Y0003233267D01*
X0000139201Y0003231861D01*
X0000140607Y0003230455D01*
X0000142013Y0003227643D01*
X0000142013Y0003220613D01*
X0000140607Y0003217800D01*
X0000139201Y0003216394D01*
X0000136389Y0003214988D01*
X0000129358Y0003214988D01*
X0000126546Y0003216394D01*
X0000125140Y0003217800D01*
X0000150449Y0003244516D02*
X0000160292Y0003214988D01*
X0000170134Y0003244516D01*
X0000123734Y0003115438D02*
X0000122328Y0003114032D01*
X0000118110Y0003112626D01*
X0000115298Y0003112626D01*
X0000111079Y0003114032D01*
X0000108267Y0003116844D01*
X0000106861Y0003119656D01*
X0000105455Y0003125281D01*
X0000105455Y0003129499D01*
X0000106861Y0003135123D01*
X0000108267Y0003137935D01*
X0000111079Y0003140748D01*
X0000115298Y0003142154D01*
X0000118110Y0003142154D01*
X0000122328Y0003140748D01*
X0000123734Y0003139341D01*
X0000136389Y0003128093D02*
X0000146231Y0003128093D01*
X0000150449Y0003112626D02*
X0000136389Y0003112626D01*
X0000136389Y0003142154D01*
X0000150449Y0003142154D01*
X0000112345Y0002814257D02*
X0000110939Y0002812851D01*
X0000106721Y0002811445D01*
X0000103908Y0002811445D01*
X0000099690Y0002812851D01*
X0000096878Y0002815663D01*
X0000095472Y0002818475D01*
X0000094066Y0002824100D01*
X0000094066Y0002828318D01*
X0000095472Y0002833942D01*
X0000096878Y0002836754D01*
X0000099690Y0002839566D01*
X0000103908Y0002840973D01*
X0000106721Y0002840973D01*
X0000110939Y0002839566D01*
X0000112345Y0002838160D01*
X0000139060Y0002811445D02*
X0000124999Y0002811445D01*
X0000124999Y0002840973D01*
X0000148903Y0002811445D02*
X0000148903Y0002840973D01*
X0000165776Y0002811445D02*
X0000153121Y0002828318D01*
X0000165776Y0002840973D02*
X0000148903Y0002824100D01*
X0000083661Y0002919713D02*
X0000083661Y0002949240D01*
X0000090691Y0002949240D01*
X0000094909Y0002947834D01*
X0000097722Y0002945022D01*
X0000099128Y0002942210D01*
X0000100534Y0002936586D01*
X0000100534Y0002932367D01*
X0000099128Y0002926743D01*
X0000097722Y0002923931D01*
X0000094909Y0002921119D01*
X0000090691Y0002919713D01*
X0000083661Y0002919713D01*
X0000111782Y0002928149D02*
X0000125843Y0002928149D01*
X0000108970Y0002919713D02*
X0000118813Y0002949240D01*
X0000128655Y0002919713D01*
X0000134280Y0002949240D02*
X0000151152Y0002949240D01*
X0000142716Y0002919713D02*
X0000142716Y0002949240D01*
X0000159589Y0002928149D02*
X0000173650Y0002928149D01*
X0000156777Y0002919713D02*
X0000166619Y0002949240D01*
X0000176462Y0002919713D01*
X0000123734Y0003018138D02*
X0000109673Y0003018138D01*
X0000109673Y0003047665D01*
X0000133577Y0003033605D02*
X0000143419Y0003033605D01*
X0000147637Y0003018138D02*
X0000133577Y0003018138D01*
X0000133577Y0003047665D01*
X0000147637Y0003047665D01*
X0000459083Y0002821287D02*
X0000459083Y0002850815D01*
X0000475956Y0002821287D01*
X0000475956Y0002850815D01*
X0000506889Y0002824100D02*
X0000505483Y0002822694D01*
X0000501265Y0002821287D01*
X0000498453Y0002821287D01*
X0000494235Y0002822694D01*
X0000491422Y0002825506D01*
X0000490016Y0002828318D01*
X0000488610Y0002833942D01*
X0000488610Y0002838160D01*
X0000490016Y0002843785D01*
X0000491422Y0002846597D01*
X0000494235Y0002849409D01*
X0000498453Y0002850815D01*
X0000501265Y0002850815D01*
X0000505483Y0002849409D01*
X0000506889Y0002848003D01*
X0000440944Y0002921681D02*
X0000440944Y0002951209D01*
X0000450787Y0002930118D01*
X0000460629Y0002951209D01*
X0000460629Y0002921681D01*
X0000474690Y0002951209D02*
X0000474690Y0002927305D01*
X0000476096Y0002924493D01*
X0000477502Y0002923087D01*
X0000480314Y0002921681D01*
X0000485939Y0002921681D01*
X0000488751Y0002923087D01*
X0000490157Y0002924493D01*
X0000491563Y0002927305D01*
X0000491563Y0002951209D01*
X0000502812Y0002951209D02*
X0000522497Y0002921681D01*
X0000522497Y0002951209D02*
X0000502812Y0002921681D01*
X0000457817Y0003243110D02*
X0000455005Y0003244516D01*
X0000450787Y0003244516D01*
X0000446569Y0003243110D01*
X0000443757Y0003240298D01*
X0000442350Y0003237485D01*
X0000440944Y0003231861D01*
X0000440944Y0003227643D01*
X0000442350Y0003222019D01*
X0000443757Y0003219207D01*
X0000446569Y0003216394D01*
X0000450787Y0003214988D01*
X0000453599Y0003214988D01*
X0000457817Y0003216394D01*
X0000459223Y0003217800D01*
X0000459223Y0003227643D01*
X0000453599Y0003227643D01*
X0000471878Y0003214988D02*
X0000471878Y0003244516D01*
X0000488751Y0003214988D01*
X0000488751Y0003244516D01*
X0000502812Y0003214988D02*
X0000502812Y0003244516D01*
X0000509842Y0003244516D01*
X0000514060Y0003243110D01*
X0000516872Y0003240298D01*
X0000518278Y0003237485D01*
X0000519685Y0003231861D01*
X0000519685Y0003227643D01*
X0000518278Y0003222019D01*
X0000516872Y0003219207D01*
X0000514060Y0003216394D01*
X0000509842Y0003214988D01*
X0000502812Y0003214988D01*
X0000474690Y0003112626D02*
X0000460629Y0003112626D01*
X0000460629Y0003142154D01*
X0000484533Y0003112626D02*
X0000484533Y0003142154D01*
X0000491563Y0003142154D01*
X0000495781Y0003140748D01*
X0000498593Y0003137935D01*
X0000500000Y0003135123D01*
X0000501406Y0003129499D01*
X0000501406Y0003125281D01*
X0000500000Y0003119656D01*
X0000498593Y0003116844D01*
X0000495781Y0003114032D01*
X0000491563Y0003112626D01*
X0000484533Y0003112626D01*
X0000436726Y0003018138D02*
X0000426884Y0003032199D01*
X0000419853Y0003018138D02*
X0000419853Y0003047665D01*
X0000431102Y0003047665D01*
X0000433914Y0003046259D01*
X0000435320Y0003044853D01*
X0000436726Y0003042041D01*
X0000436726Y0003037823D01*
X0000435320Y0003035011D01*
X0000433914Y0003033605D01*
X0000431102Y0003032199D01*
X0000419853Y0003032199D01*
X0000459223Y0003033605D02*
X0000449381Y0003033605D01*
X0000449381Y0003018138D02*
X0000449381Y0003047665D01*
X0000463442Y0003047665D01*
X0000467660Y0003015326D02*
X0000490157Y0003015326D01*
X0000497187Y0003033605D02*
X0000507030Y0003033605D01*
X0000511248Y0003018138D02*
X0000497187Y0003018138D01*
X0000497187Y0003047665D01*
X0000511248Y0003047665D01*
X0000523903Y0003018138D02*
X0000523903Y0003047665D01*
X0000540776Y0003018138D01*
X0000540776Y0003047665D01*
D31*
X0000365579Y0003753993D02*
X0000365579Y0003813048D01*
X0000385264Y0003770866D01*
X0000404949Y0003813048D01*
X0000404949Y0003753993D01*
X0000430258Y0003770866D02*
X0000458380Y0003770866D01*
X0000424634Y0003753993D02*
X0000444319Y0003813048D01*
X0000464004Y0003753993D01*
X0000478065Y0003813048D02*
X0000517435Y0003753993D01*
X0000517435Y0003813048D02*
X0000478065Y0003753993D01*
X0000537120Y0003807424D02*
X0000539932Y0003810236D01*
X0000545556Y0003813048D01*
X0000559617Y0003813048D01*
X0000565241Y0003810236D01*
X0000568053Y0003807424D01*
X0000570866Y0003801799D01*
X0000570866Y0003796175D01*
X0000568053Y0003787739D01*
X0000534308Y0003753993D01*
X0000570866Y0003753993D01*
X0000604611Y0003787739D02*
X0000598987Y0003790551D01*
X0000596175Y0003793363D01*
X0000593363Y0003798987D01*
X0000593363Y0003801799D01*
X0000596175Y0003807424D01*
X0000598987Y0003810236D01*
X0000604611Y0003813048D01*
X0000615860Y0003813048D01*
X0000621484Y0003810236D01*
X0000624296Y0003807424D01*
X0000627109Y0003801799D01*
X0000627109Y0003798987D01*
X0000624296Y0003793363D01*
X0000621484Y0003790551D01*
X0000615860Y0003787739D01*
X0000604611Y0003787739D01*
X0000598987Y0003784926D01*
X0000596175Y0003782114D01*
X0000593363Y0003776490D01*
X0000593363Y0003765241D01*
X0000596175Y0003759617D01*
X0000598987Y0003756805D01*
X0000604611Y0003753993D01*
X0000615860Y0003753993D01*
X0000621484Y0003756805D01*
X0000624296Y0003759617D01*
X0000627109Y0003765241D01*
X0000627109Y0003776490D01*
X0000624296Y0003782114D01*
X0000621484Y0003784926D01*
X0000615860Y0003787739D01*
X0000646794Y0003813048D02*
X0000686164Y0003813048D01*
X0000660854Y0003753993D01*
X0000719909Y0003813048D02*
X0000725534Y0003813048D01*
X0000731158Y0003810236D01*
X0000733970Y0003807424D01*
X0000736782Y0003801799D01*
X0000739595Y0003790551D01*
X0000739595Y0003776490D01*
X0000736782Y0003765241D01*
X0000733970Y0003759617D01*
X0000731158Y0003756805D01*
X0000725534Y0003753993D01*
X0000719909Y0003753993D01*
X0000714285Y0003756805D01*
X0000711473Y0003759617D01*
X0000708661Y0003765241D01*
X0000705849Y0003776490D01*
X0000705849Y0003790551D01*
X0000708661Y0003801799D01*
X0000711473Y0003807424D01*
X0000714285Y0003810236D01*
X0000719909Y0003813048D01*
X0000807086Y0003815860D02*
X0000756467Y0003739932D01*
X0000823959Y0003807424D02*
X0000826771Y0003810236D01*
X0000832395Y0003813048D01*
X0000846456Y0003813048D01*
X0000852080Y0003810236D01*
X0000854893Y0003807424D01*
X0000857705Y0003801799D01*
X0000857705Y0003796175D01*
X0000854893Y0003787739D01*
X0000821147Y0003753993D01*
X0000857705Y0003753993D01*
X0000891451Y0003787739D02*
X0000885826Y0003790551D01*
X0000883014Y0003793363D01*
X0000880202Y0003798987D01*
X0000880202Y0003801799D01*
X0000883014Y0003807424D01*
X0000885826Y0003810236D01*
X0000891451Y0003813048D01*
X0000902699Y0003813048D01*
X0000908323Y0003810236D01*
X0000911136Y0003807424D01*
X0000913948Y0003801799D01*
X0000913948Y0003798987D01*
X0000911136Y0003793363D01*
X0000908323Y0003790551D01*
X0000902699Y0003787739D01*
X0000891451Y0003787739D01*
X0000885826Y0003784926D01*
X0000883014Y0003782114D01*
X0000880202Y0003776490D01*
X0000880202Y0003765241D01*
X0000883014Y0003759617D01*
X0000885826Y0003756805D01*
X0000891451Y0003753993D01*
X0000902699Y0003753993D01*
X0000908323Y0003756805D01*
X0000911136Y0003759617D01*
X0000913948Y0003765241D01*
X0000913948Y0003776490D01*
X0000911136Y0003782114D01*
X0000908323Y0003784926D01*
X0000902699Y0003787739D01*
X0000933633Y0003813048D02*
X0000973003Y0003813048D01*
X0000947693Y0003753993D01*
X0001026434Y0003753993D02*
X0000992688Y0003753993D01*
X0001009561Y0003753993D02*
X0001009561Y0003813048D01*
X0001003937Y0003804611D01*
X0000998312Y0003798987D01*
X0000992688Y0003796175D01*
X0001096737Y0003753993D02*
X0001096737Y0003813048D01*
X0001110798Y0003813048D01*
X0001119235Y0003810236D01*
X0001124859Y0003804611D01*
X0001127671Y0003798987D01*
X0001130483Y0003787739D01*
X0001130483Y0003779302D01*
X0001127671Y0003768054D01*
X0001124859Y0003762429D01*
X0001119235Y0003756805D01*
X0001110798Y0003753993D01*
X0001096737Y0003753993D01*
X0001178290Y0003756805D02*
X0001172665Y0003753993D01*
X0001161417Y0003753993D01*
X0001155792Y0003756805D01*
X0001152980Y0003762429D01*
X0001152980Y0003784926D01*
X0001155792Y0003790551D01*
X0001161417Y0003793363D01*
X0001172665Y0003793363D01*
X0001178290Y0003790551D01*
X0001181102Y0003784926D01*
X0001181102Y0003779302D01*
X0001152980Y0003773678D01*
X0001200787Y0003793363D02*
X0001214848Y0003753993D01*
X0001228908Y0003793363D01*
X0001316085Y0003784926D02*
X0001324521Y0003782114D01*
X0001327334Y0003779302D01*
X0001330146Y0003773678D01*
X0001330146Y0003765241D01*
X0001327334Y0003759617D01*
X0001324521Y0003756805D01*
X0001318897Y0003753993D01*
X0001296400Y0003753993D01*
X0001296400Y0003813048D01*
X0001316085Y0003813048D01*
X0001321709Y0003810236D01*
X0001324521Y0003807424D01*
X0001327334Y0003801799D01*
X0001327334Y0003796175D01*
X0001324521Y0003790551D01*
X0001321709Y0003787739D01*
X0001316085Y0003784926D01*
X0001296400Y0003784926D01*
X0001363892Y0003753993D02*
X0001358267Y0003756805D01*
X0001355455Y0003759617D01*
X0001352643Y0003765241D01*
X0001352643Y0003782114D01*
X0001355455Y0003787739D01*
X0001358267Y0003790551D01*
X0001363892Y0003793363D01*
X0001372328Y0003793363D01*
X0001377952Y0003790551D01*
X0001380764Y0003787739D01*
X0001383577Y0003782114D01*
X0001383577Y0003765241D01*
X0001380764Y0003759617D01*
X0001377952Y0003756805D01*
X0001372328Y0003753993D01*
X0001363892Y0003753993D01*
X0001434195Y0003753993D02*
X0001434195Y0003784926D01*
X0001431383Y0003790551D01*
X0001425759Y0003793363D01*
X0001414510Y0003793363D01*
X0001408886Y0003790551D01*
X0001434195Y0003756805D02*
X0001428571Y0003753993D01*
X0001414510Y0003753993D01*
X0001408886Y0003756805D01*
X0001406074Y0003762429D01*
X0001406074Y0003768054D01*
X0001408886Y0003773678D01*
X0001414510Y0003776490D01*
X0001428571Y0003776490D01*
X0001434195Y0003779302D01*
X0001462317Y0003753993D02*
X0001462317Y0003793363D01*
X0001462317Y0003782114D02*
X0001465129Y0003787739D01*
X0001467941Y0003790551D01*
X0001473565Y0003793363D01*
X0001479190Y0003793363D01*
X0001524184Y0003753993D02*
X0001524184Y0003813048D01*
X0001524184Y0003756805D02*
X0001518560Y0003753993D01*
X0001507311Y0003753993D01*
X0001501687Y0003756805D01*
X0001498875Y0003759617D01*
X0001496062Y0003765241D01*
X0001496062Y0003782114D01*
X0001498875Y0003787739D01*
X0001501687Y0003790551D01*
X0001507311Y0003793363D01*
X0001518560Y0003793363D01*
X0001524184Y0003790551D01*
D30*
G04 #@! TO.C,FB1*
X0001350393Y0002892125D02*
X0001417322Y0002892125D01*
X0001350393Y0002840944D02*
X0001417322Y0002840944D01*
G04 #@! TO.C,FB2*
X0001382677Y0003243307D02*
X0001449606Y0003243307D01*
X0001382677Y0003192125D02*
X0001449606Y0003192125D01*
G04 #@! TO.C,XO1*
X0000649015Y0002937992D02*
X0000617519Y0002969488D01*
X0000617519Y0002969488D02*
X0000617519Y0003065157D01*
X0000617519Y0003065157D02*
X0000763582Y0003065157D01*
X0000763582Y0003065157D02*
X0000763582Y0002937992D01*
X0000763582Y0002937992D02*
X0000649015Y0002937992D01*
G04 #@! TO.C,U3*
X0001031988Y0003145177D02*
X0001031988Y0003124507D01*
X0001238681Y0003145177D02*
X0001238681Y0003124507D01*
X0001238681Y0002938484D02*
X0001238681Y0002959153D01*
X0001031988Y0002938484D02*
X0001031988Y0002959153D01*
X0001238681Y0003145177D02*
X0001218011Y0003145177D01*
X0001238681Y0002938484D02*
X0001218011Y0002938484D01*
X0001031988Y0003145177D02*
X0001052657Y0003145177D01*
D32*
G04 #@! TO.C,C1*
X0000407874Y0002420922D02*
X0000407874Y0002441282D01*
X0000463779Y0002420922D02*
X0000463779Y0002441282D01*
G04 #@! TO.C,C2*
X0000661811Y0002647834D02*
X0000815748Y0002647834D01*
X0000815748Y0002647834D02*
X0000815748Y0002721456D01*
X0000815748Y0002721456D02*
X0000661811Y0002721456D01*
G04 #@! TO.C,J1*
X0000198818Y0002779133D02*
X0000403543Y0002779133D01*
X0000198818Y0003181496D02*
X0000198818Y0002779133D01*
X0000403543Y0003283858D02*
X0000403543Y0002779133D01*
X0000198818Y0003181496D02*
X0000301181Y0003181496D01*
X0000301181Y0003181496D02*
X0000301181Y0003283858D01*
X0000301181Y0003283858D02*
X0000403543Y0003283858D01*
X0000198818Y0003231496D02*
X0000198818Y0003283858D01*
X0000198818Y0003283858D02*
X0000251181Y0003283858D01*
G04 #@! TO.C,U1*
X0000733070Y0002349212D02*
X0000733070Y0002398818D01*
X0000733070Y0002617716D02*
X0000733070Y0002568110D01*
X0000585039Y0002349212D02*
X0000733070Y0002349212D01*
X0000496456Y0002617716D02*
X0000733070Y0002617716D01*
G04 #@! TO.C,U2*
X0000318503Y0003399212D02*
X0000389370Y0003399212D01*
X0000389370Y0003525984D02*
X0000292913Y0003525984D01*
G04 #@! TO.C,U4*
X0000590157Y0003190551D02*
X0000664960Y0003190551D01*
X0000645275Y0003281889D02*
X0000590157Y0003281889D01*
G04 #@! TO.C,C13*
D30*
X0001062289Y0002662120D02*
X0001060414Y0002660245D01*
X0001054790Y0002658370D01*
X0001051040Y0002658370D01*
X0001045416Y0002660245D01*
X0001041666Y0002663995D01*
X0001039791Y0002667744D01*
X0001037917Y0002675243D01*
X0001037917Y0002680868D01*
X0001039791Y0002688367D01*
X0001041666Y0002692116D01*
X0001045416Y0002695866D01*
X0001051040Y0002697740D01*
X0001054790Y0002697740D01*
X0001060414Y0002695866D01*
X0001062289Y0002693991D01*
X0001099784Y0002658370D02*
X0001077287Y0002658370D01*
X0001088535Y0002658370D02*
X0001088535Y0002697740D01*
X0001084786Y0002692116D01*
X0001081036Y0002688367D01*
X0001077287Y0002686492D01*
X0001112907Y0002697740D02*
X0001137279Y0002697740D01*
X0001124156Y0002682742D01*
X0001129780Y0002682742D01*
X0001133530Y0002680868D01*
X0001135404Y0002678993D01*
X0001137279Y0002675243D01*
X0001137279Y0002665869D01*
X0001135404Y0002662120D01*
X0001133530Y0002660245D01*
X0001129780Y0002658370D01*
X0001118532Y0002658370D01*
X0001114782Y0002660245D01*
X0001112907Y0002662120D01*
G04 #@! TO.C,FB1*
X0001492467Y0002868245D02*
X0001479343Y0002868245D01*
X0001479343Y0002847622D02*
X0001479343Y0002886992D01*
X0001498091Y0002886992D01*
X0001526212Y0002868245D02*
X0001531837Y0002866370D01*
X0001533711Y0002864495D01*
X0001535586Y0002860746D01*
X0001535586Y0002855121D01*
X0001533711Y0002851372D01*
X0001531837Y0002849497D01*
X0001528087Y0002847622D01*
X0001513089Y0002847622D01*
X0001513089Y0002886992D01*
X0001526212Y0002886992D01*
X0001529962Y0002885118D01*
X0001531837Y0002883243D01*
X0001533711Y0002879493D01*
X0001533711Y0002875744D01*
X0001531837Y0002871994D01*
X0001529962Y0002870120D01*
X0001526212Y0002868245D01*
X0001513089Y0002868245D01*
X0001573082Y0002847622D02*
X0001550584Y0002847622D01*
X0001561833Y0002847622D02*
X0001561833Y0002886992D01*
X0001558083Y0002881368D01*
X0001554334Y0002877619D01*
X0001550584Y0002875744D01*
G04 #@! TO.C,FB2*
X0001522467Y0003218245D02*
X0001509343Y0003218245D01*
X0001509343Y0003197622D02*
X0001509343Y0003236992D01*
X0001528091Y0003236992D01*
X0001556212Y0003218245D02*
X0001561837Y0003216370D01*
X0001563711Y0003214495D01*
X0001565586Y0003210746D01*
X0001565586Y0003205121D01*
X0001563711Y0003201372D01*
X0001561837Y0003199497D01*
X0001558087Y0003197622D01*
X0001543089Y0003197622D01*
X0001543089Y0003236992D01*
X0001556212Y0003236992D01*
X0001559962Y0003235118D01*
X0001561837Y0003233243D01*
X0001563711Y0003229493D01*
X0001563711Y0003225744D01*
X0001561837Y0003221994D01*
X0001559962Y0003220120D01*
X0001556212Y0003218245D01*
X0001543089Y0003218245D01*
X0001580584Y0003233243D02*
X0001582459Y0003235118D01*
X0001586209Y0003236992D01*
X0001595583Y0003236992D01*
X0001599332Y0003235118D01*
X0001601207Y0003233243D01*
X0001603082Y0003229493D01*
X0001603082Y0003225744D01*
X0001601207Y0003220120D01*
X0001578710Y0003197622D01*
X0001603082Y0003197622D01*
G04 #@! TO.C,XO1*
X0000643175Y0002919591D02*
X0000669422Y0002880221D01*
X0000669422Y0002919591D02*
X0000643175Y0002880221D01*
X0000691919Y0002919591D02*
X0000699418Y0002919591D01*
X0000703168Y0002917716D01*
X0000706917Y0002913967D01*
X0000708792Y0002906467D01*
X0000708792Y0002893344D01*
X0000706917Y0002885845D01*
X0000703168Y0002882096D01*
X0000699418Y0002880221D01*
X0000691919Y0002880221D01*
X0000688170Y0002882096D01*
X0000684420Y0002885845D01*
X0000682545Y0002893344D01*
X0000682545Y0002906467D01*
X0000684420Y0002913967D01*
X0000688170Y0002917716D01*
X0000691919Y0002919591D01*
X0000746287Y0002880221D02*
X0000723790Y0002880221D01*
X0000735039Y0002880221D02*
X0000735039Y0002919591D01*
X0000731289Y0002913967D01*
X0000727540Y0002910217D01*
X0000723790Y0002908342D01*
G04 #@! TO.C,C16*
X0001344769Y0002670556D02*
X0001346644Y0002668682D01*
X0001348518Y0002663057D01*
X0001348518Y0002659308D01*
X0001346644Y0002653683D01*
X0001342894Y0002649934D01*
X0001339145Y0002648059D01*
X0001331646Y0002646184D01*
X0001326021Y0002646184D01*
X0001318522Y0002648059D01*
X0001314773Y0002649934D01*
X0001311023Y0002653683D01*
X0001309148Y0002659308D01*
X0001309148Y0002663057D01*
X0001311023Y0002668682D01*
X0001312898Y0002670556D01*
X0001348518Y0002708052D02*
X0001348518Y0002685554D01*
X0001348518Y0002696803D02*
X0001309148Y0002696803D01*
X0001314773Y0002693054D01*
X0001318522Y0002689304D01*
X0001320397Y0002685554D01*
X0001309148Y0002741797D02*
X0001309148Y0002734298D01*
X0001311023Y0002730549D01*
X0001312898Y0002728674D01*
X0001318522Y0002724925D01*
X0001326021Y0002723050D01*
X0001341019Y0002723050D01*
X0001344769Y0002724925D01*
X0001346644Y0002726799D01*
X0001348518Y0002730549D01*
X0001348518Y0002738048D01*
X0001346644Y0002741797D01*
X0001344769Y0002743672D01*
X0001341019Y0002745547D01*
X0001331646Y0002745547D01*
X0001327896Y0002743672D01*
X0001326021Y0002741797D01*
X0001324146Y0002738048D01*
X0001324146Y0002730549D01*
X0001326021Y0002726799D01*
X0001327896Y0002724925D01*
X0001331646Y0002723050D01*
G04 #@! TO.C,U3*
X0001268597Y0003070397D02*
X0001300468Y0003070397D01*
X0001304218Y0003072272D01*
X0001306092Y0003074147D01*
X0001307967Y0003077896D01*
X0001307967Y0003085395D01*
X0001306092Y0003089145D01*
X0001304218Y0003091019D01*
X0001300468Y0003092894D01*
X0001268597Y0003092894D01*
X0001268597Y0003107892D02*
X0001268597Y0003132264D01*
X0001283595Y0003119141D01*
X0001283595Y0003124765D01*
X0001285470Y0003128515D01*
X0001287345Y0003130389D01*
X0001291094Y0003132264D01*
X0001300468Y0003132264D01*
X0001304218Y0003130389D01*
X0001306092Y0003128515D01*
X0001307967Y0003124765D01*
X0001307967Y0003113517D01*
X0001306092Y0003109767D01*
X0001304218Y0003107892D01*
G04 #@! TO.C,C1*
X0000431430Y0002316647D02*
X0000429555Y0002314773D01*
X0000423931Y0002312898D01*
X0000420181Y0002312898D01*
X0000414557Y0002314773D01*
X0000410807Y0002318522D01*
X0000408933Y0002322272D01*
X0000407058Y0002329771D01*
X0000407058Y0002335395D01*
X0000408933Y0002342894D01*
X0000410807Y0002346644D01*
X0000414557Y0002350393D01*
X0000420181Y0002352268D01*
X0000423931Y0002352268D01*
X0000429555Y0002350393D01*
X0000431430Y0002348518D01*
X0000468925Y0002312898D02*
X0000446428Y0002312898D01*
X0000457677Y0002312898D02*
X0000457677Y0002352268D01*
X0000453927Y0002346644D01*
X0000450178Y0002342894D01*
X0000446428Y0002341019D01*
G04 #@! TO.C,C2*
X0000718241Y0002741844D02*
X0000716366Y0002739970D01*
X0000710742Y0002738095D01*
X0000706992Y0002738095D01*
X0000701368Y0002739970D01*
X0000697618Y0002743719D01*
X0000695744Y0002747469D01*
X0000693869Y0002754968D01*
X0000693869Y0002760592D01*
X0000695744Y0002768091D01*
X0000697618Y0002771841D01*
X0000701368Y0002775590D01*
X0000706992Y0002777465D01*
X0000710742Y0002777465D01*
X0000716366Y0002775590D01*
X0000718241Y0002773715D01*
X0000733239Y0002773715D02*
X0000735114Y0002775590D01*
X0000738863Y0002777465D01*
X0000748237Y0002777465D01*
X0000751987Y0002775590D01*
X0000753861Y0002773715D01*
X0000755736Y0002769966D01*
X0000755736Y0002766216D01*
X0000753861Y0002760592D01*
X0000731364Y0002738095D01*
X0000755736Y0002738095D01*
G04 #@! TO.C,C3*
X0000574146Y0002909167D02*
X0000572272Y0002907292D01*
X0000566647Y0002905418D01*
X0000562898Y0002905418D01*
X0000557274Y0002907292D01*
X0000553524Y0002911042D01*
X0000551649Y0002914791D01*
X0000549775Y0002922290D01*
X0000549775Y0002927915D01*
X0000551649Y0002935414D01*
X0000553524Y0002939163D01*
X0000557274Y0002942913D01*
X0000562898Y0002944788D01*
X0000566647Y0002944788D01*
X0000572272Y0002942913D01*
X0000574146Y0002941038D01*
X0000587270Y0002944788D02*
X0000611642Y0002944788D01*
X0000598518Y0002929790D01*
X0000604143Y0002929790D01*
X0000607892Y0002927915D01*
X0000609767Y0002926040D01*
X0000611642Y0002922290D01*
X0000611642Y0002912917D01*
X0000609767Y0002909167D01*
X0000607892Y0002907292D01*
X0000604143Y0002905418D01*
X0000592894Y0002905418D01*
X0000589145Y0002907292D01*
X0000587270Y0002909167D01*
G04 #@! TO.C,C4*
X0000811548Y0002970191D02*
X0000809673Y0002968316D01*
X0000804049Y0002966441D01*
X0000800299Y0002966441D01*
X0000794675Y0002968316D01*
X0000790926Y0002972066D01*
X0000789051Y0002975815D01*
X0000787176Y0002983314D01*
X0000787176Y0002988938D01*
X0000789051Y0002996437D01*
X0000790926Y0003000187D01*
X0000794675Y0003003937D01*
X0000800299Y0003005811D01*
X0000804049Y0003005811D01*
X0000809673Y0003003937D01*
X0000811548Y0003002062D01*
X0000845294Y0002992688D02*
X0000845294Y0002966441D01*
X0000835920Y0003007686D02*
X0000826546Y0002979565D01*
X0000850918Y0002979565D01*
G04 #@! TO.C,C5*
X0001213910Y0003480033D02*
X0001212035Y0003478159D01*
X0001206411Y0003476284D01*
X0001202662Y0003476284D01*
X0001197037Y0003478159D01*
X0001193288Y0003481908D01*
X0001191413Y0003485658D01*
X0001189538Y0003493157D01*
X0001189538Y0003498781D01*
X0001191413Y0003506280D01*
X0001193288Y0003510030D01*
X0001197037Y0003513779D01*
X0001202662Y0003515654D01*
X0001206411Y0003515654D01*
X0001212035Y0003513779D01*
X0001213910Y0003511904D01*
X0001249531Y0003515654D02*
X0001230783Y0003515654D01*
X0001228908Y0003496906D01*
X0001230783Y0003498781D01*
X0001234533Y0003500656D01*
X0001243906Y0003500656D01*
X0001247656Y0003498781D01*
X0001249531Y0003496906D01*
X0001251406Y0003493157D01*
X0001251406Y0003483783D01*
X0001249531Y0003480033D01*
X0001247656Y0003478159D01*
X0001243906Y0003476284D01*
X0001234533Y0003476284D01*
X0001230783Y0003478159D01*
X0001228908Y0003480033D01*
G04 #@! TO.C,C6*
X0001086895Y0003300524D02*
X0001088770Y0003298650D01*
X0001090644Y0003293025D01*
X0001090644Y0003289276D01*
X0001088770Y0003283652D01*
X0001085020Y0003279902D01*
X0001081271Y0003278027D01*
X0001073772Y0003276152D01*
X0001068147Y0003276152D01*
X0001060648Y0003278027D01*
X0001056899Y0003279902D01*
X0001053149Y0003283652D01*
X0001051274Y0003289276D01*
X0001051274Y0003293025D01*
X0001053149Y0003298650D01*
X0001055024Y0003300524D01*
X0001051274Y0003334270D02*
X0001051274Y0003326771D01*
X0001053149Y0003323022D01*
X0001055024Y0003321147D01*
X0001060648Y0003317397D01*
X0001068147Y0003315523D01*
X0001083145Y0003315523D01*
X0001086895Y0003317397D01*
X0001088770Y0003319272D01*
X0001090644Y0003323022D01*
X0001090644Y0003330521D01*
X0001088770Y0003334270D01*
X0001086895Y0003336145D01*
X0001083145Y0003338020D01*
X0001073772Y0003338020D01*
X0001070022Y0003336145D01*
X0001068147Y0003334270D01*
X0001066272Y0003330521D01*
X0001066272Y0003323022D01*
X0001068147Y0003319272D01*
X0001070022Y0003317397D01*
X0001073772Y0003315523D01*
G04 #@! TO.C,C7*
X0000225721Y0003352081D02*
X0000223846Y0003350206D01*
X0000218222Y0003348331D01*
X0000214473Y0003348331D01*
X0000208848Y0003350206D01*
X0000205099Y0003353955D01*
X0000203224Y0003357705D01*
X0000201349Y0003365204D01*
X0000201349Y0003370828D01*
X0000203224Y0003378327D01*
X0000205099Y0003382077D01*
X0000208848Y0003385826D01*
X0000214473Y0003387701D01*
X0000218222Y0003387701D01*
X0000223846Y0003385826D01*
X0000225721Y0003383952D01*
X0000238845Y0003387701D02*
X0000265091Y0003387701D01*
X0000248218Y0003348331D01*
G04 #@! TO.C,C8*
X0001037682Y0003300524D02*
X0001039557Y0003298650D01*
X0001041432Y0003293025D01*
X0001041432Y0003289276D01*
X0001039557Y0003283652D01*
X0001035807Y0003279902D01*
X0001032058Y0003278027D01*
X0001024559Y0003276152D01*
X0001018935Y0003276152D01*
X0001011436Y0003278027D01*
X0001007686Y0003279902D01*
X0001003937Y0003283652D01*
X0001002062Y0003289276D01*
X0001002062Y0003293025D01*
X0001003937Y0003298650D01*
X0001005811Y0003300524D01*
X0001018935Y0003323022D02*
X0001017060Y0003319272D01*
X0001015185Y0003317397D01*
X0001011436Y0003315523D01*
X0001009561Y0003315523D01*
X0001005811Y0003317397D01*
X0001003937Y0003319272D01*
X0001002062Y0003323022D01*
X0001002062Y0003330521D01*
X0001003937Y0003334270D01*
X0001005811Y0003336145D01*
X0001009561Y0003338020D01*
X0001011436Y0003338020D01*
X0001015185Y0003336145D01*
X0001017060Y0003334270D01*
X0001018935Y0003330521D01*
X0001018935Y0003323022D01*
X0001020809Y0003319272D01*
X0001022684Y0003317397D01*
X0001026434Y0003315523D01*
X0001033933Y0003315523D01*
X0001037682Y0003317397D01*
X0001039557Y0003319272D01*
X0001041432Y0003323022D01*
X0001041432Y0003330521D01*
X0001039557Y0003334270D01*
X0001037682Y0003336145D01*
X0001033933Y0003338020D01*
X0001026434Y0003338020D01*
X0001022684Y0003336145D01*
X0001020809Y0003334270D01*
X0001018935Y0003330521D01*
G04 #@! TO.C,C9*
X0000935320Y0003182414D02*
X0000937195Y0003180539D01*
X0000939070Y0003174915D01*
X0000939070Y0003171166D01*
X0000937195Y0003165541D01*
X0000933445Y0003161792D01*
X0000929696Y0003159917D01*
X0000922197Y0003158042D01*
X0000916572Y0003158042D01*
X0000909073Y0003159917D01*
X0000905324Y0003161792D01*
X0000901574Y0003165541D01*
X0000899699Y0003171166D01*
X0000899699Y0003174915D01*
X0000901574Y0003180539D01*
X0000903449Y0003182414D01*
X0000939070Y0003201162D02*
X0000939070Y0003208661D01*
X0000937195Y0003212410D01*
X0000935320Y0003214285D01*
X0000929696Y0003218035D01*
X0000922197Y0003219910D01*
X0000907199Y0003219910D01*
X0000903449Y0003218035D01*
X0000901574Y0003216160D01*
X0000899699Y0003212410D01*
X0000899699Y0003204911D01*
X0000901574Y0003201162D01*
X0000903449Y0003199287D01*
X0000907199Y0003197412D01*
X0000916572Y0003197412D01*
X0000920322Y0003199287D01*
X0000922197Y0003201162D01*
X0000924071Y0003204911D01*
X0000924071Y0003212410D01*
X0000922197Y0003216160D01*
X0000920322Y0003218035D01*
X0000916572Y0003219910D01*
G04 #@! TO.C,C10*
X0000982564Y0003179415D02*
X0000984439Y0003177540D01*
X0000986314Y0003171916D01*
X0000986314Y0003168166D01*
X0000984439Y0003162542D01*
X0000980689Y0003158792D01*
X0000976940Y0003156917D01*
X0000969441Y0003155043D01*
X0000963817Y0003155043D01*
X0000956317Y0003156917D01*
X0000952568Y0003158792D01*
X0000948818Y0003162542D01*
X0000946944Y0003168166D01*
X0000946944Y0003171916D01*
X0000948818Y0003177540D01*
X0000950693Y0003179415D01*
X0000986314Y0003216910D02*
X0000986314Y0003194413D01*
X0000986314Y0003205661D02*
X0000946944Y0003205661D01*
X0000952568Y0003201912D01*
X0000956317Y0003198162D01*
X0000958192Y0003194413D01*
X0000946944Y0003241282D02*
X0000946944Y0003245031D01*
X0000948818Y0003248781D01*
X0000950693Y0003250656D01*
X0000954443Y0003252530D01*
X0000961942Y0003254405D01*
X0000971316Y0003254405D01*
X0000978815Y0003252530D01*
X0000982564Y0003250656D01*
X0000984439Y0003248781D01*
X0000986314Y0003245031D01*
X0000986314Y0003241282D01*
X0000984439Y0003237532D01*
X0000982564Y0003235658D01*
X0000978815Y0003233783D01*
X0000971316Y0003231908D01*
X0000961942Y0003231908D01*
X0000954443Y0003233783D01*
X0000950693Y0003235658D01*
X0000948818Y0003237532D01*
X0000946944Y0003241282D01*
G04 #@! TO.C,C11*
X0000943194Y0002809336D02*
X0000945069Y0002807461D01*
X0000946944Y0002801837D01*
X0000946944Y0002798087D01*
X0000945069Y0002792463D01*
X0000941319Y0002788713D01*
X0000937570Y0002786839D01*
X0000930071Y0002784964D01*
X0000924446Y0002784964D01*
X0000916947Y0002786839D01*
X0000913198Y0002788713D01*
X0000909448Y0002792463D01*
X0000907574Y0002798087D01*
X0000907574Y0002801837D01*
X0000909448Y0002807461D01*
X0000911323Y0002809336D01*
X0000946944Y0002846831D02*
X0000946944Y0002824334D01*
X0000946944Y0002835583D02*
X0000907574Y0002835583D01*
X0000913198Y0002831833D01*
X0000916947Y0002828084D01*
X0000918822Y0002824334D01*
X0000946944Y0002884326D02*
X0000946944Y0002861829D01*
X0000946944Y0002873078D02*
X0000907574Y0002873078D01*
X0000913198Y0002869328D01*
X0000916947Y0002865579D01*
X0000918822Y0002861829D01*
G04 #@! TO.C,C12*
X0000990438Y0002809336D02*
X0000992313Y0002807461D01*
X0000994188Y0002801837D01*
X0000994188Y0002798087D01*
X0000992313Y0002792463D01*
X0000988563Y0002788713D01*
X0000984814Y0002786839D01*
X0000977315Y0002784964D01*
X0000971691Y0002784964D01*
X0000964191Y0002786839D01*
X0000960442Y0002788713D01*
X0000956692Y0002792463D01*
X0000954818Y0002798087D01*
X0000954818Y0002801837D01*
X0000956692Y0002807461D01*
X0000958567Y0002809336D01*
X0000994188Y0002846831D02*
X0000994188Y0002824334D01*
X0000994188Y0002835583D02*
X0000954818Y0002835583D01*
X0000960442Y0002831833D01*
X0000964191Y0002828084D01*
X0000966066Y0002824334D01*
X0000958567Y0002861829D02*
X0000956692Y0002863704D01*
X0000954818Y0002867454D01*
X0000954818Y0002876827D01*
X0000956692Y0002880577D01*
X0000958567Y0002882452D01*
X0000962317Y0002884326D01*
X0000966066Y0002884326D01*
X0000971691Y0002882452D01*
X0000994188Y0002859955D01*
X0000994188Y0002884326D01*
G04 #@! TO.C,C14*
X0001063273Y0002715270D02*
X0001061398Y0002713395D01*
X0001055774Y0002711520D01*
X0001052024Y0002711520D01*
X0001046400Y0002713395D01*
X0001042650Y0002717144D01*
X0001040776Y0002720894D01*
X0001038901Y0002728393D01*
X0001038901Y0002734017D01*
X0001040776Y0002741516D01*
X0001042650Y0002745266D01*
X0001046400Y0002749015D01*
X0001052024Y0002750890D01*
X0001055774Y0002750890D01*
X0001061398Y0002749015D01*
X0001063273Y0002747140D01*
X0001100768Y0002711520D02*
X0001078271Y0002711520D01*
X0001089520Y0002711520D02*
X0001089520Y0002750890D01*
X0001085770Y0002745266D01*
X0001082020Y0002741516D01*
X0001078271Y0002739641D01*
X0001134514Y0002737767D02*
X0001134514Y0002711520D01*
X0001125140Y0002752765D02*
X0001115766Y0002724643D01*
X0001140138Y0002724643D01*
G04 #@! TO.C,C15*
X0000455005Y0003371766D02*
X0000453130Y0003369891D01*
X0000447506Y0003368016D01*
X0000443757Y0003368016D01*
X0000438132Y0003369891D01*
X0000434383Y0003373640D01*
X0000432508Y0003377390D01*
X0000430633Y0003384889D01*
X0000430633Y0003390513D01*
X0000432508Y0003398012D01*
X0000434383Y0003401762D01*
X0000438132Y0003405511D01*
X0000443757Y0003407386D01*
X0000447506Y0003407386D01*
X0000453130Y0003405511D01*
X0000455005Y0003403637D01*
X0000492500Y0003368016D02*
X0000470003Y0003368016D01*
X0000481252Y0003368016D02*
X0000481252Y0003407386D01*
X0000477502Y0003401762D01*
X0000473753Y0003398012D01*
X0000470003Y0003396137D01*
X0000528121Y0003407386D02*
X0000509373Y0003407386D01*
X0000507499Y0003388638D01*
X0000509373Y0003390513D01*
X0000513123Y0003392388D01*
X0000522497Y0003392388D01*
X0000526246Y0003390513D01*
X0000528121Y0003388638D01*
X0000529996Y0003384889D01*
X0000529996Y0003375515D01*
X0000528121Y0003371766D01*
X0000526246Y0003369891D01*
X0000522497Y0003368016D01*
X0000513123Y0003368016D01*
X0000509373Y0003369891D01*
X0000507499Y0003371766D01*
G04 #@! TO.C,C17*
X0001297525Y0002670556D02*
X0001299400Y0002668682D01*
X0001301274Y0002663057D01*
X0001301274Y0002659308D01*
X0001299400Y0002653683D01*
X0001295650Y0002649934D01*
X0001291900Y0002648059D01*
X0001284401Y0002646184D01*
X0001278777Y0002646184D01*
X0001271278Y0002648059D01*
X0001267529Y0002649934D01*
X0001263779Y0002653683D01*
X0001261904Y0002659308D01*
X0001261904Y0002663057D01*
X0001263779Y0002668682D01*
X0001265654Y0002670556D01*
X0001301274Y0002708052D02*
X0001301274Y0002685554D01*
X0001301274Y0002696803D02*
X0001261904Y0002696803D01*
X0001267529Y0002693054D01*
X0001271278Y0002689304D01*
X0001273153Y0002685554D01*
X0001261904Y0002721175D02*
X0001261904Y0002747422D01*
X0001301274Y0002730549D01*
G04 #@! TO.C,C18*
X0001264060Y0003380202D02*
X0001265935Y0003378327D01*
X0001267810Y0003372703D01*
X0001267810Y0003368953D01*
X0001265935Y0003363329D01*
X0001262185Y0003359580D01*
X0001258436Y0003357705D01*
X0001250937Y0003355830D01*
X0001245313Y0003355830D01*
X0001237814Y0003357705D01*
X0001234064Y0003359580D01*
X0001230314Y0003363329D01*
X0001228440Y0003368953D01*
X0001228440Y0003372703D01*
X0001230314Y0003378327D01*
X0001232189Y0003380202D01*
X0001267810Y0003417697D02*
X0001267810Y0003395200D01*
X0001267810Y0003406449D02*
X0001228440Y0003406449D01*
X0001234064Y0003402699D01*
X0001237814Y0003398950D01*
X0001239688Y0003395200D01*
X0001245313Y0003440195D02*
X0001243438Y0003436445D01*
X0001241563Y0003434570D01*
X0001237814Y0003432695D01*
X0001235939Y0003432695D01*
X0001232189Y0003434570D01*
X0001230314Y0003436445D01*
X0001228440Y0003440195D01*
X0001228440Y0003447694D01*
X0001230314Y0003451443D01*
X0001232189Y0003453318D01*
X0001235939Y0003455193D01*
X0001237814Y0003455193D01*
X0001241563Y0003453318D01*
X0001243438Y0003451443D01*
X0001245313Y0003447694D01*
X0001245313Y0003440195D01*
X0001247187Y0003436445D01*
X0001249062Y0003434570D01*
X0001252812Y0003432695D01*
X0001260311Y0003432695D01*
X0001264060Y0003434570D01*
X0001265935Y0003436445D01*
X0001267810Y0003440195D01*
X0001267810Y0003447694D01*
X0001265935Y0003451443D01*
X0001264060Y0003453318D01*
X0001260311Y0003455193D01*
X0001252812Y0003455193D01*
X0001249062Y0003453318D01*
X0001247187Y0003451443D01*
X0001245313Y0003447694D01*
G04 #@! TO.C,C19*
X0001214848Y0003380202D02*
X0001216722Y0003378327D01*
X0001218597Y0003372703D01*
X0001218597Y0003368953D01*
X0001216722Y0003363329D01*
X0001212973Y0003359580D01*
X0001209223Y0003357705D01*
X0001201724Y0003355830D01*
X0001196100Y0003355830D01*
X0001188601Y0003357705D01*
X0001184851Y0003359580D01*
X0001181102Y0003363329D01*
X0001179227Y0003368953D01*
X0001179227Y0003372703D01*
X0001181102Y0003378327D01*
X0001182977Y0003380202D01*
X0001218597Y0003417697D02*
X0001218597Y0003395200D01*
X0001218597Y0003406449D02*
X0001179227Y0003406449D01*
X0001184851Y0003402699D01*
X0001188601Y0003398950D01*
X0001190476Y0003395200D01*
X0001218597Y0003436445D02*
X0001218597Y0003443944D01*
X0001216722Y0003447694D01*
X0001214848Y0003449568D01*
X0001209223Y0003453318D01*
X0001201724Y0003455193D01*
X0001186726Y0003455193D01*
X0001182977Y0003453318D01*
X0001181102Y0003451443D01*
X0001179227Y0003447694D01*
X0001179227Y0003440195D01*
X0001181102Y0003436445D01*
X0001182977Y0003434570D01*
X0001186726Y0003432695D01*
X0001196100Y0003432695D01*
X0001199850Y0003434570D01*
X0001201724Y0003436445D01*
X0001203599Y0003440195D01*
X0001203599Y0003447694D01*
X0001201724Y0003451443D01*
X0001199850Y0003453318D01*
X0001196100Y0003455193D01*
G04 #@! TO.C,C20*
X0000706974Y0003163104D02*
X0000705099Y0003161229D01*
X0000699475Y0003159355D01*
X0000695725Y0003159355D01*
X0000690101Y0003161229D01*
X0000686351Y0003164979D01*
X0000684476Y0003168728D01*
X0000682602Y0003176227D01*
X0000682602Y0003181852D01*
X0000684476Y0003189351D01*
X0000686351Y0003193100D01*
X0000690101Y0003196850D01*
X0000695725Y0003198725D01*
X0000699475Y0003198725D01*
X0000705099Y0003196850D01*
X0000706974Y0003194975D01*
X0000721972Y0003194975D02*
X0000723846Y0003196850D01*
X0000727596Y0003198725D01*
X0000736970Y0003198725D01*
X0000740719Y0003196850D01*
X0000742594Y0003194975D01*
X0000744469Y0003191226D01*
X0000744469Y0003187476D01*
X0000742594Y0003181852D01*
X0000720097Y0003159355D01*
X0000744469Y0003159355D01*
X0000768841Y0003198725D02*
X0000772590Y0003198725D01*
X0000776340Y0003196850D01*
X0000778215Y0003194975D01*
X0000780089Y0003191226D01*
X0000781964Y0003183727D01*
X0000781964Y0003174353D01*
X0000780089Y0003166854D01*
X0000778215Y0003163104D01*
X0000776340Y0003161229D01*
X0000772590Y0003159355D01*
X0000768841Y0003159355D01*
X0000765091Y0003161229D01*
X0000763217Y0003163104D01*
X0000761342Y0003166854D01*
X0000759467Y0003174353D01*
X0000759467Y0003183727D01*
X0000761342Y0003191226D01*
X0000763217Y0003194975D01*
X0000765091Y0003196850D01*
X0000768841Y0003198725D01*
G04 #@! TO.C,C21*
X0001362485Y0003330989D02*
X0001364360Y0003329115D01*
X0001366235Y0003323490D01*
X0001366235Y0003319741D01*
X0001364360Y0003314117D01*
X0001360611Y0003310367D01*
X0001356861Y0003308492D01*
X0001349362Y0003306617D01*
X0001343738Y0003306617D01*
X0001336239Y0003308492D01*
X0001332489Y0003310367D01*
X0001328740Y0003314117D01*
X0001326865Y0003319741D01*
X0001326865Y0003323490D01*
X0001328740Y0003329115D01*
X0001330614Y0003330989D01*
X0001330614Y0003345988D02*
X0001328740Y0003347862D01*
X0001326865Y0003351612D01*
X0001326865Y0003360986D01*
X0001328740Y0003364735D01*
X0001330614Y0003366610D01*
X0001334364Y0003368485D01*
X0001338113Y0003368485D01*
X0001343738Y0003366610D01*
X0001366235Y0003344113D01*
X0001366235Y0003368485D01*
X0001366235Y0003405980D02*
X0001366235Y0003383483D01*
X0001366235Y0003394731D02*
X0001326865Y0003394731D01*
X0001332489Y0003390982D01*
X0001336239Y0003387232D01*
X0001338113Y0003383483D01*
G04 #@! TO.C,C22*
X0001313273Y0003330989D02*
X0001315148Y0003329115D01*
X0001317022Y0003323490D01*
X0001317022Y0003319741D01*
X0001315148Y0003314117D01*
X0001311398Y0003310367D01*
X0001307649Y0003308492D01*
X0001300149Y0003306617D01*
X0001294525Y0003306617D01*
X0001287026Y0003308492D01*
X0001283277Y0003310367D01*
X0001279527Y0003314117D01*
X0001277652Y0003319741D01*
X0001277652Y0003323490D01*
X0001279527Y0003329115D01*
X0001281402Y0003330989D01*
X0001281402Y0003345988D02*
X0001279527Y0003347862D01*
X0001277652Y0003351612D01*
X0001277652Y0003360986D01*
X0001279527Y0003364735D01*
X0001281402Y0003366610D01*
X0001285151Y0003368485D01*
X0001288901Y0003368485D01*
X0001294525Y0003366610D01*
X0001317022Y0003344113D01*
X0001317022Y0003368485D01*
X0001281402Y0003383483D02*
X0001279527Y0003385358D01*
X0001277652Y0003389107D01*
X0001277652Y0003398481D01*
X0001279527Y0003402230D01*
X0001281402Y0003404105D01*
X0001285151Y0003405980D01*
X0001288901Y0003405980D01*
X0001294525Y0003404105D01*
X0001317022Y0003381608D01*
X0001317022Y0003405980D01*
G04 #@! TO.C,C23*
X0000574100Y0003096175D02*
X0000572225Y0003094300D01*
X0000566601Y0003092425D01*
X0000562851Y0003092425D01*
X0000557227Y0003094300D01*
X0000553477Y0003098050D01*
X0000551602Y0003101799D01*
X0000549728Y0003109298D01*
X0000549728Y0003114923D01*
X0000551602Y0003122422D01*
X0000553477Y0003126171D01*
X0000557227Y0003129921D01*
X0000562851Y0003131796D01*
X0000566601Y0003131796D01*
X0000572225Y0003129921D01*
X0000574100Y0003128046D01*
X0000589098Y0003128046D02*
X0000590972Y0003129921D01*
X0000594722Y0003131796D01*
X0000604096Y0003131796D01*
X0000607845Y0003129921D01*
X0000609720Y0003128046D01*
X0000611595Y0003124296D01*
X0000611595Y0003120547D01*
X0000609720Y0003114923D01*
X0000587223Y0003092425D01*
X0000611595Y0003092425D01*
X0000624718Y0003131796D02*
X0000649090Y0003131796D01*
X0000635967Y0003116797D01*
X0000641591Y0003116797D01*
X0000645341Y0003114923D01*
X0000647215Y0003113048D01*
X0000649090Y0003109298D01*
X0000649090Y0003099925D01*
X0000647215Y0003096175D01*
X0000645341Y0003094300D01*
X0000641591Y0003092425D01*
X0000630343Y0003092425D01*
X0000626593Y0003094300D01*
X0000624718Y0003096175D01*
G04 #@! TO.C,C24*
X0001187289Y0002667604D02*
X0001189163Y0002665729D01*
X0001191038Y0002660105D01*
X0001191038Y0002656355D01*
X0001189163Y0002650731D01*
X0001185414Y0002646981D01*
X0001181664Y0002645106D01*
X0001174165Y0002643232D01*
X0001168541Y0002643232D01*
X0001161042Y0002645106D01*
X0001157292Y0002646981D01*
X0001153543Y0002650731D01*
X0001151668Y0002656355D01*
X0001151668Y0002660105D01*
X0001153543Y0002665729D01*
X0001155418Y0002667604D01*
X0001155418Y0002682602D02*
X0001153543Y0002684476D01*
X0001151668Y0002688226D01*
X0001151668Y0002697600D01*
X0001153543Y0002701349D01*
X0001155418Y0002703224D01*
X0001159167Y0002705099D01*
X0001162917Y0002705099D01*
X0001168541Y0002703224D01*
X0001191038Y0002680727D01*
X0001191038Y0002705099D01*
X0001164791Y0002738845D02*
X0001191038Y0002738845D01*
X0001149793Y0002729471D02*
X0001177915Y0002720097D01*
X0001177915Y0002744469D01*
G04 #@! TO.C,C25*
X0001235714Y0002667604D02*
X0001237588Y0002665729D01*
X0001239463Y0002660105D01*
X0001239463Y0002656355D01*
X0001237588Y0002650731D01*
X0001233839Y0002646981D01*
X0001230089Y0002645106D01*
X0001222590Y0002643232D01*
X0001216966Y0002643232D01*
X0001209467Y0002645106D01*
X0001205717Y0002646981D01*
X0001201968Y0002650731D01*
X0001200093Y0002656355D01*
X0001200093Y0002660105D01*
X0001201968Y0002665729D01*
X0001203843Y0002667604D01*
X0001203843Y0002682602D02*
X0001201968Y0002684476D01*
X0001200093Y0002688226D01*
X0001200093Y0002697600D01*
X0001201968Y0002701349D01*
X0001203843Y0002703224D01*
X0001207592Y0002705099D01*
X0001211342Y0002705099D01*
X0001216966Y0002703224D01*
X0001239463Y0002680727D01*
X0001239463Y0002705099D01*
X0001200093Y0002740719D02*
X0001200093Y0002721972D01*
X0001218841Y0002720097D01*
X0001216966Y0002721972D01*
X0001215091Y0002725721D01*
X0001215091Y0002735095D01*
X0001216966Y0002738845D01*
X0001218841Y0002740719D01*
X0001222590Y0002742594D01*
X0001231964Y0002742594D01*
X0001235714Y0002740719D01*
X0001237588Y0002738845D01*
X0001239463Y0002735095D01*
X0001239463Y0002725721D01*
X0001237588Y0002721972D01*
X0001235714Y0002720097D01*
G04 #@! TO.C,C26*
X0001116422Y0003468785D02*
X0001118297Y0003466910D01*
X0001120172Y0003461286D01*
X0001120172Y0003457536D01*
X0001118297Y0003451912D01*
X0001114548Y0003448162D01*
X0001110798Y0003446287D01*
X0001103299Y0003444413D01*
X0001097675Y0003444413D01*
X0001090176Y0003446287D01*
X0001086426Y0003448162D01*
X0001082677Y0003451912D01*
X0001080802Y0003457536D01*
X0001080802Y0003461286D01*
X0001082677Y0003466910D01*
X0001084551Y0003468785D01*
X0001084551Y0003483783D02*
X0001082677Y0003485658D01*
X0001080802Y0003489407D01*
X0001080802Y0003498781D01*
X0001082677Y0003502530D01*
X0001084551Y0003504405D01*
X0001088301Y0003506280D01*
X0001092050Y0003506280D01*
X0001097675Y0003504405D01*
X0001120172Y0003481908D01*
X0001120172Y0003506280D01*
X0001080802Y0003540026D02*
X0001080802Y0003532527D01*
X0001082677Y0003528777D01*
X0001084551Y0003526902D01*
X0001090176Y0003523153D01*
X0001097675Y0003521278D01*
X0001112673Y0003521278D01*
X0001116422Y0003523153D01*
X0001118297Y0003525028D01*
X0001120172Y0003528777D01*
X0001120172Y0003536276D01*
X0001118297Y0003540026D01*
X0001116422Y0003541901D01*
X0001112673Y0003543775D01*
X0001103299Y0003543775D01*
X0001099550Y0003541901D01*
X0001097675Y0003540026D01*
X0001095800Y0003536276D01*
X0001095800Y0003528777D01*
X0001097675Y0003525028D01*
X0001099550Y0003523153D01*
X0001103299Y0003521278D01*
G04 #@! TO.C,C27*
X0001451068Y0003302868D02*
X0001449193Y0003300993D01*
X0001443569Y0003299118D01*
X0001439819Y0003299118D01*
X0001434195Y0003300993D01*
X0001430446Y0003304743D01*
X0001428571Y0003308492D01*
X0001426696Y0003315991D01*
X0001426696Y0003321616D01*
X0001428571Y0003329115D01*
X0001430446Y0003332864D01*
X0001434195Y0003336614D01*
X0001439819Y0003338488D01*
X0001443569Y0003338488D01*
X0001449193Y0003336614D01*
X0001451068Y0003334739D01*
X0001466066Y0003334739D02*
X0001467941Y0003336614D01*
X0001471690Y0003338488D01*
X0001481064Y0003338488D01*
X0001484814Y0003336614D01*
X0001486689Y0003334739D01*
X0001488563Y0003330989D01*
X0001488563Y0003327240D01*
X0001486689Y0003321616D01*
X0001464191Y0003299118D01*
X0001488563Y0003299118D01*
X0001501687Y0003338488D02*
X0001527933Y0003338488D01*
X0001511061Y0003299118D01*
G04 #@! TO.C,C28*
X0001462879Y0002686726D02*
X0001461004Y0002684851D01*
X0001455380Y0002682977D01*
X0001451630Y0002682977D01*
X0001446006Y0002684851D01*
X0001442257Y0002688601D01*
X0001440382Y0002692350D01*
X0001438507Y0002699850D01*
X0001438507Y0002705474D01*
X0001440382Y0002712973D01*
X0001442257Y0002716722D01*
X0001446006Y0002720472D01*
X0001451630Y0002722347D01*
X0001455380Y0002722347D01*
X0001461004Y0002720472D01*
X0001462879Y0002718597D01*
X0001477877Y0002718597D02*
X0001479752Y0002720472D01*
X0001483502Y0002722347D01*
X0001492875Y0002722347D01*
X0001496625Y0002720472D01*
X0001498500Y0002718597D01*
X0001500374Y0002714848D01*
X0001500374Y0002711098D01*
X0001498500Y0002705474D01*
X0001476002Y0002682977D01*
X0001500374Y0002682977D01*
X0001522872Y0002705474D02*
X0001519122Y0002707349D01*
X0001517247Y0002709223D01*
X0001515373Y0002712973D01*
X0001515373Y0002714848D01*
X0001517247Y0002718597D01*
X0001519122Y0002720472D01*
X0001522872Y0002722347D01*
X0001530371Y0002722347D01*
X0001534120Y0002720472D01*
X0001535995Y0002718597D01*
X0001537870Y0002714848D01*
X0001537870Y0002712973D01*
X0001535995Y0002709223D01*
X0001534120Y0002707349D01*
X0001530371Y0002705474D01*
X0001522872Y0002705474D01*
X0001519122Y0002703599D01*
X0001517247Y0002701724D01*
X0001515373Y0002697975D01*
X0001515373Y0002690476D01*
X0001517247Y0002686726D01*
X0001519122Y0002684851D01*
X0001522872Y0002682977D01*
X0001530371Y0002682977D01*
X0001534120Y0002684851D01*
X0001535995Y0002686726D01*
X0001537870Y0002690476D01*
X0001537870Y0002697975D01*
X0001535995Y0002701724D01*
X0001534120Y0002703599D01*
X0001530371Y0002705474D01*
G04 #@! TO.C,C29*
X0001360517Y0002765466D02*
X0001358642Y0002763592D01*
X0001353018Y0002761717D01*
X0001349268Y0002761717D01*
X0001343644Y0002763592D01*
X0001339895Y0002767341D01*
X0001338020Y0002771091D01*
X0001336145Y0002778590D01*
X0001336145Y0002784214D01*
X0001338020Y0002791713D01*
X0001339895Y0002795463D01*
X0001343644Y0002799212D01*
X0001349268Y0002801087D01*
X0001353018Y0002801087D01*
X0001358642Y0002799212D01*
X0001360517Y0002797337D01*
X0001375515Y0002797337D02*
X0001377390Y0002799212D01*
X0001381139Y0002801087D01*
X0001390513Y0002801087D01*
X0001394263Y0002799212D01*
X0001396137Y0002797337D01*
X0001398012Y0002793588D01*
X0001398012Y0002789838D01*
X0001396137Y0002784214D01*
X0001373640Y0002761717D01*
X0001398012Y0002761717D01*
X0001416760Y0002761717D02*
X0001424259Y0002761717D01*
X0001428008Y0002763592D01*
X0001429883Y0002765466D01*
X0001433633Y0002771091D01*
X0001435508Y0002778590D01*
X0001435508Y0002793588D01*
X0001433633Y0002797337D01*
X0001431758Y0002799212D01*
X0001428008Y0002801087D01*
X0001420509Y0002801087D01*
X0001416760Y0002799212D01*
X0001414885Y0002797337D01*
X0001413010Y0002793588D01*
X0001413010Y0002784214D01*
X0001414885Y0002780464D01*
X0001416760Y0002778590D01*
X0001420509Y0002776715D01*
X0001428008Y0002776715D01*
X0001431758Y0002778590D01*
X0001433633Y0002780464D01*
X0001435508Y0002784214D01*
G04 #@! TO.C,J1*
X0000288057Y0003344788D02*
X0000288057Y0003316666D01*
X0000286182Y0003311042D01*
X0000282433Y0003307292D01*
X0000276809Y0003305418D01*
X0000273059Y0003305418D01*
X0000327427Y0003305418D02*
X0000304930Y0003305418D01*
X0000316179Y0003305418D02*
X0000316179Y0003344788D01*
X0000312429Y0003339163D01*
X0000308680Y0003335414D01*
X0000304930Y0003333539D01*
G04 #@! TO.C,R1*
X0001120172Y0003379265D02*
X0001101424Y0003366141D01*
X0001120172Y0003356767D02*
X0001080802Y0003356767D01*
X0001080802Y0003371766D01*
X0001082677Y0003375515D01*
X0001084551Y0003377390D01*
X0001088301Y0003379265D01*
X0001093925Y0003379265D01*
X0001097675Y0003377390D01*
X0001099550Y0003375515D01*
X0001101424Y0003371766D01*
X0001101424Y0003356767D01*
X0001120172Y0003416760D02*
X0001120172Y0003394263D01*
X0001120172Y0003405511D02*
X0001080802Y0003405511D01*
X0001086426Y0003401762D01*
X0001090176Y0003398012D01*
X0001092050Y0003394263D01*
G04 #@! TO.C,R2*
X0001450131Y0003348331D02*
X0001437007Y0003367079D01*
X0001427634Y0003348331D02*
X0001427634Y0003387701D01*
X0001442632Y0003387701D01*
X0001446381Y0003385826D01*
X0001448256Y0003383952D01*
X0001450131Y0003380202D01*
X0001450131Y0003374578D01*
X0001448256Y0003370828D01*
X0001446381Y0003368953D01*
X0001442632Y0003367079D01*
X0001427634Y0003367079D01*
X0001465129Y0003383952D02*
X0001467004Y0003385826D01*
X0001470753Y0003387701D01*
X0001480127Y0003387701D01*
X0001483877Y0003385826D01*
X0001485751Y0003383952D01*
X0001487626Y0003380202D01*
X0001487626Y0003376452D01*
X0001485751Y0003370828D01*
X0001463254Y0003348331D01*
X0001487626Y0003348331D01*
G04 #@! TO.C,R3*
X0001450131Y0003397544D02*
X0001437007Y0003416291D01*
X0001427634Y0003397544D02*
X0001427634Y0003436914D01*
X0001442632Y0003436914D01*
X0001446381Y0003435039D01*
X0001448256Y0003433164D01*
X0001450131Y0003429415D01*
X0001450131Y0003423790D01*
X0001448256Y0003420041D01*
X0001446381Y0003418166D01*
X0001442632Y0003416291D01*
X0001427634Y0003416291D01*
X0001463254Y0003436914D02*
X0001487626Y0003436914D01*
X0001474503Y0003421916D01*
X0001480127Y0003421916D01*
X0001483877Y0003420041D01*
X0001485751Y0003418166D01*
X0001487626Y0003414416D01*
X0001487626Y0003405043D01*
X0001485751Y0003401293D01*
X0001483877Y0003399418D01*
X0001480127Y0003397544D01*
X0001468878Y0003397544D01*
X0001465129Y0003399418D01*
X0001463254Y0003401293D01*
G04 #@! TO.C,R4*
X0001245406Y0002588488D02*
X0001232283Y0002607236D01*
X0001222909Y0002588488D02*
X0001222909Y0002627859D01*
X0001237907Y0002627859D01*
X0001241657Y0002625984D01*
X0001243532Y0002624109D01*
X0001245406Y0002620359D01*
X0001245406Y0002614735D01*
X0001243532Y0002610986D01*
X0001241657Y0002609111D01*
X0001237907Y0002607236D01*
X0001222909Y0002607236D01*
X0001279152Y0002614735D02*
X0001279152Y0002588488D01*
X0001269778Y0002629733D02*
X0001260404Y0002601612D01*
X0001284776Y0002601612D01*
G04 #@! TO.C,R5*
X0001140091Y0002588488D02*
X0001126968Y0002607236D01*
X0001117594Y0002588488D02*
X0001117594Y0002627859D01*
X0001132592Y0002627859D01*
X0001136342Y0002625984D01*
X0001138217Y0002624109D01*
X0001140091Y0002620359D01*
X0001140091Y0002614735D01*
X0001138217Y0002610986D01*
X0001136342Y0002609111D01*
X0001132592Y0002607236D01*
X0001117594Y0002607236D01*
X0001175712Y0002627859D02*
X0001156964Y0002627859D01*
X0001155089Y0002609111D01*
X0001156964Y0002610986D01*
X0001160714Y0002612860D01*
X0001170088Y0002612860D01*
X0001173837Y0002610986D01*
X0001175712Y0002609111D01*
X0001177587Y0002605361D01*
X0001177587Y0002595988D01*
X0001175712Y0002592238D01*
X0001173837Y0002590363D01*
X0001170088Y0002588488D01*
X0001160714Y0002588488D01*
X0001156964Y0002590363D01*
X0001155089Y0002592238D01*
G04 #@! TO.C,R6*
X0001169385Y0003468832D02*
X0001150637Y0003455708D01*
X0001169385Y0003446334D02*
X0001130014Y0003446334D01*
X0001130014Y0003461332D01*
X0001131889Y0003465082D01*
X0001133764Y0003466957D01*
X0001137514Y0003468832D01*
X0001143138Y0003468832D01*
X0001146887Y0003466957D01*
X0001148762Y0003465082D01*
X0001150637Y0003461332D01*
X0001150637Y0003446334D01*
X0001130014Y0003502577D02*
X0001130014Y0003495078D01*
X0001131889Y0003491329D01*
X0001133764Y0003489454D01*
X0001139388Y0003485704D01*
X0001146887Y0003483830D01*
X0001161885Y0003483830D01*
X0001165635Y0003485704D01*
X0001167510Y0003487579D01*
X0001169385Y0003491329D01*
X0001169385Y0003498828D01*
X0001167510Y0003502577D01*
X0001165635Y0003504452D01*
X0001161885Y0003506327D01*
X0001152512Y0003506327D01*
X0001148762Y0003504452D01*
X0001146887Y0003502577D01*
X0001145013Y0003498828D01*
X0001145013Y0003491329D01*
X0001146887Y0003487579D01*
X0001148762Y0003485704D01*
X0001152512Y0003483830D01*
G04 #@! TO.C,R7*
X0001568241Y0003328646D02*
X0001555118Y0003347394D01*
X0001545744Y0003328646D02*
X0001545744Y0003368016D01*
X0001560742Y0003368016D01*
X0001564491Y0003366141D01*
X0001566366Y0003364266D01*
X0001568241Y0003360517D01*
X0001568241Y0003354893D01*
X0001566366Y0003351143D01*
X0001564491Y0003349268D01*
X0001560742Y0003347394D01*
X0001545744Y0003347394D01*
X0001581364Y0003368016D02*
X0001607611Y0003368016D01*
X0001590738Y0003328646D01*
G04 #@! TO.C,R8*
X0001427259Y0002709973D02*
X0001408511Y0002696850D01*
X0001427259Y0002687476D02*
X0001387888Y0002687476D01*
X0001387888Y0002702474D01*
X0001389763Y0002706224D01*
X0001391638Y0002708099D01*
X0001395388Y0002709973D01*
X0001401012Y0002709973D01*
X0001404761Y0002708099D01*
X0001406636Y0002706224D01*
X0001408511Y0002702474D01*
X0001408511Y0002687476D01*
X0001404761Y0002732470D02*
X0001402887Y0002728721D01*
X0001401012Y0002726846D01*
X0001397262Y0002724971D01*
X0001395388Y0002724971D01*
X0001391638Y0002726846D01*
X0001389763Y0002728721D01*
X0001387888Y0002732470D01*
X0001387888Y0002739970D01*
X0001389763Y0002743719D01*
X0001391638Y0002745594D01*
X0001395388Y0002747469D01*
X0001397262Y0002747469D01*
X0001401012Y0002745594D01*
X0001402887Y0002743719D01*
X0001404761Y0002739970D01*
X0001404761Y0002732470D01*
X0001406636Y0002728721D01*
X0001408511Y0002726846D01*
X0001412260Y0002724971D01*
X0001419760Y0002724971D01*
X0001423509Y0002726846D01*
X0001425384Y0002728721D01*
X0001427259Y0002732470D01*
X0001427259Y0002739970D01*
X0001425384Y0002743719D01*
X0001423509Y0002745594D01*
X0001419760Y0002747469D01*
X0001412260Y0002747469D01*
X0001408511Y0002745594D01*
X0001406636Y0002743719D01*
X0001404761Y0002739970D01*
G04 #@! TO.C,U1*
X0000619216Y0002326284D02*
X0000619216Y0002294413D01*
X0000621091Y0002290663D01*
X0000622965Y0002288788D01*
X0000626715Y0002286914D01*
X0000634214Y0002286914D01*
X0000637963Y0002288788D01*
X0000639838Y0002290663D01*
X0000641713Y0002294413D01*
X0000641713Y0002326284D01*
X0000681083Y0002286914D02*
X0000658586Y0002286914D01*
X0000669834Y0002286914D02*
X0000669834Y0002326284D01*
X0000666085Y0002320659D01*
X0000662335Y0002316910D01*
X0000658586Y0002315035D01*
G04 #@! TO.C,U2*
X0000323547Y0003583764D02*
X0000323547Y0003551893D01*
X0000325421Y0003548144D01*
X0000327296Y0003546269D01*
X0000331046Y0003544394D01*
X0000338545Y0003544394D01*
X0000342294Y0003546269D01*
X0000344169Y0003548144D01*
X0000346044Y0003551893D01*
X0000346044Y0003583764D01*
X0000362917Y0003580015D02*
X0000364791Y0003581889D01*
X0000368541Y0003583764D01*
X0000377915Y0003583764D01*
X0000381664Y0003581889D01*
X0000383539Y0003580015D01*
X0000385414Y0003576265D01*
X0000385414Y0003572515D01*
X0000383539Y0003566891D01*
X0000361042Y0003544394D01*
X0000385414Y0003544394D01*
G04 #@! TO.C,U4*
X0000586145Y0003337307D02*
X0000586145Y0003305436D01*
X0000588020Y0003301687D01*
X0000589895Y0003299812D01*
X0000593644Y0003297937D01*
X0000601143Y0003297937D01*
X0000604893Y0003299812D01*
X0000606767Y0003301687D01*
X0000608642Y0003305436D01*
X0000608642Y0003337307D01*
X0000644263Y0003324184D02*
X0000644263Y0003297937D01*
X0000634889Y0003339182D02*
X0000625515Y0003311061D01*
X0000649887Y0003311061D01*
G04 #@! TD*
M02*