%
M48
METRIC,000.000
T01C0.50
%
T01
X051750Y090732
X051750Y089732
X051750Y088732
X051750Y087732
X051750Y086732
X048250Y086755
X048250Y087755
X048250Y088755
X048250Y089755
X048250Y090755
X051750Y066732
X051750Y065732
X051750Y064732
X051750Y063732
X051750Y062732
X048250Y062755
X048250Y063755
X048250Y064755
X048250Y065755
X048250Y066755
X014488Y048250
X013488Y048250
X012488Y048250
X011488Y048250
X011023Y051750
X012023Y051750
X013023Y051750
X014023Y051750
X015023Y051750
X036488Y048250
X035488Y048250
X034488Y048250
X033488Y048250
X033023Y051750
X034023Y051750
X035023Y051750
X036023Y051750
X037023Y051750
X048250Y038755
X048250Y039755
X048250Y040755
X048250Y041755
X048250Y042755
X051750Y042732
X051750Y041732
X051750Y040732
X051750Y039732
X051750Y038732
X048239Y004756
X048250Y005755
X048250Y006755
X048250Y007755
X048250Y008755
X051750Y008732
X051750Y007732
X051750Y006732
X051750Y005732
X051761Y004732
X066488Y048250
X065488Y048250
X064488Y048250
X063488Y048250
X063023Y051750
X064023Y051750
X065023Y051750
X066023Y051750
X067023Y051750
X086488Y048250
X085488Y048250
X084488Y048250
X083488Y048250
X083023Y051750
X084023Y051750
X085023Y051750
X086023Y051750
X087023Y051750
M30