%MOIN*%
%OFA0B0*%
%FSLAX46Y46*%
%IPPOS*%
%LPD*%
%ADD10C,0.0078740157480314977*%
%ADD11C,0.031496062992125991*%
%ADD12C,0.25196850393700793*%
%ADD13C,0.023622047244094488*%
%ADD14C,0.01*%
%ADD25C,0.0078740157480314977*%
%ADD26C,0.023622047244094488*%
%ADD27C,0.25196850393700793*%
%ADD28C,0.031496062992125991*%
%ADD29C,0.017716535433070866*%
%ADD30C,0.01*%
%ADD31C,0.0078740157480314977*%
%ADD32C,0.01968503937007874*%
%ADD33R,0.062992125984251982X0.062992125984251982*%
%ADD34O,0.062992125984251982X0.062992125984251982*%
%ADD35C,0.031496062992125991*%
%ADD36C,0.25196850393700793*%
%ADD37R,0.066929133858267723X0.066929133858267723*%
%ADD38O,0.066929133858267723X0.066929133858267723*%
%ADD39C,0.017716535433070866*%
%ADD40C,0.01*%
%ADD41C,0.0078740157480314977*%
%ADD42C,0.023622047244094488*%
%ADD43C,0.031496062992125991*%
%ADD44C,0.25196850393700793*%
%ADD45R,0.066929133858267723X0.066929133858267723*%
%ADD46O,0.066929133858267723X0.066929133858267723*%
%ADD47C,0.017716535433070866*%
%ADD48C,0.01*%
G01*
D10*
X0000428008Y0000125140D02*
X0000430821Y0000127952D01*
X0000436445Y0000130764D01*
X0000450506Y0000130764D01*
X0000456130Y0000127952D01*
X0000458942Y0000125140D01*
X0000461754Y0000119516D01*
X0000461754Y0000113892D01*
X0000458942Y0000105455D01*
X0000425196Y0000071709D01*
X0000461754Y0000071709D01*
D11*
X0000263663Y0000263663D03*
X0000196850Y0000291338D03*
X0000130037Y0000263663D03*
X0000102362Y0000196850D03*
X0000130037Y0000130037D03*
X0000196850Y0000102362D03*
X0000263663Y0000130037D03*
X0000291338Y0000196850D03*
D12*
X0000196850Y0000196850D03*
D11*
X0001759726Y0000263663D03*
X0001692913Y0000291338D03*
X0001626100Y0000263663D03*
X0001598425Y0000196850D03*
X0001626100Y0000130037D03*
X0001692913Y0000102362D03*
X0001759726Y0000130037D03*
X0001787401Y0000196850D03*
D12*
X0001692913Y0000196850D03*
X0001692913Y0001692913D03*
D11*
X0001787401Y0001692913D03*
X0001759726Y0001626100D03*
X0001692913Y0001598425D03*
X0001626100Y0001626100D03*
X0001598425Y0001692913D03*
X0001626100Y0001759726D03*
X0001692913Y0001787401D03*
X0001759726Y0001759726D03*
D12*
X0000196850Y0001692913D03*
D11*
X0000291338Y0001692913D03*
X0000263663Y0001626100D03*
X0000196850Y0001598425D03*
X0000130037Y0001626100D03*
X0000102362Y0001692913D03*
X0000130037Y0001759726D03*
X0000196850Y0001787401D03*
X0000263663Y0001759726D03*
D13*
X0000015748Y0001511811D03*
X0000015748Y0001259842D03*
X0001874015Y0001259842D03*
X0001874015Y0001511811D03*
X0001842519Y0000673228D03*
X0001814960Y0000673228D03*
X0001787401Y0000673228D03*
X0001759842Y0000673228D03*
X0001732283Y0000673228D03*
X0001787401Y0000421259D03*
X0001814960Y0000421259D03*
X0001759842Y0000421259D03*
X0001842519Y0000421259D03*
X0001732283Y0000421259D03*
X0000646556Y0000047491D03*
X0000646556Y0000102609D03*
X0000646556Y0000157727D03*
X0000646556Y0000075050D03*
X0000646556Y0000130168D03*
X0000899412Y0000047738D03*
X0000899412Y0000075297D03*
X0000899412Y0000102856D03*
X0000899412Y0000130415D03*
X0000899412Y0000157974D03*
X0000070866Y0000673228D03*
X0000098425Y0000673228D03*
X0000043307Y0000673228D03*
X0000125984Y0000673228D03*
X0000015748Y0000673228D03*
X0000043307Y0000421259D03*
X0000098425Y0000421259D03*
X0000015748Y0000421259D03*
X0000125984Y0000421259D03*
X0000070866Y0000421259D03*
X0001177165Y0000448818D03*
X0001177165Y0000507874D03*
X0001177165Y0000566929D03*
X0001177165Y0000389763D03*
X0001177165Y0000330708D03*
X0000893700Y0000389763D03*
X0000751968Y0000326771D03*
X0000771653Y0000346456D03*
X0000791338Y0000366141D03*
X0000811023Y0000385826D03*
X0000866141Y0000389763D03*
X0000921259Y0000389763D03*
X0000948818Y0000389763D03*
X0000976377Y0000389763D03*
X0000838582Y0000389763D03*
X0001874015Y0001090551D03*
X0001791338Y0001090551D03*
X0001818897Y0001090551D03*
X0001846456Y0001090551D03*
X0001763779Y0001090551D03*
X0001763779Y0000838582D03*
X0001874015Y0000838582D03*
X0001846456Y0000838582D03*
X0001818897Y0000838582D03*
X0001791338Y0000838582D03*
X0000015748Y0000838582D03*
X0000125984Y0000838582D03*
X0000098425Y0000838582D03*
X0000070866Y0000838582D03*
X0000043307Y0000838582D03*
X0000015748Y0001090551D03*
X0000070866Y0001090551D03*
X0000043307Y0001090551D03*
X0000098425Y0001090551D03*
X0000125984Y0001090551D03*
X0000153543Y0001090551D03*
X0000153543Y0000673228D03*
X0000153543Y0000421259D03*
X0000899412Y0000019685D03*
X0000646556Y0000019685D03*
X0000153543Y0000838582D03*
X0001736220Y0001090551D03*
X0001736220Y0000838582D03*
X0001736220Y0001511811D03*
X0000153543Y0001259842D03*
X0001736220Y0001259842D03*
X0000153543Y0001511811D03*
X0000125984Y0001259842D03*
X0001846456Y0001511811D03*
X0001791338Y0001511811D03*
X0000125984Y0001511811D03*
X0000043307Y0001259842D03*
X0001763779Y0001259842D03*
X0001846456Y0001259842D03*
X0000098425Y0001511811D03*
X0001818897Y0001511811D03*
X0001818897Y0001259842D03*
X0000043307Y0001511811D03*
X0001791338Y0001259842D03*
X0000098425Y0001259842D03*
X0000070866Y0001511811D03*
X0000070866Y0001259842D03*
X0001763779Y0001511811D03*
X0000181102Y0001425196D03*
X0000236220Y0001425196D03*
X0000208661Y0001425196D03*
X0000263779Y0001425196D03*
X0000291338Y0001425196D03*
X0000318897Y0001425196D03*
X0000484251Y0001425196D03*
X0000456692Y0001425196D03*
X0000374015Y0001425196D03*
X0000346456Y0001425196D03*
X0000429133Y0001425196D03*
X0000401574Y0001425196D03*
X0000566929Y0001425196D03*
X0000539370Y0001425196D03*
X0000511811Y0001425196D03*
X0000649606Y0001425196D03*
X0000622047Y0001425196D03*
X0000594488Y0001425196D03*
X0000787401Y0001425196D03*
X0000980314Y0001425196D03*
X0000870078Y0001425196D03*
X0001062992Y0001425196D03*
X0000759842Y0001425196D03*
X0000677165Y0001425196D03*
X0000842519Y0001425196D03*
X0001090551Y0001425196D03*
X0001118110Y0001425196D03*
X0001035433Y0001425196D03*
X0000814960Y0001425196D03*
X0000952755Y0001425196D03*
X0000732283Y0001425196D03*
X0000704724Y0001425196D03*
X0000925196Y0001425196D03*
X0000897637Y0001425196D03*
X0001007873Y0001425196D03*
X0001366141Y0001425196D03*
X0001559055Y0001425196D03*
X0001173228Y0001425196D03*
X0001255905Y0001425196D03*
X0001448818Y0001425196D03*
X0001200787Y0001425196D03*
X0001421259Y0001425196D03*
X0001311023Y0001425196D03*
X0001145669Y0001425196D03*
X0001393700Y0001425196D03*
X0001476377Y0001425196D03*
X0001283464Y0001425196D03*
X0001586614Y0001425196D03*
X0001531496Y0001425196D03*
X0001503936Y0001425196D03*
X0001228346Y0001425196D03*
X0001338582Y0001425196D03*
X0001669291Y0001425196D03*
X0001641732Y0001425196D03*
X0001614173Y0001425196D03*
X0001696850Y0001425196D03*
X0001283464Y0001346456D03*
X0001531496Y0001346456D03*
X0001503936Y0001346456D03*
X0001228346Y0001346456D03*
X0001338582Y0001346456D03*
X0001586614Y0001346456D03*
X0001421259Y0001346456D03*
X0001200787Y0001346456D03*
X0001311023Y0001346456D03*
X0001393700Y0001346456D03*
X0001476377Y0001346456D03*
X0001559055Y0001346456D03*
X0001448818Y0001346456D03*
X0001145669Y0001346456D03*
X0001255905Y0001346456D03*
X0001366141Y0001346456D03*
X0001173228Y0001346456D03*
X0000897637Y0001346456D03*
X0000318897Y0001346456D03*
X0000511811Y0001346456D03*
X0001090551Y0001346456D03*
X0000401574Y0001346456D03*
X0000704724Y0001346456D03*
X0000594488Y0001346456D03*
X0000291338Y0001346456D03*
X0000208661Y0001346456D03*
X0000374015Y0001346456D03*
X0000622047Y0001346456D03*
X0000787401Y0001346456D03*
X0000980314Y0001346456D03*
X0000732283Y0001346456D03*
X0000952755Y0001346456D03*
X0000842519Y0001346456D03*
X0001641732Y0001346456D03*
X0001614173Y0001346456D03*
X0000677165Y0001346456D03*
X0000925196Y0001346456D03*
X0001007873Y0001346456D03*
X0001696850Y0001346456D03*
X0000649606Y0001346456D03*
X0000814960Y0001346456D03*
X0001118110Y0001346456D03*
X0001062992Y0001346456D03*
X0000566929Y0001346456D03*
X0001669291Y0001346456D03*
X0000346456Y0001346456D03*
X0001035433Y0001346456D03*
X0000484251Y0001346456D03*
X0000759842Y0001346456D03*
X0000870078Y0001346456D03*
X0000263779Y0001346456D03*
X0000236220Y0001346456D03*
X0000456692Y0001346456D03*
X0000429133Y0001346456D03*
X0000539370Y0001346456D03*
X0001527559Y0001007873D03*
X0001582677Y0001007873D03*
X0001307086Y0001007873D03*
X0001224409Y0001007873D03*
X0001334645Y0001007873D03*
X0001279527Y0001007873D03*
X0001196850Y0001007873D03*
X0001389763Y0001007873D03*
X0001555118Y0001007873D03*
X0001444881Y0001007873D03*
X0001472440Y0001007873D03*
X0001141732Y0001007873D03*
X0001251968Y0001007873D03*
X0001362204Y0001007873D03*
X0000893700Y0001007873D03*
X0001417322Y0001007873D03*
X0001499999Y0001007873D03*
X0000314960Y0001007873D03*
X0000507874Y0001007873D03*
X0001086614Y0001007873D03*
X0000397637Y0001007873D03*
X0001169291Y0001007873D03*
X0000783464Y0001007873D03*
X0000700787Y0001007873D03*
X0000590551Y0001007873D03*
X0000204724Y0001007873D03*
X0000287401Y0001007873D03*
X0000618110Y0001007873D03*
X0000976377Y0001007873D03*
X0000728346Y0001007873D03*
X0000838582Y0001007873D03*
X0000370078Y0001007873D03*
X0001637795Y0001007873D03*
X0001610236Y0001007873D03*
X0000673228Y0001007873D03*
X0000921259Y0001007873D03*
X0000948818Y0001007873D03*
X0001003937Y0001007873D03*
X0001692913Y0001007873D03*
X0000562992Y0001007873D03*
X0000342519Y0001007873D03*
X0001031496Y0001007873D03*
X0000755905Y0001007873D03*
X0000866141Y0001007873D03*
X0000259842Y0001007873D03*
X0000645669Y0001007873D03*
X0000480314Y0001007873D03*
X0000811023Y0001007873D03*
X0001114173Y0001007873D03*
X0001059055Y0001007873D03*
X0001665354Y0001007873D03*
X0000535433Y0001007873D03*
X0000425196Y0001007873D03*
X0000232283Y0001007873D03*
X0000452755Y0001007873D03*
X0001003937Y0000925196D03*
X0000618110Y0000925196D03*
X0000370078Y0000925196D03*
X0001086614Y0000925196D03*
X0000811023Y0000925196D03*
X0000838582Y0000925196D03*
X0000700787Y0000925196D03*
X0000535433Y0000925196D03*
X0000452755Y0000925196D03*
X0000590551Y0000925196D03*
X0001665354Y0000925196D03*
X0000673228Y0000925196D03*
X0000507874Y0000925196D03*
X0001637795Y0000925196D03*
X0000783464Y0000925196D03*
X0000232283Y0000925196D03*
X0001692913Y0000925196D03*
X0000397637Y0000925196D03*
X0001114173Y0000925196D03*
X0000921259Y0000925196D03*
X0000342519Y0000925196D03*
X0001610236Y0000925196D03*
X0000204724Y0000925196D03*
X0000728346Y0000925196D03*
X0000755905Y0000925196D03*
X0001059055Y0000925196D03*
X0001169291Y0000925196D03*
X0000645669Y0000925196D03*
X0000480314Y0000925196D03*
X0000866141Y0000925196D03*
X0000425196Y0000925196D03*
X0000562992Y0000925196D03*
X0000259842Y0000925196D03*
X0000948818Y0000925196D03*
X0000287401Y0000925196D03*
X0000976377Y0000925196D03*
X0001031496Y0000925196D03*
X0000314960Y0000925196D03*
X0000893700Y0000925196D03*
X0001417322Y0000925196D03*
X0001499999Y0000925196D03*
X0001472440Y0000925196D03*
X0001141732Y0000925196D03*
X0001251968Y0000925196D03*
X0001362204Y0000925196D03*
X0001279527Y0000925196D03*
X0001224409Y0000925196D03*
X0001389763Y0000925196D03*
X0001555118Y0000925196D03*
X0001334645Y0000925196D03*
X0001582677Y0000925196D03*
X0001444881Y0000925196D03*
X0001307086Y0000925196D03*
X0001527559Y0000925196D03*
X0001196850Y0000925196D03*
X0000350393Y0000586614D03*
X0000708661Y0000586614D03*
X0000405511Y0000586614D03*
X0000543307Y0000586614D03*
X0000295275Y0000586614D03*
X0000763779Y0000586614D03*
X0000212598Y0000586614D03*
X0000929133Y0000586614D03*
X0001618110Y0000586614D03*
X0000240157Y0000586614D03*
X0001397637Y0000586614D03*
X0000984251Y0000586614D03*
X0000322834Y0000586614D03*
X0000736220Y0000586614D03*
X0001370078Y0000586614D03*
X0000653543Y0000586614D03*
X0000488188Y0000586614D03*
X0001425196Y0000586614D03*
X0000791338Y0000586614D03*
X0000433070Y0000586614D03*
X0001535433Y0000586614D03*
X0000267716Y0000586614D03*
X0000460629Y0000586614D03*
X0001673228Y0000586614D03*
X0000681102Y0000586614D03*
X0000625984Y0000586614D03*
X0000598425Y0000586614D03*
X0000515747Y0000586614D03*
X0000846456Y0000586614D03*
X0001452755Y0000586614D03*
X0000874015Y0000586614D03*
X0000901574Y0000586614D03*
X0001590551Y0000586614D03*
X0000570866Y0000586614D03*
X0001562992Y0000586614D03*
X0001507874Y0000586614D03*
X0000818897Y0000586614D03*
X0000185039Y0000586614D03*
X0000377952Y0000586614D03*
X0000956692Y0000586614D03*
X0001480314Y0000586614D03*
X0001645669Y0000586614D03*
X0000181102Y0001346456D03*
X0000177165Y0000925196D03*
X0000177165Y0001007873D03*
X0001700787Y0000586614D03*
X0001425196Y0000503936D03*
X0001535433Y0000503936D03*
X0001480314Y0000503936D03*
X0001562992Y0000503936D03*
X0001673228Y0000503936D03*
X0001645669Y0000503936D03*
X0001452755Y0000503936D03*
X0001507874Y0000503936D03*
X0001590551Y0000503936D03*
X0001397637Y0000503936D03*
X0001370078Y0000503936D03*
X0001618110Y0000503936D03*
X0001700787Y0000503936D03*
X0000795275Y0000503936D03*
X0000933070Y0000503936D03*
X0000822834Y0000503936D03*
X0000905511Y0000503936D03*
X0000712598Y0000503936D03*
X0000740157Y0000503936D03*
X0000960629Y0000503936D03*
X0000850393Y0000503936D03*
X0000877952Y0000503936D03*
X0000657480Y0000503936D03*
X0000767716Y0000503936D03*
X0000988188Y0000503936D03*
X0000685039Y0000503936D03*
X0000326771Y0000503936D03*
X0000299212Y0000503936D03*
X0000409448Y0000503936D03*
X0000492125Y0000503936D03*
X0000519685Y0000503936D03*
X0000547244Y0000503936D03*
X0000464566Y0000503936D03*
X0000437007Y0000503936D03*
X0000381889Y0000503936D03*
X0000602362Y0000503936D03*
X0000574803Y0000503936D03*
X0000354330Y0000503936D03*
X0000629921Y0000503936D03*
X0000271653Y0000503936D03*
X0000188976Y0000503936D03*
X0000244094Y0000503936D03*
X0000216535Y0000503936D03*
X0000732283Y0000307086D03*
X0000732283Y0000279527D03*
X0000732283Y0000224409D03*
X0000732283Y0000196850D03*
X0000732283Y0000251968D03*
X0000830708Y0000287401D03*
X0000850393Y0000307086D03*
X0000811023Y0000240157D03*
X0000811023Y0000212598D03*
X0000811023Y0000185039D03*
X0000811023Y0000267716D03*
X0000933070Y0000307086D03*
X0000905511Y0000307086D03*
X0000960629Y0000307086D03*
X0000877952Y0000307086D03*
X0000988188Y0000307086D03*
X0001870078Y0000673228D03*
X0001870078Y0000421259D03*
D14*
G36*
X0001722683Y0001858371D02*
X0001751513Y0001850484D01*
X0001778490Y0001837616D01*
X0001802762Y0001820175D01*
X0001823563Y0001798711D01*
X0001840233Y0001773903D01*
X0001852247Y0001746535D01*
X0001859277Y0001717251D01*
X0001861141Y0001691863D01*
X0001861141Y0001416417D01*
X0001740157Y0001416417D01*
X0001738244Y0001416036D01*
X0001736621Y0001414952D01*
X0001735538Y0001413330D01*
X0001735157Y0001411417D01*
X0001735157Y0001360236D01*
X0001735538Y0001358322D01*
X0001736621Y0001356700D01*
X0001738244Y0001355616D01*
X0001740157Y0001355236D01*
X0001861141Y0001355236D01*
X0001861141Y0000577834D01*
X0001739963Y0000577834D01*
X0001738049Y0000577454D01*
X0001736427Y0000576370D01*
X0001735343Y0000574748D01*
X0001734963Y0000572834D01*
X0001734963Y0000521653D01*
X0001735343Y0000519740D01*
X0001736427Y0000518117D01*
X0001738049Y0000517034D01*
X0001739963Y0000516653D01*
X0001861141Y0000516653D01*
X0001861141Y0000198125D01*
X0001858370Y0000167079D01*
X0001850484Y0000138250D01*
X0001837616Y0000111273D01*
X0001820175Y0000087000D01*
X0001798711Y0000066200D01*
X0001773903Y0000049530D01*
X0001746535Y0000037516D01*
X0001717251Y0000030486D01*
X0001691863Y0000028622D01*
X0000802244Y0000028622D01*
X0000802244Y0000088940D01*
X0001592074Y0000088940D01*
X0001606521Y0000069435D01*
X0001661857Y0000046073D01*
X0001721920Y0000045665D01*
X0001777568Y0000068274D01*
X0001779305Y0000069435D01*
X0001793752Y0000088940D01*
X0001692913Y0000189779D01*
X0001592074Y0000088940D01*
X0000802244Y0000088940D01*
X0000802244Y0000149881D01*
X0000801863Y0000151794D01*
X0000800779Y0000153416D01*
X0000799157Y0000154500D01*
X0000797244Y0000154881D01*
X0000746062Y0000154881D01*
X0000744149Y0000154500D01*
X0000742527Y0000153416D01*
X0000741443Y0000151794D01*
X0000741062Y0000149881D01*
X0000741062Y0000028622D01*
X0000198125Y0000028622D01*
X0000167079Y0000031392D01*
X0000138250Y0000039279D01*
X0000111273Y0000052147D01*
X0000087000Y0000069588D01*
X0000068247Y0000088940D01*
X0000096011Y0000088940D01*
X0000110458Y0000069435D01*
X0000165794Y0000046073D01*
X0000225857Y0000045665D01*
X0000281505Y0000068274D01*
X0000283242Y0000069435D01*
X0000297689Y0000088940D01*
X0000196850Y0000189779D01*
X0000096011Y0000088940D01*
X0000068247Y0000088940D01*
X0000066200Y0000091052D01*
X0000049530Y0000115860D01*
X0000037516Y0000143228D01*
X0000031607Y0000167842D01*
X0000045665Y0000167842D01*
X0000068274Y0000112195D01*
X0000069435Y0000110458D01*
X0000088940Y0000096011D01*
X0000189779Y0000196850D01*
X0000203921Y0000196850D01*
X0000304760Y0000096011D01*
X0000324265Y0000110458D01*
X0000340793Y0000149606D01*
X0000349330Y0000149606D01*
X0000349330Y0000057086D01*
X0000349711Y0000055173D01*
X0000350795Y0000053551D01*
X0000352417Y0000052467D01*
X0000354330Y0000052086D01*
X0000594488Y0000052086D01*
X0000596401Y0000052467D01*
X0000598023Y0000053551D01*
X0000599107Y0000055173D01*
X0000599488Y0000057086D01*
X0000599488Y0000149606D01*
X0000599107Y0000151519D01*
X0000598023Y0000153141D01*
X0000596401Y0000154225D01*
X0000594488Y0000154606D01*
X0000354330Y0000154606D01*
X0000352417Y0000154225D01*
X0000350795Y0000153141D01*
X0000349711Y0000151519D01*
X0000349330Y0000149606D01*
X0000340793Y0000149606D01*
X0000347627Y0000165794D01*
X0000347641Y0000167842D01*
X0001541728Y0000167842D01*
X0001564337Y0000112195D01*
X0001565498Y0000110458D01*
X0001585003Y0000096011D01*
X0001685842Y0000196850D01*
X0001699984Y0000196850D01*
X0001800823Y0000096011D01*
X0001820328Y0000110458D01*
X0001843690Y0000165794D01*
X0001844097Y0000225857D01*
X0001821488Y0000281505D01*
X0001820328Y0000283242D01*
X0001800823Y0000297689D01*
X0001699984Y0000196850D01*
X0001685842Y0000196850D01*
X0001585003Y0000297689D01*
X0001565498Y0000283242D01*
X0001542136Y0000227906D01*
X0001541728Y0000167842D01*
X0000347641Y0000167842D01*
X0000348034Y0000225857D01*
X0000325425Y0000281505D01*
X0000324265Y0000283242D01*
X0000304760Y0000297689D01*
X0000203921Y0000196850D01*
X0000189779Y0000196850D01*
X0000088940Y0000297689D01*
X0000069435Y0000283242D01*
X0000046073Y0000227906D01*
X0000045665Y0000167842D01*
X0000031607Y0000167842D01*
X0000030486Y0000172511D01*
X0000028622Y0000197900D01*
X0000028622Y0000304760D01*
X0000096011Y0000304760D01*
X0000196850Y0000203921D01*
X0000297689Y0000304760D01*
X0001592074Y0000304760D01*
X0001692913Y0000203921D01*
X0001793752Y0000304760D01*
X0001779305Y0000324265D01*
X0001723969Y0000347627D01*
X0001663905Y0000348034D01*
X0001608257Y0000325425D01*
X0001606521Y0000324265D01*
X0001592074Y0000304760D01*
X0000297689Y0000304760D01*
X0000283242Y0000324265D01*
X0000227906Y0000347627D01*
X0000167842Y0000348034D01*
X0000112195Y0000325425D01*
X0000110458Y0000324265D01*
X0000096011Y0000304760D01*
X0000028622Y0000304760D01*
X0000028622Y0000516653D01*
X0000149369Y0000516653D01*
X0000151282Y0000517034D01*
X0000152904Y0000518117D01*
X0000153988Y0000519740D01*
X0000154369Y0000521653D01*
X0000154369Y0000572834D01*
X0000153988Y0000574748D01*
X0000152904Y0000576370D01*
X0000151282Y0000577454D01*
X0000149369Y0000577834D01*
X0000028622Y0000577834D01*
X0000028622Y0001355236D01*
X0000149606Y0001355236D01*
X0000151519Y0001355616D01*
X0000153141Y0001356700D01*
X0000154225Y0001358322D01*
X0000154606Y0001360236D01*
X0000154606Y0001411417D01*
X0000154225Y0001413330D01*
X0000153141Y0001414952D01*
X0000151519Y0001416036D01*
X0000149606Y0001416417D01*
X0000028622Y0001416417D01*
X0000028622Y0001585003D01*
X0000096011Y0001585003D01*
X0000110458Y0001565498D01*
X0000165794Y0001542136D01*
X0000225857Y0001541728D01*
X0000281505Y0001564337D01*
X0000283242Y0001565498D01*
X0000297689Y0001585003D01*
X0001592074Y0001585003D01*
X0001606521Y0001565498D01*
X0001661857Y0001542136D01*
X0001721920Y0001541728D01*
X0001777568Y0001564337D01*
X0001779305Y0001565498D01*
X0001793752Y0001585003D01*
X0001692913Y0001685842D01*
X0001592074Y0001585003D01*
X0000297689Y0001585003D01*
X0000196850Y0001685842D01*
X0000096011Y0001585003D01*
X0000028622Y0001585003D01*
X0000028622Y0001663905D01*
X0000045665Y0001663905D01*
X0000068274Y0001608258D01*
X0000069435Y0001606521D01*
X0000088940Y0001592074D01*
X0000189779Y0001692913D01*
X0000203921Y0001692913D01*
X0000304760Y0001592074D01*
X0000324265Y0001606521D01*
X0000347627Y0001661857D01*
X0000347641Y0001663905D01*
X0001541728Y0001663905D01*
X0001564337Y0001608258D01*
X0001565498Y0001606521D01*
X0001585003Y0001592074D01*
X0001685842Y0001692913D01*
X0001699984Y0001692913D01*
X0001800823Y0001592074D01*
X0001820328Y0001606521D01*
X0001843690Y0001661857D01*
X0001844097Y0001721920D01*
X0001821488Y0001777568D01*
X0001820328Y0001779305D01*
X0001800823Y0001793752D01*
X0001699984Y0001692913D01*
X0001685842Y0001692913D01*
X0001585003Y0001793752D01*
X0001565498Y0001779305D01*
X0001542136Y0001723969D01*
X0001541728Y0001663905D01*
X0000347641Y0001663905D01*
X0000348034Y0001721920D01*
X0000325425Y0001777568D01*
X0000324265Y0001779305D01*
X0000304760Y0001793752D01*
X0000203921Y0001692913D01*
X0000189779Y0001692913D01*
X0000088940Y0001793752D01*
X0000069435Y0001779305D01*
X0000046073Y0001723969D01*
X0000045665Y0001663905D01*
X0000028622Y0001663905D01*
X0000028622Y0001691638D01*
X0000031392Y0001722683D01*
X0000039279Y0001751513D01*
X0000052146Y0001778490D01*
X0000068194Y0001800823D01*
X0000096011Y0001800823D01*
X0000196850Y0001699984D01*
X0000297689Y0001800823D01*
X0001592074Y0001800823D01*
X0001692913Y0001699984D01*
X0001793752Y0001800823D01*
X0001779305Y0001820328D01*
X0001723969Y0001843690D01*
X0001663905Y0001844097D01*
X0001608257Y0001821488D01*
X0001606521Y0001820328D01*
X0001592074Y0001800823D01*
X0000297689Y0001800823D01*
X0000283242Y0001820328D01*
X0000227906Y0001843690D01*
X0000167842Y0001844097D01*
X0000112195Y0001821488D01*
X0000110458Y0001820328D01*
X0000096011Y0001800823D01*
X0000068194Y0001800823D01*
X0000069588Y0001802762D01*
X0000091052Y0001823563D01*
X0000115860Y0001840233D01*
X0000143228Y0001852247D01*
X0000172511Y0001859277D01*
X0000197900Y0001861141D01*
X0001691638Y0001861141D01*
X0001722683Y0001858371D01*
X0001722683Y0001858371D01*
G37*
X0001722683Y0001858371D02*
X0001751513Y0001850484D01*
X0001778490Y0001837616D01*
X0001802762Y0001820175D01*
X0001823563Y0001798711D01*
X0001840233Y0001773903D01*
X0001852247Y0001746535D01*
X0001859277Y0001717251D01*
X0001861141Y0001691863D01*
X0001861141Y0001416417D01*
X0001740157Y0001416417D01*
X0001738244Y0001416036D01*
X0001736621Y0001414952D01*
X0001735538Y0001413330D01*
X0001735157Y0001411417D01*
X0001735157Y0001360236D01*
X0001735538Y0001358322D01*
X0001736621Y0001356700D01*
X0001738244Y0001355616D01*
X0001740157Y0001355236D01*
X0001861141Y0001355236D01*
X0001861141Y0000577834D01*
X0001739963Y0000577834D01*
X0001738049Y0000577454D01*
X0001736427Y0000576370D01*
X0001735343Y0000574748D01*
X0001734963Y0000572834D01*
X0001734963Y0000521653D01*
X0001735343Y0000519740D01*
X0001736427Y0000518117D01*
X0001738049Y0000517034D01*
X0001739963Y0000516653D01*
X0001861141Y0000516653D01*
X0001861141Y0000198125D01*
X0001858370Y0000167079D01*
X0001850484Y0000138250D01*
X0001837616Y0000111273D01*
X0001820175Y0000087000D01*
X0001798711Y0000066200D01*
X0001773903Y0000049530D01*
X0001746535Y0000037516D01*
X0001717251Y0000030486D01*
X0001691863Y0000028622D01*
X0000802244Y0000028622D01*
X0000802244Y0000088940D01*
X0001592074Y0000088940D01*
X0001606521Y0000069435D01*
X0001661857Y0000046073D01*
X0001721920Y0000045665D01*
X0001777568Y0000068274D01*
X0001779305Y0000069435D01*
X0001793752Y0000088940D01*
X0001692913Y0000189779D01*
X0001592074Y0000088940D01*
X0000802244Y0000088940D01*
X0000802244Y0000149881D01*
X0000801863Y0000151794D01*
X0000800779Y0000153416D01*
X0000799157Y0000154500D01*
X0000797244Y0000154881D01*
X0000746062Y0000154881D01*
X0000744149Y0000154500D01*
X0000742527Y0000153416D01*
X0000741443Y0000151794D01*
X0000741062Y0000149881D01*
X0000741062Y0000028622D01*
X0000198125Y0000028622D01*
X0000167079Y0000031392D01*
X0000138250Y0000039279D01*
X0000111273Y0000052147D01*
X0000087000Y0000069588D01*
X0000068247Y0000088940D01*
X0000096011Y0000088940D01*
X0000110458Y0000069435D01*
X0000165794Y0000046073D01*
X0000225857Y0000045665D01*
X0000281505Y0000068274D01*
X0000283242Y0000069435D01*
X0000297689Y0000088940D01*
X0000196850Y0000189779D01*
X0000096011Y0000088940D01*
X0000068247Y0000088940D01*
X0000066200Y0000091052D01*
X0000049530Y0000115860D01*
X0000037516Y0000143228D01*
X0000031607Y0000167842D01*
X0000045665Y0000167842D01*
X0000068274Y0000112195D01*
X0000069435Y0000110458D01*
X0000088940Y0000096011D01*
X0000189779Y0000196850D01*
X0000203921Y0000196850D01*
X0000304760Y0000096011D01*
X0000324265Y0000110458D01*
X0000340793Y0000149606D01*
X0000349330Y0000149606D01*
X0000349330Y0000057086D01*
X0000349711Y0000055173D01*
X0000350795Y0000053551D01*
X0000352417Y0000052467D01*
X0000354330Y0000052086D01*
X0000594488Y0000052086D01*
X0000596401Y0000052467D01*
X0000598023Y0000053551D01*
X0000599107Y0000055173D01*
X0000599488Y0000057086D01*
X0000599488Y0000149606D01*
X0000599107Y0000151519D01*
X0000598023Y0000153141D01*
X0000596401Y0000154225D01*
X0000594488Y0000154606D01*
X0000354330Y0000154606D01*
X0000352417Y0000154225D01*
X0000350795Y0000153141D01*
X0000349711Y0000151519D01*
X0000349330Y0000149606D01*
X0000340793Y0000149606D01*
X0000347627Y0000165794D01*
X0000347641Y0000167842D01*
X0001541728Y0000167842D01*
X0001564337Y0000112195D01*
X0001565498Y0000110458D01*
X0001585003Y0000096011D01*
X0001685842Y0000196850D01*
X0001699984Y0000196850D01*
X0001800823Y0000096011D01*
X0001820328Y0000110458D01*
X0001843690Y0000165794D01*
X0001844097Y0000225857D01*
X0001821488Y0000281505D01*
X0001820328Y0000283242D01*
X0001800823Y0000297689D01*
X0001699984Y0000196850D01*
X0001685842Y0000196850D01*
X0001585003Y0000297689D01*
X0001565498Y0000283242D01*
X0001542136Y0000227906D01*
X0001541728Y0000167842D01*
X0000347641Y0000167842D01*
X0000348034Y0000225857D01*
X0000325425Y0000281505D01*
X0000324265Y0000283242D01*
X0000304760Y0000297689D01*
X0000203921Y0000196850D01*
X0000189779Y0000196850D01*
X0000088940Y0000297689D01*
X0000069435Y0000283242D01*
X0000046073Y0000227906D01*
X0000045665Y0000167842D01*
X0000031607Y0000167842D01*
X0000030486Y0000172511D01*
X0000028622Y0000197900D01*
X0000028622Y0000304760D01*
X0000096011Y0000304760D01*
X0000196850Y0000203921D01*
X0000297689Y0000304760D01*
X0001592074Y0000304760D01*
X0001692913Y0000203921D01*
X0001793752Y0000304760D01*
X0001779305Y0000324265D01*
X0001723969Y0000347627D01*
X0001663905Y0000348034D01*
X0001608257Y0000325425D01*
X0001606521Y0000324265D01*
X0001592074Y0000304760D01*
X0000297689Y0000304760D01*
X0000283242Y0000324265D01*
X0000227906Y0000347627D01*
X0000167842Y0000348034D01*
X0000112195Y0000325425D01*
X0000110458Y0000324265D01*
X0000096011Y0000304760D01*
X0000028622Y0000304760D01*
X0000028622Y0000516653D01*
X0000149369Y0000516653D01*
X0000151282Y0000517034D01*
X0000152904Y0000518117D01*
X0000153988Y0000519740D01*
X0000154369Y0000521653D01*
X0000154369Y0000572834D01*
X0000153988Y0000574748D01*
X0000152904Y0000576370D01*
X0000151282Y0000577454D01*
X0000149369Y0000577834D01*
X0000028622Y0000577834D01*
X0000028622Y0001355236D01*
X0000149606Y0001355236D01*
X0000151519Y0001355616D01*
X0000153141Y0001356700D01*
X0000154225Y0001358322D01*
X0000154606Y0001360236D01*
X0000154606Y0001411417D01*
X0000154225Y0001413330D01*
X0000153141Y0001414952D01*
X0000151519Y0001416036D01*
X0000149606Y0001416417D01*
X0000028622Y0001416417D01*
X0000028622Y0001585003D01*
X0000096011Y0001585003D01*
X0000110458Y0001565498D01*
X0000165794Y0001542136D01*
X0000225857Y0001541728D01*
X0000281505Y0001564337D01*
X0000283242Y0001565498D01*
X0000297689Y0001585003D01*
X0001592074Y0001585003D01*
X0001606521Y0001565498D01*
X0001661857Y0001542136D01*
X0001721920Y0001541728D01*
X0001777568Y0001564337D01*
X0001779305Y0001565498D01*
X0001793752Y0001585003D01*
X0001692913Y0001685842D01*
X0001592074Y0001585003D01*
X0000297689Y0001585003D01*
X0000196850Y0001685842D01*
X0000096011Y0001585003D01*
X0000028622Y0001585003D01*
X0000028622Y0001663905D01*
X0000045665Y0001663905D01*
X0000068274Y0001608258D01*
X0000069435Y0001606521D01*
X0000088940Y0001592074D01*
X0000189779Y0001692913D01*
X0000203921Y0001692913D01*
X0000304760Y0001592074D01*
X0000324265Y0001606521D01*
X0000347627Y0001661857D01*
X0000347641Y0001663905D01*
X0001541728Y0001663905D01*
X0001564337Y0001608258D01*
X0001565498Y0001606521D01*
X0001585003Y0001592074D01*
X0001685842Y0001692913D01*
X0001699984Y0001692913D01*
X0001800823Y0001592074D01*
X0001820328Y0001606521D01*
X0001843690Y0001661857D01*
X0001844097Y0001721920D01*
X0001821488Y0001777568D01*
X0001820328Y0001779305D01*
X0001800823Y0001793752D01*
X0001699984Y0001692913D01*
X0001685842Y0001692913D01*
X0001585003Y0001793752D01*
X0001565498Y0001779305D01*
X0001542136Y0001723969D01*
X0001541728Y0001663905D01*
X0000347641Y0001663905D01*
X0000348034Y0001721920D01*
X0000325425Y0001777568D01*
X0000324265Y0001779305D01*
X0000304760Y0001793752D01*
X0000203921Y0001692913D01*
X0000189779Y0001692913D01*
X0000088940Y0001793752D01*
X0000069435Y0001779305D01*
X0000046073Y0001723969D01*
X0000045665Y0001663905D01*
X0000028622Y0001663905D01*
X0000028622Y0001691638D01*
X0000031392Y0001722683D01*
X0000039279Y0001751513D01*
X0000052146Y0001778490D01*
X0000068194Y0001800823D01*
X0000096011Y0001800823D01*
X0000196850Y0001699984D01*
X0000297689Y0001800823D01*
X0001592074Y0001800823D01*
X0001692913Y0001699984D01*
X0001793752Y0001800823D01*
X0001779305Y0001820328D01*
X0001723969Y0001843690D01*
X0001663905Y0001844097D01*
X0001608257Y0001821488D01*
X0001606521Y0001820328D01*
X0001592074Y0001800823D01*
X0000297689Y0001800823D01*
X0000283242Y0001820328D01*
X0000227906Y0001843690D01*
X0000167842Y0001844097D01*
X0000112195Y0001821488D01*
X0000110458Y0001820328D01*
X0000096011Y0001800823D01*
X0000068194Y0001800823D01*
X0000069588Y0001802762D01*
X0000091052Y0001823563D01*
X0000115860Y0001840233D01*
X0000143228Y0001852247D01*
X0000172511Y0001859277D01*
X0000197900Y0001861141D01*
X0001691638Y0001861141D01*
X0001722683Y0001858371D01*
G04 next file*
G04 #@! TF.GenerationSoftware,KiCad,Pcbnew,(5.0.2)-1*
G04 #@! TF.CreationDate,2019-01-06T12:14:53+11:00*
G04 #@! TF.ProjectId,Filter_Bank_Dev_Rev_0,46696c74-6572-45f4-9261-6e6b5f446576,0*
G04 #@! TF.SameCoordinates,Original*
G04 #@! TF.FileFunction,Copper,L2,Inr*
G04 #@! TF.FilePolarity,Positive*
G04 Gerber Fmt 4.6, Leading zero omitted, Abs format (unit mm)*
G04 Created by KiCad (PCBNEW (5.0.2)-1) date 6/01/2019 12:14:53*
G01*
G04 APERTURE LIST*
G04 #@! TA.AperFunction,ViaPad*
G04 #@! TD*
G04 #@! TA.AperFunction,ViaPad*
G04 #@! TD*
G04 #@! TA.AperFunction,ViaPad*
G04 #@! TD*
G04 #@! TA.AperFunction,ViaPad*
G04 #@! TD*
G04 #@! TA.AperFunction,Conductor*
G04 #@! TD*
G04 APERTURE END LIST*
G04 #@! TO.C,REF\002A\002A*
D25*
X0003396512Y0000146794D02*
X0003399325Y0000149606D01*
X0003404949Y0000152418D01*
X0003419010Y0000152418D01*
X0003424634Y0000149606D01*
X0003427446Y0000146794D01*
X0003430258Y0000141169D01*
X0003430258Y0000135545D01*
X0003427446Y0000127109D01*
X0003393700Y0000093363D01*
X0003430258Y0000093363D01*
G04 #@! TD*
D26*
G04 #@! TO.N,GND*
G04 #@! TO.C,U1*
X0002702755Y0001013779D03*
X0002663385Y0001013779D03*
X0002663385Y0000974409D03*
X0002702755Y0000974409D03*
X0002683070Y0000994094D03*
G04 #@! TD*
G04 #@! TO.N,GND*
G04 #@! TO.C,U4*
X0003297244Y0000954724D03*
X0003336614Y0000954724D03*
X0003336614Y0000994094D03*
X0003297244Y0000994094D03*
X0003316929Y0000974409D03*
G04 #@! TD*
G04 #@! TO.N,GND*
G04 #@! TO.C,FL1*
X0003000000Y0000654625D03*
X0003000000Y0000749114D03*
G04 #@! TD*
G04 #@! TO.N,GND*
G04 #@! TO.C,FL2*
X0003000000Y0000809055D03*
X0003000000Y0000903543D03*
G04 #@! TD*
G04 #@! TO.N,GND*
G04 #@! TO.C,FL3*
X0003001968Y0001045275D03*
X0003001968Y0001139763D03*
G04 #@! TD*
G04 #@! TO.N,GND*
G04 #@! TO.C,FL4*
X0003000000Y0001202755D03*
X0003000000Y0001297244D03*
G04 #@! TD*
D27*
G04 #@! TO.N,GND*
G04 #@! TO.C,H1*
X0002244094Y0000196850D03*
D28*
X0002338582Y0000196850D03*
X0002310907Y0000130037D03*
X0002244094Y0000102362D03*
X0002177281Y0000130037D03*
X0002149606Y0000196850D03*
X0002177281Y0000263663D03*
X0002244094Y0000291338D03*
X0002310907Y0000263663D03*
G04 #@! TD*
G04 #@! TO.N,GND*
G04 #@! TO.C,H2*
X0003806970Y0001759726D03*
X0003740157Y0001787401D03*
X0003673344Y0001759726D03*
X0003645669Y0001692913D03*
X0003673344Y0001626100D03*
X0003740157Y0001598425D03*
X0003806970Y0001626100D03*
X0003834645Y0001692913D03*
D27*
X0003740157Y0001692913D03*
G04 #@! TD*
G04 #@! TO.N,GND*
G04 #@! TO.C,H3*
X0002244094Y0001692913D03*
D28*
X0002338582Y0001692913D03*
X0002310907Y0001626100D03*
X0002244094Y0001598425D03*
X0002177281Y0001626100D03*
X0002149606Y0001692913D03*
X0002177281Y0001759726D03*
X0002244094Y0001787401D03*
X0002310907Y0001759726D03*
G04 #@! TD*
G04 #@! TO.N,GND*
G04 #@! TO.C,H4*
X0003806970Y0000263663D03*
X0003740157Y0000291338D03*
X0003673344Y0000263663D03*
X0003645669Y0000196850D03*
X0003673344Y0000130037D03*
X0003740157Y0000102362D03*
X0003806970Y0000130037D03*
X0003834645Y0000196850D03*
D27*
X0003740157Y0000196850D03*
G04 #@! TD*
D29*
G04 #@! TO.N,GND*
X0003114173Y0001744094D03*
X0002870078Y0001744094D03*
X0002838582Y0001834645D03*
X0002948818Y0001834645D03*
X0003039370Y0001834645D03*
X0003149606Y0001830708D03*
X0002196850Y0001114173D03*
X0002177165Y0001114173D03*
X0002157480Y0001114173D03*
X0002137795Y0001114173D03*
X0002118110Y0001114173D03*
X0002098425Y0001114173D03*
X0002078740Y0001114173D03*
X0002059055Y0001114173D03*
D28*
X0003377952Y0001137795D03*
D29*
X0002476377Y0000661417D03*
X0003787401Y0001114173D03*
X0003807086Y0001114173D03*
X0003925196Y0001114173D03*
X0003846456Y0001114173D03*
X0003866141Y0001114173D03*
X0003905511Y0001114173D03*
X0003885826Y0001114173D03*
X0003826771Y0001114173D03*
X0002137795Y0000858267D03*
X0002196850Y0000858267D03*
X0002078740Y0000858267D03*
X0002098425Y0000858267D03*
X0002177165Y0000858267D03*
X0002157480Y0000858267D03*
X0002059055Y0000858267D03*
X0002118110Y0000858267D03*
X0003866141Y0000854330D03*
X0003925196Y0000854330D03*
X0003807086Y0000854330D03*
X0003826771Y0000854330D03*
X0003905511Y0000854330D03*
X0003885826Y0000854330D03*
X0003787401Y0000854330D03*
X0003846456Y0000854330D03*
D28*
X0003807086Y0001200787D03*
X0003854330Y0001480314D03*
D29*
X0003492125Y0001019685D03*
X0003511810Y0001019685D03*
X0003531496Y0001019685D03*
X0003531496Y0001019685D03*
X0003531496Y0001019685D03*
X0003551181Y0001019685D03*
X0003570866Y0001019685D03*
X0003590551Y0001019685D03*
X0003610236Y0001019685D03*
X0003629921Y0001019685D03*
X0003649606Y0001019685D03*
X0003669291Y0001019685D03*
X0003688976Y0001019685D03*
X0003708661Y0001019685D03*
X0003728346Y0001019685D03*
X0003748031Y0001019685D03*
X0003728346Y0001019685D03*
X0003748031Y0001019685D03*
X0003492125Y0000948818D03*
X0003531496Y0000948818D03*
X0003570866Y0000948818D03*
X0003551181Y0000948818D03*
X0003551181Y0000948818D03*
X0003688976Y0000948818D03*
X0003708661Y0000948818D03*
X0003590551Y0000948818D03*
X0003551181Y0000948818D03*
X0003669291Y0000948818D03*
X0003649606Y0000948818D03*
X0003748031Y0000948818D03*
X0003728346Y0000948818D03*
X0003629921Y0000948818D03*
X0003610236Y0000948818D03*
X0003748031Y0000948818D03*
X0002263779Y0000948818D03*
X0002283464Y0000948818D03*
X0002381889Y0000948818D03*
X0002244094Y0000948818D03*
X0002460629Y0000948818D03*
X0002421259Y0000948818D03*
X0002440944Y0000948818D03*
X0002303149Y0000948818D03*
X0002263779Y0000948818D03*
X0002224409Y0000948818D03*
X0002401574Y0000948818D03*
X0002342519Y0000948818D03*
X0002263779Y0000948818D03*
X0002322834Y0000948818D03*
X0002362204Y0000948818D03*
X0002263779Y0001019685D03*
X0002303149Y0001019685D03*
X0002263779Y0001019685D03*
X0002244094Y0001019685D03*
X0002440944Y0001019685D03*
X0002263779Y0001019685D03*
X0002224409Y0001019685D03*
X0002401574Y0001019685D03*
X0002342519Y0001019685D03*
X0002362204Y0001019685D03*
X0002460629Y0001019685D03*
X0002381889Y0001019685D03*
X0002322834Y0001019685D03*
X0002421259Y0001019685D03*
X0002283464Y0001019685D03*
X0003472440Y0001023622D03*
X0003472440Y0000940944D03*
X0002881889Y0001291338D03*
X0002862204Y0001291338D03*
X0002842519Y0001291338D03*
X0002822834Y0001291338D03*
X0002803149Y0001285433D03*
X0002783464Y0001265748D03*
X0002765748Y0001246062D03*
X0002748031Y0001226377D03*
X0002728346Y0001208661D03*
X0002710629Y0001188976D03*
X0002690944Y0001171259D03*
X0002671259Y0001149606D03*
X0002651574Y0001131889D03*
X0002631889Y0001114173D03*
X0002618110Y0001090551D03*
X0002753937Y0001131889D03*
X0002775590Y0001131889D03*
X0002797244Y0001131889D03*
X0002818897Y0001131889D03*
X0002838582Y0001131889D03*
X0002858267Y0001131889D03*
X0002877952Y0001131889D03*
X0002826771Y0001059055D03*
X0002846456Y0001059055D03*
X0002866141Y0001059055D03*
X0002885826Y0001059055D03*
X0002746062Y0000907480D03*
X0002844488Y0000765748D03*
X0002866141Y0000748031D03*
X0003139763Y0000891732D03*
X0003116141Y0000891732D03*
X0003133858Y0000822834D03*
X0003153543Y0000822834D03*
X0003173228Y0000822834D03*
X0003192913Y0000822834D03*
X0003212598Y0000822834D03*
X0003232283Y0000822834D03*
X0003114173Y0000822834D03*
X0003114173Y0000736220D03*
X0003133858Y0000736220D03*
X0003153543Y0000740157D03*
X0003173228Y0000753937D03*
X0003192913Y0000773622D03*
X0003192913Y0000773622D03*
X0003192913Y0000773622D03*
X0003212598Y0000793307D03*
X0002690944Y0000818897D03*
X0002797244Y0000714566D03*
X0002832677Y0000675196D03*
X0002856299Y0000661417D03*
X0002814960Y0000694881D03*
X0002728346Y0000781496D03*
X0002629921Y0000881889D03*
X0002651574Y0000860236D03*
X0002671259Y0000838582D03*
X0003187007Y0001169291D03*
X0003222440Y0001135826D03*
X0003169291Y0001188976D03*
X0003202755Y0001153543D03*
X0003151574Y0001208661D03*
X0003153543Y0000665354D03*
X0003212598Y0000690944D03*
X0003285433Y0000767716D03*
X0003133858Y0000665354D03*
X0003324803Y0000807086D03*
X0003192913Y0000671259D03*
X0003364173Y0000842519D03*
X0003377952Y0000866141D03*
X0003344488Y0000824803D03*
X0003230314Y0000710629D03*
X0003114173Y0000665354D03*
X0003305118Y0000785433D03*
X0003173228Y0000665354D03*
X0003248031Y0000730314D03*
X0003267716Y0000748031D03*
X0003383858Y0001045275D03*
X0003224409Y0001236220D03*
X0003383858Y0001064960D03*
X0003301181Y0001159448D03*
X0003318897Y0001139763D03*
X0003188976Y0001271653D03*
X0003358267Y0001104330D03*
X0003242125Y0001216535D03*
X0003338582Y0001122047D03*
X0003263779Y0001196850D03*
X0003206692Y0001255905D03*
X0003377952Y0001084645D03*
X0003281496Y0001177165D03*
X0003383858Y0001005905D03*
X0003120078Y0001287401D03*
X0003143700Y0001287401D03*
X0003167322Y0001287401D03*
X0003129921Y0001214566D03*
X0003114173Y0001059055D03*
X0003133858Y0001059055D03*
X0003155511Y0001059055D03*
X0002832677Y0001212598D03*
X0002814960Y0001192913D03*
X0002797244Y0001173228D03*
X0002777559Y0001155511D03*
X0002854330Y0001214566D03*
X0002874015Y0001214566D03*
X0002763779Y0000746062D03*
X0002811023Y0000799212D03*
X0002834645Y0000820866D03*
X0002885826Y0000812992D03*
D28*
X0002785750Y0000895352D03*
D29*
X0003118110Y0001131889D03*
X0003137795Y0001131889D03*
X0003159448Y0001131889D03*
X0003179133Y0001131889D03*
X0003200787Y0001131889D03*
D28*
X0003198818Y0001062992D03*
X0003251968Y0001059055D03*
D29*
X0002401574Y0001791338D03*
X0002598425Y0001791338D03*
X0002500000Y0001692913D03*
X0002500000Y0001574803D03*
X0002500000Y0001377952D03*
X0002500000Y0001181102D03*
X0002401574Y0001594488D03*
X0002598425Y0001594488D03*
X0002795275Y0001594488D03*
X0002696850Y0001692913D03*
X0002992125Y0001594488D03*
X0003188976Y0001594488D03*
X0003385826Y0001594488D03*
X0003385826Y0001437007D03*
X0003188976Y0001476377D03*
X0002992125Y0001476377D03*
X0002795275Y0001476377D03*
X0002598425Y0001476377D03*
X0002401574Y0001476377D03*
X0002204724Y0001476377D03*
X0002204724Y0001279527D03*
X0002401574Y0001279527D03*
X0002598425Y0001279527D03*
X0002696850Y0001377952D03*
X0002893700Y0001574803D03*
X0002696850Y0001574803D03*
X0002303149Y0001574803D03*
X0002106299Y0001377952D03*
X0002106299Y0001574803D03*
X0002106299Y0001181102D03*
X0002303149Y0001377952D03*
X0002303149Y0001181102D03*
X0002440944Y0001082677D03*
X0003090551Y0001574803D03*
X0003287401Y0001574803D03*
X0003484251Y0001574803D03*
X0003090551Y0001377952D03*
X0002893700Y0001377952D03*
X0003484251Y0001692913D03*
X0003582677Y0001791338D03*
X0003385826Y0001791338D03*
X0003287401Y0001692913D03*
X0003582677Y0001437007D03*
X0003582677Y0001141732D03*
X0003681102Y0001082677D03*
X0003484251Y0001082677D03*
X0002244094Y0001082677D03*
X0002244094Y0000885826D03*
X0002204724Y0000688976D03*
X0002204724Y0000492125D03*
X0002106299Y0000590551D03*
X0002106299Y0000787401D03*
X0002303149Y0000787401D03*
X0002500000Y0000787401D03*
X0002303149Y0000590551D03*
X0002440944Y0000885826D03*
X0002401574Y0000688976D03*
X0002401574Y0000492125D03*
X0002401574Y0000295275D03*
X0002303149Y0000393700D03*
X0002598425Y0000295275D03*
X0002795275Y0000295275D03*
X0002992125Y0000295275D03*
X0003188976Y0000295275D03*
X0003582677Y0000492125D03*
X0003582677Y0000688976D03*
X0003582677Y0000885826D03*
X0003484251Y0000787401D03*
X0003681102Y0000787401D03*
X0003877952Y0000787401D03*
X0003877952Y0000590551D03*
X0003877952Y0000393700D03*
X0003779527Y0000492125D03*
X0003779527Y0000688976D03*
X0003681102Y0000590551D03*
X0003681102Y0000393700D03*
X0003484251Y0000393700D03*
X0003484251Y0000590551D03*
X0003385826Y0000688976D03*
X0003385826Y0000492125D03*
X0003287401Y0000393700D03*
X0003287401Y0000590551D03*
X0003188976Y0000492125D03*
X0003090551Y0000590551D03*
X0003090551Y0000393700D03*
X0003090551Y0000196850D03*
X0002893700Y0000196850D03*
X0002893700Y0000393700D03*
X0002893700Y0000590551D03*
X0002992125Y0000492125D03*
X0003149606Y0000098425D03*
X0002992125Y0000098425D03*
X0002795275Y0000098425D03*
X0002500000Y0000393700D03*
X0002500000Y0000196850D03*
X0002696850Y0000393700D03*
X0002795275Y0000492125D03*
X0002106299Y0000393700D03*
X0002401574Y0000098425D03*
X0003877952Y0001181102D03*
X0003877952Y0001377952D03*
X0003681102Y0001574803D03*
X0003877952Y0001574803D03*
X0002480314Y0001019685D03*
X0002500000Y0001019685D03*
X0002500000Y0000948818D03*
X0002480314Y0000948818D03*
X0003511810Y0000948818D03*
D28*
G04 #@! TO.N,+3V3*
X0003381889Y0001338582D03*
X0003330708Y0001287401D03*
X0003330708Y0001338582D03*
X0002582677Y0000188976D03*
X0002685039Y0000188976D03*
D29*
X0002547244Y0000712598D03*
D28*
X0002822834Y0000964566D03*
X0003161417Y0000996062D03*
G04 #@! TO.N,/SW_1_CTRL_1*
X0002787401Y0001032480D03*
X0002627952Y0000732283D03*
G04 #@! TO.N,/SW_1_CTRL_2*
X0003196850Y0000956692D03*
X0002681069Y0000704757D03*
X0002890748Y0000980415D03*
G04 #@! TO.N,/SW_2_CTRL_1*
X0002622047Y0000661417D03*
X0003169291Y0000925196D03*
G04 #@! TD*
D30*
G04 #@! TO.N,GND*
G36*
X0003770103Y0001859343D02*
X0003799101Y0001851410D01*
X0003826237Y0001838467D01*
X0003850652Y0001820923D01*
X0003871574Y0001799333D01*
X0003888343Y0001774379D01*
X0003900427Y0001746850D01*
X0003907497Y0001717403D01*
X0003909370Y0001691899D01*
X0003909370Y0001016811D01*
X0003785433Y0001016811D01*
X0003783519Y0001016430D01*
X0003781897Y0001015346D01*
X0003780813Y0001013724D01*
X0003780433Y0001011811D01*
X0003780433Y0000956692D01*
X0003780813Y0000954779D01*
X0003781897Y0000953157D01*
X0003783519Y0000952073D01*
X0003785433Y0000951692D01*
X0003909370Y0000951692D01*
X0003909370Y0000198081D01*
X0003906587Y0000166904D01*
X0003898654Y0000137906D01*
X0003885711Y0000110770D01*
X0003868167Y0000086355D01*
X0003846577Y0000065432D01*
X0003821623Y0000048664D01*
X0003794094Y0000036580D01*
X0003764647Y0000029510D01*
X0003739143Y0000027637D01*
X0002245325Y0000027637D01*
X0002214148Y0000030420D01*
X0002185150Y0000038353D01*
X0002158014Y0000051296D01*
X0002133599Y0000068840D01*
X0002114120Y0000088940D01*
X0002143255Y0000088940D01*
X0002157702Y0000069435D01*
X0002213038Y0000046073D01*
X0002273102Y0000045665D01*
X0002328749Y0000068274D01*
X0002330486Y0000069435D01*
X0002344933Y0000088940D01*
X0002244094Y0000189779D01*
X0002143255Y0000088940D01*
X0002114120Y0000088940D01*
X0002112677Y0000090430D01*
X0002095908Y0000115384D01*
X0002083824Y0000142913D01*
X0002077839Y0000167842D01*
X0002092909Y0000167842D01*
X0002115518Y0000112195D01*
X0002116679Y0000110458D01*
X0002136184Y0000096011D01*
X0002237023Y0000196850D01*
X0002251165Y0000196850D01*
X0002352004Y0000096011D01*
X0002371509Y0000110458D01*
X0002394871Y0000165794D01*
X0002395083Y0000197019D01*
X0002542244Y0000197019D01*
X0002542244Y0000180933D01*
X0002548399Y0000166072D01*
X0002559773Y0000154698D01*
X0002574634Y0000148543D01*
X0002590719Y0000148543D01*
X0002605580Y0000154698D01*
X0002616954Y0000166072D01*
X0002623110Y0000180933D01*
X0002623110Y0000197019D01*
X0002644606Y0000197019D01*
X0002644606Y0000180933D01*
X0002650761Y0000166072D01*
X0002662135Y0000154698D01*
X0002676996Y0000148543D01*
X0002693082Y0000148543D01*
X0002707942Y0000154698D01*
X0002719316Y0000166072D01*
X0002720649Y0000169291D01*
X0003317834Y0000169291D01*
X0003317834Y0000078740D01*
X0003318215Y0000076826D01*
X0003319299Y0000075204D01*
X0003320921Y0000074120D01*
X0003322834Y0000073740D01*
X0003562992Y0000073740D01*
X0003564905Y0000074120D01*
X0003566527Y0000075204D01*
X0003567611Y0000076826D01*
X0003567992Y0000078740D01*
X0003567992Y0000088940D01*
X0003639318Y0000088940D01*
X0003653765Y0000069435D01*
X0003709101Y0000046073D01*
X0003769165Y0000045665D01*
X0003824812Y0000068274D01*
X0003826549Y0000069435D01*
X0003840996Y0000088940D01*
X0003740157Y0000189779D01*
X0003639318Y0000088940D01*
X0003567992Y0000088940D01*
X0003567992Y0000167842D01*
X0003588972Y0000167842D01*
X0003611581Y0000112195D01*
X0003612742Y0000110458D01*
X0003632247Y0000096011D01*
X0003733086Y0000196850D01*
X0003747228Y0000196850D01*
X0003848067Y0000096011D01*
X0003867572Y0000110458D01*
X0003890934Y0000165794D01*
X0003891342Y0000225857D01*
X0003868733Y0000281505D01*
X0003867572Y0000283242D01*
X0003848067Y0000297689D01*
X0003747228Y0000196850D01*
X0003733086Y0000196850D01*
X0003632247Y0000297689D01*
X0003612742Y0000283242D01*
X0003589380Y0000227906D01*
X0003588972Y0000167842D01*
X0003567992Y0000167842D01*
X0003567992Y0000169291D01*
X0003567611Y0000171204D01*
X0003566527Y0000172826D01*
X0003564905Y0000173910D01*
X0003562992Y0000174291D01*
X0003322834Y0000174291D01*
X0003320921Y0000173910D01*
X0003319299Y0000172826D01*
X0003318215Y0000171204D01*
X0003317834Y0000169291D01*
X0002720649Y0000169291D01*
X0002725472Y0000180933D01*
X0002725472Y0000197019D01*
X0002719316Y0000211879D01*
X0002707942Y0000223253D01*
X0002693082Y0000229409D01*
X0002676996Y0000229409D01*
X0002662135Y0000223253D01*
X0002650761Y0000211879D01*
X0002644606Y0000197019D01*
X0002623110Y0000197019D01*
X0002616954Y0000211879D01*
X0002605580Y0000223253D01*
X0002590719Y0000229409D01*
X0002574634Y0000229409D01*
X0002559773Y0000223253D01*
X0002548399Y0000211879D01*
X0002542244Y0000197019D01*
X0002395083Y0000197019D01*
X0002395279Y0000225857D01*
X0002372670Y0000281505D01*
X0002371509Y0000283242D01*
X0002352004Y0000297689D01*
X0002251165Y0000196850D01*
X0002237023Y0000196850D01*
X0002136184Y0000297689D01*
X0002116679Y0000283242D01*
X0002093317Y0000227906D01*
X0002092909Y0000167842D01*
X0002077839Y0000167842D01*
X0002076754Y0000172359D01*
X0002074881Y0000197863D01*
X0002074881Y0000304760D01*
X0002143255Y0000304760D01*
X0002244094Y0000203921D01*
X0002344933Y0000304760D01*
X0003639318Y0000304760D01*
X0003740157Y0000203921D01*
X0003840996Y0000304760D01*
X0003826549Y0000324265D01*
X0003771213Y0000347627D01*
X0003711149Y0000348034D01*
X0003655502Y0000325425D01*
X0003653765Y0000324265D01*
X0003639318Y0000304760D01*
X0002344933Y0000304760D01*
X0002330486Y0000324265D01*
X0002275150Y0000347627D01*
X0002215086Y0000348034D01*
X0002159439Y0000325425D01*
X0002157702Y0000324265D01*
X0002143255Y0000304760D01*
X0002074881Y0000304760D01*
X0002074881Y0000669459D01*
X0002581614Y0000669459D01*
X0002581614Y0000653374D01*
X0002587769Y0000638513D01*
X0002599143Y0000627139D01*
X0002614004Y0000620984D01*
X0002630089Y0000620984D01*
X0002644950Y0000627139D01*
X0002656324Y0000638513D01*
X0002662480Y0000653374D01*
X0002662480Y0000668692D01*
X0002673026Y0000664324D01*
X0002689111Y0000664324D01*
X0002703972Y0000670479D01*
X0002715346Y0000681853D01*
X0002721502Y0000696714D01*
X0002721502Y0000712800D01*
X0002715346Y0000727660D01*
X0002703972Y0000739034D01*
X0002689111Y0000745190D01*
X0002673026Y0000745190D01*
X0002667345Y0000742837D01*
X0002662230Y0000755186D01*
X0002650856Y0000766560D01*
X0002635995Y0000772716D01*
X0002619910Y0000772716D01*
X0002605049Y0000766560D01*
X0002593675Y0000755186D01*
X0002587519Y0000740326D01*
X0002587519Y0000724240D01*
X0002593675Y0000709379D01*
X0002604953Y0000698101D01*
X0002599143Y0000695694D01*
X0002587769Y0000684320D01*
X0002581614Y0000669459D01*
X0002074881Y0000669459D01*
X0002074881Y0000719270D01*
X0002513700Y0000719270D01*
X0002513700Y0000705926D01*
X0002518807Y0000693597D01*
X0002528243Y0000684161D01*
X0002540571Y0000679055D01*
X0002553916Y0000679055D01*
X0002566244Y0000684161D01*
X0002575680Y0000693597D01*
X0002580787Y0000705926D01*
X0002580787Y0000719270D01*
X0002575680Y0000731599D01*
X0002566244Y0000741035D01*
X0002553916Y0000746141D01*
X0002540571Y0000746141D01*
X0002528243Y0000741035D01*
X0002518807Y0000731599D01*
X0002513700Y0000719270D01*
X0002074881Y0000719270D01*
X0002074881Y0000951692D01*
X0002198387Y0000951692D01*
X0002200300Y0000952073D01*
X0002201922Y0000953157D01*
X0002203006Y0000954779D01*
X0002203387Y0000956692D01*
X0002203387Y0001011811D01*
X0002203006Y0001013724D01*
X0002201922Y0001015346D01*
X0002200300Y0001016430D01*
X0002198387Y0001016811D01*
X0002074881Y0001016811D01*
X0002074881Y0001040522D01*
X0002746968Y0001040522D01*
X0002746968Y0001024437D01*
X0002753124Y0001009576D01*
X0002764498Y0000998202D01*
X0002779358Y0000992047D01*
X0002793133Y0000992047D01*
X0002788557Y0000987470D01*
X0002782401Y0000972609D01*
X0002782401Y0000956524D01*
X0002788557Y0000941663D01*
X0002799931Y0000930289D01*
X0002814792Y0000924133D01*
X0002830877Y0000924133D01*
X0002845738Y0000930289D01*
X0002857112Y0000941663D01*
X0002861566Y0000952416D01*
X0002867844Y0000946138D01*
X0002882705Y0000939982D01*
X0002898790Y0000939982D01*
X0002913651Y0000946138D01*
X0002925025Y0000957512D01*
X0002931181Y0000972372D01*
X0002931181Y0000988458D01*
X0002925025Y0001003319D01*
X0002924239Y0001004105D01*
X0003120984Y0001004105D01*
X0003120984Y0000988020D01*
X0003127139Y0000973159D01*
X0003138513Y0000961785D01*
X0003145715Y0000958802D01*
X0003135013Y0000948100D01*
X0003128858Y0000933239D01*
X0003128858Y0000917154D01*
X0003135013Y0000902293D01*
X0003146387Y0000890919D01*
X0003161248Y0000884763D01*
X0003177333Y0000884763D01*
X0003192194Y0000890919D01*
X0003203568Y0000902293D01*
X0003209724Y0000917154D01*
X0003209724Y0000918261D01*
X0003219753Y0000922415D01*
X0003231127Y0000933789D01*
X0003237283Y0000948650D01*
X0003237283Y0000964735D01*
X0003231127Y0000979596D01*
X0003219753Y0000990970D01*
X0003204893Y0000997125D01*
X0003201850Y0000997125D01*
X0003201850Y0001004105D01*
X0003195694Y0001018966D01*
X0003184320Y0001030340D01*
X0003169459Y0001036496D01*
X0003153374Y0001036496D01*
X0003138513Y0001030340D01*
X0003127139Y0001018966D01*
X0003120984Y0001004105D01*
X0002924239Y0001004105D01*
X0002913651Y0001014693D01*
X0002898790Y0001020848D01*
X0002882705Y0001020848D01*
X0002867844Y0001014693D01*
X0002856470Y0001003319D01*
X0002852016Y0000992565D01*
X0002845738Y0000998844D01*
X0002830877Y0001005000D01*
X0002817102Y0001005000D01*
X0002821679Y0001009576D01*
X0002827834Y0001024437D01*
X0002827834Y0001040522D01*
X0002821679Y0001055383D01*
X0002810305Y0001066757D01*
X0002795444Y0001072913D01*
X0002779358Y0001072913D01*
X0002764498Y0001066757D01*
X0002753124Y0001055383D01*
X0002746968Y0001040522D01*
X0002074881Y0001040522D01*
X0002074881Y0001346625D01*
X0003290275Y0001346625D01*
X0003290275Y0001330540D01*
X0003296431Y0001315679D01*
X0003299118Y0001312992D01*
X0003296431Y0001310305D01*
X0003290275Y0001295444D01*
X0003290275Y0001279358D01*
X0003296431Y0001264498D01*
X0003307805Y0001253124D01*
X0003322665Y0001246968D01*
X0003338751Y0001246968D01*
X0003353612Y0001253124D01*
X0003364986Y0001264498D01*
X0003371141Y0001279358D01*
X0003371141Y0001295444D01*
X0003369228Y0001300062D01*
X0003373847Y0001298149D01*
X0003389932Y0001298149D01*
X0003404793Y0001304305D01*
X0003416167Y0001315679D01*
X0003422322Y0001330540D01*
X0003422322Y0001346625D01*
X0003416167Y0001361486D01*
X0003404793Y0001372860D01*
X0003389932Y0001379015D01*
X0003373847Y0001379015D01*
X0003358986Y0001372860D01*
X0003356299Y0001370173D01*
X0003353612Y0001372860D01*
X0003338751Y0001379015D01*
X0003322665Y0001379015D01*
X0003307805Y0001372860D01*
X0003296431Y0001361486D01*
X0003290275Y0001346625D01*
X0002074881Y0001346625D01*
X0002074881Y0001585003D01*
X0002143255Y0001585003D01*
X0002157702Y0001565498D01*
X0002213038Y0001542136D01*
X0002273102Y0001541728D01*
X0002328749Y0001564337D01*
X0002330486Y0001565498D01*
X0002344933Y0001585003D01*
X0003639318Y0001585003D01*
X0003653765Y0001565498D01*
X0003709101Y0001542136D01*
X0003769165Y0001541728D01*
X0003824812Y0001564337D01*
X0003826549Y0001565498D01*
X0003840996Y0001585003D01*
X0003740157Y0001685842D01*
X0003639318Y0001585003D01*
X0002344933Y0001585003D01*
X0002244094Y0001685842D01*
X0002143255Y0001585003D01*
X0002074881Y0001585003D01*
X0002074881Y0001663905D01*
X0002092909Y0001663905D01*
X0002115518Y0001608258D01*
X0002116679Y0001606521D01*
X0002136184Y0001592074D01*
X0002237023Y0001692913D01*
X0002251165Y0001692913D01*
X0002352004Y0001592074D01*
X0002371509Y0001606521D01*
X0002394871Y0001661857D01*
X0002394885Y0001663905D01*
X0003588972Y0001663905D01*
X0003611581Y0001608258D01*
X0003612742Y0001606521D01*
X0003632247Y0001592074D01*
X0003733086Y0001692913D01*
X0003747228Y0001692913D01*
X0003848067Y0001592074D01*
X0003867572Y0001606521D01*
X0003890934Y0001661857D01*
X0003891342Y0001721920D01*
X0003868733Y0001777568D01*
X0003867572Y0001779305D01*
X0003848067Y0001793752D01*
X0003747228Y0001692913D01*
X0003733086Y0001692913D01*
X0003632247Y0001793752D01*
X0003612742Y0001779305D01*
X0003589380Y0001723969D01*
X0003588972Y0001663905D01*
X0002394885Y0001663905D01*
X0002395279Y0001721920D01*
X0002381401Y0001756078D01*
X0002876889Y0001756078D01*
X0002876889Y0001741559D01*
X0002882445Y0001728145D01*
X0002892712Y0001717879D01*
X0002906126Y0001712322D01*
X0002920645Y0001712322D01*
X0002934059Y0001717879D01*
X0002944325Y0001728145D01*
X0002949881Y0001741559D01*
X0002949881Y0001756078D01*
X0003034370Y0001756078D01*
X0003034370Y0001741559D01*
X0003039926Y0001728145D01*
X0003050192Y0001717879D01*
X0003063606Y0001712322D01*
X0003078125Y0001712322D01*
X0003091539Y0001717879D01*
X0003101806Y0001728145D01*
X0003107362Y0001741559D01*
X0003107362Y0001756078D01*
X0003101806Y0001769492D01*
X0003091539Y0001779758D01*
X0003078125Y0001785314D01*
X0003063606Y0001785314D01*
X0003050192Y0001779758D01*
X0003039926Y0001769492D01*
X0003034370Y0001756078D01*
X0002949881Y0001756078D01*
X0002944325Y0001769492D01*
X0002934059Y0001779758D01*
X0002920645Y0001785314D01*
X0002906126Y0001785314D01*
X0002892712Y0001779758D01*
X0002882445Y0001769492D01*
X0002876889Y0001756078D01*
X0002381401Y0001756078D01*
X0002372670Y0001777568D01*
X0002371509Y0001779305D01*
X0002352004Y0001793752D01*
X0002251165Y0001692913D01*
X0002237023Y0001692913D01*
X0002136184Y0001793752D01*
X0002116679Y0001779305D01*
X0002093317Y0001723969D01*
X0002092909Y0001663905D01*
X0002074881Y0001663905D01*
X0002074881Y0001691682D01*
X0002077664Y0001722859D01*
X0002085597Y0001751857D01*
X0002098540Y0001778993D01*
X0002114226Y0001800823D01*
X0002143255Y0001800823D01*
X0002244094Y0001699984D01*
X0002344933Y0001800823D01*
X0003639318Y0001800823D01*
X0003740157Y0001699984D01*
X0003840996Y0001800823D01*
X0003826549Y0001820328D01*
X0003771213Y0001843690D01*
X0003711149Y0001844097D01*
X0003655502Y0001821488D01*
X0003653765Y0001820328D01*
X0003639318Y0001800823D01*
X0002344933Y0001800823D01*
X0002330486Y0001820328D01*
X0002275150Y0001843690D01*
X0002215086Y0001844097D01*
X0002159439Y0001821488D01*
X0002157702Y0001820328D01*
X0002143255Y0001800823D01*
X0002114226Y0001800823D01*
X0002116084Y0001803408D01*
X0002137674Y0001824330D01*
X0002162628Y0001841099D01*
X0002190157Y0001853183D01*
X0002219604Y0001860253D01*
X0002245108Y0001862125D01*
X0003738926Y0001862125D01*
X0003770103Y0001859343D01*
X0003770103Y0001859343D01*
G37*
X0003770103Y0001859343D02*
X0003799101Y0001851410D01*
X0003826237Y0001838467D01*
X0003850652Y0001820923D01*
X0003871574Y0001799333D01*
X0003888343Y0001774379D01*
X0003900427Y0001746850D01*
X0003907497Y0001717403D01*
X0003909370Y0001691899D01*
X0003909370Y0001016811D01*
X0003785433Y0001016811D01*
X0003783519Y0001016430D01*
X0003781897Y0001015346D01*
X0003780813Y0001013724D01*
X0003780433Y0001011811D01*
X0003780433Y0000956692D01*
X0003780813Y0000954779D01*
X0003781897Y0000953157D01*
X0003783519Y0000952073D01*
X0003785433Y0000951692D01*
X0003909370Y0000951692D01*
X0003909370Y0000198081D01*
X0003906587Y0000166904D01*
X0003898654Y0000137906D01*
X0003885711Y0000110770D01*
X0003868167Y0000086355D01*
X0003846577Y0000065432D01*
X0003821623Y0000048664D01*
X0003794094Y0000036580D01*
X0003764647Y0000029510D01*
X0003739143Y0000027637D01*
X0002245325Y0000027637D01*
X0002214148Y0000030420D01*
X0002185150Y0000038353D01*
X0002158014Y0000051296D01*
X0002133599Y0000068840D01*
X0002114120Y0000088940D01*
X0002143255Y0000088940D01*
X0002157702Y0000069435D01*
X0002213038Y0000046073D01*
X0002273102Y0000045665D01*
X0002328749Y0000068274D01*
X0002330486Y0000069435D01*
X0002344933Y0000088940D01*
X0002244094Y0000189779D01*
X0002143255Y0000088940D01*
X0002114120Y0000088940D01*
X0002112677Y0000090430D01*
X0002095908Y0000115384D01*
X0002083824Y0000142913D01*
X0002077839Y0000167842D01*
X0002092909Y0000167842D01*
X0002115518Y0000112195D01*
X0002116679Y0000110458D01*
X0002136184Y0000096011D01*
X0002237023Y0000196850D01*
X0002251165Y0000196850D01*
X0002352004Y0000096011D01*
X0002371509Y0000110458D01*
X0002394871Y0000165794D01*
X0002395083Y0000197019D01*
X0002542244Y0000197019D01*
X0002542244Y0000180933D01*
X0002548399Y0000166072D01*
X0002559773Y0000154698D01*
X0002574634Y0000148543D01*
X0002590719Y0000148543D01*
X0002605580Y0000154698D01*
X0002616954Y0000166072D01*
X0002623110Y0000180933D01*
X0002623110Y0000197019D01*
X0002644606Y0000197019D01*
X0002644606Y0000180933D01*
X0002650761Y0000166072D01*
X0002662135Y0000154698D01*
X0002676996Y0000148543D01*
X0002693082Y0000148543D01*
X0002707942Y0000154698D01*
X0002719316Y0000166072D01*
X0002720649Y0000169291D01*
X0003317834Y0000169291D01*
X0003317834Y0000078740D01*
X0003318215Y0000076826D01*
X0003319299Y0000075204D01*
X0003320921Y0000074120D01*
X0003322834Y0000073740D01*
X0003562992Y0000073740D01*
X0003564905Y0000074120D01*
X0003566527Y0000075204D01*
X0003567611Y0000076826D01*
X0003567992Y0000078740D01*
X0003567992Y0000088940D01*
X0003639318Y0000088940D01*
X0003653765Y0000069435D01*
X0003709101Y0000046073D01*
X0003769165Y0000045665D01*
X0003824812Y0000068274D01*
X0003826549Y0000069435D01*
X0003840996Y0000088940D01*
X0003740157Y0000189779D01*
X0003639318Y0000088940D01*
X0003567992Y0000088940D01*
X0003567992Y0000167842D01*
X0003588972Y0000167842D01*
X0003611581Y0000112195D01*
X0003612742Y0000110458D01*
X0003632247Y0000096011D01*
X0003733086Y0000196850D01*
X0003747228Y0000196850D01*
X0003848067Y0000096011D01*
X0003867572Y0000110458D01*
X0003890934Y0000165794D01*
X0003891342Y0000225857D01*
X0003868733Y0000281505D01*
X0003867572Y0000283242D01*
X0003848067Y0000297689D01*
X0003747228Y0000196850D01*
X0003733086Y0000196850D01*
X0003632247Y0000297689D01*
X0003612742Y0000283242D01*
X0003589380Y0000227906D01*
X0003588972Y0000167842D01*
X0003567992Y0000167842D01*
X0003567992Y0000169291D01*
X0003567611Y0000171204D01*
X0003566527Y0000172826D01*
X0003564905Y0000173910D01*
X0003562992Y0000174291D01*
X0003322834Y0000174291D01*
X0003320921Y0000173910D01*
X0003319299Y0000172826D01*
X0003318215Y0000171204D01*
X0003317834Y0000169291D01*
X0002720649Y0000169291D01*
X0002725472Y0000180933D01*
X0002725472Y0000197019D01*
X0002719316Y0000211879D01*
X0002707942Y0000223253D01*
X0002693082Y0000229409D01*
X0002676996Y0000229409D01*
X0002662135Y0000223253D01*
X0002650761Y0000211879D01*
X0002644606Y0000197019D01*
X0002623110Y0000197019D01*
X0002616954Y0000211879D01*
X0002605580Y0000223253D01*
X0002590719Y0000229409D01*
X0002574634Y0000229409D01*
X0002559773Y0000223253D01*
X0002548399Y0000211879D01*
X0002542244Y0000197019D01*
X0002395083Y0000197019D01*
X0002395279Y0000225857D01*
X0002372670Y0000281505D01*
X0002371509Y0000283242D01*
X0002352004Y0000297689D01*
X0002251165Y0000196850D01*
X0002237023Y0000196850D01*
X0002136184Y0000297689D01*
X0002116679Y0000283242D01*
X0002093317Y0000227906D01*
X0002092909Y0000167842D01*
X0002077839Y0000167842D01*
X0002076754Y0000172359D01*
X0002074881Y0000197863D01*
X0002074881Y0000304760D01*
X0002143255Y0000304760D01*
X0002244094Y0000203921D01*
X0002344933Y0000304760D01*
X0003639318Y0000304760D01*
X0003740157Y0000203921D01*
X0003840996Y0000304760D01*
X0003826549Y0000324265D01*
X0003771213Y0000347627D01*
X0003711149Y0000348034D01*
X0003655502Y0000325425D01*
X0003653765Y0000324265D01*
X0003639318Y0000304760D01*
X0002344933Y0000304760D01*
X0002330486Y0000324265D01*
X0002275150Y0000347627D01*
X0002215086Y0000348034D01*
X0002159439Y0000325425D01*
X0002157702Y0000324265D01*
X0002143255Y0000304760D01*
X0002074881Y0000304760D01*
X0002074881Y0000669459D01*
X0002581614Y0000669459D01*
X0002581614Y0000653374D01*
X0002587769Y0000638513D01*
X0002599143Y0000627139D01*
X0002614004Y0000620984D01*
X0002630089Y0000620984D01*
X0002644950Y0000627139D01*
X0002656324Y0000638513D01*
X0002662480Y0000653374D01*
X0002662480Y0000668692D01*
X0002673026Y0000664324D01*
X0002689111Y0000664324D01*
X0002703972Y0000670479D01*
X0002715346Y0000681853D01*
X0002721502Y0000696714D01*
X0002721502Y0000712800D01*
X0002715346Y0000727660D01*
X0002703972Y0000739034D01*
X0002689111Y0000745190D01*
X0002673026Y0000745190D01*
X0002667345Y0000742837D01*
X0002662230Y0000755186D01*
X0002650856Y0000766560D01*
X0002635995Y0000772716D01*
X0002619910Y0000772716D01*
X0002605049Y0000766560D01*
X0002593675Y0000755186D01*
X0002587519Y0000740326D01*
X0002587519Y0000724240D01*
X0002593675Y0000709379D01*
X0002604953Y0000698101D01*
X0002599143Y0000695694D01*
X0002587769Y0000684320D01*
X0002581614Y0000669459D01*
X0002074881Y0000669459D01*
X0002074881Y0000719270D01*
X0002513700Y0000719270D01*
X0002513700Y0000705926D01*
X0002518807Y0000693597D01*
X0002528243Y0000684161D01*
X0002540571Y0000679055D01*
X0002553916Y0000679055D01*
X0002566244Y0000684161D01*
X0002575680Y0000693597D01*
X0002580787Y0000705926D01*
X0002580787Y0000719270D01*
X0002575680Y0000731599D01*
X0002566244Y0000741035D01*
X0002553916Y0000746141D01*
X0002540571Y0000746141D01*
X0002528243Y0000741035D01*
X0002518807Y0000731599D01*
X0002513700Y0000719270D01*
X0002074881Y0000719270D01*
X0002074881Y0000951692D01*
X0002198387Y0000951692D01*
X0002200300Y0000952073D01*
X0002201922Y0000953157D01*
X0002203006Y0000954779D01*
X0002203387Y0000956692D01*
X0002203387Y0001011811D01*
X0002203006Y0001013724D01*
X0002201922Y0001015346D01*
X0002200300Y0001016430D01*
X0002198387Y0001016811D01*
X0002074881Y0001016811D01*
X0002074881Y0001040522D01*
X0002746968Y0001040522D01*
X0002746968Y0001024437D01*
X0002753124Y0001009576D01*
X0002764498Y0000998202D01*
X0002779358Y0000992047D01*
X0002793133Y0000992047D01*
X0002788557Y0000987470D01*
X0002782401Y0000972609D01*
X0002782401Y0000956524D01*
X0002788557Y0000941663D01*
X0002799931Y0000930289D01*
X0002814792Y0000924133D01*
X0002830877Y0000924133D01*
X0002845738Y0000930289D01*
X0002857112Y0000941663D01*
X0002861566Y0000952416D01*
X0002867844Y0000946138D01*
X0002882705Y0000939982D01*
X0002898790Y0000939982D01*
X0002913651Y0000946138D01*
X0002925025Y0000957512D01*
X0002931181Y0000972372D01*
X0002931181Y0000988458D01*
X0002925025Y0001003319D01*
X0002924239Y0001004105D01*
X0003120984Y0001004105D01*
X0003120984Y0000988020D01*
X0003127139Y0000973159D01*
X0003138513Y0000961785D01*
X0003145715Y0000958802D01*
X0003135013Y0000948100D01*
X0003128858Y0000933239D01*
X0003128858Y0000917154D01*
X0003135013Y0000902293D01*
X0003146387Y0000890919D01*
X0003161248Y0000884763D01*
X0003177333Y0000884763D01*
X0003192194Y0000890919D01*
X0003203568Y0000902293D01*
X0003209724Y0000917154D01*
X0003209724Y0000918261D01*
X0003219753Y0000922415D01*
X0003231127Y0000933789D01*
X0003237283Y0000948650D01*
X0003237283Y0000964735D01*
X0003231127Y0000979596D01*
X0003219753Y0000990970D01*
X0003204893Y0000997125D01*
X0003201850Y0000997125D01*
X0003201850Y0001004105D01*
X0003195694Y0001018966D01*
X0003184320Y0001030340D01*
X0003169459Y0001036496D01*
X0003153374Y0001036496D01*
X0003138513Y0001030340D01*
X0003127139Y0001018966D01*
X0003120984Y0001004105D01*
X0002924239Y0001004105D01*
X0002913651Y0001014693D01*
X0002898790Y0001020848D01*
X0002882705Y0001020848D01*
X0002867844Y0001014693D01*
X0002856470Y0001003319D01*
X0002852016Y0000992565D01*
X0002845738Y0000998844D01*
X0002830877Y0001005000D01*
X0002817102Y0001005000D01*
X0002821679Y0001009576D01*
X0002827834Y0001024437D01*
X0002827834Y0001040522D01*
X0002821679Y0001055383D01*
X0002810305Y0001066757D01*
X0002795444Y0001072913D01*
X0002779358Y0001072913D01*
X0002764498Y0001066757D01*
X0002753124Y0001055383D01*
X0002746968Y0001040522D01*
X0002074881Y0001040522D01*
X0002074881Y0001346625D01*
X0003290275Y0001346625D01*
X0003290275Y0001330540D01*
X0003296431Y0001315679D01*
X0003299118Y0001312992D01*
X0003296431Y0001310305D01*
X0003290275Y0001295444D01*
X0003290275Y0001279358D01*
X0003296431Y0001264498D01*
X0003307805Y0001253124D01*
X0003322665Y0001246968D01*
X0003338751Y0001246968D01*
X0003353612Y0001253124D01*
X0003364986Y0001264498D01*
X0003371141Y0001279358D01*
X0003371141Y0001295444D01*
X0003369228Y0001300062D01*
X0003373847Y0001298149D01*
X0003389932Y0001298149D01*
X0003404793Y0001304305D01*
X0003416167Y0001315679D01*
X0003422322Y0001330540D01*
X0003422322Y0001346625D01*
X0003416167Y0001361486D01*
X0003404793Y0001372860D01*
X0003389932Y0001379015D01*
X0003373847Y0001379015D01*
X0003358986Y0001372860D01*
X0003356299Y0001370173D01*
X0003353612Y0001372860D01*
X0003338751Y0001379015D01*
X0003322665Y0001379015D01*
X0003307805Y0001372860D01*
X0003296431Y0001361486D01*
X0003290275Y0001346625D01*
X0002074881Y0001346625D01*
X0002074881Y0001585003D01*
X0002143255Y0001585003D01*
X0002157702Y0001565498D01*
X0002213038Y0001542136D01*
X0002273102Y0001541728D01*
X0002328749Y0001564337D01*
X0002330486Y0001565498D01*
X0002344933Y0001585003D01*
X0003639318Y0001585003D01*
X0003653765Y0001565498D01*
X0003709101Y0001542136D01*
X0003769165Y0001541728D01*
X0003824812Y0001564337D01*
X0003826549Y0001565498D01*
X0003840996Y0001585003D01*
X0003740157Y0001685842D01*
X0003639318Y0001585003D01*
X0002344933Y0001585003D01*
X0002244094Y0001685842D01*
X0002143255Y0001585003D01*
X0002074881Y0001585003D01*
X0002074881Y0001663905D01*
X0002092909Y0001663905D01*
X0002115518Y0001608258D01*
X0002116679Y0001606521D01*
X0002136184Y0001592074D01*
X0002237023Y0001692913D01*
X0002251165Y0001692913D01*
X0002352004Y0001592074D01*
X0002371509Y0001606521D01*
X0002394871Y0001661857D01*
X0002394885Y0001663905D01*
X0003588972Y0001663905D01*
X0003611581Y0001608258D01*
X0003612742Y0001606521D01*
X0003632247Y0001592074D01*
X0003733086Y0001692913D01*
X0003747228Y0001692913D01*
X0003848067Y0001592074D01*
X0003867572Y0001606521D01*
X0003890934Y0001661857D01*
X0003891342Y0001721920D01*
X0003868733Y0001777568D01*
X0003867572Y0001779305D01*
X0003848067Y0001793752D01*
X0003747228Y0001692913D01*
X0003733086Y0001692913D01*
X0003632247Y0001793752D01*
X0003612742Y0001779305D01*
X0003589380Y0001723969D01*
X0003588972Y0001663905D01*
X0002394885Y0001663905D01*
X0002395279Y0001721920D01*
X0002381401Y0001756078D01*
X0002876889Y0001756078D01*
X0002876889Y0001741559D01*
X0002882445Y0001728145D01*
X0002892712Y0001717879D01*
X0002906126Y0001712322D01*
X0002920645Y0001712322D01*
X0002934059Y0001717879D01*
X0002944325Y0001728145D01*
X0002949881Y0001741559D01*
X0002949881Y0001756078D01*
X0003034370Y0001756078D01*
X0003034370Y0001741559D01*
X0003039926Y0001728145D01*
X0003050192Y0001717879D01*
X0003063606Y0001712322D01*
X0003078125Y0001712322D01*
X0003091539Y0001717879D01*
X0003101806Y0001728145D01*
X0003107362Y0001741559D01*
X0003107362Y0001756078D01*
X0003101806Y0001769492D01*
X0003091539Y0001779758D01*
X0003078125Y0001785314D01*
X0003063606Y0001785314D01*
X0003050192Y0001779758D01*
X0003039926Y0001769492D01*
X0003034370Y0001756078D01*
X0002949881Y0001756078D01*
X0002944325Y0001769492D01*
X0002934059Y0001779758D01*
X0002920645Y0001785314D01*
X0002906126Y0001785314D01*
X0002892712Y0001779758D01*
X0002882445Y0001769492D01*
X0002876889Y0001756078D01*
X0002381401Y0001756078D01*
X0002372670Y0001777568D01*
X0002371509Y0001779305D01*
X0002352004Y0001793752D01*
X0002251165Y0001692913D01*
X0002237023Y0001692913D01*
X0002136184Y0001793752D01*
X0002116679Y0001779305D01*
X0002093317Y0001723969D01*
X0002092909Y0001663905D01*
X0002074881Y0001663905D01*
X0002074881Y0001691682D01*
X0002077664Y0001722859D01*
X0002085597Y0001751857D01*
X0002098540Y0001778993D01*
X0002114226Y0001800823D01*
X0002143255Y0001800823D01*
X0002244094Y0001699984D01*
X0002344933Y0001800823D01*
X0003639318Y0001800823D01*
X0003740157Y0001699984D01*
X0003840996Y0001800823D01*
X0003826549Y0001820328D01*
X0003771213Y0001843690D01*
X0003711149Y0001844097D01*
X0003655502Y0001821488D01*
X0003653765Y0001820328D01*
X0003639318Y0001800823D01*
X0002344933Y0001800823D01*
X0002330486Y0001820328D01*
X0002275150Y0001843690D01*
X0002215086Y0001844097D01*
X0002159439Y0001821488D01*
X0002157702Y0001820328D01*
X0002143255Y0001800823D01*
X0002114226Y0001800823D01*
X0002116084Y0001803408D01*
X0002137674Y0001824330D01*
X0002162628Y0001841099D01*
X0002190157Y0001853183D01*
X0002219604Y0001860253D01*
X0002245108Y0001862125D01*
X0003738926Y0001862125D01*
X0003770103Y0001859343D01*
G04 #@! TD*
G04 next file*
G04 #@! TF.GenerationSoftware,KiCad,Pcbnew,(5.0.2)-1*
G04 #@! TF.CreationDate,2019-01-06T11:55:21+11:00*
G04 #@! TF.ProjectId,Gain_Block_Dev_Rev_0,4761696e-5f42-46c6-9f63-6b5f4465765f,rev?*
G04 #@! TF.SameCoordinates,Original*
G04 #@! TF.FileFunction,Copper,L2,Inr*
G04 #@! TF.FilePolarity,Positive*
G04 Gerber Fmt 4.6, Leading zero omitted, Abs format (unit mm)*
G04 Created by KiCad (PCBNEW (5.0.2)-1) date 6/01/2019 11:55:21*
G01*
G04 APERTURE LIST*
G04 #@! TA.AperFunction,ViaPad*
G04 #@! TD*
G04 #@! TA.AperFunction,ViaPad*
G04 #@! TD*
G04 #@! TA.AperFunction,ViaPad*
G04 #@! TD*
G04 #@! TA.AperFunction,ViaPad*
G04 #@! TD*
G04 #@! TA.AperFunction,ViaPad*
G04 #@! TD*
G04 #@! TA.AperFunction,ViaPad*
G04 #@! TD*
G04 #@! TA.AperFunction,ViaPad*
G04 #@! TD*
G04 #@! TA.AperFunction,ViaPad*
G04 #@! TD*
G04 #@! TA.AperFunction,Conductor*
G04 #@! TD*
G04 APERTURE END LIST*
G04 #@! TO.C,REF\002A\002A*
D31*
X0002235095Y0002510967D02*
X0002237907Y0002513779D01*
X0002243532Y0002516591D01*
X0002257592Y0002516591D01*
X0002263217Y0002513779D01*
X0002266029Y0002510967D01*
X0002268841Y0002505343D01*
X0002268841Y0002499718D01*
X0002266029Y0002491282D01*
X0002232283Y0002457536D01*
X0002268841Y0002457536D01*
G04 #@! TD*
D32*
G04 #@! TO.N,GND*
G04 #@! TO.C,U1*
X0002472440Y0003019685D03*
X0002515748Y0003019685D03*
X0002559055Y0003019685D03*
X0002472440Y0002978346D03*
X0002515748Y0002978346D03*
X0002559055Y0002978346D03*
X0002472440Y0002937007D03*
X0002515748Y0002937007D03*
X0002559055Y0002937007D03*
G04 #@! TD*
D33*
G04 #@! TO.N,/nP_S*
G04 #@! TO.C,SW1*
X0003365354Y0002462401D03*
D34*
G04 #@! TO.N,+3.3VA*
X0002665354Y0002150590D03*
G04 #@! TO.N,Net-(R7-Pad1)*
X0003265354Y0002462401D03*
G04 #@! TO.N,+3.3VA*
X0002765354Y0002150590D03*
G04 #@! TO.N,Net-(R6-Pad1)*
X0003165354Y0002462401D03*
G04 #@! TO.N,+3.3VA*
X0002865354Y0002150590D03*
G04 #@! TO.N,Net-(R5-Pad1)*
X0003065354Y0002462401D03*
G04 #@! TO.N,+3.3VA*
X0002965354Y0002150590D03*
G04 #@! TO.N,Net-(R4-Pad1)*
X0002965354Y0002462401D03*
G04 #@! TO.N,+3.3VA*
X0003065354Y0002150590D03*
G04 #@! TO.N,Net-(R3-Pad1)*
X0002865354Y0002462401D03*
G04 #@! TO.N,+3.3VA*
X0003165354Y0002150590D03*
G04 #@! TO.N,Net-(R2-Pad1)*
X0002765354Y0002462401D03*
G04 #@! TO.N,+3.3VA*
X0003265354Y0002150590D03*
G04 #@! TO.N,Net-(R1-Pad1)*
X0002665354Y0002462401D03*
G04 #@! TO.N,+3.3VA*
X0003365354Y0002150590D03*
G04 #@! TD*
D35*
G04 #@! TO.N,GND*
G04 #@! TO.C,H1*
X0002310907Y0003806970D03*
X0002244094Y0003834645D03*
X0002177281Y0003806970D03*
X0002149606Y0003740157D03*
X0002177281Y0003673344D03*
X0002244094Y0003645669D03*
X0002310907Y0003673344D03*
X0002338582Y0003740157D03*
D36*
X0002244094Y0003740157D03*
G04 #@! TD*
G04 #@! TO.N,GND*
G04 #@! TO.C,H2*
X0003740157Y0002244094D03*
D35*
X0003834645Y0002244094D03*
X0003806970Y0002177281D03*
X0003740157Y0002149606D03*
X0003673344Y0002177281D03*
X0003645669Y0002244094D03*
X0003673344Y0002310907D03*
X0003740157Y0002338582D03*
X0003806970Y0002310907D03*
G04 #@! TD*
D36*
G04 #@! TO.N,GND*
G04 #@! TO.C,H3*
X0002244094Y0002244094D03*
D35*
X0002338582Y0002244094D03*
X0002310907Y0002177281D03*
X0002244094Y0002149606D03*
X0002177281Y0002177281D03*
X0002149606Y0002244094D03*
X0002177281Y0002310907D03*
X0002244094Y0002338582D03*
X0002310907Y0002310907D03*
G04 #@! TD*
G04 #@! TO.N,GND*
G04 #@! TO.C,H4*
X0003806970Y0003806970D03*
X0003740157Y0003834645D03*
X0003673344Y0003806970D03*
X0003645669Y0003740157D03*
X0003673344Y0003673344D03*
X0003740157Y0003645669D03*
X0003806970Y0003673344D03*
X0003834645Y0003740157D03*
D36*
X0003740157Y0003740157D03*
G04 #@! TD*
D37*
G04 #@! TO.N,/SI*
G04 #@! TO.C,J3*
X0002531496Y0003460629D03*
D38*
G04 #@! TO.N,+5V*
X0002631496Y0003460629D03*
G04 #@! TO.N,/LE*
X0002531496Y0003360629D03*
G04 #@! TO.N,GND*
X0002631496Y0003360629D03*
G04 #@! TO.N,/CLK*
X0002531496Y0003260629D03*
G04 #@! TO.N,/RF_PWR*
X0002631496Y0003260629D03*
G04 #@! TD*
D39*
G04 #@! TO.N,GND*
X0002192913Y0003078740D03*
X0002173228Y0003078740D03*
X0002153543Y0003078740D03*
X0002133858Y0003078740D03*
X0002114173Y0003078740D03*
X0002094488Y0003078740D03*
X0002074803Y0003078740D03*
X0002055118Y0003078740D03*
X0002877952Y0003791338D03*
X0003122047Y0003791338D03*
X0003155511Y0003879921D03*
X0003045275Y0003879921D03*
X0002954724Y0003879921D03*
X0002844488Y0003879921D03*
X0002377952Y0003072834D03*
X0002336614Y0003072834D03*
D35*
X0002766732Y0002900590D03*
X0002841535Y0002900590D03*
D39*
X0003515748Y0003286417D03*
D35*
X0003439960Y0003373031D03*
X0003439960Y0003222440D03*
X0003157480Y0003393700D03*
D39*
X0003664763Y0003287401D03*
X0003533464Y0003401574D03*
X0003576771Y0003401574D03*
X0003336614Y0003167322D03*
X0003295275Y0003167322D03*
X0003255905Y0003167322D03*
X0003194881Y0003167322D03*
X0003356299Y0003096456D03*
X0003484251Y0003098425D03*
X0002805118Y0002986220D03*
X0002982283Y0003088582D03*
D35*
X0003055118Y0003425196D03*
D39*
X0002133858Y0002818897D03*
X0002074803Y0002818897D03*
X0002094488Y0002818897D03*
X0002153543Y0002818897D03*
X0002173228Y0002818897D03*
X0002114173Y0002818897D03*
X0002192913Y0002818897D03*
X0002055118Y0002818897D03*
X0003862204Y0002818897D03*
X0003822834Y0002818897D03*
X0003842519Y0002818897D03*
X0003921259Y0002818897D03*
X0003783464Y0002818897D03*
X0003881889Y0002818897D03*
X0003901574Y0002818897D03*
X0003803149Y0002818897D03*
X0003842519Y0003078740D03*
X0003921259Y0003078740D03*
X0003803149Y0003078740D03*
X0003783464Y0003078740D03*
X0003901574Y0003078740D03*
X0003862204Y0003078740D03*
X0003822834Y0003078740D03*
X0003881889Y0003078740D03*
D35*
X0002940944Y0003527559D03*
X0002948818Y0003708661D03*
D39*
X0002251968Y0002988188D03*
X0002251968Y0002988188D03*
X0002251968Y0002988188D03*
X0002271653Y0002988188D03*
X0002232283Y0002988188D03*
X0002212598Y0002988188D03*
X0002220472Y0002913385D03*
X0002240157Y0002913385D03*
X0002259842Y0002913385D03*
X0002279527Y0002913385D03*
X0002299212Y0002913385D03*
X0002318897Y0002913385D03*
X0002338582Y0002913385D03*
X0002358267Y0002913385D03*
X0002633858Y0002913385D03*
X0002653543Y0002913385D03*
X0002673228Y0002913385D03*
X0002692913Y0002913385D03*
X0002712598Y0002913385D03*
X0002732283Y0002913385D03*
X0002744094Y0002988188D03*
X0002724409Y0002980314D03*
X0002704724Y0002984251D03*
X0002685039Y0002984251D03*
X0002763779Y0002992125D03*
X0002783464Y0002992125D03*
X0002826771Y0002992125D03*
X0002846456Y0002992125D03*
X0002866141Y0002992125D03*
X0002885826Y0002980314D03*
X0002877952Y0002913385D03*
X0002933070Y0002913385D03*
X0002952755Y0002913385D03*
X0002972440Y0002913385D03*
X0002992125Y0002909448D03*
X0003023622Y0002988188D03*
X0003043307Y0002988188D03*
X0003062992Y0002984251D03*
X0003082677Y0002980314D03*
X0003102362Y0002980314D03*
X0003122047Y0002984251D03*
X0003141732Y0002988188D03*
X0003161417Y0002988188D03*
X0003181102Y0002988188D03*
X0003200787Y0003003937D03*
X0003220472Y0003019685D03*
X0003240157Y0003039370D03*
X0003259842Y0003051181D03*
X0003279527Y0003062992D03*
X0003299212Y0003062992D03*
X0003318897Y0003062992D03*
X0003267716Y0002944881D03*
X0003287401Y0002964566D03*
X0003311023Y0002980314D03*
X0003334645Y0002980314D03*
X0003291338Y0002988188D03*
X0003267716Y0002964566D03*
X0003314960Y0003000000D03*
X0003338582Y0003000000D03*
X0003358267Y0002988188D03*
X0003377952Y0002988188D03*
X0003397637Y0002988188D03*
X0003417322Y0002988188D03*
X0003437007Y0002988188D03*
X0003456692Y0002988188D03*
X0003476377Y0002988188D03*
X0003515748Y0002988188D03*
X0003535433Y0002988188D03*
X0003496062Y0002988188D03*
X0003574803Y0002988188D03*
X0003555118Y0002988188D03*
X0003614173Y0002988188D03*
X0003594488Y0002988188D03*
X0003653543Y0002988188D03*
X0003633858Y0002988188D03*
X0003732283Y0002988188D03*
X0003712598Y0002988188D03*
X0003751968Y0002988188D03*
X0003692913Y0002988188D03*
X0003673228Y0002988188D03*
X0003377952Y0002913385D03*
X0003397637Y0002913385D03*
X0003358267Y0002913385D03*
X0003732283Y0002913385D03*
X0003515748Y0002913385D03*
X0003496062Y0002913385D03*
X0003594488Y0002913385D03*
X0003437007Y0002913385D03*
X0003574803Y0002913385D03*
X0003653543Y0002913385D03*
X0003614173Y0002913385D03*
X0003555118Y0002913385D03*
X0003535433Y0002913385D03*
X0003417322Y0002913385D03*
X0003692913Y0002913385D03*
X0003633858Y0002913385D03*
X0003476377Y0002913385D03*
X0003673228Y0002913385D03*
X0003712598Y0002913385D03*
X0003751968Y0002913385D03*
X0003456692Y0002913385D03*
X0003338582Y0002913385D03*
X0003338582Y0002913385D03*
X0003338582Y0002913385D03*
X0003318897Y0002897637D03*
X0003303149Y0002877952D03*
X0003291338Y0002858267D03*
X0003271653Y0002846456D03*
X0003248031Y0002850393D03*
X0003228346Y0002862204D03*
X0003212598Y0002881889D03*
X0003212598Y0002881889D03*
X0003212598Y0002881889D03*
X0003196850Y0002901574D03*
X0003177165Y0002905511D03*
X0003157480Y0002905511D03*
X0003137795Y0002905511D03*
X0003118110Y0002913385D03*
X0003098425Y0002913385D03*
X0003665354Y0003208661D03*
X0003665354Y0003129921D03*
X0003665354Y0003169291D03*
X0003665354Y0003110236D03*
X0003665354Y0003149606D03*
X0003665354Y0003188976D03*
X0003665354Y0003228346D03*
X0003590551Y0003220472D03*
X0003590551Y0003200787D03*
X0003590551Y0003181102D03*
X0003590551Y0003141732D03*
X0003590551Y0003122047D03*
X0003590551Y0003161417D03*
X0003574803Y0003102362D03*
X0003559055Y0003082677D03*
X0003535433Y0003070866D03*
X0003511810Y0003066929D03*
X0003452755Y0003070866D03*
X0003433070Y0003070866D03*
X0003413385Y0003070866D03*
X0003413385Y0003070866D03*
X0003413385Y0003070866D03*
X0003393700Y0003070866D03*
X0003661417Y0003090551D03*
X0003641732Y0003070866D03*
X0003622047Y0003051181D03*
X0003602362Y0003031496D03*
X0003582677Y0003015748D03*
X0003566929Y0003216535D03*
X0003543307Y0003216535D03*
X0003523622Y0003220472D03*
X0003500000Y0003224409D03*
X0003476377Y0003224409D03*
X0002440944Y0003838582D03*
X0002637795Y0003838582D03*
X0002539370Y0003740157D03*
X0002539370Y0003543307D03*
X0002440944Y0003641732D03*
X0002637795Y0003641732D03*
X0002342519Y0003543307D03*
X0002244094Y0003444881D03*
X0002145669Y0003346456D03*
X0002244094Y0003248031D03*
X0002145669Y0003149606D03*
X0002342519Y0003346456D03*
X0002440944Y0003444881D03*
X0002736220Y0003740157D03*
X0002736220Y0003543307D03*
X0002834645Y0003444881D03*
X0002736220Y0003149606D03*
X0002736220Y0003346456D03*
X0003228346Y0003740157D03*
X0003425196Y0003740157D03*
X0003326771Y0003838582D03*
X0003523622Y0003838582D03*
X0003523622Y0003641732D03*
X0003326771Y0003641732D03*
X0003228346Y0003543307D03*
X0003425196Y0003543307D03*
X0003622047Y0003543307D03*
X0003818897Y0003543307D03*
X0003720472Y0003444881D03*
X0003818897Y0003346456D03*
X0003622047Y0003346456D03*
X0003720472Y0003248031D03*
X0003720472Y0003051181D03*
X0003818897Y0003149606D03*
X0003720472Y0002854330D03*
X0003720472Y0002657480D03*
X0003720472Y0002460629D03*
X0003818897Y0002559055D03*
X0003818897Y0002755905D03*
X0003622047Y0002755905D03*
X0003622047Y0002559055D03*
X0003622047Y0002362204D03*
X0003523622Y0002460629D03*
X0003523622Y0002657480D03*
X0003523622Y0002854330D03*
X0003425196Y0002755905D03*
X0003425196Y0002559055D03*
X0002244094Y0003051181D03*
X0002244094Y0002854330D03*
X0002145669Y0002755905D03*
X0002342519Y0002755905D03*
X0002440944Y0002657480D03*
X0002539370Y0002559055D03*
X0002440944Y0002460629D03*
X0002342519Y0002362204D03*
X0002244094Y0002559055D03*
X0002145669Y0002657480D03*
X0002145669Y0002460629D03*
X0002440944Y0002263779D03*
X0002539370Y0002165354D03*
X0002539370Y0002362204D03*
X0002736220Y0002755905D03*
X0002637795Y0002854330D03*
X0002933070Y0002755905D03*
X0003523622Y0002263779D03*
X0002834645Y0003641732D03*
G04 #@! TO.N,+3.3VA*
X0002336614Y0002984251D03*
X0002311023Y0003007874D03*
X0003226377Y0003232283D03*
D35*
X0003192913Y0003464566D03*
X0003157480Y0003496062D03*
D39*
G04 #@! TO.N,/RF_PWR*
X0003277559Y0003381889D03*
G04 #@! TO.N,Net-(R1-Pad1)*
X0002408464Y0003049212D03*
X0002610236Y0002610236D03*
G04 #@! TO.N,Net-(R2-Pad1)*
X0002462656Y0003102593D03*
X0002714569Y0002604330D03*
G04 #@! TO.N,Net-(R3-Pad1)*
X0002485236Y0003090551D03*
X0002814960Y0002600885D03*
G04 #@! TO.N,Net-(R4-Pad1)*
X0002913385Y0002606299D03*
X0002505905Y0003109706D03*
G04 #@! TO.N,Net-(R5-Pad1)*
X0003015748Y0002602362D03*
X0002526575Y0003094488D03*
G04 #@! TO.N,Net-(R6-Pad1)*
X0003118110Y0002598425D03*
X0002544291Y0003113934D03*
G04 #@! TO.N,Net-(R7-Pad1)*
X0003214566Y0002602362D03*
X0002564960Y0003129921D03*
G04 #@! TO.N,/nP_S*
X0002387794Y0002972440D03*
X0003314960Y0002600393D03*
G04 #@! TD*
D40*
G04 #@! TO.N,GND*
G36*
X0003770046Y0003906276D02*
X0003798991Y0003898358D01*
X0003826076Y0003885439D01*
X0003850446Y0003867928D01*
X0003871329Y0003846378D01*
X0003888066Y0003821470D01*
X0003900127Y0003793993D01*
X0003907185Y0003764599D01*
X0003909055Y0003739132D01*
X0003909055Y0002979409D01*
X0003783464Y0002979409D01*
X0003781551Y0002979028D01*
X0003779929Y0002977945D01*
X0003778845Y0002976322D01*
X0003778464Y0002974409D01*
X0003778464Y0002923228D01*
X0003778845Y0002921314D01*
X0003779929Y0002919692D01*
X0003781551Y0002918608D01*
X0003783464Y0002918228D01*
X0003909055Y0002918228D01*
X0003909055Y0002245339D01*
X0003906276Y0002214205D01*
X0003898358Y0002185260D01*
X0003885439Y0002158175D01*
X0003867928Y0002133805D01*
X0003846378Y0002112922D01*
X0003821470Y0002096185D01*
X0003793993Y0002084123D01*
X0003764599Y0002077066D01*
X0003739132Y0002075196D01*
X0002245339Y0002075196D01*
X0002214205Y0002077975D01*
X0002185260Y0002085893D01*
X0002158175Y0002098812D01*
X0002133805Y0002116323D01*
X0002114559Y0002136184D01*
X0002143255Y0002136184D01*
X0002157702Y0002116679D01*
X0002213038Y0002093317D01*
X0002273102Y0002092909D01*
X0002328749Y0002115518D01*
X0002330486Y0002116679D01*
X0002344933Y0002136184D01*
X0002244094Y0002237023D01*
X0002143255Y0002136184D01*
X0002114559Y0002136184D01*
X0002112922Y0002137873D01*
X0002096185Y0002162781D01*
X0002084123Y0002190258D01*
X0002078163Y0002215086D01*
X0002092909Y0002215086D01*
X0002115518Y0002159439D01*
X0002116679Y0002157702D01*
X0002136184Y0002143255D01*
X0002237023Y0002244094D01*
X0002251165Y0002244094D01*
X0002352004Y0002143255D01*
X0002361907Y0002150590D01*
X0002607751Y0002150590D01*
X0002612136Y0002128546D01*
X0002624622Y0002109859D01*
X0002643310Y0002097372D01*
X0002659790Y0002094094D01*
X0002670918Y0002094094D01*
X0002687397Y0002097372D01*
X0002706085Y0002109859D01*
X0002715354Y0002123730D01*
X0002724622Y0002109859D01*
X0002743310Y0002097372D01*
X0002759790Y0002094094D01*
X0002770918Y0002094094D01*
X0002787397Y0002097372D01*
X0002806085Y0002109859D01*
X0002815354Y0002123730D01*
X0002824622Y0002109859D01*
X0002843310Y0002097372D01*
X0002859790Y0002094094D01*
X0002870918Y0002094094D01*
X0002887397Y0002097372D01*
X0002906085Y0002109859D01*
X0002915354Y0002123730D01*
X0002924622Y0002109859D01*
X0002943310Y0002097372D01*
X0002959790Y0002094094D01*
X0002970918Y0002094094D01*
X0002987397Y0002097372D01*
X0003006085Y0002109859D01*
X0003015354Y0002123730D01*
X0003024622Y0002109859D01*
X0003043310Y0002097372D01*
X0003059790Y0002094094D01*
X0003070918Y0002094094D01*
X0003087397Y0002097372D01*
X0003106085Y0002109859D01*
X0003115354Y0002123730D01*
X0003124622Y0002109859D01*
X0003143310Y0002097372D01*
X0003159790Y0002094094D01*
X0003170918Y0002094094D01*
X0003187397Y0002097372D01*
X0003206085Y0002109859D01*
X0003215354Y0002123730D01*
X0003224622Y0002109859D01*
X0003243310Y0002097372D01*
X0003259790Y0002094094D01*
X0003270918Y0002094094D01*
X0003287397Y0002097372D01*
X0003306085Y0002109859D01*
X0003315354Y0002123730D01*
X0003324622Y0002109859D01*
X0003343310Y0002097372D01*
X0003359790Y0002094094D01*
X0003370918Y0002094094D01*
X0003387397Y0002097372D01*
X0003406085Y0002109859D01*
X0003418572Y0002128546D01*
X0003420091Y0002136184D01*
X0003639318Y0002136184D01*
X0003653765Y0002116679D01*
X0003709101Y0002093317D01*
X0003769165Y0002092909D01*
X0003824812Y0002115518D01*
X0003826549Y0002116679D01*
X0003840996Y0002136184D01*
X0003740157Y0002237023D01*
X0003639318Y0002136184D01*
X0003420091Y0002136184D01*
X0003422957Y0002150590D01*
X0003418572Y0002172634D01*
X0003406085Y0002191321D01*
X0003387397Y0002203808D01*
X0003370918Y0002207086D01*
X0003359790Y0002207086D01*
X0003343310Y0002203808D01*
X0003324622Y0002191321D01*
X0003315354Y0002177450D01*
X0003306085Y0002191321D01*
X0003287397Y0002203808D01*
X0003270918Y0002207086D01*
X0003259790Y0002207086D01*
X0003243310Y0002203808D01*
X0003224622Y0002191321D01*
X0003215354Y0002177450D01*
X0003206085Y0002191321D01*
X0003187397Y0002203808D01*
X0003170918Y0002207086D01*
X0003159790Y0002207086D01*
X0003143310Y0002203808D01*
X0003124622Y0002191321D01*
X0003115354Y0002177450D01*
X0003106085Y0002191321D01*
X0003087397Y0002203808D01*
X0003070918Y0002207086D01*
X0003059790Y0002207086D01*
X0003043310Y0002203808D01*
X0003024622Y0002191321D01*
X0003015354Y0002177450D01*
X0003006085Y0002191321D01*
X0002987397Y0002203808D01*
X0002970918Y0002207086D01*
X0002959790Y0002207086D01*
X0002943310Y0002203808D01*
X0002924622Y0002191321D01*
X0002915354Y0002177450D01*
X0002906085Y0002191321D01*
X0002887397Y0002203808D01*
X0002870918Y0002207086D01*
X0002859790Y0002207086D01*
X0002843310Y0002203808D01*
X0002824622Y0002191321D01*
X0002815354Y0002177450D01*
X0002806085Y0002191321D01*
X0002787397Y0002203808D01*
X0002770918Y0002207086D01*
X0002759790Y0002207086D01*
X0002743310Y0002203808D01*
X0002724622Y0002191321D01*
X0002715354Y0002177450D01*
X0002706085Y0002191321D01*
X0002687397Y0002203808D01*
X0002670918Y0002207086D01*
X0002659790Y0002207086D01*
X0002643310Y0002203808D01*
X0002624622Y0002191321D01*
X0002612136Y0002172634D01*
X0002607751Y0002150590D01*
X0002361907Y0002150590D01*
X0002371509Y0002157702D01*
X0002394871Y0002213038D01*
X0002394885Y0002215086D01*
X0003588972Y0002215086D01*
X0003611581Y0002159439D01*
X0003612742Y0002157702D01*
X0003632247Y0002143255D01*
X0003733086Y0002244094D01*
X0003747228Y0002244094D01*
X0003848067Y0002143255D01*
X0003867572Y0002157702D01*
X0003890934Y0002213038D01*
X0003891342Y0002273102D01*
X0003868733Y0002328749D01*
X0003867572Y0002330486D01*
X0003848067Y0002344933D01*
X0003747228Y0002244094D01*
X0003733086Y0002244094D01*
X0003632247Y0002344933D01*
X0003612742Y0002330486D01*
X0003589380Y0002275150D01*
X0003588972Y0002215086D01*
X0002394885Y0002215086D01*
X0002395279Y0002273102D01*
X0002372670Y0002328749D01*
X0002371509Y0002330486D01*
X0002352004Y0002344933D01*
X0002251165Y0002244094D01*
X0002237023Y0002244094D01*
X0002136184Y0002344933D01*
X0002116679Y0002330486D01*
X0002093317Y0002275150D01*
X0002092909Y0002215086D01*
X0002078163Y0002215086D01*
X0002077066Y0002219652D01*
X0002075196Y0002245119D01*
X0002075196Y0002352004D01*
X0002143255Y0002352004D01*
X0002244094Y0002251165D01*
X0002344933Y0002352004D01*
X0003639318Y0002352004D01*
X0003740157Y0002251165D01*
X0003840996Y0002352004D01*
X0003826549Y0002371509D01*
X0003771213Y0002394871D01*
X0003711149Y0002395279D01*
X0003655502Y0002372670D01*
X0003653765Y0002371509D01*
X0003639318Y0002352004D01*
X0002344933Y0002352004D01*
X0002330486Y0002371509D01*
X0002275150Y0002394871D01*
X0002215086Y0002395279D01*
X0002159439Y0002372670D01*
X0002157702Y0002371509D01*
X0002143255Y0002352004D01*
X0002075196Y0002352004D01*
X0002075196Y0002535433D01*
X0002156417Y0002535433D01*
X0002156417Y0002442913D01*
X0002156797Y0002440999D01*
X0002157881Y0002439377D01*
X0002159503Y0002438293D01*
X0002161417Y0002437913D01*
X0002401574Y0002437913D01*
X0002403488Y0002438293D01*
X0002405110Y0002439377D01*
X0002406194Y0002440999D01*
X0002406574Y0002442913D01*
X0002406574Y0002462401D01*
X0002607751Y0002462401D01*
X0002612136Y0002440357D01*
X0002624622Y0002421670D01*
X0002643310Y0002409183D01*
X0002659790Y0002405905D01*
X0002670918Y0002405905D01*
X0002687397Y0002409183D01*
X0002706085Y0002421670D01*
X0002715354Y0002435541D01*
X0002724622Y0002421670D01*
X0002743310Y0002409183D01*
X0002759790Y0002405905D01*
X0002770918Y0002405905D01*
X0002787397Y0002409183D01*
X0002806085Y0002421670D01*
X0002815354Y0002435541D01*
X0002824622Y0002421670D01*
X0002843310Y0002409183D01*
X0002859790Y0002405905D01*
X0002870918Y0002405905D01*
X0002887397Y0002409183D01*
X0002906085Y0002421670D01*
X0002915354Y0002435541D01*
X0002924622Y0002421670D01*
X0002943310Y0002409183D01*
X0002959790Y0002405905D01*
X0002970918Y0002405905D01*
X0002987397Y0002409183D01*
X0003006085Y0002421670D01*
X0003015354Y0002435541D01*
X0003024622Y0002421670D01*
X0003043310Y0002409183D01*
X0003059790Y0002405905D01*
X0003070918Y0002405905D01*
X0003087397Y0002409183D01*
X0003106085Y0002421670D01*
X0003115354Y0002435541D01*
X0003124622Y0002421670D01*
X0003143310Y0002409183D01*
X0003159790Y0002405905D01*
X0003170918Y0002405905D01*
X0003187397Y0002409183D01*
X0003206085Y0002421670D01*
X0003215354Y0002435541D01*
X0003224622Y0002421670D01*
X0003243310Y0002409183D01*
X0003259790Y0002405905D01*
X0003270918Y0002405905D01*
X0003287397Y0002409183D01*
X0003306085Y0002421670D01*
X0003309260Y0002426421D01*
X0003310308Y0002421150D01*
X0003315834Y0002412881D01*
X0003324103Y0002407356D01*
X0003333858Y0002405415D01*
X0003396850Y0002405415D01*
X0003406604Y0002407356D01*
X0003414874Y0002412881D01*
X0003420399Y0002421150D01*
X0003422340Y0002430905D01*
X0003422340Y0002493897D01*
X0003420399Y0002503652D01*
X0003414874Y0002511921D01*
X0003406604Y0002517447D01*
X0003396850Y0002519387D01*
X0003333858Y0002519387D01*
X0003324103Y0002517447D01*
X0003315834Y0002511921D01*
X0003310308Y0002503652D01*
X0003309260Y0002498381D01*
X0003306085Y0002503132D01*
X0003287397Y0002515619D01*
X0003270918Y0002518897D01*
X0003259790Y0002518897D01*
X0003243310Y0002515619D01*
X0003224622Y0002503132D01*
X0003215354Y0002489261D01*
X0003206085Y0002503132D01*
X0003187397Y0002515619D01*
X0003170918Y0002518897D01*
X0003159790Y0002518897D01*
X0003143310Y0002515619D01*
X0003124622Y0002503132D01*
X0003115354Y0002489261D01*
X0003106085Y0002503132D01*
X0003087397Y0002515619D01*
X0003070918Y0002518897D01*
X0003059790Y0002518897D01*
X0003043310Y0002515619D01*
X0003024622Y0002503132D01*
X0003015354Y0002489261D01*
X0003006085Y0002503132D01*
X0002987397Y0002515619D01*
X0002970918Y0002518897D01*
X0002959790Y0002518897D01*
X0002943310Y0002515619D01*
X0002924622Y0002503132D01*
X0002915354Y0002489261D01*
X0002906085Y0002503132D01*
X0002887397Y0002515619D01*
X0002870918Y0002518897D01*
X0002859790Y0002518897D01*
X0002843310Y0002515619D01*
X0002824622Y0002503132D01*
X0002815354Y0002489261D01*
X0002806085Y0002503132D01*
X0002787397Y0002515619D01*
X0002770918Y0002518897D01*
X0002759790Y0002518897D01*
X0002743310Y0002515619D01*
X0002724622Y0002503132D01*
X0002715354Y0002489261D01*
X0002706085Y0002503132D01*
X0002687397Y0002515619D01*
X0002670918Y0002518897D01*
X0002659790Y0002518897D01*
X0002643310Y0002515619D01*
X0002624622Y0002503132D01*
X0002612136Y0002484445D01*
X0002607751Y0002462401D01*
X0002406574Y0002462401D01*
X0002406574Y0002535433D01*
X0002406194Y0002537346D01*
X0002405110Y0002538968D01*
X0002403488Y0002540052D01*
X0002401574Y0002540433D01*
X0002161417Y0002540433D01*
X0002159503Y0002540052D01*
X0002157881Y0002538968D01*
X0002156797Y0002537346D01*
X0002156417Y0002535433D01*
X0002075196Y0002535433D01*
X0002075196Y0002616971D01*
X0002576377Y0002616971D01*
X0002576377Y0002603501D01*
X0002581532Y0002591057D01*
X0002591057Y0002581532D01*
X0002603501Y0002576377D01*
X0002616971Y0002576377D01*
X0002629415Y0002581532D01*
X0002638939Y0002591057D01*
X0002644094Y0002603501D01*
X0002644094Y0002611065D01*
X0002680710Y0002611065D01*
X0002680710Y0002597595D01*
X0002685865Y0002585151D01*
X0002695389Y0002575627D01*
X0002707834Y0002570472D01*
X0002721303Y0002570472D01*
X0002733748Y0002575627D01*
X0002743272Y0002585151D01*
X0002748427Y0002597595D01*
X0002748427Y0002607620D01*
X0002781102Y0002607620D01*
X0002781102Y0002594150D01*
X0002786257Y0002581706D01*
X0002795781Y0002572181D01*
X0002808225Y0002567026D01*
X0002821695Y0002567026D01*
X0002834139Y0002572181D01*
X0002843664Y0002581706D01*
X0002848818Y0002594150D01*
X0002848818Y0002607620D01*
X0002846576Y0002613034D01*
X0002879527Y0002613034D01*
X0002879527Y0002599564D01*
X0002884682Y0002587120D01*
X0002894206Y0002577595D01*
X0002906650Y0002572440D01*
X0002920120Y0002572440D01*
X0002932565Y0002577595D01*
X0002942089Y0002587120D01*
X0002947244Y0002599564D01*
X0002947244Y0002609097D01*
X0002981889Y0002609097D01*
X0002981889Y0002595627D01*
X0002987044Y0002583183D01*
X0002996568Y0002573658D01*
X0003009013Y0002568503D01*
X0003022482Y0002568503D01*
X0003034927Y0002573658D01*
X0003044451Y0002583183D01*
X0003049606Y0002595627D01*
X0003049606Y0002605160D01*
X0003084251Y0002605160D01*
X0003084251Y0002591690D01*
X0003089406Y0002579246D01*
X0003098931Y0002569721D01*
X0003111375Y0002564566D01*
X0003124845Y0002564566D01*
X0003137289Y0002569721D01*
X0003146813Y0002579246D01*
X0003151968Y0002591690D01*
X0003151968Y0002605160D01*
X0003150337Y0002609097D01*
X0003180708Y0002609097D01*
X0003180708Y0002595627D01*
X0003185863Y0002583183D01*
X0003195387Y0002573658D01*
X0003207832Y0002568503D01*
X0003221301Y0002568503D01*
X0003233746Y0002573658D01*
X0003243270Y0002583183D01*
X0003248425Y0002595627D01*
X0003248425Y0002607128D01*
X0003281102Y0002607128D01*
X0003281102Y0002593658D01*
X0003286256Y0002581214D01*
X0003295781Y0002571690D01*
X0003308225Y0002566535D01*
X0003321695Y0002566535D01*
X0003334139Y0002571690D01*
X0003343664Y0002581214D01*
X0003348818Y0002593658D01*
X0003348818Y0002607128D01*
X0003343664Y0002619572D01*
X0003334139Y0002629097D01*
X0003321695Y0002634251D01*
X0003308225Y0002634251D01*
X0003295781Y0002629097D01*
X0003286256Y0002619572D01*
X0003281102Y0002607128D01*
X0003248425Y0002607128D01*
X0003248425Y0002609097D01*
X0003243270Y0002621541D01*
X0003233746Y0002631065D01*
X0003221301Y0002636220D01*
X0003207832Y0002636220D01*
X0003195387Y0002631065D01*
X0003185863Y0002621541D01*
X0003180708Y0002609097D01*
X0003150337Y0002609097D01*
X0003146813Y0002617604D01*
X0003137289Y0002627128D01*
X0003124845Y0002632283D01*
X0003111375Y0002632283D01*
X0003098931Y0002627128D01*
X0003089406Y0002617604D01*
X0003084251Y0002605160D01*
X0003049606Y0002605160D01*
X0003049606Y0002609097D01*
X0003044451Y0002621541D01*
X0003034927Y0002631065D01*
X0003022482Y0002636220D01*
X0003009013Y0002636220D01*
X0002996568Y0002631065D01*
X0002987044Y0002621541D01*
X0002981889Y0002609097D01*
X0002947244Y0002609097D01*
X0002947244Y0002613034D01*
X0002942089Y0002625478D01*
X0002932565Y0002635002D01*
X0002920120Y0002640157D01*
X0002906650Y0002640157D01*
X0002894206Y0002635002D01*
X0002884682Y0002625478D01*
X0002879527Y0002613034D01*
X0002846576Y0002613034D01*
X0002843664Y0002620064D01*
X0002834139Y0002629588D01*
X0002821695Y0002634743D01*
X0002808225Y0002634743D01*
X0002795781Y0002629588D01*
X0002786257Y0002620064D01*
X0002781102Y0002607620D01*
X0002748427Y0002607620D01*
X0002748427Y0002611065D01*
X0002743272Y0002623509D01*
X0002733748Y0002633034D01*
X0002721303Y0002638188D01*
X0002707834Y0002638188D01*
X0002695389Y0002633034D01*
X0002685865Y0002623509D01*
X0002680710Y0002611065D01*
X0002644094Y0002611065D01*
X0002644094Y0002616971D01*
X0002638939Y0002629415D01*
X0002629415Y0002638939D01*
X0002616971Y0002644094D01*
X0002603501Y0002644094D01*
X0002591057Y0002638939D01*
X0002581532Y0002629415D01*
X0002576377Y0002616971D01*
X0002075196Y0002616971D01*
X0002075196Y0002918228D01*
X0002192913Y0002918228D01*
X0002194826Y0002918608D01*
X0002196448Y0002919692D01*
X0002197532Y0002921314D01*
X0002197913Y0002923228D01*
X0002197913Y0002974409D01*
X0002197532Y0002976322D01*
X0002196448Y0002977945D01*
X0002194826Y0002979028D01*
X0002192913Y0002979409D01*
X0002075196Y0002979409D01*
X0002075196Y0003014608D01*
X0002277165Y0003014608D01*
X0002277165Y0003001139D01*
X0002282320Y0002988694D01*
X0002291844Y0002979170D01*
X0002304189Y0002974057D01*
X0002307910Y0002965072D01*
X0002317435Y0002955548D01*
X0002329879Y0002950393D01*
X0002343348Y0002950393D01*
X0002355793Y0002955548D01*
X0002357455Y0002957210D01*
X0002359091Y0002953261D01*
X0002368615Y0002943737D01*
X0002381060Y0002938582D01*
X0002394529Y0002938582D01*
X0002406974Y0002943737D01*
X0002416498Y0002953261D01*
X0002421653Y0002965706D01*
X0002421653Y0002979175D01*
X0002416498Y0002991620D01*
X0002406974Y0003001144D01*
X0002394529Y0003006299D01*
X0002381060Y0003006299D01*
X0002368615Y0003001144D01*
X0002366953Y0002999482D01*
X0002365317Y0003003431D01*
X0002355793Y0003012955D01*
X0002343448Y0003018068D01*
X0002339727Y0003027053D01*
X0002330202Y0003036577D01*
X0002317758Y0003041732D01*
X0002304288Y0003041732D01*
X0002291844Y0003036577D01*
X0002282320Y0003027053D01*
X0002277165Y0003014608D01*
X0002075196Y0003014608D01*
X0002075196Y0003055947D01*
X0002374605Y0003055947D01*
X0002374605Y0003042477D01*
X0002379760Y0003030033D01*
X0002389285Y0003020508D01*
X0002401729Y0003015354D01*
X0002415199Y0003015354D01*
X0002427643Y0003020508D01*
X0002437167Y0003030033D01*
X0002442322Y0003042477D01*
X0002442322Y0003055947D01*
X0002437167Y0003068391D01*
X0002427643Y0003077916D01*
X0002415199Y0003083070D01*
X0002401729Y0003083070D01*
X0002389285Y0003077916D01*
X0002379760Y0003068391D01*
X0002374605Y0003055947D01*
X0002075196Y0003055947D01*
X0002075196Y0003109328D01*
X0002428797Y0003109328D01*
X0002428797Y0003095858D01*
X0002433952Y0003083414D01*
X0002443477Y0003073890D01*
X0002455921Y0003068735D01*
X0002459169Y0003068735D01*
X0002466057Y0003061847D01*
X0002478501Y0003056692D01*
X0002491971Y0003056692D01*
X0002504415Y0003061847D01*
X0002508072Y0003065504D01*
X0002519840Y0003060629D01*
X0002533310Y0003060629D01*
X0002545754Y0003065784D01*
X0002555278Y0003075309D01*
X0002558543Y0003083190D01*
X0002563470Y0003085231D01*
X0002572994Y0003094755D01*
X0002573917Y0003096983D01*
X0002584139Y0003101217D01*
X0002593664Y0003110742D01*
X0002598818Y0003123186D01*
X0002598818Y0003136656D01*
X0002593664Y0003149100D01*
X0002584139Y0003158624D01*
X0002571695Y0003163779D01*
X0002558225Y0003163779D01*
X0002545781Y0003158624D01*
X0002536257Y0003149100D01*
X0002535334Y0003146872D01*
X0002525112Y0003142638D01*
X0002522114Y0003139640D01*
X0002512640Y0003143565D01*
X0002499170Y0003143565D01*
X0002486726Y0003138410D01*
X0002480264Y0003131948D01*
X0002469391Y0003136452D01*
X0002455921Y0003136452D01*
X0002443477Y0003131297D01*
X0002433952Y0003121772D01*
X0002428797Y0003109328D01*
X0002075196Y0003109328D01*
X0002075196Y0003360629D01*
X0002471886Y0003360629D01*
X0002476423Y0003337818D01*
X0002489345Y0003318479D01*
X0002501092Y0003310629D01*
X0002489345Y0003302780D01*
X0002476423Y0003283441D01*
X0002471886Y0003260629D01*
X0002476423Y0003237818D01*
X0002489345Y0003218479D01*
X0002508684Y0003205557D01*
X0002525737Y0003202165D01*
X0002537254Y0003202165D01*
X0002554307Y0003205557D01*
X0002573646Y0003218479D01*
X0002581496Y0003230226D01*
X0002589345Y0003218479D01*
X0002608684Y0003205557D01*
X0002625737Y0003202165D01*
X0002637254Y0003202165D01*
X0002654307Y0003205557D01*
X0002673646Y0003218479D01*
X0002686568Y0003237818D01*
X0002686807Y0003239018D01*
X0003192519Y0003239018D01*
X0003192519Y0003225548D01*
X0003197674Y0003213104D01*
X0003207198Y0003203579D01*
X0003219643Y0003198425D01*
X0003233112Y0003198425D01*
X0003245557Y0003203579D01*
X0003255081Y0003213104D01*
X0003260236Y0003225548D01*
X0003260236Y0003239018D01*
X0003255081Y0003251462D01*
X0003245557Y0003260987D01*
X0003233112Y0003266141D01*
X0003219643Y0003266141D01*
X0003207198Y0003260987D01*
X0003197674Y0003251462D01*
X0003192519Y0003239018D01*
X0002686807Y0003239018D01*
X0002691105Y0003260629D01*
X0002686568Y0003283441D01*
X0002673646Y0003302780D01*
X0002661083Y0003311174D01*
X0002666195Y0003313575D01*
X0002681560Y0003330436D01*
X0002688247Y0003346579D01*
X0002683470Y0003355629D01*
X0002636496Y0003355629D01*
X0002636496Y0003354842D01*
X0002626496Y0003354842D01*
X0002626496Y0003355629D01*
X0002625708Y0003355629D01*
X0002625708Y0003365629D01*
X0002626496Y0003365629D01*
X0002626496Y0003366417D01*
X0002636496Y0003366417D01*
X0002636496Y0003365629D01*
X0002683470Y0003365629D01*
X0002688247Y0003374680D01*
X0002682471Y0003388624D01*
X0003243700Y0003388624D01*
X0003243700Y0003375154D01*
X0003248855Y0003362710D01*
X0003258379Y0003353186D01*
X0003270824Y0003348031D01*
X0003284293Y0003348031D01*
X0003296738Y0003353186D01*
X0003306262Y0003362710D01*
X0003311417Y0003375154D01*
X0003311417Y0003388624D01*
X0003306262Y0003401068D01*
X0003296738Y0003410593D01*
X0003284293Y0003415748D01*
X0003270824Y0003415748D01*
X0003258379Y0003410593D01*
X0003248855Y0003401068D01*
X0003243700Y0003388624D01*
X0002682471Y0003388624D01*
X0002681560Y0003390823D01*
X0002666195Y0003407684D01*
X0002661083Y0003410084D01*
X0002673646Y0003418479D01*
X0002686568Y0003437818D01*
X0002691105Y0003460629D01*
X0002686568Y0003483441D01*
X0002673646Y0003502780D01*
X0002671569Y0003504168D01*
X0003116732Y0003504168D01*
X0003116732Y0003487957D01*
X0003122935Y0003472981D01*
X0003134398Y0003461518D01*
X0003149375Y0003455314D01*
X0003152640Y0003455314D01*
X0003158368Y0003441485D01*
X0003169831Y0003430022D01*
X0003184808Y0003423818D01*
X0003201018Y0003423818D01*
X0003215995Y0003430022D01*
X0003227457Y0003441485D01*
X0003233661Y0003456461D01*
X0003233661Y0003472672D01*
X0003227457Y0003487648D01*
X0003215995Y0003499111D01*
X0003201018Y0003505314D01*
X0003197753Y0003505314D01*
X0003192024Y0003519144D01*
X0003180562Y0003530607D01*
X0003165585Y0003536811D01*
X0003149375Y0003536811D01*
X0003134398Y0003530607D01*
X0003122935Y0003519144D01*
X0003116732Y0003504168D01*
X0002671569Y0003504168D01*
X0002654307Y0003515702D01*
X0002637254Y0003519094D01*
X0002625737Y0003519094D01*
X0002608684Y0003515702D01*
X0002589345Y0003502780D01*
X0002588865Y0003502062D01*
X0002588510Y0003503849D01*
X0002582984Y0003512118D01*
X0002574715Y0003517643D01*
X0002564960Y0003519584D01*
X0002498031Y0003519584D01*
X0002488276Y0003517643D01*
X0002480007Y0003512118D01*
X0002474482Y0003503849D01*
X0002472541Y0003494094D01*
X0002472541Y0003427165D01*
X0002474482Y0003417410D01*
X0002480007Y0003409141D01*
X0002488276Y0003403615D01*
X0002490063Y0003403260D01*
X0002489345Y0003402780D01*
X0002476423Y0003383441D01*
X0002471886Y0003360629D01*
X0002075196Y0003360629D01*
X0002075196Y0003632247D01*
X0002143255Y0003632247D01*
X0002157702Y0003612742D01*
X0002213038Y0003589380D01*
X0002273102Y0003588972D01*
X0002328749Y0003611581D01*
X0002330486Y0003612742D01*
X0002344933Y0003632247D01*
X0003639318Y0003632247D01*
X0003653765Y0003612742D01*
X0003709101Y0003589380D01*
X0003769165Y0003588972D01*
X0003824812Y0003611581D01*
X0003826549Y0003612742D01*
X0003840996Y0003632247D01*
X0003740157Y0003733086D01*
X0003639318Y0003632247D01*
X0002344933Y0003632247D01*
X0002244094Y0003733086D01*
X0002143255Y0003632247D01*
X0002075196Y0003632247D01*
X0002075196Y0003711149D01*
X0002092909Y0003711149D01*
X0002115518Y0003655502D01*
X0002116679Y0003653765D01*
X0002136184Y0003639318D01*
X0002237023Y0003740157D01*
X0002251165Y0003740157D01*
X0002352004Y0003639318D01*
X0002371509Y0003653765D01*
X0002394871Y0003709101D01*
X0002394885Y0003711149D01*
X0003588972Y0003711149D01*
X0003611581Y0003655502D01*
X0003612742Y0003653765D01*
X0003632247Y0003639318D01*
X0003733086Y0003740157D01*
X0003747228Y0003740157D01*
X0003848067Y0003639318D01*
X0003867572Y0003653765D01*
X0003890934Y0003709101D01*
X0003891342Y0003769165D01*
X0003868733Y0003824812D01*
X0003867572Y0003826549D01*
X0003848067Y0003840996D01*
X0003747228Y0003740157D01*
X0003733086Y0003740157D01*
X0003632247Y0003840996D01*
X0003612742Y0003826549D01*
X0003589380Y0003771213D01*
X0003588972Y0003711149D01*
X0002394885Y0003711149D01*
X0002395279Y0003769165D01*
X0002381375Y0003803385D01*
X0002884448Y0003803385D01*
X0002884448Y0003788740D01*
X0002890052Y0003775211D01*
X0002900408Y0003764856D01*
X0002913937Y0003759251D01*
X0002928582Y0003759251D01*
X0002942111Y0003764856D01*
X0002952466Y0003775211D01*
X0002958070Y0003788740D01*
X0002958070Y0003803385D01*
X0003041929Y0003803385D01*
X0003041929Y0003788740D01*
X0003047533Y0003775211D01*
X0003057888Y0003764856D01*
X0003071417Y0003759251D01*
X0003086062Y0003759251D01*
X0003099591Y0003764856D01*
X0003109947Y0003775211D01*
X0003115551Y0003788740D01*
X0003115551Y0003803385D01*
X0003109947Y0003816914D01*
X0003099591Y0003827269D01*
X0003086062Y0003832874D01*
X0003071417Y0003832874D01*
X0003057888Y0003827269D01*
X0003047533Y0003816914D01*
X0003041929Y0003803385D01*
X0002958070Y0003803385D01*
X0002952466Y0003816914D01*
X0002942111Y0003827269D01*
X0002928582Y0003832874D01*
X0002913937Y0003832874D01*
X0002900408Y0003827269D01*
X0002890052Y0003816914D01*
X0002884448Y0003803385D01*
X0002381375Y0003803385D01*
X0002372670Y0003824812D01*
X0002371509Y0003826549D01*
X0002352004Y0003840996D01*
X0002251165Y0003740157D01*
X0002237023Y0003740157D01*
X0002136184Y0003840996D01*
X0002116679Y0003826549D01*
X0002093317Y0003771213D01*
X0002092909Y0003711149D01*
X0002075196Y0003711149D01*
X0002075196Y0003738912D01*
X0002077975Y0003770046D01*
X0002085893Y0003798991D01*
X0002098812Y0003826076D01*
X0002114614Y0003848067D01*
X0002143255Y0003848067D01*
X0002244094Y0003747228D01*
X0002344933Y0003848067D01*
X0003639318Y0003848067D01*
X0003740157Y0003747228D01*
X0003840996Y0003848067D01*
X0003826549Y0003867572D01*
X0003771213Y0003890934D01*
X0003711149Y0003891342D01*
X0003655502Y0003868733D01*
X0003653765Y0003867572D01*
X0003639318Y0003848067D01*
X0002344933Y0003848067D01*
X0002330486Y0003867572D01*
X0002275150Y0003890934D01*
X0002215086Y0003891342D01*
X0002159439Y0003868733D01*
X0002157702Y0003867572D01*
X0002143255Y0003848067D01*
X0002114614Y0003848067D01*
X0002116323Y0003850446D01*
X0002137873Y0003871329D01*
X0002162781Y0003888066D01*
X0002190258Y0003900127D01*
X0002219652Y0003907185D01*
X0002245119Y0003909055D01*
X0003738912Y0003909055D01*
X0003770046Y0003906276D01*
X0003770046Y0003906276D01*
G37*
X0003770046Y0003906276D02*
X0003798991Y0003898358D01*
X0003826076Y0003885439D01*
X0003850446Y0003867928D01*
X0003871329Y0003846378D01*
X0003888066Y0003821470D01*
X0003900127Y0003793993D01*
X0003907185Y0003764599D01*
X0003909055Y0003739132D01*
X0003909055Y0002979409D01*
X0003783464Y0002979409D01*
X0003781551Y0002979028D01*
X0003779929Y0002977945D01*
X0003778845Y0002976322D01*
X0003778464Y0002974409D01*
X0003778464Y0002923228D01*
X0003778845Y0002921314D01*
X0003779929Y0002919692D01*
X0003781551Y0002918608D01*
X0003783464Y0002918228D01*
X0003909055Y0002918228D01*
X0003909055Y0002245339D01*
X0003906276Y0002214205D01*
X0003898358Y0002185260D01*
X0003885439Y0002158175D01*
X0003867928Y0002133805D01*
X0003846378Y0002112922D01*
X0003821470Y0002096185D01*
X0003793993Y0002084123D01*
X0003764599Y0002077066D01*
X0003739132Y0002075196D01*
X0002245339Y0002075196D01*
X0002214205Y0002077975D01*
X0002185260Y0002085893D01*
X0002158175Y0002098812D01*
X0002133805Y0002116323D01*
X0002114559Y0002136184D01*
X0002143255Y0002136184D01*
X0002157702Y0002116679D01*
X0002213038Y0002093317D01*
X0002273102Y0002092909D01*
X0002328749Y0002115518D01*
X0002330486Y0002116679D01*
X0002344933Y0002136184D01*
X0002244094Y0002237023D01*
X0002143255Y0002136184D01*
X0002114559Y0002136184D01*
X0002112922Y0002137873D01*
X0002096185Y0002162781D01*
X0002084123Y0002190258D01*
X0002078163Y0002215086D01*
X0002092909Y0002215086D01*
X0002115518Y0002159439D01*
X0002116679Y0002157702D01*
X0002136184Y0002143255D01*
X0002237023Y0002244094D01*
X0002251165Y0002244094D01*
X0002352004Y0002143255D01*
X0002361907Y0002150590D01*
X0002607751Y0002150590D01*
X0002612136Y0002128546D01*
X0002624622Y0002109859D01*
X0002643310Y0002097372D01*
X0002659790Y0002094094D01*
X0002670918Y0002094094D01*
X0002687397Y0002097372D01*
X0002706085Y0002109859D01*
X0002715354Y0002123730D01*
X0002724622Y0002109859D01*
X0002743310Y0002097372D01*
X0002759790Y0002094094D01*
X0002770918Y0002094094D01*
X0002787397Y0002097372D01*
X0002806085Y0002109859D01*
X0002815354Y0002123730D01*
X0002824622Y0002109859D01*
X0002843310Y0002097372D01*
X0002859790Y0002094094D01*
X0002870918Y0002094094D01*
X0002887397Y0002097372D01*
X0002906085Y0002109859D01*
X0002915354Y0002123730D01*
X0002924622Y0002109859D01*
X0002943310Y0002097372D01*
X0002959790Y0002094094D01*
X0002970918Y0002094094D01*
X0002987397Y0002097372D01*
X0003006085Y0002109859D01*
X0003015354Y0002123730D01*
X0003024622Y0002109859D01*
X0003043310Y0002097372D01*
X0003059790Y0002094094D01*
X0003070918Y0002094094D01*
X0003087397Y0002097372D01*
X0003106085Y0002109859D01*
X0003115354Y0002123730D01*
X0003124622Y0002109859D01*
X0003143310Y0002097372D01*
X0003159790Y0002094094D01*
X0003170918Y0002094094D01*
X0003187397Y0002097372D01*
X0003206085Y0002109859D01*
X0003215354Y0002123730D01*
X0003224622Y0002109859D01*
X0003243310Y0002097372D01*
X0003259790Y0002094094D01*
X0003270918Y0002094094D01*
X0003287397Y0002097372D01*
X0003306085Y0002109859D01*
X0003315354Y0002123730D01*
X0003324622Y0002109859D01*
X0003343310Y0002097372D01*
X0003359790Y0002094094D01*
X0003370918Y0002094094D01*
X0003387397Y0002097372D01*
X0003406085Y0002109859D01*
X0003418572Y0002128546D01*
X0003420091Y0002136184D01*
X0003639318Y0002136184D01*
X0003653765Y0002116679D01*
X0003709101Y0002093317D01*
X0003769165Y0002092909D01*
X0003824812Y0002115518D01*
X0003826549Y0002116679D01*
X0003840996Y0002136184D01*
X0003740157Y0002237023D01*
X0003639318Y0002136184D01*
X0003420091Y0002136184D01*
X0003422957Y0002150590D01*
X0003418572Y0002172634D01*
X0003406085Y0002191321D01*
X0003387397Y0002203808D01*
X0003370918Y0002207086D01*
X0003359790Y0002207086D01*
X0003343310Y0002203808D01*
X0003324622Y0002191321D01*
X0003315354Y0002177450D01*
X0003306085Y0002191321D01*
X0003287397Y0002203808D01*
X0003270918Y0002207086D01*
X0003259790Y0002207086D01*
X0003243310Y0002203808D01*
X0003224622Y0002191321D01*
X0003215354Y0002177450D01*
X0003206085Y0002191321D01*
X0003187397Y0002203808D01*
X0003170918Y0002207086D01*
X0003159790Y0002207086D01*
X0003143310Y0002203808D01*
X0003124622Y0002191321D01*
X0003115354Y0002177450D01*
X0003106085Y0002191321D01*
X0003087397Y0002203808D01*
X0003070918Y0002207086D01*
X0003059790Y0002207086D01*
X0003043310Y0002203808D01*
X0003024622Y0002191321D01*
X0003015354Y0002177450D01*
X0003006085Y0002191321D01*
X0002987397Y0002203808D01*
X0002970918Y0002207086D01*
X0002959790Y0002207086D01*
X0002943310Y0002203808D01*
X0002924622Y0002191321D01*
X0002915354Y0002177450D01*
X0002906085Y0002191321D01*
X0002887397Y0002203808D01*
X0002870918Y0002207086D01*
X0002859790Y0002207086D01*
X0002843310Y0002203808D01*
X0002824622Y0002191321D01*
X0002815354Y0002177450D01*
X0002806085Y0002191321D01*
X0002787397Y0002203808D01*
X0002770918Y0002207086D01*
X0002759790Y0002207086D01*
X0002743310Y0002203808D01*
X0002724622Y0002191321D01*
X0002715354Y0002177450D01*
X0002706085Y0002191321D01*
X0002687397Y0002203808D01*
X0002670918Y0002207086D01*
X0002659790Y0002207086D01*
X0002643310Y0002203808D01*
X0002624622Y0002191321D01*
X0002612136Y0002172634D01*
X0002607751Y0002150590D01*
X0002361907Y0002150590D01*
X0002371509Y0002157702D01*
X0002394871Y0002213038D01*
X0002394885Y0002215086D01*
X0003588972Y0002215086D01*
X0003611581Y0002159439D01*
X0003612742Y0002157702D01*
X0003632247Y0002143255D01*
X0003733086Y0002244094D01*
X0003747228Y0002244094D01*
X0003848067Y0002143255D01*
X0003867572Y0002157702D01*
X0003890934Y0002213038D01*
X0003891342Y0002273102D01*
X0003868733Y0002328749D01*
X0003867572Y0002330486D01*
X0003848067Y0002344933D01*
X0003747228Y0002244094D01*
X0003733086Y0002244094D01*
X0003632247Y0002344933D01*
X0003612742Y0002330486D01*
X0003589380Y0002275150D01*
X0003588972Y0002215086D01*
X0002394885Y0002215086D01*
X0002395279Y0002273102D01*
X0002372670Y0002328749D01*
X0002371509Y0002330486D01*
X0002352004Y0002344933D01*
X0002251165Y0002244094D01*
X0002237023Y0002244094D01*
X0002136184Y0002344933D01*
X0002116679Y0002330486D01*
X0002093317Y0002275150D01*
X0002092909Y0002215086D01*
X0002078163Y0002215086D01*
X0002077066Y0002219652D01*
X0002075196Y0002245119D01*
X0002075196Y0002352004D01*
X0002143255Y0002352004D01*
X0002244094Y0002251165D01*
X0002344933Y0002352004D01*
X0003639318Y0002352004D01*
X0003740157Y0002251165D01*
X0003840996Y0002352004D01*
X0003826549Y0002371509D01*
X0003771213Y0002394871D01*
X0003711149Y0002395279D01*
X0003655502Y0002372670D01*
X0003653765Y0002371509D01*
X0003639318Y0002352004D01*
X0002344933Y0002352004D01*
X0002330486Y0002371509D01*
X0002275150Y0002394871D01*
X0002215086Y0002395279D01*
X0002159439Y0002372670D01*
X0002157702Y0002371509D01*
X0002143255Y0002352004D01*
X0002075196Y0002352004D01*
X0002075196Y0002535433D01*
X0002156417Y0002535433D01*
X0002156417Y0002442913D01*
X0002156797Y0002440999D01*
X0002157881Y0002439377D01*
X0002159503Y0002438293D01*
X0002161417Y0002437913D01*
X0002401574Y0002437913D01*
X0002403488Y0002438293D01*
X0002405110Y0002439377D01*
X0002406194Y0002440999D01*
X0002406574Y0002442913D01*
X0002406574Y0002462401D01*
X0002607751Y0002462401D01*
X0002612136Y0002440357D01*
X0002624622Y0002421670D01*
X0002643310Y0002409183D01*
X0002659790Y0002405905D01*
X0002670918Y0002405905D01*
X0002687397Y0002409183D01*
X0002706085Y0002421670D01*
X0002715354Y0002435541D01*
X0002724622Y0002421670D01*
X0002743310Y0002409183D01*
X0002759790Y0002405905D01*
X0002770918Y0002405905D01*
X0002787397Y0002409183D01*
X0002806085Y0002421670D01*
X0002815354Y0002435541D01*
X0002824622Y0002421670D01*
X0002843310Y0002409183D01*
X0002859790Y0002405905D01*
X0002870918Y0002405905D01*
X0002887397Y0002409183D01*
X0002906085Y0002421670D01*
X0002915354Y0002435541D01*
X0002924622Y0002421670D01*
X0002943310Y0002409183D01*
X0002959790Y0002405905D01*
X0002970918Y0002405905D01*
X0002987397Y0002409183D01*
X0003006085Y0002421670D01*
X0003015354Y0002435541D01*
X0003024622Y0002421670D01*
X0003043310Y0002409183D01*
X0003059790Y0002405905D01*
X0003070918Y0002405905D01*
X0003087397Y0002409183D01*
X0003106085Y0002421670D01*
X0003115354Y0002435541D01*
X0003124622Y0002421670D01*
X0003143310Y0002409183D01*
X0003159790Y0002405905D01*
X0003170918Y0002405905D01*
X0003187397Y0002409183D01*
X0003206085Y0002421670D01*
X0003215354Y0002435541D01*
X0003224622Y0002421670D01*
X0003243310Y0002409183D01*
X0003259790Y0002405905D01*
X0003270918Y0002405905D01*
X0003287397Y0002409183D01*
X0003306085Y0002421670D01*
X0003309260Y0002426421D01*
X0003310308Y0002421150D01*
X0003315834Y0002412881D01*
X0003324103Y0002407356D01*
X0003333858Y0002405415D01*
X0003396850Y0002405415D01*
X0003406604Y0002407356D01*
X0003414874Y0002412881D01*
X0003420399Y0002421150D01*
X0003422340Y0002430905D01*
X0003422340Y0002493897D01*
X0003420399Y0002503652D01*
X0003414874Y0002511921D01*
X0003406604Y0002517447D01*
X0003396850Y0002519387D01*
X0003333858Y0002519387D01*
X0003324103Y0002517447D01*
X0003315834Y0002511921D01*
X0003310308Y0002503652D01*
X0003309260Y0002498381D01*
X0003306085Y0002503132D01*
X0003287397Y0002515619D01*
X0003270918Y0002518897D01*
X0003259790Y0002518897D01*
X0003243310Y0002515619D01*
X0003224622Y0002503132D01*
X0003215354Y0002489261D01*
X0003206085Y0002503132D01*
X0003187397Y0002515619D01*
X0003170918Y0002518897D01*
X0003159790Y0002518897D01*
X0003143310Y0002515619D01*
X0003124622Y0002503132D01*
X0003115354Y0002489261D01*
X0003106085Y0002503132D01*
X0003087397Y0002515619D01*
X0003070918Y0002518897D01*
X0003059790Y0002518897D01*
X0003043310Y0002515619D01*
X0003024622Y0002503132D01*
X0003015354Y0002489261D01*
X0003006085Y0002503132D01*
X0002987397Y0002515619D01*
X0002970918Y0002518897D01*
X0002959790Y0002518897D01*
X0002943310Y0002515619D01*
X0002924622Y0002503132D01*
X0002915354Y0002489261D01*
X0002906085Y0002503132D01*
X0002887397Y0002515619D01*
X0002870918Y0002518897D01*
X0002859790Y0002518897D01*
X0002843310Y0002515619D01*
X0002824622Y0002503132D01*
X0002815354Y0002489261D01*
X0002806085Y0002503132D01*
X0002787397Y0002515619D01*
X0002770918Y0002518897D01*
X0002759790Y0002518897D01*
X0002743310Y0002515619D01*
X0002724622Y0002503132D01*
X0002715354Y0002489261D01*
X0002706085Y0002503132D01*
X0002687397Y0002515619D01*
X0002670918Y0002518897D01*
X0002659790Y0002518897D01*
X0002643310Y0002515619D01*
X0002624622Y0002503132D01*
X0002612136Y0002484445D01*
X0002607751Y0002462401D01*
X0002406574Y0002462401D01*
X0002406574Y0002535433D01*
X0002406194Y0002537346D01*
X0002405110Y0002538968D01*
X0002403488Y0002540052D01*
X0002401574Y0002540433D01*
X0002161417Y0002540433D01*
X0002159503Y0002540052D01*
X0002157881Y0002538968D01*
X0002156797Y0002537346D01*
X0002156417Y0002535433D01*
X0002075196Y0002535433D01*
X0002075196Y0002616971D01*
X0002576377Y0002616971D01*
X0002576377Y0002603501D01*
X0002581532Y0002591057D01*
X0002591057Y0002581532D01*
X0002603501Y0002576377D01*
X0002616971Y0002576377D01*
X0002629415Y0002581532D01*
X0002638939Y0002591057D01*
X0002644094Y0002603501D01*
X0002644094Y0002611065D01*
X0002680710Y0002611065D01*
X0002680710Y0002597595D01*
X0002685865Y0002585151D01*
X0002695389Y0002575627D01*
X0002707834Y0002570472D01*
X0002721303Y0002570472D01*
X0002733748Y0002575627D01*
X0002743272Y0002585151D01*
X0002748427Y0002597595D01*
X0002748427Y0002607620D01*
X0002781102Y0002607620D01*
X0002781102Y0002594150D01*
X0002786257Y0002581706D01*
X0002795781Y0002572181D01*
X0002808225Y0002567026D01*
X0002821695Y0002567026D01*
X0002834139Y0002572181D01*
X0002843664Y0002581706D01*
X0002848818Y0002594150D01*
X0002848818Y0002607620D01*
X0002846576Y0002613034D01*
X0002879527Y0002613034D01*
X0002879527Y0002599564D01*
X0002884682Y0002587120D01*
X0002894206Y0002577595D01*
X0002906650Y0002572440D01*
X0002920120Y0002572440D01*
X0002932565Y0002577595D01*
X0002942089Y0002587120D01*
X0002947244Y0002599564D01*
X0002947244Y0002609097D01*
X0002981889Y0002609097D01*
X0002981889Y0002595627D01*
X0002987044Y0002583183D01*
X0002996568Y0002573658D01*
X0003009013Y0002568503D01*
X0003022482Y0002568503D01*
X0003034927Y0002573658D01*
X0003044451Y0002583183D01*
X0003049606Y0002595627D01*
X0003049606Y0002605160D01*
X0003084251Y0002605160D01*
X0003084251Y0002591690D01*
X0003089406Y0002579246D01*
X0003098931Y0002569721D01*
X0003111375Y0002564566D01*
X0003124845Y0002564566D01*
X0003137289Y0002569721D01*
X0003146813Y0002579246D01*
X0003151968Y0002591690D01*
X0003151968Y0002605160D01*
X0003150337Y0002609097D01*
X0003180708Y0002609097D01*
X0003180708Y0002595627D01*
X0003185863Y0002583183D01*
X0003195387Y0002573658D01*
X0003207832Y0002568503D01*
X0003221301Y0002568503D01*
X0003233746Y0002573658D01*
X0003243270Y0002583183D01*
X0003248425Y0002595627D01*
X0003248425Y0002607128D01*
X0003281102Y0002607128D01*
X0003281102Y0002593658D01*
X0003286256Y0002581214D01*
X0003295781Y0002571690D01*
X0003308225Y0002566535D01*
X0003321695Y0002566535D01*
X0003334139Y0002571690D01*
X0003343664Y0002581214D01*
X0003348818Y0002593658D01*
X0003348818Y0002607128D01*
X0003343664Y0002619572D01*
X0003334139Y0002629097D01*
X0003321695Y0002634251D01*
X0003308225Y0002634251D01*
X0003295781Y0002629097D01*
X0003286256Y0002619572D01*
X0003281102Y0002607128D01*
X0003248425Y0002607128D01*
X0003248425Y0002609097D01*
X0003243270Y0002621541D01*
X0003233746Y0002631065D01*
X0003221301Y0002636220D01*
X0003207832Y0002636220D01*
X0003195387Y0002631065D01*
X0003185863Y0002621541D01*
X0003180708Y0002609097D01*
X0003150337Y0002609097D01*
X0003146813Y0002617604D01*
X0003137289Y0002627128D01*
X0003124845Y0002632283D01*
X0003111375Y0002632283D01*
X0003098931Y0002627128D01*
X0003089406Y0002617604D01*
X0003084251Y0002605160D01*
X0003049606Y0002605160D01*
X0003049606Y0002609097D01*
X0003044451Y0002621541D01*
X0003034927Y0002631065D01*
X0003022482Y0002636220D01*
X0003009013Y0002636220D01*
X0002996568Y0002631065D01*
X0002987044Y0002621541D01*
X0002981889Y0002609097D01*
X0002947244Y0002609097D01*
X0002947244Y0002613034D01*
X0002942089Y0002625478D01*
X0002932565Y0002635002D01*
X0002920120Y0002640157D01*
X0002906650Y0002640157D01*
X0002894206Y0002635002D01*
X0002884682Y0002625478D01*
X0002879527Y0002613034D01*
X0002846576Y0002613034D01*
X0002843664Y0002620064D01*
X0002834139Y0002629588D01*
X0002821695Y0002634743D01*
X0002808225Y0002634743D01*
X0002795781Y0002629588D01*
X0002786257Y0002620064D01*
X0002781102Y0002607620D01*
X0002748427Y0002607620D01*
X0002748427Y0002611065D01*
X0002743272Y0002623509D01*
X0002733748Y0002633034D01*
X0002721303Y0002638188D01*
X0002707834Y0002638188D01*
X0002695389Y0002633034D01*
X0002685865Y0002623509D01*
X0002680710Y0002611065D01*
X0002644094Y0002611065D01*
X0002644094Y0002616971D01*
X0002638939Y0002629415D01*
X0002629415Y0002638939D01*
X0002616971Y0002644094D01*
X0002603501Y0002644094D01*
X0002591057Y0002638939D01*
X0002581532Y0002629415D01*
X0002576377Y0002616971D01*
X0002075196Y0002616971D01*
X0002075196Y0002918228D01*
X0002192913Y0002918228D01*
X0002194826Y0002918608D01*
X0002196448Y0002919692D01*
X0002197532Y0002921314D01*
X0002197913Y0002923228D01*
X0002197913Y0002974409D01*
X0002197532Y0002976322D01*
X0002196448Y0002977945D01*
X0002194826Y0002979028D01*
X0002192913Y0002979409D01*
X0002075196Y0002979409D01*
X0002075196Y0003014608D01*
X0002277165Y0003014608D01*
X0002277165Y0003001139D01*
X0002282320Y0002988694D01*
X0002291844Y0002979170D01*
X0002304189Y0002974057D01*
X0002307910Y0002965072D01*
X0002317435Y0002955548D01*
X0002329879Y0002950393D01*
X0002343348Y0002950393D01*
X0002355793Y0002955548D01*
X0002357455Y0002957210D01*
X0002359091Y0002953261D01*
X0002368615Y0002943737D01*
X0002381060Y0002938582D01*
X0002394529Y0002938582D01*
X0002406974Y0002943737D01*
X0002416498Y0002953261D01*
X0002421653Y0002965706D01*
X0002421653Y0002979175D01*
X0002416498Y0002991620D01*
X0002406974Y0003001144D01*
X0002394529Y0003006299D01*
X0002381060Y0003006299D01*
X0002368615Y0003001144D01*
X0002366953Y0002999482D01*
X0002365317Y0003003431D01*
X0002355793Y0003012955D01*
X0002343448Y0003018068D01*
X0002339727Y0003027053D01*
X0002330202Y0003036577D01*
X0002317758Y0003041732D01*
X0002304288Y0003041732D01*
X0002291844Y0003036577D01*
X0002282320Y0003027053D01*
X0002277165Y0003014608D01*
X0002075196Y0003014608D01*
X0002075196Y0003055947D01*
X0002374605Y0003055947D01*
X0002374605Y0003042477D01*
X0002379760Y0003030033D01*
X0002389285Y0003020508D01*
X0002401729Y0003015354D01*
X0002415199Y0003015354D01*
X0002427643Y0003020508D01*
X0002437167Y0003030033D01*
X0002442322Y0003042477D01*
X0002442322Y0003055947D01*
X0002437167Y0003068391D01*
X0002427643Y0003077916D01*
X0002415199Y0003083070D01*
X0002401729Y0003083070D01*
X0002389285Y0003077916D01*
X0002379760Y0003068391D01*
X0002374605Y0003055947D01*
X0002075196Y0003055947D01*
X0002075196Y0003109328D01*
X0002428797Y0003109328D01*
X0002428797Y0003095858D01*
X0002433952Y0003083414D01*
X0002443477Y0003073890D01*
X0002455921Y0003068735D01*
X0002459169Y0003068735D01*
X0002466057Y0003061847D01*
X0002478501Y0003056692D01*
X0002491971Y0003056692D01*
X0002504415Y0003061847D01*
X0002508072Y0003065504D01*
X0002519840Y0003060629D01*
X0002533310Y0003060629D01*
X0002545754Y0003065784D01*
X0002555278Y0003075309D01*
X0002558543Y0003083190D01*
X0002563470Y0003085231D01*
X0002572994Y0003094755D01*
X0002573917Y0003096983D01*
X0002584139Y0003101217D01*
X0002593664Y0003110742D01*
X0002598818Y0003123186D01*
X0002598818Y0003136656D01*
X0002593664Y0003149100D01*
X0002584139Y0003158624D01*
X0002571695Y0003163779D01*
X0002558225Y0003163779D01*
X0002545781Y0003158624D01*
X0002536257Y0003149100D01*
X0002535334Y0003146872D01*
X0002525112Y0003142638D01*
X0002522114Y0003139640D01*
X0002512640Y0003143565D01*
X0002499170Y0003143565D01*
X0002486726Y0003138410D01*
X0002480264Y0003131948D01*
X0002469391Y0003136452D01*
X0002455921Y0003136452D01*
X0002443477Y0003131297D01*
X0002433952Y0003121772D01*
X0002428797Y0003109328D01*
X0002075196Y0003109328D01*
X0002075196Y0003360629D01*
X0002471886Y0003360629D01*
X0002476423Y0003337818D01*
X0002489345Y0003318479D01*
X0002501092Y0003310629D01*
X0002489345Y0003302780D01*
X0002476423Y0003283441D01*
X0002471886Y0003260629D01*
X0002476423Y0003237818D01*
X0002489345Y0003218479D01*
X0002508684Y0003205557D01*
X0002525737Y0003202165D01*
X0002537254Y0003202165D01*
X0002554307Y0003205557D01*
X0002573646Y0003218479D01*
X0002581496Y0003230226D01*
X0002589345Y0003218479D01*
X0002608684Y0003205557D01*
X0002625737Y0003202165D01*
X0002637254Y0003202165D01*
X0002654307Y0003205557D01*
X0002673646Y0003218479D01*
X0002686568Y0003237818D01*
X0002686807Y0003239018D01*
X0003192519Y0003239018D01*
X0003192519Y0003225548D01*
X0003197674Y0003213104D01*
X0003207198Y0003203579D01*
X0003219643Y0003198425D01*
X0003233112Y0003198425D01*
X0003245557Y0003203579D01*
X0003255081Y0003213104D01*
X0003260236Y0003225548D01*
X0003260236Y0003239018D01*
X0003255081Y0003251462D01*
X0003245557Y0003260987D01*
X0003233112Y0003266141D01*
X0003219643Y0003266141D01*
X0003207198Y0003260987D01*
X0003197674Y0003251462D01*
X0003192519Y0003239018D01*
X0002686807Y0003239018D01*
X0002691105Y0003260629D01*
X0002686568Y0003283441D01*
X0002673646Y0003302780D01*
X0002661083Y0003311174D01*
X0002666195Y0003313575D01*
X0002681560Y0003330436D01*
X0002688247Y0003346579D01*
X0002683470Y0003355629D01*
X0002636496Y0003355629D01*
X0002636496Y0003354842D01*
X0002626496Y0003354842D01*
X0002626496Y0003355629D01*
X0002625708Y0003355629D01*
X0002625708Y0003365629D01*
X0002626496Y0003365629D01*
X0002626496Y0003366417D01*
X0002636496Y0003366417D01*
X0002636496Y0003365629D01*
X0002683470Y0003365629D01*
X0002688247Y0003374680D01*
X0002682471Y0003388624D01*
X0003243700Y0003388624D01*
X0003243700Y0003375154D01*
X0003248855Y0003362710D01*
X0003258379Y0003353186D01*
X0003270824Y0003348031D01*
X0003284293Y0003348031D01*
X0003296738Y0003353186D01*
X0003306262Y0003362710D01*
X0003311417Y0003375154D01*
X0003311417Y0003388624D01*
X0003306262Y0003401068D01*
X0003296738Y0003410593D01*
X0003284293Y0003415748D01*
X0003270824Y0003415748D01*
X0003258379Y0003410593D01*
X0003248855Y0003401068D01*
X0003243700Y0003388624D01*
X0002682471Y0003388624D01*
X0002681560Y0003390823D01*
X0002666195Y0003407684D01*
X0002661083Y0003410084D01*
X0002673646Y0003418479D01*
X0002686568Y0003437818D01*
X0002691105Y0003460629D01*
X0002686568Y0003483441D01*
X0002673646Y0003502780D01*
X0002671569Y0003504168D01*
X0003116732Y0003504168D01*
X0003116732Y0003487957D01*
X0003122935Y0003472981D01*
X0003134398Y0003461518D01*
X0003149375Y0003455314D01*
X0003152640Y0003455314D01*
X0003158368Y0003441485D01*
X0003169831Y0003430022D01*
X0003184808Y0003423818D01*
X0003201018Y0003423818D01*
X0003215995Y0003430022D01*
X0003227457Y0003441485D01*
X0003233661Y0003456461D01*
X0003233661Y0003472672D01*
X0003227457Y0003487648D01*
X0003215995Y0003499111D01*
X0003201018Y0003505314D01*
X0003197753Y0003505314D01*
X0003192024Y0003519144D01*
X0003180562Y0003530607D01*
X0003165585Y0003536811D01*
X0003149375Y0003536811D01*
X0003134398Y0003530607D01*
X0003122935Y0003519144D01*
X0003116732Y0003504168D01*
X0002671569Y0003504168D01*
X0002654307Y0003515702D01*
X0002637254Y0003519094D01*
X0002625737Y0003519094D01*
X0002608684Y0003515702D01*
X0002589345Y0003502780D01*
X0002588865Y0003502062D01*
X0002588510Y0003503849D01*
X0002582984Y0003512118D01*
X0002574715Y0003517643D01*
X0002564960Y0003519584D01*
X0002498031Y0003519584D01*
X0002488276Y0003517643D01*
X0002480007Y0003512118D01*
X0002474482Y0003503849D01*
X0002472541Y0003494094D01*
X0002472541Y0003427165D01*
X0002474482Y0003417410D01*
X0002480007Y0003409141D01*
X0002488276Y0003403615D01*
X0002490063Y0003403260D01*
X0002489345Y0003402780D01*
X0002476423Y0003383441D01*
X0002471886Y0003360629D01*
X0002075196Y0003360629D01*
X0002075196Y0003632247D01*
X0002143255Y0003632247D01*
X0002157702Y0003612742D01*
X0002213038Y0003589380D01*
X0002273102Y0003588972D01*
X0002328749Y0003611581D01*
X0002330486Y0003612742D01*
X0002344933Y0003632247D01*
X0003639318Y0003632247D01*
X0003653765Y0003612742D01*
X0003709101Y0003589380D01*
X0003769165Y0003588972D01*
X0003824812Y0003611581D01*
X0003826549Y0003612742D01*
X0003840996Y0003632247D01*
X0003740157Y0003733086D01*
X0003639318Y0003632247D01*
X0002344933Y0003632247D01*
X0002244094Y0003733086D01*
X0002143255Y0003632247D01*
X0002075196Y0003632247D01*
X0002075196Y0003711149D01*
X0002092909Y0003711149D01*
X0002115518Y0003655502D01*
X0002116679Y0003653765D01*
X0002136184Y0003639318D01*
X0002237023Y0003740157D01*
X0002251165Y0003740157D01*
X0002352004Y0003639318D01*
X0002371509Y0003653765D01*
X0002394871Y0003709101D01*
X0002394885Y0003711149D01*
X0003588972Y0003711149D01*
X0003611581Y0003655502D01*
X0003612742Y0003653765D01*
X0003632247Y0003639318D01*
X0003733086Y0003740157D01*
X0003747228Y0003740157D01*
X0003848067Y0003639318D01*
X0003867572Y0003653765D01*
X0003890934Y0003709101D01*
X0003891342Y0003769165D01*
X0003868733Y0003824812D01*
X0003867572Y0003826549D01*
X0003848067Y0003840996D01*
X0003747228Y0003740157D01*
X0003733086Y0003740157D01*
X0003632247Y0003840996D01*
X0003612742Y0003826549D01*
X0003589380Y0003771213D01*
X0003588972Y0003711149D01*
X0002394885Y0003711149D01*
X0002395279Y0003769165D01*
X0002381375Y0003803385D01*
X0002884448Y0003803385D01*
X0002884448Y0003788740D01*
X0002890052Y0003775211D01*
X0002900408Y0003764856D01*
X0002913937Y0003759251D01*
X0002928582Y0003759251D01*
X0002942111Y0003764856D01*
X0002952466Y0003775211D01*
X0002958070Y0003788740D01*
X0002958070Y0003803385D01*
X0003041929Y0003803385D01*
X0003041929Y0003788740D01*
X0003047533Y0003775211D01*
X0003057888Y0003764856D01*
X0003071417Y0003759251D01*
X0003086062Y0003759251D01*
X0003099591Y0003764856D01*
X0003109947Y0003775211D01*
X0003115551Y0003788740D01*
X0003115551Y0003803385D01*
X0003109947Y0003816914D01*
X0003099591Y0003827269D01*
X0003086062Y0003832874D01*
X0003071417Y0003832874D01*
X0003057888Y0003827269D01*
X0003047533Y0003816914D01*
X0003041929Y0003803385D01*
X0002958070Y0003803385D01*
X0002952466Y0003816914D01*
X0002942111Y0003827269D01*
X0002928582Y0003832874D01*
X0002913937Y0003832874D01*
X0002900408Y0003827269D01*
X0002890052Y0003816914D01*
X0002884448Y0003803385D01*
X0002381375Y0003803385D01*
X0002372670Y0003824812D01*
X0002371509Y0003826549D01*
X0002352004Y0003840996D01*
X0002251165Y0003740157D01*
X0002237023Y0003740157D01*
X0002136184Y0003840996D01*
X0002116679Y0003826549D01*
X0002093317Y0003771213D01*
X0002092909Y0003711149D01*
X0002075196Y0003711149D01*
X0002075196Y0003738912D01*
X0002077975Y0003770046D01*
X0002085893Y0003798991D01*
X0002098812Y0003826076D01*
X0002114614Y0003848067D01*
X0002143255Y0003848067D01*
X0002244094Y0003747228D01*
X0002344933Y0003848067D01*
X0003639318Y0003848067D01*
X0003740157Y0003747228D01*
X0003840996Y0003848067D01*
X0003826549Y0003867572D01*
X0003771213Y0003890934D01*
X0003711149Y0003891342D01*
X0003655502Y0003868733D01*
X0003653765Y0003867572D01*
X0003639318Y0003848067D01*
X0002344933Y0003848067D01*
X0002330486Y0003867572D01*
X0002275150Y0003890934D01*
X0002215086Y0003891342D01*
X0002159439Y0003868733D01*
X0002157702Y0003867572D01*
X0002143255Y0003848067D01*
X0002114614Y0003848067D01*
X0002116323Y0003850446D01*
X0002137873Y0003871329D01*
X0002162781Y0003888066D01*
X0002190258Y0003900127D01*
X0002219652Y0003907185D01*
X0002245119Y0003909055D01*
X0003738912Y0003909055D01*
X0003770046Y0003906276D01*
G04 #@! TD*
G04 next file*
G04 #@! TF.GenerationSoftware,KiCad,Pcbnew,(5.0.2)-1*
G04 #@! TF.CreationDate,2019-01-06T11:57:03+11:00*
G04 #@! TF.ProjectId,MAX2870_Dev_Rev_0,4d415832-3837-4305-9f44-65765f526576,rev?*
G04 #@! TF.SameCoordinates,Original*
G04 #@! TF.FileFunction,Copper,L2,Inr*
G04 #@! TF.FilePolarity,Positive*
G04 Gerber Fmt 4.6, Leading zero omitted, Abs format (unit mm)*
G04 Created by KiCad (PCBNEW (5.0.2)-1) date 6/01/2019 11:57:03*
G01*
G04 APERTURE LIST*
G04 #@! TA.AperFunction,ViaPad*
G04 #@! TD*
G04 #@! TA.AperFunction,ViaPad*
G04 #@! TD*
G04 #@! TA.AperFunction,ViaPad*
G04 #@! TD*
G04 #@! TA.AperFunction,ViaPad*
G04 #@! TD*
G04 #@! TA.AperFunction,ViaPad*
G04 #@! TD*
G04 #@! TA.AperFunction,ViaPad*
G04 #@! TD*
G04 #@! TA.AperFunction,Conductor*
G04 #@! TD*
G04 APERTURE END LIST*
G04 #@! TO.C,REF\002A\002A*
D41*
X0000439820Y0002239313D02*
X0000442632Y0002242125D01*
X0000448256Y0002244938D01*
X0000462317Y0002244938D01*
X0000467941Y0002242125D01*
X0000470753Y0002239313D01*
X0000473565Y0002233689D01*
X0000473565Y0002228065D01*
X0000470753Y0002219628D01*
X0000437007Y0002185883D01*
X0000473565Y0002185883D01*
G04 #@! TD*
D42*
G04 #@! TO.N,GND*
G04 #@! TO.C,U3*
X0001093996Y0003002460D03*
X0001093996Y0003041830D03*
X0001093996Y0003081200D03*
X0001133366Y0003002460D03*
X0001133366Y0003041830D03*
X0001133366Y0003081200D03*
X0001172736Y0003002460D03*
X0001172736Y0003041830D03*
X0001172736Y0003081200D03*
G04 #@! TD*
D43*
G04 #@! TO.N,GND*
G04 #@! TO.C,H1*
X0000263663Y0003806970D03*
X0000196850Y0003834645D03*
X0000130037Y0003806970D03*
X0000102362Y0003740157D03*
X0000130037Y0003673344D03*
X0000196850Y0003645669D03*
X0000263663Y0003673344D03*
X0000291338Y0003740157D03*
D44*
X0000196850Y0003740157D03*
G04 #@! TD*
G04 #@! TO.N,GND*
G04 #@! TO.C,H2*
X0000196850Y0002244094D03*
D43*
X0000291338Y0002244094D03*
X0000263663Y0002177281D03*
X0000196850Y0002149606D03*
X0000130037Y0002177281D03*
X0000102362Y0002244094D03*
X0000130037Y0002310907D03*
X0000196850Y0002338582D03*
X0000263663Y0002310907D03*
G04 #@! TD*
G04 #@! TO.N,GND*
G04 #@! TO.C,H3*
X0001759726Y0002310907D03*
X0001692913Y0002338582D03*
X0001626100Y0002310907D03*
X0001598425Y0002244094D03*
X0001626100Y0002177281D03*
X0001692913Y0002149606D03*
X0001759726Y0002177281D03*
X0001787401Y0002244094D03*
D44*
X0001692913Y0002244094D03*
G04 #@! TD*
G04 #@! TO.N,GND*
G04 #@! TO.C,H4*
X0001692913Y0003740157D03*
D43*
X0001787401Y0003740157D03*
X0001759726Y0003673344D03*
X0001692913Y0003645669D03*
X0001626100Y0003673344D03*
X0001598425Y0003740157D03*
X0001626100Y0003806970D03*
X0001692913Y0003834645D03*
X0001759726Y0003806970D03*
G04 #@! TD*
D45*
G04 #@! TO.N,+5V*
G04 #@! TO.C,J1*
X0000251181Y0003231496D03*
D46*
G04 #@! TO.N,GND*
X0000351181Y0003231496D03*
G04 #@! TO.N,/CE*
X0000251181Y0003131496D03*
G04 #@! TO.N,/LD*
X0000351181Y0003131496D03*
G04 #@! TO.N,/LE*
X0000251181Y0003031496D03*
G04 #@! TO.N,/RFOUT_EN*
X0000351181Y0003031496D03*
G04 #@! TO.N,/DATA*
X0000251181Y0002931496D03*
G04 #@! TO.N,/MUX_OUT*
X0000351181Y0002931496D03*
G04 #@! TO.N,/CLK*
X0000251181Y0002831496D03*
G04 #@! TO.N,Net-(J1-Pad10)*
X0000351181Y0002831496D03*
G04 #@! TD*
D43*
G04 #@! TO.N,GND*
X0001496062Y0002947834D03*
X0001539370Y0003105314D03*
X0001250000Y0002817913D03*
X0001304133Y0002776574D03*
D47*
X0001297244Y0003284251D03*
X0001340157Y0003283464D03*
X0001246850Y0003284645D03*
X0001203937Y0003284251D03*
X0001114960Y0003342125D03*
X0001121653Y0003242913D03*
X0001076377Y0003260629D03*
X0001033858Y0003260629D03*
D43*
X0000765354Y0002974015D03*
D47*
X0000647637Y0003154330D03*
D43*
X0000618503Y0003235039D03*
D47*
X0000707874Y0003309055D03*
X0000580708Y0002960236D03*
X0000928346Y0002906299D03*
X0000972047Y0002906299D03*
D43*
X0000177165Y0003425196D03*
X0000435826Y0002513385D03*
X0000534251Y0002628740D03*
X0000610236Y0002683858D03*
D47*
X0000966535Y0003129607D03*
X0000923622Y0003129607D03*
X0001637795Y0003068897D03*
X0001614173Y0003068897D03*
X0001590551Y0003068897D03*
X0001566929Y0003068897D03*
X0001637795Y0002996062D03*
X0001614173Y0002996062D03*
X0001590551Y0002996062D03*
X0001566929Y0002996062D03*
X0001543307Y0002996062D03*
X0001519685Y0002996062D03*
X0001496062Y0002996062D03*
X0001472440Y0002996062D03*
X0001448818Y0002996062D03*
X0001425196Y0002996062D03*
X0001543307Y0003068897D03*
X0001519685Y0003068897D03*
X0001496062Y0003068897D03*
X0001472440Y0003068897D03*
X0001448818Y0003068897D03*
D43*
X0001321850Y0002923228D03*
X0001279527Y0002923228D03*
D47*
X0001062992Y0002845472D03*
X0001062992Y0002886811D03*
X0001728346Y0003068897D03*
X0001681102Y0003068897D03*
X0001657480Y0003068897D03*
X0001704724Y0003068897D03*
X0001704724Y0002996062D03*
X0001681102Y0002996062D03*
X0001657480Y0002996062D03*
X0001728346Y0002996062D03*
X0001744094Y0003129921D03*
X0001726377Y0003129921D03*
X0001779527Y0003129921D03*
X0001761811Y0003129921D03*
X0001797244Y0003129921D03*
X0001814960Y0003129921D03*
X0001832677Y0003129921D03*
X0001850393Y0003129921D03*
X0001868110Y0003129921D03*
X0001872047Y0002940944D03*
X0001765747Y0002940944D03*
X0001801181Y0002940944D03*
X0001836614Y0002940944D03*
X0001783464Y0002940944D03*
X0001818897Y0002940944D03*
X0001854330Y0002940944D03*
X0001748031Y0002940944D03*
X0001730314Y0002940944D03*
D43*
X0001850393Y0002834645D03*
X0001850393Y0003228346D03*
X0001811023Y0003228346D03*
X0001771653Y0003228346D03*
X0001732283Y0003228346D03*
X0001692913Y0003228346D03*
X0001692913Y0003188976D03*
X0001692913Y0003149606D03*
X0001692913Y0003110236D03*
X0001653543Y0003110236D03*
X0001614173Y0003110236D03*
X0001574803Y0003110236D03*
X0001535433Y0002952755D03*
X0001574803Y0002952755D03*
X0001614173Y0002952755D03*
X0001653543Y0002952755D03*
X0001692913Y0002952755D03*
X0001692913Y0002913385D03*
X0001692913Y0002874015D03*
X0001692913Y0002834645D03*
X0001732283Y0002834645D03*
X0001771653Y0002834645D03*
X0001811023Y0002834645D03*
X0000354330Y0003681102D03*
X0000551181Y0003681102D03*
X0000748031Y0003681102D03*
X0000944881Y0003681102D03*
X0001141732Y0003681102D03*
X0001338582Y0003681102D03*
X0001535433Y0003681102D03*
X0001535433Y0003484251D03*
X0001535433Y0003287401D03*
X0001437007Y0003385826D03*
X0001437007Y0003582677D03*
X0001338582Y0003484251D03*
X0001240157Y0003582677D03*
X0001141732Y0003484251D03*
X0001043307Y0003582677D03*
X0000944881Y0003484251D03*
X0001043307Y0003385826D03*
X0000944881Y0003287401D03*
X0000846456Y0003385826D03*
X0000649606Y0003385826D03*
X0000846456Y0003188976D03*
X0000452755Y0003188976D03*
X0001633858Y0003582677D03*
X0001732283Y0003287401D03*
X0001732283Y0003484251D03*
X0001633858Y0003385826D03*
X0001633858Y0003188976D03*
X0000157480Y0002500000D03*
X0000255905Y0002598425D03*
X0000354330Y0002500000D03*
X0000255905Y0002401574D03*
X0000354330Y0002303149D03*
X0000944881Y0002500000D03*
X0000944881Y0002303149D03*
X0001043307Y0002401574D03*
X0001043307Y0002598425D03*
X0001141732Y0002500000D03*
X0001240157Y0002401574D03*
X0001437007Y0002401574D03*
X0001633858Y0002401574D03*
X0001732283Y0002500000D03*
X0001732283Y0002696850D03*
X0001633858Y0002795275D03*
X0001535433Y0002696850D03*
X0001535433Y0002500000D03*
X0001633858Y0002598425D03*
X0001437007Y0002598425D03*
X0001240157Y0002598425D03*
X0001338582Y0002500000D03*
X0000748031Y0002303149D03*
X0000846456Y0002598425D03*
X0000551181Y0002893700D03*
X0000452755Y0002893700D03*
X0000452755Y0002992125D03*
X0000748031Y0002893700D03*
X0000649606Y0002893700D03*
X0001240157Y0003385826D03*
X0001633858Y0002893700D03*
X0001437007Y0002795275D03*
X0001338582Y0002696850D03*
X0001141732Y0002696850D03*
X0000846456Y0002401574D03*
X0000354330Y0002696850D03*
X0000452755Y0002598425D03*
X0000551181Y0002696850D03*
X0000944881Y0002696850D03*
X0001141732Y0002303149D03*
X0001338582Y0002303149D03*
X0001437007Y0002204724D03*
X0001240157Y0002204724D03*
X0001043307Y0002204724D03*
X0000846456Y0002204724D03*
X0000649606Y0002204724D03*
X0000551181Y0002303149D03*
X0000551181Y0002303149D03*
X0000551181Y0002303149D03*
X0001732283Y0002795275D03*
X0000748031Y0003287401D03*
X0001535433Y0002893700D03*
X0000649606Y0002401574D03*
X0000456692Y0003433070D03*
X0000649606Y0003582677D03*
X0000748031Y0003484251D03*
X0000846456Y0003582677D03*
X0000157480Y0003582677D03*
X0000452755Y0003582677D03*
X0000551181Y0003484251D03*
X0000551181Y0003287401D03*
G04 #@! TO.N,+3V3*
X0000875196Y0002973228D03*
X0000874803Y0003061023D03*
G04 #@! TO.N,+3.3VA*
X0001416929Y0003167716D03*
X0001416141Y0003124409D03*
X0001486220Y0003216929D03*
X0000740944Y0003240551D03*
X0001386220Y0002915354D03*
X0001453937Y0002866535D03*
X0000492125Y0003500000D03*
X0000456692Y0003535433D03*
X0000492125Y0003535433D03*
D47*
G04 #@! TO.N,Net-(C24-Pad2)*
X0001158267Y0003342125D03*
X0001206692Y0002890157D03*
G04 #@! TO.N,/LD*
X0001014173Y0003111811D03*
G04 #@! TO.N,/MUX_OUT*
X0001010629Y0003012598D03*
G04 #@! TO.N,/RFOUT_EN*
X0001016268Y0003089191D03*
G04 #@! TO.N,/CE*
X0001124840Y0002923174D03*
G04 #@! TO.N,/LE*
X0001102145Y0002922176D03*
G04 #@! TO.N,/DATA*
X0001079428Y0002922244D03*
G04 #@! TO.N,/CLK*
X0001048228Y0002947834D03*
G04 #@! TO.N,Net-(R4-Pad1)*
X0001199803Y0002776574D03*
X0001146082Y0002915122D03*
G04 #@! TD*
D48*
G04 #@! TO.N,GND*
G36*
X0001722802Y0003906276D02*
X0001751747Y0003898358D01*
X0001778832Y0003885439D01*
X0001803202Y0003867928D01*
X0001824085Y0003846378D01*
X0001840822Y0003821470D01*
X0001852883Y0003793993D01*
X0001859940Y0003764599D01*
X0001861811Y0003739132D01*
X0001861811Y0003067992D01*
X0001736912Y0003067992D01*
X0001734999Y0003067611D01*
X0001733377Y0003066527D01*
X0001732293Y0003064905D01*
X0001731912Y0003062992D01*
X0001731912Y0003007874D01*
X0001732293Y0003005960D01*
X0001733377Y0003004338D01*
X0001734999Y0003003254D01*
X0001736912Y0003002874D01*
X0001861811Y0003002874D01*
X0001861811Y0002245339D01*
X0001859032Y0002214205D01*
X0001851113Y0002185260D01*
X0001838194Y0002158175D01*
X0001820684Y0002133805D01*
X0001799134Y0002112922D01*
X0001774226Y0002096185D01*
X0001746749Y0002084123D01*
X0001717355Y0002077066D01*
X0001691888Y0002075196D01*
X0000198095Y0002075196D01*
X0000166960Y0002077975D01*
X0000138016Y0002085893D01*
X0000110930Y0002098812D01*
X0000086561Y0002116323D01*
X0000067315Y0002136184D01*
X0000096011Y0002136184D01*
X0000110458Y0002116679D01*
X0000165794Y0002093317D01*
X0000225857Y0002092909D01*
X0000281505Y0002115518D01*
X0000283242Y0002116679D01*
X0000297689Y0002136184D01*
X0001592074Y0002136184D01*
X0001606521Y0002116679D01*
X0001661857Y0002093317D01*
X0001721920Y0002092909D01*
X0001777568Y0002115518D01*
X0001779305Y0002116679D01*
X0001793752Y0002136184D01*
X0001692913Y0002237023D01*
X0001592074Y0002136184D01*
X0000297689Y0002136184D01*
X0000196850Y0002237023D01*
X0000096011Y0002136184D01*
X0000067315Y0002136184D01*
X0000065678Y0002137873D01*
X0000048941Y0002162781D01*
X0000036879Y0002190258D01*
X0000030919Y0002215086D01*
X0000045665Y0002215086D01*
X0000068274Y0002159439D01*
X0000069435Y0002157702D01*
X0000088940Y0002143255D01*
X0000189779Y0002244094D01*
X0000203921Y0002244094D01*
X0000304760Y0002143255D01*
X0000324265Y0002157702D01*
X0000347627Y0002213038D01*
X0000347958Y0002261811D01*
X0000363110Y0002261811D01*
X0000363110Y0002173228D01*
X0000363490Y0002171314D01*
X0000364574Y0002169692D01*
X0000366196Y0002168608D01*
X0000368110Y0002168228D01*
X0000604330Y0002168228D01*
X0000606244Y0002168608D01*
X0000607866Y0002169692D01*
X0000608950Y0002171314D01*
X0000609330Y0002173228D01*
X0000609330Y0002215086D01*
X0001541728Y0002215086D01*
X0001564337Y0002159439D01*
X0001565498Y0002157702D01*
X0001585003Y0002143255D01*
X0001685842Y0002244094D01*
X0001699984Y0002244094D01*
X0001800823Y0002143255D01*
X0001820328Y0002157702D01*
X0001843690Y0002213038D01*
X0001844097Y0002273102D01*
X0001821488Y0002328749D01*
X0001820328Y0002330486D01*
X0001800823Y0002344933D01*
X0001699984Y0002244094D01*
X0001685842Y0002244094D01*
X0001585003Y0002344933D01*
X0001565498Y0002330486D01*
X0001542136Y0002275150D01*
X0001541728Y0002215086D01*
X0000609330Y0002215086D01*
X0000609330Y0002261811D01*
X0000608950Y0002263724D01*
X0000607866Y0002265346D01*
X0000606244Y0002266430D01*
X0000604330Y0002266811D01*
X0000368110Y0002266811D01*
X0000366196Y0002266430D01*
X0000364574Y0002265346D01*
X0000363490Y0002263724D01*
X0000363110Y0002261811D01*
X0000347958Y0002261811D01*
X0000348034Y0002273102D01*
X0000325425Y0002328749D01*
X0000324265Y0002330486D01*
X0000304760Y0002344933D01*
X0000203921Y0002244094D01*
X0000189779Y0002244094D01*
X0000088940Y0002344933D01*
X0000069435Y0002330486D01*
X0000046073Y0002275150D01*
X0000045665Y0002215086D01*
X0000030919Y0002215086D01*
X0000029822Y0002219652D01*
X0000027952Y0002245119D01*
X0000027952Y0002352004D01*
X0000096011Y0002352004D01*
X0000196850Y0002251165D01*
X0000297689Y0002352004D01*
X0001592074Y0002352004D01*
X0001692913Y0002251165D01*
X0001793752Y0002352004D01*
X0001779305Y0002371509D01*
X0001723969Y0002394871D01*
X0001663905Y0002395279D01*
X0001608258Y0002372670D01*
X0001606521Y0002371509D01*
X0001592074Y0002352004D01*
X0000297689Y0002352004D01*
X0000283242Y0002371509D01*
X0000227906Y0002394871D01*
X0000167842Y0002395279D01*
X0000112195Y0002372670D01*
X0000110458Y0002371509D01*
X0000096011Y0002352004D01*
X0000027952Y0002352004D01*
X0000027952Y0003131496D01*
X0000191571Y0003131496D01*
X0000196108Y0003108684D01*
X0000209030Y0003089345D01*
X0000220777Y0003081496D01*
X0000209030Y0003073646D01*
X0000196108Y0003054307D01*
X0000191571Y0003031496D01*
X0000196108Y0003008684D01*
X0000209030Y0002989345D01*
X0000220777Y0002981496D01*
X0000209030Y0002973646D01*
X0000196108Y0002954307D01*
X0000191571Y0002931496D01*
X0000196108Y0002908684D01*
X0000209030Y0002889345D01*
X0000220777Y0002881496D01*
X0000209030Y0002873646D01*
X0000196108Y0002854307D01*
X0000191571Y0002831496D01*
X0000196108Y0002808684D01*
X0000209030Y0002789345D01*
X0000228369Y0002776423D01*
X0000245422Y0002773031D01*
X0000256939Y0002773031D01*
X0000273992Y0002776423D01*
X0000293331Y0002789345D01*
X0000301181Y0002801092D01*
X0000309030Y0002789345D01*
X0000328369Y0002776423D01*
X0000345422Y0002773031D01*
X0000356939Y0002773031D01*
X0000373992Y0002776423D01*
X0000384298Y0002783309D01*
X0001165944Y0002783309D01*
X0001165944Y0002769839D01*
X0001171099Y0002757395D01*
X0001180623Y0002747871D01*
X0001193068Y0002742716D01*
X0001206537Y0002742716D01*
X0001218982Y0002747871D01*
X0001228506Y0002757395D01*
X0001233661Y0002769839D01*
X0001233661Y0002783309D01*
X0001228506Y0002795753D01*
X0001218982Y0002805278D01*
X0001206537Y0002810433D01*
X0001193068Y0002810433D01*
X0001180623Y0002805278D01*
X0001171099Y0002795753D01*
X0001165944Y0002783309D01*
X0000384298Y0002783309D01*
X0000393331Y0002789345D01*
X0000406253Y0002808684D01*
X0000410791Y0002831496D01*
X0000406253Y0002854307D01*
X0000393331Y0002873646D01*
X0000381584Y0002881496D01*
X0000393331Y0002889345D01*
X0000406253Y0002908684D01*
X0000410791Y0002931496D01*
X0000406253Y0002954307D01*
X0000393331Y0002973646D01*
X0000381827Y0002981333D01*
X0000834448Y0002981333D01*
X0000834448Y0002965123D01*
X0000840652Y0002950146D01*
X0000852114Y0002938683D01*
X0000867091Y0002932480D01*
X0000883302Y0002932480D01*
X0000898278Y0002938683D01*
X0000909741Y0002950146D01*
X0000911573Y0002954569D01*
X0001014370Y0002954569D01*
X0001014370Y0002941099D01*
X0001019524Y0002928655D01*
X0001029049Y0002919131D01*
X0001041493Y0002913976D01*
X0001046205Y0002913976D01*
X0001050724Y0002903065D01*
X0001060248Y0002893541D01*
X0001072693Y0002888386D01*
X0001086163Y0002888386D01*
X0001090704Y0002890267D01*
X0001095410Y0002888318D01*
X0001108879Y0002888318D01*
X0001114696Y0002890728D01*
X0001118105Y0002889316D01*
X0001124005Y0002889316D01*
X0001126903Y0002886418D01*
X0001139347Y0002881264D01*
X0001152817Y0002881264D01*
X0001165261Y0002886418D01*
X0001172834Y0002893991D01*
X0001172834Y0002883422D01*
X0001177989Y0002870978D01*
X0001187513Y0002861453D01*
X0001199958Y0002856299D01*
X0001213427Y0002856299D01*
X0001225872Y0002861453D01*
X0001235396Y0002870978D01*
X0001240551Y0002883422D01*
X0001240551Y0002896892D01*
X0001235396Y0002909336D01*
X0001225872Y0002918861D01*
X0001214770Y0002923459D01*
X0001345472Y0002923459D01*
X0001345472Y0002907249D01*
X0001351675Y0002892272D01*
X0001363138Y0002880809D01*
X0001378115Y0002874606D01*
X0001394325Y0002874606D01*
X0001394408Y0002874640D01*
X0001413188Y0002874640D01*
X0001413188Y0002858430D01*
X0001419392Y0002843453D01*
X0001430855Y0002831990D01*
X0001445831Y0002825787D01*
X0001462042Y0002825787D01*
X0001477018Y0002831990D01*
X0001488481Y0002843453D01*
X0001494685Y0002858430D01*
X0001494685Y0002874640D01*
X0001488481Y0002889617D01*
X0001477018Y0002901079D01*
X0001462042Y0002907283D01*
X0001445831Y0002907283D01*
X0001430855Y0002901079D01*
X0001419392Y0002889617D01*
X0001413188Y0002874640D01*
X0001394408Y0002874640D01*
X0001409302Y0002880809D01*
X0001420764Y0002892272D01*
X0001426968Y0002907249D01*
X0001426968Y0002923459D01*
X0001420764Y0002938436D01*
X0001409302Y0002949898D01*
X0001394325Y0002956102D01*
X0001378115Y0002956102D01*
X0001363138Y0002949898D01*
X0001351675Y0002938436D01*
X0001345472Y0002923459D01*
X0001214770Y0002923459D01*
X0001213427Y0002924015D01*
X0001199958Y0002924015D01*
X0001187513Y0002918861D01*
X0001179940Y0002911287D01*
X0001179940Y0002921857D01*
X0001174785Y0002934301D01*
X0001165261Y0002943826D01*
X0001152817Y0002948980D01*
X0001146916Y0002948980D01*
X0001144019Y0002951878D01*
X0001131575Y0002957032D01*
X0001118105Y0002957032D01*
X0001112288Y0002954623D01*
X0001108879Y0002956035D01*
X0001095410Y0002956035D01*
X0001090868Y0002954154D01*
X0001086163Y0002956103D01*
X0001081451Y0002956103D01*
X0001076931Y0002967013D01*
X0001067407Y0002976538D01*
X0001054963Y0002981692D01*
X0001041493Y0002981692D01*
X0001029049Y0002976538D01*
X0001019524Y0002967013D01*
X0001014370Y0002954569D01*
X0000911573Y0002954569D01*
X0000915944Y0002965123D01*
X0000915944Y0002981333D01*
X0000909741Y0002996310D01*
X0000898278Y0003007772D01*
X0000883302Y0003013976D01*
X0000867091Y0003013976D01*
X0000852114Y0003007772D01*
X0000840652Y0002996310D01*
X0000834448Y0002981333D01*
X0000381827Y0002981333D01*
X0000381584Y0002981496D01*
X0000393331Y0002989345D01*
X0000406253Y0003008684D01*
X0000408371Y0003019333D01*
X0000976771Y0003019333D01*
X0000976771Y0003005863D01*
X0000981926Y0002993419D01*
X0000991450Y0002983894D01*
X0001003895Y0002978740D01*
X0001017364Y0002978740D01*
X0001029809Y0002983894D01*
X0001039333Y0002993419D01*
X0001044488Y0003005863D01*
X0001044488Y0003019333D01*
X0001039333Y0003031777D01*
X0001029809Y0003041302D01*
X0001017364Y0003046456D01*
X0001003895Y0003046456D01*
X0000991450Y0003041302D01*
X0000981926Y0003031777D01*
X0000976771Y0003019333D01*
X0000408371Y0003019333D01*
X0000410791Y0003031496D01*
X0000406253Y0003054307D01*
X0000396350Y0003069128D01*
X0000834055Y0003069128D01*
X0000834055Y0003052918D01*
X0000840258Y0003037941D01*
X0000851721Y0003026479D01*
X0000866697Y0003020275D01*
X0000882908Y0003020275D01*
X0000897885Y0003026479D01*
X0000909347Y0003037941D01*
X0000915551Y0003052918D01*
X0000915551Y0003069128D01*
X0000909347Y0003084105D01*
X0000897885Y0003095568D01*
X0000882908Y0003101771D01*
X0000866697Y0003101771D01*
X0000851721Y0003095568D01*
X0000840258Y0003084105D01*
X0000834055Y0003069128D01*
X0000396350Y0003069128D01*
X0000393331Y0003073646D01*
X0000381584Y0003081496D01*
X0000393331Y0003089345D01*
X0000406253Y0003108684D01*
X0000408215Y0003118546D01*
X0000980314Y0003118546D01*
X0000980314Y0003105076D01*
X0000983257Y0003097972D01*
X0000982409Y0003095926D01*
X0000982409Y0003082456D01*
X0000987564Y0003070012D01*
X0000997089Y0003060487D01*
X0001009533Y0003055333D01*
X0001023003Y0003055333D01*
X0001035447Y0003060487D01*
X0001044971Y0003070012D01*
X0001050126Y0003082456D01*
X0001050126Y0003095926D01*
X0001047183Y0003103030D01*
X0001048031Y0003105076D01*
X0001048031Y0003118546D01*
X0001042876Y0003130990D01*
X0001041352Y0003132514D01*
X0001375393Y0003132514D01*
X0001375393Y0003116304D01*
X0001381597Y0003101327D01*
X0001393059Y0003089864D01*
X0001408036Y0003083661D01*
X0001424246Y0003083661D01*
X0001439223Y0003089864D01*
X0001450686Y0003101327D01*
X0001456889Y0003116304D01*
X0001456889Y0003132514D01*
X0001451671Y0003145112D01*
X0001457677Y0003159611D01*
X0001457677Y0003175821D01*
X0001451473Y0003190798D01*
X0001440011Y0003202261D01*
X0001425034Y0003208464D01*
X0001408823Y0003208464D01*
X0001393847Y0003202261D01*
X0001382384Y0003190798D01*
X0001376181Y0003175821D01*
X0001376181Y0003159611D01*
X0001381399Y0003147013D01*
X0001375393Y0003132514D01*
X0001041352Y0003132514D01*
X0001033352Y0003140515D01*
X0001020908Y0003145669D01*
X0001007438Y0003145669D01*
X0000994993Y0003140515D01*
X0000985469Y0003130990D01*
X0000980314Y0003118546D01*
X0000408215Y0003118546D01*
X0000410791Y0003131496D01*
X0000406253Y0003154307D01*
X0000393331Y0003173646D01*
X0000380768Y0003182041D01*
X0000385880Y0003184441D01*
X0000401245Y0003201302D01*
X0000407932Y0003217445D01*
X0000403155Y0003226496D01*
X0000356181Y0003226496D01*
X0000356181Y0003225708D01*
X0000346181Y0003225708D01*
X0000346181Y0003226496D01*
X0000345393Y0003226496D01*
X0000345393Y0003236496D01*
X0000346181Y0003236496D01*
X0000346181Y0003283496D01*
X0000356181Y0003283496D01*
X0000356181Y0003236496D01*
X0000403155Y0003236496D01*
X0000407932Y0003245546D01*
X0000406644Y0003248656D01*
X0000700196Y0003248656D01*
X0000700196Y0003232445D01*
X0000706400Y0003217469D01*
X0000717862Y0003206006D01*
X0000732839Y0003199803D01*
X0000749050Y0003199803D01*
X0000764026Y0003206006D01*
X0000775489Y0003217469D01*
X0000778622Y0003225034D01*
X0001445472Y0003225034D01*
X0001445472Y0003208823D01*
X0001451675Y0003193847D01*
X0001463138Y0003182384D01*
X0001478115Y0003176181D01*
X0001494325Y0003176181D01*
X0001509302Y0003182384D01*
X0001520765Y0003193847D01*
X0001526968Y0003208823D01*
X0001526968Y0003225034D01*
X0001520765Y0003240011D01*
X0001509302Y0003251473D01*
X0001494325Y0003257677D01*
X0001478115Y0003257677D01*
X0001463138Y0003251473D01*
X0001451675Y0003240011D01*
X0001445472Y0003225034D01*
X0000778622Y0003225034D01*
X0000781692Y0003232445D01*
X0000781692Y0003248656D01*
X0000775489Y0003263633D01*
X0000764026Y0003275095D01*
X0000749050Y0003281299D01*
X0000732839Y0003281299D01*
X0000717862Y0003275095D01*
X0000706400Y0003263633D01*
X0000700196Y0003248656D01*
X0000406644Y0003248656D01*
X0000401245Y0003261689D01*
X0000385880Y0003278550D01*
X0000365231Y0003288247D01*
X0000356181Y0003283496D01*
X0000346181Y0003283496D01*
X0000337130Y0003288247D01*
X0000316481Y0003278550D01*
X0000309053Y0003270399D01*
X0000308195Y0003274715D01*
X0000302669Y0003282984D01*
X0000294400Y0003288510D01*
X0000284645Y0003290450D01*
X0000217716Y0003290450D01*
X0000207962Y0003288510D01*
X0000199692Y0003282984D01*
X0000194167Y0003274715D01*
X0000192226Y0003264960D01*
X0000192226Y0003198031D01*
X0000194167Y0003188276D01*
X0000199692Y0003180007D01*
X0000207962Y0003174482D01*
X0000209748Y0003174126D01*
X0000209030Y0003173646D01*
X0000196108Y0003154307D01*
X0000191571Y0003131496D01*
X0000027952Y0003131496D01*
X0000027952Y0003348860D01*
X0001124409Y0003348860D01*
X0001124409Y0003335390D01*
X0001129564Y0003322946D01*
X0001139088Y0003313422D01*
X0001151532Y0003308267D01*
X0001165002Y0003308267D01*
X0001177446Y0003313422D01*
X0001186971Y0003322946D01*
X0001192125Y0003335390D01*
X0001192125Y0003348860D01*
X0001186971Y0003361304D01*
X0001177446Y0003370829D01*
X0001165002Y0003375984D01*
X0001151532Y0003375984D01*
X0001139088Y0003370829D01*
X0001129564Y0003361304D01*
X0001124409Y0003348860D01*
X0000027952Y0003348860D01*
X0000027952Y0003543538D01*
X0000415944Y0003543538D01*
X0000415944Y0003527327D01*
X0000422148Y0003512351D01*
X0000433611Y0003500888D01*
X0000448587Y0003494685D01*
X0000451377Y0003494685D01*
X0000451377Y0003491894D01*
X0000457581Y0003476918D01*
X0000469044Y0003465455D01*
X0000484020Y0003459251D01*
X0000500231Y0003459251D01*
X0000515207Y0003465455D01*
X0000526670Y0003476918D01*
X0000532873Y0003491894D01*
X0000532873Y0003508105D01*
X0000528892Y0003517716D01*
X0000532873Y0003527327D01*
X0000532873Y0003543538D01*
X0000526670Y0003558514D01*
X0000515207Y0003569977D01*
X0000500231Y0003576181D01*
X0000484020Y0003576181D01*
X0000474409Y0003572200D01*
X0000464798Y0003576181D01*
X0000448587Y0003576181D01*
X0000433611Y0003569977D01*
X0000422148Y0003558514D01*
X0000415944Y0003543538D01*
X0000027952Y0003543538D01*
X0000027952Y0003632247D01*
X0000096011Y0003632247D01*
X0000110458Y0003612742D01*
X0000165794Y0003589380D01*
X0000225857Y0003588972D01*
X0000281505Y0003611581D01*
X0000283242Y0003612742D01*
X0000297689Y0003632247D01*
X0001592074Y0003632247D01*
X0001606521Y0003612742D01*
X0001661857Y0003589380D01*
X0001721920Y0003588972D01*
X0001777568Y0003611581D01*
X0001779305Y0003612742D01*
X0001793752Y0003632247D01*
X0001692913Y0003733086D01*
X0001592074Y0003632247D01*
X0000297689Y0003632247D01*
X0000196850Y0003733086D01*
X0000096011Y0003632247D01*
X0000027952Y0003632247D01*
X0000027952Y0003711149D01*
X0000045665Y0003711149D01*
X0000068274Y0003655502D01*
X0000069435Y0003653765D01*
X0000088940Y0003639318D01*
X0000189779Y0003740157D01*
X0000203921Y0003740157D01*
X0000304760Y0003639318D01*
X0000324265Y0003653765D01*
X0000347627Y0003709101D01*
X0000347641Y0003711149D01*
X0001541728Y0003711149D01*
X0001564337Y0003655502D01*
X0001565498Y0003653765D01*
X0001585003Y0003639318D01*
X0001685842Y0003740157D01*
X0001699984Y0003740157D01*
X0001800823Y0003639318D01*
X0001820328Y0003653765D01*
X0001843690Y0003709101D01*
X0001844097Y0003769165D01*
X0001821488Y0003824812D01*
X0001820328Y0003826549D01*
X0001800823Y0003840996D01*
X0001699984Y0003740157D01*
X0001685842Y0003740157D01*
X0001585003Y0003840996D01*
X0001565498Y0003826549D01*
X0001542136Y0003771213D01*
X0001541728Y0003711149D01*
X0000347641Y0003711149D01*
X0000348034Y0003769165D01*
X0000325425Y0003824812D01*
X0000324265Y0003826549D01*
X0000304760Y0003840996D01*
X0000203921Y0003740157D01*
X0000189779Y0003740157D01*
X0000088940Y0003840996D01*
X0000069435Y0003826549D01*
X0000046073Y0003771213D01*
X0000045665Y0003711149D01*
X0000027952Y0003711149D01*
X0000027952Y0003738912D01*
X0000030731Y0003770046D01*
X0000038649Y0003798991D01*
X0000051568Y0003826076D01*
X0000067370Y0003848067D01*
X0000096011Y0003848067D01*
X0000196850Y0003747228D01*
X0000297689Y0003848067D01*
X0001592074Y0003848067D01*
X0001692913Y0003747228D01*
X0001793752Y0003848067D01*
X0001779305Y0003867572D01*
X0001723969Y0003890934D01*
X0001663905Y0003891342D01*
X0001608258Y0003868733D01*
X0001606521Y0003867572D01*
X0001592074Y0003848067D01*
X0000297689Y0003848067D01*
X0000283242Y0003867572D01*
X0000227906Y0003890934D01*
X0000167842Y0003891342D01*
X0000112195Y0003868733D01*
X0000110458Y0003867572D01*
X0000096011Y0003848067D01*
X0000067370Y0003848067D01*
X0000069079Y0003850446D01*
X0000090629Y0003871329D01*
X0000115536Y0003888066D01*
X0000143014Y0003900127D01*
X0000172408Y0003907185D01*
X0000197875Y0003909055D01*
X0001691668Y0003909055D01*
X0001722802Y0003906276D01*
X0001722802Y0003906276D01*
G37*
X0001722802Y0003906276D02*
X0001751747Y0003898358D01*
X0001778832Y0003885439D01*
X0001803202Y0003867928D01*
X0001824085Y0003846378D01*
X0001840822Y0003821470D01*
X0001852883Y0003793993D01*
X0001859940Y0003764599D01*
X0001861811Y0003739132D01*
X0001861811Y0003067992D01*
X0001736912Y0003067992D01*
X0001734999Y0003067611D01*
X0001733377Y0003066527D01*
X0001732293Y0003064905D01*
X0001731912Y0003062992D01*
X0001731912Y0003007874D01*
X0001732293Y0003005960D01*
X0001733377Y0003004338D01*
X0001734999Y0003003254D01*
X0001736912Y0003002874D01*
X0001861811Y0003002874D01*
X0001861811Y0002245339D01*
X0001859032Y0002214205D01*
X0001851113Y0002185260D01*
X0001838194Y0002158175D01*
X0001820684Y0002133805D01*
X0001799134Y0002112922D01*
X0001774226Y0002096185D01*
X0001746749Y0002084123D01*
X0001717355Y0002077066D01*
X0001691888Y0002075196D01*
X0000198095Y0002075196D01*
X0000166960Y0002077975D01*
X0000138016Y0002085893D01*
X0000110930Y0002098812D01*
X0000086561Y0002116323D01*
X0000067315Y0002136184D01*
X0000096011Y0002136184D01*
X0000110458Y0002116679D01*
X0000165794Y0002093317D01*
X0000225857Y0002092909D01*
X0000281505Y0002115518D01*
X0000283242Y0002116679D01*
X0000297689Y0002136184D01*
X0001592074Y0002136184D01*
X0001606521Y0002116679D01*
X0001661857Y0002093317D01*
X0001721920Y0002092909D01*
X0001777568Y0002115518D01*
X0001779305Y0002116679D01*
X0001793752Y0002136184D01*
X0001692913Y0002237023D01*
X0001592074Y0002136184D01*
X0000297689Y0002136184D01*
X0000196850Y0002237023D01*
X0000096011Y0002136184D01*
X0000067315Y0002136184D01*
X0000065678Y0002137873D01*
X0000048941Y0002162781D01*
X0000036879Y0002190258D01*
X0000030919Y0002215086D01*
X0000045665Y0002215086D01*
X0000068274Y0002159439D01*
X0000069435Y0002157702D01*
X0000088940Y0002143255D01*
X0000189779Y0002244094D01*
X0000203921Y0002244094D01*
X0000304760Y0002143255D01*
X0000324265Y0002157702D01*
X0000347627Y0002213038D01*
X0000347958Y0002261811D01*
X0000363110Y0002261811D01*
X0000363110Y0002173228D01*
X0000363490Y0002171314D01*
X0000364574Y0002169692D01*
X0000366196Y0002168608D01*
X0000368110Y0002168228D01*
X0000604330Y0002168228D01*
X0000606244Y0002168608D01*
X0000607866Y0002169692D01*
X0000608950Y0002171314D01*
X0000609330Y0002173228D01*
X0000609330Y0002215086D01*
X0001541728Y0002215086D01*
X0001564337Y0002159439D01*
X0001565498Y0002157702D01*
X0001585003Y0002143255D01*
X0001685842Y0002244094D01*
X0001699984Y0002244094D01*
X0001800823Y0002143255D01*
X0001820328Y0002157702D01*
X0001843690Y0002213038D01*
X0001844097Y0002273102D01*
X0001821488Y0002328749D01*
X0001820328Y0002330486D01*
X0001800823Y0002344933D01*
X0001699984Y0002244094D01*
X0001685842Y0002244094D01*
X0001585003Y0002344933D01*
X0001565498Y0002330486D01*
X0001542136Y0002275150D01*
X0001541728Y0002215086D01*
X0000609330Y0002215086D01*
X0000609330Y0002261811D01*
X0000608950Y0002263724D01*
X0000607866Y0002265346D01*
X0000606244Y0002266430D01*
X0000604330Y0002266811D01*
X0000368110Y0002266811D01*
X0000366196Y0002266430D01*
X0000364574Y0002265346D01*
X0000363490Y0002263724D01*
X0000363110Y0002261811D01*
X0000347958Y0002261811D01*
X0000348034Y0002273102D01*
X0000325425Y0002328749D01*
X0000324265Y0002330486D01*
X0000304760Y0002344933D01*
X0000203921Y0002244094D01*
X0000189779Y0002244094D01*
X0000088940Y0002344933D01*
X0000069435Y0002330486D01*
X0000046073Y0002275150D01*
X0000045665Y0002215086D01*
X0000030919Y0002215086D01*
X0000029822Y0002219652D01*
X0000027952Y0002245119D01*
X0000027952Y0002352004D01*
X0000096011Y0002352004D01*
X0000196850Y0002251165D01*
X0000297689Y0002352004D01*
X0001592074Y0002352004D01*
X0001692913Y0002251165D01*
X0001793752Y0002352004D01*
X0001779305Y0002371509D01*
X0001723969Y0002394871D01*
X0001663905Y0002395279D01*
X0001608258Y0002372670D01*
X0001606521Y0002371509D01*
X0001592074Y0002352004D01*
X0000297689Y0002352004D01*
X0000283242Y0002371509D01*
X0000227906Y0002394871D01*
X0000167842Y0002395279D01*
X0000112195Y0002372670D01*
X0000110458Y0002371509D01*
X0000096011Y0002352004D01*
X0000027952Y0002352004D01*
X0000027952Y0003131496D01*
X0000191571Y0003131496D01*
X0000196108Y0003108684D01*
X0000209030Y0003089345D01*
X0000220777Y0003081496D01*
X0000209030Y0003073646D01*
X0000196108Y0003054307D01*
X0000191571Y0003031496D01*
X0000196108Y0003008684D01*
X0000209030Y0002989345D01*
X0000220777Y0002981496D01*
X0000209030Y0002973646D01*
X0000196108Y0002954307D01*
X0000191571Y0002931496D01*
X0000196108Y0002908684D01*
X0000209030Y0002889345D01*
X0000220777Y0002881496D01*
X0000209030Y0002873646D01*
X0000196108Y0002854307D01*
X0000191571Y0002831496D01*
X0000196108Y0002808684D01*
X0000209030Y0002789345D01*
X0000228369Y0002776423D01*
X0000245422Y0002773031D01*
X0000256939Y0002773031D01*
X0000273992Y0002776423D01*
X0000293331Y0002789345D01*
X0000301181Y0002801092D01*
X0000309030Y0002789345D01*
X0000328369Y0002776423D01*
X0000345422Y0002773031D01*
X0000356939Y0002773031D01*
X0000373992Y0002776423D01*
X0000384298Y0002783309D01*
X0001165944Y0002783309D01*
X0001165944Y0002769839D01*
X0001171099Y0002757395D01*
X0001180623Y0002747871D01*
X0001193068Y0002742716D01*
X0001206537Y0002742716D01*
X0001218982Y0002747871D01*
X0001228506Y0002757395D01*
X0001233661Y0002769839D01*
X0001233661Y0002783309D01*
X0001228506Y0002795753D01*
X0001218982Y0002805278D01*
X0001206537Y0002810433D01*
X0001193068Y0002810433D01*
X0001180623Y0002805278D01*
X0001171099Y0002795753D01*
X0001165944Y0002783309D01*
X0000384298Y0002783309D01*
X0000393331Y0002789345D01*
X0000406253Y0002808684D01*
X0000410791Y0002831496D01*
X0000406253Y0002854307D01*
X0000393331Y0002873646D01*
X0000381584Y0002881496D01*
X0000393331Y0002889345D01*
X0000406253Y0002908684D01*
X0000410791Y0002931496D01*
X0000406253Y0002954307D01*
X0000393331Y0002973646D01*
X0000381827Y0002981333D01*
X0000834448Y0002981333D01*
X0000834448Y0002965123D01*
X0000840652Y0002950146D01*
X0000852114Y0002938683D01*
X0000867091Y0002932480D01*
X0000883302Y0002932480D01*
X0000898278Y0002938683D01*
X0000909741Y0002950146D01*
X0000911573Y0002954569D01*
X0001014370Y0002954569D01*
X0001014370Y0002941099D01*
X0001019524Y0002928655D01*
X0001029049Y0002919131D01*
X0001041493Y0002913976D01*
X0001046205Y0002913976D01*
X0001050724Y0002903065D01*
X0001060248Y0002893541D01*
X0001072693Y0002888386D01*
X0001086163Y0002888386D01*
X0001090704Y0002890267D01*
X0001095410Y0002888318D01*
X0001108879Y0002888318D01*
X0001114696Y0002890728D01*
X0001118105Y0002889316D01*
X0001124005Y0002889316D01*
X0001126903Y0002886418D01*
X0001139347Y0002881264D01*
X0001152817Y0002881264D01*
X0001165261Y0002886418D01*
X0001172834Y0002893991D01*
X0001172834Y0002883422D01*
X0001177989Y0002870978D01*
X0001187513Y0002861453D01*
X0001199958Y0002856299D01*
X0001213427Y0002856299D01*
X0001225872Y0002861453D01*
X0001235396Y0002870978D01*
X0001240551Y0002883422D01*
X0001240551Y0002896892D01*
X0001235396Y0002909336D01*
X0001225872Y0002918861D01*
X0001214770Y0002923459D01*
X0001345472Y0002923459D01*
X0001345472Y0002907249D01*
X0001351675Y0002892272D01*
X0001363138Y0002880809D01*
X0001378115Y0002874606D01*
X0001394325Y0002874606D01*
X0001394408Y0002874640D01*
X0001413188Y0002874640D01*
X0001413188Y0002858430D01*
X0001419392Y0002843453D01*
X0001430855Y0002831990D01*
X0001445831Y0002825787D01*
X0001462042Y0002825787D01*
X0001477018Y0002831990D01*
X0001488481Y0002843453D01*
X0001494685Y0002858430D01*
X0001494685Y0002874640D01*
X0001488481Y0002889617D01*
X0001477018Y0002901079D01*
X0001462042Y0002907283D01*
X0001445831Y0002907283D01*
X0001430855Y0002901079D01*
X0001419392Y0002889617D01*
X0001413188Y0002874640D01*
X0001394408Y0002874640D01*
X0001409302Y0002880809D01*
X0001420764Y0002892272D01*
X0001426968Y0002907249D01*
X0001426968Y0002923459D01*
X0001420764Y0002938436D01*
X0001409302Y0002949898D01*
X0001394325Y0002956102D01*
X0001378115Y0002956102D01*
X0001363138Y0002949898D01*
X0001351675Y0002938436D01*
X0001345472Y0002923459D01*
X0001214770Y0002923459D01*
X0001213427Y0002924015D01*
X0001199958Y0002924015D01*
X0001187513Y0002918861D01*
X0001179940Y0002911287D01*
X0001179940Y0002921857D01*
X0001174785Y0002934301D01*
X0001165261Y0002943826D01*
X0001152817Y0002948980D01*
X0001146916Y0002948980D01*
X0001144019Y0002951878D01*
X0001131575Y0002957032D01*
X0001118105Y0002957032D01*
X0001112288Y0002954623D01*
X0001108879Y0002956035D01*
X0001095410Y0002956035D01*
X0001090868Y0002954154D01*
X0001086163Y0002956103D01*
X0001081451Y0002956103D01*
X0001076931Y0002967013D01*
X0001067407Y0002976538D01*
X0001054963Y0002981692D01*
X0001041493Y0002981692D01*
X0001029049Y0002976538D01*
X0001019524Y0002967013D01*
X0001014370Y0002954569D01*
X0000911573Y0002954569D01*
X0000915944Y0002965123D01*
X0000915944Y0002981333D01*
X0000909741Y0002996310D01*
X0000898278Y0003007772D01*
X0000883302Y0003013976D01*
X0000867091Y0003013976D01*
X0000852114Y0003007772D01*
X0000840652Y0002996310D01*
X0000834448Y0002981333D01*
X0000381827Y0002981333D01*
X0000381584Y0002981496D01*
X0000393331Y0002989345D01*
X0000406253Y0003008684D01*
X0000408371Y0003019333D01*
X0000976771Y0003019333D01*
X0000976771Y0003005863D01*
X0000981926Y0002993419D01*
X0000991450Y0002983894D01*
X0001003895Y0002978740D01*
X0001017364Y0002978740D01*
X0001029809Y0002983894D01*
X0001039333Y0002993419D01*
X0001044488Y0003005863D01*
X0001044488Y0003019333D01*
X0001039333Y0003031777D01*
X0001029809Y0003041302D01*
X0001017364Y0003046456D01*
X0001003895Y0003046456D01*
X0000991450Y0003041302D01*
X0000981926Y0003031777D01*
X0000976771Y0003019333D01*
X0000408371Y0003019333D01*
X0000410791Y0003031496D01*
X0000406253Y0003054307D01*
X0000396350Y0003069128D01*
X0000834055Y0003069128D01*
X0000834055Y0003052918D01*
X0000840258Y0003037941D01*
X0000851721Y0003026479D01*
X0000866697Y0003020275D01*
X0000882908Y0003020275D01*
X0000897885Y0003026479D01*
X0000909347Y0003037941D01*
X0000915551Y0003052918D01*
X0000915551Y0003069128D01*
X0000909347Y0003084105D01*
X0000897885Y0003095568D01*
X0000882908Y0003101771D01*
X0000866697Y0003101771D01*
X0000851721Y0003095568D01*
X0000840258Y0003084105D01*
X0000834055Y0003069128D01*
X0000396350Y0003069128D01*
X0000393331Y0003073646D01*
X0000381584Y0003081496D01*
X0000393331Y0003089345D01*
X0000406253Y0003108684D01*
X0000408215Y0003118546D01*
X0000980314Y0003118546D01*
X0000980314Y0003105076D01*
X0000983257Y0003097972D01*
X0000982409Y0003095926D01*
X0000982409Y0003082456D01*
X0000987564Y0003070012D01*
X0000997089Y0003060487D01*
X0001009533Y0003055333D01*
X0001023003Y0003055333D01*
X0001035447Y0003060487D01*
X0001044971Y0003070012D01*
X0001050126Y0003082456D01*
X0001050126Y0003095926D01*
X0001047183Y0003103030D01*
X0001048031Y0003105076D01*
X0001048031Y0003118546D01*
X0001042876Y0003130990D01*
X0001041352Y0003132514D01*
X0001375393Y0003132514D01*
X0001375393Y0003116304D01*
X0001381597Y0003101327D01*
X0001393059Y0003089864D01*
X0001408036Y0003083661D01*
X0001424246Y0003083661D01*
X0001439223Y0003089864D01*
X0001450686Y0003101327D01*
X0001456889Y0003116304D01*
X0001456889Y0003132514D01*
X0001451671Y0003145112D01*
X0001457677Y0003159611D01*
X0001457677Y0003175821D01*
X0001451473Y0003190798D01*
X0001440011Y0003202261D01*
X0001425034Y0003208464D01*
X0001408823Y0003208464D01*
X0001393847Y0003202261D01*
X0001382384Y0003190798D01*
X0001376181Y0003175821D01*
X0001376181Y0003159611D01*
X0001381399Y0003147013D01*
X0001375393Y0003132514D01*
X0001041352Y0003132514D01*
X0001033352Y0003140515D01*
X0001020908Y0003145669D01*
X0001007438Y0003145669D01*
X0000994993Y0003140515D01*
X0000985469Y0003130990D01*
X0000980314Y0003118546D01*
X0000408215Y0003118546D01*
X0000410791Y0003131496D01*
X0000406253Y0003154307D01*
X0000393331Y0003173646D01*
X0000380768Y0003182041D01*
X0000385880Y0003184441D01*
X0000401245Y0003201302D01*
X0000407932Y0003217445D01*
X0000403155Y0003226496D01*
X0000356181Y0003226496D01*
X0000356181Y0003225708D01*
X0000346181Y0003225708D01*
X0000346181Y0003226496D01*
X0000345393Y0003226496D01*
X0000345393Y0003236496D01*
X0000346181Y0003236496D01*
X0000346181Y0003283496D01*
X0000356181Y0003283496D01*
X0000356181Y0003236496D01*
X0000403155Y0003236496D01*
X0000407932Y0003245546D01*
X0000406644Y0003248656D01*
X0000700196Y0003248656D01*
X0000700196Y0003232445D01*
X0000706400Y0003217469D01*
X0000717862Y0003206006D01*
X0000732839Y0003199803D01*
X0000749050Y0003199803D01*
X0000764026Y0003206006D01*
X0000775489Y0003217469D01*
X0000778622Y0003225034D01*
X0001445472Y0003225034D01*
X0001445472Y0003208823D01*
X0001451675Y0003193847D01*
X0001463138Y0003182384D01*
X0001478115Y0003176181D01*
X0001494325Y0003176181D01*
X0001509302Y0003182384D01*
X0001520765Y0003193847D01*
X0001526968Y0003208823D01*
X0001526968Y0003225034D01*
X0001520765Y0003240011D01*
X0001509302Y0003251473D01*
X0001494325Y0003257677D01*
X0001478115Y0003257677D01*
X0001463138Y0003251473D01*
X0001451675Y0003240011D01*
X0001445472Y0003225034D01*
X0000778622Y0003225034D01*
X0000781692Y0003232445D01*
X0000781692Y0003248656D01*
X0000775489Y0003263633D01*
X0000764026Y0003275095D01*
X0000749050Y0003281299D01*
X0000732839Y0003281299D01*
X0000717862Y0003275095D01*
X0000706400Y0003263633D01*
X0000700196Y0003248656D01*
X0000406644Y0003248656D01*
X0000401245Y0003261689D01*
X0000385880Y0003278550D01*
X0000365231Y0003288247D01*
X0000356181Y0003283496D01*
X0000346181Y0003283496D01*
X0000337130Y0003288247D01*
X0000316481Y0003278550D01*
X0000309053Y0003270399D01*
X0000308195Y0003274715D01*
X0000302669Y0003282984D01*
X0000294400Y0003288510D01*
X0000284645Y0003290450D01*
X0000217716Y0003290450D01*
X0000207962Y0003288510D01*
X0000199692Y0003282984D01*
X0000194167Y0003274715D01*
X0000192226Y0003264960D01*
X0000192226Y0003198031D01*
X0000194167Y0003188276D01*
X0000199692Y0003180007D01*
X0000207962Y0003174482D01*
X0000209748Y0003174126D01*
X0000209030Y0003173646D01*
X0000196108Y0003154307D01*
X0000191571Y0003131496D01*
X0000027952Y0003131496D01*
X0000027952Y0003348860D01*
X0001124409Y0003348860D01*
X0001124409Y0003335390D01*
X0001129564Y0003322946D01*
X0001139088Y0003313422D01*
X0001151532Y0003308267D01*
X0001165002Y0003308267D01*
X0001177446Y0003313422D01*
X0001186971Y0003322946D01*
X0001192125Y0003335390D01*
X0001192125Y0003348860D01*
X0001186971Y0003361304D01*
X0001177446Y0003370829D01*
X0001165002Y0003375984D01*
X0001151532Y0003375984D01*
X0001139088Y0003370829D01*
X0001129564Y0003361304D01*
X0001124409Y0003348860D01*
X0000027952Y0003348860D01*
X0000027952Y0003543538D01*
X0000415944Y0003543538D01*
X0000415944Y0003527327D01*
X0000422148Y0003512351D01*
X0000433611Y0003500888D01*
X0000448587Y0003494685D01*
X0000451377Y0003494685D01*
X0000451377Y0003491894D01*
X0000457581Y0003476918D01*
X0000469044Y0003465455D01*
X0000484020Y0003459251D01*
X0000500231Y0003459251D01*
X0000515207Y0003465455D01*
X0000526670Y0003476918D01*
X0000532873Y0003491894D01*
X0000532873Y0003508105D01*
X0000528892Y0003517716D01*
X0000532873Y0003527327D01*
X0000532873Y0003543538D01*
X0000526670Y0003558514D01*
X0000515207Y0003569977D01*
X0000500231Y0003576181D01*
X0000484020Y0003576181D01*
X0000474409Y0003572200D01*
X0000464798Y0003576181D01*
X0000448587Y0003576181D01*
X0000433611Y0003569977D01*
X0000422148Y0003558514D01*
X0000415944Y0003543538D01*
X0000027952Y0003543538D01*
X0000027952Y0003632247D01*
X0000096011Y0003632247D01*
X0000110458Y0003612742D01*
X0000165794Y0003589380D01*
X0000225857Y0003588972D01*
X0000281505Y0003611581D01*
X0000283242Y0003612742D01*
X0000297689Y0003632247D01*
X0001592074Y0003632247D01*
X0001606521Y0003612742D01*
X0001661857Y0003589380D01*
X0001721920Y0003588972D01*
X0001777568Y0003611581D01*
X0001779305Y0003612742D01*
X0001793752Y0003632247D01*
X0001692913Y0003733086D01*
X0001592074Y0003632247D01*
X0000297689Y0003632247D01*
X0000196850Y0003733086D01*
X0000096011Y0003632247D01*
X0000027952Y0003632247D01*
X0000027952Y0003711149D01*
X0000045665Y0003711149D01*
X0000068274Y0003655502D01*
X0000069435Y0003653765D01*
X0000088940Y0003639318D01*
X0000189779Y0003740157D01*
X0000203921Y0003740157D01*
X0000304760Y0003639318D01*
X0000324265Y0003653765D01*
X0000347627Y0003709101D01*
X0000347641Y0003711149D01*
X0001541728Y0003711149D01*
X0001564337Y0003655502D01*
X0001565498Y0003653765D01*
X0001585003Y0003639318D01*
X0001685842Y0003740157D01*
X0001699984Y0003740157D01*
X0001800823Y0003639318D01*
X0001820328Y0003653765D01*
X0001843690Y0003709101D01*
X0001844097Y0003769165D01*
X0001821488Y0003824812D01*
X0001820328Y0003826549D01*
X0001800823Y0003840996D01*
X0001699984Y0003740157D01*
X0001685842Y0003740157D01*
X0001585003Y0003840996D01*
X0001565498Y0003826549D01*
X0001542136Y0003771213D01*
X0001541728Y0003711149D01*
X0000347641Y0003711149D01*
X0000348034Y0003769165D01*
X0000325425Y0003824812D01*
X0000324265Y0003826549D01*
X0000304760Y0003840996D01*
X0000203921Y0003740157D01*
X0000189779Y0003740157D01*
X0000088940Y0003840996D01*
X0000069435Y0003826549D01*
X0000046073Y0003771213D01*
X0000045665Y0003711149D01*
X0000027952Y0003711149D01*
X0000027952Y0003738912D01*
X0000030731Y0003770046D01*
X0000038649Y0003798991D01*
X0000051568Y0003826076D01*
X0000067370Y0003848067D01*
X0000096011Y0003848067D01*
X0000196850Y0003747228D01*
X0000297689Y0003848067D01*
X0001592074Y0003848067D01*
X0001692913Y0003747228D01*
X0001793752Y0003848067D01*
X0001779305Y0003867572D01*
X0001723969Y0003890934D01*
X0001663905Y0003891342D01*
X0001608258Y0003868733D01*
X0001606521Y0003867572D01*
X0001592074Y0003848067D01*
X0000297689Y0003848067D01*
X0000283242Y0003867572D01*
X0000227906Y0003890934D01*
X0000167842Y0003891342D01*
X0000112195Y0003868733D01*
X0000110458Y0003867572D01*
X0000096011Y0003848067D01*
X0000067370Y0003848067D01*
X0000069079Y0003850446D01*
X0000090629Y0003871329D01*
X0000115536Y0003888066D01*
X0000143014Y0003900127D01*
X0000172408Y0003907185D01*
X0000197875Y0003909055D01*
X0001691668Y0003909055D01*
X0001722802Y0003906276D01*
G04 #@! TD*
M02*