G04 #@! TF.GenerationSoftware,KiCad,Pcbnew,(5.1.0)-1*
G04 #@! TF.CreationDate,2019-04-19T11:20:35+10:00*
G04 #@! TF.ProjectId,VNA,564e412e-6b69-4636-9164-5f7063625858,rev?*
G04 #@! TF.SameCoordinates,Original*
G04 #@! TF.FileFunction,Legend,Bot*
G04 #@! TF.FilePolarity,Positive*
%FSLAX46Y46*%
G04 Gerber Fmt 4.6, Leading zero omitted, Abs format (unit mm)*
G04 Created by KiCad (PCBNEW (5.1.0)-1) date 2019-04-19 11:20:35*
%MOMM*%
%LPD*%
G04 APERTURE LIST*
%ADD10C,0.150000*%
G04 APERTURE END LIST*
D10*
X157842857Y-116752380D02*
X158176190Y-116276190D01*
X158414285Y-116752380D02*
X158414285Y-115752380D01*
X158033333Y-115752380D01*
X157938095Y-115800000D01*
X157890476Y-115847619D01*
X157842857Y-115942857D01*
X157842857Y-116085714D01*
X157890476Y-116180952D01*
X157938095Y-116228571D01*
X158033333Y-116276190D01*
X158414285Y-116276190D01*
X156985714Y-115752380D02*
X157176190Y-115752380D01*
X157271428Y-115800000D01*
X157319047Y-115847619D01*
X157414285Y-115990476D01*
X157461904Y-116180952D01*
X157461904Y-116561904D01*
X157414285Y-116657142D01*
X157366666Y-116704761D01*
X157271428Y-116752380D01*
X157080952Y-116752380D01*
X156985714Y-116704761D01*
X156938095Y-116657142D01*
X156890476Y-116561904D01*
X156890476Y-116323809D01*
X156938095Y-116228571D01*
X156985714Y-116180952D01*
X157080952Y-116133333D01*
X157271428Y-116133333D01*
X157366666Y-116180952D01*
X157414285Y-116228571D01*
X157461904Y-116323809D01*
X156557142Y-115752380D02*
X155938095Y-115752380D01*
X156271428Y-116133333D01*
X156128571Y-116133333D01*
X156033333Y-116180952D01*
X155985714Y-116228571D01*
X155938095Y-116323809D01*
X155938095Y-116561904D01*
X155985714Y-116657142D01*
X156033333Y-116704761D01*
X156128571Y-116752380D01*
X156414285Y-116752380D01*
X156509523Y-116704761D01*
X156557142Y-116657142D01*
X158314285Y-115152380D02*
X158314285Y-114152380D01*
X158076190Y-114152380D01*
X157933333Y-114200000D01*
X157838095Y-114295238D01*
X157790476Y-114390476D01*
X157742857Y-114580952D01*
X157742857Y-114723809D01*
X157790476Y-114914285D01*
X157838095Y-115009523D01*
X157933333Y-115104761D01*
X158076190Y-115152380D01*
X158314285Y-115152380D01*
X156790476Y-115152380D02*
X157361904Y-115152380D01*
X157076190Y-115152380D02*
X157076190Y-114152380D01*
X157171428Y-114295238D01*
X157266666Y-114390476D01*
X157361904Y-114438095D01*
X156219047Y-114580952D02*
X156314285Y-114533333D01*
X156361904Y-114485714D01*
X156409523Y-114390476D01*
X156409523Y-114342857D01*
X156361904Y-114247619D01*
X156314285Y-114200000D01*
X156219047Y-114152380D01*
X156028571Y-114152380D01*
X155933333Y-114200000D01*
X155885714Y-114247619D01*
X155838095Y-114342857D01*
X155838095Y-114390476D01*
X155885714Y-114485714D01*
X155933333Y-114533333D01*
X156028571Y-114580952D01*
X156219047Y-114580952D01*
X156314285Y-114628571D01*
X156361904Y-114676190D01*
X156409523Y-114771428D01*
X156409523Y-114961904D01*
X156361904Y-115057142D01*
X156314285Y-115104761D01*
X156219047Y-115152380D01*
X156028571Y-115152380D01*
X155933333Y-115104761D01*
X155885714Y-115057142D01*
X155838095Y-114961904D01*
X155838095Y-114771428D01*
X155885714Y-114676190D01*
X155933333Y-114628571D01*
X156028571Y-114580952D01*
X136538095Y-121952380D02*
X136538095Y-120952380D01*
X136300000Y-120952380D01*
X136157142Y-121000000D01*
X136061904Y-121095238D01*
X136014285Y-121190476D01*
X135966666Y-121380952D01*
X135966666Y-121523809D01*
X136014285Y-121714285D01*
X136061904Y-121809523D01*
X136157142Y-121904761D01*
X136300000Y-121952380D01*
X136538095Y-121952380D01*
X135014285Y-121952380D02*
X135585714Y-121952380D01*
X135300000Y-121952380D02*
X135300000Y-120952380D01*
X135395238Y-121095238D01*
X135490476Y-121190476D01*
X135585714Y-121238095D01*
X109400595Y-99602380D02*
X109400595Y-98602380D01*
X109162500Y-98602380D01*
X109019642Y-98650000D01*
X108924404Y-98745238D01*
X108876785Y-98840476D01*
X108829166Y-99030952D01*
X108829166Y-99173809D01*
X108876785Y-99364285D01*
X108924404Y-99459523D01*
X109019642Y-99554761D01*
X109162500Y-99602380D01*
X109400595Y-99602380D01*
X108448214Y-98697619D02*
X108400595Y-98650000D01*
X108305357Y-98602380D01*
X108067261Y-98602380D01*
X107972023Y-98650000D01*
X107924404Y-98697619D01*
X107876785Y-98792857D01*
X107876785Y-98888095D01*
X107924404Y-99030952D01*
X108495833Y-99602380D01*
X107876785Y-99602380D01*
X109338095Y-98052380D02*
X109338095Y-97052380D01*
X109100000Y-97052380D01*
X108957142Y-97100000D01*
X108861904Y-97195238D01*
X108814285Y-97290476D01*
X108766666Y-97480952D01*
X108766666Y-97623809D01*
X108814285Y-97814285D01*
X108861904Y-97909523D01*
X108957142Y-98004761D01*
X109100000Y-98052380D01*
X109338095Y-98052380D01*
X108433333Y-97052380D02*
X107814285Y-97052380D01*
X108147619Y-97433333D01*
X108004761Y-97433333D01*
X107909523Y-97480952D01*
X107861904Y-97528571D01*
X107814285Y-97623809D01*
X107814285Y-97861904D01*
X107861904Y-97957142D01*
X107909523Y-98004761D01*
X108004761Y-98052380D01*
X108290476Y-98052380D01*
X108385714Y-98004761D01*
X108433333Y-97957142D01*
X109338095Y-96352380D02*
X109338095Y-95352380D01*
X109100000Y-95352380D01*
X108957142Y-95400000D01*
X108861904Y-95495238D01*
X108814285Y-95590476D01*
X108766666Y-95780952D01*
X108766666Y-95923809D01*
X108814285Y-96114285D01*
X108861904Y-96209523D01*
X108957142Y-96304761D01*
X109100000Y-96352380D01*
X109338095Y-96352380D01*
X107909523Y-95685714D02*
X107909523Y-96352380D01*
X108147619Y-95304761D02*
X108385714Y-96019047D01*
X107766666Y-96019047D01*
X109338095Y-94752380D02*
X109338095Y-93752380D01*
X109100000Y-93752380D01*
X108957142Y-93800000D01*
X108861904Y-93895238D01*
X108814285Y-93990476D01*
X108766666Y-94180952D01*
X108766666Y-94323809D01*
X108814285Y-94514285D01*
X108861904Y-94609523D01*
X108957142Y-94704761D01*
X109100000Y-94752380D01*
X109338095Y-94752380D01*
X107861904Y-93752380D02*
X108338095Y-93752380D01*
X108385714Y-94228571D01*
X108338095Y-94180952D01*
X108242857Y-94133333D01*
X108004761Y-94133333D01*
X107909523Y-94180952D01*
X107861904Y-94228571D01*
X107814285Y-94323809D01*
X107814285Y-94561904D01*
X107861904Y-94657142D01*
X107909523Y-94704761D01*
X108004761Y-94752380D01*
X108242857Y-94752380D01*
X108338095Y-94704761D01*
X108385714Y-94657142D01*
X109338095Y-93152380D02*
X109338095Y-92152380D01*
X109100000Y-92152380D01*
X108957142Y-92200000D01*
X108861904Y-92295238D01*
X108814285Y-92390476D01*
X108766666Y-92580952D01*
X108766666Y-92723809D01*
X108814285Y-92914285D01*
X108861904Y-93009523D01*
X108957142Y-93104761D01*
X109100000Y-93152380D01*
X109338095Y-93152380D01*
X107909523Y-92152380D02*
X108100000Y-92152380D01*
X108195238Y-92200000D01*
X108242857Y-92247619D01*
X108338095Y-92390476D01*
X108385714Y-92580952D01*
X108385714Y-92961904D01*
X108338095Y-93057142D01*
X108290476Y-93104761D01*
X108195238Y-93152380D01*
X108004761Y-93152380D01*
X107909523Y-93104761D01*
X107861904Y-93057142D01*
X107814285Y-92961904D01*
X107814285Y-92723809D01*
X107861904Y-92628571D01*
X107909523Y-92580952D01*
X108004761Y-92533333D01*
X108195238Y-92533333D01*
X108290476Y-92580952D01*
X108338095Y-92628571D01*
X108385714Y-92723809D01*
X155738095Y-124902380D02*
X155738095Y-123902380D01*
X155500000Y-123902380D01*
X155357142Y-123950000D01*
X155261904Y-124045238D01*
X155214285Y-124140476D01*
X155166666Y-124330952D01*
X155166666Y-124473809D01*
X155214285Y-124664285D01*
X155261904Y-124759523D01*
X155357142Y-124854761D01*
X155500000Y-124902380D01*
X155738095Y-124902380D01*
X154833333Y-123902380D02*
X154166666Y-123902380D01*
X154595238Y-124902380D01*
X155738095Y-123302380D02*
X155738095Y-122302380D01*
X155500000Y-122302380D01*
X155357142Y-122350000D01*
X155261904Y-122445238D01*
X155214285Y-122540476D01*
X155166666Y-122730952D01*
X155166666Y-122873809D01*
X155214285Y-123064285D01*
X155261904Y-123159523D01*
X155357142Y-123254761D01*
X155500000Y-123302380D01*
X155738095Y-123302380D01*
X154595238Y-122730952D02*
X154690476Y-122683333D01*
X154738095Y-122635714D01*
X154785714Y-122540476D01*
X154785714Y-122492857D01*
X154738095Y-122397619D01*
X154690476Y-122350000D01*
X154595238Y-122302380D01*
X154404761Y-122302380D01*
X154309523Y-122350000D01*
X154261904Y-122397619D01*
X154214285Y-122492857D01*
X154214285Y-122540476D01*
X154261904Y-122635714D01*
X154309523Y-122683333D01*
X154404761Y-122730952D01*
X154595238Y-122730952D01*
X154690476Y-122778571D01*
X154738095Y-122826190D01*
X154785714Y-122921428D01*
X154785714Y-123111904D01*
X154738095Y-123207142D01*
X154690476Y-123254761D01*
X154595238Y-123302380D01*
X154404761Y-123302380D01*
X154309523Y-123254761D01*
X154261904Y-123207142D01*
X154214285Y-123111904D01*
X154214285Y-122921428D01*
X154261904Y-122826190D01*
X154309523Y-122778571D01*
X154404761Y-122730952D01*
X155588095Y-120102380D02*
X155588095Y-119102380D01*
X155350000Y-119102380D01*
X155207142Y-119150000D01*
X155111904Y-119245238D01*
X155064285Y-119340476D01*
X155016666Y-119530952D01*
X155016666Y-119673809D01*
X155064285Y-119864285D01*
X155111904Y-119959523D01*
X155207142Y-120054761D01*
X155350000Y-120102380D01*
X155588095Y-120102380D01*
X154540476Y-120102380D02*
X154350000Y-120102380D01*
X154254761Y-120054761D01*
X154207142Y-120007142D01*
X154111904Y-119864285D01*
X154064285Y-119673809D01*
X154064285Y-119292857D01*
X154111904Y-119197619D01*
X154159523Y-119150000D01*
X154254761Y-119102380D01*
X154445238Y-119102380D01*
X154540476Y-119150000D01*
X154588095Y-119197619D01*
X154635714Y-119292857D01*
X154635714Y-119530952D01*
X154588095Y-119626190D01*
X154540476Y-119673809D01*
X154445238Y-119721428D01*
X154254761Y-119721428D01*
X154159523Y-119673809D01*
X154111904Y-119626190D01*
X154064285Y-119530952D01*
X156114285Y-121652380D02*
X156114285Y-120652380D01*
X155876190Y-120652380D01*
X155733333Y-120700000D01*
X155638095Y-120795238D01*
X155590476Y-120890476D01*
X155542857Y-121080952D01*
X155542857Y-121223809D01*
X155590476Y-121414285D01*
X155638095Y-121509523D01*
X155733333Y-121604761D01*
X155876190Y-121652380D01*
X156114285Y-121652380D01*
X154590476Y-121652380D02*
X155161904Y-121652380D01*
X154876190Y-121652380D02*
X154876190Y-120652380D01*
X154971428Y-120795238D01*
X155066666Y-120890476D01*
X155161904Y-120938095D01*
X153971428Y-120652380D02*
X153876190Y-120652380D01*
X153780952Y-120700000D01*
X153733333Y-120747619D01*
X153685714Y-120842857D01*
X153638095Y-121033333D01*
X153638095Y-121271428D01*
X153685714Y-121461904D01*
X153733333Y-121557142D01*
X153780952Y-121604761D01*
X153876190Y-121652380D01*
X153971428Y-121652380D01*
X154066666Y-121604761D01*
X154114285Y-121557142D01*
X154161904Y-121461904D01*
X154209523Y-121271428D01*
X154209523Y-121033333D01*
X154161904Y-120842857D01*
X154114285Y-120747619D01*
X154066666Y-120700000D01*
X153971428Y-120652380D01*
X122814285Y-78552380D02*
X122814285Y-77552380D01*
X122576190Y-77552380D01*
X122433333Y-77600000D01*
X122338095Y-77695238D01*
X122290476Y-77790476D01*
X122242857Y-77980952D01*
X122242857Y-78123809D01*
X122290476Y-78314285D01*
X122338095Y-78409523D01*
X122433333Y-78504761D01*
X122576190Y-78552380D01*
X122814285Y-78552380D01*
X121290476Y-78552380D02*
X121861904Y-78552380D01*
X121576190Y-78552380D02*
X121576190Y-77552380D01*
X121671428Y-77695238D01*
X121766666Y-77790476D01*
X121861904Y-77838095D01*
X120338095Y-78552380D02*
X120909523Y-78552380D01*
X120623809Y-78552380D02*
X120623809Y-77552380D01*
X120719047Y-77695238D01*
X120814285Y-77790476D01*
X120909523Y-77838095D01*
X122914285Y-80152380D02*
X122914285Y-79152380D01*
X122676190Y-79152380D01*
X122533333Y-79200000D01*
X122438095Y-79295238D01*
X122390476Y-79390476D01*
X122342857Y-79580952D01*
X122342857Y-79723809D01*
X122390476Y-79914285D01*
X122438095Y-80009523D01*
X122533333Y-80104761D01*
X122676190Y-80152380D01*
X122914285Y-80152380D01*
X121390476Y-80152380D02*
X121961904Y-80152380D01*
X121676190Y-80152380D02*
X121676190Y-79152380D01*
X121771428Y-79295238D01*
X121866666Y-79390476D01*
X121961904Y-79438095D01*
X121009523Y-79247619D02*
X120961904Y-79200000D01*
X120866666Y-79152380D01*
X120628571Y-79152380D01*
X120533333Y-79200000D01*
X120485714Y-79247619D01*
X120438095Y-79342857D01*
X120438095Y-79438095D01*
X120485714Y-79580952D01*
X121057142Y-80152380D01*
X120438095Y-80152380D01*
X122914285Y-81752380D02*
X122914285Y-80752380D01*
X122676190Y-80752380D01*
X122533333Y-80800000D01*
X122438095Y-80895238D01*
X122390476Y-80990476D01*
X122342857Y-81180952D01*
X122342857Y-81323809D01*
X122390476Y-81514285D01*
X122438095Y-81609523D01*
X122533333Y-81704761D01*
X122676190Y-81752380D01*
X122914285Y-81752380D01*
X121390476Y-81752380D02*
X121961904Y-81752380D01*
X121676190Y-81752380D02*
X121676190Y-80752380D01*
X121771428Y-80895238D01*
X121866666Y-80990476D01*
X121961904Y-81038095D01*
X121057142Y-80752380D02*
X120438095Y-80752380D01*
X120771428Y-81133333D01*
X120628571Y-81133333D01*
X120533333Y-81180952D01*
X120485714Y-81228571D01*
X120438095Y-81323809D01*
X120438095Y-81561904D01*
X120485714Y-81657142D01*
X120533333Y-81704761D01*
X120628571Y-81752380D01*
X120914285Y-81752380D01*
X121009523Y-81704761D01*
X121057142Y-81657142D01*
X122914285Y-83252380D02*
X122914285Y-82252380D01*
X122676190Y-82252380D01*
X122533333Y-82300000D01*
X122438095Y-82395238D01*
X122390476Y-82490476D01*
X122342857Y-82680952D01*
X122342857Y-82823809D01*
X122390476Y-83014285D01*
X122438095Y-83109523D01*
X122533333Y-83204761D01*
X122676190Y-83252380D01*
X122914285Y-83252380D01*
X121390476Y-83252380D02*
X121961904Y-83252380D01*
X121676190Y-83252380D02*
X121676190Y-82252380D01*
X121771428Y-82395238D01*
X121866666Y-82490476D01*
X121961904Y-82538095D01*
X120533333Y-82585714D02*
X120533333Y-83252380D01*
X120771428Y-82204761D02*
X121009523Y-82919047D01*
X120390476Y-82919047D01*
X183552380Y-88585714D02*
X182552380Y-88585714D01*
X182552380Y-88823809D01*
X182600000Y-88966666D01*
X182695238Y-89061904D01*
X182790476Y-89109523D01*
X182980952Y-89157142D01*
X183123809Y-89157142D01*
X183314285Y-89109523D01*
X183409523Y-89061904D01*
X183504761Y-88966666D01*
X183552380Y-88823809D01*
X183552380Y-88585714D01*
X183552380Y-90109523D02*
X183552380Y-89538095D01*
X183552380Y-89823809D02*
X182552380Y-89823809D01*
X182695238Y-89728571D01*
X182790476Y-89633333D01*
X182838095Y-89538095D01*
X182552380Y-90966666D02*
X182552380Y-90776190D01*
X182600000Y-90680952D01*
X182647619Y-90633333D01*
X182790476Y-90538095D01*
X182980952Y-90490476D01*
X183361904Y-90490476D01*
X183457142Y-90538095D01*
X183504761Y-90585714D01*
X183552380Y-90680952D01*
X183552380Y-90871428D01*
X183504761Y-90966666D01*
X183457142Y-91014285D01*
X183361904Y-91061904D01*
X183123809Y-91061904D01*
X183028571Y-91014285D01*
X182980952Y-90966666D01*
X182933333Y-90871428D01*
X182933333Y-90680952D01*
X182980952Y-90585714D01*
X183028571Y-90538095D01*
X183123809Y-90490476D01*
X185052380Y-88485714D02*
X184052380Y-88485714D01*
X184052380Y-88723809D01*
X184100000Y-88866666D01*
X184195238Y-88961904D01*
X184290476Y-89009523D01*
X184480952Y-89057142D01*
X184623809Y-89057142D01*
X184814285Y-89009523D01*
X184909523Y-88961904D01*
X185004761Y-88866666D01*
X185052380Y-88723809D01*
X185052380Y-88485714D01*
X185052380Y-90009523D02*
X185052380Y-89438095D01*
X185052380Y-89723809D02*
X184052380Y-89723809D01*
X184195238Y-89628571D01*
X184290476Y-89533333D01*
X184338095Y-89438095D01*
X184052380Y-90342857D02*
X184052380Y-91009523D01*
X185052380Y-90580952D01*
X132966666Y-121952380D02*
X133300000Y-121476190D01*
X133538095Y-121952380D02*
X133538095Y-120952380D01*
X133157142Y-120952380D01*
X133061904Y-121000000D01*
X133014285Y-121047619D01*
X132966666Y-121142857D01*
X132966666Y-121285714D01*
X133014285Y-121380952D01*
X133061904Y-121428571D01*
X133157142Y-121476190D01*
X133538095Y-121476190D01*
X132014285Y-121952380D02*
X132585714Y-121952380D01*
X132300000Y-121952380D02*
X132300000Y-120952380D01*
X132395238Y-121095238D01*
X132490476Y-121190476D01*
X132585714Y-121238095D01*
X106242857Y-99602380D02*
X106576190Y-99126190D01*
X106814285Y-99602380D02*
X106814285Y-98602380D01*
X106433333Y-98602380D01*
X106338095Y-98650000D01*
X106290476Y-98697619D01*
X106242857Y-98792857D01*
X106242857Y-98935714D01*
X106290476Y-99030952D01*
X106338095Y-99078571D01*
X106433333Y-99126190D01*
X106814285Y-99126190D01*
X105290476Y-99602380D02*
X105861904Y-99602380D01*
X105576190Y-99602380D02*
X105576190Y-98602380D01*
X105671428Y-98745238D01*
X105766666Y-98840476D01*
X105861904Y-98888095D01*
X104433333Y-98935714D02*
X104433333Y-99602380D01*
X104671428Y-98554761D02*
X104909523Y-99269047D01*
X104290476Y-99269047D01*
X106242857Y-98052380D02*
X106576190Y-97576190D01*
X106814285Y-98052380D02*
X106814285Y-97052380D01*
X106433333Y-97052380D01*
X106338095Y-97100000D01*
X106290476Y-97147619D01*
X106242857Y-97242857D01*
X106242857Y-97385714D01*
X106290476Y-97480952D01*
X106338095Y-97528571D01*
X106433333Y-97576190D01*
X106814285Y-97576190D01*
X105290476Y-98052380D02*
X105861904Y-98052380D01*
X105576190Y-98052380D02*
X105576190Y-97052380D01*
X105671428Y-97195238D01*
X105766666Y-97290476D01*
X105861904Y-97338095D01*
X104385714Y-97052380D02*
X104861904Y-97052380D01*
X104909523Y-97528571D01*
X104861904Y-97480952D01*
X104766666Y-97433333D01*
X104528571Y-97433333D01*
X104433333Y-97480952D01*
X104385714Y-97528571D01*
X104338095Y-97623809D01*
X104338095Y-97861904D01*
X104385714Y-97957142D01*
X104433333Y-98004761D01*
X104528571Y-98052380D01*
X104766666Y-98052380D01*
X104861904Y-98004761D01*
X104909523Y-97957142D01*
X106242857Y-96252380D02*
X106576190Y-95776190D01*
X106814285Y-96252380D02*
X106814285Y-95252380D01*
X106433333Y-95252380D01*
X106338095Y-95300000D01*
X106290476Y-95347619D01*
X106242857Y-95442857D01*
X106242857Y-95585714D01*
X106290476Y-95680952D01*
X106338095Y-95728571D01*
X106433333Y-95776190D01*
X106814285Y-95776190D01*
X105290476Y-96252380D02*
X105861904Y-96252380D01*
X105576190Y-96252380D02*
X105576190Y-95252380D01*
X105671428Y-95395238D01*
X105766666Y-95490476D01*
X105861904Y-95538095D01*
X104433333Y-95252380D02*
X104623809Y-95252380D01*
X104719047Y-95300000D01*
X104766666Y-95347619D01*
X104861904Y-95490476D01*
X104909523Y-95680952D01*
X104909523Y-96061904D01*
X104861904Y-96157142D01*
X104814285Y-96204761D01*
X104719047Y-96252380D01*
X104528571Y-96252380D01*
X104433333Y-96204761D01*
X104385714Y-96157142D01*
X104338095Y-96061904D01*
X104338095Y-95823809D01*
X104385714Y-95728571D01*
X104433333Y-95680952D01*
X104528571Y-95633333D01*
X104719047Y-95633333D01*
X104814285Y-95680952D01*
X104861904Y-95728571D01*
X104909523Y-95823809D01*
X106242857Y-94752380D02*
X106576190Y-94276190D01*
X106814285Y-94752380D02*
X106814285Y-93752380D01*
X106433333Y-93752380D01*
X106338095Y-93800000D01*
X106290476Y-93847619D01*
X106242857Y-93942857D01*
X106242857Y-94085714D01*
X106290476Y-94180952D01*
X106338095Y-94228571D01*
X106433333Y-94276190D01*
X106814285Y-94276190D01*
X105290476Y-94752380D02*
X105861904Y-94752380D01*
X105576190Y-94752380D02*
X105576190Y-93752380D01*
X105671428Y-93895238D01*
X105766666Y-93990476D01*
X105861904Y-94038095D01*
X104957142Y-93752380D02*
X104290476Y-93752380D01*
X104719047Y-94752380D01*
X106342857Y-93052380D02*
X106676190Y-92576190D01*
X106914285Y-93052380D02*
X106914285Y-92052380D01*
X106533333Y-92052380D01*
X106438095Y-92100000D01*
X106390476Y-92147619D01*
X106342857Y-92242857D01*
X106342857Y-92385714D01*
X106390476Y-92480952D01*
X106438095Y-92528571D01*
X106533333Y-92576190D01*
X106914285Y-92576190D01*
X105390476Y-93052380D02*
X105961904Y-93052380D01*
X105676190Y-93052380D02*
X105676190Y-92052380D01*
X105771428Y-92195238D01*
X105866666Y-92290476D01*
X105961904Y-92338095D01*
X104819047Y-92480952D02*
X104914285Y-92433333D01*
X104961904Y-92385714D01*
X105009523Y-92290476D01*
X105009523Y-92242857D01*
X104961904Y-92147619D01*
X104914285Y-92100000D01*
X104819047Y-92052380D01*
X104628571Y-92052380D01*
X104533333Y-92100000D01*
X104485714Y-92147619D01*
X104438095Y-92242857D01*
X104438095Y-92290476D01*
X104485714Y-92385714D01*
X104533333Y-92433333D01*
X104628571Y-92480952D01*
X104819047Y-92480952D01*
X104914285Y-92528571D01*
X104961904Y-92576190D01*
X105009523Y-92671428D01*
X105009523Y-92861904D01*
X104961904Y-92957142D01*
X104914285Y-93004761D01*
X104819047Y-93052380D01*
X104628571Y-93052380D01*
X104533333Y-93004761D01*
X104485714Y-92957142D01*
X104438095Y-92861904D01*
X104438095Y-92671428D01*
X104485714Y-92576190D01*
X104533333Y-92528571D01*
X104628571Y-92480952D01*
X158442857Y-124902380D02*
X158776190Y-124426190D01*
X159014285Y-124902380D02*
X159014285Y-123902380D01*
X158633333Y-123902380D01*
X158538095Y-123950000D01*
X158490476Y-123997619D01*
X158442857Y-124092857D01*
X158442857Y-124235714D01*
X158490476Y-124330952D01*
X158538095Y-124378571D01*
X158633333Y-124426190D01*
X159014285Y-124426190D01*
X158061904Y-123997619D02*
X158014285Y-123950000D01*
X157919047Y-123902380D01*
X157680952Y-123902380D01*
X157585714Y-123950000D01*
X157538095Y-123997619D01*
X157490476Y-124092857D01*
X157490476Y-124188095D01*
X157538095Y-124330952D01*
X158109523Y-124902380D01*
X157490476Y-124902380D01*
X157014285Y-124902380D02*
X156823809Y-124902380D01*
X156728571Y-124854761D01*
X156680952Y-124807142D01*
X156585714Y-124664285D01*
X156538095Y-124473809D01*
X156538095Y-124092857D01*
X156585714Y-123997619D01*
X156633333Y-123950000D01*
X156728571Y-123902380D01*
X156919047Y-123902380D01*
X157014285Y-123950000D01*
X157061904Y-123997619D01*
X157109523Y-124092857D01*
X157109523Y-124330952D01*
X157061904Y-124426190D01*
X157014285Y-124473809D01*
X156919047Y-124521428D01*
X156728571Y-124521428D01*
X156633333Y-124473809D01*
X156585714Y-124426190D01*
X156538095Y-124330952D01*
X158492857Y-123302380D02*
X158826190Y-122826190D01*
X159064285Y-123302380D02*
X159064285Y-122302380D01*
X158683333Y-122302380D01*
X158588095Y-122350000D01*
X158540476Y-122397619D01*
X158492857Y-122492857D01*
X158492857Y-122635714D01*
X158540476Y-122730952D01*
X158588095Y-122778571D01*
X158683333Y-122826190D01*
X159064285Y-122826190D01*
X158159523Y-122302380D02*
X157540476Y-122302380D01*
X157873809Y-122683333D01*
X157730952Y-122683333D01*
X157635714Y-122730952D01*
X157588095Y-122778571D01*
X157540476Y-122873809D01*
X157540476Y-123111904D01*
X157588095Y-123207142D01*
X157635714Y-123254761D01*
X157730952Y-123302380D01*
X158016666Y-123302380D01*
X158111904Y-123254761D01*
X158159523Y-123207142D01*
X156921428Y-122302380D02*
X156826190Y-122302380D01*
X156730952Y-122350000D01*
X156683333Y-122397619D01*
X156635714Y-122492857D01*
X156588095Y-122683333D01*
X156588095Y-122921428D01*
X156635714Y-123111904D01*
X156683333Y-123207142D01*
X156730952Y-123254761D01*
X156826190Y-123302380D01*
X156921428Y-123302380D01*
X157016666Y-123254761D01*
X157064285Y-123207142D01*
X157111904Y-123111904D01*
X157159523Y-122921428D01*
X157159523Y-122683333D01*
X157111904Y-122492857D01*
X157064285Y-122397619D01*
X157016666Y-122350000D01*
X156921428Y-122302380D01*
X158442857Y-120102380D02*
X158776190Y-119626190D01*
X159014285Y-120102380D02*
X159014285Y-119102380D01*
X158633333Y-119102380D01*
X158538095Y-119150000D01*
X158490476Y-119197619D01*
X158442857Y-119292857D01*
X158442857Y-119435714D01*
X158490476Y-119530952D01*
X158538095Y-119578571D01*
X158633333Y-119626190D01*
X159014285Y-119626190D01*
X158109523Y-119102380D02*
X157490476Y-119102380D01*
X157823809Y-119483333D01*
X157680952Y-119483333D01*
X157585714Y-119530952D01*
X157538095Y-119578571D01*
X157490476Y-119673809D01*
X157490476Y-119911904D01*
X157538095Y-120007142D01*
X157585714Y-120054761D01*
X157680952Y-120102380D01*
X157966666Y-120102380D01*
X158061904Y-120054761D01*
X158109523Y-120007142D01*
X156538095Y-120102380D02*
X157109523Y-120102380D01*
X156823809Y-120102380D02*
X156823809Y-119102380D01*
X156919047Y-119245238D01*
X157014285Y-119340476D01*
X157109523Y-119388095D01*
X158542857Y-121702380D02*
X158876190Y-121226190D01*
X159114285Y-121702380D02*
X159114285Y-120702380D01*
X158733333Y-120702380D01*
X158638095Y-120750000D01*
X158590476Y-120797619D01*
X158542857Y-120892857D01*
X158542857Y-121035714D01*
X158590476Y-121130952D01*
X158638095Y-121178571D01*
X158733333Y-121226190D01*
X159114285Y-121226190D01*
X158209523Y-120702380D02*
X157590476Y-120702380D01*
X157923809Y-121083333D01*
X157780952Y-121083333D01*
X157685714Y-121130952D01*
X157638095Y-121178571D01*
X157590476Y-121273809D01*
X157590476Y-121511904D01*
X157638095Y-121607142D01*
X157685714Y-121654761D01*
X157780952Y-121702380D01*
X158066666Y-121702380D01*
X158161904Y-121654761D01*
X158209523Y-121607142D01*
X157209523Y-120797619D02*
X157161904Y-120750000D01*
X157066666Y-120702380D01*
X156828571Y-120702380D01*
X156733333Y-120750000D01*
X156685714Y-120797619D01*
X156638095Y-120892857D01*
X156638095Y-120988095D01*
X156685714Y-121130952D01*
X157257142Y-121702380D01*
X156638095Y-121702380D01*
X125442857Y-78552380D02*
X125776190Y-78076190D01*
X126014285Y-78552380D02*
X126014285Y-77552380D01*
X125633333Y-77552380D01*
X125538095Y-77600000D01*
X125490476Y-77647619D01*
X125442857Y-77742857D01*
X125442857Y-77885714D01*
X125490476Y-77980952D01*
X125538095Y-78028571D01*
X125633333Y-78076190D01*
X126014285Y-78076190D01*
X124538095Y-77552380D02*
X125014285Y-77552380D01*
X125061904Y-78028571D01*
X125014285Y-77980952D01*
X124919047Y-77933333D01*
X124680952Y-77933333D01*
X124585714Y-77980952D01*
X124538095Y-78028571D01*
X124490476Y-78123809D01*
X124490476Y-78361904D01*
X124538095Y-78457142D01*
X124585714Y-78504761D01*
X124680952Y-78552380D01*
X124919047Y-78552380D01*
X125014285Y-78504761D01*
X125061904Y-78457142D01*
X124109523Y-77647619D02*
X124061904Y-77600000D01*
X123966666Y-77552380D01*
X123728571Y-77552380D01*
X123633333Y-77600000D01*
X123585714Y-77647619D01*
X123538095Y-77742857D01*
X123538095Y-77838095D01*
X123585714Y-77980952D01*
X124157142Y-78552380D01*
X123538095Y-78552380D01*
X125442857Y-80152380D02*
X125776190Y-79676190D01*
X126014285Y-80152380D02*
X126014285Y-79152380D01*
X125633333Y-79152380D01*
X125538095Y-79200000D01*
X125490476Y-79247619D01*
X125442857Y-79342857D01*
X125442857Y-79485714D01*
X125490476Y-79580952D01*
X125538095Y-79628571D01*
X125633333Y-79676190D01*
X126014285Y-79676190D01*
X124538095Y-79152380D02*
X125014285Y-79152380D01*
X125061904Y-79628571D01*
X125014285Y-79580952D01*
X124919047Y-79533333D01*
X124680952Y-79533333D01*
X124585714Y-79580952D01*
X124538095Y-79628571D01*
X124490476Y-79723809D01*
X124490476Y-79961904D01*
X124538095Y-80057142D01*
X124585714Y-80104761D01*
X124680952Y-80152380D01*
X124919047Y-80152380D01*
X125014285Y-80104761D01*
X125061904Y-80057142D01*
X124157142Y-79152380D02*
X123538095Y-79152380D01*
X123871428Y-79533333D01*
X123728571Y-79533333D01*
X123633333Y-79580952D01*
X123585714Y-79628571D01*
X123538095Y-79723809D01*
X123538095Y-79961904D01*
X123585714Y-80057142D01*
X123633333Y-80104761D01*
X123728571Y-80152380D01*
X124014285Y-80152380D01*
X124109523Y-80104761D01*
X124157142Y-80057142D01*
X125342857Y-81652380D02*
X125676190Y-81176190D01*
X125914285Y-81652380D02*
X125914285Y-80652380D01*
X125533333Y-80652380D01*
X125438095Y-80700000D01*
X125390476Y-80747619D01*
X125342857Y-80842857D01*
X125342857Y-80985714D01*
X125390476Y-81080952D01*
X125438095Y-81128571D01*
X125533333Y-81176190D01*
X125914285Y-81176190D01*
X124438095Y-80652380D02*
X124914285Y-80652380D01*
X124961904Y-81128571D01*
X124914285Y-81080952D01*
X124819047Y-81033333D01*
X124580952Y-81033333D01*
X124485714Y-81080952D01*
X124438095Y-81128571D01*
X124390476Y-81223809D01*
X124390476Y-81461904D01*
X124438095Y-81557142D01*
X124485714Y-81604761D01*
X124580952Y-81652380D01*
X124819047Y-81652380D01*
X124914285Y-81604761D01*
X124961904Y-81557142D01*
X123533333Y-80985714D02*
X123533333Y-81652380D01*
X123771428Y-80604761D02*
X124009523Y-81319047D01*
X123390476Y-81319047D01*
X125342857Y-83352380D02*
X125676190Y-82876190D01*
X125914285Y-83352380D02*
X125914285Y-82352380D01*
X125533333Y-82352380D01*
X125438095Y-82400000D01*
X125390476Y-82447619D01*
X125342857Y-82542857D01*
X125342857Y-82685714D01*
X125390476Y-82780952D01*
X125438095Y-82828571D01*
X125533333Y-82876190D01*
X125914285Y-82876190D01*
X124438095Y-82352380D02*
X124914285Y-82352380D01*
X124961904Y-82828571D01*
X124914285Y-82780952D01*
X124819047Y-82733333D01*
X124580952Y-82733333D01*
X124485714Y-82780952D01*
X124438095Y-82828571D01*
X124390476Y-82923809D01*
X124390476Y-83161904D01*
X124438095Y-83257142D01*
X124485714Y-83304761D01*
X124580952Y-83352380D01*
X124819047Y-83352380D01*
X124914285Y-83304761D01*
X124961904Y-83257142D01*
X123485714Y-82352380D02*
X123961904Y-82352380D01*
X124009523Y-82828571D01*
X123961904Y-82780952D01*
X123866666Y-82733333D01*
X123628571Y-82733333D01*
X123533333Y-82780952D01*
X123485714Y-82828571D01*
X123438095Y-82923809D01*
X123438095Y-83161904D01*
X123485714Y-83257142D01*
X123533333Y-83304761D01*
X123628571Y-83352380D01*
X123866666Y-83352380D01*
X123961904Y-83304761D01*
X124009523Y-83257142D01*
X183552380Y-86157142D02*
X183076190Y-85823809D01*
X183552380Y-85585714D02*
X182552380Y-85585714D01*
X182552380Y-85966666D01*
X182600000Y-86061904D01*
X182647619Y-86109523D01*
X182742857Y-86157142D01*
X182885714Y-86157142D01*
X182980952Y-86109523D01*
X183028571Y-86061904D01*
X183076190Y-85966666D01*
X183076190Y-85585714D01*
X182552380Y-87061904D02*
X182552380Y-86585714D01*
X183028571Y-86538095D01*
X182980952Y-86585714D01*
X182933333Y-86680952D01*
X182933333Y-86919047D01*
X182980952Y-87014285D01*
X183028571Y-87061904D01*
X183123809Y-87109523D01*
X183361904Y-87109523D01*
X183457142Y-87061904D01*
X183504761Y-87014285D01*
X183552380Y-86919047D01*
X183552380Y-86680952D01*
X183504761Y-86585714D01*
X183457142Y-86538095D01*
X183552380Y-87585714D02*
X183552380Y-87776190D01*
X183504761Y-87871428D01*
X183457142Y-87919047D01*
X183314285Y-88014285D01*
X183123809Y-88061904D01*
X182742857Y-88061904D01*
X182647619Y-88014285D01*
X182600000Y-87966666D01*
X182552380Y-87871428D01*
X182552380Y-87680952D01*
X182600000Y-87585714D01*
X182647619Y-87538095D01*
X182742857Y-87490476D01*
X182980952Y-87490476D01*
X183076190Y-87538095D01*
X183123809Y-87585714D01*
X183171428Y-87680952D01*
X183171428Y-87871428D01*
X183123809Y-87966666D01*
X183076190Y-88014285D01*
X182980952Y-88061904D01*
X185052380Y-86107142D02*
X184576190Y-85773809D01*
X185052380Y-85535714D02*
X184052380Y-85535714D01*
X184052380Y-85916666D01*
X184100000Y-86011904D01*
X184147619Y-86059523D01*
X184242857Y-86107142D01*
X184385714Y-86107142D01*
X184480952Y-86059523D01*
X184528571Y-86011904D01*
X184576190Y-85916666D01*
X184576190Y-85535714D01*
X184052380Y-86964285D02*
X184052380Y-86773809D01*
X184100000Y-86678571D01*
X184147619Y-86630952D01*
X184290476Y-86535714D01*
X184480952Y-86488095D01*
X184861904Y-86488095D01*
X184957142Y-86535714D01*
X185004761Y-86583333D01*
X185052380Y-86678571D01*
X185052380Y-86869047D01*
X185004761Y-86964285D01*
X184957142Y-87011904D01*
X184861904Y-87059523D01*
X184623809Y-87059523D01*
X184528571Y-87011904D01*
X184480952Y-86964285D01*
X184433333Y-86869047D01*
X184433333Y-86678571D01*
X184480952Y-86583333D01*
X184528571Y-86535714D01*
X184623809Y-86488095D01*
X184052380Y-87678571D02*
X184052380Y-87773809D01*
X184100000Y-87869047D01*
X184147619Y-87916666D01*
X184242857Y-87964285D01*
X184433333Y-88011904D01*
X184671428Y-88011904D01*
X184861904Y-87964285D01*
X184957142Y-87916666D01*
X185004761Y-87869047D01*
X185052380Y-87773809D01*
X185052380Y-87678571D01*
X185004761Y-87583333D01*
X184957142Y-87535714D01*
X184861904Y-87488095D01*
X184671428Y-87440476D01*
X184433333Y-87440476D01*
X184242857Y-87488095D01*
X184147619Y-87535714D01*
X184100000Y-87583333D01*
X184052380Y-87678571D01*
M02*
