M48
; DRILL file {KiCad (5.1.0)-1} date 19/04/2019 11:20:39
; FORMAT={-:-/ absolute / metric / decimal}
; #@! TF.CreationDate,2019-04-19T11:20:39+10:00
; #@! TF.GenerationSoftware,Kicad,Pcbnew,(5.1.0)-1
FMAT,2
METRIC
T1C0.200
T2C0.250
T3C0.300
T4C0.400
T5C0.500
T6C0.950
T7C1.000
T8C2.300
T9C3.200
T10C0.600
T11C1.168
%
G90
G05
T1
X175.3Y-81.1
X175.3Y-82.1
X176.3Y-81.1
X176.3Y-82.1
X152.7Y-109.05
X152.7Y-110.15
X152.7Y-111.25
X153.8Y-109.05
X153.8Y-110.15
X153.8Y-111.25
X154.9Y-109.05
X154.9Y-110.15
X154.9Y-111.25
T2
X91.0Y-102.0
X91.0Y-110.0
X91.0Y-118.0
X91.7Y-77.15
X94.0Y-106.0
X94.0Y-114.0
X96.0Y-120.0
X97.0Y-102.0
X97.0Y-110.0
X97.0Y-118.0
X97.5Y-63.0
X97.5Y-126.6
X98.0Y-122.0
X98.55Y-72.55
X98.85Y-86.2
X99.85Y-95.4
X100.0Y-63.0
X100.0Y-120.0
X100.0Y-124.0
X100.0Y-126.6
X101.0Y-66.0
X101.0Y-74.4
X101.0Y-79.3
X102.0Y-89.0
X102.1Y-68.8
X102.1Y-76.8
X102.1Y-95.6
X102.5Y-63.0
X102.5Y-126.6
X102.7Y-76.8
X103.3Y-76.8
X103.7Y-92.7
X104.0Y-120.0
X104.0Y-124.0
X104.0Y-97.5
X104.1Y-99.0
X105.0Y-63.0
X105.0Y-66.0
X105.0Y-126.6
X107.0Y-87.0
X107.5Y-63.0
X107.5Y-126.6
X108.0Y-101.0
X108.0Y-120.0
X108.0Y-124.0
X108.5Y-81.1
X108.5Y-81.7
X108.5Y-82.3
X109.6Y-76.4
X110.0Y-63.0
X110.0Y-126.6
X110.1Y-92.6
X110.1Y-97.5
X110.25Y-105.2
X111.0Y-73.0
X111.9Y-120.0
X112.0Y-124.0
X112.05Y-90.45
X112.5Y-63.0
X112.5Y-126.6
X113.0Y-70.0
X113.55Y-101.75
X114.0Y-87.0
X114.0Y-122.0
X114.25Y-103.1
X115.0Y-63.0
X115.0Y-73.0
X115.0Y-126.6
X116.0Y-91.0
X116.0Y-98.0
X116.0Y-120.0
X116.0Y-124.0
X116.7Y-106.0
X116.7Y-117.1
X116.9Y-105.0
X117.0Y-70.0
X117.5Y-63.0
X117.5Y-126.6
X118.0Y-110.6
X118.0Y-122.0
X118.2Y-113.0
X119.0Y-68.0
X119.0Y-73.0
X119.929Y-100.329
X120.0Y-63.0
X120.0Y-87.0
X120.0Y-120.0
X120.0Y-124.0
X120.0Y-126.6
X120.05Y-112.05
X120.1Y-78.05
X120.1Y-79.65
X120.7Y-109.8
X120.8Y-103.15
X120.875Y-110.482
X120.882Y-112.525
X121.0Y-108.9
X121.0Y-114.9
X121.35Y-105.45
X121.36Y-67.71
X121.8Y-113.7
X121.949Y-114.34
X122.0Y-122.0
X122.4Y-105.39
X122.5Y-63.0
X122.5Y-126.6
X122.649Y-98.349
X123.0Y-73.0
X123.05Y-116.95
X123.06Y-114.557
X123.35Y-105.45
X123.603Y-98.103
X123.7Y-114.443
X123.85Y-116.85
X123.865Y-107.865
X123.9Y-67.8
X124.0Y-124.0
X124.35Y-118.45
X124.374Y-114.477
X125.0Y-63.0
X125.0Y-126.6
X125.03Y-104.13
X125.15Y-67.8
X125.65Y-97.85
X125.65Y-101.5
X125.85Y-114.6
X125.9Y-96.3
X126.1Y-104.466
X126.2Y-117.6
X126.35Y-116.15
X127.041Y-96.378
X127.1Y-104.69
X127.45Y-113.2
X127.5Y-63.0
X127.5Y-126.6
X127.9Y-79.7
X128.0Y-66.0
X128.0Y-120.0
X128.0Y-124.0
X128.1Y-104.7
X128.301Y-80.599
X128.319Y-83.319
X128.672Y-109.022
X129.0Y-78.8
X129.05Y-104.7
X129.7Y-90.2
X129.7Y-97.9
X130.0Y-63.0
X130.0Y-68.0
X130.0Y-126.6
X130.7Y-79.7
X130.9Y-80.5
X131.0Y-72.3
X131.55Y-88.15
X131.923Y-84.751
X132.0Y-124.0
X132.1Y-92.6
X132.5Y-63.0
X132.5Y-126.6
X132.65Y-86.55
X132.7Y-73.8
X133.6Y-112.2
X133.65Y-110.9
X133.7Y-110.3
X134.7Y-118.7
X135.0Y-63.0
X135.0Y-126.6
X135.95Y-114.0
X136.0Y-124.0
X136.2Y-80.7
X136.3Y-81.5
X136.646Y-98.854
X137.211Y-86.65
X137.5Y-63.0
X137.5Y-121.5
X137.5Y-126.6
X137.6Y-94.9
X137.8Y-104.3
X138.0Y-66.0
X138.3Y-94.9
X138.5Y-83.8
X138.6Y-113.3
X138.763Y-89.77
X138.9Y-102.1
X139.0Y-120.0
X139.0Y-124.0
X139.2Y-86.5
X139.4Y-111.6
X140.0Y-63.0
X140.0Y-126.6
X140.055Y-102.157
X140.4Y-85.4
X140.403Y-111.497
X140.7Y-86.4
X140.903Y-102.7
X141.21Y-89.059
X141.404Y-100.996
X141.963Y-86.188
X142.5Y-85.822
X142.5Y-63.0
X142.5Y-126.6
X143.0Y-93.5
X143.2Y-89.4
X143.75Y-111.5
X144.0Y-66.0
X144.5Y-90.9
X144.55Y-109.75
X144.656Y-92.625
X145.0Y-63.0
X145.0Y-126.6
X145.1Y-123.5
X145.4Y-101.8
X146.15Y-104.95
X146.6Y-84.3
X146.7Y-92.2
X146.829Y-74.129
X146.9Y-103.2
X146.9Y-97.6
X147.147Y-105.453
X147.4Y-72.5
X147.5Y-63.0
X147.5Y-126.6
X148.0Y-66.0
X148.4Y-75.2
X148.499Y-107.299
X149.0Y-116.95
X149.2Y-93.8
X149.45Y-117.6
X149.85Y-93.95
X149.9Y-75.2
X150.0Y-63.0
X150.0Y-68.0
X150.0Y-71.0
X150.0Y-126.6
X150.1Y-118.3
X150.2Y-88.1
X150.299Y-110.301
X150.3Y-86.5
X150.6Y-89.779
X151.5Y-112.7
X152.131Y-73.889
X152.5Y-63.0
X152.5Y-126.6
X152.7Y-74.4
X152.8Y-71.0
X152.8Y-116.3
X153.0Y-66.0
X153.05Y-112.85
X153.7Y-92.0
X154.05Y-112.85
X154.1Y-70.9
X154.2Y-103.6
X154.4Y-90.0
X155.0Y-63.0
X155.0Y-68.0
X155.0Y-126.6
X155.05Y-112.9
X155.35Y-70.95
X155.45Y-116.35
X156.651Y-109.658
X157.0Y-66.0
X157.0Y-73.0
X157.0Y-107.3
X157.02Y-110.206
X157.5Y-63.0
X157.5Y-126.6
X157.502Y-110.667
X157.6Y-75.1
X157.8Y-93.8
X157.868Y-107.346
X158.0Y-87.0
X160.0Y-63.0
X160.0Y-73.0
X160.0Y-80.0
X160.0Y-82.0
X160.0Y-84.0
X160.0Y-89.0
X160.0Y-94.0
X160.0Y-111.25
X160.0Y-112.1
X160.0Y-126.6
X160.055Y-108.653
X160.4Y-106.55
X160.7Y-120.7
X161.0Y-67.0
X161.15Y-108.65
X161.95Y-113.8
X162.0Y-75.0
X162.0Y-80.0
X162.0Y-82.0
X162.0Y-84.0
X162.0Y-92.0
X162.4Y-113.4
X162.5Y-63.0
X162.5Y-126.6
X162.8Y-113.05
X163.0Y-69.0
X163.2Y-79.9
X163.2Y-112.65
X163.35Y-109.65
X163.6Y-112.25
X163.85Y-109.2
X164.0Y-73.3
X164.0Y-94.0
X164.0Y-98.0
X164.0Y-102.0
X164.25Y-122.0
X164.3Y-108.8
X164.55Y-123.15
X164.649Y-113.791
X164.75Y-108.4
X165.0Y-63.0
X165.0Y-67.0
X165.0Y-126.6
X165.15Y-108.0
X165.5Y-83.85
X165.9Y-84.3
X165.9Y-88.9
X166.0Y-75.0
X166.0Y-92.0
X166.0Y-96.0
X166.0Y-100.0
X166.0Y-104.0
X166.1Y-109.7
X166.15Y-121.15
X166.4Y-106.9
X166.5Y-109.25
X166.55Y-84.3
X167.0Y-69.0
X167.2Y-84.3
X167.5Y-63.0
X167.5Y-126.6
X167.8Y-84.3
X168.0Y-73.0
X168.0Y-94.0
X168.0Y-98.0
X168.0Y-102.0
X168.0Y-105.25
X168.25Y-120.2
X168.25Y-121.05
X168.25Y-121.85
X168.45Y-84.3
X168.45Y-104.8
X168.75Y-79.2
X168.95Y-104.35
X169.0Y-67.0
X169.05Y-81.15
X169.05Y-82.2
X169.1Y-84.3
X169.35Y-79.2
X169.35Y-103.85
X169.4Y-106.35
X169.65Y-81.1
X169.7Y-84.3
X169.7Y-84.95
X169.7Y-85.6
X169.7Y-86.2
X169.7Y-86.8
X169.7Y-87.35
X169.7Y-87.95
X169.7Y-88.6
X169.7Y-89.25
X169.7Y-89.8
X169.7Y-90.4
X169.7Y-91.05
X169.7Y-91.7
X169.7Y-92.3
X169.7Y-92.9
X169.7Y-93.55
X169.7Y-94.15
X169.7Y-94.75
X169.7Y-95.4
X169.7Y-96.05
X169.7Y-96.6
X169.7Y-97.2
X169.7Y-97.85
X169.7Y-98.5
X169.7Y-99.1
X169.7Y-99.7
X169.7Y-100.35
X169.7Y-101.0
X169.7Y-101.55
X169.7Y-102.15
X169.7Y-102.8
X169.7Y-103.45
X169.75Y-82.2
X169.85Y-105.9
X169.9Y-79.2
X170.0Y-63.0
X170.0Y-75.0
X170.0Y-126.6
X170.25Y-81.1
X170.3Y-82.4
X170.35Y-105.45
X170.35Y-118.05
X170.5Y-79.2
X170.7Y-82.8
X170.8Y-81.2
X170.85Y-105.05
X171.0Y-69.0
X171.05Y-79.2
X171.1Y-83.2
X171.25Y-81.6
X171.25Y-104.65
X171.35Y-118.05
X171.45Y-83.65
X171.5Y-108.9
X171.55Y-89.25
X171.55Y-89.85
X171.55Y-90.45
X171.55Y-91.1
X171.55Y-91.75
X171.55Y-92.35
X171.55Y-92.95
X171.55Y-93.6
X171.55Y-94.2
X171.55Y-94.8
X171.55Y-95.45
X171.55Y-96.1
X171.55Y-96.65
X171.55Y-97.25
X171.55Y-97.9
X171.55Y-98.55
X171.55Y-99.15
X171.55Y-99.8
X171.55Y-100.35
X171.55Y-100.95
X171.55Y-101.6
X171.55Y-102.25
X171.55Y-102.85
X171.55Y-103.5
X171.55Y-104.15
X171.7Y-82.05
X171.75Y-86.05
X171.75Y-86.7
X172.05Y-82.5
X172.2Y-107.7
X172.25Y-79.25
X172.25Y-85.0
X172.25Y-87.9
X172.35Y-118.05
X172.5Y-63.0
X172.5Y-126.6
X173.0Y-67.0
X173.0Y-123.75
X173.05Y-119.15
X173.1Y-108.6
X173.55Y-79.75
X173.7Y-114.05
X173.75Y-118.0
X174.0Y-75.0
X174.0Y-90.0
X174.0Y-98.0
X174.0Y-102.0
X174.45Y-114.8
X174.8Y-85.05
X174.8Y-85.7
X174.8Y-86.3
X174.8Y-86.95
X174.8Y-87.6
X174.8Y-88.2
X174.8Y-88.8
X174.8Y-89.45
X175.0Y-63.0
X175.0Y-69.0
X175.0Y-92.0
X175.0Y-126.6
X175.05Y-90.05
X175.15Y-78.25
X175.3Y-114.2
X175.45Y-90.5
X175.55Y-77.8
X175.85Y-90.9
X175.95Y-77.45
X176.0Y-73.0
X176.0Y-96.0
X176.0Y-100.0
X176.0Y-104.0
X176.0Y-124.0
X176.25Y-91.3
X176.45Y-77.3
X176.65Y-91.7
X176.9Y-86.4
X176.9Y-87.05
X177.0Y-67.0
X177.05Y-77.3
X177.05Y-92.1
X177.15Y-89.5
X177.45Y-88.15
X177.45Y-92.5
X177.5Y-63.0
X177.5Y-85.25
X177.5Y-126.6
X177.55Y-89.9
X177.7Y-77.3
X177.85Y-92.9
X177.95Y-90.3
X178.0Y-75.0
X178.0Y-94.0
X178.0Y-98.0
X178.0Y-102.0
X178.0Y-118.0
X178.0Y-122.0
X178.1Y-79.0
X178.25Y-93.3
X178.35Y-77.3
X178.35Y-90.7
X178.5Y-115.9
X178.7Y-79.0
X178.7Y-93.7
X178.75Y-91.1
X178.9Y-77.25
X179.0Y-69.0
X179.1Y-94.15
X179.15Y-91.5
X179.389Y-82.742
X179.5Y-77.25
X179.5Y-79.85
X179.51Y-82.103
X179.55Y-91.9
X179.55Y-94.6
X179.75Y-95.2
X179.75Y-95.85
X179.75Y-96.45
X179.75Y-97.1
X179.75Y-97.75
X179.75Y-98.3
X179.75Y-98.9
X179.75Y-99.55
X179.75Y-100.2
X179.75Y-100.8
X179.75Y-101.45
X179.75Y-102.0
X179.75Y-102.6
X179.75Y-103.25
X179.75Y-103.9
X179.75Y-104.5
X179.9Y-83.278
X179.95Y-92.3
X180.0Y-63.0
X180.0Y-73.0
X180.0Y-120.0
X180.0Y-124.0
X180.0Y-126.6
X180.15Y-77.25
X180.4Y-92.7
X180.55Y-79.4
X180.8Y-77.25
X180.8Y-93.15
X181.2Y-79.4
X181.25Y-93.6
X181.4Y-77.25
X181.6Y-94.05
X181.6Y-94.7
X181.6Y-95.35
X181.6Y-95.9
X181.6Y-96.5
X181.6Y-97.15
X181.6Y-97.8
X181.6Y-98.35
X181.6Y-98.95
X181.6Y-99.6
X181.6Y-100.25
X181.6Y-100.85
X181.6Y-101.5
X181.6Y-102.05
X181.6Y-102.65
X181.6Y-103.3
X181.6Y-103.95
X181.6Y-104.55
X182.0Y-71.0
X182.0Y-75.0
X182.0Y-77.25
X182.0Y-118.0
X182.0Y-122.0
X182.3Y-79.9
X182.5Y-63.0
X182.5Y-126.6
X182.65Y-77.25
X182.75Y-110.3
X182.8Y-112.15
X183.1Y-91.3
X183.3Y-77.25
X183.3Y-79.2
X183.35Y-110.3
X183.35Y-112.15
X183.9Y-77.25
X183.9Y-79.2
X183.9Y-110.3
X183.9Y-112.15
X184.0Y-69.0
X184.0Y-73.0
X184.0Y-79.75
X184.0Y-98.0
X184.0Y-102.0
X184.0Y-106.0
X184.0Y-116.0
X184.0Y-120.0
X184.05Y-112.65
X184.1Y-76.6
X184.1Y-80.3
X184.2Y-109.6
X184.2Y-113.2
X184.47Y-108.92
X184.5Y-75.9
X184.5Y-80.7
X184.5Y-113.7
X184.6Y-91.3
X184.97Y-108.92
X185.0Y-75.9
X185.0Y-80.7
X185.0Y-113.7
X185.47Y-108.92
X185.5Y-75.9
X185.5Y-80.7
X185.5Y-113.7
X185.97Y-108.92
X186.0Y-71.0
X186.0Y-75.9
X186.0Y-80.7
X186.0Y-84.0
X186.0Y-88.0
X186.0Y-92.0
X186.0Y-96.0
X186.0Y-100.0
X186.0Y-104.0
X186.0Y-113.7
X186.0Y-118.0
X186.47Y-108.92
X186.5Y-75.9
X186.5Y-80.7
X186.5Y-113.7
X186.97Y-108.92
X187.0Y-75.9
X187.0Y-80.7
X187.0Y-113.7
X187.47Y-108.92
X187.5Y-75.9
X187.5Y-80.7
X187.5Y-113.7
X187.98Y-108.9
X188.0Y-69.0
X188.0Y-73.0
X188.0Y-75.9
X188.0Y-80.7
X188.0Y-86.0
X188.0Y-90.0
X188.0Y-94.0
X188.0Y-98.0
X188.0Y-102.0
X188.0Y-106.0
X188.0Y-113.7
X188.0Y-116.0
X188.0Y-120.0
T3
X91.65Y-84.45
X91.65Y-87.25
X91.65Y-89.55
X91.65Y-92.35
X91.7Y-71.2
X95.6Y-89.7
X98.9Y-90.3
X99.0Y-81.8
X103.3Y-72.9
X103.7Y-73.4
X103.8Y-85.4
X104.128Y-72.846
X105.5Y-71.9
X106.1Y-72.3
X106.1Y-80.0
X106.7Y-71.9
X108.8Y-78.75
X108.85Y-73.85
X108.9Y-108.3
X110.95Y-79.95
X112.4Y-82.9
X113.0Y-83.5
X113.0Y-113.25
X113.1Y-82.3
X113.85Y-117.7
X114.5Y-120.8
X115.6Y-115.2
X116.6Y-113.9
X117.35Y-112.95
X118.95Y-108.75
X118.95Y-114.8
X119.919Y-108.733
X119.95Y-114.8
X127.9Y-75.0
X128.35Y-87.768
X128.517Y-74.455
X128.65Y-114.25
X129.218Y-74.188
X129.65Y-114.35
X129.9Y-76.5
X130.05Y-88.2
X130.1Y-84.8
X130.4Y-109.65
X130.5Y-75.9
X132.46Y-85.2
X132.5Y-106.55
X132.55Y-107.5
X133.65Y-105.25
X134.45Y-108.45
X141.2Y-111.5
X146.9Y-78.7
X149.5Y-84.1
X150.2Y-104.3
X151.7Y-104.3
X156.55Y-70.9
X157.82Y-109.944
X158.7Y-106.0
X158.7Y-118.6
X159.38Y-114.33
X159.81Y-115.13
X159.83Y-113.65
X160.1Y-78.45
X160.2Y-85.2
X160.2Y-114.4
X160.9Y-105.3
X161.09Y-114.37
X162.8Y-87.0
X163.1Y-65.5
X164.4Y-72.6
X164.5Y-86.2
X164.5Y-85.2
X167.0Y-106.4
X167.6Y-105.8
X167.8Y-106.7
X167.95Y-107.54
X168.7Y-106.8
X168.7Y-111.05
X168.7Y-112.35
X168.7Y-114.0
X168.7Y-115.5
X168.7Y-116.85
X168.8Y-65.5
X172.589Y-82.288
X172.75Y-80.907
X173.0Y-80.35
X173.15Y-82.7
X173.65Y-65.5
X174.55Y-78.7
X174.75Y-84.4
X174.9Y-72.6
X176.85Y-84.4
X177.35Y-78.9
X178.1Y-105.7
X178.1Y-107.0
X178.1Y-108.65
X178.1Y-110.15
X178.1Y-111.5
X179.15Y-65.55
X180.3Y-80.65
X182.221Y-108.709
X141.6Y-112.9
X141.6Y-115.3
X146.65Y-111.15
X146.65Y-112.15
X147.15Y-111.65
X147.65Y-111.15
X147.65Y-112.15
X141.55Y-104.0
X141.55Y-106.4
X123.05Y-110.3
X123.05Y-111.3
X123.05Y-112.3
X124.05Y-110.3
X124.05Y-111.3
X124.05Y-112.3
X125.05Y-110.3
X125.05Y-111.3
X125.05Y-112.3
X141.6Y-116.65
X141.6Y-119.05
X135.45Y-110.8
X135.45Y-111.8
X135.95Y-111.3
X136.45Y-110.8
X136.45Y-111.8
X141.575Y-107.8
X141.575Y-110.2
T4
X108.9Y-112.7
X111.0Y-106.8
X124.2Y-94.3
X127.4Y-87.8
X133.35Y-116.25
X144.529Y-112.353
X144.7Y-71.3
X144.7Y-113.3
X148.7Y-91.1
X148.7Y-114.3
X148.8Y-115.35
X151.4Y-75.1
X151.4Y-78.6
T5
X183.8Y-123.8
X184.503Y-122.103
X184.503Y-125.497
X186.2Y-121.4
X186.2Y-126.2
X187.897Y-122.103
X187.897Y-125.497
X188.6Y-123.8
X91.8Y-123.8
X92.503Y-122.103
X92.503Y-125.497
X94.2Y-121.4
X94.2Y-126.2
X95.897Y-122.103
X95.897Y-125.497
X96.6Y-123.8
X91.8Y-65.8
X92.503Y-64.103
X92.503Y-67.497
X94.2Y-63.4
X94.2Y-68.2
X95.897Y-64.103
X95.897Y-67.497
X96.6Y-65.8
X183.8Y-65.8
X184.503Y-64.103
X184.503Y-67.497
X186.2Y-63.4
X186.2Y-68.2
X187.897Y-64.103
X187.897Y-67.497
X188.6Y-65.8
T6
X103.15Y-109.3
X103.15Y-111.3
X103.15Y-113.8
X103.16Y-106.8
T7
X124.15Y-91.95
X94.5Y-80.95
X162.15Y-96.35
T8
X100.45Y-103.73
X100.45Y-116.87
T9
X186.2Y-65.8
X186.2Y-123.8
X94.2Y-123.8
X94.2Y-65.8
T10
X93.78Y-86.4
X93.78Y-90.4
T11
X97.75Y-96.26
X97.75Y-98.8
T0
M30
