G04 #@! TF.GenerationSoftware,KiCad,Pcbnew,(5.1.0)-1*
G04 #@! TF.CreationDate,2019-04-19T11:35:58+10:00*
G04 #@! TF.ProjectId,RearPanel,52656172-5061-46e6-956c-2e6b69636164,rev?*
G04 #@! TF.SameCoordinates,Original*
G04 #@! TF.FileFunction,Legend,Top*
G04 #@! TF.FilePolarity,Positive*
%FSLAX46Y46*%
G04 Gerber Fmt 4.6, Leading zero omitted, Abs format (unit mm)*
G04 Created by KiCad (PCBNEW (5.1.0)-1) date 2019-04-19 11:35:58*
%MOMM*%
%LPD*%
G04 APERTURE LIST*
%ADD10C,0.200000*%
%ADD11C,0.150000*%
%ADD12C,0.010000*%
G04 APERTURE END LIST*
D10*
X112114285Y-105678571D02*
X112114285Y-106750000D01*
X112042857Y-106964285D01*
X111900000Y-107107142D01*
X111685714Y-107178571D01*
X111542857Y-107178571D01*
X113042857Y-107178571D02*
X112900000Y-107107142D01*
X112828571Y-107035714D01*
X112757142Y-106892857D01*
X112757142Y-106464285D01*
X112828571Y-106321428D01*
X112900000Y-106250000D01*
X113042857Y-106178571D01*
X113257142Y-106178571D01*
X113400000Y-106250000D01*
X113471428Y-106321428D01*
X113542857Y-106464285D01*
X113542857Y-106892857D01*
X113471428Y-107035714D01*
X113400000Y-107107142D01*
X113257142Y-107178571D01*
X113042857Y-107178571D01*
X114185714Y-107178571D02*
X114185714Y-105678571D01*
X114828571Y-107178571D02*
X114828571Y-106392857D01*
X114757142Y-106250000D01*
X114614285Y-106178571D01*
X114400000Y-106178571D01*
X114257142Y-106250000D01*
X114185714Y-106321428D01*
X115542857Y-106178571D02*
X115542857Y-107178571D01*
X115542857Y-106321428D02*
X115614285Y-106250000D01*
X115757142Y-106178571D01*
X115971428Y-106178571D01*
X116114285Y-106250000D01*
X116185714Y-106392857D01*
X116185714Y-107178571D01*
X116828571Y-107107142D02*
X116971428Y-107178571D01*
X117257142Y-107178571D01*
X117400000Y-107107142D01*
X117471428Y-106964285D01*
X117471428Y-106892857D01*
X117400000Y-106750000D01*
X117257142Y-106678571D01*
X117042857Y-106678571D01*
X116900000Y-106607142D01*
X116828571Y-106464285D01*
X116828571Y-106392857D01*
X116900000Y-106250000D01*
X117042857Y-106178571D01*
X117257142Y-106178571D01*
X117400000Y-106250000D01*
X118328571Y-107178571D02*
X118185714Y-107107142D01*
X118114285Y-107035714D01*
X118042857Y-106892857D01*
X118042857Y-106464285D01*
X118114285Y-106321428D01*
X118185714Y-106250000D01*
X118328571Y-106178571D01*
X118542857Y-106178571D01*
X118685714Y-106250000D01*
X118757142Y-106321428D01*
X118828571Y-106464285D01*
X118828571Y-106892857D01*
X118757142Y-107035714D01*
X118685714Y-107107142D01*
X118542857Y-107178571D01*
X118328571Y-107178571D01*
X119471428Y-106178571D02*
X119471428Y-107178571D01*
X119471428Y-106321428D02*
X119542857Y-106250000D01*
X119685714Y-106178571D01*
X119900000Y-106178571D01*
X120042857Y-106250000D01*
X120114285Y-106392857D01*
X120114285Y-107178571D01*
D11*
X134550000Y-99007142D02*
X134764285Y-99078571D01*
X135121428Y-99078571D01*
X135264285Y-99007142D01*
X135335714Y-98935714D01*
X135407142Y-98792857D01*
X135407142Y-98650000D01*
X135335714Y-98507142D01*
X135264285Y-98435714D01*
X135121428Y-98364285D01*
X134835714Y-98292857D01*
X134692857Y-98221428D01*
X134621428Y-98150000D01*
X134550000Y-98007142D01*
X134550000Y-97864285D01*
X134621428Y-97721428D01*
X134692857Y-97650000D01*
X134835714Y-97578571D01*
X135192857Y-97578571D01*
X135407142Y-97650000D01*
X135835714Y-98078571D02*
X136407142Y-98078571D01*
X136050000Y-97578571D02*
X136050000Y-98864285D01*
X136121428Y-99007142D01*
X136264285Y-99078571D01*
X136407142Y-99078571D01*
X137550000Y-99078571D02*
X137550000Y-98292857D01*
X137478571Y-98150000D01*
X137335714Y-98078571D01*
X137050000Y-98078571D01*
X136907142Y-98150000D01*
X137550000Y-99007142D02*
X137407142Y-99078571D01*
X137050000Y-99078571D01*
X136907142Y-99007142D01*
X136835714Y-98864285D01*
X136835714Y-98721428D01*
X136907142Y-98578571D01*
X137050000Y-98507142D01*
X137407142Y-98507142D01*
X137550000Y-98435714D01*
X138050000Y-98078571D02*
X138621428Y-98078571D01*
X138264285Y-97578571D02*
X138264285Y-98864285D01*
X138335714Y-99007142D01*
X138478571Y-99078571D01*
X138621428Y-99078571D01*
X139764285Y-98078571D02*
X139764285Y-99078571D01*
X139121428Y-98078571D02*
X139121428Y-98864285D01*
X139192857Y-99007142D01*
X139335714Y-99078571D01*
X139550000Y-99078571D01*
X139692857Y-99007142D01*
X139764285Y-98935714D01*
X140407142Y-99007142D02*
X140550000Y-99078571D01*
X140835714Y-99078571D01*
X140978571Y-99007142D01*
X141050000Y-98864285D01*
X141050000Y-98792857D01*
X140978571Y-98650000D01*
X140835714Y-98578571D01*
X140621428Y-98578571D01*
X140478571Y-98507142D01*
X140407142Y-98364285D01*
X140407142Y-98292857D01*
X140478571Y-98150000D01*
X140621428Y-98078571D01*
X140835714Y-98078571D01*
X140978571Y-98150000D01*
D10*
X126076190Y-97704761D02*
X126076190Y-99323809D01*
X126171428Y-99514285D01*
X126266666Y-99609523D01*
X126457142Y-99704761D01*
X126838095Y-99704761D01*
X127028571Y-99609523D01*
X127123809Y-99514285D01*
X127219047Y-99323809D01*
X127219047Y-97704761D01*
X128076190Y-99609523D02*
X128361904Y-99704761D01*
X128838095Y-99704761D01*
X129028571Y-99609523D01*
X129123809Y-99514285D01*
X129219047Y-99323809D01*
X129219047Y-99133333D01*
X129123809Y-98942857D01*
X129028571Y-98847619D01*
X128838095Y-98752380D01*
X128457142Y-98657142D01*
X128266666Y-98561904D01*
X128171428Y-98466666D01*
X128076190Y-98276190D01*
X128076190Y-98085714D01*
X128171428Y-97895238D01*
X128266666Y-97800000D01*
X128457142Y-97704761D01*
X128933333Y-97704761D01*
X129219047Y-97800000D01*
X130742857Y-98657142D02*
X131028571Y-98752380D01*
X131123809Y-98847619D01*
X131219047Y-99038095D01*
X131219047Y-99323809D01*
X131123809Y-99514285D01*
X131028571Y-99609523D01*
X130838095Y-99704761D01*
X130076190Y-99704761D01*
X130076190Y-97704761D01*
X130742857Y-97704761D01*
X130933333Y-97800000D01*
X131028571Y-97895238D01*
X131123809Y-98085714D01*
X131123809Y-98276190D01*
X131028571Y-98466666D01*
X130933333Y-98561904D01*
X130742857Y-98657142D01*
X130076190Y-98657142D01*
X147342857Y-95657142D02*
X148009523Y-95657142D01*
X148295238Y-96704761D02*
X147342857Y-96704761D01*
X147342857Y-94704761D01*
X148295238Y-94704761D01*
X150295238Y-96514285D02*
X150200000Y-96609523D01*
X149914285Y-96704761D01*
X149723809Y-96704761D01*
X149438095Y-96609523D01*
X149247619Y-96419047D01*
X149152380Y-96228571D01*
X149057142Y-95847619D01*
X149057142Y-95561904D01*
X149152380Y-95180952D01*
X149247619Y-94990476D01*
X149438095Y-94800000D01*
X149723809Y-94704761D01*
X149914285Y-94704761D01*
X150200000Y-94800000D01*
X150295238Y-94895238D01*
X152009523Y-96704761D02*
X152009523Y-95657142D01*
X151914285Y-95466666D01*
X151723809Y-95371428D01*
X151342857Y-95371428D01*
X151152380Y-95466666D01*
X152009523Y-96609523D02*
X151819047Y-96704761D01*
X151342857Y-96704761D01*
X151152380Y-96609523D01*
X151057142Y-96419047D01*
X151057142Y-96228571D01*
X151152380Y-96038095D01*
X151342857Y-95942857D01*
X151819047Y-95942857D01*
X152009523Y-95847619D01*
X153247619Y-96704761D02*
X153057142Y-96609523D01*
X152961904Y-96419047D01*
X152961904Y-94704761D01*
X143885714Y-105304761D02*
X142933333Y-105304761D01*
X142838095Y-106257142D01*
X142933333Y-106161904D01*
X143123809Y-106066666D01*
X143600000Y-106066666D01*
X143790476Y-106161904D01*
X143885714Y-106257142D01*
X143980952Y-106447619D01*
X143980952Y-106923809D01*
X143885714Y-107114285D01*
X143790476Y-107209523D01*
X143600000Y-107304761D01*
X143123809Y-107304761D01*
X142933333Y-107209523D01*
X142838095Y-107114285D01*
X144552380Y-105304761D02*
X145219047Y-107304761D01*
X145885714Y-105304761D01*
X147790476Y-106352380D02*
X147695238Y-106257142D01*
X147504761Y-106161904D01*
X147314285Y-106161904D01*
X147123809Y-106257142D01*
X147028571Y-106352380D01*
X146933333Y-106542857D01*
X146933333Y-106733333D01*
X147028571Y-106923809D01*
X147123809Y-107019047D01*
X147314285Y-107114285D01*
X147504761Y-107114285D01*
X147695238Y-107019047D01*
X147790476Y-106923809D01*
X147790476Y-106161904D02*
X147790476Y-106923809D01*
X147885714Y-107019047D01*
X147980952Y-107019047D01*
X148171428Y-106923809D01*
X148266666Y-106733333D01*
X148266666Y-106257142D01*
X148076190Y-105971428D01*
X147790476Y-105780952D01*
X147409523Y-105685714D01*
X147028571Y-105780952D01*
X146742857Y-105971428D01*
X146552380Y-106257142D01*
X146457142Y-106638095D01*
X146552380Y-107019047D01*
X146742857Y-107304761D01*
X147028571Y-107495238D01*
X147409523Y-107590476D01*
X147790476Y-107495238D01*
X148076190Y-107304761D01*
X150171428Y-107304761D02*
X149028571Y-107304761D01*
X149600000Y-107304761D02*
X149600000Y-105304761D01*
X149409523Y-105590476D01*
X149219047Y-105780952D01*
X149028571Y-105876190D01*
X151409523Y-105304761D02*
X151600000Y-105304761D01*
X151790476Y-105400000D01*
X151885714Y-105495238D01*
X151980952Y-105685714D01*
X152076190Y-106066666D01*
X152076190Y-106542857D01*
X151980952Y-106923809D01*
X151885714Y-107114285D01*
X151790476Y-107209523D01*
X151600000Y-107304761D01*
X151409523Y-107304761D01*
X151219047Y-107209523D01*
X151123809Y-107114285D01*
X151028571Y-106923809D01*
X150933333Y-106542857D01*
X150933333Y-106066666D01*
X151028571Y-105685714D01*
X151123809Y-105495238D01*
X151219047Y-105400000D01*
X151409523Y-105304761D01*
X153314285Y-105304761D02*
X153504761Y-105304761D01*
X153695238Y-105400000D01*
X153790476Y-105495238D01*
X153885714Y-105685714D01*
X153980952Y-106066666D01*
X153980952Y-106542857D01*
X153885714Y-106923809D01*
X153790476Y-107114285D01*
X153695238Y-107209523D01*
X153504761Y-107304761D01*
X153314285Y-107304761D01*
X153123809Y-107209523D01*
X153028571Y-107114285D01*
X152933333Y-106923809D01*
X152838095Y-106542857D01*
X152838095Y-106066666D01*
X152933333Y-105685714D01*
X153028571Y-105495238D01*
X153123809Y-105400000D01*
X153314285Y-105304761D01*
X154838095Y-107304761D02*
X154838095Y-105971428D01*
X154838095Y-106161904D02*
X154933333Y-106066666D01*
X155123809Y-105971428D01*
X155409523Y-105971428D01*
X155600000Y-106066666D01*
X155695238Y-106257142D01*
X155695238Y-107304761D01*
X155695238Y-106257142D02*
X155790476Y-106066666D01*
X155980952Y-105971428D01*
X156266666Y-105971428D01*
X156457142Y-106066666D01*
X156552380Y-106257142D01*
X156552380Y-107304761D01*
X157409523Y-106733333D02*
X158361904Y-106733333D01*
X157219047Y-107304761D02*
X157885714Y-105304761D01*
X158552380Y-107304761D01*
D12*
G36*
X117847464Y-91457150D02*
G01*
X117849006Y-91787052D01*
X117850566Y-92069981D01*
X117852261Y-92309761D01*
X117854208Y-92510219D01*
X117856523Y-92675181D01*
X117859322Y-92808472D01*
X117862724Y-92913918D01*
X117866844Y-92995345D01*
X117871799Y-93056580D01*
X117877707Y-93101447D01*
X117884683Y-93133774D01*
X117892845Y-93157385D01*
X117899802Y-93171650D01*
X117944904Y-93254200D01*
X117130800Y-93254200D01*
X117130800Y-93178000D01*
X117127441Y-93124452D01*
X117119351Y-93101804D01*
X117119227Y-93101800D01*
X117093109Y-93114784D01*
X117040726Y-93147537D01*
X117013903Y-93165421D01*
X116881603Y-93232647D01*
X116721937Y-93279589D01*
X116553022Y-93303338D01*
X116392977Y-93300984D01*
X116292600Y-93281247D01*
X116108538Y-93199939D01*
X115943410Y-93078200D01*
X115808517Y-92925510D01*
X115747155Y-92823694D01*
X115679731Y-92666029D01*
X115635855Y-92499951D01*
X115612714Y-92311403D01*
X115607241Y-92124913D01*
X115608002Y-92111200D01*
X116408136Y-92111200D01*
X116412634Y-92286895D01*
X116426249Y-92420414D01*
X116451477Y-92519949D01*
X116490812Y-92593691D01*
X116546751Y-92649831D01*
X116579016Y-92672170D01*
X116685421Y-92710164D01*
X116811144Y-92707176D01*
X116946203Y-92663728D01*
X116970499Y-92651773D01*
X117067300Y-92601557D01*
X117074142Y-92052487D01*
X117080985Y-91503416D01*
X117013891Y-91459454D01*
X116950360Y-91432707D01*
X116860668Y-91412044D01*
X116802633Y-91405065D01*
X116714255Y-91401970D01*
X116655291Y-91412095D01*
X116604985Y-91440683D01*
X116578927Y-91461568D01*
X116511583Y-91535167D01*
X116462664Y-91630737D01*
X116430341Y-91755234D01*
X116412787Y-91915611D01*
X116408136Y-92111200D01*
X115608002Y-92111200D01*
X115623675Y-91828965D01*
X115671542Y-91569134D01*
X115750171Y-91346509D01*
X115858889Y-91162180D01*
X115997025Y-91017237D01*
X116163906Y-90912768D01*
X116358860Y-90849864D01*
X116398170Y-90842835D01*
X116513703Y-90834575D01*
X116641063Y-90841429D01*
X116767661Y-90860852D01*
X116880912Y-90890299D01*
X116968228Y-90927225D01*
X117016262Y-90967815D01*
X117037127Y-90992282D01*
X117053170Y-90987192D01*
X117064925Y-90948657D01*
X117072924Y-90872788D01*
X117077702Y-90755701D01*
X117079793Y-90593506D01*
X117080000Y-90503670D01*
X117079477Y-90329573D01*
X117077469Y-90198217D01*
X117073311Y-90101550D01*
X117066343Y-90031519D01*
X117055901Y-89980073D01*
X117041322Y-89939158D01*
X117031938Y-89919470D01*
X116983876Y-89825200D01*
X117840228Y-89825200D01*
X117847464Y-91457150D01*
X117847464Y-91457150D01*
G37*
X117847464Y-91457150D02*
X117849006Y-91787052D01*
X117850566Y-92069981D01*
X117852261Y-92309761D01*
X117854208Y-92510219D01*
X117856523Y-92675181D01*
X117859322Y-92808472D01*
X117862724Y-92913918D01*
X117866844Y-92995345D01*
X117871799Y-93056580D01*
X117877707Y-93101447D01*
X117884683Y-93133774D01*
X117892845Y-93157385D01*
X117899802Y-93171650D01*
X117944904Y-93254200D01*
X117130800Y-93254200D01*
X117130800Y-93178000D01*
X117127441Y-93124452D01*
X117119351Y-93101804D01*
X117119227Y-93101800D01*
X117093109Y-93114784D01*
X117040726Y-93147537D01*
X117013903Y-93165421D01*
X116881603Y-93232647D01*
X116721937Y-93279589D01*
X116553022Y-93303338D01*
X116392977Y-93300984D01*
X116292600Y-93281247D01*
X116108538Y-93199939D01*
X115943410Y-93078200D01*
X115808517Y-92925510D01*
X115747155Y-92823694D01*
X115679731Y-92666029D01*
X115635855Y-92499951D01*
X115612714Y-92311403D01*
X115607241Y-92124913D01*
X115608002Y-92111200D01*
X116408136Y-92111200D01*
X116412634Y-92286895D01*
X116426249Y-92420414D01*
X116451477Y-92519949D01*
X116490812Y-92593691D01*
X116546751Y-92649831D01*
X116579016Y-92672170D01*
X116685421Y-92710164D01*
X116811144Y-92707176D01*
X116946203Y-92663728D01*
X116970499Y-92651773D01*
X117067300Y-92601557D01*
X117074142Y-92052487D01*
X117080985Y-91503416D01*
X117013891Y-91459454D01*
X116950360Y-91432707D01*
X116860668Y-91412044D01*
X116802633Y-91405065D01*
X116714255Y-91401970D01*
X116655291Y-91412095D01*
X116604985Y-91440683D01*
X116578927Y-91461568D01*
X116511583Y-91535167D01*
X116462664Y-91630737D01*
X116430341Y-91755234D01*
X116412787Y-91915611D01*
X116408136Y-92111200D01*
X115608002Y-92111200D01*
X115623675Y-91828965D01*
X115671542Y-91569134D01*
X115750171Y-91346509D01*
X115858889Y-91162180D01*
X115997025Y-91017237D01*
X116163906Y-90912768D01*
X116358860Y-90849864D01*
X116398170Y-90842835D01*
X116513703Y-90834575D01*
X116641063Y-90841429D01*
X116767661Y-90860852D01*
X116880912Y-90890299D01*
X116968228Y-90927225D01*
X117016262Y-90967815D01*
X117037127Y-90992282D01*
X117053170Y-90987192D01*
X117064925Y-90948657D01*
X117072924Y-90872788D01*
X117077702Y-90755701D01*
X117079793Y-90593506D01*
X117080000Y-90503670D01*
X117079477Y-90329573D01*
X117077469Y-90198217D01*
X117073311Y-90101550D01*
X117066343Y-90031519D01*
X117055901Y-89980073D01*
X117041322Y-89939158D01*
X117031938Y-89919470D01*
X116983876Y-89825200D01*
X117840228Y-89825200D01*
X117847464Y-91457150D01*
G36*
X114627620Y-90852359D02*
G01*
X114803576Y-90892264D01*
X114922513Y-90936895D01*
X115015098Y-90992778D01*
X115097779Y-91066360D01*
X115150917Y-91121188D01*
X115194396Y-91172829D01*
X115229291Y-91226992D01*
X115256676Y-91289387D01*
X115277624Y-91365723D01*
X115293209Y-91461710D01*
X115304504Y-91583058D01*
X115312585Y-91735475D01*
X115318523Y-91924670D01*
X115323394Y-92156355D01*
X115325549Y-92277477D01*
X115329807Y-92509434D01*
X115333930Y-92696051D01*
X115338276Y-92842785D01*
X115343203Y-92955095D01*
X115349068Y-93038437D01*
X115356231Y-93098269D01*
X115365049Y-93140049D01*
X115375880Y-93169234D01*
X115385135Y-93185527D01*
X115430171Y-93254200D01*
X114619418Y-93254200D01*
X114603500Y-93100698D01*
X114504102Y-93168483D01*
X114347946Y-93247254D01*
X114167092Y-93293178D01*
X113977295Y-93304137D01*
X113794309Y-93278011D01*
X113760834Y-93268436D01*
X113574429Y-93186112D01*
X113423520Y-93068585D01*
X113310652Y-92919321D01*
X113238375Y-92741786D01*
X113209235Y-92539443D01*
X113208788Y-92517600D01*
X113209452Y-92488545D01*
X113937707Y-92488545D01*
X113941963Y-92577884D01*
X113952090Y-92608502D01*
X114014779Y-92689089D01*
X114109723Y-92743481D01*
X114223327Y-92767352D01*
X114341996Y-92756378D01*
X114379596Y-92744508D01*
X114466783Y-92702968D01*
X114522424Y-92650366D01*
X114552894Y-92575280D01*
X114564566Y-92466289D01*
X114565400Y-92411572D01*
X114565400Y-92212800D01*
X114399484Y-92212800D01*
X114235747Y-92227824D01*
X114097128Y-92270733D01*
X114001676Y-92331555D01*
X113959069Y-92398298D01*
X113937707Y-92488545D01*
X113209452Y-92488545D01*
X113211403Y-92403273D01*
X113225051Y-92315974D01*
X113254550Y-92232311D01*
X113277882Y-92182215D01*
X113382223Y-92025636D01*
X113526604Y-91899758D01*
X113710369Y-91804878D01*
X113932862Y-91741291D01*
X114193426Y-91709295D01*
X114333794Y-91705241D01*
X114572088Y-91704800D01*
X114558196Y-91601228D01*
X114522262Y-91487960D01*
X114450344Y-91409507D01*
X114343724Y-91366163D01*
X114203687Y-91358223D01*
X114031516Y-91385980D01*
X113854509Y-91440144D01*
X113770051Y-91467413D01*
X113705058Y-91482373D01*
X113673195Y-91481908D01*
X113672862Y-91481589D01*
X113655276Y-91449872D01*
X113625180Y-91383912D01*
X113587902Y-91296745D01*
X113548773Y-91201404D01*
X113513122Y-91110925D01*
X113486280Y-91038340D01*
X113473575Y-90996685D01*
X113473200Y-90993302D01*
X113494990Y-90974617D01*
X113538447Y-90968200D01*
X113590031Y-90962037D01*
X113676850Y-90945424D01*
X113785103Y-90921175D01*
X113862297Y-90902173D01*
X114128096Y-90851360D01*
X114386776Y-90834718D01*
X114627620Y-90852359D01*
X114627620Y-90852359D01*
G37*
X114627620Y-90852359D02*
X114803576Y-90892264D01*
X114922513Y-90936895D01*
X115015098Y-90992778D01*
X115097779Y-91066360D01*
X115150917Y-91121188D01*
X115194396Y-91172829D01*
X115229291Y-91226992D01*
X115256676Y-91289387D01*
X115277624Y-91365723D01*
X115293209Y-91461710D01*
X115304504Y-91583058D01*
X115312585Y-91735475D01*
X115318523Y-91924670D01*
X115323394Y-92156355D01*
X115325549Y-92277477D01*
X115329807Y-92509434D01*
X115333930Y-92696051D01*
X115338276Y-92842785D01*
X115343203Y-92955095D01*
X115349068Y-93038437D01*
X115356231Y-93098269D01*
X115365049Y-93140049D01*
X115375880Y-93169234D01*
X115385135Y-93185527D01*
X115430171Y-93254200D01*
X114619418Y-93254200D01*
X114603500Y-93100698D01*
X114504102Y-93168483D01*
X114347946Y-93247254D01*
X114167092Y-93293178D01*
X113977295Y-93304137D01*
X113794309Y-93278011D01*
X113760834Y-93268436D01*
X113574429Y-93186112D01*
X113423520Y-93068585D01*
X113310652Y-92919321D01*
X113238375Y-92741786D01*
X113209235Y-92539443D01*
X113208788Y-92517600D01*
X113209452Y-92488545D01*
X113937707Y-92488545D01*
X113941963Y-92577884D01*
X113952090Y-92608502D01*
X114014779Y-92689089D01*
X114109723Y-92743481D01*
X114223327Y-92767352D01*
X114341996Y-92756378D01*
X114379596Y-92744508D01*
X114466783Y-92702968D01*
X114522424Y-92650366D01*
X114552894Y-92575280D01*
X114564566Y-92466289D01*
X114565400Y-92411572D01*
X114565400Y-92212800D01*
X114399484Y-92212800D01*
X114235747Y-92227824D01*
X114097128Y-92270733D01*
X114001676Y-92331555D01*
X113959069Y-92398298D01*
X113937707Y-92488545D01*
X113209452Y-92488545D01*
X113211403Y-92403273D01*
X113225051Y-92315974D01*
X113254550Y-92232311D01*
X113277882Y-92182215D01*
X113382223Y-92025636D01*
X113526604Y-91899758D01*
X113710369Y-91804878D01*
X113932862Y-91741291D01*
X114193426Y-91709295D01*
X114333794Y-91705241D01*
X114572088Y-91704800D01*
X114558196Y-91601228D01*
X114522262Y-91487960D01*
X114450344Y-91409507D01*
X114343724Y-91366163D01*
X114203687Y-91358223D01*
X114031516Y-91385980D01*
X113854509Y-91440144D01*
X113770051Y-91467413D01*
X113705058Y-91482373D01*
X113673195Y-91481908D01*
X113672862Y-91481589D01*
X113655276Y-91449872D01*
X113625180Y-91383912D01*
X113587902Y-91296745D01*
X113548773Y-91201404D01*
X113513122Y-91110925D01*
X113486280Y-91038340D01*
X113473575Y-90996685D01*
X113473200Y-90993302D01*
X113494990Y-90974617D01*
X113538447Y-90968200D01*
X113590031Y-90962037D01*
X113676850Y-90945424D01*
X113785103Y-90921175D01*
X113862297Y-90902173D01*
X114128096Y-90851360D01*
X114386776Y-90834718D01*
X114627620Y-90852359D01*
G36*
X112544676Y-90006341D02*
G01*
X112585911Y-90016143D01*
X112656879Y-90038829D01*
X112752173Y-90074963D01*
X112859521Y-90119187D01*
X112966653Y-90166147D01*
X113061298Y-90210487D01*
X113131185Y-90246851D01*
X113162064Y-90267598D01*
X113152374Y-90290582D01*
X113120036Y-90345508D01*
X113071464Y-90422651D01*
X113013074Y-90512288D01*
X112951281Y-90604695D01*
X112892502Y-90690151D01*
X112843152Y-90758930D01*
X112810677Y-90800159D01*
X112782236Y-90797624D01*
X112730081Y-90767335D01*
X112686407Y-90733312D01*
X112541298Y-90641226D01*
X112376487Y-90595559D01*
X112218098Y-90594284D01*
X112047398Y-90634902D01*
X111903259Y-90718127D01*
X111786245Y-90842925D01*
X111696919Y-91008260D01*
X111635843Y-91213097D01*
X111603581Y-91456401D01*
X111600426Y-91730200D01*
X111621867Y-91977826D01*
X111666984Y-92183741D01*
X111737630Y-92352105D01*
X111835657Y-92487080D01*
X111962917Y-92592826D01*
X111992579Y-92611151D01*
X112069773Y-92651415D01*
X112141238Y-92672876D01*
X112229027Y-92680676D01*
X112292100Y-92681009D01*
X112451817Y-92665354D01*
X112590547Y-92617392D01*
X112724625Y-92530613D01*
X112774846Y-92488663D01*
X112829092Y-92444162D01*
X112865414Y-92420225D01*
X112873055Y-92418969D01*
X112895216Y-92452288D01*
X112934498Y-92516333D01*
X112985230Y-92601348D01*
X113041743Y-92697575D01*
X113098366Y-92795257D01*
X113149431Y-92884636D01*
X113189265Y-92955956D01*
X113212201Y-92999460D01*
X113215453Y-93008180D01*
X113190218Y-93021554D01*
X113132344Y-93052253D01*
X113054062Y-93093786D01*
X113049457Y-93096230D01*
X112887147Y-93176612D01*
X112744212Y-93231928D01*
X112602272Y-93266986D01*
X112442947Y-93286593D01*
X112292100Y-93294340D01*
X112099285Y-93295569D01*
X111947250Y-93286113D01*
X111856436Y-93270565D01*
X111624201Y-93185718D01*
X111411159Y-93056718D01*
X111221366Y-92887906D01*
X111058878Y-92683623D01*
X110927752Y-92448209D01*
X110832044Y-92186005D01*
X110827548Y-92169632D01*
X110791250Y-91983026D01*
X110772345Y-91768920D01*
X110770823Y-91545257D01*
X110786669Y-91329982D01*
X110819872Y-91141040D01*
X110828297Y-91109044D01*
X110930061Y-90835435D01*
X111072732Y-90589468D01*
X111253804Y-90374653D01*
X111470770Y-90194495D01*
X111492000Y-90180082D01*
X111669644Y-90087504D01*
X111877698Y-90021748D01*
X112102198Y-89984907D01*
X112329178Y-89979073D01*
X112544676Y-90006341D01*
X112544676Y-90006341D01*
G37*
X112544676Y-90006341D02*
X112585911Y-90016143D01*
X112656879Y-90038829D01*
X112752173Y-90074963D01*
X112859521Y-90119187D01*
X112966653Y-90166147D01*
X113061298Y-90210487D01*
X113131185Y-90246851D01*
X113162064Y-90267598D01*
X113152374Y-90290582D01*
X113120036Y-90345508D01*
X113071464Y-90422651D01*
X113013074Y-90512288D01*
X112951281Y-90604695D01*
X112892502Y-90690151D01*
X112843152Y-90758930D01*
X112810677Y-90800159D01*
X112782236Y-90797624D01*
X112730081Y-90767335D01*
X112686407Y-90733312D01*
X112541298Y-90641226D01*
X112376487Y-90595559D01*
X112218098Y-90594284D01*
X112047398Y-90634902D01*
X111903259Y-90718127D01*
X111786245Y-90842925D01*
X111696919Y-91008260D01*
X111635843Y-91213097D01*
X111603581Y-91456401D01*
X111600426Y-91730200D01*
X111621867Y-91977826D01*
X111666984Y-92183741D01*
X111737630Y-92352105D01*
X111835657Y-92487080D01*
X111962917Y-92592826D01*
X111992579Y-92611151D01*
X112069773Y-92651415D01*
X112141238Y-92672876D01*
X112229027Y-92680676D01*
X112292100Y-92681009D01*
X112451817Y-92665354D01*
X112590547Y-92617392D01*
X112724625Y-92530613D01*
X112774846Y-92488663D01*
X112829092Y-92444162D01*
X112865414Y-92420225D01*
X112873055Y-92418969D01*
X112895216Y-92452288D01*
X112934498Y-92516333D01*
X112985230Y-92601348D01*
X113041743Y-92697575D01*
X113098366Y-92795257D01*
X113149431Y-92884636D01*
X113189265Y-92955956D01*
X113212201Y-92999460D01*
X113215453Y-93008180D01*
X113190218Y-93021554D01*
X113132344Y-93052253D01*
X113054062Y-93093786D01*
X113049457Y-93096230D01*
X112887147Y-93176612D01*
X112744212Y-93231928D01*
X112602272Y-93266986D01*
X112442947Y-93286593D01*
X112292100Y-93294340D01*
X112099285Y-93295569D01*
X111947250Y-93286113D01*
X111856436Y-93270565D01*
X111624201Y-93185718D01*
X111411159Y-93056718D01*
X111221366Y-92887906D01*
X111058878Y-92683623D01*
X110927752Y-92448209D01*
X110832044Y-92186005D01*
X110827548Y-92169632D01*
X110791250Y-91983026D01*
X110772345Y-91768920D01*
X110770823Y-91545257D01*
X110786669Y-91329982D01*
X110819872Y-91141040D01*
X110828297Y-91109044D01*
X110930061Y-90835435D01*
X111072732Y-90589468D01*
X111253804Y-90374653D01*
X111470770Y-90194495D01*
X111492000Y-90180082D01*
X111669644Y-90087504D01*
X111877698Y-90021748D01*
X112102198Y-89984907D01*
X112329178Y-89979073D01*
X112544676Y-90006341D01*
G36*
X110451363Y-89442699D02*
G01*
X110473155Y-89449976D01*
X110491586Y-89466420D01*
X110506935Y-89495197D01*
X110519481Y-89539474D01*
X110529505Y-89602418D01*
X110537283Y-89687194D01*
X110543096Y-89796971D01*
X110547223Y-89934914D01*
X110549943Y-90104191D01*
X110551535Y-90307968D01*
X110552277Y-90549411D01*
X110552450Y-90831687D01*
X110552332Y-91157964D01*
X110552203Y-91531407D01*
X110552200Y-91590500D01*
X110552122Y-91965884D01*
X110551849Y-92293711D01*
X110551318Y-92577221D01*
X110550469Y-92819658D01*
X110549240Y-93024261D01*
X110547569Y-93194274D01*
X110545395Y-93332939D01*
X110542657Y-93443496D01*
X110539292Y-93529188D01*
X110535241Y-93593257D01*
X110530441Y-93638944D01*
X110524831Y-93669492D01*
X110518349Y-93688141D01*
X110512285Y-93696885D01*
X110501209Y-93703992D01*
X110481001Y-93710213D01*
X110448490Y-93715606D01*
X110400503Y-93720229D01*
X110333867Y-93724140D01*
X110245410Y-93727396D01*
X110131960Y-93730056D01*
X109990344Y-93732175D01*
X109817390Y-93733813D01*
X109609924Y-93735028D01*
X109364776Y-93735876D01*
X109078771Y-93736415D01*
X108748739Y-93736703D01*
X108371505Y-93736798D01*
X108316999Y-93736800D01*
X107933176Y-93736726D01*
X107596980Y-93736467D01*
X107305239Y-93735965D01*
X107054781Y-93735162D01*
X106842432Y-93734000D01*
X106665021Y-93732422D01*
X106519375Y-93730371D01*
X106402322Y-93727787D01*
X106310688Y-93724615D01*
X106241303Y-93720795D01*
X106190992Y-93716271D01*
X106156584Y-93710985D01*
X106134907Y-93704879D01*
X106122787Y-93697895D01*
X106121714Y-93696885D01*
X106114465Y-93685627D01*
X106108138Y-93665152D01*
X106102672Y-93632219D01*
X106098006Y-93583586D01*
X106094078Y-93516011D01*
X106090826Y-93426252D01*
X106088190Y-93311068D01*
X106086107Y-93167217D01*
X106084517Y-92991456D01*
X106083358Y-92780544D01*
X106082568Y-92531239D01*
X106082086Y-92240300D01*
X106081851Y-91904484D01*
X106081800Y-91590500D01*
X106081877Y-91215115D01*
X106082150Y-90887288D01*
X106082681Y-90603778D01*
X106083530Y-90361341D01*
X106084759Y-90156738D01*
X106085948Y-90035729D01*
X106361199Y-90035729D01*
X106371637Y-90060638D01*
X106397944Y-90114844D01*
X106411999Y-90142699D01*
X106422932Y-90165774D01*
X106432174Y-90191420D01*
X106439867Y-90223859D01*
X106446152Y-90267308D01*
X106451172Y-90325988D01*
X106455068Y-90404117D01*
X106457983Y-90505917D01*
X106460057Y-90635605D01*
X106461434Y-90797401D01*
X106462254Y-90995525D01*
X106462659Y-91234197D01*
X106462791Y-91517635D01*
X106462799Y-91654290D01*
X106462439Y-91917726D01*
X106461402Y-92166037D01*
X106459756Y-92394556D01*
X106457568Y-92598618D01*
X106454903Y-92773558D01*
X106451830Y-92914711D01*
X106448415Y-93017410D01*
X106444724Y-93076991D01*
X106442224Y-93090370D01*
X106417800Y-93130136D01*
X106391968Y-93184350D01*
X106362289Y-93254200D01*
X106888794Y-93253811D01*
X107043967Y-93252849D01*
X107178350Y-93250381D01*
X107284999Y-93246674D01*
X107356970Y-93241992D01*
X107387319Y-93236600D01*
X107387094Y-93234761D01*
X107357145Y-93200826D01*
X107321332Y-93142626D01*
X107317244Y-93134811D01*
X107302318Y-93097521D01*
X107291307Y-93047267D01*
X107283669Y-92976556D01*
X107278866Y-92877898D01*
X107276356Y-92743800D01*
X107275601Y-92566772D01*
X107275600Y-92556961D01*
X107276833Y-92379347D01*
X107280396Y-92236876D01*
X107286078Y-92133727D01*
X107293672Y-92074078D01*
X107300414Y-92060400D01*
X107329914Y-92079770D01*
X107367641Y-92126744D01*
X107369915Y-92130250D01*
X107410493Y-92187268D01*
X107444699Y-92225500D01*
X107475147Y-92262632D01*
X107515083Y-92324966D01*
X107528671Y-92348833D01*
X107570820Y-92415930D01*
X107633527Y-92504720D01*
X107704592Y-92598064D01*
X107718542Y-92615533D01*
X107826661Y-92758344D01*
X107917138Y-92894967D01*
X107985389Y-93017349D01*
X108026831Y-93117440D01*
X108037600Y-93175923D01*
X108037600Y-93254200D01*
X109164055Y-93254200D01*
X109151929Y-93240488D01*
X109307600Y-93240488D01*
X109331699Y-93244757D01*
X109398796Y-93248485D01*
X109501089Y-93251448D01*
X109630778Y-93253426D01*
X109780061Y-93254196D01*
X109790200Y-93254200D01*
X109966967Y-93253408D01*
X110098101Y-93250806D01*
X110188747Y-93246056D01*
X110244050Y-93238818D01*
X110269156Y-93228752D01*
X110271992Y-93222450D01*
X110257038Y-93178554D01*
X110233892Y-93141395D01*
X110224698Y-93122692D01*
X110217102Y-93090195D01*
X110210959Y-93039498D01*
X110206127Y-92966196D01*
X110202464Y-92865883D01*
X110199826Y-92734154D01*
X110198070Y-92566604D01*
X110197053Y-92358827D01*
X110196633Y-92106418D01*
X110196600Y-91992045D01*
X110196600Y-90892000D01*
X109331695Y-90892000D01*
X109370447Y-90966938D01*
X109380478Y-90992815D01*
X109388667Y-91031092D01*
X109395192Y-91086607D01*
X109400226Y-91164197D01*
X109403947Y-91268700D01*
X109406529Y-91404954D01*
X109408148Y-91577797D01*
X109408979Y-91792067D01*
X109409200Y-92034750D01*
X109409086Y-92286440D01*
X109408585Y-92492511D01*
X109407455Y-92658147D01*
X109405455Y-92788527D01*
X109402345Y-92888835D01*
X109397883Y-92964251D01*
X109391829Y-93019957D01*
X109383941Y-93061135D01*
X109373979Y-93092967D01*
X109361701Y-93120635D01*
X109358400Y-93127200D01*
X109327490Y-93190636D01*
X109309480Y-93233110D01*
X109307600Y-93240488D01*
X109151929Y-93240488D01*
X109102477Y-93184570D01*
X109058555Y-93135266D01*
X109030373Y-93104290D01*
X109028200Y-93102020D01*
X108970445Y-93038905D01*
X108898963Y-92954689D01*
X108823897Y-92862065D01*
X108755391Y-92773725D01*
X108703588Y-92702361D01*
X108683376Y-92670547D01*
X108643155Y-92606584D01*
X108579662Y-92515299D01*
X108501804Y-92408680D01*
X108418487Y-92298715D01*
X108338617Y-92197390D01*
X108276273Y-92122607D01*
X108215829Y-92045548D01*
X108159159Y-91961943D01*
X108154978Y-91955050D01*
X108027637Y-91756936D01*
X107931994Y-91626356D01*
X107862036Y-91535212D01*
X107943468Y-91447760D01*
X108013660Y-91368661D01*
X108103715Y-91261892D01*
X108203057Y-91140451D01*
X108301107Y-91017339D01*
X108387289Y-90905555D01*
X108416151Y-90866815D01*
X108720941Y-90486892D01*
X108960279Y-90229787D01*
X109159059Y-90028400D01*
X108613747Y-90028400D01*
X108428550Y-90028523D01*
X108287998Y-90029861D01*
X108185937Y-90033867D01*
X108116212Y-90041993D01*
X108072669Y-90055691D01*
X108049153Y-90076416D01*
X108039511Y-90105618D01*
X108037586Y-90144751D01*
X108037600Y-90164390D01*
X108022012Y-90217842D01*
X107982941Y-90285121D01*
X107965299Y-90308362D01*
X107906652Y-90385668D01*
X107843890Y-90476586D01*
X107821802Y-90511000D01*
X107778552Y-90577764D01*
X107744912Y-90624931D01*
X107733239Y-90638000D01*
X107703445Y-90667339D01*
X107654245Y-90723018D01*
X107594522Y-90794108D01*
X107533162Y-90869681D01*
X107479047Y-90938808D01*
X107441063Y-90990561D01*
X107428000Y-91013483D01*
X107411182Y-91042974D01*
X107369146Y-91090717D01*
X107351799Y-91107900D01*
X107275599Y-91180904D01*
X107275600Y-90761088D01*
X107277193Y-90578302D01*
X107282895Y-90435476D01*
X107294093Y-90321840D01*
X107312172Y-90226629D01*
X107338518Y-90139075D01*
X107364164Y-90072850D01*
X107367394Y-90057771D01*
X107358649Y-90046538D01*
X107331705Y-90038591D01*
X107280338Y-90033367D01*
X107198324Y-90030303D01*
X107079439Y-90028838D01*
X106917460Y-90028410D01*
X106871917Y-90028400D01*
X106717083Y-90028746D01*
X106581122Y-90029712D01*
X106471617Y-90031190D01*
X106396151Y-90033071D01*
X106362308Y-90035245D01*
X106361199Y-90035729D01*
X106085948Y-90035729D01*
X106086430Y-89986725D01*
X106088604Y-89848060D01*
X106091342Y-89737503D01*
X106094707Y-89651811D01*
X106098758Y-89587742D01*
X106103558Y-89542055D01*
X106109168Y-89511507D01*
X106115650Y-89492858D01*
X106121714Y-89484114D01*
X106134178Y-89475934D01*
X106156437Y-89468938D01*
X106192191Y-89463034D01*
X106245141Y-89458133D01*
X106318988Y-89454144D01*
X106417431Y-89450978D01*
X106544173Y-89448544D01*
X106702913Y-89446752D01*
X106897353Y-89445511D01*
X107131193Y-89444733D01*
X107408135Y-89444326D01*
X107731878Y-89444200D01*
X109358400Y-89444200D01*
X109358400Y-89540418D01*
X109378479Y-89656335D01*
X109431525Y-89775000D01*
X109506754Y-89875991D01*
X109559006Y-89920244D01*
X109672546Y-89967370D01*
X109803500Y-89977636D01*
X109937628Y-89953918D01*
X110060690Y-89899089D01*
X110158448Y-89816023D01*
X110173800Y-89796147D01*
X110220806Y-89695428D01*
X110242439Y-89579877D01*
X110253690Y-89444199D01*
X110363030Y-89444200D01*
X110396580Y-89442977D01*
X110425931Y-89441421D01*
X110451363Y-89442699D01*
X110451363Y-89442699D01*
G37*
X110451363Y-89442699D02*
X110473155Y-89449976D01*
X110491586Y-89466420D01*
X110506935Y-89495197D01*
X110519481Y-89539474D01*
X110529505Y-89602418D01*
X110537283Y-89687194D01*
X110543096Y-89796971D01*
X110547223Y-89934914D01*
X110549943Y-90104191D01*
X110551535Y-90307968D01*
X110552277Y-90549411D01*
X110552450Y-90831687D01*
X110552332Y-91157964D01*
X110552203Y-91531407D01*
X110552200Y-91590500D01*
X110552122Y-91965884D01*
X110551849Y-92293711D01*
X110551318Y-92577221D01*
X110550469Y-92819658D01*
X110549240Y-93024261D01*
X110547569Y-93194274D01*
X110545395Y-93332939D01*
X110542657Y-93443496D01*
X110539292Y-93529188D01*
X110535241Y-93593257D01*
X110530441Y-93638944D01*
X110524831Y-93669492D01*
X110518349Y-93688141D01*
X110512285Y-93696885D01*
X110501209Y-93703992D01*
X110481001Y-93710213D01*
X110448490Y-93715606D01*
X110400503Y-93720229D01*
X110333867Y-93724140D01*
X110245410Y-93727396D01*
X110131960Y-93730056D01*
X109990344Y-93732175D01*
X109817390Y-93733813D01*
X109609924Y-93735028D01*
X109364776Y-93735876D01*
X109078771Y-93736415D01*
X108748739Y-93736703D01*
X108371505Y-93736798D01*
X108316999Y-93736800D01*
X107933176Y-93736726D01*
X107596980Y-93736467D01*
X107305239Y-93735965D01*
X107054781Y-93735162D01*
X106842432Y-93734000D01*
X106665021Y-93732422D01*
X106519375Y-93730371D01*
X106402322Y-93727787D01*
X106310688Y-93724615D01*
X106241303Y-93720795D01*
X106190992Y-93716271D01*
X106156584Y-93710985D01*
X106134907Y-93704879D01*
X106122787Y-93697895D01*
X106121714Y-93696885D01*
X106114465Y-93685627D01*
X106108138Y-93665152D01*
X106102672Y-93632219D01*
X106098006Y-93583586D01*
X106094078Y-93516011D01*
X106090826Y-93426252D01*
X106088190Y-93311068D01*
X106086107Y-93167217D01*
X106084517Y-92991456D01*
X106083358Y-92780544D01*
X106082568Y-92531239D01*
X106082086Y-92240300D01*
X106081851Y-91904484D01*
X106081800Y-91590500D01*
X106081877Y-91215115D01*
X106082150Y-90887288D01*
X106082681Y-90603778D01*
X106083530Y-90361341D01*
X106084759Y-90156738D01*
X106085948Y-90035729D01*
X106361199Y-90035729D01*
X106371637Y-90060638D01*
X106397944Y-90114844D01*
X106411999Y-90142699D01*
X106422932Y-90165774D01*
X106432174Y-90191420D01*
X106439867Y-90223859D01*
X106446152Y-90267308D01*
X106451172Y-90325988D01*
X106455068Y-90404117D01*
X106457983Y-90505917D01*
X106460057Y-90635605D01*
X106461434Y-90797401D01*
X106462254Y-90995525D01*
X106462659Y-91234197D01*
X106462791Y-91517635D01*
X106462799Y-91654290D01*
X106462439Y-91917726D01*
X106461402Y-92166037D01*
X106459756Y-92394556D01*
X106457568Y-92598618D01*
X106454903Y-92773558D01*
X106451830Y-92914711D01*
X106448415Y-93017410D01*
X106444724Y-93076991D01*
X106442224Y-93090370D01*
X106417800Y-93130136D01*
X106391968Y-93184350D01*
X106362289Y-93254200D01*
X106888794Y-93253811D01*
X107043967Y-93252849D01*
X107178350Y-93250381D01*
X107284999Y-93246674D01*
X107356970Y-93241992D01*
X107387319Y-93236600D01*
X107387094Y-93234761D01*
X107357145Y-93200826D01*
X107321332Y-93142626D01*
X107317244Y-93134811D01*
X107302318Y-93097521D01*
X107291307Y-93047267D01*
X107283669Y-92976556D01*
X107278866Y-92877898D01*
X107276356Y-92743800D01*
X107275601Y-92566772D01*
X107275600Y-92556961D01*
X107276833Y-92379347D01*
X107280396Y-92236876D01*
X107286078Y-92133727D01*
X107293672Y-92074078D01*
X107300414Y-92060400D01*
X107329914Y-92079770D01*
X107367641Y-92126744D01*
X107369915Y-92130250D01*
X107410493Y-92187268D01*
X107444699Y-92225500D01*
X107475147Y-92262632D01*
X107515083Y-92324966D01*
X107528671Y-92348833D01*
X107570820Y-92415930D01*
X107633527Y-92504720D01*
X107704592Y-92598064D01*
X107718542Y-92615533D01*
X107826661Y-92758344D01*
X107917138Y-92894967D01*
X107985389Y-93017349D01*
X108026831Y-93117440D01*
X108037600Y-93175923D01*
X108037600Y-93254200D01*
X109164055Y-93254200D01*
X109151929Y-93240488D01*
X109307600Y-93240488D01*
X109331699Y-93244757D01*
X109398796Y-93248485D01*
X109501089Y-93251448D01*
X109630778Y-93253426D01*
X109780061Y-93254196D01*
X109790200Y-93254200D01*
X109966967Y-93253408D01*
X110098101Y-93250806D01*
X110188747Y-93246056D01*
X110244050Y-93238818D01*
X110269156Y-93228752D01*
X110271992Y-93222450D01*
X110257038Y-93178554D01*
X110233892Y-93141395D01*
X110224698Y-93122692D01*
X110217102Y-93090195D01*
X110210959Y-93039498D01*
X110206127Y-92966196D01*
X110202464Y-92865883D01*
X110199826Y-92734154D01*
X110198070Y-92566604D01*
X110197053Y-92358827D01*
X110196633Y-92106418D01*
X110196600Y-91992045D01*
X110196600Y-90892000D01*
X109331695Y-90892000D01*
X109370447Y-90966938D01*
X109380478Y-90992815D01*
X109388667Y-91031092D01*
X109395192Y-91086607D01*
X109400226Y-91164197D01*
X109403947Y-91268700D01*
X109406529Y-91404954D01*
X109408148Y-91577797D01*
X109408979Y-91792067D01*
X109409200Y-92034750D01*
X109409086Y-92286440D01*
X109408585Y-92492511D01*
X109407455Y-92658147D01*
X109405455Y-92788527D01*
X109402345Y-92888835D01*
X109397883Y-92964251D01*
X109391829Y-93019957D01*
X109383941Y-93061135D01*
X109373979Y-93092967D01*
X109361701Y-93120635D01*
X109358400Y-93127200D01*
X109327490Y-93190636D01*
X109309480Y-93233110D01*
X109307600Y-93240488D01*
X109151929Y-93240488D01*
X109102477Y-93184570D01*
X109058555Y-93135266D01*
X109030373Y-93104290D01*
X109028200Y-93102020D01*
X108970445Y-93038905D01*
X108898963Y-92954689D01*
X108823897Y-92862065D01*
X108755391Y-92773725D01*
X108703588Y-92702361D01*
X108683376Y-92670547D01*
X108643155Y-92606584D01*
X108579662Y-92515299D01*
X108501804Y-92408680D01*
X108418487Y-92298715D01*
X108338617Y-92197390D01*
X108276273Y-92122607D01*
X108215829Y-92045548D01*
X108159159Y-91961943D01*
X108154978Y-91955050D01*
X108027637Y-91756936D01*
X107931994Y-91626356D01*
X107862036Y-91535212D01*
X107943468Y-91447760D01*
X108013660Y-91368661D01*
X108103715Y-91261892D01*
X108203057Y-91140451D01*
X108301107Y-91017339D01*
X108387289Y-90905555D01*
X108416151Y-90866815D01*
X108720941Y-90486892D01*
X108960279Y-90229787D01*
X109159059Y-90028400D01*
X108613747Y-90028400D01*
X108428550Y-90028523D01*
X108287998Y-90029861D01*
X108185937Y-90033867D01*
X108116212Y-90041993D01*
X108072669Y-90055691D01*
X108049153Y-90076416D01*
X108039511Y-90105618D01*
X108037586Y-90144751D01*
X108037600Y-90164390D01*
X108022012Y-90217842D01*
X107982941Y-90285121D01*
X107965299Y-90308362D01*
X107906652Y-90385668D01*
X107843890Y-90476586D01*
X107821802Y-90511000D01*
X107778552Y-90577764D01*
X107744912Y-90624931D01*
X107733239Y-90638000D01*
X107703445Y-90667339D01*
X107654245Y-90723018D01*
X107594522Y-90794108D01*
X107533162Y-90869681D01*
X107479047Y-90938808D01*
X107441063Y-90990561D01*
X107428000Y-91013483D01*
X107411182Y-91042974D01*
X107369146Y-91090717D01*
X107351799Y-91107900D01*
X107275599Y-91180904D01*
X107275600Y-90761088D01*
X107277193Y-90578302D01*
X107282895Y-90435476D01*
X107294093Y-90321840D01*
X107312172Y-90226629D01*
X107338518Y-90139075D01*
X107364164Y-90072850D01*
X107367394Y-90057771D01*
X107358649Y-90046538D01*
X107331705Y-90038591D01*
X107280338Y-90033367D01*
X107198324Y-90030303D01*
X107079439Y-90028838D01*
X106917460Y-90028410D01*
X106871917Y-90028400D01*
X106717083Y-90028746D01*
X106581122Y-90029712D01*
X106471617Y-90031190D01*
X106396151Y-90033071D01*
X106362308Y-90035245D01*
X106361199Y-90035729D01*
X106085948Y-90035729D01*
X106086430Y-89986725D01*
X106088604Y-89848060D01*
X106091342Y-89737503D01*
X106094707Y-89651811D01*
X106098758Y-89587742D01*
X106103558Y-89542055D01*
X106109168Y-89511507D01*
X106115650Y-89492858D01*
X106121714Y-89484114D01*
X106134178Y-89475934D01*
X106156437Y-89468938D01*
X106192191Y-89463034D01*
X106245141Y-89458133D01*
X106318988Y-89454144D01*
X106417431Y-89450978D01*
X106544173Y-89448544D01*
X106702913Y-89446752D01*
X106897353Y-89445511D01*
X107131193Y-89444733D01*
X107408135Y-89444326D01*
X107731878Y-89444200D01*
X109358400Y-89444200D01*
X109358400Y-89540418D01*
X109378479Y-89656335D01*
X109431525Y-89775000D01*
X109506754Y-89875991D01*
X109559006Y-89920244D01*
X109672546Y-89967370D01*
X109803500Y-89977636D01*
X109937628Y-89953918D01*
X110060690Y-89899089D01*
X110158448Y-89816023D01*
X110173800Y-89796147D01*
X110220806Y-89695428D01*
X110242439Y-89579877D01*
X110253690Y-89444199D01*
X110363030Y-89444200D01*
X110396580Y-89442977D01*
X110425931Y-89441421D01*
X110451363Y-89442699D01*
D10*
X105964285Y-110478571D02*
X105964285Y-111692857D01*
X105892857Y-111835714D01*
X105821428Y-111907142D01*
X105678571Y-111978571D01*
X105464285Y-111978571D01*
X105321428Y-111907142D01*
X105964285Y-111407142D02*
X105821428Y-111478571D01*
X105535714Y-111478571D01*
X105392857Y-111407142D01*
X105321428Y-111335714D01*
X105250000Y-111192857D01*
X105250000Y-110764285D01*
X105321428Y-110621428D01*
X105392857Y-110550000D01*
X105535714Y-110478571D01*
X105821428Y-110478571D01*
X105964285Y-110550000D01*
X106678571Y-111478571D02*
X106678571Y-110478571D01*
X106678571Y-109978571D02*
X106607142Y-110050000D01*
X106678571Y-110121428D01*
X106750000Y-110050000D01*
X106678571Y-109978571D01*
X106678571Y-110121428D01*
X107178571Y-110478571D02*
X107750000Y-110478571D01*
X107392857Y-109978571D02*
X107392857Y-111264285D01*
X107464285Y-111407142D01*
X107607142Y-111478571D01*
X107750000Y-111478571D01*
X108250000Y-111478571D02*
X108250000Y-109978571D01*
X108892857Y-111478571D02*
X108892857Y-110692857D01*
X108821428Y-110550000D01*
X108678571Y-110478571D01*
X108464285Y-110478571D01*
X108321428Y-110550000D01*
X108250000Y-110621428D01*
X110250000Y-110478571D02*
X110250000Y-111478571D01*
X109607142Y-110478571D02*
X109607142Y-111264285D01*
X109678571Y-111407142D01*
X109821428Y-111478571D01*
X110035714Y-111478571D01*
X110178571Y-111407142D01*
X110250000Y-111335714D01*
X110964285Y-111478571D02*
X110964285Y-109978571D01*
X110964285Y-110550000D02*
X111107142Y-110478571D01*
X111392857Y-110478571D01*
X111535714Y-110550000D01*
X111607142Y-110621428D01*
X111678571Y-110764285D01*
X111678571Y-111192857D01*
X111607142Y-111335714D01*
X111535714Y-111407142D01*
X111392857Y-111478571D01*
X111107142Y-111478571D01*
X110964285Y-111407142D01*
X112321428Y-111335714D02*
X112392857Y-111407142D01*
X112321428Y-111478571D01*
X112250000Y-111407142D01*
X112321428Y-111335714D01*
X112321428Y-111478571D01*
X113678571Y-111407142D02*
X113535714Y-111478571D01*
X113250000Y-111478571D01*
X113107142Y-111407142D01*
X113035714Y-111335714D01*
X112964285Y-111192857D01*
X112964285Y-110764285D01*
X113035714Y-110621428D01*
X113107142Y-110550000D01*
X113250000Y-110478571D01*
X113535714Y-110478571D01*
X113678571Y-110550000D01*
X114535714Y-111478571D02*
X114392857Y-111407142D01*
X114321428Y-111335714D01*
X114250000Y-111192857D01*
X114250000Y-110764285D01*
X114321428Y-110621428D01*
X114392857Y-110550000D01*
X114535714Y-110478571D01*
X114750000Y-110478571D01*
X114892857Y-110550000D01*
X114964285Y-110621428D01*
X115035714Y-110764285D01*
X115035714Y-111192857D01*
X114964285Y-111335714D01*
X114892857Y-111407142D01*
X114750000Y-111478571D01*
X114535714Y-111478571D01*
X115678571Y-111478571D02*
X115678571Y-110478571D01*
X115678571Y-110621428D02*
X115750000Y-110550000D01*
X115892857Y-110478571D01*
X116107142Y-110478571D01*
X116250000Y-110550000D01*
X116321428Y-110692857D01*
X116321428Y-111478571D01*
X116321428Y-110692857D02*
X116392857Y-110550000D01*
X116535714Y-110478571D01*
X116750000Y-110478571D01*
X116892857Y-110550000D01*
X116964285Y-110692857D01*
X116964285Y-111478571D01*
X118750000Y-109907142D02*
X117464285Y-111835714D01*
X119250000Y-110478571D02*
X119250000Y-111764285D01*
X119178571Y-111907142D01*
X119035714Y-111978571D01*
X118964285Y-111978571D01*
X119250000Y-109978571D02*
X119178571Y-110050000D01*
X119250000Y-110121428D01*
X119321428Y-110050000D01*
X119250000Y-109978571D01*
X119250000Y-110121428D01*
X120178571Y-111478571D02*
X120035714Y-111407142D01*
X119964285Y-111335714D01*
X119892857Y-111192857D01*
X119892857Y-110764285D01*
X119964285Y-110621428D01*
X120035714Y-110550000D01*
X120178571Y-110478571D01*
X120392857Y-110478571D01*
X120535714Y-110550000D01*
X120607142Y-110621428D01*
X120678571Y-110764285D01*
X120678571Y-111192857D01*
X120607142Y-111335714D01*
X120535714Y-111407142D01*
X120392857Y-111478571D01*
X120178571Y-111478571D01*
X121250000Y-111407142D02*
X121392857Y-111478571D01*
X121678571Y-111478571D01*
X121821428Y-111407142D01*
X121892857Y-111264285D01*
X121892857Y-111192857D01*
X121821428Y-111050000D01*
X121678571Y-110978571D01*
X121464285Y-110978571D01*
X121321428Y-110907142D01*
X121250000Y-110764285D01*
X121250000Y-110692857D01*
X121321428Y-110550000D01*
X121464285Y-110478571D01*
X121678571Y-110478571D01*
X121821428Y-110550000D01*
X122535714Y-111478571D02*
X122535714Y-109978571D01*
X123178571Y-111478571D02*
X123178571Y-110692857D01*
X123107142Y-110550000D01*
X122964285Y-110478571D01*
X122750000Y-110478571D01*
X122607142Y-110550000D01*
X122535714Y-110621428D01*
X124535714Y-111478571D02*
X124535714Y-110692857D01*
X124464285Y-110550000D01*
X124321428Y-110478571D01*
X124035714Y-110478571D01*
X123892857Y-110550000D01*
X124535714Y-111407142D02*
X124392857Y-111478571D01*
X124035714Y-111478571D01*
X123892857Y-111407142D01*
X123821428Y-111264285D01*
X123821428Y-111121428D01*
X123892857Y-110978571D01*
X124035714Y-110907142D01*
X124392857Y-110907142D01*
X124535714Y-110835714D01*
X125250000Y-110478571D02*
X125250000Y-111764285D01*
X125178571Y-111907142D01*
X125035714Y-111978571D01*
X124964285Y-111978571D01*
X125250000Y-109978571D02*
X125178571Y-110050000D01*
X125250000Y-110121428D01*
X125321428Y-110050000D01*
X125250000Y-109978571D01*
X125250000Y-110121428D01*
X126178571Y-111478571D02*
X126035714Y-111407142D01*
X125964285Y-111335714D01*
X125892857Y-111192857D01*
X125892857Y-110764285D01*
X125964285Y-110621428D01*
X126035714Y-110550000D01*
X126178571Y-110478571D01*
X126392857Y-110478571D01*
X126535714Y-110550000D01*
X126607142Y-110621428D01*
X126678571Y-110764285D01*
X126678571Y-111192857D01*
X126607142Y-111335714D01*
X126535714Y-111407142D01*
X126392857Y-111478571D01*
X126178571Y-111478571D01*
X127321428Y-111478571D02*
X127321428Y-109978571D01*
X127964285Y-111478571D02*
X127964285Y-110692857D01*
X127892857Y-110550000D01*
X127750000Y-110478571D01*
X127535714Y-110478571D01*
X127392857Y-110550000D01*
X127321428Y-110621428D01*
X128678571Y-110478571D02*
X128678571Y-111478571D01*
X128678571Y-110621428D02*
X128750000Y-110550000D01*
X128892857Y-110478571D01*
X129107142Y-110478571D01*
X129250000Y-110550000D01*
X129321428Y-110692857D01*
X129321428Y-111478571D01*
X129964285Y-111407142D02*
X130107142Y-111478571D01*
X130392857Y-111478571D01*
X130535714Y-111407142D01*
X130607142Y-111264285D01*
X130607142Y-111192857D01*
X130535714Y-111050000D01*
X130392857Y-110978571D01*
X130178571Y-110978571D01*
X130035714Y-110907142D01*
X129964285Y-110764285D01*
X129964285Y-110692857D01*
X130035714Y-110550000D01*
X130178571Y-110478571D01*
X130392857Y-110478571D01*
X130535714Y-110550000D01*
X131464285Y-111478571D02*
X131321428Y-111407142D01*
X131250000Y-111335714D01*
X131178571Y-111192857D01*
X131178571Y-110764285D01*
X131250000Y-110621428D01*
X131321428Y-110550000D01*
X131464285Y-110478571D01*
X131678571Y-110478571D01*
X131821428Y-110550000D01*
X131892857Y-110621428D01*
X131964285Y-110764285D01*
X131964285Y-111192857D01*
X131892857Y-111335714D01*
X131821428Y-111407142D01*
X131678571Y-111478571D01*
X131464285Y-111478571D01*
X132607142Y-110478571D02*
X132607142Y-111478571D01*
X132607142Y-110621428D02*
X132678571Y-110550000D01*
X132821428Y-110478571D01*
X133035714Y-110478571D01*
X133178571Y-110550000D01*
X133250000Y-110692857D01*
X133250000Y-111478571D01*
X135035714Y-109907142D02*
X133750000Y-111835714D01*
X135392857Y-110478571D02*
X135750000Y-111478571D01*
X136107142Y-110478571D01*
X136678571Y-110478571D02*
X136678571Y-111478571D01*
X136678571Y-110621428D02*
X136750000Y-110550000D01*
X136892857Y-110478571D01*
X137107142Y-110478571D01*
X137250000Y-110550000D01*
X137321428Y-110692857D01*
X137321428Y-111478571D01*
X138678571Y-111478571D02*
X138678571Y-110692857D01*
X138607142Y-110550000D01*
X138464285Y-110478571D01*
X138178571Y-110478571D01*
X138035714Y-110550000D01*
X138678571Y-111407142D02*
X138535714Y-111478571D01*
X138178571Y-111478571D01*
X138035714Y-111407142D01*
X137964285Y-111264285D01*
X137964285Y-111121428D01*
X138035714Y-110978571D01*
X138178571Y-110907142D01*
X138535714Y-110907142D01*
X138678571Y-110835714D01*
X106121428Y-108178571D02*
X106121428Y-109464285D01*
X106050000Y-109607142D01*
X105907142Y-109678571D01*
X105835714Y-109678571D01*
X106121428Y-107678571D02*
X106050000Y-107750000D01*
X106121428Y-107821428D01*
X106192857Y-107750000D01*
X106121428Y-107678571D01*
X106121428Y-107821428D01*
X107050000Y-109178571D02*
X106907142Y-109107142D01*
X106835714Y-109035714D01*
X106764285Y-108892857D01*
X106764285Y-108464285D01*
X106835714Y-108321428D01*
X106907142Y-108250000D01*
X107050000Y-108178571D01*
X107264285Y-108178571D01*
X107407142Y-108250000D01*
X107478571Y-108321428D01*
X107550000Y-108464285D01*
X107550000Y-108892857D01*
X107478571Y-109035714D01*
X107407142Y-109107142D01*
X107264285Y-109178571D01*
X107050000Y-109178571D01*
X108121428Y-109107142D02*
X108264285Y-109178571D01*
X108550000Y-109178571D01*
X108692857Y-109107142D01*
X108764285Y-108964285D01*
X108764285Y-108892857D01*
X108692857Y-108750000D01*
X108550000Y-108678571D01*
X108335714Y-108678571D01*
X108192857Y-108607142D01*
X108121428Y-108464285D01*
X108121428Y-108392857D01*
X108192857Y-108250000D01*
X108335714Y-108178571D01*
X108550000Y-108178571D01*
X108692857Y-108250000D01*
X109407142Y-109178571D02*
X109407142Y-107678571D01*
X110050000Y-109178571D02*
X110050000Y-108392857D01*
X109978571Y-108250000D01*
X109835714Y-108178571D01*
X109621428Y-108178571D01*
X109478571Y-108250000D01*
X109407142Y-108321428D01*
X111407142Y-109178571D02*
X111407142Y-108392857D01*
X111335714Y-108250000D01*
X111192857Y-108178571D01*
X110907142Y-108178571D01*
X110764285Y-108250000D01*
X111407142Y-109107142D02*
X111264285Y-109178571D01*
X110907142Y-109178571D01*
X110764285Y-109107142D01*
X110692857Y-108964285D01*
X110692857Y-108821428D01*
X110764285Y-108678571D01*
X110907142Y-108607142D01*
X111264285Y-108607142D01*
X111407142Y-108535714D01*
X112121428Y-108178571D02*
X112121428Y-109464285D01*
X112050000Y-109607142D01*
X111907142Y-109678571D01*
X111835714Y-109678571D01*
X112121428Y-107678571D02*
X112050000Y-107750000D01*
X112121428Y-107821428D01*
X112192857Y-107750000D01*
X112121428Y-107678571D01*
X112121428Y-107821428D01*
X113050000Y-109178571D02*
X112907142Y-109107142D01*
X112835714Y-109035714D01*
X112764285Y-108892857D01*
X112764285Y-108464285D01*
X112835714Y-108321428D01*
X112907142Y-108250000D01*
X113050000Y-108178571D01*
X113264285Y-108178571D01*
X113407142Y-108250000D01*
X113478571Y-108321428D01*
X113550000Y-108464285D01*
X113550000Y-108892857D01*
X113478571Y-109035714D01*
X113407142Y-109107142D01*
X113264285Y-109178571D01*
X113050000Y-109178571D01*
X114192857Y-109178571D02*
X114192857Y-107678571D01*
X114835714Y-109178571D02*
X114835714Y-108392857D01*
X114764285Y-108250000D01*
X114621428Y-108178571D01*
X114407142Y-108178571D01*
X114264285Y-108250000D01*
X114192857Y-108321428D01*
X115550000Y-108178571D02*
X115550000Y-109178571D01*
X115550000Y-108321428D02*
X115621428Y-108250000D01*
X115764285Y-108178571D01*
X115978571Y-108178571D01*
X116121428Y-108250000D01*
X116192857Y-108392857D01*
X116192857Y-109178571D01*
X116835714Y-109107142D02*
X116978571Y-109178571D01*
X117264285Y-109178571D01*
X117407142Y-109107142D01*
X117478571Y-108964285D01*
X117478571Y-108892857D01*
X117407142Y-108750000D01*
X117264285Y-108678571D01*
X117050000Y-108678571D01*
X116907142Y-108607142D01*
X116835714Y-108464285D01*
X116835714Y-108392857D01*
X116907142Y-108250000D01*
X117050000Y-108178571D01*
X117264285Y-108178571D01*
X117407142Y-108250000D01*
X118335714Y-109178571D02*
X118192857Y-109107142D01*
X118121428Y-109035714D01*
X118050000Y-108892857D01*
X118050000Y-108464285D01*
X118121428Y-108321428D01*
X118192857Y-108250000D01*
X118335714Y-108178571D01*
X118550000Y-108178571D01*
X118692857Y-108250000D01*
X118764285Y-108321428D01*
X118835714Y-108464285D01*
X118835714Y-108892857D01*
X118764285Y-109035714D01*
X118692857Y-109107142D01*
X118550000Y-109178571D01*
X118335714Y-109178571D01*
X119478571Y-108178571D02*
X119478571Y-109178571D01*
X119478571Y-108321428D02*
X119550000Y-108250000D01*
X119692857Y-108178571D01*
X119907142Y-108178571D01*
X120050000Y-108250000D01*
X120121428Y-108392857D01*
X120121428Y-109178571D01*
X120835714Y-109035714D02*
X120907142Y-109107142D01*
X120835714Y-109178571D01*
X120764285Y-109107142D01*
X120835714Y-109035714D01*
X120835714Y-109178571D01*
X122192857Y-109107142D02*
X122050000Y-109178571D01*
X121764285Y-109178571D01*
X121621428Y-109107142D01*
X121550000Y-109035714D01*
X121478571Y-108892857D01*
X121478571Y-108464285D01*
X121550000Y-108321428D01*
X121621428Y-108250000D01*
X121764285Y-108178571D01*
X122050000Y-108178571D01*
X122192857Y-108250000D01*
X123050000Y-109178571D02*
X122907142Y-109107142D01*
X122835714Y-109035714D01*
X122764285Y-108892857D01*
X122764285Y-108464285D01*
X122835714Y-108321428D01*
X122907142Y-108250000D01*
X123050000Y-108178571D01*
X123264285Y-108178571D01*
X123407142Y-108250000D01*
X123478571Y-108321428D01*
X123550000Y-108464285D01*
X123550000Y-108892857D01*
X123478571Y-109035714D01*
X123407142Y-109107142D01*
X123264285Y-109178571D01*
X123050000Y-109178571D01*
X124192857Y-109178571D02*
X124192857Y-108178571D01*
X124192857Y-108321428D02*
X124264285Y-108250000D01*
X124407142Y-108178571D01*
X124621428Y-108178571D01*
X124764285Y-108250000D01*
X124835714Y-108392857D01*
X124835714Y-109178571D01*
X124835714Y-108392857D02*
X124907142Y-108250000D01*
X125050000Y-108178571D01*
X125264285Y-108178571D01*
X125407142Y-108250000D01*
X125478571Y-108392857D01*
X125478571Y-109178571D01*
X106050000Y-105678571D02*
X106050000Y-106750000D01*
X105978571Y-106964285D01*
X105835714Y-107107142D01*
X105621428Y-107178571D01*
X105478571Y-107178571D01*
X106978571Y-107178571D02*
X106835714Y-107107142D01*
X106764285Y-107035714D01*
X106692857Y-106892857D01*
X106692857Y-106464285D01*
X106764285Y-106321428D01*
X106835714Y-106250000D01*
X106978571Y-106178571D01*
X107192857Y-106178571D01*
X107335714Y-106250000D01*
X107407142Y-106321428D01*
X107478571Y-106464285D01*
X107478571Y-106892857D01*
X107407142Y-107035714D01*
X107335714Y-107107142D01*
X107192857Y-107178571D01*
X106978571Y-107178571D01*
X108050000Y-107107142D02*
X108192857Y-107178571D01*
X108478571Y-107178571D01*
X108621428Y-107107142D01*
X108692857Y-106964285D01*
X108692857Y-106892857D01*
X108621428Y-106750000D01*
X108478571Y-106678571D01*
X108264285Y-106678571D01*
X108121428Y-106607142D01*
X108050000Y-106464285D01*
X108050000Y-106392857D01*
X108121428Y-106250000D01*
X108264285Y-106178571D01*
X108478571Y-106178571D01*
X108621428Y-106250000D01*
X109335714Y-107178571D02*
X109335714Y-105678571D01*
X109978571Y-107178571D02*
X109978571Y-106392857D01*
X109907142Y-106250000D01*
X109764285Y-106178571D01*
X109550000Y-106178571D01*
X109407142Y-106250000D01*
X109335714Y-106321428D01*
M02*
