G04 #@! TF.GenerationSoftware,KiCad,Pcbnew,(5.1.0)-1*
G04 #@! TF.CreationDate,2019-04-19T11:35:58+10:00*
G04 #@! TF.ProjectId,RearPanel,52656172-5061-46e6-956c-2e6b69636164,rev?*
G04 #@! TF.SameCoordinates,Original*
G04 #@! TF.FileFunction,Profile,NP*
%FSLAX46Y46*%
G04 Gerber Fmt 4.6, Leading zero omitted, Abs format (unit mm)*
G04 Created by KiCad (PCBNEW (5.1.0)-1) date 2019-04-19 11:35:58*
%MOMM*%
%LPD*%
G04 APERTURE LIST*
%ADD10C,0.200000*%
G04 APERTURE END LIST*
D10*
X143305190Y-98684809D02*
X143305190Y-103204809D01*
X125105190Y-107452308D02*
X132105190Y-107452308D01*
X103900000Y-90700000D02*
G75*
G03X103900000Y-90700000I-1400000J0D01*
G01*
X143321653Y-98353382D02*
X143321653Y-98586796D01*
X157705191Y-98684809D02*
G75*
G03X157688728Y-98586796I-300001J0D01*
G01*
X125105190Y-100452309D02*
G75*
G03X123105190Y-102452309I0J-2000000D01*
G01*
X132105190Y-100452309D02*
X125105190Y-100452309D01*
X123105191Y-105452309D02*
G75*
G03X125105190Y-107452308I1999999J0D01*
G01*
X165600000Y-112699999D02*
G75*
G03X170600000Y-107699999I0J5000000D01*
G01*
X134105190Y-105452309D02*
X134105190Y-102452309D01*
X132105190Y-107452309D02*
G75*
G03X134105190Y-105452309I0J2000000D01*
G01*
X134105190Y-102452309D02*
G75*
G03X132105190Y-100452309I-2000000J0D01*
G01*
X104400000Y-112699999D02*
X165600000Y-112699999D01*
X168900000Y-109199999D02*
G75*
G03X168900000Y-109199999I-1400000J0D01*
G01*
X157705190Y-103204809D02*
X157705190Y-98684809D01*
X144321653Y-104524809D02*
X156688728Y-104524809D01*
X143321653Y-103302823D02*
X143321653Y-103524809D01*
X157688728Y-98353382D02*
G75*
G03X156688728Y-97353382I-1000000J0D01*
G01*
X156688728Y-104524809D02*
G75*
G03X157688728Y-103524809I0J1000000D01*
G01*
X103900000Y-109199999D02*
G75*
G03X103900000Y-109199999I-1400000J0D01*
G01*
X139471459Y-101334809D02*
G75*
G03X139471459Y-101334809I-1750000J0D01*
G01*
X157688728Y-103524809D02*
X157688728Y-103302823D01*
X99400000Y-92200000D02*
X99400000Y-107699999D01*
X144321653Y-97353382D02*
G75*
G03X143321653Y-98353382I0J-1000000D01*
G01*
X157688728Y-98586796D02*
X157688728Y-98353382D01*
X104400000Y-87200000D02*
G75*
G03X99400000Y-92200000I0J-5000000D01*
G01*
X99400000Y-107699999D02*
G75*
G03X104400000Y-112699999I5000000J0D01*
G01*
X156688728Y-97353382D02*
X144321653Y-97353382D01*
X168900000Y-90700000D02*
G75*
G03X168900000Y-90700000I-1400000J0D01*
G01*
X143321653Y-103524809D02*
G75*
G03X144321653Y-104524809I1000000J0D01*
G01*
X157688727Y-103302822D02*
G75*
G03X157705190Y-103204809I-283537J98013D01*
G01*
X143321653Y-98586796D02*
G75*
G03X143305190Y-98684809I283537J-98013D01*
G01*
X123105190Y-102452309D02*
X123105190Y-105452309D01*
X143305190Y-103204810D02*
G75*
G03X143321653Y-103302823I300000J1D01*
G01*
X170600000Y-107699999D02*
X170600000Y-92200000D01*
X165600000Y-87200000D02*
X104400000Y-87200000D01*
X170600000Y-92200000D02*
G75*
G03X165600000Y-87200000I-5000000J0D01*
G01*
M02*
