G04 #@! TF.GenerationSoftware,KiCad,Pcbnew,(5.1.0)-1*
G04 #@! TF.CreationDate,2019-04-19T11:35:58+10:00*
G04 #@! TF.ProjectId,RearPanel,52656172-5061-46e6-956c-2e6b69636164,rev?*
G04 #@! TF.SameCoordinates,Original*
G04 #@! TF.FileFunction,Soldermask,Top*
G04 #@! TF.FilePolarity,Negative*
%FSLAX46Y46*%
G04 Gerber Fmt 4.6, Leading zero omitted, Abs format (unit mm)*
G04 Created by KiCad (PCBNEW (5.1.0)-1) date 2019-04-19 11:35:58*
%MOMM*%
%LPD*%
G04 APERTURE LIST*
%ADD10C,0.010000*%
G04 APERTURE END LIST*
D10*
G36*
X112500964Y-94798576D02*
G01*
X112576513Y-95199322D01*
X113134041Y-95429154D01*
X113468465Y-95201748D01*
X113562122Y-95138431D01*
X113646782Y-95081896D01*
X113718495Y-95034727D01*
X113773311Y-94999502D01*
X113807280Y-94978805D01*
X113816530Y-94974342D01*
X113833195Y-94985820D01*
X113868806Y-95017551D01*
X113919371Y-95065483D01*
X113980900Y-95125562D01*
X114049399Y-95193733D01*
X114120879Y-95265945D01*
X114191347Y-95338142D01*
X114256811Y-95406273D01*
X114313280Y-95466283D01*
X114356763Y-95514119D01*
X114383268Y-95545727D01*
X114389605Y-95556305D01*
X114380486Y-95575806D01*
X114354920Y-95618531D01*
X114315597Y-95680298D01*
X114265203Y-95756931D01*
X114206427Y-95844248D01*
X114172368Y-95894052D01*
X114110289Y-95984993D01*
X114055126Y-96067059D01*
X114009554Y-96136163D01*
X113976250Y-96188222D01*
X113957890Y-96219150D01*
X113955131Y-96225650D01*
X113961385Y-96244121D01*
X113978434Y-96287172D01*
X114003703Y-96348749D01*
X114034622Y-96422799D01*
X114068618Y-96503270D01*
X114103118Y-96584107D01*
X114135551Y-96659258D01*
X114163343Y-96722671D01*
X114183923Y-96768293D01*
X114194719Y-96790069D01*
X114195356Y-96790926D01*
X114212307Y-96795084D01*
X114257451Y-96804361D01*
X114326110Y-96817844D01*
X114413602Y-96834621D01*
X114515250Y-96853781D01*
X114574556Y-96864830D01*
X114683172Y-96885510D01*
X114781277Y-96905189D01*
X114863909Y-96922789D01*
X114926104Y-96937233D01*
X114962899Y-96947446D01*
X114970296Y-96950686D01*
X114977540Y-96972617D01*
X114983385Y-97022147D01*
X114987835Y-97093485D01*
X114990893Y-97180839D01*
X114992565Y-97278417D01*
X114992853Y-97380426D01*
X114991761Y-97481075D01*
X114989294Y-97574572D01*
X114985456Y-97655125D01*
X114980250Y-97716942D01*
X114973681Y-97754230D01*
X114969741Y-97761993D01*
X114946188Y-97771298D01*
X114896282Y-97784600D01*
X114826623Y-97800337D01*
X114743813Y-97816946D01*
X114714905Y-97822319D01*
X114575531Y-97847848D01*
X114465436Y-97868408D01*
X114380982Y-97884815D01*
X114318530Y-97897887D01*
X114274444Y-97908441D01*
X114245085Y-97917294D01*
X114226815Y-97925263D01*
X114215998Y-97933165D01*
X114214485Y-97934727D01*
X114199377Y-97959886D01*
X114176329Y-98008850D01*
X114147644Y-98075621D01*
X114115622Y-98154205D01*
X114082565Y-98238607D01*
X114050773Y-98322830D01*
X114022549Y-98400879D01*
X114000193Y-98466759D01*
X113986007Y-98514473D01*
X113982293Y-98538027D01*
X113982602Y-98538852D01*
X113995189Y-98558104D01*
X114023744Y-98600463D01*
X114065267Y-98661521D01*
X114116756Y-98736868D01*
X114175211Y-98822096D01*
X114191858Y-98846315D01*
X114251215Y-98934123D01*
X114303447Y-99014238D01*
X114345708Y-99082062D01*
X114375153Y-99132993D01*
X114388937Y-99162431D01*
X114389605Y-99166048D01*
X114378024Y-99185057D01*
X114346024Y-99222714D01*
X114297718Y-99274973D01*
X114237220Y-99337786D01*
X114168644Y-99407106D01*
X114096104Y-99478885D01*
X114023712Y-99549077D01*
X113955584Y-99613635D01*
X113895832Y-99668510D01*
X113848571Y-99709656D01*
X113817913Y-99733026D01*
X113809432Y-99736842D01*
X113789691Y-99727855D01*
X113749274Y-99703616D01*
X113694763Y-99668209D01*
X113652823Y-99639711D01*
X113576829Y-99587418D01*
X113486834Y-99525845D01*
X113396564Y-99464370D01*
X113348032Y-99431469D01*
X113183762Y-99320359D01*
X113045869Y-99394916D01*
X112983049Y-99427578D01*
X112929629Y-99452966D01*
X112893484Y-99467446D01*
X112884284Y-99469460D01*
X112873221Y-99454584D01*
X112851394Y-99412547D01*
X112820434Y-99347227D01*
X112781970Y-99262500D01*
X112737632Y-99162245D01*
X112689047Y-99050339D01*
X112637846Y-98930659D01*
X112585659Y-98807084D01*
X112534113Y-98683491D01*
X112484840Y-98563757D01*
X112439467Y-98451759D01*
X112399625Y-98351377D01*
X112366942Y-98266486D01*
X112343049Y-98200965D01*
X112329574Y-98158690D01*
X112327406Y-98144172D01*
X112344583Y-98125653D01*
X112382190Y-98095590D01*
X112432366Y-98060232D01*
X112436578Y-98057434D01*
X112566264Y-97953625D01*
X112670834Y-97832515D01*
X112749381Y-97697976D01*
X112800999Y-97553882D01*
X112824782Y-97404105D01*
X112819823Y-97252517D01*
X112785217Y-97102992D01*
X112720057Y-96959400D01*
X112700886Y-96927984D01*
X112601174Y-96801125D01*
X112483377Y-96699255D01*
X112351571Y-96622904D01*
X112209833Y-96572602D01*
X112062242Y-96548879D01*
X111912873Y-96552265D01*
X111765803Y-96583288D01*
X111625111Y-96642480D01*
X111494873Y-96730369D01*
X111454586Y-96766042D01*
X111352055Y-96877706D01*
X111277341Y-96995257D01*
X111226090Y-97127020D01*
X111197546Y-97257507D01*
X111190500Y-97404216D01*
X111213996Y-97551653D01*
X111265649Y-97694834D01*
X111343071Y-97828777D01*
X111443875Y-97948498D01*
X111565676Y-98049014D01*
X111581684Y-98059609D01*
X111632398Y-98094306D01*
X111670950Y-98124370D01*
X111689381Y-98143565D01*
X111689649Y-98144172D01*
X111685692Y-98164936D01*
X111670007Y-98212062D01*
X111644222Y-98281673D01*
X111609969Y-98369893D01*
X111568877Y-98472844D01*
X111522576Y-98586650D01*
X111472696Y-98707435D01*
X111420867Y-98831321D01*
X111368719Y-98954432D01*
X111317882Y-99072891D01*
X111269987Y-99182823D01*
X111226662Y-99280349D01*
X111189538Y-99361593D01*
X111160244Y-99422679D01*
X111140412Y-99459730D01*
X111132426Y-99469460D01*
X111108021Y-99461883D01*
X111062358Y-99441560D01*
X111003310Y-99412125D01*
X110970840Y-99394916D01*
X110832947Y-99320359D01*
X110668677Y-99431469D01*
X110584821Y-99488390D01*
X110493013Y-99551030D01*
X110406980Y-99610011D01*
X110363887Y-99639711D01*
X110303277Y-99680410D01*
X110251955Y-99712663D01*
X110216615Y-99732384D01*
X110205137Y-99736554D01*
X110188430Y-99725307D01*
X110151454Y-99693911D01*
X110097795Y-99645624D01*
X110031038Y-99583708D01*
X109954766Y-99511421D01*
X109906527Y-99465008D01*
X109822133Y-99382087D01*
X109749197Y-99307920D01*
X109690669Y-99245680D01*
X109649497Y-99198541D01*
X109628628Y-99169673D01*
X109626626Y-99163815D01*
X109635917Y-99141532D01*
X109661591Y-99096477D01*
X109700800Y-99033211D01*
X109750697Y-98956295D01*
X109808433Y-98870292D01*
X109824851Y-98846315D01*
X109884677Y-98759170D01*
X109938350Y-98680710D01*
X109982870Y-98615345D01*
X110015235Y-98567484D01*
X110032445Y-98541535D01*
X110034107Y-98538852D01*
X110031621Y-98518172D01*
X110018423Y-98472704D01*
X109996814Y-98408444D01*
X109969096Y-98331387D01*
X109937570Y-98247529D01*
X109904537Y-98162866D01*
X109872299Y-98083392D01*
X109843157Y-98015104D01*
X109819412Y-97963997D01*
X109803365Y-97936067D01*
X109802225Y-97934727D01*
X109792412Y-97926745D01*
X109775839Y-97918851D01*
X109748868Y-97910229D01*
X109707861Y-97900062D01*
X109649180Y-97887531D01*
X109569187Y-97871821D01*
X109464245Y-97852113D01*
X109330715Y-97827592D01*
X109301804Y-97822319D01*
X109216118Y-97805764D01*
X109141418Y-97789569D01*
X109084306Y-97775296D01*
X109051383Y-97764508D01*
X109046969Y-97761993D01*
X109039694Y-97739696D01*
X109033781Y-97689869D01*
X109029234Y-97618304D01*
X109026055Y-97530793D01*
X109024251Y-97433128D01*
X109023823Y-97331101D01*
X109024777Y-97230503D01*
X109027116Y-97137127D01*
X109030844Y-97056765D01*
X109035966Y-96995209D01*
X109042484Y-96958250D01*
X109046414Y-96950686D01*
X109068292Y-96943056D01*
X109118109Y-96930642D01*
X109190903Y-96914522D01*
X109281711Y-96895773D01*
X109385569Y-96875471D01*
X109442154Y-96864830D01*
X109549514Y-96844760D01*
X109645254Y-96826580D01*
X109724694Y-96811199D01*
X109783154Y-96799531D01*
X109815955Y-96792488D01*
X109821354Y-96790926D01*
X109830478Y-96773322D01*
X109849765Y-96730918D01*
X109876645Y-96669772D01*
X109908546Y-96595943D01*
X109942898Y-96515489D01*
X109977129Y-96434468D01*
X110008669Y-96358937D01*
X110034946Y-96294955D01*
X110053389Y-96248580D01*
X110061429Y-96225869D01*
X110061578Y-96224876D01*
X110052465Y-96206961D01*
X110026914Y-96165733D01*
X109987612Y-96105291D01*
X109937243Y-96029731D01*
X109878494Y-95943152D01*
X109844342Y-95893421D01*
X109782110Y-95802236D01*
X109726836Y-95719449D01*
X109681218Y-95649249D01*
X109647952Y-95595824D01*
X109629736Y-95563361D01*
X109627105Y-95556083D01*
X109638414Y-95539145D01*
X109669681Y-95502978D01*
X109716910Y-95451635D01*
X109776108Y-95389167D01*
X109843281Y-95319626D01*
X109914434Y-95247065D01*
X109985574Y-95175535D01*
X110052707Y-95109087D01*
X110111839Y-95051774D01*
X110158975Y-95007647D01*
X110190123Y-94980759D01*
X110200543Y-94974342D01*
X110217509Y-94983365D01*
X110258089Y-95008715D01*
X110318337Y-95047810D01*
X110394307Y-95098071D01*
X110482054Y-95156917D01*
X110548244Y-95201748D01*
X110882668Y-95429154D01*
X111161433Y-95314238D01*
X111440197Y-95199322D01*
X111515746Y-94798576D01*
X111591294Y-94397829D01*
X112425415Y-94397829D01*
X112500964Y-94798576D01*
X112500964Y-94798576D01*
G37*
X112500964Y-94798576D02*
X112576513Y-95199322D01*
X113134041Y-95429154D01*
X113468465Y-95201748D01*
X113562122Y-95138431D01*
X113646782Y-95081896D01*
X113718495Y-95034727D01*
X113773311Y-94999502D01*
X113807280Y-94978805D01*
X113816530Y-94974342D01*
X113833195Y-94985820D01*
X113868806Y-95017551D01*
X113919371Y-95065483D01*
X113980900Y-95125562D01*
X114049399Y-95193733D01*
X114120879Y-95265945D01*
X114191347Y-95338142D01*
X114256811Y-95406273D01*
X114313280Y-95466283D01*
X114356763Y-95514119D01*
X114383268Y-95545727D01*
X114389605Y-95556305D01*
X114380486Y-95575806D01*
X114354920Y-95618531D01*
X114315597Y-95680298D01*
X114265203Y-95756931D01*
X114206427Y-95844248D01*
X114172368Y-95894052D01*
X114110289Y-95984993D01*
X114055126Y-96067059D01*
X114009554Y-96136163D01*
X113976250Y-96188222D01*
X113957890Y-96219150D01*
X113955131Y-96225650D01*
X113961385Y-96244121D01*
X113978434Y-96287172D01*
X114003703Y-96348749D01*
X114034622Y-96422799D01*
X114068618Y-96503270D01*
X114103118Y-96584107D01*
X114135551Y-96659258D01*
X114163343Y-96722671D01*
X114183923Y-96768293D01*
X114194719Y-96790069D01*
X114195356Y-96790926D01*
X114212307Y-96795084D01*
X114257451Y-96804361D01*
X114326110Y-96817844D01*
X114413602Y-96834621D01*
X114515250Y-96853781D01*
X114574556Y-96864830D01*
X114683172Y-96885510D01*
X114781277Y-96905189D01*
X114863909Y-96922789D01*
X114926104Y-96937233D01*
X114962899Y-96947446D01*
X114970296Y-96950686D01*
X114977540Y-96972617D01*
X114983385Y-97022147D01*
X114987835Y-97093485D01*
X114990893Y-97180839D01*
X114992565Y-97278417D01*
X114992853Y-97380426D01*
X114991761Y-97481075D01*
X114989294Y-97574572D01*
X114985456Y-97655125D01*
X114980250Y-97716942D01*
X114973681Y-97754230D01*
X114969741Y-97761993D01*
X114946188Y-97771298D01*
X114896282Y-97784600D01*
X114826623Y-97800337D01*
X114743813Y-97816946D01*
X114714905Y-97822319D01*
X114575531Y-97847848D01*
X114465436Y-97868408D01*
X114380982Y-97884815D01*
X114318530Y-97897887D01*
X114274444Y-97908441D01*
X114245085Y-97917294D01*
X114226815Y-97925263D01*
X114215998Y-97933165D01*
X114214485Y-97934727D01*
X114199377Y-97959886D01*
X114176329Y-98008850D01*
X114147644Y-98075621D01*
X114115622Y-98154205D01*
X114082565Y-98238607D01*
X114050773Y-98322830D01*
X114022549Y-98400879D01*
X114000193Y-98466759D01*
X113986007Y-98514473D01*
X113982293Y-98538027D01*
X113982602Y-98538852D01*
X113995189Y-98558104D01*
X114023744Y-98600463D01*
X114065267Y-98661521D01*
X114116756Y-98736868D01*
X114175211Y-98822096D01*
X114191858Y-98846315D01*
X114251215Y-98934123D01*
X114303447Y-99014238D01*
X114345708Y-99082062D01*
X114375153Y-99132993D01*
X114388937Y-99162431D01*
X114389605Y-99166048D01*
X114378024Y-99185057D01*
X114346024Y-99222714D01*
X114297718Y-99274973D01*
X114237220Y-99337786D01*
X114168644Y-99407106D01*
X114096104Y-99478885D01*
X114023712Y-99549077D01*
X113955584Y-99613635D01*
X113895832Y-99668510D01*
X113848571Y-99709656D01*
X113817913Y-99733026D01*
X113809432Y-99736842D01*
X113789691Y-99727855D01*
X113749274Y-99703616D01*
X113694763Y-99668209D01*
X113652823Y-99639711D01*
X113576829Y-99587418D01*
X113486834Y-99525845D01*
X113396564Y-99464370D01*
X113348032Y-99431469D01*
X113183762Y-99320359D01*
X113045869Y-99394916D01*
X112983049Y-99427578D01*
X112929629Y-99452966D01*
X112893484Y-99467446D01*
X112884284Y-99469460D01*
X112873221Y-99454584D01*
X112851394Y-99412547D01*
X112820434Y-99347227D01*
X112781970Y-99262500D01*
X112737632Y-99162245D01*
X112689047Y-99050339D01*
X112637846Y-98930659D01*
X112585659Y-98807084D01*
X112534113Y-98683491D01*
X112484840Y-98563757D01*
X112439467Y-98451759D01*
X112399625Y-98351377D01*
X112366942Y-98266486D01*
X112343049Y-98200965D01*
X112329574Y-98158690D01*
X112327406Y-98144172D01*
X112344583Y-98125653D01*
X112382190Y-98095590D01*
X112432366Y-98060232D01*
X112436578Y-98057434D01*
X112566264Y-97953625D01*
X112670834Y-97832515D01*
X112749381Y-97697976D01*
X112800999Y-97553882D01*
X112824782Y-97404105D01*
X112819823Y-97252517D01*
X112785217Y-97102992D01*
X112720057Y-96959400D01*
X112700886Y-96927984D01*
X112601174Y-96801125D01*
X112483377Y-96699255D01*
X112351571Y-96622904D01*
X112209833Y-96572602D01*
X112062242Y-96548879D01*
X111912873Y-96552265D01*
X111765803Y-96583288D01*
X111625111Y-96642480D01*
X111494873Y-96730369D01*
X111454586Y-96766042D01*
X111352055Y-96877706D01*
X111277341Y-96995257D01*
X111226090Y-97127020D01*
X111197546Y-97257507D01*
X111190500Y-97404216D01*
X111213996Y-97551653D01*
X111265649Y-97694834D01*
X111343071Y-97828777D01*
X111443875Y-97948498D01*
X111565676Y-98049014D01*
X111581684Y-98059609D01*
X111632398Y-98094306D01*
X111670950Y-98124370D01*
X111689381Y-98143565D01*
X111689649Y-98144172D01*
X111685692Y-98164936D01*
X111670007Y-98212062D01*
X111644222Y-98281673D01*
X111609969Y-98369893D01*
X111568877Y-98472844D01*
X111522576Y-98586650D01*
X111472696Y-98707435D01*
X111420867Y-98831321D01*
X111368719Y-98954432D01*
X111317882Y-99072891D01*
X111269987Y-99182823D01*
X111226662Y-99280349D01*
X111189538Y-99361593D01*
X111160244Y-99422679D01*
X111140412Y-99459730D01*
X111132426Y-99469460D01*
X111108021Y-99461883D01*
X111062358Y-99441560D01*
X111003310Y-99412125D01*
X110970840Y-99394916D01*
X110832947Y-99320359D01*
X110668677Y-99431469D01*
X110584821Y-99488390D01*
X110493013Y-99551030D01*
X110406980Y-99610011D01*
X110363887Y-99639711D01*
X110303277Y-99680410D01*
X110251955Y-99712663D01*
X110216615Y-99732384D01*
X110205137Y-99736554D01*
X110188430Y-99725307D01*
X110151454Y-99693911D01*
X110097795Y-99645624D01*
X110031038Y-99583708D01*
X109954766Y-99511421D01*
X109906527Y-99465008D01*
X109822133Y-99382087D01*
X109749197Y-99307920D01*
X109690669Y-99245680D01*
X109649497Y-99198541D01*
X109628628Y-99169673D01*
X109626626Y-99163815D01*
X109635917Y-99141532D01*
X109661591Y-99096477D01*
X109700800Y-99033211D01*
X109750697Y-98956295D01*
X109808433Y-98870292D01*
X109824851Y-98846315D01*
X109884677Y-98759170D01*
X109938350Y-98680710D01*
X109982870Y-98615345D01*
X110015235Y-98567484D01*
X110032445Y-98541535D01*
X110034107Y-98538852D01*
X110031621Y-98518172D01*
X110018423Y-98472704D01*
X109996814Y-98408444D01*
X109969096Y-98331387D01*
X109937570Y-98247529D01*
X109904537Y-98162866D01*
X109872299Y-98083392D01*
X109843157Y-98015104D01*
X109819412Y-97963997D01*
X109803365Y-97936067D01*
X109802225Y-97934727D01*
X109792412Y-97926745D01*
X109775839Y-97918851D01*
X109748868Y-97910229D01*
X109707861Y-97900062D01*
X109649180Y-97887531D01*
X109569187Y-97871821D01*
X109464245Y-97852113D01*
X109330715Y-97827592D01*
X109301804Y-97822319D01*
X109216118Y-97805764D01*
X109141418Y-97789569D01*
X109084306Y-97775296D01*
X109051383Y-97764508D01*
X109046969Y-97761993D01*
X109039694Y-97739696D01*
X109033781Y-97689869D01*
X109029234Y-97618304D01*
X109026055Y-97530793D01*
X109024251Y-97433128D01*
X109023823Y-97331101D01*
X109024777Y-97230503D01*
X109027116Y-97137127D01*
X109030844Y-97056765D01*
X109035966Y-96995209D01*
X109042484Y-96958250D01*
X109046414Y-96950686D01*
X109068292Y-96943056D01*
X109118109Y-96930642D01*
X109190903Y-96914522D01*
X109281711Y-96895773D01*
X109385569Y-96875471D01*
X109442154Y-96864830D01*
X109549514Y-96844760D01*
X109645254Y-96826580D01*
X109724694Y-96811199D01*
X109783154Y-96799531D01*
X109815955Y-96792488D01*
X109821354Y-96790926D01*
X109830478Y-96773322D01*
X109849765Y-96730918D01*
X109876645Y-96669772D01*
X109908546Y-96595943D01*
X109942898Y-96515489D01*
X109977129Y-96434468D01*
X110008669Y-96358937D01*
X110034946Y-96294955D01*
X110053389Y-96248580D01*
X110061429Y-96225869D01*
X110061578Y-96224876D01*
X110052465Y-96206961D01*
X110026914Y-96165733D01*
X109987612Y-96105291D01*
X109937243Y-96029731D01*
X109878494Y-95943152D01*
X109844342Y-95893421D01*
X109782110Y-95802236D01*
X109726836Y-95719449D01*
X109681218Y-95649249D01*
X109647952Y-95595824D01*
X109629736Y-95563361D01*
X109627105Y-95556083D01*
X109638414Y-95539145D01*
X109669681Y-95502978D01*
X109716910Y-95451635D01*
X109776108Y-95389167D01*
X109843281Y-95319626D01*
X109914434Y-95247065D01*
X109985574Y-95175535D01*
X110052707Y-95109087D01*
X110111839Y-95051774D01*
X110158975Y-95007647D01*
X110190123Y-94980759D01*
X110200543Y-94974342D01*
X110217509Y-94983365D01*
X110258089Y-95008715D01*
X110318337Y-95047810D01*
X110394307Y-95098071D01*
X110482054Y-95156917D01*
X110548244Y-95201748D01*
X110882668Y-95429154D01*
X111161433Y-95314238D01*
X111440197Y-95199322D01*
X111515746Y-94798576D01*
X111591294Y-94397829D01*
X112425415Y-94397829D01*
X112500964Y-94798576D01*
G36*
X110197018Y-100357027D02*
G01*
X110213670Y-100364866D01*
X110271305Y-100407086D01*
X110325805Y-100468700D01*
X110366499Y-100536543D01*
X110378074Y-100567734D01*
X110388634Y-100623449D01*
X110394931Y-100690781D01*
X110395696Y-100718585D01*
X110395789Y-100806316D01*
X109890850Y-100806316D01*
X109901613Y-100852270D01*
X109928033Y-100906620D01*
X109974222Y-100953591D01*
X110029172Y-100983848D01*
X110064189Y-100990131D01*
X110111677Y-100982506D01*
X110168335Y-100963383D01*
X110187582Y-100954584D01*
X110258759Y-100919036D01*
X110319502Y-100965367D01*
X110354552Y-100996703D01*
X110373202Y-101022567D01*
X110374147Y-101030158D01*
X110357485Y-101048556D01*
X110320970Y-101076515D01*
X110287828Y-101098327D01*
X110198393Y-101137537D01*
X110098129Y-101155285D01*
X109998754Y-101150670D01*
X109919539Y-101126551D01*
X109837880Y-101074884D01*
X109779849Y-101006856D01*
X109743546Y-100918843D01*
X109727072Y-100807216D01*
X109725611Y-100756138D01*
X109731457Y-100639091D01*
X109732175Y-100635686D01*
X109899489Y-100635686D01*
X109904097Y-100646662D01*
X109923036Y-100652715D01*
X109962098Y-100655310D01*
X110027077Y-100655910D01*
X110052097Y-100655921D01*
X110128221Y-100655014D01*
X110176496Y-100651720D01*
X110202460Y-100645181D01*
X110211648Y-100634537D01*
X110211973Y-100631119D01*
X110201487Y-100603956D01*
X110175242Y-100565903D01*
X110163959Y-100552579D01*
X110122072Y-100514896D01*
X110078409Y-100500080D01*
X110054885Y-100498842D01*
X109991243Y-100514329D01*
X109937873Y-100555930D01*
X109904019Y-100616353D01*
X109903419Y-100618322D01*
X109899489Y-100635686D01*
X109732175Y-100635686D01*
X109750899Y-100546928D01*
X109785922Y-100473190D01*
X109828756Y-100420848D01*
X109907948Y-100364092D01*
X110001040Y-100333762D01*
X110100055Y-100331021D01*
X110197018Y-100357027D01*
X110197018Y-100357027D01*
G37*
X110197018Y-100357027D02*
X110213670Y-100364866D01*
X110271305Y-100407086D01*
X110325805Y-100468700D01*
X110366499Y-100536543D01*
X110378074Y-100567734D01*
X110388634Y-100623449D01*
X110394931Y-100690781D01*
X110395696Y-100718585D01*
X110395789Y-100806316D01*
X109890850Y-100806316D01*
X109901613Y-100852270D01*
X109928033Y-100906620D01*
X109974222Y-100953591D01*
X110029172Y-100983848D01*
X110064189Y-100990131D01*
X110111677Y-100982506D01*
X110168335Y-100963383D01*
X110187582Y-100954584D01*
X110258759Y-100919036D01*
X110319502Y-100965367D01*
X110354552Y-100996703D01*
X110373202Y-101022567D01*
X110374147Y-101030158D01*
X110357485Y-101048556D01*
X110320970Y-101076515D01*
X110287828Y-101098327D01*
X110198393Y-101137537D01*
X110098129Y-101155285D01*
X109998754Y-101150670D01*
X109919539Y-101126551D01*
X109837880Y-101074884D01*
X109779849Y-101006856D01*
X109743546Y-100918843D01*
X109727072Y-100807216D01*
X109725611Y-100756138D01*
X109731457Y-100639091D01*
X109732175Y-100635686D01*
X109899489Y-100635686D01*
X109904097Y-100646662D01*
X109923036Y-100652715D01*
X109962098Y-100655310D01*
X110027077Y-100655910D01*
X110052097Y-100655921D01*
X110128221Y-100655014D01*
X110176496Y-100651720D01*
X110202460Y-100645181D01*
X110211648Y-100634537D01*
X110211973Y-100631119D01*
X110201487Y-100603956D01*
X110175242Y-100565903D01*
X110163959Y-100552579D01*
X110122072Y-100514896D01*
X110078409Y-100500080D01*
X110054885Y-100498842D01*
X109991243Y-100514329D01*
X109937873Y-100555930D01*
X109904019Y-100616353D01*
X109903419Y-100618322D01*
X109899489Y-100635686D01*
X109732175Y-100635686D01*
X109750899Y-100546928D01*
X109785922Y-100473190D01*
X109828756Y-100420848D01*
X109907948Y-100364092D01*
X110001040Y-100333762D01*
X110100055Y-100331021D01*
X110197018Y-100357027D01*
G36*
X110160457Y-101598184D02*
G01*
X110239070Y-101619160D01*
X110298916Y-101657180D01*
X110341147Y-101706978D01*
X110354275Y-101728230D01*
X110363968Y-101750492D01*
X110370744Y-101778970D01*
X110375123Y-101818871D01*
X110377624Y-101875401D01*
X110378768Y-101953767D01*
X110379072Y-102059176D01*
X110379078Y-102087142D01*
X110379078Y-102410526D01*
X110298868Y-102410526D01*
X110247706Y-102406943D01*
X110209877Y-102397866D01*
X110200399Y-102392268D01*
X110174488Y-102382606D01*
X110148024Y-102392268D01*
X110104452Y-102404330D01*
X110041160Y-102409185D01*
X109971010Y-102407078D01*
X109906860Y-102398256D01*
X109869407Y-102386937D01*
X109796933Y-102340412D01*
X109751640Y-102275846D01*
X109731278Y-102190000D01*
X109731088Y-102187796D01*
X109732875Y-102149713D01*
X109894473Y-102149713D01*
X109908601Y-102193030D01*
X109931612Y-102217408D01*
X109977804Y-102235845D01*
X110038775Y-102243205D01*
X110100949Y-102239583D01*
X110150751Y-102225074D01*
X110164703Y-102215765D01*
X110189085Y-102172753D01*
X110195263Y-102123857D01*
X110195263Y-102059605D01*
X110102818Y-102059605D01*
X110014995Y-102066366D01*
X109948418Y-102085520D01*
X109907002Y-102115376D01*
X109894473Y-102149713D01*
X109732875Y-102149713D01*
X109735490Y-102094004D01*
X109766424Y-102019847D01*
X109824581Y-101963767D01*
X109832620Y-101958665D01*
X109867163Y-101942055D01*
X109909918Y-101931996D01*
X109969686Y-101927107D01*
X110040690Y-101925983D01*
X110195263Y-101925921D01*
X110195263Y-101861125D01*
X110188706Y-101810850D01*
X110171975Y-101777169D01*
X110170016Y-101775376D01*
X110132783Y-101760642D01*
X110076580Y-101754931D01*
X110014467Y-101757737D01*
X109959510Y-101768556D01*
X109926899Y-101784782D01*
X109909228Y-101797780D01*
X109890569Y-101800262D01*
X109864819Y-101789613D01*
X109825873Y-101763218D01*
X109767630Y-101718465D01*
X109762284Y-101714273D01*
X109765023Y-101698760D01*
X109787876Y-101672960D01*
X109822609Y-101644289D01*
X109860990Y-101620166D01*
X109873048Y-101614470D01*
X109917034Y-101603103D01*
X109981487Y-101594995D01*
X110053497Y-101591743D01*
X110056864Y-101591736D01*
X110160457Y-101598184D01*
X110160457Y-101598184D01*
G37*
X110160457Y-101598184D02*
X110239070Y-101619160D01*
X110298916Y-101657180D01*
X110341147Y-101706978D01*
X110354275Y-101728230D01*
X110363968Y-101750492D01*
X110370744Y-101778970D01*
X110375123Y-101818871D01*
X110377624Y-101875401D01*
X110378768Y-101953767D01*
X110379072Y-102059176D01*
X110379078Y-102087142D01*
X110379078Y-102410526D01*
X110298868Y-102410526D01*
X110247706Y-102406943D01*
X110209877Y-102397866D01*
X110200399Y-102392268D01*
X110174488Y-102382606D01*
X110148024Y-102392268D01*
X110104452Y-102404330D01*
X110041160Y-102409185D01*
X109971010Y-102407078D01*
X109906860Y-102398256D01*
X109869407Y-102386937D01*
X109796933Y-102340412D01*
X109751640Y-102275846D01*
X109731278Y-102190000D01*
X109731088Y-102187796D01*
X109732875Y-102149713D01*
X109894473Y-102149713D01*
X109908601Y-102193030D01*
X109931612Y-102217408D01*
X109977804Y-102235845D01*
X110038775Y-102243205D01*
X110100949Y-102239583D01*
X110150751Y-102225074D01*
X110164703Y-102215765D01*
X110189085Y-102172753D01*
X110195263Y-102123857D01*
X110195263Y-102059605D01*
X110102818Y-102059605D01*
X110014995Y-102066366D01*
X109948418Y-102085520D01*
X109907002Y-102115376D01*
X109894473Y-102149713D01*
X109732875Y-102149713D01*
X109735490Y-102094004D01*
X109766424Y-102019847D01*
X109824581Y-101963767D01*
X109832620Y-101958665D01*
X109867163Y-101942055D01*
X109909918Y-101931996D01*
X109969686Y-101927107D01*
X110040690Y-101925983D01*
X110195263Y-101925921D01*
X110195263Y-101861125D01*
X110188706Y-101810850D01*
X110171975Y-101777169D01*
X110170016Y-101775376D01*
X110132783Y-101760642D01*
X110076580Y-101754931D01*
X110014467Y-101757737D01*
X109959510Y-101768556D01*
X109926899Y-101784782D01*
X109909228Y-101797780D01*
X109890569Y-101800262D01*
X109864819Y-101789613D01*
X109825873Y-101763218D01*
X109767630Y-101718465D01*
X109762284Y-101714273D01*
X109765023Y-101698760D01*
X109787876Y-101672960D01*
X109822609Y-101644289D01*
X109860990Y-101620166D01*
X109873048Y-101614470D01*
X109917034Y-101603103D01*
X109981487Y-101594995D01*
X110053497Y-101591743D01*
X110056864Y-101591736D01*
X110160457Y-101598184D01*
G36*
X110679881Y-101593486D02*
G01*
X110704888Y-101600982D01*
X110712950Y-101617451D01*
X110713289Y-101624886D01*
X110714736Y-101645594D01*
X110724698Y-101648845D01*
X110751612Y-101634648D01*
X110767598Y-101624948D01*
X110818033Y-101604175D01*
X110878272Y-101593904D01*
X110941434Y-101593114D01*
X111000637Y-101600786D01*
X111049002Y-101615898D01*
X111079646Y-101637432D01*
X111085689Y-101664366D01*
X111082639Y-101671660D01*
X111060406Y-101701937D01*
X111025930Y-101739175D01*
X111019694Y-101745195D01*
X110986833Y-101772875D01*
X110958480Y-101781818D01*
X110918827Y-101775576D01*
X110902942Y-101771429D01*
X110853509Y-101761467D01*
X110818752Y-101765947D01*
X110789400Y-101781746D01*
X110762513Y-101802949D01*
X110742710Y-101829614D01*
X110728948Y-101866827D01*
X110720184Y-101919673D01*
X110715374Y-101993237D01*
X110713474Y-102092605D01*
X110713289Y-102152601D01*
X110713289Y-102410526D01*
X110546184Y-102410526D01*
X110546184Y-101591710D01*
X110629736Y-101591710D01*
X110679881Y-101593486D01*
X110679881Y-101593486D01*
G37*
X110679881Y-101593486D02*
X110704888Y-101600982D01*
X110712950Y-101617451D01*
X110713289Y-101624886D01*
X110714736Y-101645594D01*
X110724698Y-101648845D01*
X110751612Y-101634648D01*
X110767598Y-101624948D01*
X110818033Y-101604175D01*
X110878272Y-101593904D01*
X110941434Y-101593114D01*
X111000637Y-101600786D01*
X111049002Y-101615898D01*
X111079646Y-101637432D01*
X111085689Y-101664366D01*
X111082639Y-101671660D01*
X111060406Y-101701937D01*
X111025930Y-101739175D01*
X111019694Y-101745195D01*
X110986833Y-101772875D01*
X110958480Y-101781818D01*
X110918827Y-101775576D01*
X110902942Y-101771429D01*
X110853509Y-101761467D01*
X110818752Y-101765947D01*
X110789400Y-101781746D01*
X110762513Y-101802949D01*
X110742710Y-101829614D01*
X110728948Y-101866827D01*
X110720184Y-101919673D01*
X110715374Y-101993237D01*
X110713474Y-102092605D01*
X110713289Y-102152601D01*
X110713289Y-102410526D01*
X110546184Y-102410526D01*
X110546184Y-101591710D01*
X110629736Y-101591710D01*
X110679881Y-101593486D01*
G36*
X115558784Y-100335554D02*
G01*
X115601574Y-100345949D01*
X115683609Y-100384013D01*
X115753757Y-100442149D01*
X115802305Y-100511852D01*
X115808975Y-100527502D01*
X115818124Y-100568496D01*
X115824529Y-100629138D01*
X115826710Y-100690430D01*
X115826710Y-100806316D01*
X115584407Y-100806316D01*
X115484471Y-100806693D01*
X115414069Y-100808987D01*
X115369313Y-100814938D01*
X115346315Y-100826285D01*
X115341189Y-100844771D01*
X115350048Y-100872136D01*
X115365917Y-100904155D01*
X115410184Y-100957592D01*
X115471699Y-100984215D01*
X115546885Y-100983347D01*
X115632053Y-100954371D01*
X115705659Y-100918611D01*
X115766734Y-100966904D01*
X115827810Y-101015197D01*
X115770351Y-101068285D01*
X115693641Y-101118445D01*
X115599302Y-101148688D01*
X115497827Y-101157151D01*
X115399711Y-101141974D01*
X115383881Y-101136824D01*
X115297647Y-101091791D01*
X115233501Y-101024652D01*
X115190091Y-100933405D01*
X115166064Y-100816044D01*
X115165784Y-100813529D01*
X115163633Y-100685627D01*
X115172329Y-100639997D01*
X115342105Y-100639997D01*
X115357697Y-100647013D01*
X115400029Y-100652388D01*
X115462434Y-100655457D01*
X115501981Y-100655921D01*
X115575728Y-100655630D01*
X115621840Y-100653783D01*
X115646100Y-100648912D01*
X115654294Y-100639555D01*
X115652206Y-100624245D01*
X115650455Y-100618322D01*
X115620560Y-100562668D01*
X115573542Y-100517815D01*
X115532049Y-100498105D01*
X115476926Y-100499295D01*
X115421068Y-100523875D01*
X115374212Y-100564570D01*
X115346094Y-100614108D01*
X115342105Y-100639997D01*
X115172329Y-100639997D01*
X115185074Y-100573133D01*
X115227611Y-100478727D01*
X115288747Y-100405088D01*
X115365985Y-100354893D01*
X115456830Y-100330822D01*
X115558784Y-100335554D01*
X115558784Y-100335554D01*
G37*
X115558784Y-100335554D02*
X115601574Y-100345949D01*
X115683609Y-100384013D01*
X115753757Y-100442149D01*
X115802305Y-100511852D01*
X115808975Y-100527502D01*
X115818124Y-100568496D01*
X115824529Y-100629138D01*
X115826710Y-100690430D01*
X115826710Y-100806316D01*
X115584407Y-100806316D01*
X115484471Y-100806693D01*
X115414069Y-100808987D01*
X115369313Y-100814938D01*
X115346315Y-100826285D01*
X115341189Y-100844771D01*
X115350048Y-100872136D01*
X115365917Y-100904155D01*
X115410184Y-100957592D01*
X115471699Y-100984215D01*
X115546885Y-100983347D01*
X115632053Y-100954371D01*
X115705659Y-100918611D01*
X115766734Y-100966904D01*
X115827810Y-101015197D01*
X115770351Y-101068285D01*
X115693641Y-101118445D01*
X115599302Y-101148688D01*
X115497827Y-101157151D01*
X115399711Y-101141974D01*
X115383881Y-101136824D01*
X115297647Y-101091791D01*
X115233501Y-101024652D01*
X115190091Y-100933405D01*
X115166064Y-100816044D01*
X115165784Y-100813529D01*
X115163633Y-100685627D01*
X115172329Y-100639997D01*
X115342105Y-100639997D01*
X115357697Y-100647013D01*
X115400029Y-100652388D01*
X115462434Y-100655457D01*
X115501981Y-100655921D01*
X115575728Y-100655630D01*
X115621840Y-100653783D01*
X115646100Y-100648912D01*
X115654294Y-100639555D01*
X115652206Y-100624245D01*
X115650455Y-100618322D01*
X115620560Y-100562668D01*
X115573542Y-100517815D01*
X115532049Y-100498105D01*
X115476926Y-100499295D01*
X115421068Y-100523875D01*
X115374212Y-100564570D01*
X115346094Y-100614108D01*
X115342105Y-100639997D01*
X115172329Y-100639997D01*
X115185074Y-100573133D01*
X115227611Y-100478727D01*
X115288747Y-100405088D01*
X115365985Y-100354893D01*
X115456830Y-100330822D01*
X115558784Y-100335554D01*
G36*
X114391388Y-100337645D02*
G01*
X114448865Y-100355206D01*
X114485872Y-100377395D01*
X114497927Y-100394942D01*
X114494609Y-100415742D01*
X114473079Y-100448419D01*
X114454874Y-100471562D01*
X114417344Y-100513402D01*
X114389148Y-100531005D01*
X114365111Y-100529856D01*
X114293808Y-100511710D01*
X114241442Y-100512534D01*
X114198918Y-100533098D01*
X114184642Y-100545134D01*
X114138947Y-100587483D01*
X114138947Y-101140526D01*
X113955131Y-101140526D01*
X113955131Y-100338421D01*
X114047039Y-100338421D01*
X114102219Y-100340603D01*
X114130688Y-100348351D01*
X114138943Y-100363468D01*
X114138947Y-100363916D01*
X114142845Y-100379749D01*
X114160474Y-100377684D01*
X114184901Y-100366261D01*
X114235350Y-100345005D01*
X114276316Y-100332216D01*
X114329028Y-100328938D01*
X114391388Y-100337645D01*
X114391388Y-100337645D01*
G37*
X114391388Y-100337645D02*
X114448865Y-100355206D01*
X114485872Y-100377395D01*
X114497927Y-100394942D01*
X114494609Y-100415742D01*
X114473079Y-100448419D01*
X114454874Y-100471562D01*
X114417344Y-100513402D01*
X114389148Y-100531005D01*
X114365111Y-100529856D01*
X114293808Y-100511710D01*
X114241442Y-100512534D01*
X114198918Y-100533098D01*
X114184642Y-100545134D01*
X114138947Y-100587483D01*
X114138947Y-101140526D01*
X113955131Y-101140526D01*
X113955131Y-100338421D01*
X114047039Y-100338421D01*
X114102219Y-100340603D01*
X114130688Y-100348351D01*
X114138943Y-100363468D01*
X114138947Y-100363916D01*
X114142845Y-100379749D01*
X114160474Y-100377684D01*
X114184901Y-100366261D01*
X114235350Y-100345005D01*
X114276316Y-100332216D01*
X114329028Y-100328938D01*
X114391388Y-100337645D01*
G36*
X113320131Y-100598533D02*
G01*
X113321710Y-100721089D01*
X113327481Y-100814179D01*
X113338991Y-100881651D01*
X113357790Y-100927355D01*
X113385426Y-100955139D01*
X113423448Y-100968854D01*
X113470526Y-100972358D01*
X113519832Y-100968432D01*
X113557283Y-100954089D01*
X113584428Y-100925478D01*
X113602815Y-100878751D01*
X113613993Y-100810058D01*
X113619511Y-100715550D01*
X113620921Y-100598533D01*
X113620921Y-100338421D01*
X113804736Y-100338421D01*
X113804736Y-101140526D01*
X113712828Y-101140526D01*
X113657422Y-101138281D01*
X113628891Y-101130396D01*
X113620921Y-101115428D01*
X113616120Y-101102097D01*
X113597014Y-101104917D01*
X113558504Y-101123783D01*
X113470239Y-101152887D01*
X113376623Y-101150825D01*
X113286921Y-101119221D01*
X113244204Y-101094257D01*
X113211621Y-101067226D01*
X113187817Y-101033405D01*
X113171439Y-100988068D01*
X113161131Y-100926489D01*
X113155541Y-100843943D01*
X113153312Y-100735705D01*
X113153026Y-100652004D01*
X113153026Y-100338421D01*
X113320131Y-100338421D01*
X113320131Y-100598533D01*
X113320131Y-100598533D01*
G37*
X113320131Y-100598533D02*
X113321710Y-100721089D01*
X113327481Y-100814179D01*
X113338991Y-100881651D01*
X113357790Y-100927355D01*
X113385426Y-100955139D01*
X113423448Y-100968854D01*
X113470526Y-100972358D01*
X113519832Y-100968432D01*
X113557283Y-100954089D01*
X113584428Y-100925478D01*
X113602815Y-100878751D01*
X113613993Y-100810058D01*
X113619511Y-100715550D01*
X113620921Y-100598533D01*
X113620921Y-100338421D01*
X113804736Y-100338421D01*
X113804736Y-101140526D01*
X113712828Y-101140526D01*
X113657422Y-101138281D01*
X113628891Y-101130396D01*
X113620921Y-101115428D01*
X113616120Y-101102097D01*
X113597014Y-101104917D01*
X113558504Y-101123783D01*
X113470239Y-101152887D01*
X113376623Y-101150825D01*
X113286921Y-101119221D01*
X113244204Y-101094257D01*
X113211621Y-101067226D01*
X113187817Y-101033405D01*
X113171439Y-100988068D01*
X113161131Y-100926489D01*
X113155541Y-100843943D01*
X113153312Y-100735705D01*
X113153026Y-100652004D01*
X113153026Y-100338421D01*
X113320131Y-100338421D01*
X113320131Y-100598533D01*
G36*
X108626784Y-100347104D02*
G01*
X108714205Y-100385754D01*
X108780570Y-100450290D01*
X108825976Y-100540812D01*
X108850518Y-100657418D01*
X108852277Y-100675624D01*
X108853656Y-100803984D01*
X108835784Y-100916496D01*
X108799750Y-101007688D01*
X108780455Y-101037022D01*
X108713245Y-101099106D01*
X108627650Y-101139316D01*
X108531890Y-101156003D01*
X108434187Y-101147517D01*
X108359917Y-101121380D01*
X108296047Y-101077335D01*
X108243846Y-101019587D01*
X108242943Y-101018236D01*
X108221744Y-100982593D01*
X108207967Y-100946752D01*
X108199624Y-100901519D01*
X108194727Y-100837701D01*
X108192569Y-100785368D01*
X108191671Y-100737910D01*
X108358743Y-100737910D01*
X108360376Y-100785154D01*
X108366304Y-100848046D01*
X108376761Y-100888407D01*
X108395619Y-100917122D01*
X108413281Y-100933896D01*
X108475894Y-100969016D01*
X108541408Y-100973710D01*
X108602421Y-100948440D01*
X108632928Y-100920124D01*
X108654911Y-100891589D01*
X108667769Y-100864284D01*
X108673412Y-100828750D01*
X108673751Y-100775524D01*
X108672012Y-100726506D01*
X108668271Y-100656482D01*
X108662341Y-100611064D01*
X108651653Y-100581440D01*
X108633639Y-100558797D01*
X108619363Y-100545855D01*
X108559651Y-100511860D01*
X108495234Y-100510165D01*
X108441219Y-100530301D01*
X108395140Y-100572352D01*
X108367689Y-100641428D01*
X108358743Y-100737910D01*
X108191671Y-100737910D01*
X108190599Y-100681299D01*
X108193964Y-100603468D01*
X108204045Y-100544930D01*
X108222226Y-100498737D01*
X108249890Y-100457942D01*
X108260146Y-100445828D01*
X108324278Y-100385474D01*
X108393066Y-100350220D01*
X108477189Y-100335450D01*
X108518209Y-100334243D01*
X108626784Y-100347104D01*
X108626784Y-100347104D01*
G37*
X108626784Y-100347104D02*
X108714205Y-100385754D01*
X108780570Y-100450290D01*
X108825976Y-100540812D01*
X108850518Y-100657418D01*
X108852277Y-100675624D01*
X108853656Y-100803984D01*
X108835784Y-100916496D01*
X108799750Y-101007688D01*
X108780455Y-101037022D01*
X108713245Y-101099106D01*
X108627650Y-101139316D01*
X108531890Y-101156003D01*
X108434187Y-101147517D01*
X108359917Y-101121380D01*
X108296047Y-101077335D01*
X108243846Y-101019587D01*
X108242943Y-101018236D01*
X108221744Y-100982593D01*
X108207967Y-100946752D01*
X108199624Y-100901519D01*
X108194727Y-100837701D01*
X108192569Y-100785368D01*
X108191671Y-100737910D01*
X108358743Y-100737910D01*
X108360376Y-100785154D01*
X108366304Y-100848046D01*
X108376761Y-100888407D01*
X108395619Y-100917122D01*
X108413281Y-100933896D01*
X108475894Y-100969016D01*
X108541408Y-100973710D01*
X108602421Y-100948440D01*
X108632928Y-100920124D01*
X108654911Y-100891589D01*
X108667769Y-100864284D01*
X108673412Y-100828750D01*
X108673751Y-100775524D01*
X108672012Y-100726506D01*
X108668271Y-100656482D01*
X108662341Y-100611064D01*
X108651653Y-100581440D01*
X108633639Y-100558797D01*
X108619363Y-100545855D01*
X108559651Y-100511860D01*
X108495234Y-100510165D01*
X108441219Y-100530301D01*
X108395140Y-100572352D01*
X108367689Y-100641428D01*
X108358743Y-100737910D01*
X108191671Y-100737910D01*
X108190599Y-100681299D01*
X108193964Y-100603468D01*
X108204045Y-100544930D01*
X108222226Y-100498737D01*
X108249890Y-100457942D01*
X108260146Y-100445828D01*
X108324278Y-100385474D01*
X108393066Y-100350220D01*
X108477189Y-100335450D01*
X108518209Y-100334243D01*
X108626784Y-100347104D01*
G36*
X112811669Y-100348310D02*
G01*
X112896192Y-100394340D01*
X112962321Y-100467006D01*
X112993478Y-100526106D01*
X113006855Y-100578305D01*
X113015522Y-100652719D01*
X113019237Y-100738442D01*
X113017754Y-100824569D01*
X113010831Y-100900193D01*
X113002745Y-100940584D01*
X112975465Y-100995840D01*
X112928220Y-101054530D01*
X112871282Y-101105852D01*
X112814924Y-101139005D01*
X112813550Y-101139531D01*
X112743616Y-101154018D01*
X112660737Y-101154377D01*
X112581977Y-101141188D01*
X112551566Y-101130617D01*
X112473239Y-101086201D01*
X112417143Y-101028007D01*
X112380286Y-100950965D01*
X112359680Y-100850001D01*
X112355018Y-100797116D01*
X112355613Y-100730663D01*
X112534736Y-100730663D01*
X112540770Y-100827630D01*
X112558138Y-100901523D01*
X112585740Y-100948736D01*
X112605404Y-100962237D01*
X112655787Y-100971651D01*
X112715673Y-100968864D01*
X112767449Y-100955316D01*
X112781027Y-100947862D01*
X112816849Y-100904451D01*
X112840493Y-100838014D01*
X112850558Y-100757161D01*
X112845642Y-100670502D01*
X112834655Y-100618349D01*
X112803109Y-100557951D01*
X112753311Y-100520197D01*
X112693337Y-100507143D01*
X112631264Y-100520849D01*
X112583582Y-100554372D01*
X112558525Y-100582031D01*
X112543900Y-100609294D01*
X112536929Y-100646190D01*
X112534833Y-100702750D01*
X112534736Y-100730663D01*
X112355613Y-100730663D01*
X112356282Y-100655994D01*
X112379265Y-100540271D01*
X112423972Y-100449941D01*
X112490405Y-100385000D01*
X112578565Y-100345445D01*
X112597495Y-100340858D01*
X112711266Y-100330090D01*
X112811669Y-100348310D01*
X112811669Y-100348310D01*
G37*
X112811669Y-100348310D02*
X112896192Y-100394340D01*
X112962321Y-100467006D01*
X112993478Y-100526106D01*
X113006855Y-100578305D01*
X113015522Y-100652719D01*
X113019237Y-100738442D01*
X113017754Y-100824569D01*
X113010831Y-100900193D01*
X113002745Y-100940584D01*
X112975465Y-100995840D01*
X112928220Y-101054530D01*
X112871282Y-101105852D01*
X112814924Y-101139005D01*
X112813550Y-101139531D01*
X112743616Y-101154018D01*
X112660737Y-101154377D01*
X112581977Y-101141188D01*
X112551566Y-101130617D01*
X112473239Y-101086201D01*
X112417143Y-101028007D01*
X112380286Y-100950965D01*
X112359680Y-100850001D01*
X112355018Y-100797116D01*
X112355613Y-100730663D01*
X112534736Y-100730663D01*
X112540770Y-100827630D01*
X112558138Y-100901523D01*
X112585740Y-100948736D01*
X112605404Y-100962237D01*
X112655787Y-100971651D01*
X112715673Y-100968864D01*
X112767449Y-100955316D01*
X112781027Y-100947862D01*
X112816849Y-100904451D01*
X112840493Y-100838014D01*
X112850558Y-100757161D01*
X112845642Y-100670502D01*
X112834655Y-100618349D01*
X112803109Y-100557951D01*
X112753311Y-100520197D01*
X112693337Y-100507143D01*
X112631264Y-100520849D01*
X112583582Y-100554372D01*
X112558525Y-100582031D01*
X112543900Y-100609294D01*
X112536929Y-100646190D01*
X112534833Y-100702750D01*
X112534736Y-100730663D01*
X112355613Y-100730663D01*
X112356282Y-100655994D01*
X112379265Y-100540271D01*
X112423972Y-100449941D01*
X112490405Y-100385000D01*
X112578565Y-100345445D01*
X112597495Y-100340858D01*
X112711266Y-100330090D01*
X112811669Y-100348310D01*
G36*
X113379992Y-101596673D02*
G01*
X113450427Y-101613780D01*
X113470787Y-101622844D01*
X113510253Y-101646583D01*
X113540541Y-101673321D01*
X113562952Y-101707699D01*
X113578786Y-101754360D01*
X113589343Y-101817946D01*
X113595924Y-101903099D01*
X113599828Y-102014462D01*
X113601310Y-102088849D01*
X113606765Y-102410526D01*
X113513580Y-102410526D01*
X113457047Y-102408156D01*
X113427922Y-102400055D01*
X113420394Y-102386451D01*
X113416420Y-102371741D01*
X113398652Y-102374554D01*
X113374440Y-102386348D01*
X113313828Y-102404427D01*
X113235929Y-102409299D01*
X113153995Y-102401330D01*
X113081281Y-102380889D01*
X113074759Y-102378051D01*
X113008302Y-102331365D01*
X112964491Y-102266464D01*
X112944332Y-102190600D01*
X112945872Y-102163344D01*
X113110345Y-102163344D01*
X113124837Y-102200024D01*
X113167805Y-102226309D01*
X113237129Y-102240417D01*
X113274177Y-102242290D01*
X113335919Y-102237494D01*
X113376960Y-102218858D01*
X113386973Y-102210000D01*
X113414100Y-102161806D01*
X113420394Y-102118092D01*
X113420394Y-102059605D01*
X113338930Y-102059605D01*
X113244234Y-102064432D01*
X113177813Y-102079613D01*
X113135846Y-102106200D01*
X113126449Y-102118052D01*
X113110345Y-102163344D01*
X112945872Y-102163344D01*
X112948829Y-102111026D01*
X112978985Y-102034995D01*
X113020131Y-101983612D01*
X113045052Y-101961397D01*
X113069448Y-101946798D01*
X113101191Y-101937897D01*
X113148152Y-101932775D01*
X113218204Y-101929515D01*
X113245990Y-101928577D01*
X113420394Y-101922879D01*
X113420138Y-101870091D01*
X113413384Y-101814603D01*
X113388964Y-101781052D01*
X113339630Y-101759618D01*
X113338306Y-101759236D01*
X113268360Y-101750808D01*
X113199914Y-101761816D01*
X113149047Y-101788585D01*
X113128637Y-101801803D01*
X113106654Y-101799974D01*
X113072826Y-101780824D01*
X113052961Y-101767308D01*
X113014106Y-101738432D01*
X112990038Y-101716786D01*
X112986176Y-101710589D01*
X113002079Y-101678519D01*
X113049065Y-101640219D01*
X113069473Y-101627297D01*
X113128143Y-101605041D01*
X113207212Y-101592432D01*
X113295041Y-101589600D01*
X113379992Y-101596673D01*
X113379992Y-101596673D01*
G37*
X113379992Y-101596673D02*
X113450427Y-101613780D01*
X113470787Y-101622844D01*
X113510253Y-101646583D01*
X113540541Y-101673321D01*
X113562952Y-101707699D01*
X113578786Y-101754360D01*
X113589343Y-101817946D01*
X113595924Y-101903099D01*
X113599828Y-102014462D01*
X113601310Y-102088849D01*
X113606765Y-102410526D01*
X113513580Y-102410526D01*
X113457047Y-102408156D01*
X113427922Y-102400055D01*
X113420394Y-102386451D01*
X113416420Y-102371741D01*
X113398652Y-102374554D01*
X113374440Y-102386348D01*
X113313828Y-102404427D01*
X113235929Y-102409299D01*
X113153995Y-102401330D01*
X113081281Y-102380889D01*
X113074759Y-102378051D01*
X113008302Y-102331365D01*
X112964491Y-102266464D01*
X112944332Y-102190600D01*
X112945872Y-102163344D01*
X113110345Y-102163344D01*
X113124837Y-102200024D01*
X113167805Y-102226309D01*
X113237129Y-102240417D01*
X113274177Y-102242290D01*
X113335919Y-102237494D01*
X113376960Y-102218858D01*
X113386973Y-102210000D01*
X113414100Y-102161806D01*
X113420394Y-102118092D01*
X113420394Y-102059605D01*
X113338930Y-102059605D01*
X113244234Y-102064432D01*
X113177813Y-102079613D01*
X113135846Y-102106200D01*
X113126449Y-102118052D01*
X113110345Y-102163344D01*
X112945872Y-102163344D01*
X112948829Y-102111026D01*
X112978985Y-102034995D01*
X113020131Y-101983612D01*
X113045052Y-101961397D01*
X113069448Y-101946798D01*
X113101191Y-101937897D01*
X113148152Y-101932775D01*
X113218204Y-101929515D01*
X113245990Y-101928577D01*
X113420394Y-101922879D01*
X113420138Y-101870091D01*
X113413384Y-101814603D01*
X113388964Y-101781052D01*
X113339630Y-101759618D01*
X113338306Y-101759236D01*
X113268360Y-101750808D01*
X113199914Y-101761816D01*
X113149047Y-101788585D01*
X113128637Y-101801803D01*
X113106654Y-101799974D01*
X113072826Y-101780824D01*
X113052961Y-101767308D01*
X113014106Y-101738432D01*
X112990038Y-101716786D01*
X112986176Y-101710589D01*
X113002079Y-101678519D01*
X113049065Y-101640219D01*
X113069473Y-101627297D01*
X113128143Y-101605041D01*
X113207212Y-101592432D01*
X113295041Y-101589600D01*
X113379992Y-101596673D01*
G36*
X114173167Y-101591447D02*
G01*
X114237408Y-101604112D01*
X114273980Y-101622864D01*
X114312453Y-101654017D01*
X114257717Y-101723127D01*
X114223969Y-101764979D01*
X114201053Y-101785398D01*
X114178279Y-101788517D01*
X114144956Y-101778472D01*
X114129314Y-101772789D01*
X114065542Y-101764404D01*
X114007140Y-101782378D01*
X113964264Y-101822982D01*
X113957299Y-101835929D01*
X113949713Y-101870224D01*
X113943859Y-101933427D01*
X113940011Y-102021060D01*
X113938443Y-102128640D01*
X113938421Y-102143944D01*
X113938421Y-102410526D01*
X113754605Y-102410526D01*
X113754605Y-101591710D01*
X113846513Y-101591710D01*
X113899507Y-101593094D01*
X113927115Y-101599252D01*
X113937324Y-101613194D01*
X113938421Y-101626344D01*
X113938421Y-101660978D01*
X113982450Y-101626344D01*
X114032937Y-101602716D01*
X114100760Y-101591033D01*
X114173167Y-101591447D01*
X114173167Y-101591447D01*
G37*
X114173167Y-101591447D02*
X114237408Y-101604112D01*
X114273980Y-101622864D01*
X114312453Y-101654017D01*
X114257717Y-101723127D01*
X114223969Y-101764979D01*
X114201053Y-101785398D01*
X114178279Y-101788517D01*
X114144956Y-101778472D01*
X114129314Y-101772789D01*
X114065542Y-101764404D01*
X114007140Y-101782378D01*
X113964264Y-101822982D01*
X113957299Y-101835929D01*
X113949713Y-101870224D01*
X113943859Y-101933427D01*
X113940011Y-102021060D01*
X113938443Y-102128640D01*
X113938421Y-102143944D01*
X113938421Y-102410526D01*
X113754605Y-102410526D01*
X113754605Y-101591710D01*
X113846513Y-101591710D01*
X113899507Y-101593094D01*
X113927115Y-101599252D01*
X113937324Y-101613194D01*
X113938421Y-101626344D01*
X113938421Y-101660978D01*
X113982450Y-101626344D01*
X114032937Y-101602716D01*
X114100760Y-101591033D01*
X114173167Y-101591447D01*
G36*
X109463360Y-100352468D02*
G01*
X109498592Y-100369874D01*
X109542040Y-100400206D01*
X109573706Y-100433283D01*
X109595394Y-100474817D01*
X109608903Y-100530522D01*
X109616038Y-100606111D01*
X109618600Y-100707296D01*
X109618750Y-100750797D01*
X109618312Y-100846135D01*
X109616496Y-100914271D01*
X109612545Y-100961418D01*
X109605702Y-100993790D01*
X109595211Y-101017600D01*
X109584296Y-101033843D01*
X109514619Y-101102952D01*
X109432566Y-101144521D01*
X109344050Y-101157023D01*
X109254981Y-101138934D01*
X109226763Y-101126142D01*
X109159210Y-101090931D01*
X109159210Y-101642700D01*
X109208512Y-101617205D01*
X109273473Y-101597480D01*
X109353320Y-101592427D01*
X109433052Y-101601756D01*
X109493265Y-101622714D01*
X109543208Y-101662627D01*
X109585881Y-101719741D01*
X109589090Y-101725605D01*
X109602622Y-101753227D01*
X109612505Y-101781068D01*
X109619309Y-101814794D01*
X109623601Y-101860071D01*
X109625951Y-101922562D01*
X109626928Y-102007935D01*
X109627105Y-102104010D01*
X109627105Y-102410526D01*
X109443289Y-102410526D01*
X109443289Y-101845339D01*
X109391875Y-101802077D01*
X109338466Y-101767472D01*
X109287888Y-101761180D01*
X109237030Y-101777372D01*
X109209925Y-101793227D01*
X109189751Y-101815810D01*
X109175403Y-101849940D01*
X109165776Y-101900434D01*
X109159763Y-101972111D01*
X109156260Y-102069788D01*
X109155026Y-102134802D01*
X109150855Y-102402171D01*
X109063125Y-102407222D01*
X108975394Y-102412273D01*
X108975394Y-100753101D01*
X109159210Y-100753101D01*
X109163896Y-100845600D01*
X109179688Y-100909809D01*
X109209183Y-100949759D01*
X109254980Y-100969480D01*
X109301250Y-100973421D01*
X109353628Y-100968892D01*
X109388390Y-100951069D01*
X109410128Y-100927519D01*
X109427240Y-100902189D01*
X109437427Y-100873969D01*
X109441960Y-100834431D01*
X109442109Y-100775142D01*
X109440584Y-100725498D01*
X109437081Y-100650710D01*
X109431867Y-100601611D01*
X109423087Y-100570467D01*
X109408886Y-100549545D01*
X109395484Y-100537452D01*
X109339487Y-100511081D01*
X109273211Y-100506822D01*
X109235156Y-100515906D01*
X109197477Y-100548196D01*
X109172519Y-100611006D01*
X109160422Y-100703894D01*
X109159210Y-100753101D01*
X108975394Y-100753101D01*
X108975394Y-100338421D01*
X109067302Y-100338421D01*
X109122483Y-100340603D01*
X109150952Y-100348351D01*
X109159206Y-100363468D01*
X109159210Y-100363916D01*
X109163040Y-100378720D01*
X109179933Y-100377039D01*
X109213519Y-100360772D01*
X109291778Y-100335887D01*
X109379827Y-100333271D01*
X109463360Y-100352468D01*
X109463360Y-100352468D01*
G37*
X109463360Y-100352468D02*
X109498592Y-100369874D01*
X109542040Y-100400206D01*
X109573706Y-100433283D01*
X109595394Y-100474817D01*
X109608903Y-100530522D01*
X109616038Y-100606111D01*
X109618600Y-100707296D01*
X109618750Y-100750797D01*
X109618312Y-100846135D01*
X109616496Y-100914271D01*
X109612545Y-100961418D01*
X109605702Y-100993790D01*
X109595211Y-101017600D01*
X109584296Y-101033843D01*
X109514619Y-101102952D01*
X109432566Y-101144521D01*
X109344050Y-101157023D01*
X109254981Y-101138934D01*
X109226763Y-101126142D01*
X109159210Y-101090931D01*
X109159210Y-101642700D01*
X109208512Y-101617205D01*
X109273473Y-101597480D01*
X109353320Y-101592427D01*
X109433052Y-101601756D01*
X109493265Y-101622714D01*
X109543208Y-101662627D01*
X109585881Y-101719741D01*
X109589090Y-101725605D01*
X109602622Y-101753227D01*
X109612505Y-101781068D01*
X109619309Y-101814794D01*
X109623601Y-101860071D01*
X109625951Y-101922562D01*
X109626928Y-102007935D01*
X109627105Y-102104010D01*
X109627105Y-102410526D01*
X109443289Y-102410526D01*
X109443289Y-101845339D01*
X109391875Y-101802077D01*
X109338466Y-101767472D01*
X109287888Y-101761180D01*
X109237030Y-101777372D01*
X109209925Y-101793227D01*
X109189751Y-101815810D01*
X109175403Y-101849940D01*
X109165776Y-101900434D01*
X109159763Y-101972111D01*
X109156260Y-102069788D01*
X109155026Y-102134802D01*
X109150855Y-102402171D01*
X109063125Y-102407222D01*
X108975394Y-102412273D01*
X108975394Y-100753101D01*
X109159210Y-100753101D01*
X109163896Y-100845600D01*
X109179688Y-100909809D01*
X109209183Y-100949759D01*
X109254980Y-100969480D01*
X109301250Y-100973421D01*
X109353628Y-100968892D01*
X109388390Y-100951069D01*
X109410128Y-100927519D01*
X109427240Y-100902189D01*
X109437427Y-100873969D01*
X109441960Y-100834431D01*
X109442109Y-100775142D01*
X109440584Y-100725498D01*
X109437081Y-100650710D01*
X109431867Y-100601611D01*
X109423087Y-100570467D01*
X109408886Y-100549545D01*
X109395484Y-100537452D01*
X109339487Y-100511081D01*
X109273211Y-100506822D01*
X109235156Y-100515906D01*
X109197477Y-100548196D01*
X109172519Y-100611006D01*
X109160422Y-100703894D01*
X109159210Y-100753101D01*
X108975394Y-100753101D01*
X108975394Y-100338421D01*
X109067302Y-100338421D01*
X109122483Y-100340603D01*
X109150952Y-100348351D01*
X109159206Y-100363468D01*
X109159210Y-100363916D01*
X109163040Y-100378720D01*
X109179933Y-100377039D01*
X109213519Y-100360772D01*
X109291778Y-100335887D01*
X109379827Y-100333271D01*
X109463360Y-100352468D01*
G36*
X111732631Y-102410526D02*
G01*
X111640723Y-102410526D01*
X111587377Y-102408962D01*
X111559593Y-102402485D01*
X111549590Y-102388418D01*
X111548815Y-102378906D01*
X111547128Y-102359832D01*
X111536490Y-102356174D01*
X111508535Y-102367932D01*
X111486795Y-102378906D01*
X111403332Y-102404911D01*
X111312604Y-102406416D01*
X111238842Y-102387021D01*
X111170154Y-102340165D01*
X111117794Y-102271004D01*
X111089122Y-102189427D01*
X111088392Y-102184866D01*
X111084132Y-102135101D01*
X111082014Y-102063659D01*
X111082184Y-102009626D01*
X111264720Y-102009626D01*
X111268949Y-102081441D01*
X111278568Y-102140634D01*
X111291590Y-102174060D01*
X111340856Y-102219740D01*
X111399350Y-102236115D01*
X111459671Y-102222873D01*
X111511217Y-102183373D01*
X111530738Y-102156807D01*
X111542152Y-102125106D01*
X111547498Y-102078832D01*
X111548815Y-102009328D01*
X111546458Y-101940499D01*
X111540233Y-101880026D01*
X111531408Y-101839556D01*
X111529937Y-101835929D01*
X111494347Y-101792802D01*
X111442400Y-101769124D01*
X111384278Y-101765301D01*
X111330160Y-101781738D01*
X111290226Y-101818840D01*
X111286083Y-101826222D01*
X111273116Y-101871239D01*
X111266052Y-101935967D01*
X111264720Y-102009626D01*
X111082184Y-102009626D01*
X111082271Y-101982230D01*
X111083472Y-101938405D01*
X111091645Y-101829988D01*
X111108630Y-101748588D01*
X111136887Y-101688412D01*
X111178872Y-101643666D01*
X111219632Y-101617400D01*
X111276581Y-101598935D01*
X111347411Y-101592602D01*
X111419941Y-101597760D01*
X111481986Y-101613769D01*
X111514768Y-101632920D01*
X111548815Y-101663732D01*
X111548815Y-101274210D01*
X111732631Y-101274210D01*
X111732631Y-102410526D01*
X111732631Y-102410526D01*
G37*
X111732631Y-102410526D02*
X111640723Y-102410526D01*
X111587377Y-102408962D01*
X111559593Y-102402485D01*
X111549590Y-102388418D01*
X111548815Y-102378906D01*
X111547128Y-102359832D01*
X111536490Y-102356174D01*
X111508535Y-102367932D01*
X111486795Y-102378906D01*
X111403332Y-102404911D01*
X111312604Y-102406416D01*
X111238842Y-102387021D01*
X111170154Y-102340165D01*
X111117794Y-102271004D01*
X111089122Y-102189427D01*
X111088392Y-102184866D01*
X111084132Y-102135101D01*
X111082014Y-102063659D01*
X111082184Y-102009626D01*
X111264720Y-102009626D01*
X111268949Y-102081441D01*
X111278568Y-102140634D01*
X111291590Y-102174060D01*
X111340856Y-102219740D01*
X111399350Y-102236115D01*
X111459671Y-102222873D01*
X111511217Y-102183373D01*
X111530738Y-102156807D01*
X111542152Y-102125106D01*
X111547498Y-102078832D01*
X111548815Y-102009328D01*
X111546458Y-101940499D01*
X111540233Y-101880026D01*
X111531408Y-101839556D01*
X111529937Y-101835929D01*
X111494347Y-101792802D01*
X111442400Y-101769124D01*
X111384278Y-101765301D01*
X111330160Y-101781738D01*
X111290226Y-101818840D01*
X111286083Y-101826222D01*
X111273116Y-101871239D01*
X111266052Y-101935967D01*
X111264720Y-102009626D01*
X111082184Y-102009626D01*
X111082271Y-101982230D01*
X111083472Y-101938405D01*
X111091645Y-101829988D01*
X111108630Y-101748588D01*
X111136887Y-101688412D01*
X111178872Y-101643666D01*
X111219632Y-101617400D01*
X111276581Y-101598935D01*
X111347411Y-101592602D01*
X111419941Y-101597760D01*
X111481986Y-101613769D01*
X111514768Y-101632920D01*
X111548815Y-101663732D01*
X111548815Y-101274210D01*
X111732631Y-101274210D01*
X111732631Y-102410526D01*
G36*
X110997957Y-100352226D02*
G01*
X111039546Y-100372090D01*
X111079825Y-100400784D01*
X111110510Y-100433809D01*
X111132861Y-100475931D01*
X111148136Y-100531915D01*
X111157592Y-100606528D01*
X111162487Y-100704535D01*
X111164081Y-100830702D01*
X111164106Y-100843914D01*
X111164473Y-101140526D01*
X110980657Y-101140526D01*
X110980657Y-100867081D01*
X110980527Y-100765777D01*
X110979621Y-100692353D01*
X110977173Y-100641271D01*
X110972414Y-100606990D01*
X110964574Y-100583971D01*
X110952885Y-100566673D01*
X110936602Y-100549581D01*
X110879634Y-100512857D01*
X110817445Y-100506042D01*
X110758199Y-100529261D01*
X110737595Y-100546543D01*
X110722470Y-100562791D01*
X110711610Y-100580191D01*
X110704310Y-100604212D01*
X110699863Y-100640322D01*
X110697564Y-100693988D01*
X110696704Y-100770680D01*
X110696578Y-100864043D01*
X110696578Y-101140526D01*
X110512763Y-101140526D01*
X110512763Y-100338421D01*
X110604671Y-100338421D01*
X110659851Y-100340603D01*
X110688320Y-100348351D01*
X110696575Y-100363468D01*
X110696578Y-100363916D01*
X110700408Y-100378720D01*
X110717301Y-100377040D01*
X110750888Y-100360773D01*
X110827063Y-100336840D01*
X110914200Y-100334178D01*
X110997957Y-100352226D01*
X110997957Y-100352226D01*
G37*
X110997957Y-100352226D02*
X111039546Y-100372090D01*
X111079825Y-100400784D01*
X111110510Y-100433809D01*
X111132861Y-100475931D01*
X111148136Y-100531915D01*
X111157592Y-100606528D01*
X111162487Y-100704535D01*
X111164081Y-100830702D01*
X111164106Y-100843914D01*
X111164473Y-101140526D01*
X110980657Y-101140526D01*
X110980657Y-100867081D01*
X110980527Y-100765777D01*
X110979621Y-100692353D01*
X110977173Y-100641271D01*
X110972414Y-100606990D01*
X110964574Y-100583971D01*
X110952885Y-100566673D01*
X110936602Y-100549581D01*
X110879634Y-100512857D01*
X110817445Y-100506042D01*
X110758199Y-100529261D01*
X110737595Y-100546543D01*
X110722470Y-100562791D01*
X110711610Y-100580191D01*
X110704310Y-100604212D01*
X110699863Y-100640322D01*
X110697564Y-100693988D01*
X110696704Y-100770680D01*
X110696578Y-100864043D01*
X110696578Y-101140526D01*
X110512763Y-101140526D01*
X110512763Y-100338421D01*
X110604671Y-100338421D01*
X110659851Y-100340603D01*
X110688320Y-100348351D01*
X110696575Y-100363468D01*
X110696578Y-100363916D01*
X110700408Y-100378720D01*
X110717301Y-100377040D01*
X110750888Y-100360773D01*
X110827063Y-100336840D01*
X110914200Y-100334178D01*
X110997957Y-100352226D01*
G36*
X114701193Y-101596078D02*
G01*
X114781068Y-101616845D01*
X114847962Y-101659705D01*
X114880351Y-101691723D01*
X114933445Y-101767413D01*
X114963873Y-101855216D01*
X114974327Y-101963150D01*
X114974380Y-101971875D01*
X114974473Y-102059605D01*
X114469534Y-102059605D01*
X114480298Y-102105559D01*
X114499732Y-102147178D01*
X114533745Y-102190544D01*
X114540860Y-102197467D01*
X114602003Y-102234935D01*
X114671729Y-102241289D01*
X114751987Y-102216638D01*
X114765592Y-102210000D01*
X114807319Y-102189819D01*
X114835268Y-102178321D01*
X114840145Y-102177258D01*
X114857168Y-102187583D01*
X114889633Y-102212845D01*
X114906114Y-102226650D01*
X114940264Y-102258361D01*
X114951478Y-102279299D01*
X114943695Y-102298560D01*
X114939535Y-102303827D01*
X114911357Y-102326878D01*
X114864862Y-102354892D01*
X114832434Y-102371246D01*
X114740385Y-102400059D01*
X114638476Y-102409395D01*
X114541963Y-102398332D01*
X114514934Y-102390412D01*
X114431276Y-102345581D01*
X114369266Y-102276598D01*
X114328545Y-102182794D01*
X114308755Y-102063498D01*
X114306582Y-102001118D01*
X114312926Y-101910298D01*
X114473157Y-101910298D01*
X114488655Y-101917012D01*
X114530312Y-101922280D01*
X114590876Y-101925389D01*
X114631907Y-101925921D01*
X114705711Y-101925408D01*
X114752293Y-101923006D01*
X114777848Y-101917422D01*
X114788569Y-101907361D01*
X114790657Y-101892763D01*
X114776331Y-101847796D01*
X114740262Y-101803353D01*
X114692815Y-101769242D01*
X114645349Y-101755288D01*
X114580879Y-101767666D01*
X114525070Y-101803452D01*
X114486374Y-101855033D01*
X114473157Y-101910298D01*
X114312926Y-101910298D01*
X114315821Y-101868866D01*
X114344336Y-101763498D01*
X114392729Y-101684178D01*
X114461604Y-101630071D01*
X114551565Y-101600343D01*
X114600300Y-101594618D01*
X114701193Y-101596078D01*
X114701193Y-101596078D01*
G37*
X114701193Y-101596078D02*
X114781068Y-101616845D01*
X114847962Y-101659705D01*
X114880351Y-101691723D01*
X114933445Y-101767413D01*
X114963873Y-101855216D01*
X114974327Y-101963150D01*
X114974380Y-101971875D01*
X114974473Y-102059605D01*
X114469534Y-102059605D01*
X114480298Y-102105559D01*
X114499732Y-102147178D01*
X114533745Y-102190544D01*
X114540860Y-102197467D01*
X114602003Y-102234935D01*
X114671729Y-102241289D01*
X114751987Y-102216638D01*
X114765592Y-102210000D01*
X114807319Y-102189819D01*
X114835268Y-102178321D01*
X114840145Y-102177258D01*
X114857168Y-102187583D01*
X114889633Y-102212845D01*
X114906114Y-102226650D01*
X114940264Y-102258361D01*
X114951478Y-102279299D01*
X114943695Y-102298560D01*
X114939535Y-102303827D01*
X114911357Y-102326878D01*
X114864862Y-102354892D01*
X114832434Y-102371246D01*
X114740385Y-102400059D01*
X114638476Y-102409395D01*
X114541963Y-102398332D01*
X114514934Y-102390412D01*
X114431276Y-102345581D01*
X114369266Y-102276598D01*
X114328545Y-102182794D01*
X114308755Y-102063498D01*
X114306582Y-102001118D01*
X114312926Y-101910298D01*
X114473157Y-101910298D01*
X114488655Y-101917012D01*
X114530312Y-101922280D01*
X114590876Y-101925389D01*
X114631907Y-101925921D01*
X114705711Y-101925408D01*
X114752293Y-101923006D01*
X114777848Y-101917422D01*
X114788569Y-101907361D01*
X114790657Y-101892763D01*
X114776331Y-101847796D01*
X114740262Y-101803353D01*
X114692815Y-101769242D01*
X114645349Y-101755288D01*
X114580879Y-101767666D01*
X114525070Y-101803452D01*
X114486374Y-101855033D01*
X114473157Y-101910298D01*
X114312926Y-101910298D01*
X114315821Y-101868866D01*
X114344336Y-101763498D01*
X114392729Y-101684178D01*
X114461604Y-101630071D01*
X114551565Y-101600343D01*
X114600300Y-101594618D01*
X114701193Y-101596078D01*
G36*
X114946576Y-100345419D02*
G01*
X115043395Y-100386549D01*
X115073890Y-100406571D01*
X115112865Y-100437340D01*
X115137331Y-100461533D01*
X115141578Y-100469413D01*
X115129584Y-100486899D01*
X115098887Y-100516570D01*
X115074312Y-100537279D01*
X115007046Y-100591336D01*
X114953930Y-100546642D01*
X114912884Y-100517789D01*
X114872863Y-100507829D01*
X114827059Y-100510261D01*
X114754324Y-100528345D01*
X114704256Y-100565881D01*
X114673829Y-100626562D01*
X114660017Y-100714081D01*
X114660013Y-100714136D01*
X114661208Y-100811958D01*
X114679772Y-100883730D01*
X114716804Y-100932595D01*
X114742050Y-100949143D01*
X114809097Y-100969749D01*
X114880709Y-100969762D01*
X114943015Y-100949768D01*
X114957763Y-100940000D01*
X114994750Y-100915047D01*
X115023668Y-100910958D01*
X115054856Y-100929530D01*
X115089336Y-100962887D01*
X115143912Y-101019196D01*
X115083318Y-101069142D01*
X114989698Y-101125513D01*
X114884125Y-101153293D01*
X114773798Y-101151282D01*
X114701343Y-101132862D01*
X114616656Y-101087310D01*
X114548927Y-101015650D01*
X114518157Y-100965066D01*
X114493236Y-100892488D01*
X114480766Y-100800569D01*
X114480670Y-100700948D01*
X114492870Y-100605267D01*
X114517290Y-100525169D01*
X114521136Y-100516956D01*
X114578093Y-100436413D01*
X114655209Y-100377771D01*
X114746390Y-100342247D01*
X114845543Y-100331057D01*
X114946576Y-100345419D01*
X114946576Y-100345419D01*
G37*
X114946576Y-100345419D02*
X115043395Y-100386549D01*
X115073890Y-100406571D01*
X115112865Y-100437340D01*
X115137331Y-100461533D01*
X115141578Y-100469413D01*
X115129584Y-100486899D01*
X115098887Y-100516570D01*
X115074312Y-100537279D01*
X115007046Y-100591336D01*
X114953930Y-100546642D01*
X114912884Y-100517789D01*
X114872863Y-100507829D01*
X114827059Y-100510261D01*
X114754324Y-100528345D01*
X114704256Y-100565881D01*
X114673829Y-100626562D01*
X114660017Y-100714081D01*
X114660013Y-100714136D01*
X114661208Y-100811958D01*
X114679772Y-100883730D01*
X114716804Y-100932595D01*
X114742050Y-100949143D01*
X114809097Y-100969749D01*
X114880709Y-100969762D01*
X114943015Y-100949768D01*
X114957763Y-100940000D01*
X114994750Y-100915047D01*
X115023668Y-100910958D01*
X115054856Y-100929530D01*
X115089336Y-100962887D01*
X115143912Y-101019196D01*
X115083318Y-101069142D01*
X114989698Y-101125513D01*
X114884125Y-101153293D01*
X114773798Y-101151282D01*
X114701343Y-101132862D01*
X114616656Y-101087310D01*
X114548927Y-101015650D01*
X114518157Y-100965066D01*
X114493236Y-100892488D01*
X114480766Y-100800569D01*
X114480670Y-100700948D01*
X114492870Y-100605267D01*
X114517290Y-100525169D01*
X114521136Y-100516956D01*
X114578093Y-100436413D01*
X114655209Y-100377771D01*
X114746390Y-100342247D01*
X114845543Y-100331057D01*
X114946576Y-100345419D01*
G36*
X112374130Y-101595104D02*
G01*
X112440220Y-101600066D01*
X112526626Y-101859079D01*
X112613031Y-102118092D01*
X112640124Y-102026184D01*
X112656428Y-101969384D01*
X112677875Y-101892625D01*
X112701035Y-101808251D01*
X112713280Y-101762993D01*
X112759344Y-101591710D01*
X112949387Y-101591710D01*
X112892582Y-101771349D01*
X112864607Y-101859704D01*
X112830813Y-101966281D01*
X112795520Y-102077454D01*
X112764013Y-102176579D01*
X112692250Y-102402171D01*
X112537286Y-102412253D01*
X112495270Y-102273528D01*
X112469359Y-102187351D01*
X112441083Y-102092347D01*
X112416369Y-102008441D01*
X112415394Y-102005102D01*
X112396935Y-101948248D01*
X112380649Y-101909456D01*
X112369242Y-101894787D01*
X112366898Y-101896483D01*
X112358671Y-101919225D01*
X112343038Y-101967940D01*
X112321904Y-102036502D01*
X112297170Y-102118785D01*
X112283787Y-102164046D01*
X112211311Y-102410526D01*
X112057495Y-102410526D01*
X111934531Y-102022006D01*
X111899988Y-101913022D01*
X111868521Y-101814048D01*
X111841616Y-101729736D01*
X111820759Y-101664734D01*
X111807438Y-101623692D01*
X111803388Y-101611701D01*
X111806594Y-101599423D01*
X111831765Y-101594046D01*
X111884146Y-101594584D01*
X111892345Y-101594990D01*
X111989482Y-101600066D01*
X112053100Y-101834013D01*
X112076484Y-101919333D01*
X112097381Y-101994335D01*
X112113951Y-102052507D01*
X112124354Y-102087337D01*
X112126276Y-102093016D01*
X112134241Y-102086486D01*
X112150304Y-102052654D01*
X112172621Y-101996127D01*
X112199345Y-101921510D01*
X112221937Y-101854107D01*
X112308041Y-101590143D01*
X112374130Y-101595104D01*
X112374130Y-101595104D01*
G37*
X112374130Y-101595104D02*
X112440220Y-101600066D01*
X112526626Y-101859079D01*
X112613031Y-102118092D01*
X112640124Y-102026184D01*
X112656428Y-101969384D01*
X112677875Y-101892625D01*
X112701035Y-101808251D01*
X112713280Y-101762993D01*
X112759344Y-101591710D01*
X112949387Y-101591710D01*
X112892582Y-101771349D01*
X112864607Y-101859704D01*
X112830813Y-101966281D01*
X112795520Y-102077454D01*
X112764013Y-102176579D01*
X112692250Y-102402171D01*
X112537286Y-102412253D01*
X112495270Y-102273528D01*
X112469359Y-102187351D01*
X112441083Y-102092347D01*
X112416369Y-102008441D01*
X112415394Y-102005102D01*
X112396935Y-101948248D01*
X112380649Y-101909456D01*
X112369242Y-101894787D01*
X112366898Y-101896483D01*
X112358671Y-101919225D01*
X112343038Y-101967940D01*
X112321904Y-102036502D01*
X112297170Y-102118785D01*
X112283787Y-102164046D01*
X112211311Y-102410526D01*
X112057495Y-102410526D01*
X111934531Y-102022006D01*
X111899988Y-101913022D01*
X111868521Y-101814048D01*
X111841616Y-101729736D01*
X111820759Y-101664734D01*
X111807438Y-101623692D01*
X111803388Y-101611701D01*
X111806594Y-101599423D01*
X111831765Y-101594046D01*
X111884146Y-101594584D01*
X111892345Y-101594990D01*
X111989482Y-101600066D01*
X112053100Y-101834013D01*
X112076484Y-101919333D01*
X112097381Y-101994335D01*
X112113951Y-102052507D01*
X112124354Y-102087337D01*
X112126276Y-102093016D01*
X112134241Y-102086486D01*
X112150304Y-102052654D01*
X112172621Y-101996127D01*
X112199345Y-101921510D01*
X112221937Y-101854107D01*
X112308041Y-101590143D01*
X112374130Y-101595104D01*
G36*
X112018628Y-100335547D02*
G01*
X112081908Y-100347548D01*
X112147557Y-100372648D01*
X112154572Y-100375848D01*
X112204356Y-100402026D01*
X112238834Y-100426353D01*
X112249978Y-100441937D01*
X112239366Y-100467353D01*
X112213588Y-100504853D01*
X112202146Y-100518852D01*
X112154992Y-100573954D01*
X112094201Y-100538086D01*
X112036347Y-100514192D01*
X111969500Y-100501420D01*
X111905394Y-100500613D01*
X111855764Y-100512615D01*
X111843854Y-100520105D01*
X111821172Y-100554450D01*
X111818416Y-100594013D01*
X111835388Y-100624920D01*
X111845427Y-100630913D01*
X111875510Y-100638357D01*
X111928389Y-100647106D01*
X111993575Y-100655467D01*
X112005600Y-100656778D01*
X112110297Y-100674888D01*
X112186232Y-100705651D01*
X112236592Y-100751907D01*
X112264564Y-100816497D01*
X112273278Y-100895387D01*
X112261240Y-100985065D01*
X112222151Y-101055486D01*
X112155855Y-101106777D01*
X112062194Y-101139067D01*
X111958223Y-101151807D01*
X111873438Y-101151654D01*
X111804665Y-101140083D01*
X111757697Y-101124109D01*
X111698350Y-101096275D01*
X111643506Y-101063973D01*
X111624013Y-101049755D01*
X111573881Y-101008835D01*
X111694803Y-100886477D01*
X111763543Y-100931967D01*
X111832488Y-100966133D01*
X111906111Y-100984004D01*
X111976883Y-100985889D01*
X112037274Y-100972101D01*
X112079757Y-100942949D01*
X112093474Y-100918352D01*
X112091417Y-100878904D01*
X112057330Y-100848737D01*
X111991308Y-100827906D01*
X111918974Y-100818279D01*
X111807652Y-100799910D01*
X111724952Y-100765254D01*
X111669765Y-100713297D01*
X111640988Y-100643023D01*
X111637001Y-100559707D01*
X111656693Y-100472681D01*
X111701589Y-100406902D01*
X111772091Y-100362068D01*
X111868601Y-100337879D01*
X111940100Y-100333137D01*
X112018628Y-100335547D01*
X112018628Y-100335547D01*
G37*
X112018628Y-100335547D02*
X112081908Y-100347548D01*
X112147557Y-100372648D01*
X112154572Y-100375848D01*
X112204356Y-100402026D01*
X112238834Y-100426353D01*
X112249978Y-100441937D01*
X112239366Y-100467353D01*
X112213588Y-100504853D01*
X112202146Y-100518852D01*
X112154992Y-100573954D01*
X112094201Y-100538086D01*
X112036347Y-100514192D01*
X111969500Y-100501420D01*
X111905394Y-100500613D01*
X111855764Y-100512615D01*
X111843854Y-100520105D01*
X111821172Y-100554450D01*
X111818416Y-100594013D01*
X111835388Y-100624920D01*
X111845427Y-100630913D01*
X111875510Y-100638357D01*
X111928389Y-100647106D01*
X111993575Y-100655467D01*
X112005600Y-100656778D01*
X112110297Y-100674888D01*
X112186232Y-100705651D01*
X112236592Y-100751907D01*
X112264564Y-100816497D01*
X112273278Y-100895387D01*
X112261240Y-100985065D01*
X112222151Y-101055486D01*
X112155855Y-101106777D01*
X112062194Y-101139067D01*
X111958223Y-101151807D01*
X111873438Y-101151654D01*
X111804665Y-101140083D01*
X111757697Y-101124109D01*
X111698350Y-101096275D01*
X111643506Y-101063973D01*
X111624013Y-101049755D01*
X111573881Y-101008835D01*
X111694803Y-100886477D01*
X111763543Y-100931967D01*
X111832488Y-100966133D01*
X111906111Y-100984004D01*
X111976883Y-100985889D01*
X112037274Y-100972101D01*
X112079757Y-100942949D01*
X112093474Y-100918352D01*
X112091417Y-100878904D01*
X112057330Y-100848737D01*
X111991308Y-100827906D01*
X111918974Y-100818279D01*
X111807652Y-100799910D01*
X111724952Y-100765254D01*
X111669765Y-100713297D01*
X111640988Y-100643023D01*
X111637001Y-100559707D01*
X111656693Y-100472681D01*
X111701589Y-100406902D01*
X111772091Y-100362068D01*
X111868601Y-100337879D01*
X111940100Y-100333137D01*
X112018628Y-100335547D01*
G36*
X109955941Y-89125960D02*
G01*
X110073545Y-89192395D01*
X110167023Y-89295045D01*
X110210812Y-89381124D01*
X110241422Y-89519614D01*
X110232321Y-89657591D01*
X110184973Y-89779084D01*
X110172588Y-89797850D01*
X110082149Y-89885408D01*
X109963271Y-89945553D01*
X109830333Y-89975418D01*
X109697713Y-89972134D01*
X109579790Y-89932832D01*
X109559006Y-89920244D01*
X109476737Y-89841394D01*
X109408914Y-89732770D01*
X109366747Y-89615295D01*
X109358400Y-89545799D01*
X109377674Y-89436575D01*
X109428190Y-89322110D01*
X109498982Y-89223158D01*
X109554642Y-89174295D01*
X109686861Y-89113876D01*
X109823837Y-89098776D01*
X109955941Y-89125960D01*
X109955941Y-89125960D01*
G37*
X109955941Y-89125960D02*
X110073545Y-89192395D01*
X110167023Y-89295045D01*
X110210812Y-89381124D01*
X110241422Y-89519614D01*
X110232321Y-89657591D01*
X110184973Y-89779084D01*
X110172588Y-89797850D01*
X110082149Y-89885408D01*
X109963271Y-89945553D01*
X109830333Y-89975418D01*
X109697713Y-89972134D01*
X109579790Y-89932832D01*
X109559006Y-89920244D01*
X109476737Y-89841394D01*
X109408914Y-89732770D01*
X109366747Y-89615295D01*
X109358400Y-89545799D01*
X109377674Y-89436575D01*
X109428190Y-89322110D01*
X109498982Y-89223158D01*
X109554642Y-89174295D01*
X109686861Y-89113876D01*
X109823837Y-89098776D01*
X109955941Y-89125960D01*
G36*
X110196600Y-91992045D02*
G01*
X110196821Y-92263528D01*
X110197583Y-92488618D01*
X110199026Y-92671721D01*
X110201294Y-92817240D01*
X110204531Y-92929583D01*
X110208878Y-93013155D01*
X110214480Y-93072359D01*
X110221478Y-93111603D01*
X110230016Y-93135292D01*
X110233892Y-93141395D01*
X110260178Y-93178943D01*
X110270891Y-93207085D01*
X110260710Y-93227174D01*
X110224312Y-93240563D01*
X110156376Y-93248605D01*
X110051578Y-93252653D01*
X109904598Y-93254060D01*
X109790200Y-93254200D01*
X109639918Y-93253515D01*
X109508727Y-93251608D01*
X109404427Y-93248702D01*
X109334819Y-93245017D01*
X109307705Y-93240776D01*
X109307600Y-93240488D01*
X109318155Y-93211454D01*
X109344726Y-93154509D01*
X109358400Y-93127200D01*
X109371266Y-93099760D01*
X109381759Y-93069394D01*
X109390120Y-93030920D01*
X109396591Y-92979155D01*
X109401411Y-92908918D01*
X109404822Y-92815027D01*
X109407065Y-92692301D01*
X109408381Y-92535559D01*
X109409010Y-92339617D01*
X109409195Y-92099296D01*
X109409200Y-92034750D01*
X109408947Y-91777269D01*
X109408071Y-91565749D01*
X109406396Y-91395351D01*
X109403748Y-91261238D01*
X109399950Y-91158571D01*
X109394827Y-91082513D01*
X109388203Y-91028226D01*
X109379903Y-90990872D01*
X109370447Y-90966938D01*
X109331695Y-90892000D01*
X110196600Y-90892000D01*
X110196600Y-91992045D01*
X110196600Y-91992045D01*
G37*
X110196600Y-91992045D02*
X110196821Y-92263528D01*
X110197583Y-92488618D01*
X110199026Y-92671721D01*
X110201294Y-92817240D01*
X110204531Y-92929583D01*
X110208878Y-93013155D01*
X110214480Y-93072359D01*
X110221478Y-93111603D01*
X110230016Y-93135292D01*
X110233892Y-93141395D01*
X110260178Y-93178943D01*
X110270891Y-93207085D01*
X110260710Y-93227174D01*
X110224312Y-93240563D01*
X110156376Y-93248605D01*
X110051578Y-93252653D01*
X109904598Y-93254060D01*
X109790200Y-93254200D01*
X109639918Y-93253515D01*
X109508727Y-93251608D01*
X109404427Y-93248702D01*
X109334819Y-93245017D01*
X109307705Y-93240776D01*
X109307600Y-93240488D01*
X109318155Y-93211454D01*
X109344726Y-93154509D01*
X109358400Y-93127200D01*
X109371266Y-93099760D01*
X109381759Y-93069394D01*
X109390120Y-93030920D01*
X109396591Y-92979155D01*
X109401411Y-92908918D01*
X109404822Y-92815027D01*
X109407065Y-92692301D01*
X109408381Y-92535559D01*
X109409010Y-92339617D01*
X109409195Y-92099296D01*
X109409200Y-92034750D01*
X109408947Y-91777269D01*
X109408071Y-91565749D01*
X109406396Y-91395351D01*
X109403748Y-91261238D01*
X109399950Y-91158571D01*
X109394827Y-91082513D01*
X109388203Y-91028226D01*
X109379903Y-90990872D01*
X109370447Y-90966938D01*
X109331695Y-90892000D01*
X110196600Y-90892000D01*
X110196600Y-91992045D01*
G36*
X108613747Y-90028400D02*
G01*
X109159059Y-90028400D01*
X108960279Y-90229787D01*
X108630571Y-90592691D01*
X108416151Y-90866815D01*
X108337703Y-90970400D01*
X108243144Y-91090529D01*
X108143050Y-91214202D01*
X108047998Y-91328419D01*
X107968566Y-91420181D01*
X107943468Y-91447760D01*
X107862036Y-91535212D01*
X107931994Y-91626356D01*
X108067436Y-91815604D01*
X108154978Y-91955050D01*
X108209848Y-92037286D01*
X108271124Y-92116612D01*
X108276273Y-92122607D01*
X108345222Y-92205581D01*
X108425747Y-92308137D01*
X108508942Y-92418288D01*
X108585902Y-92524047D01*
X108647719Y-92613425D01*
X108683376Y-92670547D01*
X108718457Y-92723596D01*
X108776986Y-92802062D01*
X108848820Y-92893252D01*
X108923815Y-92984472D01*
X108991828Y-93063032D01*
X109028200Y-93102020D01*
X109052089Y-93128081D01*
X109094363Y-93175406D01*
X109102477Y-93184570D01*
X109164055Y-93254200D01*
X108037600Y-93254200D01*
X108037600Y-93175923D01*
X108020837Y-93099395D01*
X107973607Y-92994149D01*
X107900493Y-92868239D01*
X107806081Y-92729716D01*
X107718542Y-92615533D01*
X107647268Y-92523313D01*
X107581947Y-92432269D01*
X107534777Y-92359535D01*
X107528671Y-92348833D01*
X107488629Y-92282434D01*
X107453342Y-92234284D01*
X107444699Y-92225500D01*
X107410138Y-92186816D01*
X107369915Y-92130250D01*
X107332226Y-92082093D01*
X107301715Y-92060487D01*
X107300414Y-92060400D01*
X107291538Y-92085091D01*
X107284418Y-92156381D01*
X107279264Y-92270092D01*
X107276283Y-92422044D01*
X107275600Y-92556961D01*
X107276284Y-92736263D01*
X107278695Y-92872270D01*
X107283375Y-92972475D01*
X107290863Y-93044369D01*
X107301698Y-93095443D01*
X107316421Y-93133188D01*
X107317244Y-93134811D01*
X107352717Y-93194491D01*
X107384223Y-93232618D01*
X107387094Y-93234761D01*
X107371597Y-93240323D01*
X107312247Y-93245262D01*
X107215986Y-93249312D01*
X107089759Y-93252207D01*
X106940511Y-93253682D01*
X106888794Y-93253811D01*
X106362289Y-93254200D01*
X106391968Y-93184350D01*
X106420141Y-93125758D01*
X106442224Y-93090370D01*
X106446057Y-93061142D01*
X106449657Y-92985781D01*
X106452959Y-92868951D01*
X106455896Y-92715317D01*
X106458399Y-92529546D01*
X106460404Y-92316302D01*
X106461842Y-92080251D01*
X106462647Y-91826059D01*
X106462799Y-91654290D01*
X106462741Y-91350311D01*
X106462470Y-91092912D01*
X106461846Y-90877874D01*
X106460726Y-90700978D01*
X106458969Y-90558004D01*
X106456433Y-90444733D01*
X106452976Y-90356945D01*
X106448457Y-90290421D01*
X106442733Y-90240941D01*
X106435662Y-90204286D01*
X106427104Y-90176237D01*
X106416916Y-90152574D01*
X106411999Y-90142699D01*
X106381244Y-90080869D01*
X106363190Y-90041660D01*
X106361199Y-90035729D01*
X106385335Y-90033507D01*
X106452688Y-90031556D01*
X106555672Y-90029984D01*
X106686706Y-90028901D01*
X106838205Y-90028415D01*
X106871917Y-90028400D01*
X107045060Y-90028664D01*
X107173629Y-90029831D01*
X107263846Y-90032464D01*
X107321937Y-90037123D01*
X107354124Y-90044372D01*
X107366632Y-90054772D01*
X107365686Y-90068885D01*
X107364164Y-90072850D01*
X107330805Y-90161673D01*
X107306739Y-90250181D01*
X107290580Y-90349141D01*
X107280942Y-90469321D01*
X107276440Y-90621488D01*
X107275600Y-90761088D01*
X107275599Y-91180904D01*
X107351799Y-91107900D01*
X107399413Y-91057557D01*
X107425994Y-91020278D01*
X107428000Y-91013483D01*
X107443137Y-90987550D01*
X107482628Y-90934128D01*
X107537588Y-90864145D01*
X107599132Y-90788529D01*
X107658377Y-90718209D01*
X107706439Y-90664114D01*
X107733239Y-90638000D01*
X107755561Y-90610734D01*
X107793936Y-90554630D01*
X107821802Y-90511000D01*
X107880005Y-90423298D01*
X107942951Y-90336698D01*
X107965299Y-90308362D01*
X108010013Y-90241736D01*
X108035408Y-90180643D01*
X108037600Y-90164390D01*
X108038122Y-90120677D01*
X108043791Y-90087502D01*
X108060762Y-90063412D01*
X108095189Y-90046955D01*
X108153226Y-90036677D01*
X108241028Y-90031127D01*
X108364750Y-90028851D01*
X108530545Y-90028396D01*
X108613747Y-90028400D01*
X108613747Y-90028400D01*
G37*
X108613747Y-90028400D02*
X109159059Y-90028400D01*
X108960279Y-90229787D01*
X108630571Y-90592691D01*
X108416151Y-90866815D01*
X108337703Y-90970400D01*
X108243144Y-91090529D01*
X108143050Y-91214202D01*
X108047998Y-91328419D01*
X107968566Y-91420181D01*
X107943468Y-91447760D01*
X107862036Y-91535212D01*
X107931994Y-91626356D01*
X108067436Y-91815604D01*
X108154978Y-91955050D01*
X108209848Y-92037286D01*
X108271124Y-92116612D01*
X108276273Y-92122607D01*
X108345222Y-92205581D01*
X108425747Y-92308137D01*
X108508942Y-92418288D01*
X108585902Y-92524047D01*
X108647719Y-92613425D01*
X108683376Y-92670547D01*
X108718457Y-92723596D01*
X108776986Y-92802062D01*
X108848820Y-92893252D01*
X108923815Y-92984472D01*
X108991828Y-93063032D01*
X109028200Y-93102020D01*
X109052089Y-93128081D01*
X109094363Y-93175406D01*
X109102477Y-93184570D01*
X109164055Y-93254200D01*
X108037600Y-93254200D01*
X108037600Y-93175923D01*
X108020837Y-93099395D01*
X107973607Y-92994149D01*
X107900493Y-92868239D01*
X107806081Y-92729716D01*
X107718542Y-92615533D01*
X107647268Y-92523313D01*
X107581947Y-92432269D01*
X107534777Y-92359535D01*
X107528671Y-92348833D01*
X107488629Y-92282434D01*
X107453342Y-92234284D01*
X107444699Y-92225500D01*
X107410138Y-92186816D01*
X107369915Y-92130250D01*
X107332226Y-92082093D01*
X107301715Y-92060487D01*
X107300414Y-92060400D01*
X107291538Y-92085091D01*
X107284418Y-92156381D01*
X107279264Y-92270092D01*
X107276283Y-92422044D01*
X107275600Y-92556961D01*
X107276284Y-92736263D01*
X107278695Y-92872270D01*
X107283375Y-92972475D01*
X107290863Y-93044369D01*
X107301698Y-93095443D01*
X107316421Y-93133188D01*
X107317244Y-93134811D01*
X107352717Y-93194491D01*
X107384223Y-93232618D01*
X107387094Y-93234761D01*
X107371597Y-93240323D01*
X107312247Y-93245262D01*
X107215986Y-93249312D01*
X107089759Y-93252207D01*
X106940511Y-93253682D01*
X106888794Y-93253811D01*
X106362289Y-93254200D01*
X106391968Y-93184350D01*
X106420141Y-93125758D01*
X106442224Y-93090370D01*
X106446057Y-93061142D01*
X106449657Y-92985781D01*
X106452959Y-92868951D01*
X106455896Y-92715317D01*
X106458399Y-92529546D01*
X106460404Y-92316302D01*
X106461842Y-92080251D01*
X106462647Y-91826059D01*
X106462799Y-91654290D01*
X106462741Y-91350311D01*
X106462470Y-91092912D01*
X106461846Y-90877874D01*
X106460726Y-90700978D01*
X106458969Y-90558004D01*
X106456433Y-90444733D01*
X106452976Y-90356945D01*
X106448457Y-90290421D01*
X106442733Y-90240941D01*
X106435662Y-90204286D01*
X106427104Y-90176237D01*
X106416916Y-90152574D01*
X106411999Y-90142699D01*
X106381244Y-90080869D01*
X106363190Y-90041660D01*
X106361199Y-90035729D01*
X106385335Y-90033507D01*
X106452688Y-90031556D01*
X106555672Y-90029984D01*
X106686706Y-90028901D01*
X106838205Y-90028415D01*
X106871917Y-90028400D01*
X107045060Y-90028664D01*
X107173629Y-90029831D01*
X107263846Y-90032464D01*
X107321937Y-90037123D01*
X107354124Y-90044372D01*
X107366632Y-90054772D01*
X107365686Y-90068885D01*
X107364164Y-90072850D01*
X107330805Y-90161673D01*
X107306739Y-90250181D01*
X107290580Y-90349141D01*
X107280942Y-90469321D01*
X107276440Y-90621488D01*
X107275600Y-90761088D01*
X107275599Y-91180904D01*
X107351799Y-91107900D01*
X107399413Y-91057557D01*
X107425994Y-91020278D01*
X107428000Y-91013483D01*
X107443137Y-90987550D01*
X107482628Y-90934128D01*
X107537588Y-90864145D01*
X107599132Y-90788529D01*
X107658377Y-90718209D01*
X107706439Y-90664114D01*
X107733239Y-90638000D01*
X107755561Y-90610734D01*
X107793936Y-90554630D01*
X107821802Y-90511000D01*
X107880005Y-90423298D01*
X107942951Y-90336698D01*
X107965299Y-90308362D01*
X108010013Y-90241736D01*
X108035408Y-90180643D01*
X108037600Y-90164390D01*
X108038122Y-90120677D01*
X108043791Y-90087502D01*
X108060762Y-90063412D01*
X108095189Y-90046955D01*
X108153226Y-90036677D01*
X108241028Y-90031127D01*
X108364750Y-90028851D01*
X108530545Y-90028396D01*
X108613747Y-90028400D01*
M02*
