G04 #@! TF.GenerationSoftware,KiCad,Pcbnew,(5.1.0)-1*
G04 #@! TF.CreationDate,2019-04-19T11:32:40+10:00*
G04 #@! TF.ProjectId,FrontPanel,46726f6e-7450-4616-9e65-6c2e6b696361,rev?*
G04 #@! TF.SameCoordinates,Original*
G04 #@! TF.FileFunction,Legend,Top*
G04 #@! TF.FilePolarity,Positive*
%FSLAX46Y46*%
G04 Gerber Fmt 4.6, Leading zero omitted, Abs format (unit mm)*
G04 Created by KiCad (PCBNEW (5.1.0)-1) date 2019-04-19 11:32:40*
%MOMM*%
%LPD*%
G04 APERTURE LIST*
%ADD10C,0.400000*%
%ADD11C,0.300000*%
G04 APERTURE END LIST*
D10*
X125885714Y-93957142D02*
X125885714Y-96100000D01*
X125742857Y-96528571D01*
X125457142Y-96814285D01*
X125028571Y-96957142D01*
X124742857Y-96957142D01*
X127742857Y-96957142D02*
X127457142Y-96814285D01*
X127314285Y-96671428D01*
X127171428Y-96385714D01*
X127171428Y-95528571D01*
X127314285Y-95242857D01*
X127457142Y-95100000D01*
X127742857Y-94957142D01*
X128171428Y-94957142D01*
X128457142Y-95100000D01*
X128600000Y-95242857D01*
X128742857Y-95528571D01*
X128742857Y-96385714D01*
X128600000Y-96671428D01*
X128457142Y-96814285D01*
X128171428Y-96957142D01*
X127742857Y-96957142D01*
X129885714Y-96814285D02*
X130171428Y-96957142D01*
X130742857Y-96957142D01*
X131028571Y-96814285D01*
X131171428Y-96528571D01*
X131171428Y-96385714D01*
X131028571Y-96100000D01*
X130742857Y-95957142D01*
X130314285Y-95957142D01*
X130028571Y-95814285D01*
X129885714Y-95528571D01*
X129885714Y-95385714D01*
X130028571Y-95100000D01*
X130314285Y-94957142D01*
X130742857Y-94957142D01*
X131028571Y-95100000D01*
X132457142Y-96957142D02*
X132457142Y-93957142D01*
X133742857Y-96957142D02*
X133742857Y-95385714D01*
X133600000Y-95100000D01*
X133314285Y-94957142D01*
X132885714Y-94957142D01*
X132600000Y-95100000D01*
X132457142Y-95242857D01*
X135314285Y-93957142D02*
X135028571Y-94528571D01*
X136457142Y-96814285D02*
X136742857Y-96957142D01*
X137314285Y-96957142D01*
X137600000Y-96814285D01*
X137742857Y-96528571D01*
X137742857Y-96385714D01*
X137600000Y-96100000D01*
X137314285Y-95957142D01*
X136885714Y-95957142D01*
X136600000Y-95814285D01*
X136457142Y-95528571D01*
X136457142Y-95385714D01*
X136600000Y-95100000D01*
X136885714Y-94957142D01*
X137314285Y-94957142D01*
X137600000Y-95100000D01*
X140885714Y-93957142D02*
X141885714Y-96957142D01*
X142885714Y-93957142D01*
X143885714Y-96957142D02*
X143885714Y-93957142D01*
X145600000Y-96957142D01*
X145600000Y-93957142D01*
X146885714Y-96100000D02*
X148314285Y-96100000D01*
X146600000Y-96957142D02*
X147600000Y-93957142D01*
X148600000Y-96957142D01*
D11*
X148726475Y-102484571D02*
X148726475Y-100484571D01*
X149488380Y-100484571D01*
X149678856Y-100579810D01*
X149774094Y-100675048D01*
X149869332Y-100865524D01*
X149869332Y-101151238D01*
X149774094Y-101341714D01*
X149678856Y-101436952D01*
X149488380Y-101532190D01*
X148726475Y-101532190D01*
X151012189Y-102484571D02*
X150821713Y-102389333D01*
X150726475Y-102294095D01*
X150631237Y-102103619D01*
X150631237Y-101532190D01*
X150726475Y-101341714D01*
X150821713Y-101246476D01*
X151012189Y-101151238D01*
X151297904Y-101151238D01*
X151488380Y-101246476D01*
X151583618Y-101341714D01*
X151678856Y-101532190D01*
X151678856Y-102103619D01*
X151583618Y-102294095D01*
X151488380Y-102389333D01*
X151297904Y-102484571D01*
X151012189Y-102484571D01*
X152535999Y-102484571D02*
X152535999Y-101151238D01*
X152535999Y-101532190D02*
X152631237Y-101341714D01*
X152726475Y-101246476D01*
X152916951Y-101151238D01*
X153107428Y-101151238D01*
X153488380Y-101151238D02*
X154250285Y-101151238D01*
X153774094Y-100484571D02*
X153774094Y-102198857D01*
X153869332Y-102389333D01*
X154059809Y-102484571D01*
X154250285Y-102484571D01*
X156345523Y-100675048D02*
X156440761Y-100579810D01*
X156631237Y-100484571D01*
X157107428Y-100484571D01*
X157297904Y-100579810D01*
X157393142Y-100675048D01*
X157488380Y-100865524D01*
X157488380Y-101056000D01*
X157393142Y-101341714D01*
X156250285Y-102484571D01*
X157488380Y-102484571D01*
X115741475Y-102449572D02*
X115741475Y-100449572D01*
X116503380Y-100449572D01*
X116693856Y-100544811D01*
X116789094Y-100640049D01*
X116884332Y-100830525D01*
X116884332Y-101116239D01*
X116789094Y-101306715D01*
X116693856Y-101401953D01*
X116503380Y-101497191D01*
X115741475Y-101497191D01*
X118027189Y-102449572D02*
X117836713Y-102354334D01*
X117741475Y-102259096D01*
X117646237Y-102068620D01*
X117646237Y-101497191D01*
X117741475Y-101306715D01*
X117836713Y-101211477D01*
X118027189Y-101116239D01*
X118312904Y-101116239D01*
X118503380Y-101211477D01*
X118598618Y-101306715D01*
X118693856Y-101497191D01*
X118693856Y-102068620D01*
X118598618Y-102259096D01*
X118503380Y-102354334D01*
X118312904Y-102449572D01*
X118027189Y-102449572D01*
X119550999Y-102449572D02*
X119550999Y-101116239D01*
X119550999Y-101497191D02*
X119646237Y-101306715D01*
X119741475Y-101211477D01*
X119931951Y-101116239D01*
X120122428Y-101116239D01*
X120503380Y-101116239D02*
X121265285Y-101116239D01*
X120789094Y-100449572D02*
X120789094Y-102163858D01*
X120884332Y-102354334D01*
X121074809Y-102449572D01*
X121265285Y-102449572D01*
X124503380Y-102449572D02*
X123360523Y-102449572D01*
X123931951Y-102449572D02*
X123931951Y-100449572D01*
X123741475Y-100735287D01*
X123550999Y-100925763D01*
X123360523Y-101021001D01*
M02*
