<?xml version="1.0" encoding="UTF-8" standalone="no"?>
<!-- Created with Inkscape (http://www.inkscape.org/) -->

<svg
   xmlns:dc="http://purl.org/dc/elements/1.1/"
   xmlns:cc="http://creativecommons.org/ns#"
   xmlns:rdf="http://www.w3.org/1999/02/22-rdf-syntax-ns#"
   xmlns:svg="http://www.w3.org/2000/svg"
   xmlns="http://www.w3.org/2000/svg"
   xmlns:sodipodi="http://sodipodi.sourceforge.net/DTD/sodipodi-0.dtd"
   xmlns:inkscape="http://www.inkscape.org/namespaces/inkscape"
   width="30"
   height="40"
   id="svg2541"
   sodipodi:version="0.32"
   inkscape:version="0.47pre4 r22446"
   version="1.0"
   sodipodi:docname="transformer1_core.svg"
   inkscape:output_extension="org.inkscape.output.svg.inkscape">
  <defs
     id="defs2543">
    <inkscape:perspective
       sodipodi:type="inkscape:persp3d"
       inkscape:vp_x="0 : 20 : 1"
       inkscape:vp_y="0 : 1000 : 0"
       inkscape:vp_z="25 : 20 : 1"
       inkscape:persp3d-origin="12.5 : 13.333333 : 1"
       id="perspective16" />
    <inkscape:perspective
       id="perspective2832"
       inkscape:persp3d-origin="0.5 : 0.33333333 : 1"
       inkscape:vp_z="1 : 0.5 : 1"
       inkscape:vp_y="0 : 1000 : 0"
       inkscape:vp_x="0 : 0.5 : 1"
       sodipodi:type="inkscape:persp3d" />
    <inkscape:perspective
       id="perspective2855"
       inkscape:persp3d-origin="20 : 5 : 1"
       inkscape:vp_z="40 : 7.5 : 1"
       inkscape:vp_y="0 : 1000 : 0"
       inkscape:vp_x="0 : 7.5 : 1"
       sodipodi:type="inkscape:persp3d" />
    <inkscape:perspective
       id="perspective2870"
       inkscape:persp3d-origin="0.5 : 0.33333333 : 1"
       inkscape:vp_z="1 : 0.5 : 1"
       inkscape:vp_y="0 : 1000 : 0"
       inkscape:vp_x="0 : 0.5 : 1"
       sodipodi:type="inkscape:persp3d" />
  </defs>
  <sodipodi:namedview
     id="base"
     pagecolor="#ffffff"
     bordercolor="#666666"
     borderopacity="1.0"
     inkscape:pageopacity="0.0"
     inkscape:pageshadow="2"
     inkscape:zoom="6.3303455"
     inkscape:cx="56.725204"
     inkscape:cy="-1.0100707"
     inkscape:current-layer="layer1"
     showgrid="true"
     inkscape:document-units="px"
     inkscape:grid-bbox="true"
     inkscape:window-width="1280"
     inkscape:window-height="975"
     inkscape:window-x="0"
     inkscape:window-y="25"
     objecttolerance="10"
     gridtolerance="10000"
     guidetolerance="10"
     inkscape:window-maximized="0">
    <inkscape:grid
       type="xygrid"
       id="grid2551"
       visible="true"
       enabled="true"
       empspacing="5"
       snapvisiblegridlinesonly="true" />
  </sodipodi:namedview>
  <metadata
     id="metadata2546">
    <rdf:RDF>
      <cc:Work
         rdf:about="">
        <dc:format>image/svg+xml</dc:format>
        <dc:type
           rdf:resource="http://purl.org/dc/dcmitype/StillImage" />
        <dc:title />
      </cc:Work>
    </rdf:RDF>
  </metadata>
  <g
     id="layer1"
     inkscape:label="Layer 1"
     inkscape:groupmode="layer">
    <rect
       rx="12.501719"
       style="fill:#0000ff;fill-rule:evenodd;stroke:#000000;stroke-width:1px;stroke-linecap:butt;stroke-linejoin:miter;stroke-opacity:1"
       ry="1"
       y="22.500002"
       x="531.07251"
       height="1"
       width="0"
       id="rect26128"
       transform="matrix(0,1,-1,0,0,0)" />
    <rect
       rx="12.506055"
       style="fill:#0000ff;fill-rule:evenodd;stroke:#000000;stroke-width:0.99999988px;stroke-linecap:butt;stroke-linejoin:miter;stroke-opacity:1"
       ry="1.0364619"
       y="51.057404"
       x="531.23834"
       height="1.0364619"
       width="0"
       id="rect2571"
       transform="matrix(0,1,1,0,0,0)" />
    <g
       transform="matrix(0,1,-1,0,197.86218,-54.5)"
       id="layer1-6"
       inkscape:label="Layer 1">
      <path
         d="m 58.5,197.86218 c 0,0 0,-5 0,-5 0,0 0,-6 4,-6 4,0 4,6 4,6 0,0 0,-6 4,-6 4,0 4,6 4,6 0,0 0,-6 4,-6 4,0 4,6 4,6 0,0 0,-6 4,-6 4,0 3.99999,6 4,6 0,0 0,5 0,5"
         sodipodi:nodetypes="ccccccccccc"
         id="path3387"
         style="fill:none;stroke:#000000;stroke-width:1px;stroke-linecap:butt;stroke-linejoin:miter;stroke-opacity:1" />
      <rect
         id="rect26128-1"
         width="0"
         height="1"
         x="593"
         y="223.36218"
         ry="1"
         style="fill:#0000ff;fill-rule:evenodd;stroke:#000000;stroke-width:1px;stroke-linecap:butt;stroke-linejoin:miter;stroke-opacity:1"
         rx="12.5" />
      <path
         sodipodi:nodetypes="cc"
         id="path2384"
         d="m 58.5,184.86218 32,0"
         style="fill:none;stroke:#000000;stroke-width:1px;stroke-linecap:butt;stroke-linejoin:miter;stroke-opacity:1" />
    </g>
    <g
       transform="matrix(0,1,1,0,-167.86218,-54.5)"
       id="layer1-6-9"
       inkscape:label="Layer 1">
      <path
         d="m 58.5,197.86218 c 0,0 0,-5 0,-5 0,0 0,-6 4,-6 4,0 4,6 4,6 0,0 0,-6 4,-6 4,0 4,6 4,6 0,0 0,-6 4,-6 4,0 4,6 4,6 0,0 0,-6 4,-6 4,0 3.99999,6 4,6 0,0 0,5 0,5"
         sodipodi:nodetypes="ccccccccccc"
         id="path3387-0"
         style="fill:none;stroke:#000000;stroke-width:1px;stroke-linecap:butt;stroke-linejoin:miter;stroke-opacity:1" />
      <rect
         id="rect26128-1-2"
         width="0"
         height="1"
         x="593"
         y="223.36218"
         ry="1"
         style="fill:#0000ff;fill-rule:evenodd;stroke:#000000;stroke-width:1px;stroke-linecap:butt;stroke-linejoin:miter;stroke-opacity:1"
         rx="12.5" />
      <path
         sodipodi:nodetypes="cc"
         id="path2384-8"
         d="m 58.5,184.86218 32,0"
         style="fill:none;stroke:#000000;stroke-width:1px;stroke-linecap:butt;stroke-linejoin:miter;stroke-opacity:1" />
    </g>
  </g>
</svg>
