<?xml version="1.0" encoding="UTF-8" standalone="no"?>
<!-- Created with Inkscape (http://www.inkscape.org/) -->

<svg
   xmlns:dc="http://purl.org/dc/elements/1.1/"
   xmlns:cc="http://creativecommons.org/ns#"
   xmlns:rdf="http://www.w3.org/1999/02/22-rdf-syntax-ns#"
   xmlns:svg="http://www.w3.org/2000/svg"
   xmlns="http://www.w3.org/2000/svg"
   xmlns:sodipodi="http://sodipodi.sourceforge.net/DTD/sodipodi-0.dtd"
   xmlns:inkscape="http://www.inkscape.org/namespaces/inkscape"
   width="25"
   height="40"
   id="svg2541"
   sodipodi:version="0.32"
   inkscape:version="0.47pre4 r22446"
   version="1.0"
   sodipodi:docname="transformer2.svg"
   inkscape:output_extension="org.inkscape.output.svg.inkscape">
  <defs
     id="defs2543">
    <inkscape:perspective
       sodipodi:type="inkscape:persp3d"
       inkscape:vp_x="0 : 20 : 1"
       inkscape:vp_y="0 : 1000 : 0"
       inkscape:vp_z="25 : 20 : 1"
       inkscape:persp3d-origin="12.5 : 13.333333 : 1"
       id="perspective24" />
  </defs>
  <sodipodi:namedview
     id="base"
     pagecolor="#ffffff"
     bordercolor="#666666"
     borderopacity="1.0"
     inkscape:pageopacity="0.0"
     inkscape:pageshadow="2"
     inkscape:zoom="12.660691"
     inkscape:cx="4.7379686"
     inkscape:cy="18.105747"
     inkscape:current-layer="layer1"
     showgrid="true"
     inkscape:document-units="px"
     inkscape:grid-bbox="true"
     inkscape:window-width="1280"
     inkscape:window-height="975"
     inkscape:window-x="0"
     inkscape:window-y="25"
     objecttolerance="10"
     gridtolerance="10000"
     guidetolerance="10"
     inkscape:window-maximized="0">
    <inkscape:grid
       type="xygrid"
       id="grid2551"
       visible="true"
       enabled="true"
       empspacing="5"
       snapvisiblegridlinesonly="true" />
  </sodipodi:namedview>
  <metadata
     id="metadata2546">
    <rdf:RDF>
      <cc:Work
         rdf:about="">
        <dc:format>image/svg+xml</dc:format>
        <dc:type
           rdf:resource="http://purl.org/dc/dcmitype/StillImage" />
        <dc:title />
      </cc:Work>
    </rdf:RDF>
  </metadata>
  <g
     id="layer1"
     inkscape:label="Layer 1"
     inkscape:groupmode="layer">
    <rect
       rx="12.501719"
       style="fill:#0000ff;fill-rule:evenodd;stroke:#000000;stroke-width:1px;stroke-linecap:butt;stroke-linejoin:miter;stroke-opacity:1"
       ry="1"
       y="22.500002"
       x="531.07251"
       height="1"
       width="0"
       id="rect26128"
       transform="matrix(0,1,-1,0,0,0)" />
    <rect
       rx="12.506055"
       style="fill:#0000ff;fill-rule:evenodd;stroke:#000000;stroke-width:0.99999988px;stroke-linecap:butt;stroke-linejoin:miter;stroke-opacity:1"
       ry="1.0364619"
       y="51.057404"
       x="531.23834"
       height="1.0364619"
       width="0"
       id="rect2571"
       transform="matrix(0,1,1,0,0,0)" />
    <g
       transform="matrix(0,1,-1,0,170.50271,-227.14048)"
       id="layer1-3"
       inkscape:label="Layer 1">
      <path
         sodipodi:nodetypes="cc"
         id="path3440"
         d="m 234.14048,170.50271 0,-5"
         style="fill:none;stroke:#000000;stroke-width:0.99999988;stroke-linecap:butt;stroke-linejoin:miter;stroke-miterlimit:4;stroke-opacity:1;stroke-dasharray:none" />
      <path
         sodipodi:open="true"
         sodipodi:end="3.9793507"
         sodipodi:start="0"
         sodipodi:type="arc"
         style="fill:none;stroke:#000000;stroke-width:1.80330884;stroke-linecap:butt;stroke-miterlimit:4;stroke-opacity:1;stroke-dasharray:none"
         id="path3438-8"
         sodipodi:cx="254.40298"
         sodipodi:cy="171.2402"
         sodipodi:rx="8.1614161"
         sodipodi:ry="6.3752127"
         d="m 262.5644,171.2402 c 0,3.52094 -3.65399,6.37522 -8.16142,6.37522 -4.50742,0 -8.16141,-2.85428 -8.16141,-6.37522 0,-1.80679 0.98145,-3.52872 2.70036,-4.7377"
         transform="matrix(-0.49011102,0,0,-0.62743005,362.82571,272.94438)" />
      <path
         sodipodi:open="true"
         sodipodi:end="10.262536"
         sodipodi:start="5.4454273"
         sodipodi:type="arc"
         style="fill:none;stroke:#000000;stroke-width:1.80330884;stroke-linecap:butt;stroke-miterlimit:4;stroke-opacity:1;stroke-dasharray:none"
         id="path3438-8-2"
         sodipodi:cx="254.40298"
         sodipodi:cy="171.2402"
         sodipodi:rx="8.1614161"
         sodipodi:ry="6.3752127"
         d="m 259.86404,166.5025 c 3.34967,2.35596 3.62012,6.38699 0.60406,9.00355 -3.01606,2.61657 -8.1765,2.82782 -11.52617,0.47186 -3.34967,-2.35596 -3.62012,-6.38699 -0.60406,-9.00356 0.19067,-0.16541 0.3923,-0.32291 0.60406,-0.47185"
         transform="matrix(-0.49011102,0,0,-0.62743005,368.82571,272.94438)" />
      <path
         sodipodi:open="true"
         sodipodi:end="10.262536"
         sodipodi:start="5.4454273"
         sodipodi:type="arc"
         style="fill:none;stroke:#000000;stroke-width:1.80330884;stroke-linecap:butt;stroke-miterlimit:4;stroke-opacity:1;stroke-dasharray:none"
         id="path3438-8-7"
         sodipodi:cx="254.40298"
         sodipodi:cy="171.2402"
         sodipodi:rx="8.1614161"
         sodipodi:ry="6.3752127"
         d="m 259.86404,166.5025 c 3.34967,2.35596 3.62012,6.38699 0.60406,9.00355 -3.01606,2.61657 -8.1765,2.82782 -11.52617,0.47186 -3.34967,-2.35596 -3.62012,-6.38699 -0.60406,-9.00356 0.19067,-0.16541 0.3923,-0.32291 0.60406,-0.47185"
         transform="matrix(-0.49011102,0,0,-0.62743005,374.82571,272.94438)" />
      <path
         sodipodi:open="true"
         sodipodi:end="9.424778"
         sodipodi:start="5.4454273"
         sodipodi:type="arc"
         style="fill:none;stroke:#000000;stroke-width:1.80330884;stroke-linecap:butt;stroke-miterlimit:4;stroke-opacity:1;stroke-dasharray:none"
         id="path3438-8-6"
         sodipodi:cx="254.40298"
         sodipodi:cy="171.2402"
         sodipodi:rx="8.1614161"
         sodipodi:ry="6.3752127"
         d="m 259.86404,166.5025 c 3.34967,2.35596 3.62012,6.38699 0.60406,9.00355 -3.01606,2.61657 -8.1765,2.82782 -11.52617,0.47186 -1.71891,-1.20898 -2.70036,-2.93092 -2.70036,-4.73771"
         transform="matrix(-0.49011102,0,0,-0.62743005,380.82571,272.94438)" />
      <path
         sodipodi:nodetypes="cc"
         id="path3440-6"
         d="m 260.14048,165.50271 0,5"
         style="fill:none;stroke:#000000;stroke-width:0.99999988;stroke-linecap:butt;stroke-linejoin:miter;stroke-miterlimit:4;stroke-opacity:1;stroke-dasharray:none" />
    </g>
    <g
       transform="matrix(0,1,1,0,-145.50271,-227.14048)"
       id="layer1-3-2"
       inkscape:label="Layer 1">
      <path
         sodipodi:nodetypes="cc"
         id="path3440-9"
         d="m 234.14048,170.50271 0,-5"
         style="fill:none;stroke:#000000;stroke-width:0.99999988;stroke-linecap:butt;stroke-linejoin:miter;stroke-miterlimit:4;stroke-opacity:1;stroke-dasharray:none" />
      <path
         sodipodi:open="true"
         sodipodi:end="3.9793507"
         sodipodi:start="0"
         sodipodi:type="arc"
         style="fill:none;stroke:#000000;stroke-width:1.80330884;stroke-linecap:butt;stroke-miterlimit:4;stroke-opacity:1;stroke-dasharray:none"
         id="path3438-8-0"
         sodipodi:cx="254.40298"
         sodipodi:cy="171.2402"
         sodipodi:rx="8.1614161"
         sodipodi:ry="6.3752127"
         d="m 262.5644,171.2402 c 0,3.52094 -3.65399,6.37522 -8.16142,6.37522 -4.50742,0 -8.16141,-2.85428 -8.16141,-6.37522 0,-1.80679 0.98145,-3.52872 2.70036,-4.7377"
         transform="matrix(-0.49011102,0,0,-0.62743005,362.82571,272.94438)" />
      <path
         sodipodi:open="true"
         sodipodi:end="10.262536"
         sodipodi:start="5.4454273"
         sodipodi:type="arc"
         style="fill:none;stroke:#000000;stroke-width:1.80330884;stroke-linecap:butt;stroke-miterlimit:4;stroke-opacity:1;stroke-dasharray:none"
         id="path3438-8-2-5"
         sodipodi:cx="254.40298"
         sodipodi:cy="171.2402"
         sodipodi:rx="8.1614161"
         sodipodi:ry="6.3752127"
         d="m 259.86404,166.5025 c 3.34967,2.35596 3.62012,6.38699 0.60406,9.00355 -3.01606,2.61657 -8.1765,2.82782 -11.52617,0.47186 -3.34967,-2.35596 -3.62012,-6.38699 -0.60406,-9.00356 0.19067,-0.16541 0.3923,-0.32291 0.60406,-0.47185"
         transform="matrix(-0.49011102,0,0,-0.62743005,368.82571,272.94438)" />
      <path
         sodipodi:open="true"
         sodipodi:end="10.262536"
         sodipodi:start="5.4454273"
         sodipodi:type="arc"
         style="fill:none;stroke:#000000;stroke-width:1.80330884;stroke-linecap:butt;stroke-miterlimit:4;stroke-opacity:1;stroke-dasharray:none"
         id="path3438-8-7-0"
         sodipodi:cx="254.40298"
         sodipodi:cy="171.2402"
         sodipodi:rx="8.1614161"
         sodipodi:ry="6.3752127"
         d="m 259.86404,166.5025 c 3.34967,2.35596 3.62012,6.38699 0.60406,9.00355 -3.01606,2.61657 -8.1765,2.82782 -11.52617,0.47186 -3.34967,-2.35596 -3.62012,-6.38699 -0.60406,-9.00356 0.19067,-0.16541 0.3923,-0.32291 0.60406,-0.47185"
         transform="matrix(-0.49011102,0,0,-0.62743005,374.82571,272.94438)" />
      <path
         sodipodi:open="true"
         sodipodi:end="9.424778"
         sodipodi:start="5.4454273"
         sodipodi:type="arc"
         style="fill:none;stroke:#000000;stroke-width:1.80330884;stroke-linecap:butt;stroke-miterlimit:4;stroke-opacity:1;stroke-dasharray:none"
         id="path3438-8-6-4"
         sodipodi:cx="254.40298"
         sodipodi:cy="171.2402"
         sodipodi:rx="8.1614161"
         sodipodi:ry="6.3752127"
         d="m 259.86404,166.5025 c 3.34967,2.35596 3.62012,6.38699 0.60406,9.00355 -3.01606,2.61657 -8.1765,2.82782 -11.52617,0.47186 -1.71891,-1.20898 -2.70036,-2.93092 -2.70036,-4.73771"
         transform="matrix(-0.49011102,0,0,-0.62743005,380.82571,272.94438)" />
      <path
         sodipodi:nodetypes="cc"
         id="path3440-6-1"
         d="m 260.14048,165.50271 0,5"
         style="fill:none;stroke:#000000;stroke-width:0.99999988;stroke-linecap:butt;stroke-linejoin:miter;stroke-miterlimit:4;stroke-opacity:1;stroke-dasharray:none" />
    </g>
  </g>
</svg>
