<?xml version="1.0" encoding="UTF-8" standalone="no"?>
<!-- Created with Inkscape (http://www.inkscape.org/) -->

<svg
   xmlns:dc="http://purl.org/dc/elements/1.1/"
   xmlns:cc="http://creativecommons.org/ns#"
   xmlns:rdf="http://www.w3.org/1999/02/22-rdf-syntax-ns#"
   xmlns:svg="http://www.w3.org/2000/svg"
   xmlns="http://www.w3.org/2000/svg"
   xmlns:sodipodi="http://sodipodi.sourceforge.net/DTD/sodipodi-0.dtd"
   xmlns:inkscape="http://www.inkscape.org/namespaces/inkscape"
   width="25"
   height="60"
   id="svg2468"
   sodipodi:version="0.32"
   inkscape:version="0.47pre4 r22446"
   version="1.0"
   sodipodi:docname="transformer1_center_tap.svg"
   inkscape:output_extension="org.inkscape.output.svg.inkscape">
  <defs
     id="defs2470" />
  <sodipodi:namedview
     id="base"
     pagecolor="#ffffff"
     bordercolor="#666666"
     borderopacity="1.0"
     inkscape:pageopacity="0.0"
     inkscape:pageshadow="2"
     inkscape:zoom="11.313709"
     inkscape:cx="14.990374"
     inkscape:cy="27.023753"
     inkscape:current-layer="layer1"
     showgrid="true"
     inkscape:document-units="px"
     inkscape:grid-bbox="true"
     inkscape:window-width="1280"
     inkscape:window-height="975"
     inkscape:window-x="0"
     inkscape:window-y="25"
     gridtolerance="10000"
     guidetolerance="10"
     objecttolerance="10"
     inkscape:window-maximized="0">
    <inkscape:grid
       type="xygrid"
       id="grid2491"
       visible="true"
       enabled="true"
       empspacing="5"
       snapvisiblegridlinesonly="true" />
  </sodipodi:namedview>
  <metadata
     id="metadata2473">
    <rdf:RDF>
      <cc:Work
         rdf:about="">
        <dc:format>image/svg+xml</dc:format>
        <dc:type
           rdf:resource="http://purl.org/dc/dcmitype/StillImage" />
        <dc:title />
      </cc:Work>
    </rdf:RDF>
  </metadata>
  <g
     id="layer1"
     inkscape:label="Layer 1"
     inkscape:groupmode="layer">
    <rect
       rx="12.501719"
       style="fill:#0000ff;fill-rule:evenodd;stroke:#000000;stroke-width:1px;stroke-linecap:butt;stroke-linejoin:miter;stroke-opacity:1"
       ry="1"
       y="-22.499998"
       x="541.07251"
       height="1"
       width="0"
       id="rect26128-0"
       transform="matrix(0,1,-1,0,0,0)" />
    <rect
       rx="12.506055"
       style="fill:#0000ff;fill-rule:evenodd;stroke:#000000;stroke-width:0.99999988px;stroke-linecap:butt;stroke-linejoin:miter;stroke-opacity:1"
       ry="1.0364619"
       y="96.057404"
       x="541.23834"
       height="1.0364619"
       width="0"
       id="rect2571"
       transform="matrix(0,1,1,0,0,0)" />
    <g
       transform="matrix(0,-1,1,0,-171.86218,96.5)"
       id="layer1-8"
       inkscape:label="Layer 1">
      <path
         d="m 66.5,191.86218 c 0,0 0,-5 4,-5 4,0 4,5 4,5 0,0 0,-5 4,-5 4,0 4,5 4,5 0,0 0,-5 4,-5 4,0 3.99999,5 4,5 0,0 0,5 0,5"
         sodipodi:nodetypes="cccccccc"
         id="path3387-5"
         style="fill:none;stroke:#000000;stroke-width:1px;stroke-linecap:butt;stroke-linejoin:miter;stroke-opacity:1" />
      <rect
         id="rect26128-7"
         width="0"
         height="1"
         x="593"
         y="223.36218"
         ry="1"
         style="fill:#0000ff;fill-rule:evenodd;stroke:#000000;stroke-width:1px;stroke-linecap:butt;stroke-linejoin:miter;stroke-opacity:1"
         rx="12.5" />
    </g>
    <g
       transform="matrix(0,-1,-1,0,196.86218,104.5)"
       id="layer1-8-3"
       inkscape:label="Layer 1">
      <path
         d="m 58.5,196.86218 c 0,0 0,-5 0,-5 0,0 0,-5 4,-5 4,0 4,5 4,5 0,0 0,-5 4,-5 4,0 4,5 4,5 0,0 0,-5 4,-5 4,0 4,5 4,5 0,0 0,-5 4,-5 4,0 3.99999,5 4,5 0,0 0,5 0,5"
         sodipodi:nodetypes="ccccccccccc"
         id="path3387-5-8"
         style="fill:none;stroke:#000000;stroke-width:1px;stroke-linecap:butt;stroke-linejoin:miter;stroke-opacity:1" />
      <rect
         id="rect26128-7-8"
         width="0"
         height="1"
         x="593"
         y="223.36218"
         ry="1"
         style="fill:#0000ff;fill-rule:evenodd;stroke:#000000;stroke-width:1px;stroke-linecap:butt;stroke-linejoin:miter;stroke-opacity:1"
         rx="12.5" />
    </g>
    <g
       transform="matrix(0,1,1,0,-171.86218,-36.5)"
       id="layer1-8-5"
       inkscape:label="Layer 1">
      <path
         d="m 66.5,191.86218 c 0,0 0,-5 4,-5 4,0 4,5 4,5 0,0 0,-5 4,-5 4,0 4,5 4,5 0,0 0,-5 4,-5 4,0 3.99999,5 4,5 0,0 0,5 0,5"
         sodipodi:nodetypes="cccccccc"
         id="path3387-5-87"
         style="fill:none;stroke:#000000;stroke-width:1px;stroke-linecap:butt;stroke-linejoin:miter;stroke-opacity:1" />
      <rect
         id="rect26128-7-0"
         width="0"
         height="1"
         x="593"
         y="223.36218"
         ry="1"
         style="fill:#0000ff;fill-rule:evenodd;stroke:#000000;stroke-width:1px;stroke-linecap:butt;stroke-linejoin:miter;stroke-opacity:1"
         rx="12.5" />
    </g>
    <path
       style="fill:none;stroke:#000000;stroke-width:1;stroke-linecap:butt;stroke-linejoin:miter;stroke-miterlimit:4;stroke-opacity:1;stroke-dasharray:none;stroke-dashoffset:0"
       d="M 20.004105,29.99768 25,30"
       id="path2897" />
  </g>
</svg>
