%
M48
METRIC,000.000
T01C0.30
T02C0.50
T03C3.20
T10C0.20
T11C0.40
T12C0.60
T13C0.80
T14C1.00
%
T01
X000401Y038400
X000401Y031999
X000401Y027699
X000401Y021300
X000401Y017099
X000401Y010698
X001099Y038400
X001099Y031999
X001099Y027699
X001099Y021300
X001099Y017099
X001099Y010698
X001800Y038400
X001800Y031999
X001800Y027699
X001800Y021300
X001800Y017099
X001800Y010698
X002499Y038400
X002499Y031999
X002499Y027699
X002499Y021300
X002499Y017099
X002499Y010698
X003200Y038400
X003200Y031999
X003200Y027699
X003200Y021300
X003200Y017099
X003200Y010698
X003898Y038400
X003898Y031999
X003898Y027699
X003898Y021300
X003898Y017099
X003898Y010698
X004500Y025601
X004500Y023500
X004599Y036200
X004599Y034199
X004698Y014900
X004800Y012799
X005199Y025601
X005199Y023500
X005300Y036200
X005300Y034199
X005399Y014900
X005498Y012799
X005900Y025601
X005900Y023500
X005999Y036200
X005999Y034199
X006100Y014900
X006199Y012799
X006598Y025601
X006598Y023500
X006700Y036200
X006700Y034199
X006799Y014900
X006901Y012799
X007299Y025601
X007299Y023500
X007398Y036200
X007398Y034199
X007500Y014900
X007599Y012799
X008000Y025601
X008000Y023500
X008099Y036200
X008099Y034199
X008198Y014900
X008300Y012799
X008699Y025601
X008699Y023500
X008800Y036200
X008800Y034199
X008900Y014900
X008999Y012799
X009400Y025601
X009400Y023500
X009499Y036200
X009499Y034199
X009601Y014900
X009700Y012799
X010098Y025601
X010098Y023500
X010200Y036200
X010200Y034199
X010299Y014900
X010401Y012799
X010799Y025601
X010799Y023500
X010899Y036200
X010899Y034199
X011000Y014900
X011099Y012799
X011500Y025601
X011500Y023500
X011600Y036200
X011600Y034199
X011699Y014900
X011800Y012799
X012199Y025601
X012199Y023500
X012301Y036200
X012301Y034199
X012400Y014900
X012499Y012799
X012900Y025601
X012900Y023500
X012999Y036200
X012999Y034199
X013101Y014900
X013200Y012799
X013599Y025601
X013599Y023500
X013700Y036200
X013700Y034199
X013799Y014900
X013898Y012799
X014300Y025601
X014300Y023500
X014399Y036200
X014399Y034199
X014500Y014900
X014599Y012799
X015001Y025601
X015001Y023500
X015100Y036200
X015100Y034199
X015199Y014900
X015300Y012799
X015699Y025601
X015699Y023500
X015801Y036200
X015801Y034199
X015900Y014900
X015999Y012799
X016400Y025601
X016400Y023500
X016423Y004006
X016423Y003307
X016423Y002606
X016423Y001905
X016423Y001206
X016423Y000500
X016499Y036200
X016499Y034199
X016598Y014900
X016700Y012799
X017099Y025601
X017099Y023500
X017200Y036200
X017200Y034199
X017299Y014900
X017398Y012799
X017800Y025601
X017800Y023500
X017899Y036200
X017899Y034199
X018000Y014900
X018099Y012799
X018501Y025601
X018501Y023500
X018600Y036200
X018600Y034199
X018600Y007800
X018600Y007099
X018600Y006401
X018600Y005700
X018600Y004999
X018699Y014900
X018800Y012799
X019100Y008301
X019199Y025601
X019199Y023500
X019298Y036200
X019298Y034199
X019400Y014900
X019499Y012799
X019601Y008799
X019900Y025601
X019900Y023500
X019999Y036200
X019999Y034199
X020098Y014900
X020098Y009299
X020200Y012799
X020599Y025601
X020599Y023500
X020599Y009799
X020599Y006800
X020599Y006099
X020599Y005400
X020599Y004699
X020700Y036200
X020700Y034199
X020799Y014900
X020898Y012799
X021099Y007300
X021300Y025601
X021300Y023500
X021300Y009898
X021399Y036200
X021399Y034199
X021500Y014900
X021600Y012799
X021600Y007800
X021998Y025601
X021998Y023500
X021998Y009898
X022100Y036200
X022100Y034199
X022199Y014900
X022301Y012799
X022301Y007800
X022699Y025601
X022699Y023500
X022699Y009898
X022798Y036200
X022798Y034199
X022844Y004013
X022844Y003312
X022844Y002611
X022844Y001913
X022844Y001212
X022844Y000500
X022900Y014900
X022999Y012799
X022999Y007800
X023400Y025601
X023400Y023500
X023400Y009898
X023499Y036200
X023499Y034199
X023598Y014900
X023700Y012799
X023700Y007800
X024099Y025601
X024099Y023500
X024099Y009898
X024200Y036200
X024200Y034199
X024300Y014900
X024399Y012799
X024399Y007800
X024800Y025601
X024800Y023500
X024800Y009898
X024899Y036200
X024899Y034199
X025001Y014900
X025100Y012799
X025100Y007800
X025498Y025601
X025498Y023500
X025600Y036200
X025600Y034199
X026199Y025601
X026199Y023500
X026299Y036200
X026299Y034199
X026900Y025601
X026900Y023500
X027000Y036200
X027000Y034199
X027599Y025601
X027599Y023500
X027701Y036200
X027701Y034199
X028300Y025601
X028300Y023500
X028399Y036200
X028399Y034199
X028999Y025601
X028999Y023500
X029100Y036200
X029100Y034199
X029700Y025601
X029700Y023500
X029799Y036200
X029799Y034199
X029900Y014399
X029900Y012901
X029900Y011399
X029900Y009898
X029900Y008400
X030401Y025601
X030401Y023500
X030500Y036200
X030500Y034199
X031099Y025601
X031099Y023500
X031201Y036200
X031201Y034199
X031800Y025601
X031800Y023500
X031899Y036200
X031899Y034199
X032499Y025601
X032499Y023500
X032600Y036200
X032600Y034199
X033200Y025601
X033200Y023500
X033299Y036200
X033299Y034199
X033901Y025601
X033901Y023500
X034000Y036200
X034000Y034199
X034599Y025601
X034599Y023500
X034698Y036200
X034698Y034199
X034800Y014900
X034800Y012799
X035300Y025601
X035300Y023500
X035399Y036200
X035399Y034199
X035498Y014900
X035498Y012799
X035999Y025601
X035999Y023500
X036100Y036200
X036100Y034199
X036199Y014900
X036199Y012799
X036700Y025601
X036700Y023500
X036799Y036200
X036799Y034199
X036900Y014900
X036900Y012799
X037398Y025601
X037398Y023500
X037500Y036200
X037500Y034199
X037599Y014900
X037599Y012799
X038099Y025601
X038099Y023500
X038198Y036200
X038198Y034199
X038300Y014900
X038300Y012799
X038800Y025601
X038800Y023500
X038899Y036200
X038899Y034199
X038999Y014900
X038999Y012799
X039499Y025601
X039499Y023500
X039600Y036200
X039600Y034199
X039700Y014900
X039700Y012799
X040200Y025601
X040200Y023500
X040299Y036200
X040299Y034199
X040401Y014900
X040401Y012799
X040898Y025601
X040898Y023500
X041000Y036200
X041000Y034199
X041099Y014900
X041099Y012799
X041599Y025601
X041599Y023500
X041699Y036200
X041699Y034199
X041800Y014900
X041800Y012799
X042301Y025601
X042301Y023500
X042400Y036200
X042400Y034199
X042499Y014900
X042499Y012799
X042999Y025601
X042999Y023500
X043101Y036200
X043101Y034199
X043200Y014900
X043200Y012799
X044000Y017099
X044000Y010698
X044099Y038400
X044099Y031999
X044099Y027699
X044099Y021300
X044698Y017099
X044698Y010698
X044800Y038400
X044800Y031999
X044800Y027699
X044800Y021300
X045399Y017099
X045399Y010698
X045498Y038400
X045498Y031999
X045498Y027699
X045498Y021300
X046100Y017099
X046100Y010698
X046199Y038400
X046199Y031999
X046199Y027699
X046199Y021300
X046799Y017099
X046799Y010698
X046900Y038400
X046900Y031999
X046900Y027699
X046900Y021300
X047500Y017099
X047500Y010698
X047599Y038400
X047599Y031999
X047599Y027699
X047599Y021300
X074651Y028951
X074651Y026550
X074600Y032949
X074600Y030548
X082149Y025250
X082149Y024249
X082649Y024749
X083150Y025250
X083150Y024249
X066050Y025750
X066050Y024749
X066551Y025250
X067049Y025750
X067049Y024749
X074600Y022949
X074600Y020548
X074600Y019027
X074600Y016627
X065149Y073589
X066850Y078520
X073858Y077892
X073980Y072220
X074951Y077892
X075090Y072220
X076071Y074920
X076160Y077440
X076213Y076866
X076660Y081220
X077026Y073274
X077399Y071725
X077399Y070673
X077739Y081220
X077818Y072624
X078395Y072622
X078720Y083290
X078890Y080770
X078971Y072647
X079510Y072444
X079820Y083290
X080874Y068923
X080980Y081819
X081049Y071809
X082070Y081829
X083350Y081819
X084440Y081799
X086599Y074499
X087198Y076350
X087198Y074499
X087800Y076350
X087800Y074499
X088400Y076350
X088400Y074499
X088999Y076350
X088999Y074499
X089599Y076350
X089599Y074499
X090201Y076350
X090201Y074499
X090800Y076350
X090800Y074499
X091400Y076350
X091400Y074499
X091999Y076350
X091999Y074499
X092499Y076350
X092499Y074499
X093099Y076350
X093099Y074499
X093698Y076350
X093698Y074499
X094249Y077900
X094300Y076350
X094300Y074499
X094349Y073099
X094699Y077900
X094801Y073099
X095149Y077900
X095250Y073099
X095601Y077900
X095700Y073099
X096050Y077900
X096149Y073099
X096500Y077900
X096599Y073099
X096949Y077900
X097049Y073099
X097399Y077900
X097501Y073099
X097849Y077900
X097950Y073099
X078186Y076663
X078186Y075662
X078186Y074661
X079187Y076663
X079187Y075662
X079187Y074661
X080188Y076663
X080188Y075662
X080188Y074661
T02
X002600Y004999
X003301Y006695
X003301Y003302
X005001Y007399
X005001Y002598
X006697Y006695
X006697Y003302
X007398Y004999
X002600Y043000
X003301Y044696
X003301Y041303
X005001Y045400
X005001Y040599
X006697Y044696
X006697Y041303
X007398Y043000
X040599Y004999
X041302Y006695
X041302Y003302
X042999Y007399
X042999Y002598
X044696Y006695
X044696Y003302
X045399Y004999
X040599Y043000
X041302Y044696
X041302Y041303
X042999Y045400
X042999Y040599
X044696Y044696
X044696Y041303
X045399Y043000
X053000Y042999
X053703Y044696
X053703Y041303
X055400Y045400
X055400Y040599
X057097Y044696
X057097Y041303
X057800Y042999
X053000Y004998
X053703Y006698
X053703Y003302
X055400Y007399
X055400Y002601
X057097Y006698
X057097Y003302
X057800Y004998
X091001Y004998
X091702Y006698
X091702Y003302
X093398Y007399
X093398Y002601
X095098Y006698
X095098Y003302
X095799Y004998
X091001Y042999
X091702Y044696
X091702Y041303
X093398Y045400
X093398Y040599
X095098Y044696
X095098Y041303
X095799Y042999
X040600Y055400
X041303Y057097
X041303Y053703
X043000Y057800
X043000Y053000
X044697Y057097
X044697Y053703
X045401Y055400
X002599Y055400
X003303Y057097
X003303Y053703
X004999Y057800
X004999Y053000
X006696Y057097
X006696Y053703
X007400Y055400
X040600Y093398
X041303Y095098
X041303Y091702
X043000Y095799
X043000Y091001
X044697Y095098
X044697Y091702
X045401Y093398
X002599Y093398
X003303Y095098
X003303Y091702
X004999Y095799
X004999Y091001
X006696Y095098
X006696Y091702
X007400Y093398
X090998Y093399
X091702Y095096
X091702Y091702
X093399Y095799
X093399Y090999
X095098Y095096
X095098Y091702
X095799Y093399
X053000Y093399
X053703Y095096
X053703Y091702
X055400Y095799
X055400Y090999
X057097Y095096
X057097Y091702
X057800Y093399
X090998Y055400
X091702Y057097
X091702Y053701
X093399Y057798
X093399Y053000
X095098Y057097
X095098Y053701
X095799Y055400
X053000Y055400
X053703Y057097
X053703Y053701
X055400Y057798
X055400Y053000
X057097Y057097
X057097Y053701
X057800Y055400
T03
X005001Y043000
X042999Y004999
X042999Y043000
X005001Y004999
X055400Y042999
X055400Y004998
X093398Y004998
X093398Y042999
X043000Y055400
X004999Y055400
X043000Y093398
X004999Y093398
X093399Y093399
X055400Y093399
X093399Y055400
X055400Y055400
T10
X050699Y028300
X050699Y021801
X051199Y028300
X051199Y021801
X051699Y028300
X051699Y021801
X051900Y040000
X051900Y034998
X051900Y030000
X051900Y020000
X051900Y014998
X051900Y010000
X052200Y028300
X052200Y021801
X052700Y028300
X052700Y021801
X053200Y028300
X053200Y021801
X053698Y028300
X053698Y021801
X054199Y028300
X054199Y021801
X054399Y037500
X054399Y032499
X054399Y017500
X054399Y012499
X054900Y025900
X054900Y024099
X055400Y027500
X055400Y025900
X055400Y024099
X055400Y022499
X055900Y025900
X055900Y025900
X055900Y025900
X055900Y024099
X055900Y024099
X055900Y024099
X056398Y025900
X056398Y024099
X056899Y034998
X056899Y030000
X056899Y025900
X056899Y024099
X056899Y020000
X056899Y014998
X056899Y010000
X057399Y025900
X057399Y024099
X057899Y025900
X057899Y024099
X058400Y025900
X058400Y024099
X058900Y025900
X058900Y024099
X059401Y045499
X059401Y040500
X059401Y037500
X059401Y032499
X059401Y025900
X059401Y024099
X059401Y017500
X059401Y012499
X059401Y007500
X059401Y002499
X059898Y025900
X059898Y024099
X060399Y027500
X060399Y025900
X060399Y024099
X060399Y022499
X060899Y025900
X060899Y024099
X061300Y016799
X061400Y025900
X061400Y024099
X061900Y042999
X061900Y040000
X061900Y034998
X061900Y030000
X061900Y025900
X061900Y024099
X061900Y020000
X061900Y010000
X061900Y004998
X063099Y018100
X064399Y045499
X064399Y040500
X064399Y037500
X064399Y032499
X064399Y007500
X064900Y027698
X065199Y022400
X065250Y028300
X065751Y028750
X065751Y021849
X066248Y029200
X066248Y021300
X066749Y029751
X066749Y020800
X066899Y042999
X066899Y040000
X066899Y034998
X066899Y010000
X067249Y030200
X067699Y030701
X067699Y019850
X068148Y023050
X068199Y031150
X068349Y028750
X068600Y018951
X068649Y031651
X068900Y028750
X068948Y029349
X069098Y032148
X069401Y040500
X069401Y037500
X069401Y012499
X069401Y007500
X069401Y002499
X069449Y029799
X069449Y028750
X069449Y018151
X069599Y032649
X069799Y020299
X069898Y030299
X069898Y017650
X070000Y028750
X070099Y032799
X070201Y026898
X070351Y030800
X070351Y017150
X070399Y020851
X070500Y046599
X070500Y028750
X070599Y032799
X070650Y019448
X070698Y026898
X070899Y030851
X070950Y016799
X071001Y028750
X071100Y032799
X071199Y026898
X071199Y018999
X071300Y044300
X071400Y030851
X071499Y028750
X071600Y032799
X071600Y022298
X071699Y026898
X071699Y020650
X071900Y040000
X071900Y034998
X071900Y014998
X071900Y010000
X071900Y004998
X073299Y046599
X074399Y040500
X074399Y037500
X074399Y012499
X074399Y007500
X074399Y002499
X075601Y046599
X076899Y040000
X076899Y034998
X076899Y014998
X076899Y010000
X076899Y004998
X077501Y044300
X077501Y026898
X077501Y020899
X077501Y018699
X077501Y016898
X077549Y022649
X077600Y028750
X077650Y032700
X077899Y030851
X077998Y026898
X077998Y020899
X077998Y018699
X077998Y016898
X078100Y028750
X078148Y022649
X078250Y032700
X078400Y046499
X078400Y002499
X078451Y030701
X078499Y020899
X078499Y018801
X078499Y016898
X078550Y026898
X078649Y028750
X078849Y032700
X078900Y030200
X078999Y020899
X078999Y019149
X078999Y016898
X079149Y028750
X079350Y029700
X079401Y040500
X079401Y037500
X079401Y032298
X079401Y012499
X079401Y007500
X079500Y020899
X079500Y019649
X079500Y019649
X079500Y019649
X079500Y017051
X079700Y028750
X079749Y029299
X079850Y031900
X080000Y020899
X080000Y020150
X080000Y017549
X080249Y028849
X080300Y031399
X080450Y018049
X080500Y020899
X080749Y030899
X080899Y018549
X081300Y030398
X081400Y018999
X081750Y029901
X081849Y019499
X081900Y042999
X081900Y040000
X081900Y014998
X081900Y010000
X082250Y029448
X082349Y019949
X082700Y028951
X082850Y020500
X083200Y028498
X083350Y020950
X083701Y028049
X083851Y021399
X084199Y027549
X084199Y021999
X084348Y027051
X084348Y026550
X084399Y045499
X084399Y040500
X084399Y036499
X084399Y017500
X084399Y012499
X086599Y025999
X086599Y023899
X086899Y042999
X086899Y040000
X086899Y027500
X086899Y020000
X086899Y014998
X086899Y010000
X087099Y025900
X087099Y024099
X087600Y025900
X087600Y024099
X088100Y025900
X088100Y025900
X088100Y025900
X088100Y024099
X088600Y025900
X088600Y024099
X088600Y024099
X088600Y024099
X089098Y025900
X089098Y024099
X089401Y045499
X089401Y036499
X089401Y028999
X089401Y022499
X089401Y017500
X089401Y012499
X089599Y025900
X089599Y024099
X090099Y025900
X090099Y024099
X090599Y025900
X090599Y024099
X091100Y025900
X091100Y024099
X091600Y025900
X091600Y024099
X091900Y027500
X091900Y020000
X091900Y014998
X091900Y010000
X092101Y025900
X092101Y024099
X092598Y025900
X092598Y024099
X093099Y025900
X093099Y025900
X093099Y024099
X093599Y025900
X093599Y025900
X093599Y024099
X093599Y024099
X094399Y017500
X094399Y012499
X094600Y028300
X094600Y021699
X095100Y028300
X095100Y021699
X095601Y028300
X095601Y021699
X096098Y028300
X096098Y021699
X096599Y028300
X096599Y021699
X096899Y040000
X096899Y034998
X096899Y030000
X096899Y020000
X096899Y014998
X096899Y010000
X097099Y028300
X097099Y021699
X097600Y028300
X097600Y021699
X098100Y028300
X098100Y021699
X000199Y076599
X000199Y070000
X000699Y076599
X000699Y070000
X001199Y076599
X001199Y070000
X001700Y076599
X001700Y070000
X002200Y076599
X002200Y070000
X002500Y083398
X002500Y078400
X002500Y068400
X002500Y065900
X002500Y060899
X002701Y076599
X002701Y070000
X003198Y076599
X003198Y070000
X003699Y076599
X003699Y070000
X004199Y074300
X004400Y072400
X004700Y074300
X004900Y072400
X004999Y085900
X004999Y080899
X004999Y075900
X004999Y070899
X004999Y063398
X005200Y074300
X005200Y074300
X005200Y074300
X005401Y072400
X005700Y074300
X005898Y072400
X006399Y072400
X006699Y074800
X006899Y072400
X007349Y076449
X007349Y074199
X007400Y072400
X007499Y088400
X007499Y083398
X007499Y068400
X007499Y058400
X007900Y072400
X008400Y076449
X008649Y073899
X009175Y075850
X010001Y095900
X010001Y090899
X010001Y085900
X010001Y065900
X010001Y060899
X010001Y055900
X010552Y077206
X011126Y076899
X011649Y077386
X012175Y077000
X012500Y093398
X012500Y088400
X012500Y063398
X012500Y058400
X012500Y053398
X012624Y077493
X013150Y077899
X014301Y064699
X014900Y072400
X014999Y095900
X014999Y090899
X014999Y070899
X015401Y072400
X015898Y072400
X016201Y074199
X016399Y072400
X016699Y074199
X016899Y072400
X016950Y064549
X017199Y074099
X017400Y072400
X017499Y093398
X017499Y088400
X017499Y083398
X017499Y078400
X017499Y068400
X017699Y074300
X018200Y074399
X018700Y074399
X019249Y074249
X019500Y064462
X019800Y074399
X020001Y090899
X020001Y085900
X020249Y096949
X020300Y074399
X020801Y074399
X021100Y094699
X021100Y072400
X021298Y074099
X022000Y064599
X022500Y072400
X022500Y068400
X023000Y072400
X023049Y096949
X023501Y072400
X023750Y076850
X023998Y072299
X024600Y064498
X024799Y074300
X025299Y074300
X025350Y096949
X025799Y074199
X026300Y074099
X026698Y072400
X026800Y074099
X027199Y072400
X027199Y064399
X027300Y094699
X027300Y074199
X027699Y072200
X027798Y074300
X028149Y096949
X028200Y072200
X028299Y074300
X028700Y072200
X028799Y074300
X029150Y078849
X029200Y072100
X029299Y074699
X029599Y071600
X029599Y071600
X029599Y071600
X029650Y064498
X029800Y075100
X029950Y080500
X030001Y093398
X030001Y088400
X030001Y071100
X030300Y075601
X030498Y070800
X030699Y078849
X030801Y075900
X030999Y073701
X030999Y073200
X031100Y070698
X031250Y084300
X031298Y076200
X031499Y073701
X031601Y074300
X031601Y071001
X031700Y078849
X031799Y076200
X031900Y071498
X032098Y074099
X032200Y074600
X032200Y064450
X032299Y076200
X032299Y071999
X032500Y095900
X032500Y090899
X032701Y074099
X032749Y078849
X032800Y074600
X032800Y072400
X032800Y072400
X032800Y072400
X033249Y077048
X033300Y074300
X033300Y072400
X033800Y074300
X033800Y072400
X034199Y076401
X034301Y074300
X034301Y072400
X034699Y076401
X034699Y076401
X034699Y076401
X034799Y074300
X034799Y072400
X034999Y093398
X034999Y088400
X034999Y068400
X034999Y063398
X035200Y076401
X035299Y074300
X035299Y072400
X035700Y076401
X035799Y074300
X035799Y072400
X036300Y080300
X036300Y074300
X036300Y072400
X036500Y077099
X036800Y074300
X036800Y072400
X036899Y080300
X037199Y076299
X037300Y081874
X037300Y074300
X037300Y072400
X037499Y095900
X037499Y090899
X037499Y080201
X037499Y070899
X037499Y065900
X037499Y060899
X037499Y055900
X037750Y084800
X037798Y076401
X037798Y074300
X037798Y072400
X037999Y080099
X038299Y074300
X038299Y072400
X038400Y076700
X038598Y080099
X038799Y077198
X038799Y074300
X038799Y072400
X038850Y084800
X039000Y074999
X039200Y080201
X039200Y079700
X039200Y079200
X039200Y078699
X039200Y078199
X039200Y077699
X039299Y074300
X039299Y072400
X039500Y075400
X039800Y074300
X039800Y072400
X040000Y088400
X040000Y083398
X040000Y075900
X040000Y068400
X040000Y063398
X040000Y058400
X040300Y074300
X040300Y072400
X040498Y076401
X040801Y074300
X040801Y072400
X040999Y076899
X041085Y081900
X041100Y080399
X041100Y079898
X041100Y079400
X041100Y078900
X041100Y078400
X041100Y077899
X041100Y077399
X041298Y074300
X041298Y072400
X041799Y074300
X041799Y072400
X042299Y074300
X042299Y072400
X042500Y085900
X042500Y080899
X042500Y075900
X042500Y070899
X042500Y065900
X042500Y060899
X042800Y074300
X042800Y072400
X043300Y074300
X043300Y072400
X044100Y076599
X044100Y070000
X044600Y076599
X044600Y070000
X044999Y088400
X044999Y083398
X044999Y078400
X044999Y068400
X044999Y063398
X045098Y076599
X045098Y070000
X045599Y076599
X045599Y070000
X046099Y076599
X046099Y070000
X046599Y076599
X046599Y070000
X047100Y076599
X047100Y070000
X047600Y076599
X047600Y070000
X010801Y075100
X010801Y074049
X010801Y073000
X011900Y075100
X011900Y074049
X011900Y073000
X013000Y075100
X013000Y074049
X013000Y073000
T11
X064001Y004800
X064998Y016799
X065149Y018600
X066500Y017902
X066599Y004800
X069157Y022740
X069200Y026225
X070099Y024501
X071824Y024902
X078699Y025301
X078900Y023500
X079599Y024300
X079649Y027000
X081001Y026898
X083000Y034000
X083000Y032700
X084199Y028900
X084300Y034000
X095100Y030500
X096299Y037599
X018273Y072075
X020173Y072075
X022701Y087998
X022899Y092598
X025599Y085400
X028200Y087198
X028200Y084600
X029099Y086401
X035375Y084074
X035375Y080249
X054399Y089398
X054399Y061900
X054900Y085400
X056899Y064400
X056899Y059398
X059401Y091900
X059401Y066899
X059401Y061900
X059401Y056899
X061471Y062241
X061900Y089398
X061900Y079398
X061900Y074400
X061900Y071900
X061900Y064400
X061999Y088199
X061999Y085599
X062901Y088199
X062901Y087300
X063970Y065169
X064399Y091900
X064399Y086899
X064399Y081900
X064399Y071900
X064399Y066899
X064399Y056899
X064399Y056899
X064399Y056899
X065901Y066569
X066109Y080569
X066899Y089398
X066899Y084400
X066899Y071900
X066899Y059398
X066899Y054400
X068400Y082599
X069220Y080709
X069401Y091900
X069401Y086899
X069401Y081900
X069401Y071900
X069401Y056899
X069840Y073940
X071900Y089398
X071900Y084400
X071900Y079398
X071900Y064400
X071900Y059398
X071900Y054400
X072619Y076150
X072629Y073920
X074399Y091900
X074399Y086899
X074399Y081900
X074399Y066899
X074399Y061900
X074399Y056899
X076899Y089398
X076899Y084400
X076899Y064400
X076899Y059398
X076899Y054400
X079401Y091900
X079401Y086899
X079401Y066899
X079401Y061900
X079401Y056899
X081900Y089398
X081900Y084400
X081900Y064400
X081900Y059398
X081900Y054400
X082149Y069975
X082901Y072650
X083526Y068923
X083975Y072650
X084399Y091900
X084399Y086899
X084399Y066899
X084399Y061900
X084399Y056899
X085608Y072449
X086370Y077760
X086391Y078860
X086899Y089398
X086899Y084400
X086899Y069398
X086899Y064400
X086899Y059398
X086899Y054400
X087330Y071209
X088148Y080110
X088400Y073274
X089401Y091900
X089401Y086899
X089401Y081900
X089401Y073399
X089401Y071900
X089401Y066899
X089401Y061900
X089500Y077275
X090399Y077399
X090399Y073399
X091400Y077399
X091400Y073399
X091900Y089398
X091900Y084400
X091900Y079398
X091900Y071900
X091900Y069398
X091900Y064400
X091900Y059398
X092400Y077399
X092400Y073399
X093399Y080399
X093399Y079398
X093399Y078400
X093399Y077399
X093399Y073399
X093399Y072401
X093399Y071400
X093399Y070399
X094399Y086899
X094399Y081900
X094399Y080399
X094399Y070399
X094399Y069398
X094399Y066899
X094399Y061900
X095400Y080399
X095400Y070399
X096398Y080399
X096398Y070399
X097399Y080399
X097399Y070399
T12
X072400Y044419
X076398Y044419
X022200Y094818
X026201Y094818
T13
X015700Y060945
X015700Y053025
X018240Y060945
X018240Y053025
X020780Y060945
X020780Y053025
X023320Y060945
X023320Y053025
X025860Y060945
X025860Y053025
X028400Y060945
X028400Y053025
X030940Y060945
X030940Y053025
X033480Y060945
X033480Y053025
T14
X012299Y086299
X012299Y083759
X012299Y081219
X014839Y086299
X014839Y083759
X014839Y081219
X056779Y080480
X056779Y077940
X056779Y075400
X056779Y072860
X056779Y070320
X059319Y080480
X059319Y077940
X059319Y075400
X059319Y072860
X059319Y070320
M30