%MOIN*%
%OFA0B0*%
%FSLAX44Y44*%
%IPPOS*%
%LPD*%
%ADD10C,0*%
D10*
X00021811Y00019842D02*
X00021811Y00019842D01*
X00036771Y00019842D01*
X00036943Y00019850D01*
X00037113Y00019872D01*
X00037281Y00019909D01*
X00037444Y00019961D01*
X00037603Y00020026D01*
X00037755Y00020106D01*
X00037900Y00020198D01*
X00038036Y00020303D01*
X00038163Y00020419D01*
X00038279Y00020545D01*
X00038384Y00020681D01*
X00038476Y00020826D01*
X00038555Y00020979D01*
X00038621Y00021137D01*
X00038673Y00021301D01*
X00038710Y00021469D01*
X00038732Y00021639D01*
X00038740Y00021811D01*
X00038740Y00036771D01*
X00038732Y00036943D01*
X00038710Y00037113D01*
X00038673Y00037281D01*
X00038621Y00037444D01*
X00038555Y00037603D01*
X00038476Y00037755D01*
X00038384Y00037900D01*
X00038279Y00038036D01*
X00038163Y00038163D01*
X00038036Y00038279D01*
X00037900Y00038384D01*
X00037755Y00038476D01*
X00037603Y00038555D01*
X00037444Y00038621D01*
X00037281Y00038673D01*
X00037113Y00038710D01*
X00036943Y00038732D01*
X00036771Y00038740D01*
X00021811Y00038740D01*
X00021639Y00038732D01*
X00021469Y00038710D01*
X00021301Y00038673D01*
X00021137Y00038621D01*
X00020979Y00038555D01*
X00020826Y00038476D01*
X00020681Y00038384D01*
X00020545Y00038279D01*
X00020419Y00038163D01*
X00020303Y00038036D01*
X00020198Y00037900D01*
X00020106Y00037755D01*
X00020026Y00037603D01*
X00019961Y00037444D01*
X00019909Y00037281D01*
X00019872Y00037113D01*
X00019850Y00036943D01*
X00019842Y00036771D01*
X00019842Y00021811D01*
X00019850Y00021639D01*
X00019872Y00021469D01*
X00019909Y00021301D01*
X00019961Y00021137D01*
X00020026Y00020979D01*
X00020106Y00020826D01*
X00020198Y00020681D01*
X00020303Y00020545D01*
X00020419Y00020419D01*
X00020545Y00020303D01*
X00020681Y00020198D01*
X00020826Y00020106D01*
X00020979Y00020026D01*
X00021137Y00019961D01*
X00021301Y00019909D01*
X00021469Y00019872D01*
X00021639Y00019850D01*
X00021811Y00019842D01*
X00001968Y00019842D02*
X00001968Y00019842D01*
X00016929Y00019842D01*
X00017100Y00019850D01*
X00017270Y00019872D01*
X00017438Y00019909D01*
X00017602Y00019961D01*
X00017761Y00020026D01*
X00017913Y00020106D01*
X00018058Y00020198D01*
X00018194Y00020303D01*
X00018321Y00020419D01*
X00018437Y00020545D01*
X00018541Y00020681D01*
X00018633Y00020826D01*
X00018713Y00020979D01*
X00018778Y00021137D01*
X00018830Y00021301D01*
X00018867Y00021469D01*
X00018890Y00021639D01*
X00018897Y00021811D01*
X00018897Y00036771D01*
X00018890Y00036943D01*
X00018867Y00037113D01*
X00018830Y00037281D01*
X00018778Y00037444D01*
X00018713Y00037603D01*
X00018633Y00037755D01*
X00018541Y00037900D01*
X00018437Y00038036D01*
X00018321Y00038163D01*
X00018194Y00038279D01*
X00018058Y00038384D01*
X00017913Y00038476D01*
X00017761Y00038555D01*
X00017602Y00038621D01*
X00017438Y00038673D01*
X00017270Y00038710D01*
X00017100Y00038732D01*
X00016929Y00038740D01*
X00001968Y00038740D01*
X00001796Y00038732D01*
X00001626Y00038710D01*
X00001459Y00038673D01*
X00001295Y00038621D01*
X00001136Y00038555D01*
X00000984Y00038476D01*
X00000839Y00038384D01*
X00000703Y00038279D01*
X00000576Y00038163D01*
X00000460Y00038036D01*
X00000355Y00037900D01*
X00000263Y00037755D01*
X00000184Y00037603D01*
X00000118Y00037444D01*
X00000067Y00037281D01*
X00000029Y00037113D01*
X00000007Y00036943D01*
X00000000Y00036771D01*
X00000000Y00021811D01*
X00000007Y00021639D01*
X00000029Y00021469D01*
X00000067Y00021301D01*
X00000118Y00021137D01*
X00000184Y00020979D01*
X00000263Y00020826D01*
X00000355Y00020681D01*
X00000460Y00020545D01*
X00000576Y00020419D01*
X00000703Y00020303D01*
X00000839Y00020198D01*
X00000984Y00020106D01*
X00001136Y00020026D01*
X00001295Y00019961D01*
X00001459Y00019909D01*
X00001626Y00019872D01*
X00001796Y00019850D01*
X00001968Y00019842D01*
X00021811Y00000000D02*
X00021811Y00000000D01*
X00036771Y00000000D01*
X00036943Y00000007D01*
X00037113Y00000029D01*
X00037281Y00000067D01*
X00037444Y00000118D01*
X00037603Y00000184D01*
X00037755Y00000263D01*
X00037900Y00000356D01*
X00038036Y00000460D01*
X00038163Y00000576D01*
X00038279Y00000703D01*
X00038384Y00000839D01*
X00038476Y00000984D01*
X00038555Y00001136D01*
X00038621Y00001295D01*
X00038673Y00001459D01*
X00038710Y00001626D01*
X00038732Y00001796D01*
X00038740Y00001968D01*
X00038740Y00016929D01*
X00038732Y00017100D01*
X00038710Y00017270D01*
X00038673Y00017438D01*
X00038621Y00017602D01*
X00038555Y00017761D01*
X00038476Y00017913D01*
X00038384Y00018058D01*
X00038279Y00018194D01*
X00038163Y00018321D01*
X00038036Y00018437D01*
X00037900Y00018541D01*
X00037755Y00018633D01*
X00037603Y00018713D01*
X00037444Y00018778D01*
X00037281Y00018830D01*
X00037113Y00018867D01*
X00036943Y00018890D01*
X00036771Y00018897D01*
X00021811Y00018897D01*
X00021639Y00018890D01*
X00021469Y00018867D01*
X00021301Y00018830D01*
X00021137Y00018778D01*
X00020979Y00018713D01*
X00020826Y00018633D01*
X00020681Y00018541D01*
X00020545Y00018437D01*
X00020419Y00018321D01*
X00020303Y00018194D01*
X00020198Y00018058D01*
X00020106Y00017913D01*
X00020026Y00017761D01*
X00019961Y00017602D01*
X00019909Y00017438D01*
X00019872Y00017270D01*
X00019850Y00017100D01*
X00019842Y00016929D01*
X00019842Y00001968D01*
X00019850Y00001796D01*
X00019872Y00001626D01*
X00019909Y00001459D01*
X00019961Y00001295D01*
X00020026Y00001136D01*
X00020106Y00000984D01*
X00020198Y00000839D01*
X00020303Y00000703D01*
X00020419Y00000576D01*
X00020545Y00000460D01*
X00020681Y00000356D01*
X00020826Y00000263D01*
X00020979Y00000184D01*
X00021137Y00000118D01*
X00021301Y00000067D01*
X00021469Y00000029D01*
X00021639Y00000007D01*
X00021811Y00000000D01*
X00001968Y00000000D02*
X00001968Y00000000D01*
X00016929Y00000000D01*
X00017100Y00000007D01*
X00017270Y00000029D01*
X00017438Y00000067D01*
X00017602Y00000118D01*
X00017761Y00000184D01*
X00017913Y00000263D01*
X00018058Y00000356D01*
X00018194Y00000460D01*
X00018321Y00000576D01*
X00018437Y00000703D01*
X00018541Y00000839D01*
X00018633Y00000984D01*
X00018713Y00001136D01*
X00018778Y00001295D01*
X00018830Y00001459D01*
X00018867Y00001626D01*
X00018890Y00001796D01*
X00018897Y00001968D01*
X00018897Y00016929D01*
X00018890Y00017100D01*
X00018867Y00017270D01*
X00018830Y00017438D01*
X00018778Y00017602D01*
X00018713Y00017761D01*
X00018633Y00017913D01*
X00018541Y00018058D01*
X00018437Y00018194D01*
X00018321Y00018321D01*
X00018194Y00018437D01*
X00018058Y00018541D01*
X00017913Y00018633D01*
X00017761Y00018713D01*
X00017602Y00018778D01*
X00017438Y00018830D01*
X00017270Y00018867D01*
X00017100Y00018890D01*
X00016929Y00018897D01*
X00001968Y00018897D01*
X00001796Y00018890D01*
X00001626Y00018867D01*
X00001459Y00018830D01*
X00001295Y00018778D01*
X00001136Y00018713D01*
X00000984Y00018633D01*
X00000839Y00018541D01*
X00000703Y00018437D01*
X00000576Y00018321D01*
X00000460Y00018194D01*
X00000355Y00018058D01*
X00000263Y00017913D01*
X00000184Y00017761D01*
X00000118Y00017602D01*
X00000067Y00017438D01*
X00000029Y00017270D01*
X00000007Y00017100D01*
X00000000Y00016929D01*
X00000000Y00001968D01*
X00000007Y00001796D01*
X00000029Y00001626D01*
X00000067Y00001459D01*
X00000118Y00001295D01*
X00000184Y00001136D01*
X00000263Y00000984D01*
X00000355Y00000839D01*
X00000460Y00000703D01*
X00000576Y00000576D01*
X00000703Y00000460D01*
X00000839Y00000356D01*
X00000984Y00000263D01*
X00001136Y00000184D01*
X00001295Y00000118D01*
X00001459Y00000067D01*
X00001626Y00000029D01*
X00001796Y00000007D01*
X00001968Y00000000D01*
M02*