%MOIN*%
%OFA0B0*%
%FSLAX46Y46*%
%IPPOS*%
%LPD*%
%ADD10C,0.005905511811023622*%
%ADD21C,0.005905511811023622*%
%ADD22C,0.005905511811023622*%
%ADD23C,0.005905511811023622*%
G01*
D10*
X0001483876Y0000217097D02*
X0001483876Y0000185226D01*
X0001485751Y0000181477D01*
X0001487626Y0000179602D01*
X0001491376Y0000177727D01*
X0001497000Y0000177727D01*
X0001500749Y0000179602D01*
X0001483876Y0000192725D02*
X0001487626Y0000190851D01*
X0001495125Y0000190851D01*
X0001498875Y0000192725D01*
X0001500749Y0000194600D01*
X0001502624Y0000198350D01*
X0001502624Y0000209598D01*
X0001500749Y0000213348D01*
X0001498875Y0000215223D01*
X0001495125Y0000217097D01*
X0001487626Y0000217097D01*
X0001483876Y0000215223D01*
X0001465129Y0000190851D02*
X0001465129Y0000217097D01*
X0001465129Y0000230221D02*
X0001467004Y0000228346D01*
X0001465129Y0000226471D01*
X0001463254Y0000228346D01*
X0001465129Y0000230221D01*
X0001465129Y0000226471D01*
X0001452005Y0000217097D02*
X0001437007Y0000217097D01*
X0001446381Y0000230221D02*
X0001446381Y0000196475D01*
X0001444506Y0000192725D01*
X0001440757Y0000190851D01*
X0001437007Y0000190851D01*
X0001423884Y0000190851D02*
X0001423884Y0000230221D01*
X0001407011Y0000190851D02*
X0001407011Y0000211473D01*
X0001408886Y0000215223D01*
X0001412635Y0000217097D01*
X0001418260Y0000217097D01*
X0001422009Y0000215223D01*
X0001423884Y0000213348D01*
X0001371391Y0000217097D02*
X0001371391Y0000190851D01*
X0001388263Y0000217097D02*
X0001388263Y0000196475D01*
X0001386389Y0000192725D01*
X0001382639Y0000190851D01*
X0001377015Y0000190851D01*
X0001373265Y0000192725D01*
X0001371391Y0000194600D01*
X0001352643Y0000190851D02*
X0001352643Y0000230221D01*
X0001352643Y0000215223D02*
X0001348893Y0000217097D01*
X0001341394Y0000217097D01*
X0001337645Y0000215223D01*
X0001335770Y0000213348D01*
X0001333895Y0000209598D01*
X0001333895Y0000198350D01*
X0001335770Y0000194600D01*
X0001337645Y0000192725D01*
X0001341394Y0000190851D01*
X0001348893Y0000190851D01*
X0001352643Y0000192725D01*
X0001317022Y0000194600D02*
X0001315148Y0000192725D01*
X0001317022Y0000190851D01*
X0001318897Y0000192725D01*
X0001317022Y0000194600D01*
X0001317022Y0000190851D01*
X0001281402Y0000192725D02*
X0001285151Y0000190851D01*
X0001292650Y0000190851D01*
X0001296400Y0000192725D01*
X0001298275Y0000194600D01*
X0001300149Y0000198350D01*
X0001300149Y0000209598D01*
X0001298275Y0000213348D01*
X0001296400Y0000215223D01*
X0001292650Y0000217097D01*
X0001285151Y0000217097D01*
X0001281402Y0000215223D01*
X0001258905Y0000190851D02*
X0001262654Y0000192725D01*
X0001264529Y0000194600D01*
X0001266404Y0000198350D01*
X0001266404Y0000209598D01*
X0001264529Y0000213348D01*
X0001262654Y0000215223D01*
X0001258905Y0000217097D01*
X0001253280Y0000217097D01*
X0001249531Y0000215223D01*
X0001247656Y0000213348D01*
X0001245781Y0000209598D01*
X0001245781Y0000198350D01*
X0001247656Y0000194600D01*
X0001249531Y0000192725D01*
X0001253280Y0000190851D01*
X0001258905Y0000190851D01*
X0001228908Y0000190851D02*
X0001228908Y0000217097D01*
X0001228908Y0000213348D02*
X0001227034Y0000215223D01*
X0001223284Y0000217097D01*
X0001217660Y0000217097D01*
X0001213910Y0000215223D01*
X0001212035Y0000211473D01*
X0001212035Y0000190851D01*
X0001212035Y0000211473D02*
X0001210161Y0000215223D01*
X0001206411Y0000217097D01*
X0001200787Y0000217097D01*
X0001197037Y0000215223D01*
X0001195163Y0000211473D01*
X0001195163Y0000190851D01*
X0001148293Y0000232096D02*
X0001182039Y0000181477D01*
X0001135170Y0000217097D02*
X0001135170Y0000183352D01*
X0001137045Y0000179602D01*
X0001140794Y0000177727D01*
X0001142669Y0000177727D01*
X0001135170Y0000230221D02*
X0001137045Y0000228346D01*
X0001135170Y0000226471D01*
X0001133295Y0000228346D01*
X0001135170Y0000230221D01*
X0001135170Y0000226471D01*
X0001110798Y0000190851D02*
X0001114548Y0000192725D01*
X0001116422Y0000194600D01*
X0001118297Y0000198350D01*
X0001118297Y0000209598D01*
X0001116422Y0000213348D01*
X0001114548Y0000215223D01*
X0001110798Y0000217097D01*
X0001105174Y0000217097D01*
X0001101424Y0000215223D01*
X0001099550Y0000213348D01*
X0001097675Y0000209598D01*
X0001097675Y0000198350D01*
X0001099550Y0000194600D01*
X0001101424Y0000192725D01*
X0001105174Y0000190851D01*
X0001110798Y0000190851D01*
X0001082677Y0000192725D02*
X0001078927Y0000190851D01*
X0001071428Y0000190851D01*
X0001067678Y0000192725D01*
X0001065804Y0000196475D01*
X0001065804Y0000198350D01*
X0001067678Y0000202099D01*
X0001071428Y0000203974D01*
X0001077052Y0000203974D01*
X0001080802Y0000205849D01*
X0001082677Y0000209598D01*
X0001082677Y0000211473D01*
X0001080802Y0000215223D01*
X0001077052Y0000217097D01*
X0001071428Y0000217097D01*
X0001067678Y0000215223D01*
X0001048931Y0000190851D02*
X0001048931Y0000230221D01*
X0001032058Y0000190851D02*
X0001032058Y0000211473D01*
X0001033933Y0000215223D01*
X0001037682Y0000217097D01*
X0001043307Y0000217097D01*
X0001047056Y0000215223D01*
X0001048931Y0000213348D01*
X0000996437Y0000190851D02*
X0000996437Y0000211473D01*
X0000998312Y0000215223D01*
X0001002062Y0000217097D01*
X0001009561Y0000217097D01*
X0001013310Y0000215223D01*
X0000996437Y0000192725D02*
X0001000187Y0000190851D01*
X0001009561Y0000190851D01*
X0001013310Y0000192725D01*
X0001015185Y0000196475D01*
X0001015185Y0000200224D01*
X0001013310Y0000203974D01*
X0001009561Y0000205849D01*
X0001000187Y0000205849D01*
X0000996437Y0000207724D01*
X0000977690Y0000217097D02*
X0000977690Y0000183352D01*
X0000979565Y0000179602D01*
X0000983314Y0000177727D01*
X0000985189Y0000177727D01*
X0000977690Y0000230221D02*
X0000979565Y0000228346D01*
X0000977690Y0000226471D01*
X0000975815Y0000228346D01*
X0000977690Y0000230221D01*
X0000977690Y0000226471D01*
X0000953318Y0000190851D02*
X0000957067Y0000192725D01*
X0000958942Y0000194600D01*
X0000960817Y0000198350D01*
X0000960817Y0000209598D01*
X0000958942Y0000213348D01*
X0000957067Y0000215223D01*
X0000953318Y0000217097D01*
X0000947693Y0000217097D01*
X0000943944Y0000215223D01*
X0000942069Y0000213348D01*
X0000940194Y0000209598D01*
X0000940194Y0000198350D01*
X0000942069Y0000194600D01*
X0000943944Y0000192725D01*
X0000947693Y0000190851D01*
X0000953318Y0000190851D01*
X0000923322Y0000190851D02*
X0000923322Y0000230221D01*
X0000906449Y0000190851D02*
X0000906449Y0000211473D01*
X0000908323Y0000215223D01*
X0000912073Y0000217097D01*
X0000917697Y0000217097D01*
X0000921447Y0000215223D01*
X0000923322Y0000213348D01*
X0000887701Y0000217097D02*
X0000887701Y0000190851D01*
X0000887701Y0000213348D02*
X0000885826Y0000215223D01*
X0000882077Y0000217097D01*
X0000876452Y0000217097D01*
X0000872703Y0000215223D01*
X0000870828Y0000211473D01*
X0000870828Y0000190851D01*
X0000853955Y0000192725D02*
X0000850206Y0000190851D01*
X0000842707Y0000190851D01*
X0000838957Y0000192725D01*
X0000837082Y0000196475D01*
X0000837082Y0000198350D01*
X0000838957Y0000202099D01*
X0000842707Y0000203974D01*
X0000848331Y0000203974D01*
X0000852080Y0000205849D01*
X0000853955Y0000209598D01*
X0000853955Y0000211473D01*
X0000852080Y0000215223D01*
X0000848331Y0000217097D01*
X0000842707Y0000217097D01*
X0000838957Y0000215223D01*
X0000814585Y0000190851D02*
X0000818335Y0000192725D01*
X0000820209Y0000194600D01*
X0000822084Y0000198350D01*
X0000822084Y0000209598D01*
X0000820209Y0000213348D01*
X0000818335Y0000215223D01*
X0000814585Y0000217097D01*
X0000808961Y0000217097D01*
X0000805211Y0000215223D01*
X0000803337Y0000213348D01*
X0000801462Y0000209598D01*
X0000801462Y0000198350D01*
X0000803337Y0000194600D01*
X0000805211Y0000192725D01*
X0000808961Y0000190851D01*
X0000814585Y0000190851D01*
X0000784589Y0000217097D02*
X0000784589Y0000190851D01*
X0000784589Y0000213348D02*
X0000782714Y0000215223D01*
X0000778965Y0000217097D01*
X0000773340Y0000217097D01*
X0000769591Y0000215223D01*
X0000767716Y0000211473D01*
X0000767716Y0000190851D01*
X0000720847Y0000232096D02*
X0000754593Y0000181477D01*
X0000711473Y0000217097D02*
X0000702099Y0000190851D01*
X0000692725Y0000217097D01*
X0000677727Y0000217097D02*
X0000677727Y0000190851D01*
X0000677727Y0000213348D02*
X0000675852Y0000215223D01*
X0000672103Y0000217097D01*
X0000666479Y0000217097D01*
X0000662729Y0000215223D01*
X0000660854Y0000211473D01*
X0000660854Y0000190851D01*
X0000625234Y0000190851D02*
X0000625234Y0000211473D01*
X0000627109Y0000215223D01*
X0000630858Y0000217097D01*
X0000638357Y0000217097D01*
X0000642107Y0000215223D01*
X0000625234Y0000192725D02*
X0000628983Y0000190851D01*
X0000638357Y0000190851D01*
X0000642107Y0000192725D01*
X0000643981Y0000196475D01*
X0000643981Y0000200224D01*
X0000642107Y0000203974D01*
X0000638357Y0000205849D01*
X0000628983Y0000205849D01*
X0000625234Y0000207724D01*
X0001494188Y0000276152D02*
X0001494188Y0000242407D01*
X0001496062Y0000238657D01*
X0001499812Y0000236782D01*
X0001501687Y0000236782D01*
X0001494188Y0000289276D02*
X0001496062Y0000287401D01*
X0001494188Y0000285526D01*
X0001492313Y0000287401D01*
X0001494188Y0000289276D01*
X0001494188Y0000285526D01*
X0001469816Y0000249906D02*
X0001473565Y0000251781D01*
X0001475440Y0000253655D01*
X0001477315Y0000257405D01*
X0001477315Y0000268653D01*
X0001475440Y0000272403D01*
X0001473565Y0000274278D01*
X0001469816Y0000276152D01*
X0001464191Y0000276152D01*
X0001460442Y0000274278D01*
X0001458567Y0000272403D01*
X0001456692Y0000268653D01*
X0001456692Y0000257405D01*
X0001458567Y0000253655D01*
X0001460442Y0000251781D01*
X0001464191Y0000249906D01*
X0001469816Y0000249906D01*
X0001441694Y0000251781D02*
X0001437945Y0000249906D01*
X0001430446Y0000249906D01*
X0001426696Y0000251781D01*
X0001424821Y0000255530D01*
X0001424821Y0000257405D01*
X0001426696Y0000261154D01*
X0001430446Y0000263029D01*
X0001436070Y0000263029D01*
X0001439819Y0000264904D01*
X0001441694Y0000268653D01*
X0001441694Y0000270528D01*
X0001439819Y0000274278D01*
X0001436070Y0000276152D01*
X0001430446Y0000276152D01*
X0001426696Y0000274278D01*
X0001407948Y0000249906D02*
X0001407948Y0000289276D01*
X0001391076Y0000249906D02*
X0001391076Y0000270528D01*
X0001392950Y0000274278D01*
X0001396700Y0000276152D01*
X0001402324Y0000276152D01*
X0001406074Y0000274278D01*
X0001407948Y0000272403D01*
X0001355455Y0000249906D02*
X0001355455Y0000270528D01*
X0001357330Y0000274278D01*
X0001361079Y0000276152D01*
X0001368578Y0000276152D01*
X0001372328Y0000274278D01*
X0001355455Y0000251781D02*
X0001359205Y0000249906D01*
X0001368578Y0000249906D01*
X0001372328Y0000251781D01*
X0001374203Y0000255530D01*
X0001374203Y0000259280D01*
X0001372328Y0000263029D01*
X0001368578Y0000264904D01*
X0001359205Y0000264904D01*
X0001355455Y0000266779D01*
X0001336707Y0000276152D02*
X0001336707Y0000242407D01*
X0001338582Y0000238657D01*
X0001342332Y0000236782D01*
X0001344206Y0000236782D01*
X0001336707Y0000289276D02*
X0001338582Y0000287401D01*
X0001336707Y0000285526D01*
X0001334833Y0000287401D01*
X0001336707Y0000289276D01*
X0001336707Y0000285526D01*
X0001312335Y0000249906D02*
X0001316085Y0000251781D01*
X0001317960Y0000253655D01*
X0001319835Y0000257405D01*
X0001319835Y0000268653D01*
X0001317960Y0000272403D01*
X0001316085Y0000274278D01*
X0001312335Y0000276152D01*
X0001306711Y0000276152D01*
X0001302962Y0000274278D01*
X0001301087Y0000272403D01*
X0001299212Y0000268653D01*
X0001299212Y0000257405D01*
X0001301087Y0000253655D01*
X0001302962Y0000251781D01*
X0001306711Y0000249906D01*
X0001312335Y0000249906D01*
X0001282339Y0000249906D02*
X0001282339Y0000289276D01*
X0001265466Y0000249906D02*
X0001265466Y0000270528D01*
X0001267341Y0000274278D01*
X0001271091Y0000276152D01*
X0001276715Y0000276152D01*
X0001280464Y0000274278D01*
X0001282339Y0000272403D01*
X0001246719Y0000276152D02*
X0001246719Y0000249906D01*
X0001246719Y0000272403D02*
X0001244844Y0000274278D01*
X0001241094Y0000276152D01*
X0001235470Y0000276152D01*
X0001231721Y0000274278D01*
X0001229846Y0000270528D01*
X0001229846Y0000249906D01*
X0001212973Y0000251781D02*
X0001209223Y0000249906D01*
X0001201724Y0000249906D01*
X0001197975Y0000251781D01*
X0001196100Y0000255530D01*
X0001196100Y0000257405D01*
X0001197975Y0000261154D01*
X0001201724Y0000263029D01*
X0001207349Y0000263029D01*
X0001211098Y0000264904D01*
X0001212973Y0000268653D01*
X0001212973Y0000270528D01*
X0001211098Y0000274278D01*
X0001207349Y0000276152D01*
X0001201724Y0000276152D01*
X0001197975Y0000274278D01*
X0001173603Y0000249906D02*
X0001177352Y0000251781D01*
X0001179227Y0000253655D01*
X0001181102Y0000257405D01*
X0001181102Y0000268653D01*
X0001179227Y0000272403D01*
X0001177352Y0000274278D01*
X0001173603Y0000276152D01*
X0001167978Y0000276152D01*
X0001164229Y0000274278D01*
X0001162354Y0000272403D01*
X0001160479Y0000268653D01*
X0001160479Y0000257405D01*
X0001162354Y0000253655D01*
X0001164229Y0000251781D01*
X0001167978Y0000249906D01*
X0001173603Y0000249906D01*
X0001143607Y0000276152D02*
X0001143607Y0000249906D01*
X0001143607Y0000272403D02*
X0001141732Y0000274278D01*
X0001137982Y0000276152D01*
X0001132358Y0000276152D01*
X0001128608Y0000274278D01*
X0001126734Y0000270528D01*
X0001126734Y0000249906D01*
X0001107986Y0000253655D02*
X0001106111Y0000251781D01*
X0001107986Y0000249906D01*
X0001109861Y0000251781D01*
X0001107986Y0000253655D01*
X0001107986Y0000249906D01*
X0001072365Y0000251781D02*
X0001076115Y0000249906D01*
X0001083614Y0000249906D01*
X0001087364Y0000251781D01*
X0001089238Y0000253655D01*
X0001091113Y0000257405D01*
X0001091113Y0000268653D01*
X0001089238Y0000272403D01*
X0001087364Y0000274278D01*
X0001083614Y0000276152D01*
X0001076115Y0000276152D01*
X0001072365Y0000274278D01*
X0001049868Y0000249906D02*
X0001053618Y0000251781D01*
X0001055493Y0000253655D01*
X0001057367Y0000257405D01*
X0001057367Y0000268653D01*
X0001055493Y0000272403D01*
X0001053618Y0000274278D01*
X0001049868Y0000276152D01*
X0001044244Y0000276152D01*
X0001040494Y0000274278D01*
X0001038620Y0000272403D01*
X0001036745Y0000268653D01*
X0001036745Y0000257405D01*
X0001038620Y0000253655D01*
X0001040494Y0000251781D01*
X0001044244Y0000249906D01*
X0001049868Y0000249906D01*
X0001019872Y0000249906D02*
X0001019872Y0000276152D01*
X0001019872Y0000272403D02*
X0001017997Y0000274278D01*
X0001014248Y0000276152D01*
X0001008623Y0000276152D01*
X0001004874Y0000274278D01*
X0001002999Y0000270528D01*
X0001002999Y0000249906D01*
X0001002999Y0000270528D02*
X0001001124Y0000274278D01*
X0000997375Y0000276152D01*
X0000991750Y0000276152D01*
X0000988001Y0000274278D01*
X0000986126Y0000270528D01*
X0000986126Y0000249906D01*
X0001491938Y0000348331D02*
X0001491938Y0000320210D01*
X0001493813Y0000314585D01*
X0001497562Y0000310836D01*
X0001503187Y0000308961D01*
X0001506936Y0000308961D01*
X0001467566Y0000308961D02*
X0001471316Y0000310836D01*
X0001473190Y0000312710D01*
X0001475065Y0000316460D01*
X0001475065Y0000327709D01*
X0001473190Y0000331458D01*
X0001471316Y0000333333D01*
X0001467566Y0000335208D01*
X0001461942Y0000335208D01*
X0001458192Y0000333333D01*
X0001456317Y0000331458D01*
X0001454443Y0000327709D01*
X0001454443Y0000316460D01*
X0001456317Y0000312710D01*
X0001458192Y0000310836D01*
X0001461942Y0000308961D01*
X0001467566Y0000308961D01*
X0001439445Y0000310836D02*
X0001435695Y0000308961D01*
X0001428196Y0000308961D01*
X0001424446Y0000310836D01*
X0001422572Y0000314585D01*
X0001422572Y0000316460D01*
X0001424446Y0000320210D01*
X0001428196Y0000322084D01*
X0001433820Y0000322084D01*
X0001437570Y0000323959D01*
X0001439445Y0000327709D01*
X0001439445Y0000329583D01*
X0001437570Y0000333333D01*
X0001433820Y0000335208D01*
X0001428196Y0000335208D01*
X0001424446Y0000333333D01*
X0001405699Y0000308961D02*
X0001405699Y0000348331D01*
X0001388826Y0000308961D02*
X0001388826Y0000329583D01*
X0001390701Y0000333333D01*
X0001394450Y0000335208D01*
X0001400074Y0000335208D01*
X0001403824Y0000333333D01*
X0001405699Y0000331458D01*
X0001328833Y0000348331D02*
X0001328833Y0000320210D01*
X0001330708Y0000314585D01*
X0001334458Y0000310836D01*
X0001340082Y0000308961D01*
X0001343831Y0000308961D01*
X0001304461Y0000308961D02*
X0001308211Y0000310836D01*
X0001310086Y0000312710D01*
X0001311960Y0000316460D01*
X0001311960Y0000327709D01*
X0001310086Y0000331458D01*
X0001308211Y0000333333D01*
X0001304461Y0000335208D01*
X0001298837Y0000335208D01*
X0001295088Y0000333333D01*
X0001293213Y0000331458D01*
X0001291338Y0000327709D01*
X0001291338Y0000316460D01*
X0001293213Y0000312710D01*
X0001295088Y0000310836D01*
X0001298837Y0000308961D01*
X0001304461Y0000308961D01*
X0001274465Y0000308961D02*
X0001274465Y0000348331D01*
X0001257592Y0000308961D02*
X0001257592Y0000329583D01*
X0001259467Y0000333333D01*
X0001263217Y0000335208D01*
X0001268841Y0000335208D01*
X0001272590Y0000333333D01*
X0001274465Y0000331458D01*
X0001238845Y0000335208D02*
X0001238845Y0000308961D01*
X0001238845Y0000331458D02*
X0001236970Y0000333333D01*
X0001233220Y0000335208D01*
X0001227596Y0000335208D01*
X0001223846Y0000333333D01*
X0001221972Y0000329583D01*
X0001221972Y0000308961D01*
X0001205099Y0000310836D02*
X0001201349Y0000308961D01*
X0001193850Y0000308961D01*
X0001190101Y0000310836D01*
X0001188226Y0000314585D01*
X0001188226Y0000316460D01*
X0001190101Y0000320210D01*
X0001193850Y0000322084D01*
X0001199475Y0000322084D01*
X0001203224Y0000323959D01*
X0001205099Y0000327709D01*
X0001205099Y0000329583D01*
X0001203224Y0000333333D01*
X0001199475Y0000335208D01*
X0001193850Y0000335208D01*
X0001190101Y0000333333D01*
X0001165729Y0000308961D02*
X0001169478Y0000310836D01*
X0001171353Y0000312710D01*
X0001173228Y0000316460D01*
X0001173228Y0000327709D01*
X0001171353Y0000331458D01*
X0001169478Y0000333333D01*
X0001165729Y0000335208D01*
X0001160104Y0000335208D01*
X0001156355Y0000333333D01*
X0001154480Y0000331458D01*
X0001152605Y0000327709D01*
X0001152605Y0000316460D01*
X0001154480Y0000312710D01*
X0001156355Y0000310836D01*
X0001160104Y0000308961D01*
X0001165729Y0000308961D01*
X0001135733Y0000335208D02*
X0001135733Y0000308961D01*
X0001135733Y0000331458D02*
X0001133858Y0000333333D01*
X0001130108Y0000335208D01*
X0001124484Y0000335208D01*
X0001120734Y0000333333D01*
X0001118860Y0000329583D01*
X0001118860Y0000308961D01*
G04 next file*
G04 #@! TF.GenerationSoftware,KiCad,Pcbnew,(5.0.2)-1*
G04 #@! TF.CreationDate,2019-01-19T11:17:49+11:00*
G04 #@! TF.ProjectId,Filter_Bank_Dev_Rev_0,46696c74-6572-45f4-9261-6e6b5f446576,0*
G04 #@! TF.SameCoordinates,Original*
G04 #@! TF.FileFunction,Legend,Bot*
G04 #@! TF.FilePolarity,Positive*
G04 Gerber Fmt 4.6, Leading zero omitted, Abs format (unit mm)*
G04 Created by KiCad (PCBNEW (5.0.2)-1) date 19/01/2019 11:17:49*
G01*
G04 APERTURE LIST*
G04 APERTURE END LIST*
G04 #@! TO.C,REF\002A\002A*
D21*
X0003493719Y0000226940D02*
X0003493719Y0000195069D01*
X0003495594Y0000191319D01*
X0003497469Y0000189445D01*
X0003501218Y0000187570D01*
X0003506842Y0000187570D01*
X0003510592Y0000189445D01*
X0003493719Y0000202568D02*
X0003497469Y0000200693D01*
X0003504968Y0000200693D01*
X0003508717Y0000202568D01*
X0003510592Y0000204443D01*
X0003512467Y0000208192D01*
X0003512467Y0000219441D01*
X0003510592Y0000223190D01*
X0003508717Y0000225065D01*
X0003504968Y0000226940D01*
X0003497469Y0000226940D01*
X0003493719Y0000225065D01*
X0003474971Y0000200693D02*
X0003474971Y0000226940D01*
X0003474971Y0000240063D02*
X0003476846Y0000238188D01*
X0003474971Y0000236314D01*
X0003473097Y0000238188D01*
X0003474971Y0000240063D01*
X0003474971Y0000236314D01*
X0003461848Y0000226940D02*
X0003446850Y0000226940D01*
X0003456224Y0000240063D02*
X0003456224Y0000206317D01*
X0003454349Y0000202568D01*
X0003450599Y0000200693D01*
X0003446850Y0000200693D01*
X0003433727Y0000200693D02*
X0003433727Y0000240063D01*
X0003416854Y0000200693D02*
X0003416854Y0000221316D01*
X0003418728Y0000225065D01*
X0003422478Y0000226940D01*
X0003428102Y0000226940D01*
X0003431852Y0000225065D01*
X0003433727Y0000223190D01*
X0003381233Y0000226940D02*
X0003381233Y0000200693D01*
X0003398106Y0000226940D02*
X0003398106Y0000206317D01*
X0003396231Y0000202568D01*
X0003392482Y0000200693D01*
X0003386857Y0000200693D01*
X0003383108Y0000202568D01*
X0003381233Y0000204443D01*
X0003362485Y0000200693D02*
X0003362485Y0000240063D01*
X0003362485Y0000225065D02*
X0003358736Y0000226940D01*
X0003351237Y0000226940D01*
X0003347487Y0000225065D01*
X0003345613Y0000223190D01*
X0003343738Y0000219441D01*
X0003343738Y0000208192D01*
X0003345613Y0000204443D01*
X0003347487Y0000202568D01*
X0003351237Y0000200693D01*
X0003358736Y0000200693D01*
X0003362485Y0000202568D01*
X0003326865Y0000204443D02*
X0003324990Y0000202568D01*
X0003326865Y0000200693D01*
X0003328740Y0000202568D01*
X0003326865Y0000204443D01*
X0003326865Y0000200693D01*
X0003291244Y0000202568D02*
X0003294994Y0000200693D01*
X0003302493Y0000200693D01*
X0003306242Y0000202568D01*
X0003308117Y0000204443D01*
X0003309992Y0000208192D01*
X0003309992Y0000219441D01*
X0003308117Y0000223190D01*
X0003306242Y0000225065D01*
X0003302493Y0000226940D01*
X0003294994Y0000226940D01*
X0003291244Y0000225065D01*
X0003268747Y0000200693D02*
X0003272497Y0000202568D01*
X0003274371Y0000204443D01*
X0003276246Y0000208192D01*
X0003276246Y0000219441D01*
X0003274371Y0000223190D01*
X0003272497Y0000225065D01*
X0003268747Y0000226940D01*
X0003263123Y0000226940D01*
X0003259373Y0000225065D01*
X0003257499Y0000223190D01*
X0003255624Y0000219441D01*
X0003255624Y0000208192D01*
X0003257499Y0000204443D01*
X0003259373Y0000202568D01*
X0003263123Y0000200693D01*
X0003268747Y0000200693D01*
X0003238751Y0000200693D02*
X0003238751Y0000226940D01*
X0003238751Y0000223190D02*
X0003236876Y0000225065D01*
X0003233127Y0000226940D01*
X0003227502Y0000226940D01*
X0003223753Y0000225065D01*
X0003221878Y0000221316D01*
X0003221878Y0000200693D01*
X0003221878Y0000221316D02*
X0003220003Y0000225065D01*
X0003216254Y0000226940D01*
X0003210629Y0000226940D01*
X0003206880Y0000225065D01*
X0003205005Y0000221316D01*
X0003205005Y0000200693D01*
X0003158136Y0000241938D02*
X0003191882Y0000191319D01*
X0003145013Y0000226940D02*
X0003145013Y0000193194D01*
X0003146887Y0000189445D01*
X0003150637Y0000187570D01*
X0003152512Y0000187570D01*
X0003145013Y0000240063D02*
X0003146887Y0000238188D01*
X0003145013Y0000236314D01*
X0003143138Y0000238188D01*
X0003145013Y0000240063D01*
X0003145013Y0000236314D01*
X0003120641Y0000200693D02*
X0003124390Y0000202568D01*
X0003126265Y0000204443D01*
X0003128140Y0000208192D01*
X0003128140Y0000219441D01*
X0003126265Y0000223190D01*
X0003124390Y0000225065D01*
X0003120641Y0000226940D01*
X0003115016Y0000226940D01*
X0003111267Y0000225065D01*
X0003109392Y0000223190D01*
X0003107517Y0000219441D01*
X0003107517Y0000208192D01*
X0003109392Y0000204443D01*
X0003111267Y0000202568D01*
X0003115016Y0000200693D01*
X0003120641Y0000200693D01*
X0003092519Y0000202568D02*
X0003088770Y0000200693D01*
X0003081271Y0000200693D01*
X0003077521Y0000202568D01*
X0003075646Y0000206317D01*
X0003075646Y0000208192D01*
X0003077521Y0000211942D01*
X0003081271Y0000213817D01*
X0003086895Y0000213817D01*
X0003090644Y0000215691D01*
X0003092519Y0000219441D01*
X0003092519Y0000221316D01*
X0003090644Y0000225065D01*
X0003086895Y0000226940D01*
X0003081271Y0000226940D01*
X0003077521Y0000225065D01*
X0003058773Y0000200693D02*
X0003058773Y0000240063D01*
X0003041901Y0000200693D02*
X0003041901Y0000221316D01*
X0003043775Y0000225065D01*
X0003047525Y0000226940D01*
X0003053149Y0000226940D01*
X0003056899Y0000225065D01*
X0003058773Y0000223190D01*
X0003006280Y0000200693D02*
X0003006280Y0000221316D01*
X0003008155Y0000225065D01*
X0003011904Y0000226940D01*
X0003019403Y0000226940D01*
X0003023153Y0000225065D01*
X0003006280Y0000202568D02*
X0003010030Y0000200693D01*
X0003019403Y0000200693D01*
X0003023153Y0000202568D01*
X0003025028Y0000206317D01*
X0003025028Y0000210067D01*
X0003023153Y0000213817D01*
X0003019403Y0000215691D01*
X0003010030Y0000215691D01*
X0003006280Y0000217566D01*
X0002987532Y0000226940D02*
X0002987532Y0000193194D01*
X0002989407Y0000189445D01*
X0002993157Y0000187570D01*
X0002995031Y0000187570D01*
X0002987532Y0000240063D02*
X0002989407Y0000238188D01*
X0002987532Y0000236314D01*
X0002985658Y0000238188D01*
X0002987532Y0000240063D01*
X0002987532Y0000236314D01*
X0002963160Y0000200693D02*
X0002966910Y0000202568D01*
X0002968785Y0000204443D01*
X0002970659Y0000208192D01*
X0002970659Y0000219441D01*
X0002968785Y0000223190D01*
X0002966910Y0000225065D01*
X0002963160Y0000226940D01*
X0002957536Y0000226940D01*
X0002953787Y0000225065D01*
X0002951912Y0000223190D01*
X0002950037Y0000219441D01*
X0002950037Y0000208192D01*
X0002951912Y0000204443D01*
X0002953787Y0000202568D01*
X0002957536Y0000200693D01*
X0002963160Y0000200693D01*
X0002933164Y0000200693D02*
X0002933164Y0000240063D01*
X0002916291Y0000200693D02*
X0002916291Y0000221316D01*
X0002918166Y0000225065D01*
X0002921916Y0000226940D01*
X0002927540Y0000226940D01*
X0002931289Y0000225065D01*
X0002933164Y0000223190D01*
X0002897544Y0000226940D02*
X0002897544Y0000200693D01*
X0002897544Y0000223190D02*
X0002895669Y0000225065D01*
X0002891919Y0000226940D01*
X0002886295Y0000226940D01*
X0002882545Y0000225065D01*
X0002880671Y0000221316D01*
X0002880671Y0000200693D01*
X0002863798Y0000202568D02*
X0002860048Y0000200693D01*
X0002852549Y0000200693D01*
X0002848800Y0000202568D01*
X0002846925Y0000206317D01*
X0002846925Y0000208192D01*
X0002848800Y0000211942D01*
X0002852549Y0000213817D01*
X0002858174Y0000213817D01*
X0002861923Y0000215691D01*
X0002863798Y0000219441D01*
X0002863798Y0000221316D01*
X0002861923Y0000225065D01*
X0002858174Y0000226940D01*
X0002852549Y0000226940D01*
X0002848800Y0000225065D01*
X0002824428Y0000200693D02*
X0002828177Y0000202568D01*
X0002830052Y0000204443D01*
X0002831927Y0000208192D01*
X0002831927Y0000219441D01*
X0002830052Y0000223190D01*
X0002828177Y0000225065D01*
X0002824428Y0000226940D01*
X0002818803Y0000226940D01*
X0002815054Y0000225065D01*
X0002813179Y0000223190D01*
X0002811304Y0000219441D01*
X0002811304Y0000208192D01*
X0002813179Y0000204443D01*
X0002815054Y0000202568D01*
X0002818803Y0000200693D01*
X0002824428Y0000200693D01*
X0002794431Y0000226940D02*
X0002794431Y0000200693D01*
X0002794431Y0000223190D02*
X0002792557Y0000225065D01*
X0002788807Y0000226940D01*
X0002783183Y0000226940D01*
X0002779433Y0000225065D01*
X0002777559Y0000221316D01*
X0002777559Y0000200693D01*
X0002730689Y0000241938D02*
X0002764435Y0000191319D01*
X0002721316Y0000226940D02*
X0002711942Y0000200693D01*
X0002702568Y0000226940D01*
X0002687570Y0000226940D02*
X0002687570Y0000200693D01*
X0002687570Y0000223190D02*
X0002685695Y0000225065D01*
X0002681946Y0000226940D01*
X0002676321Y0000226940D01*
X0002672572Y0000225065D01*
X0002670697Y0000221316D01*
X0002670697Y0000200693D01*
X0002635076Y0000200693D02*
X0002635076Y0000221316D01*
X0002636951Y0000225065D01*
X0002640701Y0000226940D01*
X0002648200Y0000226940D01*
X0002651949Y0000225065D01*
X0002635076Y0000202568D02*
X0002638826Y0000200693D01*
X0002648200Y0000200693D01*
X0002651949Y0000202568D01*
X0002653824Y0000206317D01*
X0002653824Y0000210067D01*
X0002651949Y0000213817D01*
X0002648200Y0000215691D01*
X0002638826Y0000215691D01*
X0002635076Y0000217566D01*
X0003504030Y0000285995D02*
X0003504030Y0000252249D01*
X0003505905Y0000248500D01*
X0003509655Y0000246625D01*
X0003511529Y0000246625D01*
X0003504030Y0000299118D02*
X0003505905Y0000297244D01*
X0003504030Y0000295369D01*
X0003502155Y0000297244D01*
X0003504030Y0000299118D01*
X0003504030Y0000295369D01*
X0003479658Y0000259748D02*
X0003483408Y0000261623D01*
X0003485283Y0000263498D01*
X0003487157Y0000267247D01*
X0003487157Y0000278496D01*
X0003485283Y0000282245D01*
X0003483408Y0000284120D01*
X0003479658Y0000285995D01*
X0003474034Y0000285995D01*
X0003470285Y0000284120D01*
X0003468410Y0000282245D01*
X0003466535Y0000278496D01*
X0003466535Y0000267247D01*
X0003468410Y0000263498D01*
X0003470285Y0000261623D01*
X0003474034Y0000259748D01*
X0003479658Y0000259748D01*
X0003451537Y0000261623D02*
X0003447787Y0000259748D01*
X0003440288Y0000259748D01*
X0003436539Y0000261623D01*
X0003434664Y0000265373D01*
X0003434664Y0000267247D01*
X0003436539Y0000270997D01*
X0003440288Y0000272872D01*
X0003445913Y0000272872D01*
X0003449662Y0000274746D01*
X0003451537Y0000278496D01*
X0003451537Y0000280371D01*
X0003449662Y0000284120D01*
X0003445913Y0000285995D01*
X0003440288Y0000285995D01*
X0003436539Y0000284120D01*
X0003417791Y0000259748D02*
X0003417791Y0000299118D01*
X0003400918Y0000259748D02*
X0003400918Y0000280371D01*
X0003402793Y0000284120D01*
X0003406542Y0000285995D01*
X0003412167Y0000285995D01*
X0003415916Y0000284120D01*
X0003417791Y0000282245D01*
X0003365298Y0000259748D02*
X0003365298Y0000280371D01*
X0003367172Y0000284120D01*
X0003370922Y0000285995D01*
X0003378421Y0000285995D01*
X0003382170Y0000284120D01*
X0003365298Y0000261623D02*
X0003369047Y0000259748D01*
X0003378421Y0000259748D01*
X0003382170Y0000261623D01*
X0003384045Y0000265373D01*
X0003384045Y0000269122D01*
X0003382170Y0000272872D01*
X0003378421Y0000274746D01*
X0003369047Y0000274746D01*
X0003365298Y0000276621D01*
X0003346550Y0000285995D02*
X0003346550Y0000252249D01*
X0003348425Y0000248500D01*
X0003352174Y0000246625D01*
X0003354049Y0000246625D01*
X0003346550Y0000299118D02*
X0003348425Y0000297244D01*
X0003346550Y0000295369D01*
X0003344675Y0000297244D01*
X0003346550Y0000299118D01*
X0003346550Y0000295369D01*
X0003322178Y0000259748D02*
X0003325928Y0000261623D01*
X0003327802Y0000263498D01*
X0003329677Y0000267247D01*
X0003329677Y0000278496D01*
X0003327802Y0000282245D01*
X0003325928Y0000284120D01*
X0003322178Y0000285995D01*
X0003316554Y0000285995D01*
X0003312804Y0000284120D01*
X0003310929Y0000282245D01*
X0003309055Y0000278496D01*
X0003309055Y0000267247D01*
X0003310929Y0000263498D01*
X0003312804Y0000261623D01*
X0003316554Y0000259748D01*
X0003322178Y0000259748D01*
X0003292182Y0000259748D02*
X0003292182Y0000299118D01*
X0003275309Y0000259748D02*
X0003275309Y0000280371D01*
X0003277184Y0000284120D01*
X0003280933Y0000285995D01*
X0003286557Y0000285995D01*
X0003290307Y0000284120D01*
X0003292182Y0000282245D01*
X0003256561Y0000285995D02*
X0003256561Y0000259748D01*
X0003256561Y0000282245D02*
X0003254686Y0000284120D01*
X0003250937Y0000285995D01*
X0003245313Y0000285995D01*
X0003241563Y0000284120D01*
X0003239688Y0000280371D01*
X0003239688Y0000259748D01*
X0003222815Y0000261623D02*
X0003219066Y0000259748D01*
X0003211567Y0000259748D01*
X0003207817Y0000261623D01*
X0003205943Y0000265373D01*
X0003205943Y0000267247D01*
X0003207817Y0000270997D01*
X0003211567Y0000272872D01*
X0003217191Y0000272872D01*
X0003220941Y0000274746D01*
X0003222815Y0000278496D01*
X0003222815Y0000280371D01*
X0003220941Y0000284120D01*
X0003217191Y0000285995D01*
X0003211567Y0000285995D01*
X0003207817Y0000284120D01*
X0003183445Y0000259748D02*
X0003187195Y0000261623D01*
X0003189070Y0000263498D01*
X0003190944Y0000267247D01*
X0003190944Y0000278496D01*
X0003189070Y0000282245D01*
X0003187195Y0000284120D01*
X0003183445Y0000285995D01*
X0003177821Y0000285995D01*
X0003174072Y0000284120D01*
X0003172197Y0000282245D01*
X0003170322Y0000278496D01*
X0003170322Y0000267247D01*
X0003172197Y0000263498D01*
X0003174072Y0000261623D01*
X0003177821Y0000259748D01*
X0003183445Y0000259748D01*
X0003153449Y0000285995D02*
X0003153449Y0000259748D01*
X0003153449Y0000282245D02*
X0003151574Y0000284120D01*
X0003147825Y0000285995D01*
X0003142200Y0000285995D01*
X0003138451Y0000284120D01*
X0003136576Y0000280371D01*
X0003136576Y0000259748D01*
X0003117829Y0000263498D02*
X0003115954Y0000261623D01*
X0003117829Y0000259748D01*
X0003119703Y0000261623D01*
X0003117829Y0000263498D01*
X0003117829Y0000259748D01*
X0003082208Y0000261623D02*
X0003085958Y0000259748D01*
X0003093457Y0000259748D01*
X0003097206Y0000261623D01*
X0003099081Y0000263498D01*
X0003100956Y0000267247D01*
X0003100956Y0000278496D01*
X0003099081Y0000282245D01*
X0003097206Y0000284120D01*
X0003093457Y0000285995D01*
X0003085958Y0000285995D01*
X0003082208Y0000284120D01*
X0003059711Y0000259748D02*
X0003063460Y0000261623D01*
X0003065335Y0000263498D01*
X0003067210Y0000267247D01*
X0003067210Y0000278496D01*
X0003065335Y0000282245D01*
X0003063460Y0000284120D01*
X0003059711Y0000285995D01*
X0003054087Y0000285995D01*
X0003050337Y0000284120D01*
X0003048462Y0000282245D01*
X0003046587Y0000278496D01*
X0003046587Y0000267247D01*
X0003048462Y0000263498D01*
X0003050337Y0000261623D01*
X0003054087Y0000259748D01*
X0003059711Y0000259748D01*
X0003029715Y0000259748D02*
X0003029715Y0000285995D01*
X0003029715Y0000282245D02*
X0003027840Y0000284120D01*
X0003024090Y0000285995D01*
X0003018466Y0000285995D01*
X0003014716Y0000284120D01*
X0003012842Y0000280371D01*
X0003012842Y0000259748D01*
X0003012842Y0000280371D02*
X0003010967Y0000284120D01*
X0003007217Y0000285995D01*
X0003001593Y0000285995D01*
X0002997844Y0000284120D01*
X0002995969Y0000280371D01*
X0002995969Y0000259748D01*
X0003501781Y0000358174D02*
X0003501781Y0000330052D01*
X0003503655Y0000324428D01*
X0003507405Y0000320678D01*
X0003513029Y0000318803D01*
X0003516779Y0000318803D01*
X0003477409Y0000318803D02*
X0003481158Y0000320678D01*
X0003483033Y0000322553D01*
X0003484908Y0000326302D01*
X0003484908Y0000337551D01*
X0003483033Y0000341301D01*
X0003481158Y0000343175D01*
X0003477409Y0000345050D01*
X0003471784Y0000345050D01*
X0003468035Y0000343175D01*
X0003466160Y0000341301D01*
X0003464285Y0000337551D01*
X0003464285Y0000326302D01*
X0003466160Y0000322553D01*
X0003468035Y0000320678D01*
X0003471784Y0000318803D01*
X0003477409Y0000318803D01*
X0003449287Y0000320678D02*
X0003445538Y0000318803D01*
X0003438039Y0000318803D01*
X0003434289Y0000320678D01*
X0003432414Y0000324428D01*
X0003432414Y0000326302D01*
X0003434289Y0000330052D01*
X0003438039Y0000331927D01*
X0003443663Y0000331927D01*
X0003447412Y0000333802D01*
X0003449287Y0000337551D01*
X0003449287Y0000339426D01*
X0003447412Y0000343175D01*
X0003443663Y0000345050D01*
X0003438039Y0000345050D01*
X0003434289Y0000343175D01*
X0003415541Y0000318803D02*
X0003415541Y0000358174D01*
X0003398668Y0000318803D02*
X0003398668Y0000339426D01*
X0003400543Y0000343175D01*
X0003404293Y0000345050D01*
X0003409917Y0000345050D01*
X0003413667Y0000343175D01*
X0003415541Y0000341301D01*
X0003338676Y0000358174D02*
X0003338676Y0000330052D01*
X0003340551Y0000324428D01*
X0003344300Y0000320678D01*
X0003349925Y0000318803D01*
X0003353674Y0000318803D01*
X0003314304Y0000318803D02*
X0003318054Y0000320678D01*
X0003319928Y0000322553D01*
X0003321803Y0000326302D01*
X0003321803Y0000337551D01*
X0003319928Y0000341301D01*
X0003318054Y0000343175D01*
X0003314304Y0000345050D01*
X0003308680Y0000345050D01*
X0003304930Y0000343175D01*
X0003303055Y0000341301D01*
X0003301181Y0000337551D01*
X0003301181Y0000326302D01*
X0003303055Y0000322553D01*
X0003304930Y0000320678D01*
X0003308680Y0000318803D01*
X0003314304Y0000318803D01*
X0003284308Y0000318803D02*
X0003284308Y0000358174D01*
X0003267435Y0000318803D02*
X0003267435Y0000339426D01*
X0003269310Y0000343175D01*
X0003273059Y0000345050D01*
X0003278683Y0000345050D01*
X0003282433Y0000343175D01*
X0003284308Y0000341301D01*
X0003248687Y0000345050D02*
X0003248687Y0000318803D01*
X0003248687Y0000341301D02*
X0003246812Y0000343175D01*
X0003243063Y0000345050D01*
X0003237439Y0000345050D01*
X0003233689Y0000343175D01*
X0003231814Y0000339426D01*
X0003231814Y0000318803D01*
X0003214941Y0000320678D02*
X0003211192Y0000318803D01*
X0003203693Y0000318803D01*
X0003199943Y0000320678D01*
X0003198069Y0000324428D01*
X0003198069Y0000326302D01*
X0003199943Y0000330052D01*
X0003203693Y0000331927D01*
X0003209317Y0000331927D01*
X0003213067Y0000333802D01*
X0003214941Y0000337551D01*
X0003214941Y0000339426D01*
X0003213067Y0000343175D01*
X0003209317Y0000345050D01*
X0003203693Y0000345050D01*
X0003199943Y0000343175D01*
X0003175571Y0000318803D02*
X0003179321Y0000320678D01*
X0003181196Y0000322553D01*
X0003183070Y0000326302D01*
X0003183070Y0000337551D01*
X0003181196Y0000341301D01*
X0003179321Y0000343175D01*
X0003175571Y0000345050D01*
X0003169947Y0000345050D01*
X0003166197Y0000343175D01*
X0003164323Y0000341301D01*
X0003162448Y0000337551D01*
X0003162448Y0000326302D01*
X0003164323Y0000322553D01*
X0003166197Y0000320678D01*
X0003169947Y0000318803D01*
X0003175571Y0000318803D01*
X0003145575Y0000345050D02*
X0003145575Y0000318803D01*
X0003145575Y0000341301D02*
X0003143700Y0000343175D01*
X0003139951Y0000345050D01*
X0003134326Y0000345050D01*
X0003130577Y0000343175D01*
X0003128702Y0000339426D01*
X0003128702Y0000318803D01*
G04 #@! TD*
G04 next file*
G04 #@! TF.GenerationSoftware,KiCad,Pcbnew,(5.0.2)-1*
G04 #@! TF.CreationDate,2019-01-19T12:29:50+11:00*
G04 #@! TF.ProjectId,Gain_Block_Dev_Rev_0,4761696e-5f42-46c6-9f63-6b5f4465765f,rev?*
G04 #@! TF.SameCoordinates,Original*
G04 #@! TF.FileFunction,Legend,Bot*
G04 #@! TF.FilePolarity,Positive*
G04 Gerber Fmt 4.6, Leading zero omitted, Abs format (unit mm)*
G04 Created by KiCad (PCBNEW (5.0.2)-1) date 19/01/2019 12:29:50*
G01*
G04 APERTURE LIST*
G04 APERTURE END LIST*
G04 #@! TO.C,REF\002A\002A*
D22*
X0001507499Y0002181664D02*
X0001507499Y0002149793D01*
X0001509373Y0002146043D01*
X0001511248Y0002144169D01*
X0001514998Y0002142294D01*
X0001520622Y0002142294D01*
X0001524371Y0002144169D01*
X0001507499Y0002157292D02*
X0001511248Y0002155417D01*
X0001518747Y0002155417D01*
X0001522497Y0002157292D01*
X0001524371Y0002159167D01*
X0001526246Y0002162916D01*
X0001526246Y0002174165D01*
X0001524371Y0002177915D01*
X0001522497Y0002179789D01*
X0001518747Y0002181664D01*
X0001511248Y0002181664D01*
X0001507499Y0002179789D01*
X0001488751Y0002155417D02*
X0001488751Y0002181664D01*
X0001488751Y0002194787D02*
X0001490626Y0002192913D01*
X0001488751Y0002191038D01*
X0001486876Y0002192913D01*
X0001488751Y0002194787D01*
X0001488751Y0002191038D01*
X0001475628Y0002181664D02*
X0001460629Y0002181664D01*
X0001470003Y0002194787D02*
X0001470003Y0002161042D01*
X0001468128Y0002157292D01*
X0001464379Y0002155417D01*
X0001460629Y0002155417D01*
X0001447506Y0002155417D02*
X0001447506Y0002194787D01*
X0001430633Y0002155417D02*
X0001430633Y0002176040D01*
X0001432508Y0002179789D01*
X0001436257Y0002181664D01*
X0001441882Y0002181664D01*
X0001445631Y0002179789D01*
X0001447506Y0002177915D01*
X0001395013Y0002181664D02*
X0001395013Y0002155417D01*
X0001411885Y0002181664D02*
X0001411885Y0002161042D01*
X0001410011Y0002157292D01*
X0001406261Y0002155417D01*
X0001400637Y0002155417D01*
X0001396887Y0002157292D01*
X0001395013Y0002159167D01*
X0001376265Y0002155417D02*
X0001376265Y0002194787D01*
X0001376265Y0002179789D02*
X0001372515Y0002181664D01*
X0001365016Y0002181664D01*
X0001361267Y0002179789D01*
X0001359392Y0002177915D01*
X0001357517Y0002174165D01*
X0001357517Y0002162916D01*
X0001359392Y0002159167D01*
X0001361267Y0002157292D01*
X0001365016Y0002155417D01*
X0001372515Y0002155417D01*
X0001376265Y0002157292D01*
X0001340644Y0002159167D02*
X0001338770Y0002157292D01*
X0001340644Y0002155417D01*
X0001342519Y0002157292D01*
X0001340644Y0002159167D01*
X0001340644Y0002155417D01*
X0001305024Y0002157292D02*
X0001308773Y0002155417D01*
X0001316272Y0002155417D01*
X0001320022Y0002157292D01*
X0001321897Y0002159167D01*
X0001323771Y0002162916D01*
X0001323771Y0002174165D01*
X0001321897Y0002177915D01*
X0001320022Y0002179789D01*
X0001316272Y0002181664D01*
X0001308773Y0002181664D01*
X0001305024Y0002179789D01*
X0001282527Y0002155417D02*
X0001286276Y0002157292D01*
X0001288151Y0002159167D01*
X0001290026Y0002162916D01*
X0001290026Y0002174165D01*
X0001288151Y0002177915D01*
X0001286276Y0002179789D01*
X0001282527Y0002181664D01*
X0001276902Y0002181664D01*
X0001273153Y0002179789D01*
X0001271278Y0002177915D01*
X0001269403Y0002174165D01*
X0001269403Y0002162916D01*
X0001271278Y0002159167D01*
X0001273153Y0002157292D01*
X0001276902Y0002155417D01*
X0001282527Y0002155417D01*
X0001252530Y0002155417D02*
X0001252530Y0002181664D01*
X0001252530Y0002177915D02*
X0001250656Y0002179789D01*
X0001246906Y0002181664D01*
X0001241282Y0002181664D01*
X0001237532Y0002179789D01*
X0001235658Y0002176040D01*
X0001235658Y0002155417D01*
X0001235658Y0002176040D02*
X0001233783Y0002179789D01*
X0001230033Y0002181664D01*
X0001224409Y0002181664D01*
X0001220659Y0002179789D01*
X0001218785Y0002176040D01*
X0001218785Y0002155417D01*
X0001171915Y0002196662D02*
X0001205661Y0002146043D01*
X0001158792Y0002181664D02*
X0001158792Y0002147918D01*
X0001160667Y0002144169D01*
X0001164416Y0002142294D01*
X0001166291Y0002142294D01*
X0001158792Y0002194787D02*
X0001160667Y0002192913D01*
X0001158792Y0002191038D01*
X0001156917Y0002192913D01*
X0001158792Y0002194787D01*
X0001158792Y0002191038D01*
X0001134420Y0002155417D02*
X0001138170Y0002157292D01*
X0001140044Y0002159167D01*
X0001141919Y0002162916D01*
X0001141919Y0002174165D01*
X0001140044Y0002177915D01*
X0001138170Y0002179789D01*
X0001134420Y0002181664D01*
X0001128796Y0002181664D01*
X0001125046Y0002179789D01*
X0001123172Y0002177915D01*
X0001121297Y0002174165D01*
X0001121297Y0002162916D01*
X0001123172Y0002159167D01*
X0001125046Y0002157292D01*
X0001128796Y0002155417D01*
X0001134420Y0002155417D01*
X0001106299Y0002157292D02*
X0001102549Y0002155417D01*
X0001095050Y0002155417D01*
X0001091301Y0002157292D01*
X0001089426Y0002161042D01*
X0001089426Y0002162916D01*
X0001091301Y0002166666D01*
X0001095050Y0002168541D01*
X0001100674Y0002168541D01*
X0001104424Y0002170415D01*
X0001106299Y0002174165D01*
X0001106299Y0002176040D01*
X0001104424Y0002179789D01*
X0001100674Y0002181664D01*
X0001095050Y0002181664D01*
X0001091301Y0002179789D01*
X0001072553Y0002155417D02*
X0001072553Y0002194787D01*
X0001055680Y0002155417D02*
X0001055680Y0002176040D01*
X0001057555Y0002179789D01*
X0001061304Y0002181664D01*
X0001066929Y0002181664D01*
X0001070678Y0002179789D01*
X0001072553Y0002177915D01*
X0001020059Y0002155417D02*
X0001020059Y0002176040D01*
X0001021934Y0002179789D01*
X0001025684Y0002181664D01*
X0001033183Y0002181664D01*
X0001036932Y0002179789D01*
X0001020059Y0002157292D02*
X0001023809Y0002155417D01*
X0001033183Y0002155417D01*
X0001036932Y0002157292D01*
X0001038807Y0002161042D01*
X0001038807Y0002164791D01*
X0001036932Y0002168541D01*
X0001033183Y0002170415D01*
X0001023809Y0002170415D01*
X0001020059Y0002172290D01*
X0001001312Y0002181664D02*
X0001001312Y0002147918D01*
X0001003187Y0002144169D01*
X0001006936Y0002142294D01*
X0001008811Y0002142294D01*
X0001001312Y0002194787D02*
X0001003187Y0002192913D01*
X0001001312Y0002191038D01*
X0000999437Y0002192913D01*
X0001001312Y0002194787D01*
X0001001312Y0002191038D01*
X0000976940Y0002155417D02*
X0000980689Y0002157292D01*
X0000982564Y0002159167D01*
X0000984439Y0002162916D01*
X0000984439Y0002174165D01*
X0000982564Y0002177915D01*
X0000980689Y0002179789D01*
X0000976940Y0002181664D01*
X0000971316Y0002181664D01*
X0000967566Y0002179789D01*
X0000965691Y0002177915D01*
X0000963817Y0002174165D01*
X0000963817Y0002162916D01*
X0000965691Y0002159167D01*
X0000967566Y0002157292D01*
X0000971316Y0002155417D01*
X0000976940Y0002155417D01*
X0000946944Y0002155417D02*
X0000946944Y0002194787D01*
X0000930071Y0002155417D02*
X0000930071Y0002176040D01*
X0000931945Y0002179789D01*
X0000935695Y0002181664D01*
X0000941319Y0002181664D01*
X0000945069Y0002179789D01*
X0000946944Y0002177915D01*
X0000911323Y0002181664D02*
X0000911323Y0002155417D01*
X0000911323Y0002177915D02*
X0000909448Y0002179789D01*
X0000905699Y0002181664D01*
X0000900074Y0002181664D01*
X0000896325Y0002179789D01*
X0000894450Y0002176040D01*
X0000894450Y0002155417D01*
X0000877577Y0002157292D02*
X0000873828Y0002155417D01*
X0000866329Y0002155417D01*
X0000862579Y0002157292D01*
X0000860704Y0002161042D01*
X0000860704Y0002162916D01*
X0000862579Y0002166666D01*
X0000866329Y0002168541D01*
X0000871953Y0002168541D01*
X0000875703Y0002170415D01*
X0000877577Y0002174165D01*
X0000877577Y0002176040D01*
X0000875703Y0002179789D01*
X0000871953Y0002181664D01*
X0000866329Y0002181664D01*
X0000862579Y0002179789D01*
X0000838207Y0002155417D02*
X0000841957Y0002157292D01*
X0000843832Y0002159167D01*
X0000845706Y0002162916D01*
X0000845706Y0002174165D01*
X0000843832Y0002177915D01*
X0000841957Y0002179789D01*
X0000838207Y0002181664D01*
X0000832583Y0002181664D01*
X0000828833Y0002179789D01*
X0000826959Y0002177915D01*
X0000825084Y0002174165D01*
X0000825084Y0002162916D01*
X0000826959Y0002159167D01*
X0000828833Y0002157292D01*
X0000832583Y0002155417D01*
X0000838207Y0002155417D01*
X0000808211Y0002181664D02*
X0000808211Y0002155417D01*
X0000808211Y0002177915D02*
X0000806336Y0002179789D01*
X0000802587Y0002181664D01*
X0000796962Y0002181664D01*
X0000793213Y0002179789D01*
X0000791338Y0002176040D01*
X0000791338Y0002155417D01*
X0000744469Y0002196662D02*
X0000778215Y0002146043D01*
X0000735095Y0002181664D02*
X0000725721Y0002155417D01*
X0000716347Y0002181664D01*
X0000701349Y0002181664D02*
X0000701349Y0002155417D01*
X0000701349Y0002177915D02*
X0000699475Y0002179789D01*
X0000695725Y0002181664D01*
X0000690101Y0002181664D01*
X0000686351Y0002179789D01*
X0000684476Y0002176040D01*
X0000684476Y0002155417D01*
X0000648856Y0002155417D02*
X0000648856Y0002176040D01*
X0000650731Y0002179789D01*
X0000654480Y0002181664D01*
X0000661979Y0002181664D01*
X0000665729Y0002179789D01*
X0000648856Y0002157292D02*
X0000652605Y0002155417D01*
X0000661979Y0002155417D01*
X0000665729Y0002157292D01*
X0000667604Y0002161042D01*
X0000667604Y0002164791D01*
X0000665729Y0002168541D01*
X0000661979Y0002170415D01*
X0000652605Y0002170415D01*
X0000648856Y0002172290D01*
X0001517810Y0002240719D02*
X0001517810Y0002206973D01*
X0001519685Y0002203224D01*
X0001523434Y0002201349D01*
X0001525309Y0002201349D01*
X0001517810Y0002253843D02*
X0001519685Y0002251968D01*
X0001517810Y0002250093D01*
X0001515935Y0002251968D01*
X0001517810Y0002253843D01*
X0001517810Y0002250093D01*
X0001493438Y0002214472D02*
X0001497187Y0002216347D01*
X0001499062Y0002218222D01*
X0001500937Y0002221972D01*
X0001500937Y0002233220D01*
X0001499062Y0002236970D01*
X0001497187Y0002238844D01*
X0001493438Y0002240719D01*
X0001487814Y0002240719D01*
X0001484064Y0002238844D01*
X0001482189Y0002236970D01*
X0001480314Y0002233220D01*
X0001480314Y0002221972D01*
X0001482189Y0002218222D01*
X0001484064Y0002216347D01*
X0001487814Y0002214472D01*
X0001493438Y0002214472D01*
X0001465316Y0002216347D02*
X0001461567Y0002214472D01*
X0001454068Y0002214472D01*
X0001450318Y0002216347D01*
X0001448443Y0002220097D01*
X0001448443Y0002221972D01*
X0001450318Y0002225721D01*
X0001454068Y0002227596D01*
X0001459692Y0002227596D01*
X0001463442Y0002229471D01*
X0001465316Y0002233220D01*
X0001465316Y0002235095D01*
X0001463442Y0002238844D01*
X0001459692Y0002240719D01*
X0001454068Y0002240719D01*
X0001450318Y0002238844D01*
X0001431571Y0002214472D02*
X0001431571Y0002253843D01*
X0001414698Y0002214472D02*
X0001414698Y0002235095D01*
X0001416572Y0002238844D01*
X0001420322Y0002240719D01*
X0001425946Y0002240719D01*
X0001429696Y0002238844D01*
X0001431571Y0002236970D01*
X0001379077Y0002214472D02*
X0001379077Y0002235095D01*
X0001380952Y0002238844D01*
X0001384701Y0002240719D01*
X0001392200Y0002240719D01*
X0001395950Y0002238844D01*
X0001379077Y0002216347D02*
X0001382827Y0002214472D01*
X0001392200Y0002214472D01*
X0001395950Y0002216347D01*
X0001397825Y0002220097D01*
X0001397825Y0002223846D01*
X0001395950Y0002227596D01*
X0001392200Y0002229471D01*
X0001382827Y0002229471D01*
X0001379077Y0002231345D01*
X0001360329Y0002240719D02*
X0001360329Y0002206973D01*
X0001362204Y0002203224D01*
X0001365954Y0002201349D01*
X0001367828Y0002201349D01*
X0001360329Y0002253843D02*
X0001362204Y0002251968D01*
X0001360329Y0002250093D01*
X0001358455Y0002251968D01*
X0001360329Y0002253843D01*
X0001360329Y0002250093D01*
X0001335957Y0002214472D02*
X0001339707Y0002216347D01*
X0001341582Y0002218222D01*
X0001343457Y0002221972D01*
X0001343457Y0002233220D01*
X0001341582Y0002236970D01*
X0001339707Y0002238844D01*
X0001335957Y0002240719D01*
X0001330333Y0002240719D01*
X0001326584Y0002238844D01*
X0001324709Y0002236970D01*
X0001322834Y0002233220D01*
X0001322834Y0002221972D01*
X0001324709Y0002218222D01*
X0001326584Y0002216347D01*
X0001330333Y0002214472D01*
X0001335957Y0002214472D01*
X0001305961Y0002214472D02*
X0001305961Y0002253843D01*
X0001289088Y0002214472D02*
X0001289088Y0002235095D01*
X0001290963Y0002238844D01*
X0001294713Y0002240719D01*
X0001300337Y0002240719D01*
X0001304086Y0002238844D01*
X0001305961Y0002236970D01*
X0001270341Y0002240719D02*
X0001270341Y0002214472D01*
X0001270341Y0002236970D02*
X0001268466Y0002238844D01*
X0001264716Y0002240719D01*
X0001259092Y0002240719D01*
X0001255343Y0002238844D01*
X0001253468Y0002235095D01*
X0001253468Y0002214472D01*
X0001236595Y0002216347D02*
X0001232845Y0002214472D01*
X0001225346Y0002214472D01*
X0001221597Y0002216347D01*
X0001219722Y0002220097D01*
X0001219722Y0002221972D01*
X0001221597Y0002225721D01*
X0001225346Y0002227596D01*
X0001230971Y0002227596D01*
X0001234720Y0002229471D01*
X0001236595Y0002233220D01*
X0001236595Y0002235095D01*
X0001234720Y0002238844D01*
X0001230971Y0002240719D01*
X0001225346Y0002240719D01*
X0001221597Y0002238844D01*
X0001197225Y0002214472D02*
X0001200974Y0002216347D01*
X0001202849Y0002218222D01*
X0001204724Y0002221972D01*
X0001204724Y0002233220D01*
X0001202849Y0002236970D01*
X0001200974Y0002238844D01*
X0001197225Y0002240719D01*
X0001191600Y0002240719D01*
X0001187851Y0002238844D01*
X0001185976Y0002236970D01*
X0001184101Y0002233220D01*
X0001184101Y0002221972D01*
X0001185976Y0002218222D01*
X0001187851Y0002216347D01*
X0001191600Y0002214472D01*
X0001197225Y0002214472D01*
X0001167229Y0002240719D02*
X0001167229Y0002214472D01*
X0001167229Y0002236970D02*
X0001165354Y0002238844D01*
X0001161604Y0002240719D01*
X0001155980Y0002240719D01*
X0001152230Y0002238844D01*
X0001150356Y0002235095D01*
X0001150356Y0002214472D01*
X0001131608Y0002218222D02*
X0001129733Y0002216347D01*
X0001131608Y0002214472D01*
X0001133483Y0002216347D01*
X0001131608Y0002218222D01*
X0001131608Y0002214472D01*
X0001095987Y0002216347D02*
X0001099737Y0002214472D01*
X0001107236Y0002214472D01*
X0001110986Y0002216347D01*
X0001112860Y0002218222D01*
X0001114735Y0002221972D01*
X0001114735Y0002233220D01*
X0001112860Y0002236970D01*
X0001110986Y0002238844D01*
X0001107236Y0002240719D01*
X0001099737Y0002240719D01*
X0001095987Y0002238844D01*
X0001073490Y0002214472D02*
X0001077240Y0002216347D01*
X0001079115Y0002218222D01*
X0001080989Y0002221972D01*
X0001080989Y0002233220D01*
X0001079115Y0002236970D01*
X0001077240Y0002238844D01*
X0001073490Y0002240719D01*
X0001067866Y0002240719D01*
X0001064116Y0002238844D01*
X0001062242Y0002236970D01*
X0001060367Y0002233220D01*
X0001060367Y0002221972D01*
X0001062242Y0002218222D01*
X0001064116Y0002216347D01*
X0001067866Y0002214472D01*
X0001073490Y0002214472D01*
X0001043494Y0002214472D02*
X0001043494Y0002240719D01*
X0001043494Y0002236970D02*
X0001041619Y0002238844D01*
X0001037870Y0002240719D01*
X0001032245Y0002240719D01*
X0001028496Y0002238844D01*
X0001026621Y0002235095D01*
X0001026621Y0002214472D01*
X0001026621Y0002235095D02*
X0001024746Y0002238844D01*
X0001020997Y0002240719D01*
X0001015373Y0002240719D01*
X0001011623Y0002238844D01*
X0001009748Y0002235095D01*
X0001009748Y0002214472D01*
X0001515560Y0002312898D02*
X0001515560Y0002284776D01*
X0001517435Y0002279152D01*
X0001521184Y0002275402D01*
X0001526809Y0002273528D01*
X0001530558Y0002273528D01*
X0001491188Y0002273528D02*
X0001494938Y0002275402D01*
X0001496812Y0002277277D01*
X0001498687Y0002281027D01*
X0001498687Y0002292275D01*
X0001496812Y0002296025D01*
X0001494938Y0002297900D01*
X0001491188Y0002299774D01*
X0001485564Y0002299774D01*
X0001481814Y0002297900D01*
X0001479939Y0002296025D01*
X0001478065Y0002292275D01*
X0001478065Y0002281027D01*
X0001479939Y0002277277D01*
X0001481814Y0002275402D01*
X0001485564Y0002273528D01*
X0001491188Y0002273528D01*
X0001463067Y0002275402D02*
X0001459317Y0002273528D01*
X0001451818Y0002273528D01*
X0001448068Y0002275402D01*
X0001446194Y0002279152D01*
X0001446194Y0002281027D01*
X0001448068Y0002284776D01*
X0001451818Y0002286651D01*
X0001457442Y0002286651D01*
X0001461192Y0002288526D01*
X0001463067Y0002292275D01*
X0001463067Y0002294150D01*
X0001461192Y0002297900D01*
X0001457442Y0002299774D01*
X0001451818Y0002299774D01*
X0001448068Y0002297900D01*
X0001429321Y0002273528D02*
X0001429321Y0002312898D01*
X0001412448Y0002273528D02*
X0001412448Y0002294150D01*
X0001414323Y0002297900D01*
X0001418072Y0002299774D01*
X0001423696Y0002299774D01*
X0001427446Y0002297900D01*
X0001429321Y0002296025D01*
X0001352455Y0002312898D02*
X0001352455Y0002284776D01*
X0001354330Y0002279152D01*
X0001358080Y0002275402D01*
X0001363704Y0002273528D01*
X0001367454Y0002273528D01*
X0001328083Y0002273528D02*
X0001331833Y0002275402D01*
X0001333708Y0002277277D01*
X0001335583Y0002281027D01*
X0001335583Y0002292275D01*
X0001333708Y0002296025D01*
X0001331833Y0002297900D01*
X0001328083Y0002299774D01*
X0001322459Y0002299774D01*
X0001318710Y0002297900D01*
X0001316835Y0002296025D01*
X0001314960Y0002292275D01*
X0001314960Y0002281027D01*
X0001316835Y0002277277D01*
X0001318710Y0002275402D01*
X0001322459Y0002273528D01*
X0001328083Y0002273528D01*
X0001298087Y0002273528D02*
X0001298087Y0002312898D01*
X0001281214Y0002273528D02*
X0001281214Y0002294150D01*
X0001283089Y0002297900D01*
X0001286839Y0002299774D01*
X0001292463Y0002299774D01*
X0001296212Y0002297900D01*
X0001298087Y0002296025D01*
X0001262467Y0002299774D02*
X0001262467Y0002273528D01*
X0001262467Y0002296025D02*
X0001260592Y0002297900D01*
X0001256842Y0002299774D01*
X0001251218Y0002299774D01*
X0001247469Y0002297900D01*
X0001245594Y0002294150D01*
X0001245594Y0002273528D01*
X0001228721Y0002275402D02*
X0001224971Y0002273528D01*
X0001217472Y0002273528D01*
X0001213723Y0002275402D01*
X0001211848Y0002279152D01*
X0001211848Y0002281027D01*
X0001213723Y0002284776D01*
X0001217472Y0002286651D01*
X0001223097Y0002286651D01*
X0001226846Y0002288526D01*
X0001228721Y0002292275D01*
X0001228721Y0002294150D01*
X0001226846Y0002297900D01*
X0001223097Y0002299774D01*
X0001217472Y0002299774D01*
X0001213723Y0002297900D01*
X0001189351Y0002273528D02*
X0001193100Y0002275402D01*
X0001194975Y0002277277D01*
X0001196850Y0002281027D01*
X0001196850Y0002292275D01*
X0001194975Y0002296025D01*
X0001193100Y0002297900D01*
X0001189351Y0002299774D01*
X0001183726Y0002299774D01*
X0001179977Y0002297900D01*
X0001178102Y0002296025D01*
X0001176227Y0002292275D01*
X0001176227Y0002281027D01*
X0001178102Y0002277277D01*
X0001179977Y0002275402D01*
X0001183726Y0002273528D01*
X0001189351Y0002273528D01*
X0001159355Y0002299774D02*
X0001159355Y0002273528D01*
X0001159355Y0002296025D02*
X0001157480Y0002297900D01*
X0001153730Y0002299774D01*
X0001148106Y0002299774D01*
X0001144356Y0002297900D01*
X0001142482Y0002294150D01*
X0001142482Y0002273528D01*
G04 #@! TD*
G04 next file*
G04 #@! TF.GenerationSoftware,KiCad,Pcbnew,(5.0.2)-1*
G04 #@! TF.CreationDate,2019-01-19T12:25:22+11:00*
G04 #@! TF.ProjectId,MAX2870_Dev_Rev_0,4d415832-3837-4305-9f44-65765f526576,rev?*
G04 #@! TF.SameCoordinates,Original*
G04 #@! TF.FileFunction,Legend,Bot*
G04 #@! TF.FilePolarity,Positive*
G04 Gerber Fmt 4.6, Leading zero omitted, Abs format (unit mm)*
G04 Created by KiCad (PCBNEW (5.0.2)-1) date 19/01/2019 12:25:22*
G01*
G04 APERTURE LIST*
G04 APERTURE END LIST*
D23*
X0003495688Y0002110798D02*
X0003495688Y0002078927D01*
X0003497562Y0002075177D01*
X0003499437Y0002073303D01*
X0003503187Y0002071428D01*
X0003508811Y0002071428D01*
X0003512560Y0002073303D01*
X0003495688Y0002086426D02*
X0003499437Y0002084551D01*
X0003506936Y0002084551D01*
X0003510686Y0002086426D01*
X0003512560Y0002088301D01*
X0003514435Y0002092050D01*
X0003514435Y0002103299D01*
X0003512560Y0002107048D01*
X0003510686Y0002108923D01*
X0003506936Y0002110798D01*
X0003499437Y0002110798D01*
X0003495688Y0002108923D01*
X0003476940Y0002084551D02*
X0003476940Y0002110798D01*
X0003476940Y0002123921D02*
X0003478815Y0002122046D01*
X0003476940Y0002120172D01*
X0003475065Y0002122046D01*
X0003476940Y0002123921D01*
X0003476940Y0002120172D01*
X0003463817Y0002110798D02*
X0003448818Y0002110798D01*
X0003458192Y0002123921D02*
X0003458192Y0002090175D01*
X0003456317Y0002086426D01*
X0003452568Y0002084551D01*
X0003448818Y0002084551D01*
X0003435695Y0002084551D02*
X0003435695Y0002123921D01*
X0003418822Y0002084551D02*
X0003418822Y0002105174D01*
X0003420697Y0002108923D01*
X0003424446Y0002110798D01*
X0003430071Y0002110798D01*
X0003433820Y0002108923D01*
X0003435695Y0002107048D01*
X0003383202Y0002110798D02*
X0003383202Y0002084551D01*
X0003400074Y0002110798D02*
X0003400074Y0002090175D01*
X0003398200Y0002086426D01*
X0003394450Y0002084551D01*
X0003388826Y0002084551D01*
X0003385076Y0002086426D01*
X0003383202Y0002088301D01*
X0003364454Y0002084551D02*
X0003364454Y0002123921D01*
X0003364454Y0002108923D02*
X0003360704Y0002110798D01*
X0003353205Y0002110798D01*
X0003349456Y0002108923D01*
X0003347581Y0002107048D01*
X0003345706Y0002103299D01*
X0003345706Y0002092050D01*
X0003347581Y0002088301D01*
X0003349456Y0002086426D01*
X0003353205Y0002084551D01*
X0003360704Y0002084551D01*
X0003364454Y0002086426D01*
X0003328833Y0002088301D02*
X0003326959Y0002086426D01*
X0003328833Y0002084551D01*
X0003330708Y0002086426D01*
X0003328833Y0002088301D01*
X0003328833Y0002084551D01*
X0003293213Y0002086426D02*
X0003296962Y0002084551D01*
X0003304461Y0002084551D01*
X0003308211Y0002086426D01*
X0003310086Y0002088301D01*
X0003311960Y0002092050D01*
X0003311960Y0002103299D01*
X0003310086Y0002107048D01*
X0003308211Y0002108923D01*
X0003304461Y0002110798D01*
X0003296962Y0002110798D01*
X0003293213Y0002108923D01*
X0003270716Y0002084551D02*
X0003274465Y0002086426D01*
X0003276340Y0002088301D01*
X0003278215Y0002092050D01*
X0003278215Y0002103299D01*
X0003276340Y0002107048D01*
X0003274465Y0002108923D01*
X0003270716Y0002110798D01*
X0003265091Y0002110798D01*
X0003261342Y0002108923D01*
X0003259467Y0002107048D01*
X0003257592Y0002103299D01*
X0003257592Y0002092050D01*
X0003259467Y0002088301D01*
X0003261342Y0002086426D01*
X0003265091Y0002084551D01*
X0003270716Y0002084551D01*
X0003240719Y0002084551D02*
X0003240719Y0002110798D01*
X0003240719Y0002107048D02*
X0003238845Y0002108923D01*
X0003235095Y0002110798D01*
X0003229471Y0002110798D01*
X0003225721Y0002108923D01*
X0003223847Y0002105174D01*
X0003223847Y0002084551D01*
X0003223847Y0002105174D02*
X0003221972Y0002108923D01*
X0003218222Y0002110798D01*
X0003212598Y0002110798D01*
X0003208848Y0002108923D01*
X0003206974Y0002105174D01*
X0003206974Y0002084551D01*
X0003160104Y0002125796D02*
X0003193850Y0002075177D01*
X0003146981Y0002110798D02*
X0003146981Y0002077052D01*
X0003148856Y0002073303D01*
X0003152605Y0002071428D01*
X0003154480Y0002071428D01*
X0003146981Y0002123921D02*
X0003148856Y0002122046D01*
X0003146981Y0002120172D01*
X0003145106Y0002122046D01*
X0003146981Y0002123921D01*
X0003146981Y0002120172D01*
X0003122609Y0002084551D02*
X0003126359Y0002086426D01*
X0003128233Y0002088301D01*
X0003130108Y0002092050D01*
X0003130108Y0002103299D01*
X0003128233Y0002107048D01*
X0003126359Y0002108923D01*
X0003122609Y0002110798D01*
X0003116985Y0002110798D01*
X0003113235Y0002108923D01*
X0003111361Y0002107048D01*
X0003109486Y0002103299D01*
X0003109486Y0002092050D01*
X0003111361Y0002088301D01*
X0003113235Y0002086426D01*
X0003116985Y0002084551D01*
X0003122609Y0002084551D01*
X0003094488Y0002086426D02*
X0003090738Y0002084551D01*
X0003083239Y0002084551D01*
X0003079490Y0002086426D01*
X0003077615Y0002090175D01*
X0003077615Y0002092050D01*
X0003079490Y0002095800D01*
X0003083239Y0002097675D01*
X0003088863Y0002097675D01*
X0003092613Y0002099549D01*
X0003094488Y0002103299D01*
X0003094488Y0002105174D01*
X0003092613Y0002108923D01*
X0003088863Y0002110798D01*
X0003083239Y0002110798D01*
X0003079490Y0002108923D01*
X0003060742Y0002084551D02*
X0003060742Y0002123921D01*
X0003043869Y0002084551D02*
X0003043869Y0002105174D01*
X0003045744Y0002108923D01*
X0003049493Y0002110798D01*
X0003055118Y0002110798D01*
X0003058867Y0002108923D01*
X0003060742Y0002107048D01*
X0003008248Y0002084551D02*
X0003008248Y0002105174D01*
X0003010123Y0002108923D01*
X0003013873Y0002110798D01*
X0003021372Y0002110798D01*
X0003025121Y0002108923D01*
X0003008248Y0002086426D02*
X0003011998Y0002084551D01*
X0003021372Y0002084551D01*
X0003025121Y0002086426D01*
X0003026996Y0002090175D01*
X0003026996Y0002093925D01*
X0003025121Y0002097675D01*
X0003021372Y0002099549D01*
X0003011998Y0002099549D01*
X0003008248Y0002101424D01*
X0002989501Y0002110798D02*
X0002989501Y0002077052D01*
X0002991376Y0002073303D01*
X0002995125Y0002071428D01*
X0002997000Y0002071428D01*
X0002989501Y0002123921D02*
X0002991376Y0002122046D01*
X0002989501Y0002120172D01*
X0002987626Y0002122046D01*
X0002989501Y0002123921D01*
X0002989501Y0002120172D01*
X0002965129Y0002084551D02*
X0002968878Y0002086426D01*
X0002970753Y0002088301D01*
X0002972628Y0002092050D01*
X0002972628Y0002103299D01*
X0002970753Y0002107048D01*
X0002968878Y0002108923D01*
X0002965129Y0002110798D01*
X0002959505Y0002110798D01*
X0002955755Y0002108923D01*
X0002953880Y0002107048D01*
X0002952005Y0002103299D01*
X0002952005Y0002092050D01*
X0002953880Y0002088301D01*
X0002955755Y0002086426D01*
X0002959505Y0002084551D01*
X0002965129Y0002084551D01*
X0002935133Y0002084551D02*
X0002935133Y0002123921D01*
X0002918260Y0002084551D02*
X0002918260Y0002105174D01*
X0002920134Y0002108923D01*
X0002923884Y0002110798D01*
X0002929508Y0002110798D01*
X0002933258Y0002108923D01*
X0002935133Y0002107048D01*
X0002899512Y0002110798D02*
X0002899512Y0002084551D01*
X0002899512Y0002107048D02*
X0002897637Y0002108923D01*
X0002893888Y0002110798D01*
X0002888263Y0002110798D01*
X0002884514Y0002108923D01*
X0002882639Y0002105174D01*
X0002882639Y0002084551D01*
X0002865766Y0002086426D02*
X0002862017Y0002084551D01*
X0002854518Y0002084551D01*
X0002850768Y0002086426D01*
X0002848893Y0002090175D01*
X0002848893Y0002092050D01*
X0002850768Y0002095800D01*
X0002854518Y0002097675D01*
X0002860142Y0002097675D01*
X0002863892Y0002099549D01*
X0002865766Y0002103299D01*
X0002865766Y0002105174D01*
X0002863892Y0002108923D01*
X0002860142Y0002110798D01*
X0002854518Y0002110798D01*
X0002850768Y0002108923D01*
X0002826396Y0002084551D02*
X0002830146Y0002086426D01*
X0002832020Y0002088301D01*
X0002833895Y0002092050D01*
X0002833895Y0002103299D01*
X0002832020Y0002107048D01*
X0002830146Y0002108923D01*
X0002826396Y0002110798D01*
X0002820772Y0002110798D01*
X0002817022Y0002108923D01*
X0002815148Y0002107048D01*
X0002813273Y0002103299D01*
X0002813273Y0002092050D01*
X0002815148Y0002088301D01*
X0002817022Y0002086426D01*
X0002820772Y0002084551D01*
X0002826396Y0002084551D01*
X0002796400Y0002110798D02*
X0002796400Y0002084551D01*
X0002796400Y0002107048D02*
X0002794525Y0002108923D01*
X0002790776Y0002110798D01*
X0002785151Y0002110798D01*
X0002781402Y0002108923D01*
X0002779527Y0002105174D01*
X0002779527Y0002084551D01*
X0002732658Y0002125796D02*
X0002766404Y0002075177D01*
X0002723284Y0002110798D02*
X0002713910Y0002084551D01*
X0002704536Y0002110798D01*
X0002689538Y0002110798D02*
X0002689538Y0002084551D01*
X0002689538Y0002107048D02*
X0002687664Y0002108923D01*
X0002683914Y0002110798D01*
X0002678290Y0002110798D01*
X0002674540Y0002108923D01*
X0002672665Y0002105174D01*
X0002672665Y0002084551D01*
X0002637045Y0002084551D02*
X0002637045Y0002105174D01*
X0002638920Y0002108923D01*
X0002642669Y0002110798D01*
X0002650168Y0002110798D01*
X0002653918Y0002108923D01*
X0002637045Y0002086426D02*
X0002640794Y0002084551D01*
X0002650168Y0002084551D01*
X0002653918Y0002086426D01*
X0002655792Y0002090175D01*
X0002655792Y0002093925D01*
X0002653918Y0002097675D01*
X0002650168Y0002099549D01*
X0002640794Y0002099549D01*
X0002637045Y0002101424D01*
X0003504030Y0002205286D02*
X0003504030Y0002171540D01*
X0003505905Y0002167791D01*
X0003509655Y0002165916D01*
X0003511529Y0002165916D01*
X0003504030Y0002218409D02*
X0003505905Y0002216535D01*
X0003504030Y0002214660D01*
X0003502155Y0002216535D01*
X0003504030Y0002218409D01*
X0003504030Y0002214660D01*
X0003479658Y0002179039D02*
X0003483408Y0002180914D01*
X0003485283Y0002182789D01*
X0003487157Y0002186538D01*
X0003487157Y0002197787D01*
X0003485283Y0002201537D01*
X0003483408Y0002203411D01*
X0003479658Y0002205286D01*
X0003474034Y0002205286D01*
X0003470284Y0002203411D01*
X0003468410Y0002201537D01*
X0003466535Y0002197787D01*
X0003466535Y0002186538D01*
X0003468410Y0002182789D01*
X0003470284Y0002180914D01*
X0003474034Y0002179039D01*
X0003479658Y0002179039D01*
X0003451537Y0002180914D02*
X0003447787Y0002179039D01*
X0003440288Y0002179039D01*
X0003436539Y0002180914D01*
X0003434664Y0002184664D01*
X0003434664Y0002186538D01*
X0003436539Y0002190288D01*
X0003440288Y0002192163D01*
X0003445912Y0002192163D01*
X0003449662Y0002194037D01*
X0003451537Y0002197787D01*
X0003451537Y0002199662D01*
X0003449662Y0002203411D01*
X0003445912Y0002205286D01*
X0003440288Y0002205286D01*
X0003436539Y0002203411D01*
X0003417791Y0002179039D02*
X0003417791Y0002218409D01*
X0003400918Y0002179039D02*
X0003400918Y0002199662D01*
X0003402793Y0002203411D01*
X0003406542Y0002205286D01*
X0003412167Y0002205286D01*
X0003415916Y0002203411D01*
X0003417791Y0002201537D01*
X0003365298Y0002179039D02*
X0003365298Y0002199662D01*
X0003367172Y0002203411D01*
X0003370922Y0002205286D01*
X0003378421Y0002205286D01*
X0003382170Y0002203411D01*
X0003365298Y0002180914D02*
X0003369047Y0002179039D01*
X0003378421Y0002179039D01*
X0003382170Y0002180914D01*
X0003384045Y0002184664D01*
X0003384045Y0002188413D01*
X0003382170Y0002192163D01*
X0003378421Y0002194037D01*
X0003369047Y0002194037D01*
X0003365298Y0002195912D01*
X0003346550Y0002205286D02*
X0003346550Y0002171540D01*
X0003348425Y0002167791D01*
X0003352174Y0002165916D01*
X0003354049Y0002165916D01*
X0003346550Y0002218409D02*
X0003348425Y0002216535D01*
X0003346550Y0002214660D01*
X0003344675Y0002216535D01*
X0003346550Y0002218409D01*
X0003346550Y0002214660D01*
X0003322178Y0002179039D02*
X0003325927Y0002180914D01*
X0003327802Y0002182789D01*
X0003329677Y0002186538D01*
X0003329677Y0002197787D01*
X0003327802Y0002201537D01*
X0003325927Y0002203411D01*
X0003322178Y0002205286D01*
X0003316554Y0002205286D01*
X0003312804Y0002203411D01*
X0003310929Y0002201537D01*
X0003309055Y0002197787D01*
X0003309055Y0002186538D01*
X0003310929Y0002182789D01*
X0003312804Y0002180914D01*
X0003316554Y0002179039D01*
X0003322178Y0002179039D01*
X0003292182Y0002179039D02*
X0003292182Y0002218409D01*
X0003275309Y0002179039D02*
X0003275309Y0002199662D01*
X0003277184Y0002203411D01*
X0003280933Y0002205286D01*
X0003286557Y0002205286D01*
X0003290307Y0002203411D01*
X0003292182Y0002201537D01*
X0003256561Y0002205286D02*
X0003256561Y0002179039D01*
X0003256561Y0002201537D02*
X0003254686Y0002203411D01*
X0003250937Y0002205286D01*
X0003245313Y0002205286D01*
X0003241563Y0002203411D01*
X0003239688Y0002199662D01*
X0003239688Y0002179039D01*
X0003222815Y0002180914D02*
X0003219066Y0002179039D01*
X0003211567Y0002179039D01*
X0003207817Y0002180914D01*
X0003205942Y0002184664D01*
X0003205942Y0002186538D01*
X0003207817Y0002190288D01*
X0003211567Y0002192163D01*
X0003217191Y0002192163D01*
X0003220941Y0002194037D01*
X0003222815Y0002197787D01*
X0003222815Y0002199662D01*
X0003220941Y0002203411D01*
X0003217191Y0002205286D01*
X0003211567Y0002205286D01*
X0003207817Y0002203411D01*
X0003183445Y0002179039D02*
X0003187195Y0002180914D01*
X0003189070Y0002182789D01*
X0003190944Y0002186538D01*
X0003190944Y0002197787D01*
X0003189070Y0002201537D01*
X0003187195Y0002203411D01*
X0003183445Y0002205286D01*
X0003177821Y0002205286D01*
X0003174071Y0002203411D01*
X0003172197Y0002201537D01*
X0003170322Y0002197787D01*
X0003170322Y0002186538D01*
X0003172197Y0002182789D01*
X0003174071Y0002180914D01*
X0003177821Y0002179039D01*
X0003183445Y0002179039D01*
X0003153449Y0002205286D02*
X0003153449Y0002179039D01*
X0003153449Y0002201537D02*
X0003151574Y0002203411D01*
X0003147825Y0002205286D01*
X0003142200Y0002205286D01*
X0003138451Y0002203411D01*
X0003136576Y0002199662D01*
X0003136576Y0002179039D01*
X0003117829Y0002182789D02*
X0003115954Y0002180914D01*
X0003117829Y0002179039D01*
X0003119703Y0002180914D01*
X0003117829Y0002182789D01*
X0003117829Y0002179039D01*
X0003082208Y0002180914D02*
X0003085957Y0002179039D01*
X0003093457Y0002179039D01*
X0003097206Y0002180914D01*
X0003099081Y0002182789D01*
X0003100956Y0002186538D01*
X0003100956Y0002197787D01*
X0003099081Y0002201537D01*
X0003097206Y0002203411D01*
X0003093457Y0002205286D01*
X0003085957Y0002205286D01*
X0003082208Y0002203411D01*
X0003059711Y0002179039D02*
X0003063460Y0002180914D01*
X0003065335Y0002182789D01*
X0003067210Y0002186538D01*
X0003067210Y0002197787D01*
X0003065335Y0002201537D01*
X0003063460Y0002203411D01*
X0003059711Y0002205286D01*
X0003054086Y0002205286D01*
X0003050337Y0002203411D01*
X0003048462Y0002201537D01*
X0003046587Y0002197787D01*
X0003046587Y0002186538D01*
X0003048462Y0002182789D01*
X0003050337Y0002180914D01*
X0003054086Y0002179039D01*
X0003059711Y0002179039D01*
X0003029715Y0002179039D02*
X0003029715Y0002205286D01*
X0003029715Y0002201537D02*
X0003027840Y0002203411D01*
X0003024090Y0002205286D01*
X0003018466Y0002205286D01*
X0003014716Y0002203411D01*
X0003012842Y0002199662D01*
X0003012842Y0002179039D01*
X0003012842Y0002199662D02*
X0003010967Y0002203411D01*
X0003007217Y0002205286D01*
X0003001593Y0002205286D01*
X0002997844Y0002203411D01*
X0002995969Y0002199662D01*
X0002995969Y0002179039D01*
X0003497844Y0002310929D02*
X0003497844Y0002282808D01*
X0003499718Y0002277183D01*
X0003503468Y0002273434D01*
X0003509092Y0002271559D01*
X0003512842Y0002271559D01*
X0003473472Y0002271559D02*
X0003477221Y0002273434D01*
X0003479096Y0002275309D01*
X0003480971Y0002279058D01*
X0003480971Y0002290307D01*
X0003479096Y0002294056D01*
X0003477221Y0002295931D01*
X0003473472Y0002297806D01*
X0003467847Y0002297806D01*
X0003464098Y0002295931D01*
X0003462223Y0002294056D01*
X0003460348Y0002290307D01*
X0003460348Y0002279058D01*
X0003462223Y0002275309D01*
X0003464098Y0002273434D01*
X0003467847Y0002271559D01*
X0003473472Y0002271559D01*
X0003445350Y0002273434D02*
X0003441601Y0002271559D01*
X0003434101Y0002271559D01*
X0003430352Y0002273434D01*
X0003428477Y0002277183D01*
X0003428477Y0002279058D01*
X0003430352Y0002282808D01*
X0003434101Y0002284682D01*
X0003439726Y0002284682D01*
X0003443475Y0002286557D01*
X0003445350Y0002290307D01*
X0003445350Y0002292181D01*
X0003443475Y0002295931D01*
X0003439726Y0002297806D01*
X0003434101Y0002297806D01*
X0003430352Y0002295931D01*
X0003411604Y0002271559D02*
X0003411604Y0002310929D01*
X0003394731Y0002271559D02*
X0003394731Y0002292181D01*
X0003396606Y0002295931D01*
X0003400356Y0002297806D01*
X0003405980Y0002297806D01*
X0003409730Y0002295931D01*
X0003411604Y0002294056D01*
X0003334739Y0002310929D02*
X0003334739Y0002282808D01*
X0003336614Y0002277183D01*
X0003340363Y0002273434D01*
X0003345987Y0002271559D01*
X0003349737Y0002271559D01*
X0003310367Y0002271559D02*
X0003314116Y0002273434D01*
X0003315991Y0002275309D01*
X0003317866Y0002279058D01*
X0003317866Y0002290307D01*
X0003315991Y0002294056D01*
X0003314116Y0002295931D01*
X0003310367Y0002297806D01*
X0003304743Y0002297806D01*
X0003300993Y0002295931D01*
X0003299118Y0002294056D01*
X0003297244Y0002290307D01*
X0003297244Y0002279058D01*
X0003299118Y0002275309D01*
X0003300993Y0002273434D01*
X0003304743Y0002271559D01*
X0003310367Y0002271559D01*
X0003280371Y0002271559D02*
X0003280371Y0002310929D01*
X0003263498Y0002271559D02*
X0003263498Y0002292181D01*
X0003265373Y0002295931D01*
X0003269122Y0002297806D01*
X0003274746Y0002297806D01*
X0003278496Y0002295931D01*
X0003280371Y0002294056D01*
X0003244750Y0002297806D02*
X0003244750Y0002271559D01*
X0003244750Y0002294056D02*
X0003242875Y0002295931D01*
X0003239126Y0002297806D01*
X0003233502Y0002297806D01*
X0003229752Y0002295931D01*
X0003227877Y0002292181D01*
X0003227877Y0002271559D01*
X0003211004Y0002273434D02*
X0003207255Y0002271559D01*
X0003199756Y0002271559D01*
X0003196006Y0002273434D01*
X0003194131Y0002277183D01*
X0003194131Y0002279058D01*
X0003196006Y0002282808D01*
X0003199756Y0002284682D01*
X0003205380Y0002284682D01*
X0003209130Y0002286557D01*
X0003211004Y0002290307D01*
X0003211004Y0002292181D01*
X0003209130Y0002295931D01*
X0003205380Y0002297806D01*
X0003199756Y0002297806D01*
X0003196006Y0002295931D01*
X0003171634Y0002271559D02*
X0003175384Y0002273434D01*
X0003177259Y0002275309D01*
X0003179133Y0002279058D01*
X0003179133Y0002290307D01*
X0003177259Y0002294056D01*
X0003175384Y0002295931D01*
X0003171634Y0002297806D01*
X0003166010Y0002297806D01*
X0003162260Y0002295931D01*
X0003160386Y0002294056D01*
X0003158511Y0002290307D01*
X0003158511Y0002279058D01*
X0003160386Y0002275309D01*
X0003162260Y0002273434D01*
X0003166010Y0002271559D01*
X0003171634Y0002271559D01*
X0003141638Y0002297806D02*
X0003141638Y0002271559D01*
X0003141638Y0002294056D02*
X0003139763Y0002295931D01*
X0003136014Y0002297806D01*
X0003130389Y0002297806D01*
X0003126640Y0002295931D01*
X0003124765Y0002292181D01*
X0003124765Y0002271559D01*
M02*