%MOIN*%
%OFA0B0*%
%FSLAX46Y46*%
%IPPOS*%
%LPD*%
%ADD10C,0.005905511811023622*%
%ADD11C,0.0039370078740157488*%
%ADD22C,0.005905511811023622*%
%ADD23C,0.0039370078740157488*%
%ADD24C,0.005905511811023622*%
%ADD25C,0.0039370078740157488*%
%ADD26C,0.005905511811023622*%
%ADD27C,0.0039370078740157488*%
G01*
D10*
G36*
X0000356299Y0000147637D02*
X0000592519Y0000147637D01*
X0000592519Y0000059055D01*
X0000356299Y0000059055D01*
X0000356299Y0000147637D01*
G37*
X0000356299Y0000147637D02*
X0000592519Y0000147637D01*
X0000592519Y0000059055D01*
X0000356299Y0000059055D01*
X0000356299Y0000147637D01*
D11*
G36*
X0000911456Y0000001929D02*
X0000854291Y0000001929D01*
X0000854291Y0000171299D01*
X0000911456Y0000171299D01*
X0000911456Y0000001929D01*
X0000911456Y0000001929D01*
G37*
G36*
X0000689015Y0000001929D02*
X0000631850Y0000001929D01*
X0000631850Y0000171299D01*
X0000689015Y0000171299D01*
X0000689015Y0000001929D01*
X0000689015Y0000001929D01*
G37*
G36*
X0001717883Y0000322383D02*
X0001730247Y0000319923D01*
X0001753540Y0000310275D01*
X0001764941Y0000302657D01*
X0001774503Y0000296268D01*
X0001792331Y0000278440D01*
X0001792331Y0000278440D01*
X0001806338Y0000257477D01*
X0001811130Y0000245907D01*
X0001815986Y0000234184D01*
X0001820905Y0000209456D01*
X0001820905Y0000184244D01*
X0001818446Y0000171880D01*
X0001815986Y0000159516D01*
X0001806338Y0000136223D01*
X0001796585Y0000121626D01*
X0001792331Y0000115260D01*
X0001774503Y0000097432D01*
X0001774503Y0000097432D01*
X0001753540Y0000083425D01*
X0001730247Y0000073776D01*
X0001717883Y0000071317D01*
X0001705519Y0000068858D01*
X0001680307Y0000068858D01*
X0001667943Y0000071317D01*
X0001655579Y0000073776D01*
X0001632286Y0000083425D01*
X0001611323Y0000097432D01*
X0001611323Y0000097432D01*
X0001593495Y0000115260D01*
X0001589241Y0000121626D01*
X0001579488Y0000136223D01*
X0001569839Y0000159516D01*
X0001567380Y0000171880D01*
X0001564921Y0000184244D01*
X0001564921Y0000209456D01*
X0001569839Y0000234184D01*
X0001574695Y0000245907D01*
X0001579488Y0000257477D01*
X0001593495Y0000278440D01*
X0001593495Y0000278440D01*
X0001611323Y0000296268D01*
X0001620884Y0000302657D01*
X0001632286Y0000310275D01*
X0001655579Y0000319923D01*
X0001667943Y0000322383D01*
X0001680307Y0000324842D01*
X0001705519Y0000324842D01*
X0001717883Y0000322383D01*
X0001717883Y0000322383D01*
G37*
G36*
X0000221820Y0000322383D02*
X0000234184Y0000319923D01*
X0000257477Y0000310275D01*
X0000268878Y0000302657D01*
X0000278440Y0000296268D01*
X0000296268Y0000278440D01*
X0000296268Y0000278440D01*
X0000310275Y0000257477D01*
X0000315067Y0000245907D01*
X0000319923Y0000234184D01*
X0000324842Y0000209456D01*
X0000324842Y0000184244D01*
X0000322383Y0000171880D01*
X0000319923Y0000159516D01*
X0000310275Y0000136223D01*
X0000300522Y0000121626D01*
X0000296268Y0000115260D01*
X0000278440Y0000097432D01*
X0000278440Y0000097432D01*
X0000257477Y0000083425D01*
X0000234184Y0000073776D01*
X0000221820Y0000071317D01*
X0000209456Y0000068858D01*
X0000184244Y0000068858D01*
X0000171880Y0000071317D01*
X0000159516Y0000073776D01*
X0000136223Y0000083425D01*
X0000115260Y0000097432D01*
X0000115260Y0000097432D01*
X0000097432Y0000115260D01*
X0000093178Y0000121626D01*
X0000083425Y0000136223D01*
X0000073776Y0000159516D01*
X0000071317Y0000171880D01*
X0000068858Y0000184244D01*
X0000068858Y0000209456D01*
X0000073776Y0000234184D01*
X0000078632Y0000245907D01*
X0000083425Y0000257477D01*
X0000097432Y0000278440D01*
X0000097432Y0000278440D01*
X0000115260Y0000296268D01*
X0000124821Y0000302657D01*
X0000136223Y0000310275D01*
X0000159516Y0000319923D01*
X0000171880Y0000322383D01*
X0000184244Y0000324842D01*
X0000209456Y0000324842D01*
X0000221820Y0000322383D01*
X0000221820Y0000322383D01*
G37*
G36*
X0001887834Y0000407440D02*
X0001718464Y0000407440D01*
X0001718464Y0000464606D01*
X0001887834Y0000464606D01*
X0001887834Y0000407440D01*
X0001887834Y0000407440D01*
G37*
G36*
X0000171299Y0000407440D02*
X0000001929Y0000407440D01*
X0000001929Y0000464606D01*
X0000171299Y0000464606D01*
X0000171299Y0000407440D01*
X0000171299Y0000407440D01*
G37*
G36*
X0000171299Y0000629881D02*
X0000001929Y0000629881D01*
X0000001929Y0000687047D01*
X0000171299Y0000687047D01*
X0000171299Y0000629881D01*
X0000171299Y0000629881D01*
G37*
G36*
X0001887834Y0000629881D02*
X0001718464Y0000629881D01*
X0001718464Y0000687047D01*
X0001887834Y0000687047D01*
X0001887834Y0000629881D01*
X0001887834Y0000629881D01*
G37*
G36*
X0001887834Y0000824763D02*
X0001718464Y0000824763D01*
X0001718464Y0000881929D01*
X0001887834Y0000881929D01*
X0001887834Y0000824763D01*
X0001887834Y0000824763D01*
G37*
G36*
X0000171299Y0000824763D02*
X0000001929Y0000824763D01*
X0000001929Y0000881929D01*
X0000171299Y0000881929D01*
X0000171299Y0000824763D01*
X0000171299Y0000824763D01*
G37*
G36*
X0001887834Y0001047204D02*
X0001718464Y0001047204D01*
X0001718464Y0001104370D01*
X0001887834Y0001104370D01*
X0001887834Y0001047204D01*
X0001887834Y0001047204D01*
G37*
G36*
X0000171299Y0001047204D02*
X0000001929Y0001047204D01*
X0000001929Y0001104370D01*
X0000171299Y0001104370D01*
X0000171299Y0001047204D01*
X0000171299Y0001047204D01*
G37*
G36*
X0001887834Y0001246023D02*
X0001718464Y0001246023D01*
X0001718464Y0001303188D01*
X0001887834Y0001303188D01*
X0001887834Y0001246023D01*
X0001887834Y0001246023D01*
G37*
G36*
X0000171299Y0001246023D02*
X0000001929Y0001246023D01*
X0000001929Y0001303188D01*
X0000171299Y0001303188D01*
X0000171299Y0001246023D01*
X0000171299Y0001246023D01*
G37*
G36*
X0001887834Y0001468464D02*
X0001718464Y0001468464D01*
X0001718464Y0001525629D01*
X0001887834Y0001525629D01*
X0001887834Y0001468464D01*
X0001887834Y0001468464D01*
G37*
G36*
X0000171299Y0001468464D02*
X0000001929Y0001468464D01*
X0000001929Y0001525629D01*
X0000171299Y0001525629D01*
X0000171299Y0001468464D01*
X0000171299Y0001468464D01*
G37*
G36*
X0001717883Y0001818446D02*
X0001730247Y0001815986D01*
X0001753540Y0001806338D01*
X0001764941Y0001798720D01*
X0001774503Y0001792331D01*
X0001792331Y0001774503D01*
X0001792331Y0001774503D01*
X0001806338Y0001753540D01*
X0001811130Y0001741970D01*
X0001815986Y0001730247D01*
X0001820905Y0001705519D01*
X0001820905Y0001680307D01*
X0001818446Y0001667943D01*
X0001815986Y0001655579D01*
X0001806338Y0001632286D01*
X0001796585Y0001617689D01*
X0001792331Y0001611323D01*
X0001774503Y0001593495D01*
X0001774503Y0001593495D01*
X0001753540Y0001579488D01*
X0001730247Y0001569839D01*
X0001717883Y0001567380D01*
X0001705519Y0001564921D01*
X0001680307Y0001564921D01*
X0001667943Y0001567380D01*
X0001655579Y0001569839D01*
X0001632286Y0001579488D01*
X0001611323Y0001593495D01*
X0001611323Y0001593495D01*
X0001593495Y0001611323D01*
X0001589241Y0001617689D01*
X0001579488Y0001632286D01*
X0001569839Y0001655579D01*
X0001567380Y0001667943D01*
X0001564921Y0001680307D01*
X0001564921Y0001705519D01*
X0001569839Y0001730247D01*
X0001574695Y0001741970D01*
X0001579488Y0001753540D01*
X0001593495Y0001774503D01*
X0001593495Y0001774503D01*
X0001611323Y0001792331D01*
X0001620884Y0001798720D01*
X0001632286Y0001806338D01*
X0001655579Y0001815986D01*
X0001667943Y0001818446D01*
X0001680307Y0001820905D01*
X0001705519Y0001820905D01*
X0001717883Y0001818446D01*
X0001717883Y0001818446D01*
G37*
G36*
X0000221820Y0001818446D02*
X0000234184Y0001815986D01*
X0000257477Y0001806338D01*
X0000268878Y0001798720D01*
X0000278440Y0001792331D01*
X0000296268Y0001774503D01*
X0000296268Y0001774503D01*
X0000310275Y0001753540D01*
X0000315067Y0001741970D01*
X0000319923Y0001730247D01*
X0000324842Y0001705519D01*
X0000324842Y0001680307D01*
X0000322383Y0001667943D01*
X0000319923Y0001655579D01*
X0000310275Y0001632286D01*
X0000300522Y0001617689D01*
X0000296268Y0001611323D01*
X0000278440Y0001593495D01*
X0000278440Y0001593495D01*
X0000257477Y0001579488D01*
X0000234184Y0001569839D01*
X0000221820Y0001567380D01*
X0000209456Y0001564921D01*
X0000184244Y0001564921D01*
X0000171880Y0001567380D01*
X0000159516Y0001569839D01*
X0000136223Y0001579488D01*
X0000115260Y0001593495D01*
X0000115260Y0001593495D01*
X0000097432Y0001611323D01*
X0000093178Y0001617689D01*
X0000083425Y0001632286D01*
X0000073776Y0001655579D01*
X0000071317Y0001667943D01*
X0000068858Y0001680307D01*
X0000068858Y0001705519D01*
X0000073776Y0001730247D01*
X0000078632Y0001741970D01*
X0000083425Y0001753540D01*
X0000097432Y0001774503D01*
X0000097432Y0001774503D01*
X0000115260Y0001792331D01*
X0000124821Y0001798720D01*
X0000136223Y0001806338D01*
X0000159516Y0001815986D01*
X0000171880Y0001818446D01*
X0000184244Y0001820905D01*
X0000209456Y0001820905D01*
X0000221820Y0001818446D01*
X0000221820Y0001818446D01*
G37*
G04 next file*
G04 #@! TF.GenerationSoftware,KiCad,Pcbnew,(5.0.2)-1*
G04 #@! TF.CreationDate,2019-01-19T11:17:50+11:00*
G04 #@! TF.ProjectId,Filter_Bank_Dev_Rev_0,46696c74-6572-45f4-9261-6e6b5f446576,0*
G04 #@! TF.SameCoordinates,Original*
G04 #@! TF.FileFunction,Soldermask,Bot*
G04 #@! TF.FilePolarity,Negative*
G04 Gerber Fmt 4.6, Leading zero omitted, Abs format (unit mm)*
G04 Created by KiCad (PCBNEW (5.0.2)-1) date 19/01/2019 11:17:50*
G01*
G04 APERTURE LIST*
G04 APERTURE END LIST*
D22*
G04 #@! TO.C,REF\002A\002A*
G36*
X0003261811Y0000169291D02*
X0003498031Y0000169291D01*
X0003498031Y0000080708D01*
X0003261811Y0000080708D01*
X0003261811Y0000169291D01*
G37*
X0003261811Y0000169291D02*
X0003498031Y0000169291D01*
X0003498031Y0000080708D01*
X0003261811Y0000080708D01*
X0003261811Y0000169291D01*
D23*
G36*
X0003702135Y0000322383D02*
X0003714499Y0000319923D01*
X0003737792Y0000310275D01*
X0003749193Y0000302657D01*
X0003758755Y0000296268D01*
X0003776583Y0000278440D01*
X0003776583Y0000278440D01*
X0003790590Y0000257477D01*
X0003795382Y0000245907D01*
X0003800238Y0000234184D01*
X0003805157Y0000209456D01*
X0003805157Y0000184244D01*
X0003802698Y0000171880D01*
X0003800238Y0000159516D01*
X0003790590Y0000136223D01*
X0003780837Y0000121626D01*
X0003776583Y0000115260D01*
X0003758755Y0000097432D01*
X0003758755Y0000097432D01*
X0003737792Y0000083425D01*
X0003714499Y0000073776D01*
X0003702135Y0000071317D01*
X0003689771Y0000068858D01*
X0003664559Y0000068858D01*
X0003652195Y0000071317D01*
X0003639831Y0000073776D01*
X0003616538Y0000083425D01*
X0003595575Y0000097432D01*
X0003595575Y0000097432D01*
X0003577747Y0000115260D01*
X0003573493Y0000121626D01*
X0003563740Y0000136223D01*
X0003554091Y0000159516D01*
X0003551632Y0000171880D01*
X0003549173Y0000184244D01*
X0003549173Y0000209456D01*
X0003554091Y0000234184D01*
X0003558947Y0000245907D01*
X0003563740Y0000257477D01*
X0003577747Y0000278440D01*
X0003577747Y0000278440D01*
X0003595575Y0000296268D01*
X0003605136Y0000302657D01*
X0003616538Y0000310275D01*
X0003639831Y0000319923D01*
X0003652195Y0000322383D01*
X0003664559Y0000324842D01*
X0003689771Y0000324842D01*
X0003702135Y0000322383D01*
X0003702135Y0000322383D01*
G37*
G36*
X0002206072Y0000322383D02*
X0002218436Y0000319923D01*
X0002241729Y0000310275D01*
X0002253130Y0000302657D01*
X0002262692Y0000296268D01*
X0002280520Y0000278440D01*
X0002280520Y0000278440D01*
X0002294527Y0000257477D01*
X0002299319Y0000245907D01*
X0002304175Y0000234184D01*
X0002309094Y0000209456D01*
X0002309094Y0000184244D01*
X0002306635Y0000171880D01*
X0002304175Y0000159516D01*
X0002294527Y0000136223D01*
X0002284774Y0000121626D01*
X0002280520Y0000115260D01*
X0002262692Y0000097432D01*
X0002262692Y0000097432D01*
X0002241729Y0000083425D01*
X0002218436Y0000073776D01*
X0002206072Y0000071317D01*
X0002193708Y0000068858D01*
X0002168496Y0000068858D01*
X0002156132Y0000071317D01*
X0002143768Y0000073776D01*
X0002120475Y0000083425D01*
X0002099512Y0000097432D01*
X0002099512Y0000097432D01*
X0002081684Y0000115260D01*
X0002077430Y0000121626D01*
X0002067677Y0000136223D01*
X0002058028Y0000159516D01*
X0002055569Y0000171880D01*
X0002053110Y0000184244D01*
X0002053110Y0000209456D01*
X0002058028Y0000234184D01*
X0002062884Y0000245907D01*
X0002067677Y0000257477D01*
X0002081684Y0000278440D01*
X0002081684Y0000278440D01*
X0002099512Y0000296268D01*
X0002109073Y0000302657D01*
X0002120475Y0000310275D01*
X0002143768Y0000319923D01*
X0002156132Y0000322383D01*
X0002168496Y0000324842D01*
X0002193708Y0000324842D01*
X0002206072Y0000322383D01*
X0002206072Y0000322383D01*
G37*
G36*
X0002941038Y0000667913D02*
X0002943553Y0000666872D01*
X0002945816Y0000665359D01*
X0002947741Y0000663435D01*
X0002949254Y0000661171D01*
X0002950295Y0000658656D01*
X0002950826Y0000655987D01*
X0002950826Y0000653264D01*
X0002950295Y0000650595D01*
X0002949254Y0000648080D01*
X0002947741Y0000645816D01*
X0002945816Y0000643892D01*
X0002943553Y0000642379D01*
X0002941038Y0000641338D01*
X0002938368Y0000640807D01*
X0002935646Y0000640807D01*
X0002932977Y0000641338D01*
X0002930462Y0000642379D01*
X0002928198Y0000643892D01*
X0002926274Y0000645816D01*
X0002924761Y0000648080D01*
X0002923720Y0000650595D01*
X0002923189Y0000653264D01*
X0002923189Y0000655987D01*
X0002923720Y0000658656D01*
X0002924761Y0000661171D01*
X0002926274Y0000663435D01*
X0002928198Y0000665359D01*
X0002930462Y0000666872D01*
X0002932977Y0000667913D01*
X0002935646Y0000668444D01*
X0002938368Y0000668444D01*
X0002941038Y0000667913D01*
X0002941038Y0000667913D01*
G37*
G36*
X0002941038Y0000762401D02*
X0002943553Y0000761360D01*
X0002945816Y0000759847D01*
X0002947741Y0000757923D01*
X0002949254Y0000755659D01*
X0002950295Y0000753145D01*
X0002950826Y0000750475D01*
X0002950826Y0000747753D01*
X0002950295Y0000745083D01*
X0002949254Y0000742568D01*
X0002947741Y0000740305D01*
X0002945816Y0000738380D01*
X0002943553Y0000736868D01*
X0002941038Y0000735826D01*
X0002938368Y0000735295D01*
X0002935646Y0000735295D01*
X0002932977Y0000735826D01*
X0002930462Y0000736868D01*
X0002928198Y0000738380D01*
X0002926274Y0000740305D01*
X0002924761Y0000742568D01*
X0002923720Y0000745083D01*
X0002923189Y0000747753D01*
X0002923189Y0000750475D01*
X0002923720Y0000753145D01*
X0002924761Y0000755659D01*
X0002926274Y0000757923D01*
X0002928198Y0000759847D01*
X0002930462Y0000761360D01*
X0002932977Y0000762401D01*
X0002935646Y0000762933D01*
X0002938368Y0000762933D01*
X0002941038Y0000762401D01*
X0002941038Y0000762401D01*
G37*
G36*
X0002941038Y0000822342D02*
X0002943553Y0000821301D01*
X0002945816Y0000819788D01*
X0002947741Y0000817864D01*
X0002949254Y0000815600D01*
X0002950295Y0000813085D01*
X0002950826Y0000810416D01*
X0002950826Y0000807694D01*
X0002950295Y0000805024D01*
X0002949254Y0000802509D01*
X0002947741Y0000800246D01*
X0002945816Y0000798321D01*
X0002943553Y0000796808D01*
X0002941038Y0000795767D01*
X0002938368Y0000795236D01*
X0002935646Y0000795236D01*
X0002932977Y0000795767D01*
X0002930462Y0000796808D01*
X0002928198Y0000798321D01*
X0002926274Y0000800246D01*
X0002924761Y0000802509D01*
X0002923720Y0000805024D01*
X0002923189Y0000807694D01*
X0002923189Y0000810416D01*
X0002923720Y0000813085D01*
X0002924761Y0000815600D01*
X0002926274Y0000817864D01*
X0002928198Y0000819788D01*
X0002930462Y0000821301D01*
X0002932977Y0000822342D01*
X0002935646Y0000822873D01*
X0002938368Y0000822873D01*
X0002941038Y0000822342D01*
X0002941038Y0000822342D01*
G37*
G36*
X0003872086Y0000844448D02*
X0003702716Y0000844448D01*
X0003702716Y0000901614D01*
X0003872086Y0000901614D01*
X0003872086Y0000844448D01*
X0003872086Y0000844448D01*
G37*
G36*
X0002155551Y0000844448D02*
X0001986181Y0000844448D01*
X0001986181Y0000901614D01*
X0002155551Y0000901614D01*
X0002155551Y0000844448D01*
X0002155551Y0000844448D01*
G37*
G36*
X0002941038Y0000916831D02*
X0002943553Y0000915789D01*
X0002945816Y0000914277D01*
X0002947741Y0000912352D01*
X0002949254Y0000910088D01*
X0002950295Y0000907574D01*
X0002950826Y0000904904D01*
X0002950826Y0000902182D01*
X0002950295Y0000899512D01*
X0002949254Y0000896997D01*
X0002947741Y0000894734D01*
X0002945816Y0000892809D01*
X0002943553Y0000891297D01*
X0002941038Y0000890255D01*
X0002938368Y0000889724D01*
X0002935646Y0000889724D01*
X0002932977Y0000890255D01*
X0002930462Y0000891297D01*
X0002928198Y0000892809D01*
X0002926274Y0000894734D01*
X0002924761Y0000896997D01*
X0002923720Y0000899512D01*
X0002923189Y0000902182D01*
X0002923189Y0000904904D01*
X0002923720Y0000907574D01*
X0002924761Y0000910088D01*
X0002926274Y0000912352D01*
X0002928198Y0000914277D01*
X0002930462Y0000915789D01*
X0002932977Y0000916831D01*
X0002935646Y0000917362D01*
X0002938368Y0000917362D01*
X0002941038Y0000916831D01*
X0002941038Y0000916831D01*
G37*
G36*
X0002943007Y0001058563D02*
X0002945522Y0001057521D01*
X0002947785Y0001056009D01*
X0002949710Y0001054084D01*
X0002951222Y0001051821D01*
X0002952264Y0001049306D01*
X0002952795Y0001046636D01*
X0002952795Y0001043914D01*
X0002952264Y0001041244D01*
X0002951222Y0001038729D01*
X0002949710Y0001036466D01*
X0002947785Y0001034541D01*
X0002945522Y0001033029D01*
X0002943007Y0001031987D01*
X0002940337Y0001031456D01*
X0002937615Y0001031456D01*
X0002934945Y0001031987D01*
X0002932430Y0001033029D01*
X0002930167Y0001034541D01*
X0002928242Y0001036466D01*
X0002926730Y0001038729D01*
X0002925688Y0001041244D01*
X0002925157Y0001043914D01*
X0002925157Y0001046636D01*
X0002925688Y0001049306D01*
X0002926730Y0001051821D01*
X0002928242Y0001054084D01*
X0002930167Y0001056009D01*
X0002932430Y0001057521D01*
X0002934945Y0001058563D01*
X0002937615Y0001059094D01*
X0002940337Y0001059094D01*
X0002943007Y0001058563D01*
X0002943007Y0001058563D01*
G37*
G36*
X0003872086Y0001066889D02*
X0003702716Y0001066889D01*
X0003702716Y0001124055D01*
X0003872086Y0001124055D01*
X0003872086Y0001066889D01*
X0003872086Y0001066889D01*
G37*
G36*
X0002155551Y0001066889D02*
X0001986181Y0001066889D01*
X0001986181Y0001124055D01*
X0002155551Y0001124055D01*
X0002155551Y0001066889D01*
X0002155551Y0001066889D01*
G37*
G36*
X0002943007Y0001153051D02*
X0002945522Y0001152009D01*
X0002947785Y0001150497D01*
X0002949710Y0001148572D01*
X0002951222Y0001146309D01*
X0002952264Y0001143794D01*
X0002952795Y0001141124D01*
X0002952795Y0001138402D01*
X0002952264Y0001135732D01*
X0002951222Y0001133218D01*
X0002949710Y0001130954D01*
X0002947785Y0001129029D01*
X0002945522Y0001127517D01*
X0002943007Y0001126475D01*
X0002940337Y0001125944D01*
X0002937615Y0001125944D01*
X0002934945Y0001126475D01*
X0002932430Y0001127517D01*
X0002930167Y0001129029D01*
X0002928242Y0001130954D01*
X0002926730Y0001133218D01*
X0002925688Y0001135732D01*
X0002925157Y0001138402D01*
X0002925157Y0001141124D01*
X0002925688Y0001143794D01*
X0002926730Y0001146309D01*
X0002928242Y0001148572D01*
X0002930167Y0001150497D01*
X0002932430Y0001152009D01*
X0002934945Y0001153051D01*
X0002937615Y0001153582D01*
X0002940337Y0001153582D01*
X0002943007Y0001153051D01*
X0002943007Y0001153051D01*
G37*
G36*
X0002941038Y0001216043D02*
X0002943553Y0001215002D01*
X0002945816Y0001213489D01*
X0002947741Y0001211564D01*
X0002949254Y0001209301D01*
X0002950295Y0001206786D01*
X0002950826Y0001204116D01*
X0002950826Y0001201394D01*
X0002950295Y0001198725D01*
X0002949254Y0001196210D01*
X0002947741Y0001193946D01*
X0002945816Y0001192022D01*
X0002943553Y0001190509D01*
X0002941038Y0001189468D01*
X0002938368Y0001188936D01*
X0002935646Y0001188936D01*
X0002932977Y0001189468D01*
X0002930462Y0001190509D01*
X0002928198Y0001192022D01*
X0002926274Y0001193946D01*
X0002924761Y0001196210D01*
X0002923720Y0001198725D01*
X0002923189Y0001201394D01*
X0002923189Y0001204116D01*
X0002923720Y0001206786D01*
X0002924761Y0001209301D01*
X0002926274Y0001211564D01*
X0002928198Y0001213489D01*
X0002930462Y0001215002D01*
X0002932977Y0001216043D01*
X0002935646Y0001216574D01*
X0002938368Y0001216574D01*
X0002941038Y0001216043D01*
X0002941038Y0001216043D01*
G37*
G36*
X0002941038Y0001310531D02*
X0002943553Y0001309490D01*
X0002945816Y0001307977D01*
X0002947741Y0001306053D01*
X0002949254Y0001303789D01*
X0002950295Y0001301274D01*
X0002950826Y0001298605D01*
X0002950826Y0001295883D01*
X0002950295Y0001293213D01*
X0002949254Y0001290698D01*
X0002947741Y0001288435D01*
X0002945816Y0001286510D01*
X0002943553Y0001284997D01*
X0002941038Y0001283956D01*
X0002938368Y0001283425D01*
X0002935646Y0001283425D01*
X0002932977Y0001283956D01*
X0002930462Y0001284997D01*
X0002928198Y0001286510D01*
X0002926274Y0001288435D01*
X0002924761Y0001290698D01*
X0002923720Y0001293213D01*
X0002923189Y0001295883D01*
X0002923189Y0001298605D01*
X0002923720Y0001301274D01*
X0002924761Y0001303789D01*
X0002926274Y0001306053D01*
X0002928198Y0001307977D01*
X0002930462Y0001309490D01*
X0002932977Y0001310531D01*
X0002935646Y0001311062D01*
X0002938368Y0001311062D01*
X0002941038Y0001310531D01*
X0002941038Y0001310531D01*
G37*
G36*
X0003702135Y0001818446D02*
X0003714499Y0001815986D01*
X0003737792Y0001806338D01*
X0003749193Y0001798720D01*
X0003758755Y0001792331D01*
X0003776583Y0001774503D01*
X0003776583Y0001774503D01*
X0003790590Y0001753540D01*
X0003798270Y0001735000D01*
X0003800238Y0001730247D01*
X0003805157Y0001705519D01*
X0003805157Y0001680307D01*
X0003802698Y0001667943D01*
X0003800238Y0001655579D01*
X0003790590Y0001632286D01*
X0003780837Y0001617689D01*
X0003776583Y0001611323D01*
X0003758755Y0001593495D01*
X0003758755Y0001593495D01*
X0003737792Y0001579488D01*
X0003714499Y0001569839D01*
X0003702135Y0001567380D01*
X0003689771Y0001564921D01*
X0003664559Y0001564921D01*
X0003652195Y0001567380D01*
X0003639831Y0001569839D01*
X0003616538Y0001579488D01*
X0003595575Y0001593495D01*
X0003595575Y0001593495D01*
X0003577747Y0001611323D01*
X0003573493Y0001617689D01*
X0003563740Y0001632286D01*
X0003554091Y0001655579D01*
X0003551632Y0001667943D01*
X0003549173Y0001680307D01*
X0003549173Y0001705519D01*
X0003554091Y0001730247D01*
X0003556060Y0001735000D01*
X0003563740Y0001753540D01*
X0003577747Y0001774503D01*
X0003577747Y0001774503D01*
X0003595575Y0001792331D01*
X0003605136Y0001798720D01*
X0003616538Y0001806338D01*
X0003639831Y0001815986D01*
X0003652195Y0001818446D01*
X0003664559Y0001820905D01*
X0003689771Y0001820905D01*
X0003702135Y0001818446D01*
X0003702135Y0001818446D01*
G37*
G36*
X0002206072Y0001818446D02*
X0002218436Y0001815986D01*
X0002241729Y0001806338D01*
X0002253130Y0001798720D01*
X0002262692Y0001792331D01*
X0002280520Y0001774503D01*
X0002280520Y0001774503D01*
X0002294527Y0001753540D01*
X0002302207Y0001735000D01*
X0002304175Y0001730247D01*
X0002309094Y0001705519D01*
X0002309094Y0001680307D01*
X0002306635Y0001667943D01*
X0002304175Y0001655579D01*
X0002294527Y0001632286D01*
X0002284774Y0001617689D01*
X0002280520Y0001611323D01*
X0002262692Y0001593495D01*
X0002262692Y0001593495D01*
X0002241729Y0001579488D01*
X0002218436Y0001569839D01*
X0002206072Y0001567380D01*
X0002193708Y0001564921D01*
X0002168496Y0001564921D01*
X0002156132Y0001567380D01*
X0002143768Y0001569839D01*
X0002120475Y0001579488D01*
X0002099512Y0001593495D01*
X0002099512Y0001593495D01*
X0002081684Y0001611323D01*
X0002077430Y0001617689D01*
X0002067677Y0001632286D01*
X0002058028Y0001655579D01*
X0002055569Y0001667943D01*
X0002053110Y0001680307D01*
X0002053110Y0001705519D01*
X0002058028Y0001730247D01*
X0002059997Y0001735000D01*
X0002067677Y0001753540D01*
X0002081684Y0001774503D01*
X0002081684Y0001774503D01*
X0002099512Y0001792331D01*
X0002109073Y0001798720D01*
X0002120475Y0001806338D01*
X0002143768Y0001815986D01*
X0002156132Y0001818446D01*
X0002168496Y0001820905D01*
X0002193708Y0001820905D01*
X0002206072Y0001818446D01*
X0002206072Y0001818446D01*
G37*
G36*
X0003011904Y0001762106D02*
X0003014419Y0001761065D01*
X0003016683Y0001759552D01*
X0003018607Y0001757627D01*
X0003020120Y0001755364D01*
X0003021161Y0001752849D01*
X0003021692Y0001750179D01*
X0003021692Y0001747457D01*
X0003021161Y0001744788D01*
X0003020120Y0001742273D01*
X0003018607Y0001740009D01*
X0003016683Y0001738085D01*
X0003014419Y0001736572D01*
X0003011904Y0001735531D01*
X0003009235Y0001735000D01*
X0003006513Y0001735000D01*
X0003003843Y0001735531D01*
X0003001328Y0001736572D01*
X0002999065Y0001738085D01*
X0002997140Y0001740009D01*
X0002995627Y0001742273D01*
X0002994586Y0001744788D01*
X0002994055Y0001747457D01*
X0002994055Y0001750179D01*
X0002994586Y0001752849D01*
X0002995627Y0001755364D01*
X0002997140Y0001757627D01*
X0002999065Y0001759552D01*
X0003001328Y0001761065D01*
X0003003843Y0001762106D01*
X0003006513Y0001762637D01*
X0003009235Y0001762637D01*
X0003011904Y0001762106D01*
X0003011904Y0001762106D01*
G37*
G36*
X0002854424Y0001762106D02*
X0002856939Y0001761065D01*
X0002859202Y0001759552D01*
X0002861127Y0001757627D01*
X0002862639Y0001755364D01*
X0002863681Y0001752849D01*
X0002864212Y0001750179D01*
X0002864212Y0001747457D01*
X0002863681Y0001744788D01*
X0002862639Y0001742273D01*
X0002861127Y0001740009D01*
X0002859202Y0001738085D01*
X0002856939Y0001736572D01*
X0002854424Y0001735531D01*
X0002851754Y0001735000D01*
X0002849032Y0001735000D01*
X0002846362Y0001735531D01*
X0002843848Y0001736572D01*
X0002841584Y0001738085D01*
X0002839659Y0001740009D01*
X0002838147Y0001742273D01*
X0002837105Y0001744788D01*
X0002836574Y0001747457D01*
X0002836574Y0001750179D01*
X0002837105Y0001752849D01*
X0002838147Y0001755364D01*
X0002839659Y0001757627D01*
X0002841584Y0001759552D01*
X0002843848Y0001761065D01*
X0002846362Y0001762106D01*
X0002849032Y0001762637D01*
X0002851754Y0001762637D01*
X0002854424Y0001762106D01*
X0002854424Y0001762106D01*
G37*
G04 next file*
G04 #@! TF.GenerationSoftware,KiCad,Pcbnew,(5.0.2)-1*
G04 #@! TF.CreationDate,2019-01-19T12:29:50+11:00*
G04 #@! TF.ProjectId,Gain_Block_Dev_Rev_0,4761696e-5f42-46c6-9f63-6b5f4465765f,rev?*
G04 #@! TF.SameCoordinates,Original*
G04 #@! TF.FileFunction,Soldermask,Bot*
G04 #@! TF.FilePolarity,Negative*
G04 Gerber Fmt 4.6, Leading zero omitted, Abs format (unit mm)*
G04 Created by KiCad (PCBNEW (5.0.2)-1) date 19/01/2019 12:29:50*
G01*
G04 APERTURE LIST*
G04 APERTURE END LIST*
D24*
G04 #@! TO.C,REF\002A\002A*
G36*
X0000116141Y0002470472D02*
X0000352362Y0002470472D01*
X0000352362Y0002381889D01*
X0000116141Y0002381889D01*
X0000116141Y0002470472D01*
G37*
X0000116141Y0002470472D02*
X0000352362Y0002470472D01*
X0000352362Y0002381889D01*
X0000116141Y0002381889D01*
X0000116141Y0002470472D01*
D25*
G36*
X0001717883Y0002306634D02*
X0001730247Y0002304175D01*
X0001753540Y0002294527D01*
X0001764941Y0002286909D01*
X0001774503Y0002280519D01*
X0001792331Y0002262692D01*
X0001792331Y0002262692D01*
X0001806338Y0002241729D01*
X0001811130Y0002230159D01*
X0001815986Y0002218435D01*
X0001820905Y0002193708D01*
X0001820905Y0002168495D01*
X0001818446Y0002156132D01*
X0001815986Y0002143768D01*
X0001806338Y0002120475D01*
X0001796868Y0002106302D01*
X0001792331Y0002099511D01*
X0001774503Y0002081684D01*
X0001774503Y0002081684D01*
X0001753540Y0002067676D01*
X0001730247Y0002058028D01*
X0001717883Y0002055569D01*
X0001705519Y0002053109D01*
X0001680307Y0002053109D01*
X0001667943Y0002055569D01*
X0001655579Y0002058028D01*
X0001632286Y0002067676D01*
X0001611323Y0002081684D01*
X0001611323Y0002081684D01*
X0001593495Y0002099511D01*
X0001588958Y0002106302D01*
X0001579488Y0002120475D01*
X0001569839Y0002143768D01*
X0001567380Y0002156132D01*
X0001564921Y0002168495D01*
X0001564921Y0002193708D01*
X0001569839Y0002218435D01*
X0001574695Y0002230159D01*
X0001579488Y0002241729D01*
X0001593495Y0002262692D01*
X0001593495Y0002262692D01*
X0001611323Y0002280519D01*
X0001620884Y0002286909D01*
X0001632286Y0002294527D01*
X0001655579Y0002304175D01*
X0001667943Y0002306634D01*
X0001680307Y0002309094D01*
X0001705519Y0002309094D01*
X0001717883Y0002306634D01*
X0001717883Y0002306634D01*
G37*
G36*
X0000221820Y0002306634D02*
X0000234184Y0002304175D01*
X0000257477Y0002294527D01*
X0000268878Y0002286909D01*
X0000278440Y0002280519D01*
X0000296268Y0002262692D01*
X0000296268Y0002262692D01*
X0000310275Y0002241729D01*
X0000315067Y0002230159D01*
X0000319923Y0002218435D01*
X0000324842Y0002193708D01*
X0000324842Y0002168495D01*
X0000322383Y0002156132D01*
X0000319923Y0002143768D01*
X0000310275Y0002120475D01*
X0000300805Y0002106302D01*
X0000296268Y0002099511D01*
X0000278440Y0002081684D01*
X0000278440Y0002081684D01*
X0000257477Y0002067676D01*
X0000234184Y0002058028D01*
X0000221820Y0002055569D01*
X0000209456Y0002053109D01*
X0000184244Y0002053109D01*
X0000171880Y0002055569D01*
X0000159516Y0002058028D01*
X0000136223Y0002067676D01*
X0000115260Y0002081684D01*
X0000115260Y0002081684D01*
X0000097432Y0002099511D01*
X0000092895Y0002106302D01*
X0000083425Y0002120475D01*
X0000073776Y0002143768D01*
X0000071317Y0002156132D01*
X0000068858Y0002168495D01*
X0000068858Y0002193708D01*
X0000073776Y0002218435D01*
X0000078632Y0002230159D01*
X0000083425Y0002241729D01*
X0000097432Y0002262692D01*
X0000097432Y0002262692D01*
X0000115260Y0002280519D01*
X0000124821Y0002286909D01*
X0000136223Y0002294527D01*
X0000159516Y0002304175D01*
X0000171880Y0002306634D01*
X0000184244Y0002309094D01*
X0000209456Y0002309094D01*
X0000221820Y0002306634D01*
X0000221820Y0002306634D01*
G37*
G36*
X0000724677Y0002120617D02*
X0000724678Y0002120617D01*
X0000724678Y0002120617D01*
X0000730993Y0002118701D01*
X0000730993Y0002118701D01*
X0000730993Y0002118701D01*
X0000736814Y0002115590D01*
X0000741915Y0002111403D01*
X0000746102Y0002106302D01*
X0000749213Y0002100481D01*
X0000749213Y0002100481D01*
X0000749213Y0002100481D01*
X0000750411Y0002096532D01*
X0000751129Y0002094165D01*
X0000751776Y0002087598D01*
X0000751129Y0002081030D01*
X0000751129Y0002081030D01*
X0000751129Y0002081030D01*
X0000750271Y0002078203D01*
X0000749213Y0002074714D01*
X0000746102Y0002068894D01*
X0000741915Y0002063792D01*
X0000736814Y0002059605D01*
X0000730993Y0002056494D01*
X0000730993Y0002056494D01*
X0000730993Y0002056494D01*
X0000724678Y0002054579D01*
X0000724678Y0002054579D01*
X0000724677Y0002054578D01*
X0000719756Y0002054094D01*
X0000716464Y0002054094D01*
X0000711542Y0002054578D01*
X0000711542Y0002054579D01*
X0000711542Y0002054579D01*
X0000705226Y0002056494D01*
X0000705226Y0002056494D01*
X0000705226Y0002056494D01*
X0000699406Y0002059605D01*
X0000694304Y0002063792D01*
X0000690117Y0002068894D01*
X0000687006Y0002074714D01*
X0000685948Y0002078203D01*
X0000685091Y0002081030D01*
X0000685091Y0002081030D01*
X0000685091Y0002081030D01*
X0000684444Y0002087598D01*
X0000685091Y0002094165D01*
X0000685809Y0002096532D01*
X0000687006Y0002100481D01*
X0000687006Y0002100481D01*
X0000687006Y0002100481D01*
X0000690117Y0002106302D01*
X0000694304Y0002111403D01*
X0000699406Y0002115590D01*
X0000705226Y0002118701D01*
X0000705226Y0002118701D01*
X0000705226Y0002118701D01*
X0000711542Y0002120617D01*
X0000711542Y0002120617D01*
X0000711542Y0002120617D01*
X0000716464Y0002121102D01*
X0000719756Y0002121102D01*
X0000724677Y0002120617D01*
X0000724677Y0002120617D01*
G37*
G36*
X0000624677Y0002120617D02*
X0000624678Y0002120617D01*
X0000624678Y0002120617D01*
X0000630993Y0002118701D01*
X0000630993Y0002118701D01*
X0000630993Y0002118701D01*
X0000636814Y0002115590D01*
X0000641915Y0002111403D01*
X0000646102Y0002106302D01*
X0000649213Y0002100481D01*
X0000649213Y0002100481D01*
X0000649213Y0002100481D01*
X0000650411Y0002096532D01*
X0000651129Y0002094165D01*
X0000651776Y0002087598D01*
X0000651129Y0002081030D01*
X0000651129Y0002081030D01*
X0000651129Y0002081030D01*
X0000650271Y0002078203D01*
X0000649213Y0002074714D01*
X0000646102Y0002068894D01*
X0000641915Y0002063792D01*
X0000636814Y0002059605D01*
X0000630993Y0002056494D01*
X0000630993Y0002056494D01*
X0000630993Y0002056494D01*
X0000624678Y0002054579D01*
X0000624678Y0002054579D01*
X0000624677Y0002054578D01*
X0000619756Y0002054094D01*
X0000616464Y0002054094D01*
X0000611542Y0002054578D01*
X0000611542Y0002054579D01*
X0000611542Y0002054579D01*
X0000605226Y0002056494D01*
X0000605226Y0002056494D01*
X0000605226Y0002056494D01*
X0000599406Y0002059605D01*
X0000594304Y0002063792D01*
X0000590117Y0002068894D01*
X0000587006Y0002074714D01*
X0000585948Y0002078203D01*
X0000585091Y0002081030D01*
X0000585091Y0002081030D01*
X0000585091Y0002081030D01*
X0000584444Y0002087598D01*
X0000585091Y0002094165D01*
X0000585809Y0002096532D01*
X0000587006Y0002100481D01*
X0000587006Y0002100481D01*
X0000587006Y0002100481D01*
X0000590117Y0002106302D01*
X0000594304Y0002111403D01*
X0000599406Y0002115590D01*
X0000605226Y0002118701D01*
X0000605226Y0002118701D01*
X0000605226Y0002118701D01*
X0000611542Y0002120617D01*
X0000611542Y0002120617D01*
X0000611542Y0002120617D01*
X0000616464Y0002121102D01*
X0000619756Y0002121102D01*
X0000624677Y0002120617D01*
X0000624677Y0002120617D01*
G37*
G36*
X0000824677Y0002120617D02*
X0000824678Y0002120617D01*
X0000824678Y0002120617D01*
X0000830993Y0002118701D01*
X0000830993Y0002118701D01*
X0000830993Y0002118701D01*
X0000836814Y0002115590D01*
X0000841915Y0002111403D01*
X0000846102Y0002106302D01*
X0000849213Y0002100481D01*
X0000849213Y0002100481D01*
X0000849213Y0002100481D01*
X0000850411Y0002096532D01*
X0000851129Y0002094165D01*
X0000851776Y0002087598D01*
X0000851129Y0002081030D01*
X0000851129Y0002081030D01*
X0000851129Y0002081030D01*
X0000850271Y0002078203D01*
X0000849213Y0002074714D01*
X0000846102Y0002068894D01*
X0000841915Y0002063792D01*
X0000836814Y0002059605D01*
X0000830993Y0002056494D01*
X0000830993Y0002056494D01*
X0000830993Y0002056494D01*
X0000824678Y0002054579D01*
X0000824678Y0002054579D01*
X0000824677Y0002054578D01*
X0000819756Y0002054094D01*
X0000816464Y0002054094D01*
X0000811542Y0002054578D01*
X0000811542Y0002054579D01*
X0000811542Y0002054579D01*
X0000805226Y0002056494D01*
X0000805226Y0002056494D01*
X0000805226Y0002056494D01*
X0000799406Y0002059605D01*
X0000794304Y0002063792D01*
X0000790117Y0002068894D01*
X0000787006Y0002074714D01*
X0000785948Y0002078203D01*
X0000785091Y0002081030D01*
X0000785091Y0002081030D01*
X0000785091Y0002081030D01*
X0000784444Y0002087598D01*
X0000785091Y0002094165D01*
X0000785809Y0002096532D01*
X0000787006Y0002100481D01*
X0000787006Y0002100481D01*
X0000787006Y0002100481D01*
X0000790117Y0002106302D01*
X0000794304Y0002111403D01*
X0000799406Y0002115590D01*
X0000805226Y0002118701D01*
X0000805226Y0002118701D01*
X0000805226Y0002118701D01*
X0000811542Y0002120617D01*
X0000811542Y0002120617D01*
X0000811542Y0002120617D01*
X0000816464Y0002121102D01*
X0000819756Y0002121102D01*
X0000824677Y0002120617D01*
X0000824677Y0002120617D01*
G37*
G36*
X0000924677Y0002120617D02*
X0000924678Y0002120617D01*
X0000924678Y0002120617D01*
X0000930993Y0002118701D01*
X0000930993Y0002118701D01*
X0000930993Y0002118701D01*
X0000936814Y0002115590D01*
X0000941915Y0002111403D01*
X0000946102Y0002106302D01*
X0000949213Y0002100481D01*
X0000949213Y0002100481D01*
X0000949213Y0002100481D01*
X0000950411Y0002096532D01*
X0000951129Y0002094165D01*
X0000951776Y0002087598D01*
X0000951129Y0002081030D01*
X0000951129Y0002081030D01*
X0000951129Y0002081030D01*
X0000950271Y0002078203D01*
X0000949213Y0002074714D01*
X0000946102Y0002068894D01*
X0000941915Y0002063792D01*
X0000936814Y0002059605D01*
X0000930993Y0002056494D01*
X0000930993Y0002056494D01*
X0000930993Y0002056494D01*
X0000924678Y0002054579D01*
X0000924678Y0002054579D01*
X0000924677Y0002054578D01*
X0000919756Y0002054094D01*
X0000916464Y0002054094D01*
X0000911542Y0002054578D01*
X0000911542Y0002054579D01*
X0000911542Y0002054579D01*
X0000905226Y0002056494D01*
X0000905226Y0002056494D01*
X0000905226Y0002056494D01*
X0000899406Y0002059605D01*
X0000894304Y0002063792D01*
X0000890117Y0002068894D01*
X0000887006Y0002074714D01*
X0000885948Y0002078203D01*
X0000885091Y0002081030D01*
X0000885091Y0002081030D01*
X0000885091Y0002081030D01*
X0000884444Y0002087598D01*
X0000885091Y0002094165D01*
X0000885809Y0002096532D01*
X0000887006Y0002100481D01*
X0000887006Y0002100481D01*
X0000887006Y0002100481D01*
X0000890117Y0002106302D01*
X0000894304Y0002111403D01*
X0000899406Y0002115590D01*
X0000905226Y0002118701D01*
X0000905226Y0002118701D01*
X0000905226Y0002118701D01*
X0000911542Y0002120617D01*
X0000911542Y0002120617D01*
X0000911542Y0002120617D01*
X0000916464Y0002121102D01*
X0000919756Y0002121102D01*
X0000924677Y0002120617D01*
X0000924677Y0002120617D01*
G37*
G36*
X0001024677Y0002120617D02*
X0001024678Y0002120617D01*
X0001024678Y0002120617D01*
X0001030993Y0002118701D01*
X0001030993Y0002118701D01*
X0001030993Y0002118701D01*
X0001036814Y0002115590D01*
X0001041915Y0002111403D01*
X0001046102Y0002106302D01*
X0001049213Y0002100481D01*
X0001049213Y0002100481D01*
X0001049213Y0002100481D01*
X0001050411Y0002096532D01*
X0001051129Y0002094165D01*
X0001051776Y0002087598D01*
X0001051129Y0002081030D01*
X0001051129Y0002081030D01*
X0001051129Y0002081030D01*
X0001050271Y0002078203D01*
X0001049213Y0002074714D01*
X0001046102Y0002068894D01*
X0001041915Y0002063792D01*
X0001036814Y0002059605D01*
X0001030993Y0002056494D01*
X0001030993Y0002056494D01*
X0001030993Y0002056494D01*
X0001024678Y0002054579D01*
X0001024678Y0002054579D01*
X0001024677Y0002054578D01*
X0001019756Y0002054094D01*
X0001016464Y0002054094D01*
X0001011542Y0002054578D01*
X0001011542Y0002054579D01*
X0001011542Y0002054579D01*
X0001005226Y0002056494D01*
X0001005226Y0002056494D01*
X0001005226Y0002056494D01*
X0000999406Y0002059605D01*
X0000994304Y0002063792D01*
X0000990117Y0002068894D01*
X0000987006Y0002074714D01*
X0000985948Y0002078203D01*
X0000985091Y0002081030D01*
X0000985091Y0002081030D01*
X0000985091Y0002081030D01*
X0000984444Y0002087598D01*
X0000985091Y0002094165D01*
X0000985809Y0002096532D01*
X0000987006Y0002100481D01*
X0000987006Y0002100481D01*
X0000987006Y0002100481D01*
X0000990117Y0002106302D01*
X0000994304Y0002111403D01*
X0000999406Y0002115590D01*
X0001005226Y0002118701D01*
X0001005226Y0002118701D01*
X0001005226Y0002118701D01*
X0001011542Y0002120617D01*
X0001011542Y0002120617D01*
X0001011542Y0002120617D01*
X0001016464Y0002121102D01*
X0001019756Y0002121102D01*
X0001024677Y0002120617D01*
X0001024677Y0002120617D01*
G37*
G36*
X0001124677Y0002120617D02*
X0001124678Y0002120617D01*
X0001124678Y0002120617D01*
X0001130993Y0002118701D01*
X0001130993Y0002118701D01*
X0001130993Y0002118701D01*
X0001136814Y0002115590D01*
X0001141915Y0002111403D01*
X0001146102Y0002106302D01*
X0001149213Y0002100481D01*
X0001149213Y0002100481D01*
X0001149213Y0002100481D01*
X0001150411Y0002096532D01*
X0001151129Y0002094165D01*
X0001151776Y0002087598D01*
X0001151129Y0002081030D01*
X0001151129Y0002081030D01*
X0001151129Y0002081030D01*
X0001150271Y0002078203D01*
X0001149213Y0002074714D01*
X0001146102Y0002068894D01*
X0001141915Y0002063792D01*
X0001136814Y0002059605D01*
X0001130993Y0002056494D01*
X0001130993Y0002056494D01*
X0001130993Y0002056494D01*
X0001124678Y0002054579D01*
X0001124678Y0002054579D01*
X0001124677Y0002054578D01*
X0001119756Y0002054094D01*
X0001116464Y0002054094D01*
X0001111542Y0002054578D01*
X0001111542Y0002054579D01*
X0001111542Y0002054579D01*
X0001105226Y0002056494D01*
X0001105226Y0002056494D01*
X0001105226Y0002056494D01*
X0001099406Y0002059605D01*
X0001094304Y0002063792D01*
X0001090117Y0002068894D01*
X0001087006Y0002074714D01*
X0001085948Y0002078203D01*
X0001085091Y0002081030D01*
X0001085091Y0002081030D01*
X0001085091Y0002081030D01*
X0001084444Y0002087598D01*
X0001085091Y0002094165D01*
X0001085809Y0002096532D01*
X0001087006Y0002100481D01*
X0001087006Y0002100481D01*
X0001087006Y0002100481D01*
X0001090117Y0002106302D01*
X0001094304Y0002111403D01*
X0001099406Y0002115590D01*
X0001105226Y0002118701D01*
X0001105226Y0002118701D01*
X0001105226Y0002118701D01*
X0001111542Y0002120617D01*
X0001111542Y0002120617D01*
X0001111542Y0002120617D01*
X0001116464Y0002121102D01*
X0001119756Y0002121102D01*
X0001124677Y0002120617D01*
X0001124677Y0002120617D01*
G37*
G36*
X0001224677Y0002120617D02*
X0001224678Y0002120617D01*
X0001224678Y0002120617D01*
X0001230993Y0002118701D01*
X0001230993Y0002118701D01*
X0001230993Y0002118701D01*
X0001236814Y0002115590D01*
X0001241915Y0002111403D01*
X0001246102Y0002106302D01*
X0001249213Y0002100481D01*
X0001249213Y0002100481D01*
X0001249213Y0002100481D01*
X0001250411Y0002096532D01*
X0001251129Y0002094165D01*
X0001251776Y0002087598D01*
X0001251129Y0002081030D01*
X0001251129Y0002081030D01*
X0001251129Y0002081030D01*
X0001250271Y0002078203D01*
X0001249213Y0002074714D01*
X0001246102Y0002068894D01*
X0001241915Y0002063792D01*
X0001236814Y0002059605D01*
X0001230993Y0002056494D01*
X0001230993Y0002056494D01*
X0001230993Y0002056494D01*
X0001224678Y0002054579D01*
X0001224678Y0002054579D01*
X0001224677Y0002054578D01*
X0001219756Y0002054094D01*
X0001216464Y0002054094D01*
X0001211542Y0002054578D01*
X0001211542Y0002054579D01*
X0001211542Y0002054579D01*
X0001205226Y0002056494D01*
X0001205226Y0002056494D01*
X0001205226Y0002056494D01*
X0001199406Y0002059605D01*
X0001194304Y0002063792D01*
X0001190117Y0002068894D01*
X0001187006Y0002074714D01*
X0001185948Y0002078203D01*
X0001185091Y0002081030D01*
X0001185091Y0002081030D01*
X0001185091Y0002081030D01*
X0001184444Y0002087598D01*
X0001185091Y0002094165D01*
X0001185809Y0002096532D01*
X0001187006Y0002100481D01*
X0001187006Y0002100481D01*
X0001187006Y0002100481D01*
X0001190117Y0002106302D01*
X0001194304Y0002111403D01*
X0001199406Y0002115590D01*
X0001205226Y0002118701D01*
X0001205226Y0002118701D01*
X0001205226Y0002118701D01*
X0001211542Y0002120617D01*
X0001211542Y0002120617D01*
X0001211542Y0002120617D01*
X0001216464Y0002121102D01*
X0001219756Y0002121102D01*
X0001224677Y0002120617D01*
X0001224677Y0002120617D01*
G37*
G36*
X0001324677Y0002120617D02*
X0001324678Y0002120617D01*
X0001324678Y0002120617D01*
X0001330993Y0002118701D01*
X0001330993Y0002118701D01*
X0001330993Y0002118701D01*
X0001336814Y0002115590D01*
X0001341915Y0002111403D01*
X0001346102Y0002106302D01*
X0001349213Y0002100481D01*
X0001349213Y0002100481D01*
X0001349213Y0002100481D01*
X0001350411Y0002096532D01*
X0001351129Y0002094165D01*
X0001351776Y0002087598D01*
X0001351129Y0002081030D01*
X0001351129Y0002081030D01*
X0001351129Y0002081030D01*
X0001350271Y0002078203D01*
X0001349213Y0002074714D01*
X0001346102Y0002068894D01*
X0001341915Y0002063792D01*
X0001336814Y0002059605D01*
X0001330993Y0002056494D01*
X0001330993Y0002056494D01*
X0001330993Y0002056494D01*
X0001324678Y0002054579D01*
X0001324678Y0002054579D01*
X0001324677Y0002054578D01*
X0001319756Y0002054094D01*
X0001316464Y0002054094D01*
X0001311542Y0002054578D01*
X0001311542Y0002054579D01*
X0001311542Y0002054579D01*
X0001305226Y0002056494D01*
X0001305226Y0002056494D01*
X0001305226Y0002056494D01*
X0001299406Y0002059605D01*
X0001294304Y0002063792D01*
X0001290117Y0002068894D01*
X0001287006Y0002074714D01*
X0001285948Y0002078203D01*
X0001285091Y0002081030D01*
X0001285091Y0002081030D01*
X0001285091Y0002081030D01*
X0001284444Y0002087598D01*
X0001285091Y0002094165D01*
X0001285809Y0002096532D01*
X0001287006Y0002100481D01*
X0001287006Y0002100481D01*
X0001287006Y0002100481D01*
X0001290117Y0002106302D01*
X0001294304Y0002111403D01*
X0001299406Y0002115590D01*
X0001305226Y0002118701D01*
X0001305226Y0002118701D01*
X0001305226Y0002118701D01*
X0001311542Y0002120617D01*
X0001311542Y0002120617D01*
X0001311542Y0002120617D01*
X0001316464Y0002121102D01*
X0001319756Y0002121102D01*
X0001324677Y0002120617D01*
X0001324677Y0002120617D01*
G37*
G36*
X0001351614Y0002365905D02*
X0001284606Y0002365905D01*
X0001284606Y0002432913D01*
X0001351614Y0002432913D01*
X0001351614Y0002365905D01*
X0001351614Y0002365905D01*
G37*
G36*
X0001224677Y0002432428D02*
X0001224678Y0002432428D01*
X0001224678Y0002432428D01*
X0001230993Y0002430512D01*
X0001230993Y0002430512D01*
X0001230993Y0002430512D01*
X0001236814Y0002427401D01*
X0001241915Y0002423214D01*
X0001246102Y0002418113D01*
X0001249213Y0002412292D01*
X0001251129Y0002405976D01*
X0001251776Y0002399409D01*
X0001251129Y0002392841D01*
X0001249213Y0002386525D01*
X0001246102Y0002380705D01*
X0001241915Y0002375603D01*
X0001236814Y0002371416D01*
X0001230993Y0002368305D01*
X0001230993Y0002368305D01*
X0001230993Y0002368305D01*
X0001224678Y0002366390D01*
X0001224678Y0002366390D01*
X0001224677Y0002366390D01*
X0001219756Y0002365905D01*
X0001216464Y0002365905D01*
X0001211542Y0002366390D01*
X0001211542Y0002366390D01*
X0001211542Y0002366390D01*
X0001205226Y0002368305D01*
X0001205226Y0002368305D01*
X0001205226Y0002368305D01*
X0001199406Y0002371416D01*
X0001194304Y0002375603D01*
X0001190117Y0002380705D01*
X0001187006Y0002386525D01*
X0001185091Y0002392841D01*
X0001184444Y0002399409D01*
X0001185091Y0002405976D01*
X0001187006Y0002412292D01*
X0001190117Y0002418113D01*
X0001194304Y0002423214D01*
X0001199406Y0002427401D01*
X0001205226Y0002430512D01*
X0001205226Y0002430512D01*
X0001205226Y0002430512D01*
X0001211542Y0002432428D01*
X0001211542Y0002432428D01*
X0001211542Y0002432428D01*
X0001216464Y0002432913D01*
X0001219756Y0002432913D01*
X0001224677Y0002432428D01*
X0001224677Y0002432428D01*
G37*
G36*
X0000824677Y0002432428D02*
X0000824678Y0002432428D01*
X0000824678Y0002432428D01*
X0000830993Y0002430512D01*
X0000830993Y0002430512D01*
X0000830993Y0002430512D01*
X0000836814Y0002427401D01*
X0000841915Y0002423214D01*
X0000846102Y0002418113D01*
X0000849213Y0002412292D01*
X0000851129Y0002405976D01*
X0000851776Y0002399409D01*
X0000851129Y0002392841D01*
X0000849213Y0002386525D01*
X0000846102Y0002380705D01*
X0000841915Y0002375603D01*
X0000836814Y0002371416D01*
X0000830993Y0002368305D01*
X0000830993Y0002368305D01*
X0000830993Y0002368305D01*
X0000824678Y0002366390D01*
X0000824678Y0002366390D01*
X0000824677Y0002366390D01*
X0000819756Y0002365905D01*
X0000816464Y0002365905D01*
X0000811542Y0002366390D01*
X0000811542Y0002366390D01*
X0000811542Y0002366390D01*
X0000805226Y0002368305D01*
X0000805226Y0002368305D01*
X0000805226Y0002368305D01*
X0000799406Y0002371416D01*
X0000794304Y0002375603D01*
X0000790117Y0002380705D01*
X0000787006Y0002386525D01*
X0000785091Y0002392841D01*
X0000784444Y0002399409D01*
X0000785091Y0002405976D01*
X0000787006Y0002412292D01*
X0000790117Y0002418113D01*
X0000794304Y0002423214D01*
X0000799406Y0002427401D01*
X0000805226Y0002430512D01*
X0000805226Y0002430512D01*
X0000805226Y0002430512D01*
X0000811542Y0002432428D01*
X0000811542Y0002432428D01*
X0000811542Y0002432428D01*
X0000816464Y0002432913D01*
X0000819756Y0002432913D01*
X0000824677Y0002432428D01*
X0000824677Y0002432428D01*
G37*
G36*
X0001124677Y0002432428D02*
X0001124678Y0002432428D01*
X0001124678Y0002432428D01*
X0001130993Y0002430512D01*
X0001130993Y0002430512D01*
X0001130993Y0002430512D01*
X0001136814Y0002427401D01*
X0001141915Y0002423214D01*
X0001146102Y0002418113D01*
X0001149213Y0002412292D01*
X0001151129Y0002405976D01*
X0001151776Y0002399409D01*
X0001151129Y0002392841D01*
X0001149213Y0002386525D01*
X0001146102Y0002380705D01*
X0001141915Y0002375603D01*
X0001136814Y0002371416D01*
X0001130993Y0002368305D01*
X0001130993Y0002368305D01*
X0001130993Y0002368305D01*
X0001124678Y0002366390D01*
X0001124678Y0002366390D01*
X0001124677Y0002366390D01*
X0001119756Y0002365905D01*
X0001116464Y0002365905D01*
X0001111542Y0002366390D01*
X0001111542Y0002366390D01*
X0001111542Y0002366390D01*
X0001105226Y0002368305D01*
X0001105226Y0002368305D01*
X0001105226Y0002368305D01*
X0001099406Y0002371416D01*
X0001094304Y0002375603D01*
X0001090117Y0002380705D01*
X0001087006Y0002386525D01*
X0001085091Y0002392841D01*
X0001084444Y0002399409D01*
X0001085091Y0002405976D01*
X0001087006Y0002412292D01*
X0001090117Y0002418113D01*
X0001094304Y0002423214D01*
X0001099406Y0002427401D01*
X0001105226Y0002430512D01*
X0001105226Y0002430512D01*
X0001105226Y0002430512D01*
X0001111542Y0002432428D01*
X0001111542Y0002432428D01*
X0001111542Y0002432428D01*
X0001116464Y0002432913D01*
X0001119756Y0002432913D01*
X0001124677Y0002432428D01*
X0001124677Y0002432428D01*
G37*
G36*
X0000924677Y0002432428D02*
X0000924678Y0002432428D01*
X0000924678Y0002432428D01*
X0000930993Y0002430512D01*
X0000930993Y0002430512D01*
X0000930993Y0002430512D01*
X0000936814Y0002427401D01*
X0000941915Y0002423214D01*
X0000946102Y0002418113D01*
X0000949213Y0002412292D01*
X0000951129Y0002405976D01*
X0000951776Y0002399409D01*
X0000951129Y0002392841D01*
X0000949213Y0002386525D01*
X0000946102Y0002380705D01*
X0000941915Y0002375603D01*
X0000936814Y0002371416D01*
X0000930993Y0002368305D01*
X0000930993Y0002368305D01*
X0000930993Y0002368305D01*
X0000924678Y0002366390D01*
X0000924678Y0002366390D01*
X0000924677Y0002366390D01*
X0000919756Y0002365905D01*
X0000916464Y0002365905D01*
X0000911542Y0002366390D01*
X0000911542Y0002366390D01*
X0000911542Y0002366390D01*
X0000905226Y0002368305D01*
X0000905226Y0002368305D01*
X0000905226Y0002368305D01*
X0000899406Y0002371416D01*
X0000894304Y0002375603D01*
X0000890117Y0002380705D01*
X0000887006Y0002386525D01*
X0000885091Y0002392841D01*
X0000884444Y0002399409D01*
X0000885091Y0002405976D01*
X0000887006Y0002412292D01*
X0000890117Y0002418113D01*
X0000894304Y0002423214D01*
X0000899406Y0002427401D01*
X0000905226Y0002430512D01*
X0000905226Y0002430512D01*
X0000905226Y0002430512D01*
X0000911542Y0002432428D01*
X0000911542Y0002432428D01*
X0000911542Y0002432428D01*
X0000916464Y0002432913D01*
X0000919756Y0002432913D01*
X0000924677Y0002432428D01*
X0000924677Y0002432428D01*
G37*
G36*
X0000624677Y0002432428D02*
X0000624678Y0002432428D01*
X0000624678Y0002432428D01*
X0000630993Y0002430512D01*
X0000630993Y0002430512D01*
X0000630993Y0002430512D01*
X0000636814Y0002427401D01*
X0000641915Y0002423214D01*
X0000646102Y0002418113D01*
X0000649213Y0002412292D01*
X0000651129Y0002405976D01*
X0000651776Y0002399409D01*
X0000651129Y0002392841D01*
X0000649213Y0002386525D01*
X0000646102Y0002380705D01*
X0000641915Y0002375603D01*
X0000636814Y0002371416D01*
X0000630993Y0002368305D01*
X0000630993Y0002368305D01*
X0000630993Y0002368305D01*
X0000624678Y0002366390D01*
X0000624678Y0002366390D01*
X0000624677Y0002366390D01*
X0000619756Y0002365905D01*
X0000616464Y0002365905D01*
X0000611542Y0002366390D01*
X0000611542Y0002366390D01*
X0000611542Y0002366390D01*
X0000605226Y0002368305D01*
X0000605226Y0002368305D01*
X0000605226Y0002368305D01*
X0000599406Y0002371416D01*
X0000594304Y0002375603D01*
X0000590117Y0002380705D01*
X0000587006Y0002386525D01*
X0000585091Y0002392841D01*
X0000584444Y0002399409D01*
X0000585091Y0002405976D01*
X0000587006Y0002412292D01*
X0000590117Y0002418113D01*
X0000594304Y0002423214D01*
X0000599406Y0002427401D01*
X0000605226Y0002430512D01*
X0000605226Y0002430512D01*
X0000605226Y0002430512D01*
X0000611542Y0002432428D01*
X0000611542Y0002432428D01*
X0000611542Y0002432428D01*
X0000616464Y0002432913D01*
X0000619756Y0002432913D01*
X0000624677Y0002432428D01*
X0000624677Y0002432428D01*
G37*
G36*
X0000724677Y0002432428D02*
X0000724678Y0002432428D01*
X0000724678Y0002432428D01*
X0000730993Y0002430512D01*
X0000730993Y0002430512D01*
X0000730993Y0002430512D01*
X0000736814Y0002427401D01*
X0000741915Y0002423214D01*
X0000746102Y0002418113D01*
X0000749213Y0002412292D01*
X0000751129Y0002405976D01*
X0000751776Y0002399409D01*
X0000751129Y0002392841D01*
X0000749213Y0002386525D01*
X0000746102Y0002380705D01*
X0000741915Y0002375603D01*
X0000736814Y0002371416D01*
X0000730993Y0002368305D01*
X0000730993Y0002368305D01*
X0000730993Y0002368305D01*
X0000724678Y0002366390D01*
X0000724678Y0002366390D01*
X0000724677Y0002366390D01*
X0000719756Y0002365905D01*
X0000716464Y0002365905D01*
X0000711542Y0002366390D01*
X0000711542Y0002366390D01*
X0000711542Y0002366390D01*
X0000705226Y0002368305D01*
X0000705226Y0002368305D01*
X0000705226Y0002368305D01*
X0000699406Y0002371416D01*
X0000694304Y0002375603D01*
X0000690117Y0002380705D01*
X0000687006Y0002386525D01*
X0000685091Y0002392841D01*
X0000684444Y0002399409D01*
X0000685091Y0002405976D01*
X0000687006Y0002412292D01*
X0000690117Y0002418113D01*
X0000694304Y0002423214D01*
X0000699406Y0002427401D01*
X0000705226Y0002430512D01*
X0000705226Y0002430512D01*
X0000705226Y0002430512D01*
X0000711542Y0002432428D01*
X0000711542Y0002432428D01*
X0000711542Y0002432428D01*
X0000716464Y0002432913D01*
X0000719756Y0002432913D01*
X0000724677Y0002432428D01*
X0000724677Y0002432428D01*
G37*
G36*
X0001024677Y0002432428D02*
X0001024678Y0002432428D01*
X0001024678Y0002432428D01*
X0001030993Y0002430512D01*
X0001030993Y0002430512D01*
X0001030993Y0002430512D01*
X0001036814Y0002427401D01*
X0001041915Y0002423214D01*
X0001046102Y0002418113D01*
X0001049213Y0002412292D01*
X0001051129Y0002405976D01*
X0001051776Y0002399409D01*
X0001051129Y0002392841D01*
X0001049213Y0002386525D01*
X0001046102Y0002380705D01*
X0001041915Y0002375603D01*
X0001036814Y0002371416D01*
X0001030993Y0002368305D01*
X0001030993Y0002368305D01*
X0001030993Y0002368305D01*
X0001024678Y0002366390D01*
X0001024678Y0002366390D01*
X0001024677Y0002366390D01*
X0001019756Y0002365905D01*
X0001016464Y0002365905D01*
X0001011542Y0002366390D01*
X0001011542Y0002366390D01*
X0001011542Y0002366390D01*
X0001005226Y0002368305D01*
X0001005226Y0002368305D01*
X0001005226Y0002368305D01*
X0000999406Y0002371416D01*
X0000994304Y0002375603D01*
X0000990117Y0002380705D01*
X0000987006Y0002386525D01*
X0000985091Y0002392841D01*
X0000984444Y0002399409D01*
X0000985091Y0002405976D01*
X0000987006Y0002412292D01*
X0000990117Y0002418113D01*
X0000994304Y0002423214D01*
X0000999406Y0002427401D01*
X0001005226Y0002430512D01*
X0001005226Y0002430512D01*
X0001005226Y0002430512D01*
X0001011542Y0002432428D01*
X0001011542Y0002432428D01*
X0001011542Y0002432428D01*
X0001016464Y0002432913D01*
X0001019756Y0002432913D01*
X0001024677Y0002432428D01*
X0001024677Y0002432428D01*
G37*
G36*
X0001883897Y0002746023D02*
X0001714527Y0002746023D01*
X0001714527Y0002803188D01*
X0001883897Y0002803188D01*
X0001883897Y0002746023D01*
X0001883897Y0002746023D01*
G37*
G36*
X0000167362Y0002746023D02*
X-0000002007Y0002746023D01*
X-0000002007Y0002803188D01*
X0000167362Y0002803188D01*
X0000167362Y0002746023D01*
X0000167362Y0002746023D01*
G37*
G36*
X0000167362Y0002968464D02*
X-0000002007Y0002968464D01*
X-0000002007Y0003025629D01*
X0000167362Y0003025629D01*
X0000167362Y0002968464D01*
X0000167362Y0002968464D01*
G37*
G36*
X0001883897Y0002968464D02*
X0001714527Y0002968464D01*
X0001714527Y0003025629D01*
X0001883897Y0003025629D01*
X0001883897Y0002968464D01*
X0001883897Y0002968464D01*
G37*
G36*
X0000488600Y0003232853D02*
X0000491205Y0003232596D01*
X0000495663Y0003231244D01*
X0000497892Y0003230568D01*
X0000503349Y0003227651D01*
X0000504054Y0003227274D01*
X0000505461Y0003226119D01*
X0000509456Y0003222841D01*
X0000512734Y0003218847D01*
X0000513888Y0003217440D01*
X0000513888Y0003217440D01*
X0000517182Y0003211277D01*
X0000517182Y0003211277D01*
X0000519211Y0003204591D01*
X0000519896Y0003197637D01*
X0000519211Y0003190683D01*
X0000517858Y0003186225D01*
X0000517182Y0003183997D01*
X0000514265Y0003178539D01*
X0000513888Y0003177834D01*
X0000512734Y0003176427D01*
X0000509456Y0003172433D01*
X0000505461Y0003169155D01*
X0000504054Y0003168000D01*
X0000504054Y0003168000D01*
X0000497892Y0003164706D01*
X0000495663Y0003164030D01*
X0000491205Y0003162678D01*
X0000488600Y0003162421D01*
X0000485994Y0003162165D01*
X0000482509Y0003162165D01*
X0000479903Y0003162421D01*
X0000477298Y0003162678D01*
X0000472840Y0003164030D01*
X0000470611Y0003164706D01*
X0000464449Y0003168000D01*
X0000464449Y0003168000D01*
X0000463042Y0003169155D01*
X0000459047Y0003172433D01*
X0000455769Y0003176427D01*
X0000454615Y0003177834D01*
X0000454238Y0003178539D01*
X0000451321Y0003183997D01*
X0000450645Y0003186225D01*
X0000449292Y0003190683D01*
X0000448607Y0003197637D01*
X0000449292Y0003204591D01*
X0000451321Y0003211277D01*
X0000451321Y0003211277D01*
X0000454614Y0003217440D01*
X0000454615Y0003217440D01*
X0000455769Y0003218847D01*
X0000459047Y0003222841D01*
X0000463042Y0003226119D01*
X0000464449Y0003227274D01*
X0000465154Y0003227651D01*
X0000470611Y0003230568D01*
X0000472840Y0003231244D01*
X0000477298Y0003232596D01*
X0000479903Y0003232853D01*
X0000482509Y0003233109D01*
X0000485994Y0003233109D01*
X0000488600Y0003232853D01*
X0000488600Y0003232853D01*
G37*
G36*
X0000588600Y0003232853D02*
X0000591205Y0003232596D01*
X0000595663Y0003231244D01*
X0000597892Y0003230568D01*
X0000603349Y0003227651D01*
X0000604054Y0003227274D01*
X0000605461Y0003226119D01*
X0000609456Y0003222841D01*
X0000612734Y0003218847D01*
X0000613888Y0003217440D01*
X0000613888Y0003217440D01*
X0000617182Y0003211277D01*
X0000617182Y0003211277D01*
X0000619211Y0003204591D01*
X0000619895Y0003197637D01*
X0000619211Y0003190683D01*
X0000617858Y0003186225D01*
X0000617182Y0003183997D01*
X0000614265Y0003178539D01*
X0000613888Y0003177834D01*
X0000612734Y0003176427D01*
X0000609456Y0003172433D01*
X0000605461Y0003169155D01*
X0000604054Y0003168000D01*
X0000604054Y0003168000D01*
X0000597892Y0003164706D01*
X0000595663Y0003164030D01*
X0000591205Y0003162678D01*
X0000588600Y0003162421D01*
X0000585994Y0003162165D01*
X0000582509Y0003162165D01*
X0000579903Y0003162421D01*
X0000577298Y0003162678D01*
X0000572840Y0003164030D01*
X0000570611Y0003164706D01*
X0000564449Y0003168000D01*
X0000564449Y0003168000D01*
X0000563042Y0003169155D01*
X0000559047Y0003172433D01*
X0000555769Y0003176427D01*
X0000554615Y0003177834D01*
X0000554238Y0003178539D01*
X0000551321Y0003183997D01*
X0000550645Y0003186225D01*
X0000549292Y0003190683D01*
X0000548607Y0003197637D01*
X0000549292Y0003204591D01*
X0000551321Y0003211277D01*
X0000551321Y0003211277D01*
X0000554615Y0003217440D01*
X0000554615Y0003217440D01*
X0000555769Y0003218847D01*
X0000559047Y0003222841D01*
X0000563042Y0003226119D01*
X0000564449Y0003227274D01*
X0000565154Y0003227651D01*
X0000570611Y0003230568D01*
X0000572840Y0003231244D01*
X0000577298Y0003232596D01*
X0000579903Y0003232853D01*
X0000582509Y0003233109D01*
X0000585994Y0003233109D01*
X0000588600Y0003232853D01*
X0000588600Y0003232853D01*
G37*
G36*
X0000488600Y0003332853D02*
X0000491205Y0003332596D01*
X0000495663Y0003331244D01*
X0000497892Y0003330568D01*
X0000503349Y0003327651D01*
X0000504054Y0003327274D01*
X0000505461Y0003326119D01*
X0000509456Y0003322841D01*
X0000512734Y0003318847D01*
X0000513888Y0003317440D01*
X0000513888Y0003317440D01*
X0000517182Y0003311277D01*
X0000517182Y0003311277D01*
X0000519211Y0003304591D01*
X0000519896Y0003297637D01*
X0000519211Y0003290683D01*
X0000517858Y0003286225D01*
X0000517182Y0003283997D01*
X0000514265Y0003278539D01*
X0000513888Y0003277834D01*
X0000512734Y0003276427D01*
X0000509456Y0003272433D01*
X0000505461Y0003269155D01*
X0000504054Y0003268000D01*
X0000504054Y0003268000D01*
X0000497892Y0003264706D01*
X0000495663Y0003264030D01*
X0000491205Y0003262678D01*
X0000488600Y0003262421D01*
X0000485994Y0003262165D01*
X0000482509Y0003262165D01*
X0000479903Y0003262421D01*
X0000477298Y0003262678D01*
X0000472840Y0003264030D01*
X0000470611Y0003264706D01*
X0000464449Y0003268000D01*
X0000464449Y0003268000D01*
X0000463042Y0003269155D01*
X0000459047Y0003272433D01*
X0000455769Y0003276427D01*
X0000454615Y0003277834D01*
X0000454238Y0003278539D01*
X0000451321Y0003283997D01*
X0000450645Y0003286225D01*
X0000449292Y0003290683D01*
X0000448607Y0003297637D01*
X0000449292Y0003304591D01*
X0000451321Y0003311277D01*
X0000451321Y0003311277D01*
X0000454614Y0003317440D01*
X0000454615Y0003317440D01*
X0000455769Y0003318847D01*
X0000459047Y0003322841D01*
X0000463042Y0003326119D01*
X0000464449Y0003327274D01*
X0000465154Y0003327651D01*
X0000470611Y0003330568D01*
X0000472840Y0003331244D01*
X0000477298Y0003332596D01*
X0000479903Y0003332853D01*
X0000482509Y0003333109D01*
X0000485994Y0003333109D01*
X0000488600Y0003332853D01*
X0000488600Y0003332853D01*
G37*
G36*
X0000588600Y0003332853D02*
X0000591205Y0003332596D01*
X0000595663Y0003331244D01*
X0000597892Y0003330568D01*
X0000603349Y0003327651D01*
X0000604054Y0003327274D01*
X0000605461Y0003326119D01*
X0000609456Y0003322841D01*
X0000612734Y0003318847D01*
X0000613888Y0003317440D01*
X0000613888Y0003317440D01*
X0000617182Y0003311277D01*
X0000617182Y0003311277D01*
X0000619211Y0003304591D01*
X0000619895Y0003297637D01*
X0000619211Y0003290683D01*
X0000617858Y0003286225D01*
X0000617182Y0003283997D01*
X0000614265Y0003278539D01*
X0000613888Y0003277834D01*
X0000612734Y0003276427D01*
X0000609456Y0003272433D01*
X0000605461Y0003269155D01*
X0000604054Y0003268000D01*
X0000604054Y0003268000D01*
X0000597892Y0003264706D01*
X0000595663Y0003264030D01*
X0000591205Y0003262678D01*
X0000588600Y0003262421D01*
X0000585994Y0003262165D01*
X0000582509Y0003262165D01*
X0000579903Y0003262421D01*
X0000577298Y0003262678D01*
X0000572840Y0003264030D01*
X0000570611Y0003264706D01*
X0000564449Y0003268000D01*
X0000564449Y0003268000D01*
X0000563042Y0003269155D01*
X0000559047Y0003272433D01*
X0000555769Y0003276427D01*
X0000554615Y0003277834D01*
X0000554238Y0003278539D01*
X0000551321Y0003283997D01*
X0000550645Y0003286225D01*
X0000549292Y0003290683D01*
X0000548607Y0003297637D01*
X0000549292Y0003304591D01*
X0000551321Y0003311277D01*
X0000551321Y0003311277D01*
X0000554615Y0003317440D01*
X0000554615Y0003317440D01*
X0000555769Y0003318847D01*
X0000559047Y0003322841D01*
X0000563042Y0003326119D01*
X0000564449Y0003327274D01*
X0000565154Y0003327651D01*
X0000570611Y0003330568D01*
X0000572840Y0003331244D01*
X0000577298Y0003332596D01*
X0000579903Y0003332853D01*
X0000582509Y0003333109D01*
X0000585994Y0003333109D01*
X0000588600Y0003332853D01*
X0000588600Y0003332853D01*
G37*
G36*
X0000519724Y0003362165D02*
X0000448779Y0003362165D01*
X0000448779Y0003433109D01*
X0000519724Y0003433109D01*
X0000519724Y0003362165D01*
X0000519724Y0003362165D01*
G37*
G36*
X0000588600Y0003432853D02*
X0000591205Y0003432596D01*
X0000595663Y0003431244D01*
X0000597892Y0003430568D01*
X0000603349Y0003427651D01*
X0000604054Y0003427274D01*
X0000605461Y0003426119D01*
X0000609456Y0003422841D01*
X0000612734Y0003418847D01*
X0000613888Y0003417440D01*
X0000613888Y0003417440D01*
X0000617182Y0003411277D01*
X0000617182Y0003411277D01*
X0000619211Y0003404591D01*
X0000619895Y0003397637D01*
X0000619211Y0003390683D01*
X0000617858Y0003386225D01*
X0000617182Y0003383997D01*
X0000614265Y0003378539D01*
X0000613888Y0003377834D01*
X0000612734Y0003376427D01*
X0000609456Y0003372433D01*
X0000605461Y0003369155D01*
X0000604054Y0003368000D01*
X0000604054Y0003368000D01*
X0000597892Y0003364706D01*
X0000595663Y0003364030D01*
X0000591205Y0003362678D01*
X0000588600Y0003362421D01*
X0000585994Y0003362165D01*
X0000582509Y0003362165D01*
X0000579903Y0003362421D01*
X0000577298Y0003362678D01*
X0000572840Y0003364030D01*
X0000570611Y0003364706D01*
X0000564449Y0003368000D01*
X0000564449Y0003368000D01*
X0000563042Y0003369155D01*
X0000559047Y0003372433D01*
X0000555769Y0003376427D01*
X0000554615Y0003377834D01*
X0000554238Y0003378539D01*
X0000551321Y0003383997D01*
X0000550645Y0003386225D01*
X0000549292Y0003390683D01*
X0000548607Y0003397637D01*
X0000549292Y0003404591D01*
X0000551321Y0003411277D01*
X0000551321Y0003411277D01*
X0000554615Y0003417440D01*
X0000554615Y0003417440D01*
X0000555769Y0003418847D01*
X0000559047Y0003422841D01*
X0000563042Y0003426119D01*
X0000564449Y0003427274D01*
X0000565154Y0003427651D01*
X0000570611Y0003430568D01*
X0000572840Y0003431244D01*
X0000577298Y0003432596D01*
X0000579903Y0003432853D01*
X0000582509Y0003433109D01*
X0000585994Y0003433109D01*
X0000588600Y0003432853D01*
X0000588600Y0003432853D01*
G37*
G36*
X0000221820Y0003802697D02*
X0000234184Y0003800238D01*
X0000257477Y0003790590D01*
X0000268878Y0003782972D01*
X0000278440Y0003776582D01*
X0000296268Y0003758755D01*
X0000296268Y0003758755D01*
X0000310275Y0003737792D01*
X0000317955Y0003719251D01*
X0000319923Y0003714498D01*
X0000324842Y0003689771D01*
X0000324842Y0003664558D01*
X0000322383Y0003652195D01*
X0000319923Y0003639831D01*
X0000310275Y0003616538D01*
X0000300522Y0003601941D01*
X0000296268Y0003595574D01*
X0000278440Y0003577747D01*
X0000278440Y0003577747D01*
X0000257477Y0003563739D01*
X0000234184Y0003554091D01*
X0000221820Y0003551632D01*
X0000209456Y0003549172D01*
X0000184244Y0003549172D01*
X0000171880Y0003551632D01*
X0000159516Y0003554091D01*
X0000136223Y0003563739D01*
X0000115260Y0003577747D01*
X0000115260Y0003577747D01*
X0000097432Y0003595574D01*
X0000093178Y0003601941D01*
X0000083425Y0003616538D01*
X0000073776Y0003639831D01*
X0000071317Y0003652195D01*
X0000068858Y0003664558D01*
X0000068858Y0003689771D01*
X0000073776Y0003714498D01*
X0000075745Y0003719251D01*
X0000083425Y0003737792D01*
X0000097432Y0003758755D01*
X0000097432Y0003758755D01*
X0000115260Y0003776582D01*
X0000124821Y0003782972D01*
X0000136223Y0003790590D01*
X0000159516Y0003800238D01*
X0000171880Y0003802697D01*
X0000184244Y0003805157D01*
X0000209456Y0003805157D01*
X0000221820Y0003802697D01*
X0000221820Y0003802697D01*
G37*
G36*
X0001717883Y0003802697D02*
X0001730247Y0003800238D01*
X0001753540Y0003790590D01*
X0001764941Y0003782972D01*
X0001774503Y0003776582D01*
X0001792331Y0003758755D01*
X0001792331Y0003758755D01*
X0001806338Y0003737792D01*
X0001814018Y0003719251D01*
X0001815986Y0003714498D01*
X0001820905Y0003689771D01*
X0001820905Y0003664558D01*
X0001818446Y0003652195D01*
X0001815986Y0003639831D01*
X0001806338Y0003616538D01*
X0001796585Y0003601941D01*
X0001792331Y0003595574D01*
X0001774503Y0003577747D01*
X0001774503Y0003577747D01*
X0001753540Y0003563739D01*
X0001730247Y0003554091D01*
X0001717883Y0003551632D01*
X0001705519Y0003549172D01*
X0001680307Y0003549172D01*
X0001667943Y0003551632D01*
X0001655579Y0003554091D01*
X0001632286Y0003563739D01*
X0001611323Y0003577747D01*
X0001611323Y0003577747D01*
X0001593495Y0003595574D01*
X0001589241Y0003601941D01*
X0001579488Y0003616538D01*
X0001569839Y0003639831D01*
X0001567380Y0003652195D01*
X0001564921Y0003664558D01*
X0001564921Y0003689771D01*
X0001569839Y0003714498D01*
X0001571808Y0003719251D01*
X0001579488Y0003737792D01*
X0001593495Y0003758755D01*
X0001593495Y0003758755D01*
X0001611323Y0003776582D01*
X0001620884Y0003782972D01*
X0001632286Y0003790590D01*
X0001655579Y0003800238D01*
X0001667943Y0003802697D01*
X0001680307Y0003805157D01*
X0001705519Y0003805157D01*
X0001717883Y0003802697D01*
X0001717883Y0003802697D01*
G37*
G36*
X0001035526Y0003746358D02*
X0001038041Y0003745316D01*
X0001040305Y0003743804D01*
X0001042229Y0003741879D01*
X0001043742Y0003739616D01*
X0001044783Y0003737101D01*
X0001045314Y0003734431D01*
X0001045314Y0003731709D01*
X0001044783Y0003729039D01*
X0001043742Y0003726524D01*
X0001042229Y0003724261D01*
X0001040305Y0003722336D01*
X0001038041Y0003720824D01*
X0001035526Y0003719782D01*
X0001032857Y0003719251D01*
X0001030135Y0003719251D01*
X0001027465Y0003719782D01*
X0001024950Y0003720824D01*
X0001022686Y0003722336D01*
X0001020762Y0003724261D01*
X0001019249Y0003726524D01*
X0001018208Y0003729039D01*
X0001017677Y0003731709D01*
X0001017677Y0003734431D01*
X0001018208Y0003737101D01*
X0001019249Y0003739616D01*
X0001020762Y0003741879D01*
X0001022686Y0003743804D01*
X0001024950Y0003745316D01*
X0001027465Y0003746358D01*
X0001030135Y0003746889D01*
X0001032857Y0003746889D01*
X0001035526Y0003746358D01*
X0001035526Y0003746358D01*
G37*
G36*
X0000878046Y0003746358D02*
X0000880561Y0003745316D01*
X0000882824Y0003743804D01*
X0000884749Y0003741879D01*
X0000886261Y0003739616D01*
X0000887303Y0003737101D01*
X0000887834Y0003734431D01*
X0000887834Y0003731709D01*
X0000887303Y0003729039D01*
X0000886261Y0003726524D01*
X0000884749Y0003724261D01*
X0000882824Y0003722336D01*
X0000880561Y0003720824D01*
X0000878046Y0003719782D01*
X0000875376Y0003719251D01*
X0000872654Y0003719251D01*
X0000869984Y0003719782D01*
X0000867470Y0003720824D01*
X0000865206Y0003722336D01*
X0000863281Y0003724261D01*
X0000861769Y0003726524D01*
X0000860727Y0003729039D01*
X0000860196Y0003731709D01*
X0000860196Y0003734431D01*
X0000860727Y0003737101D01*
X0000861769Y0003739616D01*
X0000863281Y0003741879D01*
X0000865206Y0003743804D01*
X0000867470Y0003745316D01*
X0000869984Y0003746358D01*
X0000872654Y0003746889D01*
X0000875376Y0003746889D01*
X0000878046Y0003746358D01*
X0000878046Y0003746358D01*
G37*
G04 next file*
G04 #@! TF.GenerationSoftware,KiCad,Pcbnew,(5.0.2)-1*
G04 #@! TF.CreationDate,2019-01-19T12:25:22+11:00*
G04 #@! TF.ProjectId,MAX2870_Dev_Rev_0,4d415832-3837-4305-9f44-65765f526576,rev?*
G04 #@! TF.SameCoordinates,Original*
G04 #@! TF.FileFunction,Soldermask,Bot*
G04 #@! TF.FilePolarity,Negative*
G04 Gerber Fmt 4.6, Leading zero omitted, Abs format (unit mm)*
G04 Created by KiCad (PCBNEW (5.0.2)-1) date 19/01/2019 12:25:22*
G01*
G04 APERTURE LIST*
G04 APERTURE END LIST*
D26*
G04 #@! TO.C,REF\002A\002A*
G36*
X0002352362Y0002198818D02*
X0002588582Y0002198818D01*
X0002588582Y0002110235D01*
X0002352362Y0002110235D01*
X0002352362Y0002198818D01*
G37*
X0002352362Y0002198818D02*
X0002588582Y0002198818D01*
X0002588582Y0002110235D01*
X0002352362Y0002110235D01*
X0002352362Y0002198818D01*
D27*
G36*
X0002206072Y0002306634D02*
X0002218436Y0002304175D01*
X0002241729Y0002294527D01*
X0002253130Y0002286909D01*
X0002262692Y0002280519D01*
X0002280520Y0002262692D01*
X0002280520Y0002262692D01*
X0002294527Y0002241729D01*
X0002299319Y0002230159D01*
X0002304175Y0002218435D01*
X0002309094Y0002193708D01*
X0002309094Y0002168495D01*
X0002306635Y0002156132D01*
X0002304175Y0002143768D01*
X0002294527Y0002120475D01*
X0002284774Y0002105878D01*
X0002280520Y0002099511D01*
X0002262692Y0002081684D01*
X0002262692Y0002081684D01*
X0002241729Y0002067676D01*
X0002218436Y0002058028D01*
X0002206072Y0002055569D01*
X0002193708Y0002053109D01*
X0002168496Y0002053109D01*
X0002156132Y0002055569D01*
X0002143768Y0002058028D01*
X0002120475Y0002067676D01*
X0002099512Y0002081684D01*
X0002099512Y0002081684D01*
X0002081684Y0002099511D01*
X0002077430Y0002105878D01*
X0002067677Y0002120475D01*
X0002058028Y0002143768D01*
X0002055569Y0002156132D01*
X0002053110Y0002168495D01*
X0002053110Y0002193708D01*
X0002058028Y0002218435D01*
X0002062884Y0002230159D01*
X0002067677Y0002241729D01*
X0002081684Y0002262692D01*
X0002081684Y0002262692D01*
X0002099512Y0002280519D01*
X0002109073Y0002286909D01*
X0002120475Y0002294527D01*
X0002143768Y0002304175D01*
X0002156132Y0002306634D01*
X0002168496Y0002309094D01*
X0002193708Y0002309094D01*
X0002206072Y0002306634D01*
X0002206072Y0002306634D01*
G37*
G36*
X0003702135Y0002306634D02*
X0003714499Y0002304175D01*
X0003737792Y0002294527D01*
X0003749193Y0002286909D01*
X0003758755Y0002280519D01*
X0003776583Y0002262692D01*
X0003776583Y0002262692D01*
X0003790590Y0002241729D01*
X0003795382Y0002230159D01*
X0003800238Y0002218435D01*
X0003805157Y0002193708D01*
X0003805157Y0002168495D01*
X0003802698Y0002156132D01*
X0003800238Y0002143768D01*
X0003790590Y0002120475D01*
X0003780837Y0002105878D01*
X0003776583Y0002099511D01*
X0003758755Y0002081684D01*
X0003758755Y0002081684D01*
X0003737792Y0002067676D01*
X0003714499Y0002058028D01*
X0003702135Y0002055569D01*
X0003689771Y0002053109D01*
X0003664559Y0002053109D01*
X0003652195Y0002055569D01*
X0003639831Y0002058028D01*
X0003616538Y0002067676D01*
X0003595575Y0002081684D01*
X0003595575Y0002081684D01*
X0003577747Y0002099511D01*
X0003573493Y0002105878D01*
X0003563740Y0002120475D01*
X0003554091Y0002143768D01*
X0003551632Y0002156132D01*
X0003549173Y0002168495D01*
X0003549173Y0002193708D01*
X0003554091Y0002218435D01*
X0003558947Y0002230159D01*
X0003563740Y0002241729D01*
X0003577747Y0002262692D01*
X0003577747Y0002262692D01*
X0003595575Y0002280519D01*
X0003605136Y0002286909D01*
X0003616538Y0002294527D01*
X0003639831Y0002304175D01*
X0003652195Y0002306634D01*
X0003664559Y0002309094D01*
X0003689771Y0002309094D01*
X0003702135Y0002306634D01*
X0003702135Y0002306634D01*
G37*
G36*
X0002239781Y0002803719D02*
X0002242386Y0002803462D01*
X0002246844Y0002802110D01*
X0002249073Y0002801434D01*
X0002254530Y0002798517D01*
X0002255235Y0002798140D01*
X0002256642Y0002796985D01*
X0002260637Y0002793707D01*
X0002263915Y0002789713D01*
X0002265070Y0002788306D01*
X0002265070Y0002788306D01*
X0002268363Y0002782144D01*
X0002268363Y0002782144D01*
X0002270392Y0002775457D01*
X0002271077Y0002768503D01*
X0002270392Y0002761549D01*
X0002269040Y0002757092D01*
X0002268363Y0002754863D01*
X0002265446Y0002749405D01*
X0002265070Y0002748700D01*
X0002263915Y0002747293D01*
X0002260637Y0002743299D01*
X0002256642Y0002740021D01*
X0002255235Y0002738866D01*
X0002255235Y0002738866D01*
X0002249073Y0002735572D01*
X0002246844Y0002734896D01*
X0002242386Y0002733544D01*
X0002239781Y0002733287D01*
X0002237175Y0002733031D01*
X0002233690Y0002733031D01*
X0002231084Y0002733287D01*
X0002228479Y0002733544D01*
X0002224021Y0002734896D01*
X0002221792Y0002735572D01*
X0002215630Y0002738866D01*
X0002215630Y0002738866D01*
X0002214223Y0002740021D01*
X0002210228Y0002743299D01*
X0002206950Y0002747293D01*
X0002205796Y0002748700D01*
X0002205419Y0002749405D01*
X0002202502Y0002754863D01*
X0002201826Y0002757092D01*
X0002200473Y0002761549D01*
X0002199789Y0002768503D01*
X0002200473Y0002775457D01*
X0002202502Y0002782144D01*
X0002202502Y0002782144D01*
X0002205796Y0002788306D01*
X0002205796Y0002788306D01*
X0002206950Y0002789713D01*
X0002210228Y0002793707D01*
X0002214223Y0002796985D01*
X0002215630Y0002798140D01*
X0002216335Y0002798517D01*
X0002221792Y0002801434D01*
X0002224021Y0002802110D01*
X0002228479Y0002803462D01*
X0002231084Y0002803719D01*
X0002233690Y0002803976D01*
X0002237175Y0002803976D01*
X0002239781Y0002803719D01*
X0002239781Y0002803719D01*
G37*
G36*
X0002339781Y0002803719D02*
X0002342386Y0002803462D01*
X0002346844Y0002802110D01*
X0002349073Y0002801434D01*
X0002354530Y0002798517D01*
X0002355235Y0002798140D01*
X0002356642Y0002796985D01*
X0002360637Y0002793707D01*
X0002363915Y0002789713D01*
X0002365070Y0002788306D01*
X0002365070Y0002788306D01*
X0002368363Y0002782144D01*
X0002368363Y0002782144D01*
X0002370392Y0002775457D01*
X0002371077Y0002768503D01*
X0002370392Y0002761549D01*
X0002369040Y0002757092D01*
X0002368363Y0002754863D01*
X0002365446Y0002749405D01*
X0002365070Y0002748700D01*
X0002363915Y0002747293D01*
X0002360637Y0002743299D01*
X0002356642Y0002740021D01*
X0002355235Y0002738866D01*
X0002355235Y0002738866D01*
X0002349073Y0002735572D01*
X0002346844Y0002734896D01*
X0002342386Y0002733544D01*
X0002339781Y0002733287D01*
X0002337175Y0002733031D01*
X0002333690Y0002733031D01*
X0002331084Y0002733287D01*
X0002328479Y0002733544D01*
X0002324021Y0002734896D01*
X0002321792Y0002735572D01*
X0002315630Y0002738866D01*
X0002315630Y0002738866D01*
X0002314223Y0002740021D01*
X0002310228Y0002743299D01*
X0002306950Y0002747293D01*
X0002305796Y0002748700D01*
X0002305419Y0002749405D01*
X0002302502Y0002754863D01*
X0002301826Y0002757092D01*
X0002300473Y0002761549D01*
X0002299789Y0002768503D01*
X0002300473Y0002775457D01*
X0002302502Y0002782144D01*
X0002302502Y0002782144D01*
X0002305796Y0002788306D01*
X0002305796Y0002788306D01*
X0002306950Y0002789713D01*
X0002310228Y0002793707D01*
X0002314223Y0002796985D01*
X0002315630Y0002798140D01*
X0002316335Y0002798517D01*
X0002321792Y0002801434D01*
X0002324021Y0002802110D01*
X0002328479Y0002803462D01*
X0002331084Y0002803719D01*
X0002333690Y0002803976D01*
X0002337175Y0002803976D01*
X0002339781Y0002803719D01*
X0002339781Y0002803719D01*
G37*
G36*
X0003872086Y0002832637D02*
X0003702716Y0002832637D01*
X0003702716Y0002889802D01*
X0003872086Y0002889802D01*
X0003872086Y0002832637D01*
X0003872086Y0002832637D01*
G37*
G36*
X0002339781Y0002903719D02*
X0002342386Y0002903462D01*
X0002346844Y0002902110D01*
X0002349073Y0002901434D01*
X0002354530Y0002898517D01*
X0002355235Y0002898140D01*
X0002356642Y0002896985D01*
X0002360637Y0002893707D01*
X0002363841Y0002889802D01*
X0002365070Y0002888306D01*
X0002365070Y0002888306D01*
X0002368363Y0002882144D01*
X0002368363Y0002882144D01*
X0002370392Y0002875457D01*
X0002371077Y0002868503D01*
X0002370392Y0002861549D01*
X0002369040Y0002857092D01*
X0002368363Y0002854863D01*
X0002365446Y0002849405D01*
X0002365070Y0002848700D01*
X0002363915Y0002847293D01*
X0002360637Y0002843299D01*
X0002356642Y0002840021D01*
X0002355235Y0002838866D01*
X0002355235Y0002838866D01*
X0002349073Y0002835572D01*
X0002346844Y0002834896D01*
X0002342386Y0002833544D01*
X0002339781Y0002833287D01*
X0002337175Y0002833031D01*
X0002333690Y0002833031D01*
X0002331084Y0002833287D01*
X0002328479Y0002833544D01*
X0002324021Y0002834896D01*
X0002321792Y0002835572D01*
X0002315630Y0002838866D01*
X0002315630Y0002838866D01*
X0002314223Y0002840021D01*
X0002310228Y0002843299D01*
X0002306950Y0002847293D01*
X0002305796Y0002848700D01*
X0002305419Y0002849405D01*
X0002302502Y0002854863D01*
X0002301826Y0002857092D01*
X0002300473Y0002861549D01*
X0002299789Y0002868503D01*
X0002300473Y0002875457D01*
X0002302502Y0002882144D01*
X0002302502Y0002882144D01*
X0002305796Y0002888306D01*
X0002305796Y0002888306D01*
X0002307024Y0002889802D01*
X0002310228Y0002893707D01*
X0002314223Y0002896985D01*
X0002315630Y0002898140D01*
X0002316335Y0002898517D01*
X0002321792Y0002901434D01*
X0002324021Y0002902110D01*
X0002328479Y0002903462D01*
X0002331084Y0002903719D01*
X0002333690Y0002903976D01*
X0002337175Y0002903976D01*
X0002339781Y0002903719D01*
X0002339781Y0002903719D01*
G37*
G36*
X0002239781Y0002903719D02*
X0002242386Y0002903462D01*
X0002246844Y0002902110D01*
X0002249073Y0002901434D01*
X0002254530Y0002898517D01*
X0002255235Y0002898140D01*
X0002256642Y0002896985D01*
X0002260637Y0002893707D01*
X0002263841Y0002889802D01*
X0002265070Y0002888306D01*
X0002265070Y0002888306D01*
X0002268363Y0002882144D01*
X0002268363Y0002882144D01*
X0002270392Y0002875457D01*
X0002271077Y0002868503D01*
X0002270392Y0002861549D01*
X0002269040Y0002857092D01*
X0002268363Y0002854863D01*
X0002265446Y0002849405D01*
X0002265070Y0002848700D01*
X0002263915Y0002847293D01*
X0002260637Y0002843299D01*
X0002256642Y0002840021D01*
X0002255235Y0002838866D01*
X0002255235Y0002838866D01*
X0002249073Y0002835572D01*
X0002246844Y0002834896D01*
X0002242386Y0002833544D01*
X0002239781Y0002833287D01*
X0002237175Y0002833031D01*
X0002233690Y0002833031D01*
X0002231084Y0002833287D01*
X0002228479Y0002833544D01*
X0002224021Y0002834896D01*
X0002221792Y0002835572D01*
X0002215630Y0002838866D01*
X0002215630Y0002838866D01*
X0002214223Y0002840021D01*
X0002210228Y0002843299D01*
X0002206950Y0002847293D01*
X0002205796Y0002848700D01*
X0002205419Y0002849405D01*
X0002202502Y0002854863D01*
X0002201826Y0002857092D01*
X0002200473Y0002861549D01*
X0002199789Y0002868503D01*
X0002200473Y0002875457D01*
X0002202502Y0002882144D01*
X0002202502Y0002882144D01*
X0002205796Y0002888306D01*
X0002205796Y0002888306D01*
X0002207024Y0002889802D01*
X0002210228Y0002893707D01*
X0002214223Y0002896985D01*
X0002215630Y0002898140D01*
X0002216335Y0002898517D01*
X0002221792Y0002901434D01*
X0002224021Y0002902110D01*
X0002228479Y0002903462D01*
X0002231084Y0002903719D01*
X0002233690Y0002903976D01*
X0002237175Y0002903976D01*
X0002239781Y0002903719D01*
X0002239781Y0002903719D01*
G37*
G36*
X0002239781Y0003003719D02*
X0002242386Y0003003462D01*
X0002246844Y0003002110D01*
X0002249073Y0003001434D01*
X0002254530Y0002998517D01*
X0002255235Y0002998140D01*
X0002256642Y0002996985D01*
X0002260637Y0002993707D01*
X0002263915Y0002989713D01*
X0002265070Y0002988306D01*
X0002265070Y0002988306D01*
X0002268363Y0002982144D01*
X0002268363Y0002982144D01*
X0002270392Y0002975457D01*
X0002271077Y0002968503D01*
X0002270392Y0002961549D01*
X0002269040Y0002957092D01*
X0002268363Y0002954863D01*
X0002265446Y0002949405D01*
X0002265070Y0002948700D01*
X0002263915Y0002947293D01*
X0002260637Y0002943299D01*
X0002256642Y0002940021D01*
X0002255235Y0002938866D01*
X0002255235Y0002938866D01*
X0002249073Y0002935572D01*
X0002246844Y0002934896D01*
X0002242386Y0002933544D01*
X0002239781Y0002933287D01*
X0002237175Y0002933031D01*
X0002233690Y0002933031D01*
X0002231084Y0002933287D01*
X0002228479Y0002933544D01*
X0002224021Y0002934896D01*
X0002221792Y0002935572D01*
X0002215630Y0002938866D01*
X0002215630Y0002938866D01*
X0002214223Y0002940021D01*
X0002210228Y0002943299D01*
X0002206950Y0002947293D01*
X0002205796Y0002948700D01*
X0002205419Y0002949405D01*
X0002202502Y0002954863D01*
X0002201826Y0002957092D01*
X0002200473Y0002961549D01*
X0002199789Y0002968503D01*
X0002200473Y0002975457D01*
X0002202502Y0002982144D01*
X0002202502Y0002982144D01*
X0002205796Y0002988306D01*
X0002205796Y0002988306D01*
X0002206950Y0002989713D01*
X0002210228Y0002993707D01*
X0002214223Y0002996985D01*
X0002215630Y0002998140D01*
X0002216335Y0002998517D01*
X0002221792Y0003001434D01*
X0002224021Y0003002110D01*
X0002228479Y0003003462D01*
X0002231084Y0003003719D01*
X0002233690Y0003003976D01*
X0002237175Y0003003976D01*
X0002239781Y0003003719D01*
X0002239781Y0003003719D01*
G37*
G36*
X0002339781Y0003003719D02*
X0002342386Y0003003462D01*
X0002346844Y0003002110D01*
X0002349073Y0003001434D01*
X0002354530Y0002998517D01*
X0002355235Y0002998140D01*
X0002356642Y0002996985D01*
X0002360637Y0002993707D01*
X0002363915Y0002989713D01*
X0002365070Y0002988306D01*
X0002365070Y0002988306D01*
X0002368363Y0002982144D01*
X0002368363Y0002982144D01*
X0002370392Y0002975457D01*
X0002371077Y0002968503D01*
X0002370392Y0002961549D01*
X0002369040Y0002957092D01*
X0002368363Y0002954863D01*
X0002365446Y0002949405D01*
X0002365070Y0002948700D01*
X0002363915Y0002947293D01*
X0002360637Y0002943299D01*
X0002356642Y0002940021D01*
X0002355235Y0002938866D01*
X0002355235Y0002938866D01*
X0002349073Y0002935572D01*
X0002346844Y0002934896D01*
X0002342386Y0002933544D01*
X0002339781Y0002933287D01*
X0002337175Y0002933031D01*
X0002333690Y0002933031D01*
X0002331084Y0002933287D01*
X0002328479Y0002933544D01*
X0002324021Y0002934896D01*
X0002321792Y0002935572D01*
X0002315630Y0002938866D01*
X0002315630Y0002938866D01*
X0002314223Y0002940021D01*
X0002310228Y0002943299D01*
X0002306950Y0002947293D01*
X0002305796Y0002948700D01*
X0002305419Y0002949405D01*
X0002302502Y0002954863D01*
X0002301826Y0002957092D01*
X0002300473Y0002961549D01*
X0002299789Y0002968503D01*
X0002300473Y0002975457D01*
X0002302502Y0002982144D01*
X0002302502Y0002982144D01*
X0002305796Y0002988306D01*
X0002305796Y0002988306D01*
X0002306950Y0002989713D01*
X0002310228Y0002993707D01*
X0002314223Y0002996985D01*
X0002315630Y0002998140D01*
X0002316335Y0002998517D01*
X0002321792Y0003001434D01*
X0002324021Y0003002110D01*
X0002328479Y0003003462D01*
X0002331084Y0003003719D01*
X0002333690Y0003003976D01*
X0002337175Y0003003976D01*
X0002339781Y0003003719D01*
X0002339781Y0003003719D01*
G37*
G36*
X0002339781Y0003103719D02*
X0002342386Y0003103462D01*
X0002346844Y0003102110D01*
X0002349073Y0003101434D01*
X0002354530Y0003098517D01*
X0002355235Y0003098140D01*
X0002356642Y0003096985D01*
X0002360637Y0003093707D01*
X0002363915Y0003089713D01*
X0002365070Y0003088306D01*
X0002365070Y0003088306D01*
X0002368363Y0003082144D01*
X0002368363Y0003082144D01*
X0002370392Y0003075457D01*
X0002371077Y0003068503D01*
X0002370392Y0003061549D01*
X0002369040Y0003057092D01*
X0002368363Y0003054863D01*
X0002365446Y0003049405D01*
X0002365070Y0003048700D01*
X0002363915Y0003047293D01*
X0002360637Y0003043299D01*
X0002356642Y0003040021D01*
X0002355235Y0003038866D01*
X0002355235Y0003038866D01*
X0002349073Y0003035572D01*
X0002346844Y0003034896D01*
X0002342386Y0003033544D01*
X0002339781Y0003033287D01*
X0002337175Y0003033031D01*
X0002333690Y0003033031D01*
X0002331084Y0003033287D01*
X0002328479Y0003033544D01*
X0002324021Y0003034896D01*
X0002321792Y0003035572D01*
X0002315630Y0003038866D01*
X0002315630Y0003038866D01*
X0002314223Y0003040021D01*
X0002310228Y0003043299D01*
X0002306950Y0003047293D01*
X0002305796Y0003048700D01*
X0002305419Y0003049405D01*
X0002302502Y0003054863D01*
X0002301826Y0003057092D01*
X0002300473Y0003061549D01*
X0002299789Y0003068503D01*
X0002300473Y0003075457D01*
X0002302502Y0003082144D01*
X0002302502Y0003082144D01*
X0002305796Y0003088306D01*
X0002305796Y0003088306D01*
X0002306950Y0003089713D01*
X0002310228Y0003093707D01*
X0002314223Y0003096985D01*
X0002315630Y0003098140D01*
X0002316335Y0003098517D01*
X0002321792Y0003101434D01*
X0002324021Y0003102110D01*
X0002328479Y0003103462D01*
X0002331084Y0003103719D01*
X0002333690Y0003103976D01*
X0002337175Y0003103976D01*
X0002339781Y0003103719D01*
X0002339781Y0003103719D01*
G37*
G36*
X0002239781Y0003103719D02*
X0002242386Y0003103462D01*
X0002246844Y0003102110D01*
X0002249073Y0003101434D01*
X0002254530Y0003098517D01*
X0002255235Y0003098140D01*
X0002256642Y0003096985D01*
X0002260637Y0003093707D01*
X0002263915Y0003089713D01*
X0002265070Y0003088306D01*
X0002265070Y0003088306D01*
X0002268363Y0003082144D01*
X0002268363Y0003082144D01*
X0002270392Y0003075457D01*
X0002271077Y0003068503D01*
X0002270392Y0003061549D01*
X0002269040Y0003057092D01*
X0002268363Y0003054863D01*
X0002265446Y0003049405D01*
X0002265070Y0003048700D01*
X0002263915Y0003047293D01*
X0002260637Y0003043299D01*
X0002256642Y0003040021D01*
X0002255235Y0003038866D01*
X0002255235Y0003038866D01*
X0002249073Y0003035572D01*
X0002246844Y0003034896D01*
X0002242386Y0003033544D01*
X0002239781Y0003033287D01*
X0002237175Y0003033031D01*
X0002233690Y0003033031D01*
X0002231084Y0003033287D01*
X0002228479Y0003033544D01*
X0002224021Y0003034896D01*
X0002221792Y0003035572D01*
X0002215630Y0003038866D01*
X0002215630Y0003038866D01*
X0002214223Y0003040021D01*
X0002210228Y0003043299D01*
X0002206950Y0003047293D01*
X0002205796Y0003048700D01*
X0002205419Y0003049405D01*
X0002202502Y0003054863D01*
X0002201826Y0003057092D01*
X0002200473Y0003061549D01*
X0002199789Y0003068503D01*
X0002200473Y0003075457D01*
X0002202502Y0003082144D01*
X0002202502Y0003082144D01*
X0002205796Y0003088306D01*
X0002205796Y0003088306D01*
X0002206950Y0003089713D01*
X0002210228Y0003093707D01*
X0002214223Y0003096985D01*
X0002215630Y0003098140D01*
X0002216335Y0003098517D01*
X0002221792Y0003101434D01*
X0002224021Y0003102110D01*
X0002228479Y0003103462D01*
X0002231084Y0003103719D01*
X0002233690Y0003103976D01*
X0002237175Y0003103976D01*
X0002239781Y0003103719D01*
X0002239781Y0003103719D01*
G37*
G36*
X0003872086Y0003055078D02*
X0003702716Y0003055078D01*
X0003702716Y0003112243D01*
X0003872086Y0003112243D01*
X0003872086Y0003055078D01*
X0003872086Y0003055078D01*
G37*
G36*
X0002339781Y0003203719D02*
X0002342386Y0003203462D01*
X0002346844Y0003202110D01*
X0002349073Y0003201434D01*
X0002354530Y0003198517D01*
X0002355235Y0003198140D01*
X0002356642Y0003196985D01*
X0002360637Y0003193707D01*
X0002363915Y0003189713D01*
X0002365070Y0003188306D01*
X0002365070Y0003188306D01*
X0002368363Y0003182144D01*
X0002368363Y0003182144D01*
X0002370392Y0003175457D01*
X0002371077Y0003168503D01*
X0002370392Y0003161549D01*
X0002369040Y0003157092D01*
X0002368363Y0003154863D01*
X0002365446Y0003149405D01*
X0002365070Y0003148700D01*
X0002363915Y0003147293D01*
X0002360637Y0003143299D01*
X0002356642Y0003140021D01*
X0002355235Y0003138866D01*
X0002355235Y0003138866D01*
X0002349073Y0003135572D01*
X0002346844Y0003134896D01*
X0002342386Y0003133544D01*
X0002339781Y0003133287D01*
X0002337175Y0003133031D01*
X0002333690Y0003133031D01*
X0002331084Y0003133287D01*
X0002328479Y0003133544D01*
X0002324021Y0003134896D01*
X0002321792Y0003135572D01*
X0002315630Y0003138866D01*
X0002315630Y0003138866D01*
X0002314223Y0003140021D01*
X0002310228Y0003143299D01*
X0002306950Y0003147293D01*
X0002305796Y0003148700D01*
X0002305419Y0003149405D01*
X0002302502Y0003154863D01*
X0002301826Y0003157092D01*
X0002300473Y0003161549D01*
X0002299789Y0003168503D01*
X0002300473Y0003175457D01*
X0002302502Y0003182144D01*
X0002302502Y0003182144D01*
X0002305796Y0003188306D01*
X0002305796Y0003188306D01*
X0002306950Y0003189713D01*
X0002310228Y0003193707D01*
X0002314223Y0003196985D01*
X0002315630Y0003198140D01*
X0002316335Y0003198517D01*
X0002321792Y0003201434D01*
X0002324021Y0003202110D01*
X0002328479Y0003203462D01*
X0002331084Y0003203719D01*
X0002333690Y0003203976D01*
X0002337175Y0003203976D01*
X0002339781Y0003203719D01*
X0002339781Y0003203719D01*
G37*
G36*
X0002270905Y0003133031D02*
X0002199960Y0003133031D01*
X0002199960Y0003203976D01*
X0002270905Y0003203976D01*
X0002270905Y0003133031D01*
X0002270905Y0003133031D01*
G37*
G36*
X0002206072Y0003802697D02*
X0002218436Y0003800238D01*
X0002241729Y0003790590D01*
X0002253130Y0003782972D01*
X0002262692Y0003776582D01*
X0002280520Y0003758755D01*
X0002280520Y0003758755D01*
X0002294527Y0003737792D01*
X0002299319Y0003726222D01*
X0002304175Y0003714498D01*
X0002309094Y0003689771D01*
X0002309094Y0003664558D01*
X0002306635Y0003652195D01*
X0002304175Y0003639831D01*
X0002294527Y0003616538D01*
X0002284774Y0003601941D01*
X0002280520Y0003595574D01*
X0002262692Y0003577747D01*
X0002262692Y0003577747D01*
X0002241729Y0003563739D01*
X0002218436Y0003554091D01*
X0002206072Y0003551632D01*
X0002193708Y0003549172D01*
X0002168496Y0003549172D01*
X0002156132Y0003551632D01*
X0002143768Y0003554091D01*
X0002120475Y0003563739D01*
X0002099512Y0003577747D01*
X0002099512Y0003577747D01*
X0002081684Y0003595574D01*
X0002077430Y0003601941D01*
X0002067677Y0003616538D01*
X0002058028Y0003639831D01*
X0002055569Y0003652195D01*
X0002053110Y0003664558D01*
X0002053110Y0003689771D01*
X0002058028Y0003714498D01*
X0002062884Y0003726222D01*
X0002067677Y0003737792D01*
X0002081684Y0003758755D01*
X0002081684Y0003758755D01*
X0002099512Y0003776582D01*
X0002109073Y0003782972D01*
X0002120475Y0003790590D01*
X0002143768Y0003800238D01*
X0002156132Y0003802697D01*
X0002168496Y0003805157D01*
X0002193708Y0003805157D01*
X0002206072Y0003802697D01*
X0002206072Y0003802697D01*
G37*
G36*
X0003702135Y0003802697D02*
X0003714499Y0003800238D01*
X0003737792Y0003790590D01*
X0003749193Y0003782972D01*
X0003758755Y0003776582D01*
X0003776583Y0003758755D01*
X0003776583Y0003758755D01*
X0003790590Y0003737792D01*
X0003795382Y0003726222D01*
X0003800238Y0003714498D01*
X0003805157Y0003689771D01*
X0003805157Y0003664558D01*
X0003802698Y0003652195D01*
X0003800238Y0003639831D01*
X0003790590Y0003616538D01*
X0003780837Y0003601941D01*
X0003776583Y0003595574D01*
X0003758755Y0003577747D01*
X0003758755Y0003577747D01*
X0003737792Y0003563739D01*
X0003714499Y0003554091D01*
X0003702135Y0003551632D01*
X0003689771Y0003549172D01*
X0003664559Y0003549172D01*
X0003652195Y0003551632D01*
X0003639831Y0003554091D01*
X0003616538Y0003563739D01*
X0003595575Y0003577747D01*
X0003595575Y0003577747D01*
X0003577747Y0003595574D01*
X0003573493Y0003601941D01*
X0003563740Y0003616538D01*
X0003554091Y0003639831D01*
X0003551632Y0003652195D01*
X0003549173Y0003664558D01*
X0003549173Y0003689771D01*
X0003554091Y0003714498D01*
X0003558947Y0003726222D01*
X0003563740Y0003737792D01*
X0003577747Y0003758755D01*
X0003577747Y0003758755D01*
X0003595575Y0003776582D01*
X0003605136Y0003782972D01*
X0003616538Y0003790590D01*
X0003639831Y0003800238D01*
X0003652195Y0003802697D01*
X0003664559Y0003805157D01*
X0003689771Y0003805157D01*
X0003702135Y0003802697D01*
X0003702135Y0003802697D01*
G37*
M02*