%MOIN*%
%OFA0B0*%
%FSLAX46Y46*%
%IPPOS*%
%LPD*%
%ADD10C,0.0078740157480314977*%
%ADD11R,0.16535433070866143X0.053149606299212608*%
%ADD12R,0.053149606299212608X0.16535433070866143*%
%ADD13C,0.031496062992125991*%
%ADD14C,0.25196850393700793*%
%ADD15C,0.023622047244094488*%
%ADD16C,0.01*%
%ADD27C,0.0078740157480314977*%
%ADD28C,0.023622047244094488*%
%ADD29C,0.023622047244094488*%
%ADD30C,0.25196850393700793*%
%ADD31C,0.031496062992125991*%
%ADD32R,0.16535433070866143X0.053149606299212608*%
%ADD33C,0.017716535433070866*%
%ADD34C,0.031496062992125991*%
%ADD35C,0.00984251968503937*%
%ADD36C,0.01*%
%ADD37C,0.0078740157480314977*%
%ADD38C,0.01968503937007874*%
%ADD39R,0.16535433070866143X0.053149606299212608*%
%ADD40R,0.062992125984251982X0.062992125984251982*%
%ADD41O,0.062992125984251982X0.062992125984251982*%
%ADD42C,0.031496062992125991*%
%ADD43C,0.25196850393700793*%
%ADD44R,0.066929133858267723X0.066929133858267723*%
%ADD45O,0.066929133858267723X0.066929133858267723*%
%ADD46C,0.017716535433070866*%
%ADD47C,0.031496062992125991*%
%ADD48C,0.00984251968503937*%
%ADD49C,0.012204724409448819*%
%ADD50C,0.0078740157480314977*%
%ADD51C,0.01*%
%ADD52C,0.0078740157480314977*%
%ADD53R,0.16535433070866143X0.053149606299212608*%
%ADD54C,0.023622047244094488*%
%ADD55C,0.031496062992125991*%
%ADD56C,0.25196850393700793*%
%ADD57R,0.066929133858267723X0.066929133858267723*%
%ADD58O,0.066929133858267723X0.066929133858267723*%
%ADD59C,0.031496062992125991*%
%ADD60C,0.017716535433070866*%
%ADD61C,0.015748031496062995*%
%ADD62C,0.00984251968503937*%
%ADD63C,0.0078740157480314977*%
%ADD64C,0.01*%
G01*
D10*
X0000574240Y0000111079D02*
X0000574240Y0000071709D01*
X0000560179Y0000133577D02*
X0000546119Y0000091394D01*
X0000582677Y0000091394D01*
D11*
X0000086614Y0000658464D03*
X0000086614Y0000436023D03*
X0000086614Y0001497047D03*
X0000086614Y0001274606D03*
D12*
X0000660433Y0000086614D03*
X0000882874Y0000086614D03*
D11*
X0001803149Y0001274606D03*
X0001803149Y0001497047D03*
X0001803149Y0000436023D03*
X0001803149Y0000658464D03*
D13*
X0000263663Y0000263663D03*
X0000196850Y0000291338D03*
X0000130037Y0000263663D03*
X0000102362Y0000196850D03*
X0000130037Y0000130037D03*
X0000196850Y0000102362D03*
X0000263663Y0000130037D03*
X0000291338Y0000196850D03*
D14*
X0000196850Y0000196850D03*
D13*
X0001759726Y0000263663D03*
X0001692913Y0000291338D03*
X0001626100Y0000263663D03*
X0001598425Y0000196850D03*
X0001626100Y0000130037D03*
X0001692913Y0000102362D03*
X0001759726Y0000130037D03*
X0001787401Y0000196850D03*
D14*
X0001692913Y0000196850D03*
X0001692913Y0001692913D03*
D13*
X0001787401Y0001692913D03*
X0001759726Y0001626100D03*
X0001692913Y0001598425D03*
X0001626100Y0001626100D03*
X0001598425Y0001692913D03*
X0001626100Y0001759726D03*
X0001692913Y0001787401D03*
X0001759726Y0001759726D03*
D14*
X0000196850Y0001692913D03*
D13*
X0000291338Y0001692913D03*
X0000263663Y0001626100D03*
X0000196850Y0001598425D03*
X0000130037Y0001626100D03*
X0000102362Y0001692913D03*
X0000130037Y0001759726D03*
X0000196850Y0001787401D03*
X0000263663Y0001759726D03*
D11*
X0000086614Y0000853346D03*
X0000086614Y0001075787D03*
X0001803149Y0000853346D03*
X0001803149Y0001075787D03*
D15*
X0000015748Y0001511811D03*
X0000015748Y0001259842D03*
X0001874015Y0001259842D03*
X0001874015Y0001511811D03*
X0001842519Y0000673228D03*
X0001814960Y0000673228D03*
X0001787401Y0000673228D03*
X0001759842Y0000673228D03*
X0001732283Y0000673228D03*
X0001787401Y0000421259D03*
X0001814960Y0000421259D03*
X0001759842Y0000421259D03*
X0001842519Y0000421259D03*
X0001732283Y0000421259D03*
X0000646556Y0000047491D03*
X0000646556Y0000102609D03*
X0000646556Y0000157727D03*
X0000646556Y0000075050D03*
X0000646556Y0000130168D03*
X0000899412Y0000047738D03*
X0000899412Y0000075297D03*
X0000899412Y0000102856D03*
X0000899412Y0000130415D03*
X0000899412Y0000157974D03*
X0000070866Y0000673228D03*
X0000098425Y0000673228D03*
X0000043307Y0000673228D03*
X0000125984Y0000673228D03*
X0000015748Y0000673228D03*
X0000043307Y0000421259D03*
X0000098425Y0000421259D03*
X0000015748Y0000421259D03*
X0000125984Y0000421259D03*
X0000070866Y0000421259D03*
X0001177165Y0000448818D03*
X0001177165Y0000507874D03*
X0001177165Y0000566929D03*
X0001177165Y0000389763D03*
X0001177165Y0000330708D03*
X0000893700Y0000389763D03*
X0000751968Y0000326771D03*
X0000771653Y0000346456D03*
X0000791338Y0000366141D03*
X0000811023Y0000385826D03*
X0000866141Y0000389763D03*
X0000921259Y0000389763D03*
X0000948818Y0000389763D03*
X0000976377Y0000389763D03*
X0000838582Y0000389763D03*
X0001874015Y0001090551D03*
X0001791338Y0001090551D03*
X0001818897Y0001090551D03*
X0001846456Y0001090551D03*
X0001763779Y0001090551D03*
X0001763779Y0000838582D03*
X0001874015Y0000838582D03*
X0001846456Y0000838582D03*
X0001818897Y0000838582D03*
X0001791338Y0000838582D03*
X0000015748Y0000838582D03*
X0000125984Y0000838582D03*
X0000098425Y0000838582D03*
X0000070866Y0000838582D03*
X0000043307Y0000838582D03*
X0000015748Y0001090551D03*
X0000070866Y0001090551D03*
X0000043307Y0001090551D03*
X0000098425Y0001090551D03*
X0000125984Y0001090551D03*
X0000153543Y0001090551D03*
X0000153543Y0000673228D03*
X0000153543Y0000421259D03*
X0000899412Y0000019685D03*
X0000646556Y0000019685D03*
X0000153543Y0000838582D03*
X0001736220Y0001090551D03*
X0001736220Y0000838582D03*
X0001736220Y0001511811D03*
X0000153543Y0001259842D03*
X0001736220Y0001259842D03*
X0000153543Y0001511811D03*
X0000125984Y0001259842D03*
X0001846456Y0001511811D03*
X0001791338Y0001511811D03*
X0000125984Y0001511811D03*
X0000043307Y0001259842D03*
X0001763779Y0001259842D03*
X0001846456Y0001259842D03*
X0000098425Y0001511811D03*
X0001818897Y0001511811D03*
X0001818897Y0001259842D03*
X0000043307Y0001511811D03*
X0001791338Y0001259842D03*
X0000098425Y0001259842D03*
X0000070866Y0001511811D03*
X0000070866Y0001259842D03*
X0001763779Y0001511811D03*
X0000181102Y0001425196D03*
X0000236220Y0001425196D03*
X0000208661Y0001425196D03*
X0000263779Y0001425196D03*
X0000291338Y0001425196D03*
X0000318897Y0001425196D03*
X0000484251Y0001425196D03*
X0000456692Y0001425196D03*
X0000374015Y0001425196D03*
X0000346456Y0001425196D03*
X0000429133Y0001425196D03*
X0000401574Y0001425196D03*
X0000566929Y0001425196D03*
X0000539370Y0001425196D03*
X0000511811Y0001425196D03*
X0000649606Y0001425196D03*
X0000622047Y0001425196D03*
X0000594488Y0001425196D03*
X0000787401Y0001425196D03*
X0000980314Y0001425196D03*
X0000870078Y0001425196D03*
X0001062992Y0001425196D03*
X0000759842Y0001425196D03*
X0000677165Y0001425196D03*
X0000842519Y0001425196D03*
X0001090551Y0001425196D03*
X0001118110Y0001425196D03*
X0001035433Y0001425196D03*
X0000814960Y0001425196D03*
X0000952755Y0001425196D03*
X0000732283Y0001425196D03*
X0000704724Y0001425196D03*
X0000925196Y0001425196D03*
X0000897637Y0001425196D03*
X0001007873Y0001425196D03*
X0001366141Y0001425196D03*
X0001559055Y0001425196D03*
X0001173228Y0001425196D03*
X0001255905Y0001425196D03*
X0001448818Y0001425196D03*
X0001200787Y0001425196D03*
X0001421259Y0001425196D03*
X0001311023Y0001425196D03*
X0001145669Y0001425196D03*
X0001393700Y0001425196D03*
X0001476377Y0001425196D03*
X0001283464Y0001425196D03*
X0001586614Y0001425196D03*
X0001531496Y0001425196D03*
X0001503936Y0001425196D03*
X0001228346Y0001425196D03*
X0001338582Y0001425196D03*
X0001669291Y0001425196D03*
X0001641732Y0001425196D03*
X0001614173Y0001425196D03*
X0001696850Y0001425196D03*
X0001283464Y0001346456D03*
X0001531496Y0001346456D03*
X0001503936Y0001346456D03*
X0001228346Y0001346456D03*
X0001338582Y0001346456D03*
X0001586614Y0001346456D03*
X0001421259Y0001346456D03*
X0001200787Y0001346456D03*
X0001311023Y0001346456D03*
X0001393700Y0001346456D03*
X0001476377Y0001346456D03*
X0001559055Y0001346456D03*
X0001448818Y0001346456D03*
X0001145669Y0001346456D03*
X0001255905Y0001346456D03*
X0001366141Y0001346456D03*
X0001173228Y0001346456D03*
X0000897637Y0001346456D03*
X0000318897Y0001346456D03*
X0000511811Y0001346456D03*
X0001090551Y0001346456D03*
X0000401574Y0001346456D03*
X0000704724Y0001346456D03*
X0000594488Y0001346456D03*
X0000291338Y0001346456D03*
X0000208661Y0001346456D03*
X0000374015Y0001346456D03*
X0000622047Y0001346456D03*
X0000787401Y0001346456D03*
X0000980314Y0001346456D03*
X0000732283Y0001346456D03*
X0000952755Y0001346456D03*
X0000842519Y0001346456D03*
X0001641732Y0001346456D03*
X0001614173Y0001346456D03*
X0000677165Y0001346456D03*
X0000925196Y0001346456D03*
X0001007873Y0001346456D03*
X0001696850Y0001346456D03*
X0000649606Y0001346456D03*
X0000814960Y0001346456D03*
X0001118110Y0001346456D03*
X0001062992Y0001346456D03*
X0000566929Y0001346456D03*
X0001669291Y0001346456D03*
X0000346456Y0001346456D03*
X0001035433Y0001346456D03*
X0000484251Y0001346456D03*
X0000759842Y0001346456D03*
X0000870078Y0001346456D03*
X0000263779Y0001346456D03*
X0000236220Y0001346456D03*
X0000456692Y0001346456D03*
X0000429133Y0001346456D03*
X0000539370Y0001346456D03*
X0001527559Y0001007873D03*
X0001582677Y0001007873D03*
X0001307086Y0001007873D03*
X0001224409Y0001007873D03*
X0001334645Y0001007873D03*
X0001279527Y0001007873D03*
X0001196850Y0001007873D03*
X0001389763Y0001007873D03*
X0001555118Y0001007873D03*
X0001444881Y0001007873D03*
X0001472440Y0001007873D03*
X0001141732Y0001007873D03*
X0001251968Y0001007873D03*
X0001362204Y0001007873D03*
X0000893700Y0001007873D03*
X0001417322Y0001007873D03*
X0001499999Y0001007873D03*
X0000314960Y0001007873D03*
X0000507874Y0001007873D03*
X0001086614Y0001007873D03*
X0000397637Y0001007873D03*
X0001169291Y0001007873D03*
X0000783464Y0001007873D03*
X0000700787Y0001007873D03*
X0000590551Y0001007873D03*
X0000204724Y0001007873D03*
X0000287401Y0001007873D03*
X0000618110Y0001007873D03*
X0000976377Y0001007873D03*
X0000728346Y0001007873D03*
X0000838582Y0001007873D03*
X0000370078Y0001007873D03*
X0001637795Y0001007873D03*
X0001610236Y0001007873D03*
X0000673228Y0001007873D03*
X0000921259Y0001007873D03*
X0000948818Y0001007873D03*
X0001003937Y0001007873D03*
X0001692913Y0001007873D03*
X0000562992Y0001007873D03*
X0000342519Y0001007873D03*
X0001031496Y0001007873D03*
X0000755905Y0001007873D03*
X0000866141Y0001007873D03*
X0000259842Y0001007873D03*
X0000645669Y0001007873D03*
X0000480314Y0001007873D03*
X0000811023Y0001007873D03*
X0001114173Y0001007873D03*
X0001059055Y0001007873D03*
X0001665354Y0001007873D03*
X0000535433Y0001007873D03*
X0000425196Y0001007873D03*
X0000232283Y0001007873D03*
X0000452755Y0001007873D03*
X0001003937Y0000925196D03*
X0000618110Y0000925196D03*
X0000370078Y0000925196D03*
X0001086614Y0000925196D03*
X0000811023Y0000925196D03*
X0000838582Y0000925196D03*
X0000700787Y0000925196D03*
X0000535433Y0000925196D03*
X0000452755Y0000925196D03*
X0000590551Y0000925196D03*
X0001665354Y0000925196D03*
X0000673228Y0000925196D03*
X0000507874Y0000925196D03*
X0001637795Y0000925196D03*
X0000783464Y0000925196D03*
X0000232283Y0000925196D03*
X0001692913Y0000925196D03*
X0000397637Y0000925196D03*
X0001114173Y0000925196D03*
X0000921259Y0000925196D03*
X0000342519Y0000925196D03*
X0001610236Y0000925196D03*
X0000204724Y0000925196D03*
X0000728346Y0000925196D03*
X0000755905Y0000925196D03*
X0001059055Y0000925196D03*
X0001169291Y0000925196D03*
X0000645669Y0000925196D03*
X0000480314Y0000925196D03*
X0000866141Y0000925196D03*
X0000425196Y0000925196D03*
X0000562992Y0000925196D03*
X0000259842Y0000925196D03*
X0000948818Y0000925196D03*
X0000287401Y0000925196D03*
X0000976377Y0000925196D03*
X0001031496Y0000925196D03*
X0000314960Y0000925196D03*
X0000893700Y0000925196D03*
X0001417322Y0000925196D03*
X0001499999Y0000925196D03*
X0001472440Y0000925196D03*
X0001141732Y0000925196D03*
X0001251968Y0000925196D03*
X0001362204Y0000925196D03*
X0001279527Y0000925196D03*
X0001224409Y0000925196D03*
X0001389763Y0000925196D03*
X0001555118Y0000925196D03*
X0001334645Y0000925196D03*
X0001582677Y0000925196D03*
X0001444881Y0000925196D03*
X0001307086Y0000925196D03*
X0001527559Y0000925196D03*
X0001196850Y0000925196D03*
X0000350393Y0000586614D03*
X0000708661Y0000586614D03*
X0000405511Y0000586614D03*
X0000543307Y0000586614D03*
X0000295275Y0000586614D03*
X0000763779Y0000586614D03*
X0000212598Y0000586614D03*
X0000929133Y0000586614D03*
X0001618110Y0000586614D03*
X0000240157Y0000586614D03*
X0001397637Y0000586614D03*
X0000984251Y0000586614D03*
X0000322834Y0000586614D03*
X0000736220Y0000586614D03*
X0001370078Y0000586614D03*
X0000653543Y0000586614D03*
X0000488188Y0000586614D03*
X0001425196Y0000586614D03*
X0000791338Y0000586614D03*
X0000433070Y0000586614D03*
X0001535433Y0000586614D03*
X0000267716Y0000586614D03*
X0000460629Y0000586614D03*
X0001673228Y0000586614D03*
X0000681102Y0000586614D03*
X0000625984Y0000586614D03*
X0000598425Y0000586614D03*
X0000515747Y0000586614D03*
X0000846456Y0000586614D03*
X0001452755Y0000586614D03*
X0000874015Y0000586614D03*
X0000901574Y0000586614D03*
X0001590551Y0000586614D03*
X0000570866Y0000586614D03*
X0001562992Y0000586614D03*
X0001507874Y0000586614D03*
X0000818897Y0000586614D03*
X0000185039Y0000586614D03*
X0000377952Y0000586614D03*
X0000956692Y0000586614D03*
X0001480314Y0000586614D03*
X0001645669Y0000586614D03*
X0000181102Y0001346456D03*
X0000177165Y0000925196D03*
X0000177165Y0001007873D03*
X0001700787Y0000586614D03*
X0001425196Y0000503936D03*
X0001535433Y0000503936D03*
X0001480314Y0000503936D03*
X0001562992Y0000503936D03*
X0001673228Y0000503936D03*
X0001645669Y0000503936D03*
X0001452755Y0000503936D03*
X0001507874Y0000503936D03*
X0001590551Y0000503936D03*
X0001397637Y0000503936D03*
X0001370078Y0000503936D03*
X0001618110Y0000503936D03*
X0001700787Y0000503936D03*
X0000795275Y0000503936D03*
X0000933070Y0000503936D03*
X0000822834Y0000503936D03*
X0000905511Y0000503936D03*
X0000712598Y0000503936D03*
X0000740157Y0000503936D03*
X0000960629Y0000503936D03*
X0000850393Y0000503936D03*
X0000877952Y0000503936D03*
X0000657480Y0000503936D03*
X0000767716Y0000503936D03*
X0000988188Y0000503936D03*
X0000685039Y0000503936D03*
X0000326771Y0000503936D03*
X0000299212Y0000503936D03*
X0000409448Y0000503936D03*
X0000492125Y0000503936D03*
X0000519685Y0000503936D03*
X0000547244Y0000503936D03*
X0000464566Y0000503936D03*
X0000437007Y0000503936D03*
X0000381889Y0000503936D03*
X0000602362Y0000503936D03*
X0000574803Y0000503936D03*
X0000354330Y0000503936D03*
X0000629921Y0000503936D03*
X0000271653Y0000503936D03*
X0000188976Y0000503936D03*
X0000244094Y0000503936D03*
X0000216535Y0000503936D03*
X0000732283Y0000307086D03*
X0000732283Y0000279527D03*
X0000732283Y0000224409D03*
X0000732283Y0000196850D03*
X0000732283Y0000251968D03*
X0000830708Y0000287401D03*
X0000850393Y0000307086D03*
X0000811023Y0000240157D03*
X0000811023Y0000212598D03*
X0000811023Y0000185039D03*
X0000811023Y0000267716D03*
X0000933070Y0000307086D03*
X0000905511Y0000307086D03*
X0000960629Y0000307086D03*
X0000877952Y0000307086D03*
X0000988188Y0000307086D03*
X0001870078Y0000673228D03*
X0001870078Y0000421259D03*
D16*
G36*
X0001722683Y0001858371D02*
X0001751513Y0001850484D01*
X0001778490Y0001837616D01*
X0001802762Y0001820175D01*
X0001823563Y0001798711D01*
X0001840233Y0001773903D01*
X0001852247Y0001746535D01*
X0001859277Y0001717251D01*
X0001861141Y0001691863D01*
X0001861141Y0000198125D01*
X0001858370Y0000167079D01*
X0001850484Y0000138250D01*
X0001837616Y0000111273D01*
X0001820175Y0000087000D01*
X0001798711Y0000066200D01*
X0001773903Y0000049530D01*
X0001746535Y0000037516D01*
X0001717251Y0000030486D01*
X0001691863Y0000028622D01*
X0000198125Y0000028622D01*
X0000167079Y0000031392D01*
X0000138250Y0000039279D01*
X0000111273Y0000052147D01*
X0000087000Y0000069588D01*
X0000068247Y0000088940D01*
X0000096011Y0000088940D01*
X0000110458Y0000069435D01*
X0000165794Y0000046073D01*
X0000225857Y0000045665D01*
X0000281505Y0000068274D01*
X0000283242Y0000069435D01*
X0000297689Y0000088940D01*
X0000196850Y0000189779D01*
X0000096011Y0000088940D01*
X0000068247Y0000088940D01*
X0000066200Y0000091052D01*
X0000049530Y0000115860D01*
X0000037516Y0000143228D01*
X0000031607Y0000167842D01*
X0000045665Y0000167842D01*
X0000068274Y0000112195D01*
X0000069435Y0000110458D01*
X0000088940Y0000096011D01*
X0000189779Y0000196850D01*
X0000203921Y0000196850D01*
X0000304760Y0000096011D01*
X0000324265Y0000110458D01*
X0000340793Y0000149606D01*
X0000349330Y0000149606D01*
X0000349330Y0000057086D01*
X0000349711Y0000055173D01*
X0000350795Y0000053551D01*
X0000352417Y0000052467D01*
X0000354330Y0000052086D01*
X0000594488Y0000052086D01*
X0000596401Y0000052467D01*
X0000598023Y0000053551D01*
X0000599107Y0000055173D01*
X0000599488Y0000057086D01*
X0000599488Y0000088940D01*
X0001592074Y0000088940D01*
X0001606521Y0000069435D01*
X0001661857Y0000046073D01*
X0001721920Y0000045665D01*
X0001777568Y0000068274D01*
X0001779305Y0000069435D01*
X0001793752Y0000088940D01*
X0001692913Y0000189779D01*
X0001592074Y0000088940D01*
X0000599488Y0000088940D01*
X0000599488Y0000149606D01*
X0000599107Y0000151519D01*
X0000598023Y0000153141D01*
X0000596401Y0000154225D01*
X0000594488Y0000154606D01*
X0000354330Y0000154606D01*
X0000352417Y0000154225D01*
X0000350795Y0000153141D01*
X0000349711Y0000151519D01*
X0000349330Y0000149606D01*
X0000340793Y0000149606D01*
X0000347627Y0000165794D01*
X0000347641Y0000167842D01*
X0001541728Y0000167842D01*
X0001564337Y0000112195D01*
X0001565498Y0000110458D01*
X0001585003Y0000096011D01*
X0001685842Y0000196850D01*
X0001699984Y0000196850D01*
X0001800823Y0000096011D01*
X0001820328Y0000110458D01*
X0001843690Y0000165794D01*
X0001844097Y0000225857D01*
X0001821488Y0000281505D01*
X0001820328Y0000283242D01*
X0001800823Y0000297689D01*
X0001699984Y0000196850D01*
X0001685842Y0000196850D01*
X0001585003Y0000297689D01*
X0001565498Y0000283242D01*
X0001542136Y0000227906D01*
X0001541728Y0000167842D01*
X0000347641Y0000167842D01*
X0000348034Y0000225857D01*
X0000325425Y0000281505D01*
X0000324265Y0000283242D01*
X0000304760Y0000297689D01*
X0000203921Y0000196850D01*
X0000189779Y0000196850D01*
X0000088940Y0000297689D01*
X0000069435Y0000283242D01*
X0000046073Y0000227906D01*
X0000045665Y0000167842D01*
X0000031607Y0000167842D01*
X0000030486Y0000172511D01*
X0000028622Y0000197900D01*
X0000028622Y0000304760D01*
X0000096011Y0000304760D01*
X0000196850Y0000203921D01*
X0000297689Y0000304760D01*
X0001592074Y0000304760D01*
X0001692913Y0000203921D01*
X0001793752Y0000304760D01*
X0001779305Y0000324265D01*
X0001723969Y0000347627D01*
X0001663905Y0000348034D01*
X0001608257Y0000325425D01*
X0001606521Y0000324265D01*
X0001592074Y0000304760D01*
X0000297689Y0000304760D01*
X0000283242Y0000324265D01*
X0000227906Y0000347627D01*
X0000167842Y0000348034D01*
X0000112195Y0000325425D01*
X0000110458Y0000324265D01*
X0000096011Y0000304760D01*
X0000028622Y0000304760D01*
X0000028622Y0001585003D01*
X0000096011Y0001585003D01*
X0000110458Y0001565498D01*
X0000165794Y0001542136D01*
X0000225857Y0001541728D01*
X0000281505Y0001564337D01*
X0000283242Y0001565498D01*
X0000297689Y0001585003D01*
X0001592074Y0001585003D01*
X0001606521Y0001565498D01*
X0001661857Y0001542136D01*
X0001721920Y0001541728D01*
X0001777568Y0001564337D01*
X0001779305Y0001565498D01*
X0001793752Y0001585003D01*
X0001692913Y0001685842D01*
X0001592074Y0001585003D01*
X0000297689Y0001585003D01*
X0000196850Y0001685842D01*
X0000096011Y0001585003D01*
X0000028622Y0001585003D01*
X0000028622Y0001663905D01*
X0000045665Y0001663905D01*
X0000068274Y0001608258D01*
X0000069435Y0001606521D01*
X0000088940Y0001592074D01*
X0000189779Y0001692913D01*
X0000203921Y0001692913D01*
X0000304760Y0001592074D01*
X0000324265Y0001606521D01*
X0000347627Y0001661857D01*
X0000347641Y0001663905D01*
X0001541728Y0001663905D01*
X0001564337Y0001608258D01*
X0001565498Y0001606521D01*
X0001585003Y0001592074D01*
X0001685842Y0001692913D01*
X0001699984Y0001692913D01*
X0001800823Y0001592074D01*
X0001820328Y0001606521D01*
X0001843690Y0001661857D01*
X0001844097Y0001721920D01*
X0001821488Y0001777568D01*
X0001820328Y0001779305D01*
X0001800823Y0001793752D01*
X0001699984Y0001692913D01*
X0001685842Y0001692913D01*
X0001585003Y0001793752D01*
X0001565498Y0001779305D01*
X0001542136Y0001723969D01*
X0001541728Y0001663905D01*
X0000347641Y0001663905D01*
X0000348034Y0001721920D01*
X0000325425Y0001777568D01*
X0000324265Y0001779305D01*
X0000304760Y0001793752D01*
X0000203921Y0001692913D01*
X0000189779Y0001692913D01*
X0000088940Y0001793752D01*
X0000069435Y0001779305D01*
X0000046073Y0001723969D01*
X0000045665Y0001663905D01*
X0000028622Y0001663905D01*
X0000028622Y0001691638D01*
X0000031392Y0001722683D01*
X0000039279Y0001751513D01*
X0000052146Y0001778490D01*
X0000068194Y0001800823D01*
X0000096011Y0001800823D01*
X0000196850Y0001699984D01*
X0000297689Y0001800823D01*
X0001592074Y0001800823D01*
X0001692913Y0001699984D01*
X0001793752Y0001800823D01*
X0001779305Y0001820328D01*
X0001723969Y0001843690D01*
X0001663905Y0001844097D01*
X0001608257Y0001821488D01*
X0001606521Y0001820328D01*
X0001592074Y0001800823D01*
X0000297689Y0001800823D01*
X0000283242Y0001820328D01*
X0000227906Y0001843690D01*
X0000167842Y0001844097D01*
X0000112195Y0001821488D01*
X0000110458Y0001820328D01*
X0000096011Y0001800823D01*
X0000068194Y0001800823D01*
X0000069588Y0001802762D01*
X0000091052Y0001823563D01*
X0000115860Y0001840233D01*
X0000143228Y0001852247D01*
X0000172511Y0001859277D01*
X0000197900Y0001861141D01*
X0001691638Y0001861141D01*
X0001722683Y0001858371D01*
X0001722683Y0001858371D01*
G37*
X0001722683Y0001858371D02*
X0001751513Y0001850484D01*
X0001778490Y0001837616D01*
X0001802762Y0001820175D01*
X0001823563Y0001798711D01*
X0001840233Y0001773903D01*
X0001852247Y0001746535D01*
X0001859277Y0001717251D01*
X0001861141Y0001691863D01*
X0001861141Y0000198125D01*
X0001858370Y0000167079D01*
X0001850484Y0000138250D01*
X0001837616Y0000111273D01*
X0001820175Y0000087000D01*
X0001798711Y0000066200D01*
X0001773903Y0000049530D01*
X0001746535Y0000037516D01*
X0001717251Y0000030486D01*
X0001691863Y0000028622D01*
X0000198125Y0000028622D01*
X0000167079Y0000031392D01*
X0000138250Y0000039279D01*
X0000111273Y0000052147D01*
X0000087000Y0000069588D01*
X0000068247Y0000088940D01*
X0000096011Y0000088940D01*
X0000110458Y0000069435D01*
X0000165794Y0000046073D01*
X0000225857Y0000045665D01*
X0000281505Y0000068274D01*
X0000283242Y0000069435D01*
X0000297689Y0000088940D01*
X0000196850Y0000189779D01*
X0000096011Y0000088940D01*
X0000068247Y0000088940D01*
X0000066200Y0000091052D01*
X0000049530Y0000115860D01*
X0000037516Y0000143228D01*
X0000031607Y0000167842D01*
X0000045665Y0000167842D01*
X0000068274Y0000112195D01*
X0000069435Y0000110458D01*
X0000088940Y0000096011D01*
X0000189779Y0000196850D01*
X0000203921Y0000196850D01*
X0000304760Y0000096011D01*
X0000324265Y0000110458D01*
X0000340793Y0000149606D01*
X0000349330Y0000149606D01*
X0000349330Y0000057086D01*
X0000349711Y0000055173D01*
X0000350795Y0000053551D01*
X0000352417Y0000052467D01*
X0000354330Y0000052086D01*
X0000594488Y0000052086D01*
X0000596401Y0000052467D01*
X0000598023Y0000053551D01*
X0000599107Y0000055173D01*
X0000599488Y0000057086D01*
X0000599488Y0000088940D01*
X0001592074Y0000088940D01*
X0001606521Y0000069435D01*
X0001661857Y0000046073D01*
X0001721920Y0000045665D01*
X0001777568Y0000068274D01*
X0001779305Y0000069435D01*
X0001793752Y0000088940D01*
X0001692913Y0000189779D01*
X0001592074Y0000088940D01*
X0000599488Y0000088940D01*
X0000599488Y0000149606D01*
X0000599107Y0000151519D01*
X0000598023Y0000153141D01*
X0000596401Y0000154225D01*
X0000594488Y0000154606D01*
X0000354330Y0000154606D01*
X0000352417Y0000154225D01*
X0000350795Y0000153141D01*
X0000349711Y0000151519D01*
X0000349330Y0000149606D01*
X0000340793Y0000149606D01*
X0000347627Y0000165794D01*
X0000347641Y0000167842D01*
X0001541728Y0000167842D01*
X0001564337Y0000112195D01*
X0001565498Y0000110458D01*
X0001585003Y0000096011D01*
X0001685842Y0000196850D01*
X0001699984Y0000196850D01*
X0001800823Y0000096011D01*
X0001820328Y0000110458D01*
X0001843690Y0000165794D01*
X0001844097Y0000225857D01*
X0001821488Y0000281505D01*
X0001820328Y0000283242D01*
X0001800823Y0000297689D01*
X0001699984Y0000196850D01*
X0001685842Y0000196850D01*
X0001585003Y0000297689D01*
X0001565498Y0000283242D01*
X0001542136Y0000227906D01*
X0001541728Y0000167842D01*
X0000347641Y0000167842D01*
X0000348034Y0000225857D01*
X0000325425Y0000281505D01*
X0000324265Y0000283242D01*
X0000304760Y0000297689D01*
X0000203921Y0000196850D01*
X0000189779Y0000196850D01*
X0000088940Y0000297689D01*
X0000069435Y0000283242D01*
X0000046073Y0000227906D01*
X0000045665Y0000167842D01*
X0000031607Y0000167842D01*
X0000030486Y0000172511D01*
X0000028622Y0000197900D01*
X0000028622Y0000304760D01*
X0000096011Y0000304760D01*
X0000196850Y0000203921D01*
X0000297689Y0000304760D01*
X0001592074Y0000304760D01*
X0001692913Y0000203921D01*
X0001793752Y0000304760D01*
X0001779305Y0000324265D01*
X0001723969Y0000347627D01*
X0001663905Y0000348034D01*
X0001608257Y0000325425D01*
X0001606521Y0000324265D01*
X0001592074Y0000304760D01*
X0000297689Y0000304760D01*
X0000283242Y0000324265D01*
X0000227906Y0000347627D01*
X0000167842Y0000348034D01*
X0000112195Y0000325425D01*
X0000110458Y0000324265D01*
X0000096011Y0000304760D01*
X0000028622Y0000304760D01*
X0000028622Y0001585003D01*
X0000096011Y0001585003D01*
X0000110458Y0001565498D01*
X0000165794Y0001542136D01*
X0000225857Y0001541728D01*
X0000281505Y0001564337D01*
X0000283242Y0001565498D01*
X0000297689Y0001585003D01*
X0001592074Y0001585003D01*
X0001606521Y0001565498D01*
X0001661857Y0001542136D01*
X0001721920Y0001541728D01*
X0001777568Y0001564337D01*
X0001779305Y0001565498D01*
X0001793752Y0001585003D01*
X0001692913Y0001685842D01*
X0001592074Y0001585003D01*
X0000297689Y0001585003D01*
X0000196850Y0001685842D01*
X0000096011Y0001585003D01*
X0000028622Y0001585003D01*
X0000028622Y0001663905D01*
X0000045665Y0001663905D01*
X0000068274Y0001608258D01*
X0000069435Y0001606521D01*
X0000088940Y0001592074D01*
X0000189779Y0001692913D01*
X0000203921Y0001692913D01*
X0000304760Y0001592074D01*
X0000324265Y0001606521D01*
X0000347627Y0001661857D01*
X0000347641Y0001663905D01*
X0001541728Y0001663905D01*
X0001564337Y0001608258D01*
X0001565498Y0001606521D01*
X0001585003Y0001592074D01*
X0001685842Y0001692913D01*
X0001699984Y0001692913D01*
X0001800823Y0001592074D01*
X0001820328Y0001606521D01*
X0001843690Y0001661857D01*
X0001844097Y0001721920D01*
X0001821488Y0001777568D01*
X0001820328Y0001779305D01*
X0001800823Y0001793752D01*
X0001699984Y0001692913D01*
X0001685842Y0001692913D01*
X0001585003Y0001793752D01*
X0001565498Y0001779305D01*
X0001542136Y0001723969D01*
X0001541728Y0001663905D01*
X0000347641Y0001663905D01*
X0000348034Y0001721920D01*
X0000325425Y0001777568D01*
X0000324265Y0001779305D01*
X0000304760Y0001793752D01*
X0000203921Y0001692913D01*
X0000189779Y0001692913D01*
X0000088940Y0001793752D01*
X0000069435Y0001779305D01*
X0000046073Y0001723969D01*
X0000045665Y0001663905D01*
X0000028622Y0001663905D01*
X0000028622Y0001691638D01*
X0000031392Y0001722683D01*
X0000039279Y0001751513D01*
X0000052146Y0001778490D01*
X0000068194Y0001800823D01*
X0000096011Y0001800823D01*
X0000196850Y0001699984D01*
X0000297689Y0001800823D01*
X0001592074Y0001800823D01*
X0001692913Y0001699984D01*
X0001793752Y0001800823D01*
X0001779305Y0001820328D01*
X0001723969Y0001843690D01*
X0001663905Y0001844097D01*
X0001608257Y0001821488D01*
X0001606521Y0001820328D01*
X0001592074Y0001800823D01*
X0000297689Y0001800823D01*
X0000283242Y0001820328D01*
X0000227906Y0001843690D01*
X0000167842Y0001844097D01*
X0000112195Y0001821488D01*
X0000110458Y0001820328D01*
X0000096011Y0001800823D01*
X0000068194Y0001800823D01*
X0000069588Y0001802762D01*
X0000091052Y0001823563D01*
X0000115860Y0001840233D01*
X0000143228Y0001852247D01*
X0000172511Y0001859277D01*
X0000197900Y0001861141D01*
X0001691638Y0001861141D01*
X0001722683Y0001858371D01*
G04 next file*
G04 #@! TF.GenerationSoftware,KiCad,Pcbnew,(5.0.2)-1*
G04 #@! TF.CreationDate,2019-01-19T11:17:49+11:00*
G04 #@! TF.ProjectId,Filter_Bank_Dev_Rev_0,46696c74-6572-45f4-9261-6e6b5f446576,0*
G04 #@! TF.SameCoordinates,Original*
G04 #@! TF.FileFunction,Copper,L4,Bot*
G04 #@! TF.FilePolarity,Positive*
G04 Gerber Fmt 4.6, Leading zero omitted, Abs format (unit mm)*
G04 Created by KiCad (PCBNEW (5.0.2)-1) date 19/01/2019 11:17:49*
G01*
G04 APERTURE LIST*
G04 #@! TA.AperFunction,ViaPad*
G04 #@! TD*
G04 #@! TA.AperFunction,ComponentPad*
G04 #@! TD*
G04 #@! TA.AperFunction,ComponentPad*
G04 #@! TD*
G04 #@! TA.AperFunction,ComponentPad*
G04 #@! TD*
G04 #@! TA.AperFunction,SMDPad,CuDef*
G04 #@! TD*
G04 #@! TA.AperFunction,ViaPad*
G04 #@! TD*
G04 #@! TA.AperFunction,ViaPad*
G04 #@! TD*
G04 #@! TA.AperFunction,Conductor*
G04 #@! TD*
G04 #@! TA.AperFunction,Conductor*
G04 #@! TD*
G04 APERTURE END LIST*
G04 #@! TO.C,REF\002A\002A*
D27*
X0003479752Y0000132733D02*
X0003479752Y0000093363D01*
X0003465691Y0000155230D02*
X0003451631Y0000113048D01*
X0003488189Y0000113048D01*
G04 #@! TD*
D28*
G04 #@! TO.N,GND*
G04 #@! TO.C,U1*
X0002639763Y0001013779D03*
X0002600393Y0001013779D03*
X0002600393Y0000974409D03*
X0002639763Y0000974409D03*
X0002620078Y0000994094D03*
G04 #@! TD*
G04 #@! TO.N,GND*
G04 #@! TO.C,U4*
X0003234252Y0000954724D03*
X0003273622Y0000954724D03*
X0003273622Y0000994094D03*
X0003234252Y0000994094D03*
X0003253937Y0000974409D03*
G04 #@! TD*
D29*
G04 #@! TO.P,FL1,4*
G04 #@! TO.N,GND*
X0002937007Y0000654625D03*
G04 #@! TO.P,FL1,2*
X0002937007Y0000749114D03*
G04 #@! TD*
G04 #@! TO.P,FL2,4*
G04 #@! TO.N,GND*
X0002937007Y0000809055D03*
G04 #@! TO.P,FL2,2*
X0002937007Y0000903543D03*
G04 #@! TD*
G04 #@! TO.P,FL3,4*
G04 #@! TO.N,GND*
X0002938976Y0001045275D03*
G04 #@! TO.P,FL3,2*
X0002938976Y0001139763D03*
G04 #@! TD*
G04 #@! TO.P,FL4,4*
G04 #@! TO.N,GND*
X0002937007Y0001202755D03*
G04 #@! TO.P,FL4,2*
X0002937007Y0001297244D03*
G04 #@! TD*
D30*
G04 #@! TO.P,H1,1*
G04 #@! TO.N,GND*
X0002181102Y0000196850D03*
D31*
X0002275590Y0000196850D03*
X0002247915Y0000130037D03*
X0002181102Y0000102362D03*
X0002114289Y0000130037D03*
X0002086614Y0000196850D03*
X0002114289Y0000263663D03*
X0002181102Y0000291338D03*
X0002247915Y0000263663D03*
G04 #@! TD*
G04 #@! TO.P,H2,1*
G04 #@! TO.N,GND*
X0003743978Y0001759726D03*
X0003677165Y0001787401D03*
X0003610352Y0001759726D03*
X0003582677Y0001692913D03*
X0003610352Y0001626100D03*
X0003677165Y0001598425D03*
X0003743978Y0001626100D03*
X0003771653Y0001692913D03*
D30*
X0003677165Y0001692913D03*
G04 #@! TD*
G04 #@! TO.P,H3,1*
G04 #@! TO.N,GND*
X0002181102Y0001692913D03*
D31*
X0002275590Y0001692913D03*
X0002247915Y0001626100D03*
X0002181102Y0001598425D03*
X0002114289Y0001626100D03*
X0002086614Y0001692913D03*
X0002114289Y0001759726D03*
X0002181102Y0001787401D03*
X0002247915Y0001759726D03*
G04 #@! TD*
G04 #@! TO.P,H4,1*
G04 #@! TO.N,GND*
X0003743978Y0000263663D03*
X0003677165Y0000291338D03*
X0003610352Y0000263663D03*
X0003582677Y0000196850D03*
X0003610352Y0000130037D03*
X0003677165Y0000102362D03*
X0003743978Y0000130037D03*
X0003771653Y0000196850D03*
D30*
X0003677165Y0000196850D03*
G04 #@! TD*
D32*
G04 #@! TO.P,J2,2*
G04 #@! TO.N,GND*
X0002070866Y0001095472D03*
X0002070866Y0000873031D03*
G04 #@! TD*
G04 #@! TO.P,J3,2*
G04 #@! TO.N,GND*
X0003787401Y0001095472D03*
X0003787401Y0000873031D03*
G04 #@! TD*
D33*
G04 #@! TO.N,GND*
X0003051181Y0001744094D03*
X0002807086Y0001744094D03*
X0002775590Y0001834645D03*
X0002885826Y0001834645D03*
X0002976377Y0001834645D03*
X0003086614Y0001830708D03*
X0002133858Y0001114173D03*
X0002114173Y0001114173D03*
X0002094488Y0001114173D03*
X0002074803Y0001114173D03*
X0002055118Y0001114173D03*
X0002035433Y0001114173D03*
X0002015748Y0001114173D03*
X0001996063Y0001114173D03*
D34*
X0003314960Y0001137795D03*
D33*
X0002413385Y0000661417D03*
X0003724409Y0001114173D03*
X0003744094Y0001114173D03*
X0003862204Y0001114173D03*
X0003783464Y0001114173D03*
X0003803149Y0001114173D03*
X0003842519Y0001114173D03*
X0003822834Y0001114173D03*
X0003763779Y0001114173D03*
X0002074803Y0000858267D03*
X0002133858Y0000858267D03*
X0002015748Y0000858267D03*
X0002035433Y0000858267D03*
X0002114173Y0000858267D03*
X0002094488Y0000858267D03*
X0001996063Y0000858267D03*
X0002055118Y0000858267D03*
X0003803149Y0000854330D03*
X0003862204Y0000854330D03*
X0003744094Y0000854330D03*
X0003763779Y0000854330D03*
X0003842519Y0000854330D03*
X0003822834Y0000854330D03*
X0003724409Y0000854330D03*
X0003783464Y0000854330D03*
D34*
X0003744094Y0001200787D03*
X0003791338Y0001480314D03*
D33*
X0003429133Y0001019685D03*
X0003448818Y0001019685D03*
X0003468503Y0001019685D03*
X0003468503Y0001019685D03*
X0003468503Y0001019685D03*
X0003488189Y0001019685D03*
X0003507874Y0001019685D03*
X0003527559Y0001019685D03*
X0003547244Y0001019685D03*
X0003566929Y0001019685D03*
X0003586614Y0001019685D03*
X0003606299Y0001019685D03*
X0003625984Y0001019685D03*
X0003645669Y0001019685D03*
X0003665354Y0001019685D03*
X0003685039Y0001019685D03*
X0003665354Y0001019685D03*
X0003685039Y0001019685D03*
X0003429133Y0000948818D03*
X0003468503Y0000948818D03*
X0003507874Y0000948818D03*
X0003488189Y0000948818D03*
X0003488189Y0000948818D03*
X0003625984Y0000948818D03*
X0003645669Y0000948818D03*
X0003527559Y0000948818D03*
X0003488189Y0000948818D03*
X0003606299Y0000948818D03*
X0003586614Y0000948818D03*
X0003685039Y0000948818D03*
X0003665354Y0000948818D03*
X0003566929Y0000948818D03*
X0003547244Y0000948818D03*
X0003685039Y0000948818D03*
X0002200787Y0000948818D03*
X0002220472Y0000948818D03*
X0002318897Y0000948818D03*
X0002181102Y0000948818D03*
X0002397637Y0000948818D03*
X0002358267Y0000948818D03*
X0002377952Y0000948818D03*
X0002240157Y0000948818D03*
X0002200787Y0000948818D03*
X0002161417Y0000948818D03*
X0002338582Y0000948818D03*
X0002279527Y0000948818D03*
X0002200787Y0000948818D03*
X0002259842Y0000948818D03*
X0002299212Y0000948818D03*
X0002200787Y0001019685D03*
X0002240157Y0001019685D03*
X0002200787Y0001019685D03*
X0002181102Y0001019685D03*
X0002377952Y0001019685D03*
X0002200787Y0001019685D03*
X0002161417Y0001019685D03*
X0002338582Y0001019685D03*
X0002279527Y0001019685D03*
X0002299212Y0001019685D03*
X0002397637Y0001019685D03*
X0002318897Y0001019685D03*
X0002259842Y0001019685D03*
X0002358267Y0001019685D03*
X0002220472Y0001019685D03*
X0003409448Y0001023622D03*
X0003409448Y0000940944D03*
X0002818897Y0001291338D03*
X0002799212Y0001291338D03*
X0002779527Y0001291338D03*
X0002759842Y0001291338D03*
X0002740157Y0001285433D03*
X0002720472Y0001265748D03*
X0002702755Y0001246062D03*
X0002685039Y0001226377D03*
X0002665354Y0001208661D03*
X0002647637Y0001188976D03*
X0002627952Y0001171259D03*
X0002608267Y0001149606D03*
X0002588582Y0001131889D03*
X0002568897Y0001114173D03*
X0002555118Y0001090551D03*
X0002690944Y0001131889D03*
X0002712598Y0001131889D03*
X0002734252Y0001131889D03*
X0002755905Y0001131889D03*
X0002775590Y0001131889D03*
X0002795275Y0001131889D03*
X0002814960Y0001131889D03*
X0002763779Y0001059055D03*
X0002783464Y0001059055D03*
X0002803149Y0001059055D03*
X0002822834Y0001059055D03*
X0002683070Y0000907480D03*
X0002781496Y0000765748D03*
X0002803149Y0000748031D03*
X0003076771Y0000891732D03*
X0003053149Y0000891732D03*
X0003070866Y0000822834D03*
X0003090551Y0000822834D03*
X0003110236Y0000822834D03*
X0003129921Y0000822834D03*
X0003149606Y0000822834D03*
X0003169291Y0000822834D03*
X0003051181Y0000822834D03*
X0003051181Y0000736220D03*
X0003070866Y0000736220D03*
X0003090551Y0000740157D03*
X0003110236Y0000753937D03*
X0003129921Y0000773622D03*
X0003129921Y0000773622D03*
X0003129921Y0000773622D03*
X0003149606Y0000793307D03*
X0002627952Y0000818897D03*
X0002734252Y0000714566D03*
X0002769685Y0000675196D03*
X0002793307Y0000661417D03*
X0002751968Y0000694881D03*
X0002665354Y0000781496D03*
X0002566929Y0000881889D03*
X0002588582Y0000860236D03*
X0002608267Y0000838582D03*
X0003124015Y0001169291D03*
X0003159448Y0001135826D03*
X0003106299Y0001188976D03*
X0003139763Y0001153543D03*
X0003088582Y0001208661D03*
X0003090551Y0000665354D03*
X0003149606Y0000690944D03*
X0003222440Y0000767716D03*
X0003070866Y0000665354D03*
X0003261811Y0000807086D03*
X0003129921Y0000671259D03*
X0003301181Y0000842519D03*
X0003314960Y0000866141D03*
X0003281496Y0000824803D03*
X0003167322Y0000710629D03*
X0003051181Y0000665354D03*
X0003242126Y0000785433D03*
X0003110236Y0000665354D03*
X0003185039Y0000730314D03*
X0003204724Y0000748031D03*
X0003320866Y0001045275D03*
X0003161417Y0001236220D03*
X0003320866Y0001064960D03*
X0003238189Y0001159448D03*
X0003255905Y0001139763D03*
X0003125984Y0001271653D03*
X0003295275Y0001104330D03*
X0003179133Y0001216535D03*
X0003275590Y0001122047D03*
X0003200787Y0001196850D03*
X0003143700Y0001255905D03*
X0003314960Y0001084645D03*
X0003218503Y0001177165D03*
X0003057086Y0001287401D03*
X0003080708Y0001287401D03*
X0003104330Y0001287401D03*
X0003066929Y0001214566D03*
X0003051181Y0001059055D03*
X0003070866Y0001059055D03*
X0003092519Y0001059055D03*
X0002769685Y0001212598D03*
X0002751968Y0001192913D03*
X0002734252Y0001173228D03*
X0002714566Y0001155511D03*
X0002791338Y0001214566D03*
X0002811023Y0001214566D03*
X0002700787Y0000746062D03*
X0002748031Y0000799212D03*
X0002771653Y0000820866D03*
X0002822834Y0000812992D03*
D34*
X0002722757Y0000895352D03*
D33*
X0003055118Y0001131889D03*
X0003074803Y0001131889D03*
X0003096456Y0001131889D03*
X0003116141Y0001131889D03*
X0003137795Y0001131889D03*
D34*
X0003135826Y0001062992D03*
X0003188976Y0001059055D03*
D33*
X0002338582Y0001791338D03*
X0002535433Y0001791338D03*
X0002437007Y0001692913D03*
X0002437007Y0001574803D03*
X0002437007Y0001377952D03*
X0002437007Y0001181102D03*
X0002338582Y0001594488D03*
X0002535433Y0001594488D03*
X0002732283Y0001594488D03*
X0002633858Y0001692913D03*
X0002929133Y0001594488D03*
X0003125984Y0001594488D03*
X0003322834Y0001594488D03*
X0003322834Y0001437007D03*
X0003125984Y0001476377D03*
X0002929133Y0001476377D03*
X0002732283Y0001476377D03*
X0002535433Y0001476377D03*
X0002338582Y0001476377D03*
X0002141732Y0001476377D03*
X0002141732Y0001279527D03*
X0002338582Y0001279527D03*
X0002535433Y0001279527D03*
X0002633858Y0001377952D03*
X0002830708Y0001574803D03*
X0002633858Y0001574803D03*
X0002043307Y0001377952D03*
X0002043307Y0001574803D03*
X0002043307Y0001181102D03*
X0002240157Y0001377952D03*
X0002240157Y0001181102D03*
X0002377952Y0001082677D03*
X0003027559Y0001574803D03*
X0003224409Y0001574803D03*
X0003421259Y0001574803D03*
X0003027559Y0001377952D03*
X0002830708Y0001377952D03*
X0003421259Y0001692913D03*
X0003519685Y0001791338D03*
X0003322834Y0001791338D03*
X0003224409Y0001692913D03*
X0003519685Y0001437007D03*
X0003519685Y0001141732D03*
X0003618110Y0001082677D03*
X0003421259Y0001082677D03*
X0002181102Y0001082677D03*
X0002181102Y0000885826D03*
X0002141732Y0000688976D03*
X0002141732Y0000492125D03*
X0002043307Y0000590551D03*
X0002043307Y0000787401D03*
X0002240157Y0000787401D03*
X0002437007Y0000787401D03*
X0002240157Y0000590551D03*
X0002377952Y0000885826D03*
X0002338582Y0000688976D03*
X0002338582Y0000492125D03*
X0002338582Y0000295275D03*
X0002240157Y0000393700D03*
X0002535433Y0000295275D03*
X0002732283Y0000295275D03*
X0002929133Y0000295275D03*
X0003125984Y0000295275D03*
X0003519685Y0000492125D03*
X0003519685Y0000688976D03*
X0003519685Y0000885826D03*
X0003421259Y0000787401D03*
X0003618110Y0000787401D03*
X0003814960Y0000787401D03*
X0003814960Y0000590551D03*
X0003814960Y0000393700D03*
X0003716535Y0000492125D03*
X0003716535Y0000688976D03*
X0003618110Y0000590551D03*
X0003618110Y0000393700D03*
X0003421259Y0000393700D03*
X0003421259Y0000590551D03*
X0003322834Y0000688976D03*
X0003322834Y0000492125D03*
X0003224409Y0000393700D03*
X0003224409Y0000590551D03*
X0003125984Y0000492125D03*
X0003027559Y0000590551D03*
X0003027559Y0000393700D03*
X0003027559Y0000196850D03*
X0002830708Y0000196850D03*
X0002830708Y0000393700D03*
X0002830708Y0000590551D03*
X0002929133Y0000492125D03*
X0003086614Y0000098425D03*
X0002929133Y0000098425D03*
X0002732283Y0000098425D03*
X0002437007Y0000393700D03*
X0002437007Y0000196850D03*
X0002633858Y0000393700D03*
X0002732283Y0000492125D03*
X0002043307Y0000393700D03*
X0002338582Y0000098425D03*
X0003814960Y0001181102D03*
X0003814960Y0001377952D03*
X0003814960Y0001574803D03*
X0002417322Y0001019685D03*
X0002437007Y0001019685D03*
X0002437007Y0000948818D03*
X0002417322Y0000948818D03*
X0003448818Y0000948818D03*
X0002818897Y0000877952D03*
D34*
G04 #@! TO.N,+3V3*
X0003318897Y0001338582D03*
X0003267716Y0001287401D03*
X0003267716Y0001338582D03*
X0002519685Y0000188976D03*
X0002622047Y0000188976D03*
D33*
X0002484252Y0000712598D03*
D34*
X0002759842Y0000964566D03*
X0003098425Y0000996062D03*
G04 #@! TO.N,/SW_1_CTRL_1*
X0002724409Y0001032480D03*
X0002564960Y0000732283D03*
G04 #@! TO.N,/SW_1_CTRL_2*
X0003133858Y0000956692D03*
X0002618077Y0000704757D03*
X0002827756Y0000980415D03*
G04 #@! TO.N,/SW_2_CTRL_1*
X0002559055Y0000661417D03*
X0003106299Y0000925196D03*
G04 #@! TD*
D35*
G04 #@! TO.N,/SW_1_CTRL_1*
X0002724409Y0001032480D02*
X0002746680Y0001032480D01*
X0002746680Y0001032480D02*
X0002797244Y0000981916D01*
X0002797244Y0000944881D02*
X0002797244Y0000935039D01*
X0002797244Y0000981916D02*
X0002797244Y0000944881D01*
X0002797244Y0000923228D02*
X0002797244Y0000944881D01*
X0002738189Y0000864173D02*
X0002797244Y0000923228D01*
X0002716535Y0000864173D02*
X0002738189Y0000864173D01*
X0002594488Y0000742125D02*
X0002716535Y0000864173D01*
X0002564960Y0000732283D02*
X0002574803Y0000742125D01*
X0002574803Y0000742125D02*
X0002594488Y0000742125D01*
G04 #@! TO.N,/SW_1_CTRL_2*
X0003133858Y0000956692D02*
X0002869081Y0000956692D01*
X0002869081Y0000956692D02*
X0002858267Y0000945878D01*
X0002858267Y0000949904D02*
X0002843504Y0000964667D01*
X0002843504Y0000964667D02*
X0002827756Y0000980415D01*
X0002858267Y0000945878D02*
X0002858267Y0000949904D01*
X0002633825Y0000720505D02*
X0002618077Y0000704757D01*
X0002858267Y0000945878D02*
X0002858267Y0000944947D01*
X0002858267Y0000944947D02*
X0002633825Y0000720505D01*
G04 #@! TO.N,/SW_2_CTRL_1*
X0002643700Y0000661417D02*
X0002581326Y0000661417D01*
X0002581326Y0000661417D02*
X0002559055Y0000661417D01*
X0003072217Y0000937007D02*
X0002919291Y0000937007D01*
X0003084028Y0000925196D02*
X0003072217Y0000937007D01*
X0003106299Y0000925196D02*
X0003084028Y0000925196D01*
X0002919291Y0000937007D02*
X0002643700Y0000661417D01*
G04 #@! TD*
D36*
G04 #@! TO.N,GND*
G36*
X0003707111Y0001859343D02*
X0003736109Y0001851410D01*
X0003763245Y0001838467D01*
X0003787660Y0001820923D01*
X0003808582Y0001799333D01*
X0003825351Y0001774379D01*
X0003837435Y0001746850D01*
X0003844505Y0001717403D01*
X0003846377Y0001691899D01*
X0003846378Y0000198081D01*
X0003843595Y0000166904D01*
X0003835662Y0000137906D01*
X0003822719Y0000110770D01*
X0003805175Y0000086355D01*
X0003783585Y0000065432D01*
X0003758631Y0000048664D01*
X0003731102Y0000036580D01*
X0003701655Y0000029510D01*
X0003676151Y0000027637D01*
X0002182333Y0000027637D01*
X0002151156Y0000030420D01*
X0002122158Y0000038353D01*
X0002095022Y0000051296D01*
X0002070607Y0000068840D01*
X0002051128Y0000088940D01*
X0002080263Y0000088940D01*
X0002094710Y0000069435D01*
X0002150046Y0000046073D01*
X0002210110Y0000045665D01*
X0002265757Y0000068274D01*
X0002267494Y0000069435D01*
X0002281941Y0000088940D01*
X0002181102Y0000189779D01*
X0002080263Y0000088940D01*
X0002051128Y0000088940D01*
X0002049684Y0000090430D01*
X0002032916Y0000115384D01*
X0002020832Y0000142913D01*
X0002014847Y0000167842D01*
X0002029917Y0000167842D01*
X0002052526Y0000112195D01*
X0002053687Y0000110458D01*
X0002073192Y0000096011D01*
X0002174031Y0000196850D01*
X0002188173Y0000196850D01*
X0002289012Y0000096011D01*
X0002308517Y0000110458D01*
X0002331879Y0000165794D01*
X0002332091Y0000197019D01*
X0002479252Y0000197019D01*
X0002479252Y0000180933D01*
X0002485407Y0000166072D01*
X0002496781Y0000154698D01*
X0002511642Y0000148543D01*
X0002527727Y0000148543D01*
X0002542588Y0000154698D01*
X0002553962Y0000166072D01*
X0002560118Y0000180933D01*
X0002560118Y0000197019D01*
X0002581614Y0000197019D01*
X0002581614Y0000180933D01*
X0002587769Y0000166072D01*
X0002599143Y0000154698D01*
X0002614004Y0000148543D01*
X0002630089Y0000148543D01*
X0002644950Y0000154698D01*
X0002656324Y0000166072D01*
X0002657657Y0000169291D01*
X0003254842Y0000169291D01*
X0003254842Y0000078740D01*
X0003255223Y0000076826D01*
X0003256307Y0000075204D01*
X0003257929Y0000074120D01*
X0003259842Y0000073740D01*
X0003500000Y0000073740D01*
X0003501913Y0000074120D01*
X0003503535Y0000075204D01*
X0003504619Y0000076826D01*
X0003505000Y0000078740D01*
X0003505000Y0000088940D01*
X0003576326Y0000088940D01*
X0003590773Y0000069435D01*
X0003646109Y0000046073D01*
X0003706172Y0000045665D01*
X0003761820Y0000068274D01*
X0003763557Y0000069435D01*
X0003778004Y0000088940D01*
X0003677165Y0000189779D01*
X0003576326Y0000088940D01*
X0003505000Y0000088940D01*
X0003505000Y0000167842D01*
X0003525980Y0000167842D01*
X0003548589Y0000112195D01*
X0003549750Y0000110458D01*
X0003569255Y0000096011D01*
X0003670094Y0000196850D01*
X0003684236Y0000196850D01*
X0003785075Y0000096011D01*
X0003804580Y0000110458D01*
X0003827942Y0000165794D01*
X0003828349Y0000225857D01*
X0003805740Y0000281505D01*
X0003804580Y0000283242D01*
X0003785075Y0000297689D01*
X0003684236Y0000196850D01*
X0003670094Y0000196850D01*
X0003569255Y0000297689D01*
X0003549750Y0000283242D01*
X0003526388Y0000227906D01*
X0003525980Y0000167842D01*
X0003505000Y0000167842D01*
X0003505000Y0000169291D01*
X0003504619Y0000171204D01*
X0003503535Y0000172826D01*
X0003501913Y0000173910D01*
X0003500000Y0000174291D01*
X0003259842Y0000174291D01*
X0003257929Y0000173910D01*
X0003256307Y0000172826D01*
X0003255223Y0000171204D01*
X0003254842Y0000169291D01*
X0002657657Y0000169291D01*
X0002662480Y0000180933D01*
X0002662480Y0000197019D01*
X0002656324Y0000211879D01*
X0002644950Y0000223253D01*
X0002630089Y0000229409D01*
X0002614004Y0000229409D01*
X0002599143Y0000223253D01*
X0002587769Y0000211879D01*
X0002581614Y0000197019D01*
X0002560118Y0000197019D01*
X0002553962Y0000211879D01*
X0002542588Y0000223253D01*
X0002527727Y0000229409D01*
X0002511642Y0000229409D01*
X0002496781Y0000223253D01*
X0002485407Y0000211879D01*
X0002479252Y0000197019D01*
X0002332091Y0000197019D01*
X0002332286Y0000225857D01*
X0002309677Y0000281505D01*
X0002308517Y0000283242D01*
X0002289012Y0000297689D01*
X0002188173Y0000196850D01*
X0002174031Y0000196850D01*
X0002073192Y0000297689D01*
X0002053687Y0000283242D01*
X0002030325Y0000227906D01*
X0002029917Y0000167842D01*
X0002014847Y0000167842D01*
X0002013762Y0000172359D01*
X0002011889Y0000197863D01*
X0002011889Y0000304760D01*
X0002080263Y0000304760D01*
X0002181102Y0000203921D01*
X0002281941Y0000304760D01*
X0003576326Y0000304760D01*
X0003677165Y0000203921D01*
X0003778004Y0000304760D01*
X0003763557Y0000324265D01*
X0003708221Y0000347627D01*
X0003648157Y0000348034D01*
X0003592510Y0000325425D01*
X0003590773Y0000324265D01*
X0003576326Y0000304760D01*
X0002281941Y0000304760D01*
X0002267494Y0000324265D01*
X0002212158Y0000347627D01*
X0002152094Y0000348034D01*
X0002096447Y0000325425D01*
X0002094710Y0000324265D01*
X0002080263Y0000304760D01*
X0002011889Y0000304760D01*
X0002011889Y0000669459D01*
X0002518622Y0000669459D01*
X0002518622Y0000653374D01*
X0002524777Y0000638513D01*
X0002536151Y0000627139D01*
X0002551012Y0000620984D01*
X0002567097Y0000620984D01*
X0002581958Y0000627139D01*
X0002586629Y0000631811D01*
X0002640785Y0000631811D01*
X0002643700Y0000631231D01*
X0002646616Y0000631811D01*
X0002646616Y0000631811D01*
X0002655252Y0000633528D01*
X0002665045Y0000640072D01*
X0002666697Y0000642544D01*
X0002931554Y0000907401D01*
X0003059953Y0000907401D01*
X0003061031Y0000906323D01*
X0003062683Y0000903851D01*
X0003072476Y0000897308D01*
X0003078131Y0000896183D01*
X0003083395Y0000890919D01*
X0003098256Y0000884763D01*
X0003114341Y0000884763D01*
X0003129202Y0000890919D01*
X0003140576Y0000902293D01*
X0003146732Y0000917154D01*
X0003146732Y0000918261D01*
X0003156761Y0000922415D01*
X0003168135Y0000933789D01*
X0003174291Y0000948650D01*
X0003174291Y0000964735D01*
X0003168135Y0000979596D01*
X0003156761Y0000990970D01*
X0003141900Y0000997125D01*
X0003138858Y0000997125D01*
X0003138858Y0001004105D01*
X0003132702Y0001018966D01*
X0003121328Y0001030340D01*
X0003106467Y0001036496D01*
X0003090382Y0001036496D01*
X0003075521Y0001030340D01*
X0003064147Y0001018966D01*
X0003057992Y0001004105D01*
X0003057992Y0000988020D01*
X0003058705Y0000986299D01*
X0002871997Y0000986299D01*
X0002869081Y0000986879D01*
X0002868189Y0000986701D01*
X0002868189Y0000988458D01*
X0002862033Y0001003319D01*
X0002850659Y0001014693D01*
X0002835798Y0001020848D01*
X0002819713Y0001020848D01*
X0002805902Y0001015127D01*
X0002769677Y0001051353D01*
X0002768025Y0001053825D01*
X0002758232Y0001060368D01*
X0002752577Y0001061493D01*
X0002747312Y0001066757D01*
X0002732452Y0001072913D01*
X0002716366Y0001072913D01*
X0002701505Y0001066757D01*
X0002690132Y0001055383D01*
X0002683976Y0001040522D01*
X0002683976Y0001024437D01*
X0002690132Y0001009576D01*
X0002701505Y0000998202D01*
X0002716366Y0000992047D01*
X0002730141Y0000992047D01*
X0002725565Y0000987470D01*
X0002719409Y0000972609D01*
X0002719409Y0000956524D01*
X0002725565Y0000941663D01*
X0002736939Y0000930289D01*
X0002751799Y0000924133D01*
X0002756280Y0000924133D01*
X0002725925Y0000893779D01*
X0002719451Y0000893779D01*
X0002716535Y0000894359D01*
X0002713619Y0000893779D01*
X0002713619Y0000893779D01*
X0002704983Y0000892061D01*
X0002695190Y0000885518D01*
X0002693538Y0000883046D01*
X0002582224Y0000771732D01*
X0002577718Y0000771732D01*
X0002574803Y0000772312D01*
X0002574246Y0000772201D01*
X0002573003Y0000772716D01*
X0002556918Y0000772716D01*
X0002542057Y0000766560D01*
X0002530683Y0000755186D01*
X0002524527Y0000740326D01*
X0002524527Y0000724240D01*
X0002530683Y0000709379D01*
X0002541961Y0000698101D01*
X0002536151Y0000695694D01*
X0002524777Y0000684320D01*
X0002518622Y0000669459D01*
X0002011889Y0000669459D01*
X0002011889Y0000719270D01*
X0002450708Y0000719270D01*
X0002450708Y0000705926D01*
X0002455815Y0000693597D01*
X0002465251Y0000684161D01*
X0002477579Y0000679055D01*
X0002490924Y0000679055D01*
X0002503252Y0000684161D01*
X0002512688Y0000693597D01*
X0002517795Y0000705926D01*
X0002517795Y0000719270D01*
X0002512688Y0000731599D01*
X0002503252Y0000741035D01*
X0002490924Y0000746141D01*
X0002477579Y0000746141D01*
X0002465251Y0000741035D01*
X0002455815Y0000731599D01*
X0002450708Y0000719270D01*
X0002011889Y0000719270D01*
X0002011889Y0001346625D01*
X0003227283Y0001346625D01*
X0003227283Y0001330540D01*
X0003233439Y0001315679D01*
X0003236126Y0001312992D01*
X0003233439Y0001310305D01*
X0003227283Y0001295444D01*
X0003227283Y0001279358D01*
X0003233439Y0001264498D01*
X0003244813Y0001253124D01*
X0003259673Y0001246968D01*
X0003275759Y0001246968D01*
X0003290620Y0001253124D01*
X0003301994Y0001264498D01*
X0003308149Y0001279358D01*
X0003308149Y0001295444D01*
X0003306236Y0001300062D01*
X0003310855Y0001298149D01*
X0003326940Y0001298149D01*
X0003341801Y0001304305D01*
X0003353175Y0001315679D01*
X0003359330Y0001330540D01*
X0003359330Y0001346625D01*
X0003353175Y0001361486D01*
X0003341801Y0001372860D01*
X0003326940Y0001379015D01*
X0003310855Y0001379015D01*
X0003295994Y0001372860D01*
X0003293307Y0001370173D01*
X0003290620Y0001372860D01*
X0003275759Y0001379015D01*
X0003259673Y0001379015D01*
X0003244813Y0001372860D01*
X0003233439Y0001361486D01*
X0003227283Y0001346625D01*
X0002011889Y0001346625D01*
X0002011889Y0001585003D01*
X0002080263Y0001585003D01*
X0002094710Y0001565498D01*
X0002150046Y0001542136D01*
X0002210110Y0001541728D01*
X0002265757Y0001564337D01*
X0002267494Y0001565498D01*
X0002281941Y0001585003D01*
X0003576326Y0001585003D01*
X0003590773Y0001565498D01*
X0003646109Y0001542136D01*
X0003706172Y0001541728D01*
X0003761820Y0001564337D01*
X0003763557Y0001565498D01*
X0003778004Y0001585003D01*
X0003677165Y0001685842D01*
X0003576326Y0001585003D01*
X0002281941Y0001585003D01*
X0002181102Y0001685842D01*
X0002080263Y0001585003D01*
X0002011889Y0001585003D01*
X0002011889Y0001663905D01*
X0002029917Y0001663905D01*
X0002052526Y0001608258D01*
X0002053687Y0001606521D01*
X0002073192Y0001592074D01*
X0002174031Y0001692913D01*
X0002188173Y0001692913D01*
X0002289012Y0001592074D01*
X0002308517Y0001606521D01*
X0002331879Y0001661857D01*
X0002331893Y0001663905D01*
X0003525980Y0001663905D01*
X0003548589Y0001608258D01*
X0003549750Y0001606521D01*
X0003569255Y0001592074D01*
X0003670094Y0001692913D01*
X0003684236Y0001692913D01*
X0003785075Y0001592074D01*
X0003804580Y0001606521D01*
X0003827942Y0001661857D01*
X0003828349Y0001721920D01*
X0003805740Y0001777568D01*
X0003804580Y0001779305D01*
X0003785075Y0001793752D01*
X0003684236Y0001692913D01*
X0003670094Y0001692913D01*
X0003569255Y0001793752D01*
X0003549750Y0001779305D01*
X0003526388Y0001723969D01*
X0003525980Y0001663905D01*
X0002331893Y0001663905D01*
X0002332286Y0001721920D01*
X0002318409Y0001756078D01*
X0002813897Y0001756078D01*
X0002813897Y0001741559D01*
X0002819453Y0001728145D01*
X0002829720Y0001717879D01*
X0002843134Y0001712322D01*
X0002857653Y0001712322D01*
X0002871067Y0001717879D01*
X0002881333Y0001728145D01*
X0002886889Y0001741559D01*
X0002886889Y0001756078D01*
X0002971377Y0001756078D01*
X0002971377Y0001741559D01*
X0002976934Y0001728145D01*
X0002987200Y0001717879D01*
X0003000614Y0001712322D01*
X0003015133Y0001712322D01*
X0003028547Y0001717879D01*
X0003038813Y0001728145D01*
X0003044370Y0001741559D01*
X0003044370Y0001756078D01*
X0003038813Y0001769492D01*
X0003028547Y0001779758D01*
X0003015133Y0001785314D01*
X0003000614Y0001785314D01*
X0002987200Y0001779758D01*
X0002976934Y0001769492D01*
X0002971377Y0001756078D01*
X0002886889Y0001756078D01*
X0002881333Y0001769492D01*
X0002871067Y0001779758D01*
X0002857653Y0001785314D01*
X0002843134Y0001785314D01*
X0002829720Y0001779758D01*
X0002819453Y0001769492D01*
X0002813897Y0001756078D01*
X0002318409Y0001756078D01*
X0002309677Y0001777568D01*
X0002308517Y0001779305D01*
X0002289012Y0001793752D01*
X0002188173Y0001692913D01*
X0002174031Y0001692913D01*
X0002073192Y0001793752D01*
X0002053687Y0001779305D01*
X0002030325Y0001723969D01*
X0002029917Y0001663905D01*
X0002011889Y0001663905D01*
X0002011889Y0001691682D01*
X0002014672Y0001722859D01*
X0002022605Y0001751857D01*
X0002035548Y0001778993D01*
X0002051234Y0001800823D01*
X0002080263Y0001800823D01*
X0002181102Y0001699984D01*
X0002281941Y0001800823D01*
X0003576326Y0001800823D01*
X0003677165Y0001699984D01*
X0003778004Y0001800823D01*
X0003763557Y0001820328D01*
X0003708221Y0001843690D01*
X0003648157Y0001844097D01*
X0003592510Y0001821488D01*
X0003590773Y0001820328D01*
X0003576326Y0001800823D01*
X0002281941Y0001800823D01*
X0002267494Y0001820328D01*
X0002212158Y0001843690D01*
X0002152094Y0001844097D01*
X0002096447Y0001821488D01*
X0002094710Y0001820328D01*
X0002080263Y0001800823D01*
X0002051234Y0001800823D01*
X0002053092Y0001803408D01*
X0002074682Y0001824330D01*
X0002099636Y0001841099D01*
X0002127165Y0001853183D01*
X0002156612Y0001860253D01*
X0002182115Y0001862125D01*
X0003675934Y0001862125D01*
X0003707111Y0001859343D01*
X0003707111Y0001859343D01*
G37*
X0003707111Y0001859343D02*
X0003736109Y0001851410D01*
X0003763245Y0001838467D01*
X0003787660Y0001820923D01*
X0003808582Y0001799333D01*
X0003825351Y0001774379D01*
X0003837435Y0001746850D01*
X0003844505Y0001717403D01*
X0003846377Y0001691899D01*
X0003846378Y0000198081D01*
X0003843595Y0000166904D01*
X0003835662Y0000137906D01*
X0003822719Y0000110770D01*
X0003805175Y0000086355D01*
X0003783585Y0000065432D01*
X0003758631Y0000048664D01*
X0003731102Y0000036580D01*
X0003701655Y0000029510D01*
X0003676151Y0000027637D01*
X0002182333Y0000027637D01*
X0002151156Y0000030420D01*
X0002122158Y0000038353D01*
X0002095022Y0000051296D01*
X0002070607Y0000068840D01*
X0002051128Y0000088940D01*
X0002080263Y0000088940D01*
X0002094710Y0000069435D01*
X0002150046Y0000046073D01*
X0002210110Y0000045665D01*
X0002265757Y0000068274D01*
X0002267494Y0000069435D01*
X0002281941Y0000088940D01*
X0002181102Y0000189779D01*
X0002080263Y0000088940D01*
X0002051128Y0000088940D01*
X0002049684Y0000090430D01*
X0002032916Y0000115384D01*
X0002020832Y0000142913D01*
X0002014847Y0000167842D01*
X0002029917Y0000167842D01*
X0002052526Y0000112195D01*
X0002053687Y0000110458D01*
X0002073192Y0000096011D01*
X0002174031Y0000196850D01*
X0002188173Y0000196850D01*
X0002289012Y0000096011D01*
X0002308517Y0000110458D01*
X0002331879Y0000165794D01*
X0002332091Y0000197019D01*
X0002479252Y0000197019D01*
X0002479252Y0000180933D01*
X0002485407Y0000166072D01*
X0002496781Y0000154698D01*
X0002511642Y0000148543D01*
X0002527727Y0000148543D01*
X0002542588Y0000154698D01*
X0002553962Y0000166072D01*
X0002560118Y0000180933D01*
X0002560118Y0000197019D01*
X0002581614Y0000197019D01*
X0002581614Y0000180933D01*
X0002587769Y0000166072D01*
X0002599143Y0000154698D01*
X0002614004Y0000148543D01*
X0002630089Y0000148543D01*
X0002644950Y0000154698D01*
X0002656324Y0000166072D01*
X0002657657Y0000169291D01*
X0003254842Y0000169291D01*
X0003254842Y0000078740D01*
X0003255223Y0000076826D01*
X0003256307Y0000075204D01*
X0003257929Y0000074120D01*
X0003259842Y0000073740D01*
X0003500000Y0000073740D01*
X0003501913Y0000074120D01*
X0003503535Y0000075204D01*
X0003504619Y0000076826D01*
X0003505000Y0000078740D01*
X0003505000Y0000088940D01*
X0003576326Y0000088940D01*
X0003590773Y0000069435D01*
X0003646109Y0000046073D01*
X0003706172Y0000045665D01*
X0003761820Y0000068274D01*
X0003763557Y0000069435D01*
X0003778004Y0000088940D01*
X0003677165Y0000189779D01*
X0003576326Y0000088940D01*
X0003505000Y0000088940D01*
X0003505000Y0000167842D01*
X0003525980Y0000167842D01*
X0003548589Y0000112195D01*
X0003549750Y0000110458D01*
X0003569255Y0000096011D01*
X0003670094Y0000196850D01*
X0003684236Y0000196850D01*
X0003785075Y0000096011D01*
X0003804580Y0000110458D01*
X0003827942Y0000165794D01*
X0003828349Y0000225857D01*
X0003805740Y0000281505D01*
X0003804580Y0000283242D01*
X0003785075Y0000297689D01*
X0003684236Y0000196850D01*
X0003670094Y0000196850D01*
X0003569255Y0000297689D01*
X0003549750Y0000283242D01*
X0003526388Y0000227906D01*
X0003525980Y0000167842D01*
X0003505000Y0000167842D01*
X0003505000Y0000169291D01*
X0003504619Y0000171204D01*
X0003503535Y0000172826D01*
X0003501913Y0000173910D01*
X0003500000Y0000174291D01*
X0003259842Y0000174291D01*
X0003257929Y0000173910D01*
X0003256307Y0000172826D01*
X0003255223Y0000171204D01*
X0003254842Y0000169291D01*
X0002657657Y0000169291D01*
X0002662480Y0000180933D01*
X0002662480Y0000197019D01*
X0002656324Y0000211879D01*
X0002644950Y0000223253D01*
X0002630089Y0000229409D01*
X0002614004Y0000229409D01*
X0002599143Y0000223253D01*
X0002587769Y0000211879D01*
X0002581614Y0000197019D01*
X0002560118Y0000197019D01*
X0002553962Y0000211879D01*
X0002542588Y0000223253D01*
X0002527727Y0000229409D01*
X0002511642Y0000229409D01*
X0002496781Y0000223253D01*
X0002485407Y0000211879D01*
X0002479252Y0000197019D01*
X0002332091Y0000197019D01*
X0002332286Y0000225857D01*
X0002309677Y0000281505D01*
X0002308517Y0000283242D01*
X0002289012Y0000297689D01*
X0002188173Y0000196850D01*
X0002174031Y0000196850D01*
X0002073192Y0000297689D01*
X0002053687Y0000283242D01*
X0002030325Y0000227906D01*
X0002029917Y0000167842D01*
X0002014847Y0000167842D01*
X0002013762Y0000172359D01*
X0002011889Y0000197863D01*
X0002011889Y0000304760D01*
X0002080263Y0000304760D01*
X0002181102Y0000203921D01*
X0002281941Y0000304760D01*
X0003576326Y0000304760D01*
X0003677165Y0000203921D01*
X0003778004Y0000304760D01*
X0003763557Y0000324265D01*
X0003708221Y0000347627D01*
X0003648157Y0000348034D01*
X0003592510Y0000325425D01*
X0003590773Y0000324265D01*
X0003576326Y0000304760D01*
X0002281941Y0000304760D01*
X0002267494Y0000324265D01*
X0002212158Y0000347627D01*
X0002152094Y0000348034D01*
X0002096447Y0000325425D01*
X0002094710Y0000324265D01*
X0002080263Y0000304760D01*
X0002011889Y0000304760D01*
X0002011889Y0000669459D01*
X0002518622Y0000669459D01*
X0002518622Y0000653374D01*
X0002524777Y0000638513D01*
X0002536151Y0000627139D01*
X0002551012Y0000620984D01*
X0002567097Y0000620984D01*
X0002581958Y0000627139D01*
X0002586629Y0000631811D01*
X0002640785Y0000631811D01*
X0002643700Y0000631231D01*
X0002646616Y0000631811D01*
X0002646616Y0000631811D01*
X0002655252Y0000633528D01*
X0002665045Y0000640072D01*
X0002666697Y0000642544D01*
X0002931554Y0000907401D01*
X0003059953Y0000907401D01*
X0003061031Y0000906323D01*
X0003062683Y0000903851D01*
X0003072476Y0000897308D01*
X0003078131Y0000896183D01*
X0003083395Y0000890919D01*
X0003098256Y0000884763D01*
X0003114341Y0000884763D01*
X0003129202Y0000890919D01*
X0003140576Y0000902293D01*
X0003146732Y0000917154D01*
X0003146732Y0000918261D01*
X0003156761Y0000922415D01*
X0003168135Y0000933789D01*
X0003174291Y0000948650D01*
X0003174291Y0000964735D01*
X0003168135Y0000979596D01*
X0003156761Y0000990970D01*
X0003141900Y0000997125D01*
X0003138858Y0000997125D01*
X0003138858Y0001004105D01*
X0003132702Y0001018966D01*
X0003121328Y0001030340D01*
X0003106467Y0001036496D01*
X0003090382Y0001036496D01*
X0003075521Y0001030340D01*
X0003064147Y0001018966D01*
X0003057992Y0001004105D01*
X0003057992Y0000988020D01*
X0003058705Y0000986299D01*
X0002871997Y0000986299D01*
X0002869081Y0000986879D01*
X0002868189Y0000986701D01*
X0002868189Y0000988458D01*
X0002862033Y0001003319D01*
X0002850659Y0001014693D01*
X0002835798Y0001020848D01*
X0002819713Y0001020848D01*
X0002805902Y0001015127D01*
X0002769677Y0001051353D01*
X0002768025Y0001053825D01*
X0002758232Y0001060368D01*
X0002752577Y0001061493D01*
X0002747312Y0001066757D01*
X0002732452Y0001072913D01*
X0002716366Y0001072913D01*
X0002701505Y0001066757D01*
X0002690132Y0001055383D01*
X0002683976Y0001040522D01*
X0002683976Y0001024437D01*
X0002690132Y0001009576D01*
X0002701505Y0000998202D01*
X0002716366Y0000992047D01*
X0002730141Y0000992047D01*
X0002725565Y0000987470D01*
X0002719409Y0000972609D01*
X0002719409Y0000956524D01*
X0002725565Y0000941663D01*
X0002736939Y0000930289D01*
X0002751799Y0000924133D01*
X0002756280Y0000924133D01*
X0002725925Y0000893779D01*
X0002719451Y0000893779D01*
X0002716535Y0000894359D01*
X0002713619Y0000893779D01*
X0002713619Y0000893779D01*
X0002704983Y0000892061D01*
X0002695190Y0000885518D01*
X0002693538Y0000883046D01*
X0002582224Y0000771732D01*
X0002577718Y0000771732D01*
X0002574803Y0000772312D01*
X0002574246Y0000772201D01*
X0002573003Y0000772716D01*
X0002556918Y0000772716D01*
X0002542057Y0000766560D01*
X0002530683Y0000755186D01*
X0002524527Y0000740326D01*
X0002524527Y0000724240D01*
X0002530683Y0000709379D01*
X0002541961Y0000698101D01*
X0002536151Y0000695694D01*
X0002524777Y0000684320D01*
X0002518622Y0000669459D01*
X0002011889Y0000669459D01*
X0002011889Y0000719270D01*
X0002450708Y0000719270D01*
X0002450708Y0000705926D01*
X0002455815Y0000693597D01*
X0002465251Y0000684161D01*
X0002477579Y0000679055D01*
X0002490924Y0000679055D01*
X0002503252Y0000684161D01*
X0002512688Y0000693597D01*
X0002517795Y0000705926D01*
X0002517795Y0000719270D01*
X0002512688Y0000731599D01*
X0002503252Y0000741035D01*
X0002490924Y0000746141D01*
X0002477579Y0000746141D01*
X0002465251Y0000741035D01*
X0002455815Y0000731599D01*
X0002450708Y0000719270D01*
X0002011889Y0000719270D01*
X0002011889Y0001346625D01*
X0003227283Y0001346625D01*
X0003227283Y0001330540D01*
X0003233439Y0001315679D01*
X0003236126Y0001312992D01*
X0003233439Y0001310305D01*
X0003227283Y0001295444D01*
X0003227283Y0001279358D01*
X0003233439Y0001264498D01*
X0003244813Y0001253124D01*
X0003259673Y0001246968D01*
X0003275759Y0001246968D01*
X0003290620Y0001253124D01*
X0003301994Y0001264498D01*
X0003308149Y0001279358D01*
X0003308149Y0001295444D01*
X0003306236Y0001300062D01*
X0003310855Y0001298149D01*
X0003326940Y0001298149D01*
X0003341801Y0001304305D01*
X0003353175Y0001315679D01*
X0003359330Y0001330540D01*
X0003359330Y0001346625D01*
X0003353175Y0001361486D01*
X0003341801Y0001372860D01*
X0003326940Y0001379015D01*
X0003310855Y0001379015D01*
X0003295994Y0001372860D01*
X0003293307Y0001370173D01*
X0003290620Y0001372860D01*
X0003275759Y0001379015D01*
X0003259673Y0001379015D01*
X0003244813Y0001372860D01*
X0003233439Y0001361486D01*
X0003227283Y0001346625D01*
X0002011889Y0001346625D01*
X0002011889Y0001585003D01*
X0002080263Y0001585003D01*
X0002094710Y0001565498D01*
X0002150046Y0001542136D01*
X0002210110Y0001541728D01*
X0002265757Y0001564337D01*
X0002267494Y0001565498D01*
X0002281941Y0001585003D01*
X0003576326Y0001585003D01*
X0003590773Y0001565498D01*
X0003646109Y0001542136D01*
X0003706172Y0001541728D01*
X0003761820Y0001564337D01*
X0003763557Y0001565498D01*
X0003778004Y0001585003D01*
X0003677165Y0001685842D01*
X0003576326Y0001585003D01*
X0002281941Y0001585003D01*
X0002181102Y0001685842D01*
X0002080263Y0001585003D01*
X0002011889Y0001585003D01*
X0002011889Y0001663905D01*
X0002029917Y0001663905D01*
X0002052526Y0001608258D01*
X0002053687Y0001606521D01*
X0002073192Y0001592074D01*
X0002174031Y0001692913D01*
X0002188173Y0001692913D01*
X0002289012Y0001592074D01*
X0002308517Y0001606521D01*
X0002331879Y0001661857D01*
X0002331893Y0001663905D01*
X0003525980Y0001663905D01*
X0003548589Y0001608258D01*
X0003549750Y0001606521D01*
X0003569255Y0001592074D01*
X0003670094Y0001692913D01*
X0003684236Y0001692913D01*
X0003785075Y0001592074D01*
X0003804580Y0001606521D01*
X0003827942Y0001661857D01*
X0003828349Y0001721920D01*
X0003805740Y0001777568D01*
X0003804580Y0001779305D01*
X0003785075Y0001793752D01*
X0003684236Y0001692913D01*
X0003670094Y0001692913D01*
X0003569255Y0001793752D01*
X0003549750Y0001779305D01*
X0003526388Y0001723969D01*
X0003525980Y0001663905D01*
X0002331893Y0001663905D01*
X0002332286Y0001721920D01*
X0002318409Y0001756078D01*
X0002813897Y0001756078D01*
X0002813897Y0001741559D01*
X0002819453Y0001728145D01*
X0002829720Y0001717879D01*
X0002843134Y0001712322D01*
X0002857653Y0001712322D01*
X0002871067Y0001717879D01*
X0002881333Y0001728145D01*
X0002886889Y0001741559D01*
X0002886889Y0001756078D01*
X0002971377Y0001756078D01*
X0002971377Y0001741559D01*
X0002976934Y0001728145D01*
X0002987200Y0001717879D01*
X0003000614Y0001712322D01*
X0003015133Y0001712322D01*
X0003028547Y0001717879D01*
X0003038813Y0001728145D01*
X0003044370Y0001741559D01*
X0003044370Y0001756078D01*
X0003038813Y0001769492D01*
X0003028547Y0001779758D01*
X0003015133Y0001785314D01*
X0003000614Y0001785314D01*
X0002987200Y0001779758D01*
X0002976934Y0001769492D01*
X0002971377Y0001756078D01*
X0002886889Y0001756078D01*
X0002881333Y0001769492D01*
X0002871067Y0001779758D01*
X0002857653Y0001785314D01*
X0002843134Y0001785314D01*
X0002829720Y0001779758D01*
X0002819453Y0001769492D01*
X0002813897Y0001756078D01*
X0002318409Y0001756078D01*
X0002309677Y0001777568D01*
X0002308517Y0001779305D01*
X0002289012Y0001793752D01*
X0002188173Y0001692913D01*
X0002174031Y0001692913D01*
X0002073192Y0001793752D01*
X0002053687Y0001779305D01*
X0002030325Y0001723969D01*
X0002029917Y0001663905D01*
X0002011889Y0001663905D01*
X0002011889Y0001691682D01*
X0002014672Y0001722859D01*
X0002022605Y0001751857D01*
X0002035548Y0001778993D01*
X0002051234Y0001800823D01*
X0002080263Y0001800823D01*
X0002181102Y0001699984D01*
X0002281941Y0001800823D01*
X0003576326Y0001800823D01*
X0003677165Y0001699984D01*
X0003778004Y0001800823D01*
X0003763557Y0001820328D01*
X0003708221Y0001843690D01*
X0003648157Y0001844097D01*
X0003592510Y0001821488D01*
X0003590773Y0001820328D01*
X0003576326Y0001800823D01*
X0002281941Y0001800823D01*
X0002267494Y0001820328D01*
X0002212158Y0001843690D01*
X0002152094Y0001844097D01*
X0002096447Y0001821488D01*
X0002094710Y0001820328D01*
X0002080263Y0001800823D01*
X0002051234Y0001800823D01*
X0002053092Y0001803408D01*
X0002074682Y0001824330D01*
X0002099636Y0001841099D01*
X0002127165Y0001853183D01*
X0002156612Y0001860253D01*
X0002182115Y0001862125D01*
X0003675934Y0001862125D01*
X0003707111Y0001859343D01*
G04 #@! TD*
G04 next file*
G04 #@! TF.GenerationSoftware,KiCad,Pcbnew,(5.0.2)-1*
G04 #@! TF.CreationDate,2019-01-19T12:29:50+11:00*
G04 #@! TF.ProjectId,Gain_Block_Dev_Rev_0,4761696e-5f42-46c6-9f63-6b5f4465765f,rev?*
G04 #@! TF.SameCoordinates,Original*
G04 #@! TF.FileFunction,Copper,L4,Bot*
G04 #@! TF.FilePolarity,Positive*
G04 Gerber Fmt 4.6, Leading zero omitted, Abs format (unit mm)*
G04 Created by KiCad (PCBNEW (5.0.2)-1) date 19/01/2019 12:29:50*
G01*
G04 APERTURE LIST*
G04 #@! TA.AperFunction,ViaPad*
G04 #@! TD*
G04 #@! TA.AperFunction,SMDPad,CuDef*
G04 #@! TD*
G04 #@! TA.AperFunction,ComponentPad*
G04 #@! TD*
G04 #@! TA.AperFunction,ComponentPad*
G04 #@! TD*
G04 #@! TA.AperFunction,ComponentPad*
G04 #@! TD*
G04 #@! TA.AperFunction,ComponentPad*
G04 #@! TD*
G04 #@! TA.AperFunction,ComponentPad*
G04 #@! TD*
G04 #@! TA.AperFunction,ComponentPad*
G04 #@! TD*
G04 #@! TA.AperFunction,ViaPad*
G04 #@! TD*
G04 #@! TA.AperFunction,ViaPad*
G04 #@! TD*
G04 #@! TA.AperFunction,Conductor*
G04 #@! TD*
G04 #@! TA.AperFunction,Conductor*
G04 #@! TD*
G04 #@! TA.AperFunction,Conductor*
G04 #@! TD*
G04 #@! TA.AperFunction,Conductor*
G04 #@! TD*
G04 APERTURE END LIST*
G04 #@! TO.C,REF\002A\002A*
D37*
X0000334083Y0002433914D02*
X0000334083Y0002394544D01*
X0000320022Y0002456411D02*
X0000305961Y0002414229D01*
X0000342519Y0002414229D01*
G04 #@! TD*
D38*
G04 #@! TO.N,GND*
G04 #@! TO.C,U1*
X0000425196Y0002956692D03*
X0000468503Y0002956692D03*
X0000511811Y0002956692D03*
X0000425196Y0002915354D03*
X0000468503Y0002915354D03*
X0000511811Y0002915354D03*
X0000425196Y0002874015D03*
X0000468503Y0002874015D03*
X0000511811Y0002874015D03*
G04 #@! TD*
D39*
G04 #@! TO.P,J2,2*
G04 #@! TO.N,GND*
X0000082677Y0002774606D03*
X0000082677Y0002997046D03*
G04 #@! TD*
G04 #@! TO.P,J4,2*
G04 #@! TO.N,GND*
X0001799212Y0002774606D03*
X0001799212Y0002997046D03*
G04 #@! TD*
D40*
G04 #@! TO.P,SW1,1*
G04 #@! TO.N,/nP_S*
X0001318110Y0002399409D03*
D41*
G04 #@! TO.P,SW1,9*
G04 #@! TO.N,+3.3VA*
X0000618110Y0002087598D03*
G04 #@! TO.P,SW1,2*
G04 #@! TO.N,Net-(R7-Pad1)*
X0001218110Y0002399409D03*
G04 #@! TO.P,SW1,10*
G04 #@! TO.N,+3.3VA*
X0000718110Y0002087598D03*
G04 #@! TO.P,SW1,3*
G04 #@! TO.N,Net-(R6-Pad1)*
X0001118110Y0002399409D03*
G04 #@! TO.P,SW1,11*
G04 #@! TO.N,+3.3VA*
X0000818110Y0002087598D03*
G04 #@! TO.P,SW1,4*
G04 #@! TO.N,Net-(R5-Pad1)*
X0001018110Y0002399409D03*
G04 #@! TO.P,SW1,12*
G04 #@! TO.N,+3.3VA*
X0000918110Y0002087598D03*
G04 #@! TO.P,SW1,5*
G04 #@! TO.N,Net-(R4-Pad1)*
X0000918110Y0002399409D03*
G04 #@! TO.P,SW1,13*
G04 #@! TO.N,+3.3VA*
X0001018110Y0002087598D03*
G04 #@! TO.P,SW1,6*
G04 #@! TO.N,Net-(R3-Pad1)*
X0000818110Y0002399409D03*
G04 #@! TO.P,SW1,14*
G04 #@! TO.N,+3.3VA*
X0001118110Y0002087598D03*
G04 #@! TO.P,SW1,7*
G04 #@! TO.N,Net-(R2-Pad1)*
X0000718110Y0002399409D03*
G04 #@! TO.P,SW1,15*
G04 #@! TO.N,+3.3VA*
X0001218110Y0002087598D03*
G04 #@! TO.P,SW1,8*
G04 #@! TO.N,Net-(R1-Pad1)*
X0000618110Y0002399409D03*
G04 #@! TO.P,SW1,16*
G04 #@! TO.N,+3.3VA*
X0001318110Y0002087598D03*
G04 #@! TD*
D42*
G04 #@! TO.P,H1,1*
G04 #@! TO.N,GND*
X0000263663Y0003743978D03*
X0000196850Y0003771653D03*
X0000130037Y0003743978D03*
X0000102362Y0003677165D03*
X0000130037Y0003610351D03*
X0000196850Y0003582676D03*
X0000263663Y0003610351D03*
X0000291338Y0003677165D03*
D43*
X0000196850Y0003677165D03*
G04 #@! TD*
G04 #@! TO.P,H2,1*
G04 #@! TO.N,GND*
X0001692913Y0002181102D03*
D42*
X0001787401Y0002181102D03*
X0001759726Y0002114288D03*
X0001692913Y0002086613D03*
X0001626100Y0002114288D03*
X0001598425Y0002181102D03*
X0001626100Y0002247915D03*
X0001692913Y0002275590D03*
X0001759726Y0002247915D03*
G04 #@! TD*
D43*
G04 #@! TO.P,H3,1*
G04 #@! TO.N,GND*
X0000196850Y0002181102D03*
D42*
X0000291338Y0002181102D03*
X0000263663Y0002114288D03*
X0000196850Y0002086613D03*
X0000130037Y0002114288D03*
X0000102362Y0002181102D03*
X0000130037Y0002247915D03*
X0000196850Y0002275590D03*
X0000263663Y0002247915D03*
G04 #@! TD*
G04 #@! TO.P,H4,1*
G04 #@! TO.N,GND*
X0001759726Y0003743978D03*
X0001692913Y0003771653D03*
X0001626100Y0003743978D03*
X0001598425Y0003677165D03*
X0001626100Y0003610351D03*
X0001692913Y0003582676D03*
X0001759726Y0003610351D03*
X0001787401Y0003677165D03*
D43*
X0001692913Y0003677165D03*
G04 #@! TD*
D44*
G04 #@! TO.P,J3,1*
G04 #@! TO.N,/SI*
X0000484251Y0003397637D03*
D45*
G04 #@! TO.P,J3,2*
G04 #@! TO.N,+5V*
X0000584251Y0003397637D03*
G04 #@! TO.P,J3,3*
G04 #@! TO.N,/LE*
X0000484251Y0003297637D03*
G04 #@! TO.P,J3,4*
G04 #@! TO.N,GND*
X0000584251Y0003297637D03*
G04 #@! TO.P,J3,5*
G04 #@! TO.N,/CLK*
X0000484251Y0003197637D03*
G04 #@! TO.P,J3,6*
G04 #@! TO.N,/RF_PWR*
X0000584251Y0003197637D03*
G04 #@! TD*
D46*
G04 #@! TO.N,GND*
X0000145669Y0003015747D03*
X0000125984Y0003015747D03*
X0000106299Y0003015747D03*
X0000086614Y0003015747D03*
X0000066929Y0003015747D03*
X0000047244Y0003015747D03*
X0000027559Y0003015747D03*
X0000007874Y0003015747D03*
X0000830708Y0003728346D03*
X0001074803Y0003728346D03*
X0001108267Y0003816928D03*
X0000998031Y0003816928D03*
X0000907480Y0003816928D03*
X0000797244Y0003816928D03*
X0000330708Y0003009842D03*
X0000289370Y0003009842D03*
D47*
X0000719488Y0002837598D03*
X0000794291Y0002837598D03*
D46*
X0001468503Y0003223424D03*
D47*
X0001392716Y0003310039D03*
X0001392716Y0003159448D03*
X0001110236Y0003330708D03*
D46*
X0001617519Y0003224409D03*
X0001486220Y0003338582D03*
X0001529527Y0003338582D03*
X0001289370Y0003104330D03*
X0001248031Y0003104330D03*
X0001208661Y0003104330D03*
X0001147637Y0003104330D03*
X0001309055Y0003033464D03*
X0001437007Y0003035432D03*
X0000757874Y0002923228D03*
X0000935039Y0003025590D03*
D47*
X0001007873Y0003362204D03*
D46*
X0000086614Y0002755905D03*
X0000027559Y0002755905D03*
X0000047244Y0002755905D03*
X0000106299Y0002755905D03*
X0000125984Y0002755905D03*
X0000066929Y0002755905D03*
X0000145669Y0002755905D03*
X0000007874Y0002755905D03*
X0001814960Y0002755905D03*
X0001775590Y0002755905D03*
X0001795275Y0002755905D03*
X0001874015Y0002755905D03*
X0001736220Y0002755905D03*
X0001834645Y0002755905D03*
X0001854330Y0002755905D03*
X0001755905Y0002755905D03*
X0001795275Y0003015747D03*
X0001874015Y0003015747D03*
X0001755905Y0003015747D03*
X0001736220Y0003015747D03*
X0001854330Y0003015747D03*
X0001814960Y0003015747D03*
X0001775590Y0003015747D03*
X0001834645Y0003015747D03*
D47*
X0000893700Y0003464566D03*
X0000901574Y0003645669D03*
D46*
X0000204724Y0002925196D03*
X0000204724Y0002925196D03*
X0000204724Y0002925196D03*
X0000224409Y0002925196D03*
X0000185039Y0002925196D03*
X0000165354Y0002925196D03*
X0000173228Y0002850393D03*
X0000192913Y0002850393D03*
X0000212598Y0002850393D03*
X0000232283Y0002850393D03*
X0000251968Y0002850393D03*
X0000271653Y0002850393D03*
X0000291338Y0002850393D03*
X0000311023Y0002850393D03*
X0000586614Y0002850393D03*
X0000606299Y0002850393D03*
X0000625984Y0002850393D03*
X0000645669Y0002850393D03*
X0000665354Y0002850393D03*
X0000685039Y0002850393D03*
X0000696850Y0002925196D03*
X0000677165Y0002917322D03*
X0000657480Y0002921259D03*
X0000637795Y0002921259D03*
X0000716535Y0002929133D03*
X0000736220Y0002929133D03*
X0000779527Y0002929133D03*
X0000799212Y0002929133D03*
X0000818897Y0002929133D03*
X0000838582Y0002917322D03*
X0000830708Y0002850393D03*
X0000885826Y0002850393D03*
X0000905511Y0002850393D03*
X0000925196Y0002850393D03*
X0000944881Y0002846456D03*
X0000976377Y0002925196D03*
X0000996062Y0002925196D03*
X0001015748Y0002921259D03*
X0001035433Y0002917322D03*
X0001055118Y0002917322D03*
X0001074803Y0002921259D03*
X0001094488Y0002925196D03*
X0001114173Y0002925196D03*
X0001133858Y0002925196D03*
X0001153543Y0002940944D03*
X0001173228Y0002956692D03*
X0001192913Y0002976377D03*
X0001212598Y0002988188D03*
X0001232283Y0002999999D03*
X0001251968Y0002999999D03*
X0001271653Y0002999999D03*
X0001220472Y0002881889D03*
X0001240157Y0002901574D03*
X0001263779Y0002917322D03*
X0001287401Y0002917322D03*
X0001244094Y0002925196D03*
X0001220472Y0002901574D03*
X0001267716Y0002937007D03*
X0001291338Y0002937007D03*
X0001311023Y0002925196D03*
X0001330708Y0002925196D03*
X0001350393Y0002925196D03*
X0001370078Y0002925196D03*
X0001389763Y0002925196D03*
X0001409448Y0002925196D03*
X0001429133Y0002925196D03*
X0001468503Y0002925196D03*
X0001488188Y0002925196D03*
X0001448818Y0002925196D03*
X0001527559Y0002925196D03*
X0001507874Y0002925196D03*
X0001566929Y0002925196D03*
X0001547244Y0002925196D03*
X0001606299Y0002925196D03*
X0001586614Y0002925196D03*
X0001685039Y0002925196D03*
X0001665354Y0002925196D03*
X0001704724Y0002925196D03*
X0001645669Y0002925196D03*
X0001625984Y0002925196D03*
X0001330708Y0002850393D03*
X0001350393Y0002850393D03*
X0001311023Y0002850393D03*
X0001685039Y0002850393D03*
X0001468503Y0002850393D03*
X0001448818Y0002850393D03*
X0001547244Y0002850393D03*
X0001389763Y0002850393D03*
X0001527559Y0002850393D03*
X0001606299Y0002850393D03*
X0001566929Y0002850393D03*
X0001507874Y0002850393D03*
X0001488188Y0002850393D03*
X0001370078Y0002850393D03*
X0001645669Y0002850393D03*
X0001586614Y0002850393D03*
X0001429133Y0002850393D03*
X0001625984Y0002850393D03*
X0001665354Y0002850393D03*
X0001704724Y0002850393D03*
X0001409448Y0002850393D03*
X0001291338Y0002850393D03*
X0001291338Y0002850393D03*
X0001291338Y0002850393D03*
X0001271653Y0002834645D03*
X0001255905Y0002814960D03*
X0001244094Y0002795275D03*
X0001224409Y0002783464D03*
X0001200787Y0002787401D03*
X0001181102Y0002799212D03*
X0001165354Y0002818897D03*
X0001165354Y0002818897D03*
X0001165354Y0002818897D03*
X0001149606Y0002838582D03*
X0001129921Y0002842519D03*
X0001110236Y0002842519D03*
X0001090551Y0002842519D03*
X0001070866Y0002850393D03*
X0001051181Y0002850393D03*
X0001618110Y0003145669D03*
X0001618110Y0003066928D03*
X0001618110Y0003106298D03*
X0001618110Y0003047243D03*
X0001618110Y0003086613D03*
X0001618110Y0003125983D03*
X0001618110Y0003165354D03*
X0001543307Y0003157480D03*
X0001543307Y0003137795D03*
X0001543307Y0003118109D03*
X0001543307Y0003078739D03*
X0001543307Y0003059054D03*
X0001543307Y0003098424D03*
X0001527559Y0003039369D03*
X0001511811Y0003019684D03*
X0001488188Y0003007873D03*
X0001464566Y0003003936D03*
X0001405511Y0003007873D03*
X0001385826Y0003007873D03*
X0001366141Y0003007873D03*
X0001366141Y0003007873D03*
X0001366141Y0003007873D03*
X0001346456Y0003007873D03*
X0001614173Y0003027558D03*
X0001594488Y0003007873D03*
X0001574803Y0002988188D03*
X0001555118Y0002968503D03*
X0001535433Y0002952755D03*
X0001519685Y0003153543D03*
X0001496062Y0003153543D03*
X0001476377Y0003157480D03*
X0001452755Y0003161417D03*
X0001429133Y0003161417D03*
X0000393700Y0003775590D03*
X0000590551Y0003775590D03*
X0000492125Y0003677165D03*
X0000492125Y0003480314D03*
X0000393700Y0003578739D03*
X0000590551Y0003578739D03*
X0000295275Y0003480314D03*
X0000196850Y0003381889D03*
X0000098425Y0003283464D03*
X0000196850Y0003185039D03*
X0000098425Y0003086613D03*
X0000295275Y0003283464D03*
X0000393700Y0003381889D03*
X0000688976Y0003677165D03*
X0000688976Y0003480314D03*
X0000787401Y0003381889D03*
X0000688976Y0003086613D03*
X0000688976Y0003283464D03*
X0001181102Y0003677165D03*
X0001377952Y0003677165D03*
X0001279527Y0003775590D03*
X0001476377Y0003775590D03*
X0001476377Y0003578739D03*
X0001279527Y0003578739D03*
X0001181102Y0003480314D03*
X0001377952Y0003480314D03*
X0001574803Y0003480314D03*
X0001771653Y0003480314D03*
X0001673228Y0003381889D03*
X0001771653Y0003283464D03*
X0001574803Y0003283464D03*
X0001673228Y0003185039D03*
X0001673228Y0002988188D03*
X0001771653Y0003086613D03*
X0001673228Y0002791338D03*
X0001673228Y0002594487D03*
X0001673228Y0002397637D03*
X0001771653Y0002496062D03*
X0001771653Y0002692913D03*
X0001574803Y0002692913D03*
X0001574803Y0002496062D03*
X0001574803Y0002299212D03*
X0001476377Y0002397637D03*
X0001476377Y0002594487D03*
X0001476377Y0002791338D03*
X0001377952Y0002692913D03*
X0001377952Y0002496062D03*
X0000196850Y0002988188D03*
X0000196850Y0002791338D03*
X0000098425Y0002692913D03*
X0000295275Y0002692913D03*
X0000393700Y0002594487D03*
X0000492125Y0002496062D03*
X0000393700Y0002397637D03*
X0000295275Y0002299212D03*
X0000196850Y0002496062D03*
X0000098425Y0002594487D03*
X0000098425Y0002397637D03*
X0000393700Y0002200787D03*
X0000492125Y0002102361D03*
X0000492125Y0002299212D03*
X0000688976Y0002692913D03*
X0000590551Y0002791338D03*
X0000885826Y0002692913D03*
X0001476377Y0002200787D03*
X0000787401Y0003578739D03*
G04 #@! TO.N,+3.3VA*
X0000289370Y0002921259D03*
X0000263779Y0002944881D03*
X0001179133Y0003169291D03*
D47*
X0001145669Y0003401574D03*
X0001110236Y0003433070D03*
D46*
G04 #@! TO.N,/RF_PWR*
X0001230314Y0003318897D03*
G04 #@! TO.N,Net-(R1-Pad1)*
X0000361220Y0002986220D03*
X0000562992Y0002547243D03*
G04 #@! TO.N,Net-(R2-Pad1)*
X0000415412Y0003039601D03*
X0000667325Y0002541338D03*
G04 #@! TO.N,Net-(R3-Pad1)*
X0000437992Y0003027558D03*
X0000767716Y0002537892D03*
G04 #@! TO.N,Net-(R4-Pad1)*
X0000866141Y0002543306D03*
X0000458661Y0003046714D03*
G04 #@! TO.N,Net-(R5-Pad1)*
X0000968503Y0002539369D03*
X0000479331Y0003031495D03*
G04 #@! TO.N,Net-(R6-Pad1)*
X0001070866Y0002535432D03*
X0000497047Y0003050942D03*
G04 #@! TO.N,Net-(R7-Pad1)*
X0001167322Y0002539369D03*
X0000517716Y0003066928D03*
G04 #@! TO.N,/nP_S*
X0000340550Y0002909448D03*
X0001267716Y0002537401D03*
G04 #@! TD*
D48*
G04 #@! TO.N,/RF_PWR*
X0000746850Y0003197637D02*
X0000584251Y0003197637D01*
X0001230314Y0003318897D02*
X0001109055Y0003197637D01*
X0001109055Y0003197637D02*
X0000746850Y0003197637D01*
D49*
G04 #@! TO.N,Net-(R1-Pad1)*
X0000640944Y0002399409D02*
X0000618110Y0002399409D01*
D50*
X0000361220Y0002986220D02*
X0000361220Y0002810039D01*
X0000361220Y0002810039D02*
X0000562992Y0002608267D01*
X0000562992Y0002547243D02*
X0000562992Y0002608267D01*
G04 #@! TO.N,Net-(R2-Pad1)*
X0000381889Y0003006078D02*
X0000381889Y0002826773D01*
X0000381889Y0002826773D02*
X0000658466Y0002550196D01*
X0000658466Y0002550196D02*
X0000667325Y0002541338D01*
X0000415412Y0003039601D02*
X0000381889Y0003006078D01*
G04 #@! TO.N,Net-(R3-Pad1)*
X0000767224Y0002537892D02*
X0000767716Y0002537892D01*
X0000437992Y0003008857D02*
X0000397637Y0002968503D01*
X0000437992Y0003027558D02*
X0000437992Y0003008857D01*
X0000397637Y0002968503D02*
X0000397637Y0002848424D01*
X0000397637Y0002848424D02*
X0000685039Y0002561023D01*
X0000685039Y0002561023D02*
X0000744094Y0002561023D01*
X0000744094Y0002561023D02*
X0000767224Y0002537892D01*
D49*
G04 #@! TO.N,Net-(R4-Pad1)*
X0000932086Y0002385432D02*
X0000918110Y0002399409D01*
D50*
X0000866141Y0002925195D02*
X0000791338Y0002999999D01*
X0000866141Y0002543306D02*
X0000866141Y0002925195D01*
X0000791338Y0002999999D02*
X0000479598Y0002999999D01*
X0000479598Y0002999999D02*
X0000458661Y0003020936D01*
X0000458661Y0003046714D02*
X0000458661Y0003020936D01*
D49*
G04 #@! TO.N,Net-(R5-Pad1)*
X0001010826Y0002392125D02*
X0001018110Y0002399409D01*
D50*
X0000968503Y0002818897D02*
X0000968503Y0002539369D01*
X0000968503Y0002850393D02*
X0000968503Y0002818897D01*
X0000803149Y0003015747D02*
X0000968503Y0002850393D01*
X0000479331Y0003031495D02*
X0000495079Y0003015747D01*
X0000495079Y0003015747D02*
X0000803149Y0003015747D01*
G04 #@! TO.N,Net-(R6-Pad1)*
X0000502714Y0003045275D02*
X0000497047Y0003050942D01*
X0000531496Y0003045275D02*
X0000502714Y0003045275D01*
X0000545275Y0003031495D02*
X0000531496Y0003045275D01*
X0000811023Y0003031495D02*
X0000545275Y0003031495D01*
X0001070866Y0002535432D02*
X0001070866Y0002771653D01*
X0001070866Y0002771653D02*
X0000811023Y0003031495D01*
G04 #@! TO.N,Net-(R7-Pad1)*
X0000819684Y0003048425D02*
X0001167322Y0002700787D01*
X0000561810Y0003048425D02*
X0000819684Y0003048425D01*
X0000517716Y0003066928D02*
X0000543307Y0003066928D01*
X0000543307Y0003066928D02*
X0000561810Y0003048425D01*
X0001167322Y0002700787D02*
X0001167322Y0002539369D01*
G04 #@! TO.N,/nP_S*
X0001232143Y0002466395D02*
X0001267716Y0002501968D01*
X0000555257Y0002466395D02*
X0001232143Y0002466395D01*
X0000533464Y0002488188D02*
X0000555257Y0002466395D01*
X0000533464Y0002596456D02*
X0000533464Y0002488188D01*
X0000340550Y0002909448D02*
X0000340550Y0002789370D01*
X0000340550Y0002789370D02*
X0000533464Y0002596456D01*
X0001267716Y0002537401D02*
X0001267716Y0002501968D01*
G04 #@! TD*
D51*
G04 #@! TO.N,GND*
G36*
X0001722858Y0003843595D02*
X0001751857Y0003835662D01*
X0001778993Y0003822718D01*
X0001803408Y0003805174D01*
X0001824330Y0003783585D01*
X0001841099Y0003758630D01*
X0001853183Y0003731102D01*
X0001860253Y0003701655D01*
X0001862125Y0003676151D01*
X0001862126Y0002182333D01*
X0001859343Y0002151156D01*
X0001851410Y0002122157D01*
X0001838467Y0002095021D01*
X0001820923Y0002070606D01*
X0001799333Y0002049684D01*
X0001774379Y0002032916D01*
X0001746850Y0002020831D01*
X0001717403Y0002013762D01*
X0001691899Y0002011889D01*
X0000198081Y0002011889D01*
X0000166904Y0002014671D01*
X0000137906Y0002022605D01*
X0000110770Y0002035548D01*
X0000086355Y0002053092D01*
X0000066710Y0002073363D01*
X0000096183Y0002073363D01*
X0000110647Y0002053946D01*
X0000165869Y0002030637D01*
X0000225807Y0002030234D01*
X0000281337Y0002052800D01*
X0000283053Y0002053946D01*
X0000297517Y0002073363D01*
X0000196850Y0002174031D01*
X0000096183Y0002073363D01*
X0000066710Y0002073363D01*
X0000065432Y0002074682D01*
X0000048664Y0002099636D01*
X0000036580Y0002127165D01*
X0000030583Y0002152144D01*
X0000045983Y0002152144D01*
X0000068548Y0002096614D01*
X0000069695Y0002094898D01*
X0000089112Y0002080434D01*
X0000189779Y0002181102D01*
X0000203921Y0002181102D01*
X0000304588Y0002080434D01*
X0000314204Y0002087598D01*
X0000560828Y0002087598D01*
X0000565188Y0002065677D01*
X0000577605Y0002047093D01*
X0000596189Y0002034676D01*
X0000612576Y0002031417D01*
X0000623643Y0002031417D01*
X0000640031Y0002034676D01*
X0000658614Y0002047093D01*
X0000668110Y0002061305D01*
X0000677605Y0002047093D01*
X0000696189Y0002034676D01*
X0000712577Y0002031417D01*
X0000723643Y0002031417D01*
X0000740031Y0002034676D01*
X0000758614Y0002047093D01*
X0000768110Y0002061305D01*
X0000777605Y0002047093D01*
X0000796189Y0002034676D01*
X0000812576Y0002031417D01*
X0000823643Y0002031417D01*
X0000840031Y0002034676D01*
X0000858614Y0002047093D01*
X0000868110Y0002061305D01*
X0000877605Y0002047093D01*
X0000896189Y0002034676D01*
X0000912576Y0002031417D01*
X0000923643Y0002031417D01*
X0000940031Y0002034676D01*
X0000958614Y0002047093D01*
X0000968110Y0002061305D01*
X0000977605Y0002047093D01*
X0000996189Y0002034676D01*
X0001012577Y0002031417D01*
X0001023643Y0002031417D01*
X0001040030Y0002034676D01*
X0001058614Y0002047093D01*
X0001068110Y0002061305D01*
X0001077605Y0002047093D01*
X0001096189Y0002034676D01*
X0001112577Y0002031417D01*
X0001123643Y0002031417D01*
X0001140030Y0002034676D01*
X0001158614Y0002047093D01*
X0001168110Y0002061305D01*
X0001177605Y0002047093D01*
X0001196189Y0002034676D01*
X0001212576Y0002031417D01*
X0001223643Y0002031417D01*
X0001240031Y0002034676D01*
X0001258614Y0002047093D01*
X0001268110Y0002061305D01*
X0001277605Y0002047093D01*
X0001296189Y0002034676D01*
X0001312577Y0002031417D01*
X0001323643Y0002031417D01*
X0001340031Y0002034676D01*
X0001358614Y0002047093D01*
X0001371031Y0002065677D01*
X0001372560Y0002073363D01*
X0001592246Y0002073363D01*
X0001606710Y0002053946D01*
X0001661932Y0002030637D01*
X0001721870Y0002030234D01*
X0001777400Y0002052800D01*
X0001779116Y0002053946D01*
X0001793580Y0002073363D01*
X0001692913Y0002174031D01*
X0001592246Y0002073363D01*
X0001372560Y0002073363D01*
X0001375391Y0002087598D01*
X0001371031Y0002109518D01*
X0001358614Y0002128102D01*
X0001340031Y0002140519D01*
X0001323643Y0002143779D01*
X0001312577Y0002143779D01*
X0001296189Y0002140519D01*
X0001277605Y0002128102D01*
X0001268110Y0002113891D01*
X0001258614Y0002128102D01*
X0001240031Y0002140519D01*
X0001223643Y0002143779D01*
X0001212576Y0002143779D01*
X0001196189Y0002140519D01*
X0001177605Y0002128102D01*
X0001168110Y0002113891D01*
X0001158614Y0002128102D01*
X0001140030Y0002140519D01*
X0001123643Y0002143779D01*
X0001112577Y0002143779D01*
X0001096189Y0002140519D01*
X0001077605Y0002128102D01*
X0001068110Y0002113891D01*
X0001058614Y0002128102D01*
X0001040030Y0002140519D01*
X0001023643Y0002143779D01*
X0001012577Y0002143779D01*
X0000996189Y0002140519D01*
X0000977605Y0002128102D01*
X0000968110Y0002113891D01*
X0000958614Y0002128102D01*
X0000940031Y0002140519D01*
X0000923643Y0002143779D01*
X0000912576Y0002143779D01*
X0000896189Y0002140519D01*
X0000877605Y0002128102D01*
X0000868110Y0002113891D01*
X0000858614Y0002128102D01*
X0000840031Y0002140519D01*
X0000823643Y0002143779D01*
X0000812576Y0002143779D01*
X0000796189Y0002140519D01*
X0000777605Y0002128102D01*
X0000768110Y0002113891D01*
X0000758614Y0002128102D01*
X0000740031Y0002140519D01*
X0000723643Y0002143779D01*
X0000712577Y0002143779D01*
X0000696189Y0002140519D01*
X0000677605Y0002128102D01*
X0000668110Y0002113891D01*
X0000658614Y0002128102D01*
X0000640031Y0002140519D01*
X0000623643Y0002143779D01*
X0000612576Y0002143779D01*
X0000596189Y0002140519D01*
X0000577605Y0002128102D01*
X0000565188Y0002109518D01*
X0000560828Y0002087598D01*
X0000314204Y0002087598D01*
X0000324005Y0002094898D01*
X0000347314Y0002150120D01*
X0000347328Y0002152144D01*
X0001542046Y0002152144D01*
X0001564611Y0002096614D01*
X0001565758Y0002094898D01*
X0001585175Y0002080434D01*
X0001685842Y0002181102D01*
X0001699984Y0002181102D01*
X0001800651Y0002080434D01*
X0001820068Y0002094898D01*
X0001843377Y0002150120D01*
X0001843780Y0002210059D01*
X0001821214Y0002265589D01*
X0001820068Y0002267305D01*
X0001800651Y0002281769D01*
X0001699984Y0002181102D01*
X0001685842Y0002181102D01*
X0001585175Y0002281769D01*
X0001565758Y0002267305D01*
X0001542448Y0002212083D01*
X0001542046Y0002152144D01*
X0000347328Y0002152144D01*
X0000347717Y0002210059D01*
X0000325151Y0002265589D01*
X0000324005Y0002267305D01*
X0000304588Y0002281769D01*
X0000203921Y0002181102D01*
X0000189779Y0002181102D01*
X0000089112Y0002281769D01*
X0000069695Y0002267305D01*
X0000046385Y0002212083D01*
X0000045983Y0002152144D01*
X0000030583Y0002152144D01*
X0000029510Y0002156611D01*
X0000027637Y0002182115D01*
X0000027637Y0002288840D01*
X0000096183Y0002288840D01*
X0000196850Y0002188173D01*
X0000297517Y0002288840D01*
X0001592246Y0002288840D01*
X0001692913Y0002188173D01*
X0001793580Y0002288840D01*
X0001779116Y0002308257D01*
X0001723894Y0002331566D01*
X0001663956Y0002331969D01*
X0001608425Y0002309403D01*
X0001606710Y0002308257D01*
X0001592246Y0002288840D01*
X0000297517Y0002288840D01*
X0000283053Y0002308257D01*
X0000227831Y0002331566D01*
X0000167893Y0002331969D01*
X0000112362Y0002309403D01*
X0000110647Y0002308257D01*
X0000096183Y0002288840D01*
X0000027637Y0002288840D01*
X0000027637Y0002472440D01*
X0000109173Y0002472440D01*
X0000109173Y0002379920D01*
X0000109553Y0002378007D01*
X0000110637Y0002376385D01*
X0000112259Y0002375301D01*
X0000114173Y0002374920D01*
X0000354330Y0002374920D01*
X0000356244Y0002375301D01*
X0000357866Y0002376385D01*
X0000358950Y0002378007D01*
X0000359330Y0002379920D01*
X0000359330Y0002472440D01*
X0000358950Y0002474354D01*
X0000357866Y0002475976D01*
X0000356244Y0002477060D01*
X0000354330Y0002477440D01*
X0000114173Y0002477440D01*
X0000112259Y0002477060D01*
X0000110637Y0002475976D01*
X0000109553Y0002474354D01*
X0000109173Y0002472440D01*
X0000027637Y0002472440D01*
X0000027637Y0002951553D01*
X0000230236Y0002951553D01*
X0000230236Y0002938209D01*
X0000235342Y0002925880D01*
X0000244778Y0002916444D01*
X0000257107Y0002911338D01*
X0000257172Y0002911338D01*
X0000260933Y0002902258D01*
X0000270369Y0002892822D01*
X0000282697Y0002887716D01*
X0000296042Y0002887716D01*
X0000308370Y0002892822D01*
X0000310322Y0002894774D01*
X0000311928Y0002890895D01*
X0000311928Y0002792189D01*
X0000311368Y0002789370D01*
X0000313589Y0002778202D01*
X0000313589Y0002778202D01*
X0000319915Y0002768734D01*
X0000322305Y0002767138D01*
X0000504842Y0002584600D01*
X0000504842Y0002491007D01*
X0000504281Y0002488188D01*
X0000506503Y0002477020D01*
X0000507849Y0002475006D01*
X0000512829Y0002467553D01*
X0000515218Y0002465956D01*
X0000533025Y0002448149D01*
X0000534622Y0002445760D01*
X0000544090Y0002439433D01*
X0000552439Y0002437773D01*
X0000552439Y0002437773D01*
X0000555257Y0002437212D01*
X0000558076Y0002437773D01*
X0000576175Y0002437773D01*
X0000565188Y0002421329D01*
X0000560828Y0002399409D01*
X0000565188Y0002377488D01*
X0000577605Y0002358904D01*
X0000596189Y0002346487D01*
X0000612576Y0002343228D01*
X0000623643Y0002343228D01*
X0000640031Y0002346487D01*
X0000658614Y0002358904D01*
X0000668110Y0002373116D01*
X0000677605Y0002358904D01*
X0000696189Y0002346487D01*
X0000712577Y0002343228D01*
X0000723643Y0002343228D01*
X0000740031Y0002346487D01*
X0000758614Y0002358904D01*
X0000768110Y0002373116D01*
X0000777605Y0002358904D01*
X0000796189Y0002346487D01*
X0000812576Y0002343228D01*
X0000823643Y0002343228D01*
X0000840031Y0002346487D01*
X0000858614Y0002358904D01*
X0000868110Y0002373116D01*
X0000877605Y0002358904D01*
X0000896189Y0002346487D01*
X0000912576Y0002343228D01*
X0000923643Y0002343228D01*
X0000940031Y0002346487D01*
X0000958614Y0002358904D01*
X0000968110Y0002373116D01*
X0000977605Y0002358904D01*
X0000996189Y0002346487D01*
X0001012577Y0002343228D01*
X0001023643Y0002343228D01*
X0001040030Y0002346487D01*
X0001058614Y0002358904D01*
X0001068110Y0002373116D01*
X0001077605Y0002358904D01*
X0001096189Y0002346487D01*
X0001112577Y0002343228D01*
X0001123643Y0002343228D01*
X0001140030Y0002346487D01*
X0001158614Y0002358904D01*
X0001168110Y0002373116D01*
X0001177605Y0002358904D01*
X0001196189Y0002346487D01*
X0001212576Y0002343228D01*
X0001223643Y0002343228D01*
X0001240031Y0002346487D01*
X0001258614Y0002358904D01*
X0001262176Y0002364236D01*
X0001263361Y0002358281D01*
X0001268817Y0002350116D01*
X0001276982Y0002344660D01*
X0001286614Y0002342744D01*
X0001349606Y0002342744D01*
X0001359237Y0002344660D01*
X0001367403Y0002350116D01*
X0001372859Y0002358281D01*
X0001374774Y0002367913D01*
X0001374774Y0002430905D01*
X0001372859Y0002440536D01*
X0001367403Y0002448702D01*
X0001359237Y0002454157D01*
X0001349606Y0002456073D01*
X0001286614Y0002456073D01*
X0001276982Y0002454157D01*
X0001268817Y0002448702D01*
X0001263361Y0002440536D01*
X0001262176Y0002434582D01*
X0001258614Y0002439913D01*
X0001251321Y0002444786D01*
X0001252778Y0002445760D01*
X0001254375Y0002448149D01*
X0001285962Y0002479736D01*
X0001288351Y0002481332D01*
X0001294677Y0002490800D01*
X0001296338Y0002499149D01*
X0001296338Y0002499149D01*
X0001296899Y0002501968D01*
X0001296338Y0002504786D01*
X0001296338Y0002518848D01*
X0001301259Y0002530729D01*
X0001301259Y0002544073D01*
X0001296153Y0002556402D01*
X0001286717Y0002565837D01*
X0001274388Y0002570944D01*
X0001261044Y0002570944D01*
X0001248715Y0002565837D01*
X0001239279Y0002556402D01*
X0001234173Y0002544073D01*
X0001234173Y0002530729D01*
X0001239094Y0002518848D01*
X0001239094Y0002513823D01*
X0001220288Y0002495017D01*
X0000567113Y0002495017D01*
X0000562086Y0002500044D01*
X0000562086Y0002513700D01*
X0000569664Y0002513700D01*
X0000581992Y0002518807D01*
X0000591428Y0002528243D01*
X0000596535Y0002540571D01*
X0000596535Y0002553915D01*
X0000591614Y0002565796D01*
X0000591614Y0002576571D01*
X0000633967Y0002534218D01*
X0000638888Y0002522337D01*
X0000648324Y0002512901D01*
X0000660652Y0002507795D01*
X0000673997Y0002507795D01*
X0000686325Y0002512901D01*
X0000695761Y0002522337D01*
X0000699930Y0002532401D01*
X0000732238Y0002532401D01*
X0000734706Y0002529933D01*
X0000739279Y0002518892D01*
X0000748715Y0002509456D01*
X0000761044Y0002504349D01*
X0000774388Y0002504349D01*
X0000786717Y0002509456D01*
X0000796153Y0002518892D01*
X0000801259Y0002531220D01*
X0000801259Y0002544565D01*
X0000796153Y0002556893D01*
X0000786717Y0002566329D01*
X0000774388Y0002571436D01*
X0000774159Y0002571436D01*
X0000766326Y0002579268D01*
X0000764729Y0002581658D01*
X0000755262Y0002587984D01*
X0000746913Y0002589645D01*
X0000746913Y0002589645D01*
X0000744094Y0002590206D01*
X0000741275Y0002589645D01*
X0000696895Y0002589645D01*
X0000426259Y0002860280D01*
X0000426259Y0002956648D01*
X0000454366Y0002984754D01*
X0000457366Y0002981753D01*
X0000458963Y0002979364D01*
X0000468431Y0002973037D01*
X0000476780Y0002971377D01*
X0000476780Y0002971377D01*
X0000479598Y0002970816D01*
X0000482417Y0002971377D01*
X0000779482Y0002971377D01*
X0000837519Y0002913340D01*
X0000837519Y0002561860D01*
X0000832598Y0002549978D01*
X0000832598Y0002536634D01*
X0000837705Y0002524306D01*
X0000847140Y0002514870D01*
X0000859469Y0002509763D01*
X0000872813Y0002509763D01*
X0000885142Y0002514870D01*
X0000894578Y0002524306D01*
X0000899685Y0002536634D01*
X0000899685Y0002549978D01*
X0000894763Y0002561859D01*
X0000894763Y0002883655D01*
X0000939881Y0002838537D01*
X0000939881Y0002821716D01*
X0000939881Y0002557923D01*
X0000934960Y0002546041D01*
X0000934960Y0002532697D01*
X0000940067Y0002520369D01*
X0000949503Y0002510933D01*
X0000961831Y0002505826D01*
X0000975176Y0002505826D01*
X0000987504Y0002510933D01*
X0000996940Y0002520369D01*
X0001002047Y0002532697D01*
X0001002047Y0002546041D01*
X0000997125Y0002557922D01*
X0000997125Y0002804915D01*
X0001042244Y0002759797D01*
X0001042244Y0002553985D01*
X0001037322Y0002542104D01*
X0001037322Y0002528760D01*
X0001042429Y0002516432D01*
X0001051865Y0002506996D01*
X0001064193Y0002501889D01*
X0001077538Y0002501889D01*
X0001089866Y0002506996D01*
X0001099302Y0002516432D01*
X0001104409Y0002528760D01*
X0001104409Y0002542104D01*
X0001099488Y0002553985D01*
X0001099488Y0002728144D01*
X0001138700Y0002688931D01*
X0001138700Y0002557923D01*
X0001133779Y0002546041D01*
X0001133779Y0002532697D01*
X0001138886Y0002520369D01*
X0001148322Y0002510933D01*
X0001160650Y0002505826D01*
X0001173994Y0002505826D01*
X0001186323Y0002510933D01*
X0001195759Y0002520369D01*
X0001200866Y0002532697D01*
X0001200866Y0002546041D01*
X0001195944Y0002557922D01*
X0001195944Y0002697968D01*
X0001196505Y0002700787D01*
X0001195944Y0002703605D01*
X0001195944Y0002703605D01*
X0001194284Y0002711954D01*
X0001191368Y0002716318D01*
X0001189554Y0002719032D01*
X0001189554Y0002719032D01*
X0001187958Y0002721422D01*
X0001185568Y0002723019D01*
X0000841916Y0003066671D01*
X0000840319Y0003069061D01*
X0000830851Y0003075387D01*
X0000822502Y0003077047D01*
X0000822502Y0003077047D01*
X0000819684Y0003077608D01*
X0000816865Y0003077047D01*
X0000573665Y0003077047D01*
X0000565539Y0003085174D01*
X0000563942Y0003087564D01*
X0000554474Y0003093890D01*
X0000546125Y0003095550D01*
X0000546125Y0003095550D01*
X0000543307Y0003096111D01*
X0000540488Y0003095550D01*
X0000536269Y0003095550D01*
X0000524388Y0003100472D01*
X0000511044Y0003100472D01*
X0000498715Y0003095365D01*
X0000489279Y0003085929D01*
X0000488331Y0003083639D01*
X0000478046Y0003079379D01*
X0000474944Y0003076276D01*
X0000465333Y0003080257D01*
X0000451989Y0003080257D01*
X0000439660Y0003075150D01*
X0000433093Y0003068584D01*
X0000422084Y0003073144D01*
X0000408739Y0003073144D01*
X0000396411Y0003068038D01*
X0000386975Y0003058602D01*
X0000382054Y0003046721D01*
X0000363643Y0003028310D01*
X0000361254Y0003026713D01*
X0000356609Y0003019763D01*
X0000354547Y0003019763D01*
X0000342219Y0003014656D01*
X0000332783Y0003005220D01*
X0000327676Y0002992892D01*
X0000327676Y0002979548D01*
X0000332598Y0002967667D01*
X0000332598Y0002942461D01*
X0000321550Y0002937885D01*
X0000319598Y0002935933D01*
X0000317806Y0002940260D01*
X0000308370Y0002949696D01*
X0000296042Y0002954802D01*
X0000295976Y0002954802D01*
X0000292216Y0002963882D01*
X0000282780Y0002973318D01*
X0000270451Y0002978424D01*
X0000257107Y0002978424D01*
X0000244778Y0002973318D01*
X0000235342Y0002963882D01*
X0000230236Y0002951553D01*
X0000027637Y0002951553D01*
X0000027637Y0003297637D01*
X0000424963Y0003297637D01*
X0000429476Y0003274948D01*
X0000442328Y0003255713D01*
X0000454415Y0003247637D01*
X0000442328Y0003239561D01*
X0000429476Y0003220326D01*
X0000424963Y0003197637D01*
X0000429476Y0003174948D01*
X0000442328Y0003155713D01*
X0000461563Y0003142861D01*
X0000478524Y0003139487D01*
X0000489979Y0003139487D01*
X0000506940Y0003142861D01*
X0000526175Y0003155713D01*
X0000534251Y0003167801D01*
X0000542328Y0003155713D01*
X0000561563Y0003142861D01*
X0000578524Y0003139487D01*
X0000589979Y0003139487D01*
X0000606940Y0003142861D01*
X0000626175Y0003155713D01*
X0000634405Y0003168031D01*
X0001106139Y0003168031D01*
X0001109055Y0003167451D01*
X0001111970Y0003168031D01*
X0001111970Y0003168031D01*
X0001120606Y0003169749D01*
X0001129907Y0003175963D01*
X0001145590Y0003175963D01*
X0001145590Y0003162618D01*
X0001150697Y0003150290D01*
X0001160133Y0003140854D01*
X0001172461Y0003135747D01*
X0001185806Y0003135747D01*
X0001198134Y0003140854D01*
X0001207570Y0003150290D01*
X0001212677Y0003162618D01*
X0001212677Y0003175963D01*
X0001207570Y0003188291D01*
X0001198134Y0003197727D01*
X0001185806Y0003202834D01*
X0001172461Y0003202834D01*
X0001160133Y0003197727D01*
X0001150697Y0003188291D01*
X0001145590Y0003175963D01*
X0001129907Y0003175963D01*
X0001130400Y0003176292D01*
X0001132051Y0003178764D01*
X0001239810Y0003286523D01*
X0001249315Y0003290460D01*
X0001258751Y0003299896D01*
X0001263858Y0003312225D01*
X0001263858Y0003325569D01*
X0001258751Y0003337898D01*
X0001249315Y0003347334D01*
X0001236987Y0003352440D01*
X0001223642Y0003352440D01*
X0001211314Y0003347334D01*
X0001201878Y0003337898D01*
X0001197941Y0003328393D01*
X0001096791Y0003227243D01*
X0000634405Y0003227243D01*
X0000626175Y0003239561D01*
X0000613204Y0003248228D01*
X0000618785Y0003250852D01*
X0000634060Y0003267629D01*
X0000640690Y0003283636D01*
X0000635989Y0003292637D01*
X0000589251Y0003292637D01*
X0000589251Y0003291850D01*
X0000579251Y0003291850D01*
X0000579251Y0003292637D01*
X0000578464Y0003292637D01*
X0000578464Y0003302637D01*
X0000579251Y0003302637D01*
X0000579251Y0003303424D01*
X0000589251Y0003303424D01*
X0000589251Y0003302637D01*
X0000635989Y0003302637D01*
X0000640690Y0003311638D01*
X0000634060Y0003327645D01*
X0000618785Y0003344422D01*
X0000613204Y0003347046D01*
X0000626175Y0003355713D01*
X0000639027Y0003374948D01*
X0000643540Y0003397637D01*
X0000639027Y0003420326D01*
X0000626175Y0003439561D01*
X0000623852Y0003441113D01*
X0001069803Y0003441113D01*
X0001069803Y0003425027D01*
X0001075958Y0003410167D01*
X0001087332Y0003398793D01*
X0001102193Y0003392637D01*
X0001105606Y0003392637D01*
X0001111391Y0003378671D01*
X0001122765Y0003367297D01*
X0001137626Y0003361141D01*
X0001153711Y0003361141D01*
X0001168572Y0003367297D01*
X0001179946Y0003378671D01*
X0001186102Y0003393531D01*
X0001186102Y0003409617D01*
X0001179946Y0003424478D01*
X0001168572Y0003435852D01*
X0001153711Y0003442007D01*
X0001150298Y0003442007D01*
X0001144513Y0003455974D01*
X0001133139Y0003467348D01*
X0001118278Y0003473503D01*
X0001102193Y0003473503D01*
X0001087332Y0003467348D01*
X0001075958Y0003455974D01*
X0001069803Y0003441113D01*
X0000623852Y0003441113D01*
X0000606940Y0003452413D01*
X0000589979Y0003455787D01*
X0000578524Y0003455787D01*
X0000561563Y0003452413D01*
X0000542328Y0003439561D01*
X0000541460Y0003438262D01*
X0000540969Y0003440733D01*
X0000535513Y0003448898D01*
X0000527348Y0003454354D01*
X0000517716Y0003456270D01*
X0000450787Y0003456270D01*
X0000441155Y0003454354D01*
X0000432990Y0003448898D01*
X0000427534Y0003440733D01*
X0000425618Y0003431102D01*
X0000425618Y0003364172D01*
X0000427534Y0003354541D01*
X0000432990Y0003346376D01*
X0000441155Y0003340920D01*
X0000443626Y0003340428D01*
X0000442328Y0003339561D01*
X0000429476Y0003320326D01*
X0000424963Y0003297637D01*
X0000027637Y0003297637D01*
X0000027637Y0003569426D01*
X0000096183Y0003569426D01*
X0000110647Y0003550009D01*
X0000165869Y0003526700D01*
X0000225807Y0003526297D01*
X0000281337Y0003548863D01*
X0000283053Y0003550009D01*
X0000297517Y0003569426D01*
X0001592246Y0003569426D01*
X0001606710Y0003550009D01*
X0001661932Y0003526700D01*
X0001721870Y0003526297D01*
X0001777400Y0003548863D01*
X0001779116Y0003550009D01*
X0001793580Y0003569426D01*
X0001692913Y0003670094D01*
X0001592246Y0003569426D01*
X0000297517Y0003569426D01*
X0000196850Y0003670094D01*
X0000096183Y0003569426D01*
X0000027637Y0003569426D01*
X0000027637Y0003648207D01*
X0000045983Y0003648207D01*
X0000068548Y0003592677D01*
X0000069695Y0003590961D01*
X0000089112Y0003576497D01*
X0000189779Y0003677165D01*
X0000203921Y0003677165D01*
X0000304588Y0003576497D01*
X0000324005Y0003590961D01*
X0000347314Y0003646183D01*
X0000347328Y0003648207D01*
X0001542046Y0003648207D01*
X0001564611Y0003592677D01*
X0001565758Y0003590961D01*
X0001585175Y0003576497D01*
X0001685842Y0003677165D01*
X0001699984Y0003677165D01*
X0001800651Y0003576497D01*
X0001820068Y0003590961D01*
X0001843377Y0003646183D01*
X0001843780Y0003706122D01*
X0001821214Y0003761652D01*
X0001820068Y0003763368D01*
X0001800651Y0003777832D01*
X0001699984Y0003677165D01*
X0001685842Y0003677165D01*
X0001585175Y0003777832D01*
X0001565758Y0003763368D01*
X0001542448Y0003708146D01*
X0001542046Y0003648207D01*
X0000347328Y0003648207D01*
X0000347717Y0003706122D01*
X0000333816Y0003740330D01*
X0000837519Y0003740330D01*
X0000837519Y0003725811D01*
X0000843075Y0003712397D01*
X0000853342Y0003702130D01*
X0000866756Y0003696574D01*
X0000881275Y0003696574D01*
X0000894689Y0003702130D01*
X0000904955Y0003712397D01*
X0000910511Y0003725811D01*
X0000910511Y0003740330D01*
X0000994999Y0003740330D01*
X0000994999Y0003725811D01*
X0001000556Y0003712397D01*
X0001010822Y0003702130D01*
X0001024236Y0003696574D01*
X0001038755Y0003696574D01*
X0001052169Y0003702130D01*
X0001062435Y0003712397D01*
X0001067992Y0003725811D01*
X0001067992Y0003740330D01*
X0001062435Y0003753743D01*
X0001052169Y0003764010D01*
X0001038755Y0003769566D01*
X0001024236Y0003769566D01*
X0001010822Y0003764010D01*
X0001000556Y0003753743D01*
X0000994999Y0003740330D01*
X0000910511Y0003740330D01*
X0000904955Y0003753743D01*
X0000894689Y0003764010D01*
X0000881275Y0003769566D01*
X0000866756Y0003769566D01*
X0000853342Y0003764010D01*
X0000843075Y0003753743D01*
X0000837519Y0003740330D01*
X0000333816Y0003740330D01*
X0000325151Y0003761652D01*
X0000324005Y0003763368D01*
X0000304588Y0003777832D01*
X0000203921Y0003677165D01*
X0000189779Y0003677165D01*
X0000089112Y0003777832D01*
X0000069695Y0003763368D01*
X0000046385Y0003708146D01*
X0000045983Y0003648207D01*
X0000027637Y0003648207D01*
X0000027637Y0003675934D01*
X0000030420Y0003707110D01*
X0000038353Y0003736109D01*
X0000051296Y0003763245D01*
X0000066859Y0003784903D01*
X0000096183Y0003784903D01*
X0000196850Y0003684236D01*
X0000297517Y0003784903D01*
X0001592246Y0003784903D01*
X0001692913Y0003684236D01*
X0001793580Y0003784903D01*
X0001779116Y0003804320D01*
X0001723894Y0003827629D01*
X0001663956Y0003828032D01*
X0001608425Y0003805466D01*
X0001606710Y0003804320D01*
X0001592246Y0003784903D01*
X0000297517Y0003784903D01*
X0000283053Y0003804320D01*
X0000227831Y0003827629D01*
X0000167893Y0003828032D01*
X0000112362Y0003805466D01*
X0000110647Y0003804320D01*
X0000096183Y0003784903D01*
X0000066859Y0003784903D01*
X0000068840Y0003787660D01*
X0000090430Y0003808582D01*
X0000115384Y0003825350D01*
X0000142913Y0003837435D01*
X0000172359Y0003844504D01*
X0000197863Y0003846377D01*
X0001691682Y0003846377D01*
X0001722858Y0003843595D01*
X0001722858Y0003843595D01*
G37*
X0001722858Y0003843595D02*
X0001751857Y0003835662D01*
X0001778993Y0003822718D01*
X0001803408Y0003805174D01*
X0001824330Y0003783585D01*
X0001841099Y0003758630D01*
X0001853183Y0003731102D01*
X0001860253Y0003701655D01*
X0001862125Y0003676151D01*
X0001862126Y0002182333D01*
X0001859343Y0002151156D01*
X0001851410Y0002122157D01*
X0001838467Y0002095021D01*
X0001820923Y0002070606D01*
X0001799333Y0002049684D01*
X0001774379Y0002032916D01*
X0001746850Y0002020831D01*
X0001717403Y0002013762D01*
X0001691899Y0002011889D01*
X0000198081Y0002011889D01*
X0000166904Y0002014671D01*
X0000137906Y0002022605D01*
X0000110770Y0002035548D01*
X0000086355Y0002053092D01*
X0000066710Y0002073363D01*
X0000096183Y0002073363D01*
X0000110647Y0002053946D01*
X0000165869Y0002030637D01*
X0000225807Y0002030234D01*
X0000281337Y0002052800D01*
X0000283053Y0002053946D01*
X0000297517Y0002073363D01*
X0000196850Y0002174031D01*
X0000096183Y0002073363D01*
X0000066710Y0002073363D01*
X0000065432Y0002074682D01*
X0000048664Y0002099636D01*
X0000036580Y0002127165D01*
X0000030583Y0002152144D01*
X0000045983Y0002152144D01*
X0000068548Y0002096614D01*
X0000069695Y0002094898D01*
X0000089112Y0002080434D01*
X0000189779Y0002181102D01*
X0000203921Y0002181102D01*
X0000304588Y0002080434D01*
X0000314204Y0002087598D01*
X0000560828Y0002087598D01*
X0000565188Y0002065677D01*
X0000577605Y0002047093D01*
X0000596189Y0002034676D01*
X0000612576Y0002031417D01*
X0000623643Y0002031417D01*
X0000640031Y0002034676D01*
X0000658614Y0002047093D01*
X0000668110Y0002061305D01*
X0000677605Y0002047093D01*
X0000696189Y0002034676D01*
X0000712577Y0002031417D01*
X0000723643Y0002031417D01*
X0000740031Y0002034676D01*
X0000758614Y0002047093D01*
X0000768110Y0002061305D01*
X0000777605Y0002047093D01*
X0000796189Y0002034676D01*
X0000812576Y0002031417D01*
X0000823643Y0002031417D01*
X0000840031Y0002034676D01*
X0000858614Y0002047093D01*
X0000868110Y0002061305D01*
X0000877605Y0002047093D01*
X0000896189Y0002034676D01*
X0000912576Y0002031417D01*
X0000923643Y0002031417D01*
X0000940031Y0002034676D01*
X0000958614Y0002047093D01*
X0000968110Y0002061305D01*
X0000977605Y0002047093D01*
X0000996189Y0002034676D01*
X0001012577Y0002031417D01*
X0001023643Y0002031417D01*
X0001040030Y0002034676D01*
X0001058614Y0002047093D01*
X0001068110Y0002061305D01*
X0001077605Y0002047093D01*
X0001096189Y0002034676D01*
X0001112577Y0002031417D01*
X0001123643Y0002031417D01*
X0001140030Y0002034676D01*
X0001158614Y0002047093D01*
X0001168110Y0002061305D01*
X0001177605Y0002047093D01*
X0001196189Y0002034676D01*
X0001212576Y0002031417D01*
X0001223643Y0002031417D01*
X0001240031Y0002034676D01*
X0001258614Y0002047093D01*
X0001268110Y0002061305D01*
X0001277605Y0002047093D01*
X0001296189Y0002034676D01*
X0001312577Y0002031417D01*
X0001323643Y0002031417D01*
X0001340031Y0002034676D01*
X0001358614Y0002047093D01*
X0001371031Y0002065677D01*
X0001372560Y0002073363D01*
X0001592246Y0002073363D01*
X0001606710Y0002053946D01*
X0001661932Y0002030637D01*
X0001721870Y0002030234D01*
X0001777400Y0002052800D01*
X0001779116Y0002053946D01*
X0001793580Y0002073363D01*
X0001692913Y0002174031D01*
X0001592246Y0002073363D01*
X0001372560Y0002073363D01*
X0001375391Y0002087598D01*
X0001371031Y0002109518D01*
X0001358614Y0002128102D01*
X0001340031Y0002140519D01*
X0001323643Y0002143779D01*
X0001312577Y0002143779D01*
X0001296189Y0002140519D01*
X0001277605Y0002128102D01*
X0001268110Y0002113891D01*
X0001258614Y0002128102D01*
X0001240031Y0002140519D01*
X0001223643Y0002143779D01*
X0001212576Y0002143779D01*
X0001196189Y0002140519D01*
X0001177605Y0002128102D01*
X0001168110Y0002113891D01*
X0001158614Y0002128102D01*
X0001140030Y0002140519D01*
X0001123643Y0002143779D01*
X0001112577Y0002143779D01*
X0001096189Y0002140519D01*
X0001077605Y0002128102D01*
X0001068110Y0002113891D01*
X0001058614Y0002128102D01*
X0001040030Y0002140519D01*
X0001023643Y0002143779D01*
X0001012577Y0002143779D01*
X0000996189Y0002140519D01*
X0000977605Y0002128102D01*
X0000968110Y0002113891D01*
X0000958614Y0002128102D01*
X0000940031Y0002140519D01*
X0000923643Y0002143779D01*
X0000912576Y0002143779D01*
X0000896189Y0002140519D01*
X0000877605Y0002128102D01*
X0000868110Y0002113891D01*
X0000858614Y0002128102D01*
X0000840031Y0002140519D01*
X0000823643Y0002143779D01*
X0000812576Y0002143779D01*
X0000796189Y0002140519D01*
X0000777605Y0002128102D01*
X0000768110Y0002113891D01*
X0000758614Y0002128102D01*
X0000740031Y0002140519D01*
X0000723643Y0002143779D01*
X0000712577Y0002143779D01*
X0000696189Y0002140519D01*
X0000677605Y0002128102D01*
X0000668110Y0002113891D01*
X0000658614Y0002128102D01*
X0000640031Y0002140519D01*
X0000623643Y0002143779D01*
X0000612576Y0002143779D01*
X0000596189Y0002140519D01*
X0000577605Y0002128102D01*
X0000565188Y0002109518D01*
X0000560828Y0002087598D01*
X0000314204Y0002087598D01*
X0000324005Y0002094898D01*
X0000347314Y0002150120D01*
X0000347328Y0002152144D01*
X0001542046Y0002152144D01*
X0001564611Y0002096614D01*
X0001565758Y0002094898D01*
X0001585175Y0002080434D01*
X0001685842Y0002181102D01*
X0001699984Y0002181102D01*
X0001800651Y0002080434D01*
X0001820068Y0002094898D01*
X0001843377Y0002150120D01*
X0001843780Y0002210059D01*
X0001821214Y0002265589D01*
X0001820068Y0002267305D01*
X0001800651Y0002281769D01*
X0001699984Y0002181102D01*
X0001685842Y0002181102D01*
X0001585175Y0002281769D01*
X0001565758Y0002267305D01*
X0001542448Y0002212083D01*
X0001542046Y0002152144D01*
X0000347328Y0002152144D01*
X0000347717Y0002210059D01*
X0000325151Y0002265589D01*
X0000324005Y0002267305D01*
X0000304588Y0002281769D01*
X0000203921Y0002181102D01*
X0000189779Y0002181102D01*
X0000089112Y0002281769D01*
X0000069695Y0002267305D01*
X0000046385Y0002212083D01*
X0000045983Y0002152144D01*
X0000030583Y0002152144D01*
X0000029510Y0002156611D01*
X0000027637Y0002182115D01*
X0000027637Y0002288840D01*
X0000096183Y0002288840D01*
X0000196850Y0002188173D01*
X0000297517Y0002288840D01*
X0001592246Y0002288840D01*
X0001692913Y0002188173D01*
X0001793580Y0002288840D01*
X0001779116Y0002308257D01*
X0001723894Y0002331566D01*
X0001663956Y0002331969D01*
X0001608425Y0002309403D01*
X0001606710Y0002308257D01*
X0001592246Y0002288840D01*
X0000297517Y0002288840D01*
X0000283053Y0002308257D01*
X0000227831Y0002331566D01*
X0000167893Y0002331969D01*
X0000112362Y0002309403D01*
X0000110647Y0002308257D01*
X0000096183Y0002288840D01*
X0000027637Y0002288840D01*
X0000027637Y0002472440D01*
X0000109173Y0002472440D01*
X0000109173Y0002379920D01*
X0000109553Y0002378007D01*
X0000110637Y0002376385D01*
X0000112259Y0002375301D01*
X0000114173Y0002374920D01*
X0000354330Y0002374920D01*
X0000356244Y0002375301D01*
X0000357866Y0002376385D01*
X0000358950Y0002378007D01*
X0000359330Y0002379920D01*
X0000359330Y0002472440D01*
X0000358950Y0002474354D01*
X0000357866Y0002475976D01*
X0000356244Y0002477060D01*
X0000354330Y0002477440D01*
X0000114173Y0002477440D01*
X0000112259Y0002477060D01*
X0000110637Y0002475976D01*
X0000109553Y0002474354D01*
X0000109173Y0002472440D01*
X0000027637Y0002472440D01*
X0000027637Y0002951553D01*
X0000230236Y0002951553D01*
X0000230236Y0002938209D01*
X0000235342Y0002925880D01*
X0000244778Y0002916444D01*
X0000257107Y0002911338D01*
X0000257172Y0002911338D01*
X0000260933Y0002902258D01*
X0000270369Y0002892822D01*
X0000282697Y0002887716D01*
X0000296042Y0002887716D01*
X0000308370Y0002892822D01*
X0000310322Y0002894774D01*
X0000311928Y0002890895D01*
X0000311928Y0002792189D01*
X0000311368Y0002789370D01*
X0000313589Y0002778202D01*
X0000313589Y0002778202D01*
X0000319915Y0002768734D01*
X0000322305Y0002767138D01*
X0000504842Y0002584600D01*
X0000504842Y0002491007D01*
X0000504281Y0002488188D01*
X0000506503Y0002477020D01*
X0000507849Y0002475006D01*
X0000512829Y0002467553D01*
X0000515218Y0002465956D01*
X0000533025Y0002448149D01*
X0000534622Y0002445760D01*
X0000544090Y0002439433D01*
X0000552439Y0002437773D01*
X0000552439Y0002437773D01*
X0000555257Y0002437212D01*
X0000558076Y0002437773D01*
X0000576175Y0002437773D01*
X0000565188Y0002421329D01*
X0000560828Y0002399409D01*
X0000565188Y0002377488D01*
X0000577605Y0002358904D01*
X0000596189Y0002346487D01*
X0000612576Y0002343228D01*
X0000623643Y0002343228D01*
X0000640031Y0002346487D01*
X0000658614Y0002358904D01*
X0000668110Y0002373116D01*
X0000677605Y0002358904D01*
X0000696189Y0002346487D01*
X0000712577Y0002343228D01*
X0000723643Y0002343228D01*
X0000740031Y0002346487D01*
X0000758614Y0002358904D01*
X0000768110Y0002373116D01*
X0000777605Y0002358904D01*
X0000796189Y0002346487D01*
X0000812576Y0002343228D01*
X0000823643Y0002343228D01*
X0000840031Y0002346487D01*
X0000858614Y0002358904D01*
X0000868110Y0002373116D01*
X0000877605Y0002358904D01*
X0000896189Y0002346487D01*
X0000912576Y0002343228D01*
X0000923643Y0002343228D01*
X0000940031Y0002346487D01*
X0000958614Y0002358904D01*
X0000968110Y0002373116D01*
X0000977605Y0002358904D01*
X0000996189Y0002346487D01*
X0001012577Y0002343228D01*
X0001023643Y0002343228D01*
X0001040030Y0002346487D01*
X0001058614Y0002358904D01*
X0001068110Y0002373116D01*
X0001077605Y0002358904D01*
X0001096189Y0002346487D01*
X0001112577Y0002343228D01*
X0001123643Y0002343228D01*
X0001140030Y0002346487D01*
X0001158614Y0002358904D01*
X0001168110Y0002373116D01*
X0001177605Y0002358904D01*
X0001196189Y0002346487D01*
X0001212576Y0002343228D01*
X0001223643Y0002343228D01*
X0001240031Y0002346487D01*
X0001258614Y0002358904D01*
X0001262176Y0002364236D01*
X0001263361Y0002358281D01*
X0001268817Y0002350116D01*
X0001276982Y0002344660D01*
X0001286614Y0002342744D01*
X0001349606Y0002342744D01*
X0001359237Y0002344660D01*
X0001367403Y0002350116D01*
X0001372859Y0002358281D01*
X0001374774Y0002367913D01*
X0001374774Y0002430905D01*
X0001372859Y0002440536D01*
X0001367403Y0002448702D01*
X0001359237Y0002454157D01*
X0001349606Y0002456073D01*
X0001286614Y0002456073D01*
X0001276982Y0002454157D01*
X0001268817Y0002448702D01*
X0001263361Y0002440536D01*
X0001262176Y0002434582D01*
X0001258614Y0002439913D01*
X0001251321Y0002444786D01*
X0001252778Y0002445760D01*
X0001254375Y0002448149D01*
X0001285962Y0002479736D01*
X0001288351Y0002481332D01*
X0001294677Y0002490800D01*
X0001296338Y0002499149D01*
X0001296338Y0002499149D01*
X0001296899Y0002501968D01*
X0001296338Y0002504786D01*
X0001296338Y0002518848D01*
X0001301259Y0002530729D01*
X0001301259Y0002544073D01*
X0001296153Y0002556402D01*
X0001286717Y0002565837D01*
X0001274388Y0002570944D01*
X0001261044Y0002570944D01*
X0001248715Y0002565837D01*
X0001239279Y0002556402D01*
X0001234173Y0002544073D01*
X0001234173Y0002530729D01*
X0001239094Y0002518848D01*
X0001239094Y0002513823D01*
X0001220288Y0002495017D01*
X0000567113Y0002495017D01*
X0000562086Y0002500044D01*
X0000562086Y0002513700D01*
X0000569664Y0002513700D01*
X0000581992Y0002518807D01*
X0000591428Y0002528243D01*
X0000596535Y0002540571D01*
X0000596535Y0002553915D01*
X0000591614Y0002565796D01*
X0000591614Y0002576571D01*
X0000633967Y0002534218D01*
X0000638888Y0002522337D01*
X0000648324Y0002512901D01*
X0000660652Y0002507795D01*
X0000673997Y0002507795D01*
X0000686325Y0002512901D01*
X0000695761Y0002522337D01*
X0000699930Y0002532401D01*
X0000732238Y0002532401D01*
X0000734706Y0002529933D01*
X0000739279Y0002518892D01*
X0000748715Y0002509456D01*
X0000761044Y0002504349D01*
X0000774388Y0002504349D01*
X0000786717Y0002509456D01*
X0000796153Y0002518892D01*
X0000801259Y0002531220D01*
X0000801259Y0002544565D01*
X0000796153Y0002556893D01*
X0000786717Y0002566329D01*
X0000774388Y0002571436D01*
X0000774159Y0002571436D01*
X0000766326Y0002579268D01*
X0000764729Y0002581658D01*
X0000755262Y0002587984D01*
X0000746913Y0002589645D01*
X0000746913Y0002589645D01*
X0000744094Y0002590206D01*
X0000741275Y0002589645D01*
X0000696895Y0002589645D01*
X0000426259Y0002860280D01*
X0000426259Y0002956648D01*
X0000454366Y0002984754D01*
X0000457366Y0002981753D01*
X0000458963Y0002979364D01*
X0000468431Y0002973037D01*
X0000476780Y0002971377D01*
X0000476780Y0002971377D01*
X0000479598Y0002970816D01*
X0000482417Y0002971377D01*
X0000779482Y0002971377D01*
X0000837519Y0002913340D01*
X0000837519Y0002561860D01*
X0000832598Y0002549978D01*
X0000832598Y0002536634D01*
X0000837705Y0002524306D01*
X0000847140Y0002514870D01*
X0000859469Y0002509763D01*
X0000872813Y0002509763D01*
X0000885142Y0002514870D01*
X0000894578Y0002524306D01*
X0000899685Y0002536634D01*
X0000899685Y0002549978D01*
X0000894763Y0002561859D01*
X0000894763Y0002883655D01*
X0000939881Y0002838537D01*
X0000939881Y0002821716D01*
X0000939881Y0002557923D01*
X0000934960Y0002546041D01*
X0000934960Y0002532697D01*
X0000940067Y0002520369D01*
X0000949503Y0002510933D01*
X0000961831Y0002505826D01*
X0000975176Y0002505826D01*
X0000987504Y0002510933D01*
X0000996940Y0002520369D01*
X0001002047Y0002532697D01*
X0001002047Y0002546041D01*
X0000997125Y0002557922D01*
X0000997125Y0002804915D01*
X0001042244Y0002759797D01*
X0001042244Y0002553985D01*
X0001037322Y0002542104D01*
X0001037322Y0002528760D01*
X0001042429Y0002516432D01*
X0001051865Y0002506996D01*
X0001064193Y0002501889D01*
X0001077538Y0002501889D01*
X0001089866Y0002506996D01*
X0001099302Y0002516432D01*
X0001104409Y0002528760D01*
X0001104409Y0002542104D01*
X0001099488Y0002553985D01*
X0001099488Y0002728144D01*
X0001138700Y0002688931D01*
X0001138700Y0002557923D01*
X0001133779Y0002546041D01*
X0001133779Y0002532697D01*
X0001138886Y0002520369D01*
X0001148322Y0002510933D01*
X0001160650Y0002505826D01*
X0001173994Y0002505826D01*
X0001186323Y0002510933D01*
X0001195759Y0002520369D01*
X0001200866Y0002532697D01*
X0001200866Y0002546041D01*
X0001195944Y0002557922D01*
X0001195944Y0002697968D01*
X0001196505Y0002700787D01*
X0001195944Y0002703605D01*
X0001195944Y0002703605D01*
X0001194284Y0002711954D01*
X0001191368Y0002716318D01*
X0001189554Y0002719032D01*
X0001189554Y0002719032D01*
X0001187958Y0002721422D01*
X0001185568Y0002723019D01*
X0000841916Y0003066671D01*
X0000840319Y0003069061D01*
X0000830851Y0003075387D01*
X0000822502Y0003077047D01*
X0000822502Y0003077047D01*
X0000819684Y0003077608D01*
X0000816865Y0003077047D01*
X0000573665Y0003077047D01*
X0000565539Y0003085174D01*
X0000563942Y0003087564D01*
X0000554474Y0003093890D01*
X0000546125Y0003095550D01*
X0000546125Y0003095550D01*
X0000543307Y0003096111D01*
X0000540488Y0003095550D01*
X0000536269Y0003095550D01*
X0000524388Y0003100472D01*
X0000511044Y0003100472D01*
X0000498715Y0003095365D01*
X0000489279Y0003085929D01*
X0000488331Y0003083639D01*
X0000478046Y0003079379D01*
X0000474944Y0003076276D01*
X0000465333Y0003080257D01*
X0000451989Y0003080257D01*
X0000439660Y0003075150D01*
X0000433093Y0003068584D01*
X0000422084Y0003073144D01*
X0000408739Y0003073144D01*
X0000396411Y0003068038D01*
X0000386975Y0003058602D01*
X0000382054Y0003046721D01*
X0000363643Y0003028310D01*
X0000361254Y0003026713D01*
X0000356609Y0003019763D01*
X0000354547Y0003019763D01*
X0000342219Y0003014656D01*
X0000332783Y0003005220D01*
X0000327676Y0002992892D01*
X0000327676Y0002979548D01*
X0000332598Y0002967667D01*
X0000332598Y0002942461D01*
X0000321550Y0002937885D01*
X0000319598Y0002935933D01*
X0000317806Y0002940260D01*
X0000308370Y0002949696D01*
X0000296042Y0002954802D01*
X0000295976Y0002954802D01*
X0000292216Y0002963882D01*
X0000282780Y0002973318D01*
X0000270451Y0002978424D01*
X0000257107Y0002978424D01*
X0000244778Y0002973318D01*
X0000235342Y0002963882D01*
X0000230236Y0002951553D01*
X0000027637Y0002951553D01*
X0000027637Y0003297637D01*
X0000424963Y0003297637D01*
X0000429476Y0003274948D01*
X0000442328Y0003255713D01*
X0000454415Y0003247637D01*
X0000442328Y0003239561D01*
X0000429476Y0003220326D01*
X0000424963Y0003197637D01*
X0000429476Y0003174948D01*
X0000442328Y0003155713D01*
X0000461563Y0003142861D01*
X0000478524Y0003139487D01*
X0000489979Y0003139487D01*
X0000506940Y0003142861D01*
X0000526175Y0003155713D01*
X0000534251Y0003167801D01*
X0000542328Y0003155713D01*
X0000561563Y0003142861D01*
X0000578524Y0003139487D01*
X0000589979Y0003139487D01*
X0000606940Y0003142861D01*
X0000626175Y0003155713D01*
X0000634405Y0003168031D01*
X0001106139Y0003168031D01*
X0001109055Y0003167451D01*
X0001111970Y0003168031D01*
X0001111970Y0003168031D01*
X0001120606Y0003169749D01*
X0001129907Y0003175963D01*
X0001145590Y0003175963D01*
X0001145590Y0003162618D01*
X0001150697Y0003150290D01*
X0001160133Y0003140854D01*
X0001172461Y0003135747D01*
X0001185806Y0003135747D01*
X0001198134Y0003140854D01*
X0001207570Y0003150290D01*
X0001212677Y0003162618D01*
X0001212677Y0003175963D01*
X0001207570Y0003188291D01*
X0001198134Y0003197727D01*
X0001185806Y0003202834D01*
X0001172461Y0003202834D01*
X0001160133Y0003197727D01*
X0001150697Y0003188291D01*
X0001145590Y0003175963D01*
X0001129907Y0003175963D01*
X0001130400Y0003176292D01*
X0001132051Y0003178764D01*
X0001239810Y0003286523D01*
X0001249315Y0003290460D01*
X0001258751Y0003299896D01*
X0001263858Y0003312225D01*
X0001263858Y0003325569D01*
X0001258751Y0003337898D01*
X0001249315Y0003347334D01*
X0001236987Y0003352440D01*
X0001223642Y0003352440D01*
X0001211314Y0003347334D01*
X0001201878Y0003337898D01*
X0001197941Y0003328393D01*
X0001096791Y0003227243D01*
X0000634405Y0003227243D01*
X0000626175Y0003239561D01*
X0000613204Y0003248228D01*
X0000618785Y0003250852D01*
X0000634060Y0003267629D01*
X0000640690Y0003283636D01*
X0000635989Y0003292637D01*
X0000589251Y0003292637D01*
X0000589251Y0003291850D01*
X0000579251Y0003291850D01*
X0000579251Y0003292637D01*
X0000578464Y0003292637D01*
X0000578464Y0003302637D01*
X0000579251Y0003302637D01*
X0000579251Y0003303424D01*
X0000589251Y0003303424D01*
X0000589251Y0003302637D01*
X0000635989Y0003302637D01*
X0000640690Y0003311638D01*
X0000634060Y0003327645D01*
X0000618785Y0003344422D01*
X0000613204Y0003347046D01*
X0000626175Y0003355713D01*
X0000639027Y0003374948D01*
X0000643540Y0003397637D01*
X0000639027Y0003420326D01*
X0000626175Y0003439561D01*
X0000623852Y0003441113D01*
X0001069803Y0003441113D01*
X0001069803Y0003425027D01*
X0001075958Y0003410167D01*
X0001087332Y0003398793D01*
X0001102193Y0003392637D01*
X0001105606Y0003392637D01*
X0001111391Y0003378671D01*
X0001122765Y0003367297D01*
X0001137626Y0003361141D01*
X0001153711Y0003361141D01*
X0001168572Y0003367297D01*
X0001179946Y0003378671D01*
X0001186102Y0003393531D01*
X0001186102Y0003409617D01*
X0001179946Y0003424478D01*
X0001168572Y0003435852D01*
X0001153711Y0003442007D01*
X0001150298Y0003442007D01*
X0001144513Y0003455974D01*
X0001133139Y0003467348D01*
X0001118278Y0003473503D01*
X0001102193Y0003473503D01*
X0001087332Y0003467348D01*
X0001075958Y0003455974D01*
X0001069803Y0003441113D01*
X0000623852Y0003441113D01*
X0000606940Y0003452413D01*
X0000589979Y0003455787D01*
X0000578524Y0003455787D01*
X0000561563Y0003452413D01*
X0000542328Y0003439561D01*
X0000541460Y0003438262D01*
X0000540969Y0003440733D01*
X0000535513Y0003448898D01*
X0000527348Y0003454354D01*
X0000517716Y0003456270D01*
X0000450787Y0003456270D01*
X0000441155Y0003454354D01*
X0000432990Y0003448898D01*
X0000427534Y0003440733D01*
X0000425618Y0003431102D01*
X0000425618Y0003364172D01*
X0000427534Y0003354541D01*
X0000432990Y0003346376D01*
X0000441155Y0003340920D01*
X0000443626Y0003340428D01*
X0000442328Y0003339561D01*
X0000429476Y0003320326D01*
X0000424963Y0003297637D01*
X0000027637Y0003297637D01*
X0000027637Y0003569426D01*
X0000096183Y0003569426D01*
X0000110647Y0003550009D01*
X0000165869Y0003526700D01*
X0000225807Y0003526297D01*
X0000281337Y0003548863D01*
X0000283053Y0003550009D01*
X0000297517Y0003569426D01*
X0001592246Y0003569426D01*
X0001606710Y0003550009D01*
X0001661932Y0003526700D01*
X0001721870Y0003526297D01*
X0001777400Y0003548863D01*
X0001779116Y0003550009D01*
X0001793580Y0003569426D01*
X0001692913Y0003670094D01*
X0001592246Y0003569426D01*
X0000297517Y0003569426D01*
X0000196850Y0003670094D01*
X0000096183Y0003569426D01*
X0000027637Y0003569426D01*
X0000027637Y0003648207D01*
X0000045983Y0003648207D01*
X0000068548Y0003592677D01*
X0000069695Y0003590961D01*
X0000089112Y0003576497D01*
X0000189779Y0003677165D01*
X0000203921Y0003677165D01*
X0000304588Y0003576497D01*
X0000324005Y0003590961D01*
X0000347314Y0003646183D01*
X0000347328Y0003648207D01*
X0001542046Y0003648207D01*
X0001564611Y0003592677D01*
X0001565758Y0003590961D01*
X0001585175Y0003576497D01*
X0001685842Y0003677165D01*
X0001699984Y0003677165D01*
X0001800651Y0003576497D01*
X0001820068Y0003590961D01*
X0001843377Y0003646183D01*
X0001843780Y0003706122D01*
X0001821214Y0003761652D01*
X0001820068Y0003763368D01*
X0001800651Y0003777832D01*
X0001699984Y0003677165D01*
X0001685842Y0003677165D01*
X0001585175Y0003777832D01*
X0001565758Y0003763368D01*
X0001542448Y0003708146D01*
X0001542046Y0003648207D01*
X0000347328Y0003648207D01*
X0000347717Y0003706122D01*
X0000333816Y0003740330D01*
X0000837519Y0003740330D01*
X0000837519Y0003725811D01*
X0000843075Y0003712397D01*
X0000853342Y0003702130D01*
X0000866756Y0003696574D01*
X0000881275Y0003696574D01*
X0000894689Y0003702130D01*
X0000904955Y0003712397D01*
X0000910511Y0003725811D01*
X0000910511Y0003740330D01*
X0000994999Y0003740330D01*
X0000994999Y0003725811D01*
X0001000556Y0003712397D01*
X0001010822Y0003702130D01*
X0001024236Y0003696574D01*
X0001038755Y0003696574D01*
X0001052169Y0003702130D01*
X0001062435Y0003712397D01*
X0001067992Y0003725811D01*
X0001067992Y0003740330D01*
X0001062435Y0003753743D01*
X0001052169Y0003764010D01*
X0001038755Y0003769566D01*
X0001024236Y0003769566D01*
X0001010822Y0003764010D01*
X0001000556Y0003753743D01*
X0000994999Y0003740330D01*
X0000910511Y0003740330D01*
X0000904955Y0003753743D01*
X0000894689Y0003764010D01*
X0000881275Y0003769566D01*
X0000866756Y0003769566D01*
X0000853342Y0003764010D01*
X0000843075Y0003753743D01*
X0000837519Y0003740330D01*
X0000333816Y0003740330D01*
X0000325151Y0003761652D01*
X0000324005Y0003763368D01*
X0000304588Y0003777832D01*
X0000203921Y0003677165D01*
X0000189779Y0003677165D01*
X0000089112Y0003777832D01*
X0000069695Y0003763368D01*
X0000046385Y0003708146D01*
X0000045983Y0003648207D01*
X0000027637Y0003648207D01*
X0000027637Y0003675934D01*
X0000030420Y0003707110D01*
X0000038353Y0003736109D01*
X0000051296Y0003763245D01*
X0000066859Y0003784903D01*
X0000096183Y0003784903D01*
X0000196850Y0003684236D01*
X0000297517Y0003784903D01*
X0001592246Y0003784903D01*
X0001692913Y0003684236D01*
X0001793580Y0003784903D01*
X0001779116Y0003804320D01*
X0001723894Y0003827629D01*
X0001663956Y0003828032D01*
X0001608425Y0003805466D01*
X0001606710Y0003804320D01*
X0001592246Y0003784903D01*
X0000297517Y0003784903D01*
X0000283053Y0003804320D01*
X0000227831Y0003827629D01*
X0000167893Y0003828032D01*
X0000112362Y0003805466D01*
X0000110647Y0003804320D01*
X0000096183Y0003784903D01*
X0000066859Y0003784903D01*
X0000068840Y0003787660D01*
X0000090430Y0003808582D01*
X0000115384Y0003825350D01*
X0000142913Y0003837435D01*
X0000172359Y0003844504D01*
X0000197863Y0003846377D01*
X0001691682Y0003846377D01*
X0001722858Y0003843595D01*
G04 #@! TD*
G04 next file*
G04 #@! TF.GenerationSoftware,KiCad,Pcbnew,(5.0.2)-1*
G04 #@! TF.CreationDate,2019-01-19T12:25:22+11:00*
G04 #@! TF.ProjectId,MAX2870_Dev_Rev_0,4d415832-3837-4305-9f44-65765f526576,rev?*
G04 #@! TF.SameCoordinates,Original*
G04 #@! TF.FileFunction,Copper,L4,Bot*
G04 #@! TF.FilePolarity,Positive*
G04 Gerber Fmt 4.6, Leading zero omitted, Abs format (unit mm)*
G04 Created by KiCad (PCBNEW (5.0.2)-1) date 19/01/2019 12:25:22*
G01*
G04 APERTURE LIST*
G04 #@! TA.AperFunction,SMDPad,CuDef*
G04 #@! TD*
G04 #@! TA.AperFunction,ViaPad*
G04 #@! TD*
G04 #@! TA.AperFunction,ComponentPad*
G04 #@! TD*
G04 #@! TA.AperFunction,ComponentPad*
G04 #@! TD*
G04 #@! TA.AperFunction,ComponentPad*
G04 #@! TD*
G04 #@! TA.AperFunction,ComponentPad*
G04 #@! TD*
G04 #@! TA.AperFunction,ViaPad*
G04 #@! TD*
G04 #@! TA.AperFunction,ViaPad*
G04 #@! TD*
G04 #@! TA.AperFunction,Conductor*
G04 #@! TD*
G04 #@! TA.AperFunction,Conductor*
G04 #@! TD*
G04 #@! TA.AperFunction,Conductor*
G04 #@! TD*
G04 #@! TA.AperFunction,Conductor*
G04 #@! TD*
G04 APERTURE END LIST*
G04 #@! TO.C,REF\002A\002A*
D52*
X0002570303Y0002162260D02*
X0002570303Y0002122890D01*
X0002556242Y0002184757D02*
X0002542182Y0002142575D01*
X0002578740Y0002142575D01*
G04 #@! TD*
D53*
G04 #@! TO.P,J2,2*
G04 #@! TO.N,GND*
X0003787401Y0003083661D03*
X0003787401Y0002861220D03*
G04 #@! TD*
D54*
G04 #@! TO.N,GND*
G04 #@! TO.C,U3*
X0003078248Y0002939468D03*
X0003078248Y0002978838D03*
X0003078248Y0003018208D03*
X0003117618Y0002939468D03*
X0003117618Y0002978838D03*
X0003117618Y0003018208D03*
X0003156988Y0002939468D03*
X0003156988Y0002978838D03*
X0003156988Y0003018208D03*
G04 #@! TD*
D55*
G04 #@! TO.P,H1,1*
G04 #@! TO.N,GND*
X0002247915Y0003743978D03*
X0002181102Y0003771653D03*
X0002114289Y0003743978D03*
X0002086614Y0003677165D03*
X0002114289Y0003610351D03*
X0002181102Y0003582676D03*
X0002247915Y0003610351D03*
X0002275590Y0003677165D03*
D56*
X0002181102Y0003677165D03*
G04 #@! TD*
G04 #@! TO.P,H2,1*
G04 #@! TO.N,GND*
X0002181102Y0002181102D03*
D55*
X0002275590Y0002181102D03*
X0002247915Y0002114288D03*
X0002181102Y0002086613D03*
X0002114289Y0002114288D03*
X0002086614Y0002181102D03*
X0002114289Y0002247915D03*
X0002181102Y0002275590D03*
X0002247915Y0002247915D03*
G04 #@! TD*
G04 #@! TO.P,H3,1*
G04 #@! TO.N,GND*
X0003743978Y0002247915D03*
X0003677165Y0002275590D03*
X0003610352Y0002247915D03*
X0003582677Y0002181102D03*
X0003610352Y0002114288D03*
X0003677165Y0002086613D03*
X0003743978Y0002114288D03*
X0003771653Y0002181102D03*
D56*
X0003677165Y0002181102D03*
G04 #@! TD*
G04 #@! TO.P,H4,1*
G04 #@! TO.N,GND*
X0003677165Y0003677165D03*
D55*
X0003771653Y0003677165D03*
X0003743978Y0003610351D03*
X0003677165Y0003582676D03*
X0003610352Y0003610351D03*
X0003582677Y0003677165D03*
X0003610352Y0003743978D03*
X0003677165Y0003771653D03*
X0003743978Y0003743978D03*
G04 #@! TD*
D57*
G04 #@! TO.P,J1,1*
G04 #@! TO.N,+5V*
X0002235433Y0003168503D03*
D58*
G04 #@! TO.P,J1,2*
G04 #@! TO.N,GND*
X0002335433Y0003168503D03*
G04 #@! TO.P,J1,3*
G04 #@! TO.N,/CE*
X0002235433Y0003068503D03*
G04 #@! TO.P,J1,4*
G04 #@! TO.N,/LD*
X0002335433Y0003068503D03*
G04 #@! TO.P,J1,5*
G04 #@! TO.N,/LE*
X0002235433Y0002968503D03*
G04 #@! TO.P,J1,6*
G04 #@! TO.N,/RFOUT_EN*
X0002335433Y0002968503D03*
G04 #@! TO.P,J1,7*
G04 #@! TO.N,/DATA*
X0002235433Y0002868503D03*
G04 #@! TO.P,J1,8*
G04 #@! TO.N,/MUX_OUT*
X0002335433Y0002868503D03*
G04 #@! TO.P,J1,9*
G04 #@! TO.N,/CLK*
X0002235433Y0002768503D03*
G04 #@! TO.P,J1,10*
G04 #@! TO.N,Net-(J1-Pad10)*
X0002335433Y0002768503D03*
G04 #@! TD*
D59*
G04 #@! TO.N,GND*
X0003480314Y0002884842D03*
X0003523622Y0003042322D03*
X0003234251Y0002754920D03*
X0003288385Y0002713582D03*
D60*
X0003281496Y0003221259D03*
X0003324409Y0003220472D03*
X0003231102Y0003221653D03*
X0003188188Y0003221259D03*
X0003099212Y0003279133D03*
X0003105905Y0003179920D03*
X0003060629Y0003197637D03*
X0003018110Y0003197637D03*
D59*
X0002749606Y0002911023D03*
D60*
X0002631889Y0003091338D03*
D59*
X0002602755Y0003172046D03*
D60*
X0002564960Y0002897243D03*
X0002912598Y0002843306D03*
X0002956299Y0002843306D03*
D59*
X0002161417Y0003362204D03*
X0002420078Y0002450393D03*
X0002518503Y0002565747D03*
X0002594488Y0002620865D03*
D60*
X0002950787Y0003066614D03*
X0002907874Y0003066614D03*
X0003622047Y0003005905D03*
X0003598425Y0003005905D03*
X0003574803Y0003005905D03*
X0003551181Y0003005905D03*
X0003622047Y0002933070D03*
X0003598425Y0002933070D03*
X0003574803Y0002933070D03*
X0003551181Y0002933070D03*
X0003527559Y0002933070D03*
X0003503937Y0002933070D03*
X0003480314Y0002933070D03*
X0003456692Y0002933070D03*
X0003433070Y0002933070D03*
X0003409448Y0002933070D03*
X0003527559Y0003005905D03*
X0003503937Y0003005905D03*
X0003480314Y0003005905D03*
X0003456692Y0003005905D03*
X0003433070Y0003005905D03*
D59*
X0003306102Y0002860235D03*
X0003263779Y0002860235D03*
D60*
X0003047244Y0002782480D03*
X0003047244Y0002823818D03*
X0003712598Y0003005905D03*
X0003665354Y0003005905D03*
X0003641732Y0003005905D03*
X0003688976Y0003005905D03*
X0003688976Y0002933070D03*
X0003665354Y0002933070D03*
X0003641732Y0002933070D03*
X0003712598Y0002933070D03*
X0003728346Y0003066928D03*
X0003710629Y0003066928D03*
X0003763779Y0003066928D03*
X0003746062Y0003066928D03*
X0003781496Y0003066928D03*
X0003799212Y0003066928D03*
X0003816929Y0003066928D03*
X0003834645Y0003066928D03*
X0003852362Y0003066928D03*
X0003856299Y0002877952D03*
X0003750000Y0002877952D03*
X0003785433Y0002877952D03*
X0003820866Y0002877952D03*
X0003767716Y0002877952D03*
X0003803149Y0002877952D03*
X0003838582Y0002877952D03*
X0003732283Y0002877952D03*
X0003714566Y0002877952D03*
D59*
X0003834645Y0002771653D03*
X0003834645Y0003165354D03*
X0003795275Y0003165354D03*
X0003755905Y0003165354D03*
X0003716535Y0003165354D03*
X0003677165Y0003165354D03*
X0003677165Y0003125983D03*
X0003677165Y0003086613D03*
X0003677165Y0003047243D03*
X0003637795Y0003047243D03*
X0003598425Y0003047243D03*
X0003559055Y0003047243D03*
X0003519685Y0002889763D03*
X0003559055Y0002889763D03*
X0003598425Y0002889763D03*
X0003637795Y0002889763D03*
X0003677165Y0002889763D03*
X0003677165Y0002850393D03*
X0003677165Y0002811023D03*
X0003677165Y0002771653D03*
X0003716535Y0002771653D03*
X0003755905Y0002771653D03*
X0003795275Y0002771653D03*
X0002338582Y0003618109D03*
X0002535433Y0003618109D03*
X0002732283Y0003618109D03*
X0002929133Y0003618109D03*
X0003125984Y0003618109D03*
X0003322834Y0003618109D03*
X0003519685Y0003618109D03*
X0003519685Y0003421259D03*
X0003519685Y0003224409D03*
X0003421259Y0003322834D03*
X0003421259Y0003519684D03*
X0003322834Y0003421259D03*
X0003224409Y0003519684D03*
X0003125984Y0003421259D03*
X0003027559Y0003519684D03*
X0002929133Y0003421259D03*
X0003027559Y0003322834D03*
X0002929133Y0003224409D03*
X0002830708Y0003322834D03*
X0002633858Y0003322834D03*
X0002830708Y0003125983D03*
X0002437007Y0003125983D03*
X0003618110Y0003519684D03*
X0003716535Y0003224409D03*
X0003716535Y0003421259D03*
X0003618110Y0003322834D03*
X0003618110Y0003125983D03*
X0002141732Y0002437007D03*
X0002240157Y0002535432D03*
X0002338582Y0002437007D03*
X0002240157Y0002338582D03*
X0002338582Y0002240157D03*
X0002929133Y0002437007D03*
X0002929133Y0002240157D03*
X0003027559Y0002338582D03*
X0003027559Y0002535432D03*
X0003125984Y0002437007D03*
X0003224409Y0002338582D03*
X0003421259Y0002338582D03*
X0003618110Y0002338582D03*
X0003716535Y0002437007D03*
X0003716535Y0002633857D03*
X0003618110Y0002732283D03*
X0003519685Y0002633857D03*
X0003519685Y0002437007D03*
X0003618110Y0002535432D03*
X0003421259Y0002535432D03*
X0003224409Y0002535432D03*
X0003322834Y0002437007D03*
X0002732283Y0002240157D03*
X0002830708Y0002535432D03*
X0002535433Y0002830708D03*
X0002437007Y0002830708D03*
X0002437007Y0002929133D03*
X0002732283Y0002830708D03*
X0002633858Y0002830708D03*
X0003224409Y0003322834D03*
X0003618110Y0002830708D03*
X0003421259Y0002732283D03*
X0003322834Y0002633857D03*
X0003125984Y0002633857D03*
X0002830708Y0002338582D03*
X0002338582Y0002633857D03*
X0002437007Y0002535432D03*
X0002535433Y0002633857D03*
X0002929133Y0002633857D03*
X0003125984Y0002240157D03*
X0003322834Y0002240157D03*
X0003421259Y0002141732D03*
X0003224409Y0002141732D03*
X0003027559Y0002141732D03*
X0002830708Y0002141732D03*
X0002633858Y0002141732D03*
X0002535433Y0002240157D03*
X0002535433Y0002240157D03*
X0002535433Y0002240157D03*
X0003716535Y0002732283D03*
X0002732283Y0003224409D03*
X0003519685Y0002830708D03*
X0002633858Y0002338582D03*
X0002440944Y0003370078D03*
X0002633858Y0003519684D03*
X0002732283Y0003421259D03*
X0002830708Y0003519684D03*
X0002141732Y0003519684D03*
X0002437007Y0003519684D03*
X0002535433Y0003421259D03*
X0002535433Y0003224409D03*
X0002692913Y0003251968D03*
G04 #@! TO.N,+3V3*
X0002859448Y0002910235D03*
X0002859055Y0002998031D03*
G04 #@! TO.N,+3.3VA*
X0003401181Y0003104724D03*
X0003400393Y0003061417D03*
X0003470472Y0003153936D03*
X0002725196Y0003177558D03*
X0003370472Y0002852361D03*
X0003438188Y0002803543D03*
X0002476377Y0003437007D03*
X0002440944Y0003472440D03*
X0002476377Y0003472440D03*
D60*
G04 #@! TO.N,Net-(C24-Pad2)*
X0003142519Y0003279133D03*
X0003190944Y0002827165D03*
G04 #@! TO.N,/LD*
X0002998425Y0003048819D03*
G04 #@! TO.N,/MUX_OUT*
X0002994881Y0002949606D03*
G04 #@! TO.N,/RFOUT_EN*
X0003000520Y0003026199D03*
G04 #@! TO.N,/CE*
X0003109092Y0002860182D03*
G04 #@! TO.N,/LE*
X0003086397Y0002859184D03*
G04 #@! TO.N,/DATA*
X0003063680Y0002859252D03*
G04 #@! TO.N,/CLK*
X0003032480Y0002884842D03*
G04 #@! TO.N,Net-(R4-Pad1)*
X0003184055Y0002713582D03*
X0003130334Y0002852130D03*
G04 #@! TD*
D61*
G04 #@! TO.N,+3V3*
X0002859055Y0002910629D02*
X0002859448Y0002910235D01*
X0002859055Y0002998031D02*
X0002859055Y0002910629D01*
D62*
G04 #@! TO.N,Net-(C24-Pad2)*
X0003207480Y0002843700D02*
X0003190944Y0002827165D01*
X0003207480Y0003150393D02*
X0003207480Y0002843700D01*
X0003206968Y0003150905D02*
X0003207480Y0003150393D01*
X0003206968Y0003230432D02*
X0003206968Y0003150905D01*
X0003142519Y0003279133D02*
X0003158267Y0003279133D01*
X0003158267Y0003279133D02*
X0003206968Y0003230432D01*
D63*
G04 #@! TO.N,/LD*
X0002985897Y0003048819D02*
X0002998425Y0003048819D01*
X0002406692Y0003048819D02*
X0002985897Y0003048819D01*
X0002335433Y0003068503D02*
X0002387007Y0003068503D01*
X0002387007Y0003068503D02*
X0002406692Y0003048819D01*
D62*
G04 #@! TO.N,/MUX_OUT*
X0002335826Y0002868109D02*
X0002335433Y0002868503D01*
X0002883070Y0002868109D02*
X0002335826Y0002868109D01*
X0002994881Y0002949606D02*
X0002964566Y0002949606D01*
X0002964566Y0002949606D02*
X0002883070Y0002868109D01*
D63*
G04 #@! TO.N,/RFOUT_EN*
X0002987992Y0003026199D02*
X0003000520Y0003026199D01*
X0002435254Y0003026199D02*
X0002987992Y0003026199D01*
X0002335433Y0002968503D02*
X0002377559Y0002968503D01*
X0002377559Y0002968503D02*
X0002435254Y0003026199D01*
D62*
G04 #@! TO.N,/CE*
X0003109092Y0002847654D02*
X0003109092Y0002860182D01*
X0002235433Y0003068503D02*
X0002145669Y0002978739D01*
X0002145669Y0002726377D02*
X0002192913Y0002679133D01*
X0003012795Y0002679133D02*
X0003109092Y0002775430D01*
X0002145669Y0002978739D02*
X0002145669Y0002726377D01*
X0002192913Y0002679133D02*
X0003012795Y0002679133D01*
X0003109092Y0002775430D02*
X0003109092Y0002847654D01*
D63*
G04 #@! TO.N,/LE*
X0003086397Y0002857035D02*
X0003086397Y0002859184D01*
X0003087401Y0002856030D02*
X0003086397Y0002857035D01*
D62*
X0002167322Y0002900393D02*
X0002167322Y0002732283D01*
X0002235433Y0002968503D02*
X0002167322Y0002900393D01*
X0002167322Y0002732283D02*
X0002198818Y0002700787D01*
X0002198818Y0002700787D02*
X0003008858Y0002700787D01*
X0003008858Y0002700787D02*
X0003086397Y0002778325D01*
X0003086397Y0002846657D02*
X0003086397Y0002859184D01*
X0003086397Y0002778325D02*
X0003086397Y0002846657D01*
G04 #@! TO.N,/DATA*
X0003051152Y0002859252D02*
X0003063680Y0002859252D01*
X0002187007Y0002820078D02*
X0002187007Y0002740157D01*
X0002235433Y0002868503D02*
X0002187007Y0002820078D01*
X0002187007Y0002740157D02*
X0002206692Y0002720472D01*
X0002206692Y0002720472D02*
X0002912204Y0002720472D01*
X0002912204Y0002720472D02*
X0003050985Y0002859252D01*
X0003050985Y0002859252D02*
X0003051152Y0002859252D01*
G04 #@! TO.N,/CLK*
X0002285826Y0002818897D02*
X0002235433Y0002768503D01*
X0002366141Y0002818897D02*
X0002285826Y0002818897D01*
X0002395669Y0002789369D02*
X0002366141Y0002818897D01*
X0003032480Y0002884842D02*
X0002937007Y0002789369D01*
X0002937007Y0002789369D02*
X0002395669Y0002789369D01*
D63*
G04 #@! TO.N,Net-(R4-Pad1)*
X0003130334Y0002839602D02*
X0003130334Y0002852130D01*
X0003130334Y0002767303D02*
X0003130334Y0002839602D01*
X0003184055Y0002713582D02*
X0003130334Y0002767303D01*
G04 #@! TD*
D64*
G04 #@! TO.N,GND*
G36*
X0003707054Y0003843284D02*
X0003735999Y0003835365D01*
X0003763084Y0003822446D01*
X0003787453Y0003804935D01*
X0003808337Y0003783386D01*
X0003825074Y0003758478D01*
X0003837135Y0003731001D01*
X0003844192Y0003701606D01*
X0003846062Y0003676140D01*
X0003846063Y0002182347D01*
X0003843284Y0002151212D01*
X0003835365Y0002122267D01*
X0003822446Y0002095182D01*
X0003804935Y0002070813D01*
X0003783386Y0002049930D01*
X0003758478Y0002033193D01*
X0003731001Y0002021131D01*
X0003701607Y0002014074D01*
X0003676140Y0002012204D01*
X0002182347Y0002012204D01*
X0002151212Y0002014983D01*
X0002122268Y0002022901D01*
X0002095182Y0002035820D01*
X0002070813Y0002053331D01*
X0002051567Y0002073192D01*
X0002080263Y0002073192D01*
X0002094710Y0002053687D01*
X0002150046Y0002030325D01*
X0002210109Y0002029917D01*
X0002265757Y0002052526D01*
X0002267494Y0002053687D01*
X0002281941Y0002073192D01*
X0003576326Y0002073192D01*
X0003590773Y0002053687D01*
X0003646109Y0002030325D01*
X0003706172Y0002029917D01*
X0003761820Y0002052526D01*
X0003763557Y0002053687D01*
X0003778004Y0002073192D01*
X0003677165Y0002174031D01*
X0003576326Y0002073192D01*
X0002281941Y0002073192D01*
X0002181102Y0002174031D01*
X0002080263Y0002073192D01*
X0002051567Y0002073192D01*
X0002049930Y0002074881D01*
X0002033193Y0002099788D01*
X0002021131Y0002127265D01*
X0002015171Y0002152094D01*
X0002029917Y0002152094D01*
X0002052526Y0002096446D01*
X0002053687Y0002094709D01*
X0002073192Y0002080263D01*
X0002174031Y0002181102D01*
X0002188173Y0002181102D01*
X0002289012Y0002080263D01*
X0002308517Y0002094709D01*
X0002331879Y0002150045D01*
X0002332210Y0002198818D01*
X0002347362Y0002198818D01*
X0002347362Y0002110235D01*
X0002347742Y0002108322D01*
X0002348826Y0002106700D01*
X0002350448Y0002105616D01*
X0002352362Y0002105235D01*
X0002588582Y0002105235D01*
X0002590496Y0002105616D01*
X0002592118Y0002106700D01*
X0002593202Y0002108322D01*
X0002593582Y0002110235D01*
X0002593582Y0002152094D01*
X0003525980Y0002152094D01*
X0003548589Y0002096446D01*
X0003549750Y0002094709D01*
X0003569255Y0002080263D01*
X0003670094Y0002181102D01*
X0003684236Y0002181102D01*
X0003785075Y0002080263D01*
X0003804580Y0002094709D01*
X0003827942Y0002150045D01*
X0003828349Y0002210109D01*
X0003805740Y0002265757D01*
X0003804580Y0002267494D01*
X0003785075Y0002281940D01*
X0003684236Y0002181102D01*
X0003670094Y0002181102D01*
X0003569255Y0002281940D01*
X0003549750Y0002267494D01*
X0003526388Y0002212158D01*
X0003525980Y0002152094D01*
X0002593582Y0002152094D01*
X0002593582Y0002198818D01*
X0002593202Y0002200732D01*
X0002592118Y0002202354D01*
X0002590496Y0002203438D01*
X0002588582Y0002203818D01*
X0002352362Y0002203818D01*
X0002350448Y0002203438D01*
X0002348826Y0002202354D01*
X0002347742Y0002200732D01*
X0002347362Y0002198818D01*
X0002332210Y0002198818D01*
X0002332286Y0002210109D01*
X0002309677Y0002265757D01*
X0002308517Y0002267494D01*
X0002289012Y0002281940D01*
X0002188173Y0002181102D01*
X0002174031Y0002181102D01*
X0002073192Y0002281940D01*
X0002053687Y0002267494D01*
X0002030325Y0002212158D01*
X0002029917Y0002152094D01*
X0002015171Y0002152094D01*
X0002014074Y0002156660D01*
X0002012204Y0002182126D01*
X0002012204Y0002289011D01*
X0002080263Y0002289011D01*
X0002181102Y0002188173D01*
X0002281941Y0002289011D01*
X0003576326Y0002289011D01*
X0003677165Y0002188173D01*
X0003778004Y0002289011D01*
X0003763557Y0002308517D01*
X0003708221Y0002331879D01*
X0003648157Y0002332286D01*
X0003592510Y0002309677D01*
X0003590773Y0002308517D01*
X0003576326Y0002289011D01*
X0002281941Y0002289011D01*
X0002267494Y0002308517D01*
X0002212158Y0002331879D01*
X0002152094Y0002332286D01*
X0002096447Y0002309677D01*
X0002094710Y0002308517D01*
X0002080263Y0002289011D01*
X0002012204Y0002289011D01*
X0002012204Y0002978739D01*
X0002115161Y0002978739D01*
X0002115748Y0002975793D01*
X0002115748Y0002729324D01*
X0002115161Y0002726377D01*
X0002117484Y0002714702D01*
X0002120600Y0002710039D01*
X0002124097Y0002704805D01*
X0002126595Y0002703136D01*
X0002169672Y0002660059D01*
X0002171341Y0002657561D01*
X0002181238Y0002650948D01*
X0002189966Y0002649212D01*
X0002189966Y0002649212D01*
X0002192913Y0002648626D01*
X0002195860Y0002649212D01*
X0003009848Y0002649212D01*
X0003012795Y0002648626D01*
X0003015742Y0002649212D01*
X0003015742Y0002649212D01*
X0003024469Y0002650948D01*
X0003034367Y0002657561D01*
X0003036036Y0002660059D01*
X0003116345Y0002740368D01*
X0003150430Y0002706284D01*
X0003155351Y0002694403D01*
X0003164875Y0002684878D01*
X0003177320Y0002679724D01*
X0003190789Y0002679724D01*
X0003203234Y0002684878D01*
X0003212758Y0002694403D01*
X0003217913Y0002706847D01*
X0003217913Y0002720317D01*
X0003212758Y0002732761D01*
X0003203234Y0002742286D01*
X0003191353Y0002747207D01*
X0003159271Y0002779289D01*
X0003159271Y0002815156D01*
X0003162241Y0002807985D01*
X0003171765Y0002798461D01*
X0003184210Y0002793306D01*
X0003197679Y0002793306D01*
X0003210124Y0002798461D01*
X0003219648Y0002807985D01*
X0003223585Y0002817490D01*
X0003226553Y0002820459D01*
X0003229052Y0002822128D01*
X0003234678Y0002830548D01*
X0003235665Y0002832025D01*
X0003236605Y0002836752D01*
X0003237401Y0002840753D01*
X0003237401Y0002840753D01*
X0003237987Y0002843700D01*
X0003237401Y0002846647D01*
X0003237401Y0002860467D01*
X0003329724Y0002860467D01*
X0003329724Y0002844256D01*
X0003335927Y0002829280D01*
X0003347390Y0002817817D01*
X0003362367Y0002811613D01*
X0003378577Y0002811613D01*
X0003378660Y0002811648D01*
X0003397440Y0002811648D01*
X0003397440Y0002795437D01*
X0003403644Y0002780461D01*
X0003415107Y0002768998D01*
X0003430083Y0002762795D01*
X0003446294Y0002762795D01*
X0003461270Y0002768998D01*
X0003472733Y0002780461D01*
X0003478937Y0002795437D01*
X0003478937Y0002811648D01*
X0003472733Y0002826624D01*
X0003461270Y0002838087D01*
X0003446294Y0002844291D01*
X0003430083Y0002844291D01*
X0003415107Y0002838087D01*
X0003403644Y0002826624D01*
X0003397440Y0002811648D01*
X0003378660Y0002811648D01*
X0003393554Y0002817817D01*
X0003405016Y0002829280D01*
X0003411220Y0002844256D01*
X0003411220Y0002860467D01*
X0003405016Y0002875443D01*
X0003393554Y0002886906D01*
X0003378577Y0002893109D01*
X0003362367Y0002893109D01*
X0003347390Y0002886906D01*
X0003335927Y0002875443D01*
X0003329724Y0002860467D01*
X0003237401Y0002860467D01*
X0003237401Y0003069522D01*
X0003359645Y0003069522D01*
X0003359645Y0003053311D01*
X0003365849Y0003038335D01*
X0003377311Y0003026872D01*
X0003392288Y0003020669D01*
X0003408498Y0003020669D01*
X0003423475Y0003026872D01*
X0003434938Y0003038335D01*
X0003441141Y0003053311D01*
X0003441141Y0003069522D01*
X0003435923Y0003082120D01*
X0003441929Y0003096618D01*
X0003441929Y0003112829D01*
X0003435725Y0003127806D01*
X0003424262Y0003139268D01*
X0003409286Y0003145472D01*
X0003393075Y0003145472D01*
X0003378099Y0003139268D01*
X0003366636Y0003127806D01*
X0003360433Y0003112829D01*
X0003360433Y0003096618D01*
X0003365651Y0003084021D01*
X0003359645Y0003069522D01*
X0003237401Y0003069522D01*
X0003237401Y0003147446D01*
X0003237987Y0003150393D01*
X0003237401Y0003153340D01*
X0003237401Y0003153340D01*
X0003236889Y0003155913D01*
X0003236889Y0003162042D01*
X0003429724Y0003162042D01*
X0003429724Y0003145831D01*
X0003435927Y0003130854D01*
X0003447390Y0003119392D01*
X0003462367Y0003113188D01*
X0003478577Y0003113188D01*
X0003493554Y0003119392D01*
X0003505016Y0003130854D01*
X0003511220Y0003145831D01*
X0003511220Y0003162042D01*
X0003505016Y0003177018D01*
X0003493554Y0003188481D01*
X0003478577Y0003194684D01*
X0003462367Y0003194684D01*
X0003447390Y0003188481D01*
X0003435927Y0003177018D01*
X0003429724Y0003162042D01*
X0003236889Y0003162042D01*
X0003236889Y0003227486D01*
X0003237475Y0003230432D01*
X0003236889Y0003233379D01*
X0003236889Y0003233379D01*
X0003235153Y0003242107D01*
X0003228540Y0003252004D01*
X0003226042Y0003253674D01*
X0003181509Y0003298207D01*
X0003179839Y0003300705D01*
X0003169942Y0003307318D01*
X0003161214Y0003309054D01*
X0003161214Y0003309054D01*
X0003158267Y0003309640D01*
X0003157643Y0003309516D01*
X0003149254Y0003312991D01*
X0003135784Y0003312991D01*
X0003123340Y0003307837D01*
X0003113816Y0003298312D01*
X0003108661Y0003285868D01*
X0003108661Y0003272398D01*
X0003113816Y0003259954D01*
X0003123340Y0003250429D01*
X0003135784Y0003245275D01*
X0003149254Y0003245275D01*
X0003149648Y0003245438D01*
X0003177047Y0003218038D01*
X0003177047Y0003153852D01*
X0003176461Y0003150905D01*
X0003177047Y0003147958D01*
X0003177559Y0003145385D01*
X0003177559Y0002858268D01*
X0003171765Y0002855868D01*
X0003164192Y0002848295D01*
X0003164192Y0002858864D01*
X0003159037Y0002871309D01*
X0003149513Y0002880833D01*
X0003137069Y0002885988D01*
X0003131168Y0002885988D01*
X0003128271Y0002888885D01*
X0003115827Y0002894040D01*
X0003102357Y0002894040D01*
X0003096540Y0002891630D01*
X0003093131Y0002893042D01*
X0003079662Y0002893042D01*
X0003075120Y0002891161D01*
X0003070415Y0002893110D01*
X0003065703Y0002893110D01*
X0003061183Y0002904021D01*
X0003051659Y0002913545D01*
X0003039215Y0002918700D01*
X0003025745Y0002918700D01*
X0003013301Y0002913545D01*
X0003003776Y0002904021D01*
X0002999839Y0002894516D01*
X0002924614Y0002819291D01*
X0002408063Y0002819291D01*
X0002389383Y0002837970D01*
X0002389237Y0002838188D01*
X0002880124Y0002838188D01*
X0002883070Y0002837602D01*
X0002886017Y0002838188D01*
X0002886017Y0002838188D01*
X0002894745Y0002839924D01*
X0002904642Y0002846537D01*
X0002906312Y0002849036D01*
X0002976960Y0002919684D01*
X0002978642Y0002919684D01*
X0002988147Y0002915747D01*
X0003001616Y0002915747D01*
X0003014061Y0002920902D01*
X0003023585Y0002930426D01*
X0003028740Y0002942871D01*
X0003028740Y0002956340D01*
X0003023585Y0002968785D01*
X0003014061Y0002978309D01*
X0003001616Y0002983464D01*
X0002988147Y0002983464D01*
X0002978642Y0002979527D01*
X0002967513Y0002979527D01*
X0002964566Y0002980113D01*
X0002961620Y0002979527D01*
X0002961620Y0002979527D01*
X0002952892Y0002977791D01*
X0002942994Y0002971178D01*
X0002941325Y0002968679D01*
X0002897499Y0002924853D01*
X0002893993Y0002933317D01*
X0002891929Y0002935382D01*
X0002891929Y0002973278D01*
X0002893599Y0002974949D01*
X0002899803Y0002989925D01*
X0002899803Y0002997262D01*
X0002981904Y0002997262D01*
X0002993785Y0002992340D01*
X0003007255Y0002992340D01*
X0003019699Y0002997495D01*
X0003029223Y0003007020D01*
X0003034378Y0003019464D01*
X0003034378Y0003032934D01*
X0003031435Y0003040038D01*
X0003032283Y0003042084D01*
X0003032283Y0003055553D01*
X0003027128Y0003067998D01*
X0003017604Y0003077522D01*
X0003005160Y0003082677D01*
X0002991690Y0003082677D01*
X0002979809Y0003077756D01*
X0002418678Y0003077756D01*
X0002409484Y0003086949D01*
X0002407870Y0003089366D01*
X0002398298Y0003095761D01*
X0002389857Y0003097440D01*
X0002389857Y0003097440D01*
X0002387007Y0003098007D01*
X0002386148Y0003097836D01*
X0002377583Y0003110654D01*
X0002365020Y0003119048D01*
X0002370132Y0003121449D01*
X0002385497Y0003138309D01*
X0002392184Y0003154452D01*
X0002387407Y0003163503D01*
X0002340433Y0003163503D01*
X0002340433Y0003162716D01*
X0002330433Y0003162716D01*
X0002330433Y0003163503D01*
X0002329645Y0003163503D01*
X0002329645Y0003173503D01*
X0002330433Y0003173503D01*
X0002330433Y0003220504D01*
X0002340433Y0003220504D01*
X0002340433Y0003173503D01*
X0002387407Y0003173503D01*
X0002392184Y0003182554D01*
X0002390896Y0003185664D01*
X0002684448Y0003185664D01*
X0002684448Y0003169453D01*
X0002690652Y0003154476D01*
X0002702114Y0003143014D01*
X0002717091Y0003136810D01*
X0002733302Y0003136810D01*
X0002748278Y0003143014D01*
X0002759741Y0003154476D01*
X0002765944Y0003169453D01*
X0002765944Y0003185664D01*
X0002759741Y0003200640D01*
X0002748278Y0003212103D01*
X0002733302Y0003218306D01*
X0002717091Y0003218306D01*
X0002702114Y0003212103D01*
X0002690652Y0003200640D01*
X0002684448Y0003185664D01*
X0002390896Y0003185664D01*
X0002385497Y0003198697D01*
X0002370132Y0003215558D01*
X0002349483Y0003225255D01*
X0002340433Y0003220504D01*
X0002330433Y0003220504D01*
X0002321382Y0003225255D01*
X0002300733Y0003215558D01*
X0002293305Y0003207407D01*
X0002292447Y0003211722D01*
X0002286921Y0003219992D01*
X0002278652Y0003225517D01*
X0002268897Y0003227457D01*
X0002201968Y0003227457D01*
X0002192213Y0003225517D01*
X0002183944Y0003219992D01*
X0002178419Y0003211722D01*
X0002176478Y0003201968D01*
X0002176478Y0003135039D01*
X0002178419Y0003125284D01*
X0002183944Y0003117015D01*
X0002192213Y0003111489D01*
X0002194000Y0003111134D01*
X0002193282Y0003110654D01*
X0002180360Y0003091315D01*
X0002175823Y0003068503D01*
X0002178692Y0003054078D01*
X0002126595Y0003001981D01*
X0002124097Y0003000311D01*
X0002117484Y0002990414D01*
X0002115748Y0002981686D01*
X0002115748Y0002981686D01*
X0002115161Y0002978739D01*
X0002012204Y0002978739D01*
X0002012204Y0003480545D01*
X0002400196Y0003480545D01*
X0002400196Y0003464335D01*
X0002406400Y0003449358D01*
X0002417862Y0003437896D01*
X0002432839Y0003431692D01*
X0002435629Y0003431692D01*
X0002435629Y0003428902D01*
X0002441833Y0003413925D01*
X0002453296Y0003402463D01*
X0002468272Y0003396259D01*
X0002484483Y0003396259D01*
X0002499459Y0003402463D01*
X0002510922Y0003413925D01*
X0002517125Y0003428902D01*
X0002517125Y0003445112D01*
X0002513144Y0003454724D01*
X0002517125Y0003464335D01*
X0002517125Y0003480545D01*
X0002510922Y0003495522D01*
X0002499459Y0003506985D01*
X0002484483Y0003513188D01*
X0002468272Y0003513188D01*
X0002458661Y0003509207D01*
X0002449050Y0003513188D01*
X0002432839Y0003513188D01*
X0002417862Y0003506985D01*
X0002406400Y0003495522D01*
X0002400196Y0003480545D01*
X0002012204Y0003480545D01*
X0002012204Y0003569255D01*
X0002080263Y0003569255D01*
X0002094710Y0003549750D01*
X0002150046Y0003526388D01*
X0002210109Y0003525980D01*
X0002265757Y0003548589D01*
X0002267494Y0003549750D01*
X0002281941Y0003569255D01*
X0003576326Y0003569255D01*
X0003590773Y0003549750D01*
X0003646109Y0003526388D01*
X0003706172Y0003525980D01*
X0003761820Y0003548589D01*
X0003763557Y0003549750D01*
X0003778004Y0003569255D01*
X0003677165Y0003670094D01*
X0003576326Y0003569255D01*
X0002281941Y0003569255D01*
X0002181102Y0003670094D01*
X0002080263Y0003569255D01*
X0002012204Y0003569255D01*
X0002012204Y0003648157D01*
X0002029917Y0003648157D01*
X0002052526Y0003592509D01*
X0002053687Y0003590772D01*
X0002073192Y0003576326D01*
X0002174031Y0003677165D01*
X0002188173Y0003677165D01*
X0002289012Y0003576326D01*
X0002308517Y0003590772D01*
X0002331879Y0003646108D01*
X0002331893Y0003648157D01*
X0003525980Y0003648157D01*
X0003548589Y0003592509D01*
X0003549750Y0003590772D01*
X0003569255Y0003576326D01*
X0003670094Y0003677165D01*
X0003684236Y0003677165D01*
X0003785075Y0003576326D01*
X0003804580Y0003590772D01*
X0003827942Y0003646108D01*
X0003828349Y0003706172D01*
X0003805740Y0003761820D01*
X0003804580Y0003763557D01*
X0003785075Y0003778003D01*
X0003684236Y0003677165D01*
X0003670094Y0003677165D01*
X0003569255Y0003778003D01*
X0003549750Y0003763557D01*
X0003526388Y0003708221D01*
X0003525980Y0003648157D01*
X0002331893Y0003648157D01*
X0002332286Y0003706172D01*
X0002309677Y0003761820D01*
X0002308517Y0003763557D01*
X0002289012Y0003778003D01*
X0002188173Y0003677165D01*
X0002174031Y0003677165D01*
X0002073192Y0003778003D01*
X0002053687Y0003763557D01*
X0002030325Y0003708221D01*
X0002029917Y0003648157D01*
X0002012204Y0003648157D01*
X0002012204Y0003675920D01*
X0002014983Y0003707054D01*
X0002022901Y0003735999D01*
X0002035820Y0003763084D01*
X0002051622Y0003785074D01*
X0002080263Y0003785074D01*
X0002181102Y0003684236D01*
X0002281941Y0003785074D01*
X0003576326Y0003785074D01*
X0003677165Y0003684236D01*
X0003778004Y0003785074D01*
X0003763557Y0003804580D01*
X0003708221Y0003827942D01*
X0003648157Y0003828349D01*
X0003592510Y0003805740D01*
X0003590773Y0003804580D01*
X0003576326Y0003785074D01*
X0002281941Y0003785074D01*
X0002267494Y0003804580D01*
X0002212158Y0003827942D01*
X0002152094Y0003828349D01*
X0002096447Y0003805740D01*
X0002094710Y0003804580D01*
X0002080263Y0003785074D01*
X0002051622Y0003785074D01*
X0002053331Y0003787453D01*
X0002074881Y0003808336D01*
X0002099788Y0003825073D01*
X0002127266Y0003837135D01*
X0002156660Y0003844192D01*
X0002182127Y0003846062D01*
X0003675920Y0003846062D01*
X0003707054Y0003843284D01*
X0003707054Y0003843284D01*
G37*
X0003707054Y0003843284D02*
X0003735999Y0003835365D01*
X0003763084Y0003822446D01*
X0003787453Y0003804935D01*
X0003808337Y0003783386D01*
X0003825074Y0003758478D01*
X0003837135Y0003731001D01*
X0003844192Y0003701606D01*
X0003846062Y0003676140D01*
X0003846063Y0002182347D01*
X0003843284Y0002151212D01*
X0003835365Y0002122267D01*
X0003822446Y0002095182D01*
X0003804935Y0002070813D01*
X0003783386Y0002049930D01*
X0003758478Y0002033193D01*
X0003731001Y0002021131D01*
X0003701607Y0002014074D01*
X0003676140Y0002012204D01*
X0002182347Y0002012204D01*
X0002151212Y0002014983D01*
X0002122268Y0002022901D01*
X0002095182Y0002035820D01*
X0002070813Y0002053331D01*
X0002051567Y0002073192D01*
X0002080263Y0002073192D01*
X0002094710Y0002053687D01*
X0002150046Y0002030325D01*
X0002210109Y0002029917D01*
X0002265757Y0002052526D01*
X0002267494Y0002053687D01*
X0002281941Y0002073192D01*
X0003576326Y0002073192D01*
X0003590773Y0002053687D01*
X0003646109Y0002030325D01*
X0003706172Y0002029917D01*
X0003761820Y0002052526D01*
X0003763557Y0002053687D01*
X0003778004Y0002073192D01*
X0003677165Y0002174031D01*
X0003576326Y0002073192D01*
X0002281941Y0002073192D01*
X0002181102Y0002174031D01*
X0002080263Y0002073192D01*
X0002051567Y0002073192D01*
X0002049930Y0002074881D01*
X0002033193Y0002099788D01*
X0002021131Y0002127265D01*
X0002015171Y0002152094D01*
X0002029917Y0002152094D01*
X0002052526Y0002096446D01*
X0002053687Y0002094709D01*
X0002073192Y0002080263D01*
X0002174031Y0002181102D01*
X0002188173Y0002181102D01*
X0002289012Y0002080263D01*
X0002308517Y0002094709D01*
X0002331879Y0002150045D01*
X0002332210Y0002198818D01*
X0002347362Y0002198818D01*
X0002347362Y0002110235D01*
X0002347742Y0002108322D01*
X0002348826Y0002106700D01*
X0002350448Y0002105616D01*
X0002352362Y0002105235D01*
X0002588582Y0002105235D01*
X0002590496Y0002105616D01*
X0002592118Y0002106700D01*
X0002593202Y0002108322D01*
X0002593582Y0002110235D01*
X0002593582Y0002152094D01*
X0003525980Y0002152094D01*
X0003548589Y0002096446D01*
X0003549750Y0002094709D01*
X0003569255Y0002080263D01*
X0003670094Y0002181102D01*
X0003684236Y0002181102D01*
X0003785075Y0002080263D01*
X0003804580Y0002094709D01*
X0003827942Y0002150045D01*
X0003828349Y0002210109D01*
X0003805740Y0002265757D01*
X0003804580Y0002267494D01*
X0003785075Y0002281940D01*
X0003684236Y0002181102D01*
X0003670094Y0002181102D01*
X0003569255Y0002281940D01*
X0003549750Y0002267494D01*
X0003526388Y0002212158D01*
X0003525980Y0002152094D01*
X0002593582Y0002152094D01*
X0002593582Y0002198818D01*
X0002593202Y0002200732D01*
X0002592118Y0002202354D01*
X0002590496Y0002203438D01*
X0002588582Y0002203818D01*
X0002352362Y0002203818D01*
X0002350448Y0002203438D01*
X0002348826Y0002202354D01*
X0002347742Y0002200732D01*
X0002347362Y0002198818D01*
X0002332210Y0002198818D01*
X0002332286Y0002210109D01*
X0002309677Y0002265757D01*
X0002308517Y0002267494D01*
X0002289012Y0002281940D01*
X0002188173Y0002181102D01*
X0002174031Y0002181102D01*
X0002073192Y0002281940D01*
X0002053687Y0002267494D01*
X0002030325Y0002212158D01*
X0002029917Y0002152094D01*
X0002015171Y0002152094D01*
X0002014074Y0002156660D01*
X0002012204Y0002182126D01*
X0002012204Y0002289011D01*
X0002080263Y0002289011D01*
X0002181102Y0002188173D01*
X0002281941Y0002289011D01*
X0003576326Y0002289011D01*
X0003677165Y0002188173D01*
X0003778004Y0002289011D01*
X0003763557Y0002308517D01*
X0003708221Y0002331879D01*
X0003648157Y0002332286D01*
X0003592510Y0002309677D01*
X0003590773Y0002308517D01*
X0003576326Y0002289011D01*
X0002281941Y0002289011D01*
X0002267494Y0002308517D01*
X0002212158Y0002331879D01*
X0002152094Y0002332286D01*
X0002096447Y0002309677D01*
X0002094710Y0002308517D01*
X0002080263Y0002289011D01*
X0002012204Y0002289011D01*
X0002012204Y0002978739D01*
X0002115161Y0002978739D01*
X0002115748Y0002975793D01*
X0002115748Y0002729324D01*
X0002115161Y0002726377D01*
X0002117484Y0002714702D01*
X0002120600Y0002710039D01*
X0002124097Y0002704805D01*
X0002126595Y0002703136D01*
X0002169672Y0002660059D01*
X0002171341Y0002657561D01*
X0002181238Y0002650948D01*
X0002189966Y0002649212D01*
X0002189966Y0002649212D01*
X0002192913Y0002648626D01*
X0002195860Y0002649212D01*
X0003009848Y0002649212D01*
X0003012795Y0002648626D01*
X0003015742Y0002649212D01*
X0003015742Y0002649212D01*
X0003024469Y0002650948D01*
X0003034367Y0002657561D01*
X0003036036Y0002660059D01*
X0003116345Y0002740368D01*
X0003150430Y0002706284D01*
X0003155351Y0002694403D01*
X0003164875Y0002684878D01*
X0003177320Y0002679724D01*
X0003190789Y0002679724D01*
X0003203234Y0002684878D01*
X0003212758Y0002694403D01*
X0003217913Y0002706847D01*
X0003217913Y0002720317D01*
X0003212758Y0002732761D01*
X0003203234Y0002742286D01*
X0003191353Y0002747207D01*
X0003159271Y0002779289D01*
X0003159271Y0002815156D01*
X0003162241Y0002807985D01*
X0003171765Y0002798461D01*
X0003184210Y0002793306D01*
X0003197679Y0002793306D01*
X0003210124Y0002798461D01*
X0003219648Y0002807985D01*
X0003223585Y0002817490D01*
X0003226553Y0002820459D01*
X0003229052Y0002822128D01*
X0003234678Y0002830548D01*
X0003235665Y0002832025D01*
X0003236605Y0002836752D01*
X0003237401Y0002840753D01*
X0003237401Y0002840753D01*
X0003237987Y0002843700D01*
X0003237401Y0002846647D01*
X0003237401Y0002860467D01*
X0003329724Y0002860467D01*
X0003329724Y0002844256D01*
X0003335927Y0002829280D01*
X0003347390Y0002817817D01*
X0003362367Y0002811613D01*
X0003378577Y0002811613D01*
X0003378660Y0002811648D01*
X0003397440Y0002811648D01*
X0003397440Y0002795437D01*
X0003403644Y0002780461D01*
X0003415107Y0002768998D01*
X0003430083Y0002762795D01*
X0003446294Y0002762795D01*
X0003461270Y0002768998D01*
X0003472733Y0002780461D01*
X0003478937Y0002795437D01*
X0003478937Y0002811648D01*
X0003472733Y0002826624D01*
X0003461270Y0002838087D01*
X0003446294Y0002844291D01*
X0003430083Y0002844291D01*
X0003415107Y0002838087D01*
X0003403644Y0002826624D01*
X0003397440Y0002811648D01*
X0003378660Y0002811648D01*
X0003393554Y0002817817D01*
X0003405016Y0002829280D01*
X0003411220Y0002844256D01*
X0003411220Y0002860467D01*
X0003405016Y0002875443D01*
X0003393554Y0002886906D01*
X0003378577Y0002893109D01*
X0003362367Y0002893109D01*
X0003347390Y0002886906D01*
X0003335927Y0002875443D01*
X0003329724Y0002860467D01*
X0003237401Y0002860467D01*
X0003237401Y0003069522D01*
X0003359645Y0003069522D01*
X0003359645Y0003053311D01*
X0003365849Y0003038335D01*
X0003377311Y0003026872D01*
X0003392288Y0003020669D01*
X0003408498Y0003020669D01*
X0003423475Y0003026872D01*
X0003434938Y0003038335D01*
X0003441141Y0003053311D01*
X0003441141Y0003069522D01*
X0003435923Y0003082120D01*
X0003441929Y0003096618D01*
X0003441929Y0003112829D01*
X0003435725Y0003127806D01*
X0003424262Y0003139268D01*
X0003409286Y0003145472D01*
X0003393075Y0003145472D01*
X0003378099Y0003139268D01*
X0003366636Y0003127806D01*
X0003360433Y0003112829D01*
X0003360433Y0003096618D01*
X0003365651Y0003084021D01*
X0003359645Y0003069522D01*
X0003237401Y0003069522D01*
X0003237401Y0003147446D01*
X0003237987Y0003150393D01*
X0003237401Y0003153340D01*
X0003237401Y0003153340D01*
X0003236889Y0003155913D01*
X0003236889Y0003162042D01*
X0003429724Y0003162042D01*
X0003429724Y0003145831D01*
X0003435927Y0003130854D01*
X0003447390Y0003119392D01*
X0003462367Y0003113188D01*
X0003478577Y0003113188D01*
X0003493554Y0003119392D01*
X0003505016Y0003130854D01*
X0003511220Y0003145831D01*
X0003511220Y0003162042D01*
X0003505016Y0003177018D01*
X0003493554Y0003188481D01*
X0003478577Y0003194684D01*
X0003462367Y0003194684D01*
X0003447390Y0003188481D01*
X0003435927Y0003177018D01*
X0003429724Y0003162042D01*
X0003236889Y0003162042D01*
X0003236889Y0003227486D01*
X0003237475Y0003230432D01*
X0003236889Y0003233379D01*
X0003236889Y0003233379D01*
X0003235153Y0003242107D01*
X0003228540Y0003252004D01*
X0003226042Y0003253674D01*
X0003181509Y0003298207D01*
X0003179839Y0003300705D01*
X0003169942Y0003307318D01*
X0003161214Y0003309054D01*
X0003161214Y0003309054D01*
X0003158267Y0003309640D01*
X0003157643Y0003309516D01*
X0003149254Y0003312991D01*
X0003135784Y0003312991D01*
X0003123340Y0003307837D01*
X0003113816Y0003298312D01*
X0003108661Y0003285868D01*
X0003108661Y0003272398D01*
X0003113816Y0003259954D01*
X0003123340Y0003250429D01*
X0003135784Y0003245275D01*
X0003149254Y0003245275D01*
X0003149648Y0003245438D01*
X0003177047Y0003218038D01*
X0003177047Y0003153852D01*
X0003176461Y0003150905D01*
X0003177047Y0003147958D01*
X0003177559Y0003145385D01*
X0003177559Y0002858268D01*
X0003171765Y0002855868D01*
X0003164192Y0002848295D01*
X0003164192Y0002858864D01*
X0003159037Y0002871309D01*
X0003149513Y0002880833D01*
X0003137069Y0002885988D01*
X0003131168Y0002885988D01*
X0003128271Y0002888885D01*
X0003115827Y0002894040D01*
X0003102357Y0002894040D01*
X0003096540Y0002891630D01*
X0003093131Y0002893042D01*
X0003079662Y0002893042D01*
X0003075120Y0002891161D01*
X0003070415Y0002893110D01*
X0003065703Y0002893110D01*
X0003061183Y0002904021D01*
X0003051659Y0002913545D01*
X0003039215Y0002918700D01*
X0003025745Y0002918700D01*
X0003013301Y0002913545D01*
X0003003776Y0002904021D01*
X0002999839Y0002894516D01*
X0002924614Y0002819291D01*
X0002408063Y0002819291D01*
X0002389383Y0002837970D01*
X0002389237Y0002838188D01*
X0002880124Y0002838188D01*
X0002883070Y0002837602D01*
X0002886017Y0002838188D01*
X0002886017Y0002838188D01*
X0002894745Y0002839924D01*
X0002904642Y0002846537D01*
X0002906312Y0002849036D01*
X0002976960Y0002919684D01*
X0002978642Y0002919684D01*
X0002988147Y0002915747D01*
X0003001616Y0002915747D01*
X0003014061Y0002920902D01*
X0003023585Y0002930426D01*
X0003028740Y0002942871D01*
X0003028740Y0002956340D01*
X0003023585Y0002968785D01*
X0003014061Y0002978309D01*
X0003001616Y0002983464D01*
X0002988147Y0002983464D01*
X0002978642Y0002979527D01*
X0002967513Y0002979527D01*
X0002964566Y0002980113D01*
X0002961620Y0002979527D01*
X0002961620Y0002979527D01*
X0002952892Y0002977791D01*
X0002942994Y0002971178D01*
X0002941325Y0002968679D01*
X0002897499Y0002924853D01*
X0002893993Y0002933317D01*
X0002891929Y0002935382D01*
X0002891929Y0002973278D01*
X0002893599Y0002974949D01*
X0002899803Y0002989925D01*
X0002899803Y0002997262D01*
X0002981904Y0002997262D01*
X0002993785Y0002992340D01*
X0003007255Y0002992340D01*
X0003019699Y0002997495D01*
X0003029223Y0003007020D01*
X0003034378Y0003019464D01*
X0003034378Y0003032934D01*
X0003031435Y0003040038D01*
X0003032283Y0003042084D01*
X0003032283Y0003055553D01*
X0003027128Y0003067998D01*
X0003017604Y0003077522D01*
X0003005160Y0003082677D01*
X0002991690Y0003082677D01*
X0002979809Y0003077756D01*
X0002418678Y0003077756D01*
X0002409484Y0003086949D01*
X0002407870Y0003089366D01*
X0002398298Y0003095761D01*
X0002389857Y0003097440D01*
X0002389857Y0003097440D01*
X0002387007Y0003098007D01*
X0002386148Y0003097836D01*
X0002377583Y0003110654D01*
X0002365020Y0003119048D01*
X0002370132Y0003121449D01*
X0002385497Y0003138309D01*
X0002392184Y0003154452D01*
X0002387407Y0003163503D01*
X0002340433Y0003163503D01*
X0002340433Y0003162716D01*
X0002330433Y0003162716D01*
X0002330433Y0003163503D01*
X0002329645Y0003163503D01*
X0002329645Y0003173503D01*
X0002330433Y0003173503D01*
X0002330433Y0003220504D01*
X0002340433Y0003220504D01*
X0002340433Y0003173503D01*
X0002387407Y0003173503D01*
X0002392184Y0003182554D01*
X0002390896Y0003185664D01*
X0002684448Y0003185664D01*
X0002684448Y0003169453D01*
X0002690652Y0003154476D01*
X0002702114Y0003143014D01*
X0002717091Y0003136810D01*
X0002733302Y0003136810D01*
X0002748278Y0003143014D01*
X0002759741Y0003154476D01*
X0002765944Y0003169453D01*
X0002765944Y0003185664D01*
X0002759741Y0003200640D01*
X0002748278Y0003212103D01*
X0002733302Y0003218306D01*
X0002717091Y0003218306D01*
X0002702114Y0003212103D01*
X0002690652Y0003200640D01*
X0002684448Y0003185664D01*
X0002390896Y0003185664D01*
X0002385497Y0003198697D01*
X0002370132Y0003215558D01*
X0002349483Y0003225255D01*
X0002340433Y0003220504D01*
X0002330433Y0003220504D01*
X0002321382Y0003225255D01*
X0002300733Y0003215558D01*
X0002293305Y0003207407D01*
X0002292447Y0003211722D01*
X0002286921Y0003219992D01*
X0002278652Y0003225517D01*
X0002268897Y0003227457D01*
X0002201968Y0003227457D01*
X0002192213Y0003225517D01*
X0002183944Y0003219992D01*
X0002178419Y0003211722D01*
X0002176478Y0003201968D01*
X0002176478Y0003135039D01*
X0002178419Y0003125284D01*
X0002183944Y0003117015D01*
X0002192213Y0003111489D01*
X0002194000Y0003111134D01*
X0002193282Y0003110654D01*
X0002180360Y0003091315D01*
X0002175823Y0003068503D01*
X0002178692Y0003054078D01*
X0002126595Y0003001981D01*
X0002124097Y0003000311D01*
X0002117484Y0002990414D01*
X0002115748Y0002981686D01*
X0002115748Y0002981686D01*
X0002115161Y0002978739D01*
X0002012204Y0002978739D01*
X0002012204Y0003480545D01*
X0002400196Y0003480545D01*
X0002400196Y0003464335D01*
X0002406400Y0003449358D01*
X0002417862Y0003437896D01*
X0002432839Y0003431692D01*
X0002435629Y0003431692D01*
X0002435629Y0003428902D01*
X0002441833Y0003413925D01*
X0002453296Y0003402463D01*
X0002468272Y0003396259D01*
X0002484483Y0003396259D01*
X0002499459Y0003402463D01*
X0002510922Y0003413925D01*
X0002517125Y0003428902D01*
X0002517125Y0003445112D01*
X0002513144Y0003454724D01*
X0002517125Y0003464335D01*
X0002517125Y0003480545D01*
X0002510922Y0003495522D01*
X0002499459Y0003506985D01*
X0002484483Y0003513188D01*
X0002468272Y0003513188D01*
X0002458661Y0003509207D01*
X0002449050Y0003513188D01*
X0002432839Y0003513188D01*
X0002417862Y0003506985D01*
X0002406400Y0003495522D01*
X0002400196Y0003480545D01*
X0002012204Y0003480545D01*
X0002012204Y0003569255D01*
X0002080263Y0003569255D01*
X0002094710Y0003549750D01*
X0002150046Y0003526388D01*
X0002210109Y0003525980D01*
X0002265757Y0003548589D01*
X0002267494Y0003549750D01*
X0002281941Y0003569255D01*
X0003576326Y0003569255D01*
X0003590773Y0003549750D01*
X0003646109Y0003526388D01*
X0003706172Y0003525980D01*
X0003761820Y0003548589D01*
X0003763557Y0003549750D01*
X0003778004Y0003569255D01*
X0003677165Y0003670094D01*
X0003576326Y0003569255D01*
X0002281941Y0003569255D01*
X0002181102Y0003670094D01*
X0002080263Y0003569255D01*
X0002012204Y0003569255D01*
X0002012204Y0003648157D01*
X0002029917Y0003648157D01*
X0002052526Y0003592509D01*
X0002053687Y0003590772D01*
X0002073192Y0003576326D01*
X0002174031Y0003677165D01*
X0002188173Y0003677165D01*
X0002289012Y0003576326D01*
X0002308517Y0003590772D01*
X0002331879Y0003646108D01*
X0002331893Y0003648157D01*
X0003525980Y0003648157D01*
X0003548589Y0003592509D01*
X0003549750Y0003590772D01*
X0003569255Y0003576326D01*
X0003670094Y0003677165D01*
X0003684236Y0003677165D01*
X0003785075Y0003576326D01*
X0003804580Y0003590772D01*
X0003827942Y0003646108D01*
X0003828349Y0003706172D01*
X0003805740Y0003761820D01*
X0003804580Y0003763557D01*
X0003785075Y0003778003D01*
X0003684236Y0003677165D01*
X0003670094Y0003677165D01*
X0003569255Y0003778003D01*
X0003549750Y0003763557D01*
X0003526388Y0003708221D01*
X0003525980Y0003648157D01*
X0002331893Y0003648157D01*
X0002332286Y0003706172D01*
X0002309677Y0003761820D01*
X0002308517Y0003763557D01*
X0002289012Y0003778003D01*
X0002188173Y0003677165D01*
X0002174031Y0003677165D01*
X0002073192Y0003778003D01*
X0002053687Y0003763557D01*
X0002030325Y0003708221D01*
X0002029917Y0003648157D01*
X0002012204Y0003648157D01*
X0002012204Y0003675920D01*
X0002014983Y0003707054D01*
X0002022901Y0003735999D01*
X0002035820Y0003763084D01*
X0002051622Y0003785074D01*
X0002080263Y0003785074D01*
X0002181102Y0003684236D01*
X0002281941Y0003785074D01*
X0003576326Y0003785074D01*
X0003677165Y0003684236D01*
X0003778004Y0003785074D01*
X0003763557Y0003804580D01*
X0003708221Y0003827942D01*
X0003648157Y0003828349D01*
X0003592510Y0003805740D01*
X0003590773Y0003804580D01*
X0003576326Y0003785074D01*
X0002281941Y0003785074D01*
X0002267494Y0003804580D01*
X0002212158Y0003827942D01*
X0002152094Y0003828349D01*
X0002096447Y0003805740D01*
X0002094710Y0003804580D01*
X0002080263Y0003785074D01*
X0002051622Y0003785074D01*
X0002053331Y0003787453D01*
X0002074881Y0003808336D01*
X0002099788Y0003825073D01*
X0002127266Y0003837135D01*
X0002156660Y0003844192D01*
X0002182127Y0003846062D01*
X0003675920Y0003846062D01*
X0003707054Y0003843284D01*
G36*
X0003056475Y0002790719D02*
X0002996464Y0002730708D01*
X0002964755Y0002730708D01*
X0003056475Y0002822428D01*
X0003056475Y0002790719D01*
X0003056475Y0002790719D01*
G37*
X0003056475Y0002790719D02*
X0002996464Y0002730708D01*
X0002964755Y0002730708D01*
X0003056475Y0002822428D01*
X0003056475Y0002790719D01*
G36*
X0002818307Y0002989925D02*
X0002824510Y0002974949D01*
X0002826181Y0002973278D01*
X0002826181Y0002934594D01*
X0002824904Y0002933317D01*
X0002818700Y0002918341D01*
X0002818700Y0002902130D01*
X0002820398Y0002898031D01*
X0002386018Y0002898031D01*
X0002377583Y0002910654D01*
X0002365836Y0002918503D01*
X0002377583Y0002926353D01*
X0002387332Y0002940943D01*
X0002388849Y0002941245D01*
X0002398421Y0002947641D01*
X0002400035Y0002950057D01*
X0002447240Y0002997262D01*
X0002818307Y0002997262D01*
X0002818307Y0002989925D01*
X0002818307Y0002989925D01*
G37*
X0002818307Y0002989925D02*
X0002824510Y0002974949D01*
X0002826181Y0002973278D01*
X0002826181Y0002934594D01*
X0002824904Y0002933317D01*
X0002818700Y0002918341D01*
X0002818700Y0002902130D01*
X0002820398Y0002898031D01*
X0002386018Y0002898031D01*
X0002377583Y0002910654D01*
X0002365836Y0002918503D01*
X0002377583Y0002926353D01*
X0002387332Y0002940943D01*
X0002388849Y0002941245D01*
X0002398421Y0002947641D01*
X0002400035Y0002950057D01*
X0002447240Y0002997262D01*
X0002818307Y0002997262D01*
X0002818307Y0002989925D01*
G04 #@! TD*
M02*