<?xml version="1.0" standalone="no"?>
 <!DOCTYPE svg PUBLIC "-//W3C//DTD SVG 1.1//EN" 
 "http://www.w3.org/Graphics/SVG/1.1/DTD/svg11.dtd"> 
<svg xmlns="http://www.w3.org/2000/svg" version="1.1" 
    width="7.13994cm" height="2.56794cm" viewBox="0 0 28110 10110 ">
<title>SVG Picture created as FrontPanel-F_SilkS.svg date 2019/04/15 14:48:40 </title>
  <desc>Picture generated by PCBNEW </desc>
<g style="fill:#000000; fill-opacity:1;stroke:#000000; stroke-opacity:1;
stroke-linecap:round; stroke-linejoin:round; "
 transform="translate(0 0) scale(1 1)">
</g>
<g style="fill:#000000; fill-opacity:0.0; 
stroke:#000000; stroke-width:-0.000393701; stroke-opacity:1; 
stroke-linecap:round; stroke-linejoin:round;">
</g>
<g style="fill:#008484; fill-opacity:0.0; 
stroke:#008484; stroke-width:-0.000393701; stroke-opacity:1; 
stroke-linecap:round; stroke-linejoin:round;">
</g>
<g style="fill:#008484; fill-opacity:0.0; 
stroke:#008484; stroke-width:157.48; stroke-opacity:1; 
stroke-linecap:round; stroke-linejoin:round;">
<path d="M9836 1203
L9836 2047
L9780 2215
L9668 2328
L9499 2384
L9386 2384
" />
<path d="M10568 2384
L10455 2328
L10399 2272
L10343 2159
L10343 1822
L10399 1709
L10455 1653
L10568 1597
L10736 1597
L10849 1653
L10905 1709
L10961 1822
L10961 2159
L10905 2272
L10849 2328
L10736 2384
L10568 2384
" />
<path d="M11411 2328
L11524 2384
L11749 2384
L11861 2328
L11917 2215
L11917 2159
L11861 2047
L11749 1991
L11580 1991
L11467 1934
L11411 1822
L11411 1766
L11467 1653
L11580 1597
L11749 1597
L11861 1653
" />
<path d="M12424 2384
L12424 1203
" />
<path d="M12930 2384
L12930 1766
L12874 1653
L12761 1597
L12592 1597
L12480 1653
L12424 1709
" />
<path d="M13548 1203
L13436 1428
" />
<path d="M13998 2328
L14111 2384
L14336 2384
L14448 2328
L14505 2215
L14505 2159
L14448 2047
L14336 1991
L14167 1991
L14055 1934
L13998 1822
L13998 1766
L14055 1653
L14167 1597
L14336 1597
L14448 1653
" />
<path d="M15742 1203
L16136 2384
L16529 1203
" />
<path d="M16923 2384
L16923 1203
L17598 2384
L17598 1203
" />
<path d="M18104 2047
L18667 2047
" />
<path d="M17992 2384
L18385 1203
L18779 2384
" />
</g>
<g style="fill:#008484; fill-opacity:0.0; 
stroke:#008484; stroke-width:118.11; stroke-opacity:1; 
stroke-linecap:round; stroke-linejoin:round;">
<path d="M18829 4560
L18829 3773
L19129 3773
L19204 3810
L19241 3848
L19279 3923
L19279 4035
L19241 4110
L19204 4148
L19129 4185
L18829 4185
" />
<path d="M19729 4560
L19654 4523
L19616 4485
L19579 4410
L19579 4185
L19616 4110
L19654 4073
L19729 4035
L19841 4035
L19916 4073
L19954 4110
L19991 4185
L19991 4410
L19954 4485
L19916 4523
L19841 4560
L19729 4560
" />
<path d="M20329 4560
L20329 4035
" />
<path d="M20329 4185
L20366 4110
L20404 4073
L20479 4035
L20554 4035
" />
<path d="M20704 4035
L21004 4035
" />
<path d="M20816 3773
L20816 4448
L20854 4523
L20929 4560
L21004 4560
" />
<path d="M21828 3848
L21866 3810
L21941 3773
L22128 3773
L22203 3810
L22241 3848
L22278 3923
L22278 3998
L22241 4110
L21791 4560
L22278 4560
" />
<path d="M5843 4547
L5843 3759
L6143 3759
L6218 3797
L6255 3834
L6293 3909
L6293 4022
L6255 4097
L6218 4134
L6143 4172
L5843 4172
" />
<path d="M6742 4547
L6667 4509
L6630 4472
L6593 4397
L6593 4172
L6630 4097
L6667 4059
L6742 4022
L6855 4022
L6930 4059
L6967 4097
L7005 4172
L7005 4397
L6967 4472
L6930 4509
L6855 4547
L6742 4547
" />
<path d="M7342 4547
L7342 4022
" />
<path d="M7342 4172
L7380 4097
L7417 4059
L7492 4022
L7567 4022
" />
<path d="M7717 4022
L8017 4022
" />
<path d="M7830 3759
L7830 4434
L7867 4509
L7942 4547
L8017 4547
" />
<path d="M9292 4547
L8842 4547
" />
<path d="M9067 4547
L9067 3759
L8992 3872
L8917 3947
L8842 3984
" />
<g >
</g>
</g>
<g style="fill:#000000; fill-opacity:0.0; 
stroke:#000000; stroke-width:118.11; stroke-opacity:1; 
stroke-linecap:round; stroke-linejoin:round;">
</g>
<g style="fill:#C2C200; fill-opacity:0.0; 
stroke:#C2C200; stroke-width:118.11; stroke-opacity:1; 
stroke-linecap:round; stroke-linejoin:round;">
</g>
<g style="fill:#C2C200; fill-opacity:0.0; 
stroke:#C2C200; stroke-width:78.7402; stroke-opacity:1; 
stroke-linecap:round; stroke-linejoin:round;">
<path d="M2007.87 39.3705 A1968.5 1968.5 0.0 0 0 39.3705 2007.87 " />
<path d="M28070.9 2007.87 A1968.5 1968.5 0.0 0 0 26102.4 39.3705 " />
<path d="M26102.4 10078.7 A1968.5 1968.5 0.0 0 0 28070.9 8110.24 " />
<path d="M2007 39
L26102 39
" />
<circle cx="26850.4" cy="8700.79" r="551.181" /> 
<path d="M39 8110
L39 2007
" />
<circle cx="20535.4" cy="6960.56" r="1476.38" /> 
<circle cx="26850.4" cy="1417.32" r="551.181" /> 
<path d="M26102 10078
L2007 10078
" />
<circle cx="7549.14" cy="6946.78" r="1476.38" /> 
<circle cx="1259.84" cy="8700.79" r="551.181" /> 
<circle cx="1259.84" cy="1417.32" r="551.181" /> 
<path d="M28070 2007
L28070 8110
" />
<path d="M39.3705 8110.24 A1968.5 1968.5 0.0 0 0 2007.87 10078.7 " />
<g >
</g>
</g> 
</svg>
